<?xml version="1.0" encoding="UTF-8" standalone="no"?>
<svg xmlns:xlink="http://www.w3.org/1999/xlink" height="52.0px" width="52.0px" xmlns="http://www.w3.org/2000/svg">
  <g transform="matrix(1.0, 0.0, 0.0, 1.0, 0.0, 0.0)">
    <use height="102.0" transform="matrix(1.0, 0.0, 0.0, 1.0, -25.0, -25.0)" width="102.0" xlink:href="#shape0"/>
    <use height="0.0" transform="matrix(0.1271, 0.0267, -0.0053, 0.1188, 24.0, 31.7)" width="0.0" xlink:href="#sprite0"/>
    <use height="0.0" transform="matrix(0.054, 0.0113, -0.0258, 0.0775, 34.05, 19.95)" width="0.0" xlink:href="#sprite0"/>
    <use height="0.0" transform="matrix(0.0276, 0.0037, -0.0076, 0.0554, 13.25, 40.25)" width="0.0" xlink:href="#sprite0"/>
    <use height="81.5" transform="matrix(0.1436, 0.0302, -0.007, 0.1577, 20.15, 28.4)" width="81.5" xlink:href="#sprite1"/>
  </g>
  <defs>
    <g id="shape0" transform="matrix(1.0, 0.0, 0.0, 1.0, 25.0, 25.0)">
      <path d="M52.0 0.0 L52.0 52.0 0.0 52.0 0.0 0.0 52.0 0.0" fill="#795fa9" fill-opacity="0.0" fill-rule="evenodd" stroke="none"/>
      <path d="M26.2 5.8 L27.15 7.05 27.2 7.1 27.35 7.45 27.7 7.35 32.65 9.3 34.4 10.65 34.6 10.4 35.15 10.5 37.2 12.15 39.25 12.05 40.65 12.5 41.1 12.95 41.45 13.7 40.7 16.25 40.0 17.5 39.75 17.7 40.05 18.7 40.0 20.15 39.45 20.25 Q38.85 22.65 37.65 24.1 L37.55 24.4 35.65 25.35 35.7 26.15 36.3 27.25 36.95 31.7 36.85 34.45 35.65 39.1 33.2 40.1 32.2 39.9 31.6 39.45 31.4 39.6 27.65 40.4 26.85 42.95 25.45 43.7 24.65 43.1 24.3 42.65 24.4 40.15 23.2 39.7 23.0 41.1 22.0 43.75 20.75 45.95 20.9 46.5 19.95 47.6 18.0 48.1 15.85 47.65 14.8 47.25 14.45 46.75 13.0 45.75 12.55 44.8 11.85 44.35 11.15 42.65 10.85 41.05 10.95 39.5 11.4 37.5 12.85 36.3 14.45 35.75 14.55 35.85 16.3 36.85 17.25 39.2 16.65 40.55 16.6 40.6 15.7 40.35 15.0 40.4 15.35 41.35 15.05 41.7 15.95 42.75 17.75 41.65 18.75 38.1 Q17.9 37.75 17.05 37.5 L15.15 34.95 14.95 35.4 14.8 35.4 13.35 35.65 12.7 34.85 12.45 34.35 13.1 32.25 12.75 31.8 12.8 31.05 12.25 30.15 12.7 24.5 13.55 23.3 13.85 22.3 14.4 21.6 13.4 20.95 12.3 17.85 13.9 13.85 11.1 12.2 10.6 11.2 10.65 10.2 11.3 8.15 13.75 6.85 17.05 7.9 17.85 8.6 18.05 9.75 18.7 10.8 18.8 11.45 Q20.25 9.35 22.45 7.9 L22.85 7.85 22.8 5.95 23.25 4.55 23.55 4.15 24.2 4.1 26.2 5.8 Z" fill="none" stroke="#000000" stroke-linecap="round" stroke-linejoin="round" stroke-opacity="0.3019608" stroke-width="1.0"/>
      <path d="M25.65 42.85 L25.7 41.3 24.35 41.05 24.45 39.4 26.6 39.55 26.3 41.95 25.65 42.85" fill="#f0f0d2" fill-rule="evenodd" stroke="none"/>
      <path d="M24.65 43.1 L25.35 43.25 25.65 42.85 26.3 41.95 26.7 43.0 25.45 43.7 24.65 43.1" fill="#d5d580" fill-rule="evenodd" stroke="none"/>
      <path d="M24.65 43.1 L24.3 42.65 24.35 41.05 25.7 41.3 25.65 42.85 25.35 43.25 24.65 43.1" fill="#ffffff" fill-rule="evenodd" stroke="none"/>
      <path d="M26.7 43.0 L26.3 41.95 26.6 39.55 27.8 39.65 26.85 42.95 26.7 43.0" fill="#999933" fill-rule="evenodd" stroke="none"/>
      <path d="M24.35 41.05 L24.3 42.65 24.65 43.1 25.45 43.7 26.7 43.0 26.85 42.95 27.8 39.65 26.6 39.55 26.6 39.25 M24.35 41.05 L24.45 39.4 26.6 39.55" fill="none" stroke="#000000" stroke-linecap="round" stroke-linejoin="round" stroke-opacity="0.3019608" stroke-width="0.30000000000000004"/>
      <path d="M15.95 42.75 L16.55 42.4 16.75 43.1 Q16.9 43.95 16.35 44.85 L15.25 45.6 Q13.1 45.1 13.55 43.45 L14.1 41.6 14.25 41.4 14.5 42.6 15.65 42.95 15.95 42.75 M18.5 38.75 L19.35 35.9 19.85 35.85 19.15 38.4 18.5 38.75 M20.9 42.25 L20.7 42.6 19.65 44.25 18.7 43.4 18.45 42.85 18.25 42.55 Q18.25 41.55 18.4 40.9 L19.15 38.4 Q20.25 39.05 21.0 40.15 21.2 40.85 20.9 42.1 L20.9 42.25" fill="#f0f0d2" fill-rule="evenodd" stroke="none"/>
      <path d="M17.25 39.2 L16.65 40.55 16.4 39.85 16.1 38.5 15.95 37.05 17.25 39.2 M15.35 41.35 L15.05 41.7 15.05 41.25 14.25 41.4 12.95 42.0 13.5 41.55 13.95 41.1 15.05 40.85 15.35 41.35 M20.75 45.95 L20.9 46.5 19.95 47.6 19.45 46.3 19.6 46.15 19.7 45.9 20.6 45.5 20.75 45.95 M18.0 48.1 L15.85 47.65 14.8 47.25 16.15 47.55 17.6 47.4 18.0 48.1 M10.95 39.5 L11.4 37.5 12.85 36.3 Q11.85 37.5 10.95 39.5" fill="#f4a33c" fill-rule="evenodd" stroke="none"/>
      <path d="M16.55 42.4 L17.75 41.65 18.15 40.25 Q17.8 41.9 18.1 42.95 L18.3 43.65 18.45 43.9 18.7 44.15 18.25 44.0 17.8 43.85 16.35 44.85 Q16.9 43.95 16.75 43.1 L16.55 42.4 M22.35 35.85 L22.6 35.8 21.3 41.9 21.3 42.1 20.65 43.45 20.9 42.25 20.9 42.1 21.45 40.15 22.35 35.85 M14.45 46.75 L13.0 45.75 14.35 46.3 14.45 46.75 M14.25 41.4 L15.05 41.25 15.05 41.7 14.5 42.6 14.25 41.4" fill="#d5d580" fill-rule="evenodd" stroke="none"/>
      <path d="M11.8 44.2 L11.15 42.65 11.4 42.05 11.65 41.95 11.25 40.85 11.45 39.55 12.55 37.6 Q13.35 38.55 13.05 41.6 L12.6 41.6 11.9 42.75 11.8 44.2 M14.35 39.8 Q13.55 38.35 13.75 36.25 L14.55 35.85 15.95 37.05 16.1 38.5 15.45 39.45 14.65 39.45 14.35 39.8 M15.25 45.6 L16.35 44.85 Q17.6 44.9 17.0 46.55 L16.9 46.75 15.5 46.75 14.55 46.05 14.8 45.85 15.25 45.6 M18.25 44.0 L18.7 44.15 19.5 44.45 19.95 44.75 20.25 45.15 19.7 45.9 19.6 46.15 18.2 46.5 Q17.8 45.7 17.9 45.05 17.9 44.5 18.25 44.0 M19.15 46.45 L19.45 46.3 19.95 47.6 19.15 46.45 M18.45 46.75 L17.6 47.4 16.15 47.55 18.45 46.75" fill="#ffde4f" fill-rule="evenodd" stroke="none"/>
      <path d="M19.85 35.85 L22.35 35.85 21.45 40.15 20.9 42.1 Q21.2 40.85 21.0 40.15 20.25 39.05 19.15 38.4 L19.85 35.85 M22.6 35.8 L23.7 36.05 23.6 36.85 Q22.9 36.65 22.05 40.3 L21.8 41.5 21.7 43.05 23.0 41.1 22.0 43.75 21.15 45.3 21.55 43.25 21.3 41.9 22.6 35.8" fill="#a6a637" fill-rule="evenodd" stroke="none"/>
      <path d="M18.15 40.25 L18.5 38.75 19.15 38.4 18.4 40.9 Q18.25 41.55 18.25 42.55 L18.45 42.85 18.7 43.4 19.65 44.25 20.7 42.6 20.9 42.25 20.65 43.45 19.95 44.75 19.5 44.45 18.7 44.15 18.45 43.9 18.3 43.65 18.1 42.95 Q17.8 41.9 18.15 40.25 M14.1 41.6 L13.55 43.45 Q13.1 45.1 15.25 45.6 L14.8 45.85 Q13.5 45.7 13.15 44.9 12.8 44.2 12.95 43.6 L13.05 43.15 14.1 41.6" fill="#ffffff" fill-rule="evenodd" stroke="none"/>
      <path d="M23.6 36.85 L23.0 41.1 21.7 43.05 21.8 41.5 22.05 40.3 Q22.9 36.65 23.6 36.85" fill="#8c8c2f" fill-rule="evenodd" stroke="none"/>
      <path d="M15.05 41.7 L15.95 42.75 15.65 42.95 14.5 42.6 15.05 41.7 M21.15 45.3 L20.75 45.95 20.6 45.5 20.25 45.15 19.95 44.75 20.65 43.45 21.3 42.1 21.3 41.9 21.55 43.25 21.15 45.3 M13.0 45.75 L12.55 44.8 12.1 43.8 12.4 42.25 Q12.7 42.1 12.95 42.0 L14.25 41.4 14.1 41.6 13.05 43.15 12.95 43.6 Q12.8 44.2 13.15 44.9 13.5 45.7 14.8 45.85 L14.55 46.05 14.35 46.3 13.0 45.75" fill="#bfbf40" fill-rule="evenodd" stroke="none"/>
      <path d="M14.55 35.85 L16.3 36.85 17.25 39.2 15.95 37.05 14.55 35.85 M16.65 40.55 L16.6 40.6 15.7 40.35 14.65 39.45 15.45 39.45 16.4 39.85 16.65 40.55 M15.0 40.4 L15.35 41.35 15.05 40.85 13.95 41.1 14.0 40.15 15.0 40.4 M19.95 47.6 L18.0 48.1 17.6 47.4 18.45 46.75 19.15 46.45 19.95 47.6 M12.55 44.8 L11.85 44.35 11.8 44.2 11.9 42.75 12.6 41.6 13.05 41.6 13.5 41.55 12.95 42.0 Q12.7 42.1 12.4 42.25 L12.1 43.8 12.55 44.8" fill="#cc6b22" fill-rule="evenodd" stroke="none"/>
      <path d="M15.7 40.35 L15.0 40.4 14.0 40.15 14.35 39.8 14.65 39.45 15.7 40.35" fill="#9f501c" fill-rule="evenodd" stroke="none"/>
      <path d="M12.85 36.3 L14.45 35.75 14.55 35.85 13.75 36.25 Q13.55 38.35 14.35 39.8 L14.0 40.15 13.95 41.1 13.5 41.55 13.05 41.6 Q13.35 38.55 12.55 37.6 L11.45 39.55 11.25 40.85 11.65 41.95 11.4 42.05 11.15 42.65 10.85 41.05 10.95 39.5 Q11.85 37.5 12.85 36.3 M14.8 47.25 L14.45 46.75 14.35 46.3 14.55 46.05 15.5 46.75 16.9 46.75 17.0 46.55 Q17.6 44.9 16.35 44.85 L17.8 43.85 18.25 44.0 Q17.9 44.5 17.9 45.05 17.8 45.7 18.2 46.5 L19.6 46.15 19.45 46.3 19.15 46.45 18.45 46.75 16.15 47.55 14.8 47.25 M15.45 39.45 L16.1 38.5 16.4 39.85 15.45 39.45 M20.25 45.15 L20.6 45.5 19.7 45.9 20.25 45.15" fill="#ffff98" fill-rule="evenodd" stroke="none"/>
      <path d="M12.85 36.3 L14.45 35.75 14.55 35.85 16.3 36.85 17.25 39.2 16.65 40.55 16.6 40.6 15.7 40.35 15.0 40.4 15.35 41.35 15.05 41.7 15.95 42.75 16.55 42.4 17.75 41.65 18.15 40.25 18.5 38.75 19.35 35.9 19.85 35.85 22.35 35.85 22.6 35.8 23.7 36.05 23.6 36.85 23.0 41.1 22.0 43.75 21.15 45.3 20.75 45.95 20.9 46.5 19.95 47.6 18.0 48.1 15.85 47.65 14.8 47.25 14.45 46.75 13.0 45.75 12.55 44.8 11.85 44.35 11.8 44.2 11.15 42.65 10.85 41.05 10.95 39.5 11.4 37.5 12.85 36.3 M15.25 45.6 L16.35 44.85 17.8 43.85 18.25 44.0 18.7 44.15 19.5 44.45 19.95 44.75 20.25 45.15 20.6 45.5 20.75 45.95 M12.95 42.0 L14.25 41.4 15.05 41.25 15.05 41.7 M15.65 42.95 L15.95 42.75 M14.8 45.85 L15.25 45.6 M14.8 45.85 L14.55 46.05 14.35 46.3 14.45 46.75 M12.95 42.0 Q12.7 42.1 12.4 42.25 L12.1 43.8 12.55 44.8" fill="none" stroke="#000000" stroke-linecap="round" stroke-linejoin="round" stroke-opacity="0.3019608" stroke-width="0.30000000000000004"/>
      <path d="M14.0 34.8 Q12.9 34.9 12.95 32.9 L13.4 31.4 15.5 32.15 14.65 34.3 14.0 34.8" fill="#f0f0d2" fill-rule="evenodd" stroke="none"/>
      <path d="M15.5 32.15 L16.65 32.6 14.95 35.4 14.8 35.4 14.65 34.3 15.5 32.15" fill="#999933" fill-rule="evenodd" stroke="none"/>
      <path d="M12.7 34.85 L13.4 35.25 14.0 34.8 14.65 34.3 14.8 35.4 13.35 35.65 12.7 34.85" fill="#acac39" fill-rule="evenodd" stroke="none"/>
      <path d="M12.7 34.85 L12.45 34.35 12.95 32.9 Q12.9 34.9 14.0 34.8 L13.4 35.25 12.7 34.85" fill="#fbfaf2" fill-rule="evenodd" stroke="none"/>
      <path d="M15.5 32.15 L15.6 31.9 M12.95 32.9 L12.45 34.35 12.7 34.85 13.35 35.65 14.8 35.4 14.95 35.4 16.65 32.6 15.5 32.15 13.4 31.4 12.95 32.9" fill="none" stroke="#000000" stroke-linecap="round" stroke-linejoin="round" stroke-opacity="0.3019608" stroke-width="0.30000000000000004"/>
      <path d="M12.8 31.05 L12.25 30.15 12.7 24.5 13.55 23.3 12.75 27.1 12.8 31.05 M18.15 24.05 L20.15 23.05 Q20.7 25.05 23.05 25.95 22.45 26.75 21.25 27.2 L20.65 27.45 20.2 27.5 Q15.1 28.7 13.6 26.8 L14.45 22.8 Q15.55 24.35 17.3 24.15 L18.15 24.05 M26.9 35.2 Q25.3 38.0 28.4 38.5 26.85 38.35 25.5 37.25 L26.9 35.2" fill="#f0f0d2" fill-rule="evenodd" stroke="none"/>
      <path d="M17.05 37.5 L12.75 31.8 12.8 31.05 12.75 27.1 17.05 37.5 M29.2 31.9 L28.3 33.2 24.5 37.35 22.2 38.75 17.1 36.35 16.6 34.8 Q18.95 31.6 21.75 29.45 L22.45 29.0 Q24.5 27.75 26.7 27.35 L29.55 28.2 29.2 31.9" fill="#d5d580" fill-rule="evenodd" stroke="none"/>
      <path d="M29.55 31.45 L32.65 33.9 Q33.45 36.9 30.75 38.35 L29.35 38.6 28.55 38.55 28.4 38.5 Q25.3 38.0 26.9 35.2 L28.3 33.2 29.2 31.9 29.55 31.45 M29.9 27.75 L30.1 27.8 29.85 29.65 29.9 27.75 M26.4 26.75 Q24.3 27.6 22.45 29.0 L21.75 29.45 Q18.95 31.6 16.6 34.8 L14.1 28.2 Q17.15 28.9 20.35 27.8 L22.3 26.95 23.85 25.95 26.4 26.75" fill="#bfbf40" fill-rule="evenodd" stroke="none"/>
      <path d="M14.4 21.6 L15.15 20.65 17.35 19.3 14.6 22.15 14.4 21.6 M35.75 36.4 L31.4 39.6 26.1 40.7 26.05 40.7 25.0 37.9 25.5 37.25 Q26.85 38.35 28.4 38.5 L28.55 38.55 29.35 38.6 30.75 38.35 Q33.45 36.9 32.65 33.9 L35.75 36.4 M34.2 25.9 L34.25 25.95 Q35.25 27.4 35.45 30.45 34.95 33.35 34.15 33.45 32.95 33.35 31.25 32.5 L29.55 31.45 29.85 29.65 30.1 27.8 33.1 28.7 34.2 25.9" fill="#a6a637" fill-rule="evenodd" stroke="none"/>
      <path d="M14.6 22.15 L17.35 19.3 19.6 18.0 26.1 20.5 26.2 20.55 28.15 21.9 Q25.95 24.45 23.85 25.95 L23.3 25.8 Q20.8 24.15 20.3 22.15 L18.15 24.05 17.3 24.15 15.85 23.7 14.6 22.15 M31.25 22.55 L35.65 24.25 35.75 36.4 32.65 33.9 29.55 31.45 31.25 32.5 Q32.95 33.35 34.15 33.45 34.95 33.35 35.45 30.45 35.25 27.4 34.25 25.95 L34.2 25.9 34.65 24.75 31.25 22.55 M26.05 40.7 L22.4 39.4 25.0 37.9 26.05 40.7 M30.1 27.8 L30.6 24.9 Q32.95 24.25 34.2 25.9 L33.1 28.7 30.1 27.8 M26.4 26.75 L27.5 26.3 30.0 25.5 29.9 27.75 26.4 26.75" fill="#999933" fill-rule="evenodd" stroke="none"/>
      <path d="M14.4 21.6 L14.6 22.15 15.85 23.7 17.3 24.15 Q15.55 24.35 14.45 22.8 L13.6 26.8 Q15.1 28.7 20.2 27.5 L20.65 27.45 21.25 27.2 Q22.45 26.75 23.05 25.95 20.7 25.05 20.15 23.05 L18.15 24.05 20.3 22.15 Q20.8 24.15 23.3 25.8 L23.85 25.95 22.3 26.95 20.35 27.8 Q17.15 28.9 14.1 28.2 L16.6 34.8 17.1 36.35 22.2 38.75 24.5 37.35 28.3 33.2 26.9 35.2 25.5 37.25 25.0 37.9 22.4 39.4 17.05 37.5 12.75 27.1 13.55 23.3 13.85 22.3 14.4 21.6 M29.85 29.65 L29.55 31.45 29.2 31.9 29.55 28.2 26.7 27.35 Q24.5 27.75 22.45 29.0 24.3 27.6 26.4 26.75 L29.9 27.75 29.85 29.65" fill="#ffffff" fill-rule="evenodd" stroke="none"/>
      <path d="M26.2 20.55 L31.25 22.55 34.65 24.75 34.2 25.9 Q32.95 24.25 30.6 24.9 L30.1 27.8 29.9 27.75 30.0 25.5 27.5 26.3 26.4 26.75 23.85 25.95 Q25.95 24.45 28.15 21.9 L26.2 20.55" fill="#737326" fill-rule="evenodd" stroke="none"/>
      <path d="M17.35 19.3 L15.15 20.65 14.4 21.6 13.85 22.3 13.55 23.3 12.7 24.5 12.25 30.15 12.8 31.05 12.75 27.1 13.55 23.3 M17.35 19.3 L19.6 18.0 26.1 20.5 M26.2 20.55 L31.25 22.55 35.65 24.25 35.75 36.4 31.4 39.6 26.1 40.7 26.05 40.7 22.4 39.4 17.05 37.5 12.75 31.8 12.8 31.05" fill="none" stroke="#000000" stroke-linecap="round" stroke-linejoin="round" stroke-opacity="0.3019608" stroke-width="0.30000000000000004"/>
      <path d="M13.55 14.7 L13.9 13.85 14.2 13.95 14.45 14.1 15.75 14.15 16.15 14.15 15.9 15.5 15.25 18.1 13.45 17.0 13.55 14.7 M10.65 10.2 L11.3 8.15 Q12.65 8.65 13.7 9.85 14.6 10.75 15.25 12.25 L15.35 12.4 15.3 13.4 13.85 13.15 13.95 11.45 13.2 13.05 11.95 12.15 11.9 10.05 11.45 11.85 11.15 11.55 10.65 10.2 M14.15 7.0 L17.05 7.9 17.85 8.6 16.75 9.0 16.35 9.8 15.95 9.7 14.15 9.15 Q13.05 8.7 13.0 8.0 L14.15 7.0" fill="#f0f0d2" fill-rule="evenodd" stroke="none"/>
      <path d="M12.55 18.6 L12.3 17.85 Q13.25 16.85 14.4 18.0 L16.0 19.65 16.3 20.8 Q14.65 21.8 12.55 18.6 M11.85 12.65 L11.1 12.2 10.6 11.2 10.65 10.2 11.15 11.55 11.45 11.85 11.85 12.65 M13.85 13.15 L15.3 13.4 15.75 14.15 14.45 14.1 14.2 13.95 13.85 13.15" fill="#d5d580" fill-rule="evenodd" stroke="none"/>
      <path d="M17.85 8.6 L18.05 9.75 15.85 10.6 16.35 9.8 16.75 9.0 17.85 8.6 M18.85 13.35 L18.9 14.2 19.25 15.7 19.05 15.8 Q18.25 16.3 17.6 17.4 16.9 18.75 16.3 20.8 L16.0 19.65 16.0 17.55 17.4 16.2 18.05 15.15 18.85 13.35 M13.4 20.95 L12.55 18.6 Q14.65 21.8 16.3 20.8 L16.55 22.0 13.4 20.95" fill="#bfbf40" fill-rule="evenodd" stroke="none"/>
      <path d="M18.05 9.75 L18.7 10.8 15.85 10.6 18.05 9.75 M18.85 12.45 L18.85 13.35 18.05 15.15 17.4 16.2 16.0 17.55 15.9 15.5 16.15 14.15 16.55 14.1 16.6 14.1 18.85 12.45 M17.45 22.8 L16.6 23.05 13.4 20.95 16.55 22.0 17.45 22.8 M13.9 13.85 L11.85 12.65 11.45 11.85 11.9 10.05 11.95 12.15 13.2 13.05 13.95 11.45 13.85 13.15 14.2 13.95 13.9 13.85" fill="#a6a637" fill-rule="evenodd" stroke="none"/>
      <path d="M12.3 17.85 L13.55 14.7 13.45 17.0 15.25 18.1 15.9 15.5 16.0 17.55 16.0 19.65 14.4 18.0 Q13.25 16.85 12.3 17.85 M11.3 8.15 L13.75 6.85 14.15 7.0 13.0 8.0 Q13.05 8.7 14.15 9.15 L15.95 9.7 16.35 9.8 15.85 10.6 15.4 11.4 15.35 12.4 15.25 12.25 Q14.6 10.75 13.7 9.85 12.65 8.65 11.3 8.15" fill="#ffffff" fill-rule="evenodd" stroke="none"/>
      <path d="M18.7 10.8 L18.85 12.45 16.6 14.1 16.55 14.1 16.15 14.15 15.75 14.15 15.3 13.4 15.35 12.4 15.4 11.4 15.85 10.6 18.7 10.8 M19.25 15.7 L20.05 19.15 19.75 20.45 18.65 22.5 17.45 22.8 16.55 22.0 16.3 20.8 Q16.9 18.75 17.6 17.4 18.25 16.3 19.05 15.8 L19.25 15.7" fill="#7c7c2f" fill-rule="evenodd" stroke="none"/>
      <path d="M17.85 8.6 L18.05 9.75 18.7 10.8 18.85 12.45 18.85 13.35 18.9 14.2 19.25 15.7 20.05 19.15 19.75 20.45 18.65 22.5 17.45 22.8 16.6 23.05 13.4 20.95 12.55 18.6 12.3 17.85 13.55 14.7 13.9 13.85 11.85 12.65 11.1 12.2 10.6 11.2 10.65 10.2 11.3 8.15 13.75 6.85 14.15 7.0 17.05 7.9 17.85 8.6 M11.45 11.85 L11.85 12.65 M13.95 11.45 L13.85 13.15 14.2 13.95 14.45 14.1 15.75 14.15 16.15 14.15 16.55 14.1 M11.45 11.85 L11.9 10.05 M13.9 13.85 L14.2 13.95" fill="none" stroke="#000000" stroke-linecap="round" stroke-linejoin="round" stroke-opacity="0.3019608" stroke-width="0.30000000000000004"/>
      <path d="M25.65 9.45 L22.85 9.2 22.8 6.9 23.8 5.55 Q25.05 6.2 25.8 8.5 L25.65 9.45" fill="#f0f0d2" fill-rule="evenodd" stroke="none"/>
      <path d="M23.25 4.55 L23.55 4.15 24.2 4.1 26.05 5.65 24.7 5.25 23.25 4.55 M27.2 7.1 L27.15 7.05 27.2 7.1" fill="#d5d580" fill-rule="evenodd" stroke="none"/>
      <path d="M22.8 6.9 L22.8 5.95 23.25 4.55 24.7 5.25 25.85 7.45 25.8 8.5 Q25.05 6.2 23.8 5.55 L22.8 6.9" fill="#ffffff" fill-rule="evenodd" stroke="none"/>
      <path d="M26.05 5.65 L26.2 5.8 27.15 7.05 27.2 7.1 25.85 7.45 24.7 5.25 26.05 5.65" fill="#bfbf40" fill-rule="evenodd" stroke="none"/>
      <path d="M27.2 7.1 L27.95 8.95 25.65 9.45 25.8 8.5 25.85 7.45 27.2 7.1" fill="#a6a637" fill-rule="evenodd" stroke="none"/>
      <path d="M26.05 5.65 L26.2 5.8 27.15 7.05 27.2 7.1 27.95 8.95 25.65 9.45 22.85 9.2 22.8 6.9 22.8 5.95 23.25 4.55 23.55 4.15 24.2 4.1 26.05 5.65 24.7 5.25 25.85 7.45 27.2 7.1 M23.25 4.55 L24.7 5.25 M25.8 8.5 L25.85 7.45 M25.65 9.45 L25.8 8.5" fill="none" stroke="#000000" stroke-linecap="round" stroke-linejoin="round" stroke-opacity="0.3019608" stroke-width="0.30000000000000004"/>
      <path d="M27.9 8.6 L22.45 7.9 27.7 7.35 32.55 9.25 29.7 8.85 27.9 8.6 M18.15 12.5 L18.6 15.25 18.8 16.5 20.2 20.35 Q18.9 18.05 17.9 15.4 L18.15 12.5 M31.2 21.0 L32.75 20.05 35.7 15.4 36.15 14.75 36.15 12.0 37.85 13.25 38.65 15.9 38.55 18.15 35.65 19.35 33.75 25.0 34.35 20.45 31.2 21.0 M39.2 17.9 L39.45 20.2 Q38.9 22.65 37.65 24.1 L38.3 22.1 38.85 20.05 39.2 17.9" fill="#d5d580" fill-rule="evenodd" stroke="none"/>
      <path d="M27.9 8.6 Q26.1 13.4 18.75 15.2 L18.6 15.25 18.15 12.5 Q19.65 9.65 22.45 7.9 L27.9 8.6 M35.7 15.4 L31.45 19.95 24.8 23.25 21.9 21.4 20.75 19.8 Q24.2 13.45 32.8 10.0 L34.2 10.5 36.15 12.0 36.15 14.75 35.7 15.4 M38.55 18.15 L38.85 20.05 38.3 22.1 38.1 18.95 35.9 20.0 33.4 26.0 33.75 25.0 35.65 19.35 38.55 18.15" fill="#f0f0d2" fill-rule="evenodd" stroke="none"/>
      <path d="M37.65 24.1 L37.55 24.4 33.25 26.55 33.4 26.0 35.9 20.0 38.1 18.95 38.3 22.1 37.65 24.1" fill="#a6a637" fill-rule="evenodd" stroke="none"/>
      <path d="M25.1 24.7 L31.2 21.0 34.35 20.45 33.75 25.0 33.4 26.0 33.25 26.55 33.15 26.6 Q29.1 26.4 25.1 24.7 M32.8 10.0 L29.7 8.85 32.55 9.25 32.65 9.3 34.2 10.5 32.8 10.0 M38.65 15.9 L39.2 17.9 38.85 20.05 38.55 18.15 38.65 15.9" fill="#bfbf40" fill-rule="evenodd" stroke="none"/>
      <path d="M18.6 15.25 L18.75 15.2 Q26.1 13.4 27.9 8.6 L29.7 8.85 32.8 10.0 Q24.2 13.45 20.75 19.8 L21.9 21.4 24.8 23.25 31.45 19.95 35.7 15.4 32.75 20.05 31.2 21.0 25.1 24.7 21.45 22.3 20.2 20.35 18.8 16.5 18.6 15.25" fill="#ffffff" fill-rule="evenodd" stroke="none"/>
      <path d="M22.45 7.9 Q19.65 9.65 18.15 12.5 L17.9 15.4 Q18.9 18.05 20.2 20.35 L21.45 22.3 25.1 24.7 Q29.1 26.4 33.15 26.6 L33.25 26.55 37.55 24.4 M36.15 12.0 L34.2 10.5 32.65 9.3 32.55 9.25 27.7 7.35 22.45 7.9 M36.15 12.0 L37.85 13.25 38.65 15.9 39.2 17.9 39.45 20.2 Q38.9 22.65 37.65 24.1 M38.55 18.15 L38.85 20.05" fill="none" stroke="#000000" stroke-linecap="round" stroke-linejoin="round" stroke-opacity="0.3019608" stroke-width="0.30000000000000004"/>
      <path d="M25.85 14.2 Q24.65 11.75 21.75 9.8 23.6 10.6 24.65 11.9 25.55 12.9 25.85 14.2 M35.35 17.9 L35.55 18.1 Q32.95 16.15 29.5 16.5 L29.25 16.55 29.55 16.45 Q32.95 15.55 35.35 17.9" fill="#a6a637" fill-rule="evenodd" stroke="none"/>
      <path d="M34.6 13.0 L34.4 10.65 34.6 10.4 35.05 11.9 35.05 12.25 34.6 13.0" fill="#ffde4f" fill-rule="evenodd" stroke="none"/>
      <path d="M34.85 10.45 L35.15 10.5 37.3 12.2 37.0 13.75 36.45 14.2 36.3 13.7 35.5 12.15 34.85 10.45 M38.65 14.15 L39.9 18.3 39.7 19.6 37.65 17.85 Q37.45 16.55 38.0 14.5 L38.65 14.15 M37.05 18.35 L34.7 13.2 35.3 12.7 35.9 13.75 37.5 18.2 37.05 18.35" fill="#f4a33c" fill-rule="evenodd" stroke="none"/>
      <path d="M34.6 10.4 L34.85 10.45 35.5 12.15 36.3 13.7 36.45 14.2 37.3 16.75 Q37.4 15.75 37.65 15.15 L38.0 14.5 Q37.45 16.55 37.65 17.85 L39.7 19.6 39.9 18.3 40.05 18.7 40.0 20.15 37.5 18.2 35.9 13.75 35.3 12.7 34.7 13.2 34.6 13.0 35.05 12.25 35.05 11.9 34.6 10.4" fill="#ffff98" fill-rule="evenodd" stroke="none"/>
      <path d="M37.3 12.2 L38.3 13.05 38.65 14.15 38.0 14.5 37.65 15.15 Q37.4 15.75 37.3 16.75 L36.45 14.2 37.0 13.75 37.3 12.2 M40.0 20.15 L39.35 20.2 37.05 18.35 37.5 18.2 40.0 20.15" fill="#cc6b22" fill-rule="evenodd" stroke="none"/>
      <path d="M25.85 14.2 Q25.55 12.9 24.65 11.9 23.6 10.6 21.75 9.8 24.9 10.3 25.65 12.35 25.95 13.15 25.85 14.2 M29.55 16.45 Q31.4 15.25 32.95 15.85 34.25 16.3 35.35 17.9 32.95 15.55 29.55 16.45" fill="#ffffff" fill-rule="evenodd" stroke="none"/>
      <path d="M34.6 13.0 L34.4 10.65 34.6 10.4 34.85 10.45 35.15 10.5 37.3 12.2 38.3 13.05 38.65 14.15 39.9 18.3 40.05 18.7 40.0 20.15 39.35 20.2 37.05 18.35 34.7 13.2 34.6 13.0 Z" fill="none" stroke="#000000" stroke-linecap="round" stroke-linejoin="round" stroke-opacity="0.3019608" stroke-width="0.30000000000000004"/>
      <path d="M40.65 12.5 L41.1 12.95 41.45 13.7 40.8 16.05 40.65 14.4 40.65 12.5 M40.0 17.5 L39.95 17.45 40.0 17.5" fill="#d5d580" fill-rule="evenodd" stroke="none"/>
      <path d="M36.5 12.2 L39.25 12.05 40.65 12.5 40.2 14.05 39.1 15.05 37.85 14.8 36.5 12.2" fill="#f0f0d2" fill-rule="evenodd" stroke="none"/>
      <path d="M39.95 17.45 L39.0 18.35 38.45 17.75 37.3 15.65 39.15 15.85 39.95 17.45" fill="#a6a637" fill-rule="evenodd" stroke="none"/>
      <path d="M40.8 16.05 L40.7 16.25 40.0 17.5 39.95 17.45 39.15 15.85 40.65 14.4 40.8 16.05" fill="#bfbf40" fill-rule="evenodd" stroke="none"/>
      <path d="M37.3 15.65 L36.5 12.2 37.85 14.8 39.1 15.05 40.2 14.05 40.65 12.5 40.65 14.4 39.15 15.85 37.3 15.65" fill="#ffffff" fill-rule="evenodd" stroke="none"/>
      <path d="M40.65 12.5 L41.1 12.95 41.45 13.7 40.8 16.05 40.7 16.25 40.0 17.5 39.95 17.45 39.0 18.35 38.45 17.75 37.3 15.65 36.5 12.2 39.25 12.05 40.65 12.5 40.65 14.4 40.8 16.05 M39.15 15.85 L39.95 17.45 M37.3 15.65 L39.15 15.85 40.65 14.4" fill="none" stroke="#000000" stroke-linecap="round" stroke-linejoin="round" stroke-opacity="0.3019608" stroke-width="0.30000000000000004"/>
      <path d="M36.95 32.2 L36.9 32.15 36.95 31.7 36.95 32.2 M36.7 33.0 L36.15 35.4 Q35.55 34.65 34.85 34.25 L34.55 34.15 32.8 34.05 31.05 34.75 31.9 31.75 32.7 32.4 Q33.45 32.95 34.4 33.15 L36.7 33.0 M31.9 26.65 L31.95 26.3 33.55 25.4 34.35 25.35 Q36.0 28.15 33.95 29.75 L33.1 30.25 32.15 30.65 31.9 26.65 M30.35 38.3 L31.9 38.7 32.2 39.9 30.35 38.3" fill="#d5d580" fill-rule="evenodd" stroke="none"/>
      <path d="M35.9 29.0 L36.45 30.3 36.9 32.15 36.7 33.0 34.4 33.15 Q33.45 32.95 32.7 32.4 L31.9 31.75 35.9 29.0 M36.15 35.4 L35.65 37.4 35.0 37.9 34.75 36.1 34.4 37.65 Q33.7 38.1 33.15 38.15 32.45 38.15 31.95 37.7 L32.0 36.7 31.45 38.05 30.95 37.95 30.55 36.5 Q31.25 34.95 32.85 34.5 L34.85 34.25 Q35.55 34.65 36.15 35.4 M32.15 30.65 L31.3 31.1 31.9 26.65 32.15 30.65" fill="#f0f0d2" fill-rule="evenodd" stroke="none"/>
      <path d="M36.95 31.7 L36.9 32.15 36.95 32.2 36.85 34.45 35.65 39.1 35.05 39.35 35.0 37.9 35.65 37.4 36.15 35.4 36.7 33.0 36.9 32.15 36.45 30.3 35.9 29.0 36.3 27.25 36.95 31.7" fill="#a6a637" fill-rule="evenodd" stroke="none"/>
      <path d="M35.0 37.9 L35.05 39.35 33.2 40.1 32.2 39.9 31.9 38.7 33.45 39.0 35.0 37.9" fill="#c1c146" fill-rule="evenodd" stroke="none"/>
      <path d="M32.15 30.65 L33.1 30.25 35.9 29.0 31.9 31.75 31.05 34.75 32.8 34.05 34.55 34.15 34.85 34.25 32.85 34.5 Q31.25 34.95 30.55 36.5 L30.95 37.95 31.45 38.05 32.0 36.7 31.95 37.7 31.9 38.7 31.95 37.7 Q32.45 38.15 33.15 38.15 33.7 38.1 34.4 37.65 L34.75 36.1 35.0 37.9 33.45 39.0 31.9 38.7 30.35 38.3 29.8 36.6 31.3 31.1 32.15 30.65" fill="#ffffff" fill-rule="evenodd" stroke="none"/>
      <path d="M36.3 27.25 L35.9 29.0 33.1 30.25 33.95 29.75 Q36.0 28.15 34.35 25.35 L35.15 25.25 36.3 27.25" fill="#bfbf40" fill-rule="evenodd" stroke="none"/>
      <path d="M36.95 32.2 L36.95 31.7 36.3 27.25 35.15 25.25 34.35 25.35 33.55 25.4 31.95 26.3 31.9 26.65 31.3 31.1 29.8 36.6 30.35 38.3 32.2 39.9 33.2 40.1 35.05 39.35 35.65 39.1 36.85 34.45 36.95 32.2 M35.0 37.9 L35.05 39.35 M31.9 38.7 L31.95 37.7 32.0 36.7 M34.75 36.1 L35.0 37.9 M31.9 38.7 L32.2 39.9" fill="none" stroke="#000000" stroke-linecap="round" stroke-linejoin="round" stroke-opacity="0.3019608" stroke-width="0.30000000000000004"/>
      <path d="M20.9 14.1 L20.9 13.9 20.9 13.95 20.95 14.05 Q21.3 18.0 26.25 18.2 28.25 22.95 31.8 21.6 L31.75 21.65 Q28.6 23.5 25.85 18.85 20.7 18.2 20.9 14.1" fill="#a6a637" fill-rule="evenodd" stroke="none"/>
      <path d="M21.35 12.9 L22.35 12.95 23.35 13.55 23.7 14.25 23.3 14.7 22.25 14.6 21.35 14.05 20.9 13.35 Q20.95 13.0 21.35 12.9 M31.75 21.65 Q29.8 23.1 28.15 22.2 26.2 21.15 25.55 19.3 23.75 19.65 22.0 18.05 20.25 16.25 20.9 14.1 20.7 18.2 25.85 18.85 28.6 23.5 31.75 21.65" fill="#ffffff" fill-rule="evenodd" stroke="none"/>
    </g>
    <g id="sprite1" transform="matrix(1.0, 0.0, 0.0, 1.0, 0.0, 0.0)">
      <use height="26.7" transform="matrix(0.0042, -1.3515, 1.3935, 0.02, 22.09, 56.0263)" width="26.7" xlink:href="#sprite2"/>
      <use height="26.7" transform="matrix(0.0095, -3.0486, 0.372, 0.0053, 36.507, 81.3775)" width="26.7" xlink:href="#sprite2"/>
      <use height="26.7" transform="matrix(3.0486, 0.0095, -0.0053, 0.372, 0.1225, 35.107)" width="26.7" xlink:href="#sprite2"/>
    </g>
    <g id="sprite2" transform="matrix(1.0, 0.0, 0.0, 1.0, 13.35, 13.35)">
      <use height="26.7" transform="matrix(1.0, 0.0, 0.0, 1.0, -13.35, -13.35)" width="26.7" xlink:href="#shape1"/>
    </g>
    <g id="shape1" transform="matrix(1.0, 0.0, 0.0, 1.0, 13.35, 13.35)">
      <path d="M9.3 -9.85 Q13.35 -5.8 13.35 0.0 13.35 5.8 9.3 9.3 5.8 13.35 0.0 13.35 -5.8 13.35 -9.85 9.3 -13.35 5.8 -13.35 0.0 -13.35 -5.8 -9.85 -9.85 -5.8 -13.35 0.0 -13.35 5.8 -13.35 9.3 -9.85" fill="url(#gradient0)" fill-rule="evenodd" stroke="none"/>
    </g>
    <radialGradient cx="0" cy="0" gradientTransform="matrix(0.0213, 0.0, 0.0, 0.0213, 0.0, 0.0)" gradientUnits="userSpaceOnUse" id="gradient0" r="819.2" spreadMethod="pad">
      <stop offset="0.19607843137254902" stop-color="#fee3bc" stop-opacity="0.16862746"/>
      <stop offset="0.5019607843137255" stop-color="#fee3bc" stop-opacity="0.02745098"/>
      <stop offset="0.7607843137254902" stop-color="#ffe3bd" stop-opacity="0.0"/>
    </radialGradient>
  </defs>
</svg>
