<?xml version="1.0" encoding="UTF-8" standalone="no"?>
<svg xmlns:xlink="http://www.w3.org/1999/xlink" height="52.0px" width="52.0px" xmlns="http://www.w3.org/2000/svg">
  <g transform="matrix(1.0, 0.0, 0.0, 1.0, 0.0, 0.0)">
    <use height="56.0" transform="matrix(1.0, 0.0, 0.0, 1.0, -2.0, -2.0)" width="56.0" xlink:href="#shape0"/>
    <use height="0.0" transform="matrix(0.1068, 0.0, 0.0, 0.1222, 23.8, 36.0)" width="0.0" xlink:href="#sprite0"/>
    <use height="0.0" transform="matrix(0.0458, 0.0, 0.0, 0.0716, 10.5, 34.6)" width="0.0" xlink:href="#sprite0"/>
    <use height="81.5" transform="matrix(0.0852, 0.0, 0.0, 0.0893, 29.55, 12.5)" width="81.5" xlink:href="#sprite1"/>
    <use height="81.5" transform="matrix(0.0852, 0.0, 0.0, 0.0893, 19.8, 9.3)" width="81.5" xlink:href="#sprite1"/>
    <use height="0.0" transform="matrix(0.1068, 0.0, 0.0, 0.0712, 28.5, 13.95)" width="0.0" xlink:href="#sprite0"/>
    <use height="0.0" transform="matrix(0.1068, 0.0, 0.0, 0.19, 34.8, 22.05)" width="0.0" xlink:href="#sprite0"/>
    <use height="158.05" transform="matrix(0.0215, -0.3825, -0.2378, -0.018, 46.3623, 47.1004)" width="74.3" xlink:href="#sprite3"/>
    <use height="158.05" transform="matrix(0.0396, -0.2553, -0.1505, -0.0466, 38.6332, 31.5764)" width="74.3" xlink:href="#sprite3"/>
    <use height="0.0" transform="matrix(0.1363, 0.0593, -0.0884, 0.197, 27.35, 26.75)" width="0.0" xlink:href="#sprite0"/>
  </g>
  <defs>
    <g id="shape0" transform="matrix(1.0, 0.0, 0.0, 1.0, 2.0, 2.0)">
      <path d="M52.0 0.0 L52.0 52.0 0.0 52.0 0.0 0.0 52.0 0.0" fill="#795fa9" fill-opacity="0.0" fill-rule="evenodd" stroke="none"/>
      <path d="M43.25 16.1 L44.5 16.1 Q47.1 16.4 47.95 18.5 L48.05 18.8 Q48.3 19.8 48.05 21.0 L47.7 22.05 Q47.05 23.9 44.35 24.35 L44.25 25.2 44.25 25.3 44.65 25.5 Q45.6 26.0 45.85 27.45 L45.8 27.65 45.4 28.8 Q44.45 30.65 42.3 30.6 L40.8 33.25 Q41.05 34.25 40.65 35.8 39.5 36.9 38.15 36.75 L37.05 37.95 39.05 38.5 40.85 38.6 41.0 38.7 Q41.75 39.3 41.1 41.05 L41.1 41.15 Q41.6 44.65 33.45 46.6 L25.05 46.25 22.75 46.6 Q20.0 46.6 17.7 44.8 16.4 43.8 15.65 42.55 14.1 41.3 12.95 39.7 12.35 40.75 11.2 40.75 10.1 40.75 9.0 39.8 8.55 39.45 8.05 38.9 6.45 37.1 5.7 34.5 L5.3 32.4 Q4.85 32.25 4.45 31.8 3.9 31.15 3.8 30.1 L3.9 29.35 4.3 28.4 Q4.8 27.65 5.55 27.6 6.1 27.6 6.55 27.9 L6.75 27.4 Q7.1 26.65 7.9 26.5 8.6 26.35 9.2 26.75 L9.35 26.85 Q10.0 27.3 10.25 28.2 L10.2 29.55 10.7 30.1 10.85 30.25 11.0 30.2 11.25 30.15 Q12.65 26.7 17.55 24.9 15.05 21.75 14.9 19.1 L14.6 18.65 Q13.75 17.3 14.25 16.05 L14.35 15.85 Q14.9 14.75 16.35 14.4 L17.75 14.25 Q18.65 13.8 19.8 13.65 25.95 6.75 33.6 8.4 L34.85 9.0 36.95 8.6 Q40.0 8.35 42.55 9.8 43.7 11.65 43.65 13.75 43.65 14.9 43.25 16.1 Z" fill="none" stroke="#000000" stroke-linecap="round" stroke-linejoin="round" stroke-opacity="0.3019608" stroke-width="1.0"/>
      <path d="M14.3 16.1 L14.4 15.85 Q14.9 14.8 16.4 14.4 17.95 14.05 19.75 14.75 20.75 15.2 21.5 15.85 L22.4 16.85 Q23.25 18.25 22.75 19.55 22.25 20.8 20.65 21.15 19.05 21.55 17.3 20.8 15.5 20.1 14.65 18.7 13.75 17.35 14.3 16.1 M20.45 18.35 Q21.4 17.5 20.75 15.95 20.2 15.55 19.5 15.25 L16.75 15.0 Q15.9 15.2 15.45 15.7 15.35 17.5 17.55 18.55 L16.95 18.3 Q15.6 17.8 14.85 16.8 14.7 17.65 15.3 18.55 16.0 19.7 17.5 20.3 L20.25 20.6 Q21.6 20.25 22.0 19.25 22.4 18.2 21.7 17.0 L21.6 16.8 21.45 17.25 Q21.2 18.0 20.45 18.35" fill="#d0c586" fill-rule="evenodd" stroke="none"/>
      <path d="M17.55 18.55 Q15.35 17.5 15.45 15.7 15.9 15.2 16.75 15.0 L19.5 15.25 Q20.2 15.55 20.75 15.95 21.4 17.5 20.45 18.35 L19.7 18.6 17.55 18.55" fill="#a89e64" fill-rule="evenodd" stroke="none"/>
      <path d="M20.45 18.35 Q21.2 18.0 21.45 17.25 L21.6 16.8 21.7 17.0 Q22.4 18.2 22.0 19.25 21.6 20.25 20.25 20.6 L17.5 20.3 Q16.0 19.7 15.3 18.55 14.7 17.65 14.85 16.8 15.6 17.8 16.95 18.3 L17.55 18.55 19.7 18.6 20.45 18.35" fill="#696141" fill-rule="evenodd" stroke="none"/>
      <path d="M14.3 16.1 L14.4 15.85 Q14.9 14.8 16.4 14.4 17.95 14.05 19.75 14.75 20.75 15.2 21.5 15.85 L22.4 16.85 Q23.25 18.25 22.75 19.55 22.25 20.8 20.65 21.15 19.05 21.55 17.3 20.8 15.5 20.1 14.65 18.7 13.75 17.35 14.3 16.1 Z" fill="none" stroke="#000000" stroke-linecap="round" stroke-linejoin="round" stroke-opacity="0.3019608" stroke-width="0.30000000000000004"/>
      <path d="M36.4 10.65 Q37.5 10.1 38.65 9.85 40.55 9.4 42.6 9.8 L40.75 10.0 Q38.7 10.35 36.9 11.2 L36.4 10.65 M48.0 18.55 L48.05 18.8 Q46.65 17.8 45.25 17.65 43.95 17.5 42.75 18.05 L42.7 17.6 Q44.15 16.85 45.6 17.25 46.8 17.55 48.0 18.55 M43.1 26.3 L44.35 26.25 Q45.1 26.5 45.85 27.45 L45.8 27.7 Q44.9 26.7 43.85 26.65 L42.9 26.75 43.1 26.3 M39.65 39.8 L39.35 39.5 Q39.45 38.8 40.8 38.75 39.45 39.05 39.65 39.8 M40.0 32.85 L40.4 32.3 Q41.3 33.5 40.7 35.8 40.7 33.4 40.0 32.85" fill="#d0c586" fill-rule="evenodd" stroke="none"/>
      <path d="M42.6 9.8 Q40.55 9.4 38.65 9.85 35.45 9.8 36.95 8.65 40.0 8.35 42.6 9.8 M44.55 16.15 Q47.15 16.4 48.0 18.55 46.8 17.55 45.6 17.25 L44.55 16.15 M44.35 26.25 L44.7 25.5 Q45.6 26.0 45.85 27.45 45.1 26.5 44.35 26.25" fill="#bfb072" fill-rule="evenodd" stroke="none"/>
      <path d="M38.65 9.85 Q37.5 10.1 36.4 10.65 L34.0 9.25 36.95 8.65 Q35.45 9.8 38.65 9.85 M40.75 10.0 L42.6 9.8 Q43.75 11.65 43.7 13.75 42.25 14.9 40.75 10.0 M43.25 16.15 L44.55 16.15 45.6 17.25 Q44.15 16.85 42.7 17.6 L43.25 16.15 M48.05 18.8 Q48.35 19.8 48.05 21.0 44.8 21.65 45.25 17.65 46.65 17.8 48.05 18.8 M43.1 26.3 L43.45 25.2 44.7 25.5 44.35 26.25 43.1 26.3 M45.8 27.7 L45.4 28.85 Q43.1 29.8 43.85 26.65 44.9 26.7 45.8 27.7 M39.35 39.5 L38.25 38.9 Q39.45 38.1 40.85 38.65 L41.05 38.7 40.8 38.75 Q39.45 38.8 39.35 39.5" fill="#a89e64" fill-rule="evenodd" stroke="none"/>
      <path d="M36.9 11.2 Q38.7 10.35 40.75 10.0 42.25 14.9 43.7 13.75 L43.25 16.15 42.7 17.6 42.6 17.8 36.9 11.2 M48.05 21.0 L47.75 22.1 Q46.95 24.15 43.65 24.45 L42.75 18.05 Q43.95 17.5 45.25 17.65 44.8 21.65 48.05 21.0 M45.4 28.85 Q44.3 31.05 41.35 30.5 L42.9 26.75 43.85 26.65 Q43.1 29.8 45.4 28.85 M41.05 38.7 Q41.8 39.35 41.05 41.2 L39.65 39.8 Q39.45 39.05 40.8 38.75 L41.05 38.7 M40.7 35.8 Q39.15 37.2 37.4 36.6 L40.0 32.85 Q40.7 33.4 40.7 35.8" fill="#5f5a3a" fill-rule="evenodd" stroke="none"/>
      <path d="M36.4 10.65 L36.9 11.2 42.6 17.8 42.7 17.6 42.75 18.05 43.65 24.45 Q46.95 24.15 47.75 22.1 L48.05 21.0 Q48.35 19.8 48.05 18.8 L48.0 18.55 Q47.15 16.4 44.55 16.15 L43.25 16.15 42.7 17.6 M36.95 8.65 L34.0 9.25 36.4 10.65 M42.6 9.8 Q43.75 11.65 43.7 13.75 L43.25 16.15 M36.95 8.65 Q40.0 8.35 42.6 9.8 M44.7 25.5 L43.45 25.2 43.1 26.3 42.9 26.75 41.35 30.5 Q44.3 31.05 45.4 28.85 L45.8 27.7 45.85 27.45 Q45.6 26.0 44.7 25.5 M41.05 38.7 Q41.8 39.35 41.05 41.2 L39.65 39.8 39.35 39.5 38.25 38.9 Q39.45 38.1 40.85 38.65 L41.05 38.7 40.8 38.75 M40.7 35.8 Q39.15 37.2 37.4 36.6 L40.0 32.85 40.4 32.3 Q41.3 33.5 40.7 35.8" fill="none" stroke="#000000" stroke-linecap="round" stroke-linejoin="round" stroke-opacity="0.3019608" stroke-width="0.30000000000000004"/>
      <path d="M17.55 24.9 Q13.95 20.35 15.3 16.75 16.8 14.05 19.8 13.65 26.0 6.75 33.65 8.4 45.75 13.7 44.25 25.2 L44.15 25.65 Q42.4 32.4 37.1 37.95 L36.55 38.5 34.35 40.55 31.85 41.9 33.75 40.35 Q41.95 32.75 43.5 25.25 44.1 20.6 42.45 17.25 41.7 15.65 40.45 14.4 L40.25 14.15 Q41.25 16.7 40.4 19.2 40.0 20.4 39.2 21.55 41.55 17.2 38.65 12.5 34.45 8.6 30.45 8.95 24.9 9.15 20.75 13.65 23.6 14.05 24.4 14.9 20.75 13.4 17.95 14.9 L16.75 15.95 Q15.0 19.55 20.95 23.2 15.35 20.65 15.85 17.55 15.25 19.5 16.65 22.15 L18.35 24.7 17.55 24.9 18.35 24.7 Q22.95 23.85 27.65 26.75 L28.75 27.45 30.35 29.1 Q34.1 30.05 37.2 27.95 35.35 30.3 31.15 29.9 L32.4 32.05 32.55 32.35 33.1 34.6 33.15 35.75 32.8 34.2 Q31.3 30.6 28.75 28.3 29.6 30.2 29.0 33.05 26.95 38.95 22.55 40.1 19.6 40.85 15.65 39.6 13.45 38.25 12.15 36.9 11.35 36.05 10.9 35.25 9.55 27.9 17.55 24.9 M29.1 9.35 Q29.95 9.35 30.55 9.65 31.15 10.0 31.15 10.5 31.15 11.0 30.55 11.35 29.95 11.7 29.1 11.7 L27.6 11.35 Q27.0 11.0 27.0 10.5 27.0 10.0 27.6 9.65 L29.1 9.35 M24.0 34.05 Q28.55 32.0 27.1 27.45 24.5 25.45 20.35 25.15 15.55 25.25 12.6 28.75 11.95 29.85 11.65 30.9 10.9 33.35 11.85 35.45 13.05 37.4 15.65 38.8 18.6 39.9 21.7 39.6 L22.6 39.35 Q26.65 38.05 28.4 32.65 28.9 30.2 28.2 28.6 28.55 31.45 25.75 33.25 L24.0 34.05 M31.15 29.9 L30.35 29.1 31.15 29.9" fill="#d0c586" fill-rule="evenodd" stroke="none"/>
      <path d="M20.95 23.2 Q15.0 19.55 16.75 15.95 L17.95 14.9 Q20.75 13.4 24.4 14.9 23.6 14.05 20.75 13.65 24.9 9.15 30.45 8.95 34.45 8.6 38.65 12.5 41.55 17.2 39.2 21.55 L37.6 23.45 Q31.75 27.7 23.4 24.2 L20.95 23.2 M36.55 38.5 L37.1 37.95 Q41.1 38.65 41.1 41.15 41.6 44.65 33.5 46.6 15.75 47.5 11.25 36.65 L10.9 35.25 Q11.35 36.05 12.15 36.9 13.35 39.65 16.25 41.75 20.0 44.55 26.7 45.55 34.0 46.55 38.55 44.05 41.0 42.4 40.2 40.3 L39.35 39.45 Q40.6 40.75 38.7 42.25 L36.55 43.4 Q40.6 41.2 38.65 39.0 L36.55 38.5 M11.65 30.9 Q11.95 29.85 12.6 28.75 15.55 25.25 20.35 25.15 24.5 25.45 27.1 27.45 28.55 32.0 24.0 34.05 L21.3 35.0 17.25 35.45 Q10.7 34.8 11.65 30.9 M29.1 9.35 L27.6 9.65 Q27.0 10.0 27.0 10.5 27.0 11.0 27.6 11.35 L29.1 11.7 Q29.95 11.7 30.55 11.35 31.15 11.0 31.15 10.5 31.15 10.0 30.55 9.65 29.95 9.35 29.1 9.35" fill="#bfb072" fill-rule="evenodd" stroke="none"/>
      <path d="M18.35 24.7 L16.65 22.15 Q15.25 19.5 15.85 17.55 15.35 20.65 20.95 23.2 L23.4 24.2 Q31.75 27.7 37.6 23.45 L39.2 21.55 Q40.0 20.4 40.4 19.2 42.3 16.9 41.25 21.9 39.9 24.95 37.2 27.95 34.1 30.05 30.35 29.1 L28.75 27.45 27.65 26.75 Q22.95 23.85 18.35 24.7 M34.35 40.55 L36.55 38.5 38.65 39.0 Q40.6 41.2 36.55 43.4 L33.3 43.25 Q32.35 42.6 34.35 40.55 M11.65 30.9 Q10.7 34.8 17.25 35.45 L21.3 35.0 Q24.6 34.35 25.75 35.0 L25.8 35.0 Q26.35 36.65 22.6 39.35 L21.7 39.6 Q18.6 39.9 15.65 38.8 13.05 37.4 11.85 35.45 10.9 33.35 11.65 30.9 M22.55 40.1 Q26.95 38.95 29.0 33.05 29.6 30.2 28.75 28.3 31.3 30.6 32.8 34.2 L33.15 35.75 Q33.65 42.5 26.9 43.15 22.2 42.9 22.55 40.1" fill="#a89e64" fill-rule="evenodd" stroke="none"/>
      <path d="M40.4 19.2 Q41.25 16.7 40.25 14.15 L40.45 14.4 Q41.7 15.65 42.45 17.25 44.1 20.6 43.5 25.25 41.95 32.75 33.75 40.35 L31.85 41.9 34.35 40.55 Q32.35 42.6 33.3 43.25 L36.55 43.4 38.7 42.25 Q40.6 40.75 39.35 39.45 L40.2 40.3 Q41.0 42.4 38.55 44.05 34.0 46.55 26.7 45.55 20.0 44.55 16.25 41.75 13.35 39.65 12.15 36.9 13.45 38.25 15.65 39.6 19.6 40.85 22.55 40.1 22.2 42.9 26.9 43.15 33.65 42.5 33.15 35.75 L33.1 34.6 33.15 31.5 Q36.2 30.55 37.2 27.95 39.9 24.95 41.25 21.9 42.3 16.9 40.4 19.2 M21.3 35.0 L24.0 34.05 25.75 33.25 Q28.55 31.45 28.2 28.6 28.9 30.2 28.4 32.65 26.65 38.05 22.6 39.35 26.35 36.65 25.8 35.0 L25.75 35.0 Q24.6 34.35 21.3 35.0" fill="#696141" fill-rule="evenodd" stroke="none"/>
      <path d="M33.1 34.6 L32.55 32.35 32.4 32.05 31.15 29.9 Q35.35 30.3 37.2 27.95 36.2 30.55 33.15 31.5 L33.1 34.6" fill="#5f5a3a" fill-rule="evenodd" stroke="none"/>
      <path d="M37.1 37.95 Q42.4 32.4 44.15 25.65 L44.25 25.2 Q45.75 13.7 33.65 8.4 26.0 6.75 19.8 13.65 16.8 14.05 15.3 16.75 13.95 20.35 17.55 24.9 L18.35 24.7 Q22.95 23.85 27.65 26.75 L28.75 27.45 30.35 29.1 31.15 29.9 32.4 32.05 M34.35 40.55 L36.55 38.5 37.1 37.95 Q41.1 38.65 41.1 41.15 41.6 44.65 33.5 46.6 15.75 47.5 11.25 36.65 L10.9 35.25 Q9.55 27.9 17.55 24.9 M12.15 36.9 Q11.35 36.05 10.9 35.25 M37.2 27.95 Q35.35 30.3 31.15 29.9 M28.75 28.3 Q29.6 30.2 29.0 33.05 26.95 38.95 22.55 40.1 19.6 40.85 15.65 39.6 13.45 38.25 12.15 36.9" fill="none" stroke="#000000" stroke-linecap="round" stroke-linejoin="round" stroke-opacity="0.3019608" stroke-width="0.30000000000000004"/>
      <path d="M35.6 12.2 L36.05 12.85 36.25 13.2 36.45 13.75 Q36.7 14.8 36.3 15.95 L36.3 16.0 36.25 16.1 36.05 16.5 35.15 17.8 33.9 18.7 33.35 19.0 30.3 19.35 29.05 19.0 28.35 18.55 27.55 17.6 27.15 16.5 Q27.0 15.85 27.15 15.15 L27.35 14.45 27.65 13.75 Q28.3 12.55 29.6 11.8 L29.7 11.75 Q31.5 10.75 33.35 11.1 34.75 11.35 35.6 12.2 M27.65 10.55 Q27.6 11.2 26.55 12.2 L24.55 13.65 23.95 14.0 Q22.45 14.8 21.4 14.9 L21.35 14.9 Q20.3 15.05 20.3 14.4 20.3 13.85 21.15 13.05 L21.35 12.8 21.4 12.8 22.55 11.85 24.0 11.0 25.0 10.5 26.55 10.05 Q27.65 9.95 27.65 10.55" fill="#696141" fill-rule="evenodd" stroke="none"/>
      <path d="M26.15 20.35 Q27.85 21.15 29.75 22.25 32.1 24.5 30.8 24.7 L16.8 18.65 Q15.9 17.75 18.25 17.7 L20.0 18.1 20.05 18.6 Q20.35 19.4 22.05 20.25 L23.3 20.65 Q25.15 21.1 26.15 20.35" fill="#5f5a3a" fill-rule="evenodd" stroke="none"/>
      <path d="M35.4 11.8 L35.85 12.4 36.05 12.75 36.25 13.35 Q36.5 14.4 36.1 15.55 L36.1 15.6 36.05 15.7 35.85 16.1 34.95 17.4 33.7 18.3 33.15 18.55 Q31.65 19.25 30.1 18.95 29.4 18.85 28.85 18.55 L28.15 18.15 27.35 17.2 26.95 16.1 Q26.8 15.45 26.95 14.7 L27.15 14.05 27.5 13.35 Q28.1 12.15 29.4 11.4 L29.5 11.35 Q31.3 10.35 33.15 10.7 34.55 10.9 35.4 11.8 M33.65 15.55 Q34.45 14.55 34.3 13.35 34.2 12.4 33.45 11.4 L32.9 11.25 Q31.3 11.0 29.8 11.85 L29.7 11.9 Q28.7 12.45 28.15 13.35 L27.75 14.15 27.7 14.35 Q27.8 15.45 29.15 16.1 L31.0 16.65 Q29.1 16.7 28.1 16.1 L27.5 15.6 27.6 16.1 27.95 16.85 28.3 17.4 Q29.05 18.2 30.3 18.4 31.9 18.7 33.4 17.8 L34.05 17.4 35.15 16.1 35.45 15.55 35.45 15.5 Q35.9 14.35 35.55 13.35 L35.4 13.0 35.25 12.75 34.4 11.85 34.65 13.35 Q34.65 14.65 33.65 15.55 M25.4 11.75 Q26.15 10.8 25.35 10.5 L23.7 11.2 21.65 12.55 21.05 13.15 20.9 13.45 20.85 13.65 Q20.85 14.1 21.65 13.95 L21.7 13.9 23.65 13.15 24.1 12.9 25.65 11.8 26.5 10.65 26.3 10.4 25.9 10.35 Q26.2 10.45 26.2 10.7 L26.15 10.95 25.4 11.75 M21.2 12.4 Q21.7 11.9 22.35 11.45 23.0 10.95 23.8 10.55 L24.8 10.1 26.4 9.65 Q27.45 9.5 27.45 10.15 27.45 10.75 26.35 11.8 L24.35 13.25 23.75 13.6 Q22.25 14.4 21.2 14.5 20.1 14.65 20.1 14.0 20.1 13.45 20.95 12.65 L21.2 12.4" fill="#ffff98" fill-rule="evenodd" stroke="none"/>
      <path d="M23.3 20.65 L22.05 20.25 Q20.35 19.4 20.05 18.6 L24.45 20.1 Q24.8 20.55 23.3 20.65 M31.0 16.65 L29.15 16.1 Q27.8 15.45 27.7 14.35 L27.75 14.15 28.15 13.35 Q28.7 12.45 29.7 11.9 L29.8 11.85 Q31.3 11.0 32.9 11.25 L33.45 11.4 Q34.2 12.4 34.3 13.35 34.45 14.55 33.65 15.55 L33.0 16.1 Q32.05 16.6 31.0 16.65 M21.65 12.55 L23.7 11.2 25.35 10.5 Q26.15 10.8 25.4 11.75 L24.0 12.6 23.55 12.8 22.75 13.1 Q21.35 13.25 21.65 12.55" fill="#ffde4f" fill-rule="evenodd" stroke="none"/>
      <path d="M26.15 20.35 Q25.15 21.1 23.3 20.65 24.8 20.55 24.45 20.1 L20.05 18.6 20.0 18.1 Q22.8 18.75 26.15 20.35 M33.65 15.55 Q34.65 14.65 34.65 13.35 L34.4 11.85 35.25 12.75 35.4 13.0 35.55 13.35 Q35.9 14.35 35.45 15.5 L35.45 15.55 35.15 16.1 34.05 17.4 33.4 17.8 Q31.9 18.7 30.3 18.4 29.05 18.2 28.3 17.4 L27.95 16.85 27.6 16.1 27.5 15.6 28.1 16.1 Q29.1 16.7 31.0 16.65 32.05 16.6 33.0 16.1 L33.65 15.55 M25.4 11.75 L26.15 10.95 26.2 10.7 Q26.2 10.45 25.9 10.35 L26.3 10.4 26.5 10.65 25.65 11.8 24.1 12.9 23.65 13.15 21.7 13.9 21.65 13.95 Q20.85 14.1 20.85 13.65 L20.9 13.45 21.05 13.15 21.65 12.55 Q21.35 13.25 22.75 13.1 L23.55 12.8 24.0 12.6 25.4 11.75" fill="#f4a33c" fill-rule="evenodd" stroke="none"/>
      <path d="M20.0 18.1 L18.25 17.7 Q15.9 17.75 16.8 18.65 L30.8 24.7 Q32.1 24.5 29.75 22.25 27.85 21.15 26.15 20.35 25.15 21.1 23.3 20.65 L22.05 20.25 Q20.35 19.4 20.05 18.6 L20.0 18.1 Q22.8 18.75 26.15 20.35 M35.4 11.8 L35.85 12.4 36.05 12.75 36.25 13.35 Q36.5 14.4 36.1 15.55 L36.1 15.6 36.05 15.7 35.85 16.1 34.95 17.4 33.7 18.3 33.15 18.55 Q31.65 19.25 30.1 18.95 29.4 18.85 28.85 18.55 L28.15 18.15 27.35 17.2 26.95 16.1 Q26.8 15.45 26.95 14.7 L27.15 14.05 27.5 13.35 Q28.1 12.15 29.4 11.4 L29.5 11.35 Q31.3 10.35 33.15 10.7 34.55 10.9 35.4 11.8 M21.2 12.4 Q21.7 11.9 22.35 11.45 23.0 10.95 23.8 10.55 L24.8 10.1 26.4 9.65 Q27.45 9.5 27.45 10.15 27.45 10.75 26.35 11.8 L24.35 13.25 23.75 13.6 Q22.25 14.4 21.2 14.5 20.1 14.65 20.1 14.0 20.1 13.45 20.95 12.65 L21.2 12.4" fill="none" stroke="#000000" stroke-linecap="round" stroke-linejoin="round" stroke-opacity="0.3019608" stroke-width="0.30000000000000004"/>
      <path d="M37.3 20.4 L39.1 21.45 39.95 22.5 Q40.85 23.9 40.35 25.15 39.8 26.4 38.25 26.75 L34.85 26.45 Q33.1 25.75 32.25 24.35 31.35 22.95 31.85 21.7 L31.95 21.5 Q32.5 20.45 33.95 20.05 35.55 19.7 37.3 20.4 M35.15 24.2 L34.55 23.95 Q33.15 23.4 32.45 22.45 32.3 23.25 32.85 24.2 33.6 25.35 35.1 25.95 L37.85 26.2 Q39.2 25.9 39.6 24.85 40.0 23.85 39.3 22.65 L39.15 22.45 39.05 22.9 Q38.75 23.6 38.05 24.0 39.0 23.15 38.35 21.6 L37.1 20.9 34.35 20.6 Q33.5 20.85 33.0 21.3 32.9 23.15 35.15 24.2" fill="#d0c586" fill-rule="evenodd" stroke="none"/>
      <path d="M35.15 24.2 Q32.9 23.15 33.0 21.3 33.5 20.85 34.35 20.6 L37.1 20.9 38.35 21.6 Q39.0 23.15 38.05 24.0 L37.3 24.25 35.15 24.2" fill="#a89e64" fill-rule="evenodd" stroke="none"/>
      <path d="M38.05 24.0 Q38.75 23.6 39.05 22.9 L39.15 22.45 39.3 22.65 Q40.0 23.85 39.6 24.85 39.2 25.9 37.85 26.2 L35.1 25.95 Q33.6 25.35 32.85 24.2 32.3 23.25 32.45 22.45 33.15 23.4 34.55 23.95 L35.15 24.2 37.3 24.25 38.05 24.0" fill="#696141" fill-rule="evenodd" stroke="none"/>
      <path d="M37.3 20.4 L39.1 21.45 39.95 22.5 Q40.85 23.9 40.35 25.15 39.8 26.4 38.25 26.75 L34.85 26.45 Q33.1 25.75 32.25 24.35 31.35 22.95 31.85 21.7 L31.95 21.5 Q32.5 20.45 33.95 20.05 35.55 19.7 37.3 20.4 Z" fill="none" stroke="#000000" stroke-linecap="round" stroke-linejoin="round" stroke-opacity="0.3019608" stroke-width="0.30000000000000004"/>
      <path d="M12.85 31.6 Q13.55 31.85 13.8 32.5 L13.9 32.8 13.65 33.65 13.65 33.7 14.05 34.55 14.3 35.4 14.45 37.5 Q14.3 38.95 13.4 39.5 L12.1 39.6 11.45 39.25 Q10.45 38.55 9.8 37.05 9.2 35.5 9.4 34.05 9.55 32.8 10.3 32.25 10.65 31.7 11.4 31.5 L12.85 31.6" fill="#5f5a3a" fill-rule="evenodd" stroke="none"/>
      <path d="M27.6 37.65 L27.95 37.45 28.25 37.4 Q28.7 37.35 29.15 37.65 29.7 38.0 29.9 38.75 L29.95 39.8 29.8 40.25 29.25 41.0 29.3 41.35 Q29.25 42.7 28.45 43.85 27.35 45.5 25.35 45.85 L22.8 45.6 21.7 45.05 Q20.0 43.9 19.6 41.95 19.15 40.0 20.25 38.35 21.35 36.8 23.35 36.45 25.35 36.1 27.05 37.2 L27.6 37.65" fill="#5f5a3a" fill-rule="evenodd" stroke="none"/>
      <path d="M14.4 36.8 L13.95 35.65 Q13.8 34.6 14.45 33.85 15.05 33.15 16.0 33.1 L16.2 33.1 Q17.3 33.1 18.15 33.85 19.05 34.6 19.2 35.65 19.35 36.75 18.7 37.45 18.05 38.25 16.95 38.25 15.9 38.2 15.0 37.45 L14.4 36.8 M17.4 35.35 Q17.05 33.95 15.65 33.65 15.15 33.75 14.8 34.15 14.25 34.75 14.4 35.65 L14.65 36.45 Q15.7 37.1 16.6 36.8 L15.5 37.05 15.15 37.05 15.25 37.15 Q16.0 37.8 16.9 37.8 17.8 37.8 18.35 37.2 18.9 36.55 18.75 35.65 18.65 34.75 17.9 34.15 17.3 33.65 16.65 33.55 17.25 34.15 17.35 34.95 L17.4 35.35" fill="#d0c586" fill-rule="evenodd" stroke="none"/>
      <path d="M16.6 36.8 Q15.7 37.1 14.65 36.45 L14.4 35.65 Q14.25 34.75 14.8 34.15 15.15 33.75 15.65 33.65 17.05 33.95 17.4 35.35 17.35 36.0 16.95 36.45 L16.6 36.8" fill="#a89e64" fill-rule="evenodd" stroke="none"/>
      <path d="M16.6 36.8 L16.95 36.45 Q17.35 36.0 17.4 35.35 L17.35 34.95 Q17.25 34.15 16.65 33.55 17.3 33.65 17.9 34.15 18.65 34.75 18.75 35.65 18.9 36.55 18.35 37.2 17.8 37.8 16.9 37.8 16.0 37.8 15.25 37.15 L15.15 37.05 15.5 37.05 16.6 36.8" fill="#696141" fill-rule="evenodd" stroke="none"/>
      <path d="M14.4 36.8 L15.0 37.45 Q15.9 38.2 16.95 38.25 18.05 38.25 18.7 37.45 19.35 36.75 19.2 35.65 19.05 34.6 18.15 33.85 17.3 33.1 16.2 33.1 L16.0 33.1 Q15.05 33.15 14.45 33.85 13.8 34.6 13.95 35.65 L14.4 36.8 Z" fill="none" stroke="#000000" stroke-linecap="round" stroke-linejoin="round" stroke-opacity="0.3019608" stroke-width="0.30000000000000004"/>
      <path d="M27.6 42.9 L27.95 41.25 26.9 38.7 Q25.8 36.8 24.0 35.75 22.9 35.1 21.45 34.75 L20.6 34.7 Q18.45 34.6 17.35 35.35 16.0 36.25 16.35 36.6 L19.65 36.35 21.15 36.9 22.0 37.65 23.7 39.4 Q25.5 41.6 25.25 43.7 L25.2 44.1 Q24.6 45.9 25.7 45.3 27.05 44.55 27.6 42.9 M27.1 44.8 Q25.55 46.6 22.75 46.6 20.0 46.6 17.7 44.8 15.35 43.0 14.85 40.4 14.35 37.8 15.95 36.0 L17.25 34.9 Q18.5 34.2 20.3 34.2 L22.8 34.6 Q24.15 35.05 25.35 36.0 27.65 37.8 28.2 40.4 L28.3 41.7 Q28.3 43.45 27.1 44.8 M24.0 45.45 L24.4 44.8 Q25.05 43.45 24.25 41.45 23.45 39.5 21.7 38.1 L21.2 37.75 Q19.7 36.7 18.2 36.7 17.35 36.7 16.8 37.05 L16.2 37.55 15.85 38.1 Q15.2 39.5 16.0 41.45 16.8 43.45 18.55 44.8 L19.25 45.3 Q20.7 46.2 22.05 46.2 23.3 46.2 24.0 45.45" fill="#d0c586" fill-rule="evenodd" stroke="none"/>
      <path d="M22.0 37.65 L21.15 36.9 19.65 36.35 Q19.2 35.1 20.6 34.7 L21.45 34.75 Q22.9 35.1 24.0 35.75 25.0 38.35 22.0 37.65" fill="#bfb072" fill-rule="evenodd" stroke="none"/>
      <path d="M25.25 43.7 Q26.05 44.6 27.6 42.9 27.05 44.55 25.7 45.3 24.6 45.9 25.2 44.1 L25.25 43.7 M26.9 38.7 Q25.4 40.55 23.7 39.4 L22.0 37.65 Q25.0 38.35 24.0 35.75 25.8 36.8 26.9 38.7 M19.65 36.35 L16.35 36.6 Q16.0 36.25 17.35 35.35 18.45 34.6 20.6 34.7 19.2 35.1 19.65 36.35 M16.2 37.55 L16.8 37.05 Q18.55 39.3 19.05 43.0 17.95 38.75 16.2 37.55" fill="#a89e64" fill-rule="evenodd" stroke="none"/>
      <path d="M27.6 42.9 Q26.05 44.6 25.25 43.7 25.5 41.6 23.7 39.4 25.4 40.55 26.9 38.7 L27.95 41.25 27.6 42.9 M21.2 37.75 L21.7 38.1 Q23.45 39.5 24.25 41.45 25.05 43.45 24.4 44.8 L24.0 45.45 Q21.85 42.05 21.2 37.75 M19.25 45.3 L18.55 44.8 Q16.8 43.45 16.0 41.45 15.2 39.5 15.85 38.1 L16.2 37.55 Q17.95 38.75 19.05 43.0 L19.25 45.3" fill="#696141" fill-rule="evenodd" stroke="none"/>
      <path d="M24.0 45.45 Q23.3 46.2 22.05 46.2 20.7 46.2 19.25 45.3 L19.05 43.0 Q18.55 39.3 16.8 37.05 17.35 36.7 18.2 36.7 19.7 36.7 21.2 37.75 21.85 42.05 24.0 45.45" fill="#5f5a3a" fill-rule="evenodd" stroke="none"/>
      <path d="M27.1 44.8 Q25.55 46.6 22.75 46.6 20.0 46.6 17.7 44.8 15.35 43.0 14.85 40.4 14.35 37.8 15.95 36.0 L17.25 34.9 Q18.5 34.2 20.3 34.2 L22.8 34.6 Q24.15 35.05 25.35 36.0 27.65 37.8 28.2 40.4 L28.3 41.7 Q28.3 43.45 27.1 44.8 Z" fill="none" stroke="#000000" stroke-linecap="round" stroke-linejoin="round" stroke-opacity="0.3019608" stroke-width="0.30000000000000004"/>
      <path d="M24.45 38.6 Q24.9 38.4 25.7 38.6 26.45 38.85 27.1 39.35 L27.85 40.3 Q28.0 40.75 27.55 41.0 L26.35 40.95 25.9 40.85 24.9 40.3 Q24.25 39.8 24.15 39.3 24.05 38.95 24.25 38.75 L24.45 38.6" fill="#5f5a3a" fill-rule="evenodd" stroke="none"/>
      <path d="M20.25 34.45 L21.8 34.75 Q22.55 35.05 22.8 35.5 23.05 35.95 22.65 36.25 L21.5 36.6 21.05 36.55 19.95 36.25 Q19.2 35.95 18.9 35.5 18.75 35.2 18.9 35.0 L19.1 34.75 Q19.5 34.45 20.25 34.45" fill="#5f5a3a" fill-rule="evenodd" stroke="none"/>
      <path d="M20.95 35.0 L19.95 35.25 19.6 35.25 19.7 35.35 Q20.45 35.95 21.25 35.95 22.1 35.95 22.6 35.35 23.1 34.75 22.95 34.0 22.85 33.15 22.2 32.55 21.65 32.1 21.0 32.0 21.55 32.55 21.65 33.3 L21.7 33.65 Q21.4 32.35 20.05 32.1 19.65 32.2 19.3 32.55 18.8 33.15 18.95 33.95 L19.2 34.65 Q20.15 35.3 20.95 35.0 M20.45 31.6 L20.6 31.55 Q21.6 31.6 22.4 32.3 23.25 32.95 23.4 34.0 23.55 34.95 22.95 35.65 22.3 36.35 21.3 36.35 20.3 36.35 19.5 35.65 L18.9 35.05 18.5 33.95 Q18.35 32.95 18.95 32.3 19.5 31.65 20.45 31.6" fill="#d0c586" fill-rule="evenodd" stroke="none"/>
      <path d="M21.7 33.65 Q21.7 34.25 21.3 34.7 L20.95 35.0 Q20.15 35.3 19.2 34.65 L18.95 33.95 Q18.8 33.15 19.3 32.55 19.65 32.2 20.05 32.1 21.4 32.35 21.7 33.65" fill="#a89e64" fill-rule="evenodd" stroke="none"/>
      <path d="M21.7 33.65 L21.65 33.3 Q21.55 32.55 21.0 32.0 21.65 32.1 22.2 32.55 22.85 33.15 22.95 34.0 23.1 34.75 22.6 35.35 22.1 35.95 21.25 35.95 20.45 35.95 19.7 35.35 L19.6 35.25 19.95 35.25 20.95 35.0 21.3 34.7 Q21.7 34.25 21.7 33.65" fill="#696141" fill-rule="evenodd" stroke="none"/>
      <path d="M20.45 31.6 Q19.5 31.65 18.95 32.3 18.35 32.95 18.5 33.95 L18.9 35.05 19.5 35.65 Q20.3 36.35 21.3 36.35 22.3 36.35 22.95 35.65 23.55 34.95 23.4 34.0 23.25 32.95 22.4 32.3 21.6 31.6 20.6 31.55 L20.45 31.6 Z" fill="none" stroke="#000000" stroke-linecap="round" stroke-linejoin="round" stroke-opacity="0.3019608" stroke-width="0.30000000000000004"/>
      <path d="M24.5 36.2 Q25.1 35.55 26.05 35.5 L26.25 35.5 Q27.35 35.5 28.2 36.25 29.1 37.0 29.25 38.05 29.4 39.1 28.75 39.85 28.1 40.6 27.0 40.6 25.95 40.6 25.05 39.85 L24.4 39.2 24.0 38.05 Q23.8 37.0 24.5 36.2 M26.6 39.2 L25.55 39.45 25.2 39.45 25.3 39.55 Q26.05 40.2 26.95 40.15 27.85 40.15 28.4 39.55 28.9 38.9 28.8 38.05 28.7 37.15 27.95 36.55 27.35 36.05 26.7 35.95 27.3 36.55 27.4 37.35 L27.45 37.7 Q27.1 36.35 25.65 36.0 25.2 36.15 24.85 36.55 24.3 37.15 24.45 38.05 L24.7 38.85 Q25.75 39.5 26.6 39.2" fill="#d0c586" fill-rule="evenodd" stroke="none"/>
      <path d="M27.45 37.7 L27.0 38.85 26.6 39.2 Q25.75 39.5 24.7 38.85 L24.45 38.05 Q24.3 37.15 24.85 36.55 25.2 36.15 25.65 36.0 27.1 36.35 27.45 37.7" fill="#a89e64" fill-rule="evenodd" stroke="none"/>
      <path d="M27.45 37.7 L27.4 37.35 Q27.3 36.55 26.7 35.95 27.35 36.05 27.95 36.55 28.7 37.15 28.8 38.05 28.9 38.9 28.4 39.55 27.85 40.15 26.95 40.15 26.05 40.2 25.3 39.55 L25.2 39.45 25.55 39.45 26.6 39.2 27.0 38.85 27.45 37.7" fill="#696141" fill-rule="evenodd" stroke="none"/>
      <path d="M24.5 36.2 Q23.8 37.0 24.0 38.05 L24.4 39.2 25.05 39.85 Q25.95 40.6 27.0 40.6 28.1 40.6 28.75 39.85 29.4 39.1 29.25 38.05 29.1 37.0 28.2 36.25 27.35 35.5 26.25 35.5 L26.05 35.5 Q25.1 35.55 24.5 36.2 Z" fill="none" stroke="#000000" stroke-linecap="round" stroke-linejoin="round" stroke-opacity="0.3019608" stroke-width="0.30000000000000004"/>
      <path d="M6.3 30.4 Q6.95 29.35 6.35 28.25 L5.6 28.05 Q5.0 28.1 4.55 28.7 L4.25 29.35 Q4.45 30.4 5.1 30.75 L4.35 30.25 4.15 30.0 4.15 30.15 Q4.2 31.0 4.7 31.55 5.2 32.1 5.8 32.1 L6.85 31.45 Q7.3 30.85 7.25 30.0 7.25 29.35 6.9 28.85 6.9 29.6 6.5 30.15 L6.3 30.4 M6.85 28.2 L6.95 28.3 Q7.55 29.0 7.55 30.0 7.65 31.0 7.1 31.7 6.6 32.45 5.85 32.5 5.05 32.55 4.45 31.85 3.9 31.15 3.85 30.15 L3.9 29.4 4.3 28.45 Q4.8 27.7 5.6 27.65 6.3 27.6 6.85 28.2" fill="#d0c586" fill-rule="evenodd" stroke="none"/>
      <path d="M5.1 30.75 Q4.45 30.4 4.25 29.35 L4.55 28.7 Q5.0 28.1 5.6 28.05 L6.35 28.25 Q6.95 29.35 6.3 30.4 L5.45 30.75 5.1 30.75" fill="#a89e64" fill-rule="evenodd" stroke="none"/>
      <path d="M5.1 30.75 L5.45 30.75 6.3 30.4 6.5 30.15 Q6.9 29.6 6.9 28.85 7.25 29.35 7.25 30.0 7.3 30.85 6.85 31.45 L5.8 32.1 Q5.2 32.1 4.7 31.55 4.2 31.0 4.15 30.15 L4.15 30.0 4.35 30.25 5.1 30.75" fill="#696141" fill-rule="evenodd" stroke="none"/>
      <path d="M6.85 28.2 Q6.3 27.6 5.6 27.65 4.8 27.7 4.3 28.45 L3.9 29.4 3.85 30.15 Q3.9 31.15 4.45 31.85 5.05 32.55 5.85 32.5 6.6 32.45 7.1 31.7 7.65 31.0 7.55 30.0 7.55 29.0 6.95 28.3 L6.85 28.2 Z" fill="none" stroke="#000000" stroke-linecap="round" stroke-linejoin="round" stroke-opacity="0.3019608" stroke-width="0.30000000000000004"/>
      <path d="M5.5 30.1 Q6.05 28.3 7.6 28.3 L9.05 28.7 10.7 30.1 Q12.3 31.95 13.05 34.5 L13.4 35.8 13.45 38.2 13.25 38.9 Q12.7 40.75 11.2 40.75 10.1 40.75 9.0 39.8 8.55 39.45 8.05 38.9 6.45 37.1 5.7 34.5 4.95 31.95 5.5 30.1 M5.95 31.6 L5.85 32.8 Q5.95 33.9 6.4 35.15 L6.8 36.05 Q7.6 37.8 8.6 38.85 L8.75 39.05 Q9.55 39.8 10.05 39.65 L10.15 39.6 Q10.8 39.35 10.65 37.85 L10.5 36.95 Q10.3 35.85 9.7 34.65 L8.6 32.65 7.95 31.85 Q6.95 30.8 6.35 31.1 L6.25 31.15 5.95 31.6 M9.2 29.4 Q8.25 28.7 7.4 28.7 5.55 29.2 6.15 30.6 6.85 30.5 7.55 30.95 L8.95 32.35 Q10.25 34.1 10.65 35.55 L10.7 35.75 11.0 37.15 11.05 37.35 11.1 38.2 10.9 39.25 Q10.7 40.95 12.4 39.8 L12.8 38.9 12.95 38.0 12.95 35.75 12.85 35.35 Q12.15 32.85 10.9 31.2 L10.15 30.3 9.2 29.4" fill="#d0c586" fill-rule="evenodd" stroke="none"/>
      <path d="M7.55 30.95 Q7.25 29.15 9.2 29.4 L10.15 30.3 10.9 31.2 Q11.45 32.55 8.95 32.35 L7.55 30.95" fill="#bfb072" fill-rule="evenodd" stroke="none"/>
      <path d="M5.95 31.6 L6.25 31.15 Q7.45 33.55 8.1 35.9 L8.25 36.35 8.05 35.85 Q6.95 32.9 5.95 31.6 M7.55 30.95 Q6.85 30.5 6.15 30.6 5.55 29.2 7.4 28.7 8.25 28.7 9.2 29.4 7.25 29.15 7.55 30.95 M10.9 31.2 Q12.15 32.85 12.85 35.35 L10.65 35.55 Q10.25 34.1 8.95 32.35 11.45 32.55 10.9 31.2 M12.8 38.9 L12.4 39.8 Q10.7 40.95 10.9 39.25 L11.1 38.2 Q11.8 39.55 12.8 38.9" fill="#a89e64" fill-rule="evenodd" stroke="none"/>
      <path d="M8.75 39.05 L8.6 38.85 Q7.6 37.8 6.8 36.05 L6.4 35.15 Q5.95 33.9 5.85 32.8 L5.95 31.6 Q6.95 32.9 8.05 35.85 L8.25 36.35 8.75 39.05 M8.6 32.65 L9.7 34.65 Q10.3 35.85 10.5 36.95 L10.65 37.85 Q10.8 39.35 10.15 39.6 L10.05 39.65 8.6 32.65 M12.85 35.35 L12.95 35.75 12.95 38.0 12.8 38.9 Q11.8 39.55 11.1 38.2 L11.05 37.35 11.0 37.15 10.7 35.75 10.65 35.55 12.85 35.35" fill="#696141" fill-rule="evenodd" stroke="none"/>
      <path d="M6.25 31.15 L6.35 31.1 Q6.95 30.8 7.95 31.85 L8.6 32.65 10.05 39.65 Q9.55 39.8 8.75 39.05 L8.25 36.35 8.1 35.9 Q7.45 33.55 6.25 31.15" fill="#5f5a3a" fill-rule="evenodd" stroke="none"/>
      <path d="M5.5 30.1 Q6.05 28.3 7.6 28.3 L9.05 28.7 10.7 30.1 Q12.3 31.95 13.05 34.5 L13.4 35.8 13.45 38.2 13.25 38.9 Q12.7 40.75 11.2 40.75 10.1 40.75 9.0 39.8 8.55 39.45 8.05 38.9 6.45 37.1 5.7 34.5 4.95 31.95 5.5 30.1 Z" fill="none" stroke="#000000" stroke-linecap="round" stroke-linejoin="round" stroke-opacity="0.3019608" stroke-width="0.30000000000000004"/>
      <path d="M11.5 32.5 L12.3 33.3 Q12.55 33.85 12.4 34.2 12.25 34.65 11.7 34.7 L10.7 34.45 10.4 34.3 9.9 33.65 Q9.65 33.15 9.8 32.7 L10.2 32.3 10.45 32.25 11.5 32.5" fill="#5f5a3a" fill-rule="evenodd" stroke="none"/>
      <path d="M12.05 32.3 Q12.5 31.35 11.85 30.6 L11.1 30.55 Q10.45 30.7 10.15 31.25 L9.9 31.85 Q10.2 32.7 10.85 32.85 L10.1 32.6 9.9 32.45 9.9 32.55 10.6 33.6 Q11.1 34.0 11.7 33.85 12.35 33.7 12.7 33.1 13.05 32.5 12.9 31.85 L12.45 30.95 12.2 32.1 12.05 32.3 M11.05 30.2 Q11.7 30.05 12.3 30.4 L12.4 30.5 Q13.05 30.9 13.2 31.75 13.35 32.55 12.95 33.3 12.55 34.0 11.75 34.15 L10.4 33.9 Q9.75 33.45 9.6 32.6 L9.55 32.0 9.85 31.1 Q10.3 30.4 11.05 30.2" fill="#d0c586" fill-rule="evenodd" stroke="none"/>
      <path d="M10.85 32.85 Q10.2 32.7 9.9 31.85 L10.15 31.25 Q10.45 30.7 11.1 30.55 L11.85 30.6 Q12.5 31.35 12.05 32.3 L12.05 32.35 11.25 32.8 10.85 32.85" fill="#a89e64" fill-rule="evenodd" stroke="none"/>
      <path d="M10.85 32.85 L11.25 32.8 12.05 32.35 12.05 32.3 12.2 32.1 12.45 30.95 12.9 31.85 Q13.05 32.5 12.7 33.1 12.35 33.7 11.7 33.85 11.1 34.0 10.6 33.6 L9.9 32.55 9.9 32.45 10.1 32.6 10.85 32.85" fill="#696141" fill-rule="evenodd" stroke="none"/>
      <path d="M11.05 30.2 Q10.3 30.4 9.85 31.1 L9.55 32.0 9.6 32.6 Q9.75 33.45 10.4 33.9 L11.75 34.15 Q12.55 34.0 12.95 33.3 13.35 32.55 13.2 31.75 13.05 30.9 12.4 30.5 L12.3 30.4 Q11.7 30.05 11.05 30.2 Z" fill="none" stroke="#000000" stroke-linecap="round" stroke-linejoin="round" stroke-opacity="0.3019608" stroke-width="0.30000000000000004"/>
      <path d="M6.95 29.4 Q7.2 29.1 7.85 29.1 8.45 29.1 9.05 29.4 L9.85 30.15 Q10.1 30.6 9.8 30.9 L8.9 31.2 8.55 31.2 7.7 30.9 6.85 30.15 6.8 29.6 6.95 29.4" fill="#5f5a3a" fill-rule="evenodd" stroke="none"/>
      <path d="M7.9 29.3 L7.1 29.0 6.9 28.85 6.9 28.95 Q7.05 29.7 7.65 30.1 8.2 30.5 8.85 30.35 L9.8 29.6 Q10.15 29.0 9.95 28.3 9.85 27.7 9.4 27.35 9.55 28.0 9.25 28.55 L9.1 28.8 Q9.55 27.8 8.75 26.95 L8.0 26.9 Q7.35 27.05 7.05 27.65 L6.85 28.25 Q7.2 29.15 7.9 29.3 M9.35 26.9 Q10.05 27.35 10.3 28.2 10.45 29.05 10.1 29.85 9.7 30.55 8.9 30.7 8.2 30.9 7.5 30.4 6.8 29.9 6.6 29.05 L6.5 28.35 Q6.55 27.85 6.75 27.45 7.15 26.7 7.9 26.5 8.6 26.4 9.25 26.8 L9.35 26.9" fill="#d0c586" fill-rule="evenodd" stroke="none"/>
      <path d="M9.1 28.8 L8.3 29.25 7.9 29.3 Q7.2 29.15 6.85 28.25 L7.05 27.65 Q7.35 27.05 8.0 26.9 L8.75 26.95 Q9.55 27.8 9.1 28.8" fill="#a89e64" fill-rule="evenodd" stroke="none"/>
      <path d="M9.1 28.8 L9.25 28.55 Q9.55 28.0 9.4 27.35 9.85 27.7 9.95 28.3 10.15 29.0 9.8 29.6 L8.85 30.35 Q8.2 30.5 7.65 30.1 7.05 29.7 6.9 28.95 L6.9 28.85 7.1 29.0 7.9 29.3 8.3 29.25 9.1 28.8" fill="#696141" fill-rule="evenodd" stroke="none"/>
      <path d="M9.35 26.9 L9.25 26.8 Q8.6 26.4 7.9 26.5 7.15 26.7 6.75 27.45 6.55 27.85 6.5 28.35 L6.6 29.05 Q6.8 29.9 7.5 30.4 8.2 30.9 8.9 30.7 9.7 30.55 10.1 29.85 10.45 29.05 10.3 28.2 10.05 27.35 9.35 26.9 Z" fill="none" stroke="#000000" stroke-linecap="round" stroke-linejoin="round" stroke-opacity="0.3019608" stroke-width="0.30000000000000004"/>
    </g>
    <g id="sprite1" transform="matrix(1.0, 0.0, 0.0, 1.0, 0.0, 0.0)">
      <use height="26.7" transform="matrix(0.0042, -1.3515, 1.3935, 0.02, 22.09, 56.0263)" width="26.7" xlink:href="#sprite2"/>
      <use height="26.7" transform="matrix(0.0095, -3.0486, 0.372, 0.0053, 36.507, 81.3775)" width="26.7" xlink:href="#sprite2"/>
      <use height="26.7" transform="matrix(3.0486, 0.0095, -0.0053, 0.372, 0.1225, 35.107)" width="26.7" xlink:href="#sprite2"/>
    </g>
    <g id="sprite2" transform="matrix(1.0, 0.0, 0.0, 1.0, 13.35, 13.35)">
      <use height="26.7" transform="matrix(1.0, 0.0, 0.0, 1.0, -13.35, -13.35)" width="26.7" xlink:href="#shape1"/>
    </g>
    <g id="shape1" transform="matrix(1.0, 0.0, 0.0, 1.0, 13.35, 13.35)">
      <path d="M9.3 -9.85 Q13.35 -5.8 13.35 0.0 13.35 5.8 9.3 9.3 5.8 13.35 0.0 13.35 -5.8 13.35 -9.85 9.3 -13.35 5.8 -13.35 0.0 -13.35 -5.8 -9.85 -9.85 -5.8 -13.35 0.0 -13.35 5.8 -13.35 9.3 -9.85" fill="url(#gradient0)" fill-rule="evenodd" stroke="none"/>
    </g>
    <radialGradient cx="0" cy="0" gradientTransform="matrix(0.0213, 0.0, 0.0, 0.0213, 0.0, 0.0)" gradientUnits="userSpaceOnUse" id="gradient0" r="819.2" spreadMethod="pad">
      <stop offset="0.19607843137254902" stop-color="#fee3bc" stop-opacity="0.78039217"/>
      <stop offset="0.5019607843137255" stop-color="#fee3bc" stop-opacity="0.1254902"/>
      <stop offset="0.7607843137254902" stop-color="#ffe3bd" stop-opacity="0.0"/>
    </radialGradient>
    <g id="sprite3" transform="matrix(1.0, 0.0, 0.0, 1.0, 0.75, 0.75)">
      <use height="159.25" transform="matrix(1.0, 0.0, 0.0, 1.0, -1.35, -1.35)" width="75.5" xlink:href="#shape2"/>
    </g>
    <g id="shape2" transform="matrix(1.0, 0.0, 0.0, 1.0, 1.35, 1.35)">
      <path d="M67.1 47.3 Q60.05 84.7 45.15 118.0 L67.1 47.3" fill="#000000" fill-opacity="0.05490196" fill-rule="evenodd" stroke="none"/>
      <path d="M72.8 0.4 Q71.4 24.6 67.1 47.3 60.05 84.7 45.15 118.0 L45.0 118.3 Q39.4 130.85 24.25 156.55 M43.75 69.05 Q26.65 113.65 20.4 117.6 17.55 109.85 28.1 81.45 38.25 56.05 47.2 54.0 48.65 56.75 43.75 69.05 M48.0 24.8 Q34.25 59.6 13.6 90.6 7.15 100.3 0.0 109.6 M66.8 0.0 Q53.65 80.05 13.6 143.35 L12.4 145.2 M67.1 47.3 L45.15 118.0" fill="none" stroke="#000000" stroke-linecap="round" stroke-linejoin="round" stroke-opacity="0.08627451" stroke-width="0.30000000000000004"/>
    </g>
  </defs>
</svg>
