<?xml version="1.0" encoding="UTF-8" standalone="no"?>
<svg xmlns:xlink="http://www.w3.org/1999/xlink" height="52.0px" width="52.0px" xmlns="http://www.w3.org/2000/svg">
  <g transform="matrix(1.0, 0.0, 0.0, 1.0, 0.0, 0.0)">
    <use height="58.0" transform="matrix(1.0, 0.0, 0.0, 1.0, -3.0, -3.0)" width="58.0" xlink:href="#shape0"/>
    <use height="0.0" transform="matrix(0.0595, 0.0, 0.0056, 0.0794, 29.4, 14.25)" width="0.0" xlink:href="#sprite0"/>
    <use height="0.0" transform="matrix(0.0551, 0.0, 0.004, 0.0624, 22.1, 23.6)" width="0.0" xlink:href="#sprite0"/>
    <use height="0.0" transform="matrix(0.0798, 0.0, 0.004, 0.0624, 36.4, 14.85)" width="0.0" xlink:href="#sprite0"/>
    <use height="0.0" transform="matrix(0.038, 0.0, 0.0019, 0.0301, 39.95, 20.0)" width="0.0" xlink:href="#sprite0"/>
    <use height="0.0" transform="matrix(0.0436, 0.0117, -0.0166, 0.0408, 12.7, 21.9)" width="0.0" xlink:href="#sprite0"/>
    <use height="0.0" transform="matrix(0.0436, 0.0117, -0.0123, 0.0303, 21.85, 17.65)" width="0.0" xlink:href="#sprite0"/>
    <use height="81.5" transform="matrix(0.0972, 0.0, 0.0, 0.0975, 36.45, 5.85)" width="81.5" xlink:href="#sprite1"/>
    <use height="0.0" transform="matrix(0.0436, 0.0117, -0.0166, 0.0408, 39.7, 29.2)" width="0.0" xlink:href="#sprite0"/>
    <use height="0.0" transform="matrix(0.0436, 0.0117, -0.0166, 0.0408, 35.4, 36.2)" width="0.0" xlink:href="#sprite0"/>
    <use height="0.0" transform="matrix(0.0436, 0.0117, -0.0166, 0.0408, 15.15, 13.95)" width="0.0" xlink:href="#sprite0"/>
  </g>
  <defs>
    <g id="shape0" transform="matrix(1.0, 0.0, 0.0, 1.0, 3.0, 3.0)">
      <path d="M52.0 0.0 L52.0 52.0 0.0 52.0 0.0 0.0 52.0 0.0" fill="#795fa9" fill-opacity="0.0" fill-rule="evenodd" stroke="none"/>
      <path d="M7.85 22.3 Q7.3 22.6 8.85 23.85 L8.95 24.0 10.0 24.95 Q10.4 25.2 10.95 25.3 L11.45 25.6 11.4 26.1 Q9.9 26.6 9.75 28.0 9.6 29.1 9.9 29.7 L10.1 30.0 10.05 30.15 Q9.15 33.2 10.85 34.6 L10.9 34.65 11.0 34.75 11.45 34.95 11.55 34.95 11.85 35.05 Q10.9 39.35 10.75 45.05 10.7 47.1 11.4 47.75 11.9 48.3 12.85 48.05 19.5 45.7 26.05 37.9 L26.1 37.9 27.05 37.95 27.2 37.95 27.5 38.25 Q28.8 39.45 30.5 39.8 32.2 40.15 30.45 36.8 L30.65 36.4 31.95 36.6 31.95 36.9 Q31.95 37.6 32.25 38.25 L33.0 39.3 Q34.05 40.25 35.45 40.15 36.9 40.15 37.85 39.1 38.8 38.05 38.75 36.6 38.7 35.2 37.65 34.2 36.8 33.4 35.6 33.3 L35.4 33.3 35.3 33.2 34.8 32.95 34.35 32.95 33.7 32.3 Q32.35 29.85 30.9 28.3 L31.7 27.45 33.2 27.75 Q34.05 28.55 35.65 29.2 L35.65 29.55 35.8 29.75 36.3 30.1 36.6 31.15 37.35 32.2 Q38.4 33.15 39.8 33.1 41.2 33.05 42.15 32.0 43.15 30.95 43.1 29.55 43.0 28.1 42.0 27.15 41.1 26.3 39.95 26.25 L39.55 26.25 39.05 26.3 38.95 26.15 Q40.5 25.2 41.45 22.5 L42.05 22.2 Q43.65 21.15 42.7 19.4 43.05 18.45 42.85 17.55 L43.6 16.35 Q44.1 15.0 43.45 14.2 43.55 12.65 42.85 11.0 L42.95 10.8 Q43.25 10.15 42.6 8.9 41.9 7.65 41.1 7.2 40.3 6.8 39.35 6.65 L38.45 6.75 Q36.8 5.8 35.15 5.4 35.1 5.1 34.65 4.85 L33.2 4.25 Q32.45 4.0 31.3 4.25 30.6 4.4 30.25 4.6 L29.9 4.9 29.9 5.25 29.85 5.35 Q23.8 6.45 24.1 13.35 24.4 14.15 25.2 14.9 24.9 15.25 24.7 15.85 L24.05 15.95 22.8 15.75 20.95 14.7 19.2 14.0 18.55 13.75 Q18.5 13.0 18.0 12.8 L17.45 12.75 Q17.0 11.95 16.15 11.4 15.15 10.75 13.95 10.95 L13.6 11.05 Q12.25 11.35 11.5 12.6 10.8 13.8 11.1 15.15 L11.7 16.45 12.65 17.3 Q13.4 17.8 14.25 17.8 L14.5 18.05 15.65 18.25 16.1 18.2 16.15 18.2 16.6 18.35 17.2 18.55 18.1 19.2 17.8 19.65 17.75 19.65 15.85 19.7 15.2 19.75 Q14.85 19.05 14.3 19.05 L13.75 19.25 Q13.05 18.7 12.05 18.55 10.85 18.4 9.85 19.0 L9.55 19.2 Q8.45 20.05 8.25 21.5 L8.25 22.2 7.85 22.3 M31.5 20.4 Q32.05 20.0 32.3 19.15 L32.35 19.15 32.95 19.7 Q32.55 21.4 31.5 20.4 M36.95 20.0 Q36.75 20.75 37.15 21.85 L38.05 22.5 Q37.9 24.25 36.7 23.45 35.7 22.7 35.3 23.85 L35.45 24.3 33.9 23.15 Q35.2 22.3 36.3 20.15 L36.75 20.05 36.95 20.0" fill="none" stroke="#000000" stroke-linecap="round" stroke-linejoin="round" stroke-opacity="0.3019608" stroke-width="1.0"/>
      <path d="M12.2 22.75 Q11.05 24.7 9.8 24.3 L9.25 23.75 Q8.5 22.75 8.65 21.5 8.8 20.35 9.65 19.6 10.85 19.35 11.95 20.55 L12.0 20.6 Q12.35 21.45 12.25 22.35 L12.2 22.6 12.2 22.75" fill="#ffde4f" fill-rule="evenodd" stroke="none"/>
      <path d="M13.9 20.0 L13.95 20.1 Q14.5 20.75 14.6 21.6 14.3 23.9 13.15 23.65 12.3 23.3 12.2 22.6 L12.25 22.35 Q12.35 21.45 12.0 20.6 L11.95 20.55 Q11.25 18.3 13.9 20.0" fill="#f4a33c" fill-rule="evenodd" stroke="none"/>
      <path d="M9.85 18.95 Q10.85 18.35 12.0 18.55 13.4 18.7 14.3 19.8 15.15 21.0 14.95 22.35 14.8 23.8 13.7 24.65 12.6 25.5 11.2 25.3 L9.95 24.9 8.9 23.95 Q8.05 22.85 8.2 21.45 8.45 20.05 9.55 19.2 L9.85 18.95 M11.95 20.55 Q10.85 19.35 9.65 19.6 8.8 20.35 8.65 21.5 8.5 22.75 9.25 23.75 L9.8 24.3 Q11.05 24.7 12.2 22.75 11.95 23.7 11.1 24.35 L10.5 24.7 11.25 24.95 Q12.5 25.05 13.45 24.3 14.45 23.6 14.6 22.35 L14.6 21.6 Q14.5 20.75 13.95 20.1 L13.9 20.0 Q13.2 19.05 12.0 18.9 L10.4 19.15 11.65 20.15 11.95 20.55" fill="#ffff98" fill-rule="evenodd" stroke="none"/>
      <path d="M11.95 20.55 L11.65 20.15 10.4 19.15 12.0 18.9 Q13.2 19.05 13.9 20.0 11.25 18.3 11.95 20.55 M14.6 21.6 L14.6 22.35 Q14.45 23.6 13.45 24.3 12.5 25.05 11.25 24.95 L10.5 24.7 11.1 24.35 Q11.95 23.7 12.2 22.75 L12.2 22.6 Q12.3 23.3 13.15 23.65 14.3 23.9 14.6 21.6" fill="#cc6b22" fill-rule="evenodd" stroke="none"/>
      <path d="M9.85 18.95 Q10.85 18.35 12.0 18.55 13.4 18.7 14.3 19.8 15.15 21.0 14.95 22.35 14.8 23.8 13.7 24.65 12.6 25.5 11.2 25.3 L9.95 24.9 8.9 23.95 Q8.05 22.85 8.2 21.45 8.45 20.05 9.55 19.2 L9.85 18.95 Z" fill="none" stroke="#000000" stroke-linecap="round" stroke-linejoin="round" stroke-opacity="0.3019608" stroke-width="0.30000000000000004"/>
      <path d="M13.4 23.5 L13.5 22.0 13.65 21.3 13.8 21.75 Q13.7 22.85 14.0 23.4 L14.35 23.8 14.4 23.85 14.55 23.85 15.1 23.9 15.65 23.85 Q16.25 23.7 16.7 23.35 L17.15 23.0 17.55 22.5 Q18.75 20.75 17.75 19.9 L19.9 20.05 18.25 24.65 15.9 24.3 15.15 24.4 Q13.95 24.55 13.55 23.8 L13.4 23.5" fill="#a6a637" fill-rule="evenodd" stroke="none"/>
      <path d="M13.8 21.75 L14.15 22.15 14.95 22.4 16.1 22.25 16.4 22.15 17.5 21.2 Q17.75 20.85 17.6 20.45 L17.3 20.0 16.65 19.85 17.45 19.9 17.75 19.9 Q18.75 20.75 17.55 22.5 L17.15 23.0 16.7 23.35 Q16.25 23.7 15.65 23.85 L15.1 23.9 14.55 23.85 14.4 23.85 14.35 23.8 14.0 23.4 Q13.7 22.85 13.8 21.75" fill="#cac960" fill-rule="evenodd" stroke="none"/>
      <path d="M14.25 20.05 L14.45 19.85 14.85 19.75 15.2 19.7 15.85 19.65 17.75 19.6 19.95 19.85 19.9 20.05 17.75 19.9 17.45 19.9 16.65 19.85 17.3 20.0 17.6 20.45 Q17.75 20.85 17.5 21.2 17.75 20.55 17.15 20.2 16.75 19.95 16.0 19.9 L15.85 19.9 14.25 20.05" fill="#f9f8ec" fill-rule="evenodd" stroke="none"/>
      <path d="M14.7 24.75 L14.55 24.75 13.7 24.35 13.45 23.85 13.45 23.8 13.4 23.5 13.55 23.8 Q13.95 24.55 15.15 24.4 L15.9 24.3 18.25 24.65 18.1 25.15 15.85 24.6 15.3 24.7 14.75 24.75 14.7 24.75 M13.65 21.3 L13.8 20.8 14.25 20.05 15.85 19.9 16.0 19.9 Q16.75 19.95 17.15 20.2 17.75 20.55 17.5 21.2 L16.4 22.15 16.1 22.25 14.95 22.4 14.15 22.15 13.8 21.75 13.65 21.3" fill="#e6e4b3" fill-rule="evenodd" stroke="none"/>
      <path d="M14.25 19.65 Q14.9 19.1 13.9 19.35 L13.6 19.65 Q13.1 20.25 12.7 21.45 12.3 23.25 12.7 23.65 L13.0 22.55 13.05 23.8 13.05 24.0 12.65 24.05 12.45 23.75 12.35 23.05 12.4 22.5 Q12.45 21.35 12.95 20.35 L13.1 20.15 13.5 19.45 13.6 19.3 14.3 19.05 Q14.85 19.25 14.55 19.6 L14.25 19.65" fill="#ffff98" fill-rule="evenodd" stroke="none"/>
      <path d="M13.0 22.55 Q13.1 21.55 13.45 20.7 L13.7 20.2 Q14.0 19.7 14.25 19.65 L14.55 19.6 14.85 19.75 14.45 19.85 14.25 20.05 13.8 20.8 13.65 21.3 13.5 22.0 13.4 23.5 13.45 23.8 13.45 23.85 13.7 24.35 14.55 24.75 14.7 24.75 14.35 25.0 13.7 24.95 13.65 24.9 13.15 24.25 13.05 24.0 13.05 23.8 13.0 22.55" fill="#cc6b22" fill-rule="evenodd" stroke="none"/>
      <path d="M14.25 19.65 Q14.0 19.7 13.7 20.2 L13.45 20.7 Q13.1 21.55 13.0 22.55 L12.7 23.65 Q12.3 23.25 12.7 21.45 13.1 20.25 13.6 19.65 L13.9 19.35 Q14.9 19.1 14.25 19.65 M13.7 24.95 L14.35 25.0 14.3 25.0 13.2 25.3 12.8 25.1 12.6 24.9 12.55 24.8 12.55 24.65 12.5 24.35 12.4 23.8 12.45 23.75 12.65 24.05 12.8 24.55 Q12.95 25.0 13.25 25.05 L13.7 24.95" fill="#ffde4f" fill-rule="evenodd" stroke="none"/>
      <path d="M13.05 24.0 L13.15 24.25 13.65 24.9 13.7 24.95 13.25 25.05 Q12.95 25.0 12.8 24.55 L12.65 24.05 13.05 24.0 M14.85 19.75 L14.55 19.6 Q14.85 19.25 14.3 19.05 14.8 19.05 15.2 19.7 L14.85 19.75" fill="#f4a33c" fill-rule="evenodd" stroke="none"/>
      <path d="M14.35 25.0 L14.7 24.75 14.55 24.75 13.7 24.35 13.45 23.85 13.45 23.8 13.4 23.5 13.5 22.0 13.65 21.3 13.8 20.8 14.25 20.05 14.45 19.85 14.85 19.75 15.2 19.7 15.85 19.65 17.75 19.6 19.95 19.85 19.9 20.05 18.25 24.65 18.1 25.15 15.85 24.6 15.3 24.7 14.75 24.75 14.7 24.75 M14.3 19.05 L13.6 19.3 13.5 19.45 13.1 20.15 12.95 20.35 Q12.45 21.35 12.4 22.5 L12.35 23.05 12.45 23.75 12.4 23.8 12.5 24.35 12.55 24.65 12.55 24.8 12.6 24.9 12.8 25.1 13.2 25.3 14.3 25.0 14.35 25.0 M15.2 19.7 Q14.8 19.05 14.3 19.05" fill="none" stroke="#000000" stroke-linecap="round" stroke-linejoin="round" stroke-opacity="0.3019608" stroke-width="0.30000000000000004"/>
      <path d="M14.6 15.35 Q12.75 16.7 11.75 15.8 L11.45 15.05 Q11.2 13.85 11.85 12.75 12.45 11.8 13.55 11.45 14.75 11.65 15.25 13.25 L15.25 13.35 Q15.3 14.2 14.85 15.0 L14.7 15.25 14.6 15.35" fill="#ffde4f" fill-rule="evenodd" stroke="none"/>
      <path d="M17.3 13.55 L17.3 13.65 Q17.55 14.5 17.25 15.25 16.1 17.25 15.05 16.55 14.4 15.9 14.7 15.25 L14.85 15.0 Q15.3 14.2 15.25 13.35 L15.25 13.25 Q15.55 10.9 17.3 13.55" fill="#f4a33c" fill-rule="evenodd" stroke="none"/>
      <path d="M14.0 10.95 Q15.1 10.75 16.15 11.4 17.4 12.1 17.7 13.5 18.05 14.9 17.3 16.15 16.6 17.3 15.15 17.65 13.85 18.0 12.6 17.3 12.1 16.95 11.65 16.4 L11.1 15.15 Q10.8 13.75 11.5 12.55 12.2 11.35 13.6 11.0 L14.0 10.95 M15.25 13.25 Q14.75 11.65 13.55 11.45 12.45 11.8 11.85 12.75 11.2 13.85 11.45 15.05 L11.75 15.8 Q12.75 16.7 14.6 15.35 L12.95 16.4 12.25 16.45 12.85 16.95 Q13.9 17.55 15.15 17.25 16.3 17.0 16.95 15.95 L17.25 15.25 Q17.55 14.5 17.3 13.65 L17.3 13.55 Q17.0 12.4 15.95 11.7 15.25 11.3 14.45 11.3 L15.15 12.7 15.25 13.25" fill="#ffff98" fill-rule="evenodd" stroke="none"/>
      <path d="M15.25 13.25 L15.15 12.7 14.45 11.3 Q15.25 11.3 15.95 11.7 17.0 12.4 17.3 13.55 15.55 10.9 15.25 13.25 M17.25 15.25 L16.95 15.95 Q16.3 17.0 15.15 17.25 13.9 17.55 12.85 16.95 L12.25 16.45 12.95 16.4 14.6 15.35 14.7 15.25 Q14.4 15.9 15.05 16.55 16.1 17.25 17.25 15.25" fill="#cc6b22" fill-rule="evenodd" stroke="none"/>
      <path d="M14.0 10.95 Q15.1 10.75 16.15 11.4 17.4 12.1 17.7 13.5 18.05 14.9 17.3 16.15 16.6 17.3 15.15 17.65 13.85 18.0 12.6 17.3 12.1 16.95 11.65 16.4 L11.1 15.15 Q10.8 13.75 11.5 12.55 12.2 11.35 13.6 11.0 L14.0 10.95 Z" fill="none" stroke="#000000" stroke-linecap="round" stroke-linejoin="round" stroke-opacity="0.3019608" stroke-width="0.30000000000000004"/>
      <path d="M35.55 20.3 L36.3 20.2 Q34.7 23.2 32.7 23.65 31.05 23.7 30.4 22.25 L30.0 20.65 Q30.6 19.55 31.5 20.45 32.55 21.4 32.95 19.7 L33.4 20.0 33.25 20.4 33.05 20.7 Q32.5 21.6 31.55 20.95 L31.3 20.85 Q30.5 20.55 30.5 21.35 L30.7 21.85 Q31.25 23.05 32.45 23.2 33.85 22.85 35.15 21.05 L35.55 20.3" fill="#d5d580" fill-rule="evenodd" stroke="none"/>
      <path d="M33.4 20.0 L35.55 20.3 35.15 21.05 Q33.85 22.85 32.45 23.2 31.25 23.05 30.7 21.85 L30.5 21.35 Q30.5 20.55 31.3 20.85 L31.55 20.95 Q32.5 21.6 33.05 20.7 L33.25 20.4 33.4 20.0" fill="#a6a637" fill-rule="evenodd" stroke="none"/>
      <path d="M37.85 19.3 Q36.3 20.0 34.85 20.0 33.05 19.7 32.1 18.75 31.9 17.35 32.45 16.65 L32.65 16.75 33.4 17.0 33.8 18.0 Q35.65 19.15 37.45 18.0 L37.95 17.3 Q38.45 18.55 37.85 19.3" fill="#cc6b22" fill-rule="evenodd" stroke="none"/>
      <path d="M36.3 20.2 L35.55 20.3 33.4 20.0 32.95 19.7 32.15 18.95 32.1 18.75 Q33.05 19.7 34.85 20.0 36.3 20.0 37.85 19.3 L36.9 19.95 36.3 20.2" fill="#f4a33c" fill-rule="evenodd" stroke="none"/>
      <path d="M35.55 20.3 L36.3 20.2 36.9 19.95 37.85 19.3 Q38.45 18.55 37.95 17.3 L37.45 18.0 Q35.65 19.15 33.8 18.0 L33.4 17.0 M32.1 18.75 L32.15 18.95 32.95 19.7 33.4 20.0 35.55 20.3 M32.65 16.75 L32.45 16.65 Q31.9 17.35 32.1 18.75 M36.3 20.2 Q34.7 23.2 32.7 23.65 31.05 23.7 30.4 22.25 L30.0 20.65 Q30.6 19.55 31.5 20.45 32.55 21.4 32.95 19.7" fill="none" stroke="#000000" stroke-linecap="round" stroke-linejoin="round" stroke-opacity="0.3019608" stroke-width="0.30000000000000004"/>
      <path d="M15.35 16.5 L16.15 15.15 16.55 14.6 16.45 15.05 Q15.9 16.05 15.95 16.65 L16.1 17.2 16.2 17.2 16.25 17.25 16.75 17.55 17.35 17.7 18.4 17.7 19.0 17.55 19.65 17.25 Q21.4 16.15 20.8 14.95 21.8 15.4 22.75 15.95 L19.35 19.55 17.35 18.25 16.65 18.05 Q15.5 17.65 15.4 16.85 L15.35 16.5" fill="#a6a637" fill-rule="evenodd" stroke="none"/>
      <path d="M16.45 15.05 L16.65 15.6 17.2 16.15 18.35 16.4 18.7 16.45 20.0 16.1 Q20.45 15.85 20.5 15.4 L20.35 14.9 Q20.2 14.65 19.85 14.5 L20.6 14.8 20.8 14.95 Q21.4 16.15 19.65 17.25 L19.0 17.55 18.4 17.7 17.35 17.7 16.75 17.55 16.25 17.25 16.2 17.2 16.1 17.2 15.95 16.65 Q15.9 16.05 16.45 15.05" fill="#cac960" fill-rule="evenodd" stroke="none"/>
      <path d="M17.55 13.7 L17.85 13.55 18.2 13.65 18.55 13.75 19.15 13.95 20.95 14.7 22.85 15.8 22.75 15.95 Q21.8 15.4 20.8 14.95 L20.6 14.8 19.85 14.5 Q20.2 14.65 20.35 14.9 L20.5 15.4 Q20.45 15.85 20.0 16.1 20.6 15.55 20.15 15.0 L19.3 14.25 19.1 14.25 17.55 13.7" fill="#f9f8ec" fill-rule="evenodd" stroke="none"/>
      <path d="M16.05 18.15 L15.95 18.05 Q15.55 17.9 15.3 17.4 L15.3 16.9 15.3 16.8 15.35 16.5 15.4 16.85 Q15.5 17.65 16.65 18.05 L17.35 18.25 19.35 19.55 19.0 19.85 17.2 18.55 16.6 18.35 16.1 18.2 16.05 18.15 M16.55 14.6 L16.85 14.2 Q17.15 13.9 17.55 13.7 L19.1 14.25 19.3 14.25 20.15 15.0 Q20.6 15.55 20.0 16.1 L18.7 16.45 18.35 16.4 17.2 16.15 16.65 15.6 16.45 15.05 16.55 14.6" fill="#e6e4b3" fill-rule="evenodd" stroke="none"/>
      <path d="M17.75 13.3 Q18.5 13.05 17.55 12.9 L17.1 13.05 Q16.45 13.35 15.6 14.35 14.45 15.8 14.7 16.35 L15.4 15.45 14.9 16.65 14.85 16.8 14.45 16.7 14.4 16.35 14.6 15.7 14.85 15.2 Q15.35 14.15 16.25 13.4 L16.45 13.25 17.1 12.8 17.25 12.8 Q17.7 12.65 18.0 12.8 18.45 13.2 18.0 13.4 L17.75 13.3" fill="#ffff98" fill-rule="evenodd" stroke="none"/>
      <path d="M15.4 15.45 L16.6 13.9 16.95 13.6 17.75 13.3 18.0 13.4 18.2 13.65 17.85 13.55 17.55 13.7 Q17.15 13.9 16.85 14.2 L16.55 14.6 16.15 15.15 15.35 16.5 15.3 16.8 15.3 16.9 15.3 17.4 Q15.55 17.9 15.95 18.05 L16.05 18.15 15.65 18.2 Q15.3 18.15 15.1 17.9 L15.05 17.95 Q14.8 17.55 14.85 17.1 L14.85 16.8 14.9 16.65 15.4 15.45" fill="#cc6b22" fill-rule="evenodd" stroke="none"/>
      <path d="M17.75 13.3 L16.95 13.6 16.6 13.9 15.4 15.45 14.7 16.35 Q14.45 15.8 15.6 14.35 16.45 13.35 17.1 13.05 L17.55 12.9 Q18.5 13.05 17.75 13.3 M15.1 17.9 Q15.3 18.15 15.65 18.2 L15.6 18.25 Q14.9 18.4 14.5 18.05 L14.2 17.8 14.1 17.45 14.15 17.35 14.15 17.15 14.2 16.9 14.35 16.35 14.4 16.35 14.45 16.7 14.35 17.25 Q14.35 17.65 14.65 17.85 L15.1 17.9" fill="#ffde4f" fill-rule="evenodd" stroke="none"/>
      <path d="M14.85 16.8 L14.85 17.1 Q14.8 17.55 15.05 17.95 L15.1 17.9 14.65 17.85 Q14.35 17.65 14.35 17.25 L14.45 16.7 14.85 16.8 M18.2 13.65 L18.0 13.4 Q18.45 13.2 18.0 12.8 18.5 12.95 18.55 13.75 L18.2 13.65" fill="#f4a33c" fill-rule="evenodd" stroke="none"/>
      <path d="M15.65 18.2 L16.05 18.15 15.95 18.05 Q15.55 17.9 15.3 17.4 L15.3 16.9 15.3 16.8 15.35 16.5 16.15 15.15 16.55 14.6 16.85 14.2 Q17.15 13.9 17.55 13.7 L17.85 13.55 18.2 13.65 18.55 13.75 Q18.5 12.95 18.0 12.8 17.7 12.65 17.25 12.8 L17.1 12.8 16.45 13.25 16.25 13.4 Q15.35 14.15 14.85 15.2 L14.6 15.7 14.4 16.35 14.35 16.35 14.2 16.9 14.15 17.15 14.15 17.35 14.1 17.45 14.2 17.8 14.5 18.05 Q14.9 18.4 15.6 18.25 L15.65 18.2 M19.35 19.55 L22.75 15.95 22.85 15.8 20.95 14.7 19.15 13.95 18.55 13.75 M16.05 18.15 L16.1 18.2 16.6 18.35 17.2 18.55 19.0 19.85 19.35 19.55" fill="none" stroke="#000000" stroke-linecap="round" stroke-linejoin="round" stroke-opacity="0.3019608" stroke-width="0.30000000000000004"/>
      <path d="M39.05 20.85 L38.65 20.7 38.05 19.75 37.3 19.6 37.55 19.3 Q40.45 19.65 42.25 17.9 L42.35 17.8 42.45 17.7 42.5 17.6 42.25 18.2 41.35 18.9 42.25 18.2 42.6 17.85 42.6 18.3 Q42.25 19.8 41.2 20.35 40.05 20.35 41.35 18.9 L40.5 19.4 38.65 19.75 Q38.45 20.5 39.05 20.85 M40.4 22.05 Q39.25 22.3 39.0 21.75 38.6 21.3 40.0 21.05 41.2 21.1 42.25 20.2 L42.55 19.7 42.75 20.4 Q42.35 21.35 40.4 22.05 M38.05 19.75 L38.65 19.75 38.05 19.75" fill="#f4a33c" fill-rule="evenodd" stroke="none"/>
      <path d="M37.0 19.8 Q37.1 21.95 38.6 22.4 L40.2 22.45 Q41.8 22.2 42.3 21.75 L42.5 21.35 Q42.25 21.45 42.4 21.2 L41.6 21.75 40.4 22.05 Q42.35 21.35 42.75 20.4 L42.55 19.7 42.25 20.2 42.65 18.75 Q42.2 20.0 41.75 20.15 L41.2 20.35 Q42.25 19.8 42.6 18.3 L42.6 17.85 42.25 18.2 42.5 17.6 Q44.15 15.7 43.25 14.0 44.15 14.9 43.6 16.35 L42.85 17.55 Q43.0 18.45 42.65 19.4 L42.65 19.45 Q43.65 21.1 42.0 22.2 L41.4 22.5 40.75 22.75 Q39.55 23.05 38.55 22.75 L38.05 22.55 37.1 21.8 Q36.65 20.6 37.0 19.8 M42.85 17.55 L42.6 17.85 42.85 17.55 M42.55 19.7 L42.65 19.45 42.55 19.7" fill="#ffde4f" fill-rule="evenodd" stroke="none"/>
      <path d="M41.4 22.5 Q40.3 25.7 38.35 26.45 36.75 26.75 35.9 25.4 L35.3 23.85 Q35.65 22.7 36.7 23.4 37.9 24.25 38.05 22.55 L38.55 22.75 38.45 23.15 38.35 23.5 Q37.95 24.45 36.85 23.95 L36.6 23.9 Q35.75 23.7 35.85 24.45 L36.15 25.0 Q36.85 26.05 38.05 26.0 39.45 25.5 40.4 23.55 L40.75 22.75 41.4 22.5" fill="#e6e4b3" fill-rule="evenodd" stroke="none"/>
      <path d="M36.15 25.0 L35.85 24.45 Q35.75 23.7 36.6 23.9 L36.85 23.95 Q37.95 24.45 38.35 23.5 39.45 23.85 38.3 25.1 L36.15 25.0" fill="#cac960" fill-rule="evenodd" stroke="none"/>
      <path d="M40.75 22.75 L40.4 23.55 Q39.45 25.5 38.05 26.0 36.85 26.05 36.15 25.0 L38.3 25.1 Q39.45 23.85 38.35 23.5 L38.45 23.15 38.55 22.75 Q39.55 23.05 40.75 22.75" fill="#a6a637" fill-rule="evenodd" stroke="none"/>
      <path d="M37.3 19.6 L38.05 19.75 38.65 20.7 39.05 20.85 40.0 21.05 39.05 20.85 Q38.45 20.5 38.65 19.75 L40.5 19.4 41.35 18.9 Q40.05 20.35 41.2 20.35 L41.75 20.15 Q42.2 20.0 42.65 18.75 L42.25 20.2 Q41.2 21.1 40.0 21.05 38.6 21.3 39.0 21.75 39.25 22.3 40.4 22.05 L41.6 21.75 42.4 21.2 Q42.25 21.45 42.5 21.35 L42.3 21.75 Q41.8 22.2 40.2 22.45 L38.6 22.4 Q37.1 21.95 37.0 19.8 L37.1 19.55 37.3 19.6 M37.55 19.3 L41.9 13.15 Q42.8 13.5 43.25 14.0 44.15 15.7 42.5 17.6 L42.45 17.7 42.35 17.8 42.25 17.9 Q40.45 19.65 37.55 19.3" fill="#cc6b22" fill-rule="evenodd" stroke="none"/>
      <path d="M39.05 20.85 L38.65 20.7 38.05 19.75 37.3 19.6 37.1 19.55 37.0 19.8 Q36.65 20.6 37.1 21.8 L38.05 22.55 Q37.9 24.25 36.7 23.4 35.65 22.7 35.3 23.85 L35.9 25.4 Q36.75 26.75 38.35 26.45 40.3 25.7 41.4 22.5 L40.75 22.75 Q39.55 23.05 38.55 22.75 L38.05 22.55 M40.0 21.05 L39.05 20.85 M38.65 19.75 L38.05 19.75 M37.3 19.6 L37.55 19.3 41.9 13.15 Q42.8 13.5 43.25 14.0 44.15 14.9 43.6 16.35 L42.85 17.55 Q43.0 18.45 42.65 19.4 L42.65 19.45 Q43.65 21.1 42.0 22.2 L41.4 22.5 M42.25 18.2 L41.35 18.9 40.5 19.4 38.65 19.75 M42.6 17.85 L42.25 18.2 M42.6 17.85 L42.85 17.55 M42.55 19.7 L42.25 20.2 Q41.2 21.1 40.0 21.05 M42.65 19.45 L42.55 19.7" fill="none" stroke="#000000" stroke-linecap="round" stroke-linejoin="round" stroke-opacity="0.3019608" stroke-width="0.30000000000000004"/>
      <path d="M26.0 8.55 Q26.45 7.8 27.15 7.25 26.0 8.95 26.25 11.15 26.55 13.4 29.85 15.0 L27.8 14.05 Q25.05 12.75 26.0 8.55" fill="#d5d580" fill-rule="evenodd" stroke="none"/>
      <path d="M38.15 14.75 L38.6 14.5 Q41.1 12.8 40.6 8.95 L40.9 9.2 Q44.4 14.1 40.55 17.8 36.75 21.0 30.1 17.4 25.85 15.25 24.95 13.25 24.8 10.3 26.0 8.55 25.05 12.75 27.8 14.05 L29.85 15.0 Q34.35 16.7 38.15 14.75" fill="#cac960" fill-rule="evenodd" stroke="none"/>
      <path d="M27.15 7.25 Q28.45 6.2 30.65 5.9 34.8 5.0 39.35 8.05 41.35 12.2 38.15 14.75 34.35 16.7 29.85 15.0 26.55 13.4 26.25 11.15 26.0 8.95 27.15 7.25" fill="#e6e4b3" fill-rule="evenodd" stroke="none"/>
      <path d="M41.6 8.9 Q45.45 14.3 41.25 18.35 37.0 21.9 29.7 17.9 25.05 15.5 24.1 13.35 23.8 6.2 30.3 5.3 35.65 4.1 41.6 8.9 M26.0 8.55 Q24.8 10.3 24.95 13.25 25.85 15.25 30.1 17.4 36.75 21.0 40.55 17.8 44.4 14.1 40.9 9.2 L40.6 8.95 Q41.1 12.8 38.6 14.5 L38.15 14.75 Q41.35 12.2 39.35 8.05 34.8 5.0 30.65 5.9 28.45 6.2 27.15 7.25 26.45 7.8 26.0 8.55" fill="#f9f8ec" fill-rule="evenodd" stroke="none"/>
      <path d="M41.6 8.9 Q35.65 4.1 30.3 5.3 23.8 6.2 24.1 13.35 25.05 15.5 29.7 17.9 37.0 21.9 41.25 18.35 45.45 14.3 41.6 8.9 Z" fill="none" stroke="#000000" stroke-linecap="round" stroke-linejoin="round" stroke-opacity="0.3019608" stroke-width="0.30000000000000004"/>
      <path d="M26.4 14.1 L28.45 14.45 Q30.1 14.4 30.0 14.1 30.5 14.3 30.9 14.6 31.2 15.55 29.25 15.2 L26.2 14.5 26.4 14.1 M32.45 16.15 L32.6 16.3 Q33.25 17.65 32.35 18.45 L31.75 17.25 Q31.9 16.05 32.45 16.15 M25.1 15.9 L25.25 15.25 Q25.25 15.8 26.75 15.9 29.3 16.3 29.0 15.45 L29.5 15.65 29.65 15.8 Q30.05 16.25 29.85 16.75 29.5 17.45 28.1 16.75 27.2 16.2 26.15 16.35 L25.55 16.55 Q24.7 16.9 24.2 17.6 L23.15 17.2 Q23.85 17.5 25.35 16.4 26.0 15.9 25.6 15.95 L25.1 15.9 M31.65 18.0 L32.0 18.6 Q32.25 19.8 31.0 20.4 L30.65 20.1 30.65 19.75 Q30.95 18.1 31.65 18.0 M29.55 18.35 L29.25 17.8 30.25 18.95 Q30.6 20.05 29.9 21.3 28.95 21.3 28.35 20.65 L28.45 19.8 Q28.45 20.5 28.9 20.65 29.85 20.8 30.0 19.9 30.1 18.95 29.55 18.35 M26.75 18.55 Q28.5 18.0 28.35 17.35 L28.6 17.6 28.55 18.1 Q27.25 19.5 26.3 19.55 24.1 19.25 24.1 18.3 L24.6 17.65 Q23.9 18.55 25.3 18.7 L26.55 18.6 26.75 18.55" fill="#f4a33c" fill-rule="evenodd" stroke="none"/>
      <path d="M19.45 24.75 Q17.65 22.75 18.05 20.15 L18.15 19.8 18.3 20.85 Q19.05 21.65 20.0 21.8 22.65 22.25 24.1 19.7 L24.7 20.0 Q24.85 20.8 27.15 21.25 L27.35 21.75 Q27.45 22.35 28.3 22.95 L28.05 24.1 Q27.4 26.25 26.45 26.5 25.45 26.9 24.2 26.5 L22.65 25.85 21.85 25.15 Q20.5 25.35 19.45 24.75 M19.95 30.45 Q20.5 29.6 20.65 28.75 20.75 27.35 19.55 25.85 20.7 26.6 22.1 26.95 L22.85 27.4 Q25.3 29.0 23.0 32.0 L19.95 30.45" fill="#d5d580" fill-rule="evenodd" stroke="none"/>
      <path d="M26.4 14.1 Q26.75 13.7 27.8 13.55 L30.0 14.1 Q30.1 14.4 28.45 14.45 L26.4 14.1 M25.25 15.25 Q25.5 15.0 25.95 14.85 27.5 14.9 29.0 15.45 29.3 16.3 26.75 15.9 25.25 15.8 25.25 15.25 M28.5 18.65 L28.8 18.35 28.75 17.7 28.95 17.9 29.55 18.35 Q30.1 18.95 30.0 19.9 29.85 20.8 28.9 20.65 28.45 20.5 28.45 19.8 L28.5 18.65 M25.6 15.95 Q26.0 15.9 25.35 16.4 23.85 17.5 23.15 17.2 22.95 17.05 23.05 16.95 23.9 15.95 25.6 15.95 M26.75 18.55 L26.55 18.6 25.3 18.7 Q23.9 18.55 24.6 17.65 25.5 16.75 26.55 16.7 27.15 16.75 27.6 16.95 28.2 17.45 27.55 18.0 L26.75 18.55" fill="#ffde4f" fill-rule="evenodd" stroke="none"/>
      <path d="M17.0 22.05 L13.75 27.3 13.3 27.05 17.4 20.9 17.55 20.0 Q19.3 17.1 21.25 16.25 23.2 15.4 24.0 15.95 L23.45 16.2 Q23.1 16.05 22.7 16.2 19.9 16.85 18.15 19.8 L18.05 20.15 Q17.65 22.75 19.45 24.75 18.75 24.35 18.2 23.4 17.55 23.05 17.35 21.55 L17.0 22.05 M31.0 20.4 L31.15 20.5 32.15 21.6 33.6 23.35 33.45 23.95 30.5 20.95 30.65 20.1 31.0 20.4" fill="#f9f8ec" fill-rule="evenodd" stroke="none"/>
      <path d="M13.75 27.3 L17.0 22.05 Q17.2 23.45 18.6 25.05 L19.55 25.85 Q20.75 27.35 20.65 28.75 20.5 29.6 19.95 30.45 L13.75 27.3 M18.15 19.8 Q19.9 16.85 22.7 16.2 23.1 16.05 23.45 16.2 L22.7 16.8 Q22.55 17.0 22.85 17.3 22.6 17.75 23.35 18.2 L23.75 18.35 23.7 18.5 23.85 18.75 23.75 18.95 Q23.6 19.35 23.95 19.6 L24.1 19.7 Q22.65 22.25 20.0 21.8 19.05 21.65 18.3 20.85 L18.15 19.8 M27.35 21.75 Q27.75 22.2 28.9 22.7 L28.6 23.75 Q27.4 28.4 23.95 26.7 L22.65 25.85 24.2 26.5 Q25.45 26.9 26.45 26.5 27.4 26.25 28.05 24.1 L28.3 22.95 Q27.45 22.35 27.35 21.75" fill="#e6e4b3" fill-rule="evenodd" stroke="none"/>
      <path d="M17.0 22.05 L17.35 21.55 Q17.55 23.05 18.2 23.4 18.75 24.35 19.45 24.75 20.5 25.35 21.85 25.15 L22.65 25.85 23.95 26.7 Q27.4 28.4 28.6 23.75 L28.9 22.7 Q27.75 22.2 27.35 21.75 L27.15 21.25 Q24.85 20.8 24.7 20.0 L24.1 19.7 23.95 19.6 Q23.6 19.35 23.75 18.95 L23.85 18.75 24.2 19.2 24.8 19.6 26.5 20.05 28.2 18.95 27.9 20.75 Q28.6 21.85 30.05 21.65 L30.5 20.95 33.45 23.95 Q32.45 27.9 28.65 29.7 L25.55 33.3 23.0 32.0 Q25.3 29.0 22.85 27.4 L22.1 26.95 Q20.7 26.6 19.55 25.85 L18.6 25.05 Q17.2 23.45 17.0 22.05 M24.05 17.85 L23.75 18.35 23.35 18.2 Q22.6 17.75 22.85 17.3 L24.05 17.85" fill="#cac960" fill-rule="evenodd" stroke="none"/>
      <path d="M30.9 14.6 L32.45 16.15 Q31.9 16.05 31.75 17.25 L30.8 16.25 29.25 15.2 Q31.2 15.55 30.9 14.6 M29.65 15.8 Q30.9 16.65 31.65 18.0 30.95 18.1 30.65 19.75 L30.55 19.35 30.25 18.95 29.25 17.8 28.1 16.75 Q29.5 17.45 29.85 16.75 30.05 16.25 29.65 15.8" fill="#cc6b22" fill-rule="evenodd" stroke="none"/>
      <path d="M23.45 16.2 L24.0 15.95 24.7 15.85 25.1 15.9 24.7 15.85 Q25.0 14.85 25.65 14.6 26.15 13.2 28.6 13.35 31.05 13.55 32.95 16.4 33.75 18.4 32.3 18.95 L32.35 18.45 32.3 18.95 Q32.05 20.2 31.15 20.5 L31.0 20.4 Q32.25 19.8 32.0 18.6 L31.65 18.0 Q30.9 16.65 29.65 15.8 L29.5 15.65 29.0 15.45 Q27.5 14.9 25.95 14.85 25.5 15.0 25.25 15.25 L25.1 15.9 25.6 15.95 Q23.9 15.95 23.05 16.95 22.95 17.05 23.15 17.2 L24.2 17.6 Q24.7 16.9 25.55 16.55 L26.15 16.35 Q27.2 16.2 28.1 16.75 L29.25 17.8 29.55 18.35 28.95 17.9 28.75 17.7 28.8 18.35 28.5 18.65 28.2 18.95 28.5 18.65 28.45 19.8 28.35 20.65 Q28.95 21.3 29.9 21.3 30.6 20.05 30.25 18.95 L30.55 19.35 30.65 19.75 30.65 20.1 30.5 20.95 30.05 21.65 Q28.6 21.85 27.9 20.75 L28.2 18.95 26.5 20.05 24.8 19.6 24.2 19.2 23.85 18.75 23.7 18.5 23.75 18.35 24.05 17.85 24.2 17.6 24.05 17.85 22.85 17.3 Q22.55 17.0 22.7 16.8 L23.45 16.2 M30.0 14.1 L27.8 13.55 Q26.75 13.7 26.4 14.1 L26.2 14.5 26.15 14.45 Q25.9 14.45 25.65 14.6 25.9 14.45 26.15 14.45 L26.2 14.5 29.25 15.2 30.8 16.25 31.75 17.25 32.35 18.45 Q33.25 17.65 32.6 16.3 L32.45 16.15 30.9 14.6 Q30.5 14.3 30.0 14.1 M24.6 17.65 L24.1 18.3 Q24.1 19.25 26.3 19.55 27.25 19.5 28.55 18.1 L28.6 17.6 28.35 17.35 Q28.5 18.0 26.75 18.55 L27.55 18.0 Q28.2 17.45 27.6 16.95 27.15 16.75 26.55 16.7 25.5 16.75 24.6 17.65" fill="#ffff98" fill-rule="evenodd" stroke="none"/>
      <path d="M23.45 16.2 L24.0 15.95 Q23.2 15.4 21.25 16.25 19.3 17.1 17.55 20.0 L17.4 20.9 13.3 27.05 13.75 27.3 19.95 30.45 23.0 32.0 25.55 33.3 28.65 29.7 Q32.45 27.9 33.45 23.95 L33.6 23.35 32.15 21.6 31.15 20.5 Q32.05 20.2 32.3 18.95 33.75 18.4 32.95 16.4 31.05 13.55 28.6 13.35 26.15 13.2 25.65 14.6 25.9 14.45 26.15 14.45 L26.2 14.5 29.25 15.2 30.8 16.25 31.75 17.25 32.35 18.45 32.3 18.95 M24.7 15.85 L24.0 15.95 M24.7 15.85 L25.1 15.9 M31.0 20.4 L31.15 20.5 M28.1 16.75 Q27.2 16.2 26.15 16.35 L25.55 16.55 Q24.7 16.9 24.2 17.6 L24.05 17.85 23.75 18.35 23.7 18.5 23.85 18.75 24.2 19.2 24.8 19.6 26.5 20.05 28.2 18.95 28.5 18.65 28.8 18.35 M29.25 17.8 L28.1 16.75 M25.65 14.6 Q25.0 14.85 24.7 15.85 M30.65 19.75 L30.65 20.1 31.0 20.4 M30.55 19.35 L30.65 19.75 M30.65 20.1 L30.5 20.95 30.05 21.65 Q28.6 21.85 27.9 20.75 L28.2 18.95 M23.45 16.2 L22.7 16.8 Q22.55 17.0 22.85 17.3 L24.05 17.85" fill="none" stroke="#000000" stroke-linecap="round" stroke-linejoin="round" stroke-opacity="0.3019608" stroke-width="0.30000000000000004"/>
      <path d="M27.2 24.35 Q27.4 25.55 26.95 26.75 26.2 28.5 24.3 29.15 L20.5 28.95 19.95 28.65 19.15 28.1 18.05 26.75 17.8 26.25 Q17.4 25.3 17.4 24.45 17.3 23.5 17.7 22.6 18.45 20.85 20.35 20.15 L20.95 20.0 Q22.5 19.65 24.05 20.35 25.55 21.0 26.35 22.3 L26.8 23.05 27.2 24.35" fill="#a6a637" fill-rule="evenodd" stroke="none"/>
      <path d="M8.65 22.5 L11.05 22.75 15.05 24.2 13.8 23.4 13.0 23.1 Q14.05 22.0 15.9 22.4 L15.5 22.95 Q15.6 23.95 17.95 25.55 L18.55 26.05 Q20.6 27.9 19.5 28.95 L17.9 29.15 Q18.1 29.6 17.55 30.5 L17.35 30.75 Q16.55 30.25 16.45 28.75 L16.4 28.75 16.45 28.6 Q16.5 27.4 15.3 27.3 11.75 27.3 11.65 28.6 11.4 30.6 14.5 30.6 15.15 31.25 13.9 33.2 L12.55 33.3 Q11.95 33.2 11.55 32.8 L11.5 32.8 Q10.6 31.9 10.55 29.45 L11.0 28.25 Q11.35 27.35 11.9 27.5 11.55 26.35 11.85 25.85 L12.35 26.15 13.25 26.2 15.05 25.95 15.2 25.8 Q15.7 25.15 15.2 24.45 15.6 26.5 12.8 25.45 L10.3 24.05 Q8.75 23.0 8.65 22.5 M11.25 22.0 L11.15 21.75 Q11.65 21.55 12.7 22.25 12.25 22.6 11.25 22.0 M30.2 31.3 L31.25 32.4 31.5 33.85 Q33.65 34.65 33.4 36.05 32.65 36.9 30.65 36.4 L30.45 36.8 Q32.2 40.15 30.5 39.8 28.8 39.45 27.5 38.25 L27.2 37.95 27.05 37.95 26.1 37.9 26.05 37.9 Q19.5 45.7 12.85 48.05 11.9 48.3 11.4 47.75 L11.9 47.65 Q17.95 46.35 23.95 39.3 L25.25 37.75 25.7 37.85 25.8 37.85 26.05 37.9 25.8 37.85 25.7 37.85 25.25 37.75 Q23.35 37.35 21.25 36.25 18.7 34.65 16.3 34.7 L15.7 34.8 Q16.5 34.55 14.6 34.25 L14.85 34.2 Q16.85 33.65 19.0 34.55 20.5 35.05 21.8 35.95 24.5 37.4 26.7 37.35 L25.95 36.3 26.2 35.65 Q26.45 37.35 29.55 39.15 30.9 39.8 30.9 38.9 L30.65 38.15 Q30.15 36.7 28.95 34.9 28.25 34.45 27.45 34.55 L27.0 34.6 29.05 34.55 29.3 34.75 30.05 36.05 Q30.7 35.8 29.95 34.75 L30.1 34.8 Q31.0 34.8 31.0 33.45 L30.85 32.75 30.35 32.1 30.2 31.3 M16.15 28.1 Q16.3 28.95 15.55 29.4 L12.6 29.25 Q12.1 29.1 12.15 28.4 13.0 27.6 15.15 27.65 15.8 27.6 16.15 28.1 M24.5 31.7 Q24.5 32.85 23.85 33.1 22.7 33.55 21.8 32.85 20.5 31.6 21.3 30.7 22.95 29.75 24.2 31.1 L24.5 31.7 M30.45 36.8 L30.05 36.05 30.45 36.8 M31.45 34.3 L30.65 35.25 30.75 36.0 33.2 35.85 33.1 35.45 Q32.8 34.85 31.8 34.5 L31.45 34.3 31.5 33.85 31.45 34.3 M26.7 37.35 L27.2 37.95 26.7 37.35 M30.65 36.4 L30.75 36.0 30.65 36.4 M13.6 35.15 L15.7 34.8 17.1 35.15 17.35 37.1 Q17.65 40.1 16.75 42.3 13.65 46.15 12.5 45.8 11.5 45.4 11.25 43.6 11.35 41.2 12.0 37.6 12.6 35.55 13.6 35.15" fill="#ffde4f" fill-rule="evenodd" stroke="none"/>
      <path d="M13.25 26.2 Q9.75 24.3 8.25 22.7 8.25 22.5 8.65 22.5 8.75 23.0 10.3 24.05 L12.8 25.45 Q15.6 26.5 15.2 24.45 15.7 25.15 15.2 25.8 L15.05 25.95 13.25 26.2 M12.75 23.0 L11.4 22.55 11.25 22.0 Q12.25 22.6 12.7 22.25 L13.1 22.55 12.95 22.7 12.75 23.0 M30.35 32.1 L30.85 32.75 Q29.95 34.3 27.2 33.35 L29.05 34.25 29.05 34.55 27.0 34.6 26.65 34.9 24.5 34.8 Q25.85 33.35 25.05 32.1 25.05 30.9 23.25 30.1 22.7 29.8 21.6 30.5 L21.3 30.7 Q20.5 31.6 21.8 32.85 22.7 33.55 23.85 33.1 24.5 32.85 24.5 31.7 24.9 32.65 24.1 33.6 23.0 34.8 21.6 33.9 20.5 33.1 20.7 31.5 L20.5 32.05 20.45 32.5 Q20.25 32.95 20.3 33.35 L17.1 33.2 13.75 34.4 11.45 34.2 10.5 33.55 Q10.0 32.25 10.3 30.6 10.55 32.5 11.55 33.05 L11.7 33.1 12.55 33.3 13.9 33.2 Q15.15 31.25 14.5 30.6 15.85 30.55 16.15 30.0 L13.4 30.15 Q11.45 29.65 12.15 28.4 12.1 29.1 12.6 29.25 L15.55 29.4 Q16.3 28.95 16.15 28.1 L16.4 28.75 16.45 28.75 Q16.55 30.25 17.35 30.75 L17.55 30.5 Q18.1 29.6 17.9 29.15 L19.5 28.95 Q20.45 28.55 20.1 27.2 22.95 29.2 27.0 31.45 29.7 32.65 30.35 32.1 M33.1 35.45 L32.2 35.55 Q31.1 35.0 31.8 34.5 32.8 34.85 33.1 35.45 M30.65 38.15 Q30.65 38.9 30.05 38.6 28.6 38.15 27.3 36.15 26.65 34.9 27.45 34.55 28.25 34.45 28.95 34.9 30.15 36.7 30.65 38.15 M10.55 28.9 L10.35 29.3 Q10.0 28.85 10.25 27.8 10.65 26.75 11.45 26.6 L11.55 26.9 11.9 27.5 Q11.35 27.35 11.0 28.25 L10.55 28.9 M12.5 35.15 L13.6 35.15 Q12.6 35.55 12.0 37.6 L12.5 35.15 M17.1 35.15 Q22.75 37.3 22.1 39.45 19.7 43.1 15.3 45.9 13.2 47.35 11.65 47.15 11.35 46.35 11.3 45.1 11.95 47.35 14.1 45.7 15.9 44.35 16.75 42.3 17.65 40.1 17.35 37.1 L17.1 35.15" fill="#f4a33c" fill-rule="evenodd" stroke="none"/>
      <path d="M13.75 34.4 L17.1 33.2 20.3 33.35 Q20.25 32.95 20.45 32.5 20.4 33.3 20.75 33.8 22.3 35.6 24.15 34.2 25.15 33.05 25.05 32.1 25.85 33.35 24.5 34.8 L26.65 34.9 27.0 34.6 27.45 34.55 Q26.65 34.9 27.3 36.15 28.6 38.15 30.05 38.6 30.65 38.9 30.65 38.15 L30.9 38.9 Q30.9 39.8 29.55 39.15 26.45 37.35 26.2 35.65 L25.95 36.3 26.7 37.35 Q24.5 37.4 21.8 35.95 20.5 35.05 19.0 34.55 16.85 33.65 14.85 34.2 L14.6 34.25 13.75 34.4 M29.05 34.55 L29.05 34.25 27.2 33.35 Q29.95 34.3 30.85 32.75 L31.0 33.45 Q31.0 34.8 30.1 34.8 L29.95 34.75 Q30.7 35.8 30.05 36.05 L29.3 34.75 29.05 34.55 M30.75 36.0 L30.65 35.25 31.45 34.3 31.8 34.5 Q31.1 35.0 32.2 35.55 L33.1 35.45 33.2 35.85 30.75 36.0 M15.7 34.8 L16.3 34.7 Q18.7 34.65 21.25 36.25 23.35 37.35 25.25 37.75 L23.95 39.3 Q17.95 46.35 11.9 47.65 L11.65 47.15 Q13.2 47.35 15.3 45.9 19.7 43.1 22.1 39.45 22.75 37.3 17.1 35.15 L15.7 34.8" fill="#cc6b22" fill-rule="evenodd" stroke="none"/>
      <path d="M8.65 22.5 Q8.25 22.5 8.25 22.7 9.75 24.3 13.25 26.2 L12.35 26.15 11.85 25.85 11.45 25.6 11.85 25.85 Q11.55 26.35 11.9 27.5 L11.55 26.9 11.45 26.6 Q10.65 26.75 10.25 27.8 10.0 28.85 10.35 29.3 L10.55 28.9 11.0 28.25 10.55 29.45 Q10.6 31.9 11.5 32.8 L11.55 32.8 Q11.95 33.2 12.55 33.3 L11.7 33.1 11.55 33.05 Q10.55 32.5 10.3 30.6 10.0 32.25 10.5 33.55 L11.45 34.2 13.75 34.4 14.6 34.25 Q16.5 34.55 15.7 34.8 L13.6 35.15 12.5 35.15 11.85 35.05 12.5 35.15 12.0 37.6 Q11.35 41.2 11.25 43.6 11.5 45.4 12.5 45.8 13.65 46.15 16.75 42.3 15.9 44.35 14.1 45.7 11.95 47.35 11.3 45.1 11.35 46.35 11.65 47.15 L11.9 47.65 11.4 47.75 Q10.7 47.1 10.75 45.05 10.9 39.35 11.85 35.05 L11.55 34.95 11.45 34.95 11.0 34.75 10.9 34.65 10.85 34.6 Q9.15 33.2 10.05 30.15 L10.1 30.0 9.9 29.7 Q9.6 29.1 9.75 28.0 9.9 26.6 11.4 26.1 L11.45 25.6 Q6.95 22.8 7.85 22.3 L11.1 22.45 11.4 22.55 11.1 22.45 Q10.55 21.15 11.45 21.4 12.35 21.6 13.3 22.45 L13.1 22.55 13.3 22.45 16.5 22.3 16.05 22.95 Q16.15 24.0 22.15 28.05 26.7 31.2 28.9 31.7 30.05 31.95 30.2 31.3 L30.35 32.1 Q29.7 32.65 27.0 31.45 22.95 29.2 20.1 27.2 20.45 28.55 19.5 28.95 20.6 27.9 18.55 26.05 L17.95 25.55 Q15.6 23.95 15.5 22.95 L15.9 22.4 Q14.05 22.0 13.0 23.1 L13.8 23.4 15.05 24.2 11.05 22.75 8.65 22.5 M12.75 23.0 L13.0 23.1 12.75 23.0 12.95 22.7 13.1 22.55 12.7 22.25 Q11.65 21.55 11.15 21.75 L11.25 22.0 11.4 22.55 12.75 23.0 M16.4 28.75 L16.15 28.1 Q15.8 27.6 15.15 27.65 13.0 27.6 12.15 28.4 11.45 29.65 13.4 30.15 L16.15 30.0 Q15.85 30.55 14.5 30.6 11.4 30.6 11.65 28.6 11.75 27.3 15.3 27.3 16.5 27.4 16.45 28.6 L16.4 28.75 M20.45 32.5 L20.5 32.05 20.7 31.5 Q20.5 33.1 21.6 33.9 23.0 34.8 24.1 33.6 24.9 32.65 24.5 31.7 L24.2 31.1 Q22.95 29.75 21.3 30.7 L21.6 30.5 Q22.7 29.8 23.25 30.1 25.05 30.9 25.05 32.1 25.15 33.05 24.15 34.2 22.3 35.6 20.75 33.8 20.4 33.3 20.45 32.5 M10.1 30.0 L10.35 29.3 10.1 30.0 M11.45 26.6 L11.4 26.1 11.45 26.6" fill="#ffff98" fill-rule="evenodd" stroke="none"/>
      <path d="M13.8 23.4 L13.0 23.1 12.75 23.0 11.4 22.55 11.1 22.45 7.85 22.3 Q6.95 22.8 11.45 25.6 L11.85 25.85 12.35 26.15 M13.1 22.55 L13.3 22.45 Q12.35 21.6 11.45 21.4 10.55 21.15 11.1 22.45 M13.1 22.55 L12.95 22.7 12.75 23.0 M13.3 22.45 L16.5 22.3 16.05 22.95 Q16.15 24.0 22.15 28.05 26.7 31.2 28.9 31.7 30.05 31.95 30.2 31.3 L31.25 32.4 31.5 33.85 Q33.65 34.65 33.4 36.05 32.65 36.9 30.65 36.4 L30.45 36.8 Q32.2 40.15 30.5 39.8 28.8 39.45 27.5 38.25 L27.2 37.95 27.05 37.95 26.1 37.9 26.05 37.9 Q19.5 45.7 12.85 48.05 11.9 48.3 11.4 47.75 10.7 47.1 10.75 45.05 10.9 39.35 11.85 35.05 L11.55 34.95 11.45 34.95 11.0 34.75 10.9 34.65 10.85 34.6 Q9.15 33.2 10.05 30.15 L10.1 30.0 9.9 29.7 Q9.6 29.1 9.75 28.0 9.9 26.6 11.4 26.1 L11.45 25.6 M16.15 30.0 Q15.85 30.55 14.5 30.6 11.4 30.6 11.65 28.6 11.75 27.3 15.3 27.3 16.5 27.4 16.45 28.6 L16.4 28.75 M20.45 32.5 L20.5 32.05 M21.6 30.5 Q22.7 29.8 23.25 30.1 25.05 30.9 25.05 32.1 25.15 33.05 24.15 34.2 22.3 35.6 20.75 33.8 20.4 33.3 20.45 32.5 M27.0 34.6 L29.05 34.55 29.3 34.75 30.05 36.05 30.45 36.8 M31.45 34.3 L30.65 35.25 30.75 36.0 30.65 36.4 M31.45 34.3 L31.5 33.85 M25.25 37.75 L25.7 37.85 25.8 37.85 26.05 37.9 M27.2 37.95 L26.7 37.35 25.95 36.3 M15.7 34.8 L16.3 34.7 Q18.7 34.65 21.25 36.25 23.35 37.35 25.25 37.75 M10.35 29.3 L10.55 28.9 M11.55 26.9 L11.45 26.6 11.4 26.1 M10.35 29.3 L10.1 30.0 M12.5 35.15 L13.6 35.15 15.7 34.8 M11.85 35.05 L12.5 35.15" fill="none" stroke="#000000" stroke-linecap="round" stroke-linejoin="round" stroke-opacity="0.3019608" stroke-width="0.30000000000000004"/>
      <path d="M30.3 28.4 L31.0 29.05 Q29.35 29.0 30.2 30.85 30.85 32.55 32.0 32.7 32.95 32.9 33.05 31.9 L33.6 32.6 Q31.85 34.0 30.25 32.9 L30.15 32.7 28.85 32.0 Q27.55 30.75 27.85 29.8 28.9 28.3 30.3 28.4" fill="#d5d580" fill-rule="evenodd" stroke="none"/>
      <path d="M32.6 36.05 Q31.9 36.25 31.6 35.6 L31.55 35.35 31.65 35.1 31.7 35.4 31.9 35.8 32.4 35.95 32.45 35.95 32.6 36.05 32.45 35.95 32.35 35.8 32.5 35.5 Q32.45 35.75 32.65 35.85 L32.65 36.15 32.6 36.05 M33.4 34.3 L32.95 34.6 32.25 34.9 Q32.05 34.75 32.5 34.3 L33.1 33.8 Q33.65 33.35 34.2 33.15 L34.95 33.2 34.65 33.55 34.15 33.8 33.4 34.3 M33.5 34.8 Q34.25 34.2 34.85 34.0 L35.1 34.4 34.65 34.4 34.65 34.9 33.5 34.8" fill="#ffde4f" fill-rule="evenodd" stroke="none"/>
      <path d="M33.6 32.6 L33.95 33.1 Q33.1 33.6 32.6 34.0 L32.15 34.4 31.95 34.65 Q30.65 33.7 30.25 32.9 31.85 34.0 33.6 32.6" fill="#a6a637" fill-rule="evenodd" stroke="none"/>
      <path d="M31.0 29.05 L32.25 30.7 33.05 31.9 Q32.95 32.9 32.0 32.7 30.85 32.55 30.2 30.85 29.35 29.0 31.0 29.05" fill="#e6e4b3" fill-rule="evenodd" stroke="none"/>
      <path d="M31.0 29.05 L30.3 28.4 30.8 28.2 Q32.3 29.8 33.7 32.3 L34.3 32.95 33.95 33.1 33.6 32.6 33.05 31.9 32.25 30.7 31.0 29.05 M28.85 32.0 L30.15 32.7 30.25 32.9 Q30.65 33.7 31.95 34.65 L31.65 35.05 Q30.4 34.05 29.9 33.15 L27.1 31.1 27.15 30.9 28.85 32.0" fill="#f9f8ec" fill-rule="evenodd" stroke="none"/>
      <path d="M27.85 29.8 Q27.55 30.75 28.85 32.0 L27.15 30.9 27.2 30.8 27.85 29.8" fill="#cac960" fill-rule="evenodd" stroke="none"/>
      <path d="M31.95 34.65 L32.15 34.4 Q31.85 34.9 32.0 35.25 L32.15 35.35 32.35 35.3 32.5 35.15 32.2 35.8 32.4 35.95 31.9 35.8 31.7 35.4 31.65 35.1 31.65 35.05 31.95 34.65 M35.0 33.45 L35.25 33.2 Q35.6 33.5 35.15 34.15 L35.1 34.05 Q35.3 33.5 35.0 33.45 M33.25 35.1 L33.5 34.8 Q33.8 35.05 34.45 35.1 L34.5 35.1 34.45 35.1 33.25 35.1" fill="#f4a33c" fill-rule="evenodd" stroke="none"/>
      <path d="M32.45 35.95 L32.4 35.95 32.2 35.8 32.5 35.15 33.4 34.3 34.15 33.8 34.65 33.55 34.7 33.5 35.0 33.45 Q35.3 33.5 35.1 34.05 L34.9 33.7 34.7 33.75 34.85 34.0 Q34.25 34.2 33.5 34.8 L33.25 35.1 32.9 35.1 32.65 35.1 32.65 35.4 32.65 35.85 Q32.45 35.75 32.5 35.5 L32.6 35.45 32.65 35.4 32.6 35.45 32.5 35.5 32.35 35.8 32.45 35.95 M32.9 35.1 L33.1 34.85 33.35 34.6 Q34.0 34.0 34.7 33.75 34.0 34.0 33.35 34.6 L33.1 34.85 32.9 35.1" fill="#cc6b22" fill-rule="evenodd" stroke="none"/>
      <path d="M33.95 33.1 L34.3 32.95 34.75 32.95 Q35.1 33.0 35.25 33.2 L35.0 33.45 34.7 33.5 34.65 33.55 34.95 33.2 34.2 33.15 Q33.65 33.35 33.1 33.8 L32.5 34.3 Q32.05 34.75 32.25 34.9 L32.95 34.6 33.4 34.3 32.5 35.15 32.35 35.3 32.15 35.35 32.0 35.25 Q31.85 34.9 32.15 34.4 L32.6 34.0 Q33.1 33.6 33.95 33.1 M34.85 34.0 L34.7 33.75 34.9 33.7 35.1 34.05 35.15 34.15 35.35 34.4 35.1 34.4 34.85 34.0 M34.65 35.0 L34.65 35.1 34.5 35.1 34.5 35.05 34.65 35.0 34.5 35.05 34.5 35.1 34.45 35.1 Q33.8 35.05 33.5 34.8 L34.65 34.9 34.65 35.0" fill="#ffff98" fill-rule="evenodd" stroke="none"/>
      <path d="M33.95 33.1 L34.3 32.95 33.7 32.3 Q32.3 29.8 30.8 28.2 M31.95 34.65 L32.15 34.4 32.6 34.0 Q33.1 33.6 33.95 33.1 M31.65 35.1 L31.65 35.05 Q30.4 34.05 29.9 33.15 L27.1 31.1 27.0 31.0 M31.65 35.1 L31.55 35.35 31.6 35.6 Q31.9 36.25 32.6 36.05 L32.45 35.95 32.35 35.8 32.5 35.5 32.6 35.45 32.65 35.4 M31.65 35.05 L31.95 34.65 M35.25 33.2 Q35.1 33.0 34.75 32.95 L34.3 32.95 M32.65 36.15 L32.6 36.05 M34.7 33.75 Q34.0 34.0 33.35 34.6 L33.1 34.85 32.9 35.1 M34.65 35.0 L34.5 35.05 34.5 35.1 M34.7 33.75 L34.9 33.7 35.1 34.05 35.15 34.15 Q35.6 33.5 35.25 33.2 M35.15 34.15 L35.35 34.4" fill="none" stroke="#000000" stroke-linecap="round" stroke-linejoin="round" stroke-opacity="0.3019608" stroke-width="0.30000000000000004"/>
      <path d="M32.1 22.65 L33.05 23.15 Q31.25 23.6 32.75 25.25 34.0 26.8 35.25 26.6 36.35 26.5 36.1 25.45 L36.85 26.0 Q35.5 28.0 33.45 27.4 L33.35 27.2 31.75 26.85 Q29.95 26.0 29.95 24.95 30.6 23.05 32.1 22.65" fill="#d5d580" fill-rule="evenodd" stroke="none"/>
      <path d="M38.3 26.65 L37.85 27.1 37.25 27.8 36.8 28.3 36.2 28.85 Q35.95 28.75 36.25 28.1 L36.75 27.4 37.7 26.4 Q38.25 26.05 38.45 26.15 38.75 26.2 38.3 26.65 M36.7 29.9 L36.8 29.85 36.6 29.75 36.7 29.4 36.95 29.7 37.7 30.1 37.65 30.35 37.7 30.1 37.95 29.45 37.95 29.95 Q37.7 30.45 37.9 30.75 L38.35 31.0 38.6 31.0 38.6 31.3 38.15 31.3 Q37.7 31.2 37.65 30.6 L37.65 30.5 37.65 30.35 36.95 29.95 Q36.3 30.35 35.8 29.75 L35.65 29.55 35.65 29.2 35.8 29.55 36.15 29.9 36.7 29.9 M37.5 28.35 Q38.05 27.45 38.65 27.1 L39.15 27.55 39.15 27.75 38.95 27.95 Q38.55 28.25 37.5 28.35 M39.15 29.7 L38.8 30.05 38.4 30.15 Q38.15 30.05 38.2 29.5 38.65 28.45 39.15 28.05 L39.15 29.7 M36.8 29.85 L36.95 29.95 36.8 29.85" fill="#ffde4f" fill-rule="evenodd" stroke="none"/>
      <path d="M36.85 26.0 L37.4 26.4 36.3 27.8 35.95 28.3 35.85 28.6 Q34.15 28.1 33.45 27.4 35.5 28.0 36.85 26.0 M38.9 30.75 L39.1 30.3 39.15 30.15 39.15 30.75 38.9 30.75" fill="#a6a637" fill-rule="evenodd" stroke="none"/>
      <path d="M33.05 23.15 L34.85 24.45 36.1 25.45 Q36.35 26.5 35.25 26.6 34.0 26.8 32.75 25.25 31.25 23.6 33.05 23.15" fill="#e6e4b3" fill-rule="evenodd" stroke="none"/>
      <path d="M32.1 22.65 L32.55 22.3 Q34.65 23.5 36.9 25.6 L37.75 26.1 37.4 26.4 36.85 26.0 36.1 25.45 34.85 24.45 33.05 23.15 32.1 22.65 M31.75 26.85 L33.35 27.2 33.45 27.4 Q34.15 28.1 35.85 28.6 L35.65 29.2 Q34.05 28.55 33.2 27.75 L30.7 27.25 29.4 27.8 29.4 27.55 Q30.05 27.0 30.75 26.8 L31.75 26.85" fill="#f9f8ec" fill-rule="evenodd" stroke="none"/>
      <path d="M31.75 26.85 L30.75 26.8 Q30.05 27.0 29.4 27.55 L29.35 27.6 29.95 24.95 Q29.95 26.0 31.75 26.85" fill="#cac960" fill-rule="evenodd" stroke="none"/>
      <path d="M38.65 26.45 L38.85 26.05 Q39.3 26.3 39.0 27.1 L38.95 27.0 Q38.9 26.4 38.65 26.45 M36.6 29.0 Q36.35 29.6 36.45 29.8 L36.7 29.9 36.15 29.9 35.8 29.55 35.65 29.2 35.85 28.6 35.95 28.3 Q35.8 28.95 36.05 29.25 L36.25 29.35 36.45 29.2 36.6 29.0 M36.95 29.7 L37.15 29.05 37.3 28.75 37.5 28.35 38.6 28.3 38.0 29.35 37.95 29.45 37.7 30.1 36.95 29.7 M37.95 29.95 L38.4 30.5 38.7 30.45 38.8 30.75 38.6 30.75 38.6 31.0 38.35 31.0 37.9 30.75 Q37.7 30.45 37.95 29.95" fill="#f4a33c" fill-rule="evenodd" stroke="none"/>
      <path d="M37.25 27.8 L37.85 27.1 38.3 26.65 38.35 26.6 38.65 26.45 Q38.9 26.4 38.95 27.0 L38.6 26.75 38.4 26.85 Q37.75 27.35 37.25 28.2 L37.1 28.5 36.75 29.25 36.7 29.4 36.75 29.25 37.1 28.5 37.25 28.2 Q37.75 27.35 38.4 26.85 L38.65 27.1 Q38.05 27.45 37.5 28.35 L37.3 28.75 37.15 29.05 36.95 29.7 36.7 29.4 36.6 29.75 36.8 29.85 36.7 29.9 36.45 29.8 Q36.35 29.6 36.6 29.0 L37.25 27.8 M38.7 30.45 L38.9 30.15 39.05 29.85 39.15 29.7 39.15 30.15 39.1 30.3 38.9 30.75 38.8 30.75 38.7 30.45" fill="#cc6b22" fill-rule="evenodd" stroke="none"/>
      <path d="M37.4 26.4 L37.75 26.1 38.2 26.0 38.85 26.05 38.65 26.45 38.35 26.6 38.3 26.65 Q38.75 26.2 38.45 26.15 38.25 26.05 37.7 26.4 L36.75 27.4 36.25 28.1 Q35.95 28.75 36.2 28.85 L36.8 28.3 37.25 27.8 36.6 29.0 36.45 29.2 36.25 29.35 36.05 29.25 Q35.8 28.95 35.95 28.3 L36.3 27.8 37.4 26.4 M38.4 26.85 L38.6 26.75 38.95 27.0 39.0 27.1 39.15 27.2 39.15 27.55 38.65 27.1 38.4 26.85 M37.95 29.45 L38.0 29.35 38.6 28.3 38.95 27.95 38.6 28.3 37.5 28.35 Q38.55 28.25 38.95 27.95 L39.15 27.75 39.15 28.05 Q38.65 28.45 38.2 29.5 38.15 30.05 38.4 30.15 L38.8 30.05 39.15 29.7 39.05 29.85 38.9 30.15 38.7 30.45 38.4 30.5 37.95 29.95 37.95 29.45" fill="#ffff98" fill-rule="evenodd" stroke="none"/>
      <path d="M37.4 26.4 L37.75 26.1 36.9 25.6 Q34.65 23.5 32.55 22.3 M38.85 26.05 L38.2 26.0 37.75 26.1 M36.8 29.85 L36.6 29.75 36.7 29.4 36.75 29.25 37.1 28.5 37.25 28.2 Q37.75 27.35 38.4 26.85 L38.6 26.75 38.95 27.0 39.0 27.1 Q39.3 26.3 38.85 26.05 M35.85 28.6 L35.95 28.3 36.3 27.8 37.4 26.4 M38.6 28.3 L38.0 29.35 37.95 29.45 37.7 30.1 37.65 30.35 37.65 30.5 37.65 30.6 Q37.7 31.2 38.15 31.3 L38.6 31.3 M39.15 27.75 L38.95 27.95 38.6 28.3 M39.0 27.1 L39.15 27.2 M29.4 27.8 L30.7 27.25 33.2 27.75 Q34.05 28.55 35.65 29.2 L35.85 28.6 M35.65 29.2 L35.65 29.55 35.8 29.75 Q36.3 30.35 36.95 29.95 L36.8 29.85 M38.9 30.75 L39.1 30.3 39.15 30.15 M36.95 29.95 L37.65 30.35" fill="none" stroke="#000000" stroke-linecap="round" stroke-linejoin="round" stroke-opacity="0.3019608" stroke-width="0.30000000000000004"/>
      <path d="M19.05 26.0 L19.05 26.3 19.1 26.7 18.85 26.4 18.25 25.55 Q17.4 24.05 17.85 22.45 18.15 21.45 18.85 20.8 L18.55 21.65 18.5 21.75 Q18.15 22.25 18.05 23.0 L17.95 23.7 Q18.25 25.45 19.05 26.0 M25.4 21.7 L25.65 22.0 Q26.2 23.0 26.25 24.0 L26.15 24.9 26.1 25.15 Q25.65 26.75 24.05 27.45 L20.8 27.6 20.55 27.55 20.4 27.5 20.0 27.3 Q19.8 27.0 19.75 26.55 L20.8 27.05 21.0 27.15 21.1 27.15 Q22.65 27.55 24.45 26.75 26.05 25.5 25.95 23.35 L25.65 22.7 25.4 21.7" fill="#d5d580" fill-rule="evenodd" stroke="none"/>
      <path d="M21.15 21.45 L19.85 23.35 19.8 23.5 19.7 23.75 Q18.4 25.5 18.05 23.0 18.15 22.25 18.5 21.75 18.5 22.35 19.15 22.45 L19.9 22.3 20.15 22.15 21.15 21.45 M25.65 22.7 L25.95 23.35 Q26.05 25.5 24.45 26.75 22.65 27.55 21.1 27.15 L21.0 27.15 20.8 27.0 Q20.4 26.8 20.4 26.05 20.45 25.1 21.15 23.5 21.25 24.25 21.95 24.75 L22.7 25.1 24.05 25.15 24.7 24.7 25.55 23.5 25.65 22.7" fill="#cac960" fill-rule="evenodd" stroke="none"/>
      <path d="M19.7 23.75 Q19.1 25.1 19.05 26.0 18.25 25.45 17.95 23.7 L18.05 23.0 Q18.4 25.5 19.7 23.75 M19.75 26.55 L19.75 26.15 Q19.9 25.2 20.6 23.75 L21.1 22.85 Q21.05 23.25 21.15 23.5 20.45 25.1 20.4 26.05 20.4 26.8 20.8 27.0 L21.0 27.15 20.8 27.05 19.75 26.55" fill="#a6a637" fill-rule="evenodd" stroke="none"/>
      <path d="M23.25 20.0 Q22.2 20.2 21.15 21.45 L20.15 22.15 19.95 22.25 Q19.25 22.4 18.95 21.95 18.65 21.3 19.85 20.15 L20.2 20.0 23.05 19.95 23.25 20.0 M21.6 22.15 L22.45 21.15 Q23.65 20.4 23.9 20.7 L24.0 20.75 Q24.85 21.25 25.25 22.25 25.45 23.5 24.7 24.7 L24.05 25.15 Q22.95 25.2 22.15 24.5 L22.15 24.45 Q21.3 23.45 21.6 22.15" fill="#e6e4b3" fill-rule="evenodd" stroke="none"/>
      <path d="M21.1 22.85 L21.6 22.15 Q21.3 23.45 22.15 24.45 L22.15 24.5 Q22.95 25.2 24.05 25.15 L22.7 25.1 21.95 24.75 Q21.25 24.25 21.15 23.5 21.05 23.25 21.1 22.85 M22.45 21.15 Q23.2 20.5 23.95 20.35 24.85 20.85 25.4 21.7 L25.65 22.7 25.55 23.5 24.7 24.7 Q25.45 23.5 25.25 22.25 24.85 21.25 24.0 20.75 L23.9 20.7 Q23.65 20.4 22.45 21.15 M18.85 20.8 L19.85 20.15 Q18.65 21.3 18.95 21.95 19.25 22.4 19.95 22.25 L20.15 22.15 19.9 22.3 19.15 22.45 Q18.5 22.35 18.5 21.75 L18.55 21.65 18.85 20.8" fill="#f0f0d2" fill-rule="evenodd" stroke="none"/>
      <path d="M18.15 26.25 Q17.45 24.85 17.45 23.35 17.65 21.8 18.25 21.1 L19.85 19.85 20.2 19.8 21.9 19.55 23.5 19.9 23.25 20.0 23.05 19.95 20.2 20.0 19.85 20.15 18.85 20.8 Q18.15 21.45 17.85 22.45 17.4 24.05 18.25 25.55 L18.85 26.4 19.1 26.7 19.25 26.95 Q19.5 27.1 19.45 26.35 L19.4 26.25 19.65 24.9 19.85 24.25 Q20.5 22.9 21.4 21.7 L22.75 20.45 Q23.25 20.1 23.8 19.95 24.1 19.95 24.75 20.4 26.05 21.8 25.9 21.15 L26.35 21.9 26.9 23.15 Q26.8 23.85 26.45 23.35 26.2 22.25 25.5 21.35 24.65 20.3 23.9 20.1 23.1 20.25 22.15 21.05 20.85 22.45 19.95 24.35 19.65 25.15 19.6 26.15 L19.7 27.4 Q19.65 27.65 19.35 27.5 L18.9 27.15 18.3 26.5 18.15 26.25 M21.05 28.25 L20.4 27.95 20.15 27.8 Q20.0 27.55 20.4 27.5 L20.55 27.55 20.8 27.6 24.05 27.45 Q25.65 26.75 26.1 25.15 L26.15 24.9 Q26.3 24.1 26.55 24.15 26.85 24.4 26.35 25.7 25.7 27.1 24.35 27.75 23.3 28.3 21.05 28.25" fill="#ffde4f" fill-rule="evenodd" stroke="none"/>
      <path d="M17.15 24.3 Q17.6 25.45 18.15 26.25 L18.3 26.5 18.9 27.15 19.35 27.5 Q19.65 27.65 19.7 27.4 L19.6 26.15 Q19.65 25.15 19.95 24.35 20.85 22.45 22.15 21.05 23.1 20.25 23.9 20.1 24.65 20.3 25.5 21.35 26.2 22.25 26.45 23.35 26.8 23.85 26.9 23.15 27.25 24.35 26.9 25.55 26.35 27.4 24.55 28.2 L20.8 28.4 20.25 28.25 19.35 27.75 Q18.65 27.25 18.1 26.55 L17.8 26.0 Q17.3 25.15 17.15 24.3 M26.25 24.0 Q26.2 23.0 25.65 22.0 L25.4 21.7 Q24.85 20.85 23.95 20.35 23.2 20.5 22.45 21.15 L21.6 22.15 21.1 22.85 20.6 23.75 Q19.9 25.2 19.75 26.15 L19.75 26.55 Q19.8 27.0 20.0 27.3 L20.4 27.5 Q20.0 27.55 20.15 27.8 L20.4 27.95 21.05 28.25 23.05 28.35 Q24.8 28.0 25.95 26.7 26.7 25.55 26.75 24.45 26.65 23.55 26.25 24.0" fill="#f4a33c" fill-rule="evenodd" stroke="none"/>
      <path d="M17.15 24.3 Q17.05 23.35 17.35 22.4 17.85 20.55 19.65 19.7 L20.25 19.45 23.4 19.5 Q24.9 20.0 25.9 21.15 26.05 21.8 24.75 20.4 24.1 19.95 23.8 19.95 23.25 20.1 22.75 20.45 L21.4 21.7 Q20.5 22.9 19.85 24.25 L19.65 24.9 19.4 26.25 19.45 26.35 Q19.5 27.1 19.25 26.95 L19.1 26.7 19.05 26.3 19.05 26.0 Q19.1 25.1 19.7 23.75 L19.8 23.5 19.85 23.35 21.15 21.45 Q22.2 20.2 23.25 20.0 L23.5 19.9 21.9 19.55 20.2 19.8 19.85 19.85 18.25 21.1 Q17.65 21.8 17.45 23.35 17.45 24.85 18.15 26.25 17.6 25.45 17.15 24.3 M26.25 24.0 Q26.65 23.55 26.75 24.45 26.7 25.55 25.95 26.7 24.8 28.0 23.05 28.35 L21.05 28.25 Q23.3 28.3 24.35 27.75 25.7 27.1 26.35 25.7 26.85 24.4 26.55 24.15 26.3 24.1 26.15 24.9 L26.25 24.0" fill="#ffff98" fill-rule="evenodd" stroke="none"/>
      <path d="M25.9 21.15 Q24.9 20.0 23.4 19.5 L20.25 19.45 19.65 19.7 Q17.85 20.55 17.35 22.4 17.05 23.35 17.15 24.3 17.3 25.15 17.8 26.0 L18.1 26.55 Q18.65 27.25 19.35 27.75 L20.25 28.25 20.8 28.4 24.55 28.2 Q26.35 27.4 26.9 25.55 27.25 24.35 26.9 23.15 L26.35 21.9 25.9 21.15 M23.25 20.0 Q22.2 20.2 21.15 21.45 L19.85 23.35 19.8 23.5 19.7 23.75 Q19.1 25.1 19.05 26.0 L19.05 26.3 19.1 26.7 19.25 26.95 M25.4 21.7 L25.65 22.0 Q26.2 23.0 26.25 24.0 L26.15 24.9 26.1 25.15 Q25.65 26.75 24.05 27.45 L20.8 27.6 20.55 27.55 20.4 27.5 20.0 27.3 Q19.8 27.0 19.75 26.55 L19.75 26.15 Q19.9 25.2 20.6 23.75 L21.1 22.85 21.6 22.15 22.45 21.15 Q23.2 20.5 23.95 20.35 24.85 20.85 25.4 21.7 M18.85 20.8 L19.85 20.15 20.2 20.0 23.05 19.95 23.25 20.0 M19.1 26.7 L18.85 26.4 18.25 25.55 Q17.4 24.05 17.85 22.45 18.15 21.45 18.85 20.8" fill="none" stroke="#000000" stroke-linecap="round" stroke-linejoin="round" stroke-opacity="0.3019608" stroke-width="0.30000000000000004"/>
      <path d="M38.05 8.6 L37.9 8.15 38.0 7.5 Q38.1 7.25 38.35 7.15 L39.35 6.95 Q40.3 7.05 41.1 7.5 41.9 7.9 42.45 9.15 43.0 10.3 42.8 11.05 42.6 11.85 41.8 11.55 41.15 11.45 40.4 10.95 L40.0 10.65 38.25 9.0 38.05 8.6 M34.05 6.55 L32.0 6.45 30.3 6.0 29.85 5.55 29.85 5.2 30.25 4.9 31.25 4.55 Q32.4 4.3 33.2 4.55 L34.65 5.15 Q35.3 5.55 35.1 6.05 34.95 6.45 34.05 6.55" fill="#cac960" fill-rule="evenodd" stroke="none"/>
      <path d="M40.4 10.95 L40.2 11.2 Q38.8 10.35 38.05 8.6 L38.25 9.0 40.0 10.65 40.4 10.95" fill="#ffffff" fill-rule="evenodd" stroke="none"/>
      <path d="M39.45 9.0 Q38.25 7.9 38.4 7.3 L38.6 7.05 39.45 6.9 Q40.3 7.05 41.0 7.5 L41.55 7.9 Q42.55 9.5 41.1 9.7 L40.7 9.6 Q40.1 9.45 39.45 9.0" fill="#ffde4f" fill-rule="evenodd" stroke="none"/>
      <path d="M41.1 9.7 Q42.3 9.75 42.05 8.65 L42.25 8.9 Q42.85 9.95 42.6 10.5 42.35 11.05 41.65 10.85 40.95 10.7 40.05 10.0 L38.6 8.55 38.3 7.9 39.45 9.0 Q40.1 9.45 40.7 9.6 L41.1 9.7" fill="#f4a33c" fill-rule="evenodd" stroke="none"/>
      <path d="M42.95 10.8 Q42.65 11.45 41.85 11.25 41.05 11.05 40.0 10.3 38.95 9.55 38.35 8.65 L37.9 7.85 38.0 7.15 38.35 6.8 39.35 6.65 Q40.3 6.8 41.1 7.2 41.95 7.65 42.6 8.9 43.25 10.1 42.95 10.8 M39.45 9.0 L38.3 7.9 38.6 8.55 40.05 10.0 Q40.95 10.7 41.65 10.85 42.35 11.05 42.6 10.5 42.85 9.95 42.25 8.9 L42.05 8.65 Q42.3 9.75 41.1 9.7 42.55 9.5 41.55 7.9 L41.0 7.5 Q40.3 7.05 39.45 6.9 L38.6 7.05 38.4 7.3 Q38.25 7.9 39.45 9.0" fill="#ffff98" fill-rule="evenodd" stroke="none"/>
      <path d="M42.95 10.8 Q42.65 11.45 41.85 11.25 41.05 11.05 40.0 10.3 38.95 9.55 38.35 8.65 L37.9 7.85 38.0 7.15 38.35 6.8 39.35 6.65 Q40.3 6.8 41.1 7.2 41.95 7.65 42.6 8.9 43.25 10.1 42.95 10.8 Z" fill="none" stroke="#000000" stroke-linecap="round" stroke-linejoin="round" stroke-opacity="0.3019608" stroke-width="0.30000000000000004"/>
      <path d="M31.95 5.65 L30.3 5.25 30.3 5.2 30.25 5.0 30.55 4.75 31.4 4.5 Q32.35 4.35 32.95 4.5 L33.35 4.6 Q34.0 5.15 33.7 5.4 L33.55 5.45 32.25 5.7 31.95 5.65" fill="#ffde4f" fill-rule="evenodd" stroke="none"/>
      <path d="M33.7 5.4 Q34.0 5.15 33.35 4.6 L32.95 4.5 Q32.35 4.35 31.4 4.5 L30.55 4.75 30.25 5.0 30.3 5.2 30.3 5.25 31.95 5.65 31.05 5.65 32.1 5.85 33.85 5.9 Q34.6 5.9 34.7 5.6 34.85 5.25 34.25 4.95 L33.65 4.75 Q34.1 5.15 33.7 5.4 M35.1 5.7 Q35.0 6.15 34.05 6.25 L32.0 6.1 30.3 5.65 29.85 5.2 29.9 4.9 30.25 4.6 31.25 4.25 Q32.4 4.0 33.2 4.25 L34.65 4.85 Q35.3 5.25 35.1 5.7" fill="#ffff98" fill-rule="evenodd" stroke="none"/>
      <path d="M31.95 5.65 L32.25 5.7 33.55 5.45 33.7 5.4 Q34.1 5.15 33.65 4.75 L34.25 4.95 Q34.85 5.25 34.7 5.6 34.6 5.9 33.85 5.9 L32.1 5.85 31.05 5.65 31.95 5.65" fill="#f4a33c" fill-rule="evenodd" stroke="none"/>
      <path d="M35.1 5.7 Q35.3 5.25 34.65 4.85 L33.2 4.25 Q32.4 4.0 31.25 4.25 L30.25 4.6 29.9 4.9 29.85 5.2 30.3 5.65 32.0 6.1 34.05 6.25 Q35.0 6.15 35.1 5.7 Z" fill="none" stroke="#000000" stroke-linecap="round" stroke-linejoin="round" stroke-opacity="0.3019608" stroke-width="0.30000000000000004"/>
      <path d="M37.65 11.05 L38.45 12.4 38.55 12.65 Q39.1 14.8 37.5 15.9 36.1 16.9 33.95 14.95 31.75 12.25 28.2 11.5 26.0 11.1 25.8 10.0 L26.05 9.2 26.3 8.6 Q27.25 6.9 29.6 6.85 L32.45 7.45 Q35.1 8.25 36.7 9.9 L37.65 11.05" fill="#a6a637" fill-rule="evenodd" stroke="none"/>
      <path d="M37.75 12.95 Q37.8 11.95 37.35 11.05 37.25 10.55 37.6 10.55 L38.35 11.9 Q38.45 13.65 37.55 14.6 36.2 15.9 34.6 14.45 L33.85 13.8 Q33.9 13.5 34.8 14.05 L36.6 14.7 Q37.3 14.55 37.55 13.75 L37.75 12.95 M36.7 9.4 Q36.7 9.9 36.3 9.8 L35.1 8.9 Q33.05 7.65 31.1 7.15 32.8 7.35 32.4 6.95 35.0 7.75 36.7 9.4 M26.9 8.45 L26.95 9.1 Q27.1 9.6 27.9 9.95 L28.95 10.35 29.05 10.35 29.45 10.45 29.55 10.5 Q30.75 10.85 31.8 11.5 31.1 11.3 31.3 11.75 L31.25 11.7 Q29.6 10.75 27.95 10.4 25.7 9.9 26.0 8.75 L26.25 8.15 Q26.05 8.9 26.9 8.45" fill="#ffde4f" fill-rule="evenodd" stroke="none"/>
      <path d="M34.9 13.85 L34.05 13.2 Q33.85 12.9 34.85 12.3 34.05 12.75 33.0 12.3 L31.8 11.5 Q30.75 10.85 29.55 10.5 L29.45 10.45 Q29.1 10.25 29.2 9.45 L28.95 10.35 27.9 9.95 Q27.45 9.1 27.85 8.3 29.35 8.3 30.75 8.95 34.65 10.25 37.25 13.4 36.85 14.4 34.9 13.85 M30.65 8.35 Q30.95 8.25 31.2 8.1 34.05 8.95 36.25 11.1 L37.1 12.75 Q35.55 11.05 33.55 9.85 29.35 7.85 27.9 8.0 28.15 7.6 29.25 7.7 L30.7 7.95 30.65 8.35" fill="#ffffff" fill-rule="evenodd" stroke="none"/>
      <path d="M37.75 12.95 L37.55 13.75 37.25 13.4 37.55 13.75 37.0 14.2 Q36.2 14.65 34.9 13.85 36.85 14.4 37.25 13.4 34.65 10.25 30.75 8.95 29.35 8.3 27.85 8.3 L27.25 8.3 27.85 8.3 Q27.45 9.1 27.9 9.95 27.1 9.6 26.95 9.1 L27.25 8.3 Q27.8 7.05 29.8 7.25 35.6 8.5 37.4 11.9 L37.75 12.95 M34.05 13.2 L33.8 13.05 33.55 12.75 33.0 12.3 Q34.05 12.75 34.85 12.3 33.85 12.9 34.05 13.2 M30.65 8.35 L30.7 7.95 29.25 7.7 Q28.15 7.6 27.9 8.0 29.35 7.85 33.55 9.85 35.55 11.05 37.1 12.75 L36.25 11.1 Q34.05 8.95 31.2 8.1 30.95 8.25 30.65 8.35 M28.95 10.35 L29.2 9.45 Q29.1 10.25 29.45 10.45 L29.05 10.35 28.95 10.35" fill="#f0f0d2" fill-rule="evenodd" stroke="none"/>
      <path d="M37.6 10.55 Q37.25 10.55 37.35 11.05 37.8 11.95 37.75 12.95 L37.4 11.9 Q35.6 8.5 29.8 7.25 27.8 7.05 27.25 8.3 L26.95 9.1 26.9 8.45 Q26.95 7.9 27.65 7.3 28.8 6.7 29.75 6.9 L31.1 7.15 Q33.05 7.65 35.1 8.9 L36.3 9.8 Q36.7 9.9 36.7 9.4 L37.6 10.55 M33.85 13.8 L34.6 14.45 Q36.2 15.9 37.55 14.6 38.45 13.65 38.35 11.9 L38.45 12.2 Q39.1 14.35 37.45 15.4 36.05 16.4 33.85 14.5 31.7 11.8 28.15 11.05 25.9 10.7 25.8 9.55 L26.0 8.75 Q25.7 9.9 27.95 10.4 29.6 10.75 31.25 11.7 L31.3 11.75 32.55 12.55 33.85 13.8" fill="#f4a33c" fill-rule="evenodd" stroke="none"/>
      <path d="M37.55 13.75 Q37.3 14.55 36.6 14.7 L34.8 14.05 Q33.9 13.5 33.85 13.8 L32.55 12.55 31.3 11.75 Q31.1 11.3 31.8 11.5 L33.0 12.3 33.55 12.75 33.8 13.05 34.05 13.2 34.9 13.85 Q36.2 14.65 37.0 14.2 L37.55 13.75 M31.1 7.15 L29.75 6.9 Q28.8 6.7 27.65 7.3 26.95 7.9 26.9 8.45 26.05 8.9 26.25 8.15 27.2 6.4 29.5 6.35 L32.4 6.95 Q32.8 7.35 31.1 7.15" fill="#ffff98" fill-rule="evenodd" stroke="none"/>
      <path d="M37.75 12.95 L37.55 13.75 37.0 14.2 Q36.2 14.65 34.9 13.85 L34.05 13.2 33.8 13.05 33.55 12.75 33.0 12.3 31.8 11.5 Q30.75 10.85 29.55 10.5 L29.45 10.45 29.05 10.35 28.95 10.35 27.9 9.95 Q27.1 9.6 26.95 9.1 L27.25 8.3 Q27.8 7.05 29.8 7.25 35.6 8.5 37.4 11.9 L37.75 12.95 M38.35 11.9 L37.6 10.55 36.7 9.4 Q35.0 7.75 32.4 6.95 L29.5 6.35 Q27.2 6.4 26.25 8.15 L26.0 8.75 25.8 9.55 Q25.9 10.7 28.15 11.05 31.7 11.8 33.85 14.5 36.05 16.4 37.45 15.4 39.1 14.35 38.45 12.2 L38.35 11.9 M37.25 13.4 L37.55 13.75 M27.85 8.3 Q29.35 8.3 30.75 8.95 34.65 10.25 37.25 13.4 M27.25 8.3 L27.85 8.3" fill="none" stroke="#000000" stroke-linecap="round" stroke-linejoin="round" stroke-opacity="0.3019608" stroke-width="0.30000000000000004"/>
      <path d="M35.3 37.75 L32.45 37.65 32.3 36.85 Q32.3 35.65 33.15 34.7 33.9 33.85 35.05 33.7 36.15 34.2 36.4 35.85 L36.35 35.95 Q36.2 36.8 35.55 37.5 L35.45 37.7 35.3 37.75" fill="#ffde4f" fill-rule="evenodd" stroke="none"/>
      <path d="M38.3 36.55 L38.3 36.65 37.95 38.2 Q36.35 39.95 35.5 39.1 35.05 38.3 35.45 37.7 L35.55 37.5 Q36.2 36.8 36.35 35.95 L36.4 35.85 Q37.1 33.55 38.3 36.55" fill="#f4a33c" fill-rule="evenodd" stroke="none"/>
      <path d="M35.6 33.35 Q36.75 33.4 37.65 34.25 38.65 35.2 38.7 36.6 38.75 38.05 37.8 39.1 36.85 40.15 35.4 40.2 34.05 40.25 33.0 39.3 L32.25 38.25 31.9 36.9 Q31.9 35.45 32.8 34.4 33.8 33.4 35.2 33.35 L35.6 33.35 M36.4 35.85 Q36.15 34.2 35.05 33.7 33.9 33.85 33.15 34.7 32.3 35.65 32.3 36.85 L32.45 37.65 35.3 37.75 Q34.5 38.4 33.5 38.5 L32.8 38.4 33.3 39.0 Q34.2 39.85 35.4 39.75 36.65 39.75 37.5 38.85 L37.95 38.2 38.3 36.65 38.3 36.55 Q38.25 35.3 37.35 34.5 36.7 33.95 35.9 33.75 36.35 34.45 36.4 35.3 L36.4 35.85" fill="#ffff98" fill-rule="evenodd" stroke="none"/>
      <path d="M36.4 35.85 L36.4 35.3 Q36.35 34.45 35.9 33.75 36.7 33.95 37.35 34.5 38.25 35.3 38.3 36.55 37.1 33.55 36.4 35.85 M37.95 38.2 L37.5 38.85 Q36.65 39.75 35.4 39.75 34.2 39.85 33.3 39.0 L32.8 38.4 33.5 38.5 Q34.5 38.4 35.3 37.75 L35.45 37.7 Q35.05 38.3 35.5 39.1 36.35 39.95 37.95 38.2" fill="#cc6b22" fill-rule="evenodd" stroke="none"/>
      <path d="M35.6 33.35 Q36.75 33.4 37.65 34.25 38.65 35.2 38.7 36.6 38.75 38.05 37.8 39.1 36.85 40.15 35.4 40.2 34.05 40.25 33.0 39.3 L32.25 38.25 31.9 36.9 Q31.9 35.45 32.8 34.4 33.8 33.4 35.2 33.35 L35.6 33.35 Z" fill="none" stroke="#000000" stroke-linecap="round" stroke-linejoin="round" stroke-opacity="0.3019608" stroke-width="0.30000000000000004"/>
      <path d="M39.65 30.65 L36.8 30.55 36.65 29.75 Q36.65 28.55 37.5 27.6 38.25 26.75 39.4 26.6 40.5 27.1 40.75 28.75 L40.7 28.85 Q40.55 29.7 39.9 30.4 L39.8 30.6 39.65 30.65" fill="#ffde4f" fill-rule="evenodd" stroke="none"/>
      <path d="M42.65 29.45 L42.65 29.55 42.3 31.1 Q40.7 32.85 39.85 32.0 39.4 31.2 39.8 30.6 L39.9 30.4 Q40.55 29.7 40.7 28.85 L40.75 28.75 Q41.45 26.45 42.65 29.45" fill="#f4a33c" fill-rule="evenodd" stroke="none"/>
      <path d="M39.95 26.25 Q41.1 26.3 42.0 27.15 43.0 28.1 43.05 29.5 43.1 30.95 42.15 32.0 41.2 33.05 39.75 33.1 38.4 33.15 37.35 32.2 L36.6 31.15 36.25 29.8 Q36.25 28.35 37.15 27.3 38.15 26.3 39.55 26.25 L39.95 26.25 M40.75 28.75 Q40.5 27.1 39.4 26.6 38.25 26.75 37.5 27.6 36.65 28.55 36.65 29.75 L36.8 30.55 39.65 30.65 Q38.85 31.3 37.85 31.4 L37.15 31.3 37.65 31.9 Q38.55 32.75 39.75 32.65 41.0 32.65 41.85 31.75 L42.3 31.1 42.65 29.55 42.65 29.45 Q42.6 28.2 41.7 27.4 41.05 26.85 40.25 26.65 40.7 27.35 40.75 28.2 L40.75 28.75" fill="#ffff98" fill-rule="evenodd" stroke="none"/>
      <path d="M40.75 28.75 L40.75 28.2 Q40.7 27.35 40.25 26.65 41.05 26.85 41.7 27.4 42.6 28.2 42.65 29.45 41.45 26.45 40.75 28.75 M42.3 31.1 L41.85 31.75 Q41.0 32.65 39.75 32.65 38.55 32.75 37.65 31.9 L37.15 31.3 37.85 31.4 Q38.85 31.3 39.65 30.65 L39.8 30.6 Q39.4 31.2 39.85 32.0 40.7 32.85 42.3 31.1" fill="#cc6b22" fill-rule="evenodd" stroke="none"/>
      <path d="M39.95 26.25 Q41.1 26.3 42.0 27.15 43.0 28.1 43.05 29.5 43.1 30.95 42.15 32.0 41.2 33.05 39.75 33.1 38.4 33.15 37.35 32.2 L36.6 31.15 36.25 29.8 Q36.25 28.35 37.15 27.3 38.15 26.3 39.55 26.25 L39.95 26.25 Z" fill="none" stroke="#000000" stroke-linecap="round" stroke-linejoin="round" stroke-opacity="0.3019608" stroke-width="0.30000000000000004"/>
    </g>
    <g id="sprite1" transform="matrix(1.0, 0.0, 0.0, 1.0, 0.0, 0.0)">
      <use height="26.7" transform="matrix(0.0042, -1.3515, 1.3935, 0.02, 22.09, 56.0263)" width="26.7" xlink:href="#sprite2"/>
      <use height="26.7" transform="matrix(0.0095, -3.0486, 0.372, 0.0053, 36.507, 81.3775)" width="26.7" xlink:href="#sprite2"/>
      <use height="26.7" transform="matrix(3.0486, 0.0095, -0.0053, 0.372, 0.1225, 35.107)" width="26.7" xlink:href="#sprite2"/>
    </g>
    <g id="sprite2" transform="matrix(1.0, 0.0, 0.0, 1.0, 13.35, 13.35)">
      <use height="26.7" transform="matrix(1.0, 0.0, 0.0, 1.0, -13.35, -13.35)" width="26.7" xlink:href="#shape1"/>
    </g>
    <g id="shape1" transform="matrix(1.0, 0.0, 0.0, 1.0, 13.35, 13.35)">
      <path d="M9.3 -9.85 Q13.35 -5.8 13.35 0.0 13.35 5.8 9.3 9.3 5.8 13.35 0.0 13.35 -5.8 13.35 -9.85 9.3 -13.35 5.8 -13.35 0.0 -13.35 -5.8 -9.85 -9.85 -5.8 -13.35 0.0 -13.35 5.8 -13.35 9.3 -9.85" fill="url(#gradient0)" fill-rule="evenodd" stroke="none"/>
    </g>
    <radialGradient cx="0" cy="0" gradientTransform="matrix(0.0213, 0.0, 0.0, 0.0213, 0.0, 0.0)" gradientUnits="userSpaceOnUse" id="gradient0" r="819.2" spreadMethod="pad">
      <stop offset="0.19607843137254902" stop-color="#fee3bc" stop-opacity="0.5568628"/>
      <stop offset="0.5019607843137255" stop-color="#fee3bc" stop-opacity="0.08627451"/>
      <stop offset="0.7607843137254902" stop-color="#ffe3bd" stop-opacity="0.0"/>
    </radialGradient>
  </defs>
</svg>
