<?xml version="1.0" encoding="UTF-8" standalone="no"?>
<svg xmlns:xlink="http://www.w3.org/1999/xlink" height="52.0px" width="52.0px" xmlns="http://www.w3.org/2000/svg">
  <g transform="matrix(1.0, 0.0, 0.0, 1.0, 0.0, 0.0)">
    <use height="160.0" transform="matrix(1.0, 0.0, 0.0, 1.0, -54.0, -54.0)" width="160.0" xlink:href="#shape0"/>
    <use height="0.0" transform="matrix(0.0922, 0.0, -0.0459, 0.1073, 24.3, 29.7)" width="0.0" xlink:href="#sprite0"/>
    <use height="0.0" transform="matrix(0.0922, 0.0, -0.0296, 0.0694, 28.15, 14.45)" width="0.0" xlink:href="#sprite0"/>
    <use height="0.0" transform="matrix(-0.026, 0.0, 0.025, 0.0585, 37.8, 23.75)" width="0.0" xlink:href="#sprite0"/>
    <use height="0.0" transform="matrix(0.0251, 0.0067, -0.0327, 0.0416, 18.65, 20.95)" width="0.0" xlink:href="#sprite0"/>
    <use height="0.0" transform="matrix(0.0081, 0.0301, -0.1565, -0.0377, 24.3, 40.45)" width="0.0" xlink:href="#sprite0"/>
    <use height="0.0" transform="matrix(0.0159, 0.0, -0.0189, 0.0441, 32.65, 7.55)" width="0.0" xlink:href="#sprite0"/>
    <use height="0.0" transform="matrix(0.0162, -0.0094, 0.0045, 0.0378, 29.5, 8.05)" width="0.0" xlink:href="#sprite0"/>
    <use height="81.5" transform="matrix(0.1031, 0.0, 0.0, 0.102, 25.4, 35.5)" width="81.5" xlink:href="#sprite1"/>
    <use height="81.5" transform="matrix(0.1031, 0.0, 0.0, 0.102, 28.6, 13.05)" width="81.5" xlink:href="#sprite1"/>
  </g>
  <defs>
    <g id="shape0" transform="matrix(1.0, 0.0, 0.0, 1.0, 54.0, 54.0)">
      <path d="M52.0 0.0 L52.0 52.0 0.0 52.0 0.0 0.0 52.0 0.0" fill="#795fa9" fill-opacity="0.0" fill-rule="evenodd" stroke="none"/>
      <path d="M30.2 5.6 Q30.75 6.55 31.05 8.1 L31.35 7.45 32.05 6.25 Q32.9 5.0 34.0 4.35 L34.5 4.1 Q35.75 5.85 34.45 9.75 L36.2 9.0 36.1 10.1 35.95 10.6 35.9 10.75 35.75 11.0 Q36.8 10.35 38.2 10.4 L38.0 11.45 37.1 13.05 36.25 13.95 Q37.75 16.05 37.75 18.8 L37.7 19.6 38.2 20.2 38.85 21.1 39.85 22.65 40.25 23.45 40.75 24.8 40.9 26.3 40.75 26.95 Q40.1 28.85 37.5 29.1 L37.45 29.1 36.85 29.15 Q34.9 28.7 33.55 26.15 L32.75 26.6 32.8 26.75 33.95 33.2 34.45 33.7 34.7 35.05 34.7 35.85 34.55 36.1 34.4 35.3 34.35 35.2 35.8 43.25 35.85 43.7 Q35.65 44.7 32.05 44.5 L31.8 44.5 29.15 44.25 28.75 44.75 26.35 47.65 Q25.5 48.4 25.2 47.95 L25.05 47.4 Q24.95 45.5 25.0 43.45 L22.7 42.9 22.4 42.8 20.25 42.2 20.0 42.7 18.2 46.1 Q17.6 47.0 17.2 46.6 L16.9 46.05 Q16.2 43.5 15.75 40.6 L13.85 39.75 Q10.3 38.05 10.5 37.0 L10.75 36.65 16.45 30.35 16.35 30.4 15.75 31.1 15.85 30.6 16.25 30.1 17.1 29.15 Q17.3 28.95 17.8 28.9 L20.4 26.05 Q18.85 26.75 17.85 26.45 L17.35 26.15 17.25 26.1 Q15.1 24.7 15.3 22.65 L15.4 22.0 16.15 20.7 17.1 19.65 17.8 19.15 19.3 18.2 20.3 17.65 20.45 17.6 20.75 17.45 20.8 17.25 20.75 17.1 20.75 17.0 20.75 16.85 20.7 16.65 20.7 16.6 Q20.65 15.9 21.1 15.0 21.5 14.05 22.25 13.4 22.6 13.1 22.9 13.0 L22.95 12.95 23.15 12.75 Q24.05 11.9 25.05 11.3 L24.9 10.95 Q24.55 9.65 25.55 8.4 L26.7 9.0 27.5 9.8 27.5 9.65 Q27.5 8.35 27.85 7.1 28.25 5.7 29.15 4.45 L30.2 5.6 M35.2 24.95 L35.4 24.7 35.7 24.35 36.8 25.1 36.15 23.8 35.25 24.85 35.1 24.95 34.6 25.45 35.2 24.95 M21.1 21.55 L21.1 21.5 19.5 22.8 21.3 22.1 21.2 21.9 21.1 21.55 M17.8 28.9 L18.0 28.85 18.4 28.8 19.75 28.85 20.3 28.85 24.9 29.65 26.05 29.95 26.15 30.0 26.3 30.0 27.1 30.25 27.95 30.5 28.5 30.65 29.9 31.15 30.4 31.35 32.15 32.1 32.65 32.35 32.8 32.45 33.05 32.6 33.95 33.2 34.35 35.2 33.1 34.25 32.7 34.1 32.55 34.0 32.15 33.8 Q31.3 33.35 30.3 32.95 L29.0 32.45 28.2 32.2 27.55 32.0 27.2 31.9 25.75 31.45 25.65 31.45 25.5 31.4 24.55 31.15 19.6 30.3 18.9 30.2 17.5 30.2 17.25 30.2 17.15 30.25 16.45 30.35 17.8 28.9" fill="none" stroke="#000000" stroke-linecap="round" stroke-linejoin="round" stroke-opacity="0.3019608" stroke-width="1.0"/>
      <path d="M34.0 10.75 L34.1 10.75 34.0 11.0 34.0 10.75" fill="#e37302" fill-rule="evenodd" stroke="none"/>
      <path d="M27.85 7.1 Q28.25 5.7 29.15 4.45 L30.2 5.6 30.4 7.3 Q29.75 5.15 29.15 4.85 28.3 6.7 28.3 7.45 28.15 8.85 28.35 9.75 L28.75 10.7 29.6 9.9 30.35 8.65 29.9 9.95 28.75 11.1 Q28.15 10.8 27.95 9.7 27.75 8.75 27.85 7.1 M32.05 6.25 Q32.9 5.0 34.0 4.35 L34.5 4.1 Q34.65 6.5 34.2 8.05 34.45 5.5 34.05 4.8 33.05 5.2 32.45 6.65 31.75 8.8 31.9 10.15 L31.9 10.35 32.3 10.2 Q33.1 9.8 34.0 8.6 L33.3 9.75 32.8 10.25 31.65 10.95 31.55 10.1 Q31.5 8.65 32.05 6.25 M35.35 9.35 L36.2 9.0 36.1 10.1 35.7 10.55 Q35.05 11.15 34.65 11.2 L35.35 10.55 Q35.9 9.9 35.75 9.5 L34.95 9.8 35.35 9.35" fill="#e37302" fill-rule="evenodd" stroke="none"/>
      <path d="M30.2 5.6 Q30.75 6.55 31.05 8.1 L31.25 9.25 31.05 11.95 27.75 11.8 27.5 9.65 Q27.5 8.35 27.85 7.1 27.75 8.75 27.95 9.7 28.15 10.8 28.75 11.1 L29.9 9.95 30.35 8.65 30.4 7.3 30.2 5.6 M34.5 4.1 Q35.75 5.85 34.45 9.75 L34.25 10.4 34.1 10.75 34.0 11.0 33.6 12.1 32.0 12.0 31.65 10.95 32.8 10.25 33.3 9.75 34.0 8.6 34.2 8.05 Q34.65 6.5 34.5 4.1 M36.1 10.1 L35.95 10.6 35.9 10.75 34.5 12.85 34.15 12.55 34.3 11.1 34.65 11.2 Q35.05 11.15 35.7 10.55 L36.1 10.1" fill="#6c2206" fill-rule="evenodd" stroke="none"/>
      <path d="M31.05 8.1 L31.35 7.45 32.05 6.25 Q31.5 8.65 31.55 10.1 L31.65 10.95 32.0 12.0 31.05 11.95 31.25 9.25 31.05 8.1 M34.45 9.75 L35.35 9.35 34.95 9.8 Q34.65 10.15 34.5 10.45 L34.3 11.1 34.15 12.55 33.6 12.1 34.0 11.0 34.1 10.75 34.25 10.4 34.45 9.75" fill="#560000" fill-rule="evenodd" stroke="none"/>
      <path d="M30.35 8.65 L29.6 9.9 28.75 10.7 28.35 9.75 Q28.15 8.85 28.3 7.45 28.3 6.7 29.15 4.85 29.75 5.15 30.4 7.3 L30.35 8.65 M34.2 8.05 L34.0 8.6 Q33.1 9.8 32.3 10.2 L31.9 10.35 31.9 10.15 Q31.75 8.8 32.45 6.65 33.05 5.2 34.05 4.8 34.45 5.5 34.2 8.05 M34.95 9.8 L35.75 9.5 Q35.9 9.9 35.35 10.55 L34.65 11.2 34.3 11.1 34.5 10.45 Q34.65 10.15 34.95 9.8" fill="#ba5e01" fill-rule="evenodd" stroke="none"/>
      <path d="M27.85 7.1 Q28.25 5.7 29.15 4.45 L30.2 5.6 Q30.75 6.55 31.05 8.1 L31.35 7.45 32.05 6.25 Q32.9 5.0 34.0 4.35 L34.5 4.1 Q35.75 5.85 34.45 9.75 L35.35 9.35 36.2 9.0 36.1 10.1 35.95 10.6 35.9 10.75 34.5 12.85 34.15 12.55 33.6 12.1 32.0 12.0 31.05 11.95 27.75 11.8 27.5 9.65 Q27.5 8.35 27.85 7.1 M34.45 9.75 L34.25 10.4 34.1 10.75 34.0 11.0 33.6 12.1 M31.05 8.1 L31.25 9.25" fill="none" stroke="#000000" stroke-linecap="round" stroke-linejoin="round" stroke-opacity="0.3019608" stroke-width="0.30000000000000004"/>
      <path d="M30.25 9.0 L30.3 9.8 30.3 9.85 Q30.35 11.35 29.7 11.6 29.05 11.85 28.65 10.6 28.45 9.2 29.3 7.75 L30.15 8.45 30.2 8.65 30.25 9.0 M30.05 10.6 L30.15 9.8 Q30.15 8.8 29.8 8.35 L29.4 8.1 Q29.05 8.5 28.9 9.65 28.95 11.2 29.4 11.3 L30.05 10.6" fill="#e37302" fill-rule="evenodd" stroke="none"/>
      <path d="M28.65 10.6 Q29.05 11.85 29.7 11.6 30.35 11.35 30.3 9.85 L30.3 9.8 30.25 9.0 30.75 9.95 31.3 12.35 29.55 12.7 Q28.8 11.65 28.65 10.6" fill="#6c2206" fill-rule="evenodd" stroke="none"/>
      <path d="M30.25 9.0 L30.2 8.65 30.15 8.45 Q30.7 9.05 31.05 10.0 L31.65 12.3 31.3 12.35 30.75 9.95 30.25 9.0 M30.05 10.6 L29.4 11.3 Q28.95 11.2 28.9 9.65 29.05 8.5 29.4 8.1 L29.8 8.35 Q30.15 8.8 30.15 9.8 L30.05 10.6" fill="#ba5e01" fill-rule="evenodd" stroke="none"/>
      <path d="M30.15 8.45 L29.3 7.75 Q28.45 9.2 28.65 10.6 28.8 11.65 29.55 12.7 L31.3 12.35 31.65 12.3 31.05 10.0 Q30.7 9.05 30.15 8.45 Z" fill="none" stroke="#000000" stroke-linecap="round" stroke-linejoin="round" stroke-opacity="0.3019608" stroke-width="0.30000000000000004"/>
      <path d="M24.9 10.95 Q24.55 9.65 25.55 8.4 L26.7 9.0 26.75 9.2 26.85 9.5 27.0 10.25 27.0 10.3 Q27.15 11.6 26.35 11.85 25.5 12.05 24.9 10.95 M26.2 8.95 L25.7 8.7 Q25.3 9.05 25.2 10.1 25.35 11.5 25.95 11.6 26.4 11.6 26.75 10.95 L26.75 10.25 Q26.75 9.3 26.2 8.95" fill="#e37302" fill-rule="evenodd" stroke="none"/>
      <path d="M24.9 10.95 Q25.5 12.05 26.35 11.85 27.15 11.6 27.0 10.3 L27.0 10.25 26.85 9.5 27.55 10.35 Q28.15 11.25 28.45 12.55 L26.2 12.85 Q25.2 11.9 24.9 10.95" fill="#6c2206" fill-rule="evenodd" stroke="none"/>
      <path d="M26.85 9.5 L26.75 9.2 26.7 9.0 Q27.4 9.55 27.95 10.4 28.5 11.3 28.85 12.5 L28.45 12.55 Q28.15 11.25 27.55 10.35 L26.85 9.5 M26.2 8.95 Q26.75 9.3 26.75 10.25 L26.75 10.95 Q26.4 11.6 25.95 11.6 25.35 11.5 25.2 10.1 25.3 9.05 25.7 8.7 L26.2 8.95" fill="#ba5e01" fill-rule="evenodd" stroke="none"/>
      <path d="M26.7 9.0 L25.55 8.4 Q24.55 9.65 24.9 10.95 25.2 11.9 26.2 12.85 L28.45 12.55 28.85 12.5 Q28.5 11.3 27.95 10.4 27.4 9.55 26.7 9.0 Z" fill="none" stroke="#000000" stroke-linecap="round" stroke-linejoin="round" stroke-opacity="0.3019608" stroke-width="0.30000000000000004"/>
      <path d="M38.0 11.45 L37.85 11.6 37.55 11.85 36.9 12.3 36.85 12.3 Q35.6 13.1 35.0 12.65 34.5 12.2 35.4 11.25 36.5 10.35 38.2 10.4 L38.0 11.45 M37.9 11.15 L37.95 10.65 Q37.45 10.55 36.35 11.0 35.05 11.8 35.15 12.3 L36.1 12.45 36.8 12.15 37.9 11.15" fill="#e37302" fill-rule="evenodd" stroke="none"/>
      <path d="M35.4 11.25 Q34.5 12.2 35.0 12.65 35.6 13.1 36.85 12.3 L36.9 12.3 37.55 11.85 37.05 12.75 35.2 14.45 34.0 13.05 Q34.55 11.9 35.4 11.25" fill="#6c2206" fill-rule="evenodd" stroke="none"/>
      <path d="M37.55 11.85 L37.85 11.6 38.0 11.45 37.1 13.05 35.4 14.7 35.2 14.45 37.05 12.75 37.55 11.85 M37.9 11.15 L36.8 12.15 36.1 12.45 35.15 12.3 Q35.05 11.8 36.35 11.0 37.45 10.55 37.95 10.65 L37.9 11.15" fill="#ba5e01" fill-rule="evenodd" stroke="none"/>
      <path d="M38.0 11.45 L38.2 10.4 Q36.5 10.35 35.4 11.25 34.55 11.9 34.0 13.05 L35.2 14.45 35.4 14.7 37.1 13.05 38.0 11.45 Z" fill="none" stroke="#000000" stroke-linecap="round" stroke-linejoin="round" stroke-opacity="0.3019608" stroke-width="0.30000000000000004"/>
      <path d="M20.45 17.6 L20.45 18.95 Q20.8 20.4 21.45 20.6 L20.25 21.5 19.6 21.85 Q17.45 21.6 17.1 19.65 L17.8 19.15 19.3 18.2 20.3 17.65 20.45 17.6 M17.25 26.1 Q15.1 24.7 15.3 22.65 L15.7 23.55 Q16.35 24.7 17.2 24.9 16.95 25.6 17.25 26.1" fill="#ffde4f" fill-rule="evenodd" stroke="none"/>
      <path d="M20.45 17.6 L21.45 17.1 Q22.45 16.6 22.6 19.9 L21.45 20.6 Q20.8 20.4 20.45 18.95 L20.45 17.6 M15.3 22.65 L15.4 22.0 16.15 20.7 Q18.25 21.35 17.9 23.65 L17.6 24.05 Q17.0 25.0 15.7 23.55 L15.3 22.65" fill="#f4a33c" fill-rule="evenodd" stroke="none"/>
      <path d="M21.45 20.6 L22.6 19.9 22.6 20.25 19.5 22.8 19.2 23.05 18.6 23.7 Q17.2 25.3 17.75 25.85 L17.85 25.95 20.2 25.75 21.0 25.25 22.8 23.85 23.05 24.4 Q19.65 26.95 17.85 26.45 L17.35 26.15 17.25 26.1 Q16.95 25.6 17.2 24.9 16.35 24.7 15.7 23.55 17.0 25.0 17.6 24.05 L17.9 23.65 Q18.25 21.35 16.15 20.7 L17.1 19.65 Q17.45 21.6 19.6 21.85 L20.25 21.5 21.45 20.6" fill="#ffff98" fill-rule="evenodd" stroke="none"/>
      <path d="M20.2 25.75 L19.0 24.9 Q18.65 24.4 18.6 23.7 L19.2 23.05 20.35 23.9 Q20.9 24.45 21.0 25.25 L20.2 25.75" fill="#cc6b22" fill-rule="evenodd" stroke="none"/>
      <path d="M19.5 22.8 L21.9 21.85 22.8 23.85 21.0 25.25 Q20.9 24.45 20.35 23.9 L19.2 23.05 19.5 22.8 M18.6 23.7 Q18.65 24.4 19.0 24.9 L20.2 25.75 17.85 25.95 17.75 25.85 Q17.2 25.3 18.6 23.7" fill="#a34100" fill-rule="evenodd" stroke="none"/>
      <path d="M22.6 19.9 Q22.45 16.6 21.45 17.1 L20.45 17.6 20.3 17.65 19.3 18.2 17.8 19.15 17.1 19.65 16.15 20.7 15.4 22.0 15.3 22.65 Q15.1 24.7 17.25 26.1 L17.35 26.15 17.85 26.45 Q19.65 26.95 23.05 24.4 M22.6 19.9 L22.6 20.25 19.5 22.8 21.9 21.85 M19.2 23.05 L19.5 22.8 M19.2 23.05 L18.6 23.7 Q17.2 25.3 17.75 25.85 L17.85 25.95" fill="none" stroke="#000000" stroke-linecap="round" stroke-linejoin="round" stroke-opacity="0.3019608" stroke-width="0.30000000000000004"/>
      <path d="M20.65 18.95 L20.65 18.8 Q20.65 15.25 23.15 12.75 25.65 10.25 29.2 10.25 L32.05 10.7 Q34.6 12.05 35.05 13.7 L35.2 14.05 Q36.15 16.95 34.0 20.6 L33.2 21.55 Q30.75 24.0 27.3 24.05 L27.15 24.05 Q23.9 23.7 22.25 22.0 21.05 20.8 20.65 18.95 M35.5 13.05 L36.0 13.6 Q37.75 15.8 37.75 18.8 37.75 20.2 37.35 21.5 L36.7 21.5 Q37.2 20.2 37.3 18.65 37.05 15.5 35.85 14.25 L35.75 13.75 35.7 13.7 35.5 13.05 M35.25 24.85 L35.1 24.95 Q32.65 27.35 29.2 27.35 25.65 27.35 23.15 24.85 22.1 23.75 21.5 22.5 L21.2 21.9 21.45 22.15 21.7 22.35 22.1 22.7 22.35 22.95 Q22.7 23.9 24.05 25.0 27.95 27.65 32.45 26.1 34.35 25.15 35.5 23.65 L35.25 24.85" fill="#e6e4b3" fill-rule="evenodd" stroke="none"/>
      <path d="M35.85 14.25 Q37.05 15.5 37.3 18.65 37.2 20.2 36.7 21.5 L35.05 21.5 Q35.55 22.7 35.5 23.65 34.35 25.15 32.45 26.1 27.95 27.65 24.05 25.0 22.7 23.9 22.35 22.95 24.55 24.65 27.5 24.65 31.05 24.65 33.55 22.15 36.05 19.65 36.05 16.1 L35.85 14.25" fill="#cac960" fill-rule="evenodd" stroke="none"/>
      <path d="M35.3 12.8 L35.5 13.05 35.7 13.7 35.75 13.75 35.85 14.25 36.05 16.1 Q36.05 19.65 33.55 22.15 31.05 24.65 27.5 24.65 24.55 24.65 22.35 22.95 L22.1 22.7 21.7 22.35 21.45 22.15 21.2 21.9 21.1 21.55 21.75 22.15 21.9 22.25 Q24.15 24.05 27.15 24.05 L27.3 24.05 Q30.75 24.0 33.2 21.55 L34.0 20.6 Q35.7 18.45 35.7 15.5 L35.55 13.85 35.4 13.1 35.3 12.8" fill="#ece8c6" fill-rule="evenodd" stroke="none"/>
      <path d="M32.05 10.7 Q33.45 11.2 34.6 12.2 L35.25 12.75 35.3 12.8 35.4 13.1 35.55 13.85 35.7 15.5 Q35.7 18.45 34.0 20.6 36.15 16.95 35.2 14.05 L35.05 13.7 Q34.6 12.05 32.05 10.7 M21.1 21.55 L21.0 21.2 Q20.7 20.15 20.65 18.95 21.05 20.8 22.25 22.0 23.9 23.7 27.15 24.05 24.15 24.05 21.9 22.25 L21.75 22.15 21.1 21.55" fill="#ffffff" fill-rule="evenodd" stroke="none"/>
      <path d="M35.5 23.65 Q35.55 22.7 35.05 21.5 L36.7 21.5 Q36.35 22.65 35.5 23.65" fill="#a6a637" fill-rule="evenodd" stroke="none"/>
      <path d="M37.35 21.5 Q36.75 23.35 35.25 24.85 L35.5 23.65 Q36.35 22.65 36.7 21.5 L37.35 21.5" fill="#c1c146" fill-rule="evenodd" stroke="none"/>
      <path d="M20.65 18.95 L20.65 18.8 Q20.65 15.25 23.15 12.75 25.65 10.25 29.2 10.25 L32.05 10.7 Q33.45 11.2 34.6 12.2 L35.25 12.75 35.3 12.8 35.5 13.05 36.0 13.6 Q37.75 15.8 37.75 18.8 37.75 20.2 37.35 21.5 36.75 23.35 35.25 24.85 L35.1 24.95 Q32.65 27.35 29.2 27.35 25.65 27.35 23.15 24.85 22.1 23.75 21.5 22.5 L21.2 21.9 21.1 21.55 21.0 21.2 Q20.7 20.15 20.65 18.95 Z" fill="none" stroke="#000000" stroke-linecap="round" stroke-linejoin="round" stroke-opacity="0.3019608" stroke-width="0.30000000000000004"/>
      <path d="M22.15 14.6 Q22.9 13.05 24.6 12.05 26.35 11.05 28.05 11.2 29.75 11.35 30.45 12.55 31.15 13.75 30.4 15.3 29.7 16.85 27.95 17.85 26.25 18.85 24.55 18.65 22.85 18.55 22.15 17.35 21.45 16.15 22.15 14.6" fill="#f2efd9" fill-rule="evenodd" stroke="none"/>
      <path d="M24.2 14.15 L24.25 14.1 24.25 14.15 24.35 14.55 Q24.45 15.2 24.15 15.95 L24.0 16.25 23.1 17.65 22.85 17.8 Q22.15 18.45 21.6 18.35 21.05 18.3 20.95 17.7 21.1 17.9 21.4 17.9 22.0 18.0 22.7 17.4 L22.9 17.2 23.8 15.9 23.85 15.8 Q24.3 14.85 24.2 14.15 M29.75 17.65 L30.1 18.15 30.15 18.25 Q30.85 18.9 31.8 18.85 32.55 18.75 33.1 18.25 L33.35 17.95 33.55 17.75 33.85 17.15 34.0 16.15 33.9 15.45 34.15 16.6 34.15 17.2 33.75 18.15 33.55 18.4 33.35 18.65 Q32.75 19.2 31.95 19.25 31.0 19.35 30.35 18.65 L30.25 18.6 29.75 17.65" fill="#ffffff" fill-rule="evenodd" stroke="none"/>
      <path d="M20.95 17.7 L20.75 17.1 20.75 17.05 Q20.7 16.4 21.1 15.55 L21.15 15.45 Q21.55 14.5 22.3 13.85 L22.95 13.45 23.55 13.35 24.05 13.7 24.2 14.05 24.2 14.15 Q24.3 14.85 23.85 15.8 L23.8 15.9 22.9 17.2 22.7 17.4 Q22.0 18.0 21.4 17.9 21.1 17.9 20.95 17.7 M29.75 17.65 Q29.5 17.2 29.5 16.6 L29.45 16.5 Q29.45 15.45 30.1 14.7 30.45 14.3 30.85 14.1 L31.7 13.85 32.75 14.05 33.1 14.3 33.3 14.45 33.9 15.45 34.0 16.15 33.85 17.15 33.55 17.75 33.35 17.95 33.1 18.25 Q32.55 18.75 31.8 18.85 30.85 18.9 30.15 18.25 L30.1 18.15 29.75 17.65" fill="#cac960" fill-rule="evenodd" stroke="none"/>
      <path d="M31.7 13.65 L31.55 13.65 30.95 13.8 Q30.5 14.0 30.15 14.4 29.55 15.1 29.6 16.0 L29.7 16.55 29.9 16.9 30.2 17.25 Q31.2 18.15 32.8 16.9 L32.7 17.05 Q32.05 17.85 31.1 17.9 L30.8 17.9 30.7 17.85 30.7 17.9 30.15 17.75 30.05 17.7 Q29.45 17.05 29.4 16.05 29.4 15.0 30.05 14.25 L30.8 13.65 Q31.2 13.45 31.65 13.4 L32.7 13.6 33.2 14.35 33.25 14.5 33.35 15.25 33.15 16.35 Q33.5 14.05 32.2 13.75 L31.7 13.65" fill="#ffff98" fill-rule="evenodd" stroke="none"/>
      <path d="M29.9 16.9 L29.7 16.55 29.6 16.0 Q29.55 15.1 30.15 14.4 30.5 14.0 30.95 13.8 L31.55 13.65 31.7 13.65 Q33.15 14.1 32.5 16.1 31.7 17.65 29.9 16.9" fill="#ffde4f" fill-rule="evenodd" stroke="none"/>
      <path d="M31.7 13.65 L32.2 13.75 Q33.5 14.05 33.15 16.35 L33.0 16.6 32.8 16.9 Q31.2 18.15 30.2 17.25 L29.9 16.9 Q31.7 17.65 32.5 16.1 33.15 14.1 31.7 13.65 M33.25 14.5 L33.2 14.35 32.7 13.6 33.25 14.0 Q33.95 14.7 33.95 15.7 33.95 16.6 33.5 17.3 L33.3 17.5 Q32.7 18.3 31.75 18.4 30.8 18.45 30.1 17.8 L30.05 17.7 30.15 17.75 30.7 17.9 30.7 17.85 30.8 17.9 31.65 18.05 Q32.45 17.95 33.05 17.3 L33.25 16.95 33.6 15.7 33.25 14.5" fill="#f4a33c" fill-rule="evenodd" stroke="none"/>
      <path d="M33.15 16.35 L33.35 15.25 33.25 14.5 33.6 15.7 33.25 16.95 33.05 17.3 Q32.45 17.95 31.65 18.05 L30.8 17.9 31.1 17.9 Q32.05 17.85 32.7 17.05 L32.8 16.9 33.0 16.6 33.15 16.35" fill="#cc6b22" fill-rule="evenodd" stroke="none"/>
      <path d="M32.7 13.6 L31.65 13.4 Q31.2 13.45 30.8 13.65 L30.05 14.25 Q29.4 15.0 29.4 16.05 29.45 17.05 30.05 17.7 L30.1 17.8 Q30.8 18.45 31.75 18.4 32.7 18.3 33.3 17.5 L33.5 17.3 Q33.95 16.6 33.95 15.7 33.95 14.7 33.25 14.0 L32.7 13.6 Z" fill="none" stroke="#000000" stroke-linecap="round" stroke-linejoin="round" stroke-opacity="0.3019608" stroke-width="0.30000000000000004"/>
      <path d="M23.4 13.15 L23.3 13.15 22.95 13.2 22.2 13.55 Q21.55 14.15 21.15 15.0 L20.95 15.5 20.95 15.85 20.95 16.25 22.6 16.3 22.5 16.4 Q21.75 17.0 21.25 16.95 L21.05 16.9 21.0 16.85 21.0 16.9 20.75 16.65 20.7 16.6 Q20.65 15.9 21.05 15.0 21.5 14.05 22.2 13.45 L22.9 13.0 23.45 12.9 24.0 13.25 23.95 14.05 23.9 14.2 23.65 14.85 23.0 15.85 Q24.25 13.8 23.65 13.3 L23.4 13.15" fill="#ffff98" fill-rule="evenodd" stroke="none"/>
      <path d="M20.95 15.85 L20.95 15.5 21.15 15.0 Q21.55 14.15 22.2 13.55 L22.95 13.2 23.3 13.15 23.4 13.15 Q24.05 13.8 22.85 15.55 21.65 16.8 20.95 15.85" fill="#ffde4f" fill-rule="evenodd" stroke="none"/>
      <path d="M23.4 13.15 L23.65 13.3 Q24.25 13.8 23.0 15.85 L22.85 16.05 22.6 16.3 20.95 16.25 20.95 15.85 Q21.65 16.8 22.85 15.55 24.05 13.8 23.4 13.15 M23.9 14.2 L23.95 14.05 24.0 13.25 24.15 13.7 Q24.25 14.45 23.8 15.35 L22.85 16.75 22.65 16.95 Q21.9 17.55 21.35 17.45 20.8 17.4 20.7 16.65 L20.7 16.6 20.75 16.65 21.0 16.9 21.0 16.85 21.05 16.9 Q21.15 17.15 21.4 17.15 21.95 17.25 22.55 16.65 L22.85 16.4 23.6 15.3 23.9 14.2" fill="#f4a33c" fill-rule="evenodd" stroke="none"/>
      <path d="M23.0 15.85 L23.65 14.85 23.9 14.2 23.6 15.3 22.85 16.4 22.55 16.65 Q21.95 17.25 21.4 17.15 21.15 17.15 21.05 16.9 L21.25 16.95 Q21.75 17.0 22.5 16.4 L22.6 16.3 22.85 16.05 23.0 15.85" fill="#cc6b22" fill-rule="evenodd" stroke="none"/>
      <path d="M24.0 13.25 L23.45 12.9 22.9 13.0 22.2 13.45 Q21.5 14.05 21.05 15.0 20.65 15.9 20.7 16.6 L20.7 16.65 Q20.8 17.4 21.35 17.45 21.9 17.55 22.65 16.95 L22.85 16.75 23.8 15.35 Q24.25 14.45 24.15 13.7 L24.0 13.25 Z" fill="none" stroke="#000000" stroke-linecap="round" stroke-linejoin="round" stroke-opacity="0.3019608" stroke-width="0.30000000000000004"/>
      <path d="M28.15 21.9 L24.35 21.25 23.75 20.8 23.65 20.75 Q27.2 14.75 31.05 10.6 28.75 15.9 28.15 21.9" fill="#cac960" fill-rule="evenodd" stroke="none"/>
      <path d="M28.15 21.9 L25.0 21.55 Q23.55 21.45 23.75 20.8 L24.35 21.25 28.15 21.9" fill="#ffffff" fill-rule="evenodd" stroke="none"/>
      <path d="M24.3 14.05 L24.75 13.4 25.6 12.2 Q26.0 12.9 28.9 12.65 L27.55 14.25 Q26.9 12.9 25.55 13.35 25.0 13.55 24.3 14.05 M31.05 10.6 Q29.25 13.9 28.3 17.1 L28.25 15.15 Q28.15 14.35 27.65 14.75 29.0 12.65 31.05 10.6 M27.65 19.55 L27.4 21.1 26.75 19.85 26.15 18.55 26.15 18.5 26.05 17.9 26.7 16.45 26.7 17.65 Q26.8 19.55 27.65 19.55 M26.5 19.6 Q25.85 20.35 25.0 20.3 24.05 20.3 22.9 19.2 22.8 18.75 22.95 18.55 L25.6 18.75 26.5 19.6" fill="#cc6b22" fill-rule="evenodd" stroke="none"/>
      <path d="M24.3 14.05 Q25.0 13.55 25.55 13.35 26.85 13.05 27.15 14.95 L25.55 17.95 22.45 17.65 Q23.2 15.7 24.3 14.05 M26.3 11.4 L27.25 10.4 31.05 10.6 29.9 11.65 Q26.45 13.3 26.3 11.4" fill="#ffde4f" fill-rule="evenodd" stroke="none"/>
      <path d="M25.55 13.35 Q26.9 12.9 27.55 14.25 L28.9 12.65 29.9 11.65 31.05 10.6 Q29.0 12.65 27.65 14.75 L26.7 16.45 26.05 17.9 26.15 18.5 26.15 18.55 26.75 19.85 26.5 19.6 25.6 18.75 22.95 18.55 Q22.8 18.75 22.9 19.2 L23.35 20.3 22.3 18.65 Q22.3 18.0 22.45 17.65 L25.55 17.95 27.15 14.95 Q26.85 13.05 25.55 13.35" fill="#ffff98" fill-rule="evenodd" stroke="none"/>
      <path d="M28.9 12.65 Q26.0 12.9 25.6 12.2 L26.3 11.4 Q26.45 13.3 29.9 11.65 L28.9 12.65 M28.3 17.1 L27.65 19.55 Q26.8 19.55 26.7 17.65 L26.7 16.45 27.65 14.75 Q28.15 14.35 28.25 15.15 L28.3 17.1" fill="#f4a33c" fill-rule="evenodd" stroke="none"/>
      <path d="M27.4 21.1 L24.8 20.7 23.65 20.8 23.35 20.3 22.9 19.2 Q24.05 20.3 25.0 20.3 25.85 20.35 26.5 19.6 L26.75 19.85 27.4 21.1" fill="#a34100" fill-rule="evenodd" stroke="none"/>
      <path d="M25.6 12.2 L24.75 13.4 24.3 14.05 Q23.2 15.7 22.45 17.65 22.3 18.0 22.3 18.65 L23.35 20.3 23.65 20.8 24.8 20.7 27.4 21.1 27.65 19.55 28.3 17.1 Q29.25 13.9 31.05 10.6 L27.25 10.4 26.3 11.4 25.6 12.2 Z" fill="none" stroke="#000000" stroke-linecap="round" stroke-linejoin="round" stroke-opacity="0.3019608" stroke-width="0.30000000000000004"/>
      <path d="M35.95 22.3 Q35.8 20.8 36.7 20.35 37.6 20.0 38.85 21.1 L39.85 22.65 40.25 23.45 Q39.15 25.0 37.1 24.25 L36.65 23.6 35.95 22.3 M37.5 29.1 Q38.0 28.8 38.05 28.05 38.9 28.25 40.0 27.55 L40.75 26.95 Q40.1 28.85 37.5 29.1" fill="#ffde4f" fill-rule="evenodd" stroke="none"/>
      <path d="M38.85 21.1 Q37.6 20.0 36.7 20.35 35.8 20.8 35.95 22.3 L35.15 21.1 Q36.6 18.2 37.3 19.15 L38.2 20.2 38.85 21.1 M40.0 27.55 Q38.2 28.2 38.0 27.1 L37.9 26.6 Q38.55 24.4 40.75 24.8 L40.9 26.3 40.75 26.95 40.0 27.55" fill="#f4a33c" fill-rule="evenodd" stroke="none"/>
      <path d="M35.15 21.1 L35.95 22.3 36.65 23.6 37.1 24.25 Q39.15 25.0 40.25 23.45 L40.75 24.8 Q38.55 24.4 37.9 26.6 L38.0 27.1 Q38.2 28.2 40.0 27.55 38.9 28.25 38.05 28.05 38.0 28.8 37.5 29.1 L37.45 29.1 36.85 29.15 Q34.9 28.7 33.55 26.15 L34.1 25.8 34.45 26.6 35.0 27.4 Q35.85 28.45 37.05 28.7 L37.2 28.65 Q37.9 28.4 37.25 26.35 L36.95 25.5 36.8 25.1 35.0 21.4 35.15 21.1" fill="#ffff98" fill-rule="evenodd" stroke="none"/>
      <path d="M36.95 25.5 L37.25 26.35 36.4 27.2 35.0 27.4 34.45 26.6 Q34.85 25.95 35.6 25.7 L36.95 25.5" fill="#cc6b22" fill-rule="evenodd" stroke="none"/>
      <path d="M34.1 25.8 L35.2 24.95 35.4 24.7 35.7 24.35 36.8 25.1 36.95 25.5 35.6 25.7 Q34.85 25.95 34.45 26.6 L34.1 25.8 M37.25 26.35 Q37.9 28.4 37.2 28.65 L37.05 28.7 Q35.85 28.45 35.0 27.4 L36.4 27.2 37.25 26.35" fill="#a34100" fill-rule="evenodd" stroke="none"/>
      <path d="M38.85 21.1 L38.2 20.2 37.3 19.15 Q36.6 18.2 35.15 21.1 L35.0 21.4 36.8 25.1 36.95 25.5 37.25 26.35 Q37.9 28.4 37.2 28.65 L37.05 28.7 M40.25 23.45 L39.85 22.65 38.85 21.1 M34.1 25.8 L35.2 24.95 35.4 24.7 35.7 24.35 36.8 25.1 M34.1 25.8 L33.55 26.15 Q34.9 28.7 36.85 29.15 L37.45 29.1 37.5 29.1 Q40.1 28.85 40.75 26.95 L40.9 26.3 40.75 24.8 40.25 23.45" fill="none" stroke="#000000" stroke-linecap="round" stroke-linejoin="round" stroke-opacity="0.3019608" stroke-width="0.30000000000000004"/>
      <path d="M35.1 39.45 Q34.8 39.45 34.65 40.1 33.9 38.25 32.9 37.65 L32.6 33.75 32.95 33.9 34.3 34.95 35.1 39.45 M33.05 28.1 L34.05 33.65 32.75 32.6 32.5 32.45 32.1 28.1 32.65 28.9 Q33.1 28.65 33.05 28.1 M27.85 30.65 L27.05 30.4 26.25 30.15 26.45 29.65 Q27.25 27.45 27.3 26.05 L28.4 25.25 29.05 26.3 27.85 30.65 M26.1 30.15 L26.0 30.1 24.9 29.85 20.5 29.05 19.95 29.0 18.65 29.0 18.3 29.05 18.25 29.05 21.05 25.9 Q22.2 25.35 22.95 24.4 22.45 25.15 22.6 25.95 24.15 25.75 25.2 24.65 25.2 25.6 26.0 26.5 L26.9 26.25 26.3 29.65 26.1 30.15 M22.45 34.8 L24.55 33.05 25.75 31.25 27.2 31.65 27.55 31.75 27.5 31.85 26.55 35.2 26.5 35.2 24.3 35.35 23.1 35.7 22.45 34.8 M25.5 31.15 L24.2 32.9 22.15 34.45 Q20.2 32.75 16.8 34.6 16.45 31.9 13.5 34.45 L13.6 34.35 17.4 30.05 17.45 30.05 17.7 30.0 19.1 30.05 19.8 30.1 24.6 30.95 25.5 31.15" fill="#e6e4b3" fill-rule="evenodd" stroke="none"/>
      <path d="M32.5 32.45 L32.35 32.4 31.9 32.15 30.2 31.45 29.7 31.25 28.4 30.8 29.25 26.6 29.9 27.4 30.2 27.8 30.8 27.25 31.3 26.2 Q31.55 27.2 32.1 28.1 L32.5 32.45 M28.15 31.95 L28.95 32.2 30.2 32.65 32.0 33.45 32.45 33.65 32.65 37.5 Q31.5 37.0 30.1 37.9 29.05 36.05 27.45 35.4 L28.15 31.95" fill="#cac960" fill-rule="evenodd" stroke="none"/>
      <path d="M32.9 37.65 Q33.9 38.25 34.65 40.1 34.8 39.45 35.1 39.45 L35.75 42.8 Q35.2 42.0 33.2 40.95 L32.9 37.65 M22.15 34.45 Q19.6 35.9 15.85 35.95 L14.55 35.85 14.15 35.85 12.2 35.85 13.6 34.35 13.5 34.45 Q16.45 31.9 16.8 34.6 20.2 32.75 22.15 34.45 M31.9 25.95 L32.15 26.1 32.8 26.75 33.05 28.1 Q33.1 28.65 32.65 28.9 L32.1 28.1 31.9 25.95 M23.05 23.65 L23.9 23.65 24.05 23.7 26.35 24.05 Q26.9 24.85 26.9 26.25 L26.0 26.5 Q25.2 25.6 25.2 24.65 24.15 25.75 22.6 25.95 22.45 25.15 22.95 24.4 22.2 25.35 21.05 25.9 L23.05 23.65 M26.5 35.2 L26.55 35.2 26.5 35.2" fill="#ffde4f" fill-rule="evenodd" stroke="none"/>
      <path d="M32.65 37.5 L32.8 40.75 32.5 40.6 Q30.45 39.6 27.8 38.75 L26.9 38.45 27.45 35.4 Q29.05 36.05 30.1 37.9 31.5 37.0 32.65 37.5 M29.6 24.95 L30.2 25.15 31.1 25.5 31.4 25.65 31.9 25.95 32.1 28.1 Q31.55 27.2 31.3 26.2 L30.8 27.25 30.2 27.8 29.9 27.4 29.25 26.6 29.6 24.95" fill="#f4a33c" fill-rule="evenodd" stroke="none"/>
      <path d="M32.65 37.5 L32.9 37.65 33.2 40.95 Q35.2 42.0 35.75 42.8 L35.8 43.25 Q35.45 42.45 33.2 41.3 L32.8 41.1 32.5 40.9 28.3 39.25 26.85 38.75 26.8 38.7 25.7 38.4 25.65 38.35 24.25 38.0 23.7 37.8 23.4 37.75 17.1 36.45 15.3 36.25 14.55 36.2 Q11.5 36.0 10.75 36.65 L13.4 33.7 Q13.8 33.8 13.6 34.35 L12.2 35.85 14.15 35.85 14.55 35.85 15.85 35.95 Q19.6 35.9 22.15 34.45 L22.45 34.8 Q20.4 36.05 17.5 36.2 L23.7 37.5 24.5 37.7 24.9 37.85 Q26.15 36.85 26.55 35.2 L27.45 35.4 26.9 38.45 27.8 38.75 Q30.45 39.6 32.5 40.6 L32.8 40.75 32.65 37.5 M29.35 24.85 L29.45 24.9 29.55 24.95 29.6 24.95 29.25 26.6 29.05 26.3 29.35 24.85 M21.2 25.15 L22.25 24.0 Q22.3 23.75 22.8 23.7 L23.05 23.65 21.05 25.9 20.9 25.95 Q20.8 25.65 21.2 25.15 M26.35 24.05 L26.7 24.1 Q27.35 24.75 27.3 26.05 L26.9 26.25 Q26.9 24.85 26.35 24.05" fill="#ffff98" fill-rule="evenodd" stroke="none"/>
      <path d="M32.6 33.75 L32.9 37.65 32.65 37.5 32.45 33.65 32.6 33.75 M27.45 35.4 L26.55 35.2 27.5 31.85 27.55 31.75 28.15 31.95 27.45 35.4 M22.45 34.8 L22.15 34.45 24.2 32.9 25.5 31.15 25.7 31.2 25.75 31.25 24.55 33.05 22.45 34.8 M13.6 34.35 Q13.8 33.8 13.4 33.7 L16.6 30.2 17.4 30.05 13.6 34.35 M28.4 30.8 L27.85 30.65 29.05 26.3 29.25 26.6 28.4 30.8 M26.25 30.15 L26.1 30.15 26.3 29.65 26.9 26.25 27.3 26.05 Q27.25 27.45 26.45 29.65 L26.25 30.15 M18.25 29.05 Q17.65 29.1 17.4 29.3 L21.2 25.15 Q20.8 25.65 20.9 25.95 L21.05 25.9 18.25 29.05" fill="#ece8c6" fill-rule="evenodd" stroke="none"/>
      <path d="M26.55 35.2 Q26.15 36.85 24.9 37.85 L24.5 37.7 23.7 37.5 17.5 36.2 Q20.4 36.05 22.45 34.8 L23.1 35.7 24.3 35.35 26.5 35.2 26.55 35.2 M26.7 24.1 L27.7 24.35 27.85 24.4 29.35 24.85 29.05 26.3 28.4 25.25 27.3 26.05 Q27.35 24.75 26.7 24.1" fill="#cc6b22" fill-rule="evenodd" stroke="none"/>
      <path d="M10.75 36.65 Q11.5 36.0 14.55 36.2 L15.3 36.25 17.1 36.45 Q19.3 38.2 20.8 40.2 L22.4 42.8 Q17.35 41.45 13.85 39.75 10.3 38.05 10.5 37.0 L10.75 36.65 M23.4 37.75 L23.7 37.8 24.25 38.0 25.65 38.35 25.7 38.4 26.8 38.7 26.85 38.75 28.3 39.25 32.5 40.9 32.8 41.1 33.2 41.3 Q35.45 42.45 35.8 43.25 L35.85 43.7 Q35.65 44.7 32.05 44.5 L27.15 41.25 Q24.85 39.45 23.4 37.75" fill="#a34100" fill-rule="evenodd" stroke="none"/>
      <path d="M17.1 36.45 L23.4 37.75 Q24.85 39.45 27.15 41.25 L32.05 44.5 31.8 44.5 25.8 43.65 22.7 42.9 22.4 42.8 20.8 40.2 Q19.3 38.2 17.1 36.45" fill="#8f3600" fill-rule="evenodd" stroke="none"/>
      <path d="M32.9 37.65 Q33.9 38.25 34.65 40.1 34.8 39.45 35.1 39.45 L34.3 34.95 M32.9 37.65 L32.65 37.5 Q31.5 37.0 30.1 37.9 29.05 36.05 27.45 35.4 L26.55 35.2 26.5 35.2 24.3 35.35 23.1 35.7 22.45 34.8 22.15 34.45 Q20.2 32.75 16.8 34.6 16.45 31.9 13.5 34.45 L13.6 34.35 Q13.8 33.8 13.4 33.7 L10.75 36.65 10.5 37.0 Q10.3 38.05 13.85 39.75 17.35 41.45 22.4 42.8 L22.7 42.9 25.8 43.65 31.8 44.5 32.05 44.5 Q35.65 44.7 35.85 43.7 L35.8 43.25 35.75 42.8 35.1 39.45 M29.35 24.85 L29.45 24.9 29.55 24.95 29.6 24.95 30.2 25.15 31.1 25.5 31.4 25.65 31.9 25.95 32.15 26.1 32.8 26.75 33.05 28.1 34.05 33.65 M17.4 29.3 L21.2 25.15 22.25 24.0 Q22.3 23.75 22.8 23.7 L23.05 23.65 23.9 23.65 24.05 23.7 26.35 24.05 26.7 24.1 27.7 24.35 27.85 24.4 29.35 24.85 M29.05 26.3 L29.25 26.6 29.9 27.4 30.2 27.8 30.8 27.25 31.3 26.2 Q31.55 27.2 32.1 28.1 L32.65 28.9 Q33.1 28.65 33.05 28.1 M27.3 26.05 L26.9 26.25 26.0 26.5 Q25.2 25.6 25.2 24.65 24.15 25.75 22.6 25.95 22.45 25.15 22.95 24.4 22.2 25.35 21.05 25.9 L20.9 25.95 Q20.8 25.65 21.2 25.15 M29.05 26.3 L28.4 25.25 27.3 26.05 M16.6 30.2 L13.4 33.7" fill="none" stroke="#000000" stroke-linecap="round" stroke-linejoin="round" stroke-opacity="0.3019608" stroke-width="0.30000000000000004"/>
      <path d="M18.0 28.85 L18.4 28.8 19.75 28.85 20.3 28.85 24.9 29.65 26.05 29.95 26.15 30.0 25.4 31.0 24.55 30.8 19.55 29.95 18.85 29.9 17.4 29.85 17.15 29.9 17.05 29.9 Q17.15 29.35 18.0 28.85 M32.8 32.45 L33.05 32.6 Q34.15 33.2 34.45 33.7 L34.7 35.05 Q34.35 34.55 33.25 33.95 L32.9 33.75 32.8 32.45" fill="#ffde4f" fill-rule="evenodd" stroke="none"/>
      <path d="M15.85 30.6 L16.25 30.1 17.1 29.15 Q17.35 28.9 18.0 28.85 17.15 29.35 17.05 29.9 L17.15 29.9 17.4 29.85 18.85 29.9 19.55 29.95 24.55 30.8 25.4 31.0 26.15 30.0 26.3 30.0 Q25.9 30.55 25.8 31.15 L27.3 31.55 27.65 31.65 Q28.05 31.05 27.95 30.5 L28.5 30.65 Q28.15 31.15 28.3 31.85 L29.1 32.15 30.4 32.65 32.3 33.45 32.75 33.65 32.65 32.35 32.8 32.45 32.9 33.75 33.25 33.95 Q34.35 34.55 34.7 35.05 L34.7 35.85 Q34.85 35.15 33.7 34.4 31.2 32.85 26.75 31.6 20.2 29.7 16.75 30.05 16.15 30.15 15.85 30.6" fill="#ffff98" fill-rule="evenodd" stroke="none"/>
      <path d="M28.5 30.65 L29.9 31.15 30.4 31.35 32.15 32.1 32.65 32.35 32.75 33.65 32.3 33.45 30.4 32.65 29.1 32.15 28.3 31.85 Q28.15 31.15 28.5 30.65" fill="#f4a33c" fill-rule="evenodd" stroke="none"/>
      <path d="M34.7 35.85 L34.55 36.1 34.4 35.3 33.1 34.25 32.7 34.1 32.55 34.0 32.15 33.8 Q31.3 33.35 30.3 32.95 L29.0 32.45 28.2 32.2 27.55 32.0 27.2 31.9 25.75 31.45 25.65 31.45 25.5 31.4 24.55 31.15 19.6 30.3 18.9 30.2 17.5 30.2 17.25 30.2 17.15 30.25 16.35 30.4 15.75 31.1 15.85 30.6 Q16.15 30.15 16.75 30.05 20.2 29.7 26.75 31.6 31.2 32.85 33.7 34.4 34.85 35.15 34.7 35.85 M26.3 30.0 L27.1 30.25 27.95 30.5 Q28.05 31.05 27.65 31.65 L27.3 31.55 25.8 31.15 Q25.9 30.55 26.3 30.0" fill="#cc6b22" fill-rule="evenodd" stroke="none"/>
      <path d="M34.7 35.85 L34.55 36.1 34.4 35.3 33.1 34.25 32.7 34.1 32.55 34.0 32.15 33.8 Q31.3 33.35 30.3 32.95 L29.0 32.45 28.2 32.2 27.55 32.0 27.2 31.9 25.75 31.45 25.65 31.45 25.5 31.4 24.55 31.15 19.6 30.3 18.9 30.2 17.5 30.2 17.25 30.2 17.15 30.25 16.35 30.4 15.75 31.1 15.85 30.6 16.25 30.1 17.1 29.15 Q17.35 28.9 18.0 28.85 L18.4 28.8 19.75 28.85 20.3 28.85 24.9 29.65 26.05 29.95 26.15 30.0 26.3 30.0 27.1 30.25 27.95 30.5 28.5 30.65 29.9 31.15 30.4 31.35 32.15 32.1 32.65 32.35 32.8 32.45 33.05 32.6 Q34.15 33.2 34.45 33.7 L34.7 35.05 34.7 35.85 Z" fill="none" stroke="#000000" stroke-linecap="round" stroke-linejoin="round" stroke-opacity="0.3019608" stroke-width="0.30000000000000004"/>
      <path d="M29.8 41.9 L30.25 42.55 30.25 42.7 30.1 42.9 28.75 44.75 26.35 47.65 Q25.5 48.4 25.2 47.95 L25.05 47.4 Q24.9 44.8 25.05 41.95 25.6 41.0 26.5 41.35 27.4 41.7 27.4 43.0 L27.15 44.2 25.2 47.95 25.45 47.7 Q25.7 48.4 27.15 46.45 L28.8 44.25 Q30.1 42.55 29.8 41.9" fill="#e6e4b3" fill-rule="evenodd" stroke="none"/>
      <path d="M25.1 41.4 L25.15 40.95 25.15 40.8 25.2 40.65 Q25.4 40.45 26.1 40.4 L27.95 40.85 Q29.0 41.25 29.7 41.8 L29.8 41.9 Q30.1 42.55 28.8 44.25 L27.15 46.45 Q25.7 48.4 25.45 47.7 L27.5 44.3 27.8 43.55 Q28.5 41.25 25.7 40.95 L25.1 41.4" fill="#cac960" fill-rule="evenodd" stroke="none"/>
      <path d="M25.05 41.95 L25.1 41.4 25.7 40.95 Q28.5 41.25 27.8 43.55 L27.5 44.3 25.45 47.7 25.2 47.95 27.15 44.2 27.4 43.0 Q27.4 41.7 26.5 41.35 25.6 41.0 25.05 41.95" fill="#ffffff" fill-rule="evenodd" stroke="none"/>
      <path d="M29.8 41.9 L30.25 42.55 30.25 42.7 30.1 42.9 28.75 44.75 26.35 47.65 Q25.5 48.4 25.2 47.95 L25.05 47.4 Q24.9 44.8 25.05 41.95 L25.1 41.4 25.15 40.95 25.15 40.8 25.2 40.65 Q25.4 40.45 26.1 40.4 L27.95 40.85 Q29.0 41.25 29.7 41.8 L29.8 41.9 Z" fill="none" stroke="#000000" stroke-linecap="round" stroke-linejoin="round" stroke-opacity="0.3019608" stroke-width="0.30000000000000004"/>
      <path d="M20.3 39.65 L20.9 40.25 20.95 40.4 20.85 40.6 19.95 42.75 18.2 46.1 Q17.55 47.0 17.15 46.65 L16.9 46.05 Q16.15 43.55 15.7 40.6 16.05 39.55 17.0 39.75 17.95 39.9 18.2 41.2 L18.3 42.45 Q18.1 43.95 17.15 46.65 L17.35 46.3 Q17.7 47.0 18.7 44.7 L19.9 42.2 Q20.75 40.25 20.3 39.65" fill="#e6e4b3" fill-rule="evenodd" stroke="none"/>
      <path d="M15.6 40.05 L15.55 39.6 15.55 39.45 15.55 39.3 Q15.7 39.0 16.35 38.85 L18.3 38.95 Q19.45 39.15 20.2 39.6 L20.3 39.65 Q20.75 40.25 19.9 42.2 L18.7 44.7 Q17.7 47.0 17.35 46.3 18.1 44.85 18.6 42.5 L18.75 41.7 Q18.95 39.25 16.1 39.5 L15.6 40.05" fill="#cac960" fill-rule="evenodd" stroke="none"/>
      <path d="M15.7 40.6 L15.6 40.05 16.1 39.5 Q18.95 39.25 18.75 41.7 L18.6 42.5 Q18.1 44.85 17.35 46.3 L17.15 46.65 Q18.1 43.95 18.3 42.45 L18.2 41.2 Q17.95 39.9 17.0 39.75 16.05 39.55 15.7 40.6" fill="#ffffff" fill-rule="evenodd" stroke="none"/>
      <path d="M20.3 39.65 L20.9 40.25 20.95 40.4 20.85 40.6 19.95 42.75 18.2 46.1 Q17.55 47.0 17.15 46.65 L16.9 46.05 Q16.15 43.55 15.7 40.6 L15.6 40.05 15.55 39.6 15.55 39.45 15.55 39.3 Q15.7 39.0 16.35 38.85 L18.3 38.95 Q19.45 39.15 20.2 39.6 L20.3 39.65 Z" fill="none" stroke="#000000" stroke-linecap="round" stroke-linejoin="round" stroke-opacity="0.3019608" stroke-width="0.30000000000000004"/>
    </g>
    <g id="sprite1" transform="matrix(1.0, 0.0, 0.0, 1.0, 0.0, 0.0)">
      <use height="26.7" transform="matrix(0.0042, -1.3515, 1.3935, 0.02, 22.09, 56.0263)" width="26.7" xlink:href="#sprite2"/>
      <use height="26.7" transform="matrix(0.0095, -3.0486, 0.372, 0.0053, 36.507, 81.3775)" width="26.7" xlink:href="#sprite2"/>
      <use height="26.7" transform="matrix(3.0486, 0.0095, -0.0053, 0.372, 0.1225, 35.107)" width="26.7" xlink:href="#sprite2"/>
    </g>
    <g id="sprite2" transform="matrix(1.0, 0.0, 0.0, 1.0, 13.35, 13.35)">
      <use height="26.7" transform="matrix(1.0, 0.0, 0.0, 1.0, -13.35, -13.35)" width="26.7" xlink:href="#shape1"/>
    </g>
    <g id="shape1" transform="matrix(1.0, 0.0, 0.0, 1.0, 13.35, 13.35)">
      <path d="M9.3 -9.85 Q13.35 -5.8 13.35 0.0 13.35 5.8 9.3 9.3 5.8 13.35 0.0 13.35 -5.8 13.35 -9.85 9.3 -13.35 5.8 -13.35 0.0 -13.35 -5.8 -9.85 -9.85 -5.8 -13.35 0.0 -13.35 5.8 -13.35 9.3 -9.85" fill="url(#gradient0)" fill-rule="evenodd" stroke="none"/>
    </g>
    <radialGradient cx="0" cy="0" gradientTransform="matrix(0.0213, 0.0, 0.0, 0.0213, 0.0, 0.0)" gradientUnits="userSpaceOnUse" id="gradient0" r="819.2" spreadMethod="pad">
      <stop offset="0.19607843137254902" stop-color="#fee3bc" stop-opacity="0.25882354"/>
      <stop offset="0.5019607843137255" stop-color="#fee3bc" stop-opacity="0.039215688"/>
      <stop offset="0.7607843137254902" stop-color="#ffe3bd" stop-opacity="0.0"/>
    </radialGradient>
  </defs>
</svg>
