<?xml version="1.0" encoding="UTF-8" standalone="no"?>
<svg xmlns:xlink="http://www.w3.org/1999/xlink" height="52.0px" width="52.0px" xmlns="http://www.w3.org/2000/svg">
  <g transform="matrix(1.0, 0.0, 0.0, 1.0, 0.0, 0.0)">
    <use height="154.0" transform="matrix(1.0, 0.0, 0.0, 1.0, -50.0, -50.0)" width="154.0" xlink:href="#shape0"/>
    <use height="187.45" transform="matrix(-0.0173, -0.3653, -0.2068, 0.0016, 48.4122, 49.2193)" width="103.7" xlink:href="#sprite0"/>
    <use height="187.45" transform="matrix(0.0389, -0.2513, -0.1338, -0.0414, 41.5159, 33.3726)" width="103.7" xlink:href="#sprite0"/>
    <use height="0.0" transform="matrix(0.1252, 0.0545, -0.0986, 0.2199, 29.2, 25.75)" width="0.0" xlink:href="#sprite1"/>
  </g>
  <defs>
    <g id="shape0" transform="matrix(1.0, 0.0, 0.0, 1.0, 50.0, 50.0)">
      <path d="M52.0 0.0 L52.0 52.0 0.0 52.0 0.0 0.0 52.0 0.0" fill="#795fa9" fill-opacity="0.0" fill-rule="evenodd" stroke="none"/>
      <path d="M22.15 23.75 L21.7 23.9 21.0 24.2 20.4 24.55 20.25 24.65 18.6 26.05 17.1 28.05 15.25 27.95 14.75 28.15 Q11.75 27.15 8.75 28.25 4.55 30.5 4.3 35.25 L4.3 36.5 4.3 36.7 4.3 36.8 Q4.6 38.55 8.65 41.15 13.5 44.3 20.85 46.75 28.2 49.2 33.7 49.6 37.6 49.85 39.05 49.0 L39.4 48.75 39.45 48.7 39.55 48.55 39.65 48.4 Q42.45 43.6 41.15 40.25 40.55 38.65 39.65 37.65 L39.75 35.3 Q39.4 31.25 38.55 29.55 40.7 28.75 42.45 26.95 44.1 25.3 44.95 23.35 L46.7 23.9 Q48.65 24.1 48.75 21.5 L45.6 15.0 44.75 13.6 42.1 10.6 Q40.1 8.5 37.5 9.7 36.9 8.65 35.4 8.15 L34.35 7.95 34.3 7.95 Q33.6 4.0 32.5 2.35 25.3 4.6 21.0 14.2 18.25 21.1 23.2 23.45 L22.2 23.7 22.15 23.75 Z" fill="none" stroke="#000000" stroke-linecap="round" stroke-linejoin="round" stroke-opacity="0.3019608" stroke-width="1.0"/>
      <path d="M24.5 17.45 Q24.3 18.55 24.4 19.6 24.6 23.2 27.4 26.4 L28.15 27.2 Q33.35 30.8 39.3 28.1 42.5 26.5 44.25 22.85 L44.95 23.35 44.25 22.85 Q42.5 21.3 42.5 17.65 L42.6 15.55 Q42.75 17.1 43.05 18.35 43.85 21.5 45.8 22.6 47.4 23.6 48.0 21.55 L46.35 18.05 Q46.75 19.65 46.45 20.45 L46.0 21.25 Q46.7 19.95 45.5 16.3 L44.65 14.5 44.05 13.65 Q42.75 12.0 41.25 10.8 L41.15 10.75 40.0 10.25 Q41.75 11.25 42.2 14.5 42.65 17.7 41.95 19.15 42.3 15.75 41.45 13.0 L41.35 12.85 Q40.35 10.9 39.15 10.1 L37.95 10.2 Q36.95 10.55 36.1 11.4 L36.2 10.9 36.75 10.2 Q35.7 8.6 33.9 8.65 32.3 8.35 30.65 10.55 L31.35 9.15 Q27.8 9.8 25.45 14.1 24.7 15.8 24.5 17.45 M32.0 8.5 Q31.6 8.75 31.35 9.15 31.6 8.75 32.0 8.5 32.9 7.8 34.35 7.95 L35.4 8.15 Q36.9 8.65 37.5 9.7 40.1 8.5 42.1 10.6 L44.75 13.6 45.6 15.0 48.75 21.5 Q48.65 24.1 46.7 23.9 L44.95 23.35 Q44.1 25.3 42.45 26.95 39.2 30.25 34.55 30.25 29.9 30.25 26.6 26.95 23.35 23.7 23.35 19.05 23.35 14.4 26.45 11.15 L28.25 9.5 Q30.3 8.1 32.0 8.5 M37.5 9.7 Q37.05 9.9 36.75 10.2 37.05 9.9 37.5 9.7" fill="#d0c586" fill-rule="evenodd" stroke="none"/>
      <path d="M41.95 19.15 L41.95 19.2 41.85 19.4 41.1 20.85 40.15 22.3 39.6 22.75 Q42.15 19.75 41.4 15.35 L40.95 13.15 Q40.5 15.5 39.4 16.05 38.25 16.55 37.45 15.6 L35.75 13.2 33.55 14.1 Q29.95 14.5 30.65 10.55 32.3 8.35 33.9 8.65 35.7 8.6 36.75 10.2 L36.2 10.9 36.1 11.4 Q36.95 10.55 37.95 10.2 L39.15 10.1 Q40.35 10.9 41.35 12.85 L41.45 13.0 Q42.3 15.75 41.95 19.15 M42.2 14.5 Q41.75 11.25 40.0 10.25 L41.15 10.75 41.25 10.8 Q42.75 12.0 44.05 13.65 42.75 12.65 42.6 15.55 L42.2 14.5" fill="#bfb072" fill-rule="evenodd" stroke="none"/>
      <path d="M39.6 22.75 Q38.2 23.85 36.55 23.6 32.1 23.05 29.65 19.25 L24.5 17.45 Q24.7 15.8 25.45 14.1 27.8 9.8 31.35 9.15 L30.65 10.55 Q29.95 14.5 33.55 14.1 L35.75 13.2 37.45 15.6 Q38.25 16.55 39.4 16.05 40.5 15.5 40.95 13.15 L41.4 15.35 Q42.15 19.75 39.6 22.75 M42.6 15.55 Q42.75 12.65 44.05 13.65 L44.65 14.5 45.5 16.3 Q46.7 19.95 46.0 21.25 44.6 21.15 43.05 18.35 42.75 17.1 42.6 15.55" fill="#a89e64" fill-rule="evenodd" stroke="none"/>
      <path d="M24.4 19.6 Q24.3 18.55 24.5 17.45 L29.65 19.25 Q32.1 23.05 36.55 23.6 38.2 23.85 39.6 22.75 L40.15 22.3 41.1 20.85 41.85 19.4 41.95 19.2 41.95 19.15 Q42.85 20.85 42.55 23.35 42.35 25.1 39.65 26.25 35.75 26.5 33.55 24.7 L29.95 24.25 Q26.7 23.45 24.4 19.6 M46.0 21.25 L46.45 20.45 Q46.75 19.65 46.35 18.05 L48.0 21.55 Q47.4 23.6 45.8 22.6 43.85 21.5 43.05 18.35 44.6 21.15 46.0 21.25" fill="#696141" fill-rule="evenodd" stroke="none"/>
      <path d="M24.4 19.6 Q26.7 23.45 29.95 24.25 L33.55 24.7 Q35.75 26.5 39.65 26.25 42.35 25.1 42.55 23.35 42.85 20.85 41.95 19.15 42.65 17.7 42.2 14.5 L42.6 15.55 42.5 17.65 Q42.5 21.3 44.25 22.85 42.5 26.5 39.3 28.1 33.35 30.8 28.15 27.2 L27.4 26.4 Q24.6 23.2 24.4 19.6" fill="#5f5a3a" fill-rule="evenodd" stroke="none"/>
      <path d="M31.35 9.15 Q31.6 8.75 32.0 8.5 30.3 8.1 28.25 9.5 L26.45 11.15 Q23.35 14.4 23.35 19.05 23.35 23.7 26.6 26.95 29.9 30.25 34.55 30.25 39.2 30.25 42.45 26.95 44.1 25.3 44.95 23.35 L44.25 22.85 Q42.5 21.3 42.5 17.65 L42.6 15.55 M36.2 10.9 L36.75 10.2 Q37.05 9.9 37.5 9.7 36.9 8.65 35.4 8.15 L34.35 7.95 Q32.9 7.8 32.0 8.5 M37.5 9.7 Q40.1 8.5 42.1 10.6 L44.75 13.6 45.6 15.0 48.75 21.5 Q48.65 24.1 46.7 23.9 L44.95 23.35 M31.35 9.15 L30.65 10.55" fill="none" stroke="#000000" stroke-linecap="round" stroke-linejoin="round" stroke-opacity="0.3019608" stroke-width="0.30000000000000004"/>
      <path d="M37.1 13.25 L37.1 12.65 37.25 12.9 37.5 13.1 Q37.9 13.3 38.4 13.1 L39.0 12.55 38.95 12.65 Q38.75 13.25 38.25 13.45 37.75 13.65 37.35 13.45 L37.1 13.25 M32.65 12.1 L32.65 12.0 32.6 11.4 32.8 11.75 33.05 11.9 Q33.5 12.15 34.0 11.9 L34.75 11.25 34.65 11.45 33.85 12.25 Q33.35 12.5 32.9 12.25 L32.65 12.1" fill="#d0c586" fill-rule="evenodd" stroke="none"/>
      <path d="M37.1 12.65 L37.25 12.15 Q37.45 11.65 37.9 11.4 L38.85 11.5 39.1 11.65 39.0 12.55 38.4 13.1 Q37.9 13.3 37.5 13.1 L37.25 12.9 37.1 12.65 M32.6 11.4 L32.75 10.85 Q33.0 10.3 33.5 10.05 L34.45 10.15 34.7 10.35 34.75 11.25 34.0 11.9 Q33.5 12.15 33.05 11.9 L32.8 11.75 32.6 11.4" fill="#bfb072" fill-rule="evenodd" stroke="none"/>
      <path d="M39.1 11.65 L39.25 11.9 39.35 12.25 Q39.5 12.8 39.25 13.3 L38.55 14.1 Q38.05 14.3 37.65 14.1 37.25 13.85 37.1 13.25 L37.35 13.45 Q37.75 13.65 38.25 13.45 38.75 13.25 38.95 12.65 L39.0 12.55 39.1 11.65 M34.7 10.35 L34.95 10.65 35.0 10.95 34.95 12.1 34.15 12.9 Q33.65 13.15 33.2 12.9 32.75 12.65 32.65 12.1 L32.9 12.25 Q33.35 12.5 33.85 12.25 L34.65 11.45 34.75 11.25 34.7 10.35" fill="#a89e64" fill-rule="evenodd" stroke="none"/>
      <path d="M38.85 11.05 L39.0 11.15 39.25 11.35 39.65 12.1 Q39.85 12.8 39.55 13.45 L38.65 14.4 Q38.05 14.7 37.5 14.4 37.0 14.1 36.85 13.35 L36.85 12.65 36.95 12.15 37.0 12.0 Q37.3 11.35 37.85 11.05 38.4 10.9 38.85 11.05 M39.1 11.65 L38.85 11.5 37.9 11.4 Q37.45 11.65 37.25 12.15 L37.1 12.65 37.1 13.25 Q37.25 13.85 37.65 14.1 38.05 14.3 38.55 14.1 L39.25 13.3 Q39.5 12.8 39.35 12.25 L39.25 11.9 39.1 11.65 M32.6 10.75 Q32.9 10.1 33.45 9.8 L34.6 9.9 34.9 10.1 35.25 10.85 Q35.45 11.55 35.15 12.2 34.85 12.9 34.25 13.15 33.65 13.45 33.1 13.15 32.6 12.85 32.45 12.1 L32.4 11.6 32.5 11.05 32.6 10.75 M34.7 10.35 L34.45 10.15 33.5 10.05 Q33.0 10.3 32.75 10.85 L32.6 11.4 32.65 12.0 32.65 12.1 Q32.75 12.65 33.2 12.9 33.65 13.15 34.15 12.9 L34.95 12.1 35.0 10.95 34.95 10.65 34.7 10.35" fill="#696141" fill-rule="evenodd" stroke="none"/>
      <path d="M31.15 24.45 L31.1 24.45 30.65 24.3 29.8 23.95 28.75 23.7 27.75 23.5 27.0 23.45 24.1 23.65 23.5 23.75 22.8 23.9 22.6 23.95 21.55 24.4 20.55 25.0 Q19.6 25.75 19.05 26.65 18.25 27.4 18.35 28.15 L17.1 28.05 18.35 28.15 20.3 28.55 Q21.2 28.75 22.0 29.1 L22.15 29.15 22.45 29.3 22.35 29.6 20.5 28.9 15.2 28.25 Q13.2 28.85 12.0 32.4 12.55 28.7 15.25 27.95 L17.1 28.05 18.6 26.05 20.25 24.65 20.4 24.55 21.0 24.2 21.7 23.9 22.15 23.75 22.2 23.7 Q28.95 21.65 35.75 26.35 L35.0 26.2 34.9 26.15 34.5 25.95 33.55 25.45 31.3 24.5 31.15 24.45 M29.65 30.3 L30.95 30.35 32.4 30.4 Q33.3 29.9 33.6 29.2 34.2 27.65 32.15 25.1 34.45 27.1 33.95 29.5 L33.6 30.55 33.85 30.55 34.6 30.65 36.85 30.95 37.5 31.05 Q38.45 31.25 38.95 32.35 L39.1 32.8 39.2 33.05 Q39.45 33.9 39.3 34.85 L39.1 35.75 39.05 35.85 39.05 34.15 Q38.9 32.65 38.4 32.05 L37.75 31.55 28.35 30.45 28.75 30.3 29.65 30.3 M22.5 29.8 L22.45 30.05 Q22.35 31.3 22.9 31.15 L23.1 31.05 Q23.7 30.7 24.0 29.4 L24.7 27.8 25.05 27.2 25.15 27.0 25.45 26.6 25.3 26.9 25.1 27.3 24.8 28.0 24.05 30.15 Q23.65 31.6 23.15 31.85 22.65 32.1 22.0 31.05 L22.45 29.95 22.5 29.8 M25.5 29.3 Q24.35 32.5 25.6 32.2 L26.3 31.8 26.6 31.4 27.25 30.25 28.3 27.35 28.3 27.4 27.95 28.9 27.55 30.15 26.8 31.75 26.45 32.2 25.95 32.6 24.75 32.65 Q24.5 32.4 24.6 31.75 L25.5 29.3 M32.4 30.4 L33.15 30.5 33.25 30.5 33.6 30.55 33.25 30.5 33.15 30.5 32.4 30.4 M20.8 24.9 Q21.4 24.55 21.95 24.5 22.45 24.45 22.65 24.75 L22.5 25.5 21.6 26.3 21.15 26.55 20.45 26.7 Q19.9 26.75 19.75 26.45 19.55 26.15 19.85 25.7 L20.6 25.05 20.8 24.9" fill="#d0c586" fill-rule="evenodd" stroke="none"/>
      <path d="M18.35 28.15 Q18.25 27.4 19.05 26.65 19.6 25.75 20.55 25.0 L21.55 24.4 22.8 24.25 24.25 24.15 Q26.35 24.1 26.2 25.05 L26.05 25.1 Q25.65 25.25 25.3 25.55 25.95 25.4 26.15 25.7 L25.85 26.05 25.7 26.2 25.7 26.25 25.6 26.35 25.6 26.4 25.5 26.5 25.45 26.6 25.15 27.0 25.05 27.2 24.7 27.8 24.0 29.4 Q23.7 30.7 23.1 31.05 L22.9 31.15 Q22.35 31.3 22.45 30.05 L22.5 29.8 22.65 29.45 23.25 28.3 24.15 26.8 24.75 26.05 25.3 25.55 24.75 26.05 24.15 26.8 23.25 28.3 22.65 29.45 22.45 29.3 22.15 29.15 22.0 29.1 Q21.2 28.75 20.3 28.55 L18.35 28.15 M13.95 34.0 L12.3 33.25 Q11.9 32.85 12.0 32.4 13.2 28.85 15.2 28.25 L20.5 28.9 22.35 29.6 22.35 29.65 22.25 29.75 22.2 29.9 Q21.4 31.45 20.05 31.15 L14.6 30.2 Q13.75 29.9 13.85 29.45 L13.7 29.6 13.35 30.1 13.3 30.15 Q12.15 32.1 12.8 33.0 L13.95 34.0 M39.05 35.85 L38.35 36.9 Q37.55 37.65 36.25 37.85 L28.25 35.95 27.9 35.85 Q27.5 35.7 27.25 35.55 L27.2 35.5 Q26.35 34.85 26.6 33.6 L26.65 33.45 Q26.8 35.0 27.85 35.45 L36.45 37.35 Q37.6 37.25 38.65 35.7 39.15 33.6 37.4 33.0 L31.1 32.05 28.8 31.85 Q27.6 31.8 27.8 30.9 L28.1 30.65 28.35 30.45 37.75 31.55 38.4 32.05 Q38.9 32.65 39.05 34.15 L39.05 35.85 M21.8 31.55 L21.8 31.6 21.75 31.55 21.8 31.55 M25.6 29.1 L26.75 26.75 26.8 26.7 Q27.7 25.75 28.1 26.0 28.55 25.95 28.35 27.2 L28.35 27.25 28.3 27.35 27.25 30.25 26.6 31.4 26.3 31.8 25.6 32.2 Q24.35 32.5 25.5 29.3 L25.55 29.2 25.6 29.15 25.6 29.1 M20.8 24.9 L20.6 25.05 19.85 25.7 Q19.55 26.15 19.75 26.45 19.9 26.75 20.45 26.7 L21.15 26.55 21.6 26.3 22.5 25.5 22.65 24.75 Q22.45 24.45 21.95 24.5 21.4 24.55 20.8 24.9 M21.0 29.85 L20.95 29.8 20.95 29.85 21.0 29.85" fill="#bfb072" fill-rule="evenodd" stroke="none"/>
      <path d="M21.55 24.4 L22.6 23.95 22.8 23.9 23.5 23.75 24.1 23.65 27.0 23.45 27.75 23.5 28.75 23.7 29.8 23.95 30.65 24.3 31.1 24.45 31.15 24.45 31.3 24.55 32.0 24.95 32.15 25.1 Q34.2 27.65 33.6 29.2 33.3 29.9 32.4 30.4 L30.95 30.35 29.65 30.3 29.8 27.65 Q29.3 25.35 28.55 25.15 28.15 25.05 27.65 25.45 28.15 25.05 28.55 25.15 29.1 25.55 28.95 27.65 L28.95 27.75 28.45 30.0 28.1 30.65 27.8 30.9 Q27.35 31.4 27.05 32.15 L26.7 33.2 26.65 33.45 26.6 33.6 Q26.35 34.85 27.2 35.5 L27.25 35.55 26.95 35.6 Q25.45 35.95 24.85 35.0 24.45 34.55 24.75 32.65 L25.95 32.6 26.45 32.2 26.8 31.75 27.55 30.15 27.95 28.9 28.3 27.4 28.3 27.35 28.35 27.25 28.35 27.2 Q28.55 25.95 28.1 26.0 27.7 25.75 26.8 26.7 L27.2 25.9 27.65 25.45 27.6 25.35 27.4 25.15 26.2 25.05 27.4 25.15 26.25 26.25 26.15 26.4 25.9 26.8 25.25 28.0 25.05 28.45 24.2 30.85 23.75 32.4 23.55 32.8 Q22.95 33.7 22.4 33.15 L21.5 32.35 21.75 31.6 21.8 31.6 21.8 31.55 22.0 31.05 Q22.65 32.1 23.15 31.85 23.65 31.6 24.05 30.15 L24.8 28.0 25.1 27.3 25.3 26.9 25.45 26.6 25.5 26.5 25.6 26.4 25.6 26.35 25.7 26.25 25.7 26.2 25.85 26.05 26.15 25.7 Q25.95 25.4 25.3 25.55 25.65 25.25 26.05 25.1 L26.2 25.05 Q26.35 24.1 24.25 24.15 L22.8 24.25 21.55 24.4 M35.0 26.2 L35.75 26.35 36.4 26.9 37.4 28.0 37.75 28.4 37.8 28.5 38.4 29.3 37.5 31.05 36.85 30.95 Q37.3 30.8 37.5 30.15 L37.6 29.95 37.35 28.75 Q37.1 27.65 35.0 26.2 M22.2 29.9 Q21.55 31.7 20.65 32.0 16.85 32.15 13.5 30.75 13.2 30.35 13.3 30.15 L13.35 30.1 13.7 29.6 13.85 29.45 Q13.75 29.9 14.6 30.2 L20.05 31.15 Q21.4 31.45 22.2 29.9" fill="#a89e64" fill-rule="evenodd" stroke="none"/>
      <path d="M31.15 24.45 L31.3 24.5 33.55 25.45 34.5 25.95 34.9 26.15 35.0 26.2 Q37.1 27.65 37.35 28.75 L37.6 29.95 37.5 30.15 Q37.3 30.8 36.85 30.95 L34.6 30.65 33.85 30.55 33.6 30.55 33.95 29.5 Q34.45 27.1 32.15 25.1 L32.0 24.95 31.3 24.55 31.15 24.45 M28.55 25.15 Q29.3 25.35 29.8 27.65 L29.65 30.3 28.75 30.3 28.35 30.45 28.1 30.65 28.45 30.0 28.95 27.75 28.95 27.65 Q29.1 25.55 28.55 25.15 M38.4 29.3 Q39.4 30.95 39.75 35.3 39.95 37.6 39.1 39.25 L38.45 39.3 Q39.15 37.55 39.2 36.45 38.75 37.0 38.35 36.9 L39.05 35.85 39.1 35.75 39.3 34.85 Q39.45 33.9 39.2 33.05 L39.1 32.8 38.95 32.35 Q38.45 31.25 37.5 31.05 L38.4 29.3 M15.05 34.35 L13.95 34.0 12.8 33.0 Q12.15 32.1 13.3 30.15 13.2 30.35 13.5 30.75 16.85 32.15 20.65 32.0 21.55 31.7 22.2 29.9 L22.25 29.75 22.35 29.65 22.35 29.6 22.45 29.3 22.65 29.45 22.5 29.8 22.45 29.95 22.0 31.05 21.8 31.55 21.75 31.55 21.75 31.6 21.5 32.35 22.4 33.15 Q22.95 33.7 23.55 32.8 L23.75 32.4 23.6 33.05 Q23.15 35.15 23.6 35.9 L23.35 35.95 23.0 36.05 Q22.1 36.45 21.35 35.25 L21.25 34.95 Q21.0 33.95 21.5 32.35 21.0 33.95 21.25 34.95 18.2 35.7 15.05 34.35 M27.8 30.9 Q27.6 31.8 28.8 31.85 L31.1 32.05 37.4 33.0 Q39.15 33.6 38.65 35.7 37.6 37.25 36.45 37.35 L27.85 35.45 Q26.8 35.0 26.65 33.45 L26.7 33.2 27.05 32.15 Q27.35 31.4 27.8 30.9 M27.25 35.55 Q27.5 35.7 27.9 35.85 L28.25 35.95 Q26.6 36.6 25.55 36.35 24.7 36.15 24.3 35.35 L24.15 35.05 24.1 34.35 Q24.1 33.25 24.6 31.75 24.5 32.4 24.75 32.65 24.45 34.55 24.85 35.0 25.45 35.95 26.95 35.6 L27.25 35.55" fill="#696141" fill-rule="evenodd" stroke="none"/>
      <path d="M27.4 25.15 L27.6 25.35 27.65 25.45 27.2 25.9 26.8 26.7 26.75 26.75 25.6 29.1 25.6 29.15 25.55 29.2 25.5 29.3 24.6 31.75 Q24.1 33.25 24.1 34.35 L24.15 35.05 24.3 35.35 Q24.7 36.15 25.55 36.35 26.6 36.6 28.25 35.95 L36.25 37.85 Q37.55 37.65 38.35 36.9 38.75 37.0 39.2 36.45 39.15 37.55 38.45 39.3 L22.9 40.65 22.8 40.65 15.05 34.35 Q18.2 35.7 21.25 34.95 L21.35 35.25 Q22.1 36.45 23.0 36.05 L23.35 35.95 23.6 35.9 Q23.15 35.15 23.6 33.05 L23.75 32.4 24.2 30.85 25.05 28.45 25.25 28.0 25.9 26.8 26.15 26.4 26.25 26.25 27.4 25.15 M24.3 35.35 L23.6 35.9 24.3 35.35" fill="#5f5a3a" fill-rule="evenodd" stroke="none"/>
      <path d="M35.75 26.35 Q28.95 21.65 22.2 23.7 L22.15 23.75 21.7 23.9 21.0 24.2 20.4 24.55 20.25 24.65 18.6 26.05 17.1 28.05 18.35 28.15 20.3 28.55 Q21.2 28.75 22.0 29.1 L22.15 29.15 22.45 29.3 22.65 29.45 22.5 29.8 22.45 29.95 22.0 31.05 21.8 31.55 21.8 31.6 21.75 31.55 21.75 31.6 21.5 32.35 Q21.0 33.95 21.25 34.95 18.2 35.7 15.05 34.35 L13.95 34.0 12.3 33.25 Q11.9 32.85 12.0 32.4 12.55 28.7 15.25 27.95 L17.1 28.05 M26.2 25.05 L27.4 25.15 27.6 25.35 27.65 25.45 Q28.15 25.05 28.55 25.15 29.3 25.35 29.8 27.65 L29.65 30.3 30.95 30.35 32.4 30.4 33.15 30.5 33.25 30.5 33.6 30.55 33.85 30.55 34.6 30.65 36.85 30.95 37.5 31.05 Q38.45 31.25 38.95 32.35 L39.1 32.8 39.2 33.05 Q39.45 33.9 39.3 34.85 L39.1 35.75 39.05 35.85 38.35 36.9 Q37.55 37.65 36.25 37.85 L28.25 35.95 27.9 35.85 Q27.5 35.7 27.25 35.55 L27.2 35.5 Q26.35 34.85 26.6 33.6 L26.65 33.45 26.7 33.2 27.05 32.15 Q27.35 31.4 27.8 30.9 L28.1 30.65 28.35 30.45 28.75 30.3 29.65 30.3 M35.75 26.35 L36.4 26.9 37.4 28.0 37.75 28.4 37.8 28.5 38.4 29.3 Q39.4 30.95 39.75 35.3 39.95 37.6 39.1 39.25 L38.45 39.3 22.9 40.65 M22.8 40.65 L15.05 34.35 M25.3 25.55 Q25.65 25.25 26.05 25.1 L26.2 25.05 M25.3 25.55 L24.75 26.05 24.15 26.8 23.25 28.3 22.65 29.45 M26.8 26.7 L26.75 26.75 25.6 29.1 M25.6 29.15 L25.55 29.2 25.5 29.3 24.6 31.75 Q24.1 33.25 24.1 34.35 L24.15 35.05 24.3 35.35 Q24.7 36.15 25.55 36.35 26.6 36.6 28.25 35.95 M26.8 26.7 L27.2 25.9 27.65 25.45 M23.6 35.9 L24.3 35.35 M21.25 34.95 L21.35 35.25 Q22.1 36.45 23.0 36.05 L23.35 35.95 23.6 35.9" fill="none" stroke="#000000" stroke-linecap="round" stroke-linejoin="round" stroke-opacity="0.3019608" stroke-width="0.30000000000000004"/>
      <path d="M22.9 40.65 L22.8 40.65" fill="none" stroke="#ff0000" stroke-linecap="round" stroke-linejoin="round" stroke-width="0.05"/>
      <path d="M12.65 28.2 L11.55 28.2 10.2 28.4 9.6 28.6 Q6.35 29.75 5.35 32.85 5.1 33.7 5.85 34.3 6.7 34.25 7.95 34.7 11.35 35.75 14.65 37.4 L14.7 37.4 15.1 37.6 18.3 39.4 Q21.6 40.55 22.1 37.4 22.3 35.15 19.95 32.15 L19.55 31.8 17.1 29.85 Q16.35 29.35 15.65 29.0 14.4 28.45 13.15 28.25 L12.65 28.2 M8.05 29.75 L8.4 29.85 Q8.6 30.1 8.45 30.55 L7.95 31.4 7.25 31.9 7.15 31.9 6.6 31.85 Q6.4 31.6 6.55 31.15 6.65 30.7 7.05 30.3 7.45 29.9 7.85 29.8 L8.05 29.75 M6.25 35.2 Q4.6 35.05 4.35 36.1 L4.3 36.5 4.3 35.25 Q4.55 30.5 8.75 28.25 14.5 26.1 20.2 31.7 22.6 34.05 23.4 37.2 21.9 38.75 20.9 41.45 21.9 38.75 23.4 37.2 28.75 33.45 37.1 36.15 39.8 36.75 41.15 40.25 42.45 43.6 39.65 48.4 L39.75 48.05 Q40.0 47.2 39.05 46.4 L38.55 46.05 38.05 45.8 Q36.9 45.2 35.0 44.7 29.65 43.25 20.9 41.45 L17.2 39.6 Q13.35 37.7 9.9 36.25 7.6 35.3 6.25 35.2 M31.6 35.75 L27.7 35.85 Q23.15 36.9 22.45 39.6 22.05 41.1 24.3 41.65 L29.95 42.6 34.8 43.7 Q36.7 44.3 38.15 45.05 L39.3 45.85 Q40.05 46.6 40.3 46.1 41.05 44.35 41.05 42.85 40.85 39.4 38.75 37.7 38.15 37.2 37.4 36.9 L36.25 36.5 33.7 35.95 31.6 35.75 M29.75 36.7 Q29.75 36.35 30.15 36.1 L31.1 35.9 Q31.7 35.95 32.05 36.2 L32.4 36.8 32.0 37.35 31.05 37.55 30.1 37.3 Q29.7 37.05 29.75 36.7" fill="#d0c586" fill-rule="evenodd" stroke="none"/>
      <path d="M9.6 28.6 L8.05 29.75 7.85 29.8 Q7.45 29.9 7.05 30.3 6.65 30.7 6.55 31.15 6.4 31.6 6.6 31.85 L7.15 31.9 7.25 31.9 Q7.4 33.15 9.25 34.2 L14.65 37.4 Q11.35 35.75 7.95 34.7 6.7 34.25 5.85 34.3 5.1 33.7 5.35 32.85 6.35 29.75 9.6 28.6 M17.1 29.85 Q19.45 31.9 19.7 33.9 19.85 36.8 17.7 36.65 14.25 35.85 11.95 33.8 L11.6 33.5 Q9.85 31.6 10.25 30.15 10.75 28.05 15.65 29.0 16.35 29.35 17.1 29.85 M33.7 35.95 Q36.15 36.45 36.95 37.9 38.35 41.1 34.25 41.4 28.6 41.5 27.2 39.2 26.25 37.35 28.4 36.3 29.4 35.85 31.6 35.75 L33.7 35.95 M38.75 37.7 Q40.85 39.4 41.05 42.85 41.05 44.35 40.3 46.1 40.05 46.6 39.3 45.85 L38.15 45.05 Q39.85 45.4 40.35 43.75 40.9 40.95 38.75 37.7 M29.75 36.7 Q29.7 37.05 30.1 37.3 L31.05 37.55 32.0 37.35 32.4 36.8 32.05 36.2 Q31.7 35.95 31.1 35.9 L30.15 36.1 Q29.75 36.35 29.75 36.7" fill="#bfb072" fill-rule="evenodd" stroke="none"/>
      <path d="M12.65 28.2 Q10.9 28.15 9.7 29.3 L9.6 29.4 Q8.35 30.8 11.6 33.5 L11.95 33.8 Q14.25 35.85 17.7 36.65 19.85 36.8 19.7 33.9 19.45 31.9 17.1 29.85 L19.55 31.8 Q21.35 35.2 19.5 37.25 L19.45 37.35 Q17.8 38.9 15.1 37.6 L14.7 37.4 14.65 37.4 9.25 34.2 Q7.4 33.15 7.25 31.9 L7.95 31.4 8.45 30.55 Q8.6 30.1 8.4 29.85 L8.05 29.75 9.6 28.6 10.2 28.4 11.55 28.2 12.65 28.2 M4.3 36.5 L4.35 36.1 Q4.6 35.05 6.25 35.2 4.65 35.85 5.3 37.4 L5.5 37.8 Q6.15 39.1 9.4 41.05 L12.4 42.65 Q16.1 44.45 20.85 46.05 27.7 48.4 32.95 48.95 35.65 49.25 37.1 49.0 L37.4 48.95 37.4 49.0 Q38.7 48.85 39.35 48.25 39.95 47.6 39.05 46.4 40.0 47.2 39.75 48.05 L39.65 48.4 39.55 48.55 39.45 48.7 39.4 48.75 39.05 49.0 Q37.6 49.85 33.7 49.6 28.2 49.2 20.85 46.75 13.5 44.3 8.65 41.15 4.6 38.55 4.3 36.8 L4.3 36.7 4.3 36.5 M34.8 43.7 L29.95 42.6 24.3 41.65 Q22.05 41.1 22.45 39.6 23.15 36.9 27.7 35.85 L31.6 35.75 Q29.4 35.85 28.4 36.3 26.25 37.35 27.2 39.2 28.6 41.5 34.25 41.4 38.35 41.1 36.95 37.9 36.15 36.45 33.7 35.95 L36.25 36.5 37.4 36.9 Q39.05 39.25 38.9 41.4 38.65 44.1 34.8 43.7" fill="#a89e64" fill-rule="evenodd" stroke="none"/>
      <path d="M11.6 33.5 Q8.35 30.8 9.6 29.4 L9.7 29.3 Q10.9 28.15 12.65 28.2 L13.15 28.25 Q14.4 28.45 15.65 29.0 10.75 28.05 10.25 30.15 9.85 31.6 11.6 33.5 M15.1 37.6 Q17.8 38.9 19.45 37.35 L19.5 37.25 Q21.35 35.2 19.55 31.8 L19.95 32.15 Q22.3 35.15 22.1 37.4 21.6 40.55 18.3 39.4 L15.1 37.6 M34.8 43.7 Q38.65 44.1 38.9 41.4 39.05 39.25 37.4 36.9 38.15 37.2 38.75 37.7 40.9 40.95 40.35 43.75 39.85 45.4 38.15 45.05 36.7 44.3 34.8 43.7" fill="#696141" fill-rule="evenodd" stroke="none"/>
      <path d="M6.25 35.2 Q7.6 35.3 9.9 36.25 13.35 37.7 17.2 39.6 L17.8 40.4 Q19.6 43.65 18.45 44.05 16.45 44.25 12.4 42.65 L9.4 41.05 Q6.15 39.1 5.5 37.8 L5.3 37.4 Q4.65 35.85 6.25 35.2" fill="#5f5a3a" fill-rule="evenodd" stroke="none"/>
      <path d="M17.2 39.6 L20.9 41.45 Q29.65 43.25 35.0 44.7 36.9 45.2 38.05 45.8 L38.55 46.05 39.05 46.4 Q39.95 47.6 39.35 48.25 38.7 48.85 37.4 49.0 L37.4 48.95 37.1 49.0 Q35.65 49.25 32.95 48.95 27.7 48.4 20.85 46.05 16.1 44.45 12.4 42.65 16.45 44.25 18.45 44.05 19.6 43.65 17.8 40.4 L17.2 39.6" fill="#49432e" fill-rule="evenodd" stroke="none"/>
      <path d="M20.9 41.45 Q21.9 38.75 23.4 37.2 22.6 34.05 20.2 31.7 14.5 26.1 8.75 28.25 4.55 30.5 4.3 35.25 L4.3 36.5 4.3 36.7 4.3 36.8 Q4.6 38.55 8.65 41.15 13.5 44.3 20.85 46.75 28.2 49.2 33.7 49.6 37.6 49.85 39.05 49.0 L39.4 48.75 39.45 48.7 39.55 48.55 39.65 48.4 Q42.45 43.6 41.15 40.25 39.8 36.75 37.1 36.15 28.75 33.45 23.4 37.2" fill="none" stroke="#000000" stroke-linecap="round" stroke-linejoin="round" stroke-opacity="0.3019608" stroke-width="0.30000000000000004"/>
      <path d="M24.25 10.55 Q22.55 13.05 21.25 16.15 L21.05 17.0 Q21.35 20.35 25.65 22.0 L25.2 21.9 Q22.85 21.15 20.9 19.0 21.1 21.55 23.6 22.5 27.2 23.85 31.35 23.85 32.75 23.85 34.35 23.0 L34.3 23.25 34.2 23.55 Q33.65 24.95 31.35 25.0 L25.55 24.2 Q17.7 22.55 21.0 14.2 25.3 4.6 32.5 2.35 33.75 4.25 34.5 9.2 L34.85 11.65 35.0 12.75 35.1 14.35 35.0 12.75 Q36.5 14.55 36.95 17.0 36.6 15.3 35.1 14.35 L35.1 16.1 35.1 18.5 35.1 18.75 35.1 19.05 35.1 18.55 34.5 12.25 Q33.95 8.65 33.1 5.4 33.45 9.45 33.1 13.4 L32.7 16.45 Q32.9 11.25 32.65 7.15 L32.55 6.0 32.2 3.5 32.1 3.2 Q27.45 5.75 24.25 10.55" fill="#d0c586" fill-rule="evenodd" stroke="none"/>
      <path d="M25.65 22.0 Q21.35 20.35 21.05 17.0 L21.25 16.15 Q22.55 13.05 24.25 10.55 27.8 6.35 31.1 4.6 32.2 4.2 32.55 6.0 L32.65 7.15 Q32.9 11.25 32.7 16.45 L32.55 17.2 32.3 18.3 Q30.55 22.95 25.65 22.0 M35.1 18.5 L35.1 16.1 35.1 14.35 Q36.6 15.3 36.95 17.0 35.65 14.65 35.1 18.5" fill="#bfb072" fill-rule="evenodd" stroke="none"/>
      <path d="M24.25 10.55 Q27.45 5.75 32.1 3.2 L32.2 3.5 32.55 6.0 Q32.2 4.2 31.1 4.6 27.8 6.35 24.25 10.55 M32.7 16.45 L33.1 13.4 Q33.7 10.05 34.5 12.25 L35.1 18.55 Q33.5 22.65 29.35 23.2 25.25 23.65 22.4 21.3 21.15 20.25 20.9 19.0 22.85 21.15 25.2 21.9 L25.65 22.0 Q30.55 22.95 32.3 18.3 L32.55 17.2 32.7 16.45" fill="#a89e64" fill-rule="evenodd" stroke="none"/>
      <path d="M33.1 13.4 Q33.45 9.45 33.1 5.4 33.95 8.65 34.5 12.25 33.7 10.05 33.1 13.4 M35.1 18.55 L35.1 19.05 35.1 18.75 Q36.0 23.45 38.65 23.35 L34.3 23.25 34.35 23.0 Q32.75 23.85 31.35 23.85 27.2 23.85 23.6 22.5 21.1 21.55 20.9 19.0 21.15 20.25 22.4 21.3 25.25 23.65 29.35 23.2 33.5 22.65 35.1 18.55" fill="#696141" fill-rule="evenodd" stroke="none"/>
      <path d="M35.1 16.1 L35.1 14.35 35.0 12.75 34.85 11.65 34.5 9.2 Q33.75 4.25 32.5 2.35 25.3 4.6 21.0 14.2 17.7 22.55 25.55 24.2 L31.35 25.0 Q33.65 24.95 34.2 23.55 M36.95 17.0 Q36.5 14.55 35.0 12.75" fill="none" stroke="#000000" stroke-linecap="round" stroke-linejoin="round" stroke-opacity="0.3019608" stroke-width="0.30000000000000004"/>
    </g>
    <g id="sprite0" transform="matrix(1.0, 0.0, 0.0, 1.0, 15.45, 15.45)">
      <use height="218.65" transform="matrix(1.0, 0.0, 0.0, 1.0, -31.05, -31.05)" width="134.9" xlink:href="#shape1"/>
    </g>
    <g id="shape1" transform="matrix(1.0, 0.0, 0.0, 1.0, 31.05, 31.05)">
      <path d="M67.1 47.3 Q60.05 84.7 45.15 118.0 L67.1 47.3" fill="#000000" fill-opacity="0.05490196" fill-rule="evenodd" stroke="none"/>
      <path d="M72.8 0.4 Q71.4 24.6 67.1 47.3 60.05 84.7 45.15 118.0 L45.0 118.3 Q39.4 130.85 24.25 156.55 M43.75 69.05 Q26.65 113.65 20.4 117.6 17.55 109.85 28.1 81.45 38.25 56.05 47.2 54.0 48.65 56.75 43.75 69.05 M48.0 24.8 Q34.25 59.6 13.6 90.6 7.15 100.3 0.0 109.6 M66.8 0.0 Q53.65 80.05 13.6 143.35 L12.4 145.2 M67.1 47.3 L45.15 118.0" fill="none" stroke="#000000" stroke-linecap="round" stroke-linejoin="round" stroke-opacity="0.08627451" stroke-width="0.30000000000000004"/>
    </g>
  </defs>
</svg>
