<?xml version="1.0" encoding="UTF-8" standalone="no"?>
<svg xmlns:xlink="http://www.w3.org/1999/xlink" height="52.0px" width="52.0px" xmlns="http://www.w3.org/2000/svg">
  <g transform="matrix(1.0, 0.0, 0.0, 1.0, 0.0, 0.0)">
    <use height="54.0" transform="matrix(1.0, 0.0, 0.0, 1.0, -1.0, -1.0)" width="54.0" xlink:href="#shape0"/>
    <use height="0.0" transform="matrix(0.1269, -0.0049, -0.0553, 0.1187, 22.35, 12.85)" width="0.0" xlink:href="#sprite0"/>
    <use height="0.0" transform="matrix(0.0874, -0.0034, -0.0903, 0.1938, 31.25, 31.35)" width="0.0" xlink:href="#sprite0"/>
    <use height="81.5" transform="matrix(0.128, 0.019, -0.0157, 0.1454, 8.1, 29.65)" width="81.5" xlink:href="#sprite1"/>
    <use height="81.5" transform="matrix(0.128, 0.019, -0.0157, 0.1454, 33.55, 6.35)" width="81.5" xlink:href="#sprite1"/>
  </g>
  <defs>
    <g id="shape0" transform="matrix(1.0, 0.0, 0.0, 1.0, 1.0, 1.0)">
      <path d="M52.0 0.0 L52.0 52.0 0.0 52.0 0.0 0.0 52.0 0.0" fill="#795fa9" fill-opacity="0.0" fill-rule="evenodd" stroke="none"/>
      <path d="M32.0 5.65 L33.2 5.75 33.25 5.75 34.35 5.95 Q38.0 7.4 40.3 10.45 L43.05 16.55 44.15 16.65 45.25 16.75 46.25 17.8 48.0 21.95 47.45 23.7 45.4 25.4 44.65 25.6 42.3 25.1 42.3 25.15 40.15 29.35 40.1 29.4 37.9 33.05 Q33.85 39.6 27.05 46.45 L25.15 47.4 23.3 47.15 21.05 42.55 17.1 42.6 15.35 43.45 13.8 46.4 12.85 47.25 11.45 47.45 7.1 42.5 6.85 41.8 7.2 40.2 6.95 38.5 8.8 26.85 7.3 27.2 6.5 27.1 4.7 24.95 4.0 23.15 4.5 21.0 4.55 20.8 5.5 19.5 7.25 18.65 11.15 18.4 14.2 11.0 21.25 6.35 29.5 5.4 32.0 5.65 M24.1 27.15 L21.85 25.0 18.65 27.3 18.95 25.85 19.45 25.1 19.65 24.85 Q24.25 23.5 28.7 23.7 L28.0 24.9 27.2 24.55 24.7 27.05 24.1 27.15" fill="none" stroke="#000000" stroke-linecap="round" stroke-linejoin="round" stroke-opacity="0.3019608" stroke-width="1.0"/>
      <path d="M13.45 16.85 L16.7 11.2 14.2 11.0 17.05 10.6 20.95 6.7 17.4 10.75 14.35 16.7 15.2 18.55 17.9 18.5 21.05 17.85 26.15 14.45 33.0 9.95 26.45 14.55 22.75 17.6 30.5 17.4 30.5 17.8 Q20.05 17.9 15.6 19.9 12.95 23.0 13.1 27.65 L12.7 27.65 12.5 26.0 12.5 25.3 Q12.6 22.35 15.1 19.25 L13.45 16.85 M7.1 42.5 L6.85 41.8 8.1 41.9 9.6 40.4 12.35 35.5 13.25 35.75 19.15 35.9 12.65 36.3 12.45 36.6 9.95 41.0 10.35 41.75 Q10.0 42.1 10.55 43.05 L10.55 43.6 Q9.5 42.3 8.25 42.5 L7.1 42.5 M7.2 40.2 L6.95 38.5 8.55 28.8 7.45 38.55 11.3 35.25 14.8 30.8 11.9 35.4 7.2 40.2 M4.0 23.15 L4.5 21.0 5.85 19.85 6.0 20.8 4.0 23.15 M9.45 18.5 L11.15 18.4 10.35 20.3 7.1 20.1 9.45 18.5 M32.2 24.35 L34.55 21.1 37.45 12.95 Q38.3 11.2 37.95 9.5 L37.15 8.45 35.15 8.55 32.45 7.65 33.2 5.8 37.25 7.85 38.05 8.8 Q38.75 9.95 38.55 11.4 L38.1 13.05 35.9 19.15 35.9 19.25 33.85 25.2 33.55 25.85 28.8 33.05 32.2 24.35 M43.0 16.6 L44.35 17.0 42.95 17.95 41.85 17.85 41.8 17.85 40.65 17.75 42.35 16.45 43.0 16.6 M42.9 22.25 L43.05 23.0 43.2 24.25 41.25 23.3 42.9 22.25 M19.5 38.5 L22.3 41.05 22.1 41.05 20.45 41.3 19.5 38.5" fill="#ffff98" fill-rule="evenodd" stroke="none"/>
      <path d="M13.45 16.85 L15.1 19.25 Q12.6 22.35 12.5 25.3 L12.5 26.0 12.7 27.65 13.1 27.65 13.65 27.7 14.2 27.7 14.8 27.7 15.55 29.65 14.8 30.8 11.3 35.25 7.45 38.55 8.55 28.8 8.8 26.85 9.0 25.2 9.3 22.85 9.0 25.2 5.55 26.05 4.7 24.95 4.0 23.15 6.0 20.8 7.1 20.1 10.35 20.3 9.3 22.85 13.45 16.85 M30.5 17.8 L30.5 17.4 22.75 17.6 26.45 14.55 33.0 9.95 35.15 8.55 37.15 8.45 37.95 9.5 Q38.3 11.2 37.45 12.95 L34.55 21.1 32.2 24.35 27.45 26.0 27.4 25.95 27.8 25.3 28.0 24.9 28.7 23.7 30.0 20.45 30.15 19.95 30.35 18.95 30.45 18.3 30.5 17.8 M20.95 6.7 L17.05 10.6 14.2 11.0 20.9 6.6 20.95 6.7 M33.25 5.75 L34.35 5.95 Q38.0 7.4 40.3 10.45 L41.15 13.1 Q39.6 9.85 38.05 8.8 L37.25 7.85 33.2 5.8 33.25 5.75 M27.05 46.45 L25.15 47.4 24.85 45.65 Q24.5 43.45 23.75 42.05 L22.9 41.0 24.25 39.9 Q23.95 41.25 24.8 43.85 26.0 46.3 27.05 46.45 M37.55 19.0 L38.5 18.6 40.55 18.35 42.2 18.8 42.45 21.55 40.9 23.25 37.6 22.55 37.55 22.55 37.2 21.2 37.55 19.0 M36.95 28.2 L34.95 27.45 33.55 25.85 33.85 25.2 34.95 26.9 36.95 28.2" fill="#ffde4f" fill-rule="evenodd" stroke="none"/>
      <path d="M14.2 11.0 L16.7 11.2 13.45 16.85 9.3 22.85 10.35 20.3 11.15 18.4 14.2 11.0 M33.0 9.95 L26.15 14.45 32.45 7.65 35.15 8.55 33.0 9.95 M43.05 16.55 L44.15 16.65 45.25 16.75 46.25 17.8 44.35 17.0 43.0 16.6 43.05 16.55 M17.1 42.6 L15.35 43.45 14.2 39.55 17.1 42.6 M8.8 26.85 L7.3 27.2 6.5 27.1 5.55 26.05 9.0 25.2 8.8 26.85 M7.25 18.65 L9.45 18.5 7.1 20.1 6.0 20.8 5.85 19.85 7.25 18.65 M27.45 26.0 L32.2 24.35 28.8 33.05 24.25 39.9 22.9 41.0 22.3 41.05 19.5 38.5 19.15 35.9 13.25 35.75 12.35 35.5 11.9 35.4 14.8 30.8 15.55 29.65 20.85 27.45 22.7 27.3 23.5 27.2 24.1 27.15 24.7 27.05 26.2 26.85 26.9 26.75 27.4 26.0 27.45 26.0" fill="#cc6b22" fill-rule="evenodd" stroke="none"/>
      <path d="M26.15 14.45 L21.05 17.85 17.9 18.5 15.2 18.55 14.35 16.7 17.4 10.75 20.95 6.7 21.25 6.35 29.5 5.4 32.0 5.65 33.2 5.8 32.45 7.65 26.15 14.45 M45.4 25.4 L44.65 25.6 42.3 25.1 42.25 25.1 38.7 24.35 38.05 23.9 37.6 22.6 37.6 22.55 40.9 23.25 42.45 21.55 42.2 18.8 40.55 18.35 38.5 18.6 37.55 19.0 37.55 18.8 38.5 17.75 39.7 17.35 38.1 13.05 38.55 11.4 38.7 12.3 41.25 16.8 41.1 16.85 41.25 16.8 42.35 16.45 40.65 17.75 41.8 17.85 41.85 17.85 42.95 17.95 42.9 19.4 42.9 22.25 41.25 23.3 43.2 24.25 45.4 25.4 M24.8 47.35 L23.3 47.15 21.05 42.55 20.45 41.3 22.1 41.05 21.55 41.7 Q21.45 43.15 23.6 46.05 L24.8 47.35 M13.8 46.4 L12.85 47.25 10.55 43.6 10.55 43.05 13.8 46.4 M6.85 41.8 L7.2 40.2 11.9 35.4 12.35 35.5 9.6 40.4 8.1 41.9 6.85 41.8 M4.5 21.0 L4.55 20.8 5.5 19.5 7.25 18.65 5.85 19.85 4.5 21.0 M40.15 17.2 L39.7 17.35 40.15 17.2 41.1 16.85 39.3 14.1 40.15 17.2 M18.3 23.35 L19.45 25.1 18.95 25.85 18.3 23.35 M20.85 27.45 L15.55 29.65 14.8 27.7 16.6 27.7 17.45 27.65 18.15 27.65 18.65 27.6 19.85 27.55 20.85 27.45 M12.45 36.6 L10.35 41.75 9.95 41.0 12.45 36.6" fill="#f4a33c" fill-rule="evenodd" stroke="none"/>
      <path d="M20.9 6.6 L21.25 6.35 20.95 6.7 20.9 6.6" fill="#d0c586" fill-rule="evenodd" stroke="none"/>
      <path d="M32.0 5.65 L33.25 5.75 33.2 5.8 32.0 5.65 M37.6 22.55 L37.6 22.6 37.55 22.55 37.6 22.55" fill="#a89e64" fill-rule="evenodd" stroke="none"/>
      <path d="M40.15 29.35 L40.1 29.4 36.95 28.2 34.95 26.9 33.85 25.2 35.9 19.25 35.9 19.15 38.1 13.05 39.7 17.35 38.5 17.75 37.55 18.8 37.55 19.0 37.2 21.2 37.55 22.55 37.5 22.6 38.05 23.9 40.15 29.35 M25.15 47.4 L24.8 47.35 23.6 46.05 Q21.45 43.15 21.55 41.7 L22.1 41.05 22.3 41.05 22.9 41.0 23.75 42.05 Q24.5 43.45 24.85 45.65 L25.15 47.4 M12.85 47.25 L11.45 47.45 7.1 42.5 8.25 42.5 Q9.5 42.3 10.55 43.6 L12.85 47.25 M38.05 8.8 Q39.6 9.85 41.15 13.1 L42.8 16.5 42.35 16.45 41.25 16.8 38.7 12.3 38.55 11.4 Q38.75 9.95 38.05 8.8 M40.15 17.2 L39.3 14.1 41.1 16.85 40.15 17.2 M42.95 17.95 L44.35 17.0 46.3 19.75 46.1 21.9 44.9 23.0 42.9 19.4 42.95 17.95" fill="#a34100" fill-rule="evenodd" stroke="none"/>
      <path d="M42.35 16.45 L42.8 16.5 43.05 16.55 43.0 16.6 42.35 16.45" fill="#a19860" fill-rule="evenodd" stroke="none"/>
      <path d="M13.1 27.65 Q12.95 23.0 15.6 19.9 L16.0 20.45 17.3 22.95 17.85 22.6 18.3 23.35 18.95 25.85 18.65 27.3 18.15 27.65 16.15 25.8 13.65 27.7 13.1 27.65 M40.3 10.45 L43.05 16.55 42.8 16.5 41.15 13.1 40.3 10.45 M46.25 17.8 L48.0 21.95 47.45 23.7 45.4 25.4 43.2 24.25 43.05 23.0 42.9 22.25 42.9 19.4 44.9 23.0 46.1 21.9 46.3 19.75 44.35 17.0 46.25 17.8 M42.3 25.15 L40.15 29.35 38.05 23.9 38.7 24.35 42.25 25.1 42.3 25.15 M40.1 29.4 L37.9 33.05 34.95 27.45 36.95 28.2 40.1 29.4 M15.35 43.45 L13.8 46.4 10.55 43.05 Q10.0 42.1 10.35 41.75 L12.45 36.6 12.65 36.3 14.2 39.55 15.35 43.45" fill="#7e2601" fill-rule="evenodd" stroke="none"/>
      <path d="M37.6 22.6 L38.05 23.9 37.5 22.6 37.55 22.6 37.6 22.6" fill="#443f2b" fill-rule="evenodd" stroke="none"/>
      <path d="M37.6 22.6 L37.55 22.6 37.5 22.6 37.55 22.55 37.6 22.6" fill="#5f5a3a" fill-rule="evenodd" stroke="none"/>
      <path d="M15.6 19.9 Q20.05 17.9 30.5 17.8 L30.45 18.3 29.5 18.3 27.55 18.3 28.95 20.7 29.05 20.9 30.0 20.45 28.7 23.7 Q24.25 23.5 19.65 24.85 L19.45 25.1 18.3 23.35 17.85 22.6 21.15 20.2 20.7 19.45 19.8 19.65 19.65 19.65 17.9 20.05 16.0 20.45 15.6 19.9 M37.9 33.05 Q33.85 39.6 27.05 46.45 26.0 46.3 24.8 43.85 23.95 41.25 24.25 39.9 L28.8 33.05 33.55 25.85 34.95 27.45 37.9 33.05 M21.05 42.55 L17.1 42.6 14.2 39.55 12.65 36.3 19.15 35.9 19.5 38.5 20.45 41.3 21.05 42.55 M23.0 22.25 L27.5 19.1 27.15 18.4 26.0 18.6 23.8 18.95 21.5 19.35 23.0 22.25" fill="#8f3600" fill-rule="evenodd" stroke="none"/>
      <path d="M42.3 25.1 L42.3 25.15 42.25 25.1 42.3 25.1" fill="#544d34" fill-rule="evenodd" stroke="none"/>
      <path d="M29.8 19.65 Q29.9 18.9 29.5 18.3 L30.45 18.3 30.35 18.95 29.8 19.65 M23.8 18.95 L26.0 18.6 24.1 20.95 Q24.5 19.45 23.8 18.95 M22.7 27.3 L20.85 27.45 19.85 27.55 Q21.7 26.95 22.05 25.6 L22.7 27.3 M27.4 25.95 L27.4 26.0 26.9 26.75 26.2 26.85 27.35 25.4 27.4 25.95 M17.9 20.05 L19.65 19.65 18.15 21.75 Q18.7 20.35 17.9 20.05 M16.6 27.7 L14.8 27.7 14.2 27.7 Q16.0 27.45 16.4 26.75 L16.6 27.7" fill="#cac960" fill-rule="evenodd" stroke="none"/>
      <path d="M27.8 25.3 L27.4 25.95 27.35 25.4 27.2 24.55 27.8 25.3 M29.8 19.65 L30.35 18.95 30.15 19.95 29.05 20.9 28.95 20.7 29.8 19.65 M27.15 18.4 L23.0 22.25 24.1 20.95 26.0 18.6 27.15 18.4 M23.5 27.2 L22.7 27.3 22.05 25.6 21.85 25.0 23.5 27.2 M19.65 19.65 L19.8 19.65 20.7 19.45 17.3 22.95 18.15 21.75 19.65 19.65 M17.45 27.65 L16.6 27.7 16.4 26.75 16.15 25.8 17.45 27.65" fill="#ffffff" fill-rule="evenodd" stroke="none"/>
      <path d="M29.5 18.3 Q29.9 18.9 29.8 19.65 L28.95 20.7 27.55 18.3 29.5 18.3 M23.0 22.25 L21.5 19.35 23.8 18.95 Q24.5 19.45 24.1 20.95 L23.0 22.25 M26.2 26.85 L24.7 27.05 27.2 24.55 27.35 25.4 26.2 26.85 M21.85 25.0 L22.05 25.6 Q21.7 26.95 19.85 27.55 L18.65 27.6 18.15 27.65 18.65 27.3 21.85 25.0 M18.15 21.75 L17.3 22.95 16.0 20.45 17.9 20.05 Q18.7 20.35 18.15 21.75 M16.15 25.8 L16.4 26.75 Q16.0 27.45 14.2 27.7 L13.65 27.7 16.15 25.8" fill="#d5d580" fill-rule="evenodd" stroke="none"/>
      <path d="M30.15 19.95 L30.0 20.45 29.05 20.9 30.15 19.95 M28.0 24.9 L27.8 25.3 27.2 24.55 28.0 24.9 M27.15 18.4 L27.5 19.1 23.0 22.25 27.15 18.4 M20.7 19.45 L21.15 20.2 17.85 22.6 17.3 22.95 20.7 19.45 M24.1 27.15 L23.5 27.2 21.85 25.0 24.1 27.15 M18.15 27.65 L17.45 27.65 16.15 25.8 18.15 27.65" fill="#a6a637" fill-rule="evenodd" stroke="none"/>
      <path d="M27.4 25.95 L27.45 26.0 27.4 26.0 27.4 25.95" fill="#bfb072" fill-rule="evenodd" stroke="none"/>
      <path d="M12.7 27.65 L13.1 27.65 Q12.95 23.0 15.6 19.9 20.05 17.9 30.5 17.8 L30.45 18.3 29.5 18.3 27.55 18.3 28.95 20.7 29.05 20.9 30.0 20.45 28.7 23.7 28.0 24.9 27.8 25.3 27.4 25.95 27.4 26.0 26.9 26.75 26.2 26.85 24.7 27.05 24.1 27.15 23.5 27.2 22.7 27.3 20.85 27.45 19.85 27.55 18.65 27.6 18.15 27.65 17.45 27.65 16.6 27.7 14.8 27.7 14.2 27.7 13.65 27.7 16.15 25.8 18.15 27.65 18.65 27.3 18.95 25.85 18.3 23.35 19.45 25.1 19.65 24.85 Q24.25 23.5 28.7 23.7 M14.2 11.0 L20.9 6.6 21.25 6.35 29.5 5.4 32.0 5.65 33.25 5.75 34.35 5.95 Q38.0 7.4 40.3 10.45 L43.05 16.55 44.15 16.65 45.25 16.75 46.25 17.8 48.0 21.95 47.45 23.7 45.4 25.4 44.65 25.6 42.3 25.1 42.3 25.15 40.15 29.35 40.1 29.4 37.9 33.05 Q33.85 39.6 27.05 46.45 L25.15 47.4 24.8 47.35 23.3 47.15 21.05 42.55 17.1 42.6 15.35 43.45 13.8 46.4 12.85 47.25 11.45 47.45 7.1 42.5 6.85 41.8 7.2 40.2 6.95 38.5 8.55 28.8 8.8 26.85 7.3 27.2 6.5 27.1 5.55 26.05 4.7 24.95 4.0 23.15 4.5 21.0 4.55 20.8 5.5 19.5 7.25 18.65 9.45 18.5 11.15 18.4 14.2 11.0 M21.25 6.35 L20.95 6.7 M33.2 5.8 L32.0 5.65 M38.05 8.8 Q39.6 9.85 41.15 13.1 M39.7 17.35 L40.15 17.2 41.1 16.85 41.25 16.8 42.35 16.45 42.8 16.5 43.05 16.55 M39.3 14.1 L41.1 16.85 M37.6 22.6 L38.05 23.9 38.7 24.35 42.25 25.1 42.3 25.1 M37.55 19.0 L37.55 18.8 38.5 17.75 39.7 17.35 M37.55 22.55 L37.2 21.2 37.55 19.0 M37.6 22.6 L37.55 22.55 37.6 22.55 M42.3 25.15 L42.25 25.1 M30.15 19.95 L30.0 20.45 M30.35 18.95 L30.45 18.3 M30.35 18.95 L30.15 19.95 M23.0 22.25 L27.5 19.1 27.15 18.4 26.0 18.6 23.8 18.95 21.5 19.35 23.0 22.25 M20.7 19.45 L21.15 20.2 17.85 22.6 18.3 23.35 M19.15 35.9 L19.5 38.5 20.45 41.3 21.05 42.55 M21.85 25.0 L24.1 27.15 M21.85 25.0 L18.65 27.3 M27.4 26.0 L27.45 26.0 M27.2 24.55 L24.7 27.05 M27.2 24.55 L28.0 24.9 M17.9 20.05 L19.65 19.65 M19.8 19.65 L20.7 19.45 M17.3 22.95 L17.85 22.6 M16.0 20.45 L15.6 19.9 M17.3 22.95 L16.0 20.45 17.9 20.05 M9.3 22.85 L9.0 25.2 8.8 26.85 M9.3 22.85 L10.35 20.3 11.15 18.4 M13.65 27.7 L13.1 27.65 M18.95 25.85 L19.45 25.1 M10.55 43.05 L13.8 46.4 M14.2 39.55 L15.35 43.45 M14.2 39.55 L17.1 42.6 M5.55 26.05 L9.0 25.2" fill="none" stroke="#000000" stroke-linecap="round" stroke-linejoin="round" stroke-opacity="0.3019608" stroke-width="0.30000000000000004"/>
      <path d="M18.7 11.35 Q19.55 11.4 20.05 12.05 L20.2 12.25 Q20.5 12.9 20.3 13.7 20.05 14.65 19.2 15.35 18.4 15.95 17.55 16.05 L17.35 16.05 Q16.4 16.05 15.85 15.35 L15.65 15.0 Q15.4 14.4 15.55 13.7 L15.9 12.9 16.7 12.0 Q17.55 11.35 18.55 11.35 L18.7 11.35 M32.0 9.7 Q32.85 9.75 33.35 10.4 L33.5 10.6 Q33.8 11.25 33.6 12.1 33.4 13.05 32.5 13.75 31.7 14.35 30.85 14.4 L30.65 14.4 Q29.7 14.4 29.15 13.7 L28.95 13.35 Q28.75 12.75 28.9 12.05 L29.2 11.3 30.0 10.4 Q30.9 9.7 31.85 9.7 L32.0 9.7" fill="#a34100" fill-rule="evenodd" stroke="none"/>
      <path d="M15.6 12.35 Q15.25 13.8 15.8 13.95 L16.7 13.8 Q17.4 13.45 18.3 12.5 L17.35 13.75 16.85 14.1 16.0 14.4 15.5 14.45 15.35 14.45 Q15.1 13.85 15.25 13.15 L15.6 12.35 M28.65 12.8 Q28.45 12.2 28.6 11.5 L28.9 10.75 Q28.55 12.2 29.15 12.3 L30.0 12.15 31.6 10.9 Q31.3 11.6 30.65 12.1 L30.15 12.45 29.3 12.8 28.8 12.8 28.65 12.8" fill="#ffffff" fill-rule="evenodd" stroke="none"/>
      <path d="M18.3 12.5 L18.45 12.1 Q18.65 11.35 18.4 10.8 19.25 10.85 19.75 11.5 L19.9 11.7 Q19.95 13.55 18.6 14.35 L17.05 14.85 Q16.4 14.85 16.0 14.4 L16.85 14.1 17.35 13.75 18.3 12.5 M31.7 9.15 Q32.55 9.2 33.05 9.85 L33.2 10.05 Q33.25 11.9 31.95 12.75 L30.35 13.2 Q29.7 13.25 29.3 12.8 L30.15 12.45 30.65 12.1 Q31.3 11.6 31.6 10.9 L31.75 10.45 Q31.95 9.75 31.7 9.15" fill="#a6a637" fill-rule="evenodd" stroke="none"/>
      <path d="M16.0 14.4 Q16.4 14.85 17.05 14.85 L18.6 14.35 Q19.95 13.55 19.9 11.7 20.2 12.35 20.0 13.15 19.75 14.1 18.9 14.8 18.1 15.4 17.25 15.5 L17.05 15.5 Q16.1 15.5 15.55 14.8 L15.35 14.45 15.5 14.45 16.0 14.4 M33.2 10.05 Q33.5 10.7 33.3 11.55 33.1 12.5 32.2 13.2 31.4 13.8 30.55 13.85 L30.35 13.85 Q29.4 13.85 28.85 13.15 L28.65 12.8 28.8 12.8 29.3 12.8 Q29.7 13.25 30.35 13.2 L31.95 12.75 Q33.25 11.9 33.2 10.05" fill="#cac960" fill-rule="evenodd" stroke="none"/>
      <path d="M18.4 10.8 Q18.65 11.35 18.45 12.1 L18.3 12.5 Q17.4 13.45 16.7 13.8 L15.8 13.95 Q15.25 13.8 15.6 12.35 L16.4 11.45 Q17.25 10.8 18.25 10.8 L18.4 10.8 M28.9 10.75 L29.7 9.85 Q30.6 9.15 31.55 9.15 L31.7 9.15 Q31.95 9.75 31.75 10.45 L31.6 10.9 30.0 12.15 29.15 12.3 Q28.55 12.2 28.9 10.75" fill="#e6e4b3" fill-rule="evenodd" stroke="none"/>
      <path d="M18.4 10.8 L18.25 10.8 Q17.25 10.8 16.4 11.45 L15.6 12.35 15.25 13.15 Q15.1 13.85 15.35 14.45 L15.55 14.8 Q16.1 15.5 17.05 15.5 L17.25 15.5 Q18.1 15.4 18.9 14.8 19.75 14.1 20.0 13.15 20.2 12.35 19.9 11.7 L19.75 11.5 Q19.25 10.85 18.4 10.8 M28.9 10.75 L29.7 9.85 Q30.6 9.15 31.55 9.15 L31.7 9.15 Q32.55 9.2 33.05 9.85 L33.2 10.05 Q33.5 10.7 33.3 11.55 33.1 12.5 32.2 13.2 31.4 13.8 30.55 13.85 L30.35 13.85 Q29.4 13.85 28.85 13.15 L28.65 12.8 Q28.45 12.2 28.6 11.5 L28.9 10.75" fill="none" stroke="#000000" stroke-linecap="round" stroke-linejoin="round" stroke-opacity="0.3019608" stroke-width="0.30000000000000004"/>
    </g>
    <g id="sprite1" transform="matrix(1.0, 0.0, 0.0, 1.0, 0.0, 0.0)">
      <use height="26.7" transform="matrix(0.0042, -1.3515, 1.3935, 0.02, 22.09, 56.0263)" width="26.7" xlink:href="#sprite2"/>
      <use height="26.7" transform="matrix(0.0095, -3.0486, 0.372, 0.0053, 36.507, 81.3775)" width="26.7" xlink:href="#sprite2"/>
      <use height="26.7" transform="matrix(3.0486, 0.0095, -0.0053, 0.372, 0.1225, 35.107)" width="26.7" xlink:href="#sprite2"/>
    </g>
    <g id="sprite2" transform="matrix(1.0, 0.0, 0.0, 1.0, 13.35, 13.35)">
      <use height="26.7" transform="matrix(1.0, 0.0, 0.0, 1.0, -13.35, -13.35)" width="26.7" xlink:href="#shape1"/>
    </g>
    <g id="shape1" transform="matrix(1.0, 0.0, 0.0, 1.0, 13.35, 13.35)">
      <path d="M9.3 -9.85 Q13.35 -5.8 13.35 0.0 13.35 5.8 9.3 9.3 5.8 13.35 0.0 13.35 -5.8 13.35 -9.85 9.3 -13.35 5.8 -13.35 0.0 -13.35 -5.8 -9.85 -9.85 -5.8 -13.35 0.0 -13.35 5.8 -13.35 9.3 -9.85" fill="url(#gradient0)" fill-rule="evenodd" stroke="none"/>
    </g>
    <radialGradient cx="0" cy="0" gradientTransform="matrix(0.0213, 0.0, 0.0, 0.0213, 0.0, 0.0)" gradientUnits="userSpaceOnUse" id="gradient0" r="819.2" spreadMethod="pad">
      <stop offset="0.19607843137254902" stop-color="#fee3bc" stop-opacity="0.41960785"/>
      <stop offset="0.5019607843137255" stop-color="#fee3bc" stop-opacity="0.06666667"/>
      <stop offset="0.7607843137254902" stop-color="#ffe3bd" stop-opacity="0.0"/>
    </radialGradient>
  </defs>
</svg>
