<?xml version="1.0" encoding="UTF-8" standalone="no"?>
<svg xmlns:xlink="http://www.w3.org/1999/xlink" height="52.0px" width="52.0px" xmlns="http://www.w3.org/2000/svg">
  <g transform="matrix(1.0, 0.0, 0.0, 1.0, 0.0, 0.0)">
    <use height="56.0" transform="matrix(1.0, 0.0, 0.0, 1.0, -2.0, -2.0)" width="56.0" xlink:href="#shape0"/>
    <use height="81.5" transform="matrix(0.0575, 0.0, 0.0, 0.0575, 21.65, 20.0)" width="81.5" xlink:href="#sprite0"/>
    <use height="81.5" transform="matrix(0.0478, 0.0, 0.0, 0.0478, 11.55, 17.9)" width="81.5" xlink:href="#sprite0"/>
    <use height="158.05" transform="matrix(0.0201, -0.3571, -0.2011, -0.0152, 40.6358, 45.7792)" width="74.3" xlink:href="#sprite2"/>
    <use height="158.05" transform="matrix(0.0405, -0.2613, -0.1539, -0.0476, 32.5851, 32.4317)" width="74.3" xlink:href="#sprite2"/>
    <use height="0.0" transform="matrix(0.1396, 0.0608, -0.11, 0.2451, 24.5, 25.25)" width="0.0" xlink:href="#sprite3"/>
  </g>
  <defs>
    <g id="shape0" transform="matrix(1.0, 0.0, 0.0, 1.0, 2.0, 2.0)">
      <path d="M52.0 0.0 L52.0 52.0 0.0 52.0 0.0 0.0 52.0 0.0" fill="#795fa9" fill-opacity="0.0" fill-rule="evenodd" stroke="none"/>
      <path d="M47.35 21.55 L48.35 23.3 45.25 25.9 35.75 31.45 34.5 31.6 33.05 33.15 30.4 33.15 30.6 35.8 29.1 38.85 29.75 40.55 30.35 42.25 29.4 44.2 27.75 45.25 20.25 44.6 5.3 39.05 4.0 37.1 3.65 35.85 3.65 35.3 6.1 31.7 7.65 30.95 9.55 30.95 10.7 32.1 12.1 29.4 13.4 28.5 12.75 27.2 11.35 26.8 11.15 26.65 9.65 25.1 9.3 23.4 9.65 22.75 8.9 18.95 7.25 15.2 7.25 13.8 8.5 13.35 12.0 13.75 15.15 15.0 17.2 13.3 18.3 11.45 20.5 9.9 24.4 6.8 28.25 6.6 30.15 7.45 31.95 9.55 33.75 10.85 34.45 12.35 37.15 19.05 40.75 19.95 43.3 21.15 46.95 21.45 47.35 21.55 Z" fill="none" stroke="#000000" stroke-linecap="round" stroke-linejoin="round" stroke-opacity="0.3019608" stroke-width="1.0"/>
      <path d="M13.45 32.95 L13.5 32.9 13.55 33.05 13.45 32.95 M14.5 32.3 L14.45 32.1 14.5 32.1 14.5 32.3 M19.7 37.45 L19.7 37.55 19.55 37.45 19.7 37.45" fill="#92f458" fill-rule="evenodd" stroke="none"/>
      <path d="M18.8 32.25 L18.85 32.35 18.15 32.45 18.8 32.25 M19.85 37.45 L19.85 37.55 19.7 37.55 19.7 37.45 19.85 37.45" fill="#d1fba6" fill-rule="evenodd" stroke="none"/>
      <path d="M15.95 26.7 L16.05 27.3 15.95 26.7 16.75 26.8 16.8 26.8 18.15 32.45 18.85 32.35 18.8 32.25 20.2 31.95 22.05 31.5 23.25 30.25 25.1 28.25 26.2 29.0 24.2 31.0 23.65 30.45 22.55 31.45 22.95 32.25 22.65 32.6 17.5 33.4 16.6 33.95 16.35 33.4 14.5 34.55 14.7 35.05 12.4 36.5 12.4 38.05 11.7 37.9 11.2 37.9 11.2 37.15 11.2 36.35 13.6 34.7 13.55 33.05 13.5 32.9 13.45 32.95 13.45 32.9 12.65 30.8 12.35 30.45 12.1 30.35 10.95 32.4 10.7 32.1 10.95 32.4 13.35 34.8 12.6 34.4 9.85 33.45 8.85 33.15 7.3 34.0 4.4 35.6 4.9 37.05 6.15 37.05 8.55 37.65 11.65 38.4 12.75 38.6 14.7 39.2 Q15.15 37.7 14.5 36.0 L17.7 33.95 18.7 33.75 17.6 34.5 Q17.35 35.2 17.6 36.95 L17.95 37.85 Q18.55 39.25 19.4 40.1 L19.6 40.25 23.55 41.5 19.1 40.55 25.75 43.6 27.8 45.25 22.6 44.8 25.55 44.9 26.9 44.95 25.05 43.65 18.95 40.85 16.2 40.0 12.95 39.0 9.85 38.45 5.95 37.3 4.4 37.3 4.4 37.65 4.0 37.05 4.9 37.05 3.7 35.85 3.7 35.25 6.15 31.7 7.7 30.95 8.85 30.95 9.1 31.2 Q9.55 31.85 9.45 32.8 L10.95 33.55 Q10.1 32.35 10.45 31.8 L10.7 32.1 12.1 29.4 15.95 26.7 M15.35 33.55 L13.6 34.7 15.35 33.55 16.8 32.55 16.05 27.3 14.55 28.25 Q14.05 28.95 14.1 30.05 L14.25 31.2 14.5 32.1 14.45 32.1 14.5 32.3 14.65 32.45 15.35 33.55 M28.05 29.55 L28.6 29.7 28.6 34.4 28.35 34.65 27.35 35.6 26.35 36.6 28.3 34.15 28.05 29.55 M10.95 33.55 L12.6 34.4 10.95 33.55 M24.55 31.55 L26.15 30.1 25.1 31.65 25.65 34.65 24.55 31.55 M23.5 37.15 L24.55 37.05 25.55 37.0 25.85 37.05 27.9 37.65 28.75 37.9 27.8 38.05 27.4 38.3 26.5 38.75 25.85 39.1 26.35 41.0 27.5 41.95 28.55 42.1 29.55 42.2 27.5 42.2 25.9 41.3 25.55 40.15 24.4 38.85 19.85 37.55 19.85 37.45 23.5 37.15" fill="#d0c586" fill-rule="evenodd" stroke="none"/>
      <path d="M10.95 32.4 L12.1 30.35 12.35 30.45 12.65 30.8 13.45 32.9 13.45 32.95 13.55 33.05 13.6 34.7 11.2 36.35 11.2 37.15 10.9 36.65 Q10.2 35.4 9.95 34.25 L9.85 33.45 12.6 34.4 13.35 34.8 10.95 32.4 M15.35 33.55 L14.65 32.45 14.5 32.3 14.5 32.1 14.25 31.2 14.1 30.05 Q14.05 28.95 14.55 28.25 L16.05 27.3 16.8 32.55 15.35 33.55 M27.0 29.2 L28.05 29.55 28.3 34.15 26.35 36.6 25.65 34.65 25.1 31.65 26.15 30.1 27.0 29.2 M8.55 37.65 L6.15 37.05 4.9 37.05 4.4 35.6 7.3 34.0 7.9 35.0 Q8.45 36.1 8.55 37.65 M12.75 38.6 L12.75 37.15 14.5 36.0 Q15.15 37.7 14.7 39.2 L12.75 38.6 M18.7 33.75 L18.8 33.75 20.95 33.45 22.95 33.45 Q23.6 34.0 24.05 35.2 L24.55 37.05 23.5 37.15 19.85 37.45 19.7 37.45 19.55 37.45 19.7 37.55 19.85 37.55 24.4 38.85 25.55 40.15 25.9 41.3 25.75 41.35 24.5 41.7 23.55 41.5 19.6 40.25 19.4 40.1 Q18.55 39.25 17.95 37.85 L17.6 36.95 Q17.35 35.2 17.6 34.5 L18.7 33.75" fill="#a89e64" fill-rule="evenodd" stroke="none"/>
      <path d="M28.6 29.7 L30.15 30.15 28.8 33.85 28.6 34.4 28.6 29.7 M29.15 38.85 L29.75 40.55 27.4 38.3 27.8 38.05 28.75 37.9 29.15 38.85 M27.95 45.1 L27.8 45.25 25.75 43.6 24.5 41.7 25.75 41.35 25.3 42.15 26.15 43.45 27.95 45.1 M9.35 40.55 L5.35 39.05 4.4 37.65 4.4 37.3 5.45 38.7 9.35 40.55 M4.0 37.05 L3.7 35.85 4.9 37.05 4.0 37.05 M8.85 30.95 L9.55 30.95 10.4 31.8 10.45 31.8 Q10.1 32.35 10.95 33.55 L9.45 32.8 Q9.55 31.85 9.1 31.2 L8.85 30.95 M16.8 26.8 L18.8 32.25 18.15 32.45 16.8 26.8 M8.55 37.65 Q8.45 36.1 7.9 35.0 L7.3 34.0 8.85 33.15 9.85 33.45 9.95 34.25 Q10.2 35.4 10.9 36.65 L11.2 37.15 11.2 37.9 11.65 38.4 8.55 37.65 M16.6 33.95 L14.7 35.05 14.5 34.55 16.35 33.4 16.6 33.95 M20.95 33.45 L22.9 33.15 24.55 31.55 25.65 34.65 26.35 36.6 25.85 37.05 26.35 36.6 27.35 35.6 27.9 37.65 25.85 37.05 25.55 37.0 24.55 37.05 24.05 35.2 Q23.6 34.0 22.95 33.45 L20.95 33.45 M22.95 32.25 L22.55 31.45 23.65 30.45 24.2 31.0 22.95 32.25 M28.35 34.65 L28.6 34.4 28.8 33.85 29.95 32.25 30.2 35.45 29.6 37.05 28.35 34.65 M28.55 42.1 L27.5 41.95 26.35 41.0 25.85 39.1 26.5 38.75 28.55 42.1" fill="#696141" fill-rule="evenodd" stroke="none"/>
      <path d="M26.2 29.0 L27.0 29.2 26.15 30.1 24.55 31.55 22.9 33.15 20.95 33.45 18.8 33.75 18.7 33.75 17.7 33.95 14.5 36.0 12.75 37.15 12.75 38.6 12.4 38.05 12.4 36.5 14.7 35.05 16.6 33.95 17.5 33.4 22.65 32.6 22.95 32.25 24.2 31.0 26.2 29.0 M30.15 30.15 L30.65 35.75 29.15 38.85 28.75 37.9 27.9 37.65 27.35 35.6 28.35 34.65 29.6 37.05 30.2 35.45 29.95 32.25 28.8 33.85 30.15 30.15 M29.75 40.55 L30.4 42.2 29.4 44.2 27.95 45.1 26.15 43.45 25.3 42.15 25.75 41.35 25.9 41.3 27.5 42.2 27.8 42.55 29.5 43.55 30.4 42.2 29.55 42.2 28.55 42.1 26.5 38.75 27.4 38.3 29.75 40.55 M22.6 44.8 L20.25 44.55 12.9 41.85 12.2 40.7 12.0 40.5 10.7 39.15 9.85 38.45 12.95 39.0 16.2 40.0 16.7 41.2 Q18.3 43.2 20.25 44.15 L25.55 44.9 22.6 44.8 M23.55 41.5 L24.5 41.7 25.75 43.6 19.1 40.55 23.55 41.5" fill="#5f5a3a" fill-rule="evenodd" stroke="none"/>
      <path d="M12.9 41.85 L9.5 40.6 9.35 40.55 5.45 38.7 4.4 37.3 5.95 37.3 9.85 38.45 10.7 39.15 12.0 40.5 12.2 40.7 12.9 41.85 M16.2 40.0 L18.95 40.85 25.05 43.65 26.9 44.95 25.55 44.9 20.25 44.15 Q18.3 43.2 16.7 41.2 L16.2 40.0 M12.4 38.05 L12.75 38.6 11.65 38.4 11.2 37.9 11.7 37.9 12.4 38.05 M27.5 42.2 L29.55 42.2 30.4 42.2 29.5 43.55 27.8 42.55 27.5 42.2" fill="#49432e" fill-rule="evenodd" stroke="none"/>
      <path d="M17.45 26.85 L23.95 27.5 25.1 28.25 23.25 30.25 21.1 30.45 20.6 30.25 20.35 30.15 20.15 30.05 Q18.6 28.7 17.85 27.35 L19.15 31.35 19.3 31.8 20.2 31.95 18.8 32.25 16.8 26.8 17.45 26.85" fill="#7e3301" fill-rule="evenodd" stroke="none"/>
      <path d="M20.2 31.95 L19.3 31.8 19.15 31.35 18.6 28.9 Q19.8 30.55 21.1 30.45 L23.25 30.25 22.05 31.5 20.2 31.95" fill="#a34100" fill-rule="evenodd" stroke="none"/>
      <path d="M19.15 31.35 L17.85 27.35 Q18.6 28.7 20.15 30.05 L20.35 30.15 20.6 30.25 21.1 30.45 Q19.8 30.55 18.6 28.9 L19.15 31.35" fill="#ca5202" fill-rule="evenodd" stroke="none"/>
      <path d="M16.05 27.3 L15.95 26.7 12.1 29.4 10.7 32.1 10.95 32.4 13.35 34.8 12.6 34.4 10.95 33.55 9.45 32.8 M13.6 34.7 L15.35 33.55 16.8 32.55 16.05 27.3 M17.45 26.85 L23.95 27.5 25.1 28.25 26.2 29.0 27.0 29.2 28.05 29.55 28.6 29.7 30.15 30.15 30.65 35.75 29.15 38.85 29.75 40.55 30.4 42.2 29.4 44.2 27.95 45.1 27.8 45.25 22.6 44.8 20.25 44.55 12.9 41.85 9.5 40.6 M9.35 40.55 L5.35 39.05 4.4 37.65 4.0 37.05 3.7 35.85 3.7 35.25 6.15 31.7 7.7 30.95 8.85 30.95 9.55 30.95 10.4 31.8 M10.45 31.8 L10.7 32.1 M16.8 26.8 L17.45 26.85 M15.95 26.7 L16.75 26.8 16.8 26.8 18.8 32.25 20.2 31.95 22.05 31.5 23.25 30.25 25.1 28.25 M18.15 32.45 L16.8 26.8 M16.6 33.95 L14.7 35.05 12.4 36.5 12.4 38.05 12.75 38.6 12.75 37.15 14.5 36.0 17.7 33.95 18.7 33.75 M18.8 33.75 L20.95 33.45 22.9 33.15 24.55 31.55 26.15 30.1 27.0 29.2 M16.6 33.95 L17.5 33.4 22.65 32.6 22.95 32.25 24.2 31.0 26.2 29.0 M11.2 37.15 L11.2 36.35 13.6 34.7 M11.2 37.9 L11.2 37.15 M12.4 38.05 L11.7 37.9 11.2 37.9 11.65 38.4 M18.15 32.45 L18.8 32.25 M25.85 37.05 L26.35 36.6 27.35 35.6 28.35 34.65 28.6 34.4 28.6 29.7 M24.55 37.05 L23.5 37.15 M25.9 41.3 L27.5 42.2 29.55 42.2 30.4 42.2 M28.75 37.9 L27.9 37.65 25.85 37.05 25.55 37.0 24.55 37.05 M24.5 41.7 L23.55 41.5 19.1 40.55 25.75 43.6 27.8 45.25 M24.5 41.7 L25.75 41.35 25.9 41.3 M28.8 33.85 L28.6 34.4 M28.75 37.9 L29.15 38.85 M28.8 33.85 L30.15 30.15 M27.8 42.55 L27.5 42.2" fill="none" stroke="#000000" stroke-linecap="round" stroke-linejoin="round" stroke-opacity="0.3019608" stroke-width="0.30000000000000004"/>
      <path d="M29.65 8.95 L29.7 8.85 30.6 9.1 29.65 8.95 M23.45 27.2 L23.5 27.3 23.45 27.3 23.45 27.2 M28.3 29.2 L28.4 29.2 28.4 29.55 28.3 29.2" fill="#92f458" fill-rule="evenodd" stroke="none"/>
      <path d="M11.4 18.45 L11.35 17.75 10.25 14.95 9.25 13.85 9.05 13.8 8.2 14.45 8.8 16.25 10.2 18.0 8.95 16.85 8.5 16.4 7.7 14.3 8.5 13.35 12.05 13.7 15.2 14.95 14.8 15.3 15.2 14.95 17.25 13.3 18.3 11.4 20.5 10.45 24.85 10.1 27.4 10.5 24.85 10.1 20.5 9.85 22.25 8.5 25.25 7.55 26.05 7.75 25.25 7.55 28.25 6.55 30.15 7.4 31.05 8.45 29.65 7.5 28.2 7.0 26.05 7.75 29.7 8.85 29.65 8.95 27.1 8.4 25.1 8.0 22.65 8.75 21.85 9.5 27.35 10.05 28.0 10.4 30.0 11.5 31.2 11.3 33.4 10.95 33.8 10.85 34.5 12.35 34.6 13.7 33.6 11.3 30.9 12.55 31.5 13.9 31.5 16.85 31.05 14.05 30.0 12.0 27.4 10.5 29.65 12.65 28.85 12.1 27.1 10.9 24.5 10.5 22.1 10.65 21.5 11.45 23.35 12.25 27.95 13.35 23.15 12.75 20.75 11.65 17.75 13.25 17.25 13.3 17.75 13.25 17.9 13.9 18.35 15.55 Q19.35 17.6 20.75 18.85 L21.9 19.7 22.0 19.7 23.8 18.35 25.4 14.3 21.5 13.25 18.7 13.1 21.0 12.75 27.65 14.35 31.2 17.05 31.7 18.3 32.75 20.8 30.6 17.0 28.15 15.1 Q28.0 16.05 28.0 16.95 L28.0 18.45 28.05 18.8 28.1 18.95 Q28.3 20.5 28.85 21.9 L30.8 23.4 24.25 19.2 21.35 21.2 21.3 21.2 21.1 21.4 19.4 20.55 16.9 21.1 15.75 21.45 16.9 21.1 19.4 20.55 21.75 24.1 21.35 26.2 19.6 26.8 14.4 25.85 11.4 24.75 12.5 23.2 13.45 22.2 15.75 21.45 15.55 19.65 15.25 18.7 14.1 16.5 11.0 20.05 10.75 19.1 11.0 18.8 11.4 18.45 13.35 16.6 11.4 18.45 M14.8 15.3 L12.3 14.3 Q12.25 15.95 13.35 16.6 L14.8 15.3 M37.2 19.0 L40.8 19.9 42.9 21.8 41.4 25.6 38.9 27.0 38.15 26.65 38.9 27.0 34.7 27.8 38.15 26.65 36.3 25.8 38.55 26.35 38.8 25.95 Q39.05 25.25 38.8 24.15 L38.45 23.2 Q39.05 23.9 39.2 24.95 L39.3 26.3 40.95 25.45 41.65 23.7 42.3 21.95 40.6 20.45 38.3 19.7 37.25 19.35 37.2 19.0 M18.55 11.55 L18.15 12.4 20.95 11.15 21.6 10.7 20.5 10.75 18.55 11.55 M19.0 21.55 L19.35 23.65 19.15 24.3 18.25 23.2 19.0 23.5 19.0 21.55 M15.9 22.65 L15.7 22.75 15.8 22.75 16.35 22.75 17.25 21.55 15.9 22.6 15.9 22.65 M16.7 23.15 L16.4 23.2 Q16.1 24.05 16.75 25.1 L17.5 26.1 19.6 26.4 21.1 25.7 21.3 24.05 19.35 21.0 17.75 21.3 16.7 23.15 M15.6 25.8 L15.55 25.25 14.85 23.75 Q14.35 22.9 13.7 22.65 L12.15 24.3 14.45 25.6 15.6 25.8 M23.45 27.2 L31.2 24.3 32.95 21.35 34.65 15.7 33.85 19.85 32.95 21.35 33.85 19.85 35.05 17.7 34.8 15.0 35.25 17.6 35.25 17.65 35.35 18.5 36.1 20.35 35.65 23.6 35.6 20.0 35.0 19.1 33.9 21.05 33.0 22.55 31.7 24.75 33.3 26.35 31.3 25.15 29.55 25.6 27.2 26.3 28.0 27.75 28.2 28.45 28.35 29.15 28.4 29.2 28.3 29.2 27.9 28.3 27.5 27.5 26.75 26.4 23.5 27.3 23.45 27.2 M12.55 26.05 L12.8 25.85 20.75 27.35 21.9 27.8 22.2 28.0 22.05 28.15 20.2 28.7 17.4 29.0 16.85 29.05 14.8 28.65 13.8 28.65 14.6 28.3 15.4 28.45 Q15.55 27.6 15.1 26.9 L14.8 26.5 12.55 26.05 M31.2 24.3 L31.7 24.75 31.2 24.3 M23.5 28.25 L28.4 29.55 28.45 30.45 23.5 28.25 M17.6 28.6 L19.85 28.3 20.75 27.75 17.0 27.0 16.75 27.25 Q16.45 27.9 17.6 28.6 M33.4 10.95 L30.0 12.0 33.4 10.95 M35.05 17.7 L35.35 18.5 35.05 17.7 M26.55 18.25 L26.1 17.0 25.4 16.0 25.3 15.9 24.25 18.4 26.9 20.4 26.55 18.25 M29.55 27.05 L29.9 28.15 30.15 28.9 30.4 29.45 31.0 30.55 31.2 30.75 33.05 31.3 33.95 29.0 33.3 31.7 33.0 31.75 32.75 31.65 30.75 31.15 30.6 30.9 30.0 29.25 29.85 28.75 29.75 28.25 29.55 27.05" fill="#d0c586" fill-rule="evenodd" stroke="none"/>
      <path d="M8.5 13.35 L7.7 14.3 7.3 13.8 8.5 13.35 M22.25 8.5 L24.45 6.75 28.25 6.55 25.25 7.55 22.25 8.5 M40.8 19.9 L43.35 21.1 47.0 21.45 43.4 21.75 42.9 21.8 40.8 19.9 M27.95 13.35 L23.35 12.25 21.5 11.45 22.1 10.65 24.5 10.5 27.1 10.9 28.85 12.1 28.3 13.4 27.95 13.35 M17.75 13.25 L18.7 13.1 21.5 13.25 25.4 14.3 23.8 18.35 22.0 19.7 21.9 19.7 20.75 18.85 Q19.35 17.6 18.35 15.55 L17.9 13.9 17.75 13.25 M15.6 25.8 L14.45 25.6 12.15 24.3 13.7 22.65 Q14.35 22.9 14.85 23.75 L15.55 25.25 15.6 25.8" fill="#bfb072" fill-rule="evenodd" stroke="none"/>
      <path d="M10.2 18.0 L8.8 16.25 8.2 14.45 9.05 13.8 9.25 13.85 10.25 14.95 11.35 17.75 11.4 18.45 11.0 18.8 10.25 18.1 10.2 18.0 M13.35 16.6 Q12.25 15.95 12.3 14.3 L14.8 15.3 13.35 16.6 M8.5 16.4 L8.95 16.85 9.4 21.4 8.95 18.95 8.5 16.4 M31.05 8.45 L31.95 9.5 33.8 10.85 33.4 10.95 31.2 11.3 30.4 10.75 Q29.3 9.85 29.65 8.95 L30.6 9.1 31.95 9.5 30.6 9.1 29.7 8.85 26.05 7.75 28.2 7.0 29.65 7.5 31.05 8.45 M47.0 21.45 L47.4 21.55 48.35 23.25 46.2 25.05 47.8 23.3 47.15 21.8 45.05 23.75 44.65 23.7 Q43.25 23.35 43.4 21.75 L47.0 21.45 M22.0 29.55 L21.35 29.95 21.1 29.95 22.0 28.7 20.2 28.7 22.05 28.15 22.2 28.0 22.5 28.15 22.6 28.85 22.0 29.55 M13.5 28.65 L12.8 27.15 12.35 26.3 12.55 26.05 14.8 26.5 15.1 26.9 Q15.55 27.6 15.4 28.45 L14.6 28.3 13.8 28.65 13.5 28.65 M9.35 23.4 L9.7 22.7 10.05 21.85 10.75 19.1 11.0 20.05 14.1 16.5 15.25 18.7 15.55 19.65 15.75 21.45 13.45 22.2 11.0 20.05 10.45 22.4 9.8 23.3 10.45 25.25 9.35 23.4 M28.0 10.4 L27.35 10.05 21.85 9.5 22.65 8.75 25.1 8.0 27.1 8.4 28.0 10.4 M28.85 12.1 L29.65 12.65 31.05 14.05 31.5 16.85 31.5 13.9 30.9 12.55 33.6 11.3 34.6 13.7 34.7 14.35 34.8 15.0 34.65 15.7 32.95 21.35 31.2 24.3 23.45 27.2 23.45 26.05 23.45 24.85 23.45 26.05 22.15 26.9 21.35 26.2 21.75 24.1 21.95 26.1 22.9 26.1 23.45 24.85 23.45 23.65 21.1 21.4 21.3 21.2 21.35 21.2 24.25 19.2 30.8 23.4 28.85 21.9 Q28.3 20.5 28.1 18.95 L28.05 18.8 28.0 18.45 28.0 16.95 Q28.0 16.05 28.15 15.1 L30.6 17.0 32.75 20.8 31.7 18.3 31.2 17.05 29.8 15.25 28.3 13.4 28.85 12.1 M18.55 11.55 L20.5 10.75 21.6 10.7 20.95 11.15 18.15 12.4 18.55 11.55 M18.25 23.2 L19.15 24.3 19.35 23.65 19.0 21.55 18.25 23.2 M16.7 23.15 L17.75 21.3 19.35 21.0 21.3 24.05 21.1 25.7 19.6 26.4 17.5 26.1 16.75 25.1 Q16.1 24.05 16.4 23.2 L16.7 23.15 M32.75 20.8 L32.95 21.35 32.75 20.8 M16.85 29.05 L17.4 29.0 16.85 29.95 16.85 29.05 M28.4 29.2 L28.35 29.15 28.2 28.45 28.0 27.75 27.2 26.3 29.55 25.6 29.55 27.05 29.75 28.25 29.85 28.75 30.0 29.25 30.6 30.9 30.75 31.15 28.75 30.6 28.45 30.45 28.4 29.55 28.4 29.2 M17.6 28.6 Q16.45 27.9 16.75 27.25 L17.0 27.0 20.75 27.75 19.85 28.3 17.6 28.6 M31.7 18.3 L31.5 16.85 31.7 18.3 M38.3 19.7 L40.6 20.45 42.3 21.95 41.65 23.7 40.8 23.1 39.7 21.95 39.55 21.8 Q38.85 20.85 38.3 19.7 M38.45 23.2 L38.8 24.15 Q39.05 25.25 38.8 25.95 L38.55 26.35 36.3 25.8 35.4 25.4 37.1 22.25 Q37.65 22.45 38.05 22.8 L38.45 23.2 M33.9 21.05 L33.9 21.55 34.0 22.6 Q34.15 23.95 34.7 25.0 L35.1 25.65 33.9 26.7 33.0 22.55 33.9 21.05 M26.55 18.25 L26.9 20.4 24.25 18.4 25.3 15.9 25.4 16.0 26.1 17.0 26.55 18.25 M47.4 21.55 L47.15 21.8 47.4 21.55" fill="#a89e64" fill-rule="evenodd" stroke="none"/>
      <path d="M10.2 18.0 L10.25 18.1 11.0 18.8 10.75 19.1 10.05 21.85 9.7 22.7 9.45 21.4 9.4 21.4 8.95 16.85 10.2 18.0 M7.7 14.3 L8.5 16.4 8.95 18.95 7.3 15.15 7.3 13.8 7.7 14.3 M46.2 25.05 L46.15 25.1 45.25 25.85 43.65 25.05 43.25 27.05 35.8 31.45 34.45 28.45 36.35 30.6 42.85 27.05 43.65 25.05 45.05 23.75 47.15 21.8 47.8 23.3 46.2 25.05 M33.1 33.15 L30.35 33.15 29.05 31.1 30.75 32.6 33.0 32.7 33.1 33.15 M21.1 29.95 L16.85 29.95 16.3 29.95 13.5 28.65 13.8 28.65 14.8 28.65 16.85 29.05 16.85 29.95 17.4 29.0 20.2 28.7 22.0 28.7 21.1 29.95 M11.2 26.65 L9.65 25.05 9.35 23.4 10.45 25.25 9.8 23.3 10.45 22.4 11.0 20.05 13.45 22.2 12.5 23.2 11.4 24.75 11.4 25.5 10.45 25.25 11.2 26.65 M28.0 10.4 L27.1 8.4 29.65 8.95 Q29.3 9.85 30.4 10.75 L31.2 11.3 30.0 11.5 28.0 10.4 M29.65 12.65 L27.4 10.5 30.0 12.0 31.05 14.05 29.65 12.65 M24.85 10.1 L20.5 10.45 18.3 11.4 20.5 9.85 24.85 10.1 M15.9 22.65 L15.8 22.75 15.7 22.75 15.9 22.65 M19.4 20.55 L21.1 21.4 23.45 23.65 21.75 24.1 19.4 20.55 M23.45 27.3 L23.5 27.3 26.75 26.4 27.5 27.5 27.9 28.3 28.3 29.2 28.4 29.55 23.5 28.25 23.45 28.25 23.45 27.3 M29.55 25.6 L31.3 25.15 33.3 26.35 31.7 24.75 33.0 22.55 33.9 26.7 33.8 26.8 34.15 27.9 33.8 26.8 33.3 26.35 33.8 26.8 33.9 26.7 35.1 25.65 34.7 25.0 Q34.15 23.95 34.0 22.6 L33.9 21.55 33.9 21.05 35.0 19.1 35.6 20.0 35.65 23.6 35.4 25.4 36.3 25.8 38.15 26.65 34.7 27.8 34.15 27.9 33.95 29.0 33.05 31.3 31.2 30.75 31.0 30.55 30.4 29.45 30.15 28.9 29.9 28.15 29.55 27.05 29.55 25.6 M37.55 21.55 L37.25 19.35 38.3 19.7 Q38.85 20.85 39.55 21.8 L39.7 21.95 40.8 23.1 41.65 23.7 40.95 25.45 39.3 26.3 39.2 24.95 Q39.05 23.9 38.45 23.2 L38.05 22.8 Q37.65 22.45 37.1 22.25 L37.55 21.55 M33.85 19.85 L34.65 15.7 34.8 15.0 35.05 17.7 33.85 19.85 M35.4 25.4 L35.1 25.65 35.4 25.4" fill="#696141" fill-rule="evenodd" stroke="none"/>
      <path d="M34.5 12.35 L37.2 19.0 37.25 19.35 37.55 21.55 36.1 20.35 35.35 18.5 35.25 17.65 35.25 17.6 34.8 15.0 34.7 14.35 34.8 15.0 34.7 14.35 34.6 13.7 34.5 12.35 M35.8 31.45 L34.55 31.6 33.3 31.7 33.95 29.0 34.15 27.9 34.45 28.45 34.15 27.9 34.7 27.8 38.9 27.0 41.4 25.6 42.9 21.8 43.4 21.75 Q43.25 23.35 44.65 23.7 L45.05 23.75 43.65 25.05 42.85 27.05 36.35 30.6 34.45 28.45 35.8 31.45 M25.85 30.6 L25.6 30.45 22.0 29.55 22.6 28.85 22.5 28.15 23.45 28.25 23.5 28.25 28.45 30.45 28.75 30.6 30.75 31.15 32.75 31.65 33.0 32.7 30.75 32.6 29.05 31.1 28.75 30.6 25.85 30.6 M17.75 13.25 L20.75 11.65 23.15 12.75 27.95 13.35 28.3 13.4 29.8 15.25 31.2 17.05 27.65 14.35 21.0 12.75 18.7 13.1 17.75 13.25 M18.25 23.2 L19.0 21.55 19.0 23.5 18.25 23.2 M15.8 22.75 L15.9 22.65 15.9 22.6 17.25 21.55 16.35 22.75 15.8 22.75 M23.45 24.85 L22.9 26.1 21.95 26.1 21.75 24.1 23.45 23.65 23.45 24.85 M11.4 24.75 L14.4 25.85 19.6 26.8 21.35 26.2 22.15 26.9 21.9 27.8 20.75 27.35 12.8 25.85 12.55 26.05 12.35 26.3 11.85 26.15 11.4 25.5 11.4 24.75 M41.4 25.6 L43.65 25.05 41.4 25.6" fill="#5f5a3a" fill-rule="evenodd" stroke="none"/>
      <path d="M45.25 25.85 L43.25 27.05 43.65 25.05 45.25 25.85 M34.55 31.6 L33.1 33.15 33.0 32.7 32.75 31.65 33.0 31.75 33.3 31.7 34.55 31.6 M30.35 33.15 L25.85 30.6 28.75 30.6 29.05 31.1 30.35 33.15 M12.8 27.15 L11.35 26.75 11.2 26.65 10.45 25.25 11.4 25.5 11.85 26.15 12.35 26.3 12.8 27.15 M23.45 26.05 L23.45 27.2 23.45 27.3 23.45 28.25 22.5 28.15 22.2 28.0 21.9 27.8 22.15 26.9 23.45 26.05 M36.1 20.35 L37.55 21.55 37.1 22.25 35.4 25.4 35.65 23.6 36.1 20.35" fill="#49432e" fill-rule="evenodd" stroke="none"/>
      <path d="M10.25 18.1 L11.0 18.8 11.4 18.45 13.35 16.6 14.8 15.3 15.2 14.95 12.05 13.7 8.5 13.35 7.7 14.3 8.5 16.4 8.95 16.85 10.2 18.0 M8.95 18.95 L7.3 15.15 7.3 13.8 8.5 13.35 M7.3 13.8 L7.7 14.3 M20.5 9.85 L22.25 8.5 24.45 6.75 28.25 6.55 30.15 7.4 31.05 8.45 31.95 9.5 33.8 10.85 34.5 12.35 37.2 19.0 40.8 19.9 43.35 21.1 47.0 21.45 47.4 21.55 48.35 23.25 46.2 25.05 M46.15 25.1 L45.25 25.85 43.25 27.05 35.8 31.45 34.55 31.6 33.1 33.15 30.35 33.15 25.85 30.6 25.6 30.45 22.0 29.55 21.35 29.95 21.1 29.95 16.85 29.95 16.3 29.95 13.5 28.65 12.8 27.15 11.35 26.75 11.2 26.65 9.65 25.05 9.35 23.4 9.7 22.7 9.45 21.4 M9.4 21.4 L8.95 18.95 8.5 16.4 M29.7 8.85 L26.05 7.75 25.25 7.55 22.25 8.5 M17.25 13.3 L17.75 13.25 20.75 11.65 23.15 12.75 27.95 13.35 28.3 13.4 29.8 15.25 31.2 17.05 27.65 14.35 21.0 12.75 18.7 13.1 17.75 13.25 M29.65 12.65 L27.4 10.5 24.85 10.1 20.5 10.45 18.3 11.4 17.25 13.3 15.2 14.95 M18.3 11.4 L20.5 9.85 24.85 10.1 M18.25 23.2 L19.0 21.55 19.0 23.5 18.25 23.2 M15.9 22.65 L15.7 22.75 15.8 22.75 16.35 22.75 17.25 21.55 15.9 22.6 15.9 22.65 M15.75 21.45 L16.9 21.1 19.4 20.55 21.1 21.4 23.45 23.65 21.75 24.1 19.4 20.55 M32.75 20.8 L31.7 18.3 31.2 17.05 M21.35 26.2 L21.75 24.1 M23.45 24.85 L23.45 23.65 M23.45 24.85 L23.45 26.05 23.45 27.2 31.2 24.3 32.95 21.35 32.75 20.8 M15.75 21.45 L13.45 22.2 12.5 23.2 11.4 24.75 14.4 25.85 19.6 26.8 21.35 26.2 22.15 26.9 23.45 26.05 M10.75 19.1 L11.0 18.8 M9.7 22.7 L10.05 21.85 10.75 19.1 M10.45 25.25 L9.35 23.4 M10.45 25.25 L11.4 25.5 11.4 24.75 M12.35 26.3 L11.85 26.15 11.4 25.5 M12.35 26.3 L12.55 26.05 12.8 25.85 20.75 27.35 21.9 27.8 22.15 26.9 M13.8 28.65 L13.5 28.65 M13.8 28.65 L14.8 28.65 16.85 29.05 17.4 29.0 20.2 28.7 22.05 28.15 22.2 28.0 21.9 27.8 M23.45 27.2 L23.45 27.3 23.45 28.25 23.5 28.25 28.45 30.45 28.75 30.6 30.75 31.15 32.75 31.65 33.0 31.75 33.3 31.7 33.95 29.0 34.15 27.9 33.8 26.8 33.3 26.35 31.7 24.75 31.2 24.3 M22.0 29.55 L22.6 28.85 22.5 28.15 22.2 28.0 M22.5 28.15 L23.45 28.25 M16.85 29.05 L16.85 29.95 M11.2 26.65 L10.45 25.25 M12.35 26.3 L12.8 27.15 M30.6 9.1 L31.95 9.5 M30.6 9.1 L29.7 8.85 M28.25 6.55 L25.25 7.55 M34.6 13.7 L34.5 12.35 M30.0 12.0 L31.05 14.05 31.5 16.85 31.7 18.3 M31.05 14.05 L29.65 12.65 M33.4 10.95 L33.8 10.85 M27.4 10.5 L30.0 12.0 33.4 10.95 M34.8 15.0 L34.7 14.35 34.8 15.0 34.65 15.7 33.85 19.85 35.05 17.7 34.8 15.0 M35.35 18.5 L36.1 20.35 37.55 21.55 37.25 19.35 37.2 19.0 M34.7 14.35 L34.6 13.7 M36.3 25.8 L38.15 26.65 38.9 27.0 41.4 25.6 42.9 21.8 40.8 19.9 M32.95 21.35 L33.85 19.85 M35.65 23.6 L36.1 20.35 M35.35 18.5 L35.05 17.7 M37.55 21.55 L37.1 22.25 35.4 25.4 36.3 25.8 M35.1 25.65 L35.4 25.4 35.65 23.6 M29.05 31.1 L28.75 30.6 25.85 30.6 M33.0 32.7 L33.1 33.15 M33.0 32.7 L32.75 31.65 M30.35 33.15 L29.05 31.1 M34.15 27.9 L34.45 28.45 35.8 31.45 M43.65 25.05 L41.4 25.6 M33.9 26.7 L33.8 26.8 M34.15 27.9 L34.7 27.8 38.9 27.0 M33.9 26.7 L35.1 25.65 M34.55 31.6 L33.3 31.7 M43.4 21.75 L42.9 21.8 M45.25 25.85 L43.65 25.05 43.25 27.05 M43.65 25.05 L45.05 23.75 47.15 21.8 47.4 21.55 M43.4 21.75 L47.0 21.45" fill="none" stroke="#000000" stroke-linecap="round" stroke-linejoin="round" stroke-opacity="0.3019608" stroke-width="0.30000000000000004"/>
      <path d="M28.5 23.35 L23.8 22.3 22.95 21.0 24.2 22.15 28.5 23.35 M17.25 19.7 L16.1 20.55 12.6 19.7 15.85 20.25 17.25 19.7" fill="#d0c586" fill-rule="evenodd" stroke="none"/>
      <path d="M28.5 23.35 L24.2 22.15 22.95 21.0 28.5 23.35 M17.25 19.7 L15.85 20.25 12.6 19.7 17.25 19.7" fill="#696141" fill-rule="evenodd" stroke="none"/>
      <path d="M22.95 21.0 L28.5 23.35 M12.6 19.7 L17.25 19.7" fill="none" stroke="#000000" stroke-linecap="round" stroke-linejoin="round" stroke-opacity="0.3019608" stroke-width="0.30000000000000004"/>
    </g>
    <g id="sprite0" transform="matrix(1.0, 0.0, 0.0, 1.0, 0.0, 0.0)">
      <use height="26.7" transform="matrix(0.0042, -1.3515, 1.3935, 0.02, 22.09, 56.0263)" width="26.7" xlink:href="#sprite1"/>
      <use height="26.7" transform="matrix(0.0095, -3.0486, 0.372, 0.0053, 36.507, 81.3775)" width="26.7" xlink:href="#sprite1"/>
      <use height="26.7" transform="matrix(3.0486, 0.0095, -0.0053, 0.372, 0.1225, 35.107)" width="26.7" xlink:href="#sprite1"/>
    </g>
    <g id="sprite1" transform="matrix(1.0, 0.0, 0.0, 1.0, 13.35, 13.35)">
      <use height="26.7" transform="matrix(1.0, 0.0, 0.0, 1.0, -13.35, -13.35)" width="26.7" xlink:href="#shape1"/>
    </g>
    <g id="shape1" transform="matrix(1.0, 0.0, 0.0, 1.0, 13.35, 13.35)">
      <path d="M9.3 -9.85 Q13.35 -5.8 13.35 0.0 13.35 5.8 9.3 9.3 5.8 13.35 0.0 13.35 -5.8 13.35 -9.85 9.3 -13.35 5.8 -13.35 0.0 -13.35 -5.8 -9.85 -9.85 -5.8 -13.35 0.0 -13.35 5.8 -13.35 9.3 -9.85" fill="url(#gradient0)" fill-rule="evenodd" stroke="none"/>
    </g>
    <radialGradient cx="0" cy="0" gradientTransform="matrix(0.0213, 0.0, 0.0, 0.0213, 0.0, 0.0)" gradientUnits="userSpaceOnUse" id="gradient0" r="819.2" spreadMethod="pad">
      <stop offset="0.19607843137254902" stop-color="#fee3bc" stop-opacity="0.25882354"/>
      <stop offset="0.5019607843137255" stop-color="#fee3bc" stop-opacity="0.039215688"/>
      <stop offset="0.7607843137254902" stop-color="#ffe3bd" stop-opacity="0.0"/>
    </radialGradient>
    <g id="sprite2" transform="matrix(1.0, 0.0, 0.0, 1.0, 0.75, 0.75)">
      <use height="159.25" transform="matrix(1.0, 0.0, 0.0, 1.0, -1.35, -1.35)" width="75.5" xlink:href="#shape2"/>
    </g>
    <g id="shape2" transform="matrix(1.0, 0.0, 0.0, 1.0, 1.35, 1.35)">
      <path d="M67.1 47.3 Q60.05 84.7 45.15 118.0 L67.1 47.3" fill="#000000" fill-opacity="0.05490196" fill-rule="evenodd" stroke="none"/>
      <path d="M72.8 0.4 Q71.4 24.6 67.1 47.3 60.05 84.7 45.15 118.0 L45.0 118.3 Q39.4 130.85 24.25 156.55 M43.75 69.05 Q26.65 113.65 20.4 117.6 17.55 109.85 28.1 81.45 38.25 56.05 47.2 54.0 48.65 56.75 43.75 69.05 M48.0 24.8 Q34.25 59.6 13.6 90.6 7.15 100.3 0.0 109.6 M66.8 0.0 Q53.65 80.05 13.6 143.35 L12.4 145.2 M67.1 47.3 L45.15 118.0" fill="none" stroke="#000000" stroke-linecap="round" stroke-linejoin="round" stroke-opacity="0.08627451" stroke-width="0.30000000000000004"/>
    </g>
  </defs>
</svg>
