<?xml version="1.0" encoding="UTF-8" standalone="no"?>
<svg xmlns:xlink="http://www.w3.org/1999/xlink" height="52.0px" width="52.0px" xmlns="http://www.w3.org/2000/svg">
  <g transform="matrix(1.0, 0.0, 0.0, 1.0, 0.0, 0.0)">
    <use height="54.0" transform="matrix(1.0, 0.0, 0.0, 1.0, -1.0, -1.0)" width="54.0" xlink:href="#shape0"/>
    <use height="0.0" transform="matrix(0.0816, 0.0145, -0.047, 0.0704, 30.8, 28.5)" width="0.0" xlink:href="#sprite0"/>
    <use height="0.0" transform="matrix(0.0816, 0.0145, -0.0033, 0.0782, 21.05, 40.35)" width="0.0" xlink:href="#sprite0"/>
    <use height="0.0" transform="matrix(0.0538, 0.0453, -0.0211, 0.0332, 34.1, 13.15)" width="0.0" xlink:href="#sprite0"/>
    <use height="81.5" transform="matrix(0.0883, 0.0157, -0.0199, 0.1123, 31.8, 19.5)" width="81.5" xlink:href="#sprite1"/>
    <use height="81.5" transform="matrix(0.0439, 0.0078, -0.0099, 0.0559, 37.65, 13.55)" width="81.5" xlink:href="#sprite1"/>
  </g>
  <defs>
    <g id="shape0" transform="matrix(1.0, 0.0, 0.0, 1.0, 1.0, 1.0)">
      <path d="M52.0 0.0 L52.0 52.0 0.0 52.0 0.0 0.0 52.0 0.0" fill="#795fa9" fill-opacity="0.0" fill-rule="evenodd" stroke="none"/>
      <path d="M41.1 17.15 L39.3 13.25 28.25 4.1 28.2 4.6 28.6 6.1 28.65 9.25 28.0 12.95 30.3 14.75 33.1 18.2 37.45 17.75 39.55 17.75 36.65 20.25 33.85 20.7 32.55 19.65 27.25 19.35 26.75 18.6 24.25 18.15 21.5 19.15 20.45 21.45 20.75 22.0 18.1 21.95 16.15 21.45 15.85 22.5 15.95 22.9 15.95 22.95 17.4 27.25 18.25 28.4 20.1 29.65 20.15 30.1 16.1 32.5 11.75 36.35 11.25 37.8 9.7 39.6 8.4 42.65 9.05 43.35 12.3 41.5 14.0 43.05 17.0 44.35 16.4 47.9 17.45 48.1 20.65 46.85 25.0 43.4 27.1 39.75 27.65 38.0 27.8 35.2 30.95 34.55 37.35 35.7 43.7 33.35 37.7 28.2 37.65 27.35 36.85 25.2 38.35 23.25 39.25 21.3 40.6 18.35 40.85 17.75 40.85 17.7 41.1 17.15 Z" fill="none" stroke="#000000" stroke-linecap="round" stroke-linejoin="round" stroke-opacity="0.3019608" stroke-width="1.0"/>
      <path d="M34.9 12.4 L35.4 12.3 35.85 12.85 34.8 14.8 32.35 14.45 Q33.55 13.65 33.65 12.45 L34.9 12.4 M36.7 11.1 L39.3 13.25 40.1 16.55 37.05 13.3 Q36.35 11.7 36.7 11.1 M35.15 9.85 L35.4 11.65 28.25 4.15 35.15 9.85" fill="#339328" fill-rule="evenodd" stroke="none"/>
      <path d="M35.4 12.3 L34.9 12.4 32.25 12.3 33.35 10.8 32.6 10.6 31.45 9.95 31.8 8.7 34.1 11.0 35.4 12.3 M33.35 10.8 L34.1 11.0 33.35 10.8 M31.15 10.1 L30.1 12.25 28.65 12.25 29.2 9.45 31.15 10.1 M36.25 15.1 L37.2 15.1 38.15 15.15 40.0 17.15 39.9 17.8 37.45 17.8 35.4 17.7 36.25 15.1 M36.7 11.1 Q36.35 11.7 37.05 13.3 L35.4 11.65 35.15 9.85 36.7 11.1 M28.15 4.65 L29.2 6.0 30.35 7.2 29.9 9.15 29.3 8.8 28.55 6.55 28.55 6.15 28.15 4.65 M33.7 14.95 Q33.65 15.8 32.45 16.7 L30.85 14.8 33.7 14.95" fill="#75d74a" fill-rule="evenodd" stroke="none"/>
      <path d="M33.35 10.8 L32.25 12.3 30.1 12.25 31.15 10.1 32.6 10.6 33.35 10.8 M36.25 15.1 L35.4 17.7 33.3 17.65 32.45 16.7 Q33.65 15.8 33.7 14.95 L36.25 15.1 M30.35 7.2 L31.8 8.7 31.45 9.95 29.9 9.15 30.35 7.2" fill="#9ae17b" fill-rule="evenodd" stroke="none"/>
      <path d="M35.4 12.3 L34.1 11.0 31.8 8.7 30.35 7.2 29.2 6.0 28.15 4.65 28.25 4.15 35.4 11.65 37.05 13.3 40.1 16.55 39.3 13.25 41.05 17.2 40.75 17.85 40.55 17.9 40.2 17.85 39.9 17.8 40.0 17.15 38.15 15.15 35.85 12.85 35.4 12.3 M32.25 12.3 L34.9 12.4 33.65 12.45 28.85 12.9 28.0 12.95 28.85 12.9 30.5 14.15 32.35 14.45 34.8 14.8 37.2 15.1 36.25 15.1 33.7 14.95 30.85 14.8 30.3 14.75 30.85 14.8 32.45 16.7 33.3 17.65 35.4 17.7 37.45 17.8 33.1 18.25 30.3 14.75 28.0 12.95 28.6 9.25 28.55 6.55 29.3 8.8 29.9 9.15 31.45 9.95 32.6 10.6 31.15 10.1 29.2 9.45 28.65 12.25 30.1 12.25 32.25 12.3 M29.2 9.45 L28.6 9.25 29.2 9.45" fill="#d7f16b" fill-rule="evenodd" stroke="none"/>
      <path d="M33.65 12.45 Q33.55 13.65 32.35 14.45 L30.5 14.15 28.85 12.9 33.65 12.45 M34.8 14.8 L35.85 12.85 38.15 15.15 37.2 15.1 34.8 14.8" fill="#246c41" fill-rule="evenodd" stroke="none"/>
      <path d="M34.9 12.4 L35.4 12.3 34.1 11.0 33.35 10.8 32.6 10.6 31.15 10.1 29.2 9.45 28.6 9.25 28.0 12.95 30.3 14.75 30.85 14.8 33.7 14.95 36.25 15.1 37.2 15.1 38.15 15.15 35.85 12.85 35.4 12.3 M34.9 12.4 L33.65 12.45 28.85 12.9 28.0 12.95 M37.45 17.8 L39.9 17.8 40.0 17.15 38.15 15.15 M39.3 13.25 L36.7 11.1 35.15 9.85 28.25 4.15 28.15 4.65 29.2 6.0 30.35 7.2 31.8 8.7 34.1 11.0 M39.3 13.25 L41.05 17.2 40.75 17.85 40.55 17.9 40.2 17.85 M30.3 14.75 L33.1 18.25 37.45 17.8 M28.15 4.65 L28.55 6.15 28.55 6.55 28.6 9.25" fill="none" stroke="#000000" stroke-linecap="round" stroke-linejoin="round" stroke-opacity="0.3019608" stroke-width="0.30000000000000004"/>
      <path d="M31.2 34.1 L31.2 34.15 31.15 34.1 31.2 34.1" fill="#cc6b22" fill-rule="evenodd" stroke="none"/>
      <path d="M15.4 38.7 L15.35 38.65 15.4 38.7" fill="#a34100" fill-rule="evenodd" stroke="none"/>
      <path d="M29.5 23.95 L29.95 24.1 29.5 24.0 29.5 23.95 M38.25 29.7 L38.2 29.7 38.25 29.6 38.25 29.7 M36.7 35.1 L36.75 35.05 37.2 35.55 36.7 35.1" fill="#ea6004" fill-rule="evenodd" stroke="none"/>
      <path d="M18.25 22.4 L19.1 24.5 16.0 22.65 16.45 21.9 18.25 22.4 M20.15 30.15 L20.9 29.65 22.05 29.0 22.45 29.1 25.2 29.7 25.5 29.75 25.75 30.0 26.8 30.75 25.65 33.15 26.4 30.95 25.3 30.15 23.2 29.55 23.15 30.25 23.1 30.85 23.1 31.0 Q23.0 32.75 23.25 34.4 L23.6 35.95 23.05 36.2 20.65 36.2 20.65 35.0 20.35 33.65 20.25 33.25 20.0 32.5 19.45 31.2 19.35 31.1 19.3 31.05 16.65 32.65 16.55 35.45 17.4 36.05 16.1 35.95 16.1 35.75 15.7 33.4 15.3 33.75 Q14.7 35.5 14.85 36.25 14.6 35.6 14.9 34.1 L13.55 35.35 12.55 36.25 13.3 38.15 13.75 38.7 14.35 39.4 15.2 37.7 16.1 35.95 17.4 36.05 19.75 36.2 17.4 36.35 16.7 36.4 15.7 38.05 15.85 38.25 16.15 39.2 16.45 41.15 Q16.1 39.35 15.45 38.75 L15.4 38.7 15.35 38.65 14.95 39.25 14.65 42.4 16.35 44.1 14.0 43.05 14.1 41.95 14.05 39.5 11.85 37.25 11.7 38.1 12.05 40.85 13.15 42.3 12.3 41.5 12.0 41.3 11.75 41.05 11.45 39.9 11.3 38.3 10.25 39.7 10.05 41.35 9.85 40.25 8.65 42.95 8.35 42.7 9.7 39.6 11.25 37.85 11.7 36.35 16.1 32.55 20.15 30.15 M24.55 22.25 L21.4 21.7 27.1 19.35 32.55 19.7 33.8 20.75 34.25 21.15 33.8 20.75 36.65 20.25 40.3 17.15 40.6 17.15 37.2 20.5 37.3 22.05 36.65 20.25 37.3 22.05 36.6 24.3 36.4 23.5 36.95 22.25 36.4 20.75 34.25 21.15 36.2 22.7 34.2 23.7 35.25 22.45 32.35 20.05 31.9 20.0 31.85 20.4 Q31.85 21.4 32.35 22.65 L32.6 23.2 32.7 23.35 32.85 23.65 33.1 24.1 30.85 24.5 29.95 24.1 29.5 23.95 29.7 22.65 29.6 21.6 Q29.35 20.35 28.6 19.75 L27.2 19.65 23.25 21.65 26.85 22.3 29.05 23.75 26.05 22.5 24.9 22.3 24.55 22.25 M17.25 48.05 L16.4 47.9 17.0 44.4 17.3 42.8 17.7 43.2 17.3 42.8 19.05 40.55 19.95 39.4 21.35 39.25 20.15 39.95 17.95 42.5 18.95 43.9 18.75 44.1 17.7 43.2 16.8 47.45 17.3 47.9 17.25 48.05 M11.3 38.3 L11.25 37.85 11.3 38.3 M9.7 39.6 L9.85 40.25 9.7 39.6 M42.45 32.9 L39.5 31.65 39.0 31.45 38.55 31.2 34.75 29.25 37.7 28.25 35.9 29.35 37.65 30.3 38.2 29.7 38.25 29.7 38.2 30.6 40.1 31.65 42.45 32.9 M34.8 30.0 L33.5 31.3 34.75 32.75 35.0 32.7 35.9 31.6 35.2 32.9 35.1 33.1 36.75 35.05 36.7 35.1 32.5 31.2 34.65 29.95 34.8 30.0 M16.1 32.55 L16.1 35.75 16.1 32.55 M11.7 36.35 L13.3 38.15 11.7 36.35 M14.35 39.4 L14.1 41.95 14.35 39.4" fill="#d7b15b" fill-rule="evenodd" stroke="none"/>
      <path d="M19.45 24.9 L18.75 22.45 21.1 22.35 19.85 25.25 19.45 24.9 M19.6 25.9 L19.8 27.3 19.05 27.3 18.4 26.4 17.0 24.45 16.75 23.65 18.7 24.65 19.6 25.9 M20.9 29.65 L20.25 25.75 20.65 24.75 21.45 26.0 22.2 27.9 22.4 28.95 22.45 29.1 22.05 29.0 20.9 29.65 M33.1 24.1 L32.85 23.65 32.7 23.35 32.6 23.2 32.35 22.65 Q31.85 21.4 31.85 20.4 L31.9 20.0 32.35 20.05 35.25 22.45 34.2 23.7 33.55 24.05 33.1 24.1 M36.2 22.7 L34.25 21.15 36.4 20.75 36.95 22.25 36.4 23.5 36.2 22.7 M29.05 23.75 L26.85 22.3 23.25 21.65 27.2 19.65 28.6 19.75 Q29.35 20.35 29.6 21.6 L29.7 22.65 29.5 23.95 29.05 23.75 M24.9 22.3 L26.05 22.5 27.2 26.45 27.6 27.7 25.5 29.75 25.2 29.7 25.15 29.35 25.0 28.85 24.9 28.15 24.9 28.1 24.8 27.6 24.85 27.55 Q24.6 25.85 24.7 24.25 L24.9 22.3 M37.3 22.05 L37.2 20.5 40.6 17.15 40.85 17.8 39.2 21.35 37.3 22.05 M37.65 27.35 L37.65 27.55 34.05 28.5 30.2 31.5 31.95 32.45 31.9 32.6 29.9 31.85 27.65 31.9 27.25 31.4 30.2 31.5 33.65 27.9 37.65 27.35 M37.7 28.25 L38.3 28.75 38.4 28.9 38.35 29.35 38.25 29.55 38.25 29.6 38.2 29.7 37.65 30.3 35.9 29.35 37.7 28.25 M39.7 30.0 L43.7 33.4 38.45 35.35 Q38.3 34.05 38.5 32.95 L39.0 31.45 39.5 31.65 42.45 32.9 43.7 33.4 42.45 32.9 40.1 31.65 39.7 30.0 M27.65 37.8 L27.65 38.05 25.4 36.3 24.35 36.1 23.5 36.45 22.45 38.85 23.0 39.45 24.9 39.85 22.75 39.9 21.8 39.2 22.75 39.9 21.75 40.95 21.55 41.15 18.95 43.9 17.95 42.5 20.15 39.95 21.35 39.25 21.8 39.2 23.05 36.2 23.6 35.95 23.25 34.4 Q23.0 32.75 23.1 31.0 L23.1 30.85 23.15 30.25 23.2 29.55 25.3 30.15 26.4 30.95 25.65 33.15 26.8 30.75 25.4 35.5 27.65 37.8 M17.0 44.4 L16.65 44.25 16.45 41.15 16.15 39.2 15.85 38.25 15.7 38.05 16.7 36.4 17.4 36.35 17.45 36.6 17.5 36.75 Q17.95 39.05 19.05 40.55 L17.3 42.8 17.0 44.4 M9.05 43.35 L8.75 43.0 8.65 42.95 9.85 40.25 10.05 41.35 9.45 42.65 9.05 43.35 M11.3 38.3 L11.45 39.9 10.05 41.35 10.25 39.7 11.3 38.3 M34.8 30.0 L36.0 30.4 35.9 31.55 35.9 31.6 35.0 32.7 34.75 32.75 33.5 31.3 34.8 30.0 M25.65 33.15 L24.45 35.55 23.6 35.95 24.45 35.55 25.65 33.15 M25.4 36.3 L24.45 35.55 25.4 36.3 M17.4 36.05 L16.55 35.45 16.65 32.65 19.3 31.05 19.35 31.1 19.45 31.2 20.0 32.5 20.25 33.25 20.35 33.65 20.65 35.0 20.65 36.2 19.95 36.2 19.75 36.2 17.4 36.05 M14.85 36.25 Q14.7 35.5 15.3 33.75 L15.7 33.4 16.1 35.75 16.1 35.95 15.2 37.7 14.85 36.3 14.85 36.25 M13.75 38.7 L13.3 38.15 12.55 36.25 13.55 35.35 13.75 38.7 M17.45 47.5 L17.3 47.9 16.8 47.45 17.7 43.2 18.75 44.1 17.45 47.5" fill="#cc9933" fill-rule="evenodd" stroke="none"/>
      <path d="M20.0 29.1 L20.05 29.65 18.2 28.45 17.35 27.25 18.2 27.3 18.7 28.4 20.0 29.1 M36.8 24.95 L37.45 22.65 37.45 22.6 39.2 21.35 38.35 23.2 36.85 25.25 36.8 24.95 M37.65 27.55 L37.7 28.25 34.75 29.25 34.65 29.95 32.5 31.2 36.7 35.1 31.2 34.1 31.9 32.6 31.95 32.45 30.2 31.5 34.05 28.5 37.65 27.55 M30.95 34.6 L27.8 35.25 27.65 37.8 25.4 35.5 26.8 30.75 27.25 31.4 27.65 31.9 28.0 32.4 27.85 34.8 31.15 34.1 31.2 34.15 30.95 34.6 M12.3 41.5 L9.05 43.35 9.45 42.65 12.0 41.3 12.3 41.5 M32.5 31.2 L31.95 32.45 32.5 31.2 M24.9 39.85 L26.55 39.8 24.6 43.05 22.15 45.0 22.35 42.15 21.75 40.95 22.75 39.9 24.9 39.85 M27.85 34.8 L27.8 35.25 27.85 34.8 M20.65 36.2 L23.05 36.2 21.8 39.2 21.35 39.25 19.95 39.4 19.95 36.2 20.65 36.2 M14.85 36.25 L14.85 36.3 15.2 37.7 14.35 39.4 13.75 38.7 13.55 35.35 14.9 34.1 Q14.6 35.6 14.85 36.25" fill="#825a20" fill-rule="evenodd" stroke="none"/>
      <path d="M19.85 25.25 L19.6 25.9 18.7 24.65 19.85 25.25 M19.8 27.3 L20.0 29.1 18.7 28.4 18.2 27.3 19.05 27.3 19.8 27.3 M22.2 27.9 L21.7 25.9 20.95 24.1 21.65 22.45 24.55 22.25 24.9 22.3 24.7 24.25 Q24.6 25.85 24.85 27.55 L24.8 27.6 24.9 28.1 24.9 28.15 25.0 28.85 25.15 29.35 25.2 29.7 22.45 29.1 22.4 28.95 22.2 27.9 M18.4 26.4 L19.05 27.3 17.7 27.05 17.25 25.4 18.4 26.4 M34.2 23.7 L36.2 22.7 36.4 23.5 36.6 24.3 37.3 22.05 39.2 21.35 37.45 22.6 37.45 22.65 36.8 24.95 36.6 24.3 36.8 24.95 36.85 25.25 37.65 27.35 33.65 27.9 33.65 27.35 33.65 27.9 30.2 31.5 27.25 31.4 26.8 30.75 25.75 30.0 31.1 25.05 33.0 24.8 33.65 27.35 33.55 24.05 34.2 23.7 M29.95 24.1 L30.85 24.5 27.6 27.7 27.2 26.45 26.7 23.45 29.5 24.0 29.95 24.1 M38.4 28.9 L39.7 30.0 40.1 31.65 38.2 30.6 38.25 29.7 38.25 29.6 38.25 29.55 38.35 29.35 38.4 28.9 M38.45 35.35 L37.35 35.75 30.95 34.6 31.2 34.15 31.2 34.1 36.7 35.1 37.2 35.55 36.75 35.05 35.1 33.1 35.2 32.9 35.9 31.6 35.9 31.55 36.0 30.4 34.8 30.0 34.65 29.95 34.75 29.25 38.55 31.2 39.0 31.45 38.5 32.95 Q38.3 34.05 38.45 35.35 M27.1 39.75 L25.0 43.4 20.65 46.9 17.4 48.1 17.25 48.05 17.3 47.9 17.45 47.5 19.65 46.85 20.85 46.0 21.85 42.65 21.55 41.15 21.75 40.95 22.35 42.15 22.15 45.0 24.6 43.05 26.55 39.8 27.1 39.75 M16.65 44.25 L16.35 44.1 14.65 42.4 14.95 39.25 15.35 38.65 15.4 38.7 15.45 38.75 Q16.1 39.35 16.45 41.15 L16.65 44.25 M14.0 43.05 L13.15 42.3 12.05 40.85 11.7 38.1 11.85 37.25 14.05 39.5 14.1 41.95 14.0 43.05 M11.45 39.9 L11.75 41.05 12.0 41.3 9.45 42.65 10.05 41.35 11.45 39.9 M38.55 31.2 L36.0 30.4 38.55 31.2 M37.2 35.55 L37.35 35.75 37.2 35.55 M27.85 34.8 L28.0 32.4 27.65 31.9 29.9 31.85 31.9 32.6 31.2 34.1 31.15 34.1 27.85 34.8 M19.75 36.2 L19.95 36.2 19.95 39.4 19.05 40.55 Q17.95 39.05 17.5 36.75 L17.45 36.6 17.4 36.35 19.75 36.2" fill="#aa772b" fill-rule="evenodd" stroke="none"/>
      <path d="M27.65 38.05 L27.1 39.75 26.55 39.8 24.9 39.85 23.0 39.45 22.45 38.85 23.5 36.45 24.35 36.1 25.4 36.3 27.65 38.05 M18.95 43.9 L21.55 41.15 21.85 42.65 20.85 46.0 19.65 46.85 17.45 47.5 18.75 44.1 18.95 43.9" fill="#6c4b1c" fill-rule="evenodd" stroke="none"/>
      <path d="M21.25 22.05 L21.1 22.35 21.25 22.05 21.4 21.7 24.55 22.25 21.65 22.45 20.95 24.1 21.7 25.9 22.2 27.9 21.45 26.0 20.65 24.75 20.25 25.75 20.9 29.65 20.15 30.15 20.05 29.65 20.0 29.1 19.8 27.3 19.6 25.9 19.85 25.25 21.1 22.35 18.75 22.45 19.45 24.9 19.1 24.5 19.45 24.9 19.85 25.25 18.7 24.65 16.75 23.65 17.0 24.45 18.4 26.4 17.25 25.4 17.7 27.05 19.05 27.3 18.2 27.3 17.35 27.25 15.95 23.0 15.95 22.95 15.8 22.5 16.15 21.45 18.05 22.0 21.25 22.05 M18.25 22.4 L18.05 22.0 18.25 22.4 16.45 21.9 16.0 22.65 19.1 24.5 18.25 22.4 M16.0 22.65 L15.8 22.5 16.0 22.65 M30.85 24.5 L33.1 24.1 33.55 24.05 33.65 27.35 33.0 24.8 31.1 25.05 25.75 30.0 25.5 29.75 27.6 27.7 30.85 24.5 M27.2 26.45 L26.05 22.5 29.05 23.75 29.5 23.95 29.5 24.0 26.7 23.45 27.2 26.45" fill="#e0c585" fill-rule="evenodd" stroke="none"/>
      <path d="M21.1 22.35 L21.25 22.05 18.05 22.0 18.25 22.4 19.1 24.5 19.45 24.9 19.85 25.25 19.6 25.9 19.8 27.3 20.0 29.1 20.05 29.65 20.15 30.15 20.9 29.65 22.05 29.0 22.45 29.1 25.2 29.7 25.5 29.75 27.6 27.7 27.2 26.45 26.05 22.5 29.05 23.75 29.5 23.95 29.95 24.1 30.85 24.5 33.1 24.1 33.55 24.05 34.2 23.7 36.2 22.7 34.25 21.15 33.8 20.75 32.55 19.7 27.1 19.35 21.4 21.7 21.25 22.05 M21.1 22.35 L19.85 25.25 M24.55 22.25 L21.4 21.7 M15.8 22.5 L16.0 22.65 19.1 24.5 M17.35 27.25 L15.95 23.0 15.95 22.95 15.8 22.5 16.15 21.45 18.05 22.0 M19.05 27.3 L19.8 27.3 M19.05 27.3 L18.2 27.3 17.35 27.25 18.2 28.45 20.05 29.65 M24.9 22.3 L24.55 22.25 M26.05 22.5 L24.9 22.3 M27.6 27.7 L30.85 24.5 M37.3 22.05 L39.2 21.35 40.85 17.8 40.6 17.15 40.3 17.15 36.65 20.25 37.3 22.05 36.6 24.3 36.8 24.95 36.85 25.25 37.65 27.35 37.65 27.55 37.7 28.25 38.3 28.75 M39.2 21.35 L38.35 23.2 36.85 25.25 M38.4 28.9 L39.7 30.0 43.7 33.4 38.45 35.35 37.35 35.75 30.95 34.6 27.8 35.25 27.65 37.8 27.65 38.05 27.1 39.75 25.0 43.4 20.65 46.9 17.4 48.1 17.25 48.05 16.4 47.9 17.0 44.4 16.65 44.25 16.35 44.1 14.0 43.05 13.15 42.3 12.3 41.5 9.05 43.35 8.75 43.0 M8.65 42.95 L8.35 42.7 9.7 39.6 11.25 37.85 11.7 36.35 16.1 32.55 20.15 30.15 M33.8 20.75 L36.65 20.25 M36.4 23.5 L36.6 24.3 M36.2 22.7 L36.4 23.5 M33.65 27.35 L33.65 27.9 37.65 27.35 M33.65 27.35 L33.55 24.05 M11.25 37.85 L11.3 38.3 11.45 39.9 11.75 41.05 12.0 41.3 12.3 41.5 M10.05 41.35 L11.45 39.9 M10.05 41.35 L9.85 40.25 9.7 39.6 M9.45 42.65 L10.05 41.35 M9.45 42.65 L9.05 43.35 M43.7 33.4 L42.45 32.9 39.5 31.65 39.0 31.45 38.55 31.2 34.75 29.25 37.7 28.25 M34.65 29.95 L34.75 29.25 M36.0 30.4 L34.8 30.0 34.65 29.95 32.5 31.2 36.7 35.1 37.2 35.55 37.35 35.75 M36.0 30.4 L38.55 31.2 M31.2 34.1 L31.2 34.15 30.95 34.6 M27.65 31.9 L28.0 32.4 27.85 34.8 27.8 35.25 M31.2 34.1 L31.9 32.6 31.95 32.45 32.5 31.2 M27.65 31.9 L27.25 31.4 26.8 30.75 25.75 30.0 25.5 29.75 M30.2 31.5 L31.95 32.45 M25.65 33.15 L26.8 30.75 M23.6 35.95 L24.45 35.55 25.65 33.15 M23.05 36.2 L23.6 35.95 M24.9 39.85 L26.55 39.8 27.1 39.75 M22.75 39.9 L24.9 39.85 M24.45 35.55 L25.4 36.3 27.65 38.05 M27.25 31.4 L30.2 31.5 33.65 27.9 M20.65 36.2 L23.05 36.2 21.8 39.2 22.75 39.9 21.75 40.95 21.55 41.15 18.95 43.9 18.75 44.1 17.7 43.2 17.3 42.8 19.05 40.55 19.95 39.4 19.95 36.2 20.65 36.2 M15.2 37.7 L16.1 35.95 16.1 35.75 16.1 32.55 M16.1 35.95 L17.4 36.05 19.75 36.2 19.95 36.2 M13.75 38.7 L13.3 38.15 11.7 36.35 M13.75 38.7 L14.35 39.4 15.2 37.7 M21.8 39.2 L21.35 39.25 19.95 39.4 M17.45 47.5 L17.3 47.9 17.25 48.05 M17.3 42.8 L17.0 44.4 M14.0 43.05 L14.1 41.95 14.35 39.4 M17.45 47.5 L18.75 44.1" fill="none" stroke="#000000" stroke-linecap="round" stroke-linejoin="round" stroke-opacity="0.3019608" stroke-width="0.30000000000000004"/>
      <path d="M21.25 19.7 L21.4 19.25 23.9 20.5 23.1 21.2 21.95 21.55 21.1 21.2 21.25 19.7" fill="#339328" fill-rule="evenodd" stroke="none"/>
      <path d="M21.5 19.15 L23.45 18.4 Q23.9 19.0 23.2 19.85 L21.5 19.15 M24.65 20.0 Q24.15 19.25 24.8 18.35 L25.85 18.8 25.15 19.75 24.65 20.0" fill="#75d74a" fill-rule="evenodd" stroke="none"/>
      <path d="M27.45 19.65 L25.95 21.35 25.45 20.1 26.55 18.85 27.45 19.65 M23.15 22.55 L21.0 22.4 20.45 21.45 21.95 21.85 23.3 21.7 23.15 22.55" fill="#246c41" fill-rule="evenodd" stroke="none"/>
      <path d="M25.95 21.35 L23.15 22.55 23.3 21.7 24.3 20.75 24.85 20.4 25.95 21.35" fill="#1c5331" fill-rule="evenodd" stroke="none"/>
      <path d="M23.45 18.4 L24.25 18.15 24.8 18.35 Q24.15 19.25 24.65 20.0 L24.2 20.35 23.2 19.85 Q23.9 19.0 23.45 18.4" fill="#9ae17b" fill-rule="evenodd" stroke="none"/>
      <path d="M24.25 18.15 L26.75 18.6 27.45 19.65 26.55 18.85 25.45 20.1 25.95 21.35 24.85 20.4 24.3 20.75 23.9 20.5 24.3 20.75 23.3 21.7 21.95 21.85 20.45 21.45 21.25 19.7 21.1 21.2 21.95 21.55 23.1 21.2 23.9 20.5 21.4 19.25 21.5 19.15 23.2 19.85 24.2 20.35 24.65 20.0 25.15 19.75 25.85 18.8 24.8 18.35 24.25 18.15" fill="#d7f16b" fill-rule="evenodd" stroke="none"/>
      <path d="M23.45 18.4 L24.25 18.15 26.75 18.6 27.45 19.65 25.95 21.35 23.15 22.55 21.0 22.4 20.45 21.45 21.25 19.7 21.4 19.25 21.5 19.15 23.45 18.4 M23.9 20.5 L24.3 20.75 24.85 20.4 M25.95 21.35 L25.45 20.1 26.55 18.85 M23.3 21.7 L23.15 22.55 M23.3 21.7 L21.95 21.85 20.45 21.45 M24.3 20.75 L23.3 21.7 M21.4 19.25 L23.9 20.5" fill="none" stroke="#000000" stroke-linecap="round" stroke-linejoin="round" stroke-opacity="0.3019608" stroke-width="0.30000000000000004"/>
      <path d="M33.05 24.9 L33.75 24.5 34.75 22.15 33.55 21.55 32.85 21.75 31.95 22.05 30.95 22.35 31.05 22.15 33.5 21.05 35.4 21.85 36.2 24.0 35.2 22.3 34.1 24.9 32.25 25.25 33.05 24.9 M30.1 24.15 L31.25 25.2 31.5 25.4 30.85 25.8 30.45 26.0 30.1 24.15" fill="#d7f16b" fill-rule="evenodd" stroke="none"/>
      <path d="M32.85 21.75 L33.55 21.55 34.75 22.15 33.75 24.5 33.05 24.9 Q32.4 23.8 32.85 21.75 M30.95 22.35 L31.95 22.05 Q32.1 23.2 31.25 25.2 L30.1 24.15 30.95 22.35" fill="#75d74a" fill-rule="evenodd" stroke="none"/>
      <path d="M33.05 24.9 L32.25 25.25 31.5 25.4 31.25 25.2 Q32.1 23.2 31.95 22.05 L32.85 21.75 Q32.4 23.8 33.05 24.9" fill="#9ae17b" fill-rule="evenodd" stroke="none"/>
      <path d="M34.1 24.9 L35.2 22.3 36.2 24.0 35.25 26.55 34.1 24.9" fill="#1c5331" fill-rule="evenodd" stroke="none"/>
      <path d="M32.25 25.25 L34.1 24.9 34.55 26.3 32.9 26.85 30.85 25.8 31.5 25.4 32.25 25.25" fill="#246c41" fill-rule="evenodd" stroke="none"/>
      <path d="M30.45 26.0 L30.85 25.8 32.9 26.85 34.55 26.3 34.1 24.9 35.25 26.55 32.75 27.2 30.45 26.0" fill="#339328" fill-rule="evenodd" stroke="none"/>
      <path d="M32.25 25.25 L34.1 24.9 35.25 26.55 32.75 27.2 30.45 26.0 30.1 24.15 31.25 25.2 31.5 25.4 32.25 25.25 M36.2 24.0 L35.4 21.85 33.5 21.05 31.05 22.15 30.95 22.35 30.1 24.15 M30.85 25.8 L30.45 26.0 M30.85 25.8 L31.5 25.4 M36.2 24.0 L35.25 26.55" fill="none" stroke="#000000" stroke-linecap="round" stroke-linejoin="round" stroke-opacity="0.3019608" stroke-width="0.30000000000000004"/>
    </g>
    <g id="sprite1" transform="matrix(1.0, 0.0, 0.0, 1.0, 0.0, 0.0)">
      <use height="26.7" transform="matrix(0.0042, -1.3515, 1.3935, 0.02, 22.09, 56.0263)" width="26.7" xlink:href="#sprite2"/>
      <use height="26.7" transform="matrix(0.0095, -3.0486, 0.372, 0.0053, 36.507, 81.3775)" width="26.7" xlink:href="#sprite2"/>
      <use height="26.7" transform="matrix(3.0486, 0.0095, -0.0053, 0.372, 0.1225, 35.107)" width="26.7" xlink:href="#sprite2"/>
    </g>
    <g id="sprite2" transform="matrix(1.0, 0.0, 0.0, 1.0, 13.35, 13.35)">
      <use height="26.7" transform="matrix(1.0, 0.0, 0.0, 1.0, -13.35, -13.35)" width="26.7" xlink:href="#shape1"/>
    </g>
    <g id="shape1" transform="matrix(1.0, 0.0, 0.0, 1.0, 13.35, 13.35)">
      <path d="M9.3 -9.85 Q13.35 -5.8 13.35 0.0 13.35 5.8 9.3 9.3 5.8 13.35 0.0 13.35 -5.8 13.35 -9.85 9.3 -13.35 5.8 -13.35 0.0 -13.35 -5.8 -9.85 -9.85 -5.8 -13.35 0.0 -13.35 5.8 -13.35 9.3 -9.85" fill="url(#gradient0)" fill-rule="evenodd" stroke="none"/>
    </g>
    <radialGradient cx="0" cy="0" gradientTransform="matrix(0.0213, 0.0, 0.0, 0.0213, 0.0, 0.0)" gradientUnits="userSpaceOnUse" id="gradient0" r="819.2" spreadMethod="pad">
      <stop offset="0.19607843137254902" stop-color="#fee3bc" stop-opacity="0.78039217"/>
      <stop offset="0.5019607843137255" stop-color="#fee3bc" stop-opacity="0.1254902"/>
      <stop offset="0.7607843137254902" stop-color="#ffe3bd" stop-opacity="0.0"/>
    </radialGradient>
  </defs>
</svg>
