<?xml version="1.0" encoding="UTF-8" standalone="no"?>
<svg xmlns:xlink="http://www.w3.org/1999/xlink" height="52.0px" width="52.0px" xmlns="http://www.w3.org/2000/svg">
  <g transform="matrix(1.0, 0.0, 0.0, 1.0, 0.0, 0.0)">
    <use height="168.0" transform="matrix(1.0, 0.0, 0.0, 1.0, -58.0, -58.0)" width="168.0" xlink:href="#shape0"/>
    <use height="0.0" transform="matrix(0.0364, 0.0153, -0.0248, 0.0389, 28.05, 19.2)" width="0.0" xlink:href="#sprite0"/>
    <use height="0.0" transform="matrix(0.0364, 0.0153, -0.018, 0.0418, 17.45, 14.15)" width="0.0" xlink:href="#sprite0"/>
    <use height="50.15" transform="matrix(1.0, 0.0, 0.0, 1.0, -11.4, 15.55)" width="61.6" xlink:href="#shape1"/>
    <use height="225.25" transform="matrix(0.0166, -0.295, -0.2163, -0.0107, 48.7115, 53.0506)" width="141.5" xlink:href="#sprite1"/>
    <use height="225.25" transform="matrix(0.0427, -0.2759, -0.1705, 8.0E-4, 41.4886, 34.9997)" width="141.5" xlink:href="#sprite1"/>
    <use height="0.0" transform="matrix(0.1319, 0.0574, -0.104, 0.2317, 26.35, 25.55)" width="0.0" xlink:href="#sprite0"/>
  </g>
  <defs>
    <g id="shape0" transform="matrix(1.0, 0.0, 0.0, 1.0, 58.0, 58.0)">
      <path d="M52.0 0.0 L52.0 52.0 0.0 52.0 0.0 0.0 52.0 0.0" fill="#795fa9" fill-opacity="0.0" fill-rule="evenodd" stroke="none"/>
      <path d="M36.35 4.55 Q32.45 3.8 29.4 4.45 L29.15 4.45 Q23.55 4.0 17.75 8.4 14.85 8.75 14.1 9.7 L14.85 11.55 14.9 11.65 14.85 11.65 14.4 12.4 Q13.1 14.6 12.1 16.95 10.6 20.35 9.8 24.1 L10.15 25.4 9.45 28.1 9.2 28.25 9.05 28.35 Q8.3 28.95 7.85 30.3 7.35 31.6 7.5 32.9 7.65 34.0 8.15 34.45 L6.15 37.35 6.15 37.95 Q6.5 39.1 9.05 41.3 L13.6 44.6 15.0 45.45 16.6 46.3 Q20.9 48.4 22.3 48.1 L22.6 47.95 24.55 45.55 Q25.5 44.3 25.3 43.45 L25.85 42.95 26.7 43.45 Q26.6 44.0 26.8 44.4 L27.15 44.85 Q27.45 45.25 28.05 45.3 L28.55 45.5 29.05 45.5 Q29.95 45.45 30.95 44.7 L32.35 42.9 32.7 41.95 32.6 41.4 32.5 40.4 32.2 39.95 32.0 39.75 33.7 38.3 34.0 38.0 35.55 36.65 36.7 37.65 41.9 31.95 42.2 30.9 41.75 30.4 41.8 30.4 44.05 26.65 44.45 25.9 Q45.2 24.05 45.55 22.05 L45.9 20.25 45.95 18.75 45.95 17.55 45.75 15.95 Q45.15 12.65 42.85 9.45 41.65 7.85 40.95 6.5 L40.6 5.85 40.2 4.95 38.35 4.85 36.35 4.55 Z" fill="none" stroke="#000000" stroke-linecap="round" stroke-linejoin="round" stroke-opacity="0.3019608" stroke-width="1.0"/>
      <path d="M8.9 34.75 L8.35 34.55 Q7.7 34.15 7.5 32.9 7.35 31.65 7.85 30.3 8.3 28.95 9.05 28.35 L9.2 28.25 Q9.9 27.7 10.5 27.9 10.1 27.85 9.7 28.15 L9.45 28.3 9.05 28.75 8.4 29.85 8.2 30.35 Q7.7 31.65 7.8 32.95 L7.85 32.95 Q7.95 34.2 8.7 34.6 L8.9 34.75" fill="#bfb072" fill-rule="evenodd" stroke="none"/>
      <path d="M10.5 27.9 L11.0 28.05 11.65 28.95 11.55 28.9 Q10.95 28.55 10.3 29.05 L10.25 29.05 10.3 29.05 10.0 29.0 Q9.65 28.8 9.7 28.15 10.1 27.85 10.5 27.9 M9.9 34.6 L8.9 34.75 8.7 34.6 Q7.95 34.2 7.85 32.95 7.95 33.5 8.35 33.65 8.8 33.75 8.9 33.3 9.1 34.15 9.55 34.5 L9.9 34.6" fill="#696141" fill-rule="evenodd" stroke="none"/>
      <path d="M11.65 28.95 L11.95 29.3 12.25 30.3 Q12.4 31.4 12.0 32.55 11.55 33.7 10.8 34.25 L10.45 34.5 9.9 34.6 9.55 34.5 Q9.1 34.15 8.9 33.3 8.8 33.75 8.35 33.65 7.95 33.5 7.85 32.95 L7.8 32.95 Q7.7 31.65 8.2 30.35 L8.4 29.85 9.05 28.75 9.45 28.3 9.7 28.15 Q9.65 28.8 10.0 29.0 L10.3 29.05 10.25 29.05 10.3 29.05 Q10.95 28.55 11.55 28.9 L11.65 28.95" fill="#5f5a3a" fill-rule="evenodd" stroke="none"/>
      <path d="M10.5 27.9 L11.0 28.05 11.65 28.95 11.95 29.3 12.25 30.3 Q12.4 31.4 12.0 32.55 11.55 33.7 10.8 34.25 L10.45 34.5 9.9 34.6 8.9 34.75 8.35 34.55 Q7.7 34.15 7.5 32.9 7.35 31.65 7.85 30.3 8.3 28.95 9.05 28.35 L9.2 28.25 Q9.9 27.7 10.5 27.9 Z" fill="none" stroke="#000000" stroke-linecap="round" stroke-linejoin="round" stroke-opacity="0.3019608" stroke-width="0.30000000000000004"/>
      <path d="M35.65 35.7 L35.6 35.7 35.6 35.65 35.65 35.7" fill="#1a4d2e" fill-rule="evenodd" stroke="none"/>
      <path d="M15.15 12.2 Q14.05 13.45 12.95 16.65 L12.75 17.1 Q12.2 18.7 12.1 19.9 11.9 21.5 12.45 22.4 L12.8 23.55 Q13.1 24.7 12.65 24.8 L12.05 24.55 10.25 24.0 9.8 24.1 Q10.6 20.35 12.05 16.9 13.05 14.6 14.4 12.4 L14.85 11.6 14.9 11.6 15.15 12.15 15.15 12.2 M17.85 21.2 Q16.05 21.2 16.35 20.8 L18.1 19.2 20.1 17.8 21.25 17.15 21.25 17.1 23.1 14.05 23.15 14.0 23.2 13.05 23.2 12.9 23.15 12.6 Q22.95 11.05 21.7 10.1 21.45 9.9 21.2 9.8 18.3 7.8 14.05 9.7 14.85 8.7 17.75 8.4 23.55 4.0 29.15 4.4 L29.4 4.45 31.5 4.8 32.55 5.1 34.7 6.0 Q36.45 6.75 37.8 7.6 L39.45 8.75 40.3 9.5 41.05 10.2 Q42.5 11.8 43.3 13.65 43.45 15.15 43.05 14.65 L40.3 10.45 40.25 10.55 40.05 10.3 39.8 10.1 38.9 9.2 Q39.95 12.15 39.0 13.55 39.3 11.55 38.75 10.55 L36.35 8.15 Q35.0 7.2 33.35 6.4 L31.3 5.55 29.1 5.2 Q25.3 4.85 22.15 6.5 L19.6 8.15 Q21.4 8.6 22.45 9.85 23.15 10.7 23.5 11.9 L23.7 12.7 23.7 13.35 Q23.6 14.6 22.65 15.8 21.95 18.35 21.95 20.25 22.05 22.45 24.7 23.3 26.95 24.1 30.0 22.85 L28.1 23.75 28.05 23.75 Q25.55 24.55 23.25 23.2 22.4 22.7 22.0 21.85 L21.9 21.65 21.65 20.3 21.75 18.75 21.95 17.65 22.0 16.7 18.45 21.45 18.3 21.1 17.85 21.2 M10.15 25.4 L10.3 24.6 11.05 24.85 9.95 27.95 Q9.4 29.95 9.45 31.05 L12.25 31.8 12.5 31.85 13.1 32.15 Q15.8 33.35 17.8 35.35 L18.0 35.6 20.6 35.1 21.45 34.45 Q22.5 33.55 22.8 31.8 L25.55 34.5 26.1 35.15 26.25 35.3 26.8 35.95 26.95 36.2 Q23.6 35.9 21.9 39.4 L22.85 41.0 23.7 42.6 Q21.2 39.25 19.2 37.3 L18.5 36.6 17.15 35.45 Q15.4 33.95 13.75 33.1 11.85 32.05 10.1 31.8 9.1 31.7 9.85 33.7 L9.6 33.5 Q9.0 32.35 8.7 30.9 L8.7 30.85 10.15 25.4 M32.85 9.45 L33.5 10.0 Q34.4 13.05 31.3 12.3 L29.3 12.1 28.7 12.25 25.8 11.95 25.3 11.7 Q23.6 10.75 23.2 9.6 L23.1 9.0 Q23.85 5.8 29.0 7.05 L29.5 7.15 30.0 7.45 32.85 9.45 M34.3 20.45 L34.4 20.15 34.5 19.6 Q34.6 18.45 34.1 17.3 33.45 16.0 32.0 14.7 31.25 14.2 30.5 13.9 L28.65 13.55 28.35 13.55 Q26.8 13.5 25.2 14.3 L24.85 14.4 25.15 14.25 27.0 13.3 Q27.9 12.9 28.7 12.85 30.2 12.7 31.45 13.45 L32.45 14.25 Q33.9 15.6 34.55 17.15 L34.6 17.25 Q35.05 18.3 35.1 19.5 L35.0 20.05 Q34.95 20.35 35.45 20.95 L36.45 22.4 36.95 23.2 37.2 23.7 38.45 26.65 38.55 26.85 38.5 26.9 36.5 23.55 34.3 20.45" fill="#d0c586" fill-rule="evenodd" stroke="none"/>
      <path d="M15.15 12.2 L14.3 14.35 13.9 16.25 Q13.65 18.75 15.35 19.45 L18.6 18.7 20.1 17.8 18.1 19.2 16.35 20.8 Q16.05 21.2 17.85 21.2 16.35 21.55 14.8 22.2 L14.4 23.25 Q13.95 24.8 14.45 25.65 L12.65 24.8 Q13.1 24.7 12.8 23.55 L12.45 22.4 Q11.9 21.5 12.1 19.9 12.2 18.7 12.75 17.1 L12.95 16.65 Q14.05 13.45 15.15 12.2 M14.55 26.3 L15.9 27.0 Q19.6 28.95 22.8 31.8 22.5 33.55 21.45 34.45 L20.6 35.1 18.0 35.6 17.8 35.35 Q15.8 33.35 13.1 32.15 L12.5 31.85 12.25 31.8 Q10.05 29.9 10.55 28.4 L10.65 27.85 Q11.4 25.35 14.55 26.3 M20.65 29.45 L18.0 27.65 18.25 26.6 Q18.7 24.75 19.75 25.0 21.9 27.2 21.5 24.25 L21.3 22.0 Q21.3 20.85 21.65 20.3 L21.9 21.65 21.95 21.9 Q22.3 23.6 23.85 24.2 L28.1 24.3 28.8 24.1 Q30.9 23.0 32.1 21.65 L33.05 21.6 34.95 23.8 Q33.25 21.85 32.2 22.1 30.7 23.65 28.65 24.85 L28.05 25.2 24.2 26.7 Q19.8 28.05 20.65 29.45 M30.0 22.85 Q26.95 24.1 24.7 23.3 22.05 22.45 21.95 20.25 21.95 18.35 22.65 15.8 23.6 14.6 23.7 13.35 L23.7 12.7 23.5 11.9 Q23.15 10.7 22.45 9.85 21.4 8.6 19.6 8.15 L22.15 6.5 Q25.3 4.85 29.1 5.2 L31.3 5.55 33.35 6.4 Q35.0 7.2 36.35 8.15 L38.75 10.55 Q39.3 11.55 39.0 13.55 38.45 14.4 37.2 14.7 34.7 15.35 34.55 17.15 33.9 15.6 32.45 14.25 L31.45 13.45 Q30.2 12.7 28.7 12.85 27.9 12.9 27.0 13.3 L25.15 14.25 24.85 14.4 25.0 14.8 Q24.15 14.5 22.95 16.85 22.55 17.85 22.45 18.7 22.15 20.35 22.7 21.15 24.0 21.8 24.35 19.45 L24.55 18.4 Q24.9 17.15 25.8 17.05 L32.0 21.15 30.0 22.85 M40.25 10.55 L40.3 10.45 43.05 14.65 Q43.45 15.15 43.3 13.65 L44.0 16.15 44.15 17.2 44.1 17.85 Q43.95 20.25 43.4 22.4 42.5 26.05 40.4 28.9 L39.6 30.0 39.25 28.9 39.05 28.35 39.05 28.25 38.9 27.8 38.65 27.1 Q39.5 29.0 40.15 28.15 42.1 25.3 42.8 22.5 L42.9 22.1 Q43.25 19.95 43.2 18.05 L43.0 16.25 Q42.4 12.95 40.25 10.55 M41.05 10.2 L40.3 9.5 39.45 8.75 39.05 7.15 Q38.65 6.1 37.95 5.45 L37.85 5.35 37.15 5.2 31.5 4.8 29.4 4.45 Q32.45 3.75 36.3 4.55 L38.3 4.85 40.15 4.95 40.55 5.85 40.9 6.5 42.8 9.4 Q45.1 12.65 45.75 15.95 L45.95 17.55 45.95 18.75 45.3 22.1 44.15 25.55 43.65 26.55 41.3 30.0 43.0 27.15 44.45 23.5 44.85 22.15 Q45.5 19.75 45.45 17.65 L45.3 15.95 44.55 13.6 Q43.5 10.85 41.2 7.75 40.4 8.2 41.05 10.2 M41.95 30.65 L42.15 30.85 36.95 36.45 36.7 37.3 36.55 36.4 35.65 35.7 Q36.5 36.3 36.9 36.05 L38.3 34.45 40.4 32.3 41.95 30.65 M32.85 9.45 L30.0 7.45 29.5 7.15 29.0 7.05 Q23.85 5.8 23.1 9.0 L23.2 9.6 Q23.6 10.75 25.3 11.7 L25.8 11.95 28.7 12.25 29.3 12.1 31.3 12.3 Q34.4 13.05 33.5 10.0 L32.85 9.45" fill="#bfb072" fill-rule="evenodd" stroke="none"/>
      <path d="M20.1 17.8 L18.6 18.7 15.35 19.45 Q13.65 18.75 13.9 16.25 L14.3 14.35 15.15 12.2 19.95 14.55 23.1 14.05 21.25 17.1 21.25 17.15 20.1 17.8 M11.05 24.85 L14.55 26.3 Q11.4 25.35 10.65 27.85 L10.55 28.4 Q10.05 29.9 12.25 31.8 L9.45 31.05 Q9.4 29.95 9.95 27.95 L11.05 24.85 M26.95 36.2 L28.8 38.9 Q27.45 41.95 22.85 41.0 L21.9 39.4 Q23.6 35.9 26.95 36.2 M29.4 39.9 L29.85 39.45 32.1 37.45 36.45 33.35 37.75 32.05 Q38.25 32.3 38.4 33.15 L38.3 34.45 36.9 36.05 Q36.5 36.3 35.65 35.7 L35.6 35.65 34.0 37.05 33.15 37.75 Q29.75 40.65 26.6 43.0 L25.7 42.45 29.4 39.9 M25.95 34.2 L22.8 31.1 20.65 29.45 Q19.8 28.05 24.2 26.7 L28.05 25.2 28.65 24.85 Q30.7 23.65 32.2 22.1 33.25 21.85 34.95 23.8 L35.05 23.9 35.3 24.2 37.05 26.4 Q32.15 22.6 28.0 26.15 L26.15 28.1 Q24.2 30.3 25.95 34.2 M18.45 21.45 L22.0 16.7 21.95 17.65 21.75 18.75 21.65 20.3 Q21.3 20.85 21.3 22.0 L21.5 24.25 Q21.9 27.2 19.75 25.0 L18.9 22.45 18.45 21.45 M21.9 21.65 L22.0 21.85 Q22.4 22.7 23.25 23.2 25.55 24.55 28.05 23.75 L28.1 23.75 30.0 22.85 32.0 21.15 32.3 20.75 34.3 20.45 36.5 23.55 38.5 26.9 38.55 26.85 38.55 26.9 38.65 27.1 38.9 27.8 38.5 26.9 36.2 23.6 34.1 21.1 32.7 21.15 33.05 21.6 32.1 21.65 Q30.9 23.0 28.8 24.1 L28.1 24.3 23.85 24.2 Q22.3 23.6 21.95 21.9 L21.9 21.65 M39.0 13.55 Q39.95 12.15 38.9 9.2 L39.8 10.1 40.25 10.75 Q41.05 12.2 41.4 13.8 40.75 13.35 40.05 13.55 39.2 13.8 38.25 14.9 37.35 15.9 36.85 16.95 36.35 18.1 36.2 19.3 36.1 20.7 36.45 22.4 L35.45 20.95 Q34.95 20.35 35.0 20.05 L35.1 19.5 Q35.05 18.3 34.6 17.25 L34.55 17.15 Q34.7 15.35 37.2 14.7 38.45 14.4 39.0 13.55 M43.3 13.65 Q42.5 11.8 41.05 10.2 40.4 8.2 41.2 7.75 43.5 10.85 44.55 13.6 L45.3 15.95 45.45 17.65 Q45.5 19.75 44.85 22.15 L44.45 23.5 43.0 27.15 41.3 30.0 41.75 30.4 41.95 30.65 40.4 32.3 Q40.1 31.7 40.15 30.85 L40.3 29.5 40.4 28.9 Q42.5 26.05 43.4 22.4 43.95 20.25 44.1 17.85 L44.15 17.2 44.0 16.15 43.3 13.65 M39.45 8.75 L37.8 7.6 Q36.45 6.75 34.7 6.0 L32.55 5.1 31.5 4.8 37.15 5.2 37.85 5.35 37.95 5.45 Q38.65 6.1 39.05 7.15 L39.45 8.75 M45.95 18.75 L45.85 20.3 45.55 22.05 Q45.2 24.05 44.4 25.85 L44.05 26.65 44.15 25.55 45.3 22.1 45.95 18.75 M32.3 20.75 L32.7 21.15 32.3 20.75" fill="#a89e64" fill-rule="evenodd" stroke="none"/>
      <path d="M16.55 11.8 L16.5 11.95 17.3 12.25 17.75 11.6 17.95 11.3 18.45 9.95 18.35 9.25 16.5 9.3 15.05 9.75 Q14.8 10.15 15.2 11.1 L15.55 11.8 16.55 11.8 M19.5 10.7 L19.5 10.75 19.4 11.9 19.15 13.05 20.15 12.05 20.6 11.35 20.95 10.35 19.4 9.55 19.5 10.7 M14.45 25.65 Q13.95 24.8 14.4 23.25 L14.8 22.2 18.05 21.65 19.75 25.0 Q18.7 24.75 18.25 26.6 L18.0 27.65 16.65 26.85 14.45 25.65 M23.1 14.05 L19.95 14.55 15.15 12.2 15.15 12.15 14.9 11.6 14.8 11.5 14.05 9.7 Q18.3 7.8 21.2 9.8 21.45 9.9 21.7 10.1 22.95 11.05 23.15 12.6 L23.2 12.9 23.2 13.05 23.15 14.0 23.1 14.05 M28.8 38.9 L29.1 39.4 29.4 39.9 25.7 42.45 26.6 43.0 26.7 43.4 25.8 42.95 25.15 43.5 23.7 42.6 22.85 41.0 Q27.45 41.95 28.8 38.9 M29.85 39.45 L28.3 36.95 27.75 36.25 26.85 35.15 Q30.15 36.8 34.65 33.7 L34.9 33.55 36.35 32.05 Q38.3 29.7 38.0 27.75 L39.05 29.25 39.6 30.0 39.15 30.55 38.95 30.75 38.35 31.4 37.75 32.05 38.35 31.4 38.95 30.75 39.15 30.55 39.6 30.0 40.4 28.9 40.3 29.5 40.15 30.85 Q40.1 31.7 40.4 32.3 L38.3 34.45 38.4 33.15 Q38.25 32.3 37.75 32.05 L36.45 33.35 32.1 37.45 29.85 39.45 M39.8 10.1 L40.05 10.3 40.25 10.55 Q42.4 12.95 43.0 16.25 L43.2 18.05 Q43.25 19.95 42.9 22.1 L42.8 22.5 Q42.1 25.3 40.15 28.15 39.5 29.0 38.65 27.1 L38.55 26.9 38.55 26.85 38.45 26.65 37.2 23.7 Q38.25 23.7 39.1 23.1 L39.45 22.85 Q40.4 22.0 41.05 20.35 L41.5 18.35 41.65 16.4 41.4 13.8 Q41.05 12.2 40.25 10.75 L39.8 10.1 M44.05 26.65 L41.8 30.35 41.75 30.4 41.3 30.0 43.65 26.55 44.15 25.55 44.05 26.65 M35.55 36.6 L34.0 38.0 33.65 38.25 34.0 37.05 35.6 35.65 35.6 35.7 35.55 36.6 M18.25 39.1 L14.8 36.85 Q15.25 36.25 15.3 35.65 15.35 34.4 13.75 33.1 15.4 33.95 17.15 35.45 L18.5 36.6 Q17.75 36.8 17.85 37.7 17.9 38.25 18.25 39.1 M28.55 16.05 L28.95 13.9 27.5 13.95 28.0 17.5 28.45 16.35 28.55 16.05 M24.85 14.4 L25.2 14.3 Q26.8 13.5 28.35 13.55 L28.65 13.55 30.5 13.9 Q31.25 14.2 32.0 14.7 33.45 16.0 34.1 17.3 34.6 18.45 34.5 19.6 L34.4 20.15 34.3 20.45 32.3 20.75 32.0 21.15 25.8 17.05 Q24.9 17.15 24.55 18.4 L24.35 19.45 Q24.0 21.8 22.7 21.15 22.15 20.35 22.45 18.7 22.55 17.85 22.95 16.85 24.15 14.5 25.0 14.8 L24.85 14.4 M32.7 16.25 L32.05 15.4 29.9 18.35 32.7 16.25 M33.0 16.65 L30.95 18.2 33.45 17.25 33.0 16.65 M25.8 42.95 L25.7 42.5 25.7 42.45 25.7 42.5 25.8 42.95" fill="#696141" fill-rule="evenodd" stroke="none"/>
      <path d="M16.55 11.8 L15.55 11.8 15.2 11.1 Q14.8 10.15 15.05 9.75 L16.5 9.3 Q16.85 9.6 16.6 11.35 L16.55 11.7 16.55 11.8 M19.5 10.7 L19.4 9.55 20.95 10.35 20.6 11.35 20.15 12.05 19.15 13.05 19.4 11.9 19.5 10.75 19.5 10.7 M14.8 22.2 Q16.35 21.55 17.85 21.2 L18.3 21.1 18.45 21.45 18.9 22.45 19.75 25.0 18.05 21.65 14.8 22.2 M42.15 30.85 L41.9 31.95 36.7 37.6 36.7 37.3 36.95 36.45 42.15 30.85 M33.65 38.25 L31.4 40.2 26.7 43.4 26.6 43.0 Q29.75 40.65 33.15 37.75 L34.0 37.05 33.65 38.25 M28.55 16.05 L28.45 16.35 28.0 17.5 27.5 13.95 28.95 13.9 28.55 16.05 M33.05 21.6 L32.7 21.15 34.1 21.1 36.2 23.6 38.5 26.9 38.9 27.8 39.05 28.25 39.05 28.35 39.25 28.9 39.6 30.0 39.05 29.25 38.0 27.75 37.05 26.4 35.3 24.2 35.05 23.9 34.95 23.8 33.05 21.6 M33.0 16.65 L33.45 17.25 30.95 18.2 33.0 16.65" fill="#5f5a3a" fill-rule="evenodd" stroke="none"/>
      <path d="M16.5 9.3 L18.35 9.25 18.45 9.95 17.95 11.3 17.75 11.6 17.3 12.25 16.5 11.95 16.55 11.8 16.55 11.7 16.6 11.35 Q16.85 9.6 16.5 9.3 M12.65 24.8 L14.45 25.65 16.65 26.85 18.0 27.65 20.65 29.45 22.8 31.1 25.95 34.2 26.25 34.45 26.7 34.95 26.85 35.15 27.75 36.25 28.3 36.95 29.85 39.45 29.4 39.9 29.1 39.4 28.8 38.9 26.95 36.2 26.8 35.95 26.25 35.3 26.1 35.15 25.55 34.5 22.8 31.8 Q19.6 28.95 15.9 27.0 L14.55 26.3 11.05 24.85 10.3 24.6 10.15 25.4 9.8 24.1 10.25 24.0 12.05 24.55 12.65 24.8 M36.7 37.6 L35.55 36.6 35.6 35.7 35.65 35.7 36.55 36.4 36.7 37.3 36.7 37.6 M23.7 42.6 L18.25 39.1 Q17.9 38.25 17.85 37.7 17.75 36.8 18.5 36.6 L19.2 37.3 Q21.2 39.25 23.7 42.6 M14.8 36.85 L9.85 33.7 Q9.1 31.7 10.1 31.8 11.85 32.05 13.75 33.1 15.35 34.4 15.3 35.65 15.25 36.25 14.8 36.85 M32.7 16.25 L29.9 18.35 32.05 15.4 32.7 16.25" fill="#49432e" fill-rule="evenodd" stroke="none"/>
      <path d="M26.85 35.15 L26.7 34.95 26.25 34.45 25.95 34.2 Q24.2 30.3 26.15 28.1 L28.0 26.15 Q32.15 22.6 37.05 26.4 L38.0 27.75 Q38.3 29.7 36.35 32.05 L34.9 33.55 34.65 33.7 Q30.15 36.8 26.85 35.15 M37.2 23.7 L36.95 23.2 36.45 22.4 Q36.1 20.7 36.2 19.3 36.35 18.1 36.85 16.95 37.35 15.9 38.25 14.9 39.2 13.8 40.05 13.55 40.75 13.35 41.4 13.8 L41.65 16.4 41.5 18.35 41.05 20.35 Q40.4 22.0 39.45 22.85 L39.1 23.1 Q38.25 23.7 37.2 23.7" fill="#968e5a" fill-rule="evenodd" stroke="none"/>
      <path d="M15.15 12.2 L15.15 12.15 14.9 11.6 14.8 11.5 14.85 11.6 14.4 12.4 Q13.05 14.6 12.05 16.9 10.6 20.35 9.8 24.1 L10.15 25.4 10.3 24.6 11.05 24.85 14.55 26.3 15.9 27.0 Q19.6 28.95 22.8 31.8 L25.55 34.5 26.1 35.15 26.25 35.3 26.8 35.95 26.95 36.2 28.8 38.9 29.1 39.4 29.4 39.9 29.85 39.45 32.1 37.45 36.45 33.35 37.75 32.05 38.35 31.4 38.95 30.75 39.15 30.55 39.6 30.0 40.4 28.9 Q42.5 26.05 43.4 22.4 43.95 20.25 44.1 17.85 L44.15 17.2 44.0 16.15 43.3 13.65 Q42.5 11.8 41.05 10.2 L40.3 9.5 39.45 8.75 37.8 7.6 Q36.45 6.75 34.7 6.0 L32.55 5.1 31.5 4.8 29.4 4.45 Q32.45 3.75 36.3 4.55 L38.3 4.85 40.15 4.95 40.55 5.85 40.9 6.5 42.8 9.4 Q45.1 12.65 45.75 15.95 L45.95 17.55 45.95 18.75 45.85 20.3 45.55 22.05 Q45.2 24.05 44.4 25.85 L44.05 26.65 41.8 30.35 41.75 30.4 41.95 30.65 42.15 30.85 41.9 31.95 36.7 37.6 35.55 36.6 34.0 38.0 33.65 38.25 31.4 40.2 26.7 43.4 25.8 42.95 25.15 43.5 23.7 42.6 18.25 39.1 14.8 36.85 9.85 33.7 9.6 33.5 Q9.0 32.35 8.7 30.9 L8.7 30.85 10.15 25.4 M29.4 4.45 L29.15 4.4 Q23.55 4.0 17.75 8.4 14.85 8.7 14.05 9.7 L14.8 11.5 M19.75 25.0 L18.05 21.65 14.8 22.2 M25.8 17.05 L32.0 21.15 32.3 20.75 32.7 21.15 33.05 21.6 34.95 23.8 35.05 23.9 35.3 24.2 37.05 26.4 38.0 27.75 39.05 29.25 39.6 30.0 M41.75 30.4 L41.3 30.0 M25.7 42.45 L25.7 42.5 25.8 42.95 M25.7 42.45 L29.4 39.9" fill="none" stroke="#000000" stroke-linecap="round" stroke-linejoin="round" stroke-opacity="0.3019608" stroke-width="0.30000000000000004"/>
      <path d="M16.5 11.25 L17.4 11.05 17.75 11.05 19.1 11.35 19.8 11.85 20.15 12.25 Q20.6 12.85 20.7 13.65 L20.75 14.15 Q20.7 15.65 19.65 16.75 18.65 17.9 17.3 18.0 L15.9 17.9 14.85 17.2 14.8 17.15 14.05 16.1 13.95 14.9 13.95 14.6 Q14.1 13.3 15.0 12.3 15.65 11.6 16.5 11.25 M29.75 16.25 L30.8 17.15 31.4 18.25 31.4 18.5 Q31.75 19.8 31.05 21.05 30.3 22.4 28.9 22.85 L28.85 22.85 27.25 23.0 26.1 22.6 25.9 22.5 24.95 21.7 Q24.55 21.2 24.4 20.5 L24.35 20.35 Q24.0 19.0 24.7 17.75 25.45 16.4 26.85 15.95 L28.35 15.8 Q29.0 15.85 29.65 16.2 L29.75 16.25" fill="#d0c586" fill-rule="evenodd" stroke="none"/>
      <path d="M13.0 23.9 L13.35 23.05 15.0 23.6 Q16.1 24.0 17.15 24.7 18.25 25.3 19.3 26.15 19.5 26.3 19.35 26.65 L16.6 24.7 15.4 24.95 14.3 24.35 Q15.0 24.2 14.95 23.75 L13.5 23.35 13.0 23.9 M18.05 29.15 L18.1 29.65 17.95 29.95 11.9 26.7 11.95 26.4 12.5 26.15 12.35 26.5 17.75 29.5 18.05 29.15" fill="#bfb072" fill-rule="evenodd" stroke="none"/>
      <path d="M19.35 26.65 L19.1 27.15 18.1 26.25 15.4 24.95 16.6 24.7 19.35 26.65 M17.95 29.95 L17.75 30.25 11.8 27.05 11.9 26.7 17.95 29.95 M12.9 24.05 L13.0 23.9 13.5 23.35 14.95 23.75 Q15.0 24.2 14.3 24.35 L13.35 23.9 12.9 24.05" fill="#a89e64" fill-rule="evenodd" stroke="none"/>
      <path d="M19.1 27.15 L18.75 27.65 18.75 27.35 Q17.25 26.1 15.4 25.2 L13.75 24.45 13.25 24.25 13.15 24.55 12.9 24.05 13.35 23.9 14.3 24.35 15.4 24.95 18.1 26.25 19.1 27.15 M17.75 30.25 L17.35 30.5 16.3 29.85 13.95 28.45 Q12.45 27.6 12.05 30.15 11.65 29.25 11.95 27.55 L11.8 27.05 17.75 30.25" fill="#696141" fill-rule="evenodd" stroke="none"/>
      <path d="M18.75 27.65 L18.05 29.15 17.75 29.5 12.35 26.5 12.5 26.15 13.15 24.55 13.25 24.25 13.75 24.45 15.4 25.2 Q17.25 26.1 18.75 27.35 L18.75 27.65" fill="#423e28" fill-rule="evenodd" stroke="none"/>
      <path d="M16.5 11.25 L17.4 11.05 17.75 11.05 19.1 11.35 19.8 11.85 20.15 12.25 Q20.6 12.85 20.7 13.65 L20.75 14.15 Q20.7 15.65 19.65 16.75 18.65 17.9 17.3 18.0 L15.9 17.9 14.85 17.2 14.8 17.15 14.05 16.1 13.95 14.9 13.95 14.6 Q14.1 13.3 15.0 12.3 15.65 11.6 16.5 11.25 M13.0 23.9 L13.35 23.05 15.0 23.6 Q16.1 24.0 17.15 24.7 18.25 25.3 19.3 26.15 19.5 26.3 19.35 26.65 L19.1 27.15 18.75 27.65 18.05 29.15 18.1 29.65 17.95 29.95 17.75 30.25 17.35 30.5 M11.8 27.05 L11.9 26.7 11.95 26.4 12.5 26.15 13.15 24.55 12.9 24.05 13.0 23.9 M12.5 26.15 L12.35 26.5 17.75 29.5 18.05 29.15 M18.75 27.65 L18.75 27.35 Q17.25 26.1 15.4 25.2 L13.75 24.45 13.25 24.25 13.15 24.55 M29.75 16.25 L30.8 17.15 31.4 18.25 31.4 18.5 Q31.75 19.8 31.05 21.05 30.3 22.4 28.9 22.85 L28.85 22.85 27.25 23.0 26.1 22.6 25.9 22.5 24.95 21.7 Q24.55 21.2 24.4 20.5 L24.35 20.35 Q24.0 19.0 24.7 17.75 25.45 16.4 26.85 15.95 L28.35 15.8 Q29.0 15.85 29.65 16.2 L29.75 16.25" fill="none" stroke="#000000" stroke-linecap="round" stroke-linejoin="round" stroke-opacity="0.3019608" stroke-width="0.30000000000000004"/>
    </g>
    <g id="shape1" transform="matrix(1.0, 0.0, 0.0, 1.0, 11.4, -15.55)">
      <path d="M20.9 38.7 L23.15 40.7 Q18.85 40.95 18.7 42.9 L16.55 41.2 Q20.65 40.65 20.9 38.7 M6.2 37.3 L8.9 33.4 Q9.15 33.0 9.95 33.1 8.05 34.45 7.1 37.1 L6.2 37.3" fill="#d0c586" fill-rule="evenodd" stroke="none"/>
      <path d="M13.9 34.45 Q12.9 36.95 10.8 38.1 L11.95 38.6 Q13.0 39.05 14.0 39.65 14.0 36.85 17.25 36.15 19.2 37.3 20.9 38.7 20.65 40.65 16.55 41.2 L18.7 42.9 19.7 43.85 21.95 46.35 Q22.8 47.5 22.6 47.95 L22.3 48.1 Q22.65 47.0 19.5 44.0 L18.45 43.05 16.55 41.55 Q14.75 40.3 12.65 39.3 L11.9 38.95 Q7.55 37.0 6.15 37.95 6.1 37.6 6.2 37.3 L7.1 37.1 8.05 37.2 Q8.1 33.35 11.85 33.55 L13.9 34.45" fill="#bfb072" fill-rule="evenodd" stroke="none"/>
      <path d="M25.0 42.8 Q25.9 43.8 24.55 45.5 L22.6 47.95 Q22.8 47.5 21.95 46.35 23.8 45.65 25.0 42.8 M9.95 33.1 L11.85 33.55 Q8.1 33.35 8.05 37.2 L7.1 37.1 Q8.05 34.45 9.95 33.1" fill="#a89e64" fill-rule="evenodd" stroke="none"/>
      <path d="M13.9 34.45 L15.75 35.35 17.25 36.15 Q14.0 36.85 14.0 39.65 13.0 39.05 11.95 38.6 L10.8 38.1 Q12.9 36.95 13.9 34.45 M23.15 40.7 L25.0 42.8 Q23.8 45.65 21.95 46.35 L19.7 43.85 18.7 42.9 Q18.85 40.95 23.15 40.7" fill="#696141" fill-rule="evenodd" stroke="none"/>
      <path d="M22.3 48.1 Q20.9 48.45 16.65 46.3 16.2 43.35 16.55 41.55 L18.45 43.05 19.5 44.0 Q22.65 47.0 22.3 48.1 M13.6 44.6 L9.05 41.3 Q6.45 39.1 6.15 37.95 7.55 37.0 11.9 38.95 L12.65 39.3 Q14.3 42.3 13.6 44.6" fill="#5f5a3a" fill-rule="evenodd" stroke="none"/>
      <path d="M16.65 46.3 L14.95 45.4 13.6 44.6 Q14.3 42.3 12.65 39.3 14.75 40.3 16.55 41.55 16.2 43.35 16.65 46.3" fill="#49432e" fill-rule="evenodd" stroke="none"/>
      <path d="M17.25 36.15 L15.75 35.35 13.9 34.45 11.85 33.55 9.95 33.1 Q9.15 33.0 8.9 33.4 L6.2 37.3 Q6.1 37.6 6.15 37.95 6.45 39.1 9.05 41.3 L13.6 44.6 14.95 45.4 16.65 46.3 Q20.9 48.45 22.3 48.1 L22.6 47.95 24.55 45.5 Q25.9 43.8 25.0 42.8 L23.15 40.7 20.9 38.7 Q19.2 37.3 17.25 36.15 Z" fill="none" stroke="#000000" stroke-linecap="round" stroke-linejoin="round" stroke-opacity="0.3019608" stroke-width="0.30000000000000004"/>
      <path d="M32.2 39.95 L31.35 39.75 31.1 39.75 30.5 39.85 Q29.95 40.0 29.35 40.45 L28.9 40.75 Q27.75 41.65 27.2 42.75 26.65 43.9 27.0 44.6 L27.15 44.85 26.75 44.4 Q26.45 43.7 27.0 42.55 27.5 41.4 28.7 40.5 29.75 39.65 30.75 39.55 L30.85 39.5 Q31.8 39.45 32.2 39.95" fill="#bfb072" fill-rule="evenodd" stroke="none"/>
      <path d="M29.35 40.45 Q29.95 40.0 30.5 39.85 L31.1 39.75 31.35 39.75 Q30.95 40.25 31.15 40.55 L31.35 40.75 31.35 40.8 31.4 40.8 Q32.25 40.75 32.55 41.35 L32.6 41.4 32.65 41.9 Q32.2 41.05 31.45 41.1 L31.4 41.05 Q30.7 41.15 29.95 41.7 L29.75 41.85 Q28.85 42.55 28.4 43.4 L28.3 43.65 Q28.05 44.35 28.25 44.85 L28.55 45.5 Q28.25 45.45 28.05 45.25 L27.85 45.0 Q27.65 44.45 27.95 43.65 L28.05 43.35 Q28.5 42.4 29.5 41.65 L29.75 41.45 30.0 41.0 29.95 40.55 29.35 40.45" fill="#a89e64" fill-rule="evenodd" stroke="none"/>
      <path d="M31.35 39.75 L32.2 39.95 32.5 40.35 32.6 41.4 32.55 41.35 Q32.25 40.75 31.4 40.8 L31.35 40.8 31.35 40.75 31.15 40.55 Q30.95 40.25 31.35 39.75 M27.15 44.85 L27.0 44.6 Q26.65 43.9 27.2 42.75 27.0 43.3 27.3 43.6 L27.95 43.65 Q27.65 44.45 27.85 45.0 L28.05 45.25 Q27.45 45.25 27.15 44.85" fill="#696141" fill-rule="evenodd" stroke="none"/>
      <path d="M27.2 42.75 Q27.75 41.65 28.9 40.75 L29.35 40.45 29.95 40.55 30.0 41.0 29.75 41.45 29.5 41.65 Q28.5 42.4 28.05 43.35 L27.95 43.65 27.3 43.6 Q27.0 43.3 27.2 42.75 M32.65 41.9 L32.35 42.9 Q31.9 43.9 30.95 44.7 29.95 45.4 29.05 45.5 L28.55 45.5 28.25 44.85 Q28.05 44.35 28.3 43.65 L28.4 43.4 Q28.85 42.55 29.75 41.85 L29.95 41.7 Q30.7 41.15 31.4 41.05 L31.45 41.1 Q32.2 41.05 32.65 41.9" fill="#5f5a3a" fill-rule="evenodd" stroke="none"/>
      <path d="M32.2 39.95 Q31.8 39.45 30.85 39.5 L30.75 39.55 Q29.75 39.65 28.7 40.5 27.5 41.4 27.0 42.55 26.45 43.7 26.75 44.4 L27.15 44.85 Q27.45 45.25 28.05 45.25 28.25 45.45 28.55 45.5 L29.05 45.5 Q29.95 45.4 30.95 44.7 31.9 43.9 32.35 42.9 L32.65 41.9 32.6 41.4 32.5 40.35 32.2 39.95 Z" fill="none" stroke="#000000" stroke-linecap="round" stroke-linejoin="round" stroke-opacity="0.3019608" stroke-width="0.30000000000000004"/>
    </g>
    <g id="sprite1" transform="matrix(1.0, 0.0, 0.0, 1.0, 34.35, 34.35)">
      <use height="226.45" transform="matrix(1.0, 0.0, 0.0, 1.0, -34.95, -34.95)" width="142.7" xlink:href="#shape2"/>
    </g>
    <g id="shape2" transform="matrix(1.0, 0.0, 0.0, 1.0, 34.95, 34.95)">
      <path d="M67.1 47.3 Q60.05 84.7 45.15 118.0 L67.1 47.3" fill="#000000" fill-opacity="0.05490196" fill-rule="evenodd" stroke="none"/>
      <path d="M72.8 0.4 Q71.4 24.6 67.1 47.3 60.05 84.7 45.15 118.0 L45.0 118.3 Q39.4 130.85 24.25 156.55 M43.75 69.05 Q26.65 113.65 20.4 117.6 17.55 109.85 28.1 81.45 38.25 56.05 47.2 54.0 48.65 56.75 43.75 69.05 M48.0 24.8 Q34.25 59.6 13.6 90.6 7.15 100.3 0.0 109.6 M66.8 0.0 Q53.65 80.05 13.6 143.35 L12.4 145.2 M67.1 47.3 L45.15 118.0" fill="none" stroke="#000000" stroke-linecap="round" stroke-linejoin="round" stroke-opacity="0.08627451" stroke-width="0.30000000000000004"/>
    </g>
  </defs>
</svg>
