<?xml version="1.0" encoding="UTF-8" standalone="no"?>
<svg xmlns:xlink="http://www.w3.org/1999/xlink" height="52.0px" width="52.0px" xmlns="http://www.w3.org/2000/svg">
  <g transform="matrix(1.0, 0.0, 0.0, 1.0, 0.0, 0.0)">
    <use height="56.0" transform="matrix(1.0, 0.0, 0.0, 1.0, -2.0, -2.0)" width="56.0" xlink:href="#shape0"/>
    <use height="0.0" transform="matrix(0.0719, 0.0063, -0.0245, 0.0664, 36.8, 20.05)" width="0.0" xlink:href="#sprite0"/>
    <use height="0.0" transform="matrix(0.0586, 0.0052, -0.0503, 0.0839, 33.65, 12.4)" width="0.0" xlink:href="#sprite0"/>
    <use height="0.0" transform="matrix(0.0443, 0.0039, 0.0044, 0.079, 11.75, 10.0)" width="0.0" xlink:href="#sprite0"/>
    <use height="0.0" transform="matrix(0.0654, -0.0024, 0.0019, 0.0347, 22.65, 10.65)" width="0.0" xlink:href="#sprite0"/>
    <use height="0.0" transform="matrix(0.0589, 0.02, -0.0664, 0.1219, 30.45, 33.15)" width="0.0" xlink:href="#sprite0"/>
    <use height="0.0" transform="matrix(0.1129, 0.0099, -0.0065, 0.1422, 18.15, 30.8)" width="0.0" xlink:href="#sprite0"/>
    <use height="81.5" transform="matrix(0.2001, 0.0176, 0.0057, 0.1824, 26.1, 8.9)" width="81.5" xlink:href="#sprite1"/>
    <use height="81.5" transform="matrix(0.1576, 0.0139, 0.0045, 0.1437, 6.7, 9.4)" width="81.5" xlink:href="#sprite1"/>
  </g>
  <defs>
    <g id="shape0" transform="matrix(1.0, 0.0, 0.0, 1.0, 2.0, 2.0)">
      <path d="M52.0 0.0 L52.0 52.0 0.0 52.0 0.0 0.0 52.0 0.0" fill="#795fa9" fill-opacity="0.0" fill-rule="evenodd" stroke="none"/>
      <path d="M10.35 4.15 Q8.8 5.75 8.2 8.3 L8.35 13.3 Q9.8 15.95 12.1 16.85 L12.05 17.15 12.55 18.85 12.6 20.8 12.9 21.25 9.65 19.8 8.9 20.25 9.25 23.35 10.05 24.35 6.5 25.2 Q5.25 26.5 5.0 27.65 L6.45 29.05 7.2 29.3 6.9 29.7 Q6.2 30.75 6.1 32.05 L6.1 32.25 7.7 33.55 9.5 33.95 10.1 35.8 9.85 36.35 9.7 39.15 10.55 39.9 13.55 39.2 14.15 39.55 14.9 45.6 15.25 46.9 Q16.2 48.0 18.65 48.15 L20.1 48.1 20.85 47.65 21.65 47.2 21.9 47.0 23.55 47.15 24.9 46.3 25.1 45.15 25.1 44.95 26.9 43.6 27.65 43.8 28.9 43.45 29.7 42.7 29.65 41.3 33.75 37.6 34.25 40.3 36.55 42.0 38.3 41.7 40.15 39.65 42.95 40.1 44.55 39.5 46.1 37.6 45.25 35.45 46.45 34.35 47.0 32.7 Q46.35 31.25 44.95 30.8 L44.5 30.6 Q43.3 30.15 42.0 29.85 L39.2 29.4 Q41.4 24.6 41.6 20.25 42.05 18.35 42.65 16.55 L43.4 16.1 44.55 15.0 45.5 13.5 45.5 13.35 45.7 12.45 Q45.9 11.6 45.25 10.1 44.85 9.2 44.5 9.15 L42.7 9.0 Q40.7 9.0 38.45 9.65 L37.6 7.4 37.1 6.6 36.55 5.85 Q35.75 5.0 34.9 4.9 L33.7 5.6 33.25 7.4 31.6 7.0 26.05 7.15 24.1 7.7 Q22.8 6.15 20.55 5.7 19.25 6.9 19.0 9.5 18.35 9.8 17.8 10.25 L17.6 10.35 Q14.3 8.85 12.45 5.45 L11.6 4.6 Q11.15 4.2 10.75 4.15 L10.35 4.15 Z" fill="none" stroke="#000000" stroke-linecap="round" stroke-linejoin="round" stroke-opacity="0.3019608" stroke-width="1.0"/>
      <path d="M26.9 42.8 L29.65 40.45 29.7 42.7 28.9 43.45 26.9 42.8 M23.55 47.15 L21.5 47.0 25.05 44.05 25.1 45.15 23.55 47.15" fill="#aa772b" fill-rule="evenodd" stroke="none"/>
      <path d="M26.9 42.8 L28.9 43.45 27.65 43.8 26.2 43.45 26.9 42.8 M23.55 47.15 L25.1 45.15 24.9 46.3 23.55 47.15" fill="#825a20" fill-rule="evenodd" stroke="none"/>
      <path d="M28.9 43.45 L29.7 42.7 29.65 40.45 26.9 42.8 28.9 43.45 27.65 43.8 26.2 43.45 26.9 42.8 M25.1 45.15 L25.05 44.05 21.5 47.0 23.55 47.15 25.1 45.15 24.9 46.3 23.55 47.15" fill="none" stroke="#000000" stroke-linecap="round" stroke-linejoin="round" stroke-opacity="0.3019608" stroke-width="0.30000000000000004"/>
      <path d="M9.75 27.95 Q10.3 31.6 8.9 32.15 7.55 32.65 6.25 31.6 L7.45 29.5 8.55 28.5 5.45 27.35 6.6 25.6 8.05 24.95 Q9.15 26.2 9.75 27.95 M9.9 24.35 L10.4 24.2 13.45 25.05 13.05 28.95 11.75 28.0 Q10.55 26.65 9.9 24.35" fill="#f0f0d2" fill-rule="evenodd" stroke="none"/>
      <path d="M10.4 32.25 L9.9 28.6 9.75 27.95 Q9.15 26.2 8.05 24.95 L8.8 24.65 9.9 24.35 Q10.55 26.65 11.75 28.0 L13.05 28.95 12.9 31.1 10.4 32.25" fill="#d5d580" fill-rule="evenodd" stroke="none"/>
      <path d="M5.0 27.65 Q5.25 26.5 6.5 25.2 L8.8 24.65 8.05 24.95 6.6 25.6 5.45 27.35 8.55 28.5 7.45 29.5 6.25 31.6 Q7.55 32.65 8.9 32.15 10.3 31.6 9.75 27.95 L9.9 28.6 10.4 32.25 9.75 32.7 9.75 33.45 7.45 32.6 6.1 32.25 6.1 32.05 Q6.2 30.75 6.9 29.7 L7.2 29.3 7.9 28.65 5.0 27.65" fill="#ffffff" fill-rule="evenodd" stroke="none"/>
      <path d="M5.0 27.65 L7.9 28.65 7.2 29.3 6.45 29.05 5.0 27.65 M6.1 32.25 L7.45 32.6 9.75 33.45 10.7 34.2 7.7 33.55 6.1 32.25" fill="#a6a637" fill-rule="evenodd" stroke="none"/>
      <path d="M9.75 33.45 L9.75 32.7 10.4 32.25 12.9 31.1 12.7 33.4 10.7 34.2 9.75 33.45" fill="#737326" fill-rule="evenodd" stroke="none"/>
      <path d="M8.8 24.65 L6.5 25.2 Q5.25 26.5 5.0 27.65 L7.9 28.65 7.2 29.3 6.9 29.7 Q6.2 30.75 6.1 32.05 L6.1 32.25 7.45 32.6 9.75 33.45 9.75 32.7 10.4 32.25 12.9 31.1 12.7 33.4 10.7 34.2 7.7 33.55 6.1 32.25 M8.8 24.65 L9.9 24.35 10.4 24.2 13.45 25.05 13.05 28.95 12.9 31.1 M5.0 27.65 L6.45 29.05 7.2 29.3 M10.7 34.2 L9.75 33.45" fill="none" stroke="#000000" stroke-linecap="round" stroke-linejoin="round" stroke-opacity="0.3019608" stroke-width="0.30000000000000004"/>
      <path d="M12.7 25.5 L10.8 25.35 9.25 23.35 10.55 23.35 12.7 25.5" fill="#aa772b" fill-rule="evenodd" stroke="none"/>
      <path d="M9.25 23.35 L8.9 20.25 9.65 19.8 9.55 20.85 10.55 23.35 9.25 23.35" fill="#d7b15b" fill-rule="evenodd" stroke="none"/>
      <path d="M9.65 19.8 L12.9 21.25 14.55 22.55 14.6 23.75 12.7 25.5 10.55 23.35 9.55 20.85 9.65 19.8" fill="#825a20" fill-rule="evenodd" stroke="none"/>
      <path d="M9.65 19.8 L12.9 21.25 14.55 22.55 14.6 23.75 12.7 25.5 10.8 25.35 9.25 23.35 8.9 20.25 9.65 19.8 9.55 20.85 10.55 23.35 12.7 25.5 M10.55 23.35 L9.25 23.35" fill="none" stroke="#000000" stroke-linecap="round" stroke-linejoin="round" stroke-opacity="0.3019608" stroke-width="0.30000000000000004"/>
      <path d="M19.75 20.35 L20.25 20.4 Q21.8 20.45 23.65 21.0 L24.45 21.25 26.05 21.85 Q23.2 22.5 21.0 25.85 L20.9 26.05 Q18.75 29.65 21.05 31.35 L19.8 31.2 13.35 30.9 12.45 30.85 Q16.6 29.25 18.75 26.8 L19.8 25.3 20.15 24.55 Q21.3 21.65 19.75 20.35 M32.9 7.8 Q29.2 6.85 26.3 9.4 24.1 11.45 26.85 13.8 L26.5 14.6 24.8 13.45 24.65 13.3 24.65 13.25 Q23.4 11.55 24.9 9.9 26.3 8.55 29.1 7.3 L32.9 7.8 M23.5 9.1 L23.75 9.5 23.4 10.15 22.8 9.45 Q23.45 9.45 23.5 9.1 M20.7 9.35 L20.65 9.35 Q20.65 7.9 21.25 7.45 L21.2 8.2 20.7 9.35 M31.45 10.15 Q32.65 9.55 32.15 9.35 33.5 9.3 35.1 10.35 L31.45 10.15 M43.4 16.1 L42.65 16.55 41.95 16.8 41.8 18.1 Q40.8 18.0 39.85 17.05 38.35 15.4 37.1 11.4 36.85 10.0 35.7 8.8 37.25 9.5 38.7 11.2 40.35 13.3 40.6 16.75 L40.7 15.2 Q41.7 14.7 42.45 13.95 43.65 13.9 43.4 16.1 M14.15 39.55 L11.7 37.85 Q10.6 36.85 10.15 35.85 L10.05 34.9 Q9.0 31.4 9.25 29.45 10.0 31.15 10.95 32.15 10.05 33.1 10.05 34.9 10.05 33.1 10.95 32.15 12.25 31.1 16.8 31.2 14.1 31.45 11.95 32.55 11.1 32.95 10.9 34.55 10.65 35.55 11.45 36.75 12.4 38.2 15.7 40.25 L14.15 39.55 M42.8 13.0 L40.6 14.6 40.35 13.05 41.05 12.75 Q42.0 13.6 42.8 13.0 M39.35 11.05 L38.4 10.1 Q39.65 9.45 41.5 9.35 40.15 10.05 40.3 10.65 L39.35 11.05 M40.9 10.5 Q41.85 10.45 42.35 10.75 L42.3 11.35 Q41.9 11.0 41.1 11.15 L40.9 10.5 M30.15 21.5 Q32.45 20.85 34.35 19.45 L36.65 15.8 Q38.7 14.65 39.35 17.6 39.4 20.05 39.05 21.1 L37.45 22.6 33.7 22.95 Q30.9 22.3 30.15 21.5 M39.5 24.15 L40.25 23.05 Q40.0 26.75 37.35 30.8 32.8 39.1 25.95 43.5 L24.95 44.15 20.05 47.65 18.65 47.6 16.85 47.0 19.85 46.75 Q21.65 46.15 24.05 44.3 27.8 41.2 31.15 37.45 L33.45 34.65 Q36.8 30.45 38.25 26.5 38.4 25.45 37.3 25.2 L39.5 24.15 M17.65 40.8 L19.5 41.2 Q17.35 42.15 17.65 44.0 L18.05 45.35 16.15 45.9 15.7 45.85 Q16.7 45.1 16.95 43.85 L16.95 42.8 16.4 40.5 17.6 40.8 17.65 40.8 M16.8 20.45 L14.75 20.95 14.05 21.2 13.15 21.65 Q12.8 20.4 13.6 19.8 14.25 19.3 16.8 20.45" fill="#d5d580" fill-rule="evenodd" stroke="none"/>
      <path d="M17.0 20.4 L13.9 18.35 12.85 17.15 Q12.9 14.85 14.55 12.35 16.3 10.6 18.95 9.85 L20.45 9.5 20.65 9.35 20.45 9.5 18.95 9.85 Q19.15 6.95 20.55 5.7 22.8 6.15 24.1 7.7 L23.5 7.95 25.8 7.55 Q27.7 7.55 23.75 9.5 L23.5 9.1 23.05 8.95 Q22.4 8.75 22.1 9.2 L23.25 10.1 21.55 11.5 18.65 13.75 22.55 14.65 24.65 13.25 24.65 13.3 24.8 13.45 26.5 14.6 26.85 13.8 Q24.1 11.45 26.3 9.4 29.2 6.85 32.9 7.8 L34.85 8.6 Q36.2 9.85 36.55 11.15 37.0 13.1 36.15 15.6 L34.1 18.95 Q32.1 20.65 28.95 21.1 L26.75 20.9 23.65 21.0 Q21.8 20.45 20.25 20.4 L19.75 20.35 17.0 20.4 19.75 20.35 Q21.3 21.65 20.15 24.55 L19.8 25.3 18.75 26.8 Q13.2 31.4 10.7 29.95 L10.2 29.45 Q8.75 27.35 10.35 24.0 11.45 22.6 13.15 21.65 L12.6 20.8 13.5 18.8 17.0 20.4 16.95 20.45 16.8 20.45 16.95 20.45 17.0 20.4 17.05 20.45 17.0 20.4 M22.65 8.3 Q23.05 8.15 23.5 7.95 23.05 8.15 22.65 8.3 21.95 7.6 21.25 7.45 20.65 7.9 20.65 9.35 L20.7 9.35 22.35 8.45 22.65 8.3 M32.15 9.35 Q30.6 9.3 29.3 10.7 L35.1 10.35 Q33.5 9.3 32.15 9.35 M18.65 48.15 Q16.2 48.0 15.25 46.9 L14.9 45.6 Q15.35 46.65 16.45 46.65 L16.85 47.0 18.65 47.6 20.05 47.65 18.65 48.15 M10.15 35.85 Q8.7 32.2 8.8 28.45 L9.25 29.45 Q9.0 31.4 10.05 34.9 L10.15 35.85 M41.5 9.35 L43.6 9.35 44.05 9.45 44.1 11.15 43.5 12.2 42.8 13.0 Q42.0 13.6 41.05 12.75 42.0 12.2 42.3 11.35 L42.35 10.75 Q41.85 10.45 40.9 10.5 L40.3 10.65 Q40.15 10.05 41.5 9.35 M39.35 17.6 L39.45 17.95 39.65 21.5 38.75 22.3 Q37.05 23.4 34.5 23.7 L34.1 23.65 28.6 21.65 30.15 21.5 Q30.9 22.3 33.7 22.95 L37.45 22.6 39.05 21.1 Q39.4 20.05 39.35 17.6 M26.05 21.85 L29.0 23.1 29.8 23.75 30.65 24.8 30.2 26.9 Q29.5 28.8 27.95 30.1 25.25 31.85 21.05 31.35 18.75 29.65 20.9 26.05 L21.0 25.85 Q23.2 22.5 26.05 21.85 M19.5 41.2 L24.2 41.0 Q21.75 43.9 18.05 45.35 L17.65 44.0 Q17.35 42.15 19.5 41.2 M15.7 40.25 L16.4 40.5 16.95 42.8 16.65 43.75 Q16.0 45.2 15.2 45.05 L14.15 39.55 15.7 40.25 M13.15 21.65 L14.05 21.2 14.75 20.95 16.8 20.45 Q14.25 19.3 13.6 19.8 12.8 20.4 13.15 21.65" fill="#f0f0d2" fill-rule="evenodd" stroke="none"/>
      <path d="M12.05 17.15 L13.5 18.8 12.6 20.8 12.55 18.85 12.05 17.15 M24.65 13.25 L22.55 14.65 18.65 13.75 21.55 11.5 23.25 10.1 22.1 9.2 22.8 9.45 23.4 10.15 23.75 9.5 Q27.7 7.55 25.8 7.55 L28.15 7.35 Q25.8 8.35 24.85 9.95 L24.9 9.9 Q23.4 11.55 24.65 13.25 M29.3 10.7 L31.45 10.15 35.1 10.35 29.3 10.7 M44.5 9.15 Q44.85 9.2 45.25 10.1 45.9 11.6 45.7 12.45 L45.5 13.35 44.6 11.15 44.5 9.15 M44.55 15.0 L43.4 16.1 Q43.65 13.9 42.45 13.95 L43.9 12.25 Q43.7 14.2 44.55 15.0 M36.65 15.8 Q37.4 13.7 37.1 11.4 38.35 15.4 39.85 17.05 40.8 18.0 41.8 18.1 41.5 19.25 40.6 20.7 L39.65 21.5 39.45 17.95 39.35 17.6 Q38.7 14.65 36.65 15.8 M40.25 23.05 L39.5 24.15 37.5 23.95 Q39.25 23.65 40.9 21.8 L40.3 22.95 40.25 23.05 M37.3 25.2 Q38.4 25.45 38.25 26.5 36.8 30.45 33.45 34.65 L31.15 37.45 Q35.95 30.2 32.4 27.85 L32.3 27.85 32.3 27.8 30.15 27.85 30.55 27.15 30.8 26.35 30.65 24.8 29.8 23.75 Q32.3 25.5 34.65 25.9 L37.3 25.2 M19.5 31.65 L24.5 34.05 Q25.9 35.2 26.1 36.85 26.05 37.8 25.1 39.05 22.15 40.75 17.65 40.8 L17.6 40.8 16.4 40.5 15.7 40.25 Q12.4 38.2 11.45 36.75 10.65 35.55 10.9 34.55 11.1 32.95 11.95 32.55 14.1 31.45 16.8 31.2 L17.7 31.25 19.5 31.65" fill="#a6a637" fill-rule="evenodd" stroke="none"/>
      <path d="M14.55 12.35 Q12.9 14.85 12.85 17.15 L13.9 18.35 17.0 20.4 13.5 18.8 12.05 17.15 12.2 16.35 Q12.95 13.95 14.55 12.35 M23.65 21.0 L26.75 20.9 28.95 21.1 Q32.1 20.65 34.1 18.95 L36.15 15.6 Q37.0 13.1 36.55 11.15 36.2 9.85 34.85 8.6 L32.9 7.8 29.1 7.3 Q26.3 8.55 24.9 9.9 L24.85 9.95 Q25.8 8.35 28.15 7.35 L25.8 7.55 23.5 7.95 24.1 7.7 26.05 7.15 31.6 7.0 Q33.0 7.2 34.4 7.75 L36.45 8.65 38.05 9.75 Q40.5 8.95 42.7 9.0 L44.5 9.15 44.6 11.15 45.5 13.35 44.35 11.6 43.9 12.25 42.45 13.95 Q41.7 14.7 40.7 15.2 L40.6 16.75 Q40.35 13.3 38.7 11.2 37.25 9.5 35.7 8.8 36.85 10.0 37.1 11.4 37.4 13.7 36.65 15.8 L34.35 19.45 Q32.45 20.85 30.15 21.5 L28.6 21.65 24.45 21.25 23.65 21.0 M22.1 9.2 Q22.4 8.75 23.05 8.95 L23.5 9.1 Q23.45 9.45 22.8 9.45 L22.1 9.2 M31.45 10.15 L29.3 10.7 Q30.6 9.3 32.15 9.35 32.65 9.55 31.45 10.15 M14.9 45.6 L14.15 39.55 15.2 45.05 Q16.0 45.2 16.65 43.75 L16.95 42.8 16.95 43.85 Q16.7 45.1 15.7 45.85 L16.15 45.9 18.05 45.35 Q21.75 43.9 24.2 41.0 L24.25 41.0 Q25.45 40.65 26.25 40.1 22.05 44.1 17.1 46.55 L16.45 46.65 Q15.35 46.65 14.9 45.6 M8.8 28.45 L8.95 27.5 Q9.25 25.5 10.35 24.0 8.75 27.35 10.2 29.45 L10.7 29.95 Q13.2 31.4 18.75 26.8 16.6 29.25 12.45 30.85 L13.35 30.9 19.8 31.2 21.05 31.35 Q25.25 31.85 27.95 30.1 29.5 28.8 30.2 26.9 L30.65 24.8 30.8 26.35 30.55 27.15 30.15 27.85 29.1 29.8 Q26.6 31.8 22.6 32.4 L19.5 31.65 17.7 31.25 16.8 31.2 Q12.25 31.1 10.95 32.15 10.0 31.15 9.25 29.45 L8.8 28.45 M42.8 13.0 L43.5 12.2 44.1 11.15 44.05 9.45 43.6 9.35 41.5 9.35 Q39.65 9.45 38.4 10.1 L39.35 11.05 39.75 11.7 40.35 13.05 40.6 14.6 42.8 13.0 M38.05 9.75 L38.4 10.1 38.05 9.75 M17.0 20.4 L17.05 20.45 17.0 20.4" fill="#ffffff" fill-rule="evenodd" stroke="none"/>
      <path d="M22.65 8.3 L22.35 8.45 20.7 9.35 21.2 8.2 21.25 7.45 Q21.95 7.6 22.65 8.3 M22.35 8.45 L21.3 7.95 21.2 8.2 21.3 7.95 22.35 8.45 M45.5 13.35 L45.5 13.5 44.55 15.0 Q43.7 14.2 43.9 12.25 L44.35 11.6 45.5 13.35 M42.65 16.55 Q42.05 18.35 41.6 20.25 L40.9 21.8 Q39.25 23.65 37.5 23.95 L39.5 24.15 37.3 25.2 34.65 25.9 Q32.3 25.5 29.8 23.75 L29.0 23.1 26.05 21.85 24.45 21.25 28.6 21.65 34.1 23.65 34.5 23.7 Q37.05 23.4 38.75 22.3 L39.65 21.5 40.6 20.7 Q41.5 19.25 41.8 18.1 L41.95 16.8 42.65 16.55 M40.35 13.05 L39.75 11.7 39.35 11.05 40.3 10.65 40.9 10.5 41.1 11.15 Q41.9 11.0 42.3 11.35 42.0 12.2 41.05 12.75 L40.35 13.05 M41.1 11.15 Q40.55 11.25 39.75 11.7 40.55 11.25 41.1 11.15 M22.6 32.4 L24.0 32.75 25.9 34.15 26.3 34.55 27.55 36.45 27.65 38.4 27.25 39.15 26.25 40.1 Q25.45 40.65 24.25 41.0 L24.2 41.0 19.5 41.2 17.65 40.8 Q22.15 40.75 25.1 39.05 26.05 37.8 26.1 36.85 25.9 35.2 24.5 34.05 L19.5 31.65 22.6 32.4" fill="#999933" fill-rule="evenodd" stroke="none"/>
      <path d="M41.6 20.25 Q41.25 27.55 35.45 35.95 28.55 43.0 21.65 47.2 L20.85 47.65 20.1 48.1 18.65 48.15 20.05 47.65 24.95 44.15 25.95 43.5 Q32.8 39.1 37.35 30.8 40.0 26.75 40.25 23.05 L40.3 22.95 40.9 21.8 41.6 20.25 M31.15 37.45 Q27.8 41.2 24.05 44.3 21.65 46.15 19.85 46.75 L16.85 47.0 16.45 46.65 17.1 46.55 Q22.05 44.1 26.25 40.1 L27.25 39.15 27.65 38.4 27.55 36.45 26.3 34.55 25.9 34.15 24.0 32.75 22.6 32.4 Q26.6 31.8 29.1 29.8 L30.15 27.85 32.3 27.8 32.3 27.85 32.4 27.85 Q35.95 30.2 31.15 37.45" fill="#bfbf40" fill-rule="evenodd" stroke="none"/>
      <path d="M14.55 12.35 Q12.95 13.95 12.2 16.35 L12.05 17.15 12.55 18.85 12.6 20.8 13.15 21.65 Q11.45 22.6 10.35 24.0 9.25 25.5 8.95 27.5 L8.8 28.45 Q8.7 32.2 10.15 35.85 10.6 36.85 11.7 37.85 L14.15 39.55 15.7 40.25 16.4 40.5 17.6 40.8 17.65 40.8 19.5 41.2 24.2 41.0 24.25 41.0 Q25.45 40.65 26.25 40.1 L27.25 39.15 27.65 38.4 27.55 36.45 26.3 34.55 25.9 34.15 24.0 32.75 22.6 32.4 19.5 31.65 17.7 31.25 16.8 31.2 Q12.25 31.1 10.95 32.15 10.0 31.15 9.25 29.45 L8.8 28.45 M17.0 20.4 L19.75 20.35 20.25 20.4 Q21.8 20.45 23.65 21.0 L24.45 21.25 26.05 21.85 29.0 23.1 29.8 23.75 Q32.3 25.5 34.65 25.9 L37.3 25.2 39.5 24.15 40.25 23.05 M23.5 7.95 Q23.05 8.15 22.65 8.3 L22.35 8.45 20.7 9.35 20.65 9.35 20.45 9.5 18.95 9.85 Q16.3 10.6 14.55 12.35 M24.1 7.7 L23.5 7.95 M21.2 8.2 L21.3 7.95 22.35 8.45 M20.7 9.35 L21.2 8.2 M18.95 9.85 Q19.15 6.95 20.55 5.7 22.8 6.15 24.1 7.7 L26.05 7.15 31.6 7.0 Q33.0 7.2 34.4 7.75 L36.45 8.65 38.05 9.75 Q40.5 8.95 42.7 9.0 L44.5 9.15 Q44.85 9.2 45.25 10.1 45.9 11.6 45.7 12.45 L45.5 13.35 45.5 13.5 44.55 15.0 43.4 16.1 42.65 16.55 Q42.05 18.35 41.6 20.25 41.25 27.55 35.45 35.95 28.55 43.0 21.65 47.2 L20.85 47.65 20.1 48.1 18.65 48.15 Q16.2 48.0 15.25 46.9 L14.9 45.6 14.15 39.55 M40.35 13.05 L39.75 11.7 39.35 11.05 38.4 10.1 38.05 9.75 M42.35 10.75 L42.3 11.35 Q42.0 12.2 41.05 12.75 L40.35 13.05 M39.75 11.7 Q40.55 11.25 41.1 11.15 41.9 11.0 42.3 11.35 M41.95 16.8 L42.65 16.55 M40.9 21.8 L41.6 20.25 M40.3 22.95 L40.9 21.8 M17.0 20.4 L16.95 20.45 16.8 20.45 14.75 20.95 14.05 21.2 13.15 21.65 M10.05 34.9 Q10.05 33.1 10.95 32.15 M10.05 34.9 L10.15 35.85" fill="none" stroke="#000000" stroke-linecap="round" stroke-linejoin="round" stroke-opacity="0.3019608" stroke-width="0.30000000000000004"/>
      <path d="M12.65 17.25 L12.3 16.8 13.55 15.05 22.45 12.9 34.5 15.3 36.1 19.1 35.5 19.65 Q32.6 21.95 27.85 18.25 25.85 18.8 22.15 17.1 20.4 15.95 18.65 16.45 L18.3 16.8 15.4 17.7 Q13.5 17.95 12.65 17.25" fill="#a6a637" fill-rule="evenodd" stroke="none"/>
      <path d="M18.3 16.8 Q16.2 18.65 13.3 18.05 L12.65 17.25 Q13.5 17.95 15.4 17.7 L18.3 16.8 M35.5 19.65 Q33.9 21.15 31.2 20.7 28.55 19.75 27.85 18.25 32.6 21.95 35.5 19.65" fill="#ffffff" fill-rule="evenodd" stroke="none"/>
      <path d="M8.2 9.45 L8.9 13.0 Q9.65 13.85 10.45 13.7 11.65 13.1 12.35 9.45 12.5 7.75 12.0 6.65 11.35 4.6 10.75 4.15 11.15 4.2 11.6 4.6 12.55 6.55 12.7 7.85 L12.7 9.25 Q12.3 12.75 11.35 13.9 11.6 14.8 13.3 15.85 11.25 14.95 10.75 14.35 9.75 14.45 8.35 13.3 L8.2 9.45" fill="#ffff98" fill-rule="evenodd" stroke="none"/>
      <path d="M8.2 9.45 L8.2 8.3 Q8.8 5.75 10.35 4.15 L10.75 4.15 Q11.35 4.6 12.0 6.65 12.5 7.75 12.35 9.45 11.65 13.1 10.45 13.7 9.65 13.85 8.9 13.0 L8.2 9.45" fill="#ffde4f" fill-rule="evenodd" stroke="none"/>
      <path d="M11.6 4.6 L12.45 5.45 Q14.55 9.35 18.6 10.75 L18.1 12.0 Q16.6 11.7 15.4 10.9 13.85 9.8 12.7 7.85 12.55 6.55 11.6 4.6" fill="#f4a33c" fill-rule="evenodd" stroke="none"/>
      <path d="M13.3 15.85 Q11.6 14.8 11.35 13.9 12.3 12.75 12.7 9.25 L12.7 7.85 Q13.85 9.8 15.4 10.9 18.1 14.35 15.15 16.1 L13.55 15.95 13.3 15.85" fill="#cc6b22" fill-rule="evenodd" stroke="none"/>
      <path d="M18.1 12.0 L16.5 15.65 Q15.1 17.3 13.05 17.1 10.15 16.45 8.35 13.3 9.75 14.45 10.75 14.35 11.25 14.95 13.3 15.85 L13.55 15.95 15.15 16.1 Q18.1 14.35 15.4 10.9 16.6 11.7 18.1 12.0" fill="#a34100" fill-rule="evenodd" stroke="none"/>
      <path d="M10.75 4.15 L10.35 4.15 Q8.8 5.75 8.2 8.3 L8.2 9.45 8.35 13.3 Q10.15 16.45 13.05 17.1 15.1 17.3 16.5 15.65 L18.1 12.0 18.6 10.75 Q14.55 9.35 12.45 5.45 L11.6 4.6 Q11.15 4.2 10.75 4.15 Z" fill="none" stroke="#000000" stroke-linecap="round" stroke-linejoin="round" stroke-opacity="0.3019608" stroke-width="0.30000000000000004"/>
      <path d="M24.35 16.85 Q22.65 16.25 21.95 15.5 21.25 13.75 21.8 13.0 L24.05 14.35 Q24.75 15.65 24.35 16.85 M17.5 15.9 L15.85 15.75 14.8 14.2 15.45 14.5 17.5 15.9 M26.9 15.05 L28.1 14.1 27.55 16.15 26.9 15.05" fill="#d8a53f" fill-rule="evenodd" stroke="none"/>
      <path d="M27.55 17.4 L24.35 16.85 Q24.75 15.65 24.05 14.35 L24.25 14.4 26.9 15.05 27.55 16.15 27.55 17.4 M19.65 14.9 L18.9 15.4 17.5 15.9 15.45 14.5 15.45 13.55 17.1 13.4 18.45 12.75 19.65 14.9 M24.5 9.55 Q25.95 10.55 25.8 12.55 25.25 13.05 24.65 12.95 25.5 12.8 25.3 11.6 25.1 10.3 24.5 9.55" fill="#aa772b" fill-rule="evenodd" stroke="none"/>
      <path d="M27.3 9.4 Q28.3 10.6 28.75 12.1 29.15 13.45 29.2 15.0 29.0 16.55 27.55 17.4 L27.55 16.15 28.1 14.1 28.3 13.85 Q28.85 12.45 27.3 9.4 M21.95 15.5 L20.7 14.85 19.65 14.9 19.0 12.55 19.5 12.3 20.4 12.15 Q21.15 12.2 21.8 13.0 21.25 13.75 21.95 15.5 M20.85 9.4 Q20.5 10.0 18.4 11.4 17.15 12.5 16.9 11.85 18.1 10.25 20.85 9.4 M24.65 12.95 L24.0 12.6 Q23.65 11.55 23.95 10.75 L24.5 9.55 Q25.1 10.3 25.3 11.6 25.5 12.8 24.65 12.95" fill="#825a20" fill-rule="evenodd" stroke="none"/>
      <path d="M24.4 8.15 L25.35 8.05 Q26.7 8.65 26.95 8.9 L27.3 9.4 Q28.85 12.45 28.3 13.85 L28.1 14.1 26.9 15.05 24.25 14.4 24.05 14.35 21.8 13.0 Q21.15 12.2 20.4 12.15 23.1 10.4 24.05 8.85 L24.4 8.15 M14.8 14.2 Q14.75 13.75 14.85 13.25 L15.45 12.5 Q14.95 13.35 15.45 13.55 L15.45 14.5 14.8 14.2 M24.5 9.55 L23.95 10.75 Q23.65 11.55 24.0 12.6 L24.65 12.95 Q25.25 13.05 25.8 12.55 25.95 10.55 24.5 9.55" fill="#d7b15b" fill-rule="evenodd" stroke="none"/>
      <path d="M15.65 12.25 L16.6 11.25 Q18.8 9.2 21.5 8.45 L21.95 8.45 Q24.3 8.55 23.5 9.4 L23.2 9.65 Q21.7 11.0 20.05 11.6 18.65 11.85 17.3 12.75 15.1 13.55 15.65 12.25 M20.85 9.4 Q18.1 10.25 16.9 11.85 17.15 12.5 18.4 11.4 20.5 10.0 20.85 9.4" fill="#e4d081" fill-rule="evenodd" stroke="none"/>
      <path d="M21.95 8.45 L24.4 8.15 24.05 8.85 Q23.1 10.4 20.4 12.15 L19.5 12.3 19.0 12.55 19.65 14.9 18.45 12.75 17.1 13.4 15.45 13.55 Q14.95 13.35 15.45 12.5 L15.65 12.25 Q15.1 13.55 17.3 12.75 18.65 11.85 20.05 11.6 21.7 11.0 23.2 9.65 L23.5 9.4 Q24.3 8.55 21.95 8.45" fill="#efe2b1" fill-rule="evenodd" stroke="none"/>
      <path d="M15.65 12.25 L16.6 11.25 Q18.8 9.2 21.5 8.45 L21.95 8.45 24.4 8.15 25.35 8.05 Q26.7 8.65 26.95 8.9 L27.3 9.4 Q28.3 10.6 28.75 12.1 29.15 13.45 29.2 15.0 29.0 16.55 27.55 17.4 L24.35 16.85 Q22.65 16.25 21.95 15.5 L20.7 14.85 19.65 14.9 18.9 15.4 17.5 15.9 15.85 15.75 14.8 14.2 Q14.75 13.75 14.85 13.25 L15.45 12.5 15.65 12.25 M15.45 13.55 L17.1 13.4 18.45 12.75 M19.65 14.9 L19.0 12.55 19.5 12.3 20.4 12.15 Q21.15 12.2 21.8 13.0 L24.05 14.35 24.25 14.4 26.9 15.05 28.1 14.1 28.3 13.85 Q28.85 12.45 27.3 9.4 M15.45 14.5 L17.5 15.9 M15.45 13.55 L15.45 14.5 14.8 14.2 M15.45 12.5 Q14.95 13.35 15.45 13.55 M20.85 9.4 Q18.1 10.25 16.9 11.85 17.15 12.5 18.4 11.4 20.5 10.0 20.85 9.4 M24.65 12.95 L24.0 12.6 Q23.65 11.55 23.95 10.75 L24.5 9.55 Q25.95 10.55 25.8 12.55 25.25 13.05 24.65 12.95 M24.05 14.35 Q24.75 15.65 24.35 16.85 M21.8 13.0 Q21.25 13.75 21.95 15.5 M27.55 17.4 L27.55 16.15 26.9 15.05 M27.55 16.15 L28.1 14.1" fill="none" stroke="#000000" stroke-linecap="round" stroke-linejoin="round" stroke-opacity="0.3019608" stroke-width="0.30000000000000004"/>
      <path d="M29.9 18.2 Q28.9 17.7 28.7 16.55 28.8 14.3 29.8 13.25 L32.7 10.1 33.75 7.55 33.9 6.4 34.85 7.25 35.3 11.2 34.75 13.95 33.5 15.85 31.9 17.45 29.9 18.2 M34.0 5.45 L34.9 4.9 Q35.75 5.0 36.55 5.85 36.95 7.0 36.65 7.35 L35.25 7.2 Q34.0 6.35 34.0 5.45 M37.1 6.6 L37.6 7.4 Q39.0 9.95 38.75 13.25 L37.05 15.5 38.4 12.3 Q38.2 8.25 37.05 7.6 L37.1 6.6 M28.6 17.5 L28.65 17.5 28.6 17.5" fill="#ffde4f" fill-rule="evenodd" stroke="none"/>
      <path d="M31.9 18.6 L34.0 16.2 35.65 11.65 35.55 7.65 37.05 7.6 Q38.2 8.25 38.4 12.3 L37.05 15.5 36.45 16.25 31.9 18.6" fill="#f4a33c" fill-rule="evenodd" stroke="none"/>
      <path d="M38.75 13.25 Q38.35 16.35 36.9 18.4 L36.45 16.25 37.05 15.5 38.75 13.25" fill="#cc6b22" fill-rule="evenodd" stroke="none"/>
      <path d="M29.9 18.2 L31.9 17.45 33.5 15.85 34.75 13.95 35.3 11.2 34.85 7.25 33.9 6.4 33.75 7.55 32.7 10.1 29.8 13.25 Q28.8 14.3 28.7 16.55 28.9 17.7 29.9 18.2 M29.6 18.8 Q29.0 18.3 28.65 17.6 L28.6 17.5 Q27.6 15.3 29.55 12.8 32.2 10.7 33.15 7.7 L33.7 5.6 34.0 5.45 Q34.0 6.35 35.25 7.2 L36.65 7.35 Q36.95 7.0 36.55 5.85 L37.1 6.6 37.05 7.6 35.55 7.65 35.65 11.65 34.0 16.2 31.9 18.6 29.6 18.8 M28.6 17.5 L28.65 17.5 28.6 17.5" fill="#ffff98" fill-rule="evenodd" stroke="none"/>
      <path d="M36.9 18.4 Q35.8 19.55 34.55 19.9 L32.35 19.85 Q30.65 19.6 29.6 18.8 L31.9 18.6 36.45 16.25 36.9 18.4" fill="#a34100" fill-rule="evenodd" stroke="none"/>
      <path d="M29.6 18.8 Q29.0 18.3 28.65 17.6 L28.6 17.5 Q27.6 15.3 29.55 12.8 32.2 10.7 33.15 7.7 L33.7 5.6 34.0 5.45 34.9 4.9 Q35.75 5.0 36.55 5.85 L37.1 6.6 37.6 7.4 Q39.0 9.95 38.75 13.25 38.35 16.35 36.9 18.4 35.8 19.55 34.55 19.9 L32.35 19.85 Q30.65 19.6 29.6 18.8 L31.9 18.6 36.45 16.25 36.9 18.4 M36.45 16.25 L37.05 15.5 38.75 13.25" fill="none" stroke="#000000" stroke-linecap="round" stroke-linejoin="round" stroke-opacity="0.3019608" stroke-width="0.30000000000000004"/>
      <path d="M45.85 34.9 L46.5 32.75 44.6 33.3 46.25 32.25 43.7 30.8 42.2 29.95 43.7 30.8 44.55 31.45 42.2 31.9 40.95 32.15 Q36.6 33.3 35.1 35.65 L33.95 33.5 34.85 32.35 Q38.5 32.3 40.45 31.4 41.65 30.85 42.2 29.95 L42.0 29.85 Q43.3 30.15 44.5 30.6 L44.95 30.8 Q46.35 31.25 47.0 32.7 L46.45 34.35 45.85 34.9 M37.1 39.5 L38.65 40.0 37.15 40.95 37.1 39.5" fill="#d5d580" fill-rule="evenodd" stroke="none"/>
      <path d="M42.0 29.85 L42.2 29.95 Q41.65 30.85 40.45 31.4 38.5 32.3 34.85 32.35 L37.35 29.3 38.1 29.35 42.0 29.85 M43.7 33.85 L45.0 35.05 45.25 35.45 45.25 35.5 45.3 37.15 Q45.1 37.8 43.2 37.65 L40.75 36.95 40.65 37.3 39.45 39.3 38.05 39.15 36.35 37.8 36.1 37.45 Q34.45 34.25 42.2 31.9 L44.55 31.45 45.45 32.2 43.7 33.85" fill="#f0f0d2" fill-rule="evenodd" stroke="none"/>
      <path d="M43.7 30.8 L46.25 32.25 44.6 33.3 43.7 33.85 45.45 32.2 44.55 31.45 43.7 30.8 M33.95 33.5 L35.1 35.65 Q36.6 33.3 40.95 32.15 L42.2 31.9 Q34.45 34.25 36.1 37.45 L36.35 37.8 38.05 39.15 39.45 39.3 40.65 37.3 40.75 36.95 43.2 37.65 Q45.1 37.8 45.3 37.15 L45.25 35.5 46.1 37.6 44.7 37.85 44.55 37.9 43.7 38.0 40.6 37.7 40.65 37.3 40.6 37.7 40.6 37.75 40.4 39.35 38.65 40.0 37.1 39.5 35.95 38.2 34.25 40.3 35.65 37.5 33.95 33.5" fill="#ffffff" fill-rule="evenodd" stroke="none"/>
      <path d="M43.7 38.0 L44.55 37.9 44.7 37.85 46.1 37.6 44.55 39.5 42.95 40.1 43.7 38.0 M36.55 42.0 L34.25 40.3 35.95 38.2 37.1 39.5 37.15 40.95 36.55 42.0" fill="#bfbf40" fill-rule="evenodd" stroke="none"/>
      <path d="M44.6 33.3 L46.5 32.75 45.85 34.9 45.25 35.45 45.0 35.05 43.7 33.85 44.6 33.3 M40.6 37.7 L43.7 38.0 42.95 40.1 40.15 39.65 40.4 39.35 40.6 37.75 40.6 37.7 M34.25 40.3 L33.55 36.8 Q34.1 35.25 33.95 33.5 L35.65 37.5 34.25 40.3" fill="#a6a637" fill-rule="evenodd" stroke="none"/>
      <path d="M40.15 39.65 L38.3 41.7 36.55 42.0 37.15 40.95 38.65 40.0 40.4 39.35 40.15 39.65" fill="#999933" fill-rule="evenodd" stroke="none"/>
      <path d="M45.85 34.9 L46.45 34.35 47.0 32.7 Q46.35 31.25 44.95 30.8 L44.5 30.6 Q43.3 30.15 42.0 29.85 L42.2 29.95 43.7 30.8 46.25 32.25 44.6 33.3 43.7 33.85 45.0 35.05 45.25 35.45 45.85 34.9 M37.35 29.3 L38.1 29.35 42.0 29.85 M40.75 36.95 L40.65 37.3 40.6 37.7 43.7 38.0 44.55 37.9 44.7 37.85 46.1 37.6 45.25 35.5 45.25 35.45 M46.1 37.6 L44.55 39.5 42.95 40.1 40.15 39.65 38.3 41.7 36.55 42.0 34.25 40.3 33.55 36.8 M33.95 33.5 L35.65 37.5 M34.25 40.3 L35.95 38.2 37.1 39.5 38.65 40.0 40.4 39.35 40.6 37.75 40.6 37.7 M40.4 39.35 L40.15 39.65 M36.55 42.0 L37.15 40.95 37.1 39.5 M38.65 40.0 L37.15 40.95" fill="none" stroke="#000000" stroke-linecap="round" stroke-linejoin="round" stroke-opacity="0.3019608" stroke-width="0.30000000000000004"/>
      <path d="M30.1 25.85 L30.9 23.55 30.75 22.45 31.5 23.05 31.35 26.1 30.1 25.85 M13.55 39.2 L10.55 39.9 9.7 39.15 10.35 39.2 12.65 38.35 13.55 39.2 M18.15 36.4 L19.3 35.3 22.65 35.5 21.35 35.8 18.15 36.4" fill="#aa772b" fill-rule="evenodd" stroke="none"/>
      <path d="M30.75 22.45 L30.9 23.55 30.1 25.85 28.0 27.65 26.05 25.6 26.0 24.35 27.6 23.35 30.75 22.45 M9.7 39.15 L9.85 36.35 10.95 35.05 Q10.25 36.6 10.35 38.6 11.9 38.5 14.55 35.95 L12.65 38.35 10.35 39.2 9.7 39.15 M22.65 35.5 L23.05 35.55 24.2 36.45 21.0 40.8 19.85 40.85 18.75 39.7 18.65 37.1 21.35 35.8 22.65 35.5" fill="#d7b15b" fill-rule="evenodd" stroke="none"/>
      <path d="M9.85 36.35 L10.9 34.1 12.05 33.7 10.95 35.05 9.85 36.35" fill="#e0c585" fill-rule="evenodd" stroke="none"/>
      <path d="M30.1 25.85 L31.35 26.1 29.95 27.85 28.0 27.65 30.1 25.85 M15.4 34.9 L15.85 36.5 13.55 39.2 12.65 38.35 14.55 35.95 15.4 34.9 M24.2 36.45 L24.25 38.4 22.3 40.6 20.05 41.8 18.75 41.7 18.2 40.9 19.85 40.85 21.0 40.8 24.2 36.45" fill="#825a20" fill-rule="evenodd" stroke="none"/>
      <path d="M12.05 33.7 L15.4 34.9 14.55 35.95 Q11.9 38.5 10.35 38.6 10.25 36.6 10.95 35.05 L12.05 33.7 M18.2 40.9 L18.15 36.4 21.35 35.8 18.65 37.1 18.75 39.7 19.85 40.85 18.2 40.9" fill="#cfa441" fill-rule="evenodd" stroke="none"/>
      <path d="M30.75 22.45 L30.9 23.55 30.1 25.85 31.35 26.1 31.5 23.05 30.75 22.45 27.6 23.35 26.0 24.35 26.05 25.6 28.0 27.65 30.1 25.85 M28.0 27.65 L29.95 27.85 31.35 26.1 M9.85 36.35 L10.9 34.1 12.05 33.7 15.4 34.9 15.85 36.5 13.55 39.2 10.55 39.9 9.7 39.15 9.85 36.35 10.95 35.05 12.05 33.7 M24.2 36.45 L24.25 38.4 22.3 40.6 20.05 41.8 18.75 41.7 18.2 40.9 18.15 36.4 19.3 35.3 22.65 35.5 23.05 35.55 24.2 36.45 21.0 40.8 19.85 40.85 18.2 40.9 M21.35 35.8 L18.15 36.4 M14.55 35.95 L15.4 34.9 M12.65 38.35 L13.55 39.2 M12.65 38.35 L14.55 35.95 M9.7 39.15 L10.35 39.2 12.65 38.35 M21.35 35.8 L22.65 35.5" fill="none" stroke="#000000" stroke-linecap="round" stroke-linejoin="round" stroke-opacity="0.3019608" stroke-width="0.30000000000000004"/>
      <path d="M18.55 19.0 L18.5 18.95 Q18.35 18.4 18.5 17.65 L18.55 17.45 18.85 18.2 18.85 18.25 18.8 19.35 18.55 19.0" fill="#d5d580" fill-rule="evenodd" stroke="none"/>
      <path d="M18.85 18.2 L18.85 18.25 18.85 18.2" fill="#a6a637" fill-rule="evenodd" stroke="none"/>
      <path d="M20.6 16.05 Q21.6 16.05 21.6 17.6 L20.95 19.3 20.15 19.8 Q18.8 20.55 18.55 19.0 L18.8 19.35 19.25 19.55 Q19.65 19.6 20.65 18.8 L21.05 17.5 21.0 16.65 20.95 16.5 20.6 16.05" fill="#ffffff" fill-rule="evenodd" stroke="none"/>
      <path d="M19.65 16.1 L20.25 15.95 20.6 16.05 20.95 16.5 21.0 16.65 21.05 17.5 20.65 18.8 Q19.65 19.6 19.25 19.55 L18.8 19.35 18.85 18.25 18.85 18.2 20.1 16.6 19.65 16.1 M21.0 16.65 L20.6 16.55 20.1 16.6 20.6 16.55 21.0 16.65" fill="#797928" fill-rule="evenodd" stroke="none"/>
      <path d="M18.55 17.45 L19.65 16.1 20.1 16.6 18.85 18.2 18.55 17.45" fill="#939331" fill-rule="evenodd" stroke="none"/>
      <path d="M20.6 16.05 L20.95 16.5 21.0 16.65 21.05 17.5 20.65 18.8 Q19.65 19.6 19.25 19.55 L18.8 19.35 18.55 19.0 M18.85 18.2 L20.1 16.6 20.6 16.55 21.0 16.65 M18.85 18.25 L18.8 19.35 M18.85 18.2 L18.85 18.25" fill="none" stroke="#000000" stroke-linecap="round" stroke-linejoin="round" stroke-opacity="0.3019608" stroke-width="0.30000000000000004"/>
    </g>
    <g id="sprite1" transform="matrix(1.0, 0.0, 0.0, 1.0, 0.0, 0.0)">
      <use height="26.7" transform="matrix(0.0042, -1.3515, 1.3935, 0.02, 22.09, 56.0263)" width="26.7" xlink:href="#sprite2"/>
      <use height="26.7" transform="matrix(0.0095, -3.0486, 0.372, 0.0053, 36.507, 81.3775)" width="26.7" xlink:href="#sprite2"/>
      <use height="26.7" transform="matrix(3.0486, 0.0095, -0.0053, 0.372, 0.1225, 35.107)" width="26.7" xlink:href="#sprite2"/>
    </g>
    <g id="sprite2" transform="matrix(1.0, 0.0, 0.0, 1.0, 13.35, 13.35)">
      <use height="26.7" transform="matrix(1.0, 0.0, 0.0, 1.0, -13.35, -13.35)" width="26.7" xlink:href="#shape1"/>
    </g>
    <g id="shape1" transform="matrix(1.0, 0.0, 0.0, 1.0, 13.35, 13.35)">
      <path d="M9.3 -9.85 Q13.35 -5.8 13.35 0.0 13.35 5.8 9.3 9.3 5.8 13.35 0.0 13.35 -5.8 13.35 -9.85 9.3 -13.35 5.8 -13.35 0.0 -13.35 -5.8 -9.85 -9.85 -5.8 -13.35 0.0 -13.35 5.8 -13.35 9.3 -9.85" fill="url(#gradient0)" fill-rule="evenodd" stroke="none"/>
    </g>
    <radialGradient cx="0" cy="0" gradientTransform="matrix(0.0213, 0.0, 0.0, 0.0213, 0.0, 0.0)" gradientUnits="userSpaceOnUse" id="gradient0" r="819.2" spreadMethod="pad">
      <stop offset="0.19607843137254902" stop-color="#fee3bc" stop-opacity="0.16862746"/>
      <stop offset="0.5019607843137255" stop-color="#fee3bc" stop-opacity="0.02745098"/>
      <stop offset="0.7607843137254902" stop-color="#ffe3bd" stop-opacity="0.0"/>
    </radialGradient>
  </defs>
</svg>
