<?xml version="1.0" encoding="UTF-8" standalone="no"?>
<svg xmlns:xlink="http://www.w3.org/1999/xlink" height="52.0px" width="52.0px" xmlns="http://www.w3.org/2000/svg">
  <g transform="matrix(1.0, 0.0, 0.0, 1.0, 0.0, 0.0)">
    <use height="80.0" transform="matrix(1.0, 0.0, 0.0, 1.0, -14.0, -14.0)" width="80.0" xlink:href="#shape0"/>
    <use height="0.0" transform="matrix(0.1068, 0.0, 0.0, 0.1222, 23.75, 34.75)" width="0.0" xlink:href="#sprite0"/>
    <use height="0.0" transform="matrix(0.0458, 0.0, 0.0, 0.0716, 10.45, 33.35)" width="0.0" xlink:href="#sprite0"/>
    <use height="81.5" transform="matrix(0.1183, 0.0, 0.0, 0.1241, 37.0, 22.95)" width="81.5" xlink:href="#sprite1"/>
    <use height="81.5" transform="matrix(0.0852, 0.0, 0.0, 0.0893, 6.95, 32.25)" width="81.5" xlink:href="#sprite1"/>
    <use height="81.5" transform="matrix(0.0852, 0.0, 0.0, 0.0893, 29.5, 11.25)" width="81.5" xlink:href="#sprite1"/>
    <use height="81.5" transform="matrix(0.0852, 0.0, 0.0, 0.0893, 19.75, 8.05)" width="81.5" xlink:href="#sprite1"/>
    <use height="0.0" transform="matrix(0.1068, 0.0, 0.0, 0.0712, 28.45, 12.7)" width="0.0" xlink:href="#sprite0"/>
    <use height="0.0" transform="matrix(0.1068, 0.0, 0.0, 0.19, 34.8, 20.8)" width="0.0" xlink:href="#sprite0"/>
  </g>
  <defs>
    <g id="shape0" transform="matrix(1.0, 0.0, 0.0, 1.0, 14.0, 14.0)">
      <path d="M52.0 0.0 L52.0 52.0 0.0 52.0 0.0 0.0 52.0 0.0" fill="#795fa9" fill-opacity="0.0" fill-rule="evenodd" stroke="none"/>
      <path d="M43.25 14.85 L44.5 14.85 Q47.1 15.15 47.95 17.25 L48.05 17.55 Q48.3 18.55 48.05 19.75 L47.7 20.8 Q47.05 22.65 44.35 23.1 L44.25 23.95 44.25 24.05 44.65 24.25 Q45.6 24.75 45.85 26.2 L45.8 26.4 45.4 27.55 Q44.45 29.4 42.3 29.35 L40.8 32.0 Q41.05 33.0 40.65 34.55 39.5 35.65 38.15 35.5 L37.05 36.7 39.05 37.25 40.85 37.35 41.0 37.45 Q41.75 38.05 41.1 39.8 L41.1 39.9 Q41.6 43.4 33.45 45.35 L25.05 45.0 22.75 45.35 Q20.0 45.35 17.7 43.55 16.4 42.55 15.65 41.3 14.1 40.05 12.95 38.45 12.35 39.5 11.2 39.5 10.1 39.5 9.0 38.55 8.55 38.2 8.05 37.65 6.45 35.85 5.7 33.25 L5.3 31.15 Q4.85 31.0 4.45 30.55 3.9 29.9 3.8 28.85 L3.9 28.1 4.3 27.15 Q4.8 26.4 5.55 26.35 6.1 26.35 6.55 26.65 L6.75 26.15 Q7.1 25.4 7.9 25.25 8.6 25.1 9.2 25.5 L9.35 25.6 Q10.0 26.05 10.25 26.95 L10.2 28.3 10.7 28.85 10.85 29.0 11.0 28.95 11.25 28.9 Q12.65 25.45 17.55 23.65 15.05 20.5 14.9 17.85 L14.6 17.4 Q13.75 16.05 14.25 14.8 L14.35 14.6 Q14.9 13.5 16.35 13.15 L17.75 13.0 Q18.65 12.55 19.8 12.4 25.95 5.5 33.6 7.15 L34.85 7.75 36.95 7.35 Q40.0 7.1 42.55 8.55 43.7 10.4 43.65 12.5 43.65 13.65 43.25 14.85 Z" fill="none" stroke="#000000" stroke-linecap="round" stroke-linejoin="round" stroke-opacity="0.3019608" stroke-width="1.0"/>
      <path d="M14.4 14.6 Q14.9 13.55 16.4 13.15 17.95 12.8 19.75 13.5 20.75 13.95 21.5 14.6 L22.4 15.6 Q23.25 17.0 22.75 18.3 22.25 19.55 20.65 19.9 19.05 20.3 17.3 19.55 15.5 18.85 14.65 17.45 13.75 16.1 14.3 14.85 L14.4 14.6 M17.55 17.3 L16.95 17.05 Q15.6 16.55 14.85 15.55 14.7 16.4 15.3 17.3 16.0 18.45 17.5 19.05 L20.25 19.35 Q21.6 19.0 22.0 18.0 22.4 16.95 21.7 15.75 L21.6 15.55 21.45 16.0 Q21.2 16.75 20.45 17.1 21.4 16.25 20.75 14.7 20.2 14.3 19.5 14.0 L16.75 13.75 Q15.9 13.95 15.45 14.45 15.35 16.25 17.55 17.3" fill="#d7f16b" fill-rule="evenodd" stroke="none"/>
      <path d="M17.55 17.3 Q15.35 16.25 15.45 14.45 15.9 13.95 16.75 13.75 L19.5 14.0 Q20.2 14.3 20.75 14.7 21.4 16.25 20.45 17.1 L19.7 17.35 17.55 17.3" fill="#75d74a" fill-rule="evenodd" stroke="none"/>
      <path d="M20.45 17.1 Q21.2 16.75 21.45 16.0 L21.6 15.55 21.7 15.75 Q22.4 16.95 22.0 18.0 21.6 19.0 20.25 19.35 L17.5 19.05 Q16.0 18.45 15.3 17.3 14.7 16.4 14.85 15.55 15.6 16.55 16.95 17.05 L17.55 17.3 19.7 17.35 20.45 17.1" fill="#339328" fill-rule="evenodd" stroke="none"/>
      <path d="M14.4 14.6 Q14.9 13.55 16.4 13.15 17.95 12.8 19.75 13.5 20.75 13.95 21.5 14.6 L22.4 15.6 Q23.25 17.0 22.75 18.3 22.25 19.55 20.65 19.9 19.05 20.3 17.3 19.55 15.5 18.85 14.65 17.45 13.75 16.1 14.3 14.85 L14.4 14.6 Z" fill="none" stroke="#000000" stroke-linecap="round" stroke-linejoin="round" stroke-opacity="0.3019608" stroke-width="0.30000000000000004"/>
      <path d="M48.0 17.3 L48.05 17.55 Q46.65 16.55 45.25 16.4 43.95 16.25 42.75 16.8 L42.7 16.35 Q44.15 15.6 45.6 16.0 46.8 16.3 48.0 17.3 M36.9 9.95 L36.4 9.4 Q37.5 8.85 38.65 8.6 40.55 8.15 42.6 8.55 L40.75 8.75 Q38.7 9.1 36.9 9.95 M43.1 25.05 L44.35 25.0 Q45.1 25.25 45.85 26.2 L45.8 26.45 Q44.9 25.45 43.85 25.4 L42.9 25.5 43.1 25.05 M39.35 38.25 Q39.45 37.55 40.8 37.5 39.45 37.8 39.65 38.55 L39.35 38.25 M40.7 34.55 Q40.7 32.15 40.0 31.6 L40.4 31.05 Q41.3 32.25 40.7 34.55" fill="#d7f16b" fill-rule="evenodd" stroke="none"/>
      <path d="M36.95 7.4 Q40.0 7.1 42.6 8.55 40.55 8.15 38.65 8.6 35.45 8.55 36.95 7.4 M44.55 14.9 Q47.15 15.15 48.0 17.3 46.8 16.3 45.6 16.0 L44.55 14.9 M44.35 25.0 L44.7 24.25 Q45.6 24.75 45.85 26.2 45.1 25.25 44.35 25.0" fill="#9ae17b" fill-rule="evenodd" stroke="none"/>
      <path d="M36.4 9.4 L34.0 8.0 36.95 7.4 Q35.45 8.55 38.65 8.6 37.5 8.85 36.4 9.4 M42.6 8.55 Q43.75 10.4 43.7 12.5 42.25 13.65 40.75 8.75 L42.6 8.55 M43.25 14.9 L44.55 14.9 45.6 16.0 Q44.15 15.6 42.7 16.35 L43.25 14.9 M48.05 17.55 Q48.35 18.55 48.05 19.75 44.8 20.4 45.25 16.4 46.65 16.55 48.05 17.55 M43.1 25.05 L43.45 23.95 44.7 24.25 44.35 25.0 43.1 25.05 M45.8 26.45 L45.4 27.6 Q43.1 28.55 43.85 25.4 44.9 25.45 45.8 26.45 M41.05 37.45 L40.8 37.5 Q39.45 37.55 39.35 38.25 L38.25 37.65 Q39.45 36.85 40.85 37.4 L41.05 37.45" fill="#75d74a" fill-rule="evenodd" stroke="none"/>
      <path d="M43.7 12.5 L43.25 14.9 42.7 16.35 42.6 16.55 36.9 9.95 Q38.7 9.1 40.75 8.75 42.25 13.65 43.7 12.5 M48.05 19.75 L47.75 20.85 Q46.95 22.9 43.65 23.2 L42.75 16.8 Q43.95 16.25 45.25 16.4 44.8 20.4 48.05 19.75 M45.4 27.6 Q44.3 29.8 41.35 29.25 L42.9 25.5 43.85 25.4 Q43.1 28.55 45.4 27.6 M40.8 37.5 L41.05 37.45 Q41.8 38.1 41.05 39.95 L39.65 38.55 Q39.45 37.8 40.8 37.5 M40.0 31.6 Q40.7 32.15 40.7 34.55 39.15 35.95 37.4 35.35 L40.0 31.6" fill="#246c41" fill-rule="evenodd" stroke="none"/>
      <path d="M36.4 9.4 L34.0 8.0 36.95 7.4 Q40.0 7.1 42.6 8.55 43.75 10.4 43.7 12.5 L43.25 14.9 44.55 14.9 Q47.15 15.15 48.0 17.3 L48.05 17.55 Q48.35 18.55 48.05 19.75 L47.75 20.85 Q46.95 22.9 43.65 23.2 L42.75 16.8 42.7 16.35 42.6 16.55 36.9 9.95 36.4 9.4 M43.25 14.9 L42.7 16.35 M44.7 24.25 L43.45 23.95 43.1 25.05 42.9 25.5 41.35 29.25 Q44.3 29.8 45.4 27.6 L45.8 26.45 45.85 26.2 Q45.6 24.75 44.7 24.25 M40.8 37.5 L41.05 37.45 40.85 37.4 Q39.45 36.85 38.25 37.65 L39.35 38.25 39.65 38.55 41.05 39.95 Q41.8 38.1 41.05 37.45 M40.7 34.55 Q41.3 32.25 40.4 31.05 L40.0 31.6 37.4 35.35 Q39.15 35.95 40.7 34.55" fill="none" stroke="#000000" stroke-linecap="round" stroke-linejoin="round" stroke-opacity="0.3019608" stroke-width="0.30000000000000004"/>
      <path d="M17.55 23.65 Q13.95 19.1 15.3 15.55 16.8 12.8 19.8 12.45 26.0 5.55 33.65 7.2 45.75 12.45 44.25 24.0 L44.15 24.45 Q42.4 31.15 37.1 36.75 L36.55 37.3 34.35 39.3 31.85 40.7 33.75 39.15 Q41.95 31.5 43.5 24.0 44.1 19.35 42.45 16.0 41.7 14.4 40.45 13.15 L40.25 12.9 Q41.25 15.45 40.4 18.0 40.0 19.15 39.2 20.3 41.55 16.0 38.65 11.25 34.45 7.4 30.45 7.7 24.9 7.9 20.75 12.45 23.6 12.8 24.4 13.7 20.75 12.15 17.95 13.7 L16.75 14.7 Q15.0 18.3 20.95 22.0 15.35 19.4 15.85 16.3 15.25 18.3 16.65 20.9 L18.35 23.5 17.55 23.65 18.35 23.5 Q22.95 22.6 27.65 25.5 L28.75 26.25 30.35 27.85 Q34.1 28.8 37.2 26.7 35.35 29.05 31.15 28.7 L30.35 27.85 31.15 28.7 32.4 30.8 32.55 31.1 33.1 33.35 33.15 34.55 32.8 33.0 Q31.3 29.35 28.75 27.05 29.6 29.0 29.0 31.8 26.95 37.7 22.55 38.85 19.6 39.65 15.65 38.35 13.45 37.05 12.15 35.65 11.35 34.85 10.9 34.0 9.55 26.65 17.55 23.65 M29.1 8.1 Q29.95 8.1 30.55 8.45 31.15 8.8 31.15 9.25 31.15 9.75 30.55 10.1 29.95 10.45 29.1 10.45 L27.6 10.1 Q27.0 9.75 27.0 9.25 27.0 8.8 27.6 8.45 28.2 8.1 29.1 8.1 M22.6 38.1 Q26.65 36.8 28.4 31.45 28.9 29.0 28.2 27.35 28.55 30.25 25.75 32.0 L24.0 32.85 Q28.55 30.75 27.1 26.25 24.5 24.25 20.35 23.95 15.55 24.0 12.6 27.5 11.95 28.6 11.65 29.65 10.9 32.1 11.85 34.25 13.05 36.15 15.65 37.6 18.6 38.65 21.7 38.35 L22.6 38.1" fill="#d7f16b" fill-rule="evenodd" stroke="none"/>
      <path d="M20.95 22.0 Q15.0 18.3 16.75 14.7 L17.95 13.7 Q20.75 12.15 24.4 13.7 23.6 12.8 20.75 12.45 24.9 7.9 30.45 7.7 34.45 7.4 38.65 11.25 41.55 16.0 39.2 20.3 L37.6 22.25 Q31.75 26.45 23.4 22.95 L20.95 22.0 M36.55 37.3 L37.1 36.75 Q41.1 37.4 41.1 39.9 41.6 43.4 33.5 45.35 15.75 46.25 11.25 35.4 L10.9 34.0 Q11.35 34.85 12.15 35.65 13.35 38.4 16.25 40.55 20.0 43.3 26.7 44.3 34.0 45.3 38.55 42.8 41.0 41.2 40.2 39.05 L39.35 38.25 Q40.6 39.5 38.7 41.0 L36.55 42.15 Q40.6 39.95 38.65 37.8 L36.55 37.3 M29.1 8.1 Q28.2 8.1 27.6 8.45 27.0 8.8 27.0 9.25 27.0 9.75 27.6 10.1 L29.1 10.45 Q29.95 10.45 30.55 10.1 31.15 9.75 31.15 9.25 31.15 8.8 30.55 8.45 29.95 8.1 29.1 8.1 M24.0 32.85 L21.3 33.75 17.25 34.2 Q10.7 33.55 11.65 29.65 11.95 28.6 12.6 27.5 15.55 24.0 20.35 23.95 24.5 24.25 27.1 26.25 28.55 30.75 24.0 32.85" fill="#9ae17b" fill-rule="evenodd" stroke="none"/>
      <path d="M18.35 23.5 L16.65 20.9 Q15.25 18.3 15.85 16.3 15.35 19.4 20.95 22.0 L23.4 22.95 Q31.75 26.45 37.6 22.25 L39.2 20.3 Q40.0 19.15 40.4 18.0 42.3 15.65 41.25 20.7 39.9 23.7 37.2 26.7 34.1 28.8 30.35 27.85 L28.75 26.25 27.65 25.5 Q22.95 22.6 18.35 23.5 M34.35 39.3 L36.55 37.3 38.65 37.8 Q40.6 39.95 36.55 42.15 L33.3 42.05 Q32.35 41.35 34.35 39.3 M33.15 34.55 Q33.65 41.25 26.9 41.95 22.2 41.65 22.55 38.85 26.95 37.7 29.0 31.8 29.6 29.0 28.75 27.05 31.3 29.35 32.8 33.0 L33.15 34.55 M21.3 33.75 Q24.6 33.1 25.75 33.75 L25.8 33.8 Q26.35 35.45 22.6 38.1 L21.7 38.35 Q18.6 38.65 15.65 37.6 13.05 36.15 11.85 34.25 10.9 32.1 11.65 29.65 10.7 33.55 17.25 34.2 L21.3 33.75" fill="#75d74a" fill-rule="evenodd" stroke="none"/>
      <path d="M40.4 18.0 Q41.25 15.45 40.25 12.9 L40.45 13.15 Q41.7 14.4 42.45 16.0 44.1 19.35 43.5 24.0 41.95 31.5 33.75 39.15 L31.85 40.7 34.35 39.3 Q32.35 41.35 33.3 42.05 L36.55 42.15 38.7 41.0 Q40.6 39.5 39.35 38.25 L40.2 39.05 Q41.0 41.2 38.55 42.8 34.0 45.3 26.7 44.3 20.0 43.3 16.25 40.55 13.35 38.4 12.15 35.65 13.45 37.05 15.65 38.35 19.6 39.65 22.55 38.85 22.2 41.65 26.9 41.95 33.65 41.25 33.15 34.55 L33.1 33.35 33.15 30.3 Q36.2 29.35 37.2 26.7 39.9 23.7 41.25 20.7 42.3 15.65 40.4 18.0 M22.6 38.1 Q26.35 35.45 25.8 33.8 L25.75 33.75 Q24.6 33.1 21.3 33.75 L24.0 32.85 25.75 32.0 Q28.55 30.25 28.2 27.35 28.9 29.0 28.4 31.45 26.65 36.8 22.6 38.1" fill="#339328" fill-rule="evenodd" stroke="none"/>
      <path d="M31.15 28.7 Q35.35 29.05 37.2 26.7 36.2 29.35 33.15 30.3 L33.1 33.35 32.55 31.1 32.4 30.8 31.15 28.7" fill="#246c41" fill-rule="evenodd" stroke="none"/>
      <path d="M37.1 36.75 Q42.4 31.15 44.15 24.45 L44.25 24.0 Q45.75 12.45 33.65 7.2 26.0 5.55 19.8 12.45 16.8 12.8 15.3 15.55 13.95 19.1 17.55 23.65 L18.35 23.5 Q22.95 22.6 27.65 25.5 L28.75 26.25 30.35 27.85 31.15 28.7 Q35.35 29.05 37.2 26.7 M34.35 39.3 L36.55 37.3 37.1 36.75 Q41.1 37.4 41.1 39.9 41.6 43.4 33.5 45.35 15.75 46.25 11.25 35.4 L10.9 34.0 Q9.55 26.65 17.55 23.65 M22.55 38.85 Q19.6 39.65 15.65 38.35 13.45 37.05 12.15 35.65 11.35 34.85 10.9 34.0 M31.15 28.7 L32.4 30.8 M28.75 27.05 Q29.6 29.0 29.0 31.8 26.95 37.7 22.55 38.85" fill="none" stroke="#000000" stroke-linecap="round" stroke-linejoin="round" stroke-opacity="0.3019608" stroke-width="0.30000000000000004"/>
      <path d="M35.6 10.95 L36.05 11.6 36.25 11.95 36.45 12.5 Q36.7 13.55 36.3 14.7 L36.3 14.75 36.25 14.85 36.05 15.25 35.15 16.55 33.9 17.45 33.35 17.75 30.3 18.1 29.05 17.75 28.35 17.3 27.55 16.35 27.15 15.25 Q27.0 14.6 27.15 13.9 L27.35 13.2 27.65 12.5 Q28.3 11.3 29.6 10.55 L29.7 10.5 Q31.5 9.5 33.35 9.85 34.75 10.1 35.6 10.95 M27.65 9.3 Q27.6 9.95 26.55 10.95 L24.55 12.4 23.95 12.75 Q22.45 13.55 21.4 13.65 L21.35 13.65 Q20.3 13.8 20.3 13.15 20.3 12.6 21.15 11.8 L21.35 11.55 21.4 11.55 22.55 10.6 24.0 9.75 25.0 9.25 26.55 8.8 Q27.65 8.7 27.65 9.3" fill="#339328" fill-rule="evenodd" stroke="none"/>
      <path d="M26.15 19.1 Q27.85 19.9 29.75 21.0 32.1 23.25 30.8 23.45 L16.8 17.4 Q15.9 16.5 18.25 16.45 L20.0 16.85 20.05 17.35 Q20.35 18.15 22.05 19.0 L23.3 19.4 Q25.15 19.85 26.15 19.1" fill="#5f5a3a" fill-rule="evenodd" stroke="none"/>
      <path d="M33.65 14.3 Q34.45 13.3 34.3 12.1 34.2 11.15 33.45 10.15 L32.9 10.0 Q31.3 9.75 29.8 10.6 L29.7 10.65 Q28.7 11.2 28.15 12.1 L27.75 12.9 27.7 13.1 Q27.8 14.2 29.15 14.85 L31.0 15.4 Q29.1 15.45 28.1 14.85 L27.5 14.35 27.6 14.85 27.95 15.6 28.3 16.15 Q29.05 16.95 30.3 17.15 31.9 17.45 33.4 16.55 L34.05 16.15 35.15 14.85 35.45 14.3 35.45 14.25 Q35.9 13.1 35.55 12.1 L35.4 11.75 35.25 11.5 34.4 10.6 34.65 12.1 Q34.65 13.4 33.65 14.3 M35.4 10.55 L35.85 11.15 36.05 11.5 36.25 12.1 Q36.5 13.15 36.1 14.3 L36.1 14.35 36.05 14.45 35.85 14.85 34.95 16.15 33.7 17.05 33.15 17.3 Q31.65 18.0 30.1 17.7 29.4 17.6 28.85 17.3 L28.15 16.9 27.35 15.95 26.95 14.85 Q26.8 14.2 26.95 13.45 L27.15 12.8 27.5 12.1 Q28.1 10.9 29.4 10.15 L29.5 10.1 Q31.3 9.1 33.15 9.45 34.55 9.65 35.4 10.55 M25.4 10.5 Q26.15 9.55 25.35 9.25 L23.7 9.95 21.65 11.3 21.05 11.9 20.9 12.2 20.85 12.4 Q20.85 12.85 21.65 12.7 L21.7 12.65 23.65 11.9 24.1 11.65 25.65 10.55 26.5 9.4 26.3 9.15 25.9 9.1 Q26.2 9.2 26.2 9.45 L26.15 9.7 25.4 10.5 M21.2 11.15 Q21.7 10.65 22.35 10.2 23.0 9.7 23.8 9.3 L24.8 8.85 26.4 8.4 Q27.45 8.25 27.45 8.9 27.45 9.5 26.35 10.55 L24.35 12.0 23.75 12.35 Q22.25 13.15 21.2 13.25 20.1 13.4 20.1 12.75 20.1 12.2 20.95 11.4 L21.2 11.15" fill="#ffff98" fill-rule="evenodd" stroke="none"/>
      <path d="M23.3 19.4 L22.05 19.0 Q20.35 18.15 20.05 17.35 L24.45 18.85 Q24.8 19.3 23.3 19.4 M31.0 15.4 L29.15 14.85 Q27.8 14.2 27.7 13.1 L27.75 12.9 28.15 12.1 Q28.7 11.2 29.7 10.65 L29.8 10.6 Q31.3 9.75 32.9 10.0 L33.45 10.15 Q34.2 11.15 34.3 12.1 34.45 13.3 33.65 14.3 L33.0 14.85 Q32.05 15.35 31.0 15.4 M21.65 11.3 L23.7 9.95 25.35 9.25 Q26.15 9.55 25.4 10.5 L24.0 11.35 23.55 11.55 22.75 11.85 Q21.35 12.0 21.65 11.3" fill="#ffde4f" fill-rule="evenodd" stroke="none"/>
      <path d="M26.15 19.1 Q25.15 19.85 23.3 19.4 24.8 19.3 24.45 18.85 L20.05 17.35 20.0 16.85 Q22.8 17.5 26.15 19.1 M33.65 14.3 Q34.65 13.4 34.65 12.1 L34.4 10.6 35.25 11.5 35.4 11.75 35.55 12.1 Q35.9 13.1 35.45 14.25 L35.45 14.3 35.15 14.85 34.05 16.15 33.4 16.55 Q31.9 17.45 30.3 17.15 29.05 16.95 28.3 16.15 L27.95 15.6 27.6 14.85 27.5 14.35 28.1 14.85 Q29.1 15.45 31.0 15.4 32.05 15.35 33.0 14.85 L33.65 14.3 M25.4 10.5 L26.15 9.7 26.2 9.45 Q26.2 9.2 25.9 9.1 L26.3 9.15 26.5 9.4 25.65 10.55 24.1 11.65 23.65 11.9 21.7 12.65 21.65 12.7 Q20.85 12.85 20.85 12.4 L20.9 12.2 21.05 11.9 21.65 11.3 Q21.35 12.0 22.75 11.85 L23.55 11.55 24.0 11.35 25.4 10.5" fill="#f4a33c" fill-rule="evenodd" stroke="none"/>
      <path d="M20.0 16.85 L18.25 16.45 Q15.9 16.5 16.8 17.4 L30.8 23.45 Q32.1 23.25 29.75 21.0 27.85 19.9 26.15 19.1 25.15 19.85 23.3 19.4 L22.05 19.0 Q20.35 18.15 20.05 17.35 L20.0 16.85 Q22.8 17.5 26.15 19.1 M35.4 10.55 L35.85 11.15 36.05 11.5 36.25 12.1 Q36.5 13.15 36.1 14.3 L36.1 14.35 36.05 14.45 35.85 14.85 34.95 16.15 33.7 17.05 33.15 17.3 Q31.65 18.0 30.1 17.7 29.4 17.6 28.85 17.3 L28.15 16.9 27.35 15.95 26.95 14.85 Q26.8 14.2 26.95 13.45 L27.15 12.8 27.5 12.1 Q28.1 10.9 29.4 10.15 L29.5 10.1 Q31.3 9.1 33.15 9.45 34.55 9.65 35.4 10.55 M21.2 11.15 Q21.7 10.65 22.35 10.2 23.0 9.7 23.8 9.3 L24.8 8.85 26.4 8.4 Q27.45 8.25 27.45 8.9 27.45 9.5 26.35 10.55 L24.35 12.0 23.75 12.35 Q22.25 13.15 21.2 13.25 20.1 13.4 20.1 12.75 20.1 12.2 20.95 11.4 L21.2 11.15" fill="none" stroke="#000000" stroke-linecap="round" stroke-linejoin="round" stroke-opacity="0.3019608" stroke-width="0.30000000000000004"/>
      <path d="M37.25 19.15 Q38.3 19.55 39.05 20.2 L39.9 21.25 Q40.8 22.65 40.3 23.9 39.75 25.15 38.2 25.5 L34.8 25.2 Q33.05 24.5 32.2 23.1 31.3 21.7 31.8 20.45 L31.9 20.25 Q32.45 19.2 33.9 18.8 35.5 18.45 37.25 19.15 M35.1 22.95 L34.5 22.7 Q33.1 22.15 32.4 21.2 32.25 22.0 32.8 22.95 33.55 24.1 35.05 24.7 L37.8 24.95 Q39.15 24.65 39.55 23.6 39.95 22.6 39.25 21.4 L39.1 21.2 39.0 21.65 Q38.7 22.35 38.0 22.75 38.95 21.9 38.3 20.35 L37.05 19.65 34.3 19.35 Q33.45 19.6 32.95 20.05 32.85 21.9 35.1 22.95" fill="#d7f16b" fill-rule="evenodd" stroke="none"/>
      <path d="M35.1 22.95 Q32.85 21.9 32.95 20.05 33.45 19.6 34.3 19.35 L37.05 19.65 38.3 20.35 Q38.95 21.9 38.0 22.75 L37.25 23.0 35.1 22.95" fill="#75d74a" fill-rule="evenodd" stroke="none"/>
      <path d="M38.0 22.75 Q38.7 22.35 39.0 21.65 L39.1 21.2 39.25 21.4 Q39.95 22.6 39.55 23.6 39.15 24.65 37.8 24.95 L35.05 24.7 Q33.55 24.1 32.8 22.95 32.25 22.0 32.4 21.2 33.1 22.15 34.5 22.7 L35.1 22.95 37.25 23.0 38.0 22.75" fill="#339328" fill-rule="evenodd" stroke="none"/>
      <path d="M37.25 19.15 Q38.3 19.55 39.05 20.2 L39.9 21.25 Q40.8 22.65 40.3 23.9 39.75 25.15 38.2 25.5 L34.8 25.2 Q33.05 24.5 32.2 23.1 31.3 21.7 31.8 20.45 L31.9 20.25 Q32.45 19.2 33.9 18.8 35.5 18.45 37.25 19.15 Z" fill="none" stroke="#000000" stroke-linecap="round" stroke-linejoin="round" stroke-opacity="0.3019608" stroke-width="0.30000000000000004"/>
      <path d="M12.85 30.35 Q13.55 30.6 13.8 31.25 L13.9 31.55 13.65 32.4 13.65 32.45 14.05 33.3 14.3 34.15 14.45 36.25 Q14.3 37.7 13.4 38.25 L12.1 38.35 11.45 38.0 Q10.45 37.3 9.8 35.8 9.2 34.25 9.4 32.8 9.55 31.55 10.3 31.0 10.65 30.45 11.4 30.25 L12.85 30.35" fill="#246c41" fill-rule="evenodd" stroke="none"/>
      <path d="M27.6 36.4 L27.95 36.2 28.25 36.15 Q28.7 36.1 29.15 36.4 29.7 36.75 29.9 37.5 L29.95 38.55 29.8 39.0 29.25 39.75 29.3 40.1 Q29.25 41.45 28.45 42.6 27.35 44.25 25.35 44.6 L22.8 44.35 21.7 43.8 Q20.0 42.65 19.6 40.7 19.15 38.75 20.25 37.1 21.35 35.55 23.35 35.2 25.35 34.85 27.05 35.95 L27.6 36.4" fill="#246c41" fill-rule="evenodd" stroke="none"/>
      <path d="M14.4 35.55 L13.95 34.4 Q13.8 33.35 14.45 32.6 15.05 31.9 16.0 31.85 L16.2 31.85 Q17.3 31.85 18.15 32.6 19.05 33.35 19.2 34.4 19.35 35.5 18.7 36.2 18.05 37.0 16.95 37.0 15.9 36.95 15.0 36.2 L14.4 35.55 M16.6 35.55 L15.5 35.8 15.15 35.8 15.25 35.9 Q16.0 36.55 16.9 36.55 17.8 36.55 18.35 35.95 18.9 35.3 18.75 34.4 18.65 33.5 17.9 32.9 17.3 32.4 16.65 32.3 17.25 32.9 17.35 33.7 L17.4 34.1 Q17.05 32.7 15.65 32.4 15.15 32.5 14.8 32.9 14.25 33.5 14.4 34.4 L14.65 35.2 Q15.7 35.85 16.6 35.55" fill="#d7f16b" fill-rule="evenodd" stroke="none"/>
      <path d="M17.4 34.1 Q17.35 34.75 16.95 35.2 L16.6 35.55 Q15.7 35.85 14.65 35.2 L14.4 34.4 Q14.25 33.5 14.8 32.9 15.15 32.5 15.65 32.4 17.05 32.7 17.4 34.1" fill="#75d74a" fill-rule="evenodd" stroke="none"/>
      <path d="M17.4 34.1 L17.35 33.7 Q17.25 32.9 16.65 32.3 17.3 32.4 17.9 32.9 18.65 33.5 18.75 34.4 18.9 35.3 18.35 35.95 17.8 36.55 16.9 36.55 16.0 36.55 15.25 35.9 L15.15 35.8 15.5 35.8 16.6 35.55 16.95 35.2 Q17.35 34.75 17.4 34.1" fill="#339328" fill-rule="evenodd" stroke="none"/>
      <path d="M14.4 35.55 L15.0 36.2 Q15.9 36.95 16.95 37.0 18.05 37.0 18.7 36.2 19.35 35.5 19.2 34.4 19.05 33.35 18.15 32.6 17.3 31.85 16.2 31.85 L16.0 31.85 Q15.05 31.9 14.45 32.6 13.8 33.35 13.95 34.4 L14.4 35.55 Z" fill="none" stroke="#000000" stroke-linecap="round" stroke-linejoin="round" stroke-opacity="0.3019608" stroke-width="0.30000000000000004"/>
      <path d="M27.1 43.55 Q25.55 45.35 22.75 45.35 20.0 45.35 17.7 43.55 15.35 41.75 14.85 39.15 14.35 36.55 15.95 34.75 L17.25 33.65 Q18.5 32.95 20.3 32.95 L22.8 33.35 Q24.15 33.8 25.35 34.75 27.65 36.55 28.2 39.15 L28.3 40.45 Q28.3 42.2 27.1 43.55 M25.25 42.45 L25.2 42.85 Q24.6 44.65 25.7 44.05 27.05 43.3 27.6 41.65 L27.95 40.0 26.9 37.45 Q25.8 35.55 24.0 34.5 22.9 33.85 21.45 33.5 L20.6 33.45 Q18.45 33.35 17.35 34.1 16.0 35.0 16.35 35.35 L19.65 35.1 21.15 35.65 22.0 36.4 23.7 38.15 Q25.5 40.35 25.25 42.45 M24.0 44.2 L24.4 43.55 Q25.05 42.2 24.25 40.2 23.45 38.25 21.7 36.85 L21.2 36.5 Q19.7 35.45 18.2 35.45 17.35 35.45 16.8 35.8 L16.2 36.3 15.85 36.85 Q15.2 38.25 16.0 40.2 16.8 42.2 18.55 43.55 L19.25 44.05 Q20.7 44.95 22.05 44.95 23.3 44.95 24.0 44.2" fill="#d7f16b" fill-rule="evenodd" stroke="none"/>
      <path d="M22.0 36.4 L21.15 35.65 19.65 35.1 Q19.2 33.85 20.6 33.45 L21.45 33.5 Q22.9 33.85 24.0 34.5 25.0 37.1 22.0 36.4" fill="#9ae17b" fill-rule="evenodd" stroke="none"/>
      <path d="M27.6 41.65 Q27.05 43.3 25.7 44.05 24.6 44.65 25.2 42.85 L25.25 42.45 Q26.05 43.35 27.6 41.65 M23.7 38.15 L22.0 36.4 Q25.0 37.1 24.0 34.5 25.8 35.55 26.9 37.45 25.4 39.3 23.7 38.15 M19.65 35.1 L16.35 35.35 Q16.0 35.0 17.35 34.1 18.45 33.35 20.6 33.45 19.2 33.85 19.65 35.1 M16.2 36.3 L16.8 35.8 Q18.55 38.05 19.05 41.75 17.95 37.5 16.2 36.3" fill="#75d74a" fill-rule="evenodd" stroke="none"/>
      <path d="M25.25 42.45 Q25.5 40.35 23.7 38.15 25.4 39.3 26.9 37.45 L27.95 40.0 27.6 41.65 Q26.05 43.35 25.25 42.45 M21.2 36.5 L21.7 36.85 Q23.45 38.25 24.25 40.2 25.05 42.2 24.4 43.55 L24.0 44.2 Q21.85 40.8 21.2 36.5 M19.25 44.05 L18.55 43.55 Q16.8 42.2 16.0 40.2 15.2 38.25 15.85 36.85 L16.2 36.3 Q17.95 37.5 19.05 41.75 L19.25 44.05" fill="#339328" fill-rule="evenodd" stroke="none"/>
      <path d="M24.0 44.2 Q23.3 44.95 22.05 44.95 20.7 44.95 19.25 44.05 L19.05 41.75 Q18.55 38.05 16.8 35.8 17.35 35.45 18.2 35.45 19.7 35.45 21.2 36.5 21.85 40.8 24.0 44.2" fill="#246c41" fill-rule="evenodd" stroke="none"/>
      <path d="M27.1 43.55 Q25.55 45.35 22.75 45.35 20.0 45.35 17.7 43.55 15.35 41.75 14.85 39.15 14.35 36.55 15.95 34.75 L17.25 33.65 Q18.5 32.95 20.3 32.95 L22.8 33.35 Q24.15 33.8 25.35 34.75 27.65 36.55 28.2 39.15 L28.3 40.45 Q28.3 42.2 27.1 43.55 Z" fill="none" stroke="#000000" stroke-linecap="round" stroke-linejoin="round" stroke-opacity="0.3019608" stroke-width="0.30000000000000004"/>
      <path d="M24.45 37.35 Q24.9 37.15 25.7 37.35 26.45 37.6 27.1 38.1 L27.85 39.05 Q28.0 39.5 27.55 39.75 L26.35 39.7 25.9 39.6 24.9 39.05 Q24.25 38.55 24.15 38.05 24.05 37.7 24.25 37.5 L24.45 37.35" fill="#246c41" fill-rule="evenodd" stroke="none"/>
      <path d="M20.25 33.2 L21.8 33.5 Q22.55 33.8 22.8 34.25 23.05 34.7 22.65 35.0 L21.5 35.35 21.05 35.3 19.95 35.0 Q19.2 34.7 18.9 34.25 18.75 33.95 18.9 33.75 L19.1 33.5 Q19.5 33.2 20.25 33.2" fill="#246c41" fill-rule="evenodd" stroke="none"/>
      <path d="M20.95 33.75 L19.95 34.0 19.6 34.0 19.7 34.1 Q20.45 34.7 21.25 34.7 22.1 34.7 22.6 34.1 23.1 33.5 22.95 32.75 22.85 31.9 22.2 31.3 21.65 30.85 21.0 30.75 21.55 31.3 21.65 32.05 L21.7 32.4 Q21.4 31.1 20.05 30.85 19.65 30.95 19.3 31.3 18.8 31.9 18.95 32.7 L19.2 33.4 Q20.15 34.05 20.95 33.75 M20.45 30.35 L20.6 30.3 Q21.6 30.35 22.4 31.05 23.25 31.7 23.4 32.75 23.55 33.7 22.95 34.4 22.3 35.1 21.3 35.1 20.3 35.1 19.5 34.4 L18.9 33.8 18.5 32.7 Q18.35 31.7 18.95 31.05 19.5 30.4 20.45 30.35" fill="#d7f16b" fill-rule="evenodd" stroke="none"/>
      <path d="M21.7 32.4 Q21.7 33.0 21.3 33.45 L20.95 33.75 Q20.15 34.05 19.2 33.4 L18.95 32.7 Q18.8 31.9 19.3 31.3 19.65 30.95 20.05 30.85 21.4 31.1 21.7 32.4" fill="#75d74a" fill-rule="evenodd" stroke="none"/>
      <path d="M21.7 32.4 L21.65 32.05 Q21.55 31.3 21.0 30.75 21.65 30.85 22.2 31.3 22.85 31.9 22.95 32.75 23.1 33.5 22.6 34.1 22.1 34.7 21.25 34.7 20.45 34.7 19.7 34.1 L19.6 34.0 19.95 34.0 20.95 33.75 21.3 33.45 Q21.7 33.0 21.7 32.4" fill="#339328" fill-rule="evenodd" stroke="none"/>
      <path d="M20.45 30.35 Q19.5 30.4 18.95 31.05 18.35 31.7 18.5 32.7 L18.9 33.8 19.5 34.4 Q20.3 35.1 21.3 35.1 22.3 35.1 22.95 34.4 23.55 33.7 23.4 32.75 23.25 31.7 22.4 31.05 21.6 30.35 20.6 30.3 L20.45 30.35 Z" fill="none" stroke="#000000" stroke-linecap="round" stroke-linejoin="round" stroke-opacity="0.3019608" stroke-width="0.30000000000000004"/>
      <path d="M24.5 34.95 Q25.1 34.3 26.05 34.25 L26.25 34.25 Q27.35 34.25 28.2 35.0 29.1 35.75 29.25 36.8 29.4 37.85 28.75 38.6 28.1 39.35 27.0 39.35 25.95 39.35 25.05 38.6 L24.4 37.95 24.0 36.8 Q23.8 35.75 24.5 34.95 M26.6 37.95 L25.55 38.2 25.2 38.2 25.3 38.3 Q26.05 38.95 26.95 38.9 27.85 38.9 28.4 38.3 28.9 37.65 28.8 36.8 28.7 35.9 27.95 35.3 27.35 34.8 26.7 34.7 27.3 35.3 27.4 36.1 L27.45 36.45 Q27.1 35.1 25.65 34.75 25.2 34.9 24.85 35.3 24.3 35.9 24.45 36.8 L24.7 37.6 Q25.75 38.25 26.6 37.95" fill="#d7f16b" fill-rule="evenodd" stroke="none"/>
      <path d="M27.45 36.45 L27.0 37.6 26.6 37.95 Q25.75 38.25 24.7 37.6 L24.45 36.8 Q24.3 35.9 24.85 35.3 25.2 34.9 25.65 34.75 27.1 35.1 27.45 36.45" fill="#75d74a" fill-rule="evenodd" stroke="none"/>
      <path d="M27.45 36.45 L27.4 36.1 Q27.3 35.3 26.7 34.7 27.35 34.8 27.95 35.3 28.7 35.9 28.8 36.8 28.9 37.65 28.4 38.3 27.85 38.9 26.95 38.9 26.05 38.95 25.3 38.3 L25.2 38.2 25.55 38.2 26.6 37.95 27.0 37.6 27.45 36.45" fill="#339328" fill-rule="evenodd" stroke="none"/>
      <path d="M24.5 34.95 Q23.8 35.75 24.0 36.8 L24.4 37.95 25.05 38.6 Q25.95 39.35 27.0 39.35 28.1 39.35 28.75 38.6 29.4 37.85 29.25 36.8 29.1 35.75 28.2 35.0 27.35 34.25 26.25 34.25 L26.05 34.25 Q25.1 34.3 24.5 34.95 Z" fill="none" stroke="#000000" stroke-linecap="round" stroke-linejoin="round" stroke-opacity="0.3019608" stroke-width="0.30000000000000004"/>
      <path d="M6.85 26.95 L6.95 27.05 Q7.55 27.75 7.55 28.75 7.65 29.75 7.1 30.45 6.6 31.2 5.85 31.25 5.05 31.3 4.45 30.6 3.9 29.9 3.85 28.9 L3.9 28.15 4.3 27.2 Q4.8 26.45 5.6 26.4 6.3 26.35 6.85 26.95 M5.1 29.5 L4.35 29.0 4.15 28.75 4.15 28.9 Q4.2 29.75 4.7 30.3 5.2 30.85 5.8 30.85 L6.85 30.2 Q7.3 29.6 7.25 28.75 7.25 28.1 6.9 27.6 6.9 28.35 6.5 28.9 L6.3 29.15 Q6.95 28.1 6.35 27.0 L5.6 26.8 Q5.0 26.85 4.55 27.45 L4.25 28.1 Q4.45 29.15 5.1 29.5" fill="#d7f16b" fill-rule="evenodd" stroke="none"/>
      <path d="M6.3 29.15 L5.45 29.5 5.1 29.5 Q4.45 29.15 4.25 28.1 L4.55 27.45 Q5.0 26.85 5.6 26.8 L6.35 27.0 Q6.95 28.1 6.3 29.15" fill="#75d74a" fill-rule="evenodd" stroke="none"/>
      <path d="M6.3 29.15 L6.5 28.9 Q6.9 28.35 6.9 27.6 7.25 28.1 7.25 28.75 7.3 29.6 6.85 30.2 L5.8 30.85 Q5.2 30.85 4.7 30.3 4.2 29.75 4.15 28.9 L4.15 28.75 4.35 29.0 5.1 29.5 5.45 29.5 6.3 29.15" fill="#339328" fill-rule="evenodd" stroke="none"/>
      <path d="M6.85 26.95 Q6.3 26.35 5.6 26.4 4.8 26.45 4.3 27.2 L3.9 28.15 3.85 28.9 Q3.9 29.9 4.45 30.6 5.05 31.3 5.85 31.25 6.6 31.2 7.1 30.45 7.65 29.75 7.55 28.75 7.55 27.75 6.95 27.05 L6.85 26.95 Z" fill="none" stroke="#000000" stroke-linecap="round" stroke-linejoin="round" stroke-opacity="0.3019608" stroke-width="0.30000000000000004"/>
      <path d="M5.5 28.85 Q6.05 27.05 7.6 27.05 L9.05 27.45 10.7 28.85 Q12.3 30.7 13.05 33.25 L13.4 34.55 13.45 36.95 13.25 37.65 Q12.7 39.5 11.2 39.5 10.1 39.5 9.0 38.55 8.55 38.2 8.05 37.65 6.45 35.85 5.7 33.25 4.95 30.7 5.5 28.85 M5.95 30.35 L5.85 31.55 Q5.95 32.65 6.4 33.9 L6.8 34.8 Q7.6 36.55 8.6 37.6 L8.75 37.8 Q9.55 38.55 10.05 38.4 L10.15 38.35 Q10.8 38.1 10.65 36.6 L10.5 35.7 Q10.3 34.6 9.7 33.4 L8.6 31.4 7.95 30.6 Q6.95 29.55 6.35 29.85 L6.25 29.9 5.95 30.35 M9.2 28.15 Q8.25 27.45 7.4 27.45 5.55 27.95 6.15 29.35 6.85 29.25 7.55 29.7 L8.95 31.1 Q10.25 32.85 10.65 34.3 L10.7 34.5 11.0 35.9 11.05 36.1 11.1 36.95 10.9 38.0 Q10.7 39.7 12.4 38.55 L12.8 37.65 12.95 36.75 12.95 34.5 12.85 34.1 Q12.15 31.6 10.9 29.95 L10.15 29.05 9.2 28.15" fill="#d7f16b" fill-rule="evenodd" stroke="none"/>
      <path d="M7.55 29.7 Q7.25 27.9 9.2 28.15 L10.15 29.05 10.9 29.95 Q11.45 31.3 8.95 31.1 L7.55 29.7" fill="#9ae17b" fill-rule="evenodd" stroke="none"/>
      <path d="M5.95 30.35 L6.25 29.9 Q7.45 32.3 8.1 34.65 L8.25 35.1 8.05 34.6 Q6.95 31.65 5.95 30.35 M7.55 29.7 Q6.85 29.25 6.15 29.35 5.55 27.95 7.4 27.45 8.25 27.45 9.2 28.15 7.25 27.9 7.55 29.7 M10.9 29.95 Q12.15 31.6 12.85 34.1 L10.65 34.3 Q10.25 32.85 8.95 31.1 11.45 31.3 10.9 29.95 M12.8 37.65 L12.4 38.55 Q10.7 39.7 10.9 38.0 L11.1 36.95 Q11.8 38.3 12.8 37.65" fill="#75d74a" fill-rule="evenodd" stroke="none"/>
      <path d="M8.75 37.8 L8.6 37.6 Q7.6 36.55 6.8 34.8 L6.4 33.9 Q5.95 32.65 5.85 31.55 L5.95 30.35 Q6.95 31.65 8.05 34.6 L8.25 35.1 8.75 37.8 M8.6 31.4 L9.7 33.4 Q10.3 34.6 10.5 35.7 L10.65 36.6 Q10.8 38.1 10.15 38.35 L10.05 38.4 8.6 31.4 M12.85 34.1 L12.95 34.5 12.95 36.75 12.8 37.65 Q11.8 38.3 11.1 36.95 L11.05 36.1 11.0 35.9 10.7 34.5 10.65 34.3 12.85 34.1" fill="#339328" fill-rule="evenodd" stroke="none"/>
      <path d="M6.25 29.9 L6.35 29.85 Q6.95 29.55 7.95 30.6 L8.6 31.4 10.05 38.4 Q9.55 38.55 8.75 37.8 L8.25 35.1 8.1 34.65 Q7.45 32.3 6.25 29.9" fill="#246c41" fill-rule="evenodd" stroke="none"/>
      <path d="M5.5 28.85 Q6.05 27.05 7.6 27.05 L9.05 27.45 10.7 28.85 Q12.3 30.7 13.05 33.25 L13.4 34.55 13.45 36.95 13.25 37.65 Q12.7 39.5 11.2 39.5 10.1 39.5 9.0 38.55 8.55 38.2 8.05 37.65 6.45 35.85 5.7 33.25 4.95 30.7 5.5 28.85 Z" fill="none" stroke="#000000" stroke-linecap="round" stroke-linejoin="round" stroke-opacity="0.3019608" stroke-width="0.30000000000000004"/>
      <path d="M11.5 31.25 L12.3 32.05 Q12.55 32.6 12.4 32.95 12.25 33.4 11.7 33.45 L10.7 33.2 10.4 33.05 9.9 32.4 Q9.65 31.9 9.8 31.45 L10.2 31.05 10.45 31.0 11.5 31.25" fill="#246c41" fill-rule="evenodd" stroke="none"/>
      <path d="M11.05 28.95 Q11.7 28.8 12.3 29.15 L12.4 29.25 Q13.05 29.65 13.2 30.5 13.35 31.3 12.95 32.05 12.55 32.75 11.75 32.9 L10.4 32.65 Q9.75 32.2 9.6 31.35 L9.55 30.75 9.85 29.85 Q10.3 29.15 11.05 28.95 M12.05 31.05 Q12.5 30.1 11.85 29.35 L11.1 29.3 Q10.45 29.45 10.15 30.0 L9.9 30.6 Q10.2 31.45 10.85 31.6 L10.1 31.35 9.9 31.2 9.9 31.3 10.6 32.35 Q11.1 32.75 11.7 32.6 12.35 32.45 12.7 31.85 13.05 31.25 12.9 30.6 L12.45 29.7 12.2 30.85 12.05 31.05" fill="#d7f16b" fill-rule="evenodd" stroke="none"/>
      <path d="M10.85 31.6 Q10.2 31.45 9.9 30.6 L10.15 30.0 Q10.45 29.45 11.1 29.3 L11.85 29.35 Q12.5 30.1 12.05 31.05 L12.05 31.1 11.25 31.55 10.85 31.6" fill="#75d74a" fill-rule="evenodd" stroke="none"/>
      <path d="M10.85 31.6 L11.25 31.55 12.05 31.1 12.05 31.05 12.2 30.85 12.45 29.7 12.9 30.6 Q13.05 31.25 12.7 31.85 12.35 32.45 11.7 32.6 11.1 32.75 10.6 32.35 L9.9 31.3 9.9 31.2 10.1 31.35 10.85 31.6" fill="#339328" fill-rule="evenodd" stroke="none"/>
      <path d="M11.05 28.95 Q10.3 29.15 9.85 29.85 L9.55 30.75 9.6 31.35 Q9.75 32.2 10.4 32.65 L11.75 32.9 Q12.55 32.75 12.95 32.05 13.35 31.3 13.2 30.5 13.05 29.65 12.4 29.25 L12.3 29.15 Q11.7 28.8 11.05 28.95 Z" fill="none" stroke="#000000" stroke-linecap="round" stroke-linejoin="round" stroke-opacity="0.3019608" stroke-width="0.30000000000000004"/>
      <path d="M6.95 28.15 Q7.2 27.85 7.85 27.85 8.45 27.85 9.05 28.15 L9.85 28.9 Q10.1 29.35 9.8 29.65 L8.9 29.95 8.55 29.95 7.7 29.65 6.85 28.9 6.8 28.35 6.95 28.15" fill="#246c41" fill-rule="evenodd" stroke="none"/>
      <path d="M9.35 25.65 Q10.05 26.1 10.3 26.95 10.45 27.8 10.1 28.6 9.7 29.3 8.9 29.45 8.2 29.65 7.5 29.15 6.8 28.65 6.6 27.8 L6.5 27.1 Q6.55 26.6 6.75 26.2 7.15 25.45 7.9 25.25 8.6 25.15 9.25 25.55 L9.35 25.65 M7.9 28.05 L7.1 27.75 6.9 27.6 6.9 27.7 Q7.05 28.45 7.65 28.85 8.2 29.25 8.85 29.1 L9.8 28.35 Q10.15 27.75 9.95 27.05 9.85 26.45 9.4 26.1 9.55 26.75 9.25 27.3 L9.1 27.55 Q9.55 26.55 8.75 25.7 L8.0 25.65 Q7.35 25.8 7.05 26.4 L6.85 27.0 Q7.2 27.9 7.9 28.05" fill="#d7f16b" fill-rule="evenodd" stroke="none"/>
      <path d="M9.1 27.55 L8.3 28.0 7.9 28.05 Q7.2 27.9 6.85 27.0 L7.05 26.4 Q7.35 25.8 8.0 25.65 L8.75 25.7 Q9.55 26.55 9.1 27.55" fill="#75d74a" fill-rule="evenodd" stroke="none"/>
      <path d="M9.1 27.55 L9.25 27.3 Q9.55 26.75 9.4 26.1 9.85 26.45 9.95 27.05 10.15 27.75 9.8 28.35 L8.85 29.1 Q8.2 29.25 7.65 28.85 7.05 28.45 6.9 27.7 L6.9 27.6 7.1 27.75 7.9 28.05 8.3 28.0 9.1 27.55" fill="#339328" fill-rule="evenodd" stroke="none"/>
      <path d="M9.35 25.65 L9.25 25.55 Q8.6 25.15 7.9 25.25 7.15 25.45 6.75 26.2 6.55 26.6 6.5 27.1 L6.6 27.8 Q6.8 28.65 7.5 29.15 8.2 29.65 8.9 29.45 9.7 29.3 10.1 28.6 10.45 27.8 10.3 26.95 10.05 26.1 9.35 25.65 Z" fill="none" stroke="#000000" stroke-linecap="round" stroke-linejoin="round" stroke-opacity="0.3019608" stroke-width="0.30000000000000004"/>
    </g>
    <g id="sprite1" transform="matrix(1.0, 0.0, 0.0, 1.0, 0.0, 0.0)">
      <use height="26.7" transform="matrix(0.0042, -1.3515, 1.3935, 0.02, 22.09, 56.0263)" width="26.7" xlink:href="#sprite2"/>
      <use height="26.7" transform="matrix(0.0095, -3.0486, 0.372, 0.0053, 36.507, 81.3775)" width="26.7" xlink:href="#sprite2"/>
      <use height="26.7" transform="matrix(3.0486, 0.0095, -0.0053, 0.372, 0.1225, 35.107)" width="26.7" xlink:href="#sprite2"/>
    </g>
    <g id="sprite2" transform="matrix(1.0, 0.0, 0.0, 1.0, 13.35, 13.35)">
      <use height="26.7" transform="matrix(1.0, 0.0, 0.0, 1.0, -13.35, -13.35)" width="26.7" xlink:href="#shape1"/>
    </g>
    <g id="shape1" transform="matrix(1.0, 0.0, 0.0, 1.0, 13.35, 13.35)">
      <path d="M9.3 -9.85 Q13.35 -5.8 13.35 0.0 13.35 5.8 9.3 9.3 5.8 13.35 0.0 13.35 -5.8 13.35 -9.85 9.3 -13.35 5.8 -13.35 0.0 -13.35 -5.8 -9.85 -9.85 -5.8 -13.35 0.0 -13.35 5.8 -13.35 9.3 -9.85" fill="url(#gradient0)" fill-rule="evenodd" stroke="none"/>
    </g>
    <radialGradient cx="0" cy="0" gradientTransform="matrix(0.0213, 0.0, 0.0, 0.0213, 0.0, 0.0)" gradientUnits="userSpaceOnUse" id="gradient0" r="819.2" spreadMethod="pad">
      <stop offset="0.19607843137254902" stop-color="#fee3bc" stop-opacity="0.78039217"/>
      <stop offset="0.5019607843137255" stop-color="#fee3bc" stop-opacity="0.1254902"/>
      <stop offset="0.7607843137254902" stop-color="#ffe3bd" stop-opacity="0.0"/>
    </radialGradient>
  </defs>
</svg>
