<?xml version="1.0" encoding="UTF-8" standalone="no"?>
<svg xmlns:xlink="http://www.w3.org/1999/xlink" height="52.0px" width="52.0px" xmlns="http://www.w3.org/2000/svg">
  <g transform="matrix(1.0, 0.0, 0.0, 1.0, 0.0, 0.0)">
    <use height="74.0" transform="matrix(1.0, 0.0, 0.0, 1.0, -11.0, -11.0)" width="74.0" xlink:href="#shape0"/>
    <use height="0.0" transform="matrix(0.0677, 0.0, -0.0306, 0.0881, 20.1, 40.65)" width="0.0" xlink:href="#sprite0"/>
    <use height="41.65" transform="matrix(1.0, 0.0, 0.0, 1.0, 5.45, 3.6)" width="42.1" xlink:href="#shape1"/>
    <use height="0.0" transform="matrix(0.1346, 0.0, -0.0478, 0.1343, 29.45, 24.45)" width="0.0" xlink:href="#sprite0"/>
    <use height="24.3" transform="matrix(1.0, 0.0, 0.0, 1.0, 4.45, 12.3)" width="33.9" xlink:href="#shape2"/>
    <use height="0.0" transform="matrix(0.1316, 0.0, -0.0305, 0.0899, 24.5, 13.35)" width="0.0" xlink:href="#sprite0"/>
    <use height="0.0" transform="matrix(0.0407, 0.0, -0.0116, 0.0343, 32.0, 6.75)" width="0.0" xlink:href="#sprite0"/>
    <use height="0.0" transform="matrix(0.0586, 0.0, -0.0154, 0.0455, 16.45, 37.25)" width="0.0" xlink:href="#sprite0"/>
    <use height="158.05" transform="matrix(0.018, -0.3212, -0.1809, -0.0137, 39.0222, 39.1512)" width="74.3" xlink:href="#sprite1"/>
    <use height="158.05" transform="matrix(0.0364, -0.235, -0.1385, -0.0428, 31.8266, 27.1584)" width="74.3" xlink:href="#sprite1"/>
  </g>
  <defs>
    <g id="shape0" transform="matrix(1.0, 0.0, 0.0, 1.0, 11.0, 11.0)">
      <path d="M52.0 0.0 L52.0 52.0 0.0 52.0 0.0 0.0 52.0 0.0" fill="#795fa9" fill-opacity="0.0" fill-rule="evenodd" stroke="none"/>
      <path d="M10.15 16.1 L9.65 14.95 Q9.85 12.45 11.05 11.1 13.15 9.8 14.95 10.1 19.25 7.45 23.9 7.1 L23.9 5.95 Q25.2 4.8 27.05 4.45 L29.25 5.65 Q30.4 4.55 31.95 4.55 33.55 4.55 34.65 5.7 L34.75 5.75 Q35.55 6.6 35.75 7.65 L40.95 7.25 Q42.0 8.5 42.05 10.4 L42.05 10.9 41.8 12.5 41.5 12.9 39.55 15.05 39.65 15.2 40.05 16.5 40.2 17.4 40.05 18.9 41.65 18.9 Q43.4 19.85 44.05 22.25 L44.1 22.55 Q44.2 24.9 43.45 26.05 L42.65 26.85 42.4 26.95 42.3 27.0 40.65 27.65 38.1 28.0 38.0 27.8 36.8 29.75 Q35.8 31.15 34.4 32.35 L33.4 33.15 30.45 34.95 30.9 35.9 31.1 37.35 31.05 38.2 30.75 38.65 Q29.85 40.0 28.6 40.25 L25.45 39.7 25.4 39.75 24.2 42.55 Q20.25 49.5 16.85 49.05 L16.5 48.95 16.2 48.9 16.2 46.45 15.6 46.4 15.25 48.35 14.15 48.3 13.45 48.0 Q11.85 46.85 11.4 42.45 L11.1 41.05 Q10.95 39.6 11.45 38.0 11.65 37.25 12.0 36.6 L12.15 35.95 10.65 35.4 9.65 34.2 9.65 33.95 Q9.65 32.75 10.35 32.05 L11.75 31.15 Q9.15 28.0 8.9 23.95 L8.5 23.85 8.15 22.95 7.95 22.05 Q7.8 21.05 8.05 19.9 L8.2 19.3 8.45 18.55 8.5 18.45 Q8.9 17.5 9.6 16.65 L10.15 16.1 Z" fill="none" stroke="#000000" stroke-linecap="round" stroke-linejoin="round" stroke-opacity="0.3019608" stroke-width="1.0"/>
      <path d="M15.35 45.3 L16.2 45.45 16.2 46.45 15.6 46.4 15.25 46.25 15.6 46.4 15.25 48.35 14.95 48.35 15.25 46.25 14.4 45.8 Q13.5 45.4 12.75 44.25 L12.45 43.8 12.45 43.6 Q13.5 44.45 15.35 45.3 M16.95 48.8 L19.0 43.0 19.3 42.4 Q20.4 39.75 19.3 38.4 L15.4 33.0 Q17.95 31.45 20.65 31.85 23.5 32.35 24.9 34.75 25.6 36.0 25.7 37.4 22.4 48.15 16.95 48.8" fill="#aa772b" fill-rule="evenodd" stroke="none"/>
      <path d="M12.45 43.6 L12.45 43.8 12.75 44.25 Q13.5 45.4 14.4 45.8 L14.35 46.4 13.85 47.8 12.75 46.65 Q11.7 44.85 11.95 42.7 11.45 41.45 11.45 40.2 11.65 38.3 12.85 38.5 14.9 39.2 16.3 41.3 17.5 43.85 15.25 44.75 13.15 44.0 12.45 43.2 L12.45 43.6 M16.95 48.8 Q22.4 48.15 25.7 37.4 25.8 38.75 25.4 39.75 L24.2 42.55 Q20.25 49.5 16.85 49.05 L16.95 48.8" fill="#d8a53f" fill-rule="evenodd" stroke="none"/>
      <path d="M16.5 48.95 L16.55 45.1 15.25 44.75 Q17.5 43.85 16.3 41.3 14.9 39.2 12.85 38.5 11.65 38.3 11.45 40.2 11.4 39.2 11.65 38.2 12.25 35.95 14.4 33.7 L15.05 33.2 15.4 33.0 19.3 38.4 Q20.4 39.75 19.3 42.4 L19.0 43.0 16.95 48.8 16.85 49.05 16.5 48.95" fill="#cc9933" fill-rule="evenodd" stroke="none"/>
      <path d="M14.4 45.8 L15.25 46.25 14.95 48.35 14.15 48.3 14.35 46.4 14.4 45.8" fill="#825a20" fill-rule="evenodd" stroke="none"/>
      <path d="M16.2 46.45 L16.2 45.45 15.35 45.3 Q13.5 44.45 12.45 43.6 L12.45 43.2 Q13.15 44.0 15.25 44.75 L16.55 45.1 16.5 48.95 16.2 48.9 16.2 46.45 M14.4 33.7 Q12.25 35.95 11.65 38.2 11.4 39.2 11.45 40.2 11.45 41.45 11.95 42.7 11.7 44.85 12.75 46.65 L13.85 47.8 14.35 46.4 14.15 48.3 13.45 48.0 Q11.85 46.85 11.4 42.45 L11.1 41.05 Q10.95 39.6 11.45 38.0 12.25 35.4 14.4 33.7" fill="#e0c585" fill-rule="evenodd" stroke="none"/>
      <path d="M16.2 46.45 L16.2 45.45 15.35 45.3 M12.45 43.8 L12.75 44.25 Q13.5 45.4 14.4 45.8 L15.25 46.25 15.6 46.4 16.2 46.45 16.2 48.9 16.5 48.95 16.85 49.05 Q20.25 49.5 24.2 42.55 L25.4 39.75 Q25.8 38.75 25.7 37.4 25.6 36.0 24.9 34.75 23.5 32.35 20.65 31.85 17.95 31.45 15.4 33.0 L15.05 33.2 14.4 33.7 Q12.25 35.4 11.45 38.0 10.95 39.6 11.1 41.05 L11.4 42.45 Q11.85 46.85 13.45 48.0 L14.15 48.3 14.95 48.35 15.25 48.35 15.6 46.4" fill="none" stroke="#000000" stroke-linecap="round" stroke-linejoin="round" stroke-opacity="0.3019608" stroke-width="0.30000000000000004"/>
      <path d="M24.55 36.5 L29.35 36.5 30.3 38.2 30.55 37.9 30.8 37.2 30.9 35.9 31.1 37.35 31.05 38.2 30.75 38.65 Q29.85 40.0 28.6 40.25 L27.9 40.1 25.45 38.8 28.95 39.1 Q29.9 38.25 29.2 37.05 L24.4 37.05 24.55 36.5" fill="#aa772b" fill-rule="evenodd" stroke="none"/>
      <path d="M24.35 38.2 L24.35 37.45 24.4 37.05 29.2 37.05 Q29.9 38.25 28.95 39.1 L25.45 38.8 24.35 38.2" fill="#d8a53f" fill-rule="evenodd" stroke="none"/>
      <path d="M24.55 36.5 L24.75 36.0 Q25.7 35.2 26.8 34.75 L27.75 34.4 30.2 34.65 30.9 35.9 30.8 37.2 30.55 37.9 30.3 38.2 29.35 36.5 24.55 36.5 M27.9 40.1 L24.6 39.55 24.35 38.2 25.45 38.8 27.9 40.1" fill="#825a20" fill-rule="evenodd" stroke="none"/>
      <path d="M30.9 35.9 L30.2 34.65 27.75 34.4 26.8 34.75 Q25.7 35.2 24.75 36.0 L24.55 36.5 24.4 37.05 24.35 37.45 24.35 38.2 24.6 39.55 27.9 40.1 28.6 40.25 Q29.85 40.0 30.75 38.65 L31.05 38.2 31.1 37.35 30.9 35.9 Z" fill="none" stroke="#000000" stroke-linecap="round" stroke-linejoin="round" stroke-opacity="0.3019608" stroke-width="0.30000000000000004"/>
      <path d="M13.55 33.85 L14.75 34.6 13.65 36.5 10.65 35.4 9.65 34.2 9.65 33.95 13.15 35.3 13.55 33.85" fill="#aa772b" fill-rule="evenodd" stroke="none"/>
      <path d="M11.2 31.5 L13.55 33.85 13.15 35.3 9.65 33.95 Q9.65 32.75 10.35 32.05 L11.2 31.5" fill="#d8a53f" fill-rule="evenodd" stroke="none"/>
      <path d="M11.2 31.5 L12.0 30.95 15.3 33.7 14.75 34.6 13.55 33.85 11.2 31.5" fill="#825a20" fill-rule="evenodd" stroke="none"/>
      <path d="M14.75 34.6 L15.3 33.7 12.0 30.95 11.2 31.5 10.35 32.05 Q9.65 32.75 9.65 33.95 L9.65 34.2 10.65 35.4 13.65 36.5 14.75 34.6 Z" fill="none" stroke="#000000" stroke-linecap="round" stroke-linejoin="round" stroke-opacity="0.3019608" stroke-width="0.30000000000000004"/>
      <path d="M29.2 5.6 L29.9 5.95 28.9 7.85 26.55 7.55 24.6 5.9 26.8 4.8 29.2 5.6" fill="#d8a53f" fill-rule="evenodd" stroke="none"/>
      <path d="M28.9 7.85 L27.95 9.8 23.9 9.8 23.9 5.95 26.3 8.1 28.9 7.85" fill="#aa772b" fill-rule="evenodd" stroke="none"/>
      <path d="M28.9 7.85 L26.3 8.1 23.9 5.95 Q25.2 4.8 27.05 4.45 L29.2 5.6 26.8 4.8 24.6 5.9 26.55 7.55 28.9 7.85" fill="#e0c585" fill-rule="evenodd" stroke="none"/>
      <path d="M23.9 5.95 L23.9 9.8 27.95 9.8 28.9 7.85 29.9 5.95 29.2 5.6 27.05 4.45 Q25.2 4.8 23.9 5.95 Z" fill="none" stroke="#000000" stroke-linecap="round" stroke-linejoin="round" stroke-opacity="0.3019608" stroke-width="0.30000000000000004"/>
      <path d="M32.1 5.3 Q33.3 5.35 34.15 6.2 L34.2 6.25 34.6 6.8 33.6 8.45 33.35 8.7 Q35.25 6.3 32.1 5.3" fill="#d0c586" fill-rule="evenodd" stroke="none"/>
      <path d="M28.05 8.4 Q28.05 6.85 29.2 5.7 30.35 4.55 31.95 4.55 33.55 4.55 34.65 5.7 L34.75 5.7 Q35.8 6.85 35.8 8.4 35.8 10.0 34.65 11.15 33.55 12.3 31.95 12.3 30.35 12.3 29.2 11.15 28.1 10.05 28.05 8.5 L28.1 8.45 28.05 8.4 M34.6 6.8 L34.2 6.25 34.15 6.2 Q33.3 5.35 32.1 5.3 L31.95 5.3 Q30.65 5.3 29.7 6.2 28.8 7.15 28.8 8.4 L28.9 9.1 Q29.05 9.95 29.7 10.65 30.65 11.55 31.95 11.55 33.25 11.55 34.15 10.65 35.05 9.7 35.05 8.4 35.05 7.5 34.6 6.8" fill="#bfb072" fill-rule="evenodd" stroke="none"/>
      <path d="M28.05 8.5 L28.05 8.4 28.1 8.45 28.05 8.5 M28.9 9.1 L28.8 8.4 Q28.8 7.15 29.7 6.2 30.65 5.3 31.95 5.3 L32.1 5.3 Q35.25 6.3 33.35 8.7 32.3 9.6 30.85 9.6 L28.9 9.1" fill="#a89e64" fill-rule="evenodd" stroke="none"/>
      <path d="M34.6 6.8 Q35.05 7.5 35.05 8.4 35.05 9.7 34.15 10.65 33.25 11.55 31.95 11.55 30.65 11.55 29.7 10.65 29.05 9.95 28.9 9.1 L30.85 9.6 Q32.3 9.6 33.35 8.7 L33.6 8.45 34.6 6.8" fill="#696141" fill-rule="evenodd" stroke="none"/>
      <path d="M28.05 8.4 Q28.05 6.85 29.2 5.7 30.35 4.55 31.95 4.55 33.55 4.55 34.65 5.7 L34.75 5.7 Q35.8 6.85 35.8 8.4 35.8 10.0 34.65 11.15 33.55 12.3 31.95 12.3 30.35 12.3 29.2 11.15 28.1 10.05 28.05 8.5 L28.05 8.4 Z" fill="none" stroke="#000000" stroke-linecap="round" stroke-linejoin="round" stroke-opacity="0.3019608" stroke-width="0.30000000000000004"/>
      <path d="M33.9 10.35 L37.75 11.6 37.85 14.25 37.2 16.65 33.3 11.85 33.9 10.35 M40.65 8.65 L40.8 7.35 40.8 7.25 40.95 7.25 Q42.0 8.5 42.05 10.4 L42.05 10.9 41.8 12.5 41.5 12.9 41.5 10.85 41.5 10.7 Q41.3 9.1 40.65 8.65" fill="#aa772b" fill-rule="evenodd" stroke="none"/>
      <path d="M37.0 7.6 L40.4 7.9 40.15 8.9 38.45 11.25 33.9 10.35 35.0 7.75 37.0 7.6" fill="#d8a53f" fill-rule="evenodd" stroke="none"/>
      <path d="M37.85 14.25 L38.45 11.85 39.95 9.95 40.65 8.65 Q41.3 9.1 41.5 10.7 L41.5 10.85 41.5 12.9 Q39.45 15.55 37.2 16.65 L37.85 14.25" fill="#825a20" fill-rule="evenodd" stroke="none"/>
      <path d="M33.9 10.35 L38.45 11.25 40.15 8.9 40.4 7.9 37.0 7.6 40.8 7.25 40.8 7.35 40.65 8.65 39.95 9.95 38.45 11.85 37.85 14.25 37.75 11.6 33.9 10.35" fill="#e0c585" fill-rule="evenodd" stroke="none"/>
      <path d="M37.0 7.6 L35.0 7.75 33.9 10.35 33.3 11.85 37.2 16.65 Q39.45 15.55 41.5 12.9 L41.8 12.5 42.05 10.9 42.05 10.4 Q42.0 8.5 40.95 7.25 L40.8 7.25 37.0 7.6 M37.2 16.65 L37.05 16.8" fill="none" stroke="#000000" stroke-linecap="round" stroke-linejoin="round" stroke-opacity="0.3019608" stroke-width="0.30000000000000004"/>
      <path d="M12.95 15.55 L12.8 14.3 13.3 13.55 14.2 13.2 15.1 14.45 12.95 15.55" fill="#aa772b" fill-rule="evenodd" stroke="none"/>
      <path d="M10.3 16.35 L10.3 14.45 Q10.1 13.55 11.35 11.3 L14.0 10.45 15.7 11.15 15.05 12.6 14.75 12.95 13.85 12.45 12.3 12.85 12.3 14.45 13.1 16.5 11.05 18.05 10.3 16.35" fill="#d8a53f" fill-rule="evenodd" stroke="none"/>
      <path d="M13.1 16.5 L12.3 14.45 12.8 13.15 13.5 12.95 14.2 13.2 13.3 13.55 12.8 14.3 12.95 15.55 13.1 16.5" fill="#825a20" fill-rule="evenodd" stroke="none"/>
      <path d="M15.05 12.6 L16.25 11.05 18.15 12.85 15.35 14.7 15.1 14.45 14.2 13.2 13.5 12.95 12.8 13.15 12.3 14.45 12.3 12.85 13.85 12.45 14.75 12.95 15.05 12.6" fill="#cc9933" fill-rule="evenodd" stroke="none"/>
      <path d="M15.05 12.6 L15.7 11.15 14.0 10.45 11.35 11.3 Q10.1 13.55 10.3 14.45 L10.3 16.35 9.65 14.95 Q9.85 12.45 11.05 11.1 13.3 9.7 15.25 10.1 L16.25 11.05 15.05 12.6" fill="#e0c585" fill-rule="evenodd" stroke="none"/>
      <path d="M16.25 11.05 L15.25 10.1 Q13.3 9.7 11.05 11.1 9.85 12.45 9.65 14.95 L10.3 16.35 11.05 18.05 13.1 16.5 12.3 14.45 12.8 13.15 13.5 12.95 14.2 13.2 15.1 14.45 12.95 15.55 13.1 16.5 M12.95 15.55 L12.8 14.3 13.3 13.55 14.2 13.2 M15.1 14.45 L15.35 14.7 18.15 12.85 16.25 11.05 Z" fill="none" stroke="#000000" stroke-linecap="round" stroke-linejoin="round" stroke-opacity="0.3019608" stroke-width="0.30000000000000004"/>
    </g>
    <g id="shape1" transform="matrix(1.0, 0.0, 0.0, 1.0, -5.45, -3.6)">
      <path d="M14.65 35.9 L14.8 37.45 14.55 40.8 15.1 41.05 Q16.8 41.1 18.4 40.45 L18.6 40.4 20.0 39.55 Q21.15 38.3 21.9 34.95 L22.3 35.05 Q21.7 37.95 20.95 39.2 L20.5 39.8 19.1 40.75 18.2 41.15 15.2 41.4 14.85 41.35 14.8 41.35 14.5 41.25 Q13.0 40.3 12.4 39.0 L13.6 40.2 Q14.4 40.45 14.6 37.3 L14.65 35.9" fill="#d0c586" fill-rule="evenodd" stroke="none"/>
      <path d="M14.05 33.5 L14.7 32.9 17.9 33.8 Q17.35 37.5 18.25 40.1 L18.4 40.45 Q16.8 41.1 15.1 41.05 L14.55 40.8 14.8 37.45 14.65 35.9 14.05 33.5" fill="#bfb072" fill-rule="evenodd" stroke="none"/>
      <path d="M14.05 33.5 L14.65 35.9 14.6 37.3 Q14.4 40.45 13.6 40.2 L12.4 39.0 12.0 37.7 Q11.85 36.8 12.3 35.55 L12.85 34.45 14.05 33.5 M17.9 33.8 L21.9 34.95 Q21.15 38.3 20.0 39.55 17.65 40.05 17.9 33.8 M19.45 41.4 L18.85 41.6 16.95 41.7 15.2 41.4 18.2 41.15 19.45 41.4" fill="#a89e64" fill-rule="evenodd" stroke="none"/>
      <path d="M18.4 40.45 L18.25 40.1 Q17.35 37.5 17.9 33.8 17.65 40.05 20.0 39.55 L18.6 40.4 18.4 40.45 M21.6 39.6 L19.75 41.25 19.45 41.4 18.2 41.15 19.1 40.75 20.5 39.8 20.95 39.2 21.6 39.6" fill="#696141" fill-rule="evenodd" stroke="none"/>
      <path d="M22.3 35.05 L23.2 35.05 21.85 39.3 21.6 39.6 20.95 39.2 Q21.7 37.95 22.3 35.05" fill="#5f5a3a" fill-rule="evenodd" stroke="none"/>
      <path d="M17.9 33.8 L14.7 32.9 14.05 33.5 12.85 34.45 12.3 35.55 Q11.85 36.8 12.0 37.7 L12.4 39.0 Q13.0 40.3 14.5 41.25 L14.8 41.35 14.85 41.35 15.2 41.4 16.95 41.7 18.85 41.6 19.45 41.4 19.75 41.25 21.6 39.6 21.85 39.3 23.2 35.05 22.3 35.05 21.9 34.95 17.9 33.8 Z" fill="none" stroke="#000000" stroke-linecap="round" stroke-linejoin="round" stroke-opacity="0.3019608" stroke-width="0.30000000000000004"/>
      <path d="M9.8 21.55 Q10.55 24.15 12.75 26.25 L13.1 26.55 14.7 27.8 14.8 27.85 Q16.65 29.0 18.9 29.45 L21.9 29.75 Q26.75 29.75 30.5 26.95 L31.3 26.3 31.35 26.25 32.45 25.2 33.05 25.55 35.25 27.95 36.05 29.55 35.6 30.15 33.85 31.85 33.5 32.2 33.2 30.75 32.4 28.5 31.8 27.05 31.55 26.7 32.75 30.55 33.15 32.5 32.75 32.75 Q28.7 35.7 23.5 35.7 19.1 35.7 15.7 33.6 L15.6 33.55 14.95 31.7 14.6 29.15 14.7 27.8 14.6 29.15 14.55 30.5 14.75 32.95 13.45 31.85 Q9.4 28.0 9.7 22.55 L9.8 21.55 M33.5 23.9 Q34.55 22.5 35.05 20.9 L35.6 17.8 Q35.75 15.45 34.95 13.45 38.85 17.25 38.55 22.55 38.5 24.35 37.95 25.95 37.4 27.55 36.5 28.95 L35.95 28.25 33.6 25.85 33.05 25.55 32.45 25.2 33.45 24.0 33.5 23.9 M31.55 26.7 L31.3 26.3 31.55 26.7" fill="#aa772b" fill-rule="evenodd" stroke="none"/>
      <path d="M13.1 26.55 Q10.2 23.25 10.05 20.1 L10.15 19.75 Q10.4 18.7 10.85 17.8 L10.9 17.7 11.25 17.05 Q12.4 15.0 14.35 13.25 L14.7 13.0 Q15.7 11.95 17.1 11.15 19.2 9.9 21.35 9.75 L24.75 9.4 26.45 9.5 Q31.6 12.7 28.65 22.5 26.4 28.6 18.9 29.45 16.65 29.0 14.8 27.85 L14.7 27.8 14.8 25.65 12.7 22.35 12.3 21.3 10.4 19.55 12.3 21.3 12.7 22.35 14.8 25.65 14.7 27.8 13.1 26.55 M20.05 14.65 L15.05 21.3 14.8 25.65 15.05 21.3 20.05 14.65 M24.55 16.55 L28.65 22.5 24.55 16.55 M12.3 21.3 L10.9 17.7 12.3 21.3" fill="#d8a53f" fill-rule="evenodd" stroke="none"/>
      <path d="M9.4 19.6 Q9.7 18.55 10.15 17.55 L10.55 16.8 Q11.75 14.6 13.85 12.8 18.5 8.75 24.8 8.75 30.25 8.75 34.15 11.75 L34.95 13.45 Q35.75 15.45 35.6 17.8 L35.05 20.9 Q34.55 22.5 33.5 23.9 36.95 16.8 33.35 12.1 30.35 9.85 26.45 9.5 L24.75 9.4 21.35 9.75 Q19.2 9.9 17.1 11.15 15.7 11.95 14.7 13.0 L14.35 13.25 Q12.4 15.0 11.25 17.05 L10.9 17.7 10.85 17.8 Q10.4 18.7 10.15 19.75 L10.05 20.1 Q10.2 23.25 13.1 26.55 L12.75 26.25 Q10.55 24.15 9.8 21.55 L9.4 19.6 M10.55 16.8 L10.9 17.7 10.55 16.8" fill="#e0c585" fill-rule="evenodd" stroke="none"/>
      <path d="M34.15 11.75 L35.35 12.8 Q39.6 16.85 39.3 22.55 39.25 24.45 38.65 26.15 38.05 28.05 36.8 29.75 35.8 31.15 34.4 32.35 L33.4 33.15 Q29.05 36.4 23.45 36.4 18.8 36.4 15.25 34.2 L12.9 32.35 Q8.65 28.3 8.9 22.55 9.0 21.0 9.4 19.6 L9.8 21.55 9.7 22.55 Q9.4 28.0 13.45 31.85 L14.75 32.95 14.55 30.5 14.6 29.15 14.95 31.7 15.6 33.55 15.7 33.6 Q19.1 35.7 23.5 35.7 28.7 35.7 32.75 32.75 L33.15 32.5 32.75 30.55 31.55 26.7 31.8 27.05 32.4 28.5 33.2 30.75 33.5 32.2 33.85 31.85 35.6 30.15 36.05 29.55 35.25 27.95 33.05 25.55 33.6 25.85 35.95 28.25 36.5 28.95 Q37.4 27.55 37.95 25.95 38.5 24.35 38.55 22.55 38.85 17.25 34.95 13.45 L34.15 11.75 M26.45 9.5 Q30.35 9.85 33.35 12.1 36.95 16.8 33.5 23.9 L33.45 24.0 32.45 25.2 29.4 23.55 31.3 26.3 29.4 23.55 32.45 25.2 31.35 26.25 31.3 26.3 30.5 26.95 Q26.75 29.75 21.9 29.75 L18.9 29.45 Q26.4 28.6 28.65 22.5 31.6 12.7 26.45 9.5 M36.8 29.75 L36.5 28.95 36.8 29.75 M33.4 33.15 L33.5 32.2 33.4 33.15 M29.4 23.55 L28.65 22.5 29.4 23.55 M15.25 34.2 Q14.9 33.8 14.75 32.95 14.9 33.8 15.25 34.2" fill="#cc9933" fill-rule="evenodd" stroke="none"/>
      <path d="M9.4 19.6 Q9.7 18.55 10.15 17.55 L10.55 16.8 Q11.75 14.6 13.85 12.8 18.5 8.75 24.8 8.75 30.25 8.75 34.15 11.75 L35.35 12.8 Q39.6 16.85 39.3 22.55 39.25 24.45 38.65 26.15 38.05 28.05 36.8 29.75 35.8 31.15 34.4 32.35 L33.4 33.15 Q29.05 36.4 23.45 36.4 18.8 36.4 15.25 34.2 L12.9 32.35 Q8.65 28.3 8.9 22.55 9.0 21.0 9.4 19.6 M10.9 17.7 L10.55 16.8 M36.5 28.95 L36.8 29.75 M33.05 25.55 L33.6 25.85 35.95 28.25 36.5 28.95 M32.45 25.2 L33.05 25.55 M33.5 32.2 L33.4 33.15 M32.45 25.2 L29.4 23.55 31.3 26.3 31.55 26.7 31.8 27.05 32.4 28.5 33.2 30.75 33.5 32.2 M28.65 22.5 L29.4 23.55 M14.7 27.8 L14.6 29.15 14.55 30.5 14.75 32.95 Q14.9 33.8 15.25 34.2 M28.65 22.5 L24.55 16.55 M14.7 27.8 L14.8 25.65 12.7 22.35 12.3 21.3 10.4 19.55 M14.8 25.65 L15.05 21.3 20.05 14.65 M10.9 17.7 L12.3 21.3" fill="none" stroke="#000000" stroke-linecap="round" stroke-linejoin="round" stroke-opacity="0.3019608" stroke-width="0.30000000000000004"/>
      <path d="M26.65 15.2 L26.7 15.15 26.75 15.15 26.65 15.2" fill="#ffcc00" fill-rule="evenodd" stroke="none"/>
      <path d="M32.7 13.7 Q34.4 13.1 34.65 12.3 35.0 11.35 33.3 10.1 35.05 11.15 35.05 12.25 L34.8 13.05 34.25 13.7 32.7 13.7 M16.2 10.2 Q14.15 14.5 17.7 16.85 L18.8 17.2 Q21.2 17.75 25.1 15.95 L22.05 17.75 18.55 17.95 Q15.5 17.6 14.9 15.05 14.65 11.65 16.2 10.2 M15.3 18.4 L15.4 18.4 15.5 18.85 15.3 18.45 15.3 18.4" fill="#d0c586" fill-rule="evenodd" stroke="none"/>
      <path d="M32.7 13.7 L34.25 13.7 35.65 13.8 36.2 13.9 Q36.55 13.35 36.5 12.8 L36.2 12.05 Q35.4 10.75 32.3 9.35 30.15 8.45 28.1 8.05 23.9 7.2 20.0 8.45 L19.8 8.5 18.25 9.1 Q17.25 9.55 16.2 10.2 14.65 11.65 14.9 15.05 L14.95 15.75 15.0 16.2 15.0 16.35 15.4 18.4 15.3 18.4 14.65 16.25 Q13.95 13.25 14.25 10.5 19.45 7.05 25.1 7.05 32.1 7.05 36.8 11.55 L37.8 12.55 Q38.9 13.8 39.65 15.2 L40.05 16.5 39.45 15.75 39.1 15.35 38.75 15.25 36.05 14.55 35.4 14.35 32.7 14.25 Q30.55 14.4 28.7 15.2 L28.25 15.4 27.75 17.65 27.75 15.65 27.55 14.8 24.3 13.1 28.2 14.65 30.8 14.0 32.4 13.75 32.7 13.7 M25.1 15.95 L26.35 15.35 26.65 15.2 26.75 15.15 27.1 15.9 Q25.55 16.1 23.35 17.5 L22.9 17.8 18.65 20.95 18.45 20.45 Q19.7 19.4 21.0 18.5 L21.9 17.85 22.05 17.75 25.1 15.95" fill="#bfb072" fill-rule="evenodd" stroke="none"/>
      <path d="M33.3 10.1 Q35.0 11.35 34.65 12.3 34.4 13.1 32.7 13.7 L32.4 13.75 30.8 14.0 28.2 14.65 24.3 13.1 26.7 15.15 26.65 15.2 26.35 15.35 25.1 15.95 Q21.2 17.75 18.8 17.2 L17.7 16.85 Q14.15 14.5 16.2 10.2 17.25 9.55 18.25 9.1 L19.8 8.5 20.0 8.45 Q23.9 7.2 28.1 8.05 31.55 9.05 33.3 10.1 M39.45 15.75 L40.05 16.5 40.2 17.4 Q40.25 19.05 39.4 20.9 39.95 18.8 39.8 17.35 L39.45 15.75" fill="#a89e64" fill-rule="evenodd" stroke="none"/>
      <path d="M34.25 13.7 L34.8 13.05 35.05 12.25 Q35.05 11.15 33.3 10.1 31.55 9.05 28.1 8.05 30.15 8.45 32.3 9.35 35.4 10.75 36.2 12.05 L36.5 12.8 Q36.55 13.35 36.2 13.9 L35.65 13.8 34.25 13.7 M15.4 18.4 L15.0 16.35 15.0 16.2 14.95 15.75 14.9 15.05 Q15.5 17.6 18.55 17.95 L22.05 17.75 21.9 17.85 21.0 18.5 Q19.7 19.4 18.45 20.45 L16.0 19.95 15.5 18.85 15.4 18.4 M36.05 14.55 L38.75 15.25 Q38.0 16.0 37.85 17.0 L37.85 17.7 35.0 17.3 35.75 16.65 36.2 15.25 36.05 14.55 M23.9 20.65 L19.5 23.15 18.65 20.95 22.9 17.8 23.35 17.5 Q22.75 19.45 23.2 20.2 L23.9 20.65" fill="#696141" fill-rule="evenodd" stroke="none"/>
      <path d="M26.7 15.15 L24.3 13.1 27.55 14.8 27.75 15.65 27.75 17.65 28.25 15.4 28.7 15.2 Q30.55 14.4 32.7 14.25 L35.4 14.35 36.05 14.55 36.2 15.25 35.75 16.65 35.0 17.3 34.7 17.3 Q30.2 17.4 23.9 20.65 L23.2 20.2 Q22.75 19.45 23.35 17.5 25.55 16.1 27.1 15.9 L26.75 15.15 26.7 15.15 M38.75 15.25 L39.1 15.35 39.45 15.75 39.8 17.35 Q39.95 18.8 39.4 20.9 L39.35 21.05 38.75 18.0 37.85 17.7 37.85 17.0 Q38.0 16.0 38.75 15.25" fill="#5f5a3a" fill-rule="evenodd" stroke="none"/>
      <path d="M40.05 16.5 L39.65 15.2 Q38.9 13.8 37.8 12.55 L36.8 11.55 Q32.1 7.05 25.1 7.05 19.45 7.05 14.25 10.5 13.95 13.25 14.65 16.25 L15.3 18.4 15.3 18.45 15.5 18.85 16.0 19.95 18.45 20.45 18.65 20.95 19.5 23.15 23.9 20.65 Q30.2 17.4 34.7 17.3 L35.0 17.3 37.85 17.7 38.75 18.0 39.35 21.05 39.4 20.9 Q40.25 19.05 40.2 17.4 L40.05 16.5 Z" fill="none" stroke="#000000" stroke-linecap="round" stroke-linejoin="round" stroke-opacity="0.3019608" stroke-width="0.30000000000000004"/>
      <path d="M44.05 22.25 Q44.25 24.8 43.45 26.05 L42.65 26.85 42.4 26.95 42.25 26.3 Q43.55 25.3 43.8 23.9 L44.05 22.55 44.05 22.25 M40.65 27.65 L38.1 28.0 37.75 27.4 40.1 27.0 40.65 27.65 M38.6 24.95 L39.0 22.15 40.45 22.8 40.65 24.0 40.0 24.6 38.6 24.95" fill="#aa772b" fill-rule="evenodd" stroke="none"/>
      <path d="M38.3 18.9 L41.65 18.9 Q43.4 19.85 44.05 22.25 L44.05 22.55 Q43.35 23.7 41.85 24.6 L40.0 24.6 40.65 24.0 41.15 23.0 40.8 21.3 38.45 20.45 38.3 18.9" fill="#d8a53f" fill-rule="evenodd" stroke="none"/>
      <path d="M42.4 26.95 L42.3 27.0 40.65 27.65 40.1 27.0 42.1 26.35 42.25 26.3 42.4 26.95 M39.0 22.15 L38.55 21.15 40.65 21.8 41.15 23.0 40.65 24.0 40.45 22.8 39.0 22.15" fill="#825a20" fill-rule="evenodd" stroke="none"/>
      <path d="M37.75 26.8 L38.1 25.05 38.6 24.95 40.0 24.6 41.85 24.6 Q43.35 23.7 44.05 22.55 L43.8 23.9 Q42.85 25.45 41.7 26.05 39.4 26.95 37.75 26.8" fill="#cc9933" fill-rule="evenodd" stroke="none"/>
      <path d="M37.75 27.4 L37.75 26.8 Q39.4 26.95 41.7 26.05 42.85 25.45 43.8 23.9 43.55 25.3 42.25 26.3 L42.1 26.35 40.1 27.0 37.75 27.4 M38.55 21.15 L38.45 20.45 40.8 21.3 41.15 23.0 40.65 21.8 38.55 21.15" fill="#e0c585" fill-rule="evenodd" stroke="none"/>
      <path d="M38.3 18.9 L41.65 18.9 Q43.4 19.85 44.05 22.25 44.25 24.8 43.45 26.05 L42.65 26.85 42.4 26.95 42.3 27.0 40.65 27.65 38.1 28.0 37.75 27.4 M38.1 25.05 L38.6 24.95 39.0 22.15 38.55 21.15 M44.05 22.25 L44.05 22.55 M41.15 23.0 L40.65 24.0 40.0 24.6 38.6 24.95 M39.0 22.15 L40.45 22.8 40.65 24.0" fill="none" stroke="#000000" stroke-linecap="round" stroke-linejoin="round" stroke-opacity="0.3019608" stroke-width="0.30000000000000004"/>
      <path d="M21.0 20.15 L21.35 22.05 20.55 23.7 19.4 24.5 19.05 24.5 19.3 22.4 19.65 22.05 21.0 20.15 M15.9 24.8 L14.25 22.3 13.65 20.05 15.5 23.2 15.9 24.8" fill="#aa772b" fill-rule="evenodd" stroke="none"/>
      <path d="M17.25 18.95 L16.15 21.7 15.05 18.05 17.25 18.95" fill="#d8a53f" fill-rule="evenodd" stroke="none"/>
      <path d="M13.65 20.05 L15.5 22.3 16.7 23.15 19.0 21.9 20.2 20.45 19.4 18.95 19.7 18.95 21.0 20.15 19.65 22.05 19.3 22.4 Q18.4 23.1 17.05 23.55 L16.4 23.7 15.9 24.8 15.5 23.2 13.65 20.05" fill="#e0c585" fill-rule="evenodd" stroke="none"/>
      <path d="M17.25 18.95 L19.4 18.95 20.2 20.45 19.0 21.9 16.7 23.15 15.5 22.3 13.65 20.05 Q13.95 18.55 15.05 18.05 L16.15 21.7 17.25 18.95" fill="#cc9933" fill-rule="evenodd" stroke="none"/>
      <path d="M19.05 24.5 L15.9 24.8 16.4 23.7 17.05 23.55 Q18.4 23.1 19.3 22.4 L19.05 24.5" fill="#825a20" fill-rule="evenodd" stroke="none"/>
      <path d="M19.4 18.95 L17.25 18.95 15.05 18.05 Q13.95 18.55 13.65 20.05 L14.25 22.3 15.9 24.8 19.05 24.5 19.4 24.5 20.55 23.7 21.35 22.05 21.0 20.15 19.7 18.95 19.4 18.95 Z" fill="none" stroke="#000000" stroke-linecap="round" stroke-linejoin="round" stroke-opacity="0.3019608" stroke-width="0.30000000000000004"/>
    </g>
    <g id="shape2" transform="matrix(1.0, 0.0, 0.0, 1.0, -4.45, -12.3)">
      <path d="M32.15 25.05 L32.15 25.0 32.15 25.05" fill="url(#gradient0)" fill-rule="evenodd" stroke="none"/>
      <path d="M28.6 26.0 L28.25 25.15 28.05 24.55 Q27.8 23.0 29.0 21.6 L29.4 21.3 Q31.15 20.15 33.1 21.35 L33.25 22.4 Q33.25 23.3 32.9 24.0 33.45 21.55 31.95 21.15 30.35 20.95 29.1 22.05 28.25 23.35 28.5 24.3 28.75 25.15 29.1 25.35 L30.9 25.45 32.4 24.75 32.15 25.0 32.15 25.05 32.1 25.05 32.05 25.1 32.05 25.15 31.85 25.25 31.4 25.6 Q30.55 26.1 29.5 26.1 L28.6 26.0 M10.8 17.75 L10.55 19.1 10.5 19.25 Q10.1 20.75 9.05 22.1 L8.15 22.95 7.95 22.0 Q7.85 21.0 8.05 19.9 7.9 22.1 8.45 22.05 9.2 21.65 10.3 19.05 L10.8 17.75" fill="#d0c586" fill-rule="evenodd" stroke="none"/>
      <path d="M33.1 21.35 Q31.15 20.15 29.4 21.3 L29.0 21.6 Q27.8 23.0 28.05 24.55 L28.25 25.15 28.6 26.0 Q30.15 27.25 31.75 27.1 32.75 26.8 33.4 26.2 L33.8 25.75 34.4 24.4 Q34.4 22.45 33.1 21.35 M27.45 24.35 L27.45 23.9 Q27.45 22.35 28.5 21.25 29.6 20.15 31.15 20.15 L32.75 20.55 33.8 21.25 Q34.9 22.35 34.9 23.9 34.9 25.35 33.95 26.4 L33.8 26.55 Q32.7 27.65 31.15 27.65 29.6 27.65 28.5 26.55 L27.9 25.75 Q27.55 25.15 27.45 24.35 M8.15 22.95 Q8.65 23.85 9.2 23.15 10.45 21.85 11.3 19.35 L11.35 19.0 Q11.65 16.25 10.85 16.3 9.9 16.4 8.5 18.45 L8.45 18.55 8.5 18.45 Q8.9 17.5 9.6 16.65 10.3 15.9 10.8 15.75 L11.2 15.8 Q11.75 16.05 11.8 17.35 L11.6 19.45 11.45 20.15 Q11.05 21.65 9.95 23.0 8.9 24.4 8.5 23.85 L8.15 22.95" fill="#bfb072" fill-rule="evenodd" stroke="none"/>
      <path d="M32.4 24.75 L30.9 25.45 29.1 25.35 Q28.75 25.15 28.5 24.3 28.25 23.35 29.1 22.05 30.35 20.95 31.95 21.15 33.45 21.55 32.9 24.0 L32.4 24.75 M10.85 16.3 L10.85 16.45 10.8 17.75 10.3 19.05 Q9.2 21.65 8.45 22.05 7.9 22.1 8.05 19.9 L8.2 19.3 8.45 18.55 8.5 18.45 Q9.9 16.4 10.85 16.3" fill="#a89e64" fill-rule="evenodd" stroke="none"/>
      <path d="M33.1 21.35 Q34.4 22.45 34.4 24.4 L33.8 25.75 33.4 26.2 Q32.75 26.8 31.75 27.1 30.15 27.25 28.6 26.0 L29.5 26.1 Q30.55 26.1 31.4 25.6 L31.85 25.25 32.05 25.15 32.05 25.1 32.1 25.05 32.15 25.05 32.15 25.0 32.4 24.75 32.9 24.0 Q33.25 23.3 33.25 22.4 L33.1 21.35 M10.8 17.75 L10.85 16.45 10.85 16.3 Q11.65 16.25 11.35 19.0 L11.3 19.35 Q10.45 21.85 9.2 23.15 8.65 23.85 8.15 22.95 L9.05 22.1 Q10.1 20.75 10.5 19.25 L10.55 19.1 10.8 17.75" fill="#696141" fill-rule="evenodd" stroke="none"/>
      <path d="M27.45 24.35 L27.45 23.9 Q27.45 22.35 28.5 21.25 29.6 20.15 31.15 20.15 L32.75 20.55 33.8 21.25 Q34.9 22.35 34.9 23.9 34.9 25.35 33.95 26.4 L33.8 26.55 Q32.7 27.65 31.15 27.65 29.6 27.65 28.5 26.55 L27.9 25.75 Q27.55 25.15 27.45 24.35 M8.45 18.55 L8.5 18.45 Q8.9 17.5 9.6 16.65 10.3 15.9 10.8 15.75 L11.2 15.8 Q11.75 16.05 11.8 17.35 L11.6 19.45 11.45 20.15 Q11.05 21.65 9.95 23.0 8.9 24.4 8.5 23.85 L8.15 22.95 7.95 22.0 Q7.85 21.0 8.05 19.9 L8.2 19.3 8.45 18.55" fill="none" stroke="#000000" stroke-linecap="round" stroke-linejoin="round" stroke-opacity="0.3019608" stroke-width="0.30000000000000004"/>
      <path d="M13.4 27.15 Q15.1 27.55 16.7 28.25 L13.95 27.95 13.8 31.0 13.4 27.15" fill="#d0c586" fill-rule="evenodd" stroke="none"/>
      <path d="M14.6 31.95 L13.2 31.3 13.2 27.1 13.4 27.15 13.8 31.0 14.65 31.7 14.6 31.95 M17.35 33.15 L15.55 32.5 15.55 28.55 15.85 30.55 16.15 32.1 16.4 32.2 17.55 32.65 17.35 33.15" fill="#bfb072" fill-rule="evenodd" stroke="none"/>
      <path d="M16.7 28.25 L17.4 28.6 Q17.45 30.2 16.55 30.5 L15.85 30.55 15.55 28.55 14.65 31.7 13.8 31.0 13.95 27.95 16.7 28.25 M18.65 29.3 L18.85 29.4 17.55 32.65 16.4 32.2 17.25 30.8 Q18.0 29.75 18.65 29.3" fill="#a89e64" fill-rule="evenodd" stroke="none"/>
      <path d="M17.4 28.6 L18.65 29.3 Q18.0 29.75 17.25 30.8 L16.4 32.2 16.15 32.1 15.85 30.55 16.55 30.5 Q17.45 30.2 17.4 28.6 M15.55 32.5 Q15.55 31.85 14.6 31.95 L14.65 31.7 15.55 28.55 15.55 32.5" fill="#696141" fill-rule="evenodd" stroke="none"/>
      <path d="M18.85 29.4 L18.0 32.95 17.35 33.15 17.55 32.65 18.85 29.4" fill="#5f5a3a" fill-rule="evenodd" stroke="none"/>
      <path d="M14.6 31.95 L13.2 31.3 13.2 27.1 13.4 27.15 Q15.1 27.55 16.7 28.25 L17.4 28.6 18.65 29.3 18.85 29.4 18.0 32.95 17.35 33.15 15.55 32.5 Q15.55 31.85 14.6 31.95 M15.55 32.5 L15.55 28.55" fill="none" stroke="#000000" stroke-linecap="round" stroke-linejoin="round" stroke-opacity="0.3019608" stroke-width="0.30000000000000004"/>
    </g>
    <linearGradient gradientTransform="matrix(0.0022, -0.005, 0.0026, 0.0012, 32.65, 22.7)" gradientUnits="userSpaceOnUse" id="gradient0" spreadMethod="pad" x1="-819.2" x2="819.2">
      <stop offset="0.0" stop-color="#cc6b22"/>
      <stop offset="1.0" stop-color="#ff9900"/>
    </linearGradient>
    <g id="sprite1" transform="matrix(1.0, 0.0, 0.0, 1.0, 0.75, 0.75)">
      <use height="170.05" transform="matrix(1.0, 0.0, 0.0, 1.0, -6.75, -6.75)" width="86.3" xlink:href="#shape3"/>
    </g>
    <g id="shape3" transform="matrix(1.0, 0.0, 0.0, 1.0, 6.75, 6.75)">
      <path d="M67.1 47.3 Q60.05 84.7 45.15 118.0 L67.1 47.3" fill="#000000" fill-opacity="0.05490196" fill-rule="evenodd" stroke="none"/>
      <path d="M72.8 0.4 Q71.4 24.6 67.1 47.3 60.05 84.7 45.15 118.0 L45.0 118.3 Q39.4 130.85 24.25 156.55 M43.75 69.05 Q26.65 113.65 20.4 117.6 17.55 109.85 28.1 81.45 38.25 56.05 47.2 54.0 48.65 56.75 43.75 69.05 M48.0 24.8 Q34.25 59.6 13.6 90.6 7.15 100.3 0.0 109.6 M66.8 0.0 Q53.65 80.05 13.6 143.35 L12.4 145.2 M67.1 47.3 L45.15 118.0" fill="none" stroke="#000000" stroke-linecap="round" stroke-linejoin="round" stroke-opacity="0.08627451" stroke-width="0.30000000000000004"/>
    </g>
  </defs>
</svg>
