<?xml version="1.0" encoding="UTF-8" standalone="no"?>
<svg xmlns:xlink="http://www.w3.org/1999/xlink" height="52.0px" width="52.0px" xmlns="http://www.w3.org/2000/svg">
  <g transform="matrix(1.0, 0.0, 0.0, 1.0, 0.0, 0.0)">
    <use height="54.0" transform="matrix(1.0, 0.0, 0.0, 1.0, -1.0, -1.0)" width="54.0" xlink:href="#shape0"/>
    <use height="0.0" transform="matrix(0.1644, -0.0064, -0.0376, 0.1331, 25.55, 14.15)" width="0.0" xlink:href="#sprite0"/>
    <use height="0.0" transform="matrix(0.1189, -0.0046, -0.0309, 0.1095, 29.35, 32.9)" width="0.0" xlink:href="#sprite0"/>
    <use height="81.5" transform="matrix(0.128, 0.019, -0.0157, 0.1454, 33.2, 7.05)" width="81.5" xlink:href="#sprite1"/>
    <use height="81.5" transform="matrix(0.1017, 0.0151, -0.0125, 0.1156, 7.55, 33.25)" width="81.5" xlink:href="#sprite1"/>
  </g>
  <defs>
    <g id="shape0" transform="matrix(1.0, 0.0, 0.0, 1.0, 1.0, 1.0)">
      <path d="M52.0 0.0 L52.0 52.0 0.0 52.0 0.0 0.0 52.0 0.0" fill="#795fa9" fill-opacity="0.0" fill-rule="evenodd" stroke="none"/>
      <path d="M14.2 10.75 L11.1 18.15 7.2 18.4 5.45 19.3 4.5 20.55 4.5 20.8 4.0 22.95 4.7 24.7 6.5 26.85 7.3 26.95 8.8 26.6 6.9 38.3 7.15 39.95 6.85 41.55 7.05 42.25 11.4 47.25 12.85 47.0 13.8 46.15 15.3 43.25 17.1 42.35 21.0 42.3 23.25 46.95 25.1 47.2 27.05 46.2 Q33.8 39.4 37.9 32.8 L40.1 29.2 40.15 29.1 42.25 24.9 42.3 24.85 44.6 25.35 45.35 25.15 47.45 23.45 48.0 21.7 46.2 17.55 45.2 16.55 44.15 16.4 44.15 16.45 43.0 16.3 40.25 10.2 Q38.0 7.15 34.3 5.7 L33.2 5.5 32.0 5.4 29.45 5.15 21.25 6.1 14.2 10.75 M28.0 24.7 L28.65 23.45 Q24.2 23.25 19.65 24.6 L19.45 24.85 18.95 25.65 18.65 27.05 21.8 24.75 24.05 26.9 24.65 26.85 27.2 24.3 28.0 24.7" fill="none" stroke="#000000" stroke-linecap="round" stroke-linejoin="round" stroke-opacity="0.3019608" stroke-width="1.0"/>
      <path d="M20.95 6.45 L20.85 6.35 21.25 6.1 20.95 6.45" fill="#d0c586" fill-rule="evenodd" stroke="none"/>
      <path d="M20.85 6.35 L20.95 6.45 17.05 10.35 14.2 10.75 20.85 6.35 M32.4 7.4 L33.15 5.55 37.2 7.6 36.6 7.8 35.1 8.3 32.4 7.4 M13.4 16.6 L15.05 19.0 Q12.6 22.1 12.45 25.1 L12.45 25.75 12.7 27.4 13.05 27.4 13.6 27.45 14.15 27.45 14.8 27.5 15.5 29.4 14.8 30.55 11.3 35.0 7.45 38.35 8.55 28.55 8.8 26.6 9.0 25.0 9.25 22.6 13.4 16.6 M27.05 46.2 L25.1 47.2 24.85 45.4 Q24.45 43.2 23.75 41.8 L22.85 40.75 24.2 39.7 Q23.9 41.0 24.8 43.6 26.0 46.05 27.05 46.2 M4.0 22.95 L4.5 20.8 5.85 19.6 6.0 20.55 4.0 22.95 M9.4 18.3 L11.1 18.15 10.35 20.05 7.1 19.85 9.4 18.3 M34.55 20.85 L35.85 19.0 33.85 24.95 34.95 26.65 36.9 28.0 34.95 27.25 33.5 25.6 28.75 32.8 32.15 24.1 34.55 20.85 M42.3 16.2 L43.0 16.4 44.35 16.75 42.95 17.7 40.6 17.55 42.3 16.2 M42.9 22.0 L43.0 22.75 43.15 24.0 41.25 23.05 42.9 22.0 M12.45 36.4 L10.35 41.55 Q10.0 41.9 10.5 42.8 L10.55 43.35 Q9.5 42.05 8.25 42.25 L9.95 40.75 12.45 36.4" fill="#f0f0d2" fill-rule="evenodd" stroke="none"/>
      <path d="M20.95 6.45 L21.25 6.1 29.45 5.15 32.0 5.4 33.15 5.55 32.4 7.4 26.1 14.2 21.05 17.6 17.9 18.25 15.2 18.3 14.3 16.45 17.4 10.5 20.95 6.45 M30.45 17.6 L30.45 17.15 22.75 17.4 26.45 14.35 32.95 9.7 35.1 8.3 36.6 7.8 37.95 9.3 37.45 12.7 34.55 20.85 32.15 24.1 27.4 25.75 27.4 25.7 27.8 25.05 28.0 24.7 28.65 23.45 30.0 20.2 30.1 19.7 30.35 18.7 30.4 18.05 30.45 17.6 M33.15 5.55 L33.2 5.5 34.3 5.7 Q38.0 7.15 40.25 10.2 L40.65 12.85 38.05 8.65 38.0 8.55 37.2 7.6 33.15 5.55 M6.85 41.55 L7.15 39.95 11.85 35.15 12.3 35.25 9.6 40.15 8.05 41.65 6.85 41.55 M5.55 25.85 L4.7 24.7 4.0 22.95 6.0 20.55 7.1 19.85 10.35 20.05 9.25 22.6 9.0 25.0 5.55 25.85 M4.5 20.8 L4.5 20.55 5.45 19.3 7.2 18.4 5.85 19.6 4.5 20.8 M37.5 18.75 L38.5 18.4 40.55 18.1 42.2 18.6 42.45 21.35 40.85 23.0 37.55 22.35 37.55 22.3 37.2 20.95 37.5 18.75 M16.6 27.45 L17.4 27.4 18.1 27.4 18.65 27.35 19.8 27.3 20.8 27.25 15.5 29.4 14.8 27.5 16.6 27.45" fill="#e6e4b3" fill-rule="evenodd" stroke="none"/>
      <path d="M14.2 10.75 L17.05 10.35 20.95 6.45 17.4 10.5 14.3 16.45 15.2 18.3 17.9 18.25 21.05 17.6 26.1 14.2 32.95 9.7 26.45 14.35 22.75 17.4 30.45 17.15 30.45 17.6 Q20.0 17.7 15.55 19.65 12.95 22.75 13.05 27.4 L12.7 27.4 12.45 25.75 12.45 25.1 Q12.6 22.1 15.05 19.0 L13.4 16.6 16.65 10.95 14.2 10.75 M7.05 42.25 L6.85 41.55 8.05 41.65 9.6 40.15 12.3 35.25 13.25 35.5 19.1 35.65 12.6 36.05 12.45 36.4 9.95 40.75 8.25 42.25 7.05 42.25 M7.15 39.95 L6.9 38.3 8.55 28.55 7.45 38.35 11.3 35.0 14.8 30.55 11.85 35.15 7.15 39.95 M36.6 7.8 L37.2 7.6 38.0 8.55 38.05 8.65 Q38.7 9.75 38.55 11.2 L38.05 12.8 35.9 18.9 35.85 19.0 34.55 20.85 37.45 12.7 37.95 9.3 36.6 7.8 M19.5 38.25 L22.3 40.8 22.05 40.8 20.4 41.05 19.5 38.25" fill="#ffffff" fill-rule="evenodd" stroke="none"/>
      <path d="M26.1 14.2 L32.4 7.4 35.1 8.3 32.95 9.7 26.1 14.2 M14.2 10.75 L16.65 10.95 13.4 16.6 9.25 22.6 10.35 20.05 11.1 18.15 14.2 10.75 M43.0 16.3 L44.15 16.45 44.15 16.4 45.2 16.55 46.2 17.55 44.35 16.75 43.0 16.4 43.0 16.3 M45.35 25.15 L44.6 25.35 42.3 24.85 42.25 24.85 38.65 24.1 38.05 23.65 37.55 22.4 37.55 22.35 40.85 23.0 42.45 21.35 42.2 18.6 40.55 18.1 38.5 18.4 37.5 18.75 37.55 18.55 38.5 17.5 39.7 17.1 40.15 16.95 41.1 16.6 39.3 13.9 40.15 16.95 39.7 17.1 38.05 12.8 38.55 11.2 38.7 12.05 41.25 16.55 41.1 16.6 41.25 16.55 42.3 16.2 40.6 17.55 42.95 17.7 42.9 19.85 42.9 22.0 41.25 23.05 43.15 24.0 45.35 25.15 M24.8 47.15 L23.25 46.95 21.0 42.3 20.4 41.05 22.05 40.8 21.5 41.5 Q21.45 42.95 23.55 45.85 L24.8 47.15 M17.1 42.35 L15.3 43.25 14.2 39.3 17.1 42.35 M13.8 46.15 L12.85 47.0 10.55 43.35 10.5 42.8 13.8 46.15 M8.8 26.6 L7.3 26.95 6.5 26.85 5.55 25.85 9.0 25.0 8.8 26.6 M7.2 18.4 L9.4 18.3 7.1 19.85 6.0 20.55 5.85 19.6 7.2 18.4 M27.4 25.75 L32.15 24.1 28.75 32.8 24.2 39.7 22.85 40.75 22.3 40.8 19.5 38.25 19.1 35.65 13.25 35.5 12.3 35.25 11.85 35.15 14.8 30.55 15.5 29.4 20.8 27.25 22.7 27.05 23.5 26.95 24.05 26.9 24.65 26.85 26.15 26.6 26.9 26.5 27.35 25.75 27.4 25.75 M18.3 23.1 L19.45 24.85 18.95 25.65 18.3 23.1" fill="#d5d580" fill-rule="evenodd" stroke="none"/>
      <path d="M33.15 5.55 L32.0 5.4 33.2 5.5 33.15 5.55 M37.55 22.35 L37.55 22.4 37.55 22.3 37.55 22.35" fill="#a89e64" fill-rule="evenodd" stroke="none"/>
      <path d="M15.55 19.65 Q20.0 17.7 30.45 17.6 L30.4 18.05 29.5 18.05 27.5 18.05 28.9 20.45 29.05 20.65 30.0 20.2 28.65 23.45 Q24.2 23.25 19.65 24.6 L19.45 24.85 18.3 23.1 17.8 22.35 21.1 19.95 20.7 19.2 19.8 19.4 19.65 19.45 17.9 19.8 16.0 20.2 15.55 19.65 M40.15 29.1 L40.1 29.2 36.9 28.0 34.95 26.65 33.85 24.95 35.85 19.0 35.9 18.9 38.05 12.8 39.7 17.1 38.5 17.5 37.55 18.55 37.5 18.75 37.2 20.95 37.55 22.3 37.5 22.35 38.0 23.7 40.15 29.1 M37.9 32.8 Q33.8 39.4 27.05 46.2 26.0 46.05 24.8 43.6 23.9 41.0 24.2 39.7 L28.75 32.8 33.5 25.6 34.95 27.25 37.9 32.8 M25.1 47.2 L24.8 47.15 23.55 45.85 Q21.45 42.95 21.5 41.5 L22.05 40.8 22.3 40.8 22.85 40.75 23.75 41.8 Q24.45 43.2 24.85 45.4 L25.1 47.2 M21.0 42.3 L17.1 42.35 14.2 39.3 12.6 36.05 19.1 35.65 19.5 38.25 20.4 41.05 21.0 42.3 M12.85 47.0 L11.4 47.25 7.05 42.25 8.25 42.25 Q9.5 42.05 10.55 43.35 L12.85 47.0 M38.55 11.2 Q38.7 9.75 38.05 8.65 L40.65 12.85 42.75 16.25 42.3 16.2 41.25 16.55 38.7 12.05 38.55 11.2 M40.15 16.95 L39.3 13.9 41.1 16.6 40.15 16.95 M42.95 17.7 L44.35 16.75 46.25 19.5 46.1 21.65 44.85 22.75 42.9 19.85 42.95 17.7 M23.0 22.0 L27.5 18.85 27.15 18.15 25.95 18.35 23.75 18.75 21.45 19.1 23.0 22.0" fill="#cac960" fill-rule="evenodd" stroke="none"/>
      <path d="M42.3 16.2 L42.75 16.25 43.0 16.3 43.0 16.4 42.3 16.2" fill="#a19860" fill-rule="evenodd" stroke="none"/>
      <path d="M13.05 27.4 Q12.95 22.75 15.55 19.65 L16.0 20.2 17.25 22.75 17.8 22.35 18.3 23.1 18.95 25.65 18.65 27.05 18.1 27.4 16.1 25.55 13.6 27.45 13.05 27.4 M40.25 10.2 L43.0 16.3 42.75 16.25 40.65 12.85 40.25 10.2 M46.2 17.55 L48.0 21.7 47.45 23.45 45.35 25.15 43.15 24.0 43.0 22.75 42.9 22.0 42.9 19.85 44.85 22.75 46.1 21.65 46.25 19.5 44.35 16.75 46.2 17.55 M42.25 24.9 L40.15 29.1 38.0 23.7 38.05 23.65 38.65 24.1 42.25 24.85 42.25 24.9 M40.1 29.2 L37.9 32.8 34.95 27.25 36.9 28.0 40.1 29.2 M15.3 43.25 L13.8 46.15 10.5 42.8 Q10.0 41.9 10.35 41.55 L12.45 36.4 12.6 36.05 14.2 39.3 15.3 43.25" fill="#a6a637" fill-rule="evenodd" stroke="none"/>
      <path d="M37.55 22.3 L37.55 22.4 37.5 22.35 37.55 22.3" fill="#5f5a3a" fill-rule="evenodd" stroke="none"/>
      <path d="M37.55 22.4 L38.05 23.65 38.0 23.7 37.5 22.35 37.55 22.4" fill="#443f2b" fill-rule="evenodd" stroke="none"/>
      <path d="M42.3 24.85 L42.25 24.9 42.25 24.85 42.3 24.85" fill="#544d34" fill-rule="evenodd" stroke="none"/>
      <path d="M30.4 18.05 L30.35 18.7 29.75 19.4 Q29.9 18.65 29.5 18.05 L30.4 18.05 M23.75 18.75 L25.95 18.35 24.05 20.7 Q24.45 19.2 23.75 18.75 M27.3 25.15 L27.4 25.7 27.35 25.75 26.9 26.5 26.15 26.6 27.3 25.15 M18.15 21.5 Q18.65 20.15 17.9 19.8 L19.65 19.45 18.15 21.5 M16.35 26.5 L16.6 27.45 14.8 27.5 14.15 27.45 Q16.0 27.2 16.35 26.5 M22.7 27.05 L20.8 27.25 19.8 27.3 Q21.65 26.7 22.05 25.4 L22.7 27.05" fill="#f4a33c" fill-rule="evenodd" stroke="none"/>
      <path d="M29.75 19.4 L30.35 18.7 30.1 19.7 29.05 20.65 28.9 20.45 29.75 19.4 M27.8 25.05 L27.4 25.7 27.3 25.15 27.2 24.3 27.8 25.05 M27.15 18.15 L23.0 22.0 24.05 20.7 25.95 18.35 27.15 18.15 M19.65 19.45 L19.8 19.4 20.7 19.2 17.25 22.75 18.15 21.5 19.65 19.45 M16.6 27.45 L16.35 26.5 16.1 25.55 17.4 27.4 16.6 27.45 M23.5 26.95 L22.7 27.05 22.05 25.4 21.8 24.75 23.5 26.95" fill="#ffff98" fill-rule="evenodd" stroke="none"/>
      <path d="M30.1 19.7 L30.0 20.2 29.05 20.65 30.1 19.7 M28.0 24.7 L27.8 25.05 27.2 24.3 28.0 24.7 M27.15 18.15 L27.5 18.85 23.0 22.0 27.15 18.15 M20.7 19.2 L21.1 19.95 17.8 22.35 17.25 22.75 20.7 19.2 M17.4 27.4 L16.1 25.55 18.1 27.4 17.4 27.4 M24.05 26.9 L23.5 26.95 21.8 24.75 24.05 26.9" fill="#cc6b22" fill-rule="evenodd" stroke="none"/>
      <path d="M29.5 18.05 Q29.9 18.65 29.75 19.4 L28.9 20.45 27.5 18.05 29.5 18.05 M23.0 22.0 L21.45 19.1 23.75 18.75 Q24.45 19.2 24.05 20.7 L23.0 22.0 M27.3 25.15 L26.15 26.6 24.65 26.85 27.2 24.3 27.3 25.15 M17.25 22.75 L16.0 20.2 17.9 19.8 Q18.65 20.15 18.15 21.5 L17.25 22.75 M16.1 25.55 L16.35 26.5 Q16.0 27.2 14.15 27.45 L13.6 27.45 16.1 25.55 M18.1 27.4 L18.65 27.05 21.8 24.75 22.05 25.4 Q21.65 26.7 19.8 27.3 L18.65 27.35 18.1 27.4" fill="#ffde4f" fill-rule="evenodd" stroke="none"/>
      <path d="M27.4 25.7 L27.4 25.75 27.35 25.75 27.4 25.7" fill="#bfb072" fill-rule="evenodd" stroke="none"/>
      <path d="M20.95 6.45 L21.25 6.1 20.85 6.35 14.2 10.75 11.1 18.15 9.4 18.3 7.2 18.4 5.45 19.3 4.5 20.55 4.5 20.8 4.0 22.95 4.7 24.7 5.55 25.85 6.5 26.85 7.3 26.95 8.8 26.6 9.0 25.0 9.25 22.6 10.35 20.05 11.1 18.15 M33.15 5.55 L32.0 5.4 29.45 5.15 21.25 6.1 M12.7 27.4 L13.05 27.4 Q12.95 22.75 15.55 19.65 20.0 17.7 30.45 17.6 L30.4 18.05 29.5 18.05 27.5 18.05 28.9 20.45 29.05 20.65 30.0 20.2 28.65 23.45 28.0 24.7 27.8 25.05 27.4 25.7 27.35 25.75 27.4 25.75 M33.2 5.5 L32.0 5.4 M33.2 5.5 L34.3 5.7 Q38.0 7.15 40.25 10.2 L43.0 16.3 44.15 16.45 M44.15 16.4 L45.2 16.55 46.2 17.55 48.0 21.7 47.45 23.45 45.35 25.15 44.6 25.35 42.3 24.85 42.25 24.9 40.15 29.1 40.1 29.2 37.9 32.8 Q33.8 39.4 27.05 46.2 L25.1 47.2 24.8 47.15 23.25 46.95 21.0 42.3 17.1 42.35 15.3 43.25 13.8 46.15 12.85 47.0 11.4 47.25 7.05 42.25 6.85 41.55 7.15 39.95 6.9 38.3 8.55 28.55 8.8 26.6 M41.1 16.6 L41.25 16.55 42.3 16.2 42.75 16.25 43.0 16.3 M39.7 17.1 L40.15 16.95 41.1 16.6 M39.7 17.1 L38.5 17.5 37.55 18.55 37.5 18.75 37.2 20.95 37.55 22.3 37.55 22.35 M37.55 22.4 L38.05 23.65 38.65 24.1 42.25 24.85 42.3 24.85 M37.55 22.4 L37.55 22.3 M42.25 24.85 L42.25 24.9 M30.35 18.7 L30.4 18.05 M30.35 18.7 L30.1 19.7 30.0 20.2 M23.0 22.0 L27.5 18.85 27.15 18.15 25.95 18.35 23.75 18.75 21.45 19.1 23.0 22.0 M26.15 26.6 L26.9 26.5 27.35 25.75 M27.2 24.3 L28.0 24.7 M20.7 19.2 L21.1 19.95 17.8 22.35 18.3 23.1 19.45 24.85 19.65 24.6 Q24.2 23.25 28.65 23.45 M19.8 19.4 L20.7 19.2 M17.25 22.75 L17.8 22.35 M16.0 20.2 L15.55 19.65 M16.0 20.2 L17.25 22.75 M17.9 19.8 L16.0 20.2 M16.6 27.45 L17.4 27.4 18.1 27.4 18.65 27.05 18.95 25.65 18.3 23.1 M14.15 27.45 L14.8 27.5 16.6 27.45 M19.8 27.3 L18.65 27.35 18.1 27.4 16.1 25.55 13.6 27.45 13.05 27.4 M14.15 27.45 L13.6 27.45 M24.05 26.9 L23.5 26.95 22.7 27.05 20.8 27.25 19.8 27.3 M24.65 26.85 L24.05 26.9 21.8 24.75 18.65 27.05 M18.95 25.65 L19.45 24.85 M17.9 19.8 L19.65 19.45 M19.1 35.65 L19.5 38.25 20.4 41.05 21.0 42.3 M26.15 26.6 L24.65 26.85 27.2 24.3" fill="none" stroke="#000000" stroke-linecap="round" stroke-linejoin="round" stroke-opacity="0.3019608" stroke-width="0.30000000000000004"/>
      <path d="M44.15 16.45 L44.15 16.4" fill="none" stroke="#ff0000" stroke-linecap="round" stroke-linejoin="round" stroke-width="0.05"/>
      <path d="M18.7 11.05 L18.85 11.05 Q19.7 11.1 20.2 11.75 L20.35 11.95 Q20.65 12.6 20.5 13.45 20.25 14.4 19.35 15.1 18.6 15.7 17.7 15.75 L17.5 15.75 Q16.55 15.75 16.0 15.05 L15.8 14.7 Q15.6 14.1 15.75 13.4 L16.05 12.65 16.85 11.75 Q17.75 11.05 18.7 11.05 M32.15 9.45 Q33.0 9.5 33.5 10.15 L33.65 10.35 Q34.0 10.95 33.8 11.8 33.55 12.75 32.7 13.45 31.9 14.05 31.0 14.1 L30.8 14.1 Q29.85 14.1 29.35 13.45 L29.1 13.1 Q28.9 12.5 29.05 11.8 L29.35 11.0 30.15 10.1 Q31.05 9.45 32.0 9.45 L32.15 9.45" fill="#a6a637" fill-rule="evenodd" stroke="none"/>
      <path d="M28.8 10.55 Q29.15 10.0 29.65 9.6 30.5 8.95 31.5 8.95 L31.65 8.95 Q31.9 9.5 31.7 10.25 L31.55 10.7 Q30.65 11.6 29.95 11.9 L29.05 12.1 Q28.45 11.95 28.8 10.55" fill="#a89e64" fill-rule="evenodd" stroke="none"/>
      <path d="M33.1 9.85 Q33.45 10.45 33.2 11.3 33.0 12.25 32.15 12.95 31.35 13.5 30.5 13.6 L30.3 13.65 Q29.35 13.6 28.8 12.95 L28.6 12.55 28.7 12.6 29.2 12.5 Q29.65 13.0 30.3 12.95 30.95 12.95 31.85 12.45 33.2 11.65 33.1 9.85" fill="#5f5a3a" fill-rule="evenodd" stroke="none"/>
      <path d="M31.65 8.95 Q32.45 8.95 32.95 9.6 L33.1 9.85 Q33.2 11.65 31.85 12.45 30.95 12.95 30.3 12.95 29.65 13.0 29.2 12.5 L30.05 12.25 30.55 11.9 31.55 10.7 31.7 10.25 Q31.9 9.5 31.65 8.95" fill="#3f3927" fill-rule="evenodd" stroke="none"/>
      <path d="M28.6 12.55 Q28.35 12.0 28.5 11.3 L28.8 10.55 Q28.45 11.95 29.05 12.1 L29.95 11.9 Q30.65 11.6 31.55 10.7 L30.55 11.9 30.05 12.25 29.2 12.5 28.7 12.6 28.6 12.55" fill="#d0c586" fill-rule="evenodd" stroke="none"/>
      <path d="M28.8 10.55 Q29.15 10.0 29.65 9.6 30.5 8.95 31.5 8.95 L31.65 8.95 Q32.45 8.95 32.95 9.6 L33.1 9.85 Q33.45 10.45 33.2 11.3 33.0 12.25 32.15 12.95 31.35 13.5 30.5 13.6 L30.3 13.65 Q29.35 13.6 28.8 12.95 L28.6 12.55 Q28.35 12.0 28.5 11.3 L28.8 10.55 Z" fill="none" stroke="#000000" stroke-linecap="round" stroke-linejoin="round" stroke-opacity="0.3019608" stroke-width="0.30000000000000004"/>
      <path d="M15.5 12.15 Q15.85 11.6 16.35 11.2 17.2 10.55 18.2 10.55 L18.35 10.55 Q18.6 11.1 18.4 11.85 L18.25 12.3 16.65 13.5 15.75 13.7 Q15.15 13.55 15.5 12.15" fill="#a89e64" fill-rule="evenodd" stroke="none"/>
      <path d="M19.8 11.45 Q20.15 12.05 19.9 12.9 19.7 13.85 18.85 14.55 L17.2 15.2 17.0 15.25 Q16.05 15.2 15.5 14.55 L15.3 14.15 15.4 14.2 15.9 14.1 Q16.35 14.6 17.0 14.55 L18.55 14.05 Q19.9 13.25 19.8 11.45" fill="#5f5a3a" fill-rule="evenodd" stroke="none"/>
      <path d="M18.35 10.55 Q19.15 10.55 19.65 11.2 L19.8 11.45 Q19.9 13.25 18.55 14.05 L17.0 14.55 Q16.35 14.6 15.9 14.1 L16.75 13.85 17.25 13.5 18.25 12.3 18.4 11.85 Q18.6 11.1 18.35 10.55" fill="#3f3927" fill-rule="evenodd" stroke="none"/>
      <path d="M15.3 14.15 Q15.05 13.6 15.2 12.9 L15.5 12.15 Q15.15 13.55 15.75 13.7 L16.65 13.5 18.25 12.3 17.25 13.5 16.75 13.85 15.9 14.1 15.4 14.2 15.3 14.15" fill="#d0c586" fill-rule="evenodd" stroke="none"/>
      <path d="M15.5 12.15 Q15.85 11.6 16.35 11.2 17.2 10.55 18.2 10.55 L18.35 10.55 Q19.15 10.55 19.65 11.2 L19.8 11.45 Q20.15 12.05 19.9 12.9 19.7 13.85 18.85 14.55 L17.2 15.2 17.0 15.25 Q16.05 15.2 15.5 14.55 L15.3 14.15 Q15.05 13.6 15.2 12.9 L15.5 12.15 Z" fill="none" stroke="#000000" stroke-linecap="round" stroke-linejoin="round" stroke-opacity="0.3019608" stroke-width="0.30000000000000004"/>
    </g>
    <g id="sprite1" transform="matrix(1.0, 0.0, 0.0, 1.0, 0.0, 0.0)">
      <use height="26.7" transform="matrix(0.0042, -1.3515, 1.3935, 0.02, 22.09, 56.0263)" width="26.7" xlink:href="#sprite2"/>
      <use height="26.7" transform="matrix(0.0095, -3.0486, 0.372, 0.0053, 36.507, 81.3775)" width="26.7" xlink:href="#sprite2"/>
      <use height="26.7" transform="matrix(3.0486, 0.0095, -0.0053, 0.372, 0.1225, 35.107)" width="26.7" xlink:href="#sprite2"/>
    </g>
    <g id="sprite2" transform="matrix(1.0, 0.0, 0.0, 1.0, 13.35, 13.35)">
      <use height="26.7" transform="matrix(1.0, 0.0, 0.0, 1.0, -13.35, -13.35)" width="26.7" xlink:href="#shape1"/>
    </g>
    <g id="shape1" transform="matrix(1.0, 0.0, 0.0, 1.0, 13.35, 13.35)">
      <path d="M9.3 -9.85 Q13.35 -5.8 13.35 0.0 13.35 5.8 9.3 9.3 5.8 13.35 0.0 13.35 -5.8 13.35 -9.85 9.3 -13.35 5.8 -13.35 0.0 -13.35 -5.8 -9.85 -9.85 -5.8 -13.35 0.0 -13.35 5.8 -13.35 9.3 -9.85" fill="url(#gradient0)" fill-rule="evenodd" stroke="none"/>
    </g>
    <radialGradient cx="0" cy="0" gradientTransform="matrix(0.0213, 0.0, 0.0, 0.0213, 0.0, 0.0)" gradientUnits="userSpaceOnUse" id="gradient0" r="819.2" spreadMethod="pad">
      <stop offset="0.19607843137254902" stop-color="#fee3bc" stop-opacity="0.41960785"/>
      <stop offset="0.5019607843137255" stop-color="#fee3bc" stop-opacity="0.06666667"/>
      <stop offset="0.7607843137254902" stop-color="#ffe3bd" stop-opacity="0.0"/>
    </radialGradient>
  </defs>
</svg>
