<?xml version="1.0" encoding="UTF-8" standalone="no"?>
<svg xmlns:xlink="http://www.w3.org/1999/xlink" height="52.0px" width="52.0px" xmlns="http://www.w3.org/2000/svg">
  <g transform="matrix(1.0, 0.0, 0.0, 1.0, 0.0, 0.0)">
    <use height="54.0" transform="matrix(1.0, 0.0, 0.0, 1.0, -1.0, -1.0)" width="54.0" xlink:href="#shape0"/>
    <use height="0.0" transform="matrix(0.1461, -0.0056, -0.0499, 0.1073, 26.05, 11.95)" width="0.0" xlink:href="#sprite0"/>
    <use height="0.0" transform="matrix(0.0647, -0.0025, -0.0856, 0.1609, 31.95, 31.8)" width="0.0" xlink:href="#sprite0"/>
    <use height="81.5" transform="matrix(0.1292, -0.0054, 0.0046, 0.1462, 33.0, 5.5)" width="81.5" xlink:href="#sprite1"/>
    <use height="81.5" transform="matrix(0.1292, -0.0054, 0.0046, 0.1462, 5.65, 32.9)" width="81.5" xlink:href="#sprite1"/>
  </g>
  <defs>
    <g id="shape0" transform="matrix(1.0, 0.0, 0.0, 1.0, 1.0, 1.0)">
      <path d="M52.0 0.0 L52.0 52.0 0.0 52.0 0.0 0.0 52.0 0.0" fill="#795fa9" fill-opacity="0.0" fill-rule="evenodd" stroke="none"/>
      <path d="M31.95 5.8 L29.45 5.6 21.2 6.5 14.2 11.2 11.1 18.6 7.2 18.85 5.45 19.7 4.5 21.0 4.5 21.2 4.0 23.35 4.7 25.15 6.5 27.3 7.25 27.4 8.8 27.05 6.9 38.75 7.15 40.4 6.8 42.0 7.05 42.7 10.45 46.6 11.4 47.7 12.8 47.45 13.75 46.6 15.3 43.7 17.1 42.8 21.0 42.75 23.25 47.4 25.1 47.65 27.05 46.65 27.1 46.6 31.35 42.0 34.15 38.6 37.85 33.25 40.05 29.6 40.1 29.55 42.25 25.35 42.3 25.3 44.6 25.75 45.35 25.6 47.45 23.9 48.0 22.1 46.2 18.0 45.2 16.95 44.15 16.8 44.1 16.85 43.0 16.7 40.25 10.65 Q38.0 7.6 34.3 6.1 L33.2 5.95 31.95 5.8 M24.05 27.35 L24.65 27.25 27.15 24.7 28.0 25.1 28.65 23.9 24.8 24.0 Q22.25 24.25 19.65 25.05 L19.45 25.3 18.9 26.05 Q18.7 26.65 18.65 27.5 L21.8 25.2 24.05 27.35" fill="none" stroke="#000000" stroke-linecap="round" stroke-linejoin="round" stroke-opacity="0.3019608" stroke-width="1.0"/>
      <path d="M20.85 6.75 L20.9 6.85 17.05 10.75 14.2 11.2 20.85 6.75 M13.4 17.05 L15.05 19.45 Q12.65 22.45 12.45 25.35 L11.7 24.05 Q11.05 22.7 10.65 21.0 L13.4 17.05 M32.95 10.15 L26.1 14.6 28.15 12.4 32.4 7.8 35.1 8.7 32.95 10.15 M33.15 6.0 L33.2 5.95 34.3 6.1 Q38.0 7.6 40.25 10.65 L40.65 13.25 38.05 9.05 38.0 8.95 37.2 8.0 33.15 6.0 M24.8 47.6 L23.25 47.4 21.0 42.75 20.4 41.5 22.05 41.25 21.5 41.95 Q21.45 43.4 23.55 46.3 L24.8 47.6 M6.8 42.0 L7.15 40.4 9.25 38.3 Q11.75 35.95 10.55 38.85 L9.55 40.6 8.05 42.1 6.8 42.0 M8.55 28.95 L8.8 27.05 8.9 26.15 13.35 32.8 11.3 35.45 7.4 38.75 8.55 28.95 M38.05 13.25 L38.45 11.85 38.55 11.6 38.65 12.45 41.2 17.0 41.1 17.05 39.3 14.3 40.1 17.4 39.7 17.55 38.05 13.25 M13.6 27.9 L14.15 27.9 14.8 27.9 15.5 29.85 15.35 30.1 13.6 27.9 M12.45 36.85 L10.3 42.0 9.9 41.2 12.45 36.85" fill="#77b35b" fill-rule="evenodd" stroke="none"/>
      <path d="M20.9 6.85 L20.85 6.75 21.2 6.5 20.9 6.85" fill="#d0c586" fill-rule="evenodd" stroke="none"/>
      <path d="M14.2 11.2 L17.05 10.75 20.9 6.85 19.75 8.2 17.4 10.95 14.3 16.9 15.2 18.75 17.85 18.7 21.05 18.05 24.25 15.9 26.1 14.6 32.95 10.15 26.4 14.75 22.85 17.7 22.75 17.8 22.9 17.8 25.25 17.55 Q27.9 17.4 30.45 17.55 L30.45 18.0 25.6 18.2 23.1 18.4 Q18.25 18.9 15.55 20.1 12.9 23.2 13.05 27.85 L12.7 27.85 12.45 26.2 12.45 25.5 12.45 25.35 Q12.65 22.45 15.05 19.45 L13.4 17.05 16.65 11.4 14.2 11.2 M43.0 16.7 L44.1 16.85 44.15 16.8 45.2 16.95 46.2 18.0 44.35 17.2 42.95 18.15 40.6 17.95 42.3 16.65 43.0 16.8 43.0 16.7 M27.05 46.65 L25.1 47.65 24.85 45.85 Q24.45 43.65 23.75 42.25 L22.85 41.2 23.5 40.7 24.2 40.1 Q24.05 40.7 24.2 41.6 L24.8 44.05 Q25.95 46.5 27.05 46.65 M13.75 46.6 L12.8 47.45 10.55 43.8 Q9.45 42.5 8.25 42.7 L7.05 42.7 6.8 42.0 8.05 42.1 9.55 40.6 10.55 38.85 Q11.75 35.95 9.25 38.3 L11.85 35.6 14.8 31.0 15.35 30.1 Q18.0 31.3 20.6 35.3 L21.05 36.05 Q18.8 32.9 15.5 31.3 L12.3 35.7 13.2 35.95 19.1 36.1 12.6 36.5 12.45 36.75 12.45 36.85 9.9 41.2 10.3 42.0 Q10.0 42.3 10.5 43.25 L13.75 46.6 M7.15 40.4 L6.9 38.75 8.55 28.95 7.4 38.75 11.3 35.45 13.35 32.8 14.8 31.0 11.85 35.6 9.25 38.3 7.15 40.4 M4.0 23.35 L4.5 21.2 5.85 20.05 6.0 21.0 4.0 23.35 M9.4 18.7 L11.1 18.6 10.35 20.45 7.1 20.3 9.4 18.7 M32.4 7.8 L33.15 6.0 37.2 8.0 38.0 8.95 38.05 9.05 Q38.7 10.15 38.55 11.6 L38.45 11.85 38.05 13.25 35.9 19.35 35.85 19.45 33.8 25.4 34.95 27.1 36.9 28.4 34.95 27.65 33.5 26.05 31.85 28.6 28.95 33.0 25.9 37.6 Q23.5 35.1 22.35 32.9 L21.65 31.45 Q24.3 36.05 25.8 35.55 27.15 34.7 29.85 30.5 31.95 27.2 32.55 24.7 L32.8 23.65 Q33.55 23.35 34.55 21.25 L37.45 13.1 37.95 9.7 36.6 8.25 35.1 8.7 32.4 7.8 M37.2 8.0 L36.6 8.25 37.2 8.0 M42.85 22.45 L43.0 23.2 43.15 24.45 41.2 23.5 42.85 22.45 M30.1 20.3 Q29.5 23.25 29.8 23.85 29.85 24.6 31.8 24.1 29.25 25.15 29.15 24.5 L29.4 23.3 27.8 26.05 27.4 26.2 27.4 26.15 27.75 25.5 28.0 25.15 28.0 25.1 28.65 23.9 29.8 21.25 30.0 20.65 30.1 20.3 M19.5 38.7 L22.3 41.25 22.05 41.25 20.4 41.5 19.5 38.7" fill="#d7f16b" fill-rule="evenodd" stroke="none"/>
      <path d="M20.9 6.85 L21.2 6.5 22.9 6.3 28.15 12.4 26.1 14.6 24.25 15.9 19.75 8.2 20.9 6.85 M5.55 26.25 L4.7 25.15 4.0 23.35 6.0 21.0 7.1 20.3 10.35 20.45 9.25 23.05 8.95 25.4 5.55 26.25 M4.5 21.2 L4.5 21.0 5.45 19.7 7.2 18.85 5.85 20.05 4.5 21.2 M21.65 31.45 L22.35 32.9 Q23.5 35.1 25.9 37.6 L24.2 40.1 23.5 40.7 21.05 36.05 20.6 35.3 Q18.0 31.3 15.35 30.1 L15.5 29.85 20.8 27.65 21.3 27.65 Q20.9 29.4 21.65 31.45 M37.5 19.2 L38.45 18.8 40.5 18.55 42.2 19.0 42.4 21.75 40.85 23.45 37.55 22.75 37.2 21.35 37.5 19.2" fill="#9ae17b" fill-rule="evenodd" stroke="none"/>
      <path d="M16.65 11.4 L13.4 17.05 10.65 21.0 9.25 23.05 10.35 20.45 11.1 18.6 14.2 11.2 16.65 11.4 M12.45 25.35 L12.45 25.5 12.45 26.2 12.7 27.85 13.05 27.85 13.6 27.9 15.35 30.1 14.8 31.0 13.35 32.8 8.9 26.15 8.8 27.05 7.25 27.4 6.5 27.3 5.55 26.25 8.95 25.4 9.25 23.05 10.65 21.0 Q11.05 22.7 11.7 24.05 L12.45 25.35 M30.45 18.0 L30.45 17.55 Q27.9 17.4 25.25 17.55 L22.9 17.8 22.85 17.7 26.4 14.75 32.95 10.15 35.1 8.7 36.6 8.25 37.95 9.7 37.45 13.1 34.55 21.25 Q33.55 23.35 32.8 23.65 L31.8 24.1 Q29.85 24.6 29.8 23.85 29.5 23.25 30.1 20.3 L30.1 20.25 30.1 20.15 30.35 19.15 30.4 18.5 30.45 18.0 M24.25 15.9 L21.05 18.05 17.85 18.7 15.2 18.75 14.3 16.9 17.4 10.95 19.75 8.2 24.25 15.9 M31.95 5.8 L33.15 6.0 32.4 7.8 28.15 12.4 22.9 6.3 29.45 5.6 31.95 5.8 M45.35 25.6 L44.6 25.75 42.3 25.3 42.25 25.3 38.65 24.55 38.05 24.1 37.55 22.8 37.55 22.75 40.85 23.45 42.4 21.75 42.2 19.0 40.5 18.55 38.45 18.8 37.5 19.2 37.55 19.0 38.45 17.95 39.7 17.55 40.1 17.4 41.1 17.05 41.2 17.0 42.3 16.65 40.6 17.95 38.45 18.8 40.6 17.95 42.95 18.15 42.9 20.3 42.85 22.45 41.2 23.5 40.85 23.45 41.2 23.5 43.15 24.45 45.35 25.6 M7.2 18.85 L9.4 18.7 7.1 20.3 6.0 21.0 5.85 20.05 7.2 18.85 M32.55 24.7 Q31.95 27.2 29.85 30.5 27.15 34.7 25.8 35.55 24.3 36.05 21.65 31.45 20.9 29.4 21.3 27.65 L22.65 27.5 23.5 27.4 24.05 27.35 24.65 27.25 25.8 27.1 26.15 27.05 26.65 27.0 26.85 26.95 27.35 26.2 27.4 26.2 27.8 26.05 32.55 24.7 M21.05 36.05 L23.5 40.7 22.85 41.2 22.3 41.25 19.5 38.7 19.1 36.1 13.2 35.95 12.3 35.7 15.5 31.3 Q18.8 32.9 21.05 36.05 M8.9 26.15 L8.95 25.4 8.9 26.15" fill="#75d74a" fill-rule="evenodd" stroke="none"/>
      <path d="M31.95 5.8 L33.2 5.95 33.15 6.0 31.95 5.8 M37.55 22.8 L37.55 22.75 37.55 22.8" fill="#a89e64" fill-rule="evenodd" stroke="none"/>
      <path d="M15.55 20.1 Q18.25 18.9 23.1 18.4 L25.6 18.2 30.45 18.0 30.4 18.5 29.5 18.5 27.5 18.45 28.9 20.9 29.0 21.1 30.0 20.65 29.8 21.25 28.65 23.9 24.8 24.0 Q22.25 24.25 19.65 25.05 L19.45 25.3 18.25 23.55 17.8 22.8 21.1 20.35 20.7 19.6 19.75 19.8 19.65 19.85 17.9 20.2 15.95 20.65 15.55 20.1 M40.1 29.55 L40.05 29.6 36.9 28.4 34.95 27.1 33.8 25.4 35.85 19.45 35.9 19.35 38.05 13.25 39.7 17.55 38.45 17.95 37.55 19.0 37.5 19.2 37.2 21.35 37.55 22.75 37.5 22.8 38.0 24.1 40.1 29.55 M25.1 47.65 L24.8 47.6 23.55 46.3 Q21.45 43.4 21.5 41.95 L22.05 41.25 22.3 41.25 22.85 41.2 23.75 42.25 Q24.45 43.65 24.85 45.85 L25.1 47.65 M17.1 42.8 L15.3 43.7 14.2 39.75 17.1 42.8 M12.8 47.45 L11.4 47.7 7.05 42.7 8.25 42.7 Q9.45 42.5 10.55 43.8 L12.8 47.45 M38.05 9.05 L40.65 13.25 42.75 16.7 42.3 16.65 41.2 17.0 38.65 12.45 38.55 11.6 Q38.7 10.15 38.05 9.05 M32.8 23.65 L32.55 24.7 27.8 26.05 29.4 23.3 29.15 24.5 Q29.25 25.15 31.8 24.1 L32.8 23.65 M44.35 17.2 L46.25 19.95 46.1 22.1 44.85 23.2 42.9 20.3 42.95 18.15 44.35 17.2 M27.15 18.6 L25.95 18.8 23.75 19.15 21.45 19.55 22.95 22.45 27.5 19.3 27.15 18.6 M19.8 27.75 L20.8 27.65 15.5 29.85 14.8 27.9 16.6 27.9 17.4 27.85 18.1 27.85 18.6 27.8 19.8 27.75" fill="#339328" fill-rule="evenodd" stroke="none"/>
      <path d="M13.05 27.85 Q12.9 23.2 15.55 20.1 L15.95 20.65 17.25 23.15 Q17.55 23.0 17.8 22.8 L18.25 23.55 18.9 26.05 Q18.7 26.65 18.65 27.5 L18.1 27.85 16.1 26.0 13.6 27.9 13.05 27.85 M40.25 10.65 L43.0 16.7 42.75 16.7 40.65 13.25 40.25 10.65 M46.2 18.0 L48.0 22.1 47.45 23.9 45.35 25.6 43.15 24.45 43.0 23.2 42.85 22.45 42.9 20.3 44.85 23.2 46.1 22.1 46.25 19.95 44.35 17.2 46.2 18.0 M42.25 25.35 L40.1 29.55 38.0 24.1 38.05 24.1 38.65 24.55 42.25 25.3 42.25 25.35 M37.85 33.25 L34.15 38.6 Q34.55 35.35 34.35 33.2 34.0 29.2 31.85 28.6 L33.5 26.05 34.95 27.65 37.85 33.25 M31.35 42.0 L27.05 46.65 Q25.95 46.5 24.8 44.05 L24.2 41.6 Q24.05 40.7 24.2 40.1 L25.9 37.6 28.95 33.0 Q27.75 38.3 28.6 40.5 29.3 42.35 31.35 42.0 M21.0 42.75 L17.1 42.8 14.2 39.75 12.6 36.5 19.1 36.1 19.5 38.7 20.4 41.5 21.0 42.75 M41.1 17.05 L40.1 17.4 39.3 14.3 41.1 17.05" fill="#246c41" fill-rule="evenodd" stroke="none"/>
      <path d="M42.3 16.65 L42.75 16.7 43.0 16.7 43.0 16.8 42.3 16.65" fill="#a19860" fill-rule="evenodd" stroke="none"/>
      <path d="M37.55 22.8 L37.5 22.8 37.55 22.75 37.55 22.8" fill="#5f5a3a" fill-rule="evenodd" stroke="none"/>
      <path d="M37.5 22.8 L37.55 22.8 38.05 24.1 38.0 24.1 37.5 22.8" fill="#443f2b" fill-rule="evenodd" stroke="none"/>
      <path d="M40.05 29.6 L37.85 33.25 34.95 27.65 36.9 28.4 40.05 29.6 M34.15 38.6 L31.35 42.0 Q29.3 42.35 28.6 40.5 27.75 38.3 28.95 33.0 L31.85 28.6 Q34.0 29.2 34.35 33.2 34.55 35.35 34.15 38.6 M15.3 43.7 L13.75 46.6 10.5 43.25 Q10.0 42.3 10.3 42.0 L12.45 36.85 12.45 36.75 12.6 36.5 14.2 39.75 15.3 43.7 M18.25 23.55 L19.45 25.3 18.9 26.05 18.25 23.55" fill="#1c5331" fill-rule="evenodd" stroke="none"/>
      <path d="M42.3 25.3 L42.25 25.35 42.25 25.3 42.3 25.3" fill="#544d34" fill-rule="evenodd" stroke="none"/>
      <path d="M30.4 18.5 L30.35 19.15 29.75 19.85 Q29.9 19.1 29.5 18.5 L30.4 18.5 M25.95 18.8 L24.05 21.1 Q24.45 19.65 23.75 19.15 L25.95 18.8 M22.65 27.5 L21.3 27.65 20.8 27.65 19.8 27.75 21.1 27.1 Q21.8 26.6 22.05 25.8 L22.65 27.5 M27.35 26.2 L26.85 26.95 26.65 27.0 26.15 27.05 27.3 25.6 27.4 26.15 27.35 26.2 M17.9 20.2 L19.65 19.85 18.15 21.95 Q18.65 20.55 17.9 20.2 M14.8 27.9 L14.15 27.9 Q15.95 27.65 16.35 26.95 L16.6 27.9 14.8 27.9" fill="#f4a33c" fill-rule="evenodd" stroke="none"/>
      <path d="M30.1 20.15 L30.1 20.25 30.1 20.3 30.0 20.65 29.0 21.1 30.1 20.15 M28.0 25.1 L28.0 25.15 27.75 25.5 27.15 24.7 28.0 25.1 M22.95 22.45 L27.15 18.6 27.5 19.3 22.95 22.45 M24.05 27.35 L23.5 27.4 21.8 25.2 24.05 27.35 M20.7 19.6 L21.1 20.35 17.8 22.8 Q17.55 23.0 17.25 23.15 L20.7 19.6 M17.4 27.85 L16.1 26.0 18.1 27.85 17.4 27.85" fill="#cc6b22" fill-rule="evenodd" stroke="none"/>
      <path d="M29.75 19.85 L30.35 19.15 30.1 20.15 29.0 21.1 28.9 20.9 29.75 19.85 M27.75 25.5 L27.4 26.15 27.3 25.6 27.15 24.7 27.75 25.5 M25.95 18.8 L27.15 18.6 22.95 22.45 24.05 21.1 25.95 18.8 M23.5 27.4 L22.65 27.5 22.05 25.8 21.8 25.2 23.5 27.4 M19.65 19.85 L19.75 19.8 20.7 19.6 17.25 23.15 18.15 21.95 19.65 19.85 M16.35 26.95 L16.1 26.0 17.4 27.85 16.6 27.9 16.35 26.95" fill="#ffff98" fill-rule="evenodd" stroke="none"/>
      <path d="M29.5 18.5 Q29.9 19.1 29.75 19.85 L28.9 20.9 27.5 18.45 29.5 18.5 M24.05 21.1 L22.95 22.45 21.45 19.55 23.75 19.15 Q24.45 19.65 24.05 21.1 M26.15 27.05 L25.8 27.1 24.65 27.25 27.15 24.7 27.3 25.6 26.15 27.05 M21.8 25.2 L22.05 25.8 Q21.8 26.6 21.1 27.1 L19.8 27.75 18.6 27.8 18.1 27.85 18.65 27.5 21.8 25.2 M15.95 20.65 L17.9 20.2 Q18.65 20.55 18.15 21.95 L17.25 23.15 15.95 20.65 M14.15 27.9 L13.6 27.9 16.1 26.0 16.35 26.95 Q15.95 27.65 14.15 27.9" fill="#ffde4f" fill-rule="evenodd" stroke="none"/>
      <path d="M22.9 17.8 L22.75 17.8 22.85 17.7 22.9 17.8 M27.4 26.15 L27.4 26.2 27.35 26.2 27.4 26.15" fill="#bfb072" fill-rule="evenodd" stroke="none"/>
      <path d="M20.85 6.75 L14.2 11.2 17.05 10.75 20.9 6.85 21.2 6.5 20.85 6.75 M16.65 11.4 L13.4 17.05 15.05 19.45 M12.7 27.85 L13.05 27.85 Q12.9 23.2 15.55 20.1 18.25 18.9 23.1 18.4 L25.6 18.2 30.45 18.0 30.4 18.5 29.5 18.5 27.5 18.45 28.9 20.9 29.0 21.1 30.0 20.65 29.8 21.25 28.65 23.9 28.0 25.1 28.0 25.15 27.75 25.5 27.4 26.15 27.35 26.2 27.4 26.2 M32.95 10.15 L26.1 14.6 24.25 15.9 21.05 18.05 M33.2 5.95 L31.95 5.8 33.15 6.0 37.2 8.0 38.0 8.95 38.05 9.05 40.65 13.25 40.25 10.65 43.0 16.7 44.1 16.85 M33.2 5.95 L34.3 6.1 Q38.0 7.6 40.25 10.65 M44.15 16.8 L45.2 16.95 46.2 18.0 48.0 22.1 47.45 23.9 45.35 25.6 44.6 25.75 42.3 25.3 42.25 25.35 40.1 29.55 40.05 29.6 37.85 33.25 34.15 38.6 31.35 42.0 27.05 46.65 25.1 47.65 24.8 47.6 23.25 47.4 21.0 42.75 17.1 42.8 15.3 43.7 13.75 46.6 12.8 47.45 11.4 47.7 7.05 42.7 6.8 42.0 7.15 40.4 6.9 38.75 8.55 28.95 8.8 27.05 7.25 27.4 6.5 27.3 5.55 26.25 4.7 25.15 4.0 23.35 4.5 21.2 4.5 21.0 5.45 19.7 7.2 18.85 9.4 18.7 11.1 18.6 14.2 11.2 M32.4 7.8 L33.15 6.0 M31.95 5.8 L29.45 5.6 22.9 6.3 21.2 6.5 M28.15 12.4 L32.4 7.8 35.1 8.7 36.6 8.25 37.2 8.0 M28.15 12.4 L26.1 14.6 M25.9 37.6 L28.95 33.0 31.85 28.6 33.5 26.05 34.95 27.65 36.9 28.4 40.05 29.6 M33.8 25.4 L35.85 19.45 35.9 19.35 38.05 13.25 M38.55 11.6 Q38.7 10.15 38.05 9.05 M41.1 17.05 L41.2 17.0 42.3 16.65 42.75 16.7 40.65 13.25 M40.1 17.4 L41.1 17.05 39.3 14.3 40.1 17.4 39.7 17.55 38.45 17.95 37.55 19.0 37.5 19.2 38.45 18.8 40.6 17.95 42.3 16.65 M43.0 16.7 L42.75 16.7 M35.1 8.7 L32.95 10.15 M44.35 17.2 L42.95 18.15 42.9 20.3 42.85 22.45 43.0 23.2 43.15 24.45 45.35 25.6 M40.85 23.45 L41.2 23.5 42.85 22.45 M43.15 24.45 L41.2 23.5 M40.6 17.95 L42.95 18.15 M37.55 22.8 L37.55 22.75 37.2 21.35 37.5 19.2 M38.05 24.1 L37.55 22.8 M38.05 24.1 L38.65 24.55 42.25 25.3 42.3 25.3 M42.25 25.3 L42.25 25.35 M37.55 22.75 L40.85 23.45 M34.95 27.65 L37.85 33.25 M30.35 19.15 L30.4 18.5 M30.35 19.15 L30.1 20.15 30.1 20.25 30.1 20.3 30.0 20.65 M27.15 18.6 L25.95 18.8 23.75 19.15 21.45 19.55 22.95 22.45 27.5 19.3 27.15 18.6 M26.15 27.05 L25.8 27.1 24.65 27.25 24.05 27.35 23.5 27.4 22.65 27.5 21.3 27.65 20.8 27.65 19.8 27.75 18.6 27.8 18.1 27.85 17.4 27.85 16.6 27.9 14.8 27.9 14.15 27.9 13.6 27.9 13.05 27.85 M26.15 27.05 L26.65 27.0 26.85 26.95 27.35 26.2 M21.8 25.2 L24.05 27.35 M21.8 25.2 L18.65 27.5 18.1 27.85 16.1 26.0 13.6 27.9 M19.45 25.3 L19.65 25.05 Q22.25 24.25 24.8 24.0 L28.65 23.9 M27.15 24.7 L28.0 25.1 M24.65 27.25 L27.15 24.7 M19.75 19.8 L20.7 19.6 21.1 20.35 17.8 22.8 18.25 23.55 19.45 25.3 18.9 26.05 Q18.7 26.65 18.65 27.5 M15.95 20.65 L17.9 20.2 19.65 19.85 M15.95 20.65 L15.55 20.1 M17.8 22.8 Q17.55 23.0 17.25 23.15 L15.95 20.65 M10.35 20.45 L11.1 18.6 M5.55 26.25 L8.95 25.4 9.25 23.05 10.35 20.45 7.1 20.3 6.0 21.0 4.0 23.35 M10.65 21.0 L9.25 23.05 M15.35 30.1 L15.5 29.85 14.8 27.9 M15.5 29.85 L20.8 27.65 M18.9 26.05 L18.25 23.55 M14.8 31.0 L15.35 30.1 M24.2 40.1 L25.9 37.6 M19.1 36.1 L19.5 38.7 20.4 41.5 21.0 42.75 M9.25 38.3 L11.85 35.6 14.8 31.0 M8.9 26.15 L8.8 27.05 M10.5 43.25 L13.75 46.6 M12.6 36.5 L12.45 36.75 M12.6 36.5 L14.2 39.75 17.1 42.8 M19.1 36.1 L12.6 36.5 M14.2 39.75 L15.3 43.7 M24.2 40.1 Q24.05 40.7 24.2 41.6 L24.8 44.05 Q25.95 46.5 27.05 46.65 M5.85 20.05 L4.5 21.2 M7.2 18.85 L5.85 20.05 M8.95 25.4 L8.9 26.15 M7.1 20.3 L9.4 18.7 M7.15 40.4 L9.25 38.3 M13.4 17.05 L10.65 21.0 M44.35 17.2 L46.2 18.0" fill="none" stroke="#000000" stroke-linecap="round" stroke-linejoin="round" stroke-opacity="0.3019608" stroke-width="0.30000000000000004"/>
      <path d="M44.1 16.85 L44.15 16.8" fill="none" stroke="#ff0000" stroke-linecap="round" stroke-linejoin="round" stroke-width="0.05"/>
      <path d="M20.3 12.35 Q20.65 12.95 20.45 13.8 20.2 14.75 19.35 15.45 18.55 16.05 17.7 16.15 L17.5 16.15 Q16.5 16.15 16.0 15.45 L15.8 15.1 Q15.55 14.5 15.7 13.8 L16.0 13.0 16.8 12.1 Q17.7 11.45 18.65 11.45 L18.85 11.45 Q19.7 11.5 20.15 12.15 L20.3 12.35 M32.15 9.8 Q33.0 9.85 33.45 10.5 L33.6 10.7 Q33.95 11.35 33.75 12.2 33.5 13.15 32.65 13.8 31.85 14.45 31.0 14.5 L30.8 14.5 Q29.8 14.5 29.3 13.8 L29.1 13.45 Q28.85 12.85 29.0 12.15 L29.3 11.4 30.15 10.45 Q31.0 9.8 31.95 9.8 L32.15 9.8" fill="#246c41" fill-rule="evenodd" stroke="none"/>
      <path d="M18.25 12.7 L18.4 12.25 Q18.6 11.55 18.35 11.0 19.2 11.05 19.7 11.7 L19.85 11.9 Q19.9 13.75 18.6 14.55 17.7 15.05 17.0 15.05 16.4 15.05 15.95 14.6 L16.8 14.3 17.3 13.95 18.25 12.7 M31.65 9.35 Q32.5 9.4 33.0 10.05 L33.15 10.25 Q33.2 12.1 31.9 12.9 31.0 13.4 30.3 13.4 29.7 13.4 29.3 12.95 L30.1 12.65 30.6 12.3 Q31.25 11.8 31.55 11.1 L31.7 10.65 Q31.9 9.95 31.65 9.35" fill="#cc6b22" fill-rule="evenodd" stroke="none"/>
      <path d="M15.95 14.6 Q16.4 15.05 17.0 15.05 17.7 15.05 18.6 14.55 19.9 13.75 19.85 11.9 20.15 12.5 20.0 13.35 19.75 14.3 18.85 15.0 18.1 15.6 17.2 15.65 L17.0 15.65 Q16.05 15.65 15.5 15.0 L15.3 14.6 15.45 14.65 15.95 14.6 M33.15 10.25 Q33.5 10.9 33.3 11.7 33.05 12.7 32.2 13.35 31.4 14.0 30.5 14.05 L30.3 14.05 Q29.35 14.05 28.85 13.35 L28.6 13.0 28.75 13.0 29.3 12.95 Q29.7 13.4 30.3 13.4 31.0 13.4 31.9 12.9 33.2 12.1 33.15 10.25" fill="#f4a33c" fill-rule="evenodd" stroke="none"/>
      <path d="M18.35 11.0 Q18.6 11.55 18.4 12.25 L18.25 12.7 16.65 13.95 15.8 14.1 Q15.2 14.0 15.55 12.55 L16.35 11.65 Q17.25 11.0 18.2 11.0 L18.35 11.0 M28.85 10.95 L29.65 10.0 Q30.55 9.35 31.5 9.35 L31.65 9.35 Q31.9 9.95 31.7 10.65 L31.55 11.1 30.0 12.35 29.1 12.5 Q28.5 12.35 28.85 10.95" fill="#ffde4f" fill-rule="evenodd" stroke="none"/>
      <path d="M15.55 12.55 Q15.2 14.0 15.8 14.1 L16.65 13.95 18.25 12.7 17.3 13.95 16.8 14.3 15.95 14.6 15.45 14.65 15.3 14.6 Q15.1 14.05 15.25 13.3 L15.55 12.55 M28.6 13.0 Q28.4 12.4 28.55 11.7 L28.85 10.95 Q28.5 12.35 29.1 12.5 L30.0 12.35 31.55 11.1 Q31.25 11.8 30.6 12.3 L30.1 12.65 29.3 12.95 28.75 13.0 28.6 13.0" fill="#ffff98" fill-rule="evenodd" stroke="none"/>
      <path d="M18.35 11.0 L18.2 11.0 Q17.25 11.0 16.35 11.65 L15.55 12.55 15.25 13.3 Q15.1 14.05 15.3 14.6 L15.5 15.0 Q16.05 15.65 17.0 15.65 L17.2 15.65 Q18.1 15.6 18.85 15.0 19.75 14.3 20.0 13.35 20.15 12.5 19.85 11.9 L19.7 11.7 Q19.2 11.05 18.35 11.0 M28.85 10.95 L29.65 10.0 Q30.55 9.35 31.5 9.35 L31.65 9.35 Q32.5 9.4 33.0 10.05 L33.15 10.25 Q33.5 10.9 33.3 11.7 33.05 12.7 32.2 13.35 31.4 14.0 30.5 14.05 L30.3 14.05 Q29.35 14.05 28.85 13.35 L28.6 13.0 Q28.4 12.4 28.55 11.7 L28.85 10.95" fill="none" stroke="#000000" stroke-linecap="round" stroke-linejoin="round" stroke-opacity="0.3019608" stroke-width="0.30000000000000004"/>
    </g>
    <g id="sprite1" transform="matrix(1.0, 0.0, 0.0, 1.0, 0.0, 0.0)">
      <use height="26.7" transform="matrix(0.0042, -1.3515, 1.3935, 0.02, 22.09, 56.0263)" width="26.7" xlink:href="#sprite2"/>
      <use height="26.7" transform="matrix(0.0095, -3.0486, 0.372, 0.0053, 36.507, 81.3775)" width="26.7" xlink:href="#sprite2"/>
      <use height="26.7" transform="matrix(3.0486, 0.0095, -0.0053, 0.372, 0.1225, 35.107)" width="26.7" xlink:href="#sprite2"/>
    </g>
    <g id="sprite2" transform="matrix(1.0, 0.0, 0.0, 1.0, 13.35, 13.35)">
      <use height="26.7" transform="matrix(1.0, 0.0, 0.0, 1.0, -13.35, -13.35)" width="26.7" xlink:href="#shape1"/>
    </g>
    <g id="shape1" transform="matrix(1.0, 0.0, 0.0, 1.0, 13.35, 13.35)">
      <path d="M9.3 -9.85 Q13.35 -5.8 13.35 0.0 13.35 5.8 9.3 9.3 5.8 13.35 0.0 13.35 -5.8 13.35 -9.85 9.3 -13.35 5.8 -13.35 0.0 -13.35 -5.8 -9.85 -9.85 -5.8 -13.35 0.0 -13.35 5.8 -13.35 9.3 -9.85" fill="url(#gradient0)" fill-rule="evenodd" stroke="none"/>
    </g>
    <radialGradient cx="0" cy="0" gradientTransform="matrix(0.0213, 0.0, 0.0, 0.0213, 0.0, 0.0)" gradientUnits="userSpaceOnUse" id="gradient0" r="819.2" spreadMethod="pad">
      <stop offset="0.19607843137254902" stop-color="#fee3bc" stop-opacity="0.41960785"/>
      <stop offset="0.5019607843137255" stop-color="#fee3bc" stop-opacity="0.06666667"/>
      <stop offset="0.7607843137254902" stop-color="#ffe3bd" stop-opacity="0.0"/>
    </radialGradient>
  </defs>
</svg>
