<?xml version="1.0" encoding="UTF-8" standalone="no"?>
<svg xmlns:xlink="http://www.w3.org/1999/xlink" height="52.0px" width="52.0px" xmlns="http://www.w3.org/2000/svg">
  <g transform="matrix(1.0, 0.0, 0.0, 1.0, 0.0, 0.0)">
    <use height="54.0" transform="matrix(1.0, 0.0, 0.0, 1.0, -1.0, -1.0)" width="54.0" xlink:href="#shape0"/>
    <use height="0.0" transform="matrix(0.0672, 0.013, -0.0433, 0.1213, 37.6, 29.75)" width="0.0" xlink:href="#sprite0"/>
    <use height="0.0" transform="matrix(0.0398, 0.0632, -0.1063, 0.0504, 19.65, 15.9)" width="0.0" xlink:href="#sprite0"/>
    <use height="0.0" transform="matrix(-0.0241, 0.0605, -0.1239, -0.1071, 17.65, 34.0)" width="0.0" xlink:href="#sprite0"/>
    <use height="81.5" transform="matrix(0.136, 0.0202, -0.0167, 0.1544, 34.3, 20.05)" width="81.5" xlink:href="#sprite1"/>
    <use height="81.5" transform="matrix(0.136, 0.0202, -0.0167, 0.1544, 21.6, 11.85)" width="81.5" xlink:href="#sprite1"/>
    <use height="81.5" transform="matrix(0.136, 0.0202, -0.0167, 0.1544, 13.15, 27.35)" width="81.5" xlink:href="#sprite1"/>
    <use height="4.55" transform="matrix(1.0, 0.0, 0.0, 1.0, 38.8, 15.45)" width="4.6" xlink:href="#shape2"/>
    <use height="81.5" transform="matrix(0.0515, 0.0076, -0.0063, 0.0585, 38.35, 13.95)" width="81.5" xlink:href="#sprite1"/>
    <use height="81.5" transform="matrix(0.0515, 0.0076, -0.0063, 0.0585, 16.7, 6.15)" width="81.5" xlink:href="#sprite1"/>
  </g>
  <defs>
    <g id="shape0" transform="matrix(1.0, 0.0, 0.0, 1.0, 1.0, 1.0)">
      <path d="M52.0 0.0 L52.0 52.0 0.0 52.0 0.0 0.0 52.0 0.0" fill="#795fa9" fill-opacity="0.0" fill-rule="evenodd" stroke="none"/>
      <path d="M42.2 19.05 Q41.65 19.6 40.95 19.55 L40.5 19.0 40.05 18.4 40.1 18.15 Q40.15 17.45 40.65 17.0 41.2 16.55 41.85 16.65 L42.25 16.8 42.6 17.0 42.85 17.3 43.0 17.5 Q42.9 18.3 42.4 18.85 L42.2 19.05 M46.95 17.3 L47.35 19.65 47.35 19.8 47.3 20.65 47.15 21.65 Q46.75 23.2 45.6 24.25 44.95 24.85 44.2 25.15 L43.35 25.4 43.55 27.35 43.5 28.85 43.25 30.6 42.55 32.95 Q41.45 35.9 39.1 38.15 L36.2 40.3 35.9 40.5 35.8 40.55 35.9 41.25 35.95 42.15 Q35.95 44.05 34.95 45.85 32.95 44.9 31.5 42.3 L29.3 42.75 26.45 42.6 26.3 43.2 25.85 44.45 Q24.8 46.9 22.85 48.1 L22.7 47.9 Q21.3 45.7 21.3 42.2 L21.35 41.45 21.95 41.55 17.95 40.45 17.5 40.25 16.95 40.05 16.7 40.35 15.95 41.25 Q14.25 42.95 11.85 43.7 11.05 41.15 12.05 37.8 L12.15 37.4 12.25 37.05 11.15 35.9 10.3 34.9 9.9 34.35 8.6 32.2 8.35 32.15 7.55 31.95 7.25 31.85 6.95 31.75 Q5.7 31.15 4.65 29.95 5.15 29.15 5.8 28.6 L6.65 27.95 7.2 27.65 Q6.85 25.3 7.35 22.8 L7.45 22.3 Q7.75 21.05 8.2 19.95 9.25 17.35 11.25 15.35 12.5 14.05 14.15 13.05 L14.6 12.75 Q14.2 12.05 14.1 11.15 13.9 9.7 14.35 7.75 14.8 6.1 16.2 5.05 17.6 4.0 19.3 4.1 L19.9 4.15 20.1 4.15 21.05 4.45 Q21.9 4.75 22.55 5.4 24.0 6.6 24.75 7.9 L25.2 8.85 25.6 10.7 26.25 10.8 28.5 11.35 29.9 11.9 29.95 11.9 30.2 12.0 32.3 12.9 36.55 15.3 Q37.0 13.95 38.0 13.0 39.55 11.6 41.5 11.9 43.05 12.15 44.1 13.25 45.65 14.6 46.45 16.15 L46.55 16.35 46.95 17.3 M18.1 9.8 Q18.2 9.35 18.45 9.05 L18.75 8.75 Q19.35 8.35 20.0 8.5 L20.75 8.8 21.05 9.1 21.2 9.25 21.15 9.25 21.05 9.65 Q20.85 10.25 20.35 10.65 L19.9 10.75 19.65 10.8 18.45 11.1 18.35 11.05 18.1 10.5 18.05 10.25 18.1 9.85 18.1 9.8 M19.8 22.6 L18.7 22.95 18.05 22.85 17.25 24.95 17.1 25.55 16.9 27.35 17.15 27.4 17.9 28.15 18.3 30.55 18.3 32.05 Q19.5 30.5 20.9 29.5 L22.6 29.75 23.35 30.4 24.1 34.1 Q25.25 31.9 26.85 30.9 L28.55 31.15 29.55 31.9 29.95 33.8 30.75 33.2 31.5 32.45 32.8 30.75 33.85 27.9 Q34.25 25.75 33.75 23.75 L33.6 23.2 32.55 24.45 31.55 25.3 30.1 25.45 28.4 24.7 Q27.8 22.45 27.8 20.35 L26.95 21.95 25.3 23.75 23.6 23.9 22.1 23.35 Q21.25 22.15 21.1 20.3 L20.5 21.5 19.8 22.6 M32.9 21.7 L33.0 21.85 33.2 22.25 33.05 22.0 33.0 21.85 M29.95 33.8 L29.8 33.9 29.95 33.8 M23.55 35.9 L23.75 35.9 24.45 35.85 24.8 35.8 23.85 35.9 23.55 35.9" fill="none" stroke="#000000" stroke-linecap="round" stroke-linejoin="round" stroke-opacity="0.3019608" stroke-width="1.0"/>
      <path d="M18.45 11.1 L18.4 11.1 18.35 11.05 18.45 11.1 M16.95 7.15 L17.0 7.2 16.95 7.15" fill="#75d74a" fill-rule="evenodd" stroke="none"/>
      <path d="M45.8 18.0 L45.85 18.05 45.8 18.05 45.8 18.0 M40.4 19.5 L40.15 18.9 40.15 18.85 40.7 19.55 40.65 19.55 40.4 19.5 M29.3 42.75 L28.6 42.7 28.6 42.65 29.3 42.75 M18.1 9.85 L18.1 9.8 18.1 9.85 M17.2 33.6 L17.3 33.75 17.15 33.65 17.2 33.6" fill="#339328" fill-rule="evenodd" stroke="none"/>
      <path d="M40.05 18.55 L40.05 18.4 40.5 19.0 40.95 19.6 40.7 19.55 40.15 18.85 40.05 18.55 M30.0 11.95 L30.2 12.0 30.2 12.05 30.0 11.95 M24.35 15.95 L24.55 15.95 24.35 15.95 M21.35 16.65 L21.35 16.7 21.3 16.7 21.3 16.65 21.35 16.65 M17.3 33.35 L17.35 33.35 17.35 33.4 17.3 33.45 17.35 33.4 17.35 33.35 17.35 33.4 17.3 33.45 17.3 33.4 17.3 33.35" fill="#d7f16b" fill-rule="evenodd" stroke="none"/>
      <path d="M18.05 22.85 L18.0 22.85 18.05 22.85 M21.35 16.7 L21.35 16.65 21.35 16.7 M28.45 17.25 L28.4 17.25 28.25 17.25 28.3 17.2 28.4 17.25 28.45 17.25 M29.05 34.35 L29.1 34.35 29.05 34.35" fill="#246c41" fill-rule="evenodd" stroke="none"/>
      <path d="M40.65 19.55 L40.7 19.55 40.65 19.55 M19.25 6.8 L19.2 6.8 19.25 6.8" fill="#9ae17b" fill-rule="evenodd" stroke="none"/>
      <path d="M28.8 17.4 L28.6 17.3 28.5 17.3 28.45 17.25 28.4 17.25 28.45 17.2 28.6 17.3 28.8 17.4" fill="#1c5331" fill-rule="evenodd" stroke="none"/>
      <path d="M25.9 41.1 L25.9 41.15 25.6 41.2 25.9 41.1" fill="#ecf49b" fill-rule="evenodd" stroke="none"/>
      <path d="M45.35 15.0 L45.6 15.8 Q45.9 16.85 45.8 18.0 L45.8 18.05 45.85 18.05 46.15 18.4 Q46.7 19.25 47.1 21.3 46.5 19.6 46.05 19.2 45.85 19.0 45.65 19.05 45.3 20.55 44.25 21.55 L44.1 21.7 42.6 22.65 41.7 22.85 40.6 22.8 40.05 22.7 39.9 22.0 41.15 22.35 42.4 22.2 Q43.15 21.95 43.8 21.3 43.05 21.0 42.5 19.2 43.3 20.75 44.25 20.85 L45.0 19.7 Q46.05 16.7 44.7 14.65 44.1 13.8 43.4 13.3 42.65 13.2 42.3 15.0 42.3 13.6 42.9 12.95 42.0 12.45 40.9 12.35 L40.6 12.35 Q37.8 12.7 36.85 15.5 L36.7 15.95 36.6 16.15 36.4 15.95 36.45 15.8 36.6 15.3 36.45 15.8 34.45 14.75 Q33.4 13.85 32.2 13.1 L32.05 13.0 31.85 12.9 30.2 12.05 30.2 12.0 32.3 12.9 Q34.85 14.05 36.6 15.3 37.0 13.95 38.0 13.0 39.55 11.6 41.5 11.9 43.05 12.15 44.1 13.25 L44.75 14.0 45.35 15.0 M42.3 15.45 L42.55 15.75 42.8 16.15 Q42.25 15.4 41.4 15.25 L40.85 15.25 Q40.3 15.35 39.85 15.75 L39.45 16.2 39.05 17.3 39.05 17.35 39.05 17.75 39.3 18.65 Q38.9 18.15 38.85 17.55 L38.8 17.1 38.85 16.9 Q38.95 15.9 39.65 15.3 40.05 14.95 40.55 14.85 L41.15 14.85 42.3 15.45 M36.25 16.6 L36.9 17.4 37.9 18.85 Q39.0 20.7 39.5 22.65 L39.85 24.5 39.95 25.1 Q42.15 26.35 43.15 28.35 41.45 26.4 40.0 25.9 L39.65 29.05 39.55 29.5 38.55 32.35 Q37.6 34.35 36.0 36.0 L35.65 36.4 33.6 38.05 32.6 38.75 Q30.45 40.05 28.05 40.7 L25.9 41.15 25.9 41.1 28.0 40.5 Q31.1 39.45 33.4 37.7 31.7 35.7 31.05 34.05 L30.95 33.8 33.85 36.8 35.45 35.65 35.5 35.6 36.5 34.45 37.8 32.25 38.55 30.05 38.6 29.8 39.1 27.45 39.15 27.15 Q39.85 22.3 36.25 16.6 M22.85 48.1 L22.7 47.9 24.35 43.85 24.4 43.65 24.45 43.5 Q24.35 42.95 23.15 42.4 23.9 42.6 24.6 43.15 L24.8 42.35 24.9 41.9 24.9 41.7 25.35 41.6 25.25 42.0 25.15 42.5 25.05 42.95 24.95 43.45 Q24.1 46.45 22.85 48.1 M12.1 43.6 L11.85 43.7 14.0 41.1 14.1 40.95 Q14.3 40.2 13.15 39.05 L14.7 40.3 15.35 39.25 15.6 39.45 14.85 40.7 Q13.75 42.35 12.1 43.6 M14.6 12.75 L14.1 11.15 Q13.9 9.7 14.35 7.75 14.8 6.1 16.2 5.05 17.6 4.0 19.3 4.1 L19.9 4.15 20.1 4.15 21.05 4.45 Q21.9 4.75 22.55 5.4 L23.15 6.1 23.7 7.0 24.0 7.8 24.15 8.55 24.7 9.45 25.15 10.6 24.9 10.6 24.65 10.2 24.15 9.75 24.1 9.85 24.0 10.5 23.55 10.5 Q23.85 9.3 23.6 8.15 22.95 6.0 21.2 4.9 L21.05 4.85 19.95 4.6 18.85 4.6 18.0 4.8 Q16.85 5.1 15.85 6.0 L16.95 7.15 Q16.05 6.25 15.15 6.9 14.25 8.9 14.4 10.8 L14.75 12.65 14.6 12.75 M15.8 12.7 L16.75 14.45 16.95 14.9 17.5 16.6 17.55 16.95 18.45 16.55 19.9 16.1 21.3 15.85 23.2 15.8 24.35 15.95 23.05 15.9 21.35 16.05 20.35 16.3 18.35 17.0 17.75 17.3 17.4 17.5 16.25 18.3 15.0 19.45 Q14.05 20.5 13.5 21.75 L13.25 22.4 12.85 23.85 Q12.35 26.05 12.9 28.1 13.3 29.55 14.25 30.9 L14.6 31.45 15.25 32.2 15.7 32.7 Q16.9 33.9 18.4 34.75 L19.45 35.25 18.8 35.1 Q16.9 34.45 15.25 32.85 L15.15 32.75 14.2 31.65 13.9 31.35 Q11.35 27.8 12.15 23.75 12.4 22.45 13.0 21.35 L13.9 19.9 Q15.0 18.45 16.7 17.4 L16.85 17.35 16.9 16.8 16.55 14.7 16.5 14.5 15.8 12.7 M20.95 7.9 Q20.45 7.4 19.75 7.25 L19.05 7.25 19.05 7.3 Q18.55 7.35 18.1 7.7 17.7 8.0 17.45 8.45 L17.25 9.1 Q17.05 9.9 17.45 10.55 L17.25 10.25 Q16.7 9.55 16.85 8.65 16.95 8.05 17.35 7.6 L17.75 7.2 Q18.4 6.75 19.2 6.8 L19.25 6.8 19.4 6.85 Q20.3 6.95 20.8 7.65 L20.95 7.9 M18.0 22.85 Q16.8 22.1 16.5 20.65 17.55 22.05 18.35 22.4 L18.55 22.45 19.4 21.0 20.0 19.65 Q20.4 18.6 17.95 19.0 18.85 18.55 19.45 18.5 20.05 18.45 20.35 18.85 L21.1 16.7 21.3 16.65 21.3 16.7 21.25 17.1 20.6 19.1 20.05 20.35 19.65 21.25 18.7 22.95 18.05 22.85 18.0 22.85 M21.1 20.3 L21.05 19.6 21.05 19.4 21.05 18.5 21.2 19.5 21.25 19.9 Q21.6 22.35 22.4 23.15 L23.6 23.35 Q24.75 23.0 25.8 21.2 L26.2 20.45 Q26.8 19.0 23.8 18.2 L23.05 18.0 24.1 18.1 Q26.2 18.35 26.8 19.35 L27.45 17.55 27.6 17.0 28.15 17.1 28.0 17.6 Q27.15 20.2 25.95 21.85 24.95 23.25 23.6 23.9 L22.1 23.35 Q21.25 22.15 21.1 20.3 M16.9 27.35 L17.15 27.4 Q17.55 28.5 17.6 29.85 L17.65 30.95 17.6 31.45 17.35 33.35 18.25 32.15 18.3 32.05 Q19.5 30.5 20.9 29.5 L22.6 29.75 23.05 32.45 23.35 35.85 24.1 34.1 Q25.25 31.9 26.85 30.9 L28.55 31.15 28.95 32.65 29.05 34.35 28.75 34.55 28.65 34.6 28.6 32.7 Q28.15 34.0 26.8 34.85 28.45 33.4 28.35 31.65 L26.9 31.45 Q25.5 32.25 24.25 34.85 L24.05 35.3 23.75 35.9 23.3 35.9 23.35 35.9 23.25 35.9 23.0 35.9 22.6 31.4 Q22.65 34.25 21.05 34.85 22.55 34.15 22.3 30.1 L20.85 29.9 Q19.8 30.55 18.3 32.25 L18.3 32.3 17.35 33.4 17.35 33.35 17.3 33.35 17.35 31.35 17.35 30.85 17.15 31.25 Q16.35 32.3 14.85 30.8 16.05 31.8 16.8 31.1 L17.35 30.2 16.95 27.85 15.45 27.65 Q14.85 27.75 13.95 29.1 L13.75 29.4 13.9 29.05 Q14.45 27.55 15.55 27.15 L16.9 27.35 M30.1 25.45 L28.4 24.7 Q27.75 22.45 27.8 20.35 27.8 18.95 28.15 17.6 L28.25 17.25 28.4 17.25 28.45 17.25 28.5 17.3 28.6 17.3 28.6 17.35 28.55 17.6 28.4 18.55 28.35 19.05 Q27.95 22.45 28.7 24.4 L30.05 24.95 30.65 24.6 30.95 24.4 Q32.55 22.55 30.6 20.05 32.2 21.6 31.85 23.65 L33.05 22.0 33.25 22.4 31.6 24.35 30.1 25.45 M6.65 30.35 L6.95 30.4 7.1 30.4 7.15 30.4 7.15 30.45 7.85 30.45 8.0 30.9 7.45 30.8 6.75 30.7 4.65 29.95 6.55 30.3 6.65 30.35 M23.35 35.85 L23.35 35.9 23.35 35.85 M34.0 39.6 L34.3 39.25 34.75 41.1 34.75 41.15 34.85 41.65 Q35.25 44.1 34.95 45.85 L34.75 43.2 34.75 43.05 34.7 43.0 34.25 41.9 33.95 41.45 Q33.45 40.9 32.85 41.05 33.6 40.7 34.25 41.35 L34.5 41.75 34.4 41.25 34.0 39.6" fill="#ffffff" fill-rule="evenodd" stroke="none"/>
      <path d="M40.6 12.35 L40.9 12.35 Q42.0 12.45 42.9 12.95 42.3 13.6 42.3 15.0 L42.3 15.45 41.15 14.85 40.55 14.85 40.6 12.35 M42.5 19.2 Q43.05 21.0 43.8 21.3 43.15 21.95 42.4 22.2 L41.15 22.35 40.65 19.55 40.7 19.55 40.95 19.6 Q41.65 19.6 42.2 19.05 L42.4 18.85 42.5 19.2 M30.95 33.8 L31.05 34.05 Q31.7 35.7 33.4 37.7 31.1 39.45 28.0 40.5 L25.9 41.1 Q25.8 38.75 25.0 37.25 L23.85 35.9 24.85 35.8 25.75 35.65 27.65 35.05 28.65 34.6 28.75 34.55 29.05 34.35 29.1 34.35 29.25 34.25 29.6 34.05 29.95 33.8 30.75 33.2 30.95 33.8 M24.0 10.5 L24.15 10.5 Q24.2 12.05 24.75 14.0 L24.85 14.25 25.25 15.6 25.45 16.1 25.0 16.0 24.95 16.0 24.9 16.0 24.65 16.0 24.55 15.95 24.35 15.95 23.2 15.8 21.3 15.85 19.9 16.1 18.45 16.55 17.55 16.95 17.5 16.6 16.95 14.9 16.75 14.45 15.8 12.7 15.5 12.3 Q16.9 11.55 18.4 11.1 L18.45 11.1 19.65 10.8 19.9 10.75 20.35 10.65 21.75 10.5 20.35 10.65 Q20.85 10.25 21.05 9.65 L21.75 10.5 23.55 10.5 24.0 10.5 M19.2 6.8 Q18.4 6.75 17.75 7.2 L17.35 7.6 17.0 7.2 16.95 7.15 15.85 6.0 Q16.85 5.1 18.0 4.8 17.9 5.15 18.15 5.6 L19.2 6.8 19.25 6.8 19.2 6.8" fill="#f0f0d2" fill-rule="evenodd" stroke="none"/>
      <path d="M46.95 17.3 Q45.95 15.15 45.35 15.0 L44.75 14.0 44.1 13.25 Q45.65 14.6 46.45 16.15 L46.55 16.35 46.95 17.3 M36.6 16.15 L36.7 15.95 36.85 15.5 Q37.8 12.7 40.6 12.35 L40.55 14.85 Q40.05 14.95 39.65 15.3 38.95 15.9 38.85 16.9 L38.8 17.1 38.85 17.55 Q38.9 18.15 39.3 18.65 L39.65 19.05 40.4 19.5 40.65 19.55 41.15 22.35 39.9 22.0 Q39.05 18.85 36.6 16.15 M42.3 15.0 Q42.65 13.2 43.4 13.3 44.1 13.8 44.7 14.65 46.05 16.7 45.0 19.7 L44.25 20.85 Q43.3 20.75 42.5 19.2 L42.4 18.85 Q42.9 18.3 43.0 17.5 L42.9 16.55 42.8 16.15 42.55 15.75 42.3 15.45 42.3 15.0 M34.45 14.75 L35.8 16.05 36.25 16.6 Q39.85 22.3 39.15 27.15 L39.1 27.45 38.6 29.8 38.55 30.05 37.8 32.25 36.5 34.45 Q34.85 33.5 33.9 32.5 33.1 31.65 32.8 30.75 L33.85 27.9 Q34.25 25.75 33.75 23.75 L33.6 23.2 33.35 22.6 33.25 22.4 33.05 22.0 32.05 20.35 30.0 18.25 29.05 17.6 29.0 17.55 28.8 17.4 28.6 17.3 28.45 17.2 28.05 17.0 27.85 14.6 28.05 12.8 Q28.2 12.0 28.5 11.35 L29.9 11.9 29.95 11.9 30.0 11.95 30.2 12.05 31.85 12.9 32.05 13.0 32.2 13.1 Q33.4 13.85 34.45 14.75 M34.95 45.85 Q32.95 44.9 31.5 42.3 32.2 41.35 32.85 41.05 33.45 40.9 33.95 41.45 L34.25 41.9 34.7 43.0 34.75 43.05 34.75 43.2 34.95 45.85 M22.7 47.9 Q21.3 45.7 21.3 42.2 L23.15 42.4 Q24.35 42.95 24.45 43.5 L24.4 43.65 24.35 43.85 22.7 47.9 M18.6 40.6 L17.95 40.45 17.5 40.25 16.95 40.05 15.6 39.45 15.35 39.25 13.95 38.4 12.25 37.05 11.15 35.9 10.3 34.9 9.9 34.35 8.6 32.2 8.0 30.9 7.85 30.45 Q7.35 29.1 7.15 27.65 6.85 25.3 7.35 22.8 L7.45 22.3 Q7.75 21.05 8.2 19.95 9.25 17.35 11.25 15.35 12.5 14.05 14.15 13.05 L14.6 12.75 14.75 12.65 14.4 10.8 Q14.25 8.9 15.15 6.9 16.05 6.25 16.95 7.15 L17.0 7.2 17.35 7.6 Q16.95 8.05 16.85 8.65 16.7 9.55 17.25 10.25 L17.45 10.55 17.6 10.65 17.85 10.85 18.35 11.05 18.4 11.1 Q16.9 11.55 15.5 12.3 L15.8 12.7 16.5 14.5 16.55 14.7 16.9 16.8 16.85 17.35 16.7 17.4 Q15.0 18.45 13.9 19.9 L13.0 21.35 Q12.4 22.45 12.15 23.75 11.35 27.8 13.9 31.35 L14.2 31.65 15.15 32.75 15.25 32.85 Q16.9 34.45 18.8 35.1 L19.45 35.25 23.0 35.9 23.25 35.9 23.35 35.9 23.3 35.9 23.75 35.9 24.05 35.3 24.25 34.85 Q25.5 32.25 26.9 31.45 L28.35 31.65 Q28.45 33.4 26.8 34.85 25.85 35.45 24.45 35.85 L23.75 35.9 23.85 35.9 25.0 37.25 Q25.8 38.75 25.9 41.1 L25.6 41.2 23.15 41.25 19.95 40.9 18.6 40.6 M11.85 43.7 Q11.05 41.15 12.05 37.8 L12.85 38.75 13.15 39.05 Q14.3 40.2 14.1 40.95 L14.0 41.1 11.85 43.7 M4.65 29.95 Q5.15 29.15 5.8 28.6 L6.65 27.95 6.65 30.35 6.55 30.3 4.65 29.95 M23.55 10.5 L21.75 10.5 21.05 9.65 21.15 9.25 21.2 9.25 21.15 8.4 20.95 7.9 20.8 7.65 Q20.3 6.95 19.4 6.85 L19.25 6.8 19.2 6.8 18.15 5.6 Q17.9 5.15 18.0 4.8 L18.85 4.6 19.95 4.6 21.05 4.85 21.2 4.9 Q22.95 6.0 23.6 8.15 23.85 9.3 23.55 10.5 M15.5 12.3 L14.75 12.65 15.5 12.3 M16.5 20.65 L16.35 19.9 17.95 19.0 Q20.4 18.6 20.0 19.65 L19.4 21.0 18.55 22.45 18.35 22.4 Q17.55 22.05 16.5 20.65 M21.05 18.5 L21.1 18.0 21.75 18.0 23.05 18.0 23.8 18.2 Q26.8 19.0 26.2 20.45 L25.8 21.2 Q24.75 23.0 23.6 23.35 L22.4 23.15 Q21.6 22.35 21.25 19.9 L21.2 19.5 21.05 18.5 M28.4 18.55 L28.5 18.6 Q29.8 19.25 30.6 20.05 32.55 22.55 30.95 24.4 L30.65 24.6 30.05 24.95 28.7 24.4 Q27.95 22.45 28.35 19.05 L28.4 18.55 M21.05 34.85 L20.65 35.0 18.4 34.75 17.3 33.75 17.2 33.6 17.3 33.45 17.35 33.4 18.3 32.3 18.3 32.25 Q19.8 30.55 20.85 29.9 L22.3 30.1 Q22.55 34.15 21.05 34.85 M13.75 29.4 L13.95 29.1 Q14.85 27.75 15.45 27.65 L16.95 27.85 17.35 30.2 16.8 31.1 Q16.05 31.8 14.85 30.8 L13.9 29.75 13.75 29.4" fill="#e6e4b3" fill-rule="evenodd" stroke="none"/>
      <path d="M47.1 21.3 L47.15 21.65 Q46.75 23.2 45.6 24.25 44.95 24.85 44.2 25.15 L43.15 24.45 43.05 24.35 Q41.8 23.45 41.7 22.85 L42.6 22.65 44.1 21.7 44.25 21.55 Q45.3 20.55 45.65 19.05 45.85 19.0 46.05 19.2 46.5 19.6 47.1 21.3 M36.45 15.8 L36.4 15.95 36.6 16.15 Q39.05 18.85 39.9 22.0 L40.05 22.7 43.1 25.4 43.35 25.4 43.55 27.35 43.5 28.85 43.15 28.35 Q42.15 26.35 39.95 25.1 L39.85 24.5 39.5 22.65 Q39.0 20.7 37.9 18.85 L36.9 17.4 36.25 16.6 35.8 16.05 34.45 14.75 36.45 15.8 M42.25 16.8 L41.85 16.65 Q41.2 16.55 40.65 17.0 40.15 17.45 40.1 18.15 L40.05 18.4 40.05 18.55 39.65 17.95 Q39.25 17.15 39.45 16.2 L39.85 15.75 Q40.3 15.35 40.85 15.25 42.35 15.75 42.25 16.8 M36.5 34.45 L35.5 35.6 35.45 35.65 33.85 36.8 30.95 33.8 30.75 33.2 31.5 32.45 32.8 30.75 Q33.1 31.65 33.9 32.5 34.85 33.5 36.5 34.45 M35.95 42.15 Q35.95 44.05 34.95 45.85 35.25 44.1 34.85 41.65 L34.75 41.15 35.95 42.15 M28.6 42.7 L26.45 42.6 26.0 42.2 26.5 42.3 28.6 42.65 28.6 42.7 M25.85 44.45 Q24.8 46.9 22.85 48.1 24.1 46.45 24.95 43.45 L25.05 42.95 25.85 44.45 M21.3 42.2 L21.35 41.45 22.0 41.55 18.6 40.6 19.95 40.9 23.15 41.25 24.4 41.8 24.9 41.7 24.9 41.9 24.8 42.35 24.6 43.15 Q23.9 42.6 23.15 42.4 L21.3 42.2 M16.5 40.65 L15.95 41.25 Q14.35 42.85 12.1 43.6 13.75 42.35 14.85 40.7 L16.5 40.65 M12.05 37.8 L12.15 37.4 12.25 37.05 13.95 38.4 15.35 39.25 14.7 40.3 13.15 39.05 12.85 38.75 12.05 37.8 M7.55 31.95 L7.25 31.85 6.95 31.75 Q5.7 31.15 4.65 29.95 L6.75 30.7 7.55 31.95 M6.65 27.95 L7.15 27.65 Q7.35 29.1 7.85 30.45 L7.15 30.45 7.15 30.4 7.1 30.4 6.95 30.4 6.65 30.35 6.65 27.95 M22.55 5.4 Q24.0 6.6 24.75 7.9 L25.2 8.85 23.7 7.0 23.15 6.1 22.55 5.4 M25.6 10.7 L26.25 10.8 28.5 11.35 Q28.2 12.0 28.05 12.8 L27.85 14.6 28.05 17.0 27.45 16.7 25.45 16.1 25.25 15.6 24.85 14.25 24.75 14.0 Q24.2 12.05 24.15 10.5 L24.9 10.6 25.15 10.6 25.6 10.7 M24.0 10.5 L24.1 9.85 24.15 9.75 24.65 10.2 24.9 10.6 24.15 10.5 24.0 10.5 M17.45 8.45 Q17.7 8.0 18.1 7.7 18.55 7.35 19.05 7.3 L19.05 7.25 Q20.35 7.9 20.0 8.5 19.35 8.35 18.75 8.75 L18.45 9.05 Q18.2 9.35 18.1 9.8 17.5 9.9 17.45 8.45 M16.35 19.9 L16.3 19.2 17.65 18.2 Q19.25 17.1 21.1 16.7 L20.35 18.85 Q20.05 18.45 19.45 18.5 18.85 18.55 17.95 19.0 L16.35 19.9 M13.5 21.75 Q17.45 20.3 17.25 24.95 L17.1 25.55 16.9 27.35 15.55 27.15 Q14.45 27.55 13.9 29.05 L12.9 28.1 Q12.35 26.05 12.85 23.85 L13.25 22.4 13.5 21.75 M21.35 16.7 L21.35 16.65 27.6 17.0 27.45 17.55 26.8 19.35 Q26.2 18.35 24.1 18.1 L23.05 18.0 21.75 18.0 21.1 18.0 21.25 17.1 21.3 16.7 21.35 16.7 M28.4 18.55 L28.55 17.6 28.6 17.35 28.6 17.3 28.8 17.4 29.0 17.55 29.05 17.6 30.0 18.25 32.05 20.35 33.05 22.0 31.85 23.65 Q32.2 21.6 30.6 20.05 29.8 19.25 28.5 18.6 L28.4 18.55 M28.65 34.6 L27.65 35.05 25.75 35.65 24.85 35.8 24.45 35.85 Q25.85 35.45 26.8 34.85 28.15 34.0 28.6 32.7 L28.65 34.6 M23.0 35.9 L19.45 35.25 18.4 34.75 20.65 35.0 21.05 34.85 Q22.65 34.25 22.6 31.4 L23.0 35.9 M22.0 41.55 L24.4 41.8 22.0 41.55 M31.5 42.3 L31.0 41.25 Q33.05 40.45 34.0 39.6 L34.4 41.25 34.5 41.75 34.25 41.35 Q33.6 40.7 32.85 41.05 32.2 41.35 31.5 42.3 M13.9 29.75 L14.85 30.8 Q16.35 32.3 17.15 31.25 L17.35 30.85 17.35 31.35 17.3 33.35 17.3 33.4 17.3 33.45 17.2 33.6 17.15 33.65 Q14.75 31.85 13.9 29.75" fill="#d5d580" fill-rule="evenodd" stroke="none"/>
      <path d="M45.8 18.0 Q45.9 16.85 45.6 15.8 L45.35 15.0 Q45.95 15.15 46.95 17.3 L47.35 19.65 47.35 19.8 47.3 20.65 47.15 21.65 47.1 21.3 Q46.7 19.25 46.15 18.4 L45.85 18.05 45.8 18.0 M42.8 16.15 L42.9 16.55 43.0 17.5 42.85 17.3 42.6 17.0 42.25 16.8 Q42.35 15.75 40.85 15.25 L41.4 15.25 Q42.25 15.4 42.8 16.15 M39.45 16.2 Q39.25 17.15 39.65 17.95 L40.05 18.55 40.15 18.85 40.15 18.9 40.4 19.5 39.65 19.05 39.3 18.65 39.05 17.75 39.05 17.35 39.05 17.3 39.45 16.2 M43.15 28.35 L43.5 28.85 43.25 30.6 42.55 32.95 Q41.45 35.9 39.1 38.15 L36.85 37.6 35.9 36.8 35.65 36.4 36.0 36.0 Q37.6 34.35 38.55 32.35 L39.55 29.5 39.65 29.05 40.0 25.9 Q41.45 26.4 43.15 28.35 M35.8 40.55 L35.9 41.25 35.95 42.15 34.75 41.15 34.75 41.1 34.3 39.25 35.7 40.2 35.8 40.55 M26.45 42.6 L26.3 43.2 25.85 44.45 25.05 42.95 25.15 42.5 25.25 42.0 25.35 41.6 26.0 42.2 26.45 42.6 M16.95 40.05 L16.7 40.35 16.5 40.65 14.85 40.7 15.6 39.45 16.95 40.05 M8.6 32.2 L8.35 32.15 7.55 31.95 6.75 30.7 7.45 30.8 8.0 30.9 8.6 32.2 M25.2 8.85 L25.6 10.7 25.15 10.6 24.7 9.45 24.15 8.55 24.0 7.8 23.7 7.0 25.2 8.85 M19.05 7.25 L19.75 7.25 Q20.45 7.4 20.95 7.9 L21.15 8.4 21.2 9.25 21.05 9.1 20.75 8.8 20.0 8.5 Q20.35 7.9 19.05 7.25 M17.45 10.55 Q17.05 9.9 17.25 9.1 L17.45 8.45 Q17.5 9.9 18.1 9.8 L18.1 9.85 18.05 10.25 18.1 10.5 18.35 11.05 17.85 10.85 17.6 10.65 17.45 10.55 M17.65 18.2 L16.3 19.2 16.35 19.9 16.5 20.65 Q16.8 22.1 18.0 22.85 L18.05 22.85 17.25 24.95 Q17.45 20.3 13.5 21.75 14.05 20.5 15.0 19.45 L16.25 18.3 17.65 18.2 M19.65 21.25 L20.5 21.5 19.8 22.6 18.7 22.95 19.65 21.25 M17.15 27.4 L17.9 28.15 18.3 30.55 17.6 29.85 Q17.55 28.5 17.15 27.4 M22.6 29.75 L23.35 30.4 23.85 32.75 23.05 32.45 22.6 29.75 M28.55 31.15 L29.55 31.9 29.85 33.05 28.95 32.65 28.55 31.15 M32.55 24.45 L31.55 25.3 30.1 25.45 31.6 24.35 32.55 24.45 M26.95 21.95 L25.3 23.75 23.6 23.9 Q24.95 23.25 25.95 21.85 27.25 20.85 26.95 21.95" fill="#cac960" fill-rule="evenodd" stroke="none"/>
      <path d="M40.05 22.7 L40.6 22.8 41.7 22.85 Q41.8 23.45 43.05 24.35 L43.15 24.45 44.2 25.15 43.35 25.4 43.1 25.4 40.05 22.7 M25.9 41.15 L28.05 40.7 Q30.45 40.05 32.6 38.75 L33.6 38.05 35.65 36.4 35.9 36.8 36.85 37.6 39.1 38.15 36.2 40.3 35.9 40.5 35.8 40.55 35.7 40.2 34.3 39.25 34.0 39.6 Q33.05 40.45 31.0 41.25 L31.5 42.3 29.3 42.75 28.6 42.65 26.5 42.3 26.0 42.2 25.35 41.6 24.9 41.7 24.4 41.8 23.15 41.25 25.6 41.2 25.9 41.15 M24.55 15.95 L24.65 16.0 24.9 16.0 24.95 16.0 25.0 16.0 25.45 16.1 27.45 16.7 28.05 17.0 28.45 17.2 28.4 17.25 28.3 17.2 28.25 17.25 28.15 17.6 Q27.8 18.95 27.8 20.35 L26.95 21.95 Q27.25 20.85 25.95 21.85 27.15 20.2 28.0 17.6 L28.15 17.1 27.6 17.0 21.35 16.65 21.3 16.65 21.1 16.7 Q19.25 17.1 17.65 18.2 L16.25 18.3 17.4 17.5 17.75 17.3 18.35 17.0 20.35 16.3 21.35 16.05 23.05 15.9 24.35 15.95 24.55 15.95 M21.25 17.1 L21.1 18.0 21.05 18.5 21.05 19.4 21.05 19.6 21.1 20.3 20.5 21.5 19.65 21.25 20.05 20.35 20.6 19.1 21.25 17.1 M18.3 30.55 L18.3 32.05 18.25 32.15 17.35 33.35 17.6 31.45 17.65 30.95 17.6 29.85 18.3 30.55 M23.85 32.75 L24.1 34.1 23.35 35.85 23.05 32.45 23.85 32.75 M29.85 33.05 L29.95 33.8 29.6 34.05 29.25 34.25 29.1 34.35 29.05 34.35 28.95 32.65 29.85 33.05 M33.6 23.2 L32.55 24.45 31.6 24.35 33.25 22.4 33.35 22.6 33.6 23.2 M28.15 17.1 L28.3 17.2 28.15 17.1 M13.75 29.4 L13.9 29.75 Q14.75 31.85 17.15 33.65 L17.3 33.75 18.4 34.75 Q16.9 33.9 15.7 32.7 L15.25 32.2 14.6 31.45 14.25 30.9 Q13.3 29.55 12.9 28.1 L13.9 29.05 13.75 29.4" fill="#a6a637" fill-rule="evenodd" stroke="none"/>
      <path d="M47.15 21.65 L47.3 20.65 47.35 19.8 47.35 19.65 46.95 17.3 46.55 16.35 46.45 16.15 Q45.65 14.6 44.1 13.25 43.05 12.15 41.5 11.9 39.55 11.6 38.0 13.0 37.0 13.95 36.6 15.3 L36.45 15.8 36.4 15.95 36.6 16.15 Q39.05 18.85 39.9 22.0 L40.05 22.7 43.1 25.4 43.35 25.4 44.2 25.15 Q44.95 24.85 45.6 24.25 46.75 23.2 47.15 21.65 M42.8 16.15 L42.9 16.55 43.0 17.5 Q42.9 18.3 42.4 18.85 L42.2 19.05 Q41.65 19.6 40.95 19.6 L40.5 19.0 40.05 18.4 40.1 18.15 Q40.15 17.45 40.65 17.0 41.2 16.55 41.85 16.65 L42.25 16.8 42.6 17.0 42.85 17.3 43.0 17.5 M40.05 18.55 L40.05 18.4 M45.8 18.0 L45.8 18.05 M43.5 28.85 L43.55 27.35 43.35 25.4 M40.4 19.5 L39.65 19.05 39.3 18.65 M40.15 18.85 L40.05 18.55 M40.4 19.5 L40.15 18.9 40.15 18.85 M40.7 19.55 L40.95 19.6 M40.7 19.55 L40.65 19.55 40.4 19.5 M43.5 28.85 L43.25 30.6 42.55 32.95 Q41.45 35.9 39.1 38.15 L36.2 40.3 35.9 40.5 35.8 40.55 35.9 41.25 35.95 42.15 Q35.95 44.05 34.95 45.85 32.95 44.9 31.5 42.3 L29.3 42.75 28.6 42.7 26.45 42.6 26.3 43.2 25.85 44.45 Q24.8 46.9 22.85 48.1 L22.7 47.9 Q21.3 45.7 21.3 42.2 L21.35 41.45 22.0 41.55 18.6 40.6 17.95 40.45 17.75 40.4 17.6 40.3 17.5 40.25 16.95 40.05 16.7 40.35 16.5 40.65 15.95 41.25 Q14.35 42.85 12.1 43.6 L11.85 43.7 Q11.05 41.15 12.05 37.8 L12.15 37.4 12.25 37.05 11.15 35.9 10.3 34.9 9.9 34.35 8.6 32.2 8.35 32.15 7.55 31.95 7.25 31.85 6.95 31.75 Q5.7 31.15 4.65 29.95 5.15 29.15 5.8 28.6 L6.65 27.95 7.15 27.65 Q6.85 25.3 7.35 22.8 L7.45 22.3 Q7.75 21.05 8.2 19.95 9.25 17.35 11.25 15.35 12.5 14.05 14.15 13.05 L14.6 12.75 14.1 11.15 Q13.9 9.7 14.35 7.75 14.8 6.1 16.2 5.05 17.6 4.0 19.3 4.1 L19.9 4.15 20.1 4.15 21.05 4.45 Q21.9 4.75 22.55 5.4 24.0 6.6 24.75 7.9 L25.2 8.85 25.6 10.7 26.25 10.8 28.5 11.35 29.9 11.9 29.95 11.9 30.0 11.95 30.2 12.0 32.3 12.9 Q34.85 14.05 36.6 15.3 M34.3 39.25 L35.7 40.2 35.8 40.55 M25.15 10.6 L25.6 10.7 M24.9 10.6 L25.15 10.6 M24.15 10.5 L24.9 10.6 M24.15 10.5 L24.0 10.5 23.55 10.5 21.75 10.5 20.35 10.65 19.9 10.75 19.65 10.8 18.45 11.1 18.4 11.1 M24.55 15.95 L24.65 16.0 24.9 16.0 24.95 16.0 25.0 16.0 25.45 16.1 27.45 16.7 28.05 17.0 28.45 17.2 28.6 17.3 28.8 17.4 28.6 17.3 28.5 17.3 28.45 17.25 28.4 17.25 28.25 17.25 28.15 17.6 Q27.8 18.95 27.8 20.35 L26.95 21.95 25.3 23.75 23.6 23.9 22.1 23.35 Q21.25 22.15 21.1 20.3 L21.05 19.6 21.05 19.4 21.05 18.5 21.1 18.0 21.25 17.1 21.3 16.7 21.35 16.7 21.35 16.65 21.3 16.65 21.1 16.7 Q19.25 17.1 17.65 18.2 L16.3 19.2 16.35 19.9 16.5 20.65 Q16.8 22.1 18.0 22.85 L18.05 22.85 17.25 24.95 17.1 25.55 16.9 27.35 17.15 27.4 17.9 28.15 18.3 30.55 18.3 32.05 Q19.5 30.5 20.9 29.5 L22.6 29.75 23.35 30.4 23.85 32.75 24.1 34.1 Q25.25 31.9 26.85 30.9 L28.55 31.15 29.55 31.9 29.85 33.05 29.95 33.8 30.75 33.2 31.5 32.45 32.8 30.75 33.85 27.9 Q34.25 25.75 33.75 23.75 L33.6 23.2 32.55 24.45 31.55 25.3 30.1 25.45 28.4 24.7 Q27.75 22.45 27.8 20.35 M14.75 12.65 L15.5 12.3 M20.0 8.5 L20.75 8.8 21.05 9.1 21.2 9.25 21.15 8.4 20.95 7.9 M18.1 9.8 Q18.2 9.35 18.45 9.05 L18.75 8.75 Q19.35 8.35 20.0 8.5 M18.1 9.85 L18.1 9.8 M18.45 11.1 L18.35 11.05 18.1 10.5 18.05 10.25 18.1 9.85 M17.45 10.55 L17.6 10.65 17.85 10.85 18.35 11.05 M21.2 9.25 L21.15 9.25 21.05 9.65 Q20.85 10.25 20.35 10.65 M20.5 21.5 L21.1 20.3 M27.6 17.0 L21.35 16.65 M14.6 12.75 L14.75 12.65 M20.5 21.5 L19.8 22.6 18.7 22.95 18.05 22.85 M28.15 17.1 L27.6 17.0 M13.9 29.05 Q14.45 27.55 15.55 27.15 L16.9 27.35 M33.05 22.0 L32.05 20.35 30.0 18.25 29.05 17.6 29.0 17.55 28.8 17.4 M28.3 17.2 L28.4 17.25 28.45 17.25 M28.3 17.2 L28.15 17.1 M33.05 22.0 L33.25 22.4 33.35 22.6 33.6 23.2 M8.0 30.9 L7.85 30.45 Q7.35 29.1 7.15 27.65 M8.6 32.2 L8.0 30.9 M29.1 34.35 L29.25 34.25 29.6 34.05 29.95 33.8 M29.05 34.35 L29.1 34.35 M29.05 34.35 L28.75 34.55 28.65 34.6 27.65 35.05 25.75 35.65 24.85 35.8 23.85 35.9 23.75 35.9 23.3 35.9 23.35 35.9 23.25 35.9 23.0 35.9 19.45 35.25 18.8 35.1 M24.45 35.85 L24.85 35.8 M23.75 35.9 L24.45 35.85 M23.35 35.85 L24.1 34.1 M23.35 35.9 L23.35 35.85 M18.4 34.75 L19.45 35.25 M25.35 41.6 L24.9 41.7 24.4 41.8 22.0 41.55 M25.35 41.6 L26.0 42.2 26.45 42.6 M34.0 39.6 L34.3 39.25 M31.5 42.3 L31.0 41.25 Q33.05 40.45 34.0 39.6 M13.75 29.4 L13.9 29.75 Q14.75 31.85 17.15 33.65 L17.3 33.75 18.4 34.75 M17.3 33.45 L17.35 33.4 17.35 33.35 18.25 32.15 18.3 32.05 M17.3 33.45 L17.2 33.6 17.3 33.75 M13.75 29.4 L13.9 29.05 M15.35 39.25 L13.95 38.4 12.25 37.05 M15.6 39.45 L15.35 39.25 M15.6 39.45 L16.95 40.05 M17.95 40.45 L17.5 40.25 M17.95 40.45 L17.6 40.3" fill="none" stroke="#000000" stroke-linecap="round" stroke-linejoin="round" stroke-opacity="0.3019608" stroke-width="0.30000000000000004"/>
      <path d="M19.2 10.9 L19.25 10.45 20.4 9.5 21.05 9.65 20.75 10.2 20.6 10.45 20.4 10.65 20.35 10.65 19.9 10.75 19.65 10.8 19.2 10.9 M19.55 9.8 L19.1 10.2 18.5 9.95 18.6 8.4 19.25 8.05 Q19.15 8.95 19.55 9.8" fill="#cc6b22" fill-rule="evenodd" stroke="none"/>
      <path d="M17.65 9.9 L18.85 10.45 19.05 10.95 18.45 11.1 18.4 11.1 18.2 11.05 17.65 9.9 M21.05 9.55 L20.4 9.2 20.4 7.8 21.05 8.25 21.1 8.8 21.15 8.85 21.05 9.55" fill="#f4a33c" fill-rule="evenodd" stroke="none"/>
      <path d="M19.25 8.05 L19.8 7.7 20.1 8.0 20.2 8.8 20.05 9.4 19.55 9.8 Q19.15 8.95 19.25 8.05 M18.5 9.95 L17.85 9.75 18.3 8.6 18.6 8.4 18.5 9.95" fill="#ffde4f" fill-rule="evenodd" stroke="none"/>
      <path d="M17.65 9.9 L18.0 8.45 19.65 7.6 20.4 7.8 20.4 9.2 21.05 9.55 21.05 9.65 20.4 9.5 19.25 10.45 19.2 10.9 19.05 10.95 18.85 10.45 17.65 9.9 M19.55 9.8 L20.05 9.4 20.2 8.8 20.1 8.0 19.8 7.7 19.25 8.05 18.6 8.4 18.3 8.6 17.85 9.75 18.5 9.95 19.1 10.2 19.55 9.8" fill="#ffff98" fill-rule="evenodd" stroke="none"/>
      <path d="M20.4 7.8 L19.65 7.6 18.0 8.45 17.65 9.9 18.2 11.05 18.0 10.95 17.65 10.6 M19.05 10.95 L19.2 10.9 19.65 10.8 19.9 10.75 20.35 10.65 20.4 10.65 20.6 10.45 20.75 10.2 21.05 9.65 21.05 9.55 21.15 8.85 21.1 8.8 21.05 8.25 20.95 7.95 20.75 7.6 M20.4 7.8 L21.05 8.25 M19.05 10.95 L18.45 11.1 18.4 11.1 18.2 11.05" fill="none" stroke="#000000" stroke-linecap="round" stroke-linejoin="round" stroke-opacity="0.3019608" stroke-width="0.30000000000000004"/>
    </g>
    <g id="sprite1" transform="matrix(1.0, 0.0, 0.0, 1.0, 0.0, 0.0)">
      <use height="26.7" transform="matrix(0.0042, -1.3515, 1.3935, 0.02, 22.09, 56.0263)" width="26.7" xlink:href="#sprite2"/>
      <use height="26.7" transform="matrix(0.0095, -3.0486, 0.372, 0.0053, 36.507, 81.3775)" width="26.7" xlink:href="#sprite2"/>
      <use height="26.7" transform="matrix(3.0486, 0.0095, -0.0053, 0.372, 0.1225, 35.107)" width="26.7" xlink:href="#sprite2"/>
    </g>
    <g id="sprite2" transform="matrix(1.0, 0.0, 0.0, 1.0, 13.35, 13.35)">
      <use height="26.7" transform="matrix(1.0, 0.0, 0.0, 1.0, -13.35, -13.35)" width="26.7" xlink:href="#shape1"/>
    </g>
    <g id="shape1" transform="matrix(1.0, 0.0, 0.0, 1.0, 13.35, 13.35)">
      <path d="M9.3 -9.85 Q13.35 -5.8 13.35 0.0 13.35 5.8 9.3 9.3 5.8 13.35 0.0 13.35 -5.8 13.35 -9.85 9.3 -13.35 5.8 -13.35 0.0 -13.35 -5.8 -9.85 -9.85 -5.8 -13.35 0.0 -13.35 5.8 -13.35 9.3 -9.85" fill="url(#gradient0)" fill-rule="evenodd" stroke="none"/>
    </g>
    <radialGradient cx="0" cy="0" gradientTransform="matrix(0.0213, 0.0, 0.0, 0.0213, 0.0, 0.0)" gradientUnits="userSpaceOnUse" id="gradient0" r="819.2" spreadMethod="pad">
      <stop offset="0.19607843137254902" stop-color="#fee3bc" stop-opacity="0.41960785"/>
      <stop offset="0.5019607843137255" stop-color="#fee3bc" stop-opacity="0.06666667"/>
      <stop offset="0.7607843137254902" stop-color="#ffe3bd" stop-opacity="0.0"/>
    </radialGradient>
    <g id="shape2" transform="matrix(1.0, 0.0, 0.0, 1.0, -38.8, -15.45)">
      <path d="M40.2 18.15 L40.55 16.55 41.25 16.3 Q41.0 17.2 41.25 18.15 L40.75 18.5 40.2 18.15 M40.65 19.55 L40.85 18.75 42.15 18.05 42.7 18.35 42.35 18.85 42.15 19.05 Q41.5 19.65 40.65 19.55" fill="#cc6b22" fill-rule="evenodd" stroke="none"/>
      <path d="M39.4 17.85 L40.5 18.7 40.65 19.55 40.35 19.45 39.75 19.2 39.4 17.85 M42.75 18.25 L42.2 17.75 42.35 16.25 42.95 16.85 42.95 17.45 42.95 17.5 42.75 18.25" fill="#f4a33c" fill-rule="evenodd" stroke="none"/>
      <path d="M40.2 18.15 L39.6 17.75 40.2 16.65 40.55 16.55 40.2 18.15 M41.25 16.3 L41.8 16.05 42.05 16.4 42.05 17.25 41.8 17.85 41.25 18.15 Q41.0 17.2 41.25 16.3" fill="#ffde4f" fill-rule="evenodd" stroke="none"/>
      <path d="M40.55 16.55 L40.2 16.65 39.6 17.75 40.2 18.15 40.75 18.5 41.25 18.15 41.8 17.85 42.05 17.25 42.05 16.4 41.8 16.05 41.25 16.3 40.55 16.55 M39.4 17.85 L39.95 16.45 41.7 15.9 42.35 16.25 42.2 17.75 42.75 18.25 42.7 18.35 42.15 18.05 40.85 18.75 40.65 19.55 40.5 18.7 39.4 17.85" fill="#ffff98" fill-rule="evenodd" stroke="none"/>
      <path d="M42.35 16.25 L41.7 15.9 39.95 16.45 39.4 17.85 39.75 19.2 39.6 19.05 39.25 18.65 M42.7 18.35 L42.75 18.25 42.95 17.5 42.95 17.45 42.95 16.85 42.9 16.55 42.75 16.15 M42.35 16.25 L42.95 16.85 M42.7 18.35 L42.35 18.85 42.15 19.05 Q41.5 19.65 40.65 19.55 L40.35 19.45 39.75 19.2" fill="none" stroke="#000000" stroke-linecap="round" stroke-linejoin="round" stroke-opacity="0.3019608" stroke-width="0.30000000000000004"/>
    </g>
  </defs>
</svg>
