<?xml version="1.0" encoding="UTF-8" standalone="no"?>
<svg xmlns:xlink="http://www.w3.org/1999/xlink" height="52.0px" width="52.0px" xmlns="http://www.w3.org/2000/svg">
  <g transform="matrix(1.0, 0.0, 0.0, 1.0, 0.0, 0.0)">
    <use height="262.0" transform="matrix(1.0, 0.0, 0.0, 1.0, -105.0, -105.0)" width="262.0" xlink:href="#shape0"/>
    <use height="1.85" transform="matrix(-0.707, 0.1894, 0.1599, 0.5969, 16.3, 4.05)" width="3.35" xlink:href="#sprite0"/>
    <use height="1.85" transform="matrix(-0.6339, 0.366, 0.3686, 0.6384, 15.25, 16.0)" width="3.35" xlink:href="#sprite0"/>
    <use height="1.85" transform="matrix(0.0, 0.7319, 0.9829, 0.0, 14.45, 23.0)" width="3.35" xlink:href="#sprite0"/>
    <use height="1.85" transform="matrix(-0.409, 0.2361, 0.2457, 0.4256, 11.6, 30.15)" width="3.35" xlink:href="#sprite0"/>
    <use height="81.5" transform="matrix(-0.1606, 0.0, 0.0, 0.1605, 18.05, 26.4)" width="81.5" xlink:href="#sprite1"/>
    <use height="81.5" transform="matrix(-0.1606, 0.0, 0.0, 0.1605, 20.85, 9.95)" width="81.5" xlink:href="#sprite1"/>
    <use height="81.5" transform="matrix(-0.1147, 0.0, 0.0, 0.1146, 30.15, 6.25)" width="81.5" xlink:href="#sprite1"/>
    <use height="0.0" transform="matrix(-0.0693, 0.0, 0.0, 0.086, 19.45, 10.05)" width="0.0" xlink:href="#sprite3"/>
    <use height="0.0" transform="matrix(-0.1269, 0.0, 0.0, 0.129, 28.85, 23.05)" width="0.0" xlink:href="#sprite3"/>
    <use height="0.0" transform="matrix(-0.0637, 0.0, 0.0, 0.0507, 41.8, 23.65)" width="0.0" xlink:href="#sprite3"/>
    <use height="0.0" transform="matrix(-0.0482, 0.0, 0.0, 0.026, 41.8, 17.3)" width="0.0" xlink:href="#sprite3"/>
    <use height="0.0" transform="matrix(-0.0341, -0.0341, -0.0184, 0.0184, 36.75, 30.15)" width="0.0" xlink:href="#sprite3"/>
    <use height="0.0" transform="matrix(0.0, -0.0649, -0.0405, 0.0, 9.45, 19.45)" width="0.0" xlink:href="#sprite3"/>
    <use height="0.0" transform="matrix(-0.0325, -0.0562, -0.0351, 0.0202, 18.15, 27.45)" width="0.0" xlink:href="#sprite3"/>
    <use height="0.0" transform="matrix(-0.0389, 0.0104, 0.0153, 0.0571, 16.0, 42.95)" width="0.0" xlink:href="#sprite3"/>
    <use height="0.0" transform="matrix(-0.0372, 0.01, 0.0145, 0.054, 8.1, 40.3)" width="0.0" xlink:href="#sprite3"/>
  </g>
  <defs>
    <g id="shape0" transform="matrix(1.0, 0.0, 0.0, 1.0, 105.0, 105.0)">
      <path d="M52.0 0.0 L52.0 52.0 0.0 52.0 0.0 0.0 52.0 0.0" fill="#795fa9" fill-opacity="0.0" fill-rule="evenodd" stroke="none"/>
      <path d="M27.8 7.3 Q26.05 6.25 24.25 5.55 20.35 4.0 16.2 3.95 L14.3 4.25 Q12.95 5.05 12.15 7.65 L11.75 9.2 11.6 9.95 Q9.95 11.1 9.15 12.9 8.7 14.05 8.65 15.15 7.35 15.8 6.95 17.75 6.4 20.55 7.8 22.0 6.35 22.8 6.4 24.55 6.55 27.2 9.2 27.5 L9.0 29.05 8.95 29.55 Q8.85 31.15 9.25 32.2 L9.1 32.8 9.05 33.2 9.1 34.05 8.7 35.95 6.8 36.45 Q5.6 36.55 5.0 37.4 L4.65 37.95 Q3.65 40.0 5.65 43.0 7.8 46.1 10.4 45.15 L10.95 44.95 11.65 44.5 12.55 46.15 Q14.35 48.75 16.95 48.25 L17.65 48.05 18.45 47.7 19.05 47.45 Q22.15 45.15 23.1 41.7 L23.2 41.55 Q25.55 38.8 25.9 36.25 26.0 35.25 25.75 34.35 L25.75 34.3 Q30.75 34.65 34.7 32.7 L36.1 34.05 36.15 34.1 Q38.85 35.7 40.75 33.0 42.35 30.9 40.75 28.8 L42.35 28.95 Q46.3 28.8 47.4 24.65 48.25 21.8 46.3 20.6 48.2 19.25 47.5 16.5 46.55 13.15 42.9 14.2 L41.0 14.8 40.1 15.15 Q39.0 13.45 37.3 11.9 35.65 10.4 33.75 9.35 L33.65 9.25 32.4 8.3 31.7 7.95 Q30.8 7.5 29.75 7.35 L28.15 7.35 27.8 7.3 Z" fill="none" stroke="#000000" stroke-linecap="round" stroke-linejoin="round" stroke-opacity="0.3019608" stroke-width="1.0"/>
      <path d="M15.3 21.7 L15.05 21.4 Q12.75 21.05 10.25 21.35 L9.45 21.45 8.45 21.15 Q7.65 20.75 7.45 19.7 L7.35 18.95 Q7.55 17.15 8.45 16.3 9.1 15.65 10.1 15.5 L10.7 15.5 Q13.25 15.5 16.35 17.1 L16.2 16.75 Q14.1 15.45 11.65 14.95 7.7 14.1 6.95 17.75 6.4 20.55 7.8 22.0 6.35 22.8 6.4 24.55 6.55 27.35 9.6 27.55 13.2 27.55 15.7 24.7 16.5 23.4 15.95 22.4 L15.4 23.85 Q14.45 25.9 11.05 26.65 8.0 27.3 7.25 25.45 L7.1 25.0 Q6.7 23.15 8.4 22.4 L8.4 22.35 8.5 22.35 Q9.05 22.1 9.8 22.0 L11.8 21.9 15.3 21.7 M7.8 22.0 L8.4 21.75 9.45 21.45 8.4 21.75 7.8 22.0" fill="#ffde4f" fill-rule="evenodd" stroke="none"/>
      <path d="M7.95 19.05 Q8.25 19.45 8.5 19.55 9.0 19.7 9.5 18.55 9.8 17.25 9.3 16.7 8.7 16.05 8.1 17.2 7.7 18.3 7.95 19.05 M8.05 25.3 Q9.25 26.05 9.3 24.45 9.3 22.8 8.55 22.7 L8.35 22.75 Q7.8 22.85 7.45 23.95 L7.65 24.5 8.05 25.3" fill="#ffcc00" fill-rule="evenodd" stroke="none"/>
      <path d="M7.45 19.7 L8.45 20.5 9.65 20.6 Q11.15 20.1 12.0 19.3 11.0 20.0 9.15 20.1 L8.5 19.85 7.95 19.05 Q7.7 18.3 8.1 17.2 L8.45 16.3 Q7.55 17.15 7.35 18.95 L7.45 19.7 M8.4 22.4 Q6.7 23.15 7.1 25.0 L7.25 25.45 Q8.35 26.65 10.1 26.25 L12.4 25.5 8.65 25.8 8.05 25.3 7.65 24.5 7.45 23.95 Q7.3 22.9 8.4 22.4" fill="#ffff98" fill-rule="evenodd" stroke="none"/>
      <path d="M12.0 19.3 L12.85 17.9 Q13.6 16.35 10.7 15.5 L10.1 15.5 Q9.1 15.65 8.45 16.3 L8.1 17.2 Q8.7 16.05 9.3 16.7 9.8 17.25 9.5 18.55 9.0 19.7 8.5 19.55 8.25 19.45 7.95 19.05 L8.5 19.85 9.15 20.1 Q11.0 20.0 12.0 19.3 M11.8 21.9 L9.8 22.0 Q9.05 22.1 8.5 22.35 L8.4 22.35 8.4 22.4 Q7.3 22.9 7.45 23.95 7.8 22.85 8.35 22.75 L8.55 22.7 Q9.3 22.8 9.3 24.45 9.25 26.05 8.05 25.3 L8.65 25.8 12.4 25.5 Q13.55 24.85 13.8 24.05 13.95 22.05 11.8 21.9" fill="#cc6b22" fill-rule="evenodd" stroke="none"/>
      <path d="M15.3 21.7 L15.7 21.25 Q17.4 19.2 16.35 17.1 13.25 15.5 10.7 15.5 13.6 16.35 12.85 17.9 L12.0 19.3 Q11.15 20.1 9.65 20.6 L8.45 20.5 7.45 19.7 Q7.65 20.75 8.45 21.15 L9.45 21.45 10.25 21.35 Q12.75 21.05 15.05 21.4 L15.3 21.7" fill="url(#gradient0)" fill-rule="evenodd" stroke="none"/>
      <path d="M15.95 22.4 L15.3 21.7 11.8 21.9 Q13.95 22.05 13.8 24.05 13.55 24.85 12.4 25.5 L10.1 26.25 Q8.35 26.65 7.25 25.45 8.0 27.3 11.05 26.65 14.45 25.9 15.4 23.85 L15.95 22.4" fill="url(#gradient1)" fill-rule="evenodd" stroke="none"/>
      <path d="M16.35 17.1 Q17.4 19.2 15.7 21.25 L15.3 21.7 15.05 21.4 Q12.75 21.05 10.25 21.35 L9.45 21.45 8.4 21.75 7.8 22.0 Q6.35 22.8 6.4 24.55 6.55 27.35 9.6 27.55 13.2 27.55 15.7 24.7 16.5 23.4 15.95 22.4 L15.3 21.7 M16.35 17.1 L16.2 16.75 Q14.1 15.45 11.65 14.95 7.7 14.1 6.95 17.75 6.4 20.55 7.8 22.0" fill="none" stroke="#000000" stroke-linecap="round" stroke-linejoin="round" stroke-opacity="0.3019608" stroke-width="0.30000000000000004"/>
      <path d="M8.3 17.7 L8.85 17.65 9.35 17.2 9.5 16.5 9.25 16.1 8.75 16.05 Q8.45 16.2 8.25 16.6 L8.05 17.25 8.3 17.7" fill="#ffff98" fill-rule="evenodd" stroke="none"/>
      <path d="M17.6 11.95 L17.5 11.75 Q17.1 10.65 16.2 10.1 12.9 9.3 10.8 12.2 10.1 13.15 10.2 15.45 L11.2 16.15 13.1 15.75 13.25 15.7 Q16.9 14.6 17.6 11.95" fill="#ffcc00" fill-rule="evenodd" stroke="none"/>
      <path d="M16.2 10.1 Q17.1 10.65 17.5 11.75 L17.6 11.95 Q18.1 13.45 17.35 15.15 16.6 16.95 15.0 17.95 13.4 19.0 11.85 18.55 10.2 18.15 9.55 16.9 8.95 15.7 9.2 14.1 10.05 17.3 13.1 15.75 L11.2 16.15 10.2 15.45 Q9.65 14.5 10.1 12.55 10.85 11.2 12.25 10.35 13.8 9.3 15.35 9.75 L16.2 10.1 M18.2 11.35 Q17.45 9.45 15.65 9.0 13.8 8.45 12.0 9.65 10.05 10.9 9.15 12.9 8.3 15.0 8.95 16.95 9.7 18.85 11.55 19.3 13.35 19.85 15.25 18.65 17.15 17.4 18.0 15.35 18.95 13.25 18.2 11.35" fill="#ffff98" fill-rule="evenodd" stroke="none"/>
      <path d="M16.2 10.1 L15.35 9.75 Q13.8 9.3 12.25 10.35 10.85 11.2 10.1 12.55 9.65 14.5 10.2 15.45 10.1 13.15 10.8 12.2 12.9 9.3 16.2 10.1" fill="#cc6b22" fill-rule="evenodd" stroke="none"/>
      <path d="M13.1 15.75 Q10.05 17.3 9.2 14.1 8.95 15.7 9.55 16.9 10.2 18.15 11.85 18.55 13.4 19.0 15.0 17.95 16.6 16.95 17.35 15.15 18.1 13.45 17.6 11.95 16.9 14.6 13.25 15.7 L13.1 15.75" fill="url(#gradient2)" fill-rule="evenodd" stroke="none"/>
      <path d="M18.2 11.35 Q17.45 9.45 15.65 9.0 13.8 8.45 12.0 9.65 10.05 10.9 9.15 12.9 8.3 15.0 8.95 16.95 9.7 18.85 11.55 19.3 13.35 19.85 15.25 18.65 17.15 17.4 18.0 15.35 18.95 13.25 18.2 11.35 Z" fill="none" stroke="#000000" stroke-linecap="round" stroke-linejoin="round" stroke-opacity="0.3019608" stroke-width="0.30000000000000004"/>
      <path d="M14.65 10.85 L14.65 10.8 14.65 10.85 M28.65 7.45 L28.65 7.5 29.75 7.75 30.8 8.05 29.75 7.75 28.65 7.45" fill="#ff9900" fill-rule="evenodd" stroke="none"/>
      <path d="M14.3 4.25 L14.95 4.15 15.7 4.3 16.35 4.8 Q16.95 4.4 19.65 4.75 L21.7 5.05 24.25 5.55 Q20.35 4.0 16.2 3.95 L14.3 4.25 M15.3 4.85 L15.0 4.95 Q14.0 5.05 13.25 6.3 13.85 5.55 14.5 5.8 L14.9 6.0 15.05 6.05 Q16.15 6.9 16.6 9.6 L16.8 11.85 16.85 12.5 16.85 15.0 16.8 15.7 16.75 16.1 Q16.35 20.65 13.95 20.6 12.9 20.45 12.2 19.6 12.3 20.15 13.0 20.7 14.15 21.55 15.15 21.05 16.3 20.25 16.7 18.55 17.4 15.4 17.25 12.0 17.1 9.15 16.35 7.05 15.95 5.9 15.5 5.6 L15.4 5.5 Q14.95 5.15 15.3 4.85 M18.2 13.15 L18.15 15.35 Q18.45 16.75 18.85 16.95 L19.15 16.95 Q18.2 16.0 18.65 13.9 20.0 10.75 21.1 13.4 L21.8 10.45 Q19.25 11.35 18.2 13.15 M10.95 15.5 L10.95 14.7 11.0 13.85 Q9.5 16.35 9.5 19.45 9.5 25.1 14.3 29.45 19.1 33.75 25.75 34.3 32.5 34.75 37.3 31.1 40.95 28.3 41.8 24.25 L42.0 22.55 42.05 21.8 Q42.05 16.2 37.3 11.9 35.35 10.1 33.05 9.0 31.95 8.45 30.8 8.05 L29.75 7.75 28.65 7.5 28.65 7.45 27.8 7.3 26.6 7.1 Q25.3 7.2 24.25 8.3 23.55 9.0 22.9 10.05 26.6 7.4 30.85 8.65 L32.75 9.45 32.9 9.5 Q40.15 13.2 41.3 20.15 L41.35 20.4 41.45 21.5 Q41.85 28.6 34.05 32.45 L33.6 32.6 33.5 32.65 Q26.05 34.95 19.4 31.7 16.4 30.25 13.55 27.65 11.1 25.0 10.25 21.25 L10.05 20.05 Q10.1 17.9 10.5 16.55 L10.95 15.5 M14.65 10.8 L14.45 9.9 Q14.0 7.35 14.45 6.45 L13.9 6.85 13.65 7.3 Q14.05 7.4 14.1 9.8 L14.0 10.8 13.6 11.3 Q13.2 11.45 12.95 10.55 13.0 11.65 13.6 11.85 14.2 11.95 14.65 10.85 L14.65 10.8 M16.1 10.05 L16.0 10.9 Q15.65 11.75 15.1 11.0 L15.6 12.1 Q16.2 12.3 16.5 11.25 16.3 8.8 15.4 7.05 14.7 6.2 14.6 6.95 15.05 7.0 15.35 7.85 16.05 9.15 16.1 10.05" fill="#ffde4f" fill-rule="evenodd" stroke="none"/>
      <path d="M11.45 19.95 L11.4 19.85 11.2 18.75 11.0 17.1 10.95 15.5 10.5 16.55 Q10.0 19.85 10.8 20.85 11.1 21.05 11.4 20.15 L11.45 19.95 M16.1 10.05 Q16.05 9.15 15.35 7.85 15.05 7.0 14.6 6.95 L14.65 8.4 Q14.75 9.65 15.0 10.55 15.8 11.45 16.1 10.05 M16.8 15.7 Q15.25 15.3 14.15 16.0 13.3 16.55 12.7 17.75 L12.4 18.5 12.55 18.9 12.8 18.25 13.15 17.65 Q13.3 19.0 14.25 18.75 15.15 18.5 16.05 17.55 L16.05 16.5 14.4 16.4 Q15.45 15.75 16.75 16.1 L16.8 15.7 M30.85 8.65 Q24.6 7.35 21.25 14.1 L21.1 14.6 Q20.25 18.2 18.35 20.4 17.3 22.1 17.3 24.0 17.35 26.2 20.05 26.7 31.1 27.95 36.5 18.3 37.3 15.75 36.15 13.4 35.2 11.4 32.9 9.55 L32.75 9.45 30.85 8.65 M13.65 7.3 Q13.25 8.35 12.95 9.85 13.25 11.6 14.0 10.8 L14.1 9.8 Q14.05 7.4 13.65 7.3 M31.1 32.9 L31.25 32.85 32.55 32.1 Q33.0 31.6 32.9 31.0 32.75 30.45 32.05 30.25 31.4 30.0 30.55 30.25 29.75 30.45 29.3 31.0 28.8 31.55 28.95 32.1 29.1 32.65 29.75 32.85 L30.55 33.0 31.1 32.9" fill="#ffcc00" fill-rule="evenodd" stroke="none"/>
      <path d="M16.8 11.85 L16.6 9.6 Q16.15 6.9 15.05 6.05 L14.9 6.0 14.75 6.05 14.45 6.45 14.75 6.05 Q14.45 5.95 14.1 6.25 13.15 6.95 12.55 10.1 L12.8 11.55 12.55 10.1 12.05 13.2 12.05 13.3 Q11.85 16.7 12.4 18.5 L12.7 17.75 Q12.45 15.3 12.55 13.55 12.6 12.4 12.8 11.55 L12.95 11.85 13.2 12.05 Q14.25 12.85 14.75 11.2 15.45 13.45 16.55 12.15 L16.8 11.85 M14.65 10.85 L14.75 11.2 14.65 10.85 Q14.2 11.95 13.6 11.85 13.0 11.65 12.95 10.55 L12.9 10.1 12.95 9.85 Q13.25 8.35 13.65 7.3 L13.9 6.85 14.45 6.45 Q14.0 7.35 14.45 9.9 L14.65 10.8 14.65 10.85 M14.6 6.95 Q14.7 6.2 15.4 7.05 16.3 8.8 16.5 11.25 16.2 12.3 15.6 12.1 L15.1 11.0 15.0 10.55 Q14.75 9.65 14.65 8.4 L14.6 6.95" fill="#f4a33c" fill-rule="evenodd" stroke="none"/>
      <path d="M14.95 4.15 L14.3 4.25 Q12.95 5.05 12.15 7.65 L11.75 9.2 Q12.25 9.5 12.6 8.1 L13.1 6.6 13.25 6.3 Q14.0 5.05 15.0 4.95 L15.3 4.85 Q15.95 4.65 14.95 4.15 M19.65 4.75 Q16.95 4.4 16.35 4.8 L15.7 4.3 Q16.6 5.1 17.05 6.85 L17.6 10.3 Q18.2 15.65 17.1 19.55 15.7 22.3 13.8 21.85 12.0 21.0 11.65 19.15 11.2 17.1 11.25 12.0 L11.0 13.85 10.95 14.7 10.95 15.5 11.0 17.1 11.2 18.75 11.4 19.85 11.45 19.95 11.5 20.1 11.6 20.55 Q13.1 22.25 14.6 22.3 17.3 21.8 17.95 17.9 L18.15 15.35 18.2 13.15 17.8 9.35 Q18.95 12.1 22.65 9.55 L20.65 10.45 Q19.75 10.65 18.95 10.1 18.15 9.55 17.55 8.1 L17.4 7.35 17.2 6.55 16.85 5.5 Q17.05 4.8 18.15 4.7 L19.65 4.75 M15.1 11.0 Q15.65 11.75 16.0 10.9 L16.1 10.05 Q15.8 11.45 15.0 10.55 L15.1 11.0 M22.9 10.05 L22.85 10.15 Q22.0 11.7 21.25 14.1 24.6 7.35 30.85 8.65 26.6 7.4 22.9 10.05 M18.35 20.4 L16.2 22.25 16.1 22.3 15.55 22.55 14.75 22.8 Q16.15 22.65 16.25 23.85 L16.45 24.9 Q17.25 27.55 20.6 27.8 30.15 27.95 35.45 20.55 L36.1 19.3 36.5 18.3 Q31.1 27.95 20.05 26.7 17.35 26.2 17.3 24.0 17.3 22.1 18.35 20.4 M12.95 9.85 L12.9 10.1 12.95 10.55 Q13.2 11.45 13.6 11.3 L14.0 10.8 Q13.25 11.6 12.95 9.85 M16.05 17.55 Q15.15 18.5 14.25 18.75 13.3 19.0 13.15 17.65 L12.8 18.25 Q13.6 19.9 14.85 19.1 L16.05 17.55 M11.4 20.15 Q11.1 21.05 10.8 20.85 10.0 19.85 10.5 16.55 10.1 17.9 10.05 20.05 L10.25 21.25 Q10.9 22.3 11.4 20.15" fill="#ffff98" fill-rule="evenodd" stroke="none"/>
      <path d="M14.15 16.0 Q14.05 14.25 12.55 13.55 12.45 15.3 12.7 17.75 13.3 16.55 14.15 16.0 M13.95 20.6 Q16.35 20.65 16.75 16.1 15.45 15.75 14.4 16.4 L16.05 16.5 16.05 17.55 14.85 19.1 Q13.6 19.9 12.8 18.25 L12.55 18.9 Q13.0 20.25 13.95 20.6 M19.4 31.7 Q26.05 34.95 33.5 32.65 L31.25 32.9 31.1 32.9 30.55 33.0 Q23.9 33.35 19.4 31.05 L19.4 31.7 M41.3 20.15 Q40.15 13.2 32.9 9.5 L32.9 9.55 Q35.2 11.4 36.15 13.4 37.3 15.75 36.5 18.3 L36.1 19.3 Q38.1 16.0 36.8 13.05 38.5 14.45 39.65 16.35 40.85 18.25 41.25 20.2 L41.3 20.15" fill="#cc6b22" fill-rule="evenodd" stroke="none"/>
      <path d="M16.8 11.85 L16.55 12.15 Q15.45 13.45 14.75 11.2 14.25 12.85 13.2 12.05 L12.95 11.85 12.8 11.55 Q12.6 12.4 12.55 13.55 14.05 14.25 14.15 16.0 15.25 15.3 16.8 15.7 L16.85 15.0 16.85 12.5 16.8 11.85 M41.45 21.5 L41.35 20.4 41.3 20.15 41.25 20.2 41.45 21.5" fill="#a34100" fill-rule="evenodd" stroke="none"/>
      <path d="M32.9 9.5 L32.75 9.45 32.9 9.55 32.9 9.5" fill="url(#gradient3)" fill-rule="evenodd" stroke="none"/>
      <path d="M31.25 32.85 L31.1 32.9 31.25 32.9 31.25 32.85" fill="url(#gradient4)" fill-rule="evenodd" stroke="none"/>
      <path d="M14.95 4.15 Q15.95 4.65 15.3 4.85 14.95 5.15 15.4 5.5 L15.5 5.6 Q15.95 5.9 16.35 7.05 17.1 9.15 17.25 12.0 17.4 15.4 16.7 18.55 16.3 20.25 15.15 21.05 14.15 21.55 13.0 20.7 12.3 20.15 12.2 19.6 12.9 20.45 13.95 20.6 13.0 20.25 12.55 18.9 L12.4 18.5 Q11.85 16.7 12.05 13.3 L12.05 13.2 12.55 10.1 Q13.15 6.95 14.1 6.25 14.45 5.95 14.75 6.05 L14.9 6.0 14.5 5.8 Q13.85 5.55 13.25 6.3 L13.1 6.6 12.6 8.1 Q12.25 9.5 11.75 9.2 L11.25 12.0 Q11.2 17.1 11.65 19.15 12.0 21.0 13.8 21.85 15.7 22.3 17.1 19.55 18.2 15.65 17.6 10.3 L17.05 6.85 Q16.6 5.1 15.7 4.3 L14.95 4.15 M18.15 4.7 Q17.05 4.8 16.85 5.5 L17.2 6.55 17.4 7.35 Q17.95 8.6 18.8 9.2 L21.55 9.35 23.35 8.5 Q24.8 7.4 23.3 6.2 21.85 5.0 18.15 4.7" fill="url(#gradient5)" fill-rule="evenodd" stroke="none"/>
      <path d="M19.15 16.95 Q20.2 16.7 21.1 13.4 20.0 10.75 18.65 13.9 18.2 16.0 19.15 16.95" fill="url(#gradient6)" fill-rule="evenodd" stroke="none"/>
      <path d="M11.6 20.55 L11.5 20.1 11.45 19.95 11.4 20.15 Q10.9 22.3 10.25 21.25 11.1 25.0 13.55 27.65 16.4 30.25 19.4 31.7 L19.4 31.05 Q23.9 33.35 30.55 33.0 L29.75 32.85 Q29.1 32.65 28.95 32.1 28.8 31.55 29.3 31.0 29.75 30.45 30.55 30.25 31.4 30.0 32.05 30.25 32.75 30.45 32.9 31.0 33.0 31.6 32.55 32.1 L31.25 32.85 31.25 32.9 33.5 32.65 33.6 32.6 34.05 32.45 Q41.85 28.6 41.45 21.5 L41.25 20.2 Q40.85 18.25 39.65 16.35 38.5 14.45 36.8 13.05 38.1 16.0 36.1 19.3 L35.45 20.55 Q30.15 27.95 20.6 27.8 17.25 27.55 16.45 24.9 L16.25 23.85 Q16.15 22.65 14.75 22.8 12.8 23.15 11.65 20.75 L11.6 20.55" fill="url(#gradient7)" fill-rule="evenodd" stroke="none"/>
      <path d="M22.65 9.55 Q18.95 12.1 17.8 9.35 L18.2 13.15 Q19.25 11.35 21.8 10.45 L21.1 13.4 Q20.2 16.7 19.15 16.95 L18.85 16.95 Q18.45 16.75 18.15 15.35 L17.95 17.9 Q17.3 21.8 14.6 22.3 13.1 22.25 11.6 20.55 L11.65 20.75 Q12.8 23.15 14.75 22.8 L15.55 22.55 16.1 22.3 16.2 22.25 18.35 20.4 Q20.25 18.2 21.1 14.6 L21.25 14.1 Q22.0 11.7 22.85 10.15 L22.9 10.05 Q23.55 9.0 24.25 8.3 L22.65 9.55" fill="url(#gradient8)" fill-rule="evenodd" stroke="none"/>
      <path d="M24.25 5.55 L21.7 5.05 19.65 4.75 18.15 4.7 Q21.85 5.0 23.3 6.2 24.8 7.4 23.35 8.5 L21.55 9.35 18.8 9.2 Q17.95 8.6 17.4 7.35 L17.55 8.1 Q18.15 9.55 18.95 10.1 19.75 10.65 20.65 10.45 L22.65 9.55 24.25 8.3 Q25.3 7.2 26.6 7.1 L27.8 7.3 Q26.05 6.25 24.25 5.55" fill="url(#gradient9)" fill-rule="evenodd" stroke="none"/>
      <path d="M11.75 9.2 L12.15 7.65 Q12.95 5.05 14.3 4.25 L16.2 3.95 Q20.35 4.0 24.25 5.55 26.05 6.25 27.8 7.3 L26.6 7.1 Q25.3 7.2 24.25 8.3 23.55 9.0 22.9 10.05 L22.85 10.15 Q22.0 11.7 21.25 14.1 L21.1 14.6 Q20.25 18.2 18.35 20.4 L16.2 22.25 16.1 22.3 15.55 22.55 14.75 22.8 Q12.8 23.15 11.65 20.75 L11.6 20.55 11.5 20.1 11.45 19.95 11.4 19.85 11.2 18.75 11.0 17.1 10.95 15.5 10.95 14.7 11.0 13.85 11.25 12.0 11.75 9.2 M14.9 6.0 L15.05 6.05 Q16.15 6.9 16.6 9.6 L16.8 11.85 16.55 12.15 Q15.45 13.45 14.75 11.2 L14.65 10.85 14.65 10.8 14.45 9.9 Q14.0 7.35 14.45 6.45 L14.75 6.05 14.9 6.0 M16.8 11.85 L16.85 12.5 16.85 15.0 16.8 15.7 Q15.25 15.3 14.15 16.0 13.3 16.55 12.7 17.75 L12.4 18.5 12.55 18.9 Q13.0 20.25 13.95 20.6 16.35 20.65 16.75 16.1 L16.8 15.7 M12.8 11.55 L12.95 11.85 13.2 12.05 Q14.25 12.85 14.75 11.2 M28.65 7.45 L27.8 7.3 M30.8 8.05 Q31.95 8.45 33.05 9.0 35.35 10.1 37.3 11.9 42.05 16.2 42.05 21.8 L42.0 22.55 41.8 24.25 Q40.95 28.3 37.3 31.1 32.5 34.75 25.75 34.3 19.1 33.75 14.3 29.45 9.5 25.1 9.5 19.45 9.5 16.35 11.0 13.85 M30.8 8.05 L29.75 7.75 28.65 7.45 M12.55 10.1 Q13.15 6.95 14.1 6.25 14.45 5.95 14.75 6.05 M12.8 11.55 L12.55 10.1 12.05 13.2 12.05 13.3 Q11.85 16.7 12.4 18.5" fill="none" stroke="#000000" stroke-linecap="round" stroke-linejoin="round" stroke-opacity="0.3019608" stroke-width="0.30000000000000004"/>
      <path d="M4.65 37.95 Q3.65 40.0 5.65 43.0 7.8 46.1 10.4 45.15 L10.75 44.5 Q11.55 42.6 10.05 40.1 L9.6 39.35 8.6 38.1 7.45 37.35 6.55 37.1 Q5.15 37.1 4.65 37.95 M5.4 41.55 L5.0 40.5 Q4.5 38.1 5.85 37.75 7.0 37.3 8.25 38.4 L8.95 39.15 Q11.1 42.25 10.6 43.8 10.35 45.2 8.85 44.9 6.7 44.5 5.4 41.55" fill="#ffde4f" fill-rule="evenodd" stroke="none"/>
      <path d="M13.85 29.1 Q13.25 28.6 12.75 27.35 11.65 24.65 12.4 23.15 13.0 22.0 13.85 21.8 L14.45 21.75 Q13.15 21.4 11.75 22.6 9.45 24.6 9.0 29.05 L9.5 27.4 Q10.1 25.55 10.65 24.6 11.45 23.2 12.4 22.6 L11.9 23.45 Q11.65 24.35 11.9 25.75 L12.1 26.6 12.7 28.45 Q13.8 30.35 15.05 29.6 15.2 29.5 15.3 29.45 L15.25 29.1 Q14.5 29.6 13.85 29.1 M9.95 34.45 L9.6 34.4 Q9.6 36.25 6.8 36.45 5.6 36.55 5.0 37.4 L4.65 37.95 Q5.15 37.1 6.55 37.1 L7.45 37.35 Q7.2 36.8 8.0 36.6 8.75 36.55 9.4 36.1 10.05 35.55 9.95 34.45" fill="#ffff98" fill-rule="evenodd" stroke="none"/>
      <path d="M12.1 26.6 L11.9 25.75 11.4 24.1 Q10.8 24.6 9.85 26.7 9.65 28.55 10.75 28.65 11.95 28.8 12.1 26.6 M10.45 34.7 L10.4 34.65 9.95 34.45 Q10.05 35.55 9.4 36.1 8.75 36.55 8.0 36.6 7.2 36.8 7.45 37.35 L8.6 38.1 Q10.25 37.5 10.25 36.0 L10.45 34.7 M10.4 45.15 L10.95 44.95 Q13.8 43.4 13.4 40.35 L12.55 37.95 Q13.8 42.35 11.6 43.95 L10.75 44.5 10.4 45.15" fill="#ffcc00" fill-rule="evenodd" stroke="none"/>
      <path d="M14.45 21.75 L13.85 21.8 Q13.0 22.0 12.4 23.15 11.65 24.65 12.75 27.35 13.25 28.6 13.85 29.1 12.55 26.55 12.75 25.1 12.85 23.35 13.4 22.4 13.95 21.65 14.85 21.9 L14.45 21.75 M11.9 25.75 Q11.65 24.35 11.9 23.45 L12.4 22.6 Q11.45 23.2 10.65 24.6 10.1 25.55 9.5 27.4 L9.85 26.7 Q10.8 24.6 11.4 24.1 L11.9 25.75 M11.65 36.15 L10.45 34.7 10.25 36.0 Q10.25 37.5 8.6 38.1 L9.6 39.35 Q9.95 37.1 11.1 36.5 L11.65 36.15" fill="#cc6b22" fill-rule="evenodd" stroke="none"/>
      <path d="M15.05 29.6 Q13.8 30.35 12.7 28.45 L12.1 26.6 Q11.95 28.8 10.75 28.65 9.65 28.55 9.85 26.7 L9.5 27.4 9.0 29.05 8.95 29.55 Q8.8 31.95 9.8 33.1 L15.05 29.6" fill="url(#gradient10)" fill-rule="evenodd" stroke="none"/>
      <path d="M14.85 21.9 Q13.95 21.65 13.4 22.4 12.85 23.35 12.75 25.1 12.55 26.55 13.85 29.1 14.5 29.6 15.25 29.1 18.0 27.0 15.0 21.95 L14.85 21.9" fill="#a34100" fill-rule="evenodd" stroke="none"/>
      <path d="M5.4 41.55 Q6.95 43.0 7.85 42.5 9.25 41.5 8.25 38.4 7.0 37.3 5.85 37.75 4.5 38.1 5.0 40.5 L5.4 41.55" fill="url(#gradient11)" fill-rule="evenodd" stroke="none"/>
      <path d="M12.55 37.95 L11.65 36.15 11.1 36.5 Q9.95 37.1 9.6 39.35 L10.05 40.1 Q11.55 42.6 10.75 44.5 L11.6 43.95 Q13.8 42.35 12.55 37.95" fill="url(#gradient12)" fill-rule="evenodd" stroke="none"/>
      <path d="M8.25 38.4 Q9.25 41.5 7.85 42.5 6.95 43.0 5.4 41.55 6.7 44.5 8.85 44.9 10.35 45.2 10.6 43.8 11.1 42.25 8.95 39.15 L8.25 38.4" fill="url(#gradient13)" fill-rule="evenodd" stroke="none"/>
      <path d="M14.45 21.75 L14.85 21.9 15.0 21.95 Q18.0 27.0 15.25 29.1 L15.3 29.45 Q15.2 29.5 15.05 29.6 L9.8 33.1 Q8.8 31.95 8.95 29.55 L9.0 29.05 Q9.45 24.6 11.75 22.6 13.15 21.4 14.45 21.75 M12.55 37.95 L11.65 36.15 10.45 34.7 M10.4 34.65 L9.95 34.45 9.6 34.4 Q9.6 36.25 6.8 36.45 5.6 36.55 5.0 37.4 L4.65 37.95 Q3.65 40.0 5.65 43.0 7.8 46.1 10.4 45.15 L10.95 44.95 Q13.8 43.4 13.4 40.35 L12.55 37.95" fill="none" stroke="#000000" stroke-linecap="round" stroke-linejoin="round" stroke-opacity="0.3019608" stroke-width="0.30000000000000004"/>
      <path d="M11.25 31.9 Q10.45 32.8 9.95 34.0 9.25 35.7 10.2 36.95 L11.05 37.55 Q13.0 38.05 15.0 37.0 L16.9 35.1 Q17.6 34.05 17.9 32.85 17.45 34.1 16.05 35.5 12.5 38.05 10.85 36.15 10.35 35.45 10.35 34.45 10.5 33.3 11.25 31.9" fill="#ffff98" fill-rule="evenodd" stroke="none"/>
      <path d="M9.9 38.5 Q8.95 36.45 9.3 35.75 9.55 34.8 9.95 34.0 10.45 32.8 11.25 31.9 L12.85 30.4 Q14.85 29.2 17.0 29.25 L18.05 29.3 20.2 29.8 Q21.95 30.3 24.25 32.75 25.75 34.3 25.15 36.8 L24.8 38.0 23.95 39.75 Q20.55 44.55 14.05 43.45 L13.25 41.7 11.8 40.4 Q12.65 41.55 13.35 43.65 15.1 44.4 17.25 44.4 20.9 44.25 23.2 41.55 25.55 38.8 25.9 36.25 26.25 33.6 23.65 31.3 21.05 29.1 17.45 28.8 13.9 28.55 11.4 30.65 8.95 32.65 8.7 36.3 9.15 37.6 9.9 38.5" fill="#ffde4f" fill-rule="evenodd" stroke="none"/>
      <path d="M17.0 29.25 Q14.85 29.2 12.85 30.4 L11.25 31.9 Q10.5 33.3 10.35 34.45 10.35 35.45 10.85 36.15 12.5 38.05 16.05 35.5 17.45 34.1 17.9 32.85 L17.9 32.75 Q18.55 30.95 17.0 29.25" fill="#ffcc00" fill-rule="evenodd" stroke="none"/>
      <path d="M13.25 41.7 L14.05 43.45 Q20.55 44.55 23.95 39.75 L24.8 38.0 Q22.05 42.35 16.35 42.55 14.7 42.6 13.25 41.7 M25.15 36.8 Q25.75 34.3 24.25 32.75 21.95 30.3 20.2 29.8 L18.05 29.3 17.0 29.25 Q18.55 30.95 17.9 32.75 L17.9 32.85 Q17.6 34.05 16.9 35.1 19.35 32.5 18.4 30.2 19.6 30.25 21.6 31.35 25.2 33.45 25.15 36.8" fill="#cc6b22" fill-rule="evenodd" stroke="none"/>
      <path d="M9.95 34.0 Q9.55 34.8 9.3 35.75 8.95 36.45 9.9 38.5 L10.8 39.35 11.8 40.4 13.25 41.7 Q14.7 42.6 16.35 42.55 17.95 42.35 18.55 41.45 19.2 39.85 18.05 39.1 17.6 38.8 16.5 38.45 L13.8 38.05 11.05 37.55 10.2 36.95 Q9.25 35.7 9.95 34.0" fill="url(#gradient14)" fill-rule="evenodd" stroke="none"/>
      <path d="M24.8 38.0 L25.15 36.8 Q25.2 33.45 21.6 31.35 19.6 30.25 18.4 30.2 19.35 32.5 16.9 35.1 L15.0 37.0 Q13.0 38.05 11.05 37.55 L13.8 38.05 16.5 38.45 Q17.6 38.8 18.05 39.1 19.2 39.85 18.55 41.45 17.95 42.35 16.35 42.55 22.05 42.35 24.8 38.0" fill="url(#gradient15)" fill-rule="evenodd" stroke="none"/>
      <path d="M9.9 38.5 Q9.15 37.6 8.7 36.3 8.95 32.65 11.4 30.65 13.9 28.55 17.45 28.8 21.05 29.1 23.65 31.3 26.25 33.6 25.9 36.25 25.55 38.8 23.2 41.55 20.9 44.25 17.25 44.4 15.1 44.4 13.35 43.65 12.65 41.55 11.8 40.4 L10.8 39.35 9.9 38.5 Z" fill="none" stroke="#000000" stroke-linecap="round" stroke-linejoin="round" stroke-opacity="0.3019608" stroke-width="0.30000000000000004"/>
      <path d="M13.75 31.55 L13.9 31.55 14.6 30.8 Q14.8 30.4 14.6 30.05 14.4 29.75 13.95 29.7 L13.0 29.95 Q12.5 30.25 12.3 30.65 12.1 31.1 12.3 31.4 L12.9 31.75 13.45 31.7 13.75 31.55" fill="#ffff98" fill-rule="evenodd" stroke="none"/>
      <path d="M24.2 11.25 L24.2 11.3 24.25 11.25 24.2 11.25 M33.0 9.5 L32.95 9.45 32.95 9.5 33.0 9.5" fill="#ff9900" fill-rule="evenodd" stroke="none"/>
      <path d="M35.25 13.05 L35.3 12.65 Q35.3 11.05 34.15 9.75 L33.65 9.25 32.4 8.3 31.7 7.95 Q32.85 8.55 32.95 9.45 L33.0 9.5 33.2 9.7 Q33.9 10.35 34.2 11.1 L34.4 12.4 Q34.4 14.0 33.0 15.05 31.65 16.05 29.7 15.75 27.75 15.5 26.35 14.15 L25.95 13.75 Q25.35 13.05 25.1 12.25 24.1 11.0 24.45 9.95 24.25 10.55 24.2 11.25 L24.25 11.25 24.2 11.3 24.25 11.7 24.5 12.85 Q24.9 13.85 25.85 14.75 27.5 16.3 29.75 16.55 32.05 16.9 33.65 15.75 35.1 14.65 35.25 13.05" fill="#ffde4f" fill-rule="evenodd" stroke="none"/>
      <path d="M31.35 9.75 L31.05 9.45 Q30.55 9.15 30.05 9.0 L29.05 9.05 Q28.55 9.3 28.4 9.7 28.25 10.15 28.75 10.5 L29.0 10.65 28.85 10.25 Q28.85 9.85 29.35 9.65 L30.5 9.55 31.35 9.75 M31.7 7.95 Q30.8 7.5 29.75 7.35 27.5 7.1 25.85 8.25 24.85 8.95 24.45 9.95 24.1 11.0 25.1 12.25 26.5 13.5 28.35 13.75 L30.2 13.7 Q26.15 13.65 24.95 10.9 25.05 9.85 25.85 9.05 L26.35 8.65 Q27.75 7.65 29.7 7.9 30.8 8.05 31.75 8.55 L32.05 8.95 Q33.5 10.7 31.7 13.05 33.05 12.0 33.05 10.4 L32.95 9.5 32.95 9.45 Q32.85 8.55 31.7 7.95" fill="#ffff98" fill-rule="evenodd" stroke="none"/>
      <path d="M29.0 10.65 L28.75 10.5 Q28.25 10.15 28.4 9.7 28.55 9.3 29.05 9.05 L30.05 9.0 Q30.55 9.15 31.05 9.45 L31.35 9.75 31.5 10.2 31.05 10.75 29.9 10.9 29.0 10.65 M30.2 13.7 L31.7 13.05 Q33.5 10.7 32.05 8.95 L31.75 8.55 Q30.8 8.05 29.7 7.9 27.75 7.65 26.35 8.65 L25.85 9.05 Q25.05 9.85 24.95 10.9 26.15 13.65 30.2 13.7" fill="#ffcc00" fill-rule="evenodd" stroke="none"/>
      <path d="M31.35 9.75 L30.5 9.55 29.35 9.65 Q28.85 9.85 28.85 10.25 L29.0 10.65 29.9 10.9 31.05 10.75 31.5 10.2 31.35 9.75" fill="#a34100" fill-rule="evenodd" stroke="none"/>
      <path d="M25.1 12.25 Q25.35 13.05 25.95 13.75 L26.35 14.15 Q27.75 15.5 29.7 15.75 31.65 16.05 33.0 15.05 34.4 14.0 34.4 12.4 L34.2 11.1 Q33.9 10.35 33.2 9.7 L33.0 9.5 32.95 9.5 33.05 10.4 Q33.05 12.0 31.7 13.05 L30.2 13.7 28.35 13.75 Q26.5 13.5 25.1 12.25" fill="url(#gradient16)" fill-rule="evenodd" stroke="none"/>
      <path d="M24.25 11.7 L24.2 12.05 24.2 12.1 Q24.2 12.9 24.5 13.65 24.9 14.65 25.85 15.55 27.5 17.1 29.75 17.35 32.05 17.7 33.65 16.55 35.3 15.35 35.3 13.45 L35.25 13.05 Q35.1 14.65 33.65 15.75 32.05 16.9 29.75 16.55 27.5 16.3 25.85 14.75 24.9 13.85 24.5 12.85 L24.25 11.7" fill="#342018" fill-opacity="0.2509804" fill-rule="evenodd" stroke="none"/>
      <path d="M35.25 13.05 L35.3 12.65 Q35.3 11.05 34.15 9.75 L33.65 9.25 32.4 8.3 31.7 7.95 Q30.8 7.5 29.75 7.35 27.5 7.1 25.85 8.25 24.85 8.95 24.45 9.95 24.25 10.55 24.2 11.25 L24.2 11.3 24.25 11.7 24.5 12.85 Q24.9 13.85 25.85 14.75 27.5 16.3 29.75 16.55 32.05 16.9 33.65 15.75 35.1 14.65 35.25 13.05 Z" fill="none" stroke="#000000" stroke-linecap="round" stroke-linejoin="round" stroke-opacity="0.3019608" stroke-width="0.30000000000000004"/>
      <path d="M16.3 28.6 Q15.65 27.85 15.15 26.9 14.5 25.8 14.1 24.1 14.1 25.9 15.45 28.7 18.05 30.95 20.0 31.4 22.15 31.85 22.1 29.4 21.85 26.35 19.35 24.1 L17.95 23.05 Q17.25 22.7 16.65 22.5 17.6 23.1 18.4 23.8 L20.1 25.5 Q21.9 28.35 21.05 30.05 20.05 31.0 18.25 30.05 L16.3 28.6 M19.05 32.0 L19.9 32.35 Q21.75 33.2 23.2 35.1 24.5 36.75 24.95 34.8 25.4 33.4 24.85 31.95 L23.6 29.3 Q24.6 31.6 24.65 33.5 24.85 35.4 24.05 35.0 23.5 34.7 22.7 33.75 21.9 32.7 20.6 32.25 L19.05 32.0 M21.15 37.5 L21.75 37.7 Q22.85 38.2 21.8 39.2 L21.55 39.4 Q20.35 40.65 17.95 41.05 L19.1 42.35 19.4 42.95 Q20.25 40.9 22.1 39.3 L22.85 38.75 Q23.2 38.6 23.35 38.95 22.8 37.4 21.15 37.5" fill="#cc6b22" fill-rule="evenodd" stroke="none"/>
      <path d="M14.1 24.1 Q14.1 23.5 14.25 23.0 14.85 21.9 16.65 22.5 17.25 22.7 17.95 23.05 L19.35 24.1 Q21.9 26.2 23.6 29.3 L24.85 31.95 Q25.4 33.4 24.95 34.8 24.5 36.75 23.2 35.1 21.75 33.2 19.9 32.35 L19.05 32.0 Q17.25 31.15 15.75 29.2 L15.45 28.7 Q14.1 25.9 14.1 24.1 M14.0 27.3 L16.0 30.65 Q17.4 32.35 19.5 33.2 21.6 34.0 22.75 35.85 23.95 37.65 25.05 36.45 27.3 32.95 22.55 26.25 18.15 21.05 14.45 21.8 12.35 22.95 14.0 27.3 M16.4 40.3 L14.45 40.15 Q13.0 40.0 11.6 41.5 10.65 43.25 12.55 46.15 14.35 48.75 16.95 48.25 L17.65 48.05 18.45 47.7 19.05 47.45 Q23.15 44.45 23.45 39.4 L23.35 38.95 Q23.2 38.6 22.85 38.75 23.2 39.3 23.05 40.15 22.65 42.9 20.4 45.5 L19.3 46.25 Q20.05 44.5 19.4 42.95 L19.1 42.35 17.95 41.05 Q17.25 40.5 16.4 40.3 M15.85 40.75 L16.95 41.05 Q19.45 42.5 18.9 45.5 18.7 47.1 17.05 47.7 15.05 48.1 13.35 46.3 L12.45 45.15 Q11.15 42.25 12.6 41.15 13.9 40.3 15.85 40.75" fill="#ffde4f" fill-rule="evenodd" stroke="none"/>
      <path d="M14.1 24.1 Q14.5 25.8 15.15 26.9 15.65 27.85 16.3 28.6 14.75 25.8 14.95 23.5 15.4 21.7 18.4 23.8 17.6 23.1 16.65 22.5 14.85 21.9 14.25 23.0 14.1 23.5 14.1 24.1 M21.75 37.7 L21.15 37.5 Q20.45 37.5 19.5 37.85 L16.2 39.35 Q14.15 39.4 12.55 40.4 L11.6 41.5 Q13.0 40.0 14.45 40.15 L16.4 40.3 Q16.1 39.85 16.7 39.55 L17.6 39.15 Q20.05 37.85 21.75 37.7" fill="#ffff98" fill-rule="evenodd" stroke="none"/>
      <path d="M18.4 23.8 Q15.4 21.7 14.95 23.5 14.75 25.8 16.3 28.6 L18.25 30.05 Q20.05 31.0 21.05 30.05 21.9 28.35 20.1 25.5 L18.4 23.8 M21.75 37.7 Q20.05 37.85 17.6 39.15 L16.7 39.55 Q16.1 39.85 16.4 40.3 17.25 40.5 17.95 41.05 20.35 40.65 21.55 39.4 L21.8 39.2 Q22.85 38.2 21.75 37.7" fill="#ffcc00" fill-rule="evenodd" stroke="none"/>
      <path d="M12.45 45.15 Q13.55 46.35 14.25 46.4 L14.3 46.4 Q16.4 46.5 17.25 45.1 18.4 42.9 15.85 40.75 13.9 40.3 12.6 41.15 11.15 42.25 12.45 45.15" fill="url(#gradient17)" fill-rule="evenodd" stroke="none"/>
      <path d="M22.85 38.75 L22.1 39.3 Q20.25 40.9 19.4 42.95 20.05 44.5 19.3 46.25 L20.4 45.5 Q22.65 42.9 23.05 40.15 23.2 39.3 22.85 38.75" fill="url(#gradient18)" fill-rule="evenodd" stroke="none"/>
      <path d="M12.45 45.15 L13.35 46.3 Q15.05 48.1 17.05 47.7 18.7 47.1 18.9 45.5 19.45 42.5 16.95 41.05 L15.85 40.75 Q18.4 42.9 17.25 45.1 16.4 46.5 14.3 46.4 L14.25 46.4 Q13.55 46.35 12.45 45.15" fill="url(#gradient19)" fill-rule="evenodd" stroke="none"/>
      <path d="M15.45 28.7 L15.75 29.2 Q17.25 31.15 19.05 32.0 L20.6 32.25 Q21.9 32.7 22.7 33.75 23.5 34.7 24.05 35.0 24.85 35.4 24.65 33.5 24.6 31.6 23.6 29.3 21.9 26.2 19.35 24.1 21.85 26.35 22.1 29.4 22.15 31.85 20.0 31.4 18.05 30.95 15.45 28.7" fill="url(#gradient20)" fill-rule="evenodd" stroke="none"/>
      <path d="M14.0 27.3 L16.0 30.65 Q17.4 32.35 19.5 33.2 21.6 34.0 22.75 35.85 23.95 37.65 25.05 36.45 27.3 32.95 22.55 26.25 18.15 21.05 14.45 21.8 12.35 22.95 14.0 27.3 M11.6 41.5 L12.55 40.4 Q14.15 39.4 16.2 39.35 L19.5 37.85 Q20.45 37.5 21.15 37.5 22.8 37.4 23.35 38.95 L23.45 39.4 Q23.15 44.45 19.05 47.45 L18.45 47.7 17.65 48.05 16.95 48.25 Q14.35 48.75 12.55 46.15 10.65 43.25 11.6 41.5" fill="none" stroke="#000000" stroke-linecap="round" stroke-linejoin="round" stroke-opacity="0.3019608" stroke-width="0.30000000000000004"/>
      <path d="M38.5 20.1 L38.55 20.05 38.5 20.05 37.1 20.3 36.65 20.8 Q37.45 20.25 38.5 20.05 L38.5 20.1" fill="#ff9900" fill-rule="evenodd" stroke="none"/>
      <path d="M44.55 14.45 L42.9 14.65 42.8 14.7 42.5 14.75 42.15 14.85 41.75 14.95 Q44.95 14.5 45.3 15.55 45.85 16.65 44.9 17.5 43.85 18.4 41.7 18.95 L42.05 18.95 43.95 18.65 Q46.35 17.5 46.15 15.95 46.1 14.85 44.55 14.45 M40.05 15.75 L38.9 16.55 38.5 17.35 Q38.65 18.1 39.7 18.5 L40.0 18.65 40.2 18.7 40.05 18.6 Q39.0 17.9 38.85 17.35 38.7 16.7 40.05 15.75 M45.55 20.95 Q46.8 22.4 46.5 23.45 45.8 25.75 41.55 26.3 44.35 26.5 46.0 24.8 L47.05 23.4 Q47.05 21.8 45.55 20.95 M38.35 25.2 Q36.55 23.35 36.65 21.95 36.6 20.85 38.5 20.1 L38.5 20.05 Q37.45 20.25 36.65 20.8 L36.3 21.2 Q36.05 21.75 36.25 22.5 36.9 24.25 38.35 25.2 M34.4 25.6 Q34.0 25.85 33.75 26.25 35.05 25.4 37.6 26.55 36.0 25.35 34.4 25.6 M34.0 29.3 L34.95 30.75 35.2 31.05 36.6 32.2 39.45 32.3 Q40.75 31.55 40.35 29.5 39.7 28.3 38.35 27.15 39.55 28.5 39.85 29.75 40.2 31.25 38.6 31.8 L36.75 31.65 35.75 31.0 34.0 29.3" fill="#ffff98" fill-rule="evenodd" stroke="none"/>
      <path d="M45.75 20.3 Q47.7 18.85 46.85 16.3 46.2 14.6 44.55 14.45 46.1 14.85 46.15 15.95 46.35 17.5 43.95 18.65 L42.05 18.95 42.05 19.05 44.65 18.75 Q46.05 18.2 46.5 17.05 47.1 18.2 45.75 20.3 M41.55 26.3 L40.6 26.15 38.8 25.5 Q41.05 27.0 43.05 26.75 45.3 26.35 45.6 25.95 L44.85 27.0 Q43.75 28.1 40.95 28.1 L42.25 28.15 Q45.85 28.3 46.95 24.2 L47.05 23.4 46.0 24.8 Q44.35 26.5 41.55 26.3 M34.95 30.75 Q35.6 32.45 37.35 32.95 39.2 33.3 40.2 32.1 40.0 33.3 38.0 34.05 38.7 34.1 39.5 33.45 41.05 32.25 40.8 30.65 L40.35 29.5 Q40.75 31.55 39.45 32.3 L36.6 32.2 35.2 31.05 34.95 30.75" fill="#cc6b22" fill-rule="evenodd" stroke="none"/>
      <path d="M41.75 14.95 L42.15 14.85 42.5 14.75 42.8 14.7 42.9 14.65 44.55 14.45 Q46.2 14.6 46.85 16.3 47.7 18.85 45.75 20.3 L43.8 19.7 39.95 19.5 39.8 19.5 38.45 18.65 39.0 19.6 37.85 19.7 37.1 20.3 38.5 20.05 38.55 20.05 39.65 19.95 44.3 20.45 45.55 20.95 Q47.05 21.8 47.05 23.4 L46.95 24.2 Q45.85 28.3 42.25 28.15 L40.95 28.1 40.0 27.9 39.75 27.7 38.05 26.4 36.1 25.25 35.9 25.1 Q35.0 25.15 34.4 25.6 36.0 25.35 37.6 26.55 L37.75 26.65 37.95 26.85 38.35 27.15 Q39.7 28.3 40.35 29.5 L40.8 30.65 Q41.05 32.25 39.5 33.45 38.7 34.1 38.0 34.05 37.15 34.0 36.3 33.45 L35.1 32.4 Q34.05 30.65 33.7 29.05 L33.55 28.2 33.55 28.1 Q33.4 27.2 33.55 26.55 33.2 27.15 33.1 28.0 33.35 32.1 36.1 34.05 L36.15 34.1 Q38.85 35.7 40.75 33.0 42.35 30.9 40.75 28.8 L42.35 28.95 Q46.3 28.8 47.4 24.65 48.25 21.8 46.3 20.6 48.2 19.25 47.5 16.5 46.55 13.15 42.9 14.2 L41.0 14.8 Q39.8 15.25 38.75 15.95 38.1 17.15 38.35 18.35 L38.5 17.35 38.9 16.55 40.05 15.75 40.85 15.3 41.75 14.95 M45.75 20.3 L46.3 20.6 45.75 20.3 M39.95 19.5 L39.8 19.5 39.0 19.6 39.8 19.5 39.95 19.5 M40.0 27.9 L40.75 28.8 40.0 27.9" fill="#ffde4f" fill-rule="evenodd" stroke="none"/>
      <path d="M41.75 14.95 L40.85 15.3 40.05 15.75 Q38.7 16.7 38.85 17.35 39.0 17.9 40.05 18.6 L40.2 18.7 41.7 18.95 Q43.85 18.4 44.9 17.5 45.85 16.65 45.3 15.55 44.95 14.5 41.75 14.95 M45.55 20.95 L44.3 20.45 39.65 19.95 38.55 20.05 38.5 20.1 Q36.6 20.85 36.65 21.95 36.55 23.35 38.35 25.2 L38.8 25.5 40.6 26.15 41.55 26.3 Q45.8 25.75 46.5 23.45 46.8 22.4 45.55 20.95 M33.75 26.25 L33.55 26.55 Q33.4 27.2 33.55 28.1 L33.55 28.2 34.0 29.3 35.75 31.0 36.75 31.65 38.6 31.8 Q40.2 31.25 39.85 29.75 39.55 28.5 38.35 27.15 L37.95 26.85 37.75 26.65 37.6 26.55 Q35.05 25.4 33.75 26.25" fill="#ffcc00" fill-rule="evenodd" stroke="none"/>
      <path d="M38.8 25.5 L38.35 25.2 Q36.9 24.25 36.25 22.5 36.05 21.75 36.3 21.2 35.4 22.65 35.8 24.65 L36.1 25.25 38.05 26.4 39.75 27.7 40.0 27.9 40.95 28.1 Q43.75 28.1 44.85 27.0 L45.6 25.95 Q45.3 26.35 43.05 26.75 41.05 27.0 38.8 25.5" fill="url(#gradient21)" fill-rule="evenodd" stroke="none"/>
      <path d="M33.55 28.2 L33.7 29.05 Q34.05 30.65 35.1 32.4 L36.3 33.45 Q37.15 34.0 38.0 34.05 40.0 33.3 40.2 32.1 39.2 33.3 37.35 32.95 35.6 32.45 34.95 30.75 L34.0 29.3 33.55 28.2" fill="url(#gradient22)" fill-rule="evenodd" stroke="none"/>
      <path d="M38.5 17.35 L38.35 18.35 38.45 18.65 39.8 19.5 39.95 19.5 43.8 19.7 45.75 20.3 Q47.1 18.2 46.5 17.05 46.05 18.2 44.65 18.75 L42.05 19.05 42.05 18.95 41.7 18.95 40.2 18.7 40.0 18.65 39.7 18.5 Q38.65 18.1 38.5 17.35" fill="url(#gradient23)" fill-rule="evenodd" stroke="none"/>
      <path d="M38.75 15.95 Q39.8 15.25 41.0 14.8 L42.9 14.2 Q46.55 13.15 47.5 16.5 48.2 19.25 46.3 20.6 L45.75 20.3 43.8 19.7 39.95 19.5 39.8 19.5 39.0 19.6 37.85 19.7 M35.8 24.65 L36.1 25.25 35.9 25.1 M33.1 28.0 Q33.35 32.1 36.1 34.05 L36.15 34.1 Q38.85 35.7 40.75 33.0 42.35 30.9 40.75 28.8 L42.35 28.95 Q46.3 28.8 47.4 24.65 48.25 21.8 46.3 20.6 M40.0 27.9 L39.75 27.7 38.05 26.4 36.1 25.25 M40.75 28.8 L40.0 27.9" fill="none" stroke="#000000" stroke-linecap="round" stroke-linejoin="round" stroke-opacity="0.3019608" stroke-width="0.30000000000000004"/>
      <path d="M42.8 21.4 Q42.75 21.75 43.05 22.15 L43.95 22.65 44.95 22.65 45.55 22.1 Q45.7 21.7 45.35 21.35 45.05 21.0 44.4 20.8 43.9 20.65 43.4 20.8 42.9 21.0 42.8 21.4" fill="#ffff98" fill-rule="evenodd" stroke="none"/>
      <path d="M42.05 16.3 L42.55 16.75 43.45 16.75 44.2 16.3 Q44.5 15.95 44.4 15.65 L43.95 15.15 43.05 15.15 42.25 15.6 Q41.95 15.95 42.05 16.3" fill="#ffff98" fill-rule="evenodd" stroke="none"/>
      <path d="M37.95 27.95 Q37.7 28.1 37.7 28.4 37.7 28.75 37.85 29.1 L38.4 29.55 38.9 29.6 39.15 29.15 38.95 28.45 38.5 28.0 37.95 27.95" fill="#ffff98" fill-rule="evenodd" stroke="none"/>
      <path d="M7.55 24.3 L8.1 24.25 8.6 23.8 8.75 23.1 8.5 22.7 8.0 22.65 7.5 23.2 7.3 23.85 Q7.35 24.15 7.55 24.3" fill="#ffff98" fill-rule="evenodd" stroke="none"/>
      <path d="M9.45 32.7 L9.45 32.65 9.45 32.7" fill="#ff9900" fill-rule="evenodd" stroke="none"/>
      <path d="M13.25 30.15 Q13.75 30.45 13.75 31.3 L13.9 32.25 13.85 32.55 Q13.65 33.6 12.9 34.3 12.15 35.1 11.25 35.1 10.3 35.1 9.8 34.4 L9.5 33.8 9.4 32.85 9.45 32.7 9.45 32.65 Q9.2 32.25 9.5 31.6 L9.3 32.0 9.1 32.8 9.05 33.2 Q8.95 34.1 9.5 34.8 L9.65 34.95 Q10.25 35.6 11.2 35.6 12.25 35.55 13.15 34.7 14.0 33.85 14.25 32.65 L14.2 31.4 13.95 30.8 13.8 30.6 13.25 30.15" fill="#ffde4f" fill-rule="evenodd" stroke="none"/>
      <path d="M13.25 30.15 Q12.8 29.8 12.15 29.85 11.05 29.9 10.15 30.75 L9.5 31.6 Q9.2 32.25 9.45 32.65 L9.45 32.7 9.7 33.1 Q10.25 33.8 11.2 33.8 9.65 33.4 9.7 32.15 L9.7 31.9 Q9.9 31.35 10.35 30.95 11.1 30.2 12.05 30.15 L12.4 30.2 Q12.95 30.25 13.35 30.7 13.75 32.25 12.0 33.6 L12.85 33.05 Q13.55 32.35 13.75 31.3 13.75 30.45 13.25 30.15 M11.55 31.9 L11.6 31.75 11.5 31.3 11.0 31.25 Q10.7 31.3 10.55 31.55 L10.3 32.05 10.25 32.3 10.55 31.9 Q10.8 31.65 11.05 31.6 L11.5 31.7 11.55 31.9" fill="#ffff98" fill-rule="evenodd" stroke="none"/>
      <path d="M12.0 33.6 Q13.75 32.25 13.35 30.7 12.95 30.25 12.4 30.2 L12.05 30.15 Q11.1 30.2 10.35 30.95 9.9 31.35 9.7 31.9 L9.7 32.15 Q9.65 33.4 11.2 33.8 L12.0 33.6 M10.25 32.3 L10.3 32.05 10.55 31.55 Q10.7 31.3 11.0 31.25 L11.5 31.3 11.6 31.75 11.55 31.9 11.25 32.3 10.7 32.6 10.35 32.55 10.25 32.3" fill="#ffcc00" fill-rule="evenodd" stroke="none"/>
      <path d="M11.55 31.9 L11.5 31.7 11.05 31.6 Q10.8 31.65 10.55 31.9 L10.25 32.3 10.35 32.55 10.7 32.6 11.25 32.3 11.55 31.9" fill="#a34100" fill-rule="evenodd" stroke="none"/>
      <path d="M9.65 34.95 L9.75 35.15 Q10.4 35.95 11.45 35.95 12.55 35.9 13.4 35.05 14.3 34.2 14.5 33.0 L14.45 31.75 14.05 30.95 13.95 30.8 14.2 31.4 14.25 32.65 Q14.0 33.85 13.15 34.7 12.25 35.55 11.2 35.6 10.25 35.6 9.65 34.95" fill="#342018" fill-opacity="0.2509804" fill-rule="evenodd" stroke="none"/>
      <path d="M13.75 31.3 Q13.55 32.35 12.85 33.05 L12.0 33.6 11.2 33.8 Q10.25 33.8 9.7 33.1 L9.45 32.7 9.4 32.85 9.5 33.8 9.8 34.4 Q10.3 35.1 11.25 35.1 12.15 35.1 12.9 34.3 13.65 33.6 13.85 32.55 L13.9 32.25 13.75 31.3" fill="url(#gradient24)" fill-rule="evenodd" stroke="none"/>
      <path d="M9.5 31.6 L10.15 30.75 Q11.05 29.9 12.15 29.85 12.8 29.8 13.25 30.15 L13.8 30.6 13.95 30.8 14.2 31.4 14.25 32.65 Q14.0 33.85 13.15 34.7 12.25 35.55 11.2 35.6 10.25 35.6 9.65 34.95 L9.5 34.8 Q8.95 34.1 9.05 33.2 L9.1 32.8 9.3 32.0 9.5 31.6 Z" fill="none" stroke="#000000" stroke-linecap="round" stroke-linejoin="round" stroke-opacity="0.3019608" stroke-width="0.30000000000000004"/>
    </g>
    <linearGradient gradientTransform="matrix(0.0049, -9.0E-4, -8.0E-4, -0.0042, 12.45, 18.7)" gradientUnits="userSpaceOnUse" id="gradient0" spreadMethod="pad" x1="-819.2" x2="819.2">
      <stop offset="0.0" stop-color="#cc6b22"/>
      <stop offset="1.0" stop-color="#ff9900"/>
    </linearGradient>
    <linearGradient gradientTransform="matrix(0.0054, -0.0019, -9.0E-4, -0.0025, 12.5, 23.95)" gradientUnits="userSpaceOnUse" id="gradient1" spreadMethod="pad" x1="-819.2" x2="819.2">
      <stop offset="0.0" stop-color="#cc6b22"/>
      <stop offset="1.0" stop-color="#ff9900"/>
    </linearGradient>
    <linearGradient gradientTransform="matrix(-0.0028, -7.0E-4, -0.0012, 0.0046, 11.8, 14.45)" gradientUnits="userSpaceOnUse" id="gradient2" spreadMethod="pad" x1="-819.2" x2="819.2">
      <stop offset="0.0" stop-color="#cc6b22"/>
      <stop offset="1.0" stop-color="#ff9900"/>
    </linearGradient>
    <linearGradient gradientTransform="matrix(0.004, -0.007, -0.0172, -0.0099, 26.9, 18.75)" gradientUnits="userSpaceOnUse" id="gradient3" spreadMethod="pad" x1="-819.2" x2="819.2">
      <stop offset="0.0" stop-color="#f4bb35"/>
      <stop offset="1.0" stop-color="#ff9900"/>
    </linearGradient>
    <linearGradient gradientTransform="matrix(-0.0012, -0.002, -0.0151, 0.0087, 29.85, 27.9)" gradientUnits="userSpaceOnUse" id="gradient4" spreadMethod="pad" x1="-819.2" x2="819.2">
      <stop offset="0.0" stop-color="#f4bb35"/>
      <stop offset="1.0" stop-color="#ff9900"/>
    </linearGradient>
    <linearGradient gradientTransform="matrix(-5.0E-4, -0.0037, -0.0065, 0.001, 22.15, 5.9)" gradientUnits="userSpaceOnUse" id="gradient5" spreadMethod="pad" x1="-819.2" x2="819.2">
      <stop offset="0.0" stop-color="#f4bb35"/>
      <stop offset="1.0" stop-color="#ff9900"/>
    </linearGradient>
    <linearGradient gradientTransform="matrix(-5.0E-4, 0.0037, 0.0014, 2.0E-4, 19.5, 16.15)" gradientUnits="userSpaceOnUse" id="gradient6" spreadMethod="pad" x1="-819.2" x2="819.2">
      <stop offset="0.0" stop-color="#f4bb35"/>
      <stop offset="1.0" stop-color="#ff9900"/>
    </linearGradient>
    <linearGradient gradientTransform="matrix(-0.0112, 0.0023, 0.0023, 0.0111, 24.2, 25.05)" gradientUnits="userSpaceOnUse" id="gradient7" spreadMethod="pad" x1="-819.2" x2="819.2">
      <stop offset="0.0" stop-color="#cc6b22"/>
      <stop offset="1.0" stop-color="#ff9900"/>
    </linearGradient>
    <linearGradient gradientTransform="matrix(9.0E-4, -0.0055, -0.0063, -0.001, 17.75, 15.5)" gradientUnits="userSpaceOnUse" id="gradient8" spreadMethod="pad" x1="-819.2" x2="819.2">
      <stop offset="0.0" stop-color="#cc6b22"/>
      <stop offset="1.0" stop-color="#ff9900"/>
    </linearGradient>
    <linearGradient gradientTransform="matrix(0.0043, -0.0022, -0.0018, -0.0036, 22.25, 6.35)" gradientUnits="userSpaceOnUse" id="gradient9" spreadMethod="pad" x1="-819.2" x2="819.2">
      <stop offset="0.0" stop-color="#cc6b22"/>
      <stop offset="1.0" stop-color="#ff9900"/>
    </linearGradient>
    <linearGradient gradientTransform="matrix(0.0, -0.0022, -0.0037, 0.0, 12.0, 29.0)" gradientUnits="userSpaceOnUse" id="gradient10" spreadMethod="pad" x1="-819.2" x2="819.2">
      <stop offset="0.0" stop-color="#f4bb35"/>
      <stop offset="1.0" stop-color="#ff9900"/>
    </linearGradient>
    <linearGradient gradientTransform="matrix(-0.0037, -0.0046, -0.002, 0.0016, 4.5, 37.1)" gradientUnits="userSpaceOnUse" id="gradient11" spreadMethod="pad" x1="-819.2" x2="819.2">
      <stop offset="0.0" stop-color="#f4bb35"/>
      <stop offset="1.0" stop-color="#ff9900"/>
    </linearGradient>
    <linearGradient gradientTransform="matrix(-9.0E-4, -0.0035, -0.002, 5.0E-4, 11.15, 39.4)" gradientUnits="userSpaceOnUse" id="gradient12" spreadMethod="pad" x1="-819.2" x2="819.2">
      <stop offset="0.0" stop-color="#cc6b22"/>
      <stop offset="1.0" stop-color="#ff9900"/>
    </linearGradient>
    <linearGradient gradientTransform="matrix(0.0, -0.0024, -0.0032, 0.0, 8.05, 41.9)" gradientUnits="userSpaceOnUse" id="gradient13" spreadMethod="pad" x1="-819.2" x2="819.2">
      <stop offset="0.0" stop-color="#cc6b22"/>
      <stop offset="1.0" stop-color="#ff9900"/>
    </linearGradient>
    <linearGradient gradientTransform="matrix(0.0053, 0.0014, 0.0011, -0.004, 15.1, 38.95)" gradientUnits="userSpaceOnUse" id="gradient14" spreadMethod="pad" x1="-819.2" x2="819.2">
      <stop offset="0.0" stop-color="#f4bb35"/>
      <stop offset="1.0" stop-color="#ff9900"/>
    </linearGradient>
    <linearGradient gradientTransform="matrix(0.0018, 0.0065, 0.0082, -0.0022, 18.8, 39.05)" gradientUnits="userSpaceOnUse" id="gradient15" spreadMethod="pad" x1="-819.2" x2="819.2">
      <stop offset="0.0" stop-color="#cc6b22"/>
      <stop offset="1.0" stop-color="#ff9900"/>
    </linearGradient>
    <linearGradient gradientTransform="matrix(-0.0032, 0.0018, 0.002, 0.0034, 29.95, 13.15)" gradientUnits="userSpaceOnUse" id="gradient16" spreadMethod="pad" x1="-819.2" x2="819.2">
      <stop offset="0.0" stop-color="#f4bb35"/>
      <stop offset="1.0" stop-color="#ff9900"/>
    </linearGradient>
    <linearGradient gradientTransform="matrix(-0.0045, -0.0063, -0.0027, 0.002, 11.95, 39.65)" gradientUnits="userSpaceOnUse" id="gradient17" spreadMethod="pad" x1="-819.2" x2="819.2">
      <stop offset="0.0" stop-color="#f4bb35"/>
      <stop offset="1.0" stop-color="#ff9900"/>
    </linearGradient>
    <linearGradient gradientTransform="matrix(0.0, -0.0035, -0.0023, 0.0, 21.2, 41.75)" gradientUnits="userSpaceOnUse" id="gradient18" spreadMethod="pad" x1="-819.2" x2="819.2">
      <stop offset="0.0" stop-color="#cc6b22"/>
      <stop offset="1.0" stop-color="#ff9900"/>
    </linearGradient>
    <linearGradient gradientTransform="matrix(4.0E-4, -0.0044, -0.0039, -4.0E-4, 15.9, 43.25)" gradientUnits="userSpaceOnUse" id="gradient19" spreadMethod="pad" x1="-819.2" x2="819.2">
      <stop offset="0.0" stop-color="#cc6b22"/>
      <stop offset="1.0" stop-color="#ff9900"/>
    </linearGradient>
    <linearGradient gradientTransform="matrix(0.0016, 0.0038, 0.0041, -0.0017, 21.8, 34.35)" gradientUnits="userSpaceOnUse" id="gradient20" spreadMethod="pad" x1="-819.2" x2="819.2">
      <stop offset="0.0" stop-color="#cc6b22"/>
      <stop offset="1.0" stop-color="#ff9900"/>
    </linearGradient>
    <linearGradient gradientTransform="matrix(0.0031, 0.0014, 0.0012, -0.0025, 40.25, 25.55)" gradientUnits="userSpaceOnUse" id="gradient21" spreadMethod="pad" x1="-819.2" x2="819.2">
      <stop offset="0.0" stop-color="#cc6b22"/>
      <stop offset="1.0" stop-color="#ff9900"/>
    </linearGradient>
    <linearGradient gradientTransform="matrix(0.0025, 0.002, 0.0013, -0.0017, 37.05, 31.85)" gradientUnits="userSpaceOnUse" id="gradient22" spreadMethod="pad" x1="-819.2" x2="819.2">
      <stop offset="0.0" stop-color="#cc6b22"/>
      <stop offset="1.0" stop-color="#ff9900"/>
    </linearGradient>
    <linearGradient gradientTransform="matrix(0.005, -2.0E-4, -1.0E-4, -0.002, 43.45, 18.75)" gradientUnits="userSpaceOnUse" id="gradient23" spreadMethod="pad" x1="-819.2" x2="819.2">
      <stop offset="0.0" stop-color="#cc6b22"/>
      <stop offset="1.0" stop-color="#ff9900"/>
    </linearGradient>
    <linearGradient gradientTransform="matrix(0.0021, 0.0, 0.0, -0.0023, 11.8, 33.25)" gradientUnits="userSpaceOnUse" id="gradient24" spreadMethod="pad" x1="-819.2" x2="819.2">
      <stop offset="0.0" stop-color="#cc6b22"/>
      <stop offset="1.0" stop-color="#ff9900"/>
    </linearGradient>
    <g id="sprite0" transform="matrix(1.0, 0.0, 0.0, 1.0, 0.0, 0.0)">
      <use height="1.85" transform="matrix(1.0, 0.0, 0.0, 1.0, 0.0, 0.0)" width="3.35" xlink:href="#shape1"/>
    </g>
    <g id="shape1" transform="matrix(1.0, 0.0, 0.0, 1.0, 0.0, 0.0)">
      <path d="M2.85 1.55 L1.65 1.85 0.45 1.55 Q0.0 1.3 0.0 0.9 0.0 0.55 0.45 0.25 L1.65 0.0 2.85 0.25 Q3.35 0.55 3.35 0.9 3.35 1.3 2.85 1.55" fill="#ffffff" fill-rule="evenodd" stroke="none"/>
    </g>
    <g id="sprite1" transform="matrix(1.0, 0.0, 0.0, 1.0, 0.0, 0.0)">
      <use height="26.7" transform="matrix(0.0042, -1.3515, 1.3935, 0.02, 22.09, 56.0263)" width="26.7" xlink:href="#sprite2"/>
      <use height="26.7" transform="matrix(0.0095, -3.0486, 0.372, 0.0053, 36.507, 81.3775)" width="26.7" xlink:href="#sprite2"/>
      <use height="26.7" transform="matrix(3.0486, 0.0095, -0.0053, 0.372, 0.1225, 35.107)" width="26.7" xlink:href="#sprite2"/>
    </g>
    <g id="sprite2" transform="matrix(1.0, 0.0, 0.0, 1.0, 13.35, 13.35)">
      <use height="26.7" transform="matrix(1.0, 0.0, 0.0, 1.0, -13.35, -13.35)" width="26.7" xlink:href="#shape2"/>
    </g>
    <g id="shape2" transform="matrix(1.0, 0.0, 0.0, 1.0, 13.35, 13.35)">
      <path d="M9.3 -9.85 Q13.35 -5.8 13.35 0.0 13.35 5.8 9.3 9.3 5.8 13.35 0.0 13.35 -5.8 13.35 -9.85 9.3 -13.35 5.8 -13.35 0.0 -13.35 -5.8 -9.85 -9.85 -5.8 -13.35 0.0 -13.35 5.8 -13.35 9.3 -9.85" fill="url(#gradient25)" fill-rule="evenodd" stroke="none"/>
    </g>
    <radialGradient cx="0" cy="0" gradientTransform="matrix(0.0213, 0.0, 0.0, 0.0213, 0.0, 0.0)" gradientUnits="userSpaceOnUse" id="gradient25" r="819.2" spreadMethod="pad">
      <stop offset="0.19607843137254902" stop-color="#fee3bc" stop-opacity="0.5372549"/>
      <stop offset="0.5019607843137255" stop-color="#fee3bc" stop-opacity="0.08627451"/>
      <stop offset="0.7607843137254902" stop-color="#ffe3bd" stop-opacity="0.0"/>
    </radialGradient>
  </defs>
</svg>
