<?xml version="1.0" encoding="UTF-8" standalone="no"?>
<svg xmlns:xlink="http://www.w3.org/1999/xlink" height="52.0px" width="52.0px" xmlns="http://www.w3.org/2000/svg">
  <g transform="matrix(1.0, 0.0, 0.0, 1.0, 0.0, 0.0)">
    <use height="54.0" transform="matrix(1.0, 0.0, 0.0, 1.0, -1.0, -1.0)" width="54.0" xlink:href="#shape0"/>
    <use height="26.6" transform="matrix(0.2141, 0.0, 0.0, 0.2141, 9.7, 25.6653)" width="79.2" xlink:href="#sprite0"/>
    <use height="29.0" transform="matrix(1.0, 0.0, 0.0, 1.0, 4.9, 3.3)" width="42.3" xlink:href="#shape2"/>
    <use height="0.0" transform="matrix(0.1837, 0.0, 0.0, 0.1341, 30.8, 14.45)" width="0.0" xlink:href="#sprite1"/>
    <use height="0.0" transform="matrix(0.0324, -0.0562, 0.0611, 0.0353, 14.35, 33.0)" width="0.0" xlink:href="#sprite1"/>
    <use height="81.5" transform="matrix(0.0685, 0.0, 0.0, 0.0685, 12.15, 24.2)" width="81.5" xlink:href="#sprite2"/>
    <use height="0.0" transform="matrix(0.0104, -0.018, 0.0351, 0.0202, 10.75, 26.0)" width="0.0" xlink:href="#sprite1"/>
    <use height="0.0" transform="matrix(0.0147, -0.0147, 0.0286, 0.0286, 24.6, 19.85)" width="0.0" xlink:href="#sprite1"/>
    <use height="81.5" transform="matrix(0.0685, 0.0, 0.0, 0.0685, 21.1, 17.0)" width="81.5" xlink:href="#sprite2"/>
  </g>
  <defs>
    <g id="shape0" transform="matrix(1.0, 0.0, 0.0, 1.0, 1.0, 1.0)">
      <path d="M52.0 0.0 L52.0 52.0 0.0 52.0 0.0 0.0 52.0 0.0" fill="#795fa9" fill-opacity="0.0" fill-rule="evenodd" stroke="none"/>
      <path d="M25.35 6.1 L25.3 6.3 Q22.6 7.35 19.9 9.25 19.0 9.8 17.8 11.45 L16.95 14.55 16.25 18.65 17.1 21.45 18.55 24.25 20.2 25.6 19.1 25.65 19.15 25.7 18.65 25.7 17.0 24.3 15.4 24.45 15.0 25.4 14.05 25.45 13.6 25.05 6.65 23.95 5.35 24.95 5.45 26.4 7.55 28.45 9.65 28.95 9.75 28.95 9.5 29.05 7.15 34.65 7.45 35.15 6.05 37.1 5.3 41.4 7.35 44.25 10.15 43.5 11.3 41.7 11.15 40.95 10.95 39.8 13.45 40.7 12.3 44.6 14.0 48.45 17.85 47.7 18.7 45.1 17.1 41.6 17.3 40.1 19.0 39.25 20.65 36.3 21.4 32.3 22.9 30.55 21.6 35.9 21.45 40.45 22.6 41.9 26.1 40.5 27.35 37.65 26.45 35.7 26.15 30.6 27.35 31.65 27.8 31.7 28.7 31.8 29.95 31.85 31.3 31.85 35.15 29.95 35.25 29.9 46.75 19.05 45.75 14.0 40.35 7.95 39.65 7.45 39.45 7.35 Q37.55 6.15 35.2 5.05 L35.05 5.0 34.35 4.9 32.45 4.85 32.4 4.7 Q32.1 4.3 31.0 3.95 L28.0 4.0 Q26.5 4.4 25.85 5.2 L25.35 6.1 M7.4 26.1 L8.7 26.8 9.25 26.55 8.35 25.65 7.25 25.5 7.4 26.1" fill="none" stroke="#000000" stroke-linecap="round" stroke-linejoin="round" stroke-opacity="0.3019608" stroke-width="1.0"/>
      <path d="M6.0 37.55 L6.1 37.1 7.45 37.65 7.65 38.8 7.9 40.65 5.9 41.2 7.55 40.2 7.15 38.05 6.0 37.55 M13.4 41.9 L13.05 43.95 15.15 44.9 12.25 44.6 13.1 41.9 13.4 41.9" fill="#d7f16b" fill-rule="evenodd" stroke="none"/>
      <path d="M6.0 37.55 L7.15 38.05 7.55 40.2 5.9 41.2 5.6 41.3 5.35 41.4 5.6 41.3 7.5 43.95 9.65 43.35 10.15 41.9 10.15 43.55 7.35 44.25 5.35 41.4 6.0 37.55 M13.4 41.9 L15.95 41.9 17.15 41.15 17.1 41.6 15.15 44.9 13.05 43.95 13.4 41.9" fill="#9ae17b" fill-rule="evenodd" stroke="none"/>
      <path d="M5.9 41.2 L7.9 40.65 10.15 41.9 9.65 43.35 7.5 43.95 5.6 41.3 5.9 41.2 M7.45 37.65 L6.1 37.1 6.65 36.3 7.45 37.65 M12.25 44.6 L15.15 44.9 15.15 46.65 14.0 48.45 12.25 44.6" fill="#75d74a" fill-rule="evenodd" stroke="none"/>
      <path d="M7.9 40.65 L7.65 38.8 11.15 40.95 11.3 41.7 10.15 41.9 7.9 40.65 M13.7 39.9 L13.4 41.9 13.1 41.9 13.7 39.9 M15.15 44.9 L17.1 41.6 18.7 45.15 17.85 47.7 15.15 46.65 15.15 44.9" fill="#246c41" fill-rule="evenodd" stroke="none"/>
      <path d="M7.65 38.8 L7.45 37.65 6.65 36.3 8.0 34.45 9.65 35.7 10.7 36.55 Q10.75 39.05 11.15 40.95 L7.65 38.8 M11.3 41.7 L10.15 43.55 10.15 41.9 11.3 41.7 M17.15 41.15 L15.95 41.9 13.4 41.9 13.7 39.9 13.9 39.35 17.55 38.7 17.15 41.15 M9.65 35.7 L7.45 37.65 9.65 35.7 M15.15 46.65 L17.85 47.7 14.0 48.45 15.15 46.65" fill="#206039" fill-rule="evenodd" stroke="none"/>
      <path d="M6.1 37.1 L6.0 37.55 5.35 41.4 5.6 41.3 5.9 41.2 7.9 40.65 7.65 38.8 7.45 37.65 6.1 37.1 6.65 36.3 8.0 34.45 9.65 35.7 10.7 36.55 Q10.75 39.05 11.15 40.95 L11.3 41.7 10.15 43.55 7.35 44.25 5.35 41.4 M10.15 41.9 L7.9 40.65 M17.15 41.15 L17.55 38.7 13.9 39.35 13.7 39.9 13.1 41.9 12.25 44.6 15.15 44.9 15.15 46.65 17.85 47.7 18.7 45.15 17.1 41.6 17.15 41.15 M15.15 44.9 L17.1 41.6 M7.45 37.65 L9.65 35.7 M10.15 43.55 L10.15 41.9 11.3 41.7 M15.15 46.65 L14.0 48.45 17.85 47.7 M14.0 48.45 L12.25 44.6" fill="none" stroke="#000000" stroke-linecap="round" stroke-linejoin="round" stroke-opacity="0.3019608" stroke-width="0.30000000000000004"/>
      <path d="M9.35 29.5 L9.3 29.85 10.05 33.0 11.25 34.7 14.0 34.0 15.65 31.2 14.75 34.3 10.7 35.3 9.2 32.5 7.15 34.65 9.35 29.5 M16.15 29.5 L15.05 26.0 16.4 28.5 20.65 26.35 16.15 29.5 M9.3 29.85 L9.2 32.5 9.3 29.85" fill="#d7f16b" fill-rule="evenodd" stroke="none"/>
      <path d="M9.35 29.5 L9.5 29.1 15.05 26.0 16.15 29.5 15.65 31.2 14.0 34.0 11.25 34.7 10.05 33.0 9.3 29.85 9.35 29.5 M15.05 26.0 L21.3 25.55 21.55 25.7 20.65 26.35 16.4 28.5 15.05 26.0 M20.65 36.35 L19.0 39.25 16.15 40.7 18.75 38.9 19.9 36.2 18.0 34.1 15.55 34.1 18.3 33.45 20.65 36.35 M10.2 39.55 L10.05 39.45 9.6 38.7 10.3 37.35 10.3 35.15 9.0 33.6 7.15 34.65 9.2 32.5 10.7 35.3 10.7 36.75 10.7 37.4 10.7 36.75 14.55 40.9 10.7 37.4 10.2 39.55" fill="#9ae17b" fill-rule="evenodd" stroke="none"/>
      <path d="M15.65 31.2 L16.15 29.5 20.65 26.35 21.55 25.7 25.15 28.0 23.25 30.15 20.25 32.15 18.3 33.45 15.55 34.1 14.75 34.3 15.65 31.2 M9.6 38.7 L7.15 34.65 9.0 33.6 10.3 35.15 10.3 37.35 9.6 38.7" fill="#75d74a" fill-rule="evenodd" stroke="none"/>
      <path d="M21.4 32.3 L20.65 36.35 18.3 33.45 20.25 32.15 21.4 32.3 M14.95 41.3 L10.2 39.55 10.7 37.4 14.55 40.9 14.95 41.3" fill="#246c41" fill-rule="evenodd" stroke="none"/>
      <path d="M23.25 30.15 L21.4 32.3 20.25 32.15 23.25 30.15 M16.15 40.7 L14.95 41.3 14.55 40.9 10.7 36.75 10.7 35.3 14.75 34.3 15.55 34.1 18.0 34.1 19.9 36.2 18.75 38.9 16.15 40.7" fill="#206039" fill-rule="evenodd" stroke="none"/>
      <path d="M15.05 26.0 L9.5 29.1 9.35 29.5 9.3 29.85 9.2 32.5 7.15 34.65 9.35 29.5 M15.65 31.2 L16.15 29.5 15.05 26.0 21.3 25.55 21.55 25.7 25.15 28.0 23.25 30.15 21.4 32.3 20.65 36.35 19.0 39.25 16.15 40.7 14.95 41.3 10.2 39.55 10.05 39.45 9.6 38.7 7.15 34.65 M20.65 26.35 L21.55 25.7 M18.3 33.45 L15.55 34.1 14.75 34.3 15.65 31.2 M23.25 30.15 L20.25 32.15 21.4 32.3 M16.15 29.5 L20.65 26.35 M20.25 32.15 L18.3 33.45 20.65 36.35 M10.7 36.75 L10.7 35.3 9.2 32.5 M10.7 37.4 L10.7 36.75 M14.55 40.9 L14.95 41.3 M14.75 34.3 L10.7 35.3 M14.55 40.9 L10.7 37.4 10.2 39.55" fill="none" stroke="#000000" stroke-linecap="round" stroke-linejoin="round" stroke-opacity="0.3019608" stroke-width="0.30000000000000004"/>
      <path d="M23.15 29.45 L22.95 32.35 23.75 32.15 25.4 30.05 23.8 32.5 22.4 32.7 22.05 35.6 23.2 38.05 25.3 38.95 26.25 36.55 25.5 39.55 23.15 38.6 21.65 35.9 22.4 32.7 23.15 29.45" fill="#d7f16b" fill-rule="evenodd" stroke="none"/>
      <path d="M26.05 29.1 L25.4 30.05 23.75 32.15 22.95 32.35 23.15 29.45 Q23.8 27.85 24.65 27.5 L26.05 29.1 M23.8 32.5 L26.35 34.2 26.45 35.7 26.25 36.55 25.3 38.95 23.2 38.05 22.05 35.6 22.4 32.7 23.8 32.5 M25.05 40.95 L22.6 41.9 21.45 40.45 21.65 35.9 23.15 38.6 21.95 37.1 21.95 40.15 22.65 41.3 25.05 40.95" fill="#9ae17b" fill-rule="evenodd" stroke="none"/>
      <path d="M25.5 39.55 L26.1 40.5 25.15 40.9 25.05 40.95 22.65 41.3 21.95 40.15 21.95 37.1 23.15 38.6 25.5 39.55" fill="#75d74a" fill-rule="evenodd" stroke="none"/>
      <path d="M25.4 30.05 L26.05 29.1 26.35 34.2 23.8 32.5 25.4 30.05" fill="#339328" fill-rule="evenodd" stroke="none"/>
      <path d="M26.25 36.55 L26.45 35.7 27.35 37.65 26.1 40.5 25.5 39.55 26.25 36.55" fill="#246c41" fill-rule="evenodd" stroke="none"/>
      <path d="M25.4 30.05 L26.05 29.1 24.65 27.5 Q23.8 27.85 23.15 29.45 L22.4 32.7 21.65 35.9 23.15 38.6 25.5 39.55 26.1 40.5 27.35 37.65 26.45 35.7 26.35 34.2 26.05 29.1 M25.4 30.05 L23.8 32.5 26.35 34.2 M26.25 36.55 L26.45 35.7 M26.25 36.55 L25.5 39.55 M25.05 40.95 L22.6 41.9 21.45 40.45 21.65 35.9 M26.1 40.5 L25.15 40.9 M23.8 32.5 L22.4 32.7" fill="none" stroke="#000000" stroke-linecap="round" stroke-linejoin="round" stroke-opacity="0.3019608" stroke-width="0.30000000000000004"/>
      <path d="M17.65 28.8 L16.35 29.15 15.65 28.75 16.1 28.25 Q16.4 28.05 16.85 28.0 L17.65 28.6 17.65 28.8 M14.65 28.2 L14.0 27.8 14.55 27.45 14.65 27.55 15.05 27.7 15.45 27.75 15.5 27.75 15.55 27.7 15.65 27.6 15.65 27.55 15.5 27.4 15.75 27.4 16.1 27.55 15.65 27.9 15.35 28.0 14.65 28.2 M13.05 29.95 L14.1 30.45 14.55 30.65 Q15.5 30.8 15.9 30.15 16.1 30.95 14.55 30.95 L11.6 29.45 Q11.7 28.85 12.75 28.65 L12.9 28.6 13.3 28.75 13.5 28.8 13.65 28.85 12.95 28.8 12.65 28.85 Q12.1 29.0 11.9 29.4 L13.05 29.95 M13.65 29.05 L13.75 29.25 13.55 29.4 13.35 29.4 13.15 29.35 13.0 29.3 12.8 29.15 12.7 29.05 12.65 28.95 Q12.7 28.85 12.9 28.8 L13.25 28.85 13.3 28.85 13.45 28.9 13.65 29.0 13.65 29.05 M11.55 31.7 L12.65 32.3 13.35 32.65 Q14.05 32.3 14.0 31.75 L14.2 31.85 Q14.45 32.65 13.4 32.95 L10.35 31.35 Q9.95 30.5 11.2 30.25 L11.6 30.4 11.1 30.4 Q10.45 30.75 10.6 31.2 L11.5 31.7 11.55 31.7 M12.0 31.1 L11.85 31.2 11.8 31.2 11.7 31.25 11.4 31.2 11.05 31.0 10.95 30.9 10.9 30.8 11.1 30.65 11.55 30.7 11.85 30.85 11.9 30.85 12.0 31.0 12.0 31.1 M13.35 34.0 Q13.75 34.85 12.45 35.1 L11.8 34.85 11.4 34.6 10.55 34.2 10.5 34.15 10.25 34.0 9.5 33.5 Q9.2 32.7 10.3 32.4 L10.95 32.75 11.0 32.8 10.2 32.65 Q9.7 32.85 9.7 33.3 L10.35 33.85 10.6 34.0 10.9 34.15 11.5 34.45 11.55 34.45 11.9 34.55 12.0 34.6 12.5 34.75 Q13.3 34.7 13.35 34.0 M10.95 33.15 L11.1 33.4 10.9 33.5 10.75 33.5 10.6 33.5 10.55 33.5 10.5 33.5 10.1 33.3 10.0 33.2 10.0 33.1 10.2 32.95 10.6 33.0 10.65 33.0 10.8 33.05 10.9 33.1 10.95 33.15 M17.45 25.85 L17.85 26.0 18.9 26.7 18.75 27.15 Q18.55 27.4 17.95 27.55 L17.8 27.45 Q16.7 26.85 16.75 26.5 16.8 26.1 17.45 25.85 M17.55 26.15 Q17.3 26.15 17.2 26.3 L17.2 26.7 17.6 27.05 18.1 27.15 18.4 27.0 18.45 26.85 18.4 26.65 18.05 26.3 Q17.75 26.15 17.55 26.15 M19.6 27.3 L19.85 27.55 Q19.7 27.85 18.85 27.9 L18.65 27.85 Q19.0 27.3 19.6 27.3 M21.7 26.05 L21.3 25.9 20.9 25.85 20.75 25.95 20.7 26.0 20.85 26.2 21.2 26.4 21.3 26.4 21.6 26.4 21.8 26.3 21.7 26.05 M23.05 27.3 L21.8 27.3 22.0 27.05 Q22.35 26.8 23.0 26.65 L23.35 26.95 23.05 27.3 M20.75 26.75 L20.0 26.1 Q20.1 25.9 20.55 25.75 L21.0 25.65 22.2 26.2 22.2 26.3 21.65 26.65 21.6 26.7 20.75 26.75" fill="#ffde4f" fill-rule="evenodd" stroke="none"/>
      <path d="M15.65 28.75 L14.65 28.2 15.35 28.0 15.65 27.9 16.1 27.55 16.85 28.0 Q16.4 28.05 16.1 28.25 L15.65 28.75 M14.3 29.15 Q14.3 29.6 13.2 29.9 L13.05 29.95 11.9 29.4 Q12.1 29.0 12.65 28.85 L12.95 28.8 13.65 28.85 14.3 29.15 M14.1 30.45 Q14.25 29.85 15.35 29.75 L15.9 30.15 Q15.5 30.8 14.55 30.65 L14.1 30.45 M13.65 29.05 L13.65 29.0 13.45 28.9 13.3 28.85 13.25 28.85 12.9 28.8 Q12.7 28.85 12.65 28.95 L12.7 29.05 12.8 29.15 13.0 29.3 13.15 29.35 13.35 29.4 13.55 29.4 13.75 29.25 13.65 29.05 M12.7 30.95 Q12.65 31.45 11.6 31.7 L11.55 31.7 11.5 31.7 10.6 31.2 Q10.45 30.75 11.1 30.4 L11.6 30.4 11.95 30.55 12.2 30.65 12.7 30.95 M12.65 32.3 Q12.75 31.85 13.2 31.65 L13.65 31.5 14.0 31.75 Q14.05 32.3 13.35 32.65 L12.65 32.3 M12.0 31.1 L12.0 31.0 11.9 30.85 11.85 30.85 11.55 30.7 11.1 30.65 10.9 30.8 10.95 30.9 11.05 31.0 11.4 31.2 11.7 31.25 11.8 31.2 11.85 31.2 12.0 31.1 M13.35 34.0 Q13.3 34.7 12.5 34.75 L12.0 34.6 Q11.9 33.95 12.45 33.55 L13.35 34.0 M10.9 34.15 L10.6 34.0 10.35 33.85 9.7 33.3 Q9.7 32.85 10.2 32.65 L11.0 32.8 11.35 32.95 Q11.4 33.7 10.9 34.15 M10.95 33.15 L10.9 33.1 10.8 33.05 10.65 33.0 10.6 33.0 10.2 32.95 10.0 33.1 10.0 33.2 10.1 33.3 10.5 33.5 10.55 33.5 10.6 33.5 10.75 33.5 10.9 33.5 11.1 33.4 10.95 33.15 M13.05 36.65 Q13.25 37.35 12.1 37.65 L11.1 37.3 10.4 37.0 10.05 36.85 9.55 36.55 9.1 36.3 9.05 36.05 Q9.05 35.7 9.4 35.45 L9.9 35.15 10.55 35.45 9.85 35.45 Q9.25 35.7 9.35 36.15 L9.6 36.35 10.15 36.7 10.4 36.85 10.85 37.05 11.15 37.15 11.75 37.3 12.05 37.4 Q12.85 37.2 13.05 36.65 M10.5 35.7 L10.55 35.7 10.65 35.85 10.65 35.95 10.55 36.05 10.45 36.05 10.05 36.05 9.8 35.95 9.7 35.85 9.6 35.75 9.55 35.65 9.75 35.5 9.95 35.5 10.2 35.55 10.45 35.65 10.5 35.7 M10.4 37.7 L10.35 37.75 10.25 37.9 10.35 37.9 10.6 37.9 10.9 38.05 10.95 38.05 10.95 38.1 11.1 38.3 10.9 38.45 10.8 38.45 10.5 38.4 10.3 38.35 10.1 38.25 10.1 38.2 10.05 38.7 11.2 39.15 12.2 39.55 12.35 39.6 Q12.95 39.55 13.2 39.0 13.4 39.65 12.35 39.95 L10.55 39.25 10.25 39.1 9.65 38.75 Q9.4 38.1 10.35 37.75 L10.4 37.7 M17.95 27.55 Q18.55 27.4 18.75 27.15 L18.9 26.7 19.05 26.8 19.6 27.3 Q19.0 27.3 18.65 27.85 L17.95 27.55 M21.8 27.3 L21.2 27.0 20.75 26.75 21.6 26.7 21.65 26.65 22.2 26.3 22.2 26.2 22.3 26.25 23.0 26.65 Q22.35 26.8 22.0 27.05 L21.8 27.3" fill="#f4a33c" fill-rule="evenodd" stroke="none"/>
      <path d="M14.3 29.15 L14.6 29.3 15.35 29.75 Q14.25 29.85 14.1 30.45 L13.05 29.95 13.2 29.9 Q14.3 29.6 14.3 29.15 M12.7 30.95 L12.85 31.05 13.35 31.35 13.65 31.5 13.2 31.65 Q12.75 31.85 12.65 32.3 L11.55 31.7 11.6 31.7 Q12.65 31.45 12.7 30.95 M12.0 34.6 L11.9 34.55 11.55 34.45 11.5 34.45 10.9 34.15 Q11.4 33.7 11.35 32.95 L12.45 33.55 Q11.9 33.95 12.0 34.6 M13.05 36.65 Q12.85 37.2 12.05 37.4 L11.75 37.3 Q11.4 36.6 11.8 36.0 L12.95 36.5 13.05 36.65 M10.85 37.05 L10.4 36.85 10.15 36.7 9.6 36.35 9.35 36.15 Q9.25 35.7 9.85 35.45 L10.55 35.45 10.65 35.5 10.75 35.7 Q11.05 36.4 10.85 37.05 M10.5 35.7 L10.45 35.65 10.2 35.55 9.95 35.5 9.75 35.5 9.55 35.65 9.6 35.75 9.7 35.85 9.8 35.95 10.05 36.05 10.45 36.05 10.55 36.05 10.65 35.95 10.65 35.85 10.55 35.7 10.5 35.7 M11.2 39.15 L10.05 38.7 10.1 38.2 10.1 38.25 10.3 38.35 10.5 38.4 10.8 38.45 10.9 38.45 11.1 38.3 10.95 38.1 10.95 38.05 10.9 38.05 10.6 37.9 10.35 37.9 10.25 37.9 10.35 37.75 10.4 37.7 11.1 38.0 Q11.5 38.55 11.2 39.15 M13.2 39.0 Q12.95 39.55 12.35 39.6 L12.2 39.55 Q11.85 38.85 12.1 38.45 L13.15 38.9 13.2 39.0" fill="#cc6b22" fill-rule="evenodd" stroke="none"/>
      <path d="M17.65 28.8 L17.25 29.25 16.15 29.4 13.45 27.9 13.9 27.4 14.2 27.25 14.7 27.1 14.9 27.05 15.75 27.4 15.5 27.4 15.65 27.55 15.65 27.6 15.55 27.7 15.5 27.75 15.45 27.75 15.05 27.7 14.65 27.55 14.55 27.45 14.0 27.8 14.65 28.2 15.65 28.75 16.35 29.15 17.65 28.8 M17.45 25.85 Q16.8 26.1 16.75 26.5 16.7 26.85 17.8 27.45 L17.95 27.55 18.65 27.85 18.85 27.9 Q19.7 27.85 19.85 27.55 L19.6 27.3 19.05 26.8 18.9 26.7 17.85 26.0 Q19.1 26.5 20.2 27.4 L20.2 27.65 Q20.1 28.05 19.4 28.15 L18.7 28.2 16.05 26.7 16.45 26.2 Q16.8 25.95 17.45 25.85 M17.55 26.15 Q17.75 26.15 18.05 26.3 L18.4 26.65 18.45 26.85 18.4 27.0 18.1 27.15 17.6 27.05 17.2 26.7 17.2 26.3 Q17.3 26.15 17.55 26.15 M21.7 26.05 L21.8 26.3 21.6 26.4 21.3 26.4 21.2 26.4 20.85 26.2 20.7 26.0 20.75 25.95 20.9 25.85 21.3 25.9 21.7 26.05 M23.05 27.3 L22.45 27.4 21.75 27.4 19.4 26.2 Q19.65 25.85 20.5 25.7 L21.0 25.65 20.55 25.75 Q20.1 25.9 20.0 26.1 L20.75 26.75 21.2 27.0 21.8 27.3 23.05 27.3" fill="#ffff98" fill-rule="evenodd" stroke="none"/>
      <path d="M11.75 37.3 L11.15 37.15 10.85 37.05 Q11.05 36.4 10.75 35.7 L10.65 35.5 11.8 36.0 Q11.4 36.6 11.75 37.3 M12.2 39.55 L11.2 39.15 Q11.5 38.55 11.1 38.0 L12.1 38.45 Q11.85 38.85 12.2 39.55" fill="#a34100" fill-rule="evenodd" stroke="none"/>
      <path d="M15.75 27.4 L14.9 27.05 14.7 27.1 14.2 27.25 13.9 27.4 13.45 27.9 16.15 29.4 17.25 29.25 17.65 28.8 17.65 28.6 16.85 28.0 16.1 27.55 15.75 27.4 M15.35 29.75 L14.6 29.3 14.3 29.15 13.65 28.85 13.5 28.8 13.3 28.75 12.9 28.6 12.75 28.65 Q11.7 28.85 11.6 29.45 L14.55 30.95 Q16.1 30.95 15.9 30.15 L15.35 29.75 M13.65 31.5 L13.35 31.35 12.85 31.05 12.7 30.95 12.2 30.65 11.95 30.55 11.6 30.4 11.2 30.25 Q9.95 30.5 10.35 31.35 L13.4 32.95 Q14.45 32.65 14.2 31.85 L14.0 31.75 13.65 31.5 M11.0 32.8 L10.95 32.75 10.3 32.4 Q9.2 32.7 9.5 33.5 L10.25 34.0 10.5 34.15 10.55 34.2 11.4 34.6 11.8 34.85 12.45 35.1 Q13.75 34.85 13.35 34.0 L12.45 33.55 11.35 32.95 11.0 32.8 M10.55 35.45 L9.9 35.15 9.4 35.45 Q9.05 35.7 9.05 36.05 L9.1 36.3 9.55 36.55 10.05 36.85 10.4 37.0 11.1 37.3 12.1 37.65 Q13.25 37.35 13.05 36.65 L12.95 36.5 11.8 36.0 10.65 35.5 10.55 35.45 M10.4 37.7 L10.35 37.75 Q9.4 38.1 9.65 38.75 L10.25 39.1 10.55 39.25 12.35 39.95 Q13.4 39.65 13.2 39.0 L13.15 38.9 12.1 38.45 11.1 38.0 10.4 37.7 M17.85 26.0 L17.45 25.85 Q16.8 25.95 16.45 26.2 L16.05 26.7 18.7 28.2 19.4 28.15 Q20.1 28.05 20.2 27.65 L20.2 27.4 Q19.1 26.5 17.85 26.0 M21.0 25.65 L20.5 25.7 Q19.65 25.85 19.4 26.2 L21.75 27.4 22.45 27.4 23.05 27.3 23.35 26.95 23.0 26.65 22.3 26.25 22.2 26.2 21.0 25.65" fill="none" stroke="#000000" stroke-linecap="round" stroke-linejoin="round" stroke-opacity="0.3019608" stroke-width="0.30000000000000004"/>
    </g>
    <g id="sprite0" transform="matrix(1.0, 0.0, 0.0, 1.0, 0.0, 4.6)">
      <use height="26.6" transform="matrix(1.0, 0.0, 0.0, 1.0, 0.0, -4.6)" width="79.2" xlink:href="#shape1"/>
    </g>
    <g id="shape1" transform="matrix(1.0, 0.0, 0.0, 1.0, 0.0, 4.6)">
      <path d="M44.0 -4.6 L51.6 -4.6 70.25 6.1 79.2 18.7 64.0 11.85 62.5 14.6 62.75 14.9 54.75 8.35 44.0 -4.6 M37.25 0.25 L40.75 3.5 34.75 5.75 27.25 11.75 19.0 22.0 5.0 22.0 0.0 13.5 Q10.65 3.15 23.25 0.0 L26.5 3.1 37.25 0.25 M9.75 17.0 L16.75 17.0 20.75 10.5 14.8 8.25 8.75 12.5 9.75 17.0" fill="#49432e" fill-opacity="0.49019608" fill-rule="evenodd" stroke="none"/>
    </g>
    <g id="shape2" transform="matrix(1.0, 0.0, 0.0, 1.0, -4.9, -3.3)">
      <path d="M12.4 24.85 L13.6 25.05 14.05 25.45 14.8 26.2 15.0 26.4 15.2 26.6 15.1 27.1 15.0 27.6 14.95 26.8 9.75 27.6 9.65 28.9 9.25 27.4 14.6 26.65 13.95 26.75 13.6 26.5 12.75 25.7 12.4 24.85 M14.4 25.45 L15.0 25.4 15.2 25.35 15.3 25.35 15.5 25.35 16.05 25.85 16.6 26.4 15.35 26.3 14.4 25.45 M15.4 24.45 L16.0 24.4 Q17.8 24.95 17.55 25.5 L16.85 25.4 16.65 25.35 15.45 24.5 15.4 24.45 M7.55 28.45 L5.55 26.5 5.65 25.3 7.1 26.9 7.55 28.45 M11.75 26.95 L9.2 27.15 8.9 27.05 10.25 26.15 8.95 24.95 7.65 24.9 7.1 24.9 7.2 26.1 8.55 26.95 7.45 26.65 5.8 25.1 6.6 24.1 10.6 24.8 10.75 24.9 11.15 25.25 11.8 26.3 11.75 26.95" fill="#ffde4f" fill-rule="evenodd" stroke="none"/>
      <path d="M14.05 25.45 L14.4 25.45 15.35 26.3 14.8 26.2 14.05 25.45 M16.0 24.4 L17.0 24.3 18.65 25.7 17.55 25.5 Q17.8 24.95 16.0 24.4 M18.65 25.75 L18.05 27.05 17.45 27.0 17.55 26.55 18.05 25.7 18.65 25.75 M16.65 26.95 L16.35 26.9 16.1 27.45 15.35 27.2 15.5 26.4 16.6 26.45 16.6 26.4 16.05 25.85 16.15 25.95 16.6 25.55 17.15 25.6 Q17.3 25.9 17.05 26.45 L17.0 26.55 16.95 26.65 16.65 26.95 M9.65 28.95 L7.55 28.45 7.55 27.0 9.25 27.4 9.65 28.9 9.65 28.95 M10.25 26.15 L9.25 26.55 8.35 25.65 8.95 24.95 10.25 26.15 M16.35 26.9 L16.6 26.45 16.35 26.9" fill="#f4a33c" fill-rule="evenodd" stroke="none"/>
      <path d="M10.85 24.6 L12.4 24.85 12.75 25.7 13.6 26.5 13.95 26.75 13.15 26.8 11.75 26.95 11.8 26.3 Q11.8 25.6 11.4 25.1 L11.0 24.75 10.85 24.6 M17.45 27.0 L16.65 26.95 16.95 26.65 17.0 26.55 17.05 26.45 17.25 26.1 17.35 25.6 18.05 25.7 17.55 26.55 17.45 27.0 M15.0 27.6 L9.65 28.95 9.65 28.9 9.75 27.6 14.95 26.8 15.0 27.6 M8.95 24.95 L8.35 25.65 7.7 25.55 7.55 25.25 7.55 25.15 7.65 24.9 8.95 24.95 M16.05 25.85 L15.5 25.35 15.3 25.35 15.2 25.35 Q15.4 24.65 15.55 24.75 L16.45 25.45 16.15 25.95 16.05 25.85" fill="#cc6b22" fill-rule="evenodd" stroke="none"/>
      <path d="M5.55 26.5 L5.45 26.4 5.35 24.95 6.65 23.95 10.85 24.6 11.0 24.75 11.4 25.1 Q11.8 25.6 11.8 26.3 L11.15 25.25 10.75 24.9 10.6 24.8 6.6 24.1 5.8 25.1 7.45 26.65 8.55 26.95 7.2 26.1 7.1 24.9 7.25 25.5 7.4 26.1 8.7 26.8 9.25 26.55 10.25 26.15 8.9 27.05 9.2 27.15 11.75 26.95 13.15 26.8 13.95 26.75 14.6 26.65 9.25 27.4 7.55 27.0 7.55 28.45 7.1 26.9 5.65 25.3 5.55 26.5 M15.0 25.4 L15.4 24.45 15.45 24.5 16.65 25.35 16.85 25.4 17.55 25.5 18.65 25.7 18.65 25.75 18.05 25.7 17.35 25.6 17.25 26.1 17.05 26.45 Q17.3 25.9 17.15 25.6 L16.6 25.55 16.15 25.95 16.45 25.45 15.55 24.75 Q15.4 24.65 15.2 25.35 L15.0 25.4 M15.0 26.4 L14.8 26.2 15.35 26.3 16.6 26.4 16.6 26.45 15.5 26.4 15.0 26.4" fill="#ffff98" fill-rule="evenodd" stroke="none"/>
      <path d="M15.35 27.2 L15.1 27.1 15.2 26.6 15.0 26.4 15.5 26.4 15.35 27.2 M7.25 25.5 L7.1 24.9 7.65 24.9 7.55 25.15 7.55 25.25 7.7 25.55 7.25 25.5" fill="#984d1b" fill-rule="evenodd" stroke="none"/>
      <path d="M5.55 26.5 L5.45 26.4 5.35 24.95 6.65 23.95 10.85 24.6 12.4 24.85 13.6 25.05 14.05 25.45 14.4 25.45 15.0 25.4 15.4 24.45 16.0 24.4 17.0 24.3 18.65 25.7 18.65 25.75 18.05 27.05 17.45 27.0 16.65 26.95 16.35 26.9 16.1 27.45 15.35 27.2 15.1 27.1 15.0 27.6 9.65 28.95 7.55 28.45 5.55 26.5 M10.25 26.15 L9.25 26.55 8.7 26.8 7.4 26.1 7.25 25.5 7.1 24.9 M7.7 25.55 L8.35 25.65 9.25 26.55 M7.7 25.55 L7.25 25.5 M15.2 25.35 L15.3 25.35 15.5 25.35 16.05 25.85 16.6 26.4 16.6 26.45 16.35 26.9 M15.2 25.35 L15.0 25.4 M15.1 27.1 L15.2 26.6 15.0 26.4 14.8 26.2 14.05 25.45 M9.65 28.9 L9.65 28.95" fill="none" stroke="#000000" stroke-linecap="round" stroke-linejoin="round" stroke-opacity="0.3019608" stroke-width="0.30000000000000004"/>
      <path d="M22.65 17.8 L24.45 17.9 24.3 20.35 23.05 20.35 22.85 20.15 23.9 19.8 23.9 18.55 22.65 17.8 M29.65 22.85 L29.85 24.8 29.2 22.95 29.65 22.85 M26.1 21.45 L24.65 19.95 24.55 18.9 26.0 19.45 28.95 22.35 28.55 22.8 26.1 21.45 M27.0 22.4 L28.0 23.2 28.1 24.75 27.6 24.55 27.6 23.6 25.4 21.2 27.0 22.4" fill="#c13a02" fill-rule="evenodd" stroke="none"/>
      <path d="M24.3 20.35 L25.4 21.2 27.6 23.6 27.6 24.55 26.25 24.0 23.05 20.35 24.3 20.35" fill="#872801" fill-rule="evenodd" stroke="none"/>
      <path d="M24.45 17.9 L26.25 19.15 29.15 22.1 29.65 22.85 29.2 22.95 28.15 23.2 28.55 22.8 28.95 22.35 26.0 19.45 24.55 18.9 24.65 19.95 26.1 21.45 27.0 22.4 25.4 21.2 24.3 20.35 24.45 17.9" fill="#fb5915" fill-rule="evenodd" stroke="none"/>
      <path d="M21.35 18.45 L21.95 17.8 22.55 17.8 22.65 17.8 23.9 18.55 23.9 19.8 22.85 20.15 21.35 18.45 M29.85 24.8 L29.95 25.5 28.5 24.9 28.1 24.75 28.0 23.2 27.0 22.4 26.1 21.45 28.55 22.8 28.15 23.2 29.2 22.95 29.85 24.8 M28.15 23.2 L28.0 23.2 28.15 23.2" fill="#5c2501" fill-rule="evenodd" stroke="none"/>
      <path d="M19.7 13.6 L20.7 17.7 21.35 18.45 22.85 20.15 23.05 20.35 26.25 24.0 24.9 23.9 23.9 23.85 24.95 23.3 20.3 17.95 19.7 13.6 M35.45 23.0 L31.7 21.2 33.9 16.75 36.15 12.25 32.35 5.45 36.4 11.65 40.4 7.95 45.75 14.05 45.8 14.15 41.85 14.15 44.7 13.6 42.95 11.05 40.35 8.65 38.6 9.9 38.25 10.35 36.8 12.1 32.8 20.6 35.45 23.0 M17.8 11.45 Q19.0 9.85 19.9 9.25 L18.5 12.95 19.9 9.25 Q24.45 6.1 29.1 5.2 L25.0 6.8 27.45 11.4 31.4 14.7 27.55 12.35 28.0 15.6 26.8 11.25 24.4 7.1 20.45 9.25 19.1 12.8 19.65 17.6 21.55 21.65 19.15 17.85 18.5 12.95 17.8 11.45 M31.3 31.85 L29.95 31.85 28.7 31.8 30.95 31.0 30.7 27.75 27.4 25.15 31.55 27.15 31.3 31.85 M27.8 31.7 L27.35 31.65 18.55 24.25 25.75 29.35 21.85 22.15 22.9 23.8 27.8 31.7 M17.1 21.45 L16.25 18.65 16.95 14.6 17.0 16.85 17.1 21.45 M36.15 12.25 L36.4 11.65 36.15 12.25" fill="#d7f16b" fill-rule="evenodd" stroke="none"/>
      <path d="M20.65 11.45 L19.7 13.6 20.3 17.95 24.95 23.3 23.9 23.85 22.9 23.8 21.85 22.15 21.8 22.1 21.55 21.7 21.55 21.65 19.65 17.6 19.1 12.8 20.45 9.25 24.4 7.1 26.8 11.25 28.0 15.6 28.05 15.8 28.15 16.7 22.75 10.8 20.65 11.45 M29.95 25.5 L31.55 25.65 35.7 24.45 36.35 23.45 36.1 24.9 34.85 25.25 34.9 25.95 35.8 25.6 40.0 22.9 39.35 15.9 40.7 22.5 44.7 20.35 35.9 26.1 35.1 26.3 32.2 27.0 34.3 26.15 33.6 25.6 32.4 25.95 30.55 26.15 28.5 24.9 29.95 25.5 M29.1 5.2 L31.95 4.85 32.35 5.45 36.15 12.25 33.9 16.75 31.4 14.7 27.45 11.4 25.0 6.8 29.1 5.2 M18.55 24.25 L17.1 21.45 17.0 16.85 17.5 21.25 18.3 22.0 19.05 19.3 18.55 24.25 M38.25 10.35 L38.6 9.9 40.35 8.65 42.95 11.05 44.7 13.6 41.85 14.15 39.05 14.15 38.25 10.35" fill="#9ae17b" fill-rule="evenodd" stroke="none"/>
      <path d="M23.2 12.35 L22.25 11.35 20.65 11.45 22.75 10.8 28.15 16.7 28.05 15.8 28.0 15.6 27.55 12.35 31.4 14.7 33.9 16.75 31.7 21.2 23.2 12.35 M31.95 4.85 L34.35 4.9 35.05 5.0 35.2 5.05 Q37.55 6.15 39.45 7.35 L40.4 7.95 36.4 11.65 32.35 5.45 31.95 4.85 M45.8 14.15 L46.75 19.05 44.7 20.35 40.7 22.5 39.35 15.9 39.05 14.15 41.85 14.15 45.8 14.15 M35.25 29.9 L35.15 30.0 35.1 26.3 35.9 26.1 35.25 29.9 M26.25 24.0 L27.6 24.55 28.1 24.75 28.5 24.9 30.55 26.15 32.4 25.95 33.6 25.6 34.3 26.15 32.2 27.0 31.55 27.15 27.4 25.15 27.35 25.1 24.9 23.9 26.25 24.0 M19.05 19.3 L19.15 17.85 21.55 21.65 21.55 21.7 21.8 22.1 21.85 22.15 25.75 29.35 18.55 24.25 19.05 19.3" fill="#75d74a" fill-rule="evenodd" stroke="none"/>
      <path d="M36.35 23.45 L35.45 23.0 32.8 20.6 36.8 12.1 38.25 10.35 39.05 14.15 39.35 15.9 40.0 22.9 35.8 25.6 34.9 25.95 34.85 25.25 36.1 24.9 36.35 23.45 M17.8 11.45 L18.5 12.95 19.15 17.85 19.05 19.3 18.3 22.0 17.5 21.25 17.0 16.85 16.95 14.6 17.8 11.45 M35.15 30.0 L31.3 31.85 31.55 27.15 32.2 27.0 35.1 26.3 35.15 30.0" fill="#339328" fill-rule="evenodd" stroke="none"/>
      <path d="M23.2 12.35 L21.05 12.15 19.7 13.6 20.65 11.45 22.25 11.35 23.2 12.35 M28.7 31.8 L27.8 31.7 22.9 23.8 23.9 23.85 24.9 23.9 27.35 25.1 27.4 25.15 30.7 27.75 30.95 31.0 28.7 31.8" fill="#246c41" fill-rule="evenodd" stroke="none"/>
      <path d="M46.75 19.05 L35.25 29.9 35.9 26.1 44.7 20.35 46.75 19.05" fill="#206039" fill-rule="evenodd" stroke="none"/>
      <path d="M19.7 13.6 L21.05 12.15 23.2 12.35 31.7 21.2 35.45 23.0 36.35 23.45 35.7 24.45 31.55 25.65 29.95 25.5 29.85 24.8 29.65 22.85 29.15 22.1 26.25 19.15 24.45 17.9 22.65 17.8 22.55 17.8 21.95 17.8 21.35 18.45 20.7 17.7 19.7 13.6" fill="#0d2616" fill-rule="evenodd" stroke="none"/>
      <path d="M19.7 13.6 L21.05 12.15 23.2 12.35 22.25 11.35 20.65 11.45 19.7 13.6 20.7 17.7 21.35 18.45 21.95 17.8 22.55 17.8 M22.65 17.8 L24.45 17.9 26.25 19.15 29.15 22.1 29.65 22.85 29.85 24.8 29.95 25.5 31.55 25.65 35.7 24.45 36.35 23.45 35.45 23.0 31.7 21.2 23.2 12.35 M19.9 9.25 Q19.0 9.85 17.8 11.45 L18.5 12.95 19.9 9.25 Q24.45 6.1 29.1 5.2 L31.95 4.85 34.35 4.9 35.05 5.0 35.2 5.05 Q37.55 6.15 39.45 7.35 L40.4 7.95 45.75 14.05 45.8 14.15 46.75 19.05 35.25 29.9 35.15 30.0 31.3 31.85 29.95 31.85 28.7 31.8 27.8 31.7 27.35 31.65 18.55 24.25 17.1 21.45 16.25 18.65 16.95 14.6 17.8 11.45 M32.35 5.45 L31.95 4.85 M33.9 16.75 L36.15 12.25 36.4 11.65 40.4 7.95 M32.35 5.45 L36.4 11.65 M44.7 20.35 L46.75 19.05 M44.7 20.35 L35.9 26.1 35.25 29.9 M28.15 23.2 L29.2 22.95 29.65 22.85 M27.0 22.4 L28.0 23.2 28.15 23.2 M24.3 20.35 L25.4 21.2 27.0 22.4 M24.45 17.9 L24.3 20.35 23.05 20.35 26.25 24.0 27.6 24.55 28.1 24.75 28.5 24.9 29.95 25.5 M31.55 27.15 L32.2 27.0 35.1 26.3 35.9 26.1 M27.4 25.15 L31.55 27.15 31.3 31.85 M24.9 23.9 L27.35 25.1 M26.25 24.0 L24.9 23.9 23.9 23.85 22.9 23.8 27.8 31.7 M28.0 23.2 L28.1 24.75 M31.7 21.2 L33.9 16.75 M19.15 17.85 L18.5 12.95 M17.0 16.85 L16.95 14.6 M19.05 19.3 L19.15 17.85 21.55 21.65 M21.55 21.7 L21.8 22.1 M21.85 22.15 L22.9 23.8 M23.05 20.35 L22.85 20.15 21.35 18.45 M17.1 21.45 L17.0 16.85 M18.55 24.25 L19.05 19.3" fill="none" stroke="#000000" stroke-linecap="round" stroke-linejoin="round" stroke-opacity="0.3019608" stroke-width="0.30000000000000004"/>
      <path d="M25.6 6.45 L25.6 6.4 25.65 6.4 25.6 6.45" fill="#141516" fill-rule="evenodd" stroke="none"/>
      <path d="M25.35 6.1 L25.6 6.4 25.65 6.35 Q25.6 6.2 25.7 6.0 L26.15 5.25 Q26.75 4.6 28.1 4.2 L30.75 4.15 31.7 4.5 Q31.95 5.35 29.05 6.5 L29.05 6.55 28.85 6.6 26.5 6.7 25.65 6.4 25.6 6.4 25.6 6.45 Q25.7 6.95 26.65 7.1 L29.0 6.9 Q30.3 6.6 31.2 6.0 32.0 5.55 32.05 5.1 L32.1 5.1 32.4 4.7 32.5 4.95 Q32.55 5.55 31.55 6.2 30.55 6.9 29.05 7.25 L26.45 7.4 Q25.35 7.2 25.3 6.6 25.25 6.35 25.35 6.1 M36.7 16.8 Q36.75 17.75 37.4 18.5 38.25 19.4 39.5 19.4 40.8 19.4 41.8 18.5 42.8 17.6 42.9 16.35 43.0 15.6 42.75 15.0 L42.95 14.15 Q43.65 15.1 43.5 16.35 43.35 17.85 42.15 18.95 41.0 20.0 39.45 20.0 37.95 20.0 36.95 18.9 36.0 17.8 36.1 16.3 L36.15 16.15 36.45 16.5 36.7 16.8 36.7 16.3 36.75 16.15 Q36.9 14.95 37.8 14.1 38.8 13.2 40.1 13.2 41.4 13.25 42.2 14.15 L42.35 14.3 Q42.3 16.9 38.95 17.6 L38.8 17.6 Q37.55 17.55 36.7 16.8" fill="#2d2f31" fill-rule="evenodd" stroke="none"/>
      <path d="M29.05 6.55 Q30.55 6.2 31.55 5.5 L32.05 5.1 Q32.0 5.55 31.2 6.0 30.3 6.6 29.0 6.9 L26.65 7.1 Q25.7 6.95 25.6 6.45 L25.65 6.4 26.5 6.7 28.85 6.6 29.05 6.55 M42.75 15.0 Q43.0 15.6 42.9 16.35 42.8 17.6 41.8 18.5 40.8 19.4 39.5 19.4 38.25 19.4 37.4 18.5 36.75 17.75 36.7 16.8 37.55 17.55 38.8 17.6 L38.95 17.6 Q40.45 17.65 41.65 16.55 42.4 15.9 42.75 15.0" fill="#000000" fill-rule="evenodd" stroke="none"/>
      <path d="M36.7 16.8 L36.45 16.5 36.15 16.15 Q36.3 14.7 37.45 13.7 38.6 12.65 40.15 12.65 41.7 12.65 42.65 13.75 L42.95 14.15 42.75 15.0 Q42.4 15.9 41.65 16.55 40.45 17.65 38.95 17.6 42.3 16.9 42.35 14.3 L42.2 14.15 Q41.4 13.25 40.1 13.2 38.8 13.2 37.8 14.1 36.9 14.95 36.75 16.15 L36.7 16.3 36.7 16.8" fill="#4a4d4f" fill-rule="evenodd" stroke="none"/>
      <path d="M25.35 6.1 L25.85 5.2 Q26.5 4.4 28.0 4.0 L31.0 3.95 Q32.1 4.3 32.4 4.7 L32.1 5.1 32.05 5.1 31.55 5.5 Q30.55 6.2 29.05 6.55 L29.05 6.5 Q31.95 5.35 31.7 4.5 L30.75 4.15 28.1 4.2 Q26.75 4.6 26.15 5.25 L25.7 6.0 Q25.6 6.2 25.65 6.35 L25.6 6.4 25.35 6.1" fill="#3e4142" fill-rule="evenodd" stroke="none"/>
      <path d="M32.4 4.7 Q32.1 4.3 31.0 3.95 L28.0 4.0 Q26.5 4.4 25.85 5.2 L25.35 6.1 Q25.25 6.35 25.3 6.6 25.35 7.2 26.45 7.4 L29.05 7.25 Q30.55 6.9 31.55 6.2 32.55 5.55 32.5 4.95 L32.4 4.7 M36.15 16.15 L36.1 16.3 Q36.0 17.8 36.95 18.9 37.95 20.0 39.45 20.0 41.0 20.0 42.15 18.95 43.35 17.85 43.5 16.35 43.65 15.1 42.95 14.15 L42.65 13.75 Q41.7 12.65 40.15 12.65 38.6 12.65 37.45 13.7 36.3 14.7 36.15 16.15" fill="none" stroke="#000000" stroke-linecap="round" stroke-linejoin="round" stroke-opacity="0.3019608" stroke-width="0.30000000000000004"/>
    </g>
    <g id="sprite2" transform="matrix(1.0, 0.0, 0.0, 1.0, 0.0, 0.0)">
      <use height="26.7" transform="matrix(0.0042, -1.3515, 1.3935, 0.02, 22.09, 56.0263)" width="26.7" xlink:href="#sprite3"/>
      <use height="26.7" transform="matrix(0.0095, -3.0486, 0.372, 0.0053, 36.507, 81.3775)" width="26.7" xlink:href="#sprite3"/>
      <use height="26.7" transform="matrix(3.0486, 0.0095, -0.0053, 0.372, 0.1225, 35.107)" width="26.7" xlink:href="#sprite3"/>
    </g>
    <g id="sprite3" transform="matrix(1.0, 0.0, 0.0, 1.0, 13.35, 13.35)">
      <use height="26.7" transform="matrix(1.0, 0.0, 0.0, 1.0, -13.35, -13.35)" width="26.7" xlink:href="#shape3"/>
    </g>
    <g id="shape3" transform="matrix(1.0, 0.0, 0.0, 1.0, 13.35, 13.35)">
      <path d="M9.3 -9.85 Q13.35 -5.8 13.35 0.0 13.35 5.8 9.3 9.3 5.8 13.35 0.0 13.35 -5.8 13.35 -9.85 9.3 -13.35 5.8 -13.35 0.0 -13.35 -5.8 -9.85 -9.85 -5.8 -13.35 0.0 -13.35 5.8 -13.35 9.3 -9.85" fill="url(#gradient0)" fill-rule="evenodd" stroke="none"/>
    </g>
    <radialGradient cx="0" cy="0" gradientTransform="matrix(0.0213, 0.0, 0.0, 0.0213, 0.0, 0.0)" gradientUnits="userSpaceOnUse" id="gradient0" r="819.2" spreadMethod="pad">
      <stop offset="0.19607843137254902" stop-color="#fee3bc" stop-opacity="0.5372549"/>
      <stop offset="0.5019607843137255" stop-color="#fee3bc" stop-opacity="0.08627451"/>
      <stop offset="0.7607843137254902" stop-color="#ffe3bd" stop-opacity="0.0"/>
    </radialGradient>
  </defs>
</svg>
