<?xml version="1.0" encoding="UTF-8" standalone="no"?>
<svg xmlns:xlink="http://www.w3.org/1999/xlink" height="52.0px" width="52.0px" xmlns="http://www.w3.org/2000/svg">
  <g transform="matrix(1.0, 0.0, 0.0, 1.0, 0.0, 0.0)">
    <use height="54.0" transform="matrix(1.0, 0.0, 0.0, 1.0, -1.0, -1.0)" width="54.0" xlink:href="#shape0"/>
    <use height="0.0" transform="matrix(0.212, 0.0457, 0.0, 0.1004, 29.6, 28.05)" width="0.0" xlink:href="#sprite0"/>
    <use height="38.65" transform="matrix(1.0, 0.0, 0.0, 1.0, 4.15, 9.9)" width="43.65" xlink:href="#shape1"/>
    <use height="0.0" transform="matrix(0.1244, 0.0166, 0.0, 0.0413, 19.05, 43.2)" width="0.0" xlink:href="#sprite0"/>
    <use height="0.0" transform="matrix(0.0613, 0.0132, -0.0255, 0.0926, 28.9, 33.75)" width="0.0" xlink:href="#sprite0"/>
    <use height="0.0" transform="matrix(0.1162, 0.0084, -0.0064, 0.0493, 14.4, 33.55)" width="0.0" xlink:href="#sprite0"/>
    <use height="0.0" transform="matrix(0.1032, 0.0075, -0.0047, 0.0363, 26.6, 16.35)" width="0.0" xlink:href="#sprite0"/>
    <use height="0.0" transform="matrix(0.031, 0.0022, -0.0113, 0.0733, 15.65, 9.8)" width="0.0" xlink:href="#sprite0"/>
    <use height="0.0" transform="matrix(0.0542, 0.0188, -0.0299, 0.0679, 41.75, 19.05)" width="0.0" xlink:href="#sprite0"/>
    <use height="81.5" transform="matrix(0.1415, 0.0, 0.0, 0.1488, 19.5, 20.75)" width="81.5" xlink:href="#sprite1"/>
    <use height="81.5" transform="matrix(0.1415, 0.0, 0.0, 0.1488, 35.5, 17.6)" width="81.5" xlink:href="#sprite1"/>
    <use height="81.5" transform="matrix(0.1415, 0.0, 0.0, 0.1488, 24.2, 33.4)" width="81.5" xlink:href="#sprite1"/>
  </g>
  <defs>
    <g id="shape0" transform="matrix(1.0, 0.0, 0.0, 1.0, 1.0, 1.0)">
      <path d="M52.0 0.0 L52.0 52.0 0.0 52.0 0.0 0.0 52.0 0.0" fill="#795fa9" fill-opacity="0.0" fill-rule="evenodd" stroke="none"/>
      <path d="M4.25 24.7 L5.5 24.45 7.05 27.0 7.05 27.85 4.6 26.45 4.25 24.7" fill="#00cc66" fill-rule="evenodd" stroke="none"/>
      <path d="M18.65 4.55 L18.4 4.3 16.7 4.4 14.45 6.6 13.0 9.4 Q12.4 10.8 11.95 12.35 L11.65 13.3 11.85 15.35 11.0 15.65 Q9.15 16.3 7.55 17.15 L6.15 17.75 4.7 21.1 5.0 22.25 7.05 25.45 8.7 26.1 8.15 26.85 9.0 27.85 12.6 29.75 12.4 30.15 7.8 29.65 6.85 30.3 4.65 34.85 4.75 36.45 4.6 36.8 6.0 39.95 15.55 46.05 20.35 47.3 28.0 48.1 31.0 47.1 31.25 46.6 31.6 46.85 32.6 46.1 32.75 45.45 32.75 44.75 32.45 44.5 32.9 43.7 33.45 43.4 33.8 42.95 33.95 42.3 33.95 41.65 32.35 40.25 33.3 37.75 33.75 35.7 43.5 36.8 Q45.15 35.8 45.85 34.6 L46.25 33.85 46.4 32.65 46.1 30.25 45.5 29.35 46.15 27.55 46.3 25.0 45.55 24.7 44.05 26.25 43.75 26.4 42.75 24.9 46.7 19.3 47.35 13.75 46.85 10.55 46.45 10.55 46.1 11.55 45.9 10.7 44.85 10.35 43.65 11.25 41.65 15.2 38.35 18.15 33.7 14.35 Q28.9 12.55 23.7 13.0 L23.45 13.7 20.4 13.8 19.55 13.9 19.25 12.75 19.1 7.8 19.7 5.0 18.95 4.15 18.65 4.55 M4.25 24.7 L5.5 24.45 7.05 27.0 7.05 27.85 4.6 26.45 4.25 24.7" fill="none" stroke="#000000" stroke-linecap="round" stroke-linejoin="round" stroke-opacity="0.3019608" stroke-width="1.0"/>
      <path d="M18.65 4.55 L18.95 4.15 19.7 5.0 19.1 7.8 19.25 12.75 17.15 8.45 18.5 4.7 18.65 4.55 M11.65 13.3 L14.1 11.1 14.7 17.2 12.15 18.05 11.65 13.3" fill="#cac960" fill-rule="evenodd" stroke="none"/>
      <path d="M18.5 4.7 L17.15 8.45 17.5 16.35 15.5 16.95 14.8 11.0 16.85 6.8 17.75 5.65 18.5 4.7" fill="#e6e4b3" fill-rule="evenodd" stroke="none"/>
      <path d="M14.45 6.6 L15.95 7.9 14.75 9.95 11.95 12.35 Q12.4 10.8 13.0 9.4 L14.45 6.6" fill="#ece8c6" fill-rule="evenodd" stroke="none"/>
      <path d="M18.65 4.55 L18.5 4.7 17.75 5.65 18.4 4.3 18.65 4.55 M17.15 8.45 L19.25 12.75 19.95 15.5 17.5 16.35 17.15 8.45 M46.0 24.9 L46.3 25.0 46.15 27.55 45.2 30.15 42.2 33.35 41.9 31.5 44.8 28.55 45.25 28.05 46.0 24.9" fill="#a6a637" fill-rule="evenodd" stroke="none"/>
      <path d="M15.5 16.95 L14.7 17.2 14.1 11.1 11.65 13.3 11.95 12.35 14.75 9.95 15.95 7.9 14.45 6.6 16.4 7.35 16.85 6.8 14.8 11.0 15.5 16.95 M42.7 26.85 L44.05 26.25 45.55 24.7 46.0 24.9 45.25 28.05 44.8 28.55 45.15 26.15 42.7 26.85" fill="#ffffff" fill-rule="evenodd" stroke="none"/>
      <path d="M18.4 4.3 L17.75 5.65 16.85 6.8 16.4 7.35 14.45 6.6 16.7 4.4 18.4 4.3" fill="#f0f0d2" fill-rule="evenodd" stroke="none"/>
      <path d="M44.8 28.55 L41.9 31.5 41.25 27.45 42.7 26.85 45.15 26.15 44.8 28.55" fill="#d5d580" fill-rule="evenodd" stroke="none"/>
      <path d="M19.25 12.75 L19.1 7.8 19.7 5.0 18.95 4.15 18.65 4.55 18.5 4.7 17.15 8.45 17.5 16.35 15.5 16.95 14.7 17.2 14.7 17.35 M19.25 12.75 L19.95 15.5 17.5 16.35 M18.65 4.55 L18.4 4.3 17.75 5.65 18.5 4.7 M18.4 4.3 L16.7 4.4 14.45 6.6 13.0 9.4 Q12.4 10.8 11.95 12.35 L11.65 13.3 14.1 11.1 14.7 17.2 12.15 18.05 11.65 13.3 M46.0 24.9 L46.3 25.0 46.15 27.55 45.2 30.15 42.2 33.35 42.25 33.6 M42.7 26.85 L44.05 26.25 45.55 24.7 46.0 24.9 45.25 28.05 44.8 28.55 41.9 31.5 42.2 33.35 M41.9 31.5 L41.25 27.45 42.7 26.85" fill="none" stroke="#000000" stroke-linecap="round" stroke-linejoin="round" stroke-opacity="0.3019608" stroke-width="0.30000000000000004"/>
      <path d="M9.6 17.0 L9.75 16.45 11.95 15.95 11.65 18.35 9.5 18.8 9.6 17.0 M36.05 20.9 L36.85 20.7 Q41.3 23.75 45.2 28.9 L46.1 30.25 46.4 32.65 45.05 30.95 46.4 32.65 46.25 33.85 45.75 32.25 45.05 30.95 42.25 28.1 41.85 25.85 41.35 27.25 38.35 24.45 35.45 22.15 36.05 20.9" fill="#a89e64" fill-rule="evenodd" stroke="none"/>
      <path d="M8.2 19.25 Q6.25 19.95 4.7 21.1 L6.15 17.75 7.55 17.15 9.75 16.45 9.6 17.0 9.1 18.95 8.2 19.25 M4.25 24.7 L5.5 24.45 7.05 27.0 7.05 27.85 4.25 24.7 M35.5 19.9 L36.05 20.9 35.45 22.15 31.85 21.2 21.55 19.25 17.05 18.05 17.6 16.05 17.7 15.85 Q26.85 17.1 35.5 19.9 M41.85 25.85 L42.25 28.1 35.75 28.7 38.1 28.25 41.85 27.7 41.85 25.85 M11.95 15.95 L12.95 15.8 15.35 15.75 15.05 18.3 13.9 18.25 15.05 18.3 15.55 18.35 16.8 19.9 15.35 18.65 13.9 18.25 13.0 18.15 11.65 18.35 11.95 15.95" fill="#bfb072" fill-rule="evenodd" stroke="none"/>
      <path d="M8.2 19.25 L9.1 18.95 10.7 20.05 15.3 23.35 18.95 25.9 14.9 27.1 11.0 26.95 8.7 26.1 7.05 25.45 5.0 22.25 Q5.8 20.75 8.2 19.25 M4.6 26.45 L4.25 24.7 7.05 27.85 4.6 26.45 M42.05 33.15 L45.75 32.25 46.25 33.85 45.85 34.6 42.05 33.15" fill="#5f5a3a" fill-rule="evenodd" stroke="none"/>
      <path d="M33.45 15.75 L32.35 15.3 Q28.75 13.9 25.0 13.7 L23.75 13.7 24.4 13.25 Q29.25 13.15 33.0 14.6 L33.45 15.75" fill="#ffde4f" fill-rule="evenodd" stroke="none"/>
      <path d="M38.9 19.8 L36.55 17.45 35.45 16.7 Q34.8 15.65 35.45 15.8 L38.85 18.55 38.9 19.8" fill="#f4a33c" fill-rule="evenodd" stroke="none"/>
      <path d="M37.35 18.75 L40.3 21.45 42.4 24.35 40.3 22.35 Q39.35 20.65 37.35 18.75 M28.95 14.8 Q29.15 15.2 29.0 15.5 L22.85 15.8 22.7 15.75 19.25 15.4 20.6 14.85 21.6 14.6 16.95 15.1 11.0 15.65 12.15 15.25 12.8 15.05 Q16.2 14.1 20.4 13.8 24.7 13.85 28.95 14.8" fill="#c0b872" fill-rule="evenodd" stroke="none"/>
      <path d="M35.45 16.7 L36.55 17.45 38.9 19.8 40.3 21.45 37.35 18.75 Q34.7 16.65 32.0 15.65 L32.35 15.3 33.45 15.75 35.45 16.7 M36.85 20.7 Q36.25 20.15 35.5 19.9 26.85 17.1 17.7 15.85 L19.25 15.4 22.7 15.75 22.85 15.8 29.0 15.5 Q28.1 16.4 26.2 16.35 31.3 17.3 36.45 19.65 37.85 20.2 40.3 22.35 L42.4 24.35 45.2 28.9 Q41.3 23.75 36.85 20.7 M17.05 18.65 L17.05 18.05 21.55 19.25 17.05 18.65" fill="#dad0ad" fill-rule="evenodd" stroke="none"/>
      <path d="M9.75 16.45 L7.55 17.15 Q9.15 16.3 11.0 15.65 L16.95 15.1 21.6 14.6 20.6 14.85 16.05 15.7 15.55 18.35 15.05 18.3 15.35 15.75 12.95 15.8 11.95 15.95 9.75 16.45 M32.35 15.3 L32.0 15.65 30.5 15.15 28.95 14.8 Q24.7 13.85 20.4 13.8 L23.45 13.7 23.75 13.7 25.0 13.7 Q28.75 13.9 32.35 15.3 M36.85 20.7 L36.05 20.9 35.5 19.9 Q36.25 20.15 36.85 20.7" fill="#eae4d0" fill-rule="evenodd" stroke="none"/>
      <path d="M8.15 26.85 L8.7 26.1 11.0 26.95 8.15 26.85 M38.35 24.45 L41.35 27.25 38.1 28.25 35.75 28.7 35.55 28.7 32.35 29.3 18.95 25.9 15.3 23.35 11.65 18.35 13.0 18.15 13.9 18.25 15.35 18.65 16.8 19.9 17.6 20.9 17.05 18.65 21.55 19.25 31.85 21.2 38.35 24.45" fill="#443f2b" fill-rule="evenodd" stroke="none"/>
      <path d="M4.7 21.1 Q6.25 19.95 8.2 19.25 5.8 20.75 5.0 22.25 L4.7 21.1 M42.25 28.1 L45.05 30.95 45.75 32.25 42.05 33.15 33.45 32.0 32.35 29.3 35.55 28.7 35.75 28.7 42.25 28.1" fill="#49432e" fill-rule="evenodd" stroke="none"/>
      <path d="M45.85 34.6 Q45.15 35.8 43.5 36.8 L26.75 34.9 Q17.0 32.35 9.0 27.85 L8.15 26.85 11.0 26.95 14.9 27.1 18.95 25.9 32.35 29.3 33.45 32.0 42.05 33.15 45.85 34.6 M35.45 22.15 L38.35 24.45 31.85 21.2 35.45 22.15 M10.7 20.05 L9.5 18.8 11.65 18.35 15.3 23.35 10.7 20.05" fill="#595237" fill-rule="evenodd" stroke="none"/>
      <path d="M41.35 27.25 L41.85 25.85 41.85 27.7 38.1 28.25 41.35 27.25" fill="#201d13" fill-rule="evenodd" stroke="none"/>
      <path d="M9.1 18.95 L9.6 17.0 9.5 18.8 10.7 20.05 9.1 18.95 M20.6 14.85 L19.25 15.4 17.7 15.85 17.6 16.05 17.05 18.05 17.05 18.65 17.6 20.9 16.8 19.9 15.55 18.35 16.05 15.7 20.6 14.85" fill="#29261b" fill-rule="evenodd" stroke="none"/>
      <path d="M32.0 15.65 Q34.7 16.65 37.35 18.75 39.35 20.65 40.3 22.35 37.85 20.2 36.45 19.65 31.3 17.3 26.2 16.35 28.1 16.4 29.0 15.5 29.15 15.2 28.95 14.8 L30.5 15.15 32.0 15.65" fill="#b6ac5a" fill-rule="evenodd" stroke="none"/>
      <path d="M33.45 15.75 L33.0 14.6 Q29.25 13.15 24.4 13.25 L23.75 13.7 23.45 13.7 23.7 13.0 Q28.9 12.55 33.7 14.35 L33.45 15.75" fill="#ffff98" fill-rule="evenodd" stroke="none"/>
      <path d="M35.45 15.8 Q34.8 15.65 35.45 16.7 L33.45 15.75 33.7 14.35 35.45 15.8" fill="#cc6b22" fill-rule="evenodd" stroke="none"/>
      <path d="M4.7 21.1 Q6.25 19.95 8.2 19.25 L9.1 18.95 9.6 17.0 M7.55 17.15 L6.15 17.75 4.7 21.1 5.0 22.25 Q5.8 20.75 8.2 19.25 M8.15 26.85 L8.7 26.1 7.05 25.45 5.0 22.25 M4.6 26.45 L4.25 24.7 5.5 24.45 7.05 27.0 7.05 27.85 M45.85 34.6 Q45.15 35.8 43.5 36.8 L26.75 34.9 Q17.0 32.35 9.0 27.85 L8.15 26.85 11.0 26.95 8.7 26.1 M35.45 16.7 L36.55 17.45 38.9 19.8 38.85 18.55 35.45 15.8 33.7 14.35 Q28.9 12.55 23.7 13.0 L23.45 13.7 20.4 13.8 Q16.2 14.1 12.8 15.05 L12.15 15.25 11.0 15.65 Q9.15 16.3 7.55 17.15 M35.45 16.7 L33.45 15.75 32.35 15.3 Q28.75 13.9 25.0 13.7 L23.75 13.7 23.45 13.7 M32.0 15.65 Q34.7 16.65 37.35 18.75 L40.3 21.45 38.9 19.8 M28.95 14.8 L30.5 15.15 32.0 15.65 M38.35 24.45 L41.35 27.25 41.85 25.85 41.85 27.7 38.1 28.25 41.35 27.25 M42.25 28.1 L45.05 30.95 46.4 32.65 46.1 30.25 45.2 28.9 42.4 24.35 40.3 21.45 M32.35 29.3 L33.45 32.0 42.05 33.15 45.75 32.25 45.05 30.95 M32.35 29.3 L35.55 28.7 M35.75 28.7 L38.1 28.25 M45.75 32.25 L46.25 33.85 46.4 32.65 M46.25 33.85 L45.85 34.6 42.05 33.15 M31.85 21.2 L38.35 24.45 M28.95 14.8 Q24.7 13.85 20.4 13.8 M20.6 14.85 L19.25 15.4 17.7 15.85 17.6 16.05 17.05 18.05 17.05 18.65 21.55 19.25 31.85 21.2 M11.65 18.35 L13.0 18.15 13.9 18.25 15.05 18.3 15.55 18.35 16.8 19.9 17.6 20.9 17.05 18.65 M10.7 20.05 L15.3 23.35 11.65 18.35 9.5 18.8 M11.0 26.95 L14.9 27.1 18.95 25.9 15.3 23.35 M18.95 25.9 L32.35 29.3 M10.7 20.05 L9.1 18.95" fill="none" stroke="#000000" stroke-linecap="round" stroke-linejoin="round" stroke-opacity="0.3019608" stroke-width="0.30000000000000004"/>
    </g>
    <g id="shape1" transform="matrix(1.0, 0.0, 0.0, 1.0, -4.15, -9.9)">
      <path d="M37.25 20.35 L37.05 19.25 41.65 15.2 40.1 17.65 37.25 20.35 M43.65 11.25 L44.85 10.35 45.9 10.7 45.45 17.85 43.15 19.35 41.6 17.85 41.95 15.5 43.65 11.25" fill="#e6e4b3" fill-rule="evenodd" stroke="none"/>
      <path d="M46.45 10.6 L46.85 10.55 47.35 13.75 46.25 19.05 42.35 22.1 39.0 22.45 38.1 21.4 40.95 18.0 43.15 19.35 45.45 17.85 45.9 10.7 46.1 11.55 46.5 13.1 46.45 10.6 M46.7 19.3 L42.3 25.5 41.95 25.4 45.2 20.5 46.7 19.3 M40.4 24.2 L39.0 22.45 42.15 22.85 40.4 24.2" fill="#cac960" fill-rule="evenodd" stroke="none"/>
      <path d="M47.35 13.75 L46.7 19.3 45.2 20.5 42.15 22.85 39.0 22.45 42.35 22.1 46.25 19.05 47.35 13.75 M38.1 21.4 L37.25 20.35 40.1 17.65 41.65 15.2 43.65 11.25 41.95 15.5 41.6 17.85 43.15 19.35 40.95 18.0 38.1 21.4" fill="#f0edd2" fill-rule="evenodd" stroke="none"/>
      <path d="M41.95 25.4 L41.6 25.3 40.4 24.2 42.15 22.85 45.2 20.5 41.95 25.4 M46.1 11.55 L46.45 10.6 46.5 13.1 46.1 11.55" fill="#a6a637" fill-rule="evenodd" stroke="none"/>
      <path d="M46.45 10.6 L46.85 10.55 47.35 13.75 46.7 19.3 42.3 25.5 41.95 25.4 41.6 25.3 40.4 24.2 39.0 22.45 38.1 21.4 37.25 20.35 37.05 19.25 41.65 15.2 43.65 11.25 44.85 10.35 45.9 10.7 46.1 11.55 46.45 10.6 M46.5 13.1 L46.1 11.55 M41.65 15.2 L40.1 17.65 M40.4 24.2 L42.15 22.85 39.0 22.45 M45.2 20.5 L46.7 19.3 M42.15 22.85 L45.2 20.5" fill="none" stroke="#000000" stroke-linecap="round" stroke-linejoin="round" stroke-opacity="0.3019608" stroke-width="0.30000000000000004"/>
      <path d="M33.3 37.75 L32.95 38.65 28.4 34.7 30.3 34.5 32.6 34.25 33.3 37.75 M14.55 25.5 L15.25 23.7 19.05 22.65 Q21.75 23.1 24.35 24.05 L23.8 30.3 17.15 26.9 17.05 26.8 14.55 25.5" fill="#a89e64" fill-rule="evenodd" stroke="none"/>
      <path d="M22.35 39.3 L21.7 39.0 10.55 33.5 13.55 28.0 14.55 25.5 17.05 26.8 17.15 26.9 23.45 30.7 24.95 34.5 23.35 37.3 25.7 34.8 23.8 30.3 24.35 24.05 Q26.75 24.85 29.05 26.1 L29.0 26.3 28.05 29.5 26.45 34.9 22.35 39.3 M23.35 37.3 L21.7 39.0 23.35 37.3" fill="#bfb072" fill-rule="evenodd" stroke="none"/>
      <path d="M33.75 29.8 L34.6 31.65 33.3 37.75 32.6 34.25 33.75 29.8" fill="#5f5a3a" fill-rule="evenodd" stroke="none"/>
      <path d="M32.95 38.65 L31.6 42.1 25.35 40.8 22.35 39.3 26.45 34.9 28.4 34.7 32.95 38.65 M32.6 34.25 L30.3 34.5 27.35 34.15 28.05 29.5 29.0 26.3 32.8 30.1 32.6 34.25" fill="#928554" fill-rule="evenodd" stroke="none"/>
      <path d="M28.05 29.5 L27.35 34.15 30.3 34.5 28.4 34.7 26.45 34.9 28.05 29.5 M23.35 37.3 L24.95 34.5 23.45 30.7 17.15 26.9 23.8 30.3 25.7 34.8 23.35 37.3" fill="#ccbf91" fill-rule="evenodd" stroke="none"/>
      <path d="M29.05 26.1 L33.65 29.65 33.75 29.8 32.6 34.25 32.8 30.1 29.0 26.3 29.05 26.1" fill="#595237" fill-rule="evenodd" stroke="none"/>
      <path d="M33.75 29.8 L34.6 31.65 33.3 37.75 32.95 38.65 31.6 42.1 25.35 40.8 22.35 39.3 21.7 39.0 10.55 33.5 13.55 28.0 14.55 25.5 15.25 23.7 19.05 22.65 Q21.75 23.1 24.35 24.05 26.75 24.85 29.05 26.1 L33.65 29.65 33.75 29.8 32.6 34.25 33.3 37.75 M30.3 34.5 L32.6 34.25 M29.0 26.3 L28.05 29.5 26.45 34.9 28.4 34.7 30.3 34.5 M17.05 26.8 L14.55 25.5 M23.35 37.3 L25.7 34.8 23.8 30.3 17.15 26.9 M29.05 26.1 L29.0 26.3 M23.8 30.3 L24.35 24.05 M21.7 39.0 L23.35 37.3 M26.45 34.9 L22.35 39.3" fill="none" stroke="#000000" stroke-linecap="round" stroke-linejoin="round" stroke-opacity="0.3019608" stroke-width="0.30000000000000004"/>
      <path d="M15.55 31.75 L14.65 31.3 14.95 30.9 15.55 31.75" fill="#bfb072" fill-rule="evenodd" stroke="none"/>
      <path d="M13.85 28.8 L14.7 29.35 14.95 30.9 14.65 31.3 14.2 31.1 13.85 28.8 M20.65 30.15 L21.85 30.9 22.65 33.4 21.15 33.2 20.65 30.15" fill="#a89e64" fill-rule="evenodd" stroke="none"/>
      <path d="M13.85 28.8 L15.2 25.35 16.15 26.2 14.7 29.35 13.85 28.8 M20.65 30.15 L21.8 27.65 23.3 27.6 21.85 30.9 20.65 30.15" fill="#5f5a3a" fill-rule="evenodd" stroke="none"/>
      <path d="M14.7 29.35 L16.15 26.2 20.7 26.9 18.8 31.05 17.0 32.0 15.55 31.75 14.95 30.9 14.7 29.35 M21.85 30.9 L23.3 27.6 27.9 27.35 26.75 32.65 24.2 33.65 22.65 33.4 21.85 30.9" fill="#393524" fill-rule="evenodd" stroke="none"/>
      <path d="M16.15 26.2 L15.2 25.35 13.85 28.8 14.7 29.35 16.15 26.2 20.7 26.9 18.8 31.05 17.0 32.0 15.55 31.75 14.65 31.3 14.2 31.1 13.85 28.8 M14.95 30.9 L14.65 31.3 M14.7 29.35 L14.95 30.9 15.55 31.75 M23.3 27.6 L21.8 27.65 20.65 30.15 21.85 30.9 23.3 27.6 27.9 27.35 26.75 32.65 24.2 33.65 22.65 33.4 21.15 33.2 20.65 30.15 M22.65 33.4 L21.85 30.9" fill="none" stroke="#000000" stroke-linecap="round" stroke-linejoin="round" stroke-opacity="0.3019608" stroke-width="0.30000000000000004"/>
      <path d="M22.0 36.95 L28.2 35.35 33.05 41.25 32.95 43.5 32.3 44.75 30.75 46.35 29.65 45.3 24.55 41.9 22.45 38.1 22.0 36.95" fill="#a89e64" fill-rule="evenodd" stroke="none"/>
      <path d="M16.9 38.3 L22.0 36.95 22.45 38.1 24.05 42.4 29.2 45.6 26.9 45.5 16.9 38.3" fill="#bfb072" fill-rule="evenodd" stroke="none"/>
      <path d="M20.35 47.3 L15.55 46.05 7.4 40.8 7.7 40.7 20.35 47.3 M31.0 47.1 L28.0 48.1 26.9 45.5 29.2 45.6 29.35 45.7 31.0 47.1" fill="#5f5a3a" fill-rule="evenodd" stroke="none"/>
      <path d="M20.35 47.3 L7.7 40.7 16.9 38.3 26.9 45.5 28.0 48.1 20.35 47.3" fill="#49432e" fill-rule="evenodd" stroke="none"/>
      <path d="M32.3 44.75 L31.0 47.1 29.35 45.7 29.2 45.6 24.05 42.4 22.45 38.1 24.55 41.9 29.65 45.3 30.75 46.35 32.3 44.75" fill="#d1c79c" fill-rule="evenodd" stroke="none"/>
      <path d="M7.7 40.7 L7.4 40.8 15.55 46.05 20.35 47.3 7.7 40.7 16.9 38.3 22.0 36.95 28.2 35.35 33.05 41.25 32.95 43.5 32.3 44.75 31.0 47.1 28.0 48.1 20.35 47.3 M22.0 36.95 L22.45 38.1 24.05 42.4 29.2 45.6 29.35 45.7 31.0 47.1 M26.9 45.5 L29.2 45.6 M28.0 48.1 L26.9 45.5 16.9 38.3" fill="none" stroke="#000000" stroke-linecap="round" stroke-linejoin="round" stroke-opacity="0.3019608" stroke-width="0.30000000000000004"/>
      <path d="M31.05 41.2 L30.15 40.4 29.95 39.45 30.3 39.0 30.85 39.45 Q31.85 40.8 31.05 41.2 M32.7 45.75 L32.6 46.1 31.35 45.3 31.0 44.7 Q30.65 43.95 30.9 43.6 L31.35 44.0 32.7 45.75 M28.95 43.55 L28.7 42.55 29.1 42.15 29.75 42.7 Q30.3 43.6 29.9 44.4 L28.95 43.55 M32.05 40.45 L32.4 40.75 33.9 42.6 33.8 42.95 32.2 41.95 32.0 41.5 Q31.65 40.65 32.05 40.45" fill="#f4a33c" fill-rule="evenodd" stroke="none"/>
      <path d="M29.35 40.3 L28.85 40.4 29.35 38.7 30.1 38.35 29.85 39.15 29.35 40.3 M27.65 43.55 L28.15 41.85 28.9 41.45 28.65 42.3 28.15 43.45 27.65 43.55 M31.55 43.75 L32.75 44.75 32.75 45.45 31.55 43.75 M33.95 42.3 L32.75 40.6 33.95 41.65 33.95 42.3" fill="#ffde4f" fill-rule="evenodd" stroke="none"/>
      <path d="M31.3 41.4 L31.05 41.2 Q31.85 40.8 30.85 39.45 L32.05 40.45 Q31.65 40.65 32.0 41.5 L32.2 41.95 31.3 41.4 M29.75 42.7 L30.9 43.6 Q30.65 43.95 31.0 44.7 L31.35 45.3 30.1 44.55 29.9 44.4 Q30.3 43.6 29.75 42.7" fill="#cc6b22" fill-rule="evenodd" stroke="none"/>
      <path d="M29.35 40.3 L29.85 39.15 30.1 38.35 32.75 40.6 33.95 42.3 33.9 42.6 32.4 40.75 32.05 40.45 30.85 39.45 30.3 39.0 29.95 39.45 30.15 40.4 29.35 40.3 M33.45 43.4 L31.3 41.4 32.2 41.95 33.8 42.95 33.45 43.4 M28.9 41.45 L31.55 43.75 32.75 45.45 32.7 45.75 31.35 44.0 30.9 43.6 29.75 42.7 29.1 42.15 28.7 42.55 28.95 43.55 28.15 43.45 28.65 42.3 28.9 41.45 M32.6 46.1 L32.1 46.45 30.1 44.55 31.35 45.3 32.6 46.1" fill="#ffff98" fill-rule="evenodd" stroke="none"/>
      <path d="M28.85 40.4 L29.35 40.3 30.15 40.4 31.05 41.2 31.3 41.4 33.45 43.4 32.8 43.7 28.85 40.4 M32.1 46.45 L31.6 46.85 27.65 43.55 28.15 43.45 28.95 43.55 29.9 44.4 30.1 44.55 32.1 46.45" fill="#a34100" fill-rule="evenodd" stroke="none"/>
      <path d="M30.1 38.35 L29.35 38.7 28.85 40.4 32.8 43.7 33.45 43.4 33.8 42.95 33.9 42.6 33.95 42.3 33.95 41.65 32.75 40.6 30.1 38.35 M27.65 43.55 L28.15 41.85 28.9 41.45 31.55 43.75 32.75 44.75 32.75 45.45 32.7 45.75 32.6 46.1 32.1 46.45 31.6 46.85 27.65 43.55" fill="none" stroke="#000000" stroke-linecap="round" stroke-linejoin="round" stroke-opacity="0.3019608" stroke-width="0.30000000000000004"/>
      <path d="M13.0 39.5 L7.95 37.8 6.2 36.35 7.95 31.75 9.15 30.25 18.0 30.8 18.75 30.9 21.25 41.3 13.0 39.5 M25.0 42.2 L23.8 40.85 25.6 38.55 26.7 34.55 28.75 36.4 29.3 37.25 27.2 43.35 25.0 42.2" fill="#a89e64" fill-rule="evenodd" stroke="none"/>
      <path d="M21.25 41.3 L18.75 30.9 20.25 31.15 20.45 31.2 25.8 32.9 26.35 33.65 25.25 38.05 23.8 40.85 21.25 41.3 M26.9 32.6 L29.0 34.65 29.3 37.25 28.75 36.4 26.95 33.55 26.9 32.6" fill="#bfb072" fill-rule="evenodd" stroke="none"/>
      <path d="M13.0 39.5 L21.25 41.3 23.8 40.85 25.0 42.2 25.75 44.15 25.35 44.15 16.2 42.55 7.65 39.75 5.8 37.95 13.0 39.5" fill="#5f5a3a" fill-rule="evenodd" stroke="none"/>
      <path d="M4.6 36.8 L5.8 37.95 7.65 39.75 16.2 42.55 8.05 41.2 7.25 40.7 6.0 39.95 4.6 36.8 M25.75 44.15 L25.0 42.2 27.2 43.35 25.75 44.15 M7.25 40.7 L7.65 39.75 7.25 40.7" fill="#786f4b" fill-rule="evenodd" stroke="none"/>
      <path d="M9.15 30.25 L7.95 31.75 6.2 36.35 7.95 37.8 13.0 39.5 5.8 37.95 4.6 36.8 7.8 30.85 8.7 30.2 9.15 30.25 M20.45 31.2 L25.25 31.95 26.9 32.6 26.95 33.55 28.75 36.4 26.7 34.55 25.6 38.55 23.8 40.85 25.25 38.05 26.35 33.65 25.8 32.9 20.45 31.2" fill="#dad0ad" fill-rule="evenodd" stroke="none"/>
      <path d="M13.0 39.5 L21.25 41.3 18.75 30.9 18.0 30.8 9.15 30.25 8.7 30.2 7.8 30.85 4.6 36.8 5.8 37.95 13.0 39.5 M5.8 37.95 L7.65 39.75 16.2 42.55 25.35 44.15 25.75 44.15 25.0 42.2 23.8 40.85 21.25 41.3 M7.65 39.75 L7.25 40.7 8.05 41.2 16.2 42.55 M7.25 40.7 L6.0 39.95 4.6 36.8 M20.45 31.2 L25.25 31.95 26.9 32.6 29.0 34.65 29.3 37.25 27.2 43.35 25.75 44.15 M28.75 36.4 L26.95 33.55 26.9 32.6 M18.75 30.9 L20.25 31.15 M25.0 42.2 L27.2 43.35 M29.3 37.25 L28.75 36.4" fill="none" stroke="#000000" stroke-linecap="round" stroke-linejoin="round" stroke-opacity="0.3019608" stroke-width="0.30000000000000004"/>
      <path d="M17.7 22.2 Q18.0 23.6 17.4 24.95 L15.25 23.95 15.35 22.65 16.45 20.7 17.1 20.95 17.4 21.55 17.7 22.2 M19.15 21.9 L21.85 23.05 21.65 24.5 20.45 25.35 20.1 25.4 Q18.8 23.25 19.15 21.9 M19.75 25.5 L20.05 27.3 19.05 25.6 19.75 25.5" fill="#ffde4f" fill-rule="evenodd" stroke="none"/>
      <path d="M21.4 27.65 L20.3 27.7 20.05 27.3 19.75 25.5 20.1 25.4 20.45 25.35 21.5 26.65 21.4 27.65" fill="#f4a33c" fill-rule="evenodd" stroke="none"/>
      <path d="M15.0 25.65 L14.65 24.4 16.2 24.85 15.1 24.8 15.45 25.45 17.55 26.7 15.0 25.65 M18.5 25.45 L17.75 25.1 Q18.15 23.7 17.7 22.2 L17.4 21.55 17.1 20.95 19.15 21.9 Q18.8 23.25 20.1 25.4 L19.75 25.5 19.05 25.6 18.5 25.45 M21.85 23.05 L22.35 24.9 21.4 27.65 21.5 26.65 21.65 24.5 21.85 23.05" fill="#cc6b22" fill-rule="evenodd" stroke="none"/>
      <path d="M15.0 25.65 L14.25 24.3 14.7 22.9 15.1 22.1 16.45 20.7 15.35 22.65 15.25 23.95 17.4 24.95 Q18.0 23.6 17.7 22.2 18.15 23.7 17.75 25.1 L18.5 25.45 16.2 24.85 14.65 24.4 15.0 25.65 M20.45 25.35 L21.65 24.5 21.5 26.65 20.45 25.35" fill="#ffff98" fill-rule="evenodd" stroke="none"/>
      <path d="M16.2 24.85 L18.5 25.45 19.05 25.6 20.05 27.3 20.3 27.7 20.05 27.75 17.8 26.8 17.55 26.7 15.45 25.45 15.1 24.8 16.2 24.85" fill="#a34100" fill-rule="evenodd" stroke="none"/>
      <path d="M16.45 20.7 L15.1 22.1 14.7 22.9 14.25 24.3 15.0 25.65 17.55 26.7 M14.65 24.4 L16.2 24.85 18.5 25.45 19.05 25.6 20.05 27.3 20.3 27.7 20.05 27.75 17.8 26.8 M16.45 20.7 L17.1 20.95 19.15 21.9 21.85 23.05 22.35 24.9 21.4 27.65 20.3 27.7 M21.65 24.5 L21.85 23.05 M20.1 25.4 L19.75 25.5 19.05 25.6 M21.65 24.5 L21.5 26.65 21.4 27.65" fill="none" stroke="#000000" stroke-linecap="round" stroke-linejoin="round" stroke-opacity="0.3019608" stroke-width="0.30000000000000004"/>
      <path d="M21.95 23.05 L22.7 23.0 23.25 23.45 23.75 23.9 Q24.55 25.05 24.35 26.55 L21.85 26.55 21.5 25.3 21.95 23.05 M25.1 23.0 L28.25 22.9 28.6 24.35 27.65 25.65 27.35 25.85 Q25.25 24.4 25.1 23.0 M22.2 28.2 L20.95 27.3 20.9 25.8 21.4 27.2 22.2 28.2 M27.0 26.05 L27.95 27.6 26.35 26.45 27.0 26.05" fill="#ffde4f" fill-rule="evenodd" stroke="none"/>
      <path d="M29.45 27.3 L28.35 27.85 27.95 27.6 27.0 26.05 27.35 25.85 27.65 25.65 29.2 26.4 29.45 27.3" fill="#f4a33c" fill-rule="evenodd" stroke="none"/>
      <path d="M23.75 23.9 L23.25 23.45 22.7 23.0 25.1 23.0 Q25.25 24.4 27.35 25.85 L27.0 26.05 26.35 26.45 25.7 26.55 24.8 26.55 Q24.75 25.05 23.75 23.9 M28.25 22.9 L29.45 24.35 29.45 27.3 29.2 26.4 28.6 24.35 28.25 22.9 M25.15 28.1 L22.2 28.2 21.4 27.2 23.1 26.95 22.0 27.4 22.6 27.8 25.15 28.1" fill="#cc6b22" fill-rule="evenodd" stroke="none"/>
      <path d="M21.95 23.05 L21.5 25.3 21.85 26.55 24.35 26.55 Q24.55 25.05 23.75 23.9 24.75 25.05 24.8 26.55 L25.7 26.55 23.1 26.95 21.4 27.2 20.9 25.8 21.05 24.9 21.95 23.05 M27.65 25.65 L28.6 24.35 29.2 26.4 27.65 25.65" fill="#ffff98" fill-rule="evenodd" stroke="none"/>
      <path d="M28.35 27.85 L28.05 28.0 25.45 28.1 25.15 28.1 22.6 27.8 22.0 27.4 23.1 26.95 25.7 26.55 26.35 26.45 27.95 27.6 28.35 27.85" fill="#a34100" fill-rule="evenodd" stroke="none"/>
      <path d="M22.7 23.0 L21.95 23.05 21.05 24.9 20.9 25.8 21.4 27.2 23.1 26.95 25.7 26.55 26.35 26.45 27.95 27.6 28.35 27.85 28.05 28.0 25.45 28.1 M22.7 23.0 L25.1 23.0 28.25 22.9 29.45 24.35 29.45 27.3 28.35 27.85 M25.15 28.1 L22.2 28.2 20.95 27.3 20.9 25.8 M28.6 24.35 L28.25 22.9 M27.35 25.85 L27.0 26.05 26.35 26.45 M28.6 24.35 L29.2 26.4 29.45 27.3 M22.2 28.2 L21.4 27.2" fill="none" stroke="#000000" stroke-linecap="round" stroke-linejoin="round" stroke-opacity="0.3019608" stroke-width="0.30000000000000004"/>
      <path d="M5.0 35.9 L5.0 34.85 6.25 32.15 7.85 29.95 8.85 29.95 11.85 30.3 Q13.15 30.9 12.9 31.25 L11.5 31.1 11.4 31.1 8.55 30.8 7.8 31.25 5.95 34.5 6.0 35.9 13.55 37.05 Q14.7 37.6 14.65 38.0 L12.2 37.65 7.2 36.9 6.3 36.8 5.0 35.9 M15.25 30.7 L23.15 31.55 23.7 32.3 23.45 35.2 22.5 37.35 21.1 38.95 20.55 38.85 17.6 38.45 17.1 37.55 20.6 38.1 22.1 36.65 22.9 32.9 21.9 32.25 18.45 31.9 15.65 31.55 15.25 30.7 M24.05 32.55 L24.1 32.25 23.4 31.3 24.25 32.2 24.9 33.2 23.85 38.15 23.6 37.9 24.55 33.65 24.05 32.55 M7.8 29.65 L5.9 32.3 6.85 30.3 7.8 29.65" fill="#ffde4f" fill-rule="evenodd" stroke="none"/>
      <path d="M23.45 35.2 L24.05 32.55 24.55 33.65 23.6 37.9 23.0 37.2 23.45 35.2 M5.95 34.5 L7.8 31.25 8.6 32.2 8.45 32.45 8.55 33.35 6.8 35.4 5.95 34.5 M20.55 38.85 L21.1 38.95 21.45 39.0 22.3 39.9 21.65 39.8 20.55 38.85" fill="#f4a33c" fill-rule="evenodd" stroke="none"/>
      <path d="M11.85 30.3 L8.85 29.95 7.85 29.95 6.25 32.15 5.0 34.85 5.0 35.9 4.7 35.65 5.0 35.9 6.3 36.8 4.8 36.55 4.7 35.65 4.65 34.85 5.9 32.3 7.8 29.65 23.4 31.3 24.1 32.25 24.05 32.55 23.45 35.2 23.7 32.3 23.15 31.55 15.25 30.7 11.85 30.3 M13.55 37.05 L6.0 35.9 5.95 34.5 6.1 35.7 6.85 35.8 7.75 35.9 10.05 36.25 11.5 36.45 12.1 36.55 14.9 36.95 16.4 37.15 16.9 37.25 19.55 37.6 20.4 37.7 21.0 37.1 21.65 36.45 21.85 35.65 22.45 33.15 22.5 32.95 22.2 32.6 18.45 31.9 21.9 32.25 22.9 32.9 22.1 36.65 20.6 38.1 17.1 37.55 13.55 37.05 M21.1 38.95 L22.5 37.35 23.45 35.2 23.0 37.2 23.6 37.9 23.85 38.15 23.7 38.35 22.65 37.65 21.45 39.0 21.1 38.95 M21.9 32.25 L22.2 32.6 21.9 32.25" fill="#ffff98" fill-rule="evenodd" stroke="none"/>
      <path d="M11.85 30.3 L15.25 30.7 15.65 31.55 12.9 31.25 Q13.15 30.9 11.85 30.3 M7.2 36.9 L12.2 37.65 12.6 38.5 8.45 37.9 8.35 37.9 7.2 36.9 M14.65 38.0 Q14.7 37.6 13.55 37.05 L17.1 37.55 17.6 38.45 14.65 38.0 M8.55 30.8 L11.4 31.1 11.5 31.1 12.5 32.05 9.5 31.7 9.45 31.65 8.55 30.8 M6.85 35.8 L6.1 35.7 5.95 34.5 6.8 35.4 6.85 35.8 M22.65 37.65 L23.7 38.35 22.3 39.9 21.45 39.0 22.65 37.65" fill="#cc6b22" fill-rule="evenodd" stroke="none"/>
      <path d="M8.55 33.35 L9.3 34.45 7.75 35.9 6.85 35.8 6.8 35.4 8.55 33.35 M15.05 36.2 L15.2 36.05 17.95 34.1 17.7 34.6 16.4 37.15 14.9 36.95 15.05 36.2 M14.45 33.6 L13.2 32.5 9.5 32.0 9.5 32.8 9.7 33.35 8.6 32.2 9.4 31.7 9.5 31.7 12.5 32.05 22.45 33.15 21.85 35.65 20.4 36.75 21.7 34.85 21.25 33.55 19.05 33.25 19.25 34.15 18.2 33.15 14.3 32.6 14.45 33.6 M10.05 36.25 L10.0 35.55 10.15 35.45 12.9 33.5 13.05 33.65 12.65 34.35 11.5 36.45 10.05 36.25 M19.55 37.6 L19.15 35.45 20.2 36.9 21.0 37.1 20.4 37.7 19.55 37.6" fill="#cac960" fill-rule="evenodd" stroke="none"/>
      <path d="M9.3 34.45 L10.0 35.55 10.05 36.25 7.75 35.9 9.3 34.45 M13.2 32.5 L13.15 32.75 12.3 33.5 10.15 35.05 9.7 33.35 9.5 32.8 9.5 32.0 13.2 32.5 M17.65 33.75 L15.05 35.05 14.65 34.55 14.45 33.6 14.3 32.6 18.2 33.15 18.15 33.25 17.65 33.75 M12.65 34.35 L13.05 33.65 15.05 36.2 14.9 36.95 12.1 36.55 12.65 34.35 M17.7 34.6 L17.95 34.1 18.1 34.0 19.15 35.45 19.55 37.6 16.9 37.25 17.7 34.6 M19.25 34.15 L19.05 33.25 21.25 33.55 21.7 34.85 20.4 36.75 20.2 36.9 19.25 34.15" fill="#e6e4b3" fill-rule="evenodd" stroke="none"/>
      <path d="M6.3 36.8 L7.2 36.9 8.35 37.9 5.6 37.45 4.8 36.55 6.3 36.8 M12.2 37.65 L14.65 38.0 17.6 38.45 20.55 38.85 21.65 39.8 12.6 38.5 12.2 37.65 M7.8 31.25 L8.55 30.8 9.45 31.65 9.4 31.7 8.6 32.2 7.8 31.25 M11.5 31.1 L12.9 31.25 15.65 31.55 18.45 31.9 22.2 32.6 22.5 32.95 22.45 33.15 12.5 32.05 11.5 31.1" fill="#a34100" fill-rule="evenodd" stroke="none"/>
      <path d="M10.0 35.55 L8.45 32.45 8.6 32.2 9.7 33.35 10.15 35.05 12.3 33.5 10.15 35.45 10.0 35.55 M13.15 32.75 L13.2 32.5 14.45 33.6 14.65 34.55 15.05 35.05 17.65 33.75 15.2 36.05 15.05 36.2 13.15 32.75 M11.5 36.45 L12.65 34.35 12.1 36.55 11.5 36.45 M18.15 33.25 L18.2 33.15 19.25 34.15 20.2 36.9 18.15 33.25 M17.7 34.6 L16.9 37.25 16.4 37.15 17.7 34.6" fill="#f0f0d2" fill-rule="evenodd" stroke="none"/>
      <path d="M8.55 33.35 L8.45 32.45 10.0 35.55 9.3 34.45 8.55 33.35 M13.15 32.75 L15.05 36.2 13.05 33.65 12.9 33.5 10.15 35.45 12.3 33.5 13.15 32.75 M15.2 36.05 L17.65 33.75 18.15 33.25 20.2 36.9 20.4 36.75 21.85 35.65 21.65 36.45 21.0 37.1 20.2 36.9 19.15 35.45 18.1 34.0 17.95 34.1 15.2 36.05" fill="#a6a637" fill-rule="evenodd" stroke="none"/>
      <path d="M23.45 35.2 L24.05 32.55 24.1 32.25 23.4 31.3 7.8 29.65 5.9 32.3 4.65 34.85 4.7 35.65 5.0 35.9 6.3 36.8 7.2 36.9 12.2 37.65 14.65 38.0 17.6 38.45 20.55 38.85 21.1 38.95 21.45 39.0 22.65 37.65 M5.95 34.5 L7.8 31.25 8.55 30.8 11.4 31.1 M11.5 31.1 L12.9 31.25 15.65 31.55 18.45 31.9 21.9 32.25 22.2 32.6 18.45 31.9 M7.8 29.65 L6.85 30.3 5.9 32.3 M8.45 32.45 L8.55 33.35 9.3 34.45 10.0 35.55 10.15 35.45 12.9 33.5 13.05 33.65 15.05 36.2 15.2 36.05 17.95 34.1 18.1 34.0 19.15 35.45 20.2 36.9 20.4 36.75 21.85 35.65 22.45 33.15 12.5 32.05 9.5 31.7 9.4 31.7 8.6 32.2 7.8 31.25 M8.45 32.45 L8.6 32.2 M5.95 34.5 L6.1 35.7 6.85 35.8 6.8 35.4 5.95 34.5 M4.8 36.55 L6.3 36.8 M4.7 35.65 L4.8 36.55 5.6 37.45 8.35 37.9 M6.85 35.8 L7.75 35.9 10.05 36.25 11.5 36.45 12.1 36.55 14.9 36.95 16.4 37.15 16.9 37.25 19.55 37.6 20.4 37.7 21.0 37.1 21.65 36.45 21.85 35.65 M8.55 33.35 L6.8 35.4 M8.45 37.9 L12.6 38.5 21.65 39.8 22.3 39.9 21.45 39.0 M9.45 31.65 L8.55 30.8 M9.45 31.65 L9.5 31.7 M23.45 35.2 L23.0 37.2 23.6 37.9 23.85 38.15 24.9 33.2 24.25 32.2 23.4 31.3 M22.45 33.15 L22.5 32.95 22.2 32.6 M23.7 38.35 L23.85 38.15 M23.7 38.35 L22.3 39.9" fill="none" stroke="#000000" stroke-linecap="round" stroke-linejoin="round" stroke-opacity="0.3019608" stroke-width="0.30000000000000004"/>
      <path d="M11.4 31.1 L11.5 31.1 12.5 32.05 M8.35 37.9 L8.45 37.9" fill="none" stroke="#ff0000" stroke-linecap="round" stroke-linejoin="round" stroke-width="0.05"/>
    </g>
    <g id="sprite1" transform="matrix(1.0, 0.0, 0.0, 1.0, 0.0, 0.0)">
      <use height="26.7" transform="matrix(0.0042, -1.3515, 1.3935, 0.02, 22.09, 56.0263)" width="26.7" xlink:href="#sprite2"/>
      <use height="26.7" transform="matrix(0.0095, -3.0486, 0.372, 0.0053, 36.507, 81.3775)" width="26.7" xlink:href="#sprite2"/>
      <use height="26.7" transform="matrix(3.0486, 0.0095, -0.0053, 0.372, 0.1225, 35.107)" width="26.7" xlink:href="#sprite2"/>
    </g>
    <g id="sprite2" transform="matrix(1.0, 0.0, 0.0, 1.0, 13.35, 13.35)">
      <use height="26.7" transform="matrix(1.0, 0.0, 0.0, 1.0, -13.35, -13.35)" width="26.7" xlink:href="#shape2"/>
    </g>
    <g id="shape2" transform="matrix(1.0, 0.0, 0.0, 1.0, 13.35, 13.35)">
      <path d="M9.3 -9.85 Q13.35 -5.8 13.35 0.0 13.35 5.8 9.3 9.3 5.8 13.35 0.0 13.35 -5.8 13.35 -9.85 9.3 -13.35 5.8 -13.35 0.0 -13.35 -5.8 -9.85 -9.85 -5.8 -13.35 0.0 -13.35 5.8 -13.35 9.3 -9.85" fill="url(#gradient0)" fill-rule="evenodd" stroke="none"/>
    </g>
    <radialGradient cx="0" cy="0" gradientTransform="matrix(0.0213, 0.0, 0.0, 0.0213, 0.0, 0.0)" gradientUnits="userSpaceOnUse" id="gradient0" r="819.2" spreadMethod="pad">
      <stop offset="0.19607843137254902" stop-color="#fee3bc" stop-opacity="0.35686275"/>
      <stop offset="0.5019607843137255" stop-color="#fee3bc" stop-opacity="0.05490196"/>
      <stop offset="0.7607843137254902" stop-color="#ffe3bd" stop-opacity="0.0"/>
    </radialGradient>
  </defs>
</svg>
