<?xml version="1.0" encoding="UTF-8" standalone="no"?>
<svg xmlns:xlink="http://www.w3.org/1999/xlink" height="52.0px" width="52.0px" xmlns="http://www.w3.org/2000/svg">
  <g transform="matrix(1.0, 0.0, 0.0, 1.0, 0.0, 0.0)">
    <use height="56.0" transform="matrix(1.0, 0.0, 0.0, 1.0, -2.0, -2.0)" width="56.0" xlink:href="#shape0"/>
    <use height="0.0" transform="matrix(0.0871, 0.0287, -0.0375, 0.0908, 18.35, 33.8)" width="0.0" xlink:href="#sprite0"/>
    <use height="0.0" transform="matrix(0.1496, 0.0493, -0.1003, 0.1233, 26.6, 17.2)" width="0.0" xlink:href="#sprite0"/>
    <use height="81.5" transform="matrix(0.1879, -0.0066, 0.0066, 0.1879, 23.1, 19.6)" width="81.5" xlink:href="#sprite1"/>
    <use height="81.5" transform="matrix(0.1879, -0.0066, 0.0066, 0.1879, 6.55, 22.4)" width="81.5" xlink:href="#sprite1"/>
    <use height="81.5" transform="matrix(0.11, -0.0039, 0.0039, 0.11, 16.4, 8.05)" width="81.5" xlink:href="#sprite1"/>
    <use height="81.5" transform="matrix(0.11, -0.0039, 0.0039, 0.11, 25.65, 31.35)" width="81.5" xlink:href="#sprite1"/>
    <use height="81.5" transform="matrix(0.0829, -0.0029, 0.0029, 0.0829, 17.2, 39.8)" width="81.5" xlink:href="#sprite1"/>
    <use height="81.5" transform="matrix(0.11, -0.0039, 0.0039, 0.11, 28.15, 11.1)" width="81.5" xlink:href="#sprite1"/>
  </g>
  <defs>
    <g id="shape0" transform="matrix(1.0, 0.0, 0.0, 1.0, 2.0, 2.0)">
      <path d="M52.0 0.0 L52.0 52.0 0.0 52.0 0.0 0.0 52.0 0.0" fill="#795fa9" fill-opacity="0.0" fill-rule="evenodd" stroke="none"/>
      <path d="M23.9 8.7 L23.7 8.75 Q21.1 9.4 17.5 11.0 L16.5 11.55 13.95 13.3 13.15 13.9 11.55 15.35 Q9.55 17.35 8.0 19.85 L7.9 19.95 7.4 20.85 7.35 21.6 Q7.25 22.8 7.45 23.95 7.65 25.3 8.15 26.65 L8.85 28.1 8.45 28.4 7.65 29.55 7.4 30.05 7.3 30.25 6.95 31.2 6.8 32.25 Q6.8 32.8 7.15 33.1 L10.1 34.25 Q9.6 36.1 10.0 38.15 L7.15 38.85 7.05 38.85 6.85 38.95 6.8 38.95 6.75 38.95 Q6.45 39.2 6.65 40.15 L7.0 41.25 7.4 42.25 7.75 42.85 8.6 44.05 Q9.25 44.7 9.5 44.5 L9.55 44.5 9.6 44.5 9.65 44.35 9.65 44.4 12.35 42.7 Q13.55 44.05 15.25 45.05 L15.9 45.4 15.5 46.7 15.45 46.85 Q15.35 47.4 16.25 47.9 L16.85 48.2 18.55 48.65 18.75 48.7 19.25 48.7 20.9 48.55 21.15 48.45 Q21.95 48.2 22.0 47.7 L22.0 47.65 22.0 47.45 22.0 46.45 22.95 46.3 Q26.9 45.5 28.85 42.2 L29.45 41.05 35.15 41.2 Q36.7 40.9 38.25 40.25 L39.15 39.65 41.55 37.4 Q42.8 35.85 43.65 33.75 L43.75 33.5 Q44.75 31.1 45.25 27.95 L45.25 27.85 Q45.8 23.5 44.6 19.7 L43.3 16.7 Q41.45 13.4 38.1 10.6 L37.2 9.8 Q36.05 9.05 34.6 8.5 L35.75 8.0 Q36.5 7.55 36.7 5.4 L36.15 4.4 35.9 4.25 Q34.55 3.6 32.9 3.55 31.7 3.85 30.4 4.9 L28.4 6.7 27.45 7.75 24.15 8.6 23.9 8.7 M39.9 13.1 L39.85 13.1 39.75 12.75 39.9 13.1" fill="none" stroke="#000000" stroke-linecap="round" stroke-linejoin="round" stroke-opacity="0.3019608" stroke-width="1.0"/>
      <path d="M32.95 5.9 Q33.45 3.65 30.4 4.9 31.75 3.8 32.95 3.5 34.65 3.6 35.95 4.2 L35.65 4.6 33.75 5.5 32.95 5.9 M28.45 6.7 Q28.1 8.2 30.3 7.55 L30.3 7.6 Q28.55 8.9 27.7 9.75 26.7 9.75 26.25 9.3 L27.35 7.95 27.5 7.75 28.45 6.7" fill="#cc0000" fill-rule="evenodd" stroke="none"/>
      <path d="M32.95 5.9 L30.4 7.5 30.3 7.6 30.3 7.55 Q28.1 8.2 28.45 6.7 L30.4 4.9 Q33.45 3.65 32.95 5.9" fill="#ba0101" fill-rule="evenodd" stroke="none"/>
      <path d="M30.3 7.6 L30.4 7.5 32.95 5.9 33.75 5.5 36.8 5.4 Q36.55 7.5 35.8 7.95 L34.7 8.4 34.1 8.25 33.45 8.05 32.2 7.75 Q30.3 7.9 28.4 9.4 L27.7 9.75 Q28.55 8.9 30.3 7.6" fill="#660000" fill-rule="evenodd" stroke="none"/>
      <path d="M39.9 13.1 L39.95 13.05 40.1 13.25 39.95 13.05 39.75 12.7 Q39.15 11.45 38.2 10.6 41.5 13.35 43.3 16.65 44.15 18.1 44.65 19.6 L44.65 19.95 43.15 17.25 Q41.6 14.65 40.1 13.25 40.6 14.55 40.7 15.9 L40.7 16.25 40.7 16.45 40.7 16.6 40.5 17.95 39.8 19.9 39.3 20.75 Q38.5 22.35 37.15 23.6 L34.75 25.45 32.7 26.4 32.05 26.65 31.05 27.0 30.25 27.25 Q26.15 28.4 22.25 27.4 19.5 26.6 17.75 24.95 16.45 23.85 15.8 22.35 L15.55 21.85 15.5 21.45 Q14.9 19.75 15.2 17.95 L15.35 17.35 Q15.65 16.05 16.4 14.65 L16.7 14.2 17.7 12.85 19.3 11.25 17.7 12.85 Q15.9 13.25 16.5 11.5 L17.6 10.95 Q21.15 9.35 23.75 8.7 L23.95 8.65 24.2 8.6 Q25.85 7.95 27.5 7.75 L27.35 7.95 Q26.55 8.25 25.85 8.65 23.3 9.0 20.7 10.25 L19.3 11.25 Q18.0 12.6 17.65 13.45 17.4 14.25 20.1 15.2 L18.2 14.8 17.7 14.65 17.15 14.45 Q15.9 15.6 15.4 18.1 L15.2 19.05 Q15.4 20.45 15.95 21.8 L16.05 21.95 16.4 22.55 17.9 24.4 Q19.65 26.0 22.4 26.75 26.3 27.8 30.4 26.7 L31.9 26.2 32.2 26.1 Q36.05 24.6 38.3 21.95 38.5 19.95 33.8 18.8 L34.75 18.95 Q38.55 20.05 38.65 21.45 L39.15 20.7 39.65 19.85 Q41.1 16.8 39.9 13.1 M35.75 14.75 L35.6 15.95 Q35.2 16.8 34.2 17.2 L32.05 17.3 Q31.3 17.1 30.85 16.7 L30.55 16.25 30.4 16.1 Q30.15 15.35 30.45 14.6 30.9 13.7 31.9 13.3 L33.95 13.2 Q35.05 13.5 35.55 14.25 L35.65 14.55 35.75 14.75 M27.1 18.1 L28.15 18.25 32.55 18.6 33.15 18.7 29.8 18.95 30.45 19.55 30.6 19.9 30.6 20.1 Q30.9 21.55 30.25 22.8 29.45 24.0 28.45 24.45 L27.75 24.75 28.55 24.25 Q28.15 24.1 28.2 23.6 L29.2 23.7 30.25 22.1 Q30.6 20.3 29.8 19.4 L29.75 19.4 Q28.75 18.4 27.1 18.3 L26.45 18.25 22.55 17.1 22.3 17.0 19.05 16.1 Q17.55 16.35 16.6 17.6 L16.65 17.8 Q16.85 18.35 17.5 17.9 L17.35 18.3 17.05 18.85 Q16.7 18.3 16.15 19.2 16.1 20.0 16.6 20.55 L16.7 20.65 Q17.6 21.6 18.7 21.6 L20.9 21.4 Q22.7 21.15 23.5 22.1 24.1 23.25 25.35 24.15 L27.4 24.05 26.55 24.75 25.85 24.5 Q24.45 23.95 23.5 22.45 22.6 21.6 21.35 21.7 L20.25 21.9 20.1 21.9 Q18.7 22.1 17.2 21.4 L16.55 20.9 16.35 20.7 16.35 20.65 15.95 19.45 16.0 18.75 16.0 18.7 16.0 18.5 16.05 18.25 Q17.4 15.3 20.7 16.2 L22.15 16.8 Q24.45 17.75 27.1 18.1 M21.0 14.1 L20.5 14.1 Q19.9 13.9 19.65 13.5 L19.45 13.1 Q19.25 12.4 19.75 11.65 20.25 10.85 21.25 10.4 L23.05 10.35 23.3 10.4 23.15 10.6 23.05 10.7 22.85 10.6 21.3 10.75 Q20.4 11.05 19.95 11.75 19.5 12.45 19.7 13.05 L19.9 13.4 20.6 13.9 20.9 13.95 21.0 14.1 M11.65 15.3 Q13.2 16.9 13.7 20.55 12.7 16.6 11.55 16.1 9.8 17.4 8.05 20.45 8.55 21.4 11.5 22.5 L8.65 21.85 8.5 21.85 Q8.0 21.8 7.8 22.25 7.5 22.8 7.5 23.9 7.3 22.75 7.4 21.6 L7.5 20.8 7.95 19.95 8.05 19.85 Q9.55 17.3 11.65 15.3 M28.15 18.25 L29.8 18.95 28.15 18.25 M20.7 10.25 Q22.05 9.35 23.75 8.7 22.05 9.35 20.7 10.25 M24.15 14.25 L25.6 14.45 Q26.25 14.5 26.75 13.9 L29.55 11.15 Q29.9 10.8 30.3 10.55 L29.6 11.15 Q27.4 13.1 26.55 14.9 26.25 16.05 26.4 16.75 L25.85 15.15 Q25.4 14.55 24.15 14.25 M35.25 14.65 L35.1 14.45 Q34.75 13.8 33.8 13.55 L32.05 13.65 Q31.25 13.95 30.9 14.7 30.6 15.4 30.95 16.1 L31.25 16.45 Q31.6 16.8 32.25 17.0 L33.95 16.9 Q34.9 16.6 35.2 15.9 L35.25 14.65 M33.2 28.3 Q33.4 29.05 35.35 29.85 L33.95 29.55 32.1 29.4 33.2 28.3 M40.45 31.0 L42.35 31.1 Q42.2 28.15 40.85 25.9 40.05 24.5 38.7 23.55 L39.8 21.45 Q40.2 23.15 41.1 24.55 L41.15 24.55 41.2 24.65 Q42.4 26.25 44.5 27.4 L44.25 28.25 43.5 31.55 42.5 34.0 42.8 32.5 Q43.05 31.7 40.45 31.0 M10.4 31.55 L9.7 30.85 Q8.15 29.55 7.35 30.5 L7.05 31.1 7.3 30.25 7.5 30.0 7.7 29.55 Q8.75 29.65 9.7 30.7 L10.4 31.55 M44.1 26.15 Q44.8 25.15 44.7 20.0 45.1 22.95 44.8 25.6 L44.1 26.15" fill="#f9f8ec" fill-rule="evenodd" stroke="none"/>
      <path d="M36.8 5.4 L33.75 5.5 35.65 4.6 35.95 4.2 36.25 4.35 Q36.75 4.75 36.8 5.4" fill="#ff0000" fill-rule="evenodd" stroke="none"/>
      <path d="M34.1 8.25 L34.1 8.35 34.1 8.25" fill="#e6e4b3" fill-rule="evenodd" stroke="none"/>
      <path d="M39.9 13.1 Q41.1 16.8 39.65 19.85 L39.15 20.7 38.65 21.45 Q38.55 20.05 34.75 18.95 L33.8 18.8 33.35 18.7 33.15 18.7 32.55 18.6 28.15 18.25 27.1 18.1 27.2 17.9 27.95 16.2 30.4 16.1 30.55 16.25 30.85 16.7 Q31.3 17.1 32.05 17.3 L34.2 17.2 Q35.2 16.8 35.6 15.95 L35.75 14.75 Q41.3 13.55 37.25 9.8 37.75 10.1 38.1 10.55 L38.2 10.6 Q39.15 11.45 39.75 12.7 L39.9 13.1 M15.2 19.05 L15.4 18.1 Q15.9 15.6 17.15 14.45 L17.7 14.65 18.2 14.8 20.1 15.2 21.3 15.35 21.7 16.3 22.15 16.8 20.7 16.2 Q17.4 15.3 16.05 18.25 L16.0 18.5 15.95 18.7 15.95 18.75 16.0 18.75 15.95 19.45 16.35 20.65 16.35 20.7 16.5 21.0 Q17.05 22.05 18.25 22.45 L20.7 22.6 17.8 22.5 16.4 21.3 15.95 20.35 Q15.75 19.6 15.95 18.75 L15.2 19.05 M15.35 17.35 L15.2 17.95 Q14.7 19.75 14.8 21.6 L15.05 23.6 13.9 23.25 13.7 20.55 Q13.2 16.9 11.65 15.3 12.35 14.55 13.2 13.9 13.5 15.75 14.8 16.95 L15.35 17.35 M31.05 27.0 L32.05 26.65 32.7 26.4 34.75 25.45 Q33.05 27.65 34.25 27.6 L33.2 28.3 32.1 29.4 Q32.9 32.95 29.5 34.95 29.05 33.5 28.1 32.35 L27.45 31.5 Q30.45 31.8 31.45 28.95 31.7 27.3 31.05 27.0 M37.15 23.6 Q38.5 22.35 39.3 20.75 L39.8 19.9 40.5 17.95 40.7 16.6 40.7 17.1 40.6 18.9 40.7 17.1 40.7 16.6 Q41.6 19.2 42.4 20.1 43.05 20.8 43.75 20.65 L42.25 20.75 Q41.2 20.45 40.6 18.9 L39.8 21.45 38.7 23.55 36.8 25.6 Q37.75 23.8 37.15 23.6 M44.7 20.0 L44.65 19.95 44.65 19.6 Q45.9 23.4 45.3 27.8 L45.3 27.9 Q44.75 31.1 43.8 33.5 L43.75 33.7 Q42.95 34.6 43.5 31.55 L44.25 28.25 44.5 27.4 Q42.4 26.25 41.2 24.65 L41.15 24.55 41.2 24.6 Q43.1 26.4 44.1 26.15 L44.8 25.6 Q45.1 22.95 44.7 20.0 M23.15 10.6 L23.3 10.4 Q24.45 9.35 25.85 8.65 26.55 8.25 27.35 7.95 L26.25 9.3 Q26.7 9.75 27.7 9.75 L28.4 9.4 Q30.3 7.9 32.2 7.75 L33.45 8.05 34.1 8.25 Q32.65 8.9 31.25 9.85 L30.95 10.05 30.3 10.55 Q28.75 9.6 25.9 10.05 L24.05 10.35 23.15 10.6 M28.2 23.6 Q28.15 24.1 28.55 24.25 L27.75 24.75 26.55 24.75 27.4 24.05 27.45 23.75 28.25 23.45 28.2 23.6 M30.6 19.9 L30.45 19.55 Q31.2 20.3 31.3 21.3 L31.2 22.5 Q29.6 26.4 25.65 25.4 24.3 24.7 23.5 23.4 24.4 24.6 26.15 25.25 28.15 25.6 29.3 24.6 30.9 23.3 31.05 21.9 31.15 21.05 30.8 20.3 L30.6 19.9 M22.0 22.35 L21.0 22.45 20.9 22.5 20.85 22.2 20.1 21.9 20.25 21.9 21.35 21.7 Q21.2 21.85 21.35 22.0 L22.0 22.35 M26.55 31.7 Q27.85 33.35 27.0 35.5 24.7 39.4 20.0 40.3 13.35 40.35 11.05 35.55 10.8 34.9 10.95 34.05 L11.05 33.7 Q11.5 32.4 12.95 30.85 14.35 29.7 15.9 29.1 17.7 28.45 19.6 28.6 22.0 28.85 23.8 29.75 25.2 30.35 26.2 31.3 L26.45 31.6 26.55 31.7 M9.2 27.95 L9.85 28.05 10.05 28.15 12.5 30.3 11.95 30.95 8.55 28.35 8.9 28.05 9.2 27.95 M10.3 33.75 L10.2 34.2 7.2 33.1 Q6.9 32.75 6.85 32.2 L10.3 33.75" fill="#d5d580" fill-rule="evenodd" stroke="none"/>
      <path d="M33.8 18.8 Q38.5 19.95 38.3 21.95 36.05 24.6 32.2 26.1 L31.9 26.2 30.4 26.7 Q26.3 27.8 22.4 26.75 19.65 26.0 17.9 24.4 L16.4 22.55 16.35 21.6 16.45 21.8 17.85 22.9 20.7 22.95 20.9 22.9 21.05 22.9 22.05 22.75 Q22.7 22.8 23.3 23.4 L23.55 23.75 23.6 23.8 Q24.4 25.15 25.75 25.8 29.7 26.85 31.25 22.9 L31.3 21.3 Q31.2 20.3 30.45 19.55 L29.8 18.95 33.15 18.7 33.35 18.7 33.8 18.8 M20.1 15.2 Q17.4 14.25 17.65 13.45 18.0 12.6 19.3 11.25 L20.7 10.25 Q23.3 9.0 25.85 8.65 24.45 9.35 23.3 10.4 L23.05 10.35 21.25 10.4 Q20.25 10.85 19.75 11.65 19.25 12.4 19.45 13.1 L19.65 13.5 Q19.9 13.9 20.5 14.1 L21.0 14.1 21.05 14.5 21.3 15.35 20.1 15.2 M17.7 12.85 L16.7 14.2 16.4 14.65 Q15.65 16.05 15.35 17.35 L14.8 16.95 Q13.65 14.75 14.0 13.25 L16.5 11.5 Q15.9 13.25 17.7 12.85 M15.2 17.95 Q14.9 19.75 15.5 21.45 15.2 23.4 16.45 26.0 17.55 28.0 15.9 29.1 14.35 29.7 12.95 30.85 11.5 32.4 11.05 33.7 L10.95 34.05 Q9.9 37.9 12.2 41.1 18.25 48.15 25.95 44.15 29.55 41.3 29.3 37.3 28.85 34.4 26.55 31.7 L26.45 31.6 26.2 31.3 Q25.2 30.35 23.8 29.75 25.7 29.95 26.85 30.85 L27.45 31.5 28.1 32.35 Q29.05 33.5 29.5 34.95 L29.6 35.15 Q30.45 37.8 29.75 40.3 L29.5 41.05 28.95 42.1 Q27.0 45.4 23.0 46.3 19.05 47.1 15.35 45.05 11.65 42.95 10.35 39.15 9.5 36.6 10.2 34.2 L10.3 33.75 10.9 32.4 11.05 32.1 11.35 31.6 11.95 30.95 11.35 31.6 11.05 32.1 10.9 32.4 10.4 31.55 9.7 30.7 Q8.75 29.65 7.7 29.55 L8.55 28.35 11.95 30.95 12.5 30.3 Q13.8 29.0 15.55 28.4 16.6 28.05 16.3 26.95 L15.4 24.75 15.05 23.6 14.8 21.6 Q14.7 19.75 15.2 17.95 M40.7 16.6 L40.7 16.45 40.7 16.25 40.7 15.9 Q40.6 14.55 40.1 13.25 41.6 14.65 43.15 17.25 L44.65 19.95 44.7 20.0 44.65 20.0 43.95 20.55 43.75 20.65 Q43.05 20.8 42.4 20.1 41.6 19.2 40.7 16.6 M37.25 9.8 Q41.3 13.55 35.75 14.75 L35.65 14.55 35.55 14.25 Q35.05 13.5 33.95 13.2 L31.9 13.3 Q30.9 13.7 30.45 14.6 30.15 15.35 30.4 16.1 L27.95 16.2 Q30.0 12.1 34.1 8.35 L34.1 8.25 34.7 8.4 37.25 9.8 M23.05 10.7 L23.15 10.6 24.05 10.35 25.9 10.05 Q28.75 9.6 30.3 10.55 29.9 10.8 29.55 11.15 L26.75 13.9 Q26.25 14.5 25.6 14.45 L24.15 14.25 23.2 13.95 Q22.75 13.8 22.45 13.65 L22.05 13.4 Q21.5 13.0 21.45 12.5 L22.7 11.05 23.05 10.7 M13.7 20.55 L13.9 23.25 11.5 22.5 Q8.55 21.4 8.05 20.45 9.8 17.4 11.55 16.1 12.7 16.6 13.7 20.55 M17.5 17.9 Q16.85 18.35 16.65 17.8 L16.6 17.6 Q17.55 16.35 19.05 16.1 L22.3 17.0 22.55 17.1 26.45 18.25 27.1 18.3 Q28.75 18.4 29.75 19.4 L29.8 19.4 Q30.6 20.3 30.25 22.1 L29.2 23.7 28.2 23.6 28.25 23.45 28.7 23.1 29.05 22.7 29.1 22.7 29.1 22.65 29.3 22.25 29.5 21.6 Q29.9 20.4 29.0 19.7 27.8 18.9 26.95 18.8 L25.0 18.6 22.7 17.95 21.05 17.1 Q18.55 16.35 17.6 17.6 L17.5 17.9 M34.25 27.6 Q34.7 27.3 35.1 27.1 L36.8 25.6 38.7 23.55 Q40.05 24.5 40.85 25.9 42.2 28.15 42.35 31.1 L40.45 31.0 39.5 30.8 38.05 30.5 35.5 29.85 35.4 29.85 35.35 29.85 Q33.4 29.05 33.2 28.3 L34.25 27.6 M40.2 38.35 L40.95 37.15 Q42.1 35.35 42.5 34.0 L43.5 31.55 Q42.95 34.6 43.75 33.7 42.85 35.8 41.6 37.35 L39.2 39.6 40.2 38.35 M25.0 22.85 L25.25 23.1 Q26.45 23.9 27.45 23.75 L27.4 24.05 25.35 24.15 Q24.1 23.25 23.5 22.1 22.7 21.15 20.9 21.4 L18.7 21.6 Q17.6 21.6 16.7 20.65 L16.6 20.55 Q16.1 20.0 16.15 19.2 16.7 18.3 17.05 18.85 16.95 19.55 17.2 20.05 L17.5 20.35 17.55 20.4 17.6 20.5 Q18.0 21.1 19.25 21.15 L19.7 21.15 19.85 21.15 20.7 21.0 Q21.65 20.6 22.55 20.75 L22.7 20.8 Q23.55 21.05 24.25 21.85 L25.0 22.85" fill="#f0f0d2" fill-rule="evenodd" stroke="none"/>
      <path d="M16.4 22.55 L16.05 21.95 15.95 21.8 Q15.4 20.45 15.2 19.05 L15.95 18.75 15.95 18.7 16.0 18.5 16.0 18.7 16.0 18.75 15.95 18.75 Q15.75 19.6 15.95 20.35 L16.4 21.3 16.35 21.6 16.4 22.55 M15.5 21.45 L15.55 21.85 15.8 22.35 Q16.45 23.85 17.75 24.95 19.5 26.6 22.25 27.4 26.15 28.4 30.25 27.25 L31.05 27.0 Q31.7 27.3 31.45 28.95 30.45 31.8 27.45 31.5 L26.85 30.85 Q25.7 29.95 23.8 29.75 22.0 28.85 19.6 28.6 17.7 28.45 15.9 29.1 17.55 28.0 16.45 26.0 15.2 23.4 15.5 21.45 M34.75 25.45 L37.15 23.6 Q37.75 23.8 36.8 25.6 L35.1 27.1 Q34.7 27.3 34.25 27.6 33.05 27.65 34.75 25.45 M27.95 16.2 L27.2 17.9 27.1 18.1 Q24.45 17.75 22.15 16.8 L21.7 16.3 21.3 15.35 21.05 14.5 21.0 14.1 20.9 13.95 21.05 13.15 21.45 12.5 Q21.5 13.0 22.05 13.4 20.75 13.45 21.7 16.3 L26.6 17.6 26.4 16.75 Q26.25 16.05 26.55 14.9 27.4 13.1 29.6 11.15 L30.3 10.55 30.95 10.05 31.25 9.85 Q32.65 8.9 34.1 8.25 L34.1 8.35 Q30.0 12.1 27.95 16.2 M43.75 20.65 L43.95 20.55 44.65 20.0 44.7 20.0 Q44.8 25.15 44.1 26.15 43.1 26.4 41.2 24.6 L41.15 24.55 41.1 24.55 Q40.2 23.15 39.8 21.45 L40.6 18.9 Q41.2 20.45 42.25 20.75 L43.75 20.65 M19.9 13.4 L19.7 13.05 Q19.5 12.45 19.95 11.75 20.4 11.05 21.3 10.75 L22.85 10.6 23.05 10.7 22.7 11.05 21.45 11.25 Q20.6 11.6 20.2 12.25 19.8 12.9 19.9 13.4 M14.8 16.95 Q13.5 15.75 13.2 13.9 L14.0 13.25 Q13.65 14.75 14.8 16.95 M13.9 23.25 L15.05 23.6 15.4 24.75 Q14.65 29.3 12.95 28.5 L11.25 27.75 Q10.05 26.95 9.35 25.9 8.35 24.25 8.5 21.85 L8.65 21.85 11.5 22.5 13.9 23.25 M17.05 18.85 L17.35 18.3 17.5 17.9 17.6 17.6 Q18.55 16.35 21.05 17.1 L22.7 17.95 25.0 18.6 26.95 18.8 Q27.8 18.9 29.0 19.7 29.9 20.4 29.5 21.6 L29.3 22.25 29.3 22.2 29.45 21.4 Q29.45 20.05 27.3 19.45 L27.0 19.4 24.9 19.15 23.45 18.85 23.25 18.75 22.35 18.4 22.05 18.25 21.0 17.75 20.05 17.5 19.8 17.5 19.35 17.4 Q18.35 17.4 17.85 18.1 17.55 18.55 17.4 19.2 L17.4 19.95 17.5 20.35 17.2 20.05 Q16.95 19.55 17.05 18.85 M27.75 24.75 L28.45 24.45 Q29.45 24.0 30.25 22.8 30.9 21.55 30.6 20.1 L30.6 19.9 30.8 20.3 Q31.15 21.05 31.05 21.9 30.9 23.3 29.3 24.6 28.15 25.6 26.15 25.25 24.4 24.6 23.5 23.4 L23.45 23.3 23.2 23.0 23.1 22.85 Q22.6 22.4 22.0 22.35 L21.35 22.0 Q21.2 21.85 21.35 21.7 22.6 21.6 23.5 22.45 24.45 23.95 25.85 24.5 L26.55 24.75 27.75 24.75 M34.1 8.35 Q29.6 12.05 27.35 16.2 L26.6 17.6 27.35 16.2 Q29.6 12.05 34.1 8.35 M35.25 14.65 L35.1 14.55 Q34.75 14.25 34.25 14.1 L32.5 14.2 Q31.65 14.55 31.3 15.25 31.0 15.9 31.25 16.45 L30.95 16.1 Q30.6 15.4 30.9 14.7 31.25 13.95 32.05 13.65 L33.8 13.55 Q34.75 13.8 35.1 14.45 L35.25 14.65 M20.9 22.5 L20.85 22.5 20.7 22.6 18.25 22.45 Q17.05 22.05 16.5 21.0 L16.35 20.7 16.55 20.9 17.2 21.4 Q18.7 22.1 20.1 21.9 L20.85 22.2 20.9 22.5 M35.35 29.85 L35.4 29.85 35.5 29.85 38.05 30.5 39.5 30.8 40.45 31.0 Q43.05 31.7 42.8 32.5 L42.5 34.0 Q42.1 35.35 40.95 37.15 34.4 40.65 32.85 35.75 32.25 33.25 33.95 29.55 L35.35 29.85 M29.75 40.3 Q35.25 41.45 40.2 38.35 L39.2 39.6 38.3 40.15 Q36.75 40.9 35.15 41.15 32.4 41.7 29.5 41.05 L29.75 40.3 M10.95 34.05 Q10.8 34.9 11.05 35.55 13.35 40.35 20.0 40.3 24.7 39.4 27.0 35.5 27.85 33.35 26.55 31.7 28.85 34.4 29.3 37.3 29.55 41.3 25.95 44.15 18.25 48.15 12.2 41.1 9.9 37.9 10.95 34.05 M7.8 22.25 Q7.85 24.6 8.55 26.4 8.8 27.25 9.2 27.95 L8.9 28.05 8.25 26.6 Q7.7 25.25 7.5 23.9 7.5 22.8 7.8 22.25 M10.9 32.4 L10.3 33.75 6.85 32.2 7.05 31.1 7.35 30.5 Q8.15 29.55 9.7 30.85 L10.4 31.55 10.9 32.4" fill="#bfbf40" fill-rule="evenodd" stroke="none"/>
      <path d="M22.05 13.4 L22.45 13.65 Q22.75 13.8 23.2 13.95 L24.15 14.25 Q25.4 14.55 25.85 15.15 L26.4 16.75 26.6 17.6 21.7 16.3 Q20.75 13.45 22.05 13.4 M31.3 21.3 L31.25 22.9 Q29.7 26.85 25.75 25.8 24.4 25.15 23.6 23.8 L23.55 23.75 23.3 23.4 Q22.7 22.8 22.05 22.75 L21.05 22.9 20.9 22.9 20.7 22.95 17.85 22.9 16.45 21.8 16.35 21.6 16.4 21.3 17.8 22.5 20.7 22.6 20.85 22.5 20.9 22.5 21.0 22.45 22.0 22.35 Q22.6 22.4 23.1 22.85 L23.2 23.0 23.45 23.3 23.5 23.4 Q24.3 24.7 25.65 25.4 29.6 26.4 31.2 22.5 L31.3 21.3 M32.1 29.4 L33.95 29.55 Q32.25 33.25 32.85 35.75 34.4 40.65 40.95 37.15 L40.2 38.35 Q35.25 41.45 29.75 40.3 30.45 37.8 29.6 35.15 L29.5 34.95 Q32.9 32.95 32.1 29.4 M8.5 21.85 Q8.35 24.25 9.35 25.9 10.05 26.95 11.25 27.75 L12.95 28.5 Q14.65 29.3 15.4 24.75 L16.3 26.95 Q16.6 28.05 15.55 28.4 13.8 29.0 12.5 30.3 L10.05 28.15 9.85 28.05 9.2 27.95 Q8.8 27.25 8.55 26.4 7.85 24.6 7.8 22.25 8.0 21.8 8.5 21.85" fill="#a6a637" fill-rule="evenodd" stroke="none"/>
      <path d="M20.9 13.95 L20.6 13.9 19.9 13.4 Q19.8 12.9 20.2 12.25 20.6 11.6 21.45 11.25 L22.7 11.05 21.45 12.5 21.05 13.15 20.9 13.95 M31.25 16.45 Q31.0 15.9 31.3 15.25 31.65 14.55 32.5 14.2 L34.25 14.1 Q34.75 14.25 35.1 14.55 L35.25 14.65 35.2 15.9 Q34.9 16.6 33.95 16.9 L32.25 17.0 Q31.6 16.8 31.25 16.45" fill="#86862d" fill-rule="evenodd" stroke="none"/>
      <path d="M22.9 19.2 L23.05 19.3 22.9 19.7 Q21.65 20.45 20.75 20.05 22.4 19.85 22.9 19.2 M29.05 22.7 L28.7 23.1 Q27.05 23.1 26.6 21.9 27.75 23.25 29.05 22.7 M26.4 20.35 L25.85 21.25 Q24.6 21.6 23.85 21.0 25.4 21.6 26.4 20.35 M19.75 19.0 L19.75 19.9 Q18.85 20.3 18.05 19.55 19.2 20.2 19.75 19.0" fill="#ffff98" fill-rule="evenodd" stroke="none"/>
      <path d="M17.75 19.2 L18.0 18.8 Q18.5 18.05 19.5 18.1 L19.8 18.1 19.75 19.0 Q19.2 20.2 18.05 19.55 L17.75 19.2 M29.45 21.4 L29.3 22.2 29.3 22.25 29.1 22.65 29.1 22.7 29.05 22.7 Q27.75 23.25 26.6 21.9 26.45 21.4 26.55 20.9 L27.0 20.05 27.45 20.1 Q29.05 20.55 29.45 21.4 M20.05 18.1 L20.2 18.2 21.15 18.35 Q21.7 18.55 22.2 18.85 L22.55 19.0 22.9 19.2 Q22.4 19.85 20.75 20.05 L20.0 19.2 20.05 18.1 M26.55 20.0 L26.4 20.35 Q25.4 21.6 23.85 21.0 23.35 20.65 23.1 19.9 L23.25 19.4 Q23.4 19.4 23.6 19.55 L25.1 19.75 26.55 20.0" fill="#ffde4f" fill-rule="evenodd" stroke="none"/>
      <path d="M17.5 20.35 L17.55 19.9 17.75 19.2 18.05 19.55 Q18.85 20.3 19.75 19.9 L19.7 21.15 19.25 21.15 Q18.0 21.1 17.6 20.5 L17.55 20.4 17.5 20.35 M20.0 19.2 L20.75 20.05 Q21.65 20.45 22.9 19.7 L22.55 20.75 Q21.65 20.6 20.7 21.0 L19.85 21.15 20.0 19.2 M28.7 23.1 L28.25 23.45 27.45 23.75 Q26.45 23.9 25.25 23.1 L26.55 20.9 Q26.45 21.4 26.6 21.9 27.05 23.1 28.7 23.1 M25.85 21.25 L25.0 22.85 24.25 21.85 Q23.55 21.05 22.7 20.8 L23.1 19.9 Q23.35 20.65 23.85 21.0 24.6 21.6 25.85 21.25" fill="#f4a33c" fill-rule="evenodd" stroke="none"/>
      <path d="M19.8 18.1 L19.8 17.5 20.05 17.5 20.05 18.1 20.0 19.2 19.85 21.15 19.7 21.15 19.75 19.9 19.75 19.0 19.8 18.1 M23.25 18.75 L23.45 18.85 23.25 19.4 23.1 19.9 22.7 20.8 22.55 20.75 22.9 19.7 23.05 19.3 23.25 18.75 M27.0 19.4 L27.3 19.45 27.0 20.05 26.55 20.9 25.25 23.1 25.0 22.85 25.85 21.25 26.4 20.35 26.55 20.0 27.0 19.4" fill="#cc6b22" fill-rule="evenodd" stroke="none"/>
      <path d="M17.5 20.35 L17.4 19.95 17.4 19.2 Q17.55 18.55 17.85 18.1 18.35 17.4 19.35 17.4 L19.8 17.5 19.8 18.1 19.5 18.1 Q18.5 18.05 18.0 18.8 L17.75 19.2 17.55 19.9 17.5 20.35 M20.05 17.5 L21.0 17.75 22.05 18.25 22.35 18.4 23.25 18.75 23.05 19.3 22.9 19.2 22.55 19.0 22.2 18.85 Q21.7 18.55 21.15 18.35 L20.2 18.2 20.05 18.1 20.05 17.5 M23.45 18.85 L24.9 19.15 27.0 19.4 26.55 20.0 25.1 19.75 23.6 19.55 Q23.4 19.4 23.25 19.4 L23.45 18.85 M27.3 19.45 Q29.45 20.05 29.45 21.4 29.05 20.55 27.45 20.1 L27.0 20.05 27.3 19.45" fill="#a34100" fill-rule="evenodd" stroke="none"/>
      <path d="M19.3 11.25 L17.7 12.85 16.7 14.2 16.4 14.65 Q15.65 16.05 15.35 17.35 L15.2 17.95 Q14.7 19.75 14.8 21.6 L15.05 23.6 15.4 24.75 16.3 26.95 Q16.6 28.05 15.55 28.4 13.8 29.0 12.5 30.3 L11.95 30.95 11.35 31.6 11.05 32.1 10.9 32.4 10.3 33.75 10.2 34.2 Q9.5 36.6 10.35 39.15 11.65 42.95 15.35 45.05 19.05 47.1 23.0 46.3 27.0 45.4 28.95 42.1 L29.5 41.05 29.75 40.3 Q30.45 37.8 29.6 35.15 L29.5 34.95 Q32.9 32.95 32.1 29.4 L33.2 28.3 34.25 27.6 Q34.7 27.3 35.1 27.1 L36.8 25.6 38.7 23.55 39.8 21.45 40.6 18.9 40.7 17.1 40.7 16.6 40.7 16.45 40.7 16.25 40.7 15.9 Q40.6 14.55 40.1 13.25 L39.95 13.05 39.75 12.7 Q39.15 11.45 38.2 10.6 L38.1 10.55 Q37.75 10.1 37.25 9.8 L34.7 8.4 35.8 7.95 Q36.55 7.5 36.8 5.4 36.75 4.75 36.25 4.35 L35.95 4.2 Q34.65 3.6 32.95 3.5 31.75 3.8 30.4 4.9 L28.45 6.7 27.5 7.75 27.35 7.95 26.25 9.3 Q26.7 9.75 27.7 9.75 L28.4 9.4 Q30.3 7.9 32.2 7.75 L33.45 8.05 34.1 8.25 34.7 8.4 M27.1 18.1 L28.15 18.25 29.8 18.95 30.45 19.55 Q31.2 20.3 31.3 21.3 L31.2 22.5 Q29.6 26.4 25.65 25.4 24.3 24.7 23.5 23.4 L23.45 23.3 23.2 23.0 M44.65 19.6 Q44.15 18.1 43.3 16.65 41.5 13.35 38.2 10.6 M21.0 14.1 L20.9 13.95 21.05 13.15 21.45 12.5 22.7 11.05 23.05 10.7 23.15 10.6 23.3 10.4 Q24.45 9.35 25.85 8.65 26.55 8.25 27.35 7.95 M20.7 10.25 L19.3 11.25 M23.75 8.7 Q21.15 9.35 17.6 10.95 L16.5 11.5 14.0 13.25 13.2 13.9 Q12.35 14.55 11.65 15.3 9.55 17.3 8.05 19.85 L7.95 19.95 7.5 20.8 7.4 21.6 Q7.3 22.75 7.5 23.9 7.7 25.25 8.25 26.6 L8.9 28.05 9.2 27.95 9.85 28.05 10.05 28.15 12.5 30.3 M16.0 18.5 L15.95 18.7 15.95 18.75 Q15.75 19.6 15.95 20.35 L16.4 21.3 17.8 22.5 20.7 22.6 20.85 22.5 20.9 22.5 21.0 22.45 22.0 22.35 Q22.6 22.4 23.1 22.85 M16.0 18.5 L16.05 18.25 Q17.4 15.3 20.7 16.2 L22.15 16.8 Q24.45 17.75 27.1 18.1 M21.7 16.3 L21.3 15.35 21.05 14.5 21.0 14.1 M19.8 17.5 L19.35 17.4 Q18.35 17.4 17.85 18.1 17.55 18.55 17.4 19.2 L17.4 19.95 17.5 20.35 17.55 20.4 17.6 20.5 Q18.0 21.1 19.25 21.15 L19.7 21.15 19.85 21.15 20.7 21.0 Q21.65 20.6 22.55 20.75 L22.7 20.8 Q23.55 21.05 24.25 21.85 L25.0 22.85 25.25 23.1 Q26.45 23.9 27.45 23.75 L28.25 23.45 28.7 23.1 29.05 22.7 29.1 22.7 29.1 22.65 29.3 22.25 29.3 22.2 29.45 21.4 Q29.45 20.05 27.3 19.45 L27.0 19.4 24.9 19.15 23.45 18.85 23.25 18.75 22.35 18.4 22.05 18.25 21.0 17.75 20.05 17.5 19.8 17.5 M34.1 8.25 L34.1 8.35 Q29.6 12.05 27.35 16.2 L26.6 17.6 21.7 16.3 M27.5 7.75 Q25.85 7.95 24.2 8.6 L23.95 8.65 23.75 8.7 Q22.05 9.35 20.7 10.25 M27.45 31.5 L28.1 32.35 Q29.05 33.5 29.5 34.95 M26.85 30.85 L27.45 31.5 M8.55 28.35 L8.9 28.05 M7.7 29.55 L8.55 28.35 M7.7 29.55 L7.5 30.0 7.3 30.25 7.05 31.1 6.85 32.2 Q6.9 32.75 7.2 33.1 L10.2 34.2 M39.2 39.6 L38.3 40.15 Q36.75 40.9 35.15 41.15 32.4 41.7 29.5 41.05 M44.65 19.6 Q45.9 23.4 45.3 27.8 L45.3 27.9 Q44.75 31.1 43.8 33.5 L43.75 33.7 Q42.85 35.8 41.6 37.35 L39.2 39.6" fill="none" stroke="#000000" stroke-linecap="round" stroke-linejoin="round" stroke-opacity="0.3019608" stroke-width="0.30000000000000004"/>
      <path d="M17.25 28.95 Q19.6 28.65 21.4 29.45 23.2 30.25 23.35 31.55 23.5 32.95 22.0 34.2 20.45 35.35 18.05 35.6 L13.8 35.15 Q12.05 34.35 11.85 32.9 11.75 31.6 13.3 30.45 14.85 29.25 17.25 28.95" fill="#f0f0d2" fill-rule="evenodd" stroke="none"/>
      <path d="M17.0 29.35 L18.4 29.55 Q18.95 29.8 19.0 30.3 19.1 30.8 18.55 31.1 18.1 31.55 17.2 31.65 L15.8 31.5 Q15.25 31.2 15.15 30.7 15.1 30.35 15.65 29.9 16.15 29.5 17.0 29.35" fill="#f9f8ec" fill-rule="evenodd" stroke="none"/>
      <path d="M23.55 11.7 Q23.55 11.4 23.7 11.05 L23.9 10.8 24.55 10.35 25.85 10.25 26.15 10.35 26.75 10.85 26.8 10.9 26.75 11.0 26.65 11.45 26.15 12.05 25.8 12.2 24.5 12.3 23.8 11.9 23.55 11.7" fill="#cc0000" fill-rule="evenodd" stroke="none"/>
      <path d="M26.3 12.5 L25.95 12.65 24.65 12.7 Q24.2 12.6 23.95 12.35 L23.75 12.1 23.7 11.95 23.55 11.7 23.8 11.9 24.5 12.3 25.8 12.2 26.15 12.05 26.3 12.5" fill="#660000" fill-rule="evenodd" stroke="none"/>
      <path d="M26.8 10.9 L26.85 11.05 26.8 11.95 26.3 12.5 26.15 12.05 26.65 11.45 26.75 11.0 26.8 10.9" fill="#990000" fill-rule="evenodd" stroke="none"/>
      <path d="M23.55 11.7 Q23.55 11.4 23.7 11.05 L23.9 10.8 24.55 10.35 25.85 10.25 26.15 10.35 26.75 10.85 26.8 10.9 26.85 11.05 26.8 11.95 26.3 12.5 25.95 12.65 24.65 12.7 Q24.2 12.6 23.95 12.35 L23.75 12.1 23.7 11.95 23.55 11.7 Z" fill="none" stroke="#000000" stroke-linecap="round" stroke-linejoin="round" stroke-opacity="0.3019608" stroke-width="0.30000000000000004"/>
      <path d="M9.9 44.25 L9.7 44.4 9.65 43.3 9.4 42.45 8.9 41.25 8.05 39.9 7.7 39.45 7.2 38.95 7.8 41.65 7.8 41.8 7.75 41.65 6.9 38.9 7.1 38.85 7.15 38.8 7.7 39.15 7.9 39.3 8.6 40.25 10.8 40.4 11.7 40.15 10.85 40.5 8.85 40.6 9.1 41.15 9.7 42.55 9.8 43.25 9.9 43.65 9.9 44.25 M30.3 35.65 Q30.55 35.2 30.85 35.1 L31.1 35.1 31.35 35.1 Q30.95 35.1 30.55 35.65 L30.4 35.85 30.3 36.05 29.95 36.95 Q30.35 37.4 30.55 38.2 L30.9 39.55 30.4 38.35 29.9 37.45 29.75 38.0 29.7 38.7 29.7 39.05 29.8 40.2 29.85 40.4 30.35 41.1 30.15 41.05 Q29.8 40.85 29.65 40.3 L29.55 40.15 Q29.45 39.75 29.5 39.25 L29.5 38.55 27.75 38.35 29.55 38.05 29.55 37.95 Q29.75 36.65 30.2 35.75 L30.3 35.65 M21.65 46.55 L22.05 46.95 22.05 47.45 21.95 47.15 21.55 46.8 21.45 46.7 21.2 46.6 20.6 46.25 20.35 46.25 Q16.5 44.95 15.5 47.0 L15.45 46.8 15.5 46.65 15.65 46.3 Q15.75 46.1 16.2 45.9 L16.65 45.7 18.25 45.55 18.85 45.65 18.95 45.6 19.7 44.65 20.15 43.9 19.9 44.8 19.45 45.7 Q20.55 45.85 21.25 46.35 L21.6 46.55 21.65 46.55" fill="#f9f8ec" fill-rule="evenodd" stroke="none"/>
      <path d="M10.35 37.75 Q10.15 37.2 10.45 37.05 L10.55 37.0 10.95 37.1 11.35 37.55 11.4 37.55 12.8 39.75 13.2 40.55 13.75 42.15 13.9 42.95 13.9 43.3 13.8 43.35 13.75 43.4 Q13.45 43.65 12.8 42.85 L12.7 42.7 Q13.3 43.4 13.6 43.2 L13.6 43.15 13.65 43.05 13.7 43.0 13.55 42.05 13.55 41.9 13.4 41.4 13.1 40.55 12.7 39.8 12.6 39.55 11.7 38.15 11.4 37.75 11.35 37.75 10.8 37.3 10.6 37.25 10.45 37.25 10.35 37.75 M9.7 44.4 L9.6 44.45 9.55 44.45 9.55 44.5 Q9.3 44.7 8.65 44.05 L8.1 41.8 8.05 39.9 8.9 41.25 9.4 42.45 9.65 43.3 9.7 44.4 M7.75 42.8 L7.45 42.25 7.05 41.25 6.75 40.15 Q6.45 39.15 6.8 38.9 L6.9 38.95 6.9 38.9 7.75 41.65 7.8 41.8 7.75 42.8 M29.5 35.15 L29.4 35.15 29.35 35.1 Q29.05 34.3 28.55 34.2 L28.15 34.3 27.5 35.1 27.35 35.25 27.2 35.75 26.9 37.45 26.85 37.55 26.9 37.65 Q26.8 38.8 27.0 39.7 L27.05 39.75 27.1 40.0 27.25 40.3 27.65 40.95 27.7 40.95 28.05 41.1 Q28.35 41.1 28.65 40.8 L28.75 40.7 28.0 41.45 27.5 41.1 27.3 40.9 27.1 40.6 27.0 40.25 26.9 39.95 26.85 39.7 26.75 37.65 26.75 37.55 26.75 37.45 27.05 35.75 27.3 35.0 27.35 34.8 27.75 34.35 Q28.15 33.8 28.6 33.85 29.1 33.9 29.45 35.0 L29.5 35.15 M27.7 35.7 L30.3 35.65 30.2 35.75 Q29.75 36.65 29.55 37.95 L29.55 38.05 27.75 38.35 27.3 38.05 27.3 37.1 27.45 36.55 27.7 35.7 M31.35 35.1 L31.45 35.1 Q32.0 35.15 32.2 36.1 L32.3 36.6 32.25 38.35 31.95 39.75 Q31.3 39.0 30.85 37.9 L30.3 36.05 30.4 35.85 30.55 35.65 Q30.95 35.1 31.35 35.1 M31.1 41.0 L30.55 41.15 30.35 41.1 29.85 40.4 29.8 40.2 29.7 39.05 29.7 38.7 29.75 38.0 29.9 37.45 30.4 38.35 30.9 39.55 31.1 41.0 M22.05 43.85 L21.8 43.7 21.65 43.6 20.85 43.15 19.8 42.8 19.25 42.7 17.55 42.55 17.4 42.55 16.9 42.55 16.7 42.6 Q16.0 42.7 15.7 43.0 L15.45 43.4 Q15.35 44.0 16.0 44.55 15.15 44.05 15.2 43.35 15.25 42.95 15.75 42.7 L16.5 42.45 16.75 42.4 17.2 42.4 19.3 42.55 20.95 43.0 Q21.55 43.25 22.0 43.6 L22.3 43.8 22.8 44.35 22.95 44.95 Q22.9 45.45 22.05 45.75 L22.1 45.6 22.7 44.95 22.65 44.65 22.05 43.85 M20.35 46.25 Q20.55 47.15 19.9 47.5 L19.6 47.65 16.9 48.2 16.3 47.9 Q15.55 47.5 15.5 47.0 16.5 44.95 20.35 46.25 M18.8 48.6 Q19.0 48.2 19.75 47.75 20.3 47.35 21.15 47.0 L21.55 46.8 21.95 47.15 22.05 47.45 22.05 47.5 22.05 47.65 Q22.0 48.15 21.15 48.45 L20.9 48.5 19.3 48.65 18.8 48.6 M16.65 45.7 L17.15 43.9 18.6 43.65 20.15 43.65 20.15 43.85 20.15 43.9 19.7 44.65 18.95 45.6 18.85 45.65 18.25 45.55 16.65 45.7 M11.7 40.15 L10.8 40.4 8.6 40.25 7.9 39.3 7.7 39.15 11.45 38.2 11.9 38.65 12.05 39.0 12.4 39.75 11.7 40.15" fill="#f0f0d2" fill-rule="evenodd" stroke="none"/>
      <path d="M11.7 38.15 L12.6 39.55 12.4 39.75 12.05 39.0 11.9 38.65 11.45 38.2 7.7 39.15 7.15 38.8 10.35 38.05 10.8 37.9 10.95 37.85 11.45 38.2 11.7 38.15 M12.2 42.8 L9.9 44.25 9.9 43.65 12.55 42.0 12.2 42.8 M8.65 44.05 L7.75 42.8 7.8 41.8 7.8 41.65 7.2 38.95 7.7 39.45 8.05 39.9 8.1 41.8 8.65 44.05 M29.5 35.15 L30.85 35.1 Q30.55 35.2 30.3 35.65 L27.7 35.7 28.05 35.25 28.8 35.2 29.35 35.15 29.4 35.15 29.5 35.15 M31.95 39.75 L31.6 40.4 31.1 41.0 30.9 39.55 30.55 38.2 Q30.35 37.4 29.95 36.95 L30.3 36.05 30.85 37.9 Q31.3 39.0 31.95 39.75 M30.15 41.05 L28.75 40.7 28.25 40.55 28.2 40.55 28.15 40.5 27.7 39.9 29.65 40.3 Q29.8 40.85 30.15 41.05 M27.2 35.75 L27.7 35.7 27.45 36.55 27.3 37.1 27.3 38.05 26.9 37.65 26.85 37.55 26.9 37.45 27.2 35.75 M22.1 45.6 L22.05 45.75 22.05 46.95 21.65 46.55 21.65 44.05 22.05 44.3 22.1 45.05 22.1 45.6 M17.55 42.55 L19.25 42.7 19.8 42.8 20.15 43.65 18.6 43.65 17.15 43.9 16.65 45.7 16.2 45.9 Q15.75 46.1 15.65 46.3 L16.2 44.65 16.35 44.35 Q16.7 44.05 17.15 43.9 L17.55 42.55 M20.35 46.25 L20.6 46.25 21.2 46.6 21.45 46.7 21.55 46.8 21.15 47.0 Q20.3 47.35 19.75 47.75 19.0 48.2 18.8 48.6 L18.6 48.65 16.9 48.2 19.6 47.65 19.9 47.5 Q20.55 47.15 20.35 46.25" fill="#d5d580" fill-rule="evenodd" stroke="none"/>
      <path d="M11.35 37.75 L11.4 37.75 11.7 38.15 11.45 38.2 10.95 37.85 11.35 37.75 M13.4 41.4 L13.55 41.9 13.55 41.95 12.9 42.35 12.55 42.55 12.2 42.8 12.55 42.0 9.9 43.65 9.8 43.25 9.7 42.55 9.1 41.15 8.85 40.6 10.85 40.5 11.7 40.15 12.4 39.75 12.6 40.65 12.55 42.0 13.4 41.4 M28.05 35.25 L27.7 35.7 27.2 35.75 27.35 35.25 28.05 35.25 M27.3 38.05 L27.75 38.35 29.5 38.55 29.5 39.25 Q29.45 39.75 29.55 40.15 L29.65 40.3 27.7 39.9 Q27.3 39.2 27.3 38.05 M27.25 40.3 L27.1 40.0 27.05 39.75 27.7 39.9 28.15 40.5 28.2 40.55 27.25 40.3 M21.65 43.6 L21.8 43.7 22.05 43.85 22.05 44.3 21.65 44.05 21.65 43.6 M16.9 42.55 L17.4 42.55 17.55 42.55 17.15 43.9 Q16.7 44.05 16.35 44.35 L16.4 44.0 16.9 42.55 M20.15 43.65 L20.3 43.7 21.05 43.8 21.65 44.05 21.65 46.55 21.6 46.55 21.25 46.35 Q20.55 45.85 19.45 45.7 L19.9 44.8 20.15 43.9 20.15 43.85 20.15 43.65" fill="#bfbf40" fill-rule="evenodd" stroke="none"/>
      <path d="M10.35 37.75 L10.45 37.25 10.6 37.25 10.8 37.3 Q10.7 37.4 10.75 37.7 L10.75 37.75 10.8 37.9 10.35 38.05 10.35 37.75 M12.6 39.55 L12.7 39.8 13.1 40.55 13.4 41.4 12.55 42.0 12.6 40.65 12.4 39.75 12.6 39.55 M13.7 43.0 L13.65 43.05 13.6 43.15 13.6 43.2 Q13.3 43.4 12.7 42.7 L12.7 42.65 12.55 42.55 12.9 42.35 13.0 42.45 13.7 43.0 M29.4 35.15 L29.35 35.15 28.8 35.2 28.15 34.3 28.55 34.2 Q29.05 34.3 29.35 35.1 L29.4 35.15 M26.9 37.65 L27.3 38.05 Q27.3 39.2 27.7 39.9 L27.05 39.75 27.0 39.7 Q26.8 38.8 26.9 37.65 M27.7 40.95 L27.65 40.95 27.25 40.3 28.2 40.55 28.25 40.55 28.2 40.6 27.7 40.95 M22.65 44.65 L22.7 44.95 22.1 45.6 22.1 45.05 22.45 44.85 22.65 44.65 M16.0 44.55 Q15.35 44.0 15.45 43.4 L15.7 43.0 Q15.75 43.5 16.4 44.0 L16.35 44.35 16.2 44.65 16.0 44.55 M19.8 42.8 L20.85 43.15 21.65 43.6 21.65 44.05 21.05 43.8 20.3 43.7 20.15 43.65 19.8 42.8" fill="#a6a637" fill-rule="evenodd" stroke="none"/>
      <path d="M10.8 37.3 L11.35 37.75 10.95 37.85 10.8 37.9 10.75 37.75 10.75 37.7 Q10.7 37.4 10.8 37.3 M13.55 42.05 L13.7 43.0 13.0 42.45 12.9 42.35 13.55 41.95 13.55 42.05 M28.8 35.2 L28.05 35.25 27.35 35.25 27.5 35.1 28.15 34.3 28.8 35.2 M28.75 40.7 L28.65 40.8 Q28.35 41.1 28.05 41.1 L27.7 40.95 28.2 40.6 28.25 40.55 28.75 40.7 M22.05 43.85 L22.65 44.65 22.45 44.85 22.1 45.05 22.05 44.3 22.05 43.85 M15.7 43.0 Q16.0 42.7 16.7 42.6 L16.9 42.55 16.4 44.0 Q15.75 43.5 15.7 43.0" fill="#86862d" fill-rule="evenodd" stroke="none"/>
      <path d="M11.35 37.75 L11.4 37.75 11.7 38.15 12.6 39.55 12.7 39.8 13.1 40.55 13.4 41.4 13.55 41.9 13.55 42.05 M12.55 42.55 L12.2 42.8 9.9 44.25 9.7 44.4 9.6 44.45 9.55 44.45 9.55 44.5 Q9.3 44.7 8.65 44.05 L7.75 42.8 7.45 42.25 7.05 41.25 6.75 40.15 Q6.45 39.15 6.8 38.9 L6.9 38.95 6.9 38.9 7.1 38.85 M7.15 38.8 L10.35 38.05 10.8 37.9 10.95 37.85 11.35 37.75 M30.85 35.1 L29.5 35.15 29.4 35.15 29.35 35.15 28.8 35.2 28.05 35.25 27.35 35.25 27.2 35.75 26.9 37.45 26.85 37.55 26.9 37.65 Q26.8 38.8 27.0 39.7 L27.05 39.75 27.1 40.0 27.25 40.3 28.2 40.55 28.25 40.55 28.75 40.7 30.15 41.05 30.35 41.1 30.55 41.15 31.1 41.0 31.6 40.4 31.95 39.75 32.25 38.35 32.3 36.6 32.2 36.1 Q32.0 35.15 31.45 35.1 L31.35 35.1 31.1 35.1 M21.65 43.6 L21.8 43.7 22.05 43.85 22.05 44.3 22.1 45.05 22.1 45.6 22.05 45.75 22.05 46.95 M16.9 42.55 L17.4 42.55 17.55 42.55 19.25 42.7 19.8 42.8 20.85 43.15 21.65 43.6 M16.9 48.2 L18.6 48.65 18.8 48.6 19.3 48.65 20.9 48.5 21.15 48.45 Q22.0 48.15 22.05 47.65 L22.05 47.5 M21.95 47.15 L22.05 47.45 M16.35 44.35 L16.4 44.0 16.9 42.55 M16.2 44.65 L16.35 44.35 M16.2 44.65 L15.65 46.3 15.5 46.65 15.45 46.8 15.5 47.0 Q15.55 47.5 16.3 47.9 L16.9 48.2 M13.55 41.95 L12.9 42.35 12.55 42.55 M13.55 41.95 L13.55 41.9" fill="none" stroke="#000000" stroke-linecap="round" stroke-linejoin="round" stroke-opacity="0.3019608" stroke-width="0.30000000000000004"/>
      <path d="M22.05 47.45 L22.05 46.95 M22.05 47.5 L22.05 47.45" fill="none" stroke="#000000" stroke-linecap="round" stroke-linejoin="round" stroke-opacity="0.3019608" stroke-width="0.30000000000000004"/>
      <path d="M14.25 33.4 Q14.9 32.85 15.65 32.9 16.35 32.95 16.65 33.4 L16.7 33.4 16.7 33.45 16.75 33.5 17.15 34.25 17.35 34.75 17.35 34.85 17.4 35.35 17.25 35.8 17.3 35.95 16.55 37.1 16.5 37.15 Q15.95 37.6 15.2 37.65 14.5 37.7 13.95 37.15 L13.35 36.2 13.35 36.1 13.35 36.0 Q13.1 35.45 13.3 34.8 13.55 33.95 14.25 33.4" fill="#bfbf40" fill-rule="evenodd" stroke="none"/>
      <path d="M13.35 35.45 L13.25 35.3 13.35 35.4 13.35 35.45" fill="#f0f0d2" fill-rule="evenodd" stroke="none"/>
      <path d="M13.4 35.5 L13.35 35.45 13.35 35.4 13.4 35.5" fill="#825a20" fill-rule="evenodd" stroke="none"/>
      <path d="M17.05 35.75 L17.05 35.8 Q16.3 35.3 15.95 35.5 L14.7 35.85 Q16.35 35.25 16.95 33.95 L16.6 34.95 Q16.45 35.3 17.05 35.75 M15.55 32.95 L15.1 33.0 Q14.95 33.0 14.8 33.15 L14.7 33.15 14.3 33.55 14.25 33.7 Q14.0 34.15 14.1 34.6 L14.05 34.6 Q13.85 34.3 13.95 34.0 L14.3 33.25 15.05 32.95 15.25 32.95 15.55 32.95" fill="#ffff98" fill-rule="evenodd" stroke="none"/>
      <path d="M13.25 35.3 L13.2 35.25 Q12.8 34.75 12.85 34.1 12.95 33.3 13.65 32.65 14.3 32.0 15.2 31.95 15.95 31.9 16.4 32.3 L16.45 32.3 16.55 32.35 Q17.05 32.75 17.05 33.4 L16.95 33.45 16.95 33.65 17.05 33.8 16.95 33.95 Q16.35 35.25 14.7 35.85 L14.2 35.8 Q13.75 35.75 13.4 35.5 L13.35 35.4 13.25 35.3 M15.95 33.4 L15.75 33.15 15.75 33.1 15.55 32.95 15.25 32.95 15.05 32.95 14.3 33.25 13.95 34.0 Q13.85 34.3 14.05 34.6 L14.1 34.6 14.15 34.65 14.4 34.8 14.55 34.9 14.85 34.9 15.55 34.5 16.0 33.8 16.0 33.65 16.0 33.5 15.95 33.4" fill="#ffde4f" fill-rule="evenodd" stroke="none"/>
      <path d="M17.75 34.6 Q17.65 35.25 17.15 35.8 L17.05 35.75 Q16.45 35.3 16.6 34.95 L16.95 33.95 17.05 33.8 16.95 33.65 16.95 33.45 17.45 33.95 17.75 34.6 M14.7 33.15 Q15.05 33.2 14.95 33.55 L14.75 33.7 14.55 33.95 14.25 33.7 14.3 33.55 14.7 33.15" fill="#f4a33c" fill-rule="evenodd" stroke="none"/>
      <path d="M16.55 32.35 L17.2 32.95 17.55 33.45 17.6 33.55 17.75 34.0 17.75 34.5 17.75 34.6 17.45 33.95 16.95 33.45 17.05 33.4 Q17.05 32.75 16.55 32.35 M15.95 33.4 L15.55 33.35 15.55 33.4 14.95 33.55 Q15.05 33.2 14.7 33.15 L14.8 33.15 Q14.95 33.0 15.1 33.0 L15.55 32.95 15.75 33.1 15.75 33.15 15.95 33.4 M14.55 33.95 L14.35 34.4 14.4 34.8 14.15 34.65 14.1 34.6 Q14.0 34.15 14.25 33.7 L14.55 33.95" fill="#cc6b22" fill-rule="evenodd" stroke="none"/>
      <path d="M17.05 35.8 Q16.55 36.45 15.75 36.6 14.9 36.75 14.25 36.25 L13.4 35.5 Q13.75 35.75 14.2 35.8 L14.7 35.85 15.95 35.5 Q16.3 35.3 17.05 35.8 M14.95 33.55 L15.55 33.4 15.55 33.35 15.95 33.4 16.0 33.5 16.0 33.65 16.0 33.8 15.55 34.5 14.85 34.9 14.55 34.9 14.4 34.8 14.35 34.4 14.55 33.95 14.75 33.7 14.95 33.55" fill="#a34100" fill-rule="evenodd" stroke="none"/>
      <path d="M13.25 35.3 L13.2 35.25 Q12.8 34.75 12.85 34.1 12.95 33.3 13.65 32.65 14.3 32.0 15.2 31.95 15.95 31.9 16.4 32.3 L16.45 32.3 16.55 32.35 17.2 32.95 17.55 33.45 17.6 33.55 17.75 34.0 17.75 34.5 17.75 34.6 Q17.65 35.25 17.15 35.8 L17.05 35.75 17.05 35.8 Q16.55 36.45 15.75 36.6 14.9 36.75 14.25 36.25 L13.4 35.5 13.35 35.4 13.25 35.3 M15.95 33.4 L15.75 33.15 M15.75 33.1 L15.55 32.95 M14.4 34.8 L14.55 34.9 14.85 34.9 15.55 34.5 16.0 33.8 16.0 33.65 16.0 33.5 15.95 33.4" fill="none" stroke="#000000" stroke-linecap="round" stroke-linejoin="round" stroke-opacity="0.3019608" stroke-width="0.30000000000000004"/>
    </g>
    <g id="sprite1" transform="matrix(1.0, 0.0, 0.0, 1.0, 0.0, 0.0)">
      <use height="26.7" transform="matrix(0.0042, -1.3515, 1.3935, 0.02, 22.09, 56.0263)" width="26.7" xlink:href="#sprite2"/>
      <use height="26.7" transform="matrix(0.0095, -3.0486, 0.372, 0.0053, 36.507, 81.3775)" width="26.7" xlink:href="#sprite2"/>
      <use height="26.7" transform="matrix(3.0486, 0.0095, -0.0053, 0.372, 0.1225, 35.107)" width="26.7" xlink:href="#sprite2"/>
    </g>
    <g id="sprite2" transform="matrix(1.0, 0.0, 0.0, 1.0, 13.35, 13.35)">
      <use height="26.7" transform="matrix(1.0, 0.0, 0.0, 1.0, -13.35, -13.35)" width="26.7" xlink:href="#shape1"/>
    </g>
    <g id="shape1" transform="matrix(1.0, 0.0, 0.0, 1.0, 13.35, 13.35)">
      <path d="M9.3 -9.85 Q13.35 -5.8 13.35 0.0 13.35 5.8 9.3 9.3 5.8 13.35 0.0 13.35 -5.8 13.35 -9.85 9.3 -13.35 5.8 -13.35 0.0 -13.35 -5.8 -9.85 -9.85 -5.8 -13.35 0.0 -13.35 5.8 -13.35 9.3 -9.85" fill="url(#gradient0)" fill-rule="evenodd" stroke="none"/>
    </g>
    <radialGradient cx="0" cy="0" gradientTransform="matrix(0.0213, 0.0, 0.0, 0.0213, 0.0, 0.0)" gradientUnits="userSpaceOnUse" id="gradient0" r="819.2" spreadMethod="pad">
      <stop offset="0.19607843137254902" stop-color="#fee3bc" stop-opacity="0.30588236"/>
      <stop offset="0.5019607843137255" stop-color="#fee3bc" stop-opacity="0.047058824"/>
      <stop offset="0.7607843137254902" stop-color="#ffe3bd" stop-opacity="0.0"/>
    </radialGradient>
  </defs>
</svg>
