<?xml version="1.0" encoding="UTF-8" standalone="no"?>
<svg xmlns:xlink="http://www.w3.org/1999/xlink" height="52.0px" width="52.0px" xmlns="http://www.w3.org/2000/svg">
  <g transform="matrix(1.0, 0.0, 0.0, 1.0, 0.0, 0.0)">
    <use height="56.0" transform="matrix(1.0, 0.0, 0.0, 1.0, -2.0, -2.0)" width="56.0" xlink:href="#shape0"/>
    <use height="0.0" transform="matrix(0.0916, 0.0548, -0.021, 0.0409, 18.6, 37.9)" width="0.0" xlink:href="#sprite0"/>
    <use height="0.0" transform="matrix(0.0325, 0.0018, -0.0104, 0.0484, 36.45, 30.4)" width="0.0" xlink:href="#sprite0"/>
    <use height="0.0" transform="matrix(0.031, 0.0102, -0.0226, 0.044, 15.55, 18.45)" width="0.0" xlink:href="#sprite0"/>
    <use height="81.5" transform="matrix(0.1059, -0.0037, 0.0037, 0.1059, 19.4, 37.8)" width="81.5" xlink:href="#sprite1"/>
    <use height="81.5" transform="matrix(0.1059, -0.0037, 0.0037, 0.1059, 33.5, 24.35)" width="81.5" xlink:href="#sprite1"/>
    <use height="81.5" transform="matrix(0.1059, -0.0037, 0.0037, 0.1059, 13.4, 13.45)" width="81.5" xlink:href="#sprite1"/>
    <use height="0.0" transform="matrix(0.0919, 0.0551, -0.0426, 0.0831, 35.6, 13.55)" width="0.0" xlink:href="#sprite0"/>
    <use height="0.0" transform="matrix(0.0959, 0.0574, -0.0845, 0.0555, 26.05, 24.85)" width="0.0" xlink:href="#sprite0"/>
    <use height="81.5" transform="matrix(0.1059, -0.0037, 0.0037, 0.1059, 29.75, 14.95)" width="81.5" xlink:href="#sprite1"/>
    <use height="78.5" transform="matrix(0.3669, 0.0229, -0.0486, 0.3779, 13.3071, 12.486)" width="75.15" xlink:href="#sprite3"/>
  </g>
  <defs>
    <g id="shape0" transform="matrix(1.0, 0.0, 0.0, 1.0, 2.0, 2.0)">
      <path d="M52.0 0.0 L52.0 52.0 0.0 52.0 0.0 0.0 52.0 0.0" fill="#795fa9" fill-opacity="0.0" fill-rule="evenodd" stroke="none"/>
      <path d="M40.8 18.25 L41.1 19.0 39.85 20.9 38.4 22.6 Q40.05 25.4 40.25 28.75 40.55 32.65 38.9 35.8 L39.85 37.1 40.25 37.8 Q41.1 39.45 40.95 40.85 40.6 41.8 39.7 42.0 L37.4 42.0 35.85 41.6 34.55 40.85 Q30.85 43.5 25.9 43.55 L25.35 43.55 24.35 45.45 23.25 46.75 Q22.35 47.55 21.25 48.0 20.4 48.3 19.75 47.6 18.95 46.25 18.95 44.15 L19.0 43.25 19.1 42.25 Q18.15 41.9 17.3 41.35 L16.3 42.15 14.75 42.9 12.45 43.35 Q11.55 43.3 11.2 42.35 11.05 40.85 11.85 38.85 L12.25 38.0 12.6 37.35 Q9.75 33.85 9.4 29.25 L9.35 27.7 8.7 27.25 7.05 25.6 Q6.6 24.85 7.15 24.1 8.2 23.15 10.2 22.75 L10.5 22.7 10.75 22.2 Q11.55 20.5 12.6 19.5 12.55 19.2 12.8 18.6 L13.25 17.7 13.7 17.2 Q13.65 16.9 13.85 16.65 L13.95 16.55 14.25 16.25 14.5 16.1 15.2 16.0 15.35 16.05 16.95 15.8 17.45 15.85 Q19.85 14.7 22.8 14.5 L23.2 14.5 27.15 13.55 29.2 10.2 29.6 10.3 30.35 8.9 30.1 8.4 30.25 8.05 31.15 6.4 31.85 6.05 39.9 7.75 Q40.45 7.95 40.65 8.35 L42.4 11.75 Q43.15 13.35 43.05 14.05 L42.3 16.5 41.5 17.0 40.8 18.25 M17.45 15.85 Q18.35 16.05 18.8 16.8 L19.05 17.6 18.9 18.95 Q18.45 20.15 17.25 21.0 16.0 21.8 14.75 21.75 13.5 21.65 12.9 20.75 12.6 20.3 12.6 19.5 M30.35 8.9 L30.65 9.35 M29.6 10.3 L30.4 10.45" fill="none" stroke="#000000" stroke-linecap="round" stroke-linejoin="round" stroke-opacity="0.3019608" stroke-width="1.0"/>
      <path d="M23.2 43.9 Q22.2 45.75 20.0 47.0 19.5 46.55 19.2 45.35 19.75 41.8 23.2 43.9" fill="#d5d580" fill-rule="evenodd" stroke="none"/>
      <path d="M19.0 44.15 L19.05 43.25 Q19.4 41.2 20.4 39.9 L23.1 40.8 Q23.9 41.35 23.85 42.0 L23.2 43.9 Q19.75 41.8 19.2 45.35 L19.0 44.15" fill="#cac960" fill-rule="evenodd" stroke="none"/>
      <path d="M19.05 43.25 Q19.1 41.55 19.65 39.95 L20.4 39.9 Q19.4 41.2 19.05 43.25" fill="#f0f0d2" fill-rule="evenodd" stroke="none"/>
      <path d="M21.3 48.0 Q20.45 48.3 19.75 47.6 19.0 46.25 19.0 44.15 L19.2 45.35 Q19.5 46.55 20.0 47.0 22.2 45.75 23.2 43.9 L23.85 42.0 Q23.9 41.35 23.1 40.8 24.15 41.05 24.75 41.5 L24.05 43.1 Q23.1 45.4 21.45 46.65 L20.5 47.25 Q20.1 47.7 21.3 48.0" fill="#f9f8ec" fill-rule="evenodd" stroke="none"/>
      <path d="M24.75 41.5 L25.55 43.2 24.4 45.45 23.25 46.75 21.3 48.0 Q20.1 47.7 20.5 47.25 L21.45 46.65 Q23.1 45.4 24.05 43.1 L24.75 41.5" fill="#a6a637" fill-rule="evenodd" stroke="none"/>
      <path d="M25.55 43.2 L24.4 45.45 23.25 46.75 21.3 48.0 Q20.45 48.3 19.75 47.6 19.0 46.25 19.0 44.15 L19.05 43.25 Q19.1 41.55 19.65 39.95" fill="none" stroke="#000000" stroke-linecap="round" stroke-linejoin="round" stroke-opacity="0.3019608" stroke-width="0.30000000000000004"/>
      <path d="M15.85 40.2 Q14.2 41.6 11.75 41.95 11.45 41.3 11.65 40.05 13.5 36.95 15.85 40.2" fill="#d5d580" fill-rule="evenodd" stroke="none"/>
      <path d="M14.85 35.4 L16.95 37.3 Q17.45 38.15 17.2 38.7 L15.85 40.2 Q13.5 36.95 11.65 40.05 L11.9 38.85 12.3 38.0 Q13.4 36.25 14.85 35.4 M16.3 42.15 L14.8 42.9 Q13.15 42.8 13.15 42.15 15.15 41.6 16.9 39.8 17.75 40.5 16.3 42.15" fill="#cac960" fill-rule="evenodd" stroke="none"/>
      <path d="M12.3 38.0 Q13.0 36.5 14.15 35.2 14.55 35.05 14.85 35.4 13.4 36.25 12.3 38.0" fill="#f0f0d2" fill-rule="evenodd" stroke="none"/>
      <path d="M16.95 37.3 L18.2 38.55 16.9 39.8 Q15.15 41.6 13.15 42.15 L12.05 42.35 Q11.5 42.6 12.5 43.35 11.6 43.3 11.25 42.35 11.1 40.85 11.9 38.85 L11.65 40.05 Q11.45 41.3 11.75 41.95 14.2 41.6 15.85 40.2 L17.2 38.7 Q17.45 38.15 16.95 37.3" fill="#f9f8ec" fill-rule="evenodd" stroke="none"/>
      <path d="M18.2 38.55 L18.2 40.45 16.3 42.15 Q17.75 40.5 16.9 39.8 L18.2 38.55 M14.8 42.9 L12.5 43.35 Q11.5 42.6 12.05 42.35 L13.15 42.15 Q13.15 42.8 14.8 42.9" fill="#a6a637" fill-rule="evenodd" stroke="none"/>
      <path d="M18.2 40.45 L16.3 42.15 14.8 42.9 12.5 43.35 Q11.6 43.3 11.25 42.35 11.1 40.85 11.9 38.85 L12.3 38.0 Q13.0 36.5 14.15 35.2" fill="none" stroke="#000000" stroke-linecap="round" stroke-linejoin="round" stroke-opacity="0.3019608" stroke-width="0.30000000000000004"/>
      <path d="M10.2 28.1 L8.75 27.25 Q7.9 25.85 8.4 25.5 9.95 26.85 12.3 27.35 12.25 28.4 10.2 28.1" fill="#d5d580" fill-rule="evenodd" stroke="none"/>
      <path d="M13.95 27.75 L12.55 28.75 10.2 28.1 Q12.25 28.4 12.3 27.35 L13.95 27.75 M8.75 27.25 L7.1 25.6 Q7.1 24.4 7.65 24.7 L8.4 25.5 Q7.9 25.85 8.75 27.25" fill="#cac960" fill-rule="evenodd" stroke="none"/>
      <path d="M14.55 23.35 L14.25 26.05 Q13.9 26.9 13.3 27.0 L11.4 26.7 Q12.6 23.1 9.15 23.2 L10.2 22.75 11.1 22.65 Q13.05 22.65 14.55 23.35" fill="#e6e4b3" fill-rule="evenodd" stroke="none"/>
      <path d="M14.3 22.65 L14.55 23.35 Q13.05 22.65 11.1 22.65 12.65 22.45 14.3 22.65 M11.4 26.7 Q9.4 26.05 7.8 24.25 8.05 23.65 9.15 23.2 12.6 23.1 11.4 26.7" fill="#f0f0d2" fill-rule="evenodd" stroke="none"/>
      <path d="M14.25 26.05 L13.95 27.75 12.3 27.35 Q9.95 26.85 8.4 25.5 L7.65 24.7 Q7.1 24.4 7.1 25.6 6.65 24.85 7.15 24.1 8.25 23.15 10.2 22.75 L9.15 23.2 Q8.05 23.65 7.8 24.25 9.4 26.05 11.4 26.7 L13.3 27.0 Q13.9 26.9 14.25 26.05" fill="#f9f8ec" fill-rule="evenodd" stroke="none"/>
      <path d="M12.55 28.75 L10.2 28.1 8.75 27.25 7.1 25.6 Q6.65 24.85 7.15 24.1 8.25 23.15 10.2 22.75 L11.1 22.65 Q12.65 22.45 14.3 22.65" fill="none" stroke="#000000" stroke-linecap="round" stroke-linejoin="round" stroke-opacity="0.3019608" stroke-width="0.30000000000000004"/>
      <path d="M21.85 20.7 L21.85 20.65 24.15 19.45 24.5 19.35 26.15 18.7 Q28.1 18.05 29.9 17.9 32.2 17.75 34.2 18.5 L35.05 18.9 36.3 19.75 36.9 20.45 37.95 21.85 38.5 22.6 37.95 21.85 39.45 20.1 40.85 17.95 40.9 18.3 41.15 19.05 39.9 20.9 38.5 22.6 Q40.1 25.4 40.3 28.75 40.75 34.8 36.55 39.15 32.35 43.45 25.95 43.55 19.55 43.65 14.7 39.5 9.9 35.3 9.45 29.25 9.0 23.25 13.2 18.9 17.1 14.95 22.8 14.5 L23.25 14.5 Q25.15 14.3 27.15 13.55 L29.3 10.15 29.65 10.25 29.95 10.35 29.7 10.75 28.0 13.55 Q25.25 14.9 24.35 15.05 L20.45 15.5 Q17.4 15.9 13.75 19.7 11.1 22.4 10.4 25.8 10.2 35.45 19.8 38.45 14.2 37.5 10.6 32.15 L10.85 32.95 Q12.05 36.4 15.15 39.1 19.75 43.0 25.8 42.85 31.85 42.7 35.85 38.55 39.85 34.45 39.4 28.75 39.25 26.35 38.35 24.25 L37.65 22.95 Q36.45 20.65 34.2 19.15 L33.75 19.0 Q30.15 17.75 25.8 19.4 L25.2 19.6 23.0 20.75 23.55 21.45 25.85 20.15 Q27.55 19.35 29.2 19.5 30.05 19.9 26.9 21.05 25.8 21.6 25.0 22.75 L27.7 25.65 Q29.3 26.7 30.4 26.95 L31.45 26.65 31.8 27.25 30.1 27.85 29.45 29.85 29.7 28.05 29.3 27.35 22.55 21.05 21.85 20.7 M30.7 10.55 L30.55 10.7 30.65 10.55 30.7 10.55 M18.25 24.7 L18.25 23.9 Q18.8 22.95 19.45 22.35 L19.85 22.5 20.2 22.7 Q19.65 23.45 19.7 24.6 L23.65 28.55 23.85 28.65 24.6 28.95 24.85 29.05 Q25.85 29.05 26.7 28.65 L26.9 29.0 27.1 29.4 Q25.9 30.15 25.75 30.9 25.6 31.75 26.15 32.35 L25.95 32.45 25.2 32.5 Q25.6 32.25 25.45 31.5 25.3 30.7 24.6 29.95 L23.45 28.8 22.15 27.5 20.8 26.2 20.35 25.8 Q19.45 25.0 18.25 24.7 M24.25 26.25 L24.3 26.7 Q24.5 28.25 22.7 26.8 20.5 25.2 21.0 23.7 L21.2 23.25 24.25 26.25 M19.25 17.05 Q21.9 15.9 24.4 16.35 27.1 16.8 23.0 18.55 18.2 20.8 16.25 24.05 15.65 25.7 16.4 27.6 18.2 32.8 14.25 32.25 11.4 30.95 11.3 27.35 11.5 24.75 12.3 23.25 14.35 19.65 19.25 17.05 M42.25 11.4 L42.45 11.75 42.5 11.95 Q43.3 13.3 43.1 13.9 L43.1 14.0 43.1 14.1 42.35 16.45 42.1 15.25 39.85 10.45 39.9 10.25 42.25 14.95 42.4 14.6 Q42.8 12.85 42.25 11.4 M39.1 9.8 L37.75 9.4 39.6 9.45 39.45 9.9 39.1 9.8 M33.3 8.0 L32.6 7.8 Q33.25 7.25 33.85 7.45 L33.3 8.0 M31.5 7.45 L30.75 7.45 31.9 6.05 39.95 7.75 39.75 9.05 Q39.6 8.15 39.3 8.1 L37.6 7.6 35.25 7.05 32.05 6.95 31.5 7.45" fill="#f0f0d2" fill-rule="evenodd" stroke="none"/>
      <path d="M29.9 17.9 Q28.1 18.05 26.15 18.7 L24.5 19.35 24.15 19.45 21.85 20.65 21.85 20.7 21.7 21.15 20.5 21.95 19.85 22.5 19.45 22.35 Q18.8 22.95 18.25 23.9 L18.25 24.7 18.4 26.0 Q20.35 29.8 25.25 33.9 27.15 37.7 24.25 38.55 L19.8 38.45 Q10.2 35.45 10.4 25.8 11.1 22.4 13.75 19.7 17.4 15.9 20.45 15.5 L24.35 15.05 Q25.25 14.9 28.0 13.55 L29.7 10.75 29.95 10.35 30.0 10.35 30.65 10.55 30.55 10.7 30.7 10.55 37.05 12.45 36.7 13.45 Q35.2 16.65 29.9 17.9 M31.45 26.65 L30.4 26.95 Q29.3 26.7 27.7 25.65 L25.0 22.75 Q25.8 21.6 26.9 21.05 30.05 19.9 29.2 19.5 27.55 19.35 25.85 20.15 L23.55 21.45 23.0 20.75 25.2 19.6 25.8 19.4 Q30.15 17.75 33.75 19.0 37.6 22.1 37.1 28.55 36.85 30.65 35.9 32.35 33.25 31.95 34.05 26.9 33.4 26.35 31.45 26.65 M20.2 22.7 L21.05 23.1 21.2 23.25 21.0 23.7 Q20.5 25.2 22.7 26.8 24.5 28.25 24.3 26.7 L24.25 26.25 26.35 28.25 26.7 28.65 Q25.85 29.05 24.85 29.05 L24.6 28.95 23.85 28.65 23.65 28.55 19.7 24.6 Q19.65 23.45 20.2 22.7 M19.25 17.05 Q14.35 19.65 12.3 23.25 11.5 24.75 11.3 27.35 11.4 30.95 14.25 32.25 18.2 32.8 16.4 27.6 15.65 25.7 16.25 24.05 18.2 20.8 23.0 18.55 27.1 16.8 24.4 16.35 21.9 15.9 19.25 17.05 M37.3 9.25 L33.3 8.0 33.85 7.45 Q33.25 7.25 32.6 7.8 L31.5 7.45 32.05 6.95 35.25 7.05 Q36.9 7.75 37.3 9.25" fill="#e6e4b3" fill-rule="evenodd" stroke="none"/>
      <path d="M19.8 38.45 L24.25 38.55 Q27.15 37.7 25.25 33.9 20.35 29.8 18.4 26.0 L18.25 24.7 Q19.45 25.0 20.35 25.8 L20.8 26.2 Q19.0 26.45 22.05 29.95 L20.6 28.6 18.4 26.0 20.6 28.6 22.05 29.95 22.25 30.1 24.45 31.9 24.5 31.95 25.2 32.5 25.95 32.45 26.15 32.35 Q25.6 31.75 25.75 30.9 25.9 30.15 27.1 29.4 L27.15 31.15 29.05 30.0 29.4 30.1 30.0 29.8 34.05 26.9 Q33.25 31.95 35.9 32.35 36.85 30.65 37.1 28.55 37.6 22.1 33.75 19.0 L34.2 19.15 Q36.45 20.65 37.65 22.95 L38.35 24.25 Q39.6 29.25 37.55 33.55 L37.45 33.7 Q34.35 39.3 28.95 41.0 21.9 43.25 14.4 37.65 11.9 35.45 10.85 32.95 L10.6 32.15 Q14.2 37.5 19.8 38.45 M29.45 29.85 L30.1 27.85 Q30.75 28.8 29.4 30.1 L29.45 29.85 M36.9 20.45 L36.3 19.75 35.05 18.9 36.7 16.7 38.65 13.3 40.75 17.8 39.05 19.45 Q37.95 20.3 36.9 20.45 M42.25 11.4 Q42.8 12.85 42.4 14.6 L42.25 14.95 39.9 10.25 40.5 8.9 40.7 8.35 42.25 11.4 M30.3 8.05 L30.45 7.85 31.2 7.85 39.1 9.8 39.45 9.9 39.85 10.45 39.65 10.95 39.0 10.35 38.8 10.3 31.4 8.35 31.15 8.3 30.65 8.3 30.35 8.85 30.15 8.4 30.3 8.05 M26.15 32.35 L27.15 31.7 27.15 31.15 27.15 31.7 26.15 32.35" fill="#cac960" fill-rule="evenodd" stroke="none"/>
      <path d="M31.8 27.25 L31.45 26.65 Q33.4 26.35 34.05 26.9 L32.0 27.15 31.8 27.25 M35.05 18.9 L34.2 18.5 36.2 16.35 38.35 12.85 38.65 13.3 36.7 16.7 35.05 18.9 M39.9 10.25 L39.85 10.45 39.45 9.9 39.6 9.45 39.75 9.05 39.95 7.75 40.7 8.35 40.5 8.9 39.9 10.25 M30.3 8.05 L31.2 6.4 31.9 6.05 30.75 7.45 31.5 7.45 32.6 7.8 33.3 8.0 37.3 9.25 37.75 9.4 39.1 9.8 31.2 7.85 30.45 7.85 30.3 8.05" fill="#f9f8ec" fill-rule="evenodd" stroke="none"/>
      <path d="M29.7 28.05 L29.45 29.85 29.4 30.1 29.05 30.0 29.25 28.25 29.7 28.05 M30.1 27.85 L31.8 27.25 32.0 27.15 34.05 26.9 30.0 29.8 29.4 30.1 Q30.75 28.8 30.1 27.85 M38.35 24.25 Q39.25 26.35 39.4 28.75 39.85 34.45 35.85 38.55 31.85 42.7 25.8 42.85 19.75 43.0 15.15 39.1 12.05 36.4 10.85 32.95 11.9 35.45 14.4 37.65 21.9 43.25 28.95 41.0 34.35 39.3 37.45 33.7 L37.55 33.55 Q39.6 29.25 38.35 24.25 M37.95 21.85 L36.9 20.45 Q37.95 20.3 39.05 19.45 L40.75 17.8 40.85 17.95 39.45 20.1 37.95 21.85 M39.85 10.45 L42.1 15.25 42.35 16.45 41.6 17.05 41.9 16.55 41.9 15.75 39.8 11.3 39.65 10.95 39.85 10.45" fill="#a6a637" fill-rule="evenodd" stroke="none"/>
      <path d="M29.9 17.9 Q35.2 16.65 36.7 13.45 L37.05 12.45 37.7 12.65 38.35 12.85 36.2 16.35 34.2 18.5 Q32.2 17.75 29.9 17.9 M21.7 21.15 L21.85 20.7 22.55 21.05 29.3 27.35 29.7 28.05 29.25 28.25 29.1 27.9 28.9 27.5 28.6 27.2 22.85 21.9 22.3 21.55 21.7 21.15 M22.05 29.95 Q19.0 26.45 20.8 26.2 L22.15 27.5 23.45 28.8 24.6 29.95 Q25.3 30.7 25.45 31.5 25.6 32.25 25.2 32.5 L24.5 31.95 24.45 31.9 22.25 30.1 22.05 29.95 M37.75 9.4 L37.3 9.25 Q36.9 7.75 35.25 7.05 L37.6 7.6 39.3 8.1 Q39.6 8.15 39.75 9.05 L39.6 9.45 37.75 9.4" fill="#d5d580" fill-rule="evenodd" stroke="none"/>
      <path d="M20.2 22.7 Q21.55 21.5 22.3 21.55 L22.85 21.9 28.6 27.2 Q28.05 28.35 26.35 28.25 L24.25 26.25 21.2 23.25 21.05 23.1 20.2 22.7" fill="#990000" fill-rule="evenodd" stroke="none"/>
      <path d="M37.05 12.45 L30.7 10.55 30.65 10.55 30.0 10.35 31.4 8.35 38.8 10.3 Q38.85 10.9 38.3 11.8 L37.7 12.65 37.05 12.45" fill="#484848" fill-rule="evenodd" stroke="none"/>
      <path d="M41.6 17.05 L40.9 18.3 40.85 17.95 40.75 17.8 38.65 13.3 38.35 12.85 38.65 12.05 Q39.05 11.3 39.8 11.3 L41.9 15.75 41.9 16.55 41.6 17.05" fill="#2b2b2b" fill-rule="evenodd" stroke="none"/>
      <path d="M30.0 10.35 L29.95 10.35 29.65 10.25 30.35 8.85 30.65 8.3 31.15 8.3 31.4 8.35 30.0 10.35 M38.8 10.3 L39.0 10.35 39.65 10.95 39.8 11.3 Q39.05 11.3 38.65 12.05 L38.35 12.85 37.7 12.65 38.3 11.8 Q38.85 10.9 38.8 10.3" fill="#6a6a6a" fill-rule="evenodd" stroke="none"/>
      <path d="M19.85 22.5 L20.5 21.95 21.7 21.15 22.3 21.55 Q21.55 21.5 20.2 22.7 L19.85 22.5 M26.7 28.65 L26.35 28.25 Q28.05 28.35 28.6 27.2 L28.9 27.5 29.1 27.9 Q28.15 27.85 26.9 29.0 L26.7 28.65" fill="#ca0202" fill-rule="evenodd" stroke="none"/>
      <path d="M27.1 29.4 L26.9 29.0 Q28.15 27.85 29.1 27.9 L29.25 28.25 29.05 30.0 27.15 31.15 27.1 29.4" fill="#650101" fill-rule="evenodd" stroke="none"/>
      <path d="M21.85 20.7 L21.85 20.65 24.15 19.45 24.5 19.35 26.15 18.7 Q28.1 18.05 29.9 17.9 32.2 17.75 34.2 18.5 L35.05 18.9 36.3 19.75 36.9 20.45 37.95 21.85 38.5 22.6 Q40.1 25.4 40.3 28.75 40.75 34.8 36.55 39.15 32.35 43.45 25.95 43.55 19.55 43.65 14.7 39.5 9.9 35.3 9.45 29.25 9.0 23.25 13.2 18.9 17.1 14.95 22.8 14.5 L23.25 14.5 Q25.15 14.3 27.15 13.55 L29.3 10.15 29.65 10.25 29.95 10.35 30.0 10.35 30.65 10.55 30.7 10.55 37.05 12.45 37.7 12.65 38.35 12.85 38.65 13.3 40.75 17.8 40.85 17.95 40.9 18.3 41.15 19.05 39.9 20.9 38.5 22.6 M18.4 26.0 L18.25 24.7 18.25 23.9 Q18.8 22.95 19.45 22.35 L19.85 22.5 20.5 21.95 21.7 21.15 21.85 20.7 M19.85 22.5 L20.2 22.7 21.05 23.1 21.2 23.25 24.25 26.25 26.35 28.25 26.7 28.65 26.9 29.0 27.1 29.4 27.15 31.15 27.15 31.7 26.15 32.35 25.95 32.45 25.2 32.5 24.5 31.95 24.45 31.9 22.25 30.1 22.05 29.95 20.6 28.6 18.4 26.0 M22.3 21.55 L21.7 21.15 M42.35 16.45 L43.1 14.1 43.1 14.0 43.1 13.9 Q43.3 13.3 42.5 11.95 L42.45 11.75 42.25 11.4 40.7 8.35 39.95 7.75 31.9 6.05 31.2 6.4 30.3 8.05 30.15 8.4 30.35 8.85 29.65 10.25 M42.35 16.45 L41.6 17.05 40.9 18.3 M30.35 8.85 L30.65 8.3 31.15 8.3 31.4 8.35 38.8 10.3 39.0 10.35 39.65 10.95 39.8 11.3 41.9 15.75 41.9 16.55 41.6 17.05 M28.6 27.2 L22.85 21.9 22.3 21.55 M28.6 27.2 L28.9 27.5 29.1 27.9 29.25 28.25 29.05 30.0 27.15 31.15 M34.05 26.9 L30.0 29.8 29.4 30.1 29.05 30.0" fill="none" stroke="#000000" stroke-linecap="round" stroke-linejoin="round" stroke-opacity="0.3019608" stroke-width="0.30000000000000004"/>
      <path d="M39.7 30.8 Q40.05 32.1 39.45 33.35 38.85 34.55 37.55 35.0 36.35 35.4 35.2 34.75 34.1 34.1 33.7 32.8 33.35 31.65 33.8 30.6 L33.95 30.25 Q34.55 29.05 35.8 28.6 37.05 28.2 38.2 28.85 L39.0 29.5 39.7 30.8" fill="#a6a637" fill-rule="evenodd" stroke="none"/>
      <path d="M34.45 31.85 Q35.0 32.2 35.7 32.2 36.85 32.2 37.65 31.25 L38.15 30.35 38.35 29.0 38.15 27.8 38.8 28.4 Q39.65 29.3 39.65 30.65 39.7 31.95 38.95 32.9 38.15 33.85 37.0 33.85 35.9 33.85 35.1 32.9 L34.45 31.85" fill="#f4a33c" fill-rule="evenodd" stroke="none"/>
      <path d="M34.45 31.85 L35.1 32.9 Q35.9 33.85 37.0 33.85 38.15 33.85 38.95 32.9 39.7 31.95 39.65 30.65 39.65 29.3 38.8 28.4 L38.15 27.8 38.35 29.0 38.15 30.35 Q38.5 28.05 36.8 27.45 35.7 27.45 34.95 28.4 34.2 29.3 34.2 30.65 L34.45 31.85 M39.1 28.0 Q40.05 29.1 40.1 30.65 40.15 32.2 39.25 33.25 38.35 34.35 37.0 34.35 35.65 34.35 34.65 33.25 33.75 32.35 33.65 31.05 L33.6 30.65 Q33.55 29.1 34.5 28.0 35.4 26.95 36.75 26.95 L37.75 27.1 Q38.45 27.35 39.1 28.0" fill="#ffff98" fill-rule="evenodd" stroke="none"/>
      <path d="M38.15 30.35 L37.65 31.25 Q36.85 32.2 35.7 32.2 35.0 32.2 34.45 31.85 L34.2 30.65 Q34.2 29.3 34.95 28.4 35.7 27.45 36.8 27.45 38.5 28.05 38.15 30.35" fill="#ffde4f" fill-rule="evenodd" stroke="none"/>
      <path d="M39.1 28.0 Q40.05 29.1 40.1 30.65 40.15 32.2 39.25 33.25 38.35 34.35 37.0 34.35 35.65 34.35 34.65 33.25 33.75 32.35 33.65 31.05 L33.6 30.65 Q33.55 29.1 34.5 28.0 35.4 26.95 36.75 26.95 L37.75 27.1 Q38.45 27.35 39.1 28.0 Z" fill="none" stroke="#000000" stroke-linecap="round" stroke-linejoin="round" stroke-opacity="0.3019608" stroke-width="0.30000000000000004"/>
      <path d="M18.85 19.75 Q18.4 21.0 17.2 21.8 15.95 22.65 14.7 22.55 13.45 22.5 12.85 21.6 12.3 20.65 12.75 19.45 13.15 18.35 14.05 17.6 L14.4 17.35 Q15.65 16.5 16.9 16.6 18.2 16.7 18.75 17.6 L19.05 18.4 Q19.15 19.05 18.85 19.75" fill="#cac960" fill-rule="evenodd" stroke="none"/>
      <path d="M16.7 19.5 L17.8 18.9 18.75 18.2 18.55 18.9 Q18.1 20.0 17.1 20.7 16.05 21.4 14.95 21.35 13.85 21.3 13.4 20.55 12.9 19.75 13.3 18.7 L13.9 17.7 Q13.85 18.3 14.15 18.8 14.65 19.55 15.75 19.6 L16.7 19.5" fill="#f4a33c" fill-rule="evenodd" stroke="none"/>
      <path d="M19.1 17.55 L18.95 18.9 Q18.5 20.15 17.3 21.0 16.05 21.8 14.8 21.7 13.5 21.65 12.95 20.75 12.35 19.8 12.8 18.55 13.2 17.55 14.15 16.8 L14.45 16.55 Q15.75 15.65 17.0 15.75 18.3 15.85 18.85 16.75 L19.1 17.55 M13.9 17.7 L13.3 18.7 Q12.9 19.75 13.4 20.55 13.85 21.3 14.95 21.35 16.05 21.4 17.1 20.7 18.1 20.0 18.55 18.9 L18.75 18.2 17.8 18.9 16.7 19.5 Q18.7 18.5 18.45 17.05 17.95 16.35 16.9 16.25 15.8 16.2 14.75 16.95 L13.9 17.7" fill="#ffff98" fill-rule="evenodd" stroke="none"/>
      <path d="M16.7 19.5 L15.75 19.6 Q14.65 19.55 14.15 18.8 13.85 18.3 13.9 17.7 L14.75 16.95 Q15.8 16.2 16.9 16.25 17.95 16.35 18.45 17.05 18.7 18.5 16.7 19.5" fill="#ffde4f" fill-rule="evenodd" stroke="none"/>
      <path d="M19.1 17.55 L18.95 18.9 Q18.5 20.15 17.3 21.0 16.05 21.8 14.8 21.7 13.5 21.65 12.95 20.75 12.35 19.8 12.8 18.55 13.2 17.55 14.15 16.8 L14.45 16.55 Q15.75 15.65 17.0 15.75 18.3 15.85 18.85 16.75 L19.1 17.55 Z" fill="none" stroke="#000000" stroke-linecap="round" stroke-linejoin="round" stroke-opacity="0.3019608" stroke-width="0.30000000000000004"/>
      <path d="M30.4 37.85 L31.2 38.6 Q31.75 39.35 31.4 40.2 30.65 41.55 28.6 41.0 18.6 37.05 11.65 31.7 L10.85 30.45 Q10.45 29.6 10.8 28.8 L13.0 28.75 Q18.4 33.4 30.4 37.85" fill="#a6a637" fill-rule="evenodd" stroke="none"/>
      <path d="M30.1 38.95 L29.9 38.25 28.15 37.2 26.85 36.7 26.55 36.55 23.3 35.2 23.0 35.05 22.55 34.85 20.05 33.65 19.75 33.5 17.15 32.05 16.9 31.85 15.55 30.9 14.55 30.2 14.3 30.0 Q11.7 28.2 11.45 29.1 L11.45 29.25 11.45 28.8 11.6 28.55 11.95 28.55 Q12.95 28.65 15.4 30.6 17.65 32.45 22.15 34.55 L22.2 34.55 27.3 36.75 Q29.85 37.7 30.0 38.1 30.25 38.35 30.1 38.95 M11.35 30.6 Q18.25 35.95 28.25 39.9 30.3 40.45 31.1 39.1 L31.2 38.3 31.35 39.05 30.8 40.0 Q29.75 40.6 28.55 40.25 23.9 38.5 20.05 36.45 15.65 34.05 11.85 31.2 L11.35 30.6" fill="#f4a33c" fill-rule="evenodd" stroke="none"/>
      <path d="M11.6 28.55 L11.45 28.8 11.45 29.25 11.5 29.45 11.65 29.75 13.0 31.15 14.0 31.95 14.2 32.1 15.1 32.7 15.7 33.05 16.65 33.7 16.85 33.75 18.25 34.55 19.4 35.2 19.55 35.3 20.8 35.9 22.35 36.65 22.6 36.75 23.95 37.4 25.55 38.15 25.75 38.3 27.55 39.1 27.6 39.1 28.25 39.4 28.95 39.6 29.2 39.9 28.05 39.65 22.2 37.1 Q14.95 33.45 11.65 30.65 11.1 30.2 10.85 29.55 L10.75 29.3 Q10.55 28.3 11.3 27.85 11.8 28.1 11.6 28.55 M29.55 39.6 L29.75 39.5 Q30.25 39.4 30.3 38.65 30.3 38.05 29.95 37.75 29.05 37.25 28.1 36.9 25.15 35.8 22.3 34.5 L16.35 31.15 Q14.95 30.0 13.55 29.15 12.85 28.6 12.25 28.5 11.8 28.1 12.0 27.9 L12.85 28.3 Q15.1 30.15 18.05 31.9 23.7 35.1 30.25 37.4 L31.0 38.1 Q31.2 38.8 30.8 39.3 L29.9 39.85 Q29.4 39.75 29.55 39.6 M31.2 38.3 L31.15 38.05 Q31.65 38.75 31.35 39.6 30.6 40.95 28.5 40.4 18.5 36.45 11.6 31.1 L10.75 29.85 11.35 30.6 11.85 31.2 Q15.65 34.05 20.05 36.45 23.9 38.5 28.55 40.25 29.75 40.6 30.8 40.0 L31.35 39.05 31.2 38.3" fill="#ffde4f" fill-rule="evenodd" stroke="none"/>
      <path d="M30.1 38.95 Q30.25 38.35 30.0 38.1 29.85 37.7 27.3 36.75 L22.2 34.55 22.15 34.55 Q17.65 32.45 15.4 30.6 12.95 28.65 11.95 28.55 L11.6 28.55 Q11.8 28.1 11.3 27.85 10.55 28.3 10.75 29.3 L10.85 29.55 Q11.1 30.2 11.65 30.65 14.95 33.45 22.2 37.1 L28.05 39.65 29.2 39.9 28.95 39.6 29.55 39.6 Q29.4 39.75 29.9 39.85 L30.8 39.3 Q31.2 38.8 31.0 38.1 L30.25 37.4 Q23.7 35.1 18.05 31.9 15.1 30.15 12.85 28.3 L12.0 27.9 Q11.8 28.1 12.25 28.5 12.85 28.6 13.55 29.15 14.95 30.0 16.35 31.15 L22.3 34.5 Q25.15 35.8 28.1 36.9 29.05 37.25 29.95 37.75 30.3 38.05 30.3 38.65 30.25 39.4 29.75 39.5 L29.85 39.45 30.05 39.2 30.1 39.1 30.1 38.95 M31.15 38.05 L31.2 38.3 31.1 39.1 Q30.3 40.45 28.25 39.9 18.25 35.95 11.35 30.6 L10.75 29.85 Q10.35 29.0 10.7 28.2 11.25 27.2 12.9 28.2 18.35 32.85 30.3 37.25 L31.15 38.05" fill="#ffff98" fill-rule="evenodd" stroke="none"/>
      <path d="M26.85 36.7 L28.15 37.2 29.9 38.25 30.1 38.95 Q29.75 38.7 29.4 38.55 L26.55 37.1 26.85 36.7 M11.45 29.25 L11.45 29.1 Q11.7 28.2 14.3 30.0 L14.25 30.6 13.7 30.2 13.65 30.15 Q11.65 28.9 11.65 29.75 L11.5 29.45 11.45 29.25 M14.55 30.2 L15.55 30.9 16.9 31.85 16.85 32.35 16.4 32.05 14.45 30.8 14.55 30.2 M17.15 32.05 L19.75 33.5 19.65 33.95 19.2 33.7 17.1 32.5 17.15 32.05 M20.05 33.65 L22.55 34.85 23.0 35.05 22.85 35.55 22.45 35.35 19.95 34.1 20.05 33.65 M23.3 35.2 L26.55 36.55 26.3 37.0 25.85 36.8 23.75 36.0 23.65 35.9 23.05 35.65 23.3 35.2" fill="#d5d580" fill-rule="evenodd" stroke="none"/>
      <path d="M26.85 36.7 L26.55 37.1 25.75 38.3 25.55 38.15 26.3 37.0 26.55 36.55 26.85 36.7 M14.3 30.0 L14.55 30.2 14.45 30.8 14.2 32.1 14.0 31.95 14.25 30.6 14.3 30.0 M16.9 31.85 L17.15 32.05 17.1 32.5 16.85 33.75 16.65 33.7 16.85 32.35 16.9 31.85 M19.75 33.5 L20.05 33.65 19.95 34.1 19.55 35.3 19.4 35.2 19.65 33.95 19.75 33.5 M23.0 35.05 L23.3 35.2 23.05 35.65 22.6 36.75 22.35 36.65 22.85 35.55 23.0 35.05" fill="#cac960" fill-rule="evenodd" stroke="none"/>
      <path d="M26.55 37.1 L29.4 38.55 Q29.45 39.55 27.6 39.1 L27.55 39.1 25.75 38.3 26.55 37.1 M25.85 36.8 Q25.95 38.2 23.95 37.4 L22.6 36.75 23.05 35.65 23.65 35.9 23.75 36.0 25.85 36.8 M11.65 29.75 Q11.65 28.9 13.65 30.15 14.45 31.65 13.0 31.15 L11.65 29.75 M19.95 34.1 L22.45 35.35 Q22.8 36.75 20.8 35.9 L19.55 35.3 19.95 34.1 M14.45 30.8 L16.4 32.05 Q16.9 33.25 15.1 32.7 L14.2 32.1 14.45 30.8 M17.1 32.5 L19.2 33.7 Q19.7 35.0 18.25 34.55 L16.85 33.75 17.1 32.5" fill="#f0f0d2" fill-rule="evenodd" stroke="none"/>
      <path d="M29.4 38.55 Q29.75 38.7 30.1 38.95 L30.1 39.1 30.05 39.2 29.85 39.45 29.75 39.5 29.55 39.6 28.95 39.6 28.25 39.4 27.6 39.1 Q29.45 39.55 29.4 38.55 M26.3 37.0 L25.55 38.15 23.95 37.4 Q25.95 38.2 25.85 36.8 L26.3 37.0 M13.65 30.15 L13.7 30.2 14.25 30.6 14.0 31.95 13.0 31.15 Q14.45 31.65 13.65 30.15 M22.45 35.35 L22.85 35.55 22.35 36.65 20.8 35.9 Q22.8 36.75 22.45 35.35 M19.2 33.7 L19.65 33.95 19.4 35.2 18.25 34.55 Q19.7 35.0 19.2 33.7 M16.4 32.05 L16.85 32.35 16.65 33.7 15.7 33.05 15.1 32.7 Q16.9 33.25 16.4 32.05" fill="#f9f8ec" fill-rule="evenodd" stroke="none"/>
      <path d="M30.1 38.95 L29.9 38.25 28.15 37.2 26.85 36.7 26.55 36.55 23.3 35.2 23.0 35.05 22.55 34.85 20.05 33.65 19.75 33.5 17.15 32.05 16.9 31.85 15.55 30.9 14.55 30.2 14.3 30.0 Q11.7 28.2 11.45 29.1 L11.45 29.25 11.5 29.45 11.65 29.75 13.0 31.15 14.0 31.95 14.2 32.1 15.1 32.7 15.7 33.05 16.65 33.7 16.85 33.75 18.25 34.55 19.4 35.2 19.55 35.3 20.8 35.9 22.35 36.65 22.6 36.75 23.95 37.4 25.55 38.15 25.75 38.3 27.55 39.1 27.6 39.1 28.25 39.4 28.95 39.6 29.55 39.6 29.75 39.5 29.85 39.45 30.05 39.2 30.1 39.1 30.1 38.95 M31.15 38.05 L30.3 37.25 Q18.35 32.85 12.9 28.2 11.25 27.2 10.7 28.2 10.35 29.0 10.75 29.85 L11.6 31.1 Q18.5 36.45 28.5 40.4 30.6 40.95 31.35 39.6 31.65 38.75 31.15 38.05" fill="none" stroke="#000000" stroke-linecap="round" stroke-linejoin="round" stroke-opacity="0.3019608" stroke-width="0.5"/>
      <path d="M38.75 29.7 L39.25 29.5 39.4 29.55 39.55 29.9 39.65 30.2 39.45 30.9 39.3 31.1 39.1 31.1 38.85 31.05 38.5 30.85 38.45 30.55 Q38.4 30.15 38.6 29.8 L38.75 29.7 M38.8 30.25 L38.85 30.35 39.05 30.4 39.2 30.2 39.25 30.0 39.05 29.8 38.9 29.8 38.75 29.95 38.8 30.05 38.75 30.2 38.8 30.25" fill="#ffde4f" fill-rule="evenodd" stroke="none"/>
      <path d="M39.4 29.55 L39.8 29.8 39.9 30.05 39.7 30.8 39.3 31.1 39.45 30.9 39.65 30.2 39.55 29.9 39.4 29.55 M38.8 30.25 L38.8 30.05 38.75 29.95 38.9 29.8 39.05 29.8 39.25 30.0 39.2 30.2 39.05 30.4 38.85 30.35 38.8 30.25" fill="#ffff98" fill-rule="evenodd" stroke="none"/>
      <path d="M39.8 29.8 L39.85 29.8 40.2 30.55 40.05 31.3 39.4 31.65 38.9 31.4 38.8 31.3 38.75 31.2 38.5 30.85 38.85 31.05 39.1 31.1 39.3 31.1 39.7 30.8 39.9 30.05 39.8 29.8" fill="#f4a33c" fill-rule="evenodd" stroke="none"/>
      <path d="M38.75 29.7 L39.25 29.5 39.4 29.55 39.8 29.8 39.85 29.8 40.2 30.55 40.05 31.3 39.4 31.65 38.9 31.4" fill="none" stroke="#000000" stroke-linecap="round" stroke-linejoin="round" stroke-opacity="0.3019608" stroke-width="0.30000000000000004"/>
      <path d="M14.9 16.25 L14.75 16.4 14.8 16.6 15.0 16.6 15.2 16.55 15.35 16.4 15.3 16.25 15.1 16.15 14.9 16.25 M14.25 16.25 L14.45 16.1 15.25 16.05 15.6 16.4 15.7 16.55 15.35 16.85 15.1 17.0 14.4 17.05 14.25 17.0 14.2 17.0 14.15 16.85 14.25 16.25" fill="#ffde4f" fill-rule="evenodd" stroke="none"/>
      <path d="M14.9 16.25 L15.1 16.15 15.3 16.25 15.35 16.4 15.2 16.55 15.0 16.6 14.8 16.6 14.75 16.4 14.9 16.25 M15.7 16.55 L15.55 17.05 15.5 17.05 15.2 17.4 Q14.4 17.4 14.25 17.0 L14.4 17.05 15.1 17.0 15.35 16.85 15.7 16.55" fill="#ffff98" fill-rule="evenodd" stroke="none"/>
      <path d="M15.2 17.4 L14.85 17.6 14.15 17.65 14.1 17.65 14.05 17.6 13.7 17.3 Q13.65 16.95 13.9 16.6 L13.95 16.5 14.25 16.25 14.15 16.85 14.2 17.0 14.25 17.0 Q14.4 17.4 15.2 17.4" fill="#f4a33c" fill-rule="evenodd" stroke="none"/>
      <path d="M14.25 16.25 L14.45 16.1 15.25 16.05 15.6 16.4 15.7 16.55 M14.15 17.65 L14.1 17.65 14.05 17.6 13.7 17.3 Q13.65 16.95 13.9 16.6 L13.95 16.5 14.25 16.25 Z" fill="none" stroke="#000000" stroke-linecap="round" stroke-linejoin="round" stroke-opacity="0.3019608" stroke-width="0.30000000000000004"/>
      <path d="M39.05 41.0 Q39.05 41.6 37.45 42.0 L35.9 41.55 Q34.45 40.35 35.3 39.55 37.05 40.85 39.05 41.0" fill="#d5d580" fill-rule="evenodd" stroke="none"/>
      <path d="M39.75 42.0 L37.45 42.0 Q39.05 41.6 39.05 41.0 L40.2 41.0 Q40.75 41.15 39.75 42.0 M35.9 41.55 L33.95 40.4 33.95 38.65 35.3 39.55 Q34.45 40.35 35.9 41.55" fill="#cac960" fill-rule="evenodd" stroke="none"/>
      <path d="M35.2 37.25 L37.3 35.15 Q38.7 35.7 39.9 37.1 L40.3 37.8 40.55 38.8 Q38.6 36.35 36.35 39.7 L34.95 38.6 Q34.7 38.1 35.2 37.25" fill="#e6e4b3" fill-rule="evenodd" stroke="none"/>
      <path d="M36.35 39.7 Q38.6 36.35 40.55 38.8 40.8 39.95 40.5 40.55 38.0 40.7 36.35 39.7 M39.9 37.1 Q38.7 35.7 37.3 35.15 37.6 34.8 37.95 34.85 L39.9 37.1" fill="#f0f0d2" fill-rule="evenodd" stroke="none"/>
      <path d="M35.2 37.25 Q34.7 38.1 34.95 38.6 L36.35 39.7 Q38.0 40.7 40.5 40.55 40.8 39.95 40.55 38.8 L40.3 37.8 Q41.1 39.45 40.95 40.85 40.65 41.8 39.75 42.0 40.75 41.15 40.2 41.0 L39.05 41.0 Q37.05 40.85 35.3 39.55 L33.95 38.65 Q34.3 38.0 35.2 37.25" fill="#f9f8ec" fill-rule="evenodd" stroke="none"/>
      <path d="M40.3 37.8 L39.9 37.1 37.95 34.85 M37.45 42.0 L39.75 42.0 Q40.65 41.8 40.95 40.85 41.1 39.45 40.3 37.8 M37.45 42.0 L35.9 41.55 33.95 40.4" fill="none" stroke="#000000" stroke-linecap="round" stroke-linejoin="round" stroke-opacity="0.3019608" stroke-width="0.30000000000000004"/>
    </g>
    <g id="sprite1" transform="matrix(1.0, 0.0, 0.0, 1.0, 0.0, 0.0)">
      <use height="26.7" transform="matrix(0.0042, -1.3515, 1.3935, 0.02, 22.09, 56.0263)" width="26.7" xlink:href="#sprite2"/>
      <use height="26.7" transform="matrix(0.0095, -3.0486, 0.372, 0.0053, 36.507, 81.3775)" width="26.7" xlink:href="#sprite2"/>
      <use height="26.7" transform="matrix(3.0486, 0.0095, -0.0053, 0.372, 0.1225, 35.107)" width="26.7" xlink:href="#sprite2"/>
    </g>
    <g id="sprite2" transform="matrix(1.0, 0.0, 0.0, 1.0, 13.35, 13.35)">
      <use height="26.7" transform="matrix(1.0, 0.0, 0.0, 1.0, -13.35, -13.35)" width="26.7" xlink:href="#shape1"/>
    </g>
    <g id="shape1" transform="matrix(1.0, 0.0, 0.0, 1.0, 13.35, 13.35)">
      <path d="M9.3 -9.85 Q13.35 -5.8 13.35 0.0 13.35 5.8 9.3 9.3 5.8 13.35 0.0 13.35 -5.8 13.35 -9.85 9.3 -13.35 5.8 -13.35 0.0 -13.35 -5.8 -9.85 -9.85 -5.8 -13.35 0.0 -13.35 5.8 -13.35 9.3 -9.85" fill="url(#gradient0)" fill-rule="evenodd" stroke="none"/>
    </g>
    <radialGradient cx="0" cy="0" gradientTransform="matrix(0.0213, 0.0, 0.0, 0.0213, 0.0, 0.0)" gradientUnits="userSpaceOnUse" id="gradient0" r="819.2" spreadMethod="pad">
      <stop offset="0.19607843137254902" stop-color="#fee3bc" stop-opacity="0.30588236"/>
      <stop offset="0.5019607843137255" stop-color="#fee3bc" stop-opacity="0.047058824"/>
      <stop offset="0.7607843137254902" stop-color="#ffe3bd" stop-opacity="0.0"/>
    </radialGradient>
    <g id="sprite3" transform="matrix(1.0, 0.0, 0.0, 1.0, 37.15, 38.8)">
      <use height="78.5" transform="matrix(1.0, 0.0, 0.0, 1.0, -37.15, -38.8)" width="75.15" xlink:href="#shape2"/>
    </g>
    <g id="shape2" transform="matrix(1.0, 0.0, 0.0, 1.0, 37.15, 38.8)">
      <path d="M5.5 -21.3 L6.0 -20.8 5.8 -19.95 6.5 -19.55 4.7 -17.8 7.55 -16.65 7.55 -18.2 10.3 -19.05 9.5 -20.2 10.55 -21.2 8.5 -22.55 7.35 -23.3 8.95 -25.55 9.1 -25.45 13.6 -26.95 12.2 -29.4 16.35 -29.65 18.2 -33.85 20.45 -33.65 22.0 -32.15 26.35 -31.7 26.95 -24.75 24.4 -23.25 23.95 -19.55 27.05 -18.1 31.75 -21.8 36.0 -19.75 37.4 -15.55 36.1 -12.8 33.9 -11.65 33.5 -11.8 33.5 -14.1 31.6 -13.25 31.6 -11.15 32.05 -10.7 31.05 -10.2 29.8 -7.55 32.4 -4.3 36.9 -5.2 38.0 -3.25 37.7 -1.1 36.25 -2.75 34.9 -1.2 36.05 0.25 35.0 4.15 37.05 8.3 34.3 10.35 34.25 10.4 32.35 8.75 29.6 9.85 29.6 13.3 33.8 16.0 33.75 20.7 31.25 23.8 28.9 23.8 27.35 22.25 29.45 20.5 28.7 19.7 26.6 20.15 25.85 18.95 24.95 20.3 23.5 20.3 23.2 18.95 25.85 16.85 25.2 15.5 23.25 16.4 22.45 15.1 19.1 18.25 18.4 19.85 20.5 19.4 20.55 21.75 22.2 22.85 21.75 24.05 23.85 27.75 22.85 29.55 21.25 30.2 19.15 33.85 20.15 36.05 10.7 36.05 13.75 39.1 8.2 39.1 5.3 37.25 5.6 37.5 3.55 39.7 1.8 36.65 -2.75 38.15 -3.1 37.1 -1.7 36.4 -6.95 35.3 -5.9 33.8 -5.95 33.65 -3.4 32.5 -4.8 31.0 -3.25 29.8 -0.4 32.15 1.0 30.05 -0.35 28.4 0.5 27.2 0.2 26.75 2.3 25.3 6.35 26.1 4.75 20.4 5.8 19.7 4.7 14.05 1.95 11.95 -0.1 13.85 2.45 15.65 1.0 19.0 -0.1 18.05 -2.3 21.2 -0.1 22.55 -1.3 25.05 -3.8 25.4 -3.8 27.25 -3.2 27.9 -4.95 29.65 -5.75 27.95 -7.6 27.95 -7.6 30.85 -7.1 31.55 -9.2 32.95 -10.15 30.6 -13.6 30.85 -14.3 32.65 -17.1 33.5 -21.95 29.8 -20.9 28.55 -22.0 27.55 -21.0 26.05 -21.25 23.15 -25.1 21.65 -25.2 21.7 -28.6 24.65 -30.5 23.5 -31.9 20.1 -30.7 17.65 -31.7 13.75 -30.6 12.3 -31.9 10.75 -32.0 10.65 -33.15 9.2 -31.9 9.2 -29.65 6.2 -31.6 3.4 -37.15 4.15 -35.8 1.45 -36.8 -2.45 -35.7 -3.9 -37.0 -5.45 -36.8 -5.75 -31.1 -5.45 -29.8 -6.35 -29.35 -5.05 -27.35 -6.2 -26.45 -4.7 -23.85 -7.25 -21.65 -9.35 -20.45 -10.5 -20.5 -12.65 -21.5 -11.75 -22.1 -12.8 -23.3 -12.5 -23.85 -14.7 -25.9 -15.9 -27.15 -15.2 -28.3 -15.9 -28.75 -15.6 -29.05 -16.0 -29.05 -19.4 -29.15 -19.6 -27.4 -20.45 -24.5 -18.5 -21.7 -20.8 -19.0 -18.1 -15.4 -23.7 -17.8 -24.7 -16.0 -26.75 -16.3 -28.1 -15.45 -29.1 -17.85 -32.2 -17.0 -33.95 -19.9 -34.15 -18.55 -35.5 -16.35 -35.2 -14.35 -38.8 -11.7 -38.45 -12.2 -37.9 -9.05 -35.05 -10.15 -33.8 -5.3 -30.1 -1.85 -31.15 -1.0 -28.7 3.65 -30.95 3.25 -29.8 4.25 -29.8 2.6 -26.1 4.3 -24.95 3.15 -23.55 4.1 -22.6 5.5 -21.3 M17.45 -26.5 L17.45 -28.8 15.5 -27.95 15.5 -25.85 17.45 -23.95 19.1 -25.85 17.45 -26.5 M23.75 -7.85 L23.75 -10.15 21.8 -9.3 21.8 -7.15 23.75 -5.3 25.4 -7.15 23.75 -7.85 M22.4 -18.85 L22.4 -21.1 20.5 -20.3 20.5 -18.15 22.45 -16.3 24.1 -18.15 22.4 -18.85 M19.95 -1.4 L19.95 -0.65 18.05 1.25 17.05 -0.05 15.8 1.15 15.8 3.55 17.0 4.25 17.0 5.65 19.2 6.6 19.8 4.6 18.9 3.4 20.5 0.1 22.55 0.1 21.15 -0.95 19.95 -1.4 M3.7 -19.1 L1.85 -19.1 1.85 -16.25 3.85 -15.5 4.85 -17.4 3.7 -19.1 M20.75 -5.65 L19.9 -4.25 23.15 -3.1 20.75 -5.65 M25.75 -1.6 L24.2 -2.05 23.95 0.1 22.55 1.15 22.55 1.65 23.95 5.3 27.25 5.3 27.65 6.25 31.6 4.25 25.6 2.5 26.9 1.1 24.95 -0.05 25.75 -1.6 M-8.35 10.7 L-6.35 11.45 -5.35 9.55 -6.5 7.85 -8.35 7.85 -8.35 10.7 M-23.8 -2.9 L-23.8 -0.05 -21.75 0.7 -20.75 -1.2 -21.95 -2.9 -23.8 -2.9 M-20.45 -10.45 L-20.45 -7.6 -18.4 -6.85 -17.4 -8.75 -18.55 -10.45 -20.45 -10.45 M-10.5 20.95 L-9.4 23.05 -7.0 21.55 -6.15 23.05 -3.2 21.5 -4.25 19.85 -6.35 20.2 -6.8 16.45 -7.15 16.3 -6.75 14.85 -9.85 14.2 -12.65 18.05 -11.8 21.2 -10.5 20.95 M11.4 13.85 L11.0 11.95 7.1 14.9 8.15 16.3 8.15 18.0 10.8 21.25 13.85 20.3 14.2 20.55 13.6 22.7 15.55 23.8 17.8 21.8 16.9 20.3 16.45 19.4 14.5 18.95 15.8 17.75 14.05 16.15 14.0 16.25 13.65 16.05 11.75 15.55 11.45 14.15 11.4 13.85 M-19.85 12.4 L-20.05 12.15 -20.9 12.7 -20.8 12.9 -19.85 12.4 M-17.2 23.25 L-19.05 23.25 -19.05 26.1 -17.0 26.85 -16.0 24.95 -17.2 23.25" fill="url(#gradient1)" fill-rule="evenodd" stroke="none"/>
      <path d="M5.5 -21.3 L4.1 -22.6 4.75 -23.35 8.5 -22.55 8.2 -22.4 5.5 -21.3 M-21.65 -9.35 L-23.85 -7.25 -24.05 -7.15 -24.35 -9.25 -25.95 -9.8 -28.0 -10.5 -27.95 -12.0 -24.1 -13.25 -23.85 -12.9 -25.15 -12.0 -23.95 -10.75 -22.7 -10.85 -21.65 -9.35 M7.6 -21.25 L7.65 -21.1 7.55 -21.2 7.6 -21.25 M11.4 13.85 L11.45 14.15 11.3 14.45 11.4 13.85" fill="url(#gradient2)" fill-rule="evenodd" stroke="none"/>
    </g>
    <radialGradient cx="0" cy="0" gradientTransform="matrix(0.0504, 0.0, 0.0, 0.0504, -0.1, -0.1)" gradientUnits="userSpaceOnUse" id="gradient1" r="819.2" spreadMethod="pad">
      <stop offset="0.5215686274509804" stop-color="#133a01" stop-opacity="0.4509804"/>
      <stop offset="1.0" stop-color="#221e00" stop-opacity="0.0"/>
    </radialGradient>
    <radialGradient cx="0" cy="0" gradientTransform="matrix(0.042, 0.0, 0.0, 0.042, 0.0, 0.0)" gradientUnits="userSpaceOnUse" id="gradient2" r="819.2" spreadMethod="pad">
      <stop offset="0.5215686274509804" stop-color="#133a01" stop-opacity="0.4509804"/>
      <stop offset="1.0" stop-color="#221e00" stop-opacity="0.0"/>
    </radialGradient>
  </defs>
</svg>
