<?xml version="1.0" encoding="UTF-8" standalone="no"?>
<svg xmlns:xlink="http://www.w3.org/1999/xlink" height="52.0px" width="52.0px" xmlns="http://www.w3.org/2000/svg">
  <g transform="matrix(1.0, 0.0, 0.0, 1.0, 0.0, 0.0)">
    <use height="54.0" transform="matrix(1.0, 0.0, 0.0, 1.0, -1.0, -1.0)" width="54.0" xlink:href="#shape0"/>
    <use height="156.85" transform="matrix(0.1339, -0.0093, 0.0123, 0.0805, 14.8281, 31.9893)" width="73.1" xlink:href="#sprite0"/>
    <use height="156.85" transform="matrix(-0.0962, -0.0992, -0.0587, 0.0528, 22.3732, 28.157)" width="73.1" xlink:href="#sprite0"/>
    <use height="0.0" transform="matrix(0.0706, 0.0151, -0.0549, 0.1323, 37.05, 21.45)" width="0.0" xlink:href="#sprite1"/>
    <use height="0.0" transform="matrix(0.0256, -0.0866, 0.0259, 0.0092, 20.25, 32.25)" width="0.0" xlink:href="#sprite1"/>
    <use height="0.0" transform="matrix(0.0181, -0.0893, 0.0259, 0.0092, 26.75, 33.55)" width="0.0" xlink:href="#sprite1"/>
    <use height="0.0" transform="matrix(0.0414, -0.0801, 0.023, 0.0153, 14.4, 29.8)" width="0.0" xlink:href="#sprite1"/>
    <use height="0.0" transform="matrix(-0.003, -0.0433, 0.0679, 0.006, 37.25, 34.2)" width="0.0" xlink:href="#sprite1"/>
    <use height="0.0" transform="matrix(0.0244, 0.0022, -0.0196, 0.0434, 33.0, 19.05)" width="0.0" xlink:href="#sprite1"/>
    <use height="81.5" transform="matrix(0.1609, 0.0198, -0.0096, 0.157, 28.55, 10.9)" width="81.5" xlink:href="#sprite2"/>
  </g>
  <defs>
    <g id="shape0" transform="matrix(1.0, 0.0, 0.0, 1.0, 1.0, 1.0)">
      <path d="M52.0 0.0 L52.0 52.0 0.0 52.0 0.0 0.0 52.0 0.0" fill="#795fa9" fill-opacity="0.0" fill-rule="evenodd" stroke="none"/>
      <path d="M17.8 15.7 Q16.5 18.35 16.15 21.3 L15.4 21.05 14.2 20.9 11.45 23.2 10.45 25.75 7.65 28.4 7.1 30.6 8.25 31.8 8.95 31.75 9.1 33.25 10.65 32.75 9.65 36.05 10.15 37.0 11.85 37.2 14.55 36.7 15.6 35.45 15.15 39.95 Q14.7 44.05 15.8 45.95 L17.7 45.85 19.8 44.45 23.55 45.2 23.65 48.5 26.05 48.0 Q28.15 47.2 29.95 44.9 L30.3 44.35 31.05 43.55 31.95 41.35 34.25 38.4 34.35 37.6 35.5 37.7 Q36.45 37.85 37.25 38.25 L37.8 39.4 37.85 40.2 37.7 42.6 38.95 43.05 42.55 40.3 44.4 34.45 44.25 29.75 42.95 29.2 41.85 29.05 40.65 29.55 38.1 31.1 37.0 30.95 34.95 32.05 35.05 31.1 35.5 31.0 39.45 28.8 42.15 26.3 43.1 23.95 Q43.75 21.95 43.95 19.75 L43.1 16.85 42.45 15.65 41.3 14.15 40.55 13.75 40.3 12.9 42.0 10.4 44.1 10.4 Q44.9 7.0 43.05 4.2 L39.1 3.7 34.15 4.5 31.2 6.8 29.5 9.5 28.2 9.4 25.0 9.7 Q20.6 11.3 17.85 15.65 L17.8 15.7 Z" fill="none" stroke="#000000" stroke-linecap="round" stroke-linejoin="round" stroke-opacity="0.3019608" stroke-width="1.0"/>
      <path d="M14.2 20.9 L15.05 22.4 15.15 23.3 14.1 21.7 11.75 23.4 9.85 28.2 9.2 31.55 9.15 32.25 11.45 29.05 10.45 31.1 9.1 33.25 8.9 31.6 9.6 28.05 11.4 23.2 14.2 20.9" fill="#f9f8ec" fill-rule="evenodd" stroke="none"/>
      <path d="M15.05 22.4 L14.2 20.9 15.4 21.05 15.05 22.4" fill="#f0f0d2" fill-rule="evenodd" stroke="none"/>
      <path d="M11.45 29.05 L9.15 32.25 9.2 31.55 9.85 28.2 11.75 23.4 14.1 21.7 15.15 23.3 15.25 24.15 11.45 29.05" fill="#d5d580" fill-rule="evenodd" stroke="none"/>
      <path d="M10.45 31.1 L11.45 29.05 15.25 24.15 15.35 24.95 16.35 24.25 11.9 31.3 10.45 31.1" fill="#a6a637" fill-rule="evenodd" stroke="none"/>
      <path d="M9.1 33.25 L10.45 31.1 11.9 31.3 10.65 32.75 9.1 33.25 M15.15 23.3 L15.05 22.4 15.4 21.05 16.8 21.5 16.35 24.25 15.35 24.95 15.25 24.15 15.15 23.3" fill="#8c8c2f" fill-rule="evenodd" stroke="none"/>
      <path d="M15.05 22.4 L14.2 20.9 11.4 23.2 9.6 28.05 8.9 31.6 9.1 33.25 10.45 31.1 11.9 31.3 10.65 32.75 9.1 33.25 M15.15 23.3 L15.05 22.4 15.4 21.05 14.2 20.9 M15.4 21.05 L16.8 21.5 16.35 24.25 11.9 31.3 M15.15 23.3 L15.25 24.15 15.35 24.95 16.35 24.25" fill="none" stroke="#000000" stroke-linecap="round" stroke-linejoin="round" stroke-opacity="0.3019608" stroke-width="0.30000000000000004"/>
      <path d="M31.05 39.25 L32.4 39.4 29.95 42.15 31.05 39.25 M21.25 44.7 L19.85 44.45 17.8 43.45 17.4 43.9 15.85 45.9 Q14.75 44.0 15.2 39.95 L15.45 37.15 16.45 36.55 18.85 32.85 16.55 37.2 15.9 37.5 15.3 42.8 Q15.45 44.7 15.85 45.3 L17.1 43.1 16.3 42.15 19.75 44.15 21.0 44.3 23.75 41.45 24.7 39.25 23.1 40.65 26.1 37.15 24.15 41.55 21.25 44.7 M22.05 32.7 L19.75 38.25 21.0 40.8 22.5 40.7 20.65 41.1 19.4 38.45 19.45 37.95 22.05 32.7" fill="#f9f8ec" fill-rule="evenodd" stroke="none"/>
      <path d="M31.4 34.55 L31.05 39.25 29.95 42.15 28.8 43.8 28.75 43.85 29.2 43.9 27.05 46.3 Q25.45 47.95 23.7 48.5 L23.6 45.2 24.15 45.3 23.95 47.9 26.55 46.35 29.65 41.7 29.8 41.1 31.4 34.55 M18.85 32.85 L19.4 31.95 22.05 32.7 19.45 37.95 19.4 38.45 20.65 41.1 22.5 40.7 23.1 40.65 24.7 39.25 23.75 41.45 21.0 44.3 19.75 44.15 16.3 42.15 17.1 43.1 15.85 45.3 Q15.45 44.7 15.3 42.8 L15.9 37.5 16.55 37.2 18.85 32.85" fill="#f0f0d2" fill-rule="evenodd" stroke="none"/>
      <path d="M23.6 45.2 L21.25 44.7 24.15 41.55 26.1 37.15 27.35 35.65 26.6 39.65 27.35 42.05 28.5 42.2 29.8 41.1 29.65 41.7 26.55 46.35 23.95 47.9 24.15 45.3 23.6 45.2 M19.3 25.65 L19.3 25.6 19.3 25.65" fill="#d5d580" fill-rule="evenodd" stroke="none"/>
      <path d="M30.35 44.4 L29.95 44.9 Q28.2 47.2 26.1 48.0 L23.7 48.5 Q25.45 47.95 27.05 46.3 L30.35 44.4" fill="#bfbf40" fill-rule="evenodd" stroke="none"/>
      <path d="M31.7 29.75 L31.4 34.35 31.4 34.55 29.8 41.1 28.5 42.2 27.35 42.05 26.6 39.65 27.35 35.65 26.1 37.15 23.1 40.65 22.5 40.7 21.0 40.8 19.75 38.25 22.05 32.7 19.4 31.95 18.85 32.85 16.45 36.55 15.45 37.15 15.7 35.1 16.85 29.35 19.3 25.65 19.3 25.6 31.7 29.75 M32.4 39.4 L34.25 38.4 32.0 41.35 28.8 43.8 29.95 42.15 32.4 39.4 M31.1 43.55 L30.35 44.4 27.05 46.3 29.2 43.9 31.1 43.55 M18.55 45.35 Q18.1 45.55 17.75 45.85 L15.85 45.9 17.4 43.9 18.55 45.35" fill="#a6a637" fill-rule="evenodd" stroke="none"/>
      <path d="M31.7 29.75 L35.2 29.65 34.25 38.4 32.4 39.4 31.05 39.25 31.4 34.55 31.4 34.35 31.7 29.75 M32.0 41.35 L31.1 43.55 29.2 43.9 28.75 43.85 28.8 43.8 32.0 41.35 M19.85 44.45 Q19.15 44.85 18.55 45.35 L17.4 43.9 17.8 43.45 19.85 44.45" fill="#86862d" fill-rule="evenodd" stroke="none"/>
      <path d="M34.25 38.4 L35.2 29.65 31.7 29.75 31.4 34.35 M31.4 34.55 L31.05 39.25 32.4 39.4 34.25 38.4 32.0 41.35 31.1 43.55 30.35 44.4 29.95 44.9 Q28.2 47.2 26.1 48.0 L23.7 48.5 23.6 45.2 21.25 44.7 19.85 44.45 Q19.15 44.85 18.55 45.35 18.1 45.55 17.75 45.85 L15.85 45.9 Q14.75 44.0 15.2 39.95 L15.45 37.15 15.7 35.1 16.85 29.35 19.3 25.65 19.3 25.6 19.4 25.45 M17.8 43.45 L19.85 44.45 M19.3 25.6 L31.7 29.75" fill="none" stroke="#000000" stroke-linecap="round" stroke-linejoin="round" stroke-opacity="0.3019608" stroke-width="0.30000000000000004"/>
      <path d="M16.05 22.05 Q16.35 18.7 17.8 15.7 L17.85 15.65 Q20.6 11.3 24.95 9.65 L28.2 9.45 29.5 9.45 29.35 9.75 26.45 10.05 23.15 11.3 Q19.8 13.8 17.95 17.1 L17.0 21.4 16.1 22.1 17.0 21.4 21.2 20.35 17.35 21.65 15.5 23.25 12.35 25.1 10.95 27.05 7.65 28.4 11.25 25.0 15.05 23.0 16.1 22.1 16.05 22.05 M30.95 7.2 L31.2 6.8 31.5 6.8 31.6 6.85 33.1 6.8 31.6 6.85 36.05 5.3 34.85 4.65 34.1 4.45 35.3 4.3 37.15 4.95 42.2 4.1 43.0 4.2 37.55 5.3 37.4 5.4 37.35 5.4 35.25 6.05 33.1 6.8 33.0 7.9 30.05 10.85 32.05 8.25 32.5 7.35 31.75 7.25 30.95 7.2 M16.45 39.0 L16.55 37.3 17.15 38.9 17.6 39.3 19.1 38.85 21.35 35.15 23.2 28.6 21.9 35.2 22.45 38.55 21.45 35.9 19.4 39.15 17.6 39.8 16.45 39.0 M16.55 24.75 L17.5 23.7 18.5 22.2 22.1 20.1 22.15 20.1 24.1 19.65 30.9 15.2 32.6 11.3 29.5 12.3 31.45 11.3 32.7 10.85 33.25 10.65 35.9 11.95 38.85 16.0 39.1 18.9 39.1 18.95 38.75 21.0 36.75 24.15 33.25 27.65 29.5 29.6 28.8 27.55 29.65 28.7 32.85 27.25 36.65 23.8 37.3 22.35 38.05 18.35 37.6 15.9 36.9 16.15 35.2 16.75 34.2 17.15 Q29.7 19.15 24.9 22.65 L21.3 26.2 20.55 27.75 18.75 26.85 19.25 24.75 17.95 25.5 18.55 23.25 10.6 33.95 11.55 31.2 14.8 26.8 16.55 24.75 M37.35 5.4 L34.85 4.65 37.35 5.4" fill="#f9f8ec" fill-rule="evenodd" stroke="none"/>
      <path d="M17.0 21.4 L17.95 17.1 Q19.8 13.8 23.15 11.3 L26.45 10.05 29.35 9.75 29.5 9.45 30.95 7.2 31.75 7.25 28.35 12.6 27.3 13.65 29.35 9.75 27.3 13.65 29.5 12.3 32.6 11.3 30.9 15.2 24.1 19.65 22.15 20.1 22.1 20.1 21.2 20.35 17.0 21.4 M31.2 6.8 L34.1 4.45 34.85 4.65 36.05 5.3 31.6 6.85 31.5 6.8 31.2 6.8 M35.3 4.3 L39.05 3.75 42.2 4.1 37.15 4.95 35.3 4.3 M43.1 16.8 L43.9 19.75 41.2 16.95 43.1 16.8 M25.55 41.6 Q24.4 41.15 23.95 39.5 L24.3 34.35 25.5 30.3 25.75 29.45 25.9 26.7 26.8 24.05 27.3 29.3 26.4 37.1 25.2 39.6 24.45 39.1 24.5 39.45 25.35 40.65 26.3 39.8 27.7 36.35 28.6 30.65 28.3 35.95 29.25 37.65 28.25 36.55 26.6 40.3 25.55 41.6 M16.55 37.3 L18.0 33.25 18.2 35.25 21.25 31.1 23.9 24.85 23.55 26.75 23.2 28.6 21.35 35.15 19.1 38.85 17.6 39.3 17.15 38.9 16.55 37.3 M10.15 37.0 L9.65 36.05 11.05 31.4 11.2 31.0 14.8 26.8 11.55 31.2 10.6 33.95 10.6 34.0 10.1 35.9 10.4 36.35 12.45 35.65 16.25 30.35 18.1 27.35 15.7 31.9 15.35 32.55 13.3 35.65 13.05 36.05 10.15 37.0 M7.05 30.6 L7.65 28.4 10.95 27.05 9.7 30.0 8.15 31.05 7.05 30.6 M33.25 27.65 L36.75 24.15 36.25 27.2 33.25 27.65 M39.1 18.9 L38.85 16.0 35.9 11.95 33.25 10.65 33.8 10.45 36.25 11.55 36.95 12.25 Q38.55 14.0 39.4 16.4 L39.45 16.6 39.1 18.9 M33.0 7.9 L33.1 6.8 35.25 6.05 33.0 7.9" fill="#f0f0d2" fill-rule="evenodd" stroke="none"/>
      <path d="M40.5 13.75 L41.3 14.15 42.4 15.65 43.1 16.8 41.2 16.95 39.4 16.4 Q38.55 14.0 36.95 12.25 L36.25 11.55 37.7 12.25 40.5 13.75 M42.1 26.3 L39.45 28.8 36.25 27.2 36.75 24.15 38.75 21.0 42.1 26.3 M18.0 33.25 L20.25 28.45 20.55 27.75 21.3 26.2 24.9 22.65 Q29.7 19.15 34.2 17.15 L35.2 16.75 36.9 16.15 37.6 15.9 38.05 18.35 37.3 22.35 36.65 23.8 32.85 27.25 29.65 28.7 28.8 27.55 28.6 30.65 27.7 36.35 26.3 39.8 25.35 40.65 24.5 39.45 24.45 39.1 25.2 39.6 26.4 37.1 27.3 29.3 26.8 24.05 25.9 26.7 24.75 28.2 23.45 28.5 23.55 26.75 23.9 24.85 21.25 31.1 18.2 35.25 18.0 33.25 M18.5 22.2 L17.05 23.55 12.4 28.1 9.7 30.0 10.95 27.05 12.35 25.1 15.5 23.25 17.35 21.65 21.2 20.35 22.1 20.1 18.5 22.2 M10.6 33.95 L18.55 23.25 17.95 25.5 19.25 24.75 18.1 27.35 16.25 30.35 12.45 35.65 10.4 36.35 10.1 35.9 10.6 34.0 10.6 33.95 M13.05 36.05 L13.3 35.65 14.05 36.5 13.05 36.05 M15.35 32.55 L15.7 31.9 16.6 34.3 15.35 32.55 M31.75 7.25 L32.5 7.35 32.05 8.25 30.05 10.85 28.35 12.6 31.75 7.25" fill="#d5d580" fill-rule="evenodd" stroke="none"/>
      <path d="M43.0 4.2 Q44.9 7.0 44.1 10.4 L40.35 8.5 38.25 6.3 37.4 5.4 37.55 5.3 43.0 4.2 M28.4 40.65 L28.2 40.75 27.3 41.25 26.4 41.55 25.55 41.6 26.6 40.3 28.4 40.65 M19.3 40.6 L18.35 40.65 17.6 39.8 19.4 39.15 19.3 40.6 M16.55 24.75 L17.05 23.55 18.5 22.2 17.5 23.7 16.55 24.75 M25.75 29.45 L23.45 28.9 23.45 28.5 24.75 28.2 25.9 26.7 25.75 29.45" fill="#bfbf40" fill-rule="evenodd" stroke="none"/>
      <path d="M44.1 10.4 L41.95 10.4 40.35 8.5 44.1 10.4 M43.9 19.75 Q43.7 21.95 43.1 23.95 L42.1 26.3 38.75 21.0 39.1 18.95 39.1 18.9 39.45 16.6 39.4 16.4 41.2 16.95 43.9 19.75 M39.45 28.8 L35.5 31.0 32.3 31.5 30.35 31.45 30.4 31.0 29.5 29.6 33.25 27.65 36.25 27.2 39.45 28.8 M29.55 37.95 L28.4 40.65 26.6 40.3 28.25 36.55 29.25 37.65 29.55 37.95 M25.5 30.3 L24.55 30.2 24.15 30.2 23.7 29.6 23.45 28.9 25.75 29.45 25.5 30.3 M22.45 38.55 L19.3 40.6 19.4 39.15 21.45 35.9 22.45 38.55 M18.35 40.65 L17.4 40.65 16.45 39.0 17.6 39.8 18.35 40.65 M20.25 28.45 L19.35 28.1 18.75 26.85 20.55 27.75 20.25 28.45 M14.5 36.7 L11.8 37.2 10.15 37.0 13.05 36.05 14.05 36.5 14.5 36.7 M9.1 31.75 L8.2 31.8 7.05 30.6 8.15 31.05 9.1 31.75 M33.25 10.65 L32.7 10.85 31.45 11.3 29.5 12.3 27.3 13.65 28.35 12.6 30.05 10.85 33.0 7.9 35.25 6.05 37.35 5.4 37.4 5.4 38.25 6.3 39.15 9.25 37.7 12.25 36.25 11.55 33.8 10.45 33.25 10.65" fill="#a6a637" fill-rule="evenodd" stroke="none"/>
      <path d="M41.95 10.4 L40.3 12.9 40.5 13.75 37.7 12.25 39.15 9.25 38.25 6.3 40.35 8.5 41.95 10.4 M30.35 31.45 L29.55 37.95 29.25 37.65 28.3 35.95 28.6 30.65 28.8 27.55 29.5 29.6 30.4 31.0 30.35 31.45 M24.55 30.2 L23.25 34.85 22.45 38.55 21.9 35.2 23.2 28.6 23.55 26.75 23.45 28.5 23.45 28.9 23.7 29.6 24.15 30.2 24.55 30.2 M19.35 28.1 L16.6 34.3 14.5 36.7 14.05 36.5 13.3 35.65 15.35 32.55 16.6 34.3 15.7 31.9 18.1 27.35 19.25 24.75 18.75 26.85 19.35 28.1 M11.05 31.4 L9.75 31.75 9.1 31.75 8.15 31.05 9.7 30.0 12.4 28.1 17.05 23.55 16.55 24.75 14.8 26.8 11.2 31.0 11.05 31.4" fill="#86862d" fill-rule="evenodd" stroke="none"/>
      <path d="M29.5 9.45 L28.2 9.45 24.95 9.65 Q20.6 11.3 17.85 15.65 L17.8 15.7 Q16.35 18.7 16.05 22.05 M16.1 22.1 L17.0 21.4 M29.35 9.75 L29.5 9.45 30.95 7.2 31.2 6.8 34.1 4.45 35.3 4.3 39.05 3.75 42.2 4.1 43.0 4.2 Q44.9 7.0 44.1 10.4 L41.95 10.4 40.3 12.9 40.5 13.75 41.3 14.15 42.4 15.65 43.1 16.8 43.9 19.75 Q43.7 21.95 43.1 23.95 L42.1 26.3 39.45 28.8 35.5 31.0 32.3 31.5 30.35 31.45 29.55 37.95 28.4 40.65 28.2 40.75 27.3 41.25 26.4 41.55 25.55 41.6 Q24.4 41.15 23.95 39.5 L24.3 34.35 25.5 30.3 24.55 30.2 23.25 34.85 22.45 38.55 19.3 40.6 18.35 40.65 17.4 40.65 16.45 39.0 16.55 37.3 18.0 33.25 20.25 28.45 19.35 28.1 16.6 34.3 14.5 36.7 11.8 37.2 10.15 37.0 9.65 36.05 11.05 31.4 9.75 31.75 9.1 31.75 8.2 31.8 7.05 30.6 7.65 28.4 11.25 25.0 15.05 23.0 16.1 22.1 M17.05 23.55 L16.55 24.75 17.5 23.7 M16.55 24.75 L14.8 26.8 11.2 31.0 11.05 31.4 M19.25 24.75 L18.75 26.85 20.55 27.75 21.3 26.2 M28.8 27.55 L29.5 29.6 33.25 27.65 36.75 24.15 38.75 21.0 39.1 18.95 39.1 18.9 39.45 16.6 39.4 16.4 41.2 16.95 43.1 16.8 M33.25 10.65 L32.7 10.85 31.45 11.3 29.5 12.3 27.3 13.65 28.35 12.6 30.05 10.85 33.0 7.9 33.1 6.8 31.6 6.85 M18.75 26.85 L19.35 28.1 M20.25 28.45 L20.55 27.75 M40.35 8.5 L41.95 10.4 M44.1 10.4 L40.35 8.5 38.25 6.3 37.4 5.4 37.35 5.4 35.25 6.05 33.0 7.9 M37.7 12.25 L40.5 13.75 M31.5 6.8 L31.2 6.8 M34.85 4.65 L34.1 4.45 M34.85 4.65 L37.35 5.4 M37.4 5.4 L37.55 5.3 43.0 4.2 M35.25 6.05 L33.1 6.8 M27.3 13.65 L29.35 9.75 M36.25 11.55 L37.7 12.25 M36.25 11.55 L36.95 12.25 Q38.55 14.0 39.4 16.4 M33.25 10.65 L33.8 10.45 36.25 11.55 M36.75 24.15 L36.25 27.2 39.45 28.8 M36.25 27.2 L33.25 27.65 M28.6 30.65 L28.8 27.55 M25.5 30.3 L25.75 29.45 23.45 28.9 23.7 29.6 24.15 30.2 24.55 30.2 M23.45 28.5 L23.45 28.9 M28.3 35.95 L28.6 30.65 M21.9 35.2 L23.2 28.6 23.55 26.75 23.45 28.5 M30.35 31.45 L30.4 31.0 29.5 29.6 M25.75 29.45 L25.9 26.7 M38.75 21.0 L42.1 26.3 M41.2 16.95 L43.9 19.75 M26.6 40.3 L25.55 41.6 M16.45 39.0 L17.6 39.8 19.4 39.15 21.45 35.9 M28.25 36.55 L26.6 40.3" fill="none" stroke="#000000" stroke-linecap="round" stroke-linejoin="round" stroke-opacity="0.3019608" stroke-width="0.30000000000000004"/>
      <path d="M37.0 30.95 L32.85 35.4 32.8 36.65 35.8 36.5 36.55 36.7 Q37.6 37.2 38.2 38.4 L37.8 39.4 37.25 38.25 Q36.55 37.3 35.65 37.1 L35.2 37.05 32.35 37.25 32.25 35.35 37.0 30.95 M42.9 29.2 L42.2 31.6 41.1 30.9 42.2 31.6 42.35 33.0 44.35 34.45 42.4 33.85 41.7 36.4 41.4 37.4 Q40.5 39.8 39.25 41.25 L37.65 42.55 37.7 42.1 39.05 40.75 40.6 37.55 41.65 34.1 41.8 31.95 41.1 30.9 40.75 29.75 40.65 29.5 41.85 29.05 42.9 29.2 M42.35 33.0 L42.4 33.85 42.35 33.0" fill="#f9f8ec" fill-rule="evenodd" stroke="none"/>
      <path d="M38.2 38.4 Q37.6 37.2 36.55 36.7 L35.8 36.5 32.8 36.65 32.85 35.4 37.0 30.95 38.05 31.1 39.35 35.4 38.2 38.4 39.35 35.4 41.1 30.9 41.8 31.95 41.65 34.1 40.6 37.55 39.05 40.75 37.7 42.1 37.8 40.2 37.8 39.4 38.2 38.4" fill="#f0f0d2" fill-rule="evenodd" stroke="none"/>
      <path d="M39.35 35.4 L38.05 31.1 39.45 34.35 40.7 31.35 40.75 29.75 41.1 30.9 39.35 35.4 M37.0 30.95 L32.25 35.35 32.6 33.25 37.0 30.95 M32.35 37.25 L35.2 37.05 33.3 37.65 32.35 37.25 M42.2 31.6 L42.9 29.2 44.2 29.75 44.35 34.45 42.35 33.0 42.2 31.6 M39.25 41.25 Q40.5 39.8 41.4 37.4 L41.25 40.1 39.25 41.25" fill="#d5d580" fill-rule="evenodd" stroke="none"/>
      <path d="M40.65 29.5 L40.75 29.75 40.7 31.35 39.45 34.35 38.05 31.1 40.65 29.5 M41.7 36.4 L42.4 33.85 44.35 34.45 42.65 39.9 41.7 39.25 41.7 36.4" fill="#bfbf40" fill-rule="evenodd" stroke="none"/>
      <path d="M35.2 37.05 L35.65 37.1 Q36.55 37.3 37.25 38.25 36.45 37.85 35.5 37.7 L33.3 37.65 35.2 37.05 M41.4 37.4 L41.7 36.4 41.7 39.25 42.65 39.9 42.55 40.25 41.25 40.1 41.4 37.4" fill="#a6a637" fill-rule="evenodd" stroke="none"/>
      <path d="M37.65 42.55 L39.25 41.25 41.25 40.1 42.55 40.25 38.9 43.05 37.65 42.55" fill="#86862d" fill-rule="evenodd" stroke="none"/>
      <path d="M38.2 38.4 L39.35 35.4 38.05 31.1 37.0 30.95 32.25 35.35 32.35 37.25 35.2 37.05 35.65 37.1 Q36.55 37.3 37.25 38.25 L37.8 39.4 38.2 38.4 M32.25 35.35 L32.6 33.25 37.0 30.95 M33.3 37.65 L32.35 37.25 M35.2 37.05 L33.3 37.65 35.5 37.7 Q36.45 37.85 37.25 38.25 M42.2 31.6 L42.9 29.2 41.85 29.05 40.65 29.5 40.75 29.75 41.1 30.9 42.2 31.6 42.35 33.0 42.4 33.85 44.35 34.45 42.65 39.9 42.55 40.25 38.9 43.05 37.65 42.55 39.25 41.25 Q40.5 39.8 41.4 37.4 L41.7 36.4 42.4 33.85 M44.35 34.45 L44.2 29.75 42.9 29.2 M37.7 42.1 L37.65 42.55 M38.05 31.1 L40.65 29.5 M41.1 30.9 L39.35 35.4 M39.25 41.25 L41.25 40.1 41.4 37.4 M41.25 40.1 L42.55 40.25 M37.7 42.1 L37.8 40.2 37.8 39.4" fill="none" stroke="#000000" stroke-linecap="round" stroke-linejoin="round" stroke-opacity="0.3019608" stroke-width="0.30000000000000004"/>
      <path d="M32.55 17.5 L32.2 17.35 Q32.4 16.1 33.1 16.0 L34.05 16.2 35.4 18.35 34.3 20.45 Q33.95 20.7 33.55 20.9 33.05 20.75 32.8 19.05 L33.0 18.45 32.55 17.5 M30.45 17.45 L29.85 18.1 Q29.5 18.95 29.75 19.75 L30.6 20.75 31.25 20.7 31.9 22.1 31.25 22.25 Q30.1 22.25 29.0 21.4 28.4 20.55 28.75 18.35 29.05 17.2 29.95 16.6 L30.45 17.45" fill="#a34100" fill-rule="evenodd" stroke="none"/>
      <path d="M31.6 20.65 L30.7 20.55 30.8 19.65 30.8 18.95 31.3 18.0 32.55 17.5 33.0 18.45 32.8 19.05 32.65 19.7 31.6 20.65 M35.4 21.45 L34.4 20.8 35.4 18.35 36.15 19.3 35.4 21.45" fill="#431b01" fill-rule="evenodd" stroke="none"/>
      <path d="M30.6 17.65 L31.1 17.35 31.3 17.35 32.55 17.5 31.3 18.0 30.6 17.65 M30.7 20.55 L30.15 19.9 Q30.0 19.25 30.15 18.65 L30.8 19.65 30.7 20.55 M29.35 22.15 Q29.9 22.45 30.6 22.55 L32.3 22.4 34.25 21.05 35.4 21.45 32.55 22.95 Q31.25 23.3 29.35 22.15 M35.4 18.35 L34.3 15.9 35.5 17.2 36.15 19.3 35.4 18.35" fill="#5c2501" fill-rule="evenodd" stroke="none"/>
      <path d="M30.15 18.65 L30.15 18.6 30.25 18.25 30.6 17.65 31.3 18.0 30.8 18.95 30.8 19.65 30.15 18.65" fill="#7e3301" fill-rule="evenodd" stroke="none"/>
      <path d="M32.2 17.35 L30.95 17.1 30.45 17.45 29.95 16.6 31.45 15.6 32.5 15.9 Q32.1 16.55 32.2 17.35 M31.25 20.7 L31.6 20.65 32.65 19.7 33.15 21.2 Q33.0 21.6 31.9 22.1 L31.25 20.7" fill="#ca5202" fill-rule="evenodd" stroke="none"/>
      <path d="M32.55 17.5 L31.3 17.35 31.1 17.35 30.6 17.65 30.25 18.25 30.15 18.6 30.15 18.65 Q30.0 19.25 30.15 19.9 L30.7 20.55 31.6 20.65 31.25 20.7 30.6 20.75 29.75 19.75 Q29.5 18.95 29.85 18.1 L30.45 17.45 30.95 17.1 32.2 17.35 32.55 17.5 M32.8 19.05 Q33.05 20.75 33.55 20.9 33.95 20.7 34.3 20.45 L35.4 18.35 34.05 16.2 33.1 16.0 Q32.4 16.1 32.2 17.35 32.1 16.55 32.5 15.9 L31.45 15.6 29.95 16.6 Q29.05 17.2 28.75 18.35 28.4 20.55 29.0 21.4 30.1 22.25 31.25 22.25 L31.9 22.1 Q33.0 21.6 33.15 21.2 L32.65 19.7 32.8 19.05 M29.35 22.15 L28.55 21.45 Q27.6 19.4 28.65 17.35 29.9 16.05 31.3 15.25 L34.3 15.9 35.4 18.35 34.4 20.8 35.4 21.45 34.25 21.05 32.3 22.4 30.6 22.55 Q29.9 22.45 29.35 22.15" fill="#ea6004" fill-rule="evenodd" stroke="none"/>
      <path d="M31.6 20.65 L30.7 20.55 30.8 19.65 30.8 18.95 31.3 18.0 32.55 17.5 33.0 18.45 32.8 19.05 32.65 19.7 31.6 20.65 M34.3 15.9 L31.3 15.25 Q29.9 16.05 28.65 17.35 27.6 19.4 28.55 21.45 L29.35 22.15 Q31.25 23.3 32.55 22.95 L35.4 21.45 36.15 19.3 35.5 17.2 34.3 15.9" fill="none" stroke="#000000" stroke-linecap="round" stroke-linejoin="round" stroke-opacity="0.3019608" stroke-width="0.30000000000000004"/>
      <path d="M20.4 14.75 L19.8 15.4 Q19.35 16.2 19.35 17.0 L19.7 17.95 20.25 17.9 20.4 19.25 19.85 19.4 Q18.95 19.45 18.35 18.6 18.1 17.8 18.9 15.65 19.4 14.55 20.25 13.95 L20.4 14.75 M22.0 14.75 L21.75 14.6 Q22.25 13.4 22.8 13.25 L23.45 13.4 23.95 15.5 22.6 17.55 21.95 17.95 Q21.6 17.85 21.8 16.25 L22.1 15.65 22.0 14.75" fill="#a34100" fill-rule="evenodd" stroke="none"/>
      <path d="M20.55 17.85 L19.85 17.75 20.15 16.85 20.35 16.2 20.95 15.25 22.0 14.75 22.1 15.65 21.8 16.25 21.55 16.85 20.55 17.85 M23.2 18.5 L22.6 17.9 23.95 15.5 24.3 16.35 23.2 18.5" fill="#431b01" fill-rule="evenodd" stroke="none"/>
      <path d="M20.25 17.9 L19.7 17.95 19.35 17.0 Q19.35 16.2 19.8 15.4 L20.4 14.75 20.9 14.4 21.75 14.6 22.0 14.75 21.15 14.6 20.95 14.6 Q20.7 14.7 20.5 14.95 L20.1 15.5 19.9 15.85 19.9 15.9 19.6 17.15 19.85 17.75 20.55 17.85 20.25 17.9 M20.25 13.95 Q19.4 14.55 18.9 15.65 18.1 17.8 18.35 18.6 18.95 19.45 19.85 19.4 L20.4 19.25 21.55 18.35 21.55 16.85 21.8 16.25 Q21.6 17.85 21.95 17.95 L22.6 17.55 23.95 15.5 22.6 17.9 23.2 18.5 22.45 18.15 20.6 19.55 19.3 19.7 18.45 19.35 18.0 18.7 Q17.8 16.7 19.1 14.7 20.35 13.4 21.65 12.55 L23.75 13.1 23.95 15.5 23.45 13.4 22.8 13.25 Q22.25 13.4 21.75 14.6 21.9 13.8 22.4 13.15 L21.65 12.9 20.25 13.95" fill="#ea6004" fill-rule="evenodd" stroke="none"/>
      <path d="M20.4 14.75 L20.25 13.95 21.65 12.9 22.4 13.15 Q21.9 13.8 21.75 14.6 L20.9 14.4 20.4 14.75 M20.4 19.25 L20.25 17.9 20.55 17.85 21.55 16.85 21.55 18.35 20.4 19.25" fill="#ca5202" fill-rule="evenodd" stroke="none"/>
      <path d="M19.9 15.9 L19.9 15.85 20.1 15.5 20.5 14.95 20.95 15.25 20.35 16.2 20.15 16.85 19.9 15.9 M24.3 16.35 L23.95 15.5 23.75 13.1 24.35 14.4 24.3 16.35" fill="#7e3301" fill-rule="evenodd" stroke="none"/>
      <path d="M19.85 17.75 L19.6 17.15 19.9 15.9 20.15 16.85 19.85 17.75 M20.5 14.95 Q20.7 14.7 20.95 14.6 L21.15 14.6 22.0 14.75 20.95 15.25 20.5 14.95 M18.45 19.35 L19.3 19.7 20.6 19.55 22.45 18.15 23.2 18.5 20.7 20.0 Q19.65 20.4 18.45 19.35" fill="#5c2501" fill-rule="evenodd" stroke="none"/>
      <path d="M20.55 17.85 L19.85 17.75 20.15 16.85 20.35 16.2 20.95 15.25 22.0 14.75 22.1 15.65 21.8 16.25 21.55 16.85 20.55 17.85 M23.75 13.1 L21.65 12.55 Q20.35 13.4 19.1 14.7 17.8 16.7 18.0 18.7 L18.45 19.35 Q19.65 20.4 20.7 20.0 L23.2 18.5 24.3 16.35 24.35 14.4 23.75 13.1" fill="none" stroke="#000000" stroke-linecap="round" stroke-linejoin="round" stroke-opacity="0.3019608" stroke-width="0.30000000000000004"/>
    </g>
    <g id="sprite0" transform="matrix(1.0, 0.0, 0.0, 1.0, 0.15, 0.15)">
      <use height="158.05" transform="matrix(1.0, 0.0, 0.0, 1.0, -0.75, -0.75)" width="74.3" xlink:href="#shape1"/>
    </g>
    <g id="shape1" transform="matrix(1.0, 0.0, 0.0, 1.0, 0.75, 0.75)">
      <path d="M67.1 47.3 Q60.05 84.7 45.15 118.0 L67.1 47.3" fill="#000000" fill-opacity="0.03529412" fill-rule="evenodd" stroke="none"/>
      <path d="M72.8 0.4 Q71.4 24.6 67.1 47.3 60.05 84.7 45.15 118.0 L45.0 118.3 Q39.4 130.85 24.25 156.55 M43.75 69.05 Q26.65 113.65 20.4 117.6 17.55 109.85 28.1 81.45 38.25 56.05 47.2 54.0 48.65 56.75 43.75 69.05 M48.0 24.8 Q34.25 59.6 13.6 90.6 7.15 100.3 0.0 109.6 M66.8 0.0 Q53.65 80.05 13.6 143.35 L12.4 145.2 M67.1 47.3 L45.15 118.0" fill="none" stroke="#000000" stroke-linecap="round" stroke-linejoin="round" stroke-opacity="0.050980393" stroke-width="0.30000000000000004"/>
    </g>
    <g id="sprite2" transform="matrix(1.0, 0.0, 0.0, 1.0, 0.0, 0.0)">
      <use height="26.7" transform="matrix(0.0042, -1.3515, 1.3935, 0.02, 22.09, 56.0263)" width="26.7" xlink:href="#sprite3"/>
      <use height="26.7" transform="matrix(0.0095, -3.0486, 0.372, 0.0053, 36.507, 81.3775)" width="26.7" xlink:href="#sprite3"/>
      <use height="26.7" transform="matrix(3.0486, 0.0095, -0.0053, 0.372, 0.1225, 35.107)" width="26.7" xlink:href="#sprite3"/>
    </g>
    <g id="sprite3" transform="matrix(1.0, 0.0, 0.0, 1.0, 13.35, 13.35)">
      <use height="26.7" transform="matrix(1.0, 0.0, 0.0, 1.0, -13.35, -13.35)" width="26.7" xlink:href="#shape2"/>
    </g>
    <g id="shape2" transform="matrix(1.0, 0.0, 0.0, 1.0, 13.35, 13.35)">
      <path d="M9.3 -9.85 Q13.35 -5.8 13.35 0.0 13.35 5.8 9.3 9.3 5.8 13.35 0.0 13.35 -5.8 13.35 -9.85 9.3 -13.35 5.8 -13.35 0.0 -13.35 -5.8 -9.85 -9.85 -5.8 -13.35 0.0 -13.35 5.8 -13.35 9.3 -9.85" fill="url(#gradient0)" fill-rule="evenodd" stroke="none"/>
    </g>
    <radialGradient cx="0" cy="0" gradientTransform="matrix(0.0213, 0.0, 0.0, 0.0213, 0.0, 0.0)" gradientUnits="userSpaceOnUse" id="gradient0" r="819.2" spreadMethod="pad">
      <stop offset="0.19607843137254902" stop-color="#fee3bc" stop-opacity="0.28627452"/>
      <stop offset="0.5019607843137255" stop-color="#fee3bc" stop-opacity="0.043137256"/>
      <stop offset="0.7607843137254902" stop-color="#ffe3bd" stop-opacity="0.0"/>
    </radialGradient>
  </defs>
</svg>
