<?xml version="1.0" encoding="UTF-8" standalone="no"?>
<svg xmlns:xlink="http://www.w3.org/1999/xlink" height="52.0px" width="52.0px" xmlns="http://www.w3.org/2000/svg">
  <g transform="matrix(1.0, 0.0, 0.0, 1.0, 0.0, 0.0)">
    <use height="56.0" transform="matrix(1.0, 0.0, 0.0, 1.0, -2.0, -2.0)" width="56.0" xlink:href="#shape0"/>
    <use height="0.0" transform="matrix(0.0871, 0.0287, -0.0375, 0.0908, 18.4, 33.8)" width="0.0" xlink:href="#sprite0"/>
    <use height="0.0" transform="matrix(0.1496, 0.0493, -0.1003, 0.1233, 26.65, 17.2)" width="0.0" xlink:href="#sprite0"/>
    <use height="81.5" transform="matrix(0.1879, -0.0066, 0.0066, 0.1879, 23.15, 19.6)" width="81.5" xlink:href="#sprite1"/>
    <use height="81.5" transform="matrix(0.1879, -0.0066, 0.0066, 0.1879, 6.55, 22.4)" width="81.5" xlink:href="#sprite1"/>
    <use height="81.5" transform="matrix(0.11, -0.0039, 0.0039, 0.11, 16.4, 8.05)" width="81.5" xlink:href="#sprite1"/>
    <use height="81.5" transform="matrix(0.11, -0.0039, 0.0039, 0.11, 25.65, 31.35)" width="81.5" xlink:href="#sprite1"/>
    <use height="81.5" transform="matrix(0.0829, -0.0029, 0.0029, 0.0829, 17.25, 39.8)" width="81.5" xlink:href="#sprite1"/>
    <use height="81.5" transform="matrix(0.11, -0.0039, 0.0039, 0.11, 28.2, 11.1)" width="81.5" xlink:href="#sprite1"/>
  </g>
  <defs>
    <g id="shape0" transform="matrix(1.0, 0.0, 0.0, 1.0, 2.0, 2.0)">
      <path d="M52.0 0.0 L52.0 52.0 0.0 52.0 0.0 0.0 52.0 0.0" fill="#795fa9" fill-opacity="0.0" fill-rule="evenodd" stroke="none"/>
      <path d="M23.95 8.7 L23.75 8.75 Q21.15 9.4 17.55 11.0 L16.55 11.55 14.0 13.3 13.2 13.9 11.6 15.35 Q9.6 17.35 8.05 19.85 L7.95 19.95 7.45 20.85 7.4 21.6 Q7.3 22.8 7.5 23.95 7.7 25.3 8.2 26.65 L8.9 28.1 8.5 28.4 7.7 29.55 7.45 30.05 7.35 30.25 7.0 31.2 Q6.85 31.75 6.85 32.25 6.85 32.8 7.2 33.1 L10.15 34.25 Q9.65 36.1 10.05 38.15 L7.2 38.85 7.1 38.85 6.9 38.95 6.85 38.95 6.8 38.95 Q6.5 39.2 6.7 40.15 L7.05 41.25 7.45 42.25 7.8 42.85 8.65 44.05 Q9.3 44.7 9.55 44.5 L9.6 44.5 9.65 44.5 9.7 44.35 9.7 44.4 12.4 42.7 Q13.6 44.05 15.3 45.05 L15.95 45.4 15.55 46.7 15.5 46.85 Q15.4 47.4 16.3 47.9 L16.9 48.2 18.6 48.65 18.8 48.7 19.3 48.7 20.95 48.55 21.2 48.45 Q22.0 48.2 22.05 47.7 L22.05 47.65 22.05 47.45 22.05 46.45 23.0 46.3 Q26.95 45.5 28.9 42.2 L29.5 41.05 35.2 41.2 38.3 40.25 39.2 39.65 41.6 37.4 Q42.85 35.85 43.7 33.75 L43.8 33.5 Q44.8 31.1 45.3 27.95 L45.3 27.85 Q45.85 23.5 44.65 19.7 L43.35 16.7 Q41.5 13.4 38.15 10.6 L37.25 9.8 34.65 8.5 35.8 8.0 Q36.55 7.55 36.75 5.4 36.7 4.8 36.2 4.4 L35.95 4.25 Q34.6 3.6 32.95 3.55 31.75 3.85 30.45 4.9 29.45 5.65 28.45 6.7 L27.5 7.75 Q25.85 8.0 24.2 8.6 L23.95 8.7 M39.95 13.1 L39.9 13.1 39.8 12.75 39.95 13.1" fill="none" stroke="#000000" stroke-linecap="round" stroke-linejoin="round" stroke-opacity="0.3019608" stroke-width="1.0"/>
      <path d="M27.55 7.75 L28.5 6.7 Q28.15 8.2 30.35 7.55 L30.35 7.6 Q28.55 8.9 27.75 9.75 26.7 9.75 26.3 9.3 L27.4 7.95 27.55 7.75 M30.45 4.9 Q31.8 3.8 33.0 3.5 34.7 3.6 36.0 4.2 L35.7 4.6 33.8 5.5 33.0 5.9 Q33.5 3.65 30.45 4.9" fill="#cc0000" fill-rule="evenodd" stroke="none"/>
      <path d="M28.5 6.7 L30.45 4.9 Q33.5 3.65 33.0 5.9 L30.45 7.5 30.35 7.6 30.35 7.55 Q28.15 8.2 28.5 6.7" fill="#ba0101" fill-rule="evenodd" stroke="none"/>
      <path d="M36.85 5.4 Q36.55 7.5 35.85 7.95 L34.7 8.4 34.15 8.25 33.5 8.05 32.2 7.75 Q30.35 7.9 28.4 9.4 L27.75 9.75 Q28.55 8.9 30.35 7.6 L30.45 7.5 33.0 5.9 33.8 5.5 36.85 5.4" fill="#660000" fill-rule="evenodd" stroke="none"/>
      <path d="M36.0 4.2 L36.25 4.35 Q36.75 4.75 36.85 5.4 L33.8 5.5 35.7 4.6 36.0 4.2" fill="#ff0000" fill-rule="evenodd" stroke="none"/>
      <path d="M34.1 8.25 L34.15 8.25 34.1 8.35 34.1 8.25" fill="#e6e4b3" fill-rule="evenodd" stroke="none"/>
      <path d="M39.9 13.1 L40.0 13.05 40.1 13.25 40.0 13.05 39.8 12.75 39.8 12.7 Q39.2 11.45 38.2 10.6 41.55 13.35 43.35 16.65 L44.7 19.6 44.7 19.95 43.2 17.25 Q41.6 14.65 40.1 13.25 L40.75 15.9 40.75 16.25 40.75 16.45 40.75 16.6 40.55 17.95 39.85 19.9 39.35 20.75 Q38.55 22.35 37.2 23.6 L34.75 25.45 32.7 26.4 32.05 26.65 31.05 27.0 30.25 27.25 Q26.2 28.4 22.3 27.4 19.5 26.6 17.8 24.95 16.5 23.85 15.85 22.35 L15.6 21.85 15.5 21.45 Q14.95 19.75 15.25 17.95 L15.35 17.35 Q15.65 16.05 16.45 14.65 L16.75 14.2 17.7 12.85 19.3 11.25 17.7 12.85 Q15.9 13.25 16.55 11.5 L17.65 10.95 Q21.15 9.35 23.8 8.7 L24.0 8.65 24.25 8.6 Q25.9 7.95 27.55 7.75 L27.4 7.95 Q26.6 8.25 25.9 8.65 23.35 9.0 20.7 10.25 L19.3 11.25 Q18.05 12.6 17.65 13.45 17.4 14.25 20.15 15.2 L18.25 14.8 17.7 14.65 17.15 14.45 Q15.9 15.6 15.4 18.1 L15.25 19.05 Q15.4 20.45 16.0 21.8 L16.05 21.95 16.45 22.55 17.95 24.4 Q19.7 26.0 22.45 26.75 26.35 27.8 30.4 26.7 L31.95 26.2 32.2 26.1 Q36.05 24.6 38.3 21.95 38.55 19.95 33.85 18.8 L34.75 18.95 Q38.55 20.05 38.7 21.45 L39.2 20.7 39.7 19.85 Q41.15 16.8 39.9 13.1 M7.1 31.1 L7.35 30.25 7.5 30.0 7.7 29.55 Q8.8 29.65 9.75 30.7 L10.45 31.55 9.7 30.85 Q8.15 29.55 7.4 30.5 L7.1 31.1 M7.5 23.9 L7.45 21.6 7.5 20.8 7.95 19.95 8.05 19.85 Q9.6 17.3 11.65 15.3 13.25 16.9 13.7 20.55 12.75 16.6 11.55 16.1 9.8 17.4 8.05 20.45 8.6 21.4 11.5 22.5 L8.7 21.85 8.5 21.85 Q8.0 21.8 7.8 22.25 7.55 22.8 7.5 23.9 M21.0 14.1 L20.55 14.1 19.7 13.5 19.5 13.1 Q19.25 12.4 19.8 11.65 20.3 10.85 21.25 10.4 L23.05 10.35 23.35 10.4 23.15 10.6 23.05 10.7 22.85 10.6 21.35 10.75 Q20.45 11.05 20.0 11.75 19.5 12.45 19.7 13.05 L19.95 13.4 20.65 13.9 20.95 13.95 21.0 14.1 M16.0 18.75 L16.0 18.7 16.0 18.5 16.05 18.25 Q17.4 15.3 20.7 16.2 L22.2 16.8 Q24.5 17.75 27.1 18.1 L28.2 18.25 29.85 18.95 28.2 18.25 32.55 18.6 33.2 18.7 29.85 18.95 30.5 19.55 30.6 19.9 30.6 20.1 Q30.9 21.55 30.3 22.8 29.5 24.0 28.5 24.45 L27.8 24.75 28.55 24.25 Q28.2 24.1 28.25 23.6 L29.2 23.7 30.25 22.1 Q30.65 20.3 29.85 19.4 L29.8 19.4 Q28.75 18.4 27.1 18.3 L26.5 18.25 22.55 17.1 22.35 17.0 19.1 16.1 Q17.55 16.35 16.65 17.6 L16.7 17.8 Q16.9 18.35 17.5 17.9 L17.35 18.3 17.1 18.85 Q16.75 18.3 16.2 19.2 16.15 20.0 16.65 20.55 L16.75 20.65 Q17.65 21.6 18.75 21.6 L20.95 21.4 Q22.7 21.15 23.55 22.1 24.15 23.25 25.35 24.15 L27.4 24.05 Q27.2 24.55 26.6 24.75 L25.9 24.5 Q24.5 23.95 23.55 22.45 22.65 21.6 21.35 21.7 L20.3 21.9 20.15 21.9 Q18.75 22.1 17.25 21.4 L16.6 20.9 16.4 20.75 16.4 20.65 Q16.05 20.2 16.0 19.45 L16.0 18.75 M24.2 14.25 L25.65 14.45 Q26.3 14.5 26.8 13.9 L29.6 11.15 30.35 10.55 29.65 11.15 Q27.4 13.1 26.55 14.9 26.3 16.05 26.4 16.75 L25.9 15.15 Q25.4 14.55 24.2 14.25 M30.45 16.1 Q30.2 15.35 30.5 14.6 30.9 13.7 31.95 13.3 L34.0 13.2 Q35.05 13.5 35.6 14.25 L35.7 14.55 35.75 14.75 Q35.95 15.3 35.65 15.95 35.25 16.8 34.2 17.2 L32.1 17.3 30.85 16.7 30.55 16.25 30.45 16.1 M35.3 14.65 L35.15 14.45 Q34.75 13.8 33.85 13.55 L32.1 13.65 Q31.3 13.95 30.9 14.7 30.6 15.4 30.95 16.1 L31.3 16.45 32.25 17.0 34.0 16.9 Q34.9 16.6 35.25 15.9 L35.3 14.65 M20.7 10.25 Q22.1 9.35 23.8 8.7 22.1 9.35 20.7 10.25 M32.15 29.4 Q32.75 28.55 33.25 28.3 33.45 29.05 35.35 29.85 L34.0 29.55 32.15 29.4 M38.75 23.55 L39.85 21.45 Q40.2 23.15 41.15 24.55 L41.25 24.65 Q42.4 26.25 44.55 27.4 L44.25 28.25 43.55 31.55 42.55 34.0 42.85 32.5 Q43.1 31.7 40.45 31.0 L42.4 31.1 Q42.2 28.15 40.9 25.9 40.05 24.5 38.75 23.55 M44.1 26.15 Q44.85 25.15 44.75 20.0 45.15 22.95 44.85 25.6 44.55 26.05 44.1 26.15" fill="#d7f16b" fill-rule="evenodd" stroke="none"/>
      <path d="M33.85 18.8 Q38.55 19.95 38.3 21.95 36.05 24.6 32.2 26.1 L31.95 26.2 30.4 26.7 Q26.35 27.8 22.45 26.75 19.7 26.0 17.95 24.4 L16.45 22.55 16.4 21.6 16.5 21.8 Q17.0 22.45 17.85 22.9 L20.75 22.95 20.95 22.9 21.05 22.9 22.1 22.75 Q22.75 22.8 23.35 23.4 L23.55 23.75 23.65 23.8 Q24.45 25.15 25.8 25.8 29.75 26.85 31.3 22.9 L31.35 21.3 Q31.25 20.3 30.5 19.55 L29.85 18.95 33.2 18.7 33.4 18.7 33.85 18.8 M20.15 15.2 Q17.4 14.25 17.65 13.45 18.05 12.6 19.3 11.25 L20.7 10.25 Q23.35 9.0 25.9 8.65 24.5 9.35 23.35 10.4 L23.05 10.35 21.25 10.4 Q20.3 10.85 19.8 11.65 19.25 12.4 19.5 13.1 L19.7 13.5 20.55 14.1 21.0 14.1 21.05 14.5 21.35 15.35 20.15 15.2 M17.7 12.85 L16.75 14.2 16.45 14.65 Q15.65 16.05 15.35 17.35 L14.85 16.95 Q13.65 14.75 14.0 13.25 L16.55 11.5 Q15.9 13.25 17.7 12.85 M15.25 17.95 Q14.95 19.75 15.5 21.45 15.25 23.4 16.5 26.0 17.55 28.0 15.9 29.1 14.35 29.7 13.0 30.85 11.5 32.4 11.1 33.7 L11.0 34.05 Q9.9 37.9 12.2 41.1 18.3 48.15 26.0 44.15 29.6 41.3 29.35 37.3 28.85 34.4 26.55 31.7 L26.5 31.6 26.25 31.3 Q25.2 30.35 23.85 29.75 25.75 29.95 26.85 30.85 L27.5 31.5 28.15 32.35 Q29.05 33.5 29.55 34.95 L29.65 35.15 Q30.5 37.8 29.8 40.3 L29.55 41.05 28.95 42.1 Q27.0 45.4 23.0 46.3 19.1 47.1 15.35 45.05 11.65 42.95 10.35 39.15 9.55 36.6 10.2 34.2 L10.35 33.75 10.95 32.4 11.1 32.1 11.4 31.6 12.0 30.95 11.4 31.6 11.1 32.1 10.95 32.4 10.45 31.55 9.75 30.7 Q8.8 29.65 7.7 29.55 L8.6 28.35 12.0 30.95 Q12.2 30.55 12.55 30.3 13.8 29.0 15.6 28.4 16.65 28.05 16.35 26.95 L15.4 24.75 15.1 23.6 14.85 21.6 Q14.75 19.75 15.25 17.95 M40.75 16.6 L40.75 16.45 40.75 16.25 40.75 15.9 40.1 13.25 Q41.6 14.65 43.2 17.25 L44.7 19.95 44.75 20.0 44.7 20.0 44.0 20.55 43.95 20.55 43.75 20.65 Q43.1 20.8 42.4 20.1 41.6 19.2 40.75 16.6 M34.7 8.4 Q36.15 9.0 37.3 9.8 41.35 13.55 35.75 14.75 L35.7 14.55 35.6 14.25 Q35.05 13.5 34.0 13.2 L31.95 13.3 Q30.9 13.7 30.5 14.6 30.2 15.35 30.45 16.1 L28.0 16.2 Q30.05 12.1 34.1 8.35 L34.15 8.25 34.7 8.4 M43.75 33.7 Q42.9 35.8 41.65 37.35 L39.25 39.6 40.2 38.35 41.0 37.15 42.55 34.0 43.55 31.55 Q43.0 34.6 43.75 33.7 M23.05 10.7 L23.15 10.6 24.1 10.35 25.95 10.05 Q28.75 9.6 30.35 10.55 L29.6 11.15 26.8 13.9 Q26.3 14.5 25.65 14.45 L24.2 14.25 23.2 13.95 22.5 13.65 22.1 13.4 Q21.5 13.0 21.5 12.5 L22.7 11.05 23.05 10.7 M17.5 17.9 Q16.9 18.35 16.7 17.8 L16.65 17.6 Q17.55 16.35 19.1 16.1 L22.35 17.0 22.55 17.1 26.5 18.25 27.1 18.3 Q28.75 18.4 29.8 19.4 L29.85 19.4 Q30.65 20.3 30.25 22.1 L29.2 23.7 28.25 23.6 28.3 23.45 28.7 23.1 29.05 22.7 29.1 22.7 29.1 22.65 29.35 22.25 29.55 21.6 Q29.95 20.4 29.05 19.7 27.85 18.9 26.95 18.8 L25.0 18.6 22.7 17.95 21.05 17.1 Q18.6 16.35 17.65 17.6 L17.5 17.9 M33.25 28.3 L34.3 27.6 35.15 27.1 36.85 25.6 38.75 23.55 Q40.05 24.5 40.9 25.9 42.2 28.15 42.4 31.1 L40.45 31.0 39.55 30.8 38.05 30.5 35.55 29.85 35.45 29.85 35.35 29.85 Q33.45 29.05 33.25 28.3 M25.0 22.85 L25.25 23.1 Q26.5 23.9 27.5 23.75 L27.4 24.05 25.35 24.15 Q24.15 23.25 23.55 22.1 22.7 21.15 20.95 21.4 L18.75 21.6 Q17.65 21.6 16.75 20.65 L16.65 20.55 Q16.15 20.0 16.2 19.2 16.75 18.3 17.1 18.85 17.0 19.55 17.25 20.05 L17.5 20.35 17.55 20.4 17.65 20.5 Q18.05 21.1 19.25 21.15 L19.7 21.15 19.85 21.15 20.7 21.0 22.55 20.75 22.75 20.8 Q23.55 21.05 24.3 21.85 L25.0 22.85 M13.9 23.25 L11.5 22.5 Q8.6 21.4 8.05 20.45 9.8 17.4 11.55 16.1 12.75 16.6 13.7 20.55 L13.9 23.25" fill="#9ae17b" fill-rule="evenodd" stroke="none"/>
      <path d="M39.9 13.1 Q41.15 16.8 39.7 19.85 L39.2 20.7 38.7 21.45 Q38.55 20.05 34.75 18.95 L33.85 18.8 33.4 18.7 33.2 18.7 32.55 18.6 28.2 18.25 27.1 18.1 27.2 17.9 28.0 16.2 30.45 16.1 30.55 16.25 30.85 16.7 32.1 17.3 34.2 17.2 Q35.25 16.8 35.65 15.95 35.95 15.3 35.75 14.75 41.35 13.55 37.3 9.8 L38.15 10.55 38.2 10.6 Q39.2 11.45 39.8 12.7 L39.8 12.75 39.9 13.1 M15.25 19.05 L15.4 18.1 Q15.9 15.6 17.15 14.45 L17.7 14.65 18.25 14.8 20.15 15.2 21.35 15.35 21.7 16.3 22.2 16.8 20.7 16.2 Q17.4 15.3 16.05 18.25 L16.0 18.5 16.0 18.7 16.0 18.75 16.0 19.45 Q16.05 20.2 16.4 20.65 L16.4 20.75 16.55 21.0 Q17.1 22.05 18.3 22.45 L20.7 22.6 17.85 22.5 16.45 21.3 Q16.05 20.85 16.0 20.35 15.75 19.6 16.0 18.75 L15.25 19.05 M15.35 17.35 L15.25 17.95 Q14.75 19.75 14.85 21.6 L15.1 23.6 13.9 23.25 13.7 20.55 Q13.25 16.9 11.65 15.3 12.35 14.55 13.25 13.9 13.5 15.75 14.85 16.95 L15.35 17.35 M31.05 27.0 L32.05 26.65 32.7 26.4 34.75 25.45 Q33.05 27.65 34.3 27.6 L33.25 28.3 Q32.75 28.55 32.15 29.4 32.9 32.95 29.55 34.95 29.05 33.5 28.15 32.35 L27.5 31.5 Q30.5 31.8 31.5 28.95 31.75 27.3 31.05 27.0 M37.2 23.6 Q38.55 22.35 39.35 20.75 L39.85 19.9 40.55 17.95 40.75 16.6 40.75 17.1 40.6 18.9 40.75 17.1 40.75 16.6 Q41.6 19.2 42.4 20.1 43.1 20.8 43.75 20.65 L42.25 20.75 Q41.25 20.45 40.6 18.9 L39.85 21.45 38.75 23.55 36.85 25.6 Q37.75 23.8 37.2 23.6 M44.75 20.0 L44.7 19.95 44.7 19.6 Q45.9 23.4 45.35 27.8 L45.35 27.9 Q44.8 31.1 43.8 33.5 L43.75 33.7 Q43.0 34.6 43.55 31.55 L44.25 28.25 44.55 27.4 Q42.4 26.25 41.25 24.65 L41.15 24.55 41.25 24.6 Q43.15 26.4 44.1 26.15 44.55 26.05 44.85 25.6 45.15 22.95 44.75 20.0 M10.2 34.2 L7.25 33.1 Q6.95 32.75 6.9 32.2 L10.35 33.75 10.2 34.2 M8.6 28.35 L8.95 28.05 9.25 27.95 9.85 28.05 10.05 28.15 12.55 30.3 Q12.2 30.55 12.0 30.95 L8.6 28.35 M23.15 10.6 L23.35 10.4 Q24.5 9.35 25.9 8.65 26.6 8.25 27.4 7.95 L26.3 9.3 Q26.7 9.75 27.75 9.75 L28.4 9.4 Q30.35 7.9 32.2 7.75 L33.5 8.05 34.15 8.25 34.1 8.25 Q32.7 8.9 31.3 9.85 L30.95 10.05 30.35 10.55 Q28.75 9.6 25.95 10.05 L24.1 10.35 23.15 10.6 M28.25 23.6 Q28.2 24.1 28.55 24.25 L27.8 24.75 26.6 24.75 Q27.2 24.55 27.4 24.05 L27.5 23.75 28.3 23.45 28.25 23.6 M30.6 19.9 L30.5 19.55 Q31.25 20.3 31.35 21.3 L31.25 22.5 Q29.65 26.4 25.7 25.4 24.35 24.7 23.55 23.4 24.45 24.6 26.2 25.25 28.2 25.6 29.35 24.6 30.9 23.3 31.05 21.9 31.2 21.05 30.8 20.3 L30.6 19.9 M22.05 22.35 L21.0 22.45 20.95 22.5 20.85 22.2 20.15 21.9 20.3 21.9 21.35 21.7 Q21.2 21.85 21.35 22.0 L22.05 22.35 M23.85 29.75 Q25.2 30.35 26.25 31.3 L26.5 31.6 26.55 31.7 Q27.9 33.35 27.0 35.5 24.7 39.4 20.05 40.3 13.4 40.35 11.1 35.55 10.85 34.9 11.0 34.05 L11.1 33.7 Q11.5 32.4 13.0 30.85 14.35 29.7 15.9 29.1 L19.65 28.6 Q22.05 28.85 23.85 29.75" fill="#75d74a" fill-rule="evenodd" stroke="none"/>
      <path d="M16.45 22.55 L16.05 21.95 16.0 21.8 Q15.4 20.45 15.25 19.05 L16.0 18.75 16.0 18.7 16.0 18.5 16.0 18.7 16.0 18.75 Q15.75 19.6 16.0 20.35 16.05 20.85 16.45 21.3 L16.4 21.6 16.45 22.55 M15.5 21.45 L15.6 21.85 15.85 22.35 Q16.5 23.85 17.8 24.95 19.5 26.6 22.3 27.4 26.2 28.4 30.25 27.25 L31.05 27.0 Q31.75 27.3 31.5 28.95 30.5 31.8 27.5 31.5 L26.85 30.85 Q25.75 29.95 23.85 29.75 22.05 28.85 19.65 28.6 L15.9 29.1 Q17.55 28.0 16.5 26.0 15.25 23.4 15.5 21.45 M34.75 25.45 L37.2 23.6 Q37.75 23.8 36.85 25.6 L35.15 27.1 34.3 27.6 Q33.05 27.65 34.75 25.45 M43.75 20.65 L43.95 20.55 44.0 20.55 44.7 20.0 44.75 20.0 Q44.85 25.15 44.1 26.15 43.15 26.4 41.25 24.6 L41.15 24.55 Q40.2 23.15 39.85 21.45 L40.6 18.9 Q41.25 20.45 42.25 20.75 L43.75 20.65 M39.25 39.6 L38.3 40.15 35.2 41.15 Q32.4 41.7 29.55 41.05 L29.8 40.3 Q35.3 41.45 40.2 38.35 L39.25 39.6 M6.9 32.2 L7.1 31.1 7.4 30.5 Q8.15 29.55 9.7 30.85 L10.45 31.55 10.95 32.4 10.35 33.75 6.9 32.2 M8.95 28.05 L8.3 26.6 Q7.75 25.25 7.5 23.9 7.55 22.8 7.8 22.25 7.85 24.6 8.6 26.4 L9.25 27.95 8.95 28.05 M13.25 13.9 L14.0 13.25 Q13.65 14.75 14.85 16.95 13.5 15.75 13.25 13.9 M21.0 14.1 L20.95 13.95 21.05 13.15 21.5 12.5 Q21.5 13.0 22.1 13.4 20.8 13.45 21.7 16.3 L26.65 17.6 26.4 16.75 Q26.3 16.05 26.55 14.9 27.4 13.1 29.65 11.15 L30.35 10.55 30.95 10.05 31.3 9.85 Q32.7 8.9 34.1 8.25 L34.1 8.35 Q29.65 12.05 27.4 16.2 L26.65 17.6 27.4 16.2 Q29.65 12.05 34.1 8.35 30.05 12.1 28.0 16.2 L27.2 17.9 27.1 18.1 Q24.5 17.75 22.2 16.8 L21.7 16.3 21.35 15.35 21.05 14.5 21.0 14.1 M19.95 13.4 L19.7 13.05 Q19.5 12.45 20.0 11.75 20.45 11.05 21.35 10.75 L22.85 10.6 23.05 10.7 22.7 11.05 21.5 11.25 Q20.65 11.6 20.25 12.25 19.85 12.9 19.95 13.4 M17.1 18.85 L17.35 18.3 17.5 17.9 17.65 17.6 Q18.6 16.35 21.05 17.1 L22.7 17.95 25.0 18.6 26.95 18.8 Q27.85 18.9 29.05 19.7 29.95 20.4 29.55 21.6 L29.35 22.25 29.35 22.2 29.5 21.4 Q29.5 20.05 27.35 19.45 L27.0 19.4 24.95 19.15 23.5 18.85 23.25 18.75 22.4 18.4 22.1 18.25 21.0 17.75 20.1 17.5 19.85 17.5 19.35 17.4 Q18.4 17.4 17.85 18.1 17.55 18.55 17.4 19.2 L17.4 19.95 17.5 20.35 17.25 20.05 Q17.0 19.55 17.1 18.85 M27.8 24.75 L28.5 24.45 Q29.5 24.0 30.3 22.8 30.9 21.55 30.6 20.1 L30.6 19.9 30.8 20.3 Q31.2 21.05 31.05 21.9 30.9 23.3 29.35 24.6 28.2 25.6 26.2 25.25 24.45 24.6 23.55 23.4 L23.5 23.3 23.2 23.0 23.1 22.85 Q22.65 22.4 22.05 22.35 L21.35 22.0 Q21.2 21.85 21.35 21.7 22.65 21.6 23.55 22.45 24.5 23.95 25.9 24.5 L26.6 24.75 27.8 24.75 M31.3 16.45 L30.95 16.1 Q30.6 15.4 30.9 14.7 31.3 13.95 32.1 13.65 L33.85 13.55 Q34.75 13.8 35.15 14.45 L35.3 14.65 35.15 14.55 34.25 14.1 32.5 14.2 Q31.7 14.55 31.35 15.25 31.05 15.9 31.3 16.45 M20.95 22.5 L20.85 22.5 20.7 22.6 18.3 22.45 Q17.1 22.05 16.55 21.0 L16.4 20.75 16.6 20.9 17.25 21.4 Q18.75 22.1 20.15 21.9 L20.85 22.2 20.95 22.5 M41.0 37.15 Q34.4 40.65 32.9 35.75 32.25 33.25 34.0 29.55 L35.35 29.85 35.45 29.85 35.55 29.85 38.05 30.5 39.55 30.8 40.45 31.0 Q43.1 31.7 42.85 32.5 L42.55 34.0 41.0 37.15 M11.0 34.05 Q10.85 34.9 11.1 35.55 13.4 40.35 20.05 40.3 24.7 39.4 27.0 35.5 27.9 33.35 26.55 31.7 28.85 34.4 29.35 37.3 29.6 41.3 26.0 44.15 18.3 48.15 12.2 41.1 9.9 37.9 11.0 34.05 M13.9 23.25 L15.1 23.6 15.4 24.75 Q14.7 29.3 13.0 28.5 12.0 28.2 11.3 27.75 10.05 26.95 9.35 25.9 8.35 24.25 8.5 21.85 L8.7 21.85 11.5 22.5 13.9 23.25" fill="#339328" fill-rule="evenodd" stroke="none"/>
      <path d="M22.1 13.4 L22.5 13.65 23.2 13.95 24.2 14.25 Q25.4 14.55 25.9 15.15 L26.4 16.75 26.65 17.6 21.7 16.3 Q20.8 13.45 22.1 13.4 M31.35 21.3 L31.3 22.9 Q29.75 26.85 25.8 25.8 24.45 25.15 23.65 23.8 L23.55 23.75 23.35 23.4 Q22.75 22.8 22.1 22.75 L21.05 22.9 20.95 22.9 20.75 22.95 17.85 22.9 Q17.0 22.45 16.5 21.8 L16.4 21.6 16.45 21.3 17.85 22.5 20.7 22.6 20.85 22.5 20.95 22.5 21.0 22.45 22.05 22.35 Q22.65 22.4 23.1 22.85 L23.2 23.0 23.5 23.3 23.55 23.4 Q24.35 24.7 25.7 25.4 29.65 26.4 31.25 22.5 L31.35 21.3 M32.15 29.4 L34.0 29.55 Q32.25 33.25 32.9 35.75 34.4 40.65 41.0 37.15 L40.2 38.35 Q35.3 41.45 29.8 40.3 30.5 37.8 29.65 35.15 L29.55 34.95 Q32.9 32.95 32.15 29.4 M8.5 21.85 Q8.35 24.25 9.35 25.9 10.05 26.95 11.3 27.75 12.0 28.2 13.0 28.5 14.7 29.3 15.4 24.75 L16.35 26.95 Q16.65 28.05 15.6 28.4 13.8 29.0 12.55 30.3 L10.05 28.15 9.85 28.05 9.25 27.95 8.6 26.4 Q7.85 24.6 7.8 22.25 8.0 21.8 8.5 21.85" fill="#246c41" fill-rule="evenodd" stroke="none"/>
      <path d="M20.95 13.95 L20.65 13.9 19.95 13.4 Q19.85 12.9 20.25 12.25 20.65 11.6 21.5 11.25 L22.7 11.05 21.5 12.5 21.05 13.15 20.95 13.95 M31.3 16.45 Q31.05 15.9 31.35 15.25 31.7 14.55 32.5 14.2 L34.25 14.1 35.15 14.55 35.3 14.65 35.25 15.9 Q34.9 16.6 34.0 16.9 L32.25 17.0 31.3 16.45" fill="#154026" fill-rule="evenodd" stroke="none"/>
      <path d="M29.05 22.7 L28.7 23.1 Q27.05 23.1 26.65 21.9 27.8 23.25 29.05 22.7 M22.9 19.2 L23.05 19.3 22.95 19.7 Q21.7 20.45 20.8 20.05 22.45 19.85 22.9 19.2 M26.45 20.35 L25.9 21.25 Q24.65 21.6 23.9 21.0 25.4 21.6 26.45 20.35 M19.8 19.9 Q18.85 20.3 18.1 19.55 19.2 20.2 19.8 19.0 L19.8 19.9" fill="#ffff98" fill-rule="evenodd" stroke="none"/>
      <path d="M29.35 22.25 L29.1 22.65 29.1 22.7 29.05 22.7 Q27.8 23.25 26.65 21.9 L26.55 20.9 27.0 20.05 27.5 20.1 Q29.05 20.55 29.5 21.4 L29.35 22.2 29.35 22.25 M17.8 19.2 Q17.85 18.95 18.05 18.8 18.55 18.05 19.5 18.1 L19.85 18.1 19.8 19.0 Q19.2 20.2 18.1 19.55 L17.8 19.2 M20.1 18.1 L20.25 18.2 21.15 18.35 22.25 18.85 22.55 19.0 22.9 19.2 Q22.45 19.85 20.8 20.05 L20.05 19.2 20.1 18.1 M26.6 20.0 L26.45 20.35 Q25.4 21.6 23.9 21.0 23.35 20.65 23.1 19.9 L23.25 19.4 23.65 19.55 25.1 19.75 26.6 20.0" fill="#ffde4f" fill-rule="evenodd" stroke="none"/>
      <path d="M28.7 23.1 L28.3 23.45 27.5 23.75 Q26.5 23.9 25.25 23.1 L26.55 20.9 26.65 21.9 Q27.05 23.1 28.7 23.1 M17.5 20.35 L17.55 19.9 17.8 19.2 18.1 19.55 Q18.85 20.3 19.8 19.9 L19.7 21.15 19.25 21.15 Q18.05 21.1 17.65 20.5 L17.55 20.4 17.5 20.35 M20.05 19.2 L20.8 20.05 Q21.7 20.45 22.95 19.7 L22.55 20.75 20.7 21.0 19.85 21.15 20.05 19.2 M25.9 21.25 L25.0 22.85 24.3 21.85 Q23.55 21.05 22.75 20.8 L23.1 19.9 Q23.35 20.65 23.9 21.0 24.65 21.6 25.9 21.25" fill="#f4a33c" fill-rule="evenodd" stroke="none"/>
      <path d="M19.85 18.1 L19.85 17.5 20.1 17.5 20.1 18.1 20.05 19.2 19.85 21.15 19.7 21.15 19.8 19.9 19.8 19.0 19.85 18.1 M23.25 18.75 L23.5 18.85 23.25 19.4 23.1 19.9 22.75 20.8 22.55 20.75 22.95 19.7 23.05 19.3 23.25 18.75 M27.0 19.4 L27.35 19.45 27.0 20.05 26.55 20.9 25.25 23.1 25.0 22.85 25.9 21.25 26.45 20.35 26.6 20.0 27.0 19.4" fill="#cc6b22" fill-rule="evenodd" stroke="none"/>
      <path d="M17.5 20.35 L17.4 19.95 17.4 19.2 Q17.55 18.55 17.85 18.1 18.4 17.4 19.35 17.4 L19.85 17.5 19.85 18.1 19.5 18.1 Q18.55 18.05 18.05 18.8 17.85 18.95 17.8 19.2 L17.55 19.9 17.5 20.35 M20.1 17.5 L21.0 17.75 22.1 18.25 22.4 18.4 23.25 18.75 23.05 19.3 22.9 19.2 22.55 19.0 22.25 18.85 21.15 18.35 20.25 18.2 20.1 18.1 20.1 17.5 M23.5 18.85 L24.95 19.15 27.0 19.4 26.6 20.0 25.1 19.75 23.65 19.55 23.25 19.4 23.5 18.85 M27.35 19.45 Q29.5 20.05 29.5 21.4 29.05 20.55 27.5 20.1 L27.0 20.05 27.35 19.45" fill="#a34100" fill-rule="evenodd" stroke="none"/>
      <path d="M19.3 11.25 L17.7 12.85 16.75 14.2 16.45 14.65 Q15.65 16.05 15.35 17.35 L15.25 17.95 Q14.75 19.75 14.85 21.6 L15.1 23.6 15.4 24.75 16.35 26.95 Q16.65 28.05 15.6 28.4 13.8 29.0 12.55 30.3 12.2 30.55 12.0 30.95 L11.4 31.6 11.1 32.1 10.95 32.4 10.35 33.75 10.2 34.2 7.25 33.1 Q6.95 32.75 6.9 32.2 L7.1 31.1 7.35 30.25 7.5 30.0 7.7 29.55 8.6 28.35 8.95 28.05 8.3 26.6 Q7.75 25.25 7.5 23.9 L7.45 21.6 7.5 20.8 7.95 19.95 8.05 19.85 Q9.6 17.3 11.65 15.3 12.35 14.55 13.25 13.9 L14.0 13.25 16.55 11.5 17.65 10.95 Q21.15 9.35 23.8 8.7 L24.0 8.65 24.25 8.6 Q25.9 7.95 27.55 7.75 L28.5 6.7 30.45 4.9 Q31.8 3.8 33.0 3.5 34.7 3.6 36.0 4.2 L36.25 4.35 Q36.75 4.75 36.85 5.4 36.55 7.5 35.85 7.95 L34.7 8.4 Q36.15 9.0 37.3 9.8 L38.15 10.55 38.2 10.6 Q41.55 13.35 43.35 16.65 L44.7 19.6 Q45.9 23.4 45.35 27.8 L45.35 27.9 Q44.8 31.1 43.8 33.5 L43.75 33.7 Q42.9 35.8 41.65 37.35 L39.25 39.6 38.3 40.15 35.2 41.15 Q32.4 41.7 29.55 41.05 L28.95 42.1 Q27.0 45.4 23.0 46.3 19.1 47.1 15.35 45.05 11.65 42.95 10.35 39.15 9.55 36.6 10.2 34.2 M40.75 16.6 L40.75 16.45 40.75 16.25 40.75 15.9 40.1 13.25 40.0 13.05 39.8 12.75 39.8 12.7 Q39.2 11.45 38.2 10.6 M40.6 18.9 L40.75 17.1 40.75 16.6 M21.0 14.1 L20.95 13.95 21.05 13.15 21.5 12.5 22.7 11.05 23.05 10.7 23.15 10.6 23.35 10.4 Q24.5 9.35 25.9 8.65 26.6 8.25 27.4 7.95 L27.55 7.75 M20.7 10.25 L19.3 11.25 M16.0 18.5 L16.0 18.7 16.0 18.75 Q15.75 19.6 16.0 20.35 16.05 20.85 16.45 21.3 L17.85 22.5 20.7 22.6 20.85 22.5 20.95 22.5 21.0 22.45 22.05 22.35 Q22.65 22.4 23.1 22.85 M16.0 18.5 L16.05 18.25 Q17.4 15.3 20.7 16.2 L22.2 16.8 Q24.5 17.75 27.1 18.1 L28.2 18.25 29.85 18.95 30.5 19.55 Q31.25 20.3 31.35 21.3 L31.25 22.5 Q29.65 26.4 25.7 25.4 24.35 24.7 23.55 23.4 L23.5 23.3 23.2 23.0 M21.7 16.3 L21.35 15.35 21.05 14.5 21.0 14.1 M29.35 22.25 L29.1 22.65 29.1 22.7 29.05 22.7 28.7 23.1 28.3 23.45 27.5 23.75 Q26.5 23.9 25.25 23.1 L25.0 22.85 24.3 21.85 Q23.55 21.05 22.75 20.8 L22.55 20.75 20.7 21.0 19.85 21.15 19.7 21.15 19.25 21.15 Q18.05 21.1 17.65 20.5 L17.55 20.4 17.5 20.35 17.4 19.95 17.4 19.2 Q17.55 18.55 17.85 18.1 18.4 17.4 19.35 17.4 L19.85 17.5 20.1 17.5 21.0 17.75 22.1 18.25 22.4 18.4 23.25 18.75 23.5 18.85 24.95 19.15 27.0 19.4 27.35 19.45 Q29.5 20.05 29.5 21.4 L29.35 22.2 29.35 22.25 M27.75 9.75 Q26.7 9.75 26.3 9.3 L27.4 7.95 M34.15 8.25 L33.5 8.05 32.2 7.75 Q30.35 7.9 28.4 9.4 L27.75 9.75 M34.15 8.25 L34.7 8.4 M26.65 17.6 L27.4 16.2 Q29.65 12.05 34.1 8.35 L34.15 8.25 M21.7 16.3 L26.65 17.6 M23.8 8.7 Q22.1 9.35 20.7 10.25 M32.15 29.4 Q32.75 28.55 33.25 28.3 L34.3 27.6 35.15 27.1 36.85 25.6 38.75 23.55 39.85 21.45 40.6 18.9 M32.15 29.4 Q32.9 32.95 29.55 34.95 L29.65 35.15 Q30.5 37.8 29.8 40.3 L29.55 41.05 M26.85 30.85 L27.5 31.5 28.15 32.35 Q29.05 33.5 29.55 34.95 M9.25 27.95 L9.85 28.05 10.05 28.15 12.55 30.3 M8.95 28.05 L9.25 27.95" fill="none" stroke="#000000" stroke-linecap="round" stroke-linejoin="round" stroke-opacity="0.3019608" stroke-width="0.30000000000000004"/>
      <path d="M17.3 28.95 Q19.65 28.65 21.45 29.45 23.25 30.25 23.4 31.55 23.55 32.95 22.05 34.2 20.5 35.35 18.1 35.6 L13.85 35.15 Q12.1 34.35 11.9 32.9 11.8 31.6 13.35 30.45 14.9 29.25 17.3 28.95" fill="#9ae17b" fill-rule="evenodd" stroke="none"/>
      <path d="M17.05 29.35 L18.45 29.55 Q19.0 29.8 19.05 30.3 19.15 30.8 18.6 31.1 L17.25 31.65 15.85 31.5 Q15.3 31.2 15.2 30.7 15.15 30.35 15.7 29.9 16.2 29.5 17.05 29.35" fill="#d7f16b" fill-rule="evenodd" stroke="none"/>
      <path d="M23.6 11.7 L23.75 11.05 23.95 10.8 Q24.2 10.5 24.6 10.35 L25.9 10.25 26.2 10.35 26.8 10.85 26.85 10.9 26.8 11.0 26.7 11.45 26.2 12.05 25.85 12.2 24.55 12.3 23.85 11.9 23.6 11.7" fill="#cc0000" fill-rule="evenodd" stroke="none"/>
      <path d="M26.35 12.5 L26.0 12.65 24.7 12.7 24.0 12.35 23.8 12.1 23.75 11.95 23.6 11.7 23.85 11.9 24.55 12.3 25.85 12.2 26.2 12.05 26.35 12.5" fill="#660000" fill-rule="evenodd" stroke="none"/>
      <path d="M26.85 10.9 L26.9 11.05 26.85 11.95 26.35 12.5 26.2 12.05 26.7 11.45 26.8 11.0 26.85 10.9" fill="#990000" fill-rule="evenodd" stroke="none"/>
      <path d="M23.6 11.7 L23.75 11.05 23.95 10.8 Q24.2 10.5 24.6 10.35 L25.9 10.25 26.2 10.35 26.8 10.85 26.85 10.9 26.9 11.05 26.85 11.95 26.35 12.5 26.0 12.65 24.7 12.7 24.0 12.35 23.8 12.1 23.75 11.95 23.6 11.7 Z" fill="none" stroke="#000000" stroke-linecap="round" stroke-linejoin="round" stroke-opacity="0.3019608" stroke-width="0.30000000000000004"/>
      <path d="M10.0 44.2 L9.8 44.35 9.75 43.3 9.45 42.45 8.95 41.25 8.15 39.85 7.75 39.45 7.25 38.95 Q7.75 40.0 7.9 41.6 L7.9 41.75 7.85 41.6 Q7.4 39.7 6.95 38.9 L7.15 38.8 7.2 38.8 7.75 39.15 8.0 39.3 8.65 40.2 10.85 40.35 11.8 40.1 10.9 40.45 8.9 40.6 9.15 41.15 9.8 42.5 9.9 43.25 10.0 43.6 10.0 44.2 M20.2 43.85 L19.95 44.8 19.55 45.65 Q20.6 45.8 21.35 46.35 L21.7 46.5 21.75 46.5 22.1 46.95 22.1 47.4 22.0 47.15 21.65 46.8 21.55 46.7 21.3 46.6 20.65 46.2 20.4 46.2 Q16.55 44.95 15.6 47.0 L15.55 46.8 15.6 46.65 15.75 46.3 16.25 45.85 16.7 45.65 18.3 45.5 18.95 45.6 19.05 45.55 19.8 44.65 20.2 43.85 M31.4 35.1 Q31.05 35.1 30.65 35.65 L30.5 35.85 30.35 36.0 30.0 36.95 30.65 38.15 31.0 39.55 30.5 38.3 29.95 37.45 29.8 37.95 29.75 38.65 29.75 39.05 29.85 40.15 29.9 40.35 30.45 41.1 30.2 41.05 Q29.85 40.85 29.7 40.3 L29.6 40.1 29.55 39.25 29.55 38.5 27.8 38.3 Q29.0 38.5 29.6 38.0 L29.6 37.9 Q29.8 36.6 30.3 35.75 L30.35 35.65 30.95 35.1 31.2 35.1 31.4 35.1" fill="#d7f16b" fill-rule="evenodd" stroke="none"/>
      <path d="M10.45 37.75 Q10.25 37.2 10.5 37.05 L10.6 37.0 11.0 37.1 11.45 37.55 Q12.15 38.3 12.85 39.7 L13.25 40.5 13.85 42.1 14.0 42.95 14.0 43.3 13.9 43.35 13.85 43.4 Q13.55 43.6 12.85 42.85 L12.75 42.65 Q13.4 43.4 13.7 43.2 L13.7 43.15 13.75 43.05 13.8 43.0 13.65 42.0 13.65 41.85 13.45 41.4 13.15 40.5 12.75 39.75 12.65 39.55 11.8 38.1 11.45 37.75 10.85 37.3 10.65 37.25 10.5 37.25 Q10.4 37.4 10.45 37.75 M9.8 44.35 L9.7 44.45 9.6 44.45 9.6 44.5 Q9.4 44.7 8.7 44.0 L8.2 41.75 8.15 39.85 8.95 41.25 9.45 42.45 9.75 43.3 9.8 44.35 M7.85 42.8 L7.55 42.2 7.1 41.25 6.8 40.1 Q6.55 39.15 6.85 38.9 L6.95 38.95 6.95 38.9 Q7.4 39.7 7.85 41.6 L7.9 41.75 7.85 42.8 M7.75 39.15 L11.55 38.15 12.0 38.65 12.15 39.0 12.45 39.7 11.8 40.1 10.85 40.35 8.65 40.2 8.0 39.3 7.75 39.15 M22.1 43.8 L21.85 43.65 21.75 43.55 20.95 43.15 19.9 42.8 19.35 42.65 17.65 42.5 17.5 42.5 16.95 42.5 16.75 42.6 Q16.1 42.65 15.8 43.0 15.55 43.15 15.55 43.4 15.45 43.95 16.1 44.5 15.25 44.0 15.3 43.35 15.3 42.95 15.85 42.65 L16.55 42.45 16.8 42.35 17.3 42.35 19.4 42.5 21.05 43.0 22.05 43.55 22.35 43.75 22.9 44.3 23.05 44.95 Q23.0 45.4 22.1 45.7 L22.15 45.55 22.8 44.95 22.75 44.65 22.1 43.8 M20.2 43.6 L20.2 43.8 20.2 43.85 19.8 44.65 19.05 45.55 18.95 45.6 18.3 45.5 16.7 45.65 17.25 43.85 18.65 43.6 20.2 43.6 M22.1 47.4 L22.1 47.45 22.1 47.6 Q22.05 48.15 21.25 48.45 L20.95 48.5 19.4 48.65 18.9 48.6 19.85 47.7 Q20.35 47.3 21.25 47.0 L21.65 46.8 22.0 47.15 22.1 47.4 M16.95 48.15 L16.35 47.85 Q15.65 47.45 15.6 47.0 16.55 44.95 20.4 46.2 20.6 47.15 19.95 47.45 L19.7 47.6 16.95 48.15 M31.4 35.1 L31.5 35.1 Q32.1 35.15 32.3 36.05 L32.4 36.6 32.3 38.3 32.0 39.7 Q31.35 39.0 30.95 37.85 L30.35 36.0 30.5 35.85 30.65 35.65 Q31.05 35.1 31.4 35.1 M31.2 41.0 L30.65 41.15 30.45 41.1 29.9 40.35 29.85 40.15 29.75 39.05 29.75 38.65 29.8 37.95 29.95 37.45 30.5 38.3 31.0 39.55 31.2 41.0 M28.85 40.65 Q28.45 41.5 28.05 41.45 L27.55 41.1 27.4 40.9 27.2 40.6 27.1 40.2 27.0 39.9 26.95 39.65 26.85 37.65 26.85 37.55 26.85 37.45 27.15 35.75 27.4 34.95 27.45 34.8 27.8 34.3 Q28.2 33.8 28.65 33.85 29.2 33.9 29.5 34.95 L29.55 35.15 29.45 35.15 29.4 35.1 Q29.15 34.25 28.65 34.15 L28.2 34.25 Q27.85 34.45 27.55 35.1 L27.45 35.25 27.3 35.75 27.0 37.45 26.95 37.55 27.0 37.65 Q26.9 38.8 27.1 39.65 L27.15 39.7 27.2 39.95 27.35 40.3 27.7 40.95 27.75 40.95 28.1 41.1 28.75 40.8 28.85 40.65 M30.35 35.65 L30.3 35.75 Q29.8 36.6 29.6 37.9 L29.6 38.0 Q29.0 38.5 27.8 38.3 L27.4 38.0 27.4 37.1 27.5 36.5 27.75 35.7 30.35 35.65" fill="#9ae17b" fill-rule="evenodd" stroke="none"/>
      <path d="M11.8 38.1 L12.65 39.55 Q12.5 39.65 12.45 39.7 L12.15 39.0 12.0 38.65 11.55 38.15 7.75 39.15 7.2 38.8 10.45 38.0 10.85 37.85 11.0 37.8 11.55 38.15 11.8 38.1 M12.3 42.8 L10.0 44.2 10.0 43.6 12.6 41.95 12.3 42.8 M8.7 44.0 L7.85 42.8 7.9 41.75 7.9 41.6 Q7.75 40.0 7.25 38.95 L7.75 39.45 8.15 39.85 8.2 41.75 8.7 44.0 M21.75 44.0 L22.1 44.3 22.15 45.05 22.15 45.55 22.1 45.7 22.1 46.95 21.75 46.5 21.75 44.0 M17.65 42.5 L19.35 42.65 19.9 42.8 20.2 43.6 18.65 43.6 17.25 43.85 16.7 45.65 16.25 45.85 15.75 46.3 16.25 44.65 16.4 44.3 Q16.75 44.0 17.25 43.85 L17.65 42.5 M18.9 48.6 L18.65 48.65 16.95 48.15 19.7 47.6 19.95 47.45 Q20.6 47.15 20.4 46.2 L20.65 46.2 21.3 46.6 21.55 46.7 21.65 46.8 21.25 47.0 Q20.35 47.3 19.85 47.7 L18.9 48.6 M30.35 36.0 L30.95 37.85 Q31.35 39.0 32.0 39.7 L31.65 40.35 31.2 41.0 31.0 39.55 30.65 38.15 30.0 36.95 30.35 36.0 M30.2 41.05 L28.85 40.65 28.3 40.5 28.2 40.45 27.75 39.85 29.7 40.3 Q29.85 40.85 30.2 41.05 M29.55 35.15 L30.95 35.1 30.35 35.65 27.75 35.7 27.5 36.5 27.4 37.1 27.4 38.0 27.0 37.65 26.95 37.55 27.0 37.45 27.3 35.75 27.75 35.7 28.1 35.25 28.9 35.2 29.4 35.15 29.45 35.15 29.55 35.15" fill="#75d74a" fill-rule="evenodd" stroke="none"/>
      <path d="M11.45 37.75 L11.8 38.1 11.55 38.15 11.0 37.8 11.45 37.75 M13.45 41.4 L13.65 41.85 13.65 41.9 12.95 42.3 12.6 42.5 12.3 42.8 12.6 41.95 10.0 43.6 9.9 43.25 9.8 42.5 9.15 41.15 8.9 40.6 10.9 40.45 11.8 40.1 12.45 39.7 12.65 40.65 12.6 41.95 13.45 41.4 M22.1 44.3 L21.75 44.0 21.75 43.55 21.85 43.65 22.1 43.8 22.1 44.3 M20.2 43.6 L20.35 43.65 21.15 43.75 21.75 44.0 21.75 46.5 21.7 46.5 21.35 46.35 Q20.6 45.8 19.55 45.65 L19.95 44.8 20.2 43.85 20.2 43.8 20.2 43.6 M16.95 42.5 L17.5 42.5 17.65 42.5 17.25 43.85 Q16.75 44.0 16.4 44.3 L16.45 43.95 16.95 42.5 M27.8 38.3 L29.55 38.5 29.55 39.25 29.6 40.1 29.7 40.3 27.75 39.85 28.2 40.45 28.3 40.5 27.35 40.3 27.2 39.95 27.15 39.7 27.75 39.85 Q27.4 39.2 27.4 38.0 L27.8 38.3 M27.45 35.25 L28.1 35.25 27.75 35.7 27.3 35.75 27.45 35.25" fill="#339328" fill-rule="evenodd" stroke="none"/>
      <path d="M10.45 37.75 Q10.4 37.4 10.5 37.25 L10.65 37.25 10.85 37.3 Q10.75 37.4 10.8 37.7 L10.8 37.75 10.85 37.85 10.45 38.0 10.45 37.75 M12.65 39.55 L12.75 39.75 13.15 40.5 13.45 41.4 12.6 41.95 12.65 40.65 12.45 39.7 Q12.5 39.65 12.65 39.55 M13.8 43.0 L13.75 43.05 13.7 43.15 13.7 43.2 Q13.4 43.4 12.75 42.65 L12.6 42.5 12.95 42.3 13.1 42.45 13.8 43.0 M21.75 43.55 L21.75 44.0 21.15 43.75 20.35 43.65 20.2 43.6 19.9 42.8 20.95 43.15 21.75 43.55 M16.1 44.5 Q15.45 43.95 15.55 43.4 15.55 43.15 15.8 43.0 15.85 43.45 16.45 43.95 L16.4 44.3 16.25 44.65 16.1 44.5 M22.15 45.55 L22.15 45.05 22.5 44.85 22.75 44.65 22.8 44.95 22.15 45.55 M28.2 34.25 L28.65 34.15 Q29.15 34.25 29.4 35.1 L29.45 35.15 29.4 35.15 28.9 35.2 Q28.65 34.4 28.2 34.25 M27.15 39.7 L27.1 39.65 Q26.9 38.8 27.0 37.65 L27.4 38.0 Q27.4 39.2 27.75 39.85 L27.15 39.7 M27.75 40.95 L27.7 40.95 27.35 40.3 28.3 40.5 28.3 40.6 27.75 40.95" fill="#246c41" fill-rule="evenodd" stroke="none"/>
      <path d="M10.85 37.3 L11.45 37.75 11.0 37.8 10.85 37.85 10.8 37.75 10.8 37.7 Q10.75 37.4 10.85 37.3 M13.65 42.0 L13.8 43.0 13.1 42.45 12.95 42.3 13.65 41.9 13.65 42.0 M22.1 44.3 L22.1 43.8 22.75 44.65 22.5 44.85 22.15 45.05 22.1 44.3 M15.8 43.0 Q16.1 42.65 16.75 42.6 L16.95 42.5 16.45 43.95 Q15.85 43.45 15.8 43.0 M27.45 35.25 L27.55 35.1 Q27.85 34.45 28.2 34.25 28.65 34.4 28.9 35.2 L28.1 35.25 27.45 35.25 M28.3 40.5 L28.85 40.65 28.75 40.8 28.1 41.1 27.75 40.95 28.3 40.6 28.3 40.5" fill="#154026" fill-rule="evenodd" stroke="none"/>
      <path d="M11.45 37.75 L11.8 38.1 12.65 39.55 12.75 39.75 13.15 40.5 13.45 41.4 13.65 41.85 13.65 42.0 M12.6 42.5 L12.3 42.8 10.0 44.2 9.8 44.35 9.7 44.45 9.6 44.45 9.6 44.5 Q9.4 44.7 8.7 44.0 L7.85 42.8 7.55 42.2 7.1 41.25 6.8 40.1 Q6.55 39.15 6.85 38.9 L6.95 38.95 6.95 38.9 7.15 38.8 M7.2 38.8 L10.45 38.0 10.85 37.85 11.0 37.8 11.45 37.75 M22.1 44.3 L22.1 43.8 21.85 43.65 21.75 43.55 20.95 43.15 19.9 42.8 19.35 42.65 17.65 42.5 17.5 42.5 16.95 42.5 16.45 43.95 16.4 44.3 16.25 44.65 15.75 46.3 15.6 46.65 15.55 46.8 15.6 47.0 Q15.65 47.45 16.35 47.85 L16.95 48.15 18.65 48.65 18.9 48.6 19.4 48.65 20.95 48.5 21.25 48.45 Q22.05 48.15 22.1 47.6 L22.1 47.45 M22.15 45.55 L22.1 45.7 22.1 46.95 M22.15 45.55 L22.15 45.05 22.1 44.3 M22.1 47.4 L22.0 47.15 M13.65 41.9 L12.95 42.3 12.6 42.5 M13.65 41.9 L13.65 41.85 M32.0 39.7 L32.3 38.3 32.4 36.6 32.3 36.05 Q32.1 35.15 31.5 35.1 L31.4 35.1 31.2 35.1 M32.0 39.7 L31.65 40.35 31.2 41.0 30.65 41.15 30.45 41.1 30.2 41.05 28.85 40.65 28.3 40.5 27.35 40.3 27.2 39.95 27.15 39.7 27.1 39.65 Q26.9 38.8 27.0 37.65 L26.95 37.55 27.0 37.45 27.3 35.75 27.45 35.25 28.1 35.25 28.9 35.2 29.4 35.15 29.45 35.15 29.55 35.15 30.95 35.1" fill="none" stroke="#000000" stroke-linecap="round" stroke-linejoin="round" stroke-opacity="0.3019608" stroke-width="0.30000000000000004"/>
      <path d="M22.1 46.95 L22.1 47.4 22.1 47.45" fill="none" stroke="#000000" stroke-linecap="round" stroke-linejoin="round" stroke-opacity="0.3019608" stroke-width="0.30000000000000004"/>
      <path d="M14.3 33.4 Q14.95 32.85 15.7 32.9 16.4 32.95 16.7 33.4 L16.75 33.4 16.75 33.45 16.8 33.5 17.2 34.25 17.4 34.75 17.4 34.85 17.45 35.35 17.3 35.8 17.35 35.95 16.6 37.1 16.55 37.15 Q16.0 37.6 15.25 37.65 14.55 37.7 14.0 37.15 L13.4 36.2 13.4 36.1 13.4 36.0 Q13.15 35.45 13.35 34.8 13.6 33.95 14.3 33.4" fill="#339328" fill-rule="evenodd" stroke="none"/>
      <path d="M13.45 35.5 L13.35 35.45 13.35 35.4 13.45 35.5" fill="#825a20" fill-rule="evenodd" stroke="none"/>
      <path d="M13.35 35.45 L13.25 35.35 13.35 35.4 13.35 35.45" fill="#9ae17b" fill-rule="evenodd" stroke="none"/>
      <path d="M16.0 33.4 L16.0 33.5 16.0 33.65 16.0 33.8 15.6 34.5 14.9 34.9 14.6 34.9 14.45 34.8 14.35 34.4 Q14.35 34.15 14.6 33.95 L14.8 33.7 15.0 33.55 15.55 33.4 15.6 33.35 16.0 33.4" fill="#154026" fill-rule="evenodd" stroke="none"/>
      <path d="M17.1 35.75 L17.1 35.8 Q16.35 35.3 16.0 35.5 L14.75 35.85 Q16.4 35.25 17.0 33.95 L16.65 34.95 Q16.5 35.3 17.1 35.75 M14.15 34.6 L14.05 34.6 Q13.85 34.3 14.0 34.0 14.0 33.6 14.35 33.25 14.7 32.95 15.1 32.95 L15.3 32.95 15.6 32.95 15.15 33.0 14.85 33.15 14.75 33.15 14.35 33.55 14.3 33.7 Q14.0 34.15 14.15 34.6" fill="#ffff98" fill-rule="evenodd" stroke="none"/>
      <path d="M13.25 35.35 L13.25 35.3 13.2 35.25 Q12.85 34.75 12.9 34.1 13.0 33.3 13.65 32.65 14.35 32.0 15.2 31.95 16.0 31.9 16.45 32.3 L16.5 32.3 16.6 32.35 Q17.05 32.75 17.05 33.4 L17.0 33.45 17.0 33.65 17.05 33.8 17.0 33.95 Q16.4 35.25 14.75 35.85 L14.2 35.8 Q13.75 35.75 13.45 35.5 L13.35 35.4 13.25 35.35 M15.6 32.95 L15.3 32.95 15.1 32.95 Q14.7 32.95 14.35 33.25 14.0 33.6 14.0 34.0 13.85 34.3 14.05 34.6 L14.15 34.6 14.2 34.65 14.45 34.8 14.6 34.9 14.9 34.9 15.6 34.5 16.0 33.8 16.0 33.65 16.0 33.5 16.0 33.4 15.75 33.15 15.75 33.1 15.6 32.95" fill="#ffde4f" fill-rule="evenodd" stroke="none"/>
      <path d="M16.6 32.35 L17.25 32.95 17.55 33.45 17.65 33.55 17.8 34.0 17.8 34.5 17.8 34.6 17.5 33.95 17.0 33.45 17.05 33.4 Q17.05 32.75 16.6 32.35 M14.15 34.6 Q14.0 34.15 14.3 33.7 14.3 34.05 14.6 33.95 14.35 34.15 14.35 34.4 L14.45 34.8 14.2 34.65 14.15 34.6 M14.75 33.15 L14.85 33.15 15.15 33.0 15.6 32.95 15.75 33.1 15.75 33.15 16.0 33.4 15.6 33.35 15.55 33.4 15.0 33.55 Q15.1 33.2 14.75 33.15" fill="#f4a33c" fill-rule="evenodd" stroke="none"/>
      <path d="M17.1 35.8 Q16.6 36.45 15.75 36.6 14.95 36.75 14.3 36.25 L13.45 35.5 Q13.75 35.75 14.2 35.8 L14.75 35.85 16.0 35.5 Q16.35 35.3 17.1 35.8 M14.3 33.7 L14.35 33.55 14.75 33.15 Q15.1 33.2 15.0 33.55 L14.8 33.7 14.6 33.95 Q14.3 34.05 14.3 33.7" fill="#cc6b22" fill-rule="evenodd" stroke="none"/>
      <path d="M17.8 34.6 L17.15 35.8 17.1 35.75 Q16.5 35.3 16.65 34.95 L17.0 33.95 17.05 33.8 17.0 33.65 17.0 33.45 17.5 33.95 17.8 34.6" fill="#a34100" fill-rule="evenodd" stroke="none"/>
      <path d="M13.25 35.35 L13.25 35.3 13.2 35.25 Q12.85 34.75 12.9 34.1 13.0 33.3 13.65 32.65 14.35 32.0 15.2 31.95 16.0 31.9 16.45 32.3 L16.5 32.3 16.6 32.35 17.25 32.95 17.55 33.45 17.65 33.55 17.8 34.0 17.8 34.5 17.8 34.6 17.15 35.8 17.1 35.75 17.1 35.8 Q16.6 36.45 15.75 36.6 14.95 36.75 14.3 36.25 L13.45 35.5 13.35 35.4 13.25 35.35 M15.6 32.95 L15.75 33.1 M15.75 33.15 L16.0 33.4 16.0 33.5 16.0 33.65 16.0 33.8 15.6 34.5 14.9 34.9 14.6 34.9 14.45 34.8" fill="none" stroke="#000000" stroke-linecap="round" stroke-linejoin="round" stroke-opacity="0.3019608" stroke-width="0.30000000000000004"/>
    </g>
    <g id="sprite1" transform="matrix(1.0, 0.0, 0.0, 1.0, 0.0, 0.0)">
      <use height="26.7" transform="matrix(0.0042, -1.3515, 1.3935, 0.02, 22.09, 56.0263)" width="26.7" xlink:href="#sprite2"/>
      <use height="26.7" transform="matrix(0.0095, -3.0486, 0.372, 0.0053, 36.507, 81.3775)" width="26.7" xlink:href="#sprite2"/>
      <use height="26.7" transform="matrix(3.0486, 0.0095, -0.0053, 0.372, 0.1225, 35.107)" width="26.7" xlink:href="#sprite2"/>
    </g>
    <g id="sprite2" transform="matrix(1.0, 0.0, 0.0, 1.0, 13.35, 13.35)">
      <use height="26.7" transform="matrix(1.0, 0.0, 0.0, 1.0, -13.35, -13.35)" width="26.7" xlink:href="#shape1"/>
    </g>
    <g id="shape1" transform="matrix(1.0, 0.0, 0.0, 1.0, 13.35, 13.35)">
      <path d="M9.3 -9.85 Q13.35 -5.8 13.35 0.0 13.35 5.8 9.3 9.3 5.8 13.35 0.0 13.35 -5.8 13.35 -9.85 9.3 -13.35 5.8 -13.35 0.0 -13.35 -5.8 -9.85 -9.85 -5.8 -13.35 0.0 -13.35 5.8 -13.35 9.3 -9.85" fill="url(#gradient0)" fill-rule="evenodd" stroke="none"/>
    </g>
    <radialGradient cx="0" cy="0" gradientTransform="matrix(0.0213, 0.0, 0.0, 0.0213, 0.0, 0.0)" gradientUnits="userSpaceOnUse" id="gradient0" r="819.2" spreadMethod="pad">
      <stop offset="0.19607843137254902" stop-color="#fee3bc" stop-opacity="0.30588236"/>
      <stop offset="0.5019607843137255" stop-color="#fee3bc" stop-opacity="0.047058824"/>
      <stop offset="0.7607843137254902" stop-color="#ffe3bd" stop-opacity="0.0"/>
    </radialGradient>
  </defs>
</svg>
