<?xml version="1.0" encoding="UTF-8" standalone="no"?>
<svg xmlns:xlink="http://www.w3.org/1999/xlink" height="52.0px" width="52.0px" xmlns="http://www.w3.org/2000/svg">
  <g transform="matrix(1.0, 0.0, 0.0, 1.0, 0.0, 0.0)">
    <use height="56.0" transform="matrix(1.0, 0.0, 0.0, 1.0, -2.0, -2.0)" width="56.0" xlink:href="#shape0"/>
    <use height="121.7" transform="matrix(0.3471, 0.0, 0.0, 0.3468, 3.5293, 4.3685)" width="129.75" xlink:href="#sprite0"/>
  </g>
  <defs>
    <g id="shape0" transform="matrix(1.0, 0.0, 0.0, 1.0, 2.0, 2.0)">
      <path d="M52.0 0.0 L52.0 52.0 0.0 52.0 0.0 0.0 52.0 0.0" fill="#795fa9" fill-opacity="0.0" fill-rule="evenodd" stroke="none"/>
      <path d="M10.85 9.4 L10.8 9.4 10.85 9.85 10.85 10.0 10.85 14.4 10.8 15.55 10.75 16.75 Q12.25 20.2 14.75 20.6 L16.3 20.3 16.3 20.35 16.4 20.7 16.9 21.75 17.1 22.05 17.5 22.7 18.0 23.3 18.55 23.85 18.7 24.05 19.85 24.9 21.1 25.55 21.15 25.55 21.2 25.55 21.25 25.6 21.35 25.7 21.45 25.75 21.8 25.9 22.25 26.1 22.9 26.35 23.3 26.45 22.4 29.4 20.45 31.45 19.75 31.05 19.25 31.05 19.25 29.6 18.65 28.4 18.0 27.9 17.4 27.6 16.75 27.4 14.4 27.35 14.25 27.35 14.1 27.45 14.05 27.5 13.25 28.15 12.75 28.6 11.9 28.2 11.4 28.45 9.85 27.6 8.65 27.6 7.35 26.95 5.65 26.95 4.0 28.55 5.05 30.9 6.25 31.2 7.5 34.45 8.45 35.3 10.2 40.7 12.55 42.45 14.65 41.8 14.9 41.4 14.95 41.45 15.0 41.5 16.3 42.55 19.05 42.1 19.35 41.75 20.1 44.2 22.5 45.9 24.55 45.25 24.7 45.05 26.7 46.0 26.9 46.05 27.05 46.0 27.55 45.75 29.95 43.4 33.6 34.5 33.75 34.05 33.8 33.9 33.9 33.05 34.05 30.6 34.35 25.5 34.75 25.3 34.85 25.2 34.95 25.1 35.65 25.75 36.25 26.05 Q39.85 28.05 44.25 25.8 L48.0 17.4 46.1 16.35 45.25 16.15 44.55 16.55 41.95 17.75 40.8 18.2 40.6 18.25 40.0 18.45 40.15 17.15 40.1 16.3 39.95 15.05 Q39.5 13.1 38.2 11.0 36.35 8.65 33.8 7.4 L32.05 6.75 31.3 6.55 31.05 6.5 29.8 6.3 29.8 6.35 29.4 6.3 29.25 6.25 27.75 6.15 Q23.55 6.15 20.1 9.1 L18.85 10.35 17.85 10.9 17.55 11.2 16.85 11.95 16.65 12.25 13.3 10.0 10.85 9.4 Z" fill="none" stroke="#000000" stroke-linecap="round" stroke-linejoin="round" stroke-opacity="0.3019608" stroke-width="1.0"/>
    </g>
    <g id="sprite0" transform="matrix(1.0, 0.0, 0.0, 1.0, 1.5, 1.1)">
      <use height="120.05" transform="matrix(1.0, 0.0, 0.0, 1.0, -2.5, 1.55)" width="131.75" xlink:href="#shape1"/>
      <clipPath id="clipPath0" transform="matrix(1.0, 0.0, 0.0, 1.0, 0.0, 0.0)">
        <path d="M85.9 7.75 Q93.2 11.25 98.55 18.15 102.3 24.15 103.5 29.7 L104.05 33.4 104.1 35.75 103.65 39.6 105.4 39.0 105.95 38.8 109.25 37.5 Q112.95 36.05 116.75 34.15 L118.8 32.95 121.3 33.55 Q124.4 34.7 126.75 36.6 L116.0 60.8 Q103.25 67.25 92.85 61.55 L91.1 60.55 89.2 58.75 88.85 59.0 88.5 59.25 87.45 59.85 86.5 74.55 86.1 81.65 85.9 84.1 85.75 84.5 85.75 84.55 85.2 85.85 74.7 111.55 Q70.45 116.7 67.8 118.35 L66.45 119.0 65.9 119.1 65.4 119.05 59.65 116.3 59.25 116.9 53.25 118.75 46.4 113.75 44.15 106.8 43.4 107.75 35.45 109.05 35.4 109.05 Q33.15 107.6 31.65 106.0 L31.55 105.9 31.45 105.75 30.65 106.9 24.65 108.75 17.8 103.75 12.75 88.2 10.0 85.7 6.45 76.3 3.0 75.4 0.0 68.75 4.8 64.1 9.65 64.1 13.4 65.95 16.8 65.95 21.25 68.35 22.8 67.75 25.2 68.85 25.25 68.85 26.6 67.55 28.95 65.65 29.05 65.55 29.45 65.25 29.9 65.2 36.65 65.3 38.6 65.95 Q39.45 66.3 40.25 66.75 L42.15 68.25 43.9 71.75 43.9 75.95 45.4 75.95 47.3 77.0 53.05 71.1 55.65 62.7 54.4 62.3 52.55 61.6 51.3 61.05 50.2 60.55 50.0 60.4 49.65 60.2 49.5 60.1 49.45 60.1 49.25 60.0 Q47.35 59.25 45.65 58.15 L42.4 55.7 41.85 55.2 40.25 53.5 38.85 51.75 37.65 49.95 37.15 49.05 Q36.3 47.6 35.75 46.1 L35.4 45.05 35.35 44.9 Q33.0 45.8 30.95 45.8 23.7 44.6 19.45 34.65 L19.6 31.2 19.65 27.95 19.65 15.25 19.65 14.8 19.6 13.45 19.65 13.45 26.75 15.15 36.4 21.7 36.4 21.65 36.95 20.85 39.0 18.6 39.9 17.85 Q41.25 16.8 42.7 16.2 44.35 14.35 46.35 12.65 56.3 4.15 68.45 4.15 L72.75 4.45 73.1 4.5 74.25 4.7 74.25 4.6 74.3 4.6 77.85 5.15 78.6 5.3 80.75 5.85 Q83.4 6.65 85.9 7.75" fill="#cc3300" fill-rule="evenodd" stroke="none"/>
      </clipPath>
      <g clip-path="url(#clipPath0)">
        <use height="78.5" transform="matrix(0.7576, -0.0205, -0.035, 0.5659, 22.0599, 69.1066)" width="75.15" xlink:href="#sprite1"/>
        <use height="0.0" transform="matrix(0.1618, 0.0063, -0.0591, 0.2205, 66.0, 97.35)" width="0.0" xlink:href="#sprite2"/>
        <use height="0.0" transform="matrix(0.1618, 0.0063, -0.0591, 0.2205, 57.35, 26.95)" width="0.0" xlink:href="#sprite2"/>
        <use height="0.0" transform="matrix(0.1618, 0.0063, 0.0588, 0.2252, 24.65, 87.65)" width="0.0" xlink:href="#sprite2"/>
        <use height="81.5" transform="matrix(0.3504, 0.0, 0.0, 0.3505, 54.7, 62.15)" width="81.5" xlink:href="#sprite3"/>
        <use height="148.65" transform="matrix(0.3744, 0.0, 0.0, 0.755, 16.6483, -1.1197)" width="241.35" xlink:href="#sprite5"/>
      </g>
    </g>
    <g id="shape1" transform="matrix(1.0, 0.0, 0.0, 1.0, 2.5, -1.55)">
      <path d="M121.3 33.55 Q124.4 34.7 126.75 36.6 L116.0 60.8 Q103.25 67.25 92.85 61.55 L91.1 60.55 89.2 58.75 87.4 59.8 85.95 84.0 74.65 111.55 Q70.4 116.7 67.75 118.3 L66.45 118.9 65.4 119.05 59.7 116.25 59.25 116.85 53.25 118.75 46.35 113.75 44.15 106.75 43.4 107.75 35.5 109.1 Q33.15 107.6 31.7 106.0 31.55 105.85 31.4 105.85 L30.65 107.0 24.65 108.8 17.75 103.8 12.75 88.25 9.95 85.75 6.45 76.35 2.95 75.5 0.0 68.9 4.85 64.2 9.7 64.2 13.35 66.1 16.7 66.1 21.1 68.45 22.75 67.85 25.1 68.9 29.5 65.2 29.9 65.2 Q35.95 64.2 40.2 66.7 L42.1 68.3 43.85 71.65 43.85 75.95 45.45 75.95 47.4 76.95 53.1 71.1 55.6 62.75 52.5 61.55 50.15 60.55 49.45 60.1 49.3 59.95 Q44.15 57.9 40.2 53.5 37.25 50.1 35.8 46.0 L35.35 44.85 30.95 45.7 Q23.75 44.55 19.5 34.55 L19.65 15.2 19.65 13.45 26.7 15.05 36.4 21.65 Q37.4 20.05 39.0 18.6 40.8 16.95 42.7 16.1 L46.35 12.55 Q56.3 4.05 68.5 4.05 L72.75 4.35 74.2 4.65 Q77.6 4.95 80.8 5.8 91.4 8.9 98.55 18.15 103.55 26.2 104.0 33.4 104.3 36.6 103.7 39.55 L109.25 37.5 Q112.95 36.05 116.75 34.15 L118.8 32.95 121.3 33.55 Z" fill="none" stroke="#000000" stroke-linecap="round" stroke-linejoin="round" stroke-opacity="0.3019608" stroke-width="1.0"/>
      <path d="M43.35 76.75 L43.8 80.45 43.9 80.45 43.9 81.75 43.9 83.35 43.9 91.3 Q40.65 95.9 37.7 96.4 L36.6 101.05 37.35 107.5 35.75 103.25 34.3 86.85 38.15 82.55 43.35 76.75 M37.15 108.8 L35.4 109.05 Q33.15 107.6 31.65 106.0 29.7 103.95 28.95 101.75 L28.5 92.85 33.2 87.95 34.9 106.4 37.15 108.8 M82.85 57.7 L87.9 52.1 82.85 57.7 81.2 59.45 57.75 55.8 64.75 47.45 87.9 52.1 86.4 75.8 81.2 69.2 82.85 57.7 M79.15 77.55 L80.55 73.45 85.55 84.9 83.5 90.0 82.8 88.0 79.15 77.55" fill="#1c5331" fill-rule="evenodd" stroke="none"/>
      <path d="M24.2 69.9 L26.6 69.25 35.05 68.4 38.65 68.0 35.9 70.1 34.35 71.25 Q32.4 72.75 30.75 74.7 L18.8 76.2 19.75 75.0 Q21.95 72.15 24.2 69.9 M25.9 85.25 L32.25 75.45 40.15 68.9 42.85 72.45 43.2 75.55 38.15 82.55 34.3 86.85 33.2 87.95 34.3 86.85 35.75 103.25 37.35 107.5 36.6 101.05 37.7 96.4 Q40.65 95.9 43.9 91.3 L43.9 95.4 45.25 95.4 44.1 101.9 44.85 105.8 43.4 107.75 37.15 108.8 34.9 106.4 33.2 87.95 28.5 92.85 26.95 94.4 25.9 85.25 M81.2 69.2 L86.4 75.8 85.9 84.1 85.55 84.9 80.55 73.45 80.55 73.4 81.2 69.2 M57.75 55.8 L81.2 59.45 80.3 67.1 69.9 68.65 66.7 69.1 53.05 71.1 57.75 55.8 M77.7 79.2 L76.05 84.9 73.55 91.75 73.55 81.1 77.7 79.2 M73.55 93.6 L75.2 88.95 76.2 94.75 77.4 101.65 74.0 111.1 Q70.85 114.9 67.35 116.85 65.5 117.05 64.9 111.1 L64.3 98.5 65.35 97.05 66.4 88.8 69.9 77.1 72.25 81.3 73.05 99.6 73.55 95.4 73.55 93.6 M59.45 82.75 L50.5 84.4 55.1 77.7 64.35 76.7 67.25 76.7 Q64.7 79.0 62.35 82.2 L59.45 82.75 M66.4 95.6 L65.35 97.05 66.4 95.6 M57.8 107.95 L55.45 96.0 62.05 85.25 60.6 103.85 57.8 107.95 M63.85 112.7 Q64.35 117.65 65.4 119.05 L57.05 115.05 53.75 110.4 63.85 112.7" fill="#339328" fill-rule="evenodd" stroke="none"/>
      <path d="M25.6 82.75 L25.9 85.25 26.95 94.4 17.6 92.25 16.1 80.1 25.6 82.75 M66.4 88.8 L65.35 97.05 64.3 98.5 63.4 99.75 63.45 103.8 Q63.5 107.85 63.7 110.9 L63.85 112.7 53.75 110.4 53.1 108.1 52.45 105.7 48.25 103.9 44.9 90.9 55.05 94.25 55.45 96.0 57.8 107.95 52.45 105.7 57.8 107.95 60.6 103.85 62.05 85.25 65.4 79.75 67.65 78.45 66.4 88.8 M63.4 99.75 L60.6 103.85 63.4 99.75" fill="#77b35b" fill-rule="evenodd" stroke="none"/>
      <path d="M18.8 76.2 L30.75 74.7 Q28.2 77.65 26.2 81.45 L25.6 82.75 16.1 80.1 18.8 76.2 M75.2 88.95 L78.55 79.3 82.8 88.0 83.5 90.0 82.75 91.85 78.25 100.45 76.2 94.75 75.2 88.95 M50.5 80.9 L51.65 80.45 48.7 84.7 46.65 87.95 45.3 90.3 49.6 85.3 59.45 82.75 62.35 82.2 Q61.05 83.85 59.85 85.75 57.35 89.55 55.05 94.25 L44.9 90.9 48.25 103.9 52.45 105.7 53.1 108.1 44.85 105.8 44.1 101.9 45.25 95.4 43.9 95.4 43.9 91.3 43.9 83.35 50.5 80.9 M63.4 99.75 L64.3 98.5 64.9 111.1 65.05 114.4 Q65.8 118.5 67.8 118.35 L66.45 119.0 65.4 119.05 Q64.35 117.65 63.85 112.7 L63.7 110.9 Q63.5 107.85 63.45 103.8 L63.4 99.75 M44.9 90.9 L45.3 90.3 44.9 90.9" fill="#75d74a" fill-rule="evenodd" stroke="none"/>
      <path d="M35.05 68.4 L27.75 68.4 29.95 66.05 Q33.85 64.9 38.6 65.95 39.45 66.3 40.25 66.75 L38.65 68.0 35.05 68.4 M79.15 73.45 L78.6 75.75 77.7 79.2 73.55 81.1 73.55 80.1 71.0 76.1 67.25 72.75 Q64.35 71.8 60.35 72.0 64.35 71.8 67.25 72.75 L71.0 76.1 67.9 76.1 67.25 76.7 64.35 76.7 55.95 76.7 60.35 72.0 59.05 72.1 57.75 73.45 57.45 73.7 54.65 76.7 52.15 79.85 51.65 80.45 50.5 80.9 43.9 81.75 53.55 71.95 66.7 69.1 69.9 68.65 79.15 68.65 79.15 73.45" fill="#9ae17b" fill-rule="evenodd" stroke="none"/>
      <path d="M30.75 74.7 Q32.4 72.75 34.35 71.25 L35.9 70.1 38.65 68.0 40.25 66.75 42.15 68.25 43.9 71.75 43.9 80.45 43.8 80.45 43.35 76.75 43.2 75.55 42.85 72.45 40.15 68.9 32.25 75.45 25.9 85.25 25.6 82.75 26.2 81.45 Q28.2 77.65 30.75 74.7 M82.85 57.7 L81.2 69.2 80.55 73.4 80.55 73.45 79.15 77.55 78.55 79.3 75.2 88.95 73.55 93.6 73.55 91.75 73.55 93.6 73.55 95.4 73.05 99.6 72.25 81.3 69.9 77.1 67.65 78.45 65.4 79.75 62.05 85.25 55.45 96.0 55.05 94.25 Q57.35 89.55 59.85 85.75 61.05 83.85 62.35 82.2 64.7 79.0 67.25 76.7 L67.9 76.1 71.0 76.1 73.55 80.1 73.55 81.1 73.55 91.75 76.05 84.9 77.7 79.2 78.6 75.75 79.15 73.45 80.3 67.1 81.2 59.45 82.85 57.7 M66.7 69.1 L53.55 71.95 43.9 81.75 43.9 80.45 53.05 71.1 66.7 69.1" fill="#d7f16b" fill-rule="evenodd" stroke="none"/>
      <path d="M35.05 68.4 L26.6 69.25 24.2 69.9 26.6 67.55 29.45 65.25 29.9 65.2 Q34.8 64.4 38.6 65.95 33.85 64.9 29.95 66.05 L27.75 68.4 35.05 68.4 M43.2 75.55 L43.35 76.75 38.15 82.55 43.2 75.55 M78.55 79.3 L79.15 77.55 82.8 88.0 78.55 79.3 M79.15 73.45 L79.15 68.65 69.9 68.65 80.3 67.1 79.15 73.45 M43.9 81.75 L50.5 80.9 43.9 83.35 43.9 81.75 M51.65 80.45 L52.15 79.85 54.65 76.7 57.45 73.7 57.75 73.45 59.05 72.1 60.35 72.0 55.95 76.7 64.35 76.7 55.1 77.7 50.5 84.4 59.45 82.75 49.6 85.3 45.3 90.3 46.65 87.95 48.7 84.7 51.65 80.45 M67.65 78.45 L69.9 77.1 66.4 88.8 67.65 78.45 M67.8 118.35 Q65.8 118.5 65.05 114.4 L64.9 111.1 Q65.5 117.05 67.35 116.85 70.85 114.9 74.0 111.1 L77.4 101.65 76.2 94.75 78.25 100.45 82.75 91.85 74.7 111.55 Q70.45 116.7 67.8 118.35" fill="#bce692" fill-rule="evenodd" stroke="none"/>
      <path d="M38.6 65.95 Q34.8 64.4 29.9 65.2 L29.45 65.25 26.6 67.55 24.2 69.9 Q21.95 72.15 19.75 75.0 L18.8 76.2 16.1 80.1 25.6 82.75 25.9 85.25 26.95 94.4 17.6 92.25 16.1 80.1 M43.9 80.45 L43.9 71.75 42.15 68.25 40.25 66.75 Q39.45 66.3 38.6 65.95 M28.5 92.85 L26.95 94.4 M37.15 108.8 L35.4 109.05 Q33.15 107.6 31.65 106.0 29.7 103.95 28.95 101.75 L28.5 92.85 33.2 87.95 34.3 86.85 M87.9 52.1 L82.85 57.7 81.2 59.45 57.75 55.8 64.75 47.45 87.9 52.1 86.4 75.8 85.9 84.1 85.55 84.9 83.5 90.0 82.75 91.85 74.7 111.55 Q70.45 116.7 67.8 118.35 L66.45 119.0 65.4 119.05 57.05 115.05 53.75 110.4 53.1 108.1 52.45 105.7 57.8 107.95 55.45 96.0 55.05 94.25 44.9 90.9 48.25 103.9 52.45 105.7 M73.55 91.75 L73.55 93.6 73.55 95.4 M51.65 80.45 L52.15 79.85 54.65 76.7 57.45 73.7 57.75 73.45 59.05 72.1 60.35 72.0 Q64.35 71.8 67.25 72.75 L71.0 76.1 73.55 80.1 73.55 81.1 73.55 91.75 M43.9 81.75 L43.9 83.35 43.9 91.3 43.9 95.4 45.25 95.4 44.1 101.9 44.85 105.8 53.1 108.1 M43.9 80.45 L43.9 81.75 M51.65 80.45 L48.7 84.7 46.65 87.95 45.3 90.3 44.9 90.9 M53.05 71.1 L43.9 80.45 M65.35 97.05 L66.4 95.6 M53.05 71.1 L57.75 55.8 M60.6 103.85 L63.4 99.75 64.3 98.5 65.35 97.05 M60.6 103.85 L57.8 107.95 M37.15 108.8 L34.9 106.4 M44.85 105.8 L43.4 107.75 37.15 108.8" fill="none" stroke="#000000" stroke-linecap="round" stroke-linejoin="round" stroke-opacity="0.3019608" stroke-width="0.30000000000000004"/>
      <path d="M10.0 75.65 L11.0 77.9 17.0 79.4 17.8 78.0 19.0 80.6 24.95 82.1 25.7 80.65 26.45 88.8 19.65 85.05 7.15 78.15 6.45 76.3 9.0 76.9 10.0 75.65 M13.7 91.1 L12.75 88.2 15.9 91.35 16.3 91.75 25.4 94.65 28.8 94.65 29.45 100.55 28.0 100.1 Q24.55 98.9 20.5 96.15 L17.15 93.75 13.7 91.1" fill="#1c5331" fill-rule="evenodd" stroke="none"/>
      <path d="M9.0 76.9 L7.0 70.9 7.75 68.25 9.65 66.1 11.55 65.0 13.4 65.95 11.8 66.45 11.7 66.6 8.75 70.3 8.0 71.25 10.0 75.65 9.0 76.9 M17.8 67.75 L19.7 67.5 21.25 68.35 19.65 68.95 16.0 73.95 17.8 78.0 17.0 79.4 14.5 72.65 14.5 72.0 17.15 68.7 17.8 67.75 M29.55 72.45 L30.15 73.1 31.45 80.9 30.5 83.45 28.1 89.95 27.4 85.25 Q29.4 80.65 29.55 72.45 M32.15 90.6 L32.8 96.7 30.2 100.3 29.7 93.75 32.15 90.6 M17.8 103.75 L13.7 91.1 17.15 93.75 20.5 96.15 29.45 102.8 29.45 105.05 28.55 106.45 25.25 107.6 17.8 103.75 M26.7 91.25 L26.7 92.6 25.4 94.65 16.3 91.75 15.9 91.35 10.5 84.8 9.1 81.0 15.3 86.25 26.7 91.25" fill="#246c41" fill-rule="evenodd" stroke="none"/>
      <path d="M27.7 70.4 L29.55 72.45 Q29.4 80.65 27.4 85.25 L26.45 79.25 28.15 76.75 26.45 79.25 25.7 80.65 24.95 82.1 23.55 79.75 23.1 78.9 Q22.7 75.65 23.55 73.25 L25.3 70.95 27.7 70.4 M31.45 80.9 L32.9 89.85 32.15 90.6 29.7 93.75 28.8 94.65 28.45 92.3 30.5 83.45 31.45 80.9 M32.8 96.7 L33.45 102.75 30.65 106.9 30.2 100.3 32.8 96.7 M26.45 88.8 L26.7 91.25 15.3 86.25 9.1 81.0 8.9 80.4 19.65 85.05 26.45 88.8" fill="#339328" fill-rule="evenodd" stroke="none"/>
      <path d="M0.0 68.75 L5.8 70.9 9.0 76.9 6.45 76.3 3.0 75.4 0.0 68.75 M9.65 66.1 L8.3 65.1 3.05 65.8 4.8 64.1 9.65 64.1 11.55 65.0 9.65 66.1 M11.7 66.6 L11.8 66.45 13.4 65.95 16.8 65.95 19.7 67.5 17.8 67.75 11.7 66.6 M10.0 75.65 L8.0 71.25 12.25 72.45 17.0 79.4 11.0 77.9 10.0 75.65 M21.25 68.35 L22.8 67.75 26.95 69.6 27.7 70.4 25.3 70.95 19.65 68.95 21.25 68.35 M16.0 73.95 L18.05 74.5 18.3 74.6 Q21.15 75.6 23.1 78.9 L23.55 79.75 24.95 82.1 19.0 80.6 17.8 78.0 16.0 73.95" fill="#75d74a" fill-rule="evenodd" stroke="none"/>
      <path d="M7.75 68.25 Q5.35 70.45 2.65 69.25 L1.35 67.45 3.05 65.8 8.3 65.1 9.65 66.1 7.75 68.25 M8.75 70.3 L11.7 66.6 17.8 67.75 17.15 68.7 12.9 71.55 8.75 70.3 M18.3 74.6 L18.05 74.5 16.0 73.95 19.65 68.95 25.3 70.95 23.55 73.25 Q21.85 75.75 18.3 74.6" fill="#9ae17b" fill-rule="evenodd" stroke="none"/>
      <path d="M1.35 67.45 L2.65 69.25 Q5.35 70.45 7.75 68.25 L7.0 70.9 9.0 76.9 5.8 70.9 0.0 68.75 1.35 67.45 M8.0 71.25 L8.75 70.3 12.9 71.55 17.15 68.7 14.5 72.0 14.5 72.65 17.0 79.4 12.25 72.45 8.0 71.25 M30.65 106.9 L24.65 108.75 17.8 103.75 25.25 107.6 28.55 106.45 29.45 105.05 29.45 102.8 20.5 96.15 Q24.55 98.9 28.0 100.1 L29.45 100.55 28.8 94.65 29.7 93.75 30.2 100.3 30.65 106.9 M23.1 78.9 Q21.15 75.6 18.3 74.6 21.85 75.75 23.55 73.25 22.7 75.65 23.1 78.9 M30.5 83.45 L28.45 92.3 28.8 94.65 25.4 94.65 26.7 92.6 26.7 91.25 26.45 88.8 25.7 80.65 26.45 79.25 27.4 85.25 28.1 89.95 30.5 83.45" fill="#d7f16b" fill-rule="evenodd" stroke="none"/>
      <path d="M12.75 88.2 L10.0 85.7 7.15 78.15 19.65 85.05 8.9 80.4 9.1 81.0 10.5 84.8 15.9 91.35 12.75 88.2" fill="#bce692" fill-rule="evenodd" stroke="none"/>
      <path d="M1.35 67.45 L0.0 68.75 3.0 75.4 6.45 76.3 9.0 76.9 10.0 75.65 11.0 77.9 17.0 79.4 17.8 78.0 19.0 80.6 24.95 82.1 25.7 80.65 26.45 79.25 28.15 76.75 M3.05 65.8 L1.35 67.45 M11.7 66.6 L11.8 66.45 13.4 65.95 11.55 65.0 9.65 64.1 4.8 64.1 3.05 65.8 M8.0 71.25 L8.75 70.3 11.7 66.6 M19.7 67.5 L16.8 65.95 13.4 65.95 M8.0 71.25 L10.0 75.65 M21.25 68.35 L22.8 67.75 26.95 69.6 27.7 70.4 29.55 72.45 30.15 73.1 31.45 80.9 32.9 89.85 32.15 90.6 32.8 96.7 33.45 102.75 30.65 106.9 24.65 108.75 17.8 103.75 13.7 91.1 12.75 88.2 10.0 85.7 7.15 78.15 6.45 76.3 M16.0 73.95 L17.8 78.0 M19.65 68.95 L16.0 73.95 M19.7 67.5 L21.25 68.35 19.65 68.95 M28.8 94.65 L29.7 93.75 32.15 90.6 M25.4 94.65 L28.8 94.65 M15.9 91.35 L16.3 91.75 25.4 94.65 M12.75 88.2 L15.9 91.35" fill="none" stroke="#000000" stroke-linecap="round" stroke-linejoin="round" stroke-opacity="0.3019608" stroke-width="0.30000000000000004"/>
      <path d="M42.3 101.1 L41.35 98.2 44.5 101.35 44.9 101.75 54.0 104.65 57.4 104.65 58.05 110.55 56.6 110.1 Q53.15 108.9 49.1 106.15 47.45 105.1 45.75 103.75 L42.3 101.1 M35.75 88.15 L35.05 86.3 37.6 86.9 38.6 85.65 39.6 87.9 45.6 89.4 46.4 88.0 47.6 90.6 53.55 92.1 54.3 90.65 55.05 98.8 48.25 95.05 35.75 88.15" fill="#1c5331" fill-rule="evenodd" stroke="none"/>
      <path d="M40.15 75.0 L42.0 75.95 40.4 76.45 40.3 76.6 37.35 80.3 36.6 81.25 38.6 85.65 37.6 86.9 35.6 80.9 36.35 78.25 38.25 76.1 40.15 75.0 M48.3 77.5 L49.85 78.35 48.25 78.95 44.6 83.95 46.4 88.0 45.6 89.4 43.1 82.65 43.1 82.0 45.75 78.7 46.4 77.75 48.3 77.5 M58.15 82.45 L58.75 83.1 60.05 90.9 59.1 93.45 56.7 99.95 56.0 95.25 Q58.0 90.65 58.15 82.45 M60.75 100.6 L61.4 106.7 58.8 110.3 58.3 103.75 60.75 100.6 M46.4 113.75 L42.3 101.1 45.75 103.75 Q47.45 105.1 49.1 106.15 L58.05 112.8 58.05 115.05 57.15 116.45 53.85 117.6 46.4 113.75 M55.3 101.25 L55.3 102.6 54.0 104.65 44.9 101.75 44.5 101.35 39.1 94.8 37.7 91.0 43.9 96.25 55.3 101.25" fill="#246c41" fill-rule="evenodd" stroke="none"/>
      <path d="M56.3 80.4 L58.15 82.45 Q58.0 90.65 56.0 95.25 L55.05 89.25 54.3 90.65 53.55 92.1 52.15 89.75 51.7 88.9 Q51.3 85.65 52.15 83.25 L53.9 80.95 56.3 80.4 M60.05 90.9 L61.5 99.85 60.75 100.6 58.3 103.75 57.4 104.65 57.05 102.3 59.1 93.45 60.05 90.9 M61.4 106.7 L62.05 112.75 59.25 116.9 58.8 110.3 61.4 106.7 M55.05 98.8 L55.3 101.25 43.9 96.25 37.7 91.0 37.5 90.4 48.25 95.05 55.05 98.8 M56.75 86.75 L55.05 89.25 56.75 86.75" fill="#339328" fill-rule="evenodd" stroke="none"/>
      <path d="M35.05 86.3 L31.6 85.4 28.6 78.75 34.4 80.9 37.6 86.9 35.05 86.3 M31.65 75.8 L33.4 74.1 38.25 74.1 40.15 75.0 38.25 76.1 36.9 75.1 31.65 75.8 M42.0 75.95 L45.4 75.95 48.3 77.5 46.4 77.75 40.3 76.6 40.4 76.45 42.0 75.95 M49.85 78.35 L51.4 77.75 55.55 79.6 56.3 80.4 53.9 80.95 48.25 78.95 49.85 78.35 M36.6 81.25 L40.85 82.45 45.6 89.4 39.6 87.9 38.6 85.65 36.6 81.25 M46.4 88.0 L44.6 83.95 46.65 84.5 46.9 84.6 Q49.75 85.6 51.7 88.9 L52.15 89.75 53.55 92.1 47.6 90.6 46.4 88.0" fill="#75d74a" fill-rule="evenodd" stroke="none"/>
      <path d="M29.95 77.45 L31.65 75.8 36.9 75.1 38.25 76.1 36.35 78.25 Q33.95 80.45 31.25 79.25 L29.95 77.45 M37.35 80.3 L40.3 76.6 46.4 77.75 45.75 78.7 41.5 81.55 37.35 80.3 M44.6 83.95 L48.25 78.95 53.9 80.95 52.15 83.25 Q50.45 85.75 46.9 84.6 L46.65 84.5 44.6 83.95" fill="#9ae17b" fill-rule="evenodd" stroke="none"/>
      <path d="M28.6 78.75 L29.95 77.45 31.25 79.25 Q33.95 80.45 36.35 78.25 L35.6 80.9 37.6 86.9 34.4 80.9 28.6 78.75 M59.25 116.9 L53.25 118.75 46.4 113.75 53.85 117.6 57.15 116.45 58.05 115.05 58.05 112.8 49.1 106.15 Q53.15 108.9 56.6 110.1 L58.05 110.55 57.4 104.65 54.0 104.65 55.3 102.6 55.3 101.25 55.05 98.8 54.3 90.65 55.05 89.25 56.0 95.25 56.7 99.95 59.1 93.45 57.05 102.3 57.4 104.65 58.3 103.75 58.8 110.3 59.25 116.9 M36.6 81.25 L37.35 80.3 41.5 81.55 45.75 78.7 43.1 82.0 43.1 82.65 45.6 89.4 40.85 82.45 36.6 81.25 M46.9 84.6 Q50.45 85.75 52.15 83.25 51.3 85.65 51.7 88.9 49.75 85.6 46.9 84.6" fill="#d7f16b" fill-rule="evenodd" stroke="none"/>
      <path d="M41.35 98.2 L38.6 95.7 35.75 88.15 48.25 95.05 37.5 90.4 37.7 91.0 39.1 94.8 44.5 101.35 41.35 98.2" fill="#bce692" fill-rule="evenodd" stroke="none"/>
      <path d="M35.05 86.3 L31.6 85.4 28.6 78.75 29.95 77.45 31.65 75.8 33.4 74.1 38.25 74.1 40.15 75.0 42.0 75.95 45.4 75.95 48.3 77.5 49.85 78.35 51.4 77.75 55.55 79.6 56.3 80.4 58.15 82.45 58.75 83.1 60.05 90.9 61.5 99.85 60.75 100.6 61.4 106.7 62.05 112.75 59.25 116.9 53.25 118.75 46.4 113.75 42.3 101.1 41.35 98.2 38.6 95.7 35.75 88.15 35.05 86.3 37.6 86.9 38.6 85.65 39.6 87.9 45.6 89.4 46.4 88.0 44.6 83.95 48.25 78.95 49.85 78.35 M40.3 76.6 L40.4 76.45 42.0 75.95 M36.6 81.25 L37.35 80.3 40.3 76.6 M36.6 81.25 L38.6 85.65 M55.05 89.25 L54.3 90.65 53.55 92.1 47.6 90.6 46.4 88.0 M54.0 104.65 L57.4 104.65 58.3 103.75 60.75 100.6 M55.05 89.25 L56.75 86.75 M44.5 101.35 L44.9 101.75 54.0 104.65 M41.35 98.2 L44.5 101.35" fill="none" stroke="#000000" stroke-linecap="round" stroke-linejoin="round" stroke-opacity="0.3019608" stroke-width="0.30000000000000004"/>
      <path d="M21.65 16.95 L26.45 21.1 Q30.4 32.5 30.95 45.8 L27.45 32.45 21.65 16.95" fill="#bce692" fill-rule="evenodd" stroke="none"/>
      <path d="M37.9 26.65 L37.9 27.95 26.45 21.1 21.65 16.95 19.65 15.25 19.6 13.45 26.45 19.15 Q31.9 23.25 37.9 26.65" fill="#d7f16b" fill-rule="evenodd" stroke="none"/>
      <path d="M30.95 45.8 Q23.7 44.6 19.45 34.65 19.85 23.65 19.65 15.25 L21.65 16.95 27.45 32.45 30.95 45.8" fill="#339328" fill-rule="evenodd" stroke="none"/>
      <path d="M37.9 27.95 L37.4 43.95 Q33.9 45.8 30.95 45.8 30.4 32.5 26.45 21.1 L37.9 27.95" fill="#246c41" fill-rule="evenodd" stroke="none"/>
      <path d="M19.6 13.45 L26.75 15.15 43.75 26.65 37.9 26.65 Q31.9 23.25 26.45 19.15 L19.6 13.45" fill="#75d74a" fill-rule="evenodd" stroke="none"/>
      <path d="M19.6 13.45 L26.75 15.15 43.75 26.65 37.9 26.65 37.9 27.95 37.4 43.95 Q33.9 45.8 30.95 45.8 23.7 44.6 19.45 34.65 19.85 23.65 19.65 15.25 L19.6 13.45 Z" fill="none" stroke="#000000" stroke-linecap="round" stroke-linejoin="round" stroke-opacity="0.3019608" stroke-width="0.30000000000000004"/>
      <path d="M52.2 61.0 L52.25 60.9 52.25 61.0 52.2 61.0" fill="#ffde4f" fill-rule="evenodd" stroke="none"/>
      <path d="M74.25 4.7 L74.25 4.6 74.3 4.6 74.25 4.7" fill="#1abb89" fill-rule="evenodd" stroke="none"/>
      <path d="M52.55 60.95 L52.4 61.05 52.25 61.0 52.25 60.9 52.2 61.0 51.3 60.75 52.25 60.9 52.55 60.95" fill="#9ee9cb" fill-rule="evenodd" stroke="none"/>
      <path d="M100.7 39.35 Q97.45 34.05 93.75 31.95 94.4 26.0 92.8 20.95 L104.05 33.4 Q104.4 38.4 102.65 43.05 L100.7 39.35" fill="#1c5331" fill-rule="evenodd" stroke="none"/>
      <path d="M52.4 61.05 L53.05 61.2 54.9 61.55 58.45 61.95 59.8 61.95 Q68.65 61.95 76.35 57.5 76.7 61.55 81.45 62.55 77.7 63.8 73.5 64.15 L71.5 64.25 70.5 64.25 Q59.7 64.6 52.55 61.6 L50.2 60.55 51.3 60.75 52.2 61.0 52.25 61.0 52.4 61.05" fill="#246c41" fill-rule="evenodd" stroke="none"/>
      <path d="M76.35 57.5 Q79.2 55.8 81.9 53.5 90.4 46.25 92.9 36.4 93.95 31.3 100.7 39.35 L102.65 43.05 Q101.25 46.65 98.55 50.1 91.1 59.3 81.45 62.55 76.7 61.55 76.35 57.5" fill="#339328" fill-rule="evenodd" stroke="none"/>
      <path d="M92.8 20.95 L92.65 20.6 Q91.15 16.3 88.0 12.65 85.15 9.3 81.5 7.3 78.2 5.45 74.25 4.7 L74.3 4.6 Q77.65 4.95 80.75 5.85 91.4 8.95 98.55 18.15 103.55 26.15 104.05 33.4 L92.8 20.95" fill="#77b35b" fill-rule="evenodd" stroke="none"/>
      <path d="M38.65 48.1 L41.6 49.5 41.85 49.6 43.6 50.25 44.6 50.4 44.85 50.45 49.45 50.8 50.8 50.8 Q62.2 50.3 71.55 42.35 81.45 33.9 83.25 21.9 83.95 17.2 83.25 13.1 90.1 20.95 88.4 32.1 86.75 43.25 77.55 51.05 68.85 58.55 58.25 58.95 L57.0 58.95 52.75 58.65 52.45 58.6 51.6 58.45 50.6 58.25 49.9 57.85 49.65 57.75 Q44.85 55.8 41.3 51.7 39.75 49.95 38.65 48.1" fill="#75d74a" fill-rule="evenodd" stroke="none"/>
      <path d="M38.65 48.1 Q37.75 46.5 37.15 44.85 35.1 39.35 36.1 32.7 37.75 21.6 47.0 13.7 56.2 5.8 67.5 5.8 L71.55 6.1 72.95 6.3 Q77.0 7.55 80.25 10.25 81.85 11.5 83.25 13.1 83.95 17.2 83.25 21.9 81.45 33.9 71.55 42.35 62.2 50.3 50.8 50.8 L49.45 50.8 44.85 50.45 44.6 50.4 43.6 50.25 41.85 49.6 41.6 49.5 38.65 48.1" fill="#9ae17b" fill-rule="evenodd" stroke="none"/>
      <path d="M83.25 13.1 Q81.85 11.5 80.25 10.25 77.0 7.55 72.95 6.3 L71.55 6.1 67.5 5.8 Q56.2 5.8 47.0 13.7 37.75 21.6 36.1 32.7 35.1 39.35 37.15 44.85 37.75 46.5 38.65 48.1 37.15 47.2 35.75 46.1 33.55 40.15 34.65 33.05 36.4 21.1 46.35 12.65 56.3 4.15 68.45 4.15 L72.75 4.45 73.1 4.5 74.25 4.7 Q78.2 5.45 81.5 7.3 85.15 9.3 88.0 12.65 91.15 16.3 92.65 20.6 L92.8 20.95 Q94.4 26.0 93.75 31.95 97.45 34.05 100.7 39.35 93.95 31.3 92.9 36.4 90.4 46.25 81.9 53.5 79.2 55.8 76.35 57.5 68.65 61.95 59.8 61.95 L58.45 61.95 54.9 61.55 53.05 61.2 52.4 61.05 52.55 60.95 57.1 61.25 58.45 61.25 Q69.85 60.8 79.2 52.8 89.15 44.35 90.9 32.4 92.7 20.45 85.35 12.0 L82.15 8.9 Q82.9 10.9 83.25 13.1" fill="#d7f16b" fill-rule="evenodd" stroke="none"/>
      <path d="M83.25 13.1 Q82.9 10.9 82.15 8.9 L85.35 12.0 Q92.7 20.45 90.9 32.4 89.15 44.35 79.2 52.8 69.85 60.8 58.45 61.25 L57.1 61.25 52.55 60.95 52.25 60.9 51.3 60.75 50.2 60.55 49.5 60.1 49.25 60.0 Q44.1 57.9 40.25 53.5 37.25 50.05 35.75 46.1 37.15 47.2 38.65 48.1 39.75 49.95 41.3 51.7 44.85 55.8 49.65 57.75 L49.9 57.85 50.6 58.25 51.6 58.45 52.45 58.6 52.75 58.65 57.0 58.95 58.25 58.95 Q68.85 58.55 77.55 51.05 86.75 43.25 88.4 32.1 90.1 20.95 83.25 13.1" fill="#bce692" fill-rule="evenodd" stroke="none"/>
      <path d="M74.25 4.7 L73.1 4.5 72.75 4.45 68.45 4.15 Q56.3 4.15 46.35 12.65 36.4 21.1 34.65 33.05 33.55 40.15 35.75 46.1 37.25 50.05 40.25 53.5 44.1 57.9 49.25 60.0 L49.5 60.1 50.2 60.55 52.55 61.6 Q59.7 64.6 70.5 64.25 L71.5 64.25 73.5 64.15 Q77.7 63.8 81.45 62.55 91.1 59.3 98.55 50.1 101.25 46.65 102.65 43.05 104.4 38.4 104.05 33.4 103.55 26.15 98.55 18.15 91.4 8.95 80.75 5.85 77.65 4.95 74.3 4.6 L74.25 4.6 73.7 4.5 74.25 4.7 M73.1 4.5 L73.7 4.5" fill="none" stroke="#000000" stroke-linecap="round" stroke-linejoin="round" stroke-opacity="0.3019608" stroke-width="0.30000000000000004"/>
      <path d="M50.55 16.0 Q52.1 16.15 53.5 16.75 55.65 17.65 57.25 19.7 59.3 22.35 59.45 25.8 L59.45 27.7 59.3 28.8 Q58.45 34.15 54.3 37.9 50.15 41.7 45.2 41.7 L44.9 41.7 Q40.85 41.55 38.25 38.9 L37.35 37.9 Q35.55 35.55 35.2 32.7 L34.9 31.2 34.85 29.2 34.85 29.1 35.0 27.8 Q35.35 25.6 36.3 23.8 37.4 21.65 39.35 19.85 41.75 17.6 44.55 16.9 45.75 16.4 47.0 16.15 L49.35 15.9 50.55 16.0" fill="#246c41" fill-rule="evenodd" stroke="none"/>
      <path d="M53.75 27.2 L53.8 27.25 53.7 27.35 53.75 27.2" fill="#ecbd02" fill-rule="evenodd" stroke="none"/>
      <path d="M44.1 15.7 L46.6 15.35 47.55 15.4 Q49.1 15.55 50.3 16.25 51.35 16.75 52.15 17.75 L52.8 18.6 Q54.95 21.8 53.9 26.35 L53.75 27.2 53.7 27.35 Q52.5 31.3 49.35 34.15 47.1 36.2 44.65 36.95 53.1 32.4 52.7 22.95 52.6 19.2 49.65 17.1 L49.9 17.6 50.6 18.85 50.35 20.95 50.15 21.8 Q49.1 25.25 46.3 27.75 43.2 30.6 39.65 30.6 L37.3 30.25 Q34.35 28.95 35.9 22.45 37.05 20.35 39.0 18.6 41.45 16.4 44.1 15.7 M34.15 27.75 L34.2 27.65 34.25 27.75 34.15 27.75" fill="#ffde4f" fill-rule="evenodd" stroke="none"/>
      <path d="M53.75 27.2 L53.9 26.35 Q54.95 21.8 52.8 18.6 L52.15 17.75 Q51.35 16.75 50.3 16.25 49.1 15.55 47.55 15.4 L46.6 15.35 44.1 15.7 Q45.2 15.2 46.4 14.95 L48.6 14.7 49.7 14.8 Q51.2 14.95 52.45 15.55 54.4 16.45 55.7 18.45 57.4 21.05 57.4 24.45 L57.2 26.3 Q54.9 29.25 53.8 27.25 L53.75 27.2 M50.6 18.85 L49.9 17.6 49.65 17.1 Q52.6 19.2 52.7 22.95 53.1 32.4 44.65 36.95 L41.7 37.4 40.75 37.35 38.45 36.75 Q36.7 35.95 35.55 34.15 34.6 32.8 34.3 31.15 L34.15 29.75 34.9 31.15 Q35.85 32.7 37.4 33.45 38.65 34.0 40.25 34.0 43.8 34.0 46.95 31.15 49.7 28.65 50.75 25.2 L50.95 24.35 Q51.6 21.2 50.6 18.85" fill="#f4a33c" fill-rule="evenodd" stroke="none"/>
      <path d="M34.3 31.15 Q34.6 32.8 35.55 34.15 36.7 35.95 38.45 36.75 L40.75 37.35 Q43.9 38.1 42.75 40.0 39.0 39.9 36.7 37.3 L35.95 36.3 Q34.45 34.0 34.3 31.15" fill="#cc6b22" fill-rule="evenodd" stroke="none"/>
      <path d="M53.8 27.25 Q54.9 29.25 57.2 26.3 L57.0 27.4 Q55.9 32.6 51.8 36.3 47.65 40.0 43.0 40.0 L42.75 40.0 Q43.9 38.1 40.75 37.35 L41.7 37.4 44.65 36.95 Q47.1 36.2 49.35 34.15 52.5 31.3 53.7 27.35 L53.8 27.25" fill="#a34100" fill-rule="evenodd" stroke="none"/>
      <path d="M35.9 22.45 Q34.35 28.95 37.3 30.25 L39.65 30.6 Q43.2 30.6 46.3 27.75 49.1 25.25 50.15 21.8 L50.35 20.95 50.6 18.85 Q51.6 21.2 50.95 24.35 L50.75 25.2 Q49.7 28.65 46.95 31.15 43.8 34.0 40.25 34.0 38.65 34.0 37.4 33.45 35.85 32.7 34.9 31.15 L34.15 29.75 34.15 27.75 34.25 27.75 34.2 27.65 34.4 26.35 Q34.9 24.25 35.9 22.45" fill="#ffff98" fill-rule="evenodd" stroke="none"/>
      <path d="M57.2 26.3 L57.4 24.45 Q57.4 21.05 55.7 18.45 54.4 16.45 52.45 15.55 51.2 14.95 49.7 14.8 L48.6 14.7 46.4 14.95 Q45.2 15.2 44.1 15.7 41.45 16.4 39.0 18.6 37.05 20.35 35.9 22.45 34.9 24.25 34.4 26.35 L34.2 27.65 34.15 27.75 34.15 29.75 34.3 31.15 Q34.45 34.0 35.95 36.3 L36.7 37.3 Q39.0 39.9 42.75 40.0 L43.0 40.0 Q47.65 40.0 51.8 36.3 55.9 32.6 57.0 27.4 L57.2 26.3 M53.7 27.35 L53.75 27.2" fill="none" stroke="#000000" stroke-linecap="round" stroke-linejoin="round" stroke-opacity="0.3019608" stroke-width="0.30000000000000004"/>
      <path d="M53.75 27.2 L53.8 27.25" fill="none" stroke="#ff0000" stroke-linecap="round" stroke-linejoin="round" stroke-width="0.05"/>
      <path d="M44.95 21.4 Q44.15 22.8 42.55 23.8 40.9 24.75 39.4 24.7 37.9 24.55 37.4 23.45 36.9 22.35 37.6 20.95 38.4 19.45 40.05 18.5 41.65 17.5 43.15 17.65 44.65 17.7 45.15 18.8 45.65 19.9 44.95 21.4" fill="#ffff98" fill-rule="evenodd" stroke="none"/>
      <path d="M116.75 34.15 L118.8 32.95 115.6 40.6 109.25 55.25 113.95 59.8 108.55 56.85 Q101.5 62.0 92.85 61.55 102.4 60.4 107.8 55.7 L115.1 38.1 116.75 34.15" fill="#d7f16b" fill-rule="evenodd" stroke="none"/>
      <path d="M118.8 32.95 L121.3 33.55 Q124.4 34.7 126.75 36.6 L120.0 51.75 115.6 40.6 118.8 32.95 M116.0 60.8 Q103.25 67.25 92.85 61.55 101.5 62.0 108.55 56.85 L113.95 59.8 116.0 60.8" fill="#246c41" fill-rule="evenodd" stroke="none"/>
      <path d="M120.0 51.75 L116.0 60.8 113.95 59.8 109.25 55.25 115.6 40.6 120.0 51.75" fill="#339328" fill-rule="evenodd" stroke="none"/>
      <path d="M92.85 61.55 L91.1 60.55 89.2 58.75 90.85 56.35 100.1 47.45 Q108.1 41.5 115.1 38.1 L107.8 55.7 Q102.4 60.4 92.85 61.55" fill="#75d74a" fill-rule="evenodd" stroke="none"/>
      <path d="M89.2 58.75 Q87.0 56.25 85.2 52.3 90.2 47.45 93.0 42.2 L95.05 41.9 Q102.1 40.45 109.25 37.5 L95.8 49.1 90.85 56.35 89.2 58.75" fill="#9ae17b" fill-rule="evenodd" stroke="none"/>
      <path d="M109.25 37.5 Q112.95 36.05 116.75 34.15 L115.1 38.1 Q108.1 41.5 100.1 47.45 L90.85 56.35 95.8 49.1 109.25 37.5" fill="#bce692" fill-rule="evenodd" stroke="none"/>
      <path d="M116.75 34.15 L118.8 32.95 121.3 33.55 Q124.4 34.7 126.75 36.6 L120.0 51.75 116.0 60.8 Q103.25 67.25 92.85 61.55 L91.1 60.55 89.2 58.75 Q87.0 56.25 85.2 52.3 90.2 47.45 93.0 42.2 L95.05 41.9 Q102.1 40.45 109.25 37.5 112.95 36.05 116.75 34.15 Z" fill="none" stroke="#000000" stroke-linecap="round" stroke-linejoin="round" stroke-opacity="0.3019608" stroke-width="0.30000000000000004"/>
      <path d="M60.15 27.65 Q62.25 22.8 65.0 18.6 66.5 16.25 68.25 14.15 59.65 27.85 56.55 44.8 L55.25 44.8 Q56.8 35.45 60.15 27.65" fill="#d7f16b" fill-rule="evenodd" stroke="none"/>
      <path d="M68.25 14.15 L68.75 13.45 61.05 44.8 56.55 44.8 Q59.65 27.85 68.25 14.15" fill="#246c41" fill-rule="evenodd" stroke="none"/>
      <path d="M60.15 27.65 L48.3 32.15 Q48.9 30.05 49.75 28.0 L65.0 18.6 Q62.25 22.8 60.15 27.65" fill="#339328" fill-rule="evenodd" stroke="none"/>
      <path d="M48.3 32.15 L60.15 27.65 Q56.8 35.45 55.25 44.8 L46.25 42.55 Q46.75 37.15 48.3 32.15" fill="#75d74a" fill-rule="evenodd" stroke="none"/>
      <path d="M65.0 18.6 L49.75 28.0 Q53.05 19.7 59.4 12.15 L68.75 13.45 68.25 14.15 Q66.5 16.25 65.0 18.6" fill="#9ae17b" fill-rule="evenodd" stroke="none"/>
      <path d="M49.75 28.0 Q48.9 30.05 48.3 32.15 46.75 37.15 46.25 42.55 L55.25 44.8 56.55 44.8 61.05 44.8 68.75 13.45 68.25 14.15 M59.4 12.15 Q53.05 19.7 49.75 28.0 Z" fill="none" stroke="#000000" stroke-linecap="round" stroke-linejoin="round" stroke-opacity="0.3019608" stroke-width="0.30000000000000004"/>
      <path d="M73.05 22.9 Q74.35 22.35 75.7 22.1 L78.2 21.85 79.5 21.95 82.7 22.7 Q85.05 23.7 86.75 25.85 88.95 28.65 89.15 32.3 L89.15 34.3 88.95 35.45 Q88.05 41.1 83.6 45.05 79.1 49.05 73.7 49.05 L73.4 49.05 Q69.05 48.9 66.25 46.1 L65.25 45.05 Q63.3 42.6 62.95 39.55 L62.6 38.0 62.5 35.9 62.55 35.75 62.7 34.4 Q63.1 32.1 64.1 30.15 65.3 27.9 67.4 26.0 70.0 23.65 73.05 22.9" fill="#246c41" fill-rule="evenodd" stroke="none"/>
      <path d="M84.6 33.8 L84.65 33.9 84.55 33.95 84.6 33.8" fill="#ecbd02" fill-rule="evenodd" stroke="none"/>
      <path d="M72.45 21.45 L75.4 21.05 76.45 21.1 Q78.25 21.25 79.7 22.0 L82.0 23.65 82.8 24.55 Q85.55 28.0 84.7 32.9 L84.6 33.8 84.55 33.95 Q83.5 38.2 80.0 41.3 77.55 43.5 74.75 44.35 84.2 39.4 83.05 29.2 82.6 25.2 79.0 22.95 L79.4 23.45 80.3 24.85 80.15 27.1 80.0 28.0 Q79.05 31.7 76.0 34.4 72.65 37.45 68.55 37.45 L65.75 37.1 Q62.2 35.65 63.5 28.7 64.75 26.4 66.8 24.55 69.45 22.2 72.45 21.45 M62.0 34.3 L62.05 34.4 61.95 34.4 62.0 34.3" fill="#ffde4f" fill-rule="evenodd" stroke="none"/>
      <path d="M84.6 33.8 L84.7 32.9 Q85.55 28.0 82.8 24.55 L82.0 23.65 79.7 22.0 Q78.25 21.25 76.45 21.1 L75.4 21.05 72.45 21.45 75.1 20.65 77.65 20.4 78.95 20.45 82.15 21.25 Q84.45 22.2 86.15 24.4 88.4 27.15 88.6 30.85 L88.55 32.85 Q86.1 36.05 84.65 33.9 L84.6 33.8 M80.3 24.85 L79.4 23.45 79.0 22.95 Q82.6 25.2 83.05 29.2 84.2 39.4 74.75 44.35 L71.45 44.8 70.3 44.75 67.6 44.1 Q65.5 43.2 64.0 41.3 62.85 39.85 62.35 38.1 L62.05 36.55 63.0 38.1 Q64.3 39.75 66.15 40.55 L69.5 41.1 Q73.55 41.1 76.95 38.1 80.0 35.4 80.95 31.65 L81.1 30.75 Q81.65 27.4 80.3 24.85" fill="#f4a33c" fill-rule="evenodd" stroke="none"/>
      <path d="M62.35 38.1 Q62.85 39.85 64.0 41.3 65.5 43.2 67.6 44.1 L70.3 44.75 Q74.05 45.55 72.8 47.6 68.5 47.45 65.65 44.65 L64.65 43.6 Q62.75 41.1 62.35 38.1" fill="#cc6b22" fill-rule="evenodd" stroke="none"/>
      <path d="M84.65 33.9 Q86.1 36.05 88.55 32.85 L88.4 34.0 Q87.45 39.6 83.0 43.6 78.5 47.6 73.15 47.6 L72.8 47.6 Q74.05 45.55 70.3 44.75 L71.45 44.8 74.75 44.35 Q77.55 43.5 80.0 41.3 83.5 38.2 84.55 33.95 L84.65 33.9" fill="#a34100" fill-rule="evenodd" stroke="none"/>
      <path d="M63.5 28.7 Q62.2 35.65 65.75 37.1 L68.55 37.45 Q72.65 37.45 76.0 34.4 79.05 31.7 80.0 28.0 L80.15 27.1 80.3 24.85 Q81.65 27.4 81.1 30.75 L80.95 31.65 Q80.0 35.4 76.95 38.1 73.55 41.1 69.5 41.1 L66.15 40.55 Q64.3 39.75 63.0 38.1 L62.05 36.55 61.95 34.4 62.05 34.4 62.0 34.3 62.1 32.9 Q62.5 30.65 63.5 28.7" fill="#ffff98" fill-rule="evenodd" stroke="none"/>
      <path d="M88.55 32.85 L88.6 30.85 Q88.4 27.15 86.15 24.4 84.45 22.2 82.15 21.25 L78.95 20.45 77.65 20.4 75.1 20.65 72.45 21.45 Q69.45 22.2 66.8 24.55 64.75 26.4 63.5 28.7 62.5 30.65 62.1 32.9 L62.0 34.3 61.95 34.4 62.05 36.55 62.35 38.1 Q62.75 41.1 64.65 43.6 L65.65 44.65 Q68.5 47.45 72.8 47.6 L73.15 47.6 Q78.5 47.6 83.0 43.6 87.45 39.6 88.4 34.0 L88.55 32.85 M84.55 33.95 L84.6 33.8" fill="none" stroke="#000000" stroke-linecap="round" stroke-linejoin="round" stroke-opacity="0.3019608" stroke-width="0.30000000000000004"/>
      <path d="M84.6 33.8 L84.65 33.9" fill="none" stroke="#ff0000" stroke-linecap="round" stroke-linejoin="round" stroke-width="0.05"/>
      <path d="M74.0 27.55 Q73.25 29.1 71.45 30.1 69.65 31.15 67.9 31.1 66.2 30.95 65.5 29.75 64.8 28.6 65.55 27.05 66.35 25.5 68.15 24.45 69.95 23.45 71.65 23.5 73.45 23.6 74.15 24.75 74.85 25.95 74.0 27.55" fill="#ffff98" fill-rule="evenodd" stroke="none"/>
      <path d="M66.9 51.1 Q66.8 54.3 63.9 54.1 L42.3 49.75 Q39.8 48.85 39.25 46.6 40.1 44.05 43.6 44.8 L66.4 50.1 66.9 51.1 M62.4 52.1 L63.9 51.45 42.45 46.55 42.0 47.35 62.4 52.1" fill="#75d74a" fill-rule="evenodd" stroke="none"/>
      <path d="M64.9 55.05 L63.55 55.1 57.25 53.75 42.75 50.6 39.65 49.2 Q39.15 48.1 39.25 46.6 39.8 48.85 42.3 49.75 L63.9 54.1 Q66.8 54.3 66.9 51.1 L67.35 52.1 67.75 52.95 Q66.6 54.8 64.9 55.05" fill="#d7f16b" fill-rule="evenodd" stroke="none"/>
      <path d="M67.35 52.1 L66.9 51.1 66.4 50.1 Q68.7 51.2 69.0 52.85 L67.35 52.1 M42.0 47.35 L42.45 46.55 63.9 51.45 62.4 52.1 42.0 47.35" fill="#339328" fill-rule="evenodd" stroke="none"/>
      <path d="M64.9 55.05 Q66.6 54.8 67.75 52.95 L67.35 52.1 69.0 52.85 Q69.15 53.6 68.9 54.45 68.0 56.15 66.45 56.55 L64.9 55.05 M39.65 49.2 L42.75 50.6 57.25 53.75 57.9 55.05 41.9 51.3 Q40.3 50.55 39.65 49.2" fill="#246c41" fill-rule="evenodd" stroke="none"/>
      <path d="M57.25 53.75 L63.55 55.1 64.9 55.05 66.45 56.55 63.9 56.45 57.9 55.05 57.25 53.75" fill="#1c5331" fill-rule="evenodd" stroke="none"/>
      <path d="M39.25 46.6 Q39.15 48.1 39.65 49.2 40.3 50.55 41.9 51.3 L57.9 55.05 63.9 56.45 66.45 56.55 Q68.0 56.15 68.9 54.45 69.15 53.6 69.0 52.85 68.7 51.2 66.4 50.1 L43.6 44.8 Q40.1 44.05 39.25 46.6 M42.0 47.35 L62.4 52.1" fill="none" stroke="#000000" stroke-linecap="round" stroke-linejoin="round" stroke-opacity="0.3019608" stroke-width="0.30000000000000004"/>
    </g>
    <g id="sprite1" transform="matrix(1.0, 0.0, 0.0, 1.0, 37.15, 38.8)">
      <use height="78.5" transform="matrix(1.0, 0.0, 0.0, 1.0, -37.15, -38.8)" width="75.15" xlink:href="#shape3"/>
    </g>
    <g id="shape3" transform="matrix(1.0, 0.0, 0.0, 1.0, 37.15, 38.8)">
      <path d="M5.5 -21.3 L6.0 -20.8 5.8 -19.95 6.5 -19.55 4.7 -17.8 7.55 -16.65 7.55 -18.2 10.3 -19.05 9.5 -20.2 10.55 -21.2 8.5 -22.55 7.35 -23.3 8.95 -25.55 9.1 -25.45 13.6 -26.95 12.2 -29.4 16.35 -29.65 18.2 -33.85 20.45 -33.65 22.0 -32.15 26.35 -31.7 26.95 -24.75 24.4 -23.25 23.95 -19.55 27.05 -18.1 31.75 -21.8 36.0 -19.75 37.4 -15.55 36.1 -12.8 33.9 -11.65 33.5 -11.8 33.5 -14.1 31.6 -13.25 31.6 -11.15 32.05 -10.7 31.05 -10.2 29.8 -7.55 32.4 -4.3 36.9 -5.2 38.0 -3.25 37.7 -1.1 36.25 -2.75 34.9 -1.2 36.05 0.25 35.0 4.15 37.05 8.3 34.3 10.35 34.25 10.4 32.35 8.75 29.6 9.85 29.6 13.3 33.8 16.0 33.75 20.7 31.25 23.8 28.9 23.8 27.35 22.25 29.45 20.5 28.7 19.7 26.6 20.15 25.85 18.95 24.95 20.3 23.5 20.3 23.2 18.95 25.85 16.85 25.2 15.5 23.25 16.4 22.45 15.1 19.1 18.25 18.4 19.85 20.5 19.4 20.55 21.75 22.2 22.85 21.75 24.05 23.85 27.75 22.85 29.55 21.25 30.2 19.15 33.85 20.15 36.05 10.7 36.05 13.75 39.1 8.2 39.1 5.3 37.25 5.6 37.5 3.55 39.7 1.8 36.65 -2.75 38.15 -3.1 37.1 -1.7 36.4 -6.95 35.3 -5.9 33.8 -5.95 33.65 -3.4 32.5 -4.8 31.0 -3.25 29.8 -0.4 32.15 1.0 30.05 -0.35 28.4 0.5 27.2 0.2 26.75 2.3 25.3 6.35 26.1 4.75 20.4 5.8 19.7 4.7 14.05 1.95 11.95 -0.1 13.85 2.45 15.65 1.0 19.0 -0.1 18.05 -2.3 21.2 -0.1 22.55 -1.3 25.05 -3.8 25.4 -3.8 27.25 -3.2 27.9 -4.95 29.65 -5.75 27.95 -7.6 27.95 -7.6 30.85 -7.1 31.55 -9.2 32.95 -10.15 30.6 -13.6 30.85 -14.3 32.65 -17.1 33.5 -21.95 29.8 -20.9 28.55 -22.0 27.55 -21.0 26.05 -21.25 23.15 -25.1 21.65 -25.2 21.7 -28.6 24.65 -30.5 23.5 -31.9 20.1 -30.7 17.65 -31.7 13.75 -30.6 12.3 -31.9 10.75 -32.0 10.65 -33.15 9.2 -31.9 9.2 -29.65 6.2 -31.6 3.4 -37.15 4.15 -35.8 1.45 -36.8 -2.45 -35.7 -3.9 -37.0 -5.45 -36.8 -5.75 -31.1 -5.45 -29.8 -6.35 -29.35 -5.05 -27.35 -6.2 -26.45 -4.7 -23.85 -7.25 -21.65 -9.35 -20.45 -10.5 -20.5 -12.65 -21.5 -11.75 -22.1 -12.8 -23.3 -12.5 -23.85 -14.7 -25.9 -15.9 -27.15 -15.2 -28.3 -15.9 -28.75 -15.6 -29.05 -16.0 -29.05 -19.4 -29.15 -19.6 -27.4 -20.45 -24.5 -18.5 -21.7 -20.8 -19.0 -18.1 -15.4 -23.7 -17.8 -24.7 -16.0 -26.75 -16.3 -28.1 -15.45 -29.1 -17.85 -32.2 -17.0 -33.95 -19.9 -34.15 -18.55 -35.5 -16.35 -35.2 -14.35 -38.8 -11.7 -38.45 -12.2 -37.9 -9.05 -35.05 -10.15 -33.8 -5.3 -30.1 -1.85 -31.15 -1.0 -28.7 3.65 -30.95 3.25 -29.8 4.25 -29.8 2.6 -26.1 4.3 -24.95 3.15 -23.55 4.1 -22.6 5.5 -21.3 M17.45 -26.5 L17.45 -28.8 15.5 -27.95 15.5 -25.85 17.45 -23.95 19.1 -25.85 17.45 -26.5 M23.75 -7.85 L23.75 -10.15 21.8 -9.3 21.8 -7.15 23.75 -5.3 25.4 -7.15 23.75 -7.85 M22.4 -18.85 L22.4 -21.1 20.5 -20.3 20.5 -18.15 22.45 -16.3 24.1 -18.15 22.4 -18.85 M19.95 -1.4 L19.95 -0.65 18.05 1.25 17.05 -0.05 15.8 1.15 15.8 3.55 17.0 4.25 17.0 5.65 19.2 6.6 19.8 4.6 18.9 3.4 20.5 0.1 22.55 0.1 21.15 -0.95 19.95 -1.4 M3.7 -19.1 L1.85 -19.1 1.85 -16.25 3.85 -15.5 4.85 -17.4 3.7 -19.1 M20.75 -5.65 L19.9 -4.25 23.15 -3.1 20.75 -5.65 M25.75 -1.6 L24.2 -2.05 23.95 0.1 22.55 1.15 22.55 1.65 23.95 5.3 27.25 5.3 27.65 6.25 31.6 4.25 25.6 2.5 26.9 1.1 24.95 -0.05 25.75 -1.6 M-8.35 10.7 L-6.35 11.45 -5.35 9.55 -6.5 7.85 -8.35 7.85 -8.35 10.7 M-23.8 -2.9 L-23.8 -0.05 -21.75 0.7 -20.75 -1.2 -21.95 -2.9 -23.8 -2.9 M-20.45 -10.45 L-20.45 -7.6 -18.4 -6.85 -17.4 -8.75 -18.55 -10.45 -20.45 -10.45 M-10.5 20.95 L-9.4 23.05 -7.0 21.55 -6.15 23.05 -3.2 21.5 -4.25 19.85 -6.35 20.2 -6.8 16.45 -7.15 16.3 -6.75 14.85 -9.85 14.2 -12.65 18.05 -11.8 21.2 -10.5 20.95 M11.4 13.85 L11.0 11.95 7.1 14.9 8.15 16.3 8.15 18.0 10.8 21.25 13.85 20.3 14.2 20.55 13.6 22.7 15.55 23.8 17.8 21.8 16.9 20.3 16.45 19.4 14.5 18.95 15.8 17.75 14.05 16.15 14.0 16.25 13.65 16.05 11.75 15.55 11.45 14.15 11.4 13.85 M-19.85 12.4 L-20.05 12.15 -20.9 12.7 -20.8 12.9 -19.85 12.4 M-17.2 23.25 L-19.05 23.25 -19.05 26.1 -17.0 26.85 -16.0 24.95 -17.2 23.25" fill="url(#gradient0)" fill-rule="evenodd" stroke="none"/>
      <path d="M5.5 -21.3 L4.1 -22.6 4.75 -23.35 8.5 -22.55 8.2 -22.4 5.5 -21.3 M-21.65 -9.35 L-23.85 -7.25 -24.05 -7.15 -24.35 -9.25 -25.95 -9.8 -28.0 -10.5 -27.95 -12.0 -24.1 -13.25 -23.85 -12.9 -25.15 -12.0 -23.95 -10.75 -22.7 -10.85 -21.65 -9.35 M7.6 -21.25 L7.65 -21.1 7.55 -21.2 7.6 -21.25 M11.4 13.85 L11.45 14.15 11.3 14.45 11.4 13.85" fill="url(#gradient1)" fill-rule="evenodd" stroke="none"/>
    </g>
    <radialGradient cx="0" cy="0" gradientTransform="matrix(0.0504, 0.0, 0.0, 0.0504, -0.1, -0.1)" gradientUnits="userSpaceOnUse" id="gradient0" r="819.2" spreadMethod="pad">
      <stop offset="0.5215686274509804" stop-color="#133a01" stop-opacity="0.4509804"/>
      <stop offset="1.0" stop-color="#221e00" stop-opacity="0.0"/>
    </radialGradient>
    <radialGradient cx="0" cy="0" gradientTransform="matrix(0.042, 0.0, 0.0, 0.042, 0.0, 0.0)" gradientUnits="userSpaceOnUse" id="gradient1" r="819.2" spreadMethod="pad">
      <stop offset="0.5215686274509804" stop-color="#133a01" stop-opacity="0.4509804"/>
      <stop offset="1.0" stop-color="#221e00" stop-opacity="0.0"/>
    </radialGradient>
    <g id="sprite3" transform="matrix(1.0, 0.0, 0.0, 1.0, 0.0, 0.0)">
      <use height="26.7" transform="matrix(0.0042, -1.3515, 1.3935, 0.02, 22.09, 56.0263)" width="26.7" xlink:href="#sprite4"/>
      <use height="26.7" transform="matrix(0.0095, -3.0486, 0.372, 0.0053, 36.507, 81.3775)" width="26.7" xlink:href="#sprite4"/>
      <use height="26.7" transform="matrix(3.0486, 0.0095, -0.0053, 0.372, 0.1225, 35.107)" width="26.7" xlink:href="#sprite4"/>
    </g>
    <g id="sprite4" transform="matrix(1.0, 0.0, 0.0, 1.0, 13.35, 13.35)">
      <use height="26.7" transform="matrix(1.0, 0.0, 0.0, 1.0, -13.35, -13.35)" width="26.7" xlink:href="#shape4"/>
    </g>
    <g id="shape4" transform="matrix(1.0, 0.0, 0.0, 1.0, 13.35, 13.35)">
      <path d="M9.3 -9.85 Q13.35 -5.8 13.35 0.0 13.35 5.8 9.3 9.3 5.8 13.35 0.0 13.35 -5.8 13.35 -9.85 9.3 -13.35 5.8 -13.35 0.0 -13.35 -5.8 -9.85 -9.85 -5.8 -13.35 0.0 -13.35 5.8 -13.35 9.3 -9.85" fill="url(#gradient2)" fill-rule="evenodd" stroke="none"/>
    </g>
    <radialGradient cx="0" cy="0" gradientTransform="matrix(0.0213, 0.0, 0.0, 0.0213, 0.0, 0.0)" gradientUnits="userSpaceOnUse" id="gradient2" r="819.2" spreadMethod="pad">
      <stop offset="0.19607843137254902" stop-color="#fee3bc" stop-opacity="0.41960785"/>
      <stop offset="0.5019607843137255" stop-color="#fee3bc" stop-opacity="0.06666667"/>
      <stop offset="0.7607843137254902" stop-color="#ffe3bd" stop-opacity="0.0"/>
    </radialGradient>
    <g id="sprite5" transform="matrix(1.0, 0.0, 0.0, 1.0, 85.6, 112.35)">
      <use height="151.65" transform="matrix(1.0, 0.0, 0.0, 1.0, -87.1, -113.85)" width="244.35" xlink:href="#shape5"/>
    </g>
    <g id="shape5" transform="matrix(1.0, 0.0, 0.0, 1.0, 87.1, 113.85)">
      <path d="M-53.75 -30.55 L-29.85 -28.45 -16.6 -31.2 -21.35 -27.75 -21.65 -27.75 -21.65 -27.7 -24.35 -27.95 -29.85 -28.45 -33.65 -27.65 -43.75 -27.65 -46.4 -27.65 -46.05 -27.35 -48.15 -27.1 -63.95 -25.95 -48.15 -27.1 -46.05 -27.35 -46.0 -27.3 -45.85 -27.2 -32.95 -16.65 -9.75 -22.6 4.5 -22.1 8.15 -21.3 30.1 -20.3 31.05 -20.15 32.85 -19.9 39.35 -20.7 32.25 -14.05 21.3 -13.85 14.75 -10.75 5.9 -17.75 -5.6 -18.4 -6.6 -18.45 -44.45 -13.7 -32.95 -16.65 -44.45 -13.7 -57.9 -10.25 -63.95 -8.7 -58.05 -14.15 -63.25 -18.85 -84.1 -20.0 -78.0 -21.05 -62.6 -24.8 -80.0 -25.9 -72.5 -25.75 -63.95 -25.6 -63.95 -25.95 -63.95 -31.45 -53.75 -30.55 M91.9 -10.7 L71.75 -18.65 57.2 -19.85 39.35 -20.65 39.35 -20.7 43.25 -21.2 63.5 -23.8 75.05 -19.2 86.65 -14.55 89.05 -12.75 86.65 -14.55 75.05 -19.2 83.05 -26.3 87.0 -26.8 88.55 -27.0 88.5 -27.0 89.55 -27.15 89.05 -27.05 98.05 -25.85 82.65 -23.15 81.2 -19.5 83.4 -18.85 89.05 -12.75 91.9 -10.7 M-48.15 -27.1 L-46.0 -27.3 -48.15 -27.1" fill="#242318" fill-opacity="0.28235295" fill-rule="evenodd" stroke="none"/>
      <path d="M-9.75 -22.6 L-32.95 -16.65 -45.85 -27.2 -46.0 -27.3 -46.05 -27.35 -46.4 -27.65 -43.75 -27.65 -33.65 -27.65 -24.35 -27.95 -21.65 -27.7 -21.35 -27.7 -1.15 -24.8 -9.75 -22.6 M75.05 -19.2 L63.5 -23.8 83.05 -26.3 75.05 -19.2 M-46.05 -27.35 L-43.75 -27.65 -46.05 -27.35" fill="#242318" fill-opacity="0.4117647" fill-rule="evenodd" stroke="none"/>
      <path d="M94.2 -55.7 L69.05 -56.25 74.1 -35.15 102.3 -31.05 86.3 -32.35 68.85 -33.7 67.7 -36.6 66.1 -40.6 65.3 -42.6 64.65 -44.3 63.55 -49.1 62.15 -49.95 60.75 -54.1 60.7 -54.25 51.8 -50.05 48.7 -50.4 33.9 -46.05 26.2 -49.35 27.0 -51.05 14.25 -51.3 2.5 -47.15 -2.25 -41.75 -5.45 -37.4 -7.1 -37.15 -8.75 -36.95 -16.6 -31.2 -29.85 -28.45 -53.75 -30.55 -19.6 -44.2 Q-17.1 -52.1 -19.6 -58.05 L-8.9 -56.65 Q-7.3 -66.7 -14.0 -75.7 L0.6 -72.8 15.4 -75.7 34.95 -86.95 43.8 -83.65 47.4 -75.4 65.35 -64.75 69.6 -64.75 70.65 -64.75 74.1 -59.7 92.35 -59.7 94.2 -55.7 M93.1 -9.8 L94.8 -8.55 97.1 -6.85 58.9 16.4 58.9 8.3 29.2 -3.1 -4.85 4.8 -25.15 -2.35 -54.2 2.15 -57.9 -10.25 -44.45 -13.7 -6.6 -18.45 -5.6 -18.4 -23.6 -12.5 -18.15 -4.55 5.4 -6.35 6.4 -6.8 18.25 -4.95 35.8 -14.15 32.25 -14.05 39.35 -20.7 39.35 -20.65 57.2 -19.85 71.75 -18.65 91.9 -10.7 93.1 -9.8 M50.3 -71.25 L61.6 -64.05 66.45 -60.95 62.9 -56.65 60.75 -54.1 62.9 -56.65 66.45 -60.95 61.6 -64.05 50.3 -71.25 M53.5 -60.4 L38.6 -68.2 23.5 -64.5 25.75 -56.85 19.05 -55.45 34.85 -48.35 53.65 -55.45 53.5 -60.4 M61.6 -64.05 L67.55 -62.25 66.45 -60.95 67.55 -62.25 61.6 -64.05 M66.45 -60.95 L67.4 -60.35 66.45 -60.95 M69.3 -61.7 L67.55 -62.25 69.6 -64.75 67.55 -62.25 69.3 -61.7 M62.9 -56.65 L64.65 -44.3 62.9 -56.65 M66.95 -41.35 L66.1 -40.6 66.95 -41.35" fill="#242318" fill-opacity="0.17254902" fill-rule="evenodd" stroke="none"/>
      <path d="M88.5 -27.0 L88.55 -27.0 87.0 -26.8 88.5 -27.0" fill="#242318" fill-opacity="0.56078434" fill-rule="evenodd" stroke="none"/>
      <path d="M53.7 -102.8 L49.6 -99.4 35.05 -103.9 47.85 -110.85 53.7 -109.15 53.7 -102.8 M43.8 -83.65 L56.25 -79.0 74.55 -85.45 87.35 -72.3 97.45 -72.45 106.9 -78.05 104.35 -67.7 125.2 -67.6 94.2 -55.7 92.35 -59.7 74.1 -59.7 70.65 -64.75 69.6 -64.75 65.35 -64.75 47.4 -75.4 43.8 -83.65 M86.3 -32.35 L107.3 -27.5 120.35 -16.7 93.1 -9.8 91.9 -10.7 89.05 -12.75 83.4 -18.85 81.2 -19.5 82.65 -23.15 98.05 -25.85 89.05 -27.05 89.55 -27.15 94.05 -27.75 89.55 -27.15 88.5 -27.0 68.85 -33.7 86.3 -32.35 M71.25 -66.75 L69.6 -64.75 71.25 -66.75 M97.1 -6.85 L98.65 -5.7 98.95 -5.3 98.65 -5.7 99.0 -5.45 98.95 -5.3 93.45 8.25 81.55 9.45 69.45 18.25 65.9 34.8 56.25 24.3 39.85 32.6 45.1 16.35 39.85 7.05 32.9 4.05 16.9 12.5 -4.85 4.8 29.2 -3.1 58.9 8.3 58.9 16.4 97.1 -6.85" fill="#242218" fill-opacity="0.11372549" fill-rule="evenodd" stroke="none"/>
      <path d="M111.95 -32.75 L85.05 -36.45 74.8 -48.65 77.35 -54.95 100.1 -52.55 113.4 -51.15 108.45 -47.3 114.4 -40.95 124.65 -39.0 138.0 -29.15 111.95 -32.75" fill="#ffff78" fill-opacity="0.2509804" fill-rule="evenodd" stroke="none"/>
      <path d="M53.5 -60.4 L53.65 -55.45 34.85 -48.35 19.05 -55.45 25.75 -56.85 23.5 -64.5 38.6 -68.2 53.5 -60.4 M-5.6 -18.4 L5.9 -17.75 14.75 -10.75 21.3 -13.85 32.25 -14.05 35.8 -14.15 18.25 -4.95 6.4 -6.8 5.4 -6.35 -18.15 -4.55 -23.6 -12.5 -5.6 -18.4 M111.95 -32.75 L138.0 -29.15 124.65 -39.0 114.4 -40.95 108.45 -47.3 113.4 -51.15 100.1 -52.55 112.3 -60.55 124.3 -61.45 135.9 -43.65 154.25 -41.65 153.1 -24.95 122.35 -24.5 111.95 -32.75" fill="#ffff78" fill-opacity="0.11372549" fill-rule="evenodd" stroke="none"/>
      <path d="M-16.6 -31.2 L-8.75 -36.95 -7.1 -37.15 2.0 -38.15 9.7 -31.6 2.0 -38.15 -2.25 -41.75 2.5 -47.15 14.25 -51.3 27.0 -51.05 26.2 -49.35 22.7 -40.25 9.7 -31.6 21.05 -21.6 -1.15 -24.8 -21.35 -27.7 -21.35 -27.75 -16.6 -31.2 M63.5 -23.8 L43.25 -21.2 54.2 -26.2 61.7 -36.9 67.7 -36.6 68.85 -33.7 88.5 -27.0 87.0 -26.8 83.05 -26.3 63.5 -23.8" fill="#242106" fill-opacity="0.56078434" fill-rule="evenodd" stroke="none"/>
      <path d="M30.1 -20.3 L8.15 -21.3 4.5 -22.1 -9.75 -22.6 -1.15 -24.8 21.05 -21.6 30.1 -20.3" fill="#242218" fill-opacity="0.4" fill-rule="evenodd" stroke="none"/>
      <path d="M-7.1 -37.15 L-5.45 -37.4 -2.25 -41.75 2.0 -38.15 -7.1 -37.15 M66.1 -40.6 L67.7 -36.6 61.7 -36.9 66.1 -40.6" fill="#242006" fill-opacity="0.6627451" fill-rule="evenodd" stroke="none"/>
      <path d="M26.2 -49.35 L33.9 -46.05 48.7 -50.4 51.8 -50.05 60.7 -54.25 60.75 -54.1 62.15 -49.95 63.55 -49.1 64.65 -44.3 65.3 -42.6 66.1 -40.6 61.7 -36.9 54.2 -26.2 43.25 -21.2 39.35 -20.7 32.85 -19.9 31.05 -20.15 30.1 -20.3 21.05 -21.6 9.7 -31.6 22.7 -40.25 26.2 -49.35 M23.4 -40.75 L22.7 -40.25 23.4 -40.75" fill="#242006" fill-opacity="0.49019608" fill-rule="evenodd" stroke="none"/>
      <path d="M93.1 -9.8 L94.8 -8.55 97.1 -6.85 98.65 -5.7 99.0 -5.45 M-53.75 -30.55 L-29.85 -28.45 -24.35 -27.95 -21.65 -27.7 -21.35 -27.7 -1.15 -24.8 -9.75 -22.6 -32.95 -16.65 -44.45 -13.7 -57.9 -10.25 -63.95 -8.7 M-16.6 -31.2 L-8.75 -36.95 M-7.1 -37.15 L-5.45 -37.4 -2.25 -41.75 2.5 -47.15 14.25 -51.3 27.0 -51.05 26.2 -49.35 33.9 -46.05 48.7 -50.4 51.8 -50.05 60.7 -54.25 60.75 -54.1 62.15 -49.95 63.55 -49.1 64.65 -44.3 M39.35 -20.7 L32.85 -19.9 31.05 -20.15 M30.1 -20.3 L21.05 -21.6 -1.15 -24.8 M91.9 -10.7 L89.05 -12.75 86.65 -14.55 75.05 -19.2 63.5 -23.8 43.25 -21.2 39.35 -20.7 M65.3 -42.6 L66.1 -40.6 67.7 -36.6 68.85 -33.7 88.5 -27.0 89.55 -27.15 94.05 -27.75 M87.0 -26.8 L83.05 -26.3 75.05 -19.2 M87.0 -26.8 L88.55 -27.0 88.5 -27.0 87.0 -26.8 M91.9 -10.7 L93.1 -9.8 M63.5 -23.8 L83.05 -26.3 M-46.05 -27.35 L-46.4 -27.65 -43.75 -27.65 -33.65 -27.65 -24.35 -27.95 M-21.65 -27.75 L-21.35 -27.75 -16.6 -31.2 M-45.85 -27.2 L-32.95 -16.65 M-46.05 -27.35 L-46.0 -27.3 M-63.95 -31.45 L-53.75 -30.55 M-21.35 -27.7 L-21.65 -27.75" fill="none" stroke="#000000" stroke-linecap="round" stroke-linejoin="round" stroke-opacity="0.49019608" stroke-width="1.5"/>
      <path d="M94.8 -8.55 L102.05 -4.65 106.65 1.2 111.75 3.3 M-8.75 -36.95 L-7.1 -37.15 2.0 -38.15 -2.25 -41.75 M60.75 -54.1 L62.9 -56.65 66.45 -60.95 61.6 -64.05 50.3 -71.25 M66.45 -60.95 L67.55 -62.25 61.6 -64.05 M69.6 -64.75 L67.55 -62.25 69.3 -61.7 M67.4 -60.35 L66.45 -60.95 M64.65 -44.3 L62.9 -56.65 M69.6 -64.75 L71.25 -66.75 M26.2 -49.35 L22.7 -40.25 23.4 -40.75 M9.7 -31.6 L2.0 -38.15 M22.7 -40.25 L9.7 -31.6 21.05 -21.6 M64.65 -44.3 L65.3 -42.6 M66.1 -40.6 L66.95 -41.35 M66.1 -40.6 L61.7 -36.9 67.7 -36.6 M61.7 -36.9 L54.2 -26.2 43.25 -21.2 M98.95 -5.3 L98.65 -5.7 M98.95 -5.3 L105.65 0.8 106.65 1.2 M-63.95 -25.95 L-48.15 -27.1 -46.05 -27.35 -43.75 -27.65 M-46.0 -27.3 L-45.85 -27.2 M-46.0 -27.3 L-48.15 -27.1 M-63.95 -25.95 L-72.5 -25.75" fill="none" stroke="#000000" stroke-linecap="round" stroke-linejoin="round" stroke-opacity="0.2509804" stroke-width="1.5"/>
      <path d="M105.65 0.8 L112.0 6.55 111.75 12.2" fill="none" stroke="#000000" stroke-linecap="round" stroke-linejoin="round" stroke-opacity="0.21176471" stroke-width="1.5"/>
    </g>
  </defs>
</svg>
