<?xml version="1.0" encoding="UTF-8" standalone="no"?>
<svg xmlns:xlink="http://www.w3.org/1999/xlink" height="52.0px" width="52.0px" xmlns="http://www.w3.org/2000/svg">
  <g transform="matrix(1.0, 0.0, 0.0, 1.0, 0.0, 0.0)">
    <use height="56.0" transform="matrix(1.0, 0.0, 0.0, 1.0, -2.0, -2.0)" width="56.0" xlink:href="#shape0"/>
    <use height="0.0" transform="matrix(0.0816, 0.0269, -0.0803, 0.074, 27.05, 21.45)" width="0.0" xlink:href="#sprite0"/>
    <use height="0.0" transform="matrix(0.0555, 0.0105, 0.003, 0.0848, 21.35, 40.25)" width="0.0" xlink:href="#sprite0"/>
    <use height="0.0" transform="matrix(0.0382, 0.0072, 0.0013, 0.0358, 11.35, 27.9)" width="0.0" xlink:href="#sprite0"/>
    <use height="0.0" transform="matrix(0.0382, 0.0072, 0.0013, 0.0358, 29.15, 32.15)" width="0.0" xlink:href="#sprite0"/>
    <use height="0.0" transform="matrix(0.0506, -0.0032, 0.0359, 0.0796, 19.35, 23.7)" width="0.0" xlink:href="#sprite0"/>
    <use height="81.5" transform="matrix(0.1127, -0.004, 0.004, 0.1126, 25.25, 27.25)" width="81.5" xlink:href="#sprite1"/>
    <use height="81.5" transform="matrix(0.0891, -0.0031, 0.0031, 0.089, 22.95, 16.5)" width="81.5" xlink:href="#sprite1"/>
    <use height="81.5" transform="matrix(0.0891, -0.0031, 0.0031, 0.089, 22.55, 37.7)" width="81.5" xlink:href="#sprite1"/>
  </g>
  <defs>
    <g id="shape0" transform="matrix(1.0, 0.0, 0.0, 1.0, 2.0, 2.0)">
      <path d="M52.0 0.0 L52.0 52.0 0.0 52.0 0.0 0.0 52.0 0.0" fill="#795fa9" fill-opacity="0.0" fill-rule="evenodd" stroke="none"/>
      <path d="M20.0 15.35 L20.25 15.55 20.85 16.25 Q21.15 16.8 21.05 17.45 L21.05 17.5 20.7 18.35 20.5 18.6 20.8 19.15 20.95 19.45 21.2 19.85 Q24.65 15.6 32.1 16.3 L33.25 16.55 33.65 16.7 34.4 16.4 35.75 16.6 Q36.45 16.9 36.75 17.35 37.15 17.8 36.95 18.15 L36.85 18.25 38.05 19.25 Q39.9 21.15 40.15 24.1 L40.15 26.5 39.95 28.0 41.25 28.4 42.0 28.85 42.6 29.3 43.25 30.0 43.9 31.5 Q44.3 33.0 43.8 34.55 L43.7 34.85 42.85 36.45 42.4 37.05 42.3 37.2 Q40.35 39.35 36.05 40.35 L35.5 40.5 32.85 40.9 Q31.55 41.15 30.55 41.95 L30.35 42.15 Q29.1 43.15 28.25 44.9 L26.65 47.15 26.1 47.6 Q25.15 48.2 24.2 47.8 23.7 47.55 23.7 47.1 L23.8 46.4 21.8 47.95 21.0 48.05 22.15 44.1 21.9 43.75 21.5 43.75 20.85 47.45 20.4 47.85 20.3 47.7 20.15 47.55 19.55 46.4 Q19.05 47.15 18.25 46.5 L18.25 46.45 Q17.85 45.95 17.6 45.2 L17.4 44.4 17.1 41.8 17.1 41.0 Q16.75 39.4 16.0 38.15 L14.75 36.55 14.55 36.4 12.0 34.4 Q10.9 33.3 10.6 32.15 L10.45 31.2 10.4 30.55 Q9.15 29.7 8.55 28.25 L8.15 27.0 Q7.8 25.65 8.15 24.8 8.75 23.9 9.9 24.95 L11.4 25.65 11.55 25.7 12.0 25.1 13.75 23.6 13.8 23.6 14.5 23.2 14.4 22.85 14.15 21.2 14.1 20.3 14.15 19.45 14.2 19.2 13.95 19.0 13.35 18.35 13.15 17.5 13.2 17.1 13.25 16.75 13.75 16.0 13.95 15.8 14.7 15.25 Q16.05 14.55 17.65 14.65 L19.05 14.85 19.95 15.3 20.0 15.35 M16.2 6.3 Q15.25 7.6 16.4 8.45 L16.65 8.65 Q17.4 7.7 17.55 6.85 L17.5 5.7 Q17.3 4.9 16.6 4.1 17.05 4.75 16.5 5.85 L16.2 6.3 M18.4 9.7 Q18.1 10.75 18.1 11.8 L18.15 12.6 Q18.1 14.45 15.75 13.95 L14.65 13.55 14.45 13.45 14.4 13.4 13.45 12.7 Q11.85 10.95 13.75 7.35 13.35 8.2 15.6 9.9 L15.8 10.05 16.1 10.35 16.55 11.2 Q16.85 10.55 17.3 10.0 L18.9 8.5 18.4 9.7 M14.3 31.45 L14.3 31.5 14.4 31.65 14.4 31.7 15.5 32.55 16.05 32.0 15.85 31.4 15.1 31.45 14.3 31.45 M17.65 34.4 L18.25 35.0 19.25 35.8 Q19.7 36.25 19.25 36.85 L19.1 37.05 18.95 36.65 18.35 35.65 17.4 34.5 17.65 34.4 M27.5 38.0 L27.6 38.2 27.65 39.6 27.45 40.65 27.65 40.3 Q27.85 39.9 28.55 39.4 L28.85 39.25 29.25 39.0 30.55 38.5 30.9 38.4 31.6 38.2 32.45 38.0 31.95 37.0 31.7 36.6 31.3 36.1 30.9 35.7 28.85 36.75 Q27.65 37.15 27.6 37.55 L27.5 38.0 M39.15 14.75 L38.35 15.65 37.4 16.05 37.35 16.1 Q36.45 16.35 35.6 16.1 L35.15 15.9 33.85 14.85 33.7 14.55 Q33.3 13.75 33.45 12.6 33.65 13.65 34.7 14.05 34.7 12.85 35.3 11.75 L36.05 10.65 Q37.0 9.6 36.3 8.35 38.95 10.4 38.05 13.7 38.5 12.7 39.05 12.4 39.55 13.85 39.15 14.75 M36.85 18.25 Q36.65 18.5 36.1 18.55 L34.75 18.3 33.7 17.55 Q33.35 17.15 33.55 16.8 L33.65 16.7 Q35.5 17.3 36.85 18.25 M38.2 32.05 Q36.65 34.35 34.5 35.0 L33.95 35.15 Q34.3 36.2 34.25 37.7 L34.65 37.6 35.2 37.55 36.65 37.2 Q37.9 36.85 38.85 36.15 L40.15 34.75 40.6 33.85 Q40.45 32.3 38.2 32.05" fill="none" stroke="#000000" stroke-linecap="round" stroke-linejoin="round" stroke-opacity="0.3019608" stroke-width="1.0"/>
      <path d="M14.25 26.9 L14.05 27.1 Q13.4 27.8 13.05 29.05 L12.95 30.2 12.0 30.3 Q11.1 30.15 10.5 29.25 10.65 26.7 12.0 25.1 L13.8 23.6 13.8 23.55 Q14.3 23.7 14.4 24.5 L14.25 26.9 M13.3 31.7 L13.7 32.25 14.45 33.0 14.85 33.35 15.5 32.55 Q16.65 32.25 16.3 34.15 L16.0 34.6 16.75 35.65 17.8 37.25 Q17.95 38.05 16.9 38.5 L16.05 38.15 14.75 36.55 14.55 36.35 12.0 34.4 Q10.95 33.3 10.6 32.15 11.2 31.5 12.0 31.45 12.6 31.4 13.3 31.7 M19.9 42.05 L19.9 43.65 Q19.25 45.65 18.55 45.9 L18.5 45.9 18.3 45.85 Q18.0 45.7 17.65 44.95 L17.4 44.4 Q17.15 43.3 17.15 41.8 17.3 39.8 18.05 39.55 18.45 39.4 19.05 39.8 L19.1 39.85 19.9 42.05" fill="#f0f0d2" fill-rule="evenodd" stroke="none"/>
      <path d="M12.95 30.2 L13.05 29.05 Q13.4 27.8 14.05 27.1 L14.25 26.9 Q15.3 25.95 17.05 26.7 L17.2 26.85 17.15 26.85 Q15.75 26.7 14.95 26.85 L14.05 27.5 13.7 28.05 Q13.15 29.35 13.35 30.75 L13.4 31.1 14.45 32.95 14.85 33.35 14.45 33.0 13.7 32.25 13.3 31.7 Q12.95 31.1 12.95 30.2 M16.9 38.5 Q17.95 38.05 17.8 37.25 L16.75 35.65 16.0 34.6 16.3 34.15 16.45 34.05 Q17.2 33.2 18.25 33.0 L18.55 32.95 19.9 32.95 20.9 33.25 20.8 33.6 19.9 33.6 19.85 33.6 18.5 33.55 Q17.45 33.75 16.4 34.5 L16.35 34.5 16.4 34.55 17.9 36.35 18.25 36.9 18.7 37.85 18.95 38.55 19.9 41.2 19.9 42.05 19.1 39.85 19.05 39.75 18.25 37.95 18.2 38.05 Q17.6 38.6 16.9 38.5" fill="#ffffff" fill-rule="evenodd" stroke="none"/>
      <path d="M19.9 43.65 L19.9 44.25 Q19.35 46.45 18.25 46.5 L18.25 46.45 17.65 45.15 17.4 44.4 17.65 44.95 Q18.0 45.7 18.3 45.85 L18.5 45.9 18.55 45.9 Q19.25 45.65 19.9 43.65" fill="#f9f8ec" fill-rule="evenodd" stroke="none"/>
      <path d="M14.25 26.9 L14.4 24.5 Q14.3 23.7 13.8 23.55 16.25 22.05 18.35 23.5 L20.95 29.7 17.75 27.3 17.2 26.85 17.05 26.7 Q15.3 25.95 14.25 26.9 M10.5 29.25 Q11.1 30.15 12.0 30.3 L12.95 30.2 Q12.95 31.1 13.3 31.7 12.6 31.4 12.0 31.45 11.2 31.5 10.6 32.15 L10.45 31.2 Q10.4 30.15 10.5 29.25 M16.05 38.15 L16.9 38.5 Q17.6 38.6 18.2 38.05 L18.25 37.95 19.05 39.75 19.1 39.85 19.05 39.8 Q18.45 39.4 18.05 39.55 17.3 39.8 17.15 41.8 L17.1 41.0 Q16.75 39.4 16.05 38.15 M16.3 34.15 Q16.65 32.25 15.5 32.55 L16.65 31.45 Q17.6 30.8 18.55 30.5 L21.15 30.3 21.4 30.85 20.9 33.25 19.9 32.95 18.55 32.95 18.25 33.0 Q17.2 33.2 16.45 34.05 L16.3 34.15" fill="#e6e4b3" fill-rule="evenodd" stroke="none"/>
      <path d="M14.85 33.35 L14.45 32.95 13.4 31.1 14.15 31.25 14.35 31.65 14.4 31.7 15.5 32.55 14.85 33.35 M19.9 39.2 L19.9 41.2 18.95 38.55 18.7 37.85 19.3 38.25 19.55 38.2 19.9 39.2 M17.4 34.5 L18.35 35.65 18.95 36.65 18.3 36.15 Q17.95 36.0 17.9 36.35 L16.4 34.55 16.35 34.5 16.4 34.5 17.4 34.5" fill="#d5d580" fill-rule="evenodd" stroke="none"/>
      <path d="M13.4 31.1 L13.35 30.75 Q13.15 29.35 13.7 28.05 L14.05 27.5 14.95 26.85 Q15.75 26.7 17.15 26.85 L17.2 26.85 17.75 27.3 17.15 27.1 Q15.85 26.85 14.9 27.45 L14.15 28.65 Q13.5 30.0 14.15 31.25 L13.4 31.1 M20.8 33.6 L20.75 33.95 19.8 34.0 18.45 34.15 17.4 34.5 16.4 34.5 Q17.45 33.75 18.5 33.55 L19.85 33.6 19.9 33.6 20.8 33.6 M19.9 44.25 L19.9 45.7 Q19.3 47.35 18.25 46.5 19.35 46.45 19.9 44.25 M17.9 36.35 Q17.95 36.0 18.3 36.15 L18.95 36.65 19.35 37.55 19.55 38.2 19.3 38.25 18.7 37.85 18.25 36.9 17.9 36.35" fill="#cac960" fill-rule="evenodd" stroke="none"/>
      <path d="M13.8 23.55 L13.8 23.6 12.0 25.1 Q10.65 26.7 10.5 29.25 10.4 30.15 10.45 31.2 L10.6 32.15 Q10.95 33.3 12.0 34.4 L14.55 36.35 14.75 36.55 16.05 38.15 Q16.75 39.4 17.1 41.0 L17.15 41.8 Q17.15 43.3 17.4 44.4 L17.65 45.15 18.25 46.45 18.25 46.5 Q19.3 47.35 19.9 45.7 L19.9 44.25 19.9 43.65 19.9 42.05 19.9 41.2 19.9 39.2 19.9 38.0 20.75 33.95 20.8 33.6 20.9 33.25 21.4 30.85 21.15 30.3 18.55 30.5 Q17.6 30.8 16.65 31.45 L15.5 32.55 14.4 31.7 14.35 31.65 14.15 31.25 Q13.5 30.0 14.15 28.65 L14.9 27.45 Q15.85 26.85 17.15 27.1 L17.75 27.3 20.95 29.7 18.35 23.5 Q16.25 22.05 13.8 23.55 M17.2 26.85 L17.05 26.7 M15.5 32.55 L14.85 33.35 M17.75 27.3 L17.2 26.85 M21.15 30.3 L20.95 29.7 M18.95 36.65 L18.35 35.65 17.4 34.5 18.45 34.15 19.8 34.0 20.75 33.95 M18.95 36.65 L19.35 37.55 19.55 38.2 19.9 39.2" fill="none" stroke="#000000" stroke-linecap="round" stroke-linejoin="round" stroke-opacity="0.3019608" stroke-width="0.30000000000000004"/>
      <path d="M36.35 17.25 L36.45 17.35 Q36.7 17.7 36.55 17.95 36.4 18.25 35.9 18.25 L34.9 18.1 34.75 18.0 Q35.25 17.25 36.35 17.25 M34.15 17.6 L34.05 17.5 Q33.8 17.2 33.95 16.9 L34.6 16.6 35.1 16.65 Q35.25 17.0 34.15 17.6" fill="#ffde4f" fill-rule="evenodd" stroke="none"/>
      <path d="M34.75 18.0 L34.9 18.1 35.9 18.25 Q36.4 18.25 36.55 17.95 36.7 17.7 36.45 17.35 L36.35 17.25 Q36.05 16.95 35.65 16.8 L35.1 16.65 34.6 16.6 33.95 16.9 Q33.8 17.2 34.05 17.5 L34.15 17.6 34.75 18.0 M36.1 18.5 L34.8 18.3 Q34.05 18.0 33.75 17.55 33.35 17.15 33.6 16.8 33.75 16.45 34.4 16.35 35.05 16.3 35.75 16.6 36.45 16.85 36.8 17.35 L36.95 18.1 Q36.75 18.5 36.1 18.5" fill="#ffff98" fill-rule="evenodd" stroke="none"/>
      <path d="M34.75 18.0 L34.15 17.6 Q35.25 17.0 35.1 16.65 L35.65 16.8 Q36.05 16.95 36.35 17.25 35.25 17.25 34.75 18.0" fill="#f4a33c" fill-rule="evenodd" stroke="none"/>
      <path d="M36.55 11.4 Q37.1 10.55 37.1 9.7 37.8 10.95 37.6 12.95 L37.5 13.35 37.25 14.25 Q36.85 15.25 35.9 15.6 35.3 14.95 35.4 14.1 35.4 13.35 35.9 12.45 36.15 11.95 36.55 11.4 M36.1 13.7 L36.0 15.05 36.85 13.7 36.95 13.3 37.05 11.55 Q36.55 12.3 36.3 13.0 L36.1 13.7" fill="url(#gradient0)" fill-rule="evenodd" stroke="none"/>
      <path d="M36.1 13.7 L36.3 13.0 Q36.55 12.3 37.05 11.55 L36.95 13.3 36.85 13.7 36.0 15.05 36.1 13.7" fill="url(#gradient1)" fill-rule="evenodd" stroke="none"/>
      <path d="M36.3 8.35 Q38.95 10.4 38.05 13.7 38.55 12.7 39.05 12.4 39.55 13.85 39.15 14.75 L38.35 15.65 37.45 16.05 37.35 16.1 Q36.45 16.35 35.6 16.1 L35.15 15.9 33.85 14.85 33.7 14.55 Q33.3 13.75 33.45 12.6 33.7 13.6 34.7 14.05 34.75 12.85 35.3 11.75 L36.05 10.65 Q37.0 9.6 36.3 8.35 M36.55 11.4 Q36.15 11.95 35.9 12.45 35.4 13.35 35.4 14.1 35.3 14.95 35.9 15.6 36.85 15.25 37.25 14.25 L37.5 13.35 37.6 12.95 Q37.8 10.95 37.1 9.7 37.1 10.55 36.55 11.4 M34.2 14.65 L35.25 15.3 34.6 14.5 33.85 14.0 Q33.8 14.35 34.2 14.65 M37.9 15.4 L38.05 15.25 Q38.75 14.55 38.65 13.75 38.3 13.9 37.6 14.65 L36.7 15.7 37.9 15.4" fill="url(#gradient2)" fill-rule="evenodd" stroke="none"/>
      <path d="M37.15 15.45 L37.85 15.05 38.3 14.25 37.7 14.8 37.15 15.45 M37.9 15.4 L36.7 15.7 37.6 14.65 Q38.3 13.9 38.65 13.75 38.75 14.55 38.05 15.25 L37.9 15.4" fill="url(#gradient3)" fill-rule="evenodd" stroke="none"/>
      <path d="M37.15 15.45 L37.7 14.8 38.3 14.25 37.85 15.05 37.15 15.45" fill="url(#gradient4)" fill-rule="evenodd" stroke="none"/>
      <path d="M34.2 14.65 Q33.8 14.35 33.85 14.0 L34.6 14.5 35.25 15.3 34.2 14.65" fill="url(#gradient5)" fill-rule="evenodd" stroke="none"/>
      <path d="M36.1 18.5 L34.8 18.3 Q34.05 18.0 33.75 17.55 33.35 17.15 33.6 16.8 33.75 16.45 34.4 16.35 35.05 16.3 35.75 16.6 36.45 16.85 36.8 17.35 L36.95 18.1 Q36.75 18.5 36.1 18.5 Z" fill="none" stroke="#000000" stroke-linecap="round" stroke-linejoin="round" stroke-opacity="0.3019608" stroke-width="0.30000000000000004"/>
      <path d="M32.1 17.7 L34.45 18.15 34.25 17.85 31.9 17.4 25.55 17.8 25.3 18.1 31.75 17.65 32.65 19.0 Q29.15 18.45 25.3 19.1 L25.1 18.55 25.25 18.1 Q23.25 18.75 21.3 20.15 L21.0 20.4 20.9 20.25 21.3 20.15 20.9 20.25 21.8 19.6 20.9 20.25 Q24.3 15.6 32.1 16.3 L33.25 16.55 Q36.35 17.45 38.05 19.25 L38.0 19.85 Q36.35 18.05 33.95 17.05 L35.05 18.05 Q36.65 19.6 37.55 21.35 L37.3 21.65 Q36.2 19.7 34.9 18.35 L34.45 18.15 34.6 18.55 Q34.6 19.25 33.45 19.8 34.5 21.75 34.85 23.7 L34.35 23.85 Q34.15 21.5 33.2 19.9 L29.85 20.45 Q27.9 20.45 26.55 19.9 L25.45 19.3 Q29.25 18.6 32.8 19.3 L33.2 19.9 33.45 19.8 33.05 19.05 32.1 17.7 M25.55 17.8 L26.55 17.25 Q27.9 16.7 29.85 16.7 31.8 16.7 33.2 17.25 33.85 17.5 34.25 17.85 L34.45 17.9 33.2 16.85 31.2 16.45 Q27.55 16.3 25.15 17.35 23.0 18.25 21.8 19.6 23.55 18.4 25.55 17.8 M34.45 17.9 L35.05 18.05 34.45 17.9 M33.95 17.05 L33.25 16.55 33.95 17.05" fill="#f0f0d2" fill-rule="evenodd" stroke="none"/>
      <path d="M31.45 34.9 L30.6 33.75 27.85 29.9 Q30.95 31.6 32.65 31.45 L33.1 31.35 Q35.9 31.55 37.8 30.15 37.45 31.9 35.6 34.05 33.75 35.15 31.45 34.9 M38.1 29.9 L39.4 28.4 Q38.9 30.2 37.8 32.05 L36.45 33.45 37.7 31.1 38.1 29.9 M30.6 33.75 Q32.1 32.9 33.1 31.35 32.1 32.9 30.6 33.75" fill="#cac960" fill-rule="evenodd" stroke="none"/>
      <path d="M31.85 24.3 L34.35 23.85 Q34.5 25.5 34.3 26.9 33.05 26.15 31.85 24.3 M37.55 21.35 L37.55 21.3 38.0 19.85 Q39.65 22.55 39.75 25.3 L38.6 26.8 Q38.75 23.85 37.55 21.35 M34.85 23.7 Q36.35 23.0 37.3 21.65 38.5 24.05 38.3 26.95 L37.8 27.3 34.8 27.2 Q35.1 25.45 34.85 23.7" fill="#d5d580" fill-rule="evenodd" stroke="none"/>
      <path d="M25.3 19.1 L25.45 19.3 26.55 19.9 Q27.9 20.45 29.85 20.45 L33.2 19.9 Q34.15 21.5 34.35 23.85 L31.85 24.3 Q27.95 24.4 21.95 21.75 L21.0 20.4 21.3 20.15 Q23.25 18.75 25.25 18.1 L25.1 18.55 25.3 19.1 Q23.35 19.45 21.3 20.15 23.35 19.45 25.3 19.1 M34.25 17.85 Q33.85 17.5 33.2 17.25 31.8 16.7 29.85 16.7 27.9 16.7 26.55 17.25 L25.55 17.8 Q23.55 18.4 21.8 19.6 23.0 18.25 25.15 17.35 27.55 16.3 31.2 16.45 L33.2 16.85 34.45 17.9 34.25 17.85 M38.05 19.25 Q39.9 21.2 40.2 24.05 L40.15 26.45 39.75 28.85 Q37.9 34.0 34.5 35.05 L31.65 35.2 31.45 34.9 Q33.75 35.15 35.6 34.05 37.45 31.9 37.8 30.15 L38.25 27.6 38.3 26.95 Q38.5 24.05 37.3 21.65 36.35 23.0 34.85 23.7 34.5 21.75 33.45 19.8 34.6 19.25 34.6 18.55 L34.45 18.15 34.9 18.35 Q36.2 19.7 37.3 21.65 L37.55 21.35 Q36.65 19.6 35.05 18.05 L33.95 17.05 Q36.35 18.05 38.0 19.85 L38.05 19.25 M38.0 19.85 L37.55 21.3 37.55 21.35 Q38.75 23.85 38.6 26.8 L38.55 27.45 38.1 29.9 37.7 31.1 36.45 33.45 37.8 32.05 Q38.9 30.2 39.4 28.4 L39.7 26.8 39.75 25.3 Q39.65 22.55 38.0 19.85 M34.35 23.85 L34.85 23.7 Q35.1 25.45 34.8 27.2 L34.3 29.0 33.85 30.05 33.1 31.35 32.65 31.45 33.8 29.05 34.3 26.9 Q34.5 25.5 34.35 23.85 M34.5 35.05 Q35.65 34.4 36.45 33.45 35.65 34.4 34.5 35.05" fill="#e6e4b3" fill-rule="evenodd" stroke="none"/>
      <path d="M32.1 17.7 L31.9 17.4 32.1 17.7 33.05 19.05 32.65 19.0 33.05 19.05 33.45 19.8 33.2 19.9 32.8 19.3 Q29.25 18.6 25.45 19.3 L25.3 19.1 Q29.15 18.45 32.65 19.0 L31.75 17.65 25.3 18.1 25.55 17.8 31.9 17.4 34.25 17.85 34.45 18.15 32.1 17.7" fill="#f9f8ec" fill-rule="evenodd" stroke="none"/>
      <path d="M21.95 21.75 Q27.95 24.4 31.85 24.3 33.05 26.15 34.3 26.9 L33.8 29.05 32.65 31.45 Q30.95 31.6 27.85 29.9 L21.95 21.75 M38.3 26.95 L38.25 27.6 37.8 30.15 Q35.9 31.55 33.1 31.35 L33.85 30.05 34.3 29.0 34.8 27.2 37.8 27.3 38.3 26.95 M38.1 29.9 L38.55 27.45 38.6 26.8 39.75 25.3 39.7 26.8 39.4 28.4 38.1 29.9" fill="#a6a637" fill-rule="evenodd" stroke="none"/>
      <path d="M31.9 17.4 L32.1 17.7 33.05 19.05 32.65 19.0 Q29.15 18.45 25.3 19.1 23.35 19.45 21.3 20.15 L20.9 20.25 21.0 20.4 21.95 21.75 27.85 29.9 30.6 33.75 31.45 34.9 31.65 35.2 34.5 35.05 Q37.9 34.0 39.75 28.85 L40.15 26.45 40.2 24.05 Q39.9 21.2 38.05 19.25 36.35 17.45 33.25 16.55 L33.95 17.05 35.05 18.05 34.45 17.9 34.25 17.85 31.9 17.4 25.55 17.8 Q23.55 18.4 21.8 19.6 L20.9 20.25 Q24.3 15.6 32.1 16.3 L33.25 16.55 M33.45 19.8 L33.05 19.05 M37.55 21.35 Q36.65 19.6 35.05 18.05 M33.45 19.8 Q34.5 21.75 34.85 23.7 35.1 25.45 34.8 27.2 L34.3 29.0 33.85 30.05 33.1 31.35 Q32.1 32.9 30.6 33.75 M38.6 26.8 L38.55 27.45 38.1 29.9 37.7 31.1 36.45 33.45 Q35.65 34.4 34.5 35.05 M38.6 26.8 Q38.75 23.85 37.55 21.35" fill="none" stroke="#000000" stroke-linecap="round" stroke-linejoin="round" stroke-opacity="0.3019608" stroke-width="0.30000000000000004"/>
      <path d="M20.4 22.1 L20.55 22.05 20.75 21.95 21.35 21.6 Q22.35 21.15 23.45 21.05 25.65 20.9 26.85 22.25 L27.5 23.55 27.35 24.5 26.15 25.25 19.0 28.95 Q23.9 29.6 23.0 30.8 21.95 31.3 20.9 31.4 18.65 31.55 17.5 30.2 16.35 28.8 16.9 26.7 17.4 24.55 19.3 22.9 L20.4 22.1 M18.9 41.5 Q18.45 39.7 19.3 38.7 20.15 37.75 21.45 37.65 22.35 37.7 23.1 38.1 24.1 39.45 23.2 40.95 22.5 42.1 21.4 42.0 L21.35 41.15 21.3 40.45 Q20.0 41.7 20.0 42.9 L19.7 42.55 18.9 41.5 M19.25 45.0 Q19.15 43.95 19.6 43.9 L20.1 44.85 20.35 46.4 20.3 47.7 20.15 47.5 Q19.5 46.65 19.25 45.0 M23.2 45.95 L22.9 46.9 22.75 47.0 21.8 47.95 20.95 48.1 21.45 46.4 22.25 45.1 Q22.5 44.8 22.7 44.8 L23.0 45.05 23.2 45.95" fill="#f0f0d2" fill-rule="evenodd" stroke="none"/>
      <path d="M19.0 21.8 L19.85 20.9 Q22.7 19.05 25.55 18.75 26.5 18.85 25.55 19.85 L24.7 20.15 Q21.6 20.2 19.0 21.8 M33.0 20.9 Q34.45 22.1 35.3 24.05 L36.1 26.1 Q35.6 27.65 34.9 27.1 34.55 25.55 33.55 24.2 31.7 22.25 29.95 21.3 30.85 20.1 33.0 20.9 M21.7 43.25 L21.8 43.6 Q20.8 43.6 20.6 43.2 L20.7 42.85 Q21.2 42.5 21.7 43.25" fill="#ffde4f" fill-rule="evenodd" stroke="none"/>
      <path d="M27.45 39.05 L27.55 38.2 27.65 39.6 27.2 41.15 26.2 42.55 25.95 42.75 25.2 43.35 24.55 43.65 Q27.1 41.8 27.45 39.5 L27.45 39.05 M28.3 37.0 L26.3 36.75 27.3 36.6 Q32.25 35.2 33.65 31.5 34.5 28.75 33.2 24.85 34.5 26.85 34.6 29.25 34.7 31.0 33.95 32.55 L32.3 34.7 32.25 34.75 31.75 35.15 31.4 35.35 Q29.95 36.5 28.3 37.0 M18.15 34.25 L17.5 33.4 16.8 32.25 16.35 30.75 Q17.85 33.95 20.75 34.65 25.25 35.8 28.95 33.2 L30.7 31.7 Q33.55 28.05 32.25 24.6 33.95 28.0 32.8 31.15 30.95 35.0 26.7 35.8 21.6 36.65 18.15 34.25 M21.45 37.65 L20.45 37.65 Q19.6 37.75 18.65 38.8 18.95 37.85 19.5 37.3 L19.6 37.15 Q20.15 36.9 21.45 37.15 L25.7 38.45 Q27.05 38.7 26.3 41.25 25.7 42.8 24.15 43.8 L23.7 43.95 Q26.55 41.2 25.25 39.5 24.25 38.55 23.1 38.1 22.35 37.7 21.45 37.65 M21.3 40.45 L21.35 41.15 Q20.8 41.85 20.7 42.85 L20.6 43.2 20.6 43.5 21.1 43.7 20.75 43.85 Q20.6 43.9 20.4 43.75 20.15 42.7 21.3 40.45 M21.35 44.7 L20.9 47.45 20.4 47.85 20.65 44.8 21.35 44.7 M22.9 46.9 L24.35 45.0 24.5 44.8 24.9 44.9 24.9 44.95 Q23.45 47.15 21.8 47.95 L22.75 47.0 22.9 46.9" fill="#cac960" fill-rule="evenodd" stroke="none"/>
      <path d="M20.4 22.1 L19.3 22.9 Q17.4 24.55 16.9 26.7 16.35 28.8 17.5 30.2 18.65 31.55 20.9 31.4 21.95 31.3 23.0 30.8 23.9 29.6 19.0 28.95 L26.15 25.25 27.35 24.5 27.5 23.55 26.85 22.25 Q25.65 20.9 23.45 21.05 22.35 21.15 21.35 21.6 22.45 21.05 23.85 20.6 L24.85 20.55 Q27.15 20.55 29.1 21.5 34.65 26.85 28.95 33.2 25.25 35.8 20.75 34.65 17.85 33.95 16.35 30.75 15.8 28.1 16.85 25.45 17.85 23.5 20.4 22.1 M23.1 38.1 Q24.25 38.55 25.25 39.5 26.55 41.2 23.7 43.95 L24.15 43.8 24.55 43.65 25.2 43.35 24.5 44.7 24.5 44.8 24.35 45.0 22.9 46.9 23.2 45.95 23.25 45.05 23.2 44.95 Q22.9 44.5 22.2 44.6 L22.1 44.65 21.95 44.65 22.1 44.15 21.9 43.75 21.8 43.6 21.7 43.25 21.4 42.0 Q22.5 42.1 23.2 40.95 24.1 39.45 23.1 38.1 M19.0 42.55 L19.15 42.75 20.4 43.75 Q20.6 43.9 20.75 43.85 L20.65 44.8 20.4 47.85 20.3 47.7 20.35 46.4 20.3 44.8 20.2 44.45 Q19.8 43.35 19.0 43.05 L19.0 42.55 M22.1 44.15 L22.45 44.1 23.7 43.95 22.45 44.1 22.1 44.15" fill="#e6e4b3" fill-rule="evenodd" stroke="none"/>
      <path d="M21.35 21.6 L20.75 21.95 20.55 22.05 20.4 22.1 Q17.85 23.5 16.85 25.45 15.8 28.1 16.35 30.75 L16.8 32.25 17.5 33.4 18.15 34.25 Q20.95 37.25 26.3 36.75 L28.3 37.0 Q27.45 37.35 27.55 38.0 L27.55 38.2 27.45 39.05 Q27.4 37.9 26.85 37.65 L22.8 37.3 Q21.3 37.05 19.95 36.3 L19.65 36.05 19.25 35.85 19.65 36.05 Q20.05 36.55 19.6 37.15 L19.5 37.3 Q18.95 37.85 18.65 38.8 L18.5 40.3 18.9 41.5 19.7 42.55 20.0 42.9 Q20.0 41.7 21.3 40.45 20.15 42.7 20.4 43.75 L19.15 42.75 19.0 42.55 Q17.9 41.3 18.1 39.6 18.2 37.9 19.25 36.9 19.75 36.3 19.25 35.85 L18.25 35.0 Q15.5 32.55 15.5 29.05 15.5 25.65 18.1 23.2 L18.25 23.05 Q20.6 20.9 23.85 20.6 22.45 21.05 21.35 21.6 M20.35 46.4 L20.1 44.85 19.6 43.9 Q19.15 43.95 19.25 45.0 19.05 44.15 19.0 43.05 19.8 43.35 20.2 44.45 L20.3 44.8 20.35 46.4 M21.95 44.65 L22.1 44.65 22.2 44.6 Q22.9 44.5 23.2 44.95 L23.25 45.05 23.2 45.95 23.0 45.05 22.7 44.8 Q22.5 44.8 22.25 45.1 L21.45 46.4 21.95 44.65" fill="#f9f8ec" fill-rule="evenodd" stroke="none"/>
      <path d="M29.1 21.5 Q30.3 22.0 31.4 22.9 L32.25 24.6 Q33.55 28.05 30.7 31.7 L28.95 33.2 Q34.65 26.85 29.1 21.5 M18.65 38.8 Q19.6 37.75 20.45 37.65 L21.45 37.65 Q20.15 37.75 19.3 38.7 18.45 39.7 18.9 41.5 L18.5 40.3 18.65 38.8" fill="#ffffff" fill-rule="evenodd" stroke="none"/>
      <path d="M24.7 20.15 L25.55 19.85 Q26.95 19.2 26.75 18.6 29.6 18.8 31.6 19.95 29.95 20.1 29.5 21.05 L27.8 20.45 24.7 20.15 M36.1 26.1 L36.25 26.9 Q36.75 32.05 33.5 34.45 32.5 35.25 31.4 35.35 L31.75 35.15 32.25 34.75 32.3 34.7 33.7 33.7 Q35.0 31.6 35.1 29.75 35.25 28.35 34.9 27.1 35.6 27.65 36.1 26.1 M21.35 41.15 L21.4 42.0 21.7 43.25 Q21.2 42.5 20.7 42.85 20.8 41.85 21.35 41.15" fill="#f4a33c" fill-rule="evenodd" stroke="none"/>
      <path d="M25.55 19.85 Q26.5 18.85 25.55 18.75 22.7 19.05 19.85 20.9 21.9 19.0 25.25 18.5 L26.75 18.6 Q26.95 19.2 25.55 19.85 M31.6 19.95 L33.0 20.9 Q30.85 20.1 29.95 21.3 L29.5 21.05 Q29.95 20.1 31.6 19.95 M21.9 43.75 L21.45 43.75 21.1 43.7 20.6 43.5 20.6 43.2 Q20.8 43.6 21.8 43.6 L21.9 43.75" fill="#ffff98" fill-rule="evenodd" stroke="none"/>
      <path d="M23.85 20.6 Q20.6 20.9 18.25 23.05 L18.1 23.2 19.0 21.8 Q21.6 20.2 24.7 20.15 L27.8 20.45 29.5 21.05 29.95 21.3 Q31.7 22.25 33.55 24.2 34.55 25.55 34.9 27.1 35.25 28.35 35.1 29.75 35.0 31.6 33.7 33.7 L32.3 34.7 33.95 32.55 Q34.7 31.0 34.6 29.25 34.5 26.85 33.2 24.85 L31.6 23.15 31.4 22.9 Q30.3 22.0 29.1 21.5 27.15 20.55 24.85 20.55 L23.85 20.6" fill="#cc6b22" fill-rule="evenodd" stroke="none"/>
      <path d="M19.65 36.05 L19.95 36.3 Q21.3 37.05 22.8 37.3 L26.85 37.65 Q27.4 37.9 27.45 39.05 L27.45 39.5 Q27.1 41.8 24.55 43.65 L24.15 43.8 Q25.7 42.8 26.3 41.25 27.05 38.7 25.7 38.45 L21.45 37.15 Q20.15 36.9 19.6 37.15 20.05 36.55 19.65 36.05 M26.3 36.75 Q20.95 37.25 18.15 34.25 21.6 36.65 26.7 35.8 30.95 35.0 32.8 31.15 33.95 28.0 32.25 24.6 L31.4 22.9 31.6 23.15 33.2 24.85 Q34.5 28.75 33.65 31.5 32.25 35.2 27.3 36.6 L26.3 36.75 M21.45 43.75 L21.35 44.7 20.65 44.8 20.75 43.85 21.1 43.7 21.45 43.75 M24.5 44.8 L24.5 44.7 25.2 43.35 25.95 42.75 26.2 42.55 25.2 44.5 24.9 44.9 24.5 44.8" fill="#a6a637" fill-rule="evenodd" stroke="none"/>
      <path d="M23.85 20.6 Q20.6 20.9 18.25 23.05 L18.1 23.2 Q15.5 25.65 15.5 29.05 15.5 32.55 18.25 35.0 L19.25 35.85 19.65 36.05 19.95 36.3 Q21.3 37.05 22.8 37.3 M27.55 38.2 L27.55 38.0 Q27.45 37.35 28.3 37.0 29.95 36.5 31.4 35.35 32.5 35.25 33.5 34.45 36.75 32.05 36.25 26.9 L36.1 26.1 35.3 24.05 Q34.45 22.1 33.0 20.9 L31.6 19.95 Q29.6 18.8 26.75 18.6 L25.25 18.5 Q21.9 19.0 19.85 20.9 L19.0 21.8 18.1 23.2 M23.85 20.6 L24.85 20.55 Q27.15 20.55 29.1 21.5 30.3 22.0 31.4 22.9 L31.6 23.15 33.2 24.85 Q34.5 26.85 34.6 29.25 34.7 31.0 33.95 32.55 L32.3 34.7 M32.25 34.75 L31.75 35.15 31.4 35.35 M23.7 43.95 L24.15 43.8 24.55 43.65 25.2 43.35 25.95 42.75 26.2 42.55 25.2 44.5 24.9 44.9 24.9 44.95 Q23.45 47.15 21.8 47.95 L20.95 48.1 21.45 46.4 21.95 44.65 22.1 44.15 21.9 43.75 21.45 43.75 21.35 44.7 20.9 47.45 20.4 47.85 20.3 47.7 20.15 47.5 Q19.5 46.65 19.25 45.0 19.05 44.15 19.0 43.05 L19.0 42.55 Q17.9 41.3 18.1 39.6 18.2 37.9 19.25 36.9 19.75 36.3 19.25 35.85 M21.3 40.45 L21.35 41.15 21.4 42.0 21.7 43.25 21.8 43.6 21.9 43.75 M20.7 42.85 Q20.8 41.85 21.35 41.15 M19.0 42.55 L19.15 42.75 20.4 43.75 Q20.6 43.9 20.75 43.85 L21.1 43.7 21.45 43.75 M20.6 43.2 L20.6 43.5 21.1 43.7 M20.6 43.2 L20.7 42.85 M27.55 38.2 L27.65 39.6 27.2 41.15 26.2 42.55 M23.7 43.95 L22.45 44.1 22.1 44.15" fill="none" stroke="#000000" stroke-linecap="round" stroke-linejoin="round" stroke-opacity="0.3019608" stroke-width="0.30000000000000004"/>
      <path d="M16.9 26.45 Q17.6 27.3 17.7 28.2 16.75 28.85 15.85 28.45 L15.65 27.9 15.4 27.1 15.15 26.85 16.9 26.45 M15.85 30.4 Q16.4 30.75 17.15 30.2 L16.35 30.95 15.45 31.1 15.85 30.4" fill="#f0f0d2" fill-rule="evenodd" stroke="none"/>
      <path d="M8.2 27.0 L8.85 27.95 8.9 27.95 Q9.4 29.3 10.6 30.15 10.95 30.6 13.1 31.2 L14.35 31.45 14.1 31.6 Q9.9 31.35 8.55 28.25 L8.2 27.0 M11.85 26.25 L11.45 25.65 14.4 26.1 14.75 26.4 15.15 26.85 15.4 27.1 15.65 27.9 Q16.0 29.1 15.35 30.2 L14.9 30.65 Q12.9 31.85 11.1 29.7 L10.6 28.35 11.05 28.85 11.75 29.8 Q12.4 30.6 13.8 30.75 15.35 30.2 15.35 28.8 15.6 27.5 14.45 26.55 L13.55 26.45 11.85 26.25 M12.4 26.7 L13.75 26.85 Q15.0 27.35 14.35 29.05 L12.25 29.15 12.15 29.0 12.7 29.1 13.55 29.2 Q14.35 28.9 14.15 27.7 13.8 27.0 12.6 27.0 L12.4 26.7" fill="#ffde4f" fill-rule="evenodd" stroke="none"/>
      <path d="M17.7 28.2 L17.6 29.3 17.55 29.45 17.15 30.2 Q16.4 30.75 15.85 30.4 16.15 29.5 15.85 28.45 16.75 28.85 17.7 28.2 M15.15 31.45 L14.35 31.45 14.55 31.2 15.45 31.1 15.15 31.45" fill="#e6e4b3" fill-rule="evenodd" stroke="none"/>
      <path d="M14.75 26.4 L16.6 26.15 16.9 26.45 15.15 26.85 14.75 26.4 M17.55 29.45 L17.0 30.8 Q16.6 31.35 16.05 31.4 L15.15 31.45 15.45 31.1 16.35 30.95 17.15 30.2 17.55 29.45" fill="#f9f8ec" fill-rule="evenodd" stroke="none"/>
      <path d="M8.2 27.0 Q7.8 25.65 8.2 24.8 8.75 23.9 9.95 24.95 L11.45 25.65 11.85 26.25 Q10.5 25.9 9.6 25.2 8.6 24.35 8.5 25.35 8.5 26.85 8.85 27.95 L8.2 27.0 M11.9 26.8 L12.4 26.7 12.6 27.0 11.6 27.15 Q10.7 27.9 11.05 28.85 L10.6 28.35 10.6 28.0 Q10.65 27.6 11.0 27.35 11.35 26.9 11.9 26.8 M12.15 29.0 L12.0 28.8 Q11.8 28.35 12.7 27.95 L13.2 27.95 Q12.4 28.25 12.45 28.65 12.4 28.95 12.7 29.1 L12.15 29.0" fill="#ffff98" fill-rule="evenodd" stroke="none"/>
      <path d="M11.9 26.8 L11.85 26.25 13.55 26.45 14.45 26.55 Q15.6 27.5 15.35 28.8 15.35 30.2 13.8 30.75 12.4 30.6 11.75 29.8 L11.05 28.85 12.0 28.8 12.15 29.0 12.25 29.15 14.35 29.05 Q15.0 27.35 13.75 26.85 L12.4 26.7 11.9 26.8 M12.6 27.0 Q13.8 27.0 14.15 27.7 14.35 28.9 13.55 29.2 L12.7 29.1 13.45 28.8 Q13.85 28.25 13.2 27.95 L12.7 27.95 Q13.05 27.45 12.6 27.0 M10.6 28.0 L10.6 28.35 11.1 29.7 Q12.9 31.85 14.9 30.65 L14.55 31.2 14.35 31.45 13.1 31.2 Q10.95 30.6 10.6 30.15 9.4 29.3 8.9 27.95 L10.6 28.0" fill="#cc6b22" fill-rule="evenodd" stroke="none"/>
      <path d="M8.85 27.95 Q8.5 26.85 8.5 25.35 8.6 24.35 9.6 25.2 10.5 25.9 11.85 26.25 L11.9 26.8 Q11.35 26.9 11.0 27.35 10.65 27.6 10.6 28.0 L8.9 27.95 8.85 27.95 M12.0 28.8 L11.05 28.85 Q10.7 27.9 11.6 27.15 L12.6 27.0 Q13.05 27.45 12.7 27.95 11.8 28.35 12.0 28.8 M13.2 27.95 Q13.85 28.25 13.45 28.8 L12.7 29.1 Q12.4 28.95 12.45 28.65 12.4 28.25 13.2 27.95" fill="#f4a33c" fill-rule="evenodd" stroke="none"/>
      <path d="M14.9 30.65 L15.35 30.2 Q16.0 29.1 15.65 27.9 L15.85 28.45 Q16.15 29.5 15.85 30.4 L15.45 31.1 14.55 31.2 14.9 30.65" fill="#cac960" fill-rule="evenodd" stroke="none"/>
      <path d="M11.45 25.65 L9.95 24.95 Q8.75 23.9 8.2 24.8 7.8 25.65 8.2 27.0 L8.55 28.25 Q9.9 31.35 14.1 31.6 L14.35 31.45 14.55 31.2 14.9 30.65 15.35 30.2 Q16.0 29.1 15.65 27.9 L15.4 27.1 15.15 26.85 14.75 26.4 16.6 26.15 M11.45 25.65 L14.4 26.1 14.75 26.4 M17.0 30.8 Q16.6 31.35 16.05 31.4 L15.15 31.45 14.35 31.45 M11.9 26.8 L12.4 26.7 13.75 26.85 Q15.0 27.35 14.35 29.05 L12.25 29.15 12.15 29.0 12.0 28.8 Q11.8 28.35 12.7 27.95 L13.2 27.95 M11.9 26.8 Q11.35 26.9 11.0 27.35 10.65 27.6 10.6 28.0 L10.6 28.35 11.1 29.7 Q12.9 31.85 14.9 30.65" fill="none" stroke="#000000" stroke-linecap="round" stroke-linejoin="round" stroke-opacity="0.3019608" stroke-width="0.30000000000000004"/>
      <path d="M33.8 34.8 Q34.3 35.95 34.25 37.7 L34.7 37.6 35.2 37.5 36.6 37.2 Q37.95 36.85 38.85 36.15 L40.15 34.75 Q40.95 34.8 40.6 36.25 L40.4 37.05 Q38.65 38.05 36.05 38.85 L31.95 39.8 31.15 39.55 Q30.8 39.25 30.75 38.75 L30.95 38.4 31.6 38.2 32.45 38.0 32.75 37.95 32.25 36.15 32.1 35.85 31.8 35.2 Q32.1 34.5 32.9 34.6 L33.8 34.8 M37.35 28.0 Q39.5 27.55 41.25 28.45 42.3 29.3 41.4 30.55 L41.15 30.75 Q40.45 31.25 39.5 31.25 37.9 30.4 34.8 31.5 L34.75 31.5 Q34.65 30.5 35.9 29.2 L36.5 28.7 37.35 28.0 M23.85 46.25 L23.95 45.95 Q25.3 44.3 26.0 42.65 L27.1 41.25 27.65 40.3 Q27.85 39.9 28.6 39.4 L28.8 39.45 Q29.35 39.65 28.95 41.15 L28.75 41.8 28.1 42.7 27.25 44.05 26.75 44.75 25.75 45.85 Q23.9 47.35 23.85 46.25" fill="#f0f0d2" fill-rule="evenodd" stroke="none"/>
      <path d="M39.5 31.25 Q40.45 31.25 41.15 30.75 L41.4 30.55 42.15 29.3 Q42.8 30.15 43.0 31.25 L43.05 31.95 42.95 33.45 42.55 34.6 Q41.2 34.5 40.6 32.8 L40.45 32.2 40.2 31.7 Q39.85 31.4 39.5 31.25" fill="#f9f8ec" fill-rule="evenodd" stroke="none"/>
      <path d="M31.45 34.7 L32.75 33.4 33.3 33.95 Q33.65 34.3 33.8 34.8 L32.9 34.6 Q32.1 34.5 31.8 35.2 L31.45 34.7 M40.15 34.75 L40.6 33.85 40.6 32.8 Q41.2 34.5 42.55 34.6 L41.35 36.3 41.0 36.65 40.4 37.05 40.6 36.25 Q40.95 34.8 40.15 34.75 M33.7 31.9 Q34.35 30.8 34.55 29.05 L34.8 28.95 36.8 28.15 37.35 28.0 36.5 28.7 35.9 29.2 Q34.65 30.5 34.75 31.5 L33.7 31.9 M28.6 39.4 L28.8 39.2 29.3 39.0 30.55 38.5 30.95 38.4 30.75 38.75 Q30.45 39.6 31.0 40.0 L31.05 40.0 31.0 40.05 Q29.85 40.45 28.75 41.8 L28.95 41.15 Q29.35 39.65 28.8 39.45 L28.6 39.4" fill="#e6e4b3" fill-rule="evenodd" stroke="none"/>
      <path d="M30.9 35.0 L31.45 34.7 31.8 35.2 32.1 35.85 32.25 36.15 32.75 37.95 32.1 36.5 31.95 36.2 Q31.5 35.45 30.9 35.0 M33.7 32.2 L33.7 31.9 34.75 31.5 34.8 31.5 Q37.9 30.4 39.5 31.25 39.85 31.4 40.2 31.7 L40.45 32.2 Q39.35 31.0 38.0 31.15 36.25 31.15 34.6 31.8 34.15 31.95 33.7 32.2 M41.25 28.45 L42.05 28.85 Q43.2 30.0 43.4 31.35 L43.45 31.85 43.45 32.15 43.2 33.65 43.2 33.85 Q42.85 34.95 42.1 35.9 L41.75 36.35 41.0 37.05 Q38.65 38.5 35.95 39.3 L35.55 39.4 31.9 40.1 30.85 40.55 29.95 41.15 Q29.05 41.85 28.25 43.0 L26.95 45.05 26.1 46.0 Q24.75 47.45 23.7 47.1 L23.85 46.25 Q23.9 47.35 25.75 45.85 L26.75 44.75 27.25 44.05 28.1 42.7 28.75 41.8 Q29.85 40.45 31.0 40.05 L31.05 40.0 31.0 40.0 Q30.45 39.6 30.75 38.75 30.8 39.25 31.15 39.55 L31.95 39.8 36.05 38.85 Q38.65 38.05 40.4 37.05 L41.0 36.65 41.35 36.3 42.55 34.6 42.95 33.45 43.05 31.95 43.0 31.25 Q42.8 30.15 42.15 29.3 L41.4 30.55 Q42.3 29.3 41.25 28.45" fill="#ffffff" fill-rule="evenodd" stroke="none"/>
      <path d="M30.9 35.7 L30.9 35.0 Q31.5 35.45 31.95 36.2 L32.1 36.5 32.75 37.95 32.45 38.0 32.0 37.0 31.7 36.6 30.9 35.7 M40.6 33.85 Q40.45 32.25 38.1 32.0 35.85 31.85 33.95 32.85 L33.7 32.95 33.7 32.2 Q34.15 31.95 34.6 31.8 36.25 31.15 38.0 31.15 39.35 31.0 40.45 32.2 L40.6 32.8 40.6 33.85 M42.05 28.85 L42.6 29.3 43.25 30.0 43.9 31.5 Q44.3 33.0 43.8 34.6 L43.65 34.65 Q43.2 34.8 43.2 33.95 L43.2 33.65 43.45 32.15 43.45 31.85 43.4 31.35 Q43.2 30.0 42.05 28.85 M42.4 37.05 L42.3 37.2 Q40.35 39.35 36.05 40.35 L35.55 40.25 Q35.1 40.05 35.55 39.4 L35.95 39.3 Q38.65 38.5 41.0 37.05 L41.75 36.35 42.1 35.9 Q42.65 35.8 42.6 36.4 L42.4 37.05 M30.55 41.95 L30.35 42.15 Q29.15 43.15 28.25 44.9 L26.65 47.15 26.25 47.25 Q25.9 47.1 26.1 46.0 L26.95 45.05 28.25 43.0 Q29.05 41.85 29.95 41.15 30.45 41.0 30.6 41.3 L30.55 41.95" fill="#d5d580" fill-rule="evenodd" stroke="none"/>
      <path d="M43.8 34.6 L43.75 34.8 42.85 36.45 42.4 37.05 42.6 36.4 Q42.65 35.8 42.1 35.9 42.85 34.95 43.2 33.85 L43.2 33.65 43.2 33.95 Q43.2 34.8 43.65 34.65 L43.8 34.6 M36.05 40.35 L35.5 40.45 32.85 40.85 Q31.55 41.15 30.55 41.95 L30.6 41.3 Q30.45 41.0 29.95 41.15 L30.85 40.55 31.9 40.1 35.55 39.4 Q35.1 40.05 35.55 40.25 L36.05 40.35 M26.65 47.15 L26.1 47.55 Q25.15 48.2 24.25 47.8 23.7 47.55 23.7 47.1 24.75 47.45 26.1 46.0 25.9 47.1 26.25 47.25 L26.65 47.15" fill="#cac960" fill-rule="evenodd" stroke="none"/>
      <path d="M32.75 33.4 L33.3 33.95 Q33.65 34.3 33.8 34.8 34.3 35.95 34.25 37.7 L34.7 37.6 35.2 37.5 36.6 37.2 Q37.95 36.85 38.85 36.15 L40.15 34.75 40.6 33.85 Q40.45 32.25 38.1 32.0 35.85 31.85 33.95 32.85 L33.7 32.95 M34.55 29.05 L34.8 28.95 36.8 28.15 37.35 28.0 Q39.5 27.55 41.25 28.45 L42.05 28.85 42.6 29.3 43.25 30.0 43.9 31.5 Q44.3 33.0 43.8 34.6 L43.75 34.8 42.85 36.45 42.4 37.05 42.3 37.2 Q40.35 39.35 36.05 40.35 L35.5 40.45 32.85 40.85 Q31.55 41.15 30.55 41.95 L30.35 42.15 Q29.15 43.15 28.25 44.9 L26.65 47.15 26.1 47.55 Q25.15 48.2 24.25 47.8 23.7 47.55 23.7 47.1 L23.85 46.25 23.95 45.95 M27.65 40.3 Q27.85 39.9 28.6 39.4 L28.8 39.2 29.3 39.0 30.55 38.5 30.95 38.4 31.6 38.2 32.45 38.0 32.0 37.0 31.7 36.6 30.9 35.7 M32.75 37.95 L32.45 38.0 M40.6 32.8 L40.6 33.85" fill="none" stroke="#000000" stroke-linecap="round" stroke-linejoin="round" stroke-opacity="0.3019608" stroke-width="0.30000000000000004"/>
      <path d="M21.55 38.25 L22.0 38.45 22.0 38.5 22.25 39.1 22.05 39.75 21.4 40.0 20.8 39.75 20.7 39.65 20.5 39.35 20.5 39.1 Q20.5 38.75 20.75 38.5 21.0 38.25 21.4 38.25 L21.55 38.25" fill="#d5d580" fill-rule="evenodd" stroke="none"/>
      <path d="M20.4 38.95 L20.4 38.7 20.6 38.05 21.2 37.85 21.4 37.85 21.55 38.15 21.55 38.4 21.35 39.0 21.2 39.1 21.0 39.15 20.4 38.95 M21.2 38.2 L21.05 38.05 20.9 38.05 20.75 38.2 20.7 38.4 20.8 38.5 21.0 38.55 21.15 38.45 21.2 38.2" fill="#ffde4f" fill-rule="evenodd" stroke="none"/>
      <path d="M21.4 37.85 L21.85 38.0 21.85 38.05 21.85 38.25 21.6 38.9 21.2 39.1 21.35 39.0 21.55 38.4 21.55 38.15 21.4 37.85 M21.2 38.2 L21.15 38.45 21.0 38.55 20.8 38.5 20.7 38.4 20.75 38.2 20.9 38.05 21.05 38.05 21.2 38.2" fill="#ffff98" fill-rule="evenodd" stroke="none"/>
      <path d="M21.85 38.05 L22.15 38.7 21.9 39.35 21.25 39.6 20.65 39.35 20.55 39.25 20.4 38.95 21.0 39.15 21.2 39.1 21.6 38.9 21.85 38.25 21.85 38.05" fill="#f4a33c" fill-rule="evenodd" stroke="none"/>
      <path d="M20.4 38.95 L20.4 38.7 20.6 38.05 21.2 37.85 21.4 37.85 21.85 38.0 21.85 38.05 22.15 38.7 21.9 39.35 21.25 39.6 20.65 39.35 20.55 39.25 20.4 38.95 Z" fill="none" stroke="#000000" stroke-linecap="round" stroke-linejoin="round" stroke-opacity="0.3019608" stroke-width="0.30000000000000004"/>
      <path d="M27.85 23.85 L28.65 23.2 28.8 23.2 28.9 24.0 28.8 24.0 Q28.3 24.15 28.1 24.6 L27.85 23.85 M20.15 30.85 L20.7 31.2 20.65 31.35 20.55 32.8 20.05 32.8 Q19.95 31.75 20.15 30.95 L20.15 30.85" fill="#ffde4f" fill-rule="evenodd" stroke="none"/>
      <path d="M27.4 25.4 Q27.1 24.6 27.5 23.9 27.8 23.1 28.5 22.9 29.25 22.7 29.9 23.15 30.6 23.55 30.85 24.4 L31.0 24.95 30.8 25.95 Q30.45 26.75 29.75 26.9 L28.35 26.7 Q27.8 26.4 27.55 25.8 L27.4 25.4 M28.8 23.2 L28.65 23.2 27.85 23.85 27.75 24.05 Q27.5 24.65 27.65 25.3 L27.8 25.7 28.45 26.4 Q29.05 26.8 29.65 26.6 30.25 26.4 30.5 25.8 L30.65 24.95 30.55 24.45 Q30.4 23.8 29.8 23.45 29.35 23.1 28.8 23.2 M21.35 30.4 L20.75 30.0 Q20.4 30.1 20.15 30.75 L20.15 30.85 20.15 30.95 Q19.95 31.75 20.05 32.8 L20.05 33.0 20.55 34.95 Q20.95 35.7 21.25 35.7 L21.35 35.7 21.95 34.85 21.95 34.75 Q22.15 33.9 22.0 32.7 L21.5 30.75 21.35 30.4 M21.65 30.45 Q22.15 31.35 22.3 32.75 22.5 34.05 22.2 35.1 L22.2 35.2 Q21.95 36.1 21.45 36.2 L21.35 36.2 Q20.9 36.15 20.45 35.3 19.95 34.45 19.8 33.05 L19.75 32.8 Q19.65 31.6 19.9 30.75 L20.05 30.15 Q20.3 29.65 20.65 29.6 21.05 29.6 21.45 30.1 L21.65 30.45" fill="#f9f8ec" fill-rule="evenodd" stroke="none"/>
      <path d="M28.8 23.2 Q29.35 23.1 29.8 23.45 30.4 23.8 30.55 24.45 L30.65 24.95 30.0 24.2 28.9 24.0 28.8 23.2 M27.8 25.7 L27.65 25.3 Q27.5 24.65 27.75 24.05 L27.85 23.85 28.1 24.6 27.95 24.8 Q27.75 25.2 27.8 25.7 M21.35 30.4 L21.25 30.4 Q20.9 30.45 20.7 31.2 L20.15 30.85 20.15 30.75 Q20.4 30.1 20.75 30.0 L21.35 30.4 M20.55 32.8 L20.55 33.45 20.6 33.5 20.6 33.7 20.7 34.05 Q21.15 35.95 21.95 34.85 L21.35 35.7 21.25 35.7 Q20.95 35.7 20.55 34.95 L20.05 33.0 20.05 32.8 20.55 32.8" fill="#f4a33c" fill-rule="evenodd" stroke="none"/>
      <path d="M30.65 24.95 L30.5 25.8 Q30.25 26.4 29.65 26.6 29.05 26.8 28.45 26.4 L27.8 25.7 Q27.75 25.2 27.95 24.8 L28.1 24.6 Q28.3 24.15 28.8 24.0 L28.9 24.0 30.0 24.2 30.65 24.95 M20.7 31.2 Q20.9 30.45 21.25 30.4 L21.35 30.4 21.5 30.75 22.0 32.7 Q22.15 33.9 21.95 34.75 L21.95 34.85 Q21.15 35.95 20.7 34.05 L20.6 33.7 20.6 33.5 20.55 33.45 20.55 32.8 20.65 31.35 20.7 31.2" fill="#a34100" fill-rule="evenodd" stroke="none"/>
      <path d="M14.85 19.95 L15.0 20.05 15.75 20.35 Q16.0 20.55 15.7 21.1 L15.65 21.2 15.3 20.5 15.25 20.45 14.85 19.95 M17.5 21.5 L17.8 21.5 17.25 22.1 16.45 22.1 16.65 22.55 Q16.9 23.05 16.8 23.6 L16.6 24.2 Q16.75 23.65 16.35 23.0 L15.9 22.45 15.4 21.95 14.55 21.5 14.15 21.2 14.15 20.3 14.5 20.95 Q14.9 21.35 15.7 21.5 L16.0 21.5 17.5 21.5 M14.4 22.85 L14.95 23.4 Q15.7 24.0 16.6 24.2 L17.3 24.2 18.25 24.2 18.5 24.15 18.75 24.1 18.2 24.8 17.85 24.8 18.4 25.65 18.4 25.7 18.45 26.35 18.35 26.65 Q18.35 25.7 16.45 24.7 L15.3 24.2 14.7 23.7 14.4 22.85 M20.8 27.15 L21.4 27.1 20.45 27.6 19.75 27.6 18.95 27.5 20.05 28.65 18.6 27.65 17.95 27.35 17.35 27.15 17.25 27.1 16.35 26.5 15.3 25.1 16.1 25.85 Q17.0 26.65 18.3 26.95 L18.55 27.0 20.8 27.15" fill="#ffde4f" fill-rule="evenodd" stroke="none"/>
      <path d="M20.8 19.7 L20.95 19.45 Q21.95 21.0 23.35 22.4 L22.75 22.15 Q21.65 21.1 20.8 19.7 M17.8 20.55 L18.15 20.55 Q18.6 22.5 19.5 24.2 20.25 25.6 21.55 26.9 L22.95 28.0 24.55 28.95 24.25 29.05 21.65 27.3 21.4 27.1 Q20.15 25.95 19.3 24.55 L19.0 24.05 18.95 23.85 18.15 22.0 18.05 21.45 18.0 21.3 17.8 20.55 M24.85 28.8 L22.2 26.5 Q19.75 24.05 20.7 22.65 21.25 21.65 22.75 22.15 24.55 24.15 26.6 25.25 26.8 25.9 26.35 27.0 25.85 28.2 24.85 28.8" fill="#e6e4b3" fill-rule="evenodd" stroke="none"/>
      <path d="M20.65 19.35 L20.8 19.2 20.95 19.45 20.8 19.7 20.65 19.35 M17.85 18.25 L18.15 20.55 17.8 20.55 17.8 20.5 17.5 18.25 17.85 18.25 M22.95 28.0 Q21.25 26.55 20.5 25.45 19.05 23.4 18.6 21.1 19.9 21.1 20.8 19.7 21.65 21.1 22.75 22.15 21.25 21.65 20.7 22.65 19.75 24.05 22.2 26.5 L24.85 28.8 24.6 28.95 24.55 28.95 22.95 28.0" fill="#d5d580" fill-rule="evenodd" stroke="none"/>
      <path d="M20.65 19.35 L19.95 18.1 20.2 18.1 20.8 19.2 20.65 19.35 20.8 19.7 Q19.9 21.1 18.6 21.1 19.05 23.4 20.5 25.45 21.25 26.55 22.95 28.0 L21.55 26.9 Q20.25 25.6 19.5 24.2 18.6 22.5 18.15 20.55 19.65 20.55 20.65 19.35" fill="#cac960" fill-rule="evenodd" stroke="none"/>
      <path d="M14.45 19.65 L14.85 19.95 15.25 20.45 15.3 20.5 15.65 21.2 15.7 21.5 Q14.9 21.35 14.5 20.95 14.2 20.25 14.45 19.65 M14.55 21.5 L15.4 21.95 15.9 22.45 16.35 23.0 Q16.75 23.65 16.6 24.2 15.7 24.0 14.95 23.4 14.3 22.25 14.55 21.5 M15.3 24.2 L16.45 24.7 Q18.35 25.7 18.35 26.65 L18.3 26.95 Q17.0 26.65 16.1 25.85 15.2 24.5 15.3 24.2 M20.0 29.25 L18.65 28.95 18.3 28.65 17.25 27.1 17.35 27.15 17.95 27.35 18.6 27.65 20.05 28.65 20.0 29.25" fill="#f4a33c" fill-rule="evenodd" stroke="none"/>
      <path d="M15.75 20.35 L17.3 20.55 17.5 21.5 16.0 21.5 15.7 21.5 15.65 21.2 15.7 21.1 Q16.0 20.55 15.75 20.35 M17.8 21.5 L18.0 21.3 18.05 21.45 17.8 21.5 M16.6 24.2 L16.8 23.6 Q16.9 23.05 16.65 22.55 L16.45 22.1 17.25 22.1 17.7 22.05 Q17.65 23.05 18.5 24.15 L18.25 24.2 17.3 24.2 16.6 24.2 M18.35 26.65 L18.45 26.35 18.4 25.7 18.4 25.65 17.85 24.8 18.2 24.8 18.3 24.75 18.8 24.7 Q19.25 25.95 20.8 27.15 L18.55 27.0 18.3 26.95 18.35 26.65 M18.95 23.85 L19.0 24.05 18.75 24.1 18.95 23.85 M20.45 27.6 L21.15 27.5 Q21.8 28.5 23.7 29.4 L21.95 29.45 20.0 29.25 20.05 28.65 18.95 27.5 19.75 27.6 20.45 27.6" fill="#cc6b22" fill-rule="evenodd" stroke="none"/>
      <path d="M17.5 18.25 L17.8 20.5 17.8 20.55 18.0 21.3 17.8 21.5 17.5 21.5 17.3 20.55 15.75 20.35 15.0 20.05 14.85 19.95 14.45 19.65 14.2 19.45 14.25 18.55 17.5 18.25 M17.25 22.1 L17.8 21.5 18.05 21.45 18.15 22.0 18.95 23.85 18.75 24.1 18.5 24.15 Q17.65 23.05 17.7 22.05 L17.25 22.1 M18.2 24.8 L18.75 24.1 19.0 24.05 19.3 24.55 Q20.15 25.95 21.4 27.1 L21.65 27.3 24.25 29.05 23.7 29.4 Q21.8 28.5 21.15 27.5 L20.45 27.6 21.4 27.1 20.8 27.15 Q19.25 25.95 18.8 24.7 L18.3 24.75 18.2 24.8" fill="#a34100" fill-rule="evenodd" stroke="none"/>
      <path d="M14.2 19.45 L14.45 19.65 Q14.2 20.25 14.5 20.95 L14.15 20.3 14.2 19.45 M14.15 21.2 L14.55 21.5 Q14.3 22.25 14.95 23.4 L14.4 22.85 14.15 21.2 M14.7 23.7 L15.3 24.2 Q15.2 24.5 16.1 25.85 L15.3 25.1 14.7 23.7 M18.3 28.65 L17.7 28.05 16.35 26.5 17.25 27.1 18.3 28.65" fill="#ffff98" fill-rule="evenodd" stroke="none"/>
      <path d="M19.95 18.1 L20.65 19.35 Q19.65 20.55 18.15 20.55 L17.85 18.25 19.95 18.1" fill="#a6a637" fill-rule="evenodd" stroke="none"/>
      <path d="M22.75 22.15 L23.35 22.4 24.8 23.7 26.35 24.8 26.6 25.25 Q24.55 24.15 22.75 22.15" fill="#f0f0d2" fill-rule="evenodd" stroke="none"/>
      <path d="M20.8 19.2 L20.2 18.1 19.95 18.1 17.85 18.25 17.5 18.25 17.8 20.5 17.8 20.55 18.0 21.3 18.05 21.45 18.15 22.0 18.95 23.85 19.0 24.05 19.3 24.55 Q20.15 25.95 21.4 27.1 L21.65 27.3 24.25 29.05 M20.95 19.45 L20.8 19.2 M17.5 18.25 L14.25 18.55 14.2 19.45 14.15 20.3 14.15 21.2 14.4 22.85 14.7 23.7 15.3 25.1 16.1 25.85 Q17.0 26.65 18.3 26.95 L18.55 27.0 20.8 27.15 21.4 27.1 M17.5 21.5 L17.8 21.5 18.05 21.45 M17.5 21.5 L16.0 21.5 15.7 21.5 Q14.9 21.35 14.5 20.95 L14.15 20.3 M14.95 23.4 L14.4 22.85 M18.75 24.1 L18.5 24.15 18.25 24.2 17.3 24.2 16.6 24.2 Q15.7 24.0 14.95 23.4 M23.35 22.4 Q21.95 21.0 20.95 19.45 M18.75 24.1 L19.0 24.05 M26.35 24.8 L24.8 23.7 23.35 22.4 M18.3 28.65 L17.7 28.05 16.35 26.5 15.3 25.1" fill="none" stroke="#000000" stroke-linecap="round" stroke-linejoin="round" stroke-opacity="0.3019608" stroke-width="0.30000000000000004"/>
      <path d="M19.0 14.85 L19.9 15.3 20.2 16.1 20.15 16.45 Q19.95 17.4 18.8 18.05 17.65 18.7 16.2 18.6 L15.6 18.55 Q19.35 17.45 19.0 14.85 M19.95 15.3 L20.25 15.55 20.85 16.25 21.0 17.45 21.0 17.5 20.65 18.35 20.8 17.55 Q20.85 16.75 20.35 16.55 L20.35 16.4 20.35 16.3 19.95 15.3 M14.4 19.35 L13.9 19.05 13.35 18.35 13.15 17.45 Q13.1 17.3 13.2 17.05 L13.25 16.75 13.75 15.95 13.3 16.9 Q13.25 17.5 13.6 17.9 L13.8 18.45 14.4 19.35" fill="#f0f0d2" fill-rule="evenodd" stroke="none"/>
      <path d="M13.95 15.75 L14.7 15.2 Q16.0 14.55 17.65 14.65 L19.0 14.85 Q19.35 17.45 15.6 18.55 14.6 18.4 13.9 17.8 L13.8 17.7 Q13.5 17.4 13.5 16.95 13.5 16.45 13.95 15.75 M19.9 15.3 L19.9 15.25 19.95 15.3 19.9 15.3" fill="#f9f8ec" fill-rule="evenodd" stroke="none"/>
      <path d="M13.75 15.95 L13.95 15.75 Q13.5 16.45 13.5 16.95 13.5 17.4 13.8 17.7 L13.9 17.8 Q14.6 18.4 15.6 18.55 L16.2 18.6 Q17.65 18.7 18.8 18.05 19.95 17.4 20.15 16.45 L20.2 16.1 19.9 15.3 19.95 15.3 20.35 16.3 20.35 16.4 20.35 16.55 20.3 16.7 Q20.05 17.65 18.9 18.3 L17.7 18.7 16.3 18.85 16.15 18.85 Q14.7 18.75 13.8 18.0 L13.7 17.95 13.6 17.9 Q13.25 17.5 13.3 16.9 L13.75 15.95" fill="#ffffff" fill-rule="evenodd" stroke="none"/>
      <path d="M16.7 19.95 L16.55 19.95 Q15.3 19.9 14.4 19.35 L13.8 18.45 13.6 17.9 13.7 17.95 13.8 18.0 Q14.7 18.75 16.15 18.85 L16.3 18.85 16.2 19.0 Q16.0 19.5 16.7 19.95" fill="#e6e4b3" fill-rule="evenodd" stroke="none"/>
      <path d="M20.65 18.35 L19.5 19.3 18.85 19.65 16.9 19.95 16.65 19.65 Q16.6 19.4 16.9 19.15 L17.7 18.7 18.9 18.3 Q20.05 17.65 20.3 16.7 L20.35 16.55 Q20.85 16.75 20.8 17.55 L20.65 18.35" fill="#d5d580" fill-rule="evenodd" stroke="none"/>
      <path d="M16.9 19.95 L16.7 19.95 Q16.0 19.5 16.2 19.0 L16.3 18.85 17.7 18.7 16.9 19.15 Q16.6 19.4 16.65 19.65 L16.9 19.95" fill="#cac960" fill-rule="evenodd" stroke="none"/>
      <path d="M13.95 15.75 L14.7 15.2 Q16.0 14.55 17.65 14.65 L19.0 14.85 19.9 15.3 19.95 15.3 20.25 15.55 20.85 16.25 21.0 17.45 21.0 17.5 20.65 18.35 19.5 19.3 18.85 19.65 16.9 19.95 16.7 19.95 16.55 19.95 Q15.3 19.9 14.4 19.35 L13.9 19.05 13.35 18.35 13.15 17.45 Q13.1 17.3 13.2 17.05 L13.25 16.75 13.75 15.95 13.95 15.75 Z" fill="none" stroke="#000000" stroke-linecap="round" stroke-linejoin="round" stroke-opacity="0.3019608" stroke-width="0.30000000000000004"/>
      <path d="M15.5 15.55 L15.6 15.95 14.95 16.4 14.65 16.8 Q14.35 17.15 14.35 17.4 L14.3 17.25 Q14.1 16.9 14.45 16.4 14.8 15.9 15.45 15.55 L15.5 15.55 M17.35 15.75 L17.4 15.75 18.0 15.5 18.25 15.9 Q17.8 15.95 17.4 16.25 L17.35 15.75" fill="#ffde4f" fill-rule="evenodd" stroke="none"/>
      <path d="M15.2 17.3 L15.0 17.1 15.25 16.65 15.35 16.5 Q15.55 16.3 15.8 16.2 L16.4 16.0 Q16.65 16.0 16.7 16.2 L16.65 16.35 16.5 16.35 15.95 16.55 15.8 16.65 15.4 17.0 15.2 17.3 M17.0 17.5 L16.85 17.35 16.95 16.95 17.05 16.85 17.15 16.8 Q17.35 16.55 17.6 16.4 L18.2 16.25 Q18.45 16.25 18.5 16.4 L18.45 16.6 18.25 16.6 17.7 16.8 17.3 17.1 17.25 17.15 17.15 17.25 17.0 17.5" fill="#8f3600" fill-rule="evenodd" stroke="none"/>
      <path d="M15.6 15.95 L15.5 15.55 Q16.05 15.2 16.6 15.2 17.15 15.2 17.35 15.55 L17.4 15.75 17.35 15.75 16.8 15.6 Q16.2 15.6 15.6 15.95 M18.25 15.9 L18.0 15.5 18.3 15.5 Q18.85 15.5 19.15 15.8 L19.25 16.1 Q19.0 15.85 18.6 15.85 L18.25 15.9" fill="#f4a33c" fill-rule="evenodd" stroke="none"/>
      <path d="M16.65 16.35 L16.5 16.6 16.5 16.65 16.35 16.85 15.95 17.1 15.35 17.3 15.2 17.3 15.4 17.0 15.8 16.65 15.95 16.55 16.5 16.35 16.65 16.35 M18.45 16.6 L18.25 16.85 18.15 17.05 17.85 17.25 17.7 17.35 17.15 17.5 17.0 17.5 17.15 17.25 17.25 17.15 17.3 17.1 17.7 16.8 18.25 16.6 18.45 16.6" fill="#cc6b22" fill-rule="evenodd" stroke="none"/>
      <path d="M14.35 17.4 Q14.35 17.15 14.65 16.8 L14.95 16.4 15.6 15.95 Q16.2 15.6 16.8 15.6 L17.35 15.75 17.4 16.25 Q17.8 15.95 18.25 15.9 L18.6 15.85 Q19.0 15.85 19.25 16.1 L19.15 16.65 18.25 17.5 17.8 17.7 17.15 17.85 17.05 17.85 Q16.7 17.85 16.5 17.65 L16.35 17.5 16.25 17.35 16.2 17.25 15.25 17.55 15.05 17.6 14.35 17.4 M16.65 16.35 L16.7 16.2 Q16.65 16.0 16.4 16.0 L15.8 16.2 Q15.55 16.3 15.35 16.5 L15.25 16.65 15.0 17.1 15.2 17.3 15.35 17.3 15.95 17.1 16.35 16.85 16.5 16.65 16.5 16.6 16.65 16.35 M18.45 16.6 L18.5 16.4 Q18.45 16.25 18.2 16.25 L17.6 16.4 Q17.35 16.55 17.15 16.8 L17.05 16.85 16.95 16.95 16.85 17.35 17.0 17.5 17.15 17.5 17.7 17.35 17.85 17.25 18.15 17.05 18.25 16.85 18.45 16.6" fill="#a34100" fill-rule="evenodd" stroke="none"/>
      <path d="M19.25 16.1 L19.15 16.65 18.25 17.5 17.8 17.7 17.15 17.85 17.05 17.85 Q16.7 17.85 16.5 17.65 L16.35 17.5 16.25 17.35 16.2 17.25 15.25 17.55 15.05 17.6 14.35 17.4" fill="none" stroke="#000000" stroke-linecap="round" stroke-linejoin="round" stroke-opacity="0.3019608" stroke-width="0.30000000000000004"/>
      <path d="M17.5 5.7 L17.55 6.85 Q17.4 7.7 16.7 8.6 L16.45 8.5 Q15.3 7.6 16.2 6.3 L16.5 5.8 Q17.1 4.7 16.6 4.1 17.3 4.9 17.5 5.7 M16.95 5.75 L16.75 6.1 Q16.15 7.3 16.5 7.8 L17.05 6.35 16.95 5.75 M15.8 10.1 L16.1 10.35 16.6 11.2 17.3 10.05 Q17.95 9.15 18.9 8.5 L18.4 9.7 Q18.1 10.75 18.15 11.8 L18.2 12.55 Q18.1 14.45 15.75 13.95 L14.65 13.55 14.45 13.45 14.35 13.4 13.5 12.7 Q11.85 10.95 13.75 7.35 13.35 8.2 15.6 9.9 L15.8 10.1 M17.7 12.75 L17.7 12.2 17.7 12.0 Q17.65 11.05 17.85 10.25 17.1 10.8 16.45 12.3 L15.5 10.8 15.3 10.55 13.7 9.1 Q13.4 10.25 13.5 11.1 13.6 12.45 14.65 13.1 L14.85 13.2 15.25 13.4 17.1 13.65 Q17.5 13.6 17.7 12.75" fill="url(#gradient6)" fill-rule="evenodd" stroke="none"/>
      <path d="M16.95 5.75 L17.05 6.35 16.5 7.8 Q16.15 7.3 16.75 6.1 L16.95 5.75" fill="url(#gradient7)" fill-rule="evenodd" stroke="none"/>
      <path d="M16.25 13.1 L16.2 13.1 15.7 12.9 14.9 12.35 Q14.2 11.75 14.05 10.85 L14.05 10.2 14.7 10.75 15.3 11.4 16.05 12.7 16.25 13.1" fill="url(#gradient8)" fill-rule="evenodd" stroke="none"/>
      <path d="M16.85 12.4 L16.8 12.95 16.8 13.35 17.15 13.05 17.2 12.85 17.35 12.15 17.25 11.35 Q16.95 11.7 16.85 12.4 M16.25 13.1 L16.05 12.7 15.3 11.4 14.7 10.75 14.05 10.2 14.05 10.85 Q14.2 11.75 14.9 12.35 L15.7 12.9 16.2 13.1 16.25 13.1 M17.7 12.75 Q17.5 13.6 17.1 13.65 L15.25 13.4 14.85 13.2 14.65 13.1 Q13.6 12.45 13.5 11.1 13.4 10.25 13.7 9.1 L15.3 10.55 15.5 10.8 16.45 12.3 Q17.1 10.8 17.85 10.25 17.65 11.05 17.7 12.0 L17.7 12.2 17.7 12.75" fill="url(#gradient9)" fill-rule="evenodd" stroke="none"/>
      <path d="M16.85 12.4 Q16.95 11.7 17.25 11.35 L17.35 12.15 17.2 12.85 17.15 13.05 16.8 13.35 16.8 12.95 16.85 12.4" fill="url(#gradient10)" fill-rule="evenodd" stroke="none"/>
      <path d="M24.95 31.65 L24.9 32.95 24.55 32.7 24.4 32.6 Q24.0 32.15 24.1 31.25 L24.15 31.2 24.4 30.15 Q24.55 31.45 24.9 31.6 L24.95 31.65" fill="#f0f0d2" fill-rule="evenodd" stroke="none"/>
      <path d="M27.8 33.35 L27.15 33.2 26.7 32.85 26.55 32.55 27.1 32.7 Q27.3 33.05 27.75 33.0 28.25 32.9 28.25 32.15 28.9 32.95 27.8 33.35 M26.7 31.0 L27.05 30.6 Q27.35 30.35 27.8 30.35 L28.6 30.5 Q29.6 30.95 29.9 31.65 30.35 32.3 30.1 33.2 29.9 33.95 29.2 34.4 L27.7 34.55 27.15 34.4 27.65 34.35 28.8 34.0 Q29.75 33.35 29.65 31.95 29.05 30.8 28.15 30.75 L27.45 30.95 27.4 30.95 26.7 31.0 M30.75 34.6 Q32.0 33.9 32.9 32.8 33.25 32.05 32.0 31.3 30.6 30.9 29.05 29.6 L28.8 29.5 Q28.35 29.1 27.85 29.25 L27.85 29.3 27.25 29.15 Q26.85 29.15 26.4 29.5 L27.05 29.0 27.25 28.85 27.75 28.7 28.0 28.6 28.6 28.75 30.4 30.05 Q33.5 31.45 33.4 32.45 33.2 33.45 30.7 34.9 L29.2 35.2 28.0 35.15 27.05 35.0 27.85 34.85 28.0 34.85 28.1 34.85 30.45 34.75 30.75 34.6" fill="#ffde4f" fill-rule="evenodd" stroke="none"/>
      <path d="M24.9 32.95 L24.9 33.35 24.4 33.0 24.35 32.85 Q23.9 32.25 24.1 31.25 24.0 32.15 24.4 32.6 L24.55 32.7 24.9 32.95 M28.0 28.6 L27.75 28.7 27.0 27.9 27.4 27.95 27.45 27.95 28.0 28.6" fill="#f9f8ec" fill-rule="evenodd" stroke="none"/>
      <path d="M26.4 29.5 L25.8 30.15 25.4 30.75 24.95 31.65 24.9 31.6 Q24.55 31.45 24.4 30.15 L24.45 29.95 Q25.0 28.85 25.7 28.3 L25.85 28.2 26.4 28.4 Q26.8 28.55 27.05 29.0 L26.4 29.5" fill="#e6e4b3" fill-rule="evenodd" stroke="none"/>
      <path d="M27.85 29.3 Q28.5 29.75 27.8 30.35 27.35 30.35 27.05 30.6 L26.7 31.0 26.5 31.65 26.45 31.95 26.55 32.55 26.7 32.85 27.15 33.2 27.8 33.35 Q28.05 33.7 27.5 34.05 L26.65 34.35 26.25 34.2 Q25.2 33.45 25.6 31.85 L26.1 30.75 27.15 29.65 27.6 29.4 27.85 29.3 M29.9 31.65 Q32.0 33.45 30.75 34.6 L30.45 34.75 28.1 34.85 29.2 34.4 Q29.9 33.95 30.1 33.2 30.35 32.3 29.9 31.65 M27.1 32.7 L26.8 32.1 26.85 32.05 26.9 31.75 Q27.0 31.2 27.4 30.95 L27.45 30.95 27.85 31.4 Q28.25 32.55 27.1 32.7" fill="#f4a33c" fill-rule="evenodd" stroke="none"/>
      <path d="M27.85 29.3 L27.6 29.4 27.15 29.65 26.1 30.75 25.6 31.85 Q25.2 33.45 26.25 34.2 L26.65 34.35 27.1 34.4 27.15 34.4 27.7 34.55 29.2 34.4 28.1 34.85 28.0 34.85 27.85 34.85 27.05 35.0 Q26.0 35.15 25.3 34.15 L24.9 33.35 24.9 32.95 24.95 31.65 25.4 30.75 25.8 30.15 26.4 29.5 Q26.85 29.15 27.25 29.15 L27.85 29.3 M26.55 32.55 L26.45 31.95 26.5 31.65 26.7 31.0 27.4 30.95 Q27.0 31.2 26.9 31.75 L26.85 32.05 26.8 32.1 27.1 32.7 26.55 32.55" fill="#ffff98" fill-rule="evenodd" stroke="none"/>
      <path d="M27.8 30.35 Q28.5 29.75 27.85 29.3 L27.85 29.25 Q28.35 29.1 28.8 29.5 L29.05 29.6 Q30.6 30.9 32.0 31.3 33.25 32.05 32.9 32.8 32.0 33.9 30.75 34.6 32.0 33.45 29.9 31.65 29.6 30.95 28.6 30.5 L27.8 30.35 M26.65 34.35 L27.5 34.05 Q28.05 33.7 27.8 33.35 28.9 32.95 28.25 32.15 28.25 32.9 27.75 33.0 27.3 33.05 27.1 32.7 28.25 32.55 27.85 31.4 L27.45 30.95 28.15 30.75 Q29.05 30.8 29.65 31.95 29.75 33.35 28.8 34.0 L27.65 34.35 27.15 34.4 27.1 34.4 26.65 34.35" fill="#cc6b22" fill-rule="evenodd" stroke="none"/>
      <path d="M27.75 28.7 L27.25 28.85 27.05 29.0 Q26.8 28.55 26.4 28.4 L25.85 28.2 26.6 27.95 27.0 27.9 27.75 28.7" fill="#d5d580" fill-rule="evenodd" stroke="none"/>
      <path d="M27.8 33.35 L27.15 33.2 26.7 32.85 26.55 32.55 26.45 31.95 26.5 31.65 26.7 31.0 27.05 30.6 Q27.35 30.35 27.8 30.35 L28.6 30.5 Q29.6 30.95 29.9 31.65 30.35 32.3 30.1 33.2 29.9 33.95 29.2 34.4 L28.1 34.85 M26.4 29.5 L25.8 30.15 25.4 30.75 24.95 31.65 24.9 32.95 24.9 33.35 25.3 34.15 Q26.0 35.15 27.05 35.0 L27.85 34.85 28.0 34.85 M28.0 28.6 L27.75 28.7 27.25 28.85 27.05 29.0 26.4 29.5 M27.05 35.0 L28.0 35.15 29.2 35.2 30.7 34.9 Q33.2 33.45 33.4 32.45 33.5 31.45 30.4 30.05 L28.6 28.75 28.0 28.6 27.45 27.95 27.4 27.95 M27.8 33.35 Q28.9 32.95 28.25 32.15 M24.4 33.0 L24.9 33.35" fill="none" stroke="#000000" stroke-linecap="round" stroke-linejoin="round" stroke-opacity="0.3019608" stroke-width="0.30000000000000004"/>
    </g>
    <linearGradient gradientTransform="matrix(-0.0011, 0.0031, -0.0011, -4.0E-4, 36.5, 13.5)" gradientUnits="userSpaceOnUse" id="gradient0" spreadMethod="pad" x1="-819.2" x2="819.2">
      <stop offset="0.0" stop-color="#ffcc00"/>
      <stop offset="1.0" stop-color="#ff9900"/>
    </linearGradient>
    <linearGradient gradientTransform="matrix(7.0E-4, -0.002, 4.0E-4, 2.0E-4, 36.75, 12.85)" gradientUnits="userSpaceOnUse" id="gradient1" spreadMethod="pad" x1="-819.2" x2="819.2">
      <stop offset="0.0" stop-color="#ff6600"/>
      <stop offset="1.0" stop-color="#ff9900"/>
    </linearGradient>
    <linearGradient gradientTransform="matrix(0.0014, -0.0043, 0.0035, 0.0012, 36.75, 12.3)" gradientUnits="userSpaceOnUse" id="gradient2" spreadMethod="pad" x1="-819.2" x2="819.2">
      <stop offset="0.0" stop-color="#ffcc00"/>
      <stop offset="1.0" stop-color="#ffff00"/>
    </linearGradient>
    <linearGradient gradientTransform="matrix(-0.0015, 0.0014, -3.0E-4, -3.0E-4, 37.45, 15.3)" gradientUnits="userSpaceOnUse" id="gradient3" spreadMethod="pad" x1="-819.2" x2="819.2">
      <stop offset="0.0" stop-color="#ffcc00"/>
      <stop offset="1.0" stop-color="#ff9900"/>
    </linearGradient>
    <linearGradient gradientTransform="matrix(7.0E-4, -7.0E-4, 1.0E-4, 1.0E-4, 38.05, 14.65)" gradientUnits="userSpaceOnUse" id="gradient4" spreadMethod="pad" x1="-819.2" x2="819.2">
      <stop offset="0.0" stop-color="#ff6600"/>
      <stop offset="1.0" stop-color="#ff9900"/>
    </linearGradient>
    <linearGradient gradientTransform="matrix(6.0E-4, 6.0E-4, -2.0E-4, 2.0E-4, 34.55, 14.75)" gradientUnits="userSpaceOnUse" id="gradient5" spreadMethod="pad" x1="-819.2" x2="819.2">
      <stop offset="0.0" stop-color="#ffcc00"/>
      <stop offset="1.0" stop-color="#ff9900"/>
    </linearGradient>
    <linearGradient gradientTransform="matrix(-0.0023, -0.0034, 0.0034, -0.0024, 15.95, 10.2)" gradientUnits="userSpaceOnUse" id="gradient6" spreadMethod="pad" x1="-819.2" x2="819.2">
      <stop offset="0.0" stop-color="#ffcc00"/>
      <stop offset="1.0" stop-color="#ffff00"/>
    </linearGradient>
    <linearGradient gradientTransform="matrix(-3.0E-4, 0.0012, -3.0E-4, 0.0, 16.6, 7.25)" gradientUnits="userSpaceOnUse" id="gradient7" spreadMethod="pad" x1="-819.2" x2="819.2">
      <stop offset="0.0" stop-color="#ffcc00"/>
      <stop offset="1.0" stop-color="#ff9900"/>
    </linearGradient>
    <linearGradient gradientTransform="matrix(-0.0011, -0.0013, 4.0E-4, -4.0E-4, 14.7, 11.4)" gradientUnits="userSpaceOnUse" id="gradient8" spreadMethod="pad" x1="-819.2" x2="819.2">
      <stop offset="0.0" stop-color="#ff6600"/>
      <stop offset="1.0" stop-color="#ff9900"/>
    </linearGradient>
    <linearGradient gradientTransform="matrix(0.0013, 0.0028, -0.0024, 0.0014, 16.1, 11.85)" gradientUnits="userSpaceOnUse" id="gradient9" spreadMethod="pad" x1="-819.2" x2="819.2">
      <stop offset="0.0" stop-color="#ffcc00"/>
      <stop offset="1.0" stop-color="#ff9900"/>
    </linearGradient>
    <linearGradient gradientTransform="matrix(0.0, -0.0011, 3.0E-4, -1.0E-4, 17.1, 12.0)" gradientUnits="userSpaceOnUse" id="gradient10" spreadMethod="pad" x1="-819.2" x2="819.2">
      <stop offset="0.0" stop-color="#ff6600"/>
      <stop offset="1.0" stop-color="#ff9900"/>
    </linearGradient>
    <g id="sprite1" transform="matrix(1.0, 0.0, 0.0, 1.0, 0.0, 0.0)">
      <use height="26.7" transform="matrix(0.0042, -1.3515, 1.3935, 0.02, 22.09, 56.0263)" width="26.7" xlink:href="#sprite2"/>
      <use height="26.7" transform="matrix(0.0095, -3.0486, 0.372, 0.0053, 36.507, 81.3775)" width="26.7" xlink:href="#sprite2"/>
      <use height="26.7" transform="matrix(3.0486, 0.0095, -0.0053, 0.372, 0.1225, 35.107)" width="26.7" xlink:href="#sprite2"/>
    </g>
    <g id="sprite2" transform="matrix(1.0, 0.0, 0.0, 1.0, 13.35, 13.35)">
      <use height="26.7" transform="matrix(1.0, 0.0, 0.0, 1.0, -13.35, -13.35)" width="26.7" xlink:href="#shape1"/>
    </g>
    <g id="shape1" transform="matrix(1.0, 0.0, 0.0, 1.0, 13.35, 13.35)">
      <path d="M9.3 -9.85 Q13.35 -5.8 13.35 0.0 13.35 5.8 9.3 9.3 5.8 13.35 0.0 13.35 -5.8 13.35 -9.85 9.3 -13.35 5.8 -13.35 0.0 -13.35 -5.8 -9.85 -9.85 -5.8 -13.35 0.0 -13.35 5.8 -13.35 9.3 -9.85" fill="url(#gradient11)" fill-rule="evenodd" stroke="none"/>
    </g>
    <radialGradient cx="0" cy="0" gradientTransform="matrix(0.0213, 0.0, 0.0, 0.0213, 0.0, 0.0)" gradientUnits="userSpaceOnUse" id="gradient11" r="819.2" spreadMethod="pad">
      <stop offset="0.19607843137254902" stop-color="#fee3bc" stop-opacity="0.30588236"/>
      <stop offset="0.5019607843137255" stop-color="#fee3bc" stop-opacity="0.047058824"/>
      <stop offset="0.7607843137254902" stop-color="#ffe3bd" stop-opacity="0.0"/>
    </radialGradient>
  </defs>
</svg>
