<?xml version="1.0" encoding="UTF-8" standalone="no"?>
<svg xmlns:xlink="http://www.w3.org/1999/xlink" height="52.0px" width="52.0px" xmlns="http://www.w3.org/2000/svg">
  <g transform="matrix(1.0, 0.0, 0.0, 1.0, 0.0, 0.0)">
    <use height="54.0" transform="matrix(1.0, 0.0, 0.0, 1.0, -1.0, -1.0)" width="54.0" xlink:href="#shape0"/>
    <use height="0.0" transform="matrix(0.0923, 0.0402, -0.0277, 0.0501, 34.0, 10.55)" width="0.0" xlink:href="#sprite0"/>
    <use height="0.0" transform="matrix(0.0791, 0.0345, -0.0842, 0.1878, 27.2, 29.45)" width="0.0" xlink:href="#sprite0"/>
    <use height="0.0" transform="matrix(0.0222, 0.0097, -0.0398, 0.0549, 27.5, 15.45)" width="0.0" xlink:href="#sprite0"/>
    <use height="0.0" transform="matrix(0.0853, 0.0371, -0.0249, 0.0345, 19.7, 31.4)" width="0.0" xlink:href="#sprite0"/>
    <use height="81.5" transform="matrix(0.1437, 0.0255, -0.0255, 0.1437, 22.0, 25.35)" width="81.5" xlink:href="#sprite1"/>
    <use height="81.5" transform="matrix(0.1437, 0.0255, -0.0255, 0.1437, 30.95, 5.6)" width="81.5" xlink:href="#sprite1"/>
  </g>
  <defs>
    <g id="shape0" transform="matrix(1.0, 0.0, 0.0, 1.0, 1.0, 1.0)">
      <path d="M52.0 0.0 L52.0 52.0 0.0 52.0 0.0 0.0 52.0 0.0" fill="#795fa9" fill-opacity="0.0" fill-rule="evenodd" stroke="none"/>
      <path d="M29.6 4.65 L25.95 7.25 24.35 9.9 24.45 11.85 23.75 13.95 22.1 15.85 21.9 15.15 20.75 14.25 18.45 15.0 16.35 17.8 16.65 20.35 17.15 20.95 15.9 22.15 12.1 27.4 11.85 28.85 13.35 30.15 14.75 30.9 12.6 33.35 9.3 39.7 11.1 42.4 Q12.4 43.3 14.0 44.2 L16.3 42.2 16.8 41.3 17.3 41.45 15.65 43.3 15.4 44.15 15.25 44.9 16.75 45.65 17.5 45.45 17.4 45.95 21.55 47.8 24.65 47.55 26.35 46.0 29.05 41.5 32.75 32.55 33.0 30.7 33.75 31.35 36.25 30.5 37.75 28.4 38.3 25.55 38.0 24.9 37.45 24.0 36.65 23.85 37.45 22.75 38.45 22.9 41.4 19.65 42.65 16.9 42.7 12.0 42.1 10.55 40.1 8.4 37.7 6.75 31.6 5.0 29.6 4.65 M20.1 18.15 L19.4 18.85 19.05 18.75 19.25 18.1 19.9 18.0 20.1 18.15 M35.25 27.15 L35.2 27.4 34.2 27.7 34.0 27.45 34.6 26.65 35.25 27.15" fill="none" stroke="#000000" stroke-linecap="round" stroke-linejoin="round" stroke-opacity="0.3019608" stroke-width="1.0"/>
      <path d="M18.45 15.0 L19.3 15.9 16.9 17.95 16.95 19.7 17.7 20.55 16.65 20.35 16.35 17.8 18.45 15.0 M19.3 15.9 L16.35 17.8 19.3 15.9" fill="#d7f16b" fill-rule="evenodd" stroke="none"/>
      <path d="M18.45 15.0 L20.75 14.25 21.9 15.15 19.3 15.9 21.9 15.15 22.5 17.4 18.95 20.75 17.7 20.55 16.95 19.7 16.9 17.95 19.3 15.9 18.45 15.0 M20.45 18.5 L21.0 18.1 20.7 17.3 20.05 17.2 18.65 18.25 18.55 18.7 19.05 18.75 19.9 18.95 20.45 18.5" fill="#9ae17b" fill-rule="evenodd" stroke="none"/>
      <path d="M20.05 17.2 L19.9 18.0 19.25 18.1 18.65 18.25 20.05 17.2" fill="#75d74a" fill-rule="evenodd" stroke="none"/>
      <path d="M18.95 20.75 L17.65 21.6 16.65 20.35 17.7 20.55 18.95 20.75 M20.45 18.5 L19.9 18.0 20.05 17.2 20.7 17.3 21.0 18.1 20.45 18.5 M19.25 18.1 L19.05 18.75 18.55 18.7 18.65 18.25 19.25 18.1" fill="#246c41" fill-rule="evenodd" stroke="none"/>
      <path d="M21.9 15.15 L20.75 14.25 18.45 15.0 19.3 15.9 21.9 15.15 22.5 17.4 18.95 20.75 17.65 21.6 16.65 20.35 16.35 17.8 18.45 15.0 M19.9 18.0 L20.45 18.5 21.0 18.1 20.7 17.3 20.05 17.2 19.9 18.0 19.25 18.1 19.05 18.75 19.9 18.95 20.45 18.5 M18.65 18.25 L19.25 18.1 M19.05 18.75 L18.55 18.7 18.65 18.25 20.05 17.2 M17.7 20.55 L18.95 20.75 M16.65 20.35 L17.7 20.55 M16.35 17.8 L19.3 15.9" fill="none" stroke="#000000" stroke-linecap="round" stroke-linejoin="round" stroke-opacity="0.3019608" stroke-width="0.30000000000000004"/>
      <path d="M17.5 45.5 L16.7 45.65 16.9 44.75 17.2 44.45 18.15 43.55 17.65 44.75 17.6 45.0 17.5 45.5 M16.8 41.3 L16.3 42.2 14.0 44.2 13.85 43.35 14.35 42.85 15.85 41.7 16.25 41.15 16.8 41.3" fill="#220000" fill-rule="evenodd" stroke="none"/>
      <path d="M9.3 39.7 L12.65 33.35 10.8 38.95 9.3 39.7 M14.25 24.45 L15.9 22.2 16.9 25.4 17.9 28.6 12.95 27.65 14.25 24.45 M19.5 18.75 L19.8 18.5 23.7 13.95 24.3 15.35 20.6 18.25 17.1 24.9 19.5 18.75 M25.95 7.25 L29.6 4.65 31.6 5.0 29.95 5.95 26.2 9.15 28.7 9.1 35.15 11.95 37.25 10.55 35.7 12.2 35.95 12.65 29.0 9.5 25.15 9.35 28.9 6.6 29.95 5.95 28.9 6.6 25.95 7.25 M31.55 13.6 L30.65 16.05 28.55 18.7 30.05 15.8 31.55 13.6 M21.55 19.25 L21.7 18.4 24.1 17.0 23.4 18.15 27.3 20.8 28.4 22.8 27.25 21.4 23.15 18.15 22.05 18.45 21.55 19.25 M23.4 37.0 L19.95 41.7 16.95 40.6 10.8 38.95 13.7 38.05 15.9 39.8 18.7 41.0 19.9 40.8 23.4 37.0" fill="#d7f16b" fill-rule="evenodd" stroke="none"/>
      <path d="M40.15 8.35 L42.1 10.55 40.0 15.65 38.4 16.7 37.15 14.95 37.65 10.15 37.25 10.55 35.15 11.95 28.7 9.1 26.2 9.15 29.95 5.95 31.6 5.0 37.65 6.75 38.0 9.25 40.15 8.35 M12.65 33.35 L14.1 31.65 14.95 33.85 13.7 38.05 10.8 38.95 12.65 33.35 M11.8 28.9 L12.1 27.4 14.25 24.45 12.95 27.65 11.8 28.9 M37.65 10.15 L38.0 9.25 37.65 10.15 M28.1 12.65 L28.85 11.5 29.15 11.05 29.95 10.8 27.6 16.6 27.35 13.8 28.1 12.65 M24.85 16.7 L24.1 17.0 24.85 16.7 25.6 16.45 27.3 20.8 23.4 18.15 24.1 17.0 21.7 18.4 21.55 19.25 21.35 20.25 21.6 20.35 25.5 25.8 26.5 30.45 26.15 32.35 24.95 32.15 19.75 29.7 17.9 28.6 16.9 25.4 17.1 24.9 20.6 18.25 24.3 15.35 24.85 16.7" fill="#9ae17b" fill-rule="evenodd" stroke="none"/>
      <path d="M37.65 6.75 L40.15 8.35 38.0 9.25 37.65 6.75 M42.1 10.55 L42.65 12.0 40.65 15.55 40.0 15.65 42.1 10.55 M15.9 22.2 L19.5 18.75 17.1 24.9 16.9 25.4 15.9 22.2 M23.7 13.95 L24.05 12.9 24.75 13.4 28.1 12.65 27.35 13.8 27.6 16.6 29.95 10.8 32.65 12.05 31.55 13.6 30.05 15.8 28.55 18.7 29.0 19.45 29.4 20.2 28.7 23.35 28.4 22.8 27.3 20.8 25.6 16.45 24.85 16.7 24.3 15.35 23.7 13.95 M24.35 9.9 L25.95 7.25 28.9 6.6 25.15 9.35 24.35 9.9 M38.4 16.7 L40.0 15.65 40.65 15.55 38.95 18.55 38.4 16.7 M35.95 12.65 L35.7 12.2 37.25 10.55 37.65 10.15 37.15 14.95 35.95 12.65 M33.45 23.35 L29.55 29.1 33.25 22.4 33.45 23.35 M28.85 30.1 L27.4 32.0 26.65 32.85 24.6 32.5 19.75 29.7 24.95 32.15 26.15 32.35 26.95 31.75 28.3 30.1 27.7 23.8 28.85 30.1 M27.35 13.8 L25.6 16.45 27.35 13.8 M27.6 16.6 L27.75 18.2 27.3 20.8 27.75 18.2 27.6 16.6 M23.8 36.45 L23.4 37.0 19.9 40.8 18.7 41.0 15.9 39.8 13.7 38.05 14.95 33.85 16.0 32.5 23.8 36.45" fill="#75d74a" fill-rule="evenodd" stroke="none"/>
      <path d="M33.05 30.5 L32.8 32.55 29.05 41.5 26.3 46.0 28.05 42.1 24.1 42.9 27.0 41.8 28.95 40.8 32.45 32.4 32.55 31.25 33.05 30.5 M15.35 44.15 L15.65 43.3 16.95 41.85 15.8 43.75 17.2 44.45 16.9 44.75 15.35 44.15 M29.0 19.45 L31.6 15.25 31.9 16.55 33.25 22.4 29.55 29.1 28.85 30.1 27.7 23.8 28.7 23.35 29.5 21.9 29.4 20.2 29.0 19.45 M37.7 19.0 L37.9 20.0 35.9 21.55 37.7 19.0 M27.4 32.0 L27.7 35.8 26.85 36.45 25.35 33.15 24.6 32.5 26.65 32.85 27.4 32.0 M13.05 42.9 L14.35 42.85 13.85 43.35 13.05 42.9 M17.6 45.0 L17.65 44.75 18.15 45.0 20.45 46.2 17.6 45.0" fill="#339328" fill-rule="evenodd" stroke="none"/>
      <path d="M42.65 12.0 L42.65 16.95 41.4 19.65 38.65 22.7 38.45 22.95 37.5 22.75 33.3 28.4 27.7 35.8 27.4 32.0 28.85 30.1 29.55 29.1 33.45 23.35 33.25 22.4 31.9 16.55 34.8 22.35 35.9 21.55 37.9 20.0 37.7 19.0 36.25 16.75 32.65 13.6 31.6 15.25 29.0 19.45 28.55 18.7 30.65 16.05 31.55 13.6 32.65 12.05 32.65 13.6 32.65 12.05 29.95 10.8 29.15 11.05 28.85 11.5 28.1 12.65 24.75 13.4 24.05 12.9 24.45 11.85 24.35 9.9 25.15 9.35 29.0 9.5 35.95 12.65 37.15 14.95 38.4 16.7 38.95 18.55 40.65 15.55 42.65 12.0 M24.65 47.55 L21.55 47.85 17.4 46.0 17.5 45.5 17.6 45.0 20.45 46.2 20.9 46.4 22.7 46.7 20.35 43.25 18.4 41.8 17.35 41.45 16.8 41.3 16.25 41.15 13.7 40.4 11.2 39.65 10.4 40.0 11.6 41.85 13.05 42.9 13.85 43.35 14.0 44.2 Q12.35 43.3 11.1 42.4 L9.3 39.7 10.8 38.95 16.95 40.6 19.95 41.7 23.4 37.0 23.8 36.45 26.6 37.85 29.4 36.25 32.55 31.25 32.45 32.4 28.95 40.8 27.0 41.8 24.1 42.9 21.4 43.0 19.95 41.7 21.4 43.0 24.65 47.55 M16.7 45.65 L15.2 44.85 15.35 44.15 16.9 44.75 16.7 45.65 M14.1 31.65 L14.6 31.1 16.0 32.5 14.95 33.85 14.1 31.65 M14.75 30.9 L13.35 30.2 11.8 28.9 12.95 27.65 17.9 28.6 19.75 29.7 24.6 32.5 25.35 33.15 26.85 36.45 25.4 36.2 24.4 35.7 16.55 31.75 14.75 30.9 M37.5 22.75 L37.95 20.1 37.9 20.0 37.95 20.1 37.5 22.75 M33.45 23.35 L34.8 22.35 33.45 23.35 M38.95 18.55 L38.65 22.7 38.95 18.55 M28.85 11.5 L26.35 10.95 24.7 11.45 24.45 11.85 24.7 11.45 26.35 10.95 28.85 11.5 M26.15 32.35 L26.5 30.45 25.5 25.8 21.6 20.35 23.7 21.35 27.7 23.8 28.3 30.1 26.95 31.75 26.15 32.35 M29.4 20.2 L29.5 21.9 28.7 23.35 29.4 20.2" fill="#246c41" fill-rule="evenodd" stroke="none"/>
      <path d="M33.3 28.4 L33.05 30.5 32.55 31.25 29.4 36.25 26.6 37.85 23.8 36.45 24.4 35.7 23.8 36.45 16.0 32.5 14.6 31.1 14.75 30.9 16.55 31.75 16.0 32.5 16.55 31.75 24.4 35.7 25.4 36.2 26.85 36.45 27.7 35.8 33.3 28.4 M31.6 15.25 L32.65 13.6 36.25 16.75 37.7 19.0 35.9 21.55 34.8 22.35 31.9 16.55 31.6 15.25 M21.6 20.35 L21.35 20.25 21.55 19.25 22.05 18.45 23.15 18.15 27.25 21.4 28.4 22.8 28.7 23.35 27.7 23.8 23.7 21.35 21.6 20.35 M13.7 40.4 L12.15 41.2 11.6 41.85 10.4 40.0 11.2 39.65 13.7 40.4 M20.45 46.2 L18.15 45.0 19.55 44.75 20.35 43.25 22.7 46.7 20.9 46.4 20.45 46.2" fill="#154026" fill-rule="evenodd" stroke="none"/>
      <path d="M26.3 46.0 L24.65 47.55 21.4 43.0 24.1 42.9 28.05 42.1 26.3 46.0 M16.95 41.85 L17.35 41.45 18.4 41.8 20.35 43.25 19.55 44.75 18.15 45.0 17.65 44.75 18.15 43.55 17.2 44.45 15.8 43.75 16.95 41.85 M16.25 41.15 L15.85 41.7 14.35 42.85 13.05 42.9 11.6 41.85 12.15 41.2 13.7 40.4 16.25 41.15" fill="#206039" fill-rule="evenodd" stroke="none"/>
      <path d="M37.65 6.75 L40.15 8.35 42.1 10.55 42.65 12.0 42.65 16.95 41.4 19.65 38.65 22.7 38.45 22.95 37.5 22.75 33.3 28.4 33.05 30.5 32.8 32.55 29.05 41.5 26.3 46.0 24.65 47.55 21.55 47.85 17.4 46.0 17.5 45.5 16.7 45.65 15.2 44.85 15.35 44.15 15.65 43.3 16.95 41.85 17.35 41.45 16.8 41.3 16.3 42.2 14.0 44.2 Q12.35 43.3 11.1 42.4 L9.3 39.7 12.65 33.35 14.1 31.65 14.6 31.1 14.75 30.9 13.35 30.2 11.8 28.9 12.1 27.4 14.25 24.45 15.9 22.2 19.5 18.75 19.8 18.5 23.7 13.95 24.05 12.9 24.45 11.85 24.35 9.9 25.95 7.25 29.6 4.65 31.6 5.0 37.65 6.75 38.0 9.25 40.15 8.35 M38.4 16.7 L40.0 15.65 42.1 10.55 M40.65 15.55 L42.65 12.0 M40.65 15.55 L40.0 15.65 M37.25 10.55 L35.7 12.2 35.95 12.65 37.15 14.95 37.65 10.15 37.25 10.55 M29.95 5.95 L28.9 6.6 25.15 9.35 24.35 9.9 M32.65 13.6 L32.65 12.05 31.55 13.6 30.65 16.05 28.55 18.7 29.0 19.45 31.6 15.25 32.65 13.6 36.25 16.75 37.7 19.0 37.9 20.0 37.95 20.1 37.5 22.75 M31.6 15.25 L31.9 16.55 34.8 22.35 35.9 21.55 37.7 19.0 M34.8 22.35 L33.45 23.35 29.55 29.1 28.85 30.1 27.4 32.0 26.65 32.85 24.6 32.5 19.75 29.7 17.9 28.6 12.95 27.65 14.25 24.45 M27.7 35.8 L33.3 28.4 M33.45 23.35 L33.25 22.4 31.9 16.55 M35.9 21.55 L37.9 20.0 M38.65 22.7 L38.95 18.55 38.4 16.7 37.15 14.95 M38.0 9.25 L37.65 10.15 M38.95 18.55 L40.65 15.55 M25.95 7.25 L28.9 6.6 M29.95 10.8 L29.15 11.05 28.85 11.5 28.1 12.65 27.35 13.8 25.6 16.45 24.85 16.7 24.3 15.35 23.7 13.95 M27.6 16.6 L29.95 10.8 32.65 12.05 M24.05 12.9 L24.75 13.4 28.1 12.65 M24.45 11.85 L24.7 11.45 26.35 10.95 28.85 11.5 M24.1 17.0 L24.85 16.7 M17.1 24.9 L16.9 25.4 17.9 28.6 M21.6 20.35 L21.35 20.25 21.55 19.25 21.7 18.4 24.1 17.0 M27.3 20.8 L27.75 18.2 27.6 16.6 M28.4 22.8 L27.3 20.8 M17.1 24.9 L19.5 18.75 M15.9 22.2 L16.9 25.4 M29.4 20.2 L29.0 19.45 M29.4 20.2 L29.5 21.9 28.7 23.35 27.7 23.8 28.85 30.1 M28.7 23.35 L29.4 20.2 M21.6 20.35 L23.7 21.35 27.7 23.8 M28.7 23.35 L28.4 22.8 M31.55 13.6 L30.05 15.8 28.55 18.7 M26.85 36.45 L25.4 36.2 24.4 35.7 23.8 36.45 23.4 37.0 19.95 41.7 21.4 43.0 24.1 42.9 28.05 42.1 26.3 46.0 M26.85 36.45 L27.7 35.8 M14.95 33.85 L16.0 32.5 16.55 31.75 14.75 30.9 M16.25 41.15 L13.7 40.4 11.2 39.65 10.4 40.0 M20.35 43.25 L18.4 41.8 17.35 41.45 M16.25 41.15 L16.8 41.3 M17.65 44.75 L17.6 45.0 17.5 45.5 M17.65 44.75 L18.15 43.55 17.2 44.45 16.9 44.75 16.7 45.65 M20.35 43.25 L22.7 46.7 20.9 46.4 20.45 46.2 M10.8 38.95 L16.95 40.6 19.95 41.7 M16.55 31.75 L24.4 35.7 M10.8 38.95 L9.3 39.7 M13.7 38.05 L10.8 38.95 M13.7 38.05 L14.95 33.85 14.1 31.65 M24.65 47.55 L21.4 43.0 M12.95 27.65 L11.8 28.9 M29.95 5.95 L31.6 5.0" fill="none" stroke="#000000" stroke-linecap="round" stroke-linejoin="round" stroke-opacity="0.3019608" stroke-width="0.30000000000000004"/>
      <path d="M38.05 26.05 L37.2 27.85 35.7 29.55 34.1 30.15 33.7 30.85 33.45 30.05 31.6 28.35 34.0 29.6 35.8 28.4 38.05 26.05" fill="#d7f16b" fill-rule="evenodd" stroke="none"/>
      <path d="M35.9 23.75 L38.0 24.9 38.3 25.55 38.05 26.05 35.8 28.4 34.0 29.6 31.6 28.35 33.15 26.4 34.2 27.7 35.2 27.4 35.25 27.15 35.5 25.75 33.8 25.15 34.5 24.1 35.9 23.75" fill="#9ae17b" fill-rule="evenodd" stroke="none"/>
      <path d="M35.9 23.75 L37.45 24.0 38.0 24.9 35.9 23.75 M33.75 31.35 L31.7 29.55 31.6 28.35 33.45 30.05 33.7 30.85 33.75 31.35 M37.2 27.85 L36.25 30.5 35.7 29.55 37.2 27.85" fill="#75d74a" fill-rule="evenodd" stroke="none"/>
      <path d="M38.3 25.55 L37.75 28.4 36.25 30.5 33.75 31.35 33.7 30.85 34.1 30.15 35.7 29.55 36.25 30.5 37.2 27.85 38.05 26.05 38.3 25.55 M35.25 27.15 L34.05 26.3 33.8 25.15 35.5 25.75 35.25 27.15" fill="#246c41" fill-rule="evenodd" stroke="none"/>
      <path d="M38.0 24.9 L37.45 24.0 35.9 23.75 38.0 24.9 38.3 25.55 37.75 28.4 36.25 30.5 33.75 31.35 31.7 29.55 31.6 28.35 33.15 26.4 34.2 27.7 35.2 27.4 35.25 27.15 34.05 26.3 33.8 25.15 34.5 24.1 35.9 23.75 M38.3 25.55 L38.05 26.05 37.2 27.85 36.25 30.5 35.7 29.55 34.1 30.15 33.7 30.85 33.75 31.35 M33.8 25.15 L35.5 25.75 35.25 27.15 M35.7 29.55 L37.2 27.85 M33.7 30.85 L33.45 30.05 31.6 28.35" fill="none" stroke="#000000" stroke-linecap="round" stroke-linejoin="round" stroke-opacity="0.3019608" stroke-width="0.30000000000000004"/>
    </g>
    <g id="sprite1" transform="matrix(1.0, 0.0, 0.0, 1.0, 0.0, 0.0)">
      <use height="26.7" transform="matrix(0.0042, -1.3515, 1.3935, 0.02, 22.09, 56.0263)" width="26.7" xlink:href="#sprite2"/>
      <use height="26.7" transform="matrix(0.0095, -3.0486, 0.372, 0.0053, 36.507, 81.3775)" width="26.7" xlink:href="#sprite2"/>
      <use height="26.7" transform="matrix(3.0486, 0.0095, -0.0053, 0.372, 0.1225, 35.107)" width="26.7" xlink:href="#sprite2"/>
    </g>
    <g id="sprite2" transform="matrix(1.0, 0.0, 0.0, 1.0, 13.35, 13.35)">
      <use height="26.7" transform="matrix(1.0, 0.0, 0.0, 1.0, -13.35, -13.35)" width="26.7" xlink:href="#shape1"/>
    </g>
    <g id="shape1" transform="matrix(1.0, 0.0, 0.0, 1.0, 13.35, 13.35)">
      <path d="M9.3 -9.85 Q13.35 -5.8 13.35 0.0 13.35 5.8 9.3 9.3 5.8 13.35 0.0 13.35 -5.8 13.35 -9.85 9.3 -13.35 5.8 -13.35 0.0 -13.35 -5.8 -9.85 -9.85 -5.8 -13.35 0.0 -13.35 5.8 -13.35 9.3 -9.85" fill="url(#gradient0)" fill-rule="evenodd" stroke="none"/>
    </g>
    <radialGradient cx="0" cy="0" gradientTransform="matrix(0.0213, 0.0, 0.0, 0.0213, 0.0, 0.0)" gradientUnits="userSpaceOnUse" id="gradient0" r="819.2" spreadMethod="pad">
      <stop offset="0.19607843137254902" stop-color="#fee3bc" stop-opacity="0.28627452"/>
      <stop offset="0.5019607843137255" stop-color="#fee3bc" stop-opacity="0.043137256"/>
      <stop offset="0.7607843137254902" stop-color="#ffe3bd" stop-opacity="0.0"/>
    </radialGradient>
  </defs>
</svg>
