<?xml version="1.0" encoding="UTF-8" standalone="no"?>
<svg xmlns:xlink="http://www.w3.org/1999/xlink" height="52.0px" width="52.0px" xmlns="http://www.w3.org/2000/svg">
  <g transform="matrix(1.0, 0.0, 0.0, 1.0, 0.0, 0.0)">
    <use height="56.0" transform="matrix(1.0, 0.0, 0.0, 1.0, -2.0, -2.0)" width="56.0" xlink:href="#shape0"/>
    <use height="0.0" transform="matrix(0.1762, 0.0, -0.0551, 0.2025, 28.5, 20.1)" width="0.0" xlink:href="#sprite0"/>
    <use height="0.0" transform="matrix(0.0595, -0.0034, 0.0025, 0.0511, 24.85, 29.4)" width="0.0" xlink:href="#sprite0"/>
    <use height="0.0" transform="matrix(0.0595, -0.0034, 0.0025, 0.0511, 15.75, 24.9)" width="0.0" xlink:href="#sprite0"/>
    <use height="0.0" transform="matrix(0.0595, -0.0034, 0.0025, 0.0511, 15.65, 41.1)" width="0.0" xlink:href="#sprite0"/>
    <use height="0.0" transform="matrix(0.0407, -0.0841, 0.0426, 0.0195, 33.8, 32.3)" width="0.0" xlink:href="#sprite0"/>
    <use height="81.5" transform="matrix(0.1201, 0.0, 0.0, 0.119, 34.75, 8.2)" width="81.5" xlink:href="#sprite1"/>
  </g>
  <defs>
    <g id="shape0" transform="matrix(1.0, 0.0, 0.0, 1.0, 2.0, 2.0)">
      <path d="M52.0 0.0 L52.0 52.0 0.0 52.0 0.0 0.0 52.0 0.0" fill="#795fa9" fill-opacity="0.0" fill-rule="evenodd" stroke="none"/>
      <path d="M16.85 12.65 Q17.45 12.3 18.0 12.1 22.25 6.55 27.7 4.75 28.95 5.9 29.25 7.85 32.65 5.3 36.1 4.25 L36.1 4.2 36.1 4.25 36.3 4.1 36.35 7.3 Q38.5 5.9 40.6 5.5 41.35 10.6 40.15 15.7 41.55 15.3 43.15 14.0 43.05 19.35 41.2 23.9 L40.1 26.25 40.1 27.2 Q40.1 28.85 39.6 30.5 L39.45 31.0 Q38.05 34.85 34.45 36.85 L33.7 36.95 33.3 37.45 32.5 37.75 30.85 38.25 28.6 38.65 22.5 38.05 Q23.45 39.5 23.85 41.0 24.5 42.8 24.45 44.5 L23.65 45.35 22.75 45.5 21.15 45.3 20.35 44.85 20.5 43.3 20.7 41.85 19.35 43.7 19.9 44.3 19.1 44.9 17.35 46.45 Q15.1 47.95 12.05 48.15 L12.35 44.05 11.15 42.45 6.75 42.25 8.9 40.1 11.1 37.1 11.75 37.35 12.15 36.75 12.75 36.0 12.45 35.65 10.1 37.1 9.0 36.2 8.8 35.3 8.9 33.6 10.05 33.1 10.0 32.7 Q10.3 31.9 11.15 31.05 L12.05 30.25 12.0 30.25 Q9.05 25.65 10.35 20.55 11.7 15.45 16.45 12.85 L16.85 12.65 Z" fill="none" stroke="#000000" stroke-linecap="round" stroke-linejoin="round" stroke-opacity="0.3019608" stroke-width="1.0"/>
      <path d="M10.1 35.3 L8.8 35.3 8.9 33.6 Q12.45 31.85 15.35 32.9 L13.9 34.35 Q12.75 34.25 10.95 34.9 L10.1 35.3" fill="#e6e4b3" fill-rule="evenodd" stroke="none"/>
      <path d="M9.0 36.2 L8.8 35.3 10.1 35.3 9.0 36.2" fill="#f0edd2" fill-rule="evenodd" stroke="none"/>
      <path d="M9.0 36.2 L10.1 35.3 10.95 34.9 Q12.75 34.25 13.9 34.35 L12.8 35.45 10.1 37.1 9.0 36.2" fill="#a6a637" fill-rule="evenodd" stroke="none"/>
      <path d="M8.8 35.3 L9.0 36.2 10.1 37.1 12.8 35.45 13.9 34.35 15.35 32.9 Q12.45 31.85 8.9 33.6 L8.8 35.3 Z" fill="none" stroke="#000000" stroke-linecap="round" stroke-linejoin="round" stroke-opacity="0.3019608" stroke-width="0.30000000000000004"/>
      <path d="M17.6 38.35 Q18.25 39.2 18.25 40.15 18.25 41.1 17.5 42.15 L17.0 42.65 11.75 37.35 12.15 36.75 Q14.75 36.2 16.55 37.4 L17.6 38.35 M21.8 36.35 L22.0 35.85 Q22.45 38.5 21.2 41.1 L19.35 43.7 19.15 43.65 20.15 42.3 20.85 40.95 Q21.9 38.8 21.8 36.35" fill="#ffde4f" fill-rule="evenodd" stroke="none"/>
      <path d="M21.85 35.7 Q20.55 38.35 19.0 40.4 L18.15 41.5 18.4 40.25 Q18.4 39.2 17.6 38.35 L16.55 37.4 Q14.75 36.2 12.15 36.75 14.3 33.9 15.95 30.6 L21.85 35.7 M17.25 42.95 L18.15 41.9 19.2 40.55 19.35 40.5 Q19.95 40.35 20.15 40.75 20.35 41.25 20.15 42.3 L19.15 43.65 17.25 42.95" fill="#f4a33c" fill-rule="evenodd" stroke="none"/>
      <path d="M11.5 37.55 Q12.05 39.3 11.6 41.1 L11.15 42.45 10.8 42.0 10.15 42.1 7.55 41.95 9.15 40.2 11.3 37.35 11.5 37.55 M13.5 41.2 L13.55 39.75 Q15.55 41.7 16.65 43.65 L14.7 45.65 Q13.85 44.3 13.5 41.2" fill="#e6e4b3" fill-rule="evenodd" stroke="none"/>
      <path d="M17.0 42.65 L17.25 42.95 19.15 43.65 19.35 43.7 19.9 44.3 19.2 44.1 17.3 43.5 16.85 43.1 13.0 39.1 11.5 37.55 11.3 37.35 11.1 37.1 11.75 37.35 17.0 42.65" fill="#ddd699" fill-rule="evenodd" stroke="none"/>
      <path d="M19.9 44.3 L19.1 44.9 17.35 46.45 Q15.1 47.95 12.05 48.15 14.65 46.35 16.85 44.0 L19.2 44.1 19.9 44.3" fill="#cac960" fill-rule="evenodd" stroke="none"/>
      <path d="M11.15 42.45 L6.75 42.25 10.15 42.1 10.8 42.0 11.15 42.45" fill="#a6a637" fill-rule="evenodd" stroke="none"/>
      <path d="M6.75 42.25 L8.9 40.1 11.1 37.1 11.3 37.35 9.15 40.2 7.55 41.95 10.15 42.1 6.75 42.25" fill="#ffffff" fill-rule="evenodd" stroke="none"/>
      <path d="M12.05 48.15 L12.35 44.05 11.15 42.45 11.6 41.1 Q12.05 39.3 11.5 37.55 L13.0 39.1 13.55 39.75 13.5 41.2 13.55 41.85 Q13.65 43.95 14.35 46.05 L12.05 48.15" fill="#dbda93" fill-rule="evenodd" stroke="none"/>
      <path d="M13.5 41.2 Q13.85 44.3 14.7 45.65 L16.65 43.65 Q15.55 41.7 13.55 39.75 L13.0 39.1 16.85 43.1 17.3 43.5 19.2 44.1 16.85 44.0 Q14.65 46.35 12.05 48.15 L14.35 46.05 Q13.65 43.95 13.55 41.85 L13.5 41.2" fill="#f9f7ec" fill-rule="evenodd" stroke="none"/>
      <path d="M21.85 35.7 L22.0 35.85 21.8 36.35 19.25 40.5 19.2 40.55 18.15 41.9 17.25 42.95 17.0 42.65 17.5 42.15 Q18.25 41.1 18.25 40.15 18.25 39.2 17.6 38.35 18.4 39.2 18.4 40.25 L18.15 41.5 19.0 40.4 Q20.55 38.35 21.85 35.7" fill="#ffff98" fill-rule="evenodd" stroke="none"/>
      <path d="M19.2 40.55 L19.25 40.5 21.8 36.35 Q21.9 38.8 20.85 40.95 L20.15 42.3 Q20.35 41.25 20.15 40.75 19.95 40.35 19.35 40.5 L19.2 40.55" fill="#cc6b22" fill-rule="evenodd" stroke="none"/>
      <path d="M22.0 35.85 L21.85 35.7 15.95 30.6 Q14.3 33.9 12.15 36.75 L11.75 37.35 17.0 42.65 17.25 42.95 19.15 43.65 19.35 43.7 19.9 44.3 19.1 44.9 17.35 46.45 Q15.1 47.95 12.05 48.15 L12.35 44.05 11.15 42.45 6.75 42.25 8.9 40.1 11.1 37.1 11.75 37.35 M22.0 35.85 Q22.45 38.5 21.2 41.1 L19.35 43.7 M11.15 42.45 L10.8 42.0" fill="none" stroke="#000000" stroke-linecap="round" stroke-linejoin="round" stroke-opacity="0.3019608" stroke-width="0.30000000000000004"/>
      <path d="M22.85 40.1 L23.1 41.1 23.4 43.6 22.75 45.5 21.15 45.3 20.5 43.3 Q20.9 41.65 20.75 40.05 L22.85 40.1" fill="#e6e4b3" fill-rule="evenodd" stroke="none"/>
      <path d="M23.1 41.1 L23.85 41.0 Q24.5 42.8 24.45 44.5 L23.65 45.35 23.4 43.6 23.1 41.1" fill="#cac960" fill-rule="evenodd" stroke="none"/>
      <path d="M23.65 45.35 L22.75 45.5 23.4 43.6 23.65 45.35 M21.15 45.3 L20.35 44.85 20.5 43.3 21.15 45.3" fill="#f0edd2" fill-rule="evenodd" stroke="none"/>
      <path d="M21.15 36.75 L21.7 36.85 Q23.2 38.95 23.85 41.0 L23.1 41.1 22.85 40.1 Q22.25 38.3 21.15 36.75" fill="#b3b33c" fill-rule="evenodd" stroke="none"/>
      <path d="M21.15 36.75 Q22.25 38.3 22.85 40.1 L20.75 40.05 20.7 39.25 21.15 36.75" fill="#d2d279" fill-rule="evenodd" stroke="none"/>
      <path d="M23.85 41.0 Q23.2 38.95 21.7 36.85 L21.15 36.75 20.7 39.25 20.75 40.05 Q20.9 41.65 20.5 43.3 L20.35 44.85 21.15 45.3 22.75 45.5 23.65 45.35 24.45 44.5 Q24.5 42.8 23.85 41.0 Z" fill="none" stroke="#000000" stroke-linecap="round" stroke-linejoin="round" stroke-opacity="0.3019608" stroke-width="0.30000000000000004"/>
      <path d="M23.85 11.15 L26.6 11.6 29.45 12.6 Q31.0 13.35 32.3 14.5 L34.25 16.5 34.3 16.6 Q35.3 18.25 35.85 20.05 37.15 24.55 35.6 28.45 34.95 30.2 33.65 31.8 L31.8 33.6 Q30.3 32.2 29.1 30.25 27.2 27.35 25.7 23.25 23.8 17.1 23.85 11.15 M11.65 34.25 Q10.1 33.7 10.7 32.7 11.0 32.05 11.65 31.45 L12.95 30.3 Q11.95 28.9 11.2 26.65 L10.9 25.0 Q11.15 19.35 13.95 17.4 15.85 16.35 18.6 17.9 L20.35 21.85 21.95 28.3 Q22.65 34.25 21.85 36.15 L20.4 36.1 20.1 36.1 20.0 36.05 19.65 36.95 19.25 37.8 18.65 38.8 Q17.4 38.85 17.4 37.35 L17.6 36.4 Q18.0 35.35 19.05 33.55 L17.75 35.25 17.65 35.45 17.5 35.05 17.5 34.95 17.45 35.1 17.3 35.55 17.1 36.0 16.35 37.55 Q15.0 37.85 15.05 36.4 15.15 35.65 15.6 34.75 L16.25 33.75 17.3 32.35 15.75 33.55 15.5 33.95 15.45 33.95 15.4 33.65 15.3 33.8 15.25 33.95 15.2 34.05 15.1 34.3 15.05 34.45 14.45 35.45 14.1 36.05 Q13.15 35.9 12.8 35.05 L12.75 34.7 13.55 33.05 14.85 31.3 13.7 31.95 13.1 32.6 11.65 34.25" fill="#e6e4b3" fill-rule="evenodd" stroke="none"/>
      <path d="M11.3 34.45 Q10.15 34.05 10.0 32.7 10.3 31.9 11.15 31.05 L12.05 30.25 12.0 30.25 Q9.05 25.65 10.35 20.55 11.7 15.45 16.45 12.85 L16.85 12.65 17.1 13.25 Q19.05 17.35 20.35 21.85 L18.6 17.9 Q15.85 16.35 13.95 17.4 11.15 19.35 10.9 25.0 L11.2 26.65 Q11.95 28.9 12.95 30.3 L11.65 31.45 Q11.0 32.05 10.7 32.7 10.1 33.7 11.65 34.25 L11.3 34.45 M18.45 39.05 Q17.3 39.3 16.7 38.25 L16.8 37.45 16.85 37.05 17.25 36.15 17.35 35.95 17.45 35.7 17.65 35.45 17.75 35.25 19.05 33.55 Q18.0 35.35 17.6 36.4 L17.4 37.35 Q17.4 38.85 18.65 38.8 L18.45 39.05 M16.1 37.85 Q14.9 38.15 14.35 37.05 14.3 36.5 14.55 35.85 L15.45 34.05 15.5 33.95 15.75 33.55 17.3 32.35 16.25 33.75 15.6 34.75 Q15.15 35.65 15.05 36.4 15.0 37.85 16.35 37.55 L16.1 37.85 M13.8 36.35 Q12.65 36.35 12.15 35.15 L12.2 34.85 12.3 34.55 Q12.5 33.75 13.15 32.7 L13.4 32.35 13.5 32.15 13.7 31.95 14.85 31.3 13.55 33.05 12.75 34.7 12.8 35.05 Q13.15 35.9 14.1 36.05 L13.8 36.35 M34.3 16.6 L34.3 16.55 35.0 17.6 Q37.8 21.9 36.75 26.65 L36.6 27.25 36.55 27.5 36.35 28.25 35.9 29.35 Q34.75 31.95 32.45 33.75 L30.6 34.95 Q29.15 35.75 27.6 36.15 24.2 37.15 20.35 36.15 L20.4 36.1 21.85 36.15 Q22.65 34.25 21.95 28.3 L22.5 32.0 23.0 36.15 Q27.55 36.0 30.55 34.35 L28.5 30.35 Q26.8 26.8 25.7 23.25 27.2 27.35 29.1 30.25 30.3 32.2 31.8 33.6 L33.65 31.8 Q34.95 30.2 35.6 28.45 37.15 24.55 35.85 20.05 35.3 18.25 34.3 16.6" fill="#f0edd2" fill-rule="evenodd" stroke="none"/>
      <path d="M39.45 31.0 Q38.05 34.85 34.45 36.85 L33.65 36.2 33.3 37.45 32.5 37.75 30.85 38.25 29.3 37.7 Q27.95 37.05 27.6 36.15 29.15 35.75 30.6 34.95 L32.45 33.75 Q34.75 31.95 35.9 29.35 L36.35 28.25 36.55 27.5 Q37.85 27.8 39.15 30.15 L39.45 31.0 M16.8 37.45 L16.1 37.85 16.35 37.55 17.1 36.0 17.3 35.55 17.45 35.1 17.5 35.05 17.65 35.45 17.45 35.7 17.35 35.95 17.25 36.15 16.85 37.05 16.8 37.45 M14.55 35.85 L13.8 36.35 14.1 36.05 14.45 35.45 15.05 34.45 15.1 34.3 15.2 34.05 15.25 33.95 15.3 33.8 15.4 33.65 15.45 33.95 15.45 34.05 14.55 35.85 M12.3 34.55 L11.3 34.45 11.65 34.25 13.1 32.6 13.7 31.95 13.5 32.15 13.4 32.35 13.15 32.7 Q12.5 33.75 12.3 34.55" fill="#cac960" fill-rule="evenodd" stroke="none"/>
      <path d="M34.45 36.85 L33.7 36.95 33.3 37.45 33.65 36.2 34.45 36.85" fill="#939331" fill-rule="evenodd" stroke="none"/>
      <path d="M29.45 12.6 L32.25 14.0 Q35.8 16.2 37.95 19.85 39.3 22.1 39.8 24.3 40.15 25.75 40.1 27.2 40.1 28.85 39.6 30.5 L39.45 31.0 39.15 30.15 Q38.7 28.7 38.0 27.8 L37.5 27.25 36.75 26.65 Q37.8 21.9 35.0 17.6 L34.3 16.55 34.25 16.5 32.3 14.5 Q31.0 13.35 29.45 12.6" fill="#c1c146" fill-rule="evenodd" stroke="none"/>
      <path d="M30.85 38.25 L28.6 38.65 Q24.85 39.0 20.85 37.45 L20.55 37.3 19.9 38.3 18.45 39.05 18.65 38.8 19.25 37.8 19.65 36.95 20.0 36.05 20.1 36.1 20.4 36.1 20.35 36.15 Q24.2 37.15 27.6 36.15 27.95 37.05 29.3 37.7 L30.85 38.25 M20.95 36.7 L20.55 37.3 20.95 36.7 M17.5 35.05 L17.45 35.1 17.5 34.95 17.5 35.05" fill="#a6a637" fill-rule="evenodd" stroke="none"/>
      <path d="M16.85 12.65 Q20.15 10.9 23.85 11.15 23.8 17.1 25.7 23.25 26.8 26.8 28.5 30.35 L30.55 34.35 Q27.55 36.0 23.0 36.15 L22.5 32.0 21.95 28.3 20.35 21.85 Q19.05 17.35 17.1 13.25 L16.85 12.65 M36.55 27.5 L36.6 27.25 36.75 26.65 37.5 27.25 38.0 27.8 Q38.7 28.7 39.15 30.15 37.85 27.8 36.55 27.5" fill="#d7d686" fill-rule="evenodd" stroke="none"/>
      <path d="M11.3 34.45 Q10.15 34.05 10.0 32.7 10.3 31.9 11.15 31.05 L12.05 30.25 12.0 30.25 Q9.05 25.65 10.35 20.55 11.7 15.45 16.45 12.85 L16.85 12.65 Q20.15 10.9 23.85 11.15 L26.6 11.6 29.45 12.6 32.25 14.0 Q35.8 16.2 37.95 19.85 39.3 22.1 39.8 24.3 40.15 25.75 40.1 27.2 40.1 28.85 39.6 30.5 L39.45 31.0 Q38.05 34.85 34.45 36.85 L33.7 36.95 33.3 37.45 32.5 37.75 30.85 38.25 28.6 38.65 Q24.85 39.0 20.85 37.45 L20.55 37.3 19.9 38.3 18.45 39.05 Q17.3 39.3 16.7 38.25 L16.8 37.45 16.1 37.85 Q14.9 38.15 14.35 37.05 14.3 36.5 14.55 35.85 L13.8 36.35 Q12.65 36.35 12.15 35.15 L12.2 34.85 12.3 34.55 11.3 34.45 M20.55 37.3 L20.95 36.7 M17.65 35.45 L17.75 35.25 M17.65 35.45 L17.45 35.7 17.35 35.95 17.25 36.15 16.85 37.05 16.8 37.45 M15.5 33.95 L15.75 33.55 M15.45 34.05 L15.5 33.95 M14.55 35.85 L15.45 34.05 M13.5 32.15 L13.4 32.35 13.15 32.7 Q12.5 33.75 12.3 34.55" fill="none" stroke="#000000" stroke-linecap="round" stroke-linejoin="round" stroke-opacity="0.3019608" stroke-width="0.30000000000000004"/>
      <path d="M36.3 4.1 L36.35 7.3 Q35.35 7.9 35.2 8.05 35.95 6.05 36.3 4.1 M40.6 5.5 Q41.35 10.6 40.15 15.7 L38.65 15.85 Q40.25 11.9 40.55 7.4 L40.6 5.5 M43.15 14.0 Q43.05 19.35 41.2 23.9 39.8 24.65 39.85 22.55 42.1 19.15 43.0 14.6 L43.15 14.0" fill="#a34100" fill-rule="evenodd" stroke="none"/>
      <path d="M36.1 4.25 L36.1 4.2 36.1 4.25" fill="#ca5202" fill-rule="evenodd" stroke="none"/>
      <path d="M19.75 11.55 Q22.4 7.75 27.45 5.25 L28.25 7.1 Q26.15 11.05 23.05 11.15 L19.75 11.55 M36.1 4.25 L36.3 4.1 Q34.8 6.5 34.15 9.2 L35.3 8.4 40.6 5.5 Q39.3 8.3 36.35 10.9 L35.65 11.4 Q30.65 13.75 28.25 14.0 27.8 13.75 28.85 11.45 L28.85 11.4 Q31.65 7.55 36.05 4.25 L36.1 4.25 M40.15 15.7 Q41.55 15.3 43.15 14.0 L42.95 14.6 Q40.15 16.8 37.35 16.0 L38.65 15.85 40.15 15.7" fill="#f4a33c" fill-rule="evenodd" stroke="none"/>
      <path d="M28.25 7.1 L28.5 8.45 Q28.85 8.1 29.25 7.85 32.65 5.3 36.1 4.25 30.1 7.65 26.15 14.85 26.15 12.45 26.55 11.65 L23.05 11.15 Q26.15 11.05 28.25 7.1 M37.75 25.3 L37.55 24.55 Q37.65 21.65 35.0 17.5 37.9 20.7 38.1 22.5 38.4 24.25 40.25 21.15 41.7 18.6 42.95 14.6 L43.0 14.6 Q42.1 19.15 39.85 22.55 L37.75 25.3 M27.8 14.7 L26.65 14.95 Q27.6 13.15 28.85 11.45 27.8 13.75 28.25 14.0 30.65 13.75 35.65 11.4 32.9 13.35 27.8 14.7" fill="#ffde4f" fill-rule="evenodd" stroke="none"/>
      <path d="M19.75 11.55 Q18.9 11.75 18.0 12.1 22.25 6.55 27.7 4.75 28.4 6.3 28.5 8.45 L28.25 7.1 27.45 5.25 Q22.4 7.75 19.75 11.55 M26.65 14.95 L26.15 14.85 Q30.1 7.65 36.1 4.25 L36.05 4.25 Q31.65 7.55 28.85 11.4 L28.85 11.45 Q27.6 13.15 26.65 14.95 M43.15 14.0 L43.0 14.6 42.95 14.6 43.15 14.0" fill="#ffff98" fill-rule="evenodd" stroke="none"/>
      <path d="M28.5 8.45 Q28.4 6.3 27.7 4.75 28.95 5.9 29.25 7.85 28.85 8.1 28.5 8.45 M36.35 7.3 Q38.5 5.9 40.6 5.5 L40.55 7.4 Q40.25 11.9 38.65 15.85 L37.35 16.0 Q40.15 16.8 42.95 14.6 41.7 18.6 40.25 21.15 38.4 24.25 38.1 22.5 37.9 20.7 35.0 17.5 L34.9 17.45 34.3 16.55 32.7 14.85 27.8 14.7 Q32.9 13.35 35.65 11.4 L36.35 10.9 Q39.3 8.3 40.6 5.5 L35.3 8.4 34.15 9.2 Q34.8 6.5 36.3 4.1 35.95 6.05 35.2 8.05 35.35 7.9 36.35 7.3 M41.2 23.9 L39.85 26.7 37.75 25.3 39.85 22.55 Q39.8 24.65 41.2 23.9" fill="#cc6b22" fill-rule="evenodd" stroke="none"/>
      <path d="M27.7 4.75 Q22.25 6.55 18.0 12.1 18.9 11.75 19.75 11.55 L23.05 11.15 26.55 11.65 Q26.15 12.45 26.15 14.85 L26.65 14.95 27.8 14.7 32.7 14.85 34.3 16.55 34.9 17.45 35.0 17.5 Q37.65 21.65 37.55 24.55 L37.75 25.3 39.85 26.7 41.2 23.9 Q43.05 19.35 43.15 14.0 41.55 15.3 40.15 15.7 41.35 10.6 40.6 5.5 38.5 5.9 36.35 7.3 35.35 7.9 35.2 8.05 M27.7 4.75 Q28.95 5.9 29.25 7.85 32.65 5.3 36.1 4.25 L36.3 4.1 36.35 7.3 M38.65 15.85 L40.15 15.7 M29.25 7.85 Q28.85 8.1 28.5 8.45" fill="none" stroke="#000000" stroke-linecap="round" stroke-linejoin="round" stroke-opacity="0.3019608" stroke-width="0.30000000000000004"/>
      <path d="M30.3 28.55 L28.8 32.65 25.45 34.2 23.35 33.85 21.85 33.35 20.0 30.6 20.0 28.45 21.25 26.55 23.8 24.9 27.0 25.6 30.5 27.15 30.3 28.55 M21.0 22.85 L20.0 26.45 17.15 28.6 15.35 28.5 14.0 28.25 12.45 26.85 11.9 23.95 13.1 21.75 15.15 19.7 17.95 19.9 21.15 20.7 21.2 22.15 21.0 22.85" fill="#a6a637" fill-rule="evenodd" stroke="none"/>
      <path d="M21.85 33.35 L23.35 33.85 25.45 34.2 28.8 32.65 30.3 28.55 29.1 32.7 25.4 34.65 23.25 34.2 21.85 33.35 M12.45 26.85 L14.0 28.25 15.35 28.5 17.15 28.6 20.0 26.45 21.0 22.85 20.1 26.6 17.15 28.95 15.45 28.8 13.9 28.5 12.45 26.85" fill="#f0edd2" fill-rule="evenodd" stroke="none"/>
      <path d="M23.8 23.45 L27.0 24.2 24.5 24.55 Q23.0 24.55 23.8 23.45 M21.8 30.8 L20.2 27.45 21.25 25.8 22.2 25.4 Q22.4 26.6 22.25 27.95 L21.8 30.8 M25.2 29.4 Q25.1 25.8 26.2 24.8 L27.05 24.7 29.7 26.55 27.3 30.2 25.6 31.3 25.2 29.4" fill="#ffde4f" fill-rule="evenodd" stroke="none"/>
      <path d="M30.4 26.35 L30.55 27.05 28.8 31.25 27.65 30.35 30.4 26.35 M21.3 25.15 L23.8 23.45 Q22.8 24.45 23.7 24.65 L21.3 25.15 M24.65 31.9 L23.4 32.4 22.2 31.7 21.8 30.8 22.25 27.95 Q22.4 26.6 22.2 25.4 L24.9 24.85 25.3 24.85 Q25.15 25.85 25.15 26.85 L25.2 29.4 25.6 31.3 24.65 31.9" fill="#f4a33c" fill-rule="evenodd" stroke="none"/>
      <path d="M28.8 31.25 L25.5 32.85 23.4 32.4 24.65 31.9 27.35 30.75 28.8 31.25" fill="#cc6b22" fill-rule="evenodd" stroke="none"/>
      <path d="M23.4 32.4 L21.9 31.9 19.55 27.4 21.3 25.15 23.7 24.65 Q22.8 24.45 23.8 23.45 23.0 24.55 24.5 24.55 L27.0 24.2 30.4 26.35 27.65 30.35 28.8 31.25 27.35 30.75 24.65 31.9 25.6 31.3 27.3 30.2 29.7 26.55 27.05 24.7 26.2 24.8 Q25.1 25.8 25.2 29.4 L25.15 26.85 Q25.15 25.85 25.3 24.85 L24.9 24.85 22.2 25.4 21.25 25.8 20.2 27.45 21.8 30.8 22.2 31.7 23.4 32.4" fill="#ffff98" fill-rule="evenodd" stroke="none"/>
      <path d="M21.9 31.9 L20.05 30.65 19.55 27.4 21.9 31.9" fill="#91481a" fill-rule="evenodd" stroke="none"/>
      <path d="M30.4 26.35 L30.55 27.05 28.8 31.25 25.5 32.85 23.4 32.4 21.9 31.9 20.05 30.65 19.55 27.4 21.3 25.15 23.8 23.45 27.0 24.2 30.4 26.35 27.65 30.35 M28.8 31.25 L27.35 30.75 24.65 31.9 23.4 32.4 M19.55 27.4 L21.9 31.9" fill="none" stroke="#000000" stroke-linecap="round" stroke-linejoin="round" stroke-opacity="0.3019608" stroke-width="0.30000000000000004"/>
      <path d="M15.25 18.3 L18.0 18.5 15.9 19.2 Q14.55 19.45 15.25 18.3 M13.9 25.75 L12.35 22.75 13.1 20.9 13.9 20.4 Q14.2 21.5 14.15 22.9 L13.9 25.75 M16.75 23.8 Q16.45 20.35 17.3 19.15 L18.1 19.0 20.45 20.3 18.6 24.25 17.2 25.6 Q16.9 24.75 16.75 23.8" fill="#ffde4f" fill-rule="evenodd" stroke="none"/>
      <path d="M21.05 20.0 L21.2 20.7 20.0 25.05 18.9 24.35 21.05 20.0 M13.15 20.3 L15.25 18.3 Q14.35 19.4 15.2 19.4 L13.15 20.3 M16.45 26.35 L15.4 27.1 14.35 26.55 13.9 25.75 14.15 22.9 Q14.2 21.5 13.9 20.4 L16.2 19.45 16.6 19.35 16.55 21.35 16.75 23.8 Q16.9 24.75 17.2 25.6 L16.45 26.35" fill="#f4a33c" fill-rule="evenodd" stroke="none"/>
      <path d="M20.0 25.05 L17.25 27.15 15.4 27.1 16.45 26.35 18.7 24.8 20.0 25.05" fill="#cc6b22" fill-rule="evenodd" stroke="none"/>
      <path d="M15.4 27.1 L14.05 26.8 11.75 22.8 13.15 20.3 15.2 19.4 Q14.35 19.4 15.25 18.3 14.55 19.45 15.9 19.2 L18.0 18.5 21.05 20.0 18.9 24.35 20.0 25.05 18.7 24.8 16.45 26.35 17.2 25.6 18.6 24.25 20.45 20.3 18.1 19.0 17.3 19.15 Q16.45 20.35 16.75 23.8 L16.55 21.35 16.6 19.35 16.2 19.45 13.9 20.4 13.1 20.9 12.35 22.75 13.9 25.75 14.35 26.55 15.4 27.1" fill="#ffff98" fill-rule="evenodd" stroke="none"/>
      <path d="M14.05 26.8 L12.35 25.9 11.75 22.8 14.05 26.8" fill="#91481a" fill-rule="evenodd" stroke="none"/>
      <path d="M21.05 20.0 L21.2 20.7 20.0 25.05 17.25 27.15 15.4 27.1 14.05 26.8 12.35 25.9 11.75 22.8 13.15 20.3 15.25 18.3 18.0 18.5 21.05 20.0 18.9 24.35 M20.0 25.05 L18.7 24.8 16.45 26.35 15.4 27.1 M11.75 22.8 L14.05 26.8" fill="none" stroke="#000000" stroke-linecap="round" stroke-linejoin="round" stroke-opacity="0.3019608" stroke-width="0.30000000000000004"/>
    </g>
    <g id="sprite1" transform="matrix(1.0, 0.0, 0.0, 1.0, 0.0, 0.0)">
      <use height="26.7" transform="matrix(0.0042, -1.3515, 1.3935, 0.02, 22.09, 56.0263)" width="26.7" xlink:href="#sprite2"/>
      <use height="26.7" transform="matrix(0.0095, -3.0486, 0.372, 0.0053, 36.507, 81.3775)" width="26.7" xlink:href="#sprite2"/>
      <use height="26.7" transform="matrix(3.0486, 0.0095, -0.0053, 0.372, 0.1225, 35.107)" width="26.7" xlink:href="#sprite2"/>
    </g>
    <g id="sprite2" transform="matrix(1.0, 0.0, 0.0, 1.0, 13.35, 13.35)">
      <use height="26.7" transform="matrix(1.0, 0.0, 0.0, 1.0, -13.35, -13.35)" width="26.7" xlink:href="#shape1"/>
    </g>
    <g id="shape1" transform="matrix(1.0, 0.0, 0.0, 1.0, 13.35, 13.35)">
      <path d="M9.3 -9.85 Q13.35 -5.8 13.35 0.0 13.35 5.8 9.3 9.3 5.8 13.35 0.0 13.35 -5.8 13.35 -9.85 9.3 -13.35 5.8 -13.35 0.0 -13.35 -5.8 -9.85 -9.85 -5.8 -13.35 0.0 -13.35 5.8 -13.35 9.3 -9.85" fill="url(#gradient0)" fill-rule="evenodd" stroke="none"/>
    </g>
    <radialGradient cx="0" cy="0" gradientTransform="matrix(0.0213, 0.0, 0.0, 0.0213, 0.0, 0.0)" gradientUnits="userSpaceOnUse" id="gradient0" r="819.2" spreadMethod="pad">
      <stop offset="0.19607843137254902" stop-color="#fee3bc" stop-opacity="0.3882353"/>
      <stop offset="0.5019607843137255" stop-color="#fee3bc" stop-opacity="0.0627451"/>
      <stop offset="0.7607843137254902" stop-color="#ffe3bd" stop-opacity="0.0"/>
    </radialGradient>
  </defs>
</svg>
