<?xml version="1.0" encoding="UTF-8" standalone="no"?>
<svg xmlns:xlink="http://www.w3.org/1999/xlink" height="52.0px" width="52.0px" xmlns="http://www.w3.org/2000/svg">
  <g transform="matrix(1.0, 0.0, 0.0, 1.0, 0.0, 0.0)">
    <use height="56.0" transform="matrix(1.0, 0.0, 0.0, 1.0, -2.0, -2.0)" width="56.0" xlink:href="#shape0"/>
    <use height="0.0" transform="matrix(0.1105, 0.0, 0.0, 0.0801, 31.25, 17.65)" width="0.0" xlink:href="#sprite0"/>
    <use height="0.0" transform="matrix(0.0873, -0.0057, 0.0, 0.0584, 34.1, 33.5)" width="0.0" xlink:href="#sprite0"/>
    <use height="0.0" transform="matrix(0.0844, 0.0352, -0.0428, 0.0949, 19.65, 35.6)" width="0.0" xlink:href="#sprite0"/>
    <use height="0.0" transform="matrix(0.0181, 0.0076, -0.0167, 0.0371, 13.0, 43.3)" width="0.0" xlink:href="#sprite0"/>
    <use height="0.0" transform="matrix(0.0181, 0.0076, -0.0167, 0.0371, 16.6, 44.9)" width="0.0" xlink:href="#sprite0"/>
    <use height="0.0" transform="matrix(0.117, 0.0488, -0.0167, 0.0371, 24.25, 25.15)" width="0.0" xlink:href="#sprite0"/>
    <use height="81.5" transform="matrix(0.1854, 0.0, 0.0, 0.1854, 27.55, 24.4)" width="81.5" xlink:href="#sprite1"/>
  </g>
  <defs>
    <g id="shape0" transform="matrix(1.0, 0.0, 0.0, 1.0, 2.0, 2.0)">
      <path d="M52.0 0.0 L52.0 52.0 0.0 52.0 0.0 0.0 52.0 0.0" fill="#795fa9" fill-opacity="0.0" fill-rule="evenodd" stroke="none"/>
      <path d="M34.8 3.15 Q33.65 2.7 32.95 3.55 L32.45 7.25 31.2 11.4 26.7 12.0 Q24.05 12.9 21.85 14.7 L20.4 16.05 18.9 14.55 Q15.9 14.55 13.7 16.7 L13.45 17.25 Q11.75 20.7 11.9 22.55 11.8 26.5 13.7 29.25 L13.55 29.95 13.4 30.9 11.1 30.75 10.3 29.35 10.25 29.35 Q9.45 29.2 8.9 29.6 L8.8 29.65 8.55 29.95 9.45 30.95 9.25 31.65 Q8.6 32.05 8.05 32.4 L8.0 32.4 Q8.6 33.45 9.8 33.1 L10.8 32.1 13.0 32.75 12.6 34.9 9.55 35.55 8.4 34.35 8.4 34.4 Q7.55 34.45 7.15 35.05 L7.05 35.15 6.9 35.4 7.95 36.2 8.0 36.85 7.0 37.95 Q7.85 38.8 8.9 38.1 L9.6 36.95 12.2 37.0 11.5 40.55 11.55 40.55 11.45 40.8 11.45 40.85 11.45 40.9 11.4 40.9 Q11.3 41.5 11.6 42.15 L11.75 42.5 10.5 45.9 10.5 45.95 10.5 45.9 10.45 46.0 10.5 46.4 10.55 46.65 11.25 47.4 12.3 47.7 12.45 47.65 12.6 47.6 12.8 47.55 12.9 47.4 12.9 47.35 12.95 47.3 14.25 44.95 14.75 45.25 15.0 45.4 13.75 47.5 13.75 47.55 13.7 47.55 13.65 47.6 13.65 48.0 13.65 48.25 14.3 48.9 15.35 49.2 15.55 49.2 15.65 49.15 15.85 49.1 16.05 48.95 16.05 48.9 18.3 46.15 19.05 46.1 19.3 46.0 19.55 45.95 19.9 45.7 19.95 45.7 19.95 45.75 20.15 45.65 20.35 45.55 20.5 45.45 23.7 43.3 23.75 43.2 25.1 45.35 24.45 46.55 Q24.45 47.85 25.6 48.15 L25.6 48.1 26.0 46.7 26.6 46.35 27.8 46.9 28.0 46.55 28.05 46.45 Q28.25 45.8 27.95 45.15 L27.9 45.05 26.3 44.7 25.3 41.85 27.6 39.85 29.65 41.75 29.35 43.05 Q29.65 44.3 30.85 44.25 L30.85 42.8 31.35 42.35 32.7 42.55 32.75 42.2 32.8 42.05 Q32.8 41.35 32.3 40.8 L32.25 40.7 30.65 40.8 29.15 38.6 29.8 37.95 34.5 38.4 35.35 38.4 37.0 37.85 37.0 37.9 Q39.9 36.7 41.65 34.0 L42.05 33.3 Q42.85 29.45 42.9 26.45 42.4 24.05 40.65 22.65 40.9 19.85 39.85 17.1 39.0 15.25 37.75 14.05 39.6 12.25 41.6 10.9 43.2 9.85 44.9 9.1 45.45 8.15 44.65 7.25 L44.4 7.0 44.1 6.8 Q43.2 6.25 42.45 6.8 L35.95 12.65 Q34.8 12.0 33.45 11.7 L36.0 5.05 Q36.25 4.1 35.45 3.5 L35.1 3.25 34.8 3.15 Z" fill="none" stroke="#000000" stroke-linecap="round" stroke-linejoin="round" stroke-opacity="0.3019608" stroke-width="1.0"/>
      <path d="M9.25 31.65 L9.1 31.8 8.35 32.45 8.8 32.85 9.6 32.85 9.65 32.85 10.75 31.85 12.1 32.25 11.9 32.45 10.8 32.1 9.8 33.1 Q8.6 33.45 8.0 32.4 L8.05 32.4 Q8.6 32.05 9.25 31.65 M12.75 31.5 L13.2 31.15 11.0 31.05 10.15 29.6 10.05 29.55 8.9 29.6 Q9.45 29.2 10.25 29.35 L10.3 29.35 11.1 30.75 13.55 30.9 13.2 31.15 15.15 31.25 15.4 31.8 12.75 31.5 M12.55 34.95 L12.05 35.35 13.6 34.95 14.0 35.45 11.55 35.85 12.05 35.35 9.55 35.85 8.35 34.7 8.2 34.7 Q7.7 34.7 7.15 35.05 7.55 34.45 8.4 34.4 L8.4 34.35 9.55 35.55 12.55 34.95 M8.0 36.85 L7.9 37.05 7.3 37.95 7.9 38.15 Q8.6 38.15 8.7 37.95 L9.5 36.75 10.95 36.75 10.8 36.95 9.6 36.95 8.9 38.1 Q7.85 38.8 7.0 37.95 L8.0 36.85" fill="#e6e4b3" fill-rule="evenodd" stroke="none"/>
      <path d="M12.75 31.5 L10.85 31.3 10.05 29.8 9.9 29.75 8.8 29.65 8.9 29.6 10.05 29.55 10.15 29.6 11.0 31.05 13.2 31.15 12.75 31.5 M7.15 35.05 Q7.7 34.7 8.2 34.7 L8.35 34.7 9.55 35.85 12.05 35.35 11.55 35.85 9.45 36.15 8.3 34.9 8.15 34.9 7.05 35.15 7.15 35.05" fill="#ffffff" fill-rule="evenodd" stroke="none"/>
      <path d="M8.8 29.65 L9.9 29.75 10.05 29.8 10.85 31.3 12.75 31.5 12.1 32.2 12.1 32.25 10.75 31.85 9.65 32.85 9.6 32.85 Q8.75 32.8 9.1 31.8 L9.25 31.65 9.45 30.95 8.55 29.95 8.8 29.65 M13.55 30.9 L14.55 30.9 15.15 31.25 13.2 31.15 13.55 30.9 M15.0 33.0 L14.55 33.2 11.9 32.45 12.1 32.25 15.0 33.0 M13.6 34.95 L12.05 35.35 12.55 34.95 12.95 34.85 13.6 34.95 M7.05 35.15 L8.15 34.9 8.3 34.9 9.45 36.15 11.55 35.85 11.1 36.35 10.95 36.75 9.5 36.75 8.7 37.95 Q7.8 38.1 7.9 37.05 L8.0 36.85 7.95 36.2 6.9 35.4 7.05 35.15 M10.8 36.95 L10.95 36.75 13.9 36.75 13.55 37.0 10.8 36.95" fill="#cac960" fill-rule="evenodd" stroke="none"/>
      <path d="M9.1 31.8 Q8.75 32.8 9.6 32.85 L8.8 32.85 8.35 32.45 9.1 31.8 M12.1 32.25 L12.1 32.2 12.75 31.5 15.4 31.8 15.4 32.1 15.0 33.0 12.1 32.25 M11.55 35.85 L14.0 35.45 14.05 35.75 Q14.15 36.4 13.9 36.75 L10.95 36.75 11.1 36.35 11.55 35.85 M7.9 37.05 Q7.8 38.1 8.7 37.95 8.6 38.15 7.9 38.15 L7.3 37.95 7.9 37.05" fill="#b9b93e" fill-rule="evenodd" stroke="none"/>
      <path d="M8.8 29.65 L8.55 29.95 9.45 30.95 9.25 31.65 Q8.6 32.05 8.05 32.4 L7.95 32.35 8.0 32.4 Q8.6 33.45 9.8 33.1 L10.8 32.1 11.9 32.45 14.55 33.2 15.0 33.0 15.4 32.1 15.4 31.8 15.15 31.25 14.55 30.9 13.55 30.9 11.1 30.75 10.3 29.35 10.25 29.35 Q9.45 29.2 8.9 29.6 L8.8 29.65 M13.6 34.95 L12.95 34.85 12.55 34.95 9.55 35.55 8.4 34.35 8.4 34.4 Q7.55 34.45 7.15 35.05 L7.05 35.15 6.9 35.4 7.95 36.2 8.0 36.85 7.0 37.95 Q7.85 38.8 8.9 38.1 L9.6 36.95 10.8 36.95 13.55 37.0 13.9 36.75 Q14.15 36.4 14.05 35.75 L14.0 35.45 13.6 34.95" fill="none" stroke="#000000" stroke-linecap="round" stroke-linejoin="round" stroke-opacity="0.3019608" stroke-width="0.30000000000000004"/>
      <path d="M31.95 12.5 Q33.2 9.85 34.05 7.3 L35.1 3.25 35.45 3.5 34.45 7.25 32.05 13.6 31.45 13.3 31.95 12.5" fill="#b9b93e" fill-rule="evenodd" stroke="none"/>
      <path d="M30.95 13.0 Q32.2 10.5 32.9 7.25 L33.35 3.7 33.85 3.25 Q34.95 3.35 34.5 5.0 33.85 8.05 31.95 12.5 L31.45 13.3 30.95 13.0 M35.45 3.5 Q36.25 4.1 36.0 5.05 L32.6 13.9 32.05 13.6 34.45 7.25 35.45 3.5" fill="#e6e4b3" fill-rule="evenodd" stroke="none"/>
      <path d="M30.95 13.0 L30.6 12.75 Q31.85 10.0 32.45 7.25 L32.95 3.55 Q33.65 2.7 34.8 3.15 L35.1 3.25 34.05 7.3 Q33.2 9.85 31.95 12.5 33.85 8.05 34.5 5.0 34.95 3.35 33.85 3.25 L33.35 3.7 32.9 7.25 Q32.2 10.5 30.95 13.0" fill="#ffffff" fill-rule="evenodd" stroke="none"/>
      <path d="M35.1 3.25 L34.8 3.15 Q33.65 2.7 32.95 3.55 L32.45 7.25 Q31.85 10.0 30.6 12.75 L30.95 13.0 31.45 13.3 32.05 13.6 32.6 13.9 36.0 5.05 Q36.25 4.1 35.45 3.5 L35.1 3.25 Z" fill="none" stroke="#000000" stroke-linecap="round" stroke-linejoin="round" stroke-opacity="0.3019608" stroke-width="0.30000000000000004"/>
      <path d="M44.4 7.0 L44.65 7.25 Q45.15 8.1 44.6 8.8 42.9 9.65 41.45 10.55 38.7 12.35 36.85 14.4 L36.3 14.0 Q38.55 11.4 41.05 9.4 L44.4 7.0" fill="#b9b93e" fill-rule="evenodd" stroke="none"/>
      <path d="M44.65 7.25 Q45.45 8.15 44.9 9.1 43.2 9.85 41.6 10.9 39.3 12.45 37.15 14.6 L36.85 14.4 Q38.7 12.35 41.45 10.55 42.9 9.65 44.6 8.8 45.15 8.1 44.65 7.25 M35.85 13.55 L35.35 13.15 42.45 6.8 Q43.2 6.25 44.1 6.8 42.75 7.55 40.9 9.1 38.7 10.8 35.85 13.55" fill="#e6e4b3" fill-rule="evenodd" stroke="none"/>
      <path d="M44.1 6.8 L44.4 7.0 41.05 9.4 Q38.55 11.4 36.3 14.0 L35.85 13.55 Q38.7 10.8 40.9 9.1 42.75 7.55 44.1 6.8" fill="#ffffff" fill-rule="evenodd" stroke="none"/>
      <path d="M44.1 6.8 L44.4 7.0 44.65 7.25 Q45.45 8.15 44.9 9.1 43.2 9.85 41.6 10.9 39.3 12.45 37.15 14.6 L36.85 14.4 36.3 14.0 35.85 13.55 35.35 13.15 42.45 6.8 Q43.2 6.25 44.1 6.8 Z" fill="none" stroke="#000000" stroke-linecap="round" stroke-linejoin="round" stroke-opacity="0.3019608" stroke-width="0.30000000000000004"/>
      <path d="M28.1 12.25 L31.9 11.95 Q36.85 13.2 30.7 20.15 29.6 21.05 28.55 21.45 25.8 22.55 23.5 19.95 22.15 17.65 23.5 15.45 24.8 13.35 28.1 12.25" fill="#ffde4f" fill-rule="evenodd" stroke="none"/>
      <path d="M28.1 12.25 L27.0 12.5 Q24.55 13.35 22.45 15.0 20.0 17.05 18.15 20.2 L26.1 23.65 Q30.5 25.5 34.9 27.4 L37.55 28.5 Q39.45 25.55 39.8 22.5 40.1 19.85 39.0 17.15 38.0 14.7 36.1 13.4 L34.7 12.65 34.6 12.6 33.75 12.3 Q35.95 13.45 34.0 16.5 32.3 18.85 30.7 20.15 36.85 13.2 31.9 11.95 L28.1 12.25 M39.85 17.1 Q41.0 20.0 40.65 22.9 40.2 26.2 38.2 29.4 L17.15 20.4 Q19.15 16.9 21.85 14.7 24.05 12.9 26.7 12.0 36.1 9.6 39.85 17.1" fill="#ffff98" fill-rule="evenodd" stroke="none"/>
      <path d="M26.1 23.65 L18.15 20.2 Q20.0 17.05 22.45 15.0 24.55 13.35 27.0 12.5 L28.1 12.25 Q24.8 13.35 23.5 15.45 22.15 17.65 23.5 19.95 25.8 22.55 28.55 21.45 L26.1 23.65 M36.1 13.4 Q38.0 14.7 39.0 17.15 40.1 19.85 39.8 22.5 39.45 25.55 37.55 28.5 L34.9 27.4 Q41.0 18.5 36.1 13.4" fill="#f49302" fill-rule="evenodd" stroke="none"/>
      <path d="M30.7 20.15 Q32.3 18.85 34.0 16.5 35.95 13.45 33.75 12.3 L34.6 12.6 34.7 12.65 36.1 13.4 Q41.0 18.5 34.9 27.4 30.5 25.5 26.1 23.65 L28.55 21.45 Q29.6 21.05 30.7 20.15" fill="#cc6b22" fill-rule="evenodd" stroke="none"/>
      <path d="M39.85 17.1 Q41.0 20.0 40.65 22.9 40.2 26.2 38.2 29.4 L17.15 20.4 Q19.15 16.9 21.85 14.7 24.05 12.9 26.7 12.0 36.1 9.6 39.85 17.1 Z" fill="none" stroke="#000000" stroke-linecap="round" stroke-linejoin="round" stroke-opacity="0.3019608" stroke-width="0.30000000000000004"/>
      <path d="M33.95 17.9 L34.75 18.0 35.1 18.15 Q35.75 18.5 35.95 19.2 36.2 19.95 35.85 20.75 35.55 21.6 36.15 21.35 L36.05 21.45 35.6 22.15 Q35.65 21.35 35.15 21.8 34.7 22.25 34.05 22.5 L32.1 22.65 Q31.2 22.3 30.9 21.35 30.8 20.8 30.95 20.2 L30.95 20.1 31.25 19.5 Q31.8 18.55 32.8 18.1 L33.95 17.9 M33.15 20.85 Q35.3 19.65 34.7 18.3 L34.5 18.25 33.75 18.1 32.85 18.3 Q31.9 18.7 31.45 19.55 31.3 19.75 31.3 20.0 L31.15 20.5 31.25 21.1 Q31.45 21.9 32.2 22.15 L33.9 22.05 35.25 20.85 Q35.7 20.05 35.5 19.25 L35.1 18.65 34.8 19.6 Q34.35 20.45 33.45 20.8 L33.15 20.85" fill="#ffffff" fill-rule="evenodd" stroke="none"/>
      <path d="M35.95 19.2 Q35.75 18.5 35.1 18.15 L34.75 18.0 33.95 17.9 35.05 18.0 35.1 18.0 Q36.1 18.35 36.4 19.35 L36.5 19.65 Q36.3 19.95 35.95 19.2 M31.15 20.5 L31.3 20.0 Q31.3 19.75 31.45 19.55 31.9 18.7 32.85 18.3 L33.75 18.1 34.5 18.25 34.7 18.3 Q35.3 19.65 33.15 20.85 L33.1 20.9 Q32.4 21.1 31.8 20.9 L31.15 20.5" fill="#e6e4b3" fill-rule="evenodd" stroke="none"/>
      <path d="M35.95 19.2 Q36.3 19.95 36.5 19.65 36.6 20.5 36.15 21.35 35.55 21.6 35.85 20.75 36.2 19.95 35.95 19.2 M30.95 20.1 L30.95 20.2 Q30.8 20.8 30.9 21.35 31.2 22.3 32.1 22.65 L34.05 22.5 Q34.7 22.25 35.15 21.8 35.65 21.35 35.6 22.15 L34.35 23.0 32.15 23.15 Q31.15 22.8 30.85 21.8 30.6 21.0 30.95 20.2 L30.95 20.1 M33.15 20.85 L33.45 20.8 Q34.35 20.45 34.8 19.6 L35.1 18.65 35.5 19.25 Q35.7 20.05 35.25 20.85 L33.9 22.05 32.2 22.15 Q31.45 21.9 31.25 21.1 L31.15 20.5 31.8 20.9 Q32.4 21.1 33.1 20.9 L33.15 20.85" fill="#cac960" fill-rule="evenodd" stroke="none"/>
      <path d="M36.5 19.65 L36.4 19.35 Q36.1 18.35 35.1 18.0 L35.05 18.0 33.95 17.9 32.8 18.1 Q31.8 18.55 31.25 19.5 L30.95 20.1 30.95 20.2 Q30.6 21.0 30.85 21.8 31.15 22.8 32.15 23.15 L34.35 23.0 35.6 22.15 36.05 21.45 36.15 21.35 Q36.6 20.5 36.5 19.65 Z" fill="none" stroke="#000000" stroke-linecap="round" stroke-linejoin="round" stroke-opacity="0.3019608" stroke-width="0.30000000000000004"/>
      <path d="M22.2 17.0 L22.4 16.4 Q22.85 15.4 23.85 14.9 L24.85 14.7 25.65 14.8 25.95 14.9 Q26.55 15.2 26.8 15.95 27.0 16.7 26.7 17.5 26.5 18.4 27.0 18.15 L26.95 18.25 26.55 18.9 Q26.6 18.15 26.05 18.6 25.7 19.05 25.15 19.35 L23.3 19.55 Q22.45 19.25 22.2 18.3 L22.15 17.1 22.2 17.0 M24.3 17.7 Q26.15 16.4 25.55 15.1 L25.4 15.0 24.7 14.9 23.8 15.15 Q23.05 15.6 22.65 16.4 L22.45 16.9 22.4 17.4 22.5 18.0 Q22.7 18.75 23.4 19.0 L24.95 18.9 Q25.75 18.5 26.2 17.7 26.6 16.85 26.3 16.05 L26.0 15.4 25.7 16.35 Q25.3 17.2 24.5 17.6 L24.3 17.7" fill="#ffffff" fill-rule="evenodd" stroke="none"/>
      <path d="M24.85 14.7 L25.85 14.75 25.9 14.8 Q26.9 15.1 27.2 16.1 L27.25 16.35 Q27.1 16.7 26.8 15.95 26.55 15.2 25.95 14.9 L25.65 14.8 24.85 14.7 M22.4 17.4 L22.45 16.9 22.65 16.4 Q23.05 15.6 23.8 15.15 L24.7 14.9 25.4 15.0 25.55 15.1 Q26.15 16.4 24.3 17.7 L24.2 17.75 Q23.6 17.95 23.0 17.75 L22.4 17.4" fill="#e6e4b3" fill-rule="evenodd" stroke="none"/>
      <path d="M27.25 16.35 Q27.4 17.25 27.0 18.15 26.5 18.4 26.7 17.5 27.0 16.7 26.8 15.95 27.1 16.7 27.25 16.35 M26.55 18.9 L25.4 19.85 23.4 20.0 Q22.45 19.65 22.15 18.65 21.9 17.85 22.15 17.1 L22.2 17.0 22.15 17.1 22.2 18.3 Q22.45 19.25 23.3 19.55 L25.15 19.35 Q25.7 19.05 26.05 18.6 26.6 18.15 26.55 18.9 M24.3 17.7 L24.5 17.6 Q25.3 17.2 25.7 16.35 L26.0 15.4 26.3 16.05 Q26.6 16.85 26.2 17.7 25.75 18.5 24.95 18.9 L23.4 19.0 Q22.7 18.75 22.5 18.0 L22.4 17.4 23.0 17.75 Q23.6 17.95 24.2 17.75 L24.3 17.7" fill="#cac960" fill-rule="evenodd" stroke="none"/>
      <path d="M22.2 17.0 L22.4 16.4 Q22.85 15.4 23.85 14.9 L24.85 14.7 25.85 14.75 25.9 14.8 Q26.9 15.1 27.2 16.1 L27.25 16.35 Q27.4 17.25 27.0 18.15 L26.95 18.25 26.55 18.9 25.4 19.85 23.4 20.0 Q22.45 19.65 22.15 18.65 21.9 17.85 22.15 17.1 L22.2 17.0 Z" fill="none" stroke="#000000" stroke-linecap="round" stroke-linejoin="round" stroke-opacity="0.3019608" stroke-width="0.30000000000000004"/>
      <path d="M30.15 20.6 L34.05 21.95 40.15 22.3 40.35 22.4 Q42.35 23.8 42.9 26.45 42.85 29.45 42.05 33.3 L41.65 34.0 Q39.9 36.7 37.0 37.9 L37.0 37.85 Q36.45 36.2 36.9 33.75 36.6 37.0 37.95 36.95 41.0 34.9 41.8 32.45 L42.4 28.25 Q42.4 26.1 41.95 25.4 41.85 23.65 40.35 22.4 42.2 24.6 41.35 27.25 L39.75 29.15 Q37.85 30.85 35.15 31.5 L31.6 31.35 30.55 30.35 Q30.15 29.8 30.75 29.3 L33.45 29.55 33.9 29.45 35.5 29.05 35.85 28.95 36.3 28.7 36.7 28.5 38.3 27.4 38.95 26.75 Q40.05 24.15 38.65 23.5 L32.85 23.5 31.15 22.8 30.2 21.65 Q29.95 21.1 30.15 20.6 M13.7 16.7 Q15.9 14.55 18.9 14.55 L22.05 17.7 27.4 19.6 27.7 20.25 27.6 20.55 Q27.3 21.3 26.85 21.15 L21.3 19.0 18.3 16.05 Q16.35 15.9 15.35 17.25 14.75 18.05 15.0 20.3 L15.05 20.75 15.15 21.5 15.55 22.3 15.7 22.6 16.45 23.3 16.85 23.6 18.5 24.9 21.0 26.35 22.1 26.85 22.8 27.1 23.3 27.35 23.6 27.45 26.45 28.4 26.65 28.8 26.65 29.05 Q26.65 30.15 26.15 30.25 L23.2 29.2 Q17.8 27.25 14.25 23.25 L13.7 22.55 Q12.5 20.25 13.3 17.7 L13.45 17.25 13.7 16.7" fill="#ffde4f" fill-rule="evenodd" stroke="none"/>
      <path d="M37.0 37.85 L35.35 38.4 34.5 38.4 34.55 38.1 Q35.6 34.15 35.2 32.0 L37.5 31.15 36.9 33.75 Q36.45 36.2 37.0 37.85 M17.6 33.0 Q15.75 31.6 14.25 29.85 11.75 24.6 13.0 21.75 L13.5 23.1 14.05 23.8 15.75 25.65 Q17.55 27.4 18.3 31.55 18.2 32.55 17.6 33.0 M27.4 19.6 L30.15 20.6 Q29.95 21.1 30.2 21.65 L31.15 22.8 27.6 21.45 27.85 20.65 27.7 20.25 27.4 19.6 M30.75 29.3 Q30.15 29.8 30.55 30.35 L31.6 31.35 28.95 30.9 27.05 30.55 Q27.1 29.8 26.75 29.05 L26.65 28.8 26.45 28.4 27.5 28.65 28.75 28.9 29.15 29.0 29.45 29.05 30.75 29.3 M18.3 16.5 L21.3 19.5 21.3 20.2 20.95 20.0 19.65 19.95 19.35 19.35 18.5 17.55 18.3 16.5" fill="#f4a33c" fill-rule="evenodd" stroke="none"/>
      <path d="M14.25 29.85 L13.9 29.45 Q11.8 26.65 11.9 22.55 11.75 20.7 13.45 17.25 L13.3 17.7 Q12.5 20.25 13.7 22.55 L14.25 23.25 Q17.8 27.25 23.2 29.2 L26.15 30.25 Q26.65 30.15 26.65 29.05 L26.65 28.8 26.75 29.05 Q27.1 29.8 27.05 30.55 L28.95 30.9 31.6 31.35 35.15 31.5 Q37.85 30.85 39.75 29.15 L41.35 27.25 Q42.2 24.6 40.35 22.4 41.85 23.65 41.95 25.4 L41.9 26.45 Q41.4 28.35 39.55 29.9 L37.5 31.15 35.2 32.0 Q35.6 34.15 34.55 38.1 35.2 33.85 34.15 32.05 L28.8 31.5 Q25.85 30.95 23.0 29.75 L22.1 29.45 Q19.3 28.3 17.05 26.6 18.45 29.8 18.3 31.55 17.55 27.4 15.75 25.65 L14.05 23.8 13.5 23.1 13.0 21.75 Q11.75 24.6 14.25 29.85 M31.15 22.8 L32.85 23.5 38.65 23.5 Q40.05 24.15 38.95 26.75 L39.2 25.4 39.25 25.4 Q39.25 24.35 38.65 23.95 L32.85 23.95 21.3 19.5 18.3 16.5 Q16.65 16.4 15.75 17.3 L15.35 17.75 Q14.9 19.2 15.0 20.3 14.75 18.05 15.35 17.25 16.35 15.9 18.3 16.05 L21.3 19.0 26.85 21.15 Q27.3 21.3 27.6 20.55 L27.7 20.25 27.85 20.65 27.6 21.45 31.15 22.8" fill="#ffff98" fill-rule="evenodd" stroke="none"/>
      <path d="M38.95 26.75 L38.3 27.4 36.7 28.5 Q36.15 26.35 37.9 25.5 L39.2 25.4 38.95 26.75 M33.9 29.45 L33.45 29.55 30.75 29.3 Q29.95 28.1 30.4 26.4 30.6 25.75 30.95 25.35 31.6 24.7 32.7 24.8 L33.15 24.9 33.85 28.95 33.9 29.45 M28.6 23.8 L29.5 23.6 28.75 28.9 27.5 28.65 26.45 28.4 23.6 27.45 23.3 27.35 Q24.45 24.35 27.1 24.0 L28.45 24.3 27.5 28.65 28.45 24.3 28.6 23.8 M19.65 19.95 L20.95 20.0 16.45 23.3 15.7 22.6 19.65 19.95 M22.95 21.35 L24.1 22.0 21.3 26.0 21.0 26.35 18.5 24.9 Q18.05 23.9 19.05 22.7 L19.7 22.15 20.7 21.75 22.95 21.35" fill="#e6e4b3" fill-rule="evenodd" stroke="none"/>
      <path d="M36.7 28.5 L36.3 28.7 Q36.15 27.55 36.4 26.85 L36.6 26.45 Q37.15 25.65 37.9 25.5 36.15 26.35 36.7 28.5 M32.95 24.45 L33.6 24.6 33.85 28.95 33.15 24.9 32.7 24.8 29.75 24.1 29.15 29.0 28.75 28.9 29.5 23.6 32.95 24.45 M27.1 24.0 Q24.45 24.35 23.3 27.35 L22.8 27.1 Q23.35 25.85 24.45 25.05 24.85 24.7 25.3 24.45 L26.45 24.05 27.1 24.0 M20.95 20.0 L21.3 20.2 24.7 21.8 21.3 26.0 24.1 22.0 22.95 21.35 20.75 20.45 16.85 23.6 16.45 23.3 20.95 20.0" fill="#f9f8ec" fill-rule="evenodd" stroke="none"/>
      <path d="M36.3 28.7 L35.85 28.95 35.5 29.05 34.65 25.55 38.85 25.0 39.25 25.4 39.2 25.4 37.9 25.5 Q37.15 25.65 36.6 26.45 L36.4 26.85 Q36.15 27.55 36.3 28.7 M29.15 29.0 L29.75 24.1 32.7 24.8 Q31.6 24.7 30.95 25.35 30.6 25.75 30.4 26.4 29.95 28.1 30.75 29.3 L29.45 29.05 29.15 29.0 M28.6 23.8 L28.45 24.3 27.1 24.0 26.45 24.05 25.3 24.45 Q24.85 24.7 24.45 25.05 23.35 25.85 22.8 27.1 L22.1 26.85 25.25 22.6 28.6 23.8 M19.35 19.35 L19.65 19.95 15.7 22.6 15.55 22.3 15.15 21.5 15.15 20.7 Q16.0 19.05 17.15 18.6 L17.4 18.5 Q18.2 18.3 19.35 19.35 M16.85 23.6 L20.75 20.45 22.95 21.35 20.7 21.75 19.7 22.15 19.05 22.7 Q18.05 23.9 18.5 24.9 L16.85 23.6" fill="#cac960" fill-rule="evenodd" stroke="none"/>
      <path d="M34.5 38.4 Q28.8 38.3 23.4 36.1 L22.85 35.9 Q20.2 32.55 22.1 29.45 L23.0 29.75 Q25.85 30.95 28.8 31.5 L34.15 32.05 Q35.2 33.85 34.55 38.1 L34.5 38.4 M41.95 25.4 Q42.4 26.1 42.4 28.25 L41.8 32.45 Q41.0 34.9 37.95 36.95 36.6 37.0 36.9 33.75 L37.5 31.15 39.55 29.9 Q41.4 28.35 41.9 26.45 L41.95 25.4 M32.85 23.95 L32.95 24.45 29.5 23.6 28.6 23.8 25.25 22.6 24.7 21.8 21.3 20.2 21.3 19.5 32.85 23.95" fill="#cc6b22" fill-rule="evenodd" stroke="none"/>
      <path d="M22.85 35.9 Q19.9 34.75 17.6 33.0 18.2 32.55 18.3 31.55 18.45 29.8 17.05 26.6 19.3 28.3 22.1 29.45 20.2 32.55 22.85 35.9 M39.25 25.4 L38.85 25.0 34.65 25.55 33.6 24.6 32.95 24.45 32.85 23.95 38.65 23.95 Q39.25 24.35 39.25 25.4 M15.0 20.3 Q14.9 19.2 15.35 17.75 L15.75 17.3 Q16.65 16.4 18.3 16.5 L18.5 17.55 Q17.25 17.45 16.4 17.95 15.9 18.3 15.55 18.8 L15.15 20.7 15.15 21.5 15.05 20.75 15.0 20.3" fill="#a34100" fill-rule="evenodd" stroke="none"/>
      <path d="M35.5 29.05 L33.9 29.45 33.85 28.95 33.6 24.6 34.65 25.55 35.5 29.05 M24.7 21.8 L25.25 22.6 22.1 26.85 21.0 26.35 21.3 26.0 24.7 21.8 M15.15 20.7 L15.55 18.8 Q15.9 18.3 16.4 17.95 17.25 17.45 18.5 17.55 L19.35 19.35 Q18.2 18.3 17.4 18.5 L17.15 18.6 Q16.0 19.05 15.15 20.7" fill="#b9b93e" fill-rule="evenodd" stroke="none"/>
      <path d="M30.15 20.6 L34.05 21.95 40.15 22.3 40.35 22.4 Q42.35 23.8 42.9 26.45 42.85 29.45 42.05 33.3 L41.65 34.0 Q39.9 36.7 37.0 37.9 L37.0 37.85 35.35 38.4 34.5 38.4 Q28.8 38.3 23.4 36.1 L22.85 35.9 Q19.9 34.75 17.6 33.0 15.75 31.6 14.25 29.85 L13.9 29.45 Q11.8 26.65 11.9 22.55 11.75 20.7 13.45 17.25 L13.7 16.7 Q15.9 14.55 18.9 14.55 L22.05 17.7 27.4 19.6 30.15 20.6 M38.95 26.75 L38.3 27.4 36.7 28.5 36.3 28.7 35.85 28.95 35.5 29.05 33.9 29.45 33.45 29.55 30.75 29.3 29.45 29.05 29.15 29.0 28.75 28.9 27.5 28.65 26.45 28.4 23.6 27.45 23.3 27.35 22.8 27.1 22.1 26.85 25.25 22.6 28.6 23.8 29.5 23.6 32.95 24.45 33.6 24.6 34.65 25.55 35.5 29.05 M39.2 25.4 L38.95 26.75 M34.65 25.55 L38.85 25.0 39.25 25.4 39.2 25.4 M13.45 17.25 L13.7 16.7 M28.45 24.3 L27.5 28.65 M28.6 23.8 L28.45 24.3 M24.7 21.8 L25.25 22.6 M19.35 19.35 L19.65 19.95 20.95 20.0 21.3 20.2 24.7 21.8 M21.0 26.35 L18.5 24.9 16.85 23.6 16.45 23.3 15.7 22.6 15.55 22.3 15.15 21.5 15.05 20.75 15.0 20.3 M21.0 26.35 L22.1 26.85 M18.5 17.55 Q17.25 17.45 16.4 17.95 15.9 18.3 15.55 18.8 L15.15 20.7 15.15 21.5 M19.35 19.35 L18.5 17.55 M19.65 19.95 L15.7 22.6" fill="none" stroke="#000000" stroke-linecap="round" stroke-linejoin="round" stroke-opacity="0.3019608" stroke-width="0.30000000000000004"/>
      <path d="M20.7 44.15 Q21.3 44.5 23.2 43.0 L27.7 39.35 31.15 36.25 30.85 37.0 24.0 43.0 23.7 43.3 20.5 45.45 20.35 45.55 20.15 45.65 19.95 45.75 19.95 45.7 20.2 45.5 20.2 45.45 20.4 45.25 20.5 45.1 20.55 45.1 20.7 44.15 M17.1 28.0 L17.3 28.0 Q20.15 28.9 22.95 30.2 25.15 31.55 21.9 35.9 L20.7 37.3 18.65 39.05 17.85 39.5 16.4 39.85 13.75 39.4 13.55 39.4 Q12.7 36.65 13.6 33.5 L14.3 31.2 Q15.25 28.75 17.1 28.0" fill="#ffde4f" fill-rule="evenodd" stroke="none"/>
      <path d="M29.9 34.25 Q30.15 35.25 29.05 36.7 L26.4 39.45 Q22.7 42.2 20.0 42.55 19.35 41.6 18.2 40.8 L17.8 40.5 18.4 40.1 18.65 39.95 Q20.55 38.5 22.45 35.8 24.8 32.75 24.55 31.0 26.75 32.1 28.95 33.45 L29.9 34.25 M14.35 28.05 L15.8 27.8 17.1 28.0 Q15.25 28.75 14.3 31.2 L13.6 33.5 Q12.7 36.65 13.55 39.4 L13.1 39.4 12.2 39.75 Q12.7 34.4 14.35 28.05 M20.2 45.45 L20.2 45.5 20.25 45.45 20.2 45.45" fill="#f4a33c" fill-rule="evenodd" stroke="none"/>
      <path d="M20.0 42.55 L20.1 42.65 20.7 44.0 20.7 44.15 20.55 45.1 20.5 45.1 20.4 45.25 20.2 45.45 20.25 45.45 20.35 45.25 20.4 45.05 Q20.6 44.15 19.85 43.0 19.25 42.05 18.15 41.25 L18.1 41.25 17.55 40.9 17.15 40.7 Q16.65 40.4 16.2 40.25 L15.75 40.1 13.65 39.75 Q12.0 39.8 11.45 40.8 L11.55 40.55 11.5 40.55 13.55 29.95 13.9 28.6 Q14.0 28.25 14.35 28.05 12.7 34.4 12.2 39.75 L13.1 39.4 13.55 39.4 13.75 39.4 16.4 39.85 17.85 39.5 18.65 39.05 20.7 37.3 21.9 35.9 Q25.15 31.55 22.95 30.2 L24.55 31.0 Q24.8 32.75 22.45 35.8 20.55 38.5 18.65 39.95 L18.4 40.1 17.8 40.5 18.2 40.8 Q19.35 41.6 20.0 42.55" fill="#ffff98" fill-rule="evenodd" stroke="none"/>
      <path d="M29.9 34.25 L30.95 35.5 31.15 36.25 27.7 39.35 23.2 43.0 Q21.3 44.5 20.7 44.15 L20.7 44.0 20.1 42.65 20.0 42.55 Q22.7 42.2 26.4 39.45 L29.05 36.7 Q30.15 35.25 29.9 34.25 M13.6 44.55 Q12.6 43.8 11.95 42.85 L11.6 42.15 Q11.3 41.5 11.4 40.9 L11.45 40.9 11.45 40.85 11.45 40.8 Q12.0 39.8 13.65 39.75 L15.75 40.1 Q16.95 41.95 17.0 43.65 L17.0 43.9 16.2 43.8 15.3 42.3 12.4 42.3 13.6 44.55 M18.15 41.25 Q19.25 42.05 19.85 43.0 20.6 44.15 20.4 45.05 L20.35 45.25 19.45 44.05 18.7 44.0 18.6 43.65 18.15 41.25" fill="#cc6b22" fill-rule="evenodd" stroke="none"/>
      <path d="M19.05 46.1 L18.3 46.15 16.5 45.95 14.75 45.25 13.6 44.55 12.4 42.3 15.3 42.3 16.2 43.8 17.0 43.9 17.0 43.65 Q16.95 41.95 15.75 40.1 L16.2 40.25 Q16.65 40.4 17.15 40.7 L17.55 40.9 18.1 41.25 18.15 41.25 18.6 43.65 18.7 44.0 19.45 44.05 20.35 45.25 20.25 45.45 20.2 45.5 19.95 45.7 19.9 45.7 19.55 45.95 19.3 46.0 19.05 46.1" fill="#984d1b" fill-rule="evenodd" stroke="none"/>
      <path d="M31.15 36.25 L30.95 35.5 29.9 34.25 28.95 33.45 Q26.75 32.1 24.55 31.0 L22.95 30.2 Q20.15 28.9 17.3 28.0 L17.1 28.0 15.8 27.8 14.35 28.05 Q14.0 28.25 13.9 28.6 L13.55 29.95 11.5 40.55 11.45 40.85 11.45 40.9 11.4 40.9 Q11.3 41.5 11.6 42.15 L11.95 42.85 Q12.6 43.8 13.6 44.55 L14.75 45.25 16.5 45.95 18.3 46.15 19.05 46.1 19.3 46.0 19.55 45.95 19.9 45.7 19.95 45.7 M31.15 36.25 L30.85 37.0 24.0 43.0 23.7 43.3 20.5 45.45 20.35 45.55 20.15 45.65 19.95 45.75 19.9 45.7 19.05 46.1 M11.45 40.8 L11.45 40.85 M11.55 40.55 L11.45 40.8" fill="none" stroke="#000000" stroke-linecap="round" stroke-linejoin="round" stroke-opacity="0.3019608" stroke-width="0.30000000000000004"/>
      <path d="M19.4 44.1 Q19.65 44.5 19.35 44.85 L19.35 44.9 16.05 48.9 Q16.3 48.6 16.15 48.25 18.0 46.35 19.4 44.1 M16.6 42.85 L17.25 42.75 17.5 42.8 Q18.0 43.2 17.4 44.6 L16.15 46.4 Q15.5 47.15 14.9 47.3 L14.45 47.25 14.25 47.25 16.6 42.85" fill="#ffde4f" fill-rule="evenodd" stroke="none"/>
      <path d="M18.1 42.95 L18.3 43.0 18.35 43.05 18.5 43.15 Q19.2 43.5 19.4 44.0 L19.4 44.1 Q18.0 46.35 16.15 48.25 L15.55 47.6 16.35 46.7 17.85 44.1 18.1 42.95" fill="#f4a33c" fill-rule="evenodd" stroke="none"/>
      <path d="M13.75 47.55 L13.75 47.5 16.25 43.2 16.35 43.1 16.35 43.05 Q16.45 42.9 16.6 42.85 L14.25 47.25 14.45 47.25 14.9 47.3 Q15.5 47.15 16.15 46.4 L17.4 44.6 Q18.0 43.2 17.5 42.8 L18.1 42.95 17.85 44.1 16.35 46.7 15.55 47.6 16.15 48.25 Q16.3 48.6 16.05 48.9 L16.05 48.95 16.0 48.3 15.35 47.7 14.4 47.4 13.75 47.55" fill="#ffff98" fill-rule="evenodd" stroke="none"/>
      <path d="M16.05 48.95 L15.85 49.1 15.65 49.15 15.55 49.2 15.35 49.2 14.3 48.9 13.65 48.25 13.65 48.0 13.65 47.6 13.7 47.55 13.75 47.55 14.4 47.4 15.35 47.7 16.0 48.3 16.05 48.95" fill="#cc6b22" fill-rule="evenodd" stroke="none"/>
      <path d="M19.4 44.1 Q19.65 44.5 19.35 44.85 L19.35 44.9 16.05 48.9 16.05 48.95 15.85 49.1 15.65 49.15 15.55 49.2 15.35 49.2 14.3 48.9 13.65 48.25 13.65 48.0 13.65 47.6 13.7 47.55 13.75 47.55 13.75 47.5 16.25 43.2 16.35 43.1 16.35 43.05 Q16.45 42.9 16.6 42.85 L17.25 42.75 17.5 42.8 18.1 42.95 18.3 43.0 18.35 43.05 18.5 43.15 Q19.2 43.5 19.4 44.0 L19.4 44.1 M16.05 48.9 L16.05 48.95" fill="none" stroke="#000000" stroke-linecap="round" stroke-linejoin="round" stroke-opacity="0.3019608" stroke-width="0.30000000000000004"/>
      <path d="M15.3 42.15 Q15.55 42.6 15.35 42.95 L15.35 43.0 12.9 47.3 Q13.05 47.0 12.85 46.6 14.3 44.6 15.3 42.15 M12.4 40.9 L13.0 40.8 13.3 40.8 Q13.8 41.3 13.5 42.75 L12.6 44.65 11.55 45.65 11.1 45.6 10.9 45.6 12.4 40.9" fill="#ffde4f" fill-rule="evenodd" stroke="none"/>
      <path d="M13.85 41.0 L14.05 41.05 14.15 41.1 14.25 41.2 Q14.95 41.55 15.25 42.05 L15.3 42.15 Q14.3 44.6 12.85 46.6 L12.2 45.95 12.8 45.0 13.8 42.2 13.85 41.0" fill="#f4a33c" fill-rule="evenodd" stroke="none"/>
      <path d="M12.9 47.35 L12.9 47.4 12.75 46.7 12.05 46.05 11.1 45.8 10.5 45.95 10.5 45.9 12.15 41.3 12.2 41.15 12.2 41.1 12.4 40.9 10.9 45.6 11.1 45.6 11.55 45.65 12.6 44.65 13.5 42.75 Q13.8 41.3 13.3 40.8 L13.85 41.0 13.8 42.2 12.8 45.0 12.2 45.95 12.85 46.6 Q13.05 47.0 12.9 47.3 L12.9 47.35" fill="#ffff98" fill-rule="evenodd" stroke="none"/>
      <path d="M12.9 47.4 L12.7 47.5 12.55 47.6 12.45 47.65 12.25 47.65 11.25 47.35 10.5 46.65 10.45 46.4 10.4 46.0 10.45 45.9 10.5 45.95 11.1 45.8 12.05 46.05 12.75 46.7 12.9 47.4" fill="#cc6b22" fill-rule="evenodd" stroke="none"/>
      <path d="M13.85 41.0 L14.05 41.05 14.15 41.1 14.25 41.2 Q14.95 41.55 15.25 42.05 L15.3 42.15 Q15.55 42.6 15.35 42.95 L15.35 43.0 12.9 47.3 12.9 47.35 12.9 47.4 12.7 47.5 12.55 47.6 12.45 47.65 12.25 47.65 11.25 47.35 10.5 46.65 10.45 46.4 10.4 46.0 10.45 45.9 10.5 45.95 10.5 45.9 12.15 41.3 12.2 41.15 12.2 41.1 12.4 40.9 13.0 40.8 13.3 40.8 13.85 41.0 M12.9 47.3 L12.9 47.35" fill="none" stroke="#000000" stroke-linecap="round" stroke-linejoin="round" stroke-opacity="0.3019608" stroke-width="0.30000000000000004"/>
      <path d="M27.45 39.5 L26.7 39.45 Q26.35 39.25 26.4 38.8 26.45 38.35 26.85 37.95 27.2 37.55 27.65 37.4 L28.45 37.45 Q28.75 37.65 28.7 38.1 L28.35 38.95 27.45 39.5" fill="#660000" fill-opacity="0.36078432" fill-rule="evenodd" stroke="none"/>
      <path d="M32.65 42.5 L31.2 41.7 31.1 41.65 30.3 42.35 30.55 43.15 Q30.1 43.8 29.6 43.05 L29.9 41.65 26.65 38.6 27.2 37.8 27.45 37.65 30.3 41.3 31.95 41.15 32.1 41.25 32.75 42.15 32.65 42.5" fill="#cac960" fill-rule="evenodd" stroke="none"/>
      <path d="M27.45 37.65 L28.1 37.6 30.45 41.0 32.1 41.0 32.15 41.05 32.75 42.05 32.75 42.15 32.1 41.25 31.95 41.15 30.3 41.3 27.45 37.65" fill="#ffffff" fill-rule="evenodd" stroke="none"/>
      <path d="M30.8 44.3 Q29.6 44.25 29.3 43.05 L29.6 41.75 26.75 39.05 26.65 38.6 29.9 41.65 29.6 43.05 Q29.55 43.3 30.0 43.8 L30.6 44.0 30.55 43.15 30.3 42.35 31.1 41.65 31.2 41.7 32.65 42.5 31.3 41.8 30.45 42.55 30.8 44.25 30.8 44.3 M28.1 37.6 L28.65 37.9 30.6 40.8 32.25 40.75 Q32.8 41.4 32.75 42.05 L32.15 41.05 32.1 41.0 30.45 41.0 28.1 37.6" fill="#e6e4b3" fill-rule="evenodd" stroke="none"/>
      <path d="M30.55 43.15 L30.6 44.0 30.0 43.8 Q29.55 43.3 29.6 43.05 30.1 43.8 30.55 43.15" fill="#b9b93e" fill-rule="evenodd" stroke="none"/>
      <path d="M30.8 44.25 L30.45 42.55 31.3 41.8 32.65 42.5 31.3 42.35 30.8 42.85 30.8 44.25" fill="#a6a637" fill-rule="evenodd" stroke="none"/>
      <path d="M26.65 38.6 L26.75 39.05 29.6 41.75 29.3 43.05 Q29.6 44.25 30.8 44.3 L30.8 44.25 30.8 42.85 31.3 42.35 32.65 42.5 32.75 42.15 32.75 42.05 Q32.8 41.4 32.25 40.75 L30.6 40.8 28.65 37.9 28.1 37.6 27.45 37.65 27.2 37.8 26.65 38.6 Z" fill="none" stroke="#000000" stroke-linecap="round" stroke-linejoin="round" stroke-opacity="0.3019608" stroke-width="0.30000000000000004"/>
      <path d="M23.55 42.65 Q23.0 42.65 22.8 42.35 22.55 42.1 22.7 41.65 22.85 41.25 23.3 40.95 23.75 40.65 24.25 40.65 24.8 40.7 25.05 40.95 25.25 41.25 25.1 41.65 L24.45 42.35 23.55 42.65" fill="#660000" fill-opacity="0.36078432" fill-rule="evenodd" stroke="none"/>
      <path d="M23.0 41.55 Q23.2 41.15 23.75 40.9 L24.1 40.85 25.8 45.1 27.5 45.45 27.65 45.5 27.95 46.55 27.8 46.9 26.65 45.7 26.55 45.65 25.6 46.15 25.55 46.9 Q25.05 47.5 24.7 46.65 L24.7 46.6 25.35 45.35 23.0 41.55" fill="#cac960" fill-rule="evenodd" stroke="none"/>
      <path d="M27.95 46.55 L27.65 45.5 27.5 45.45 25.8 45.1 24.1 40.85 24.7 40.9 26.05 44.85 27.65 45.25 27.75 45.35 28.05 46.45 27.95 46.55" fill="#ffffff" fill-rule="evenodd" stroke="none"/>
      <path d="M23.0 41.55 L25.35 45.35 24.7 46.6 24.7 46.65 Q24.6 46.85 24.95 47.45 L25.45 47.8 25.55 46.9 25.6 46.15 26.55 45.65 26.65 45.7 27.8 46.9 26.65 45.8 25.7 46.35 25.6 48.1 Q24.45 47.8 24.45 46.5 L25.05 45.3 23.0 42.0 23.0 41.55 M24.7 40.9 L25.15 41.4 26.3 44.65 27.9 45.05 27.9 45.1 Q28.25 45.8 28.05 46.45 L27.75 45.35 27.65 45.25 26.05 44.85 24.7 40.9" fill="#e6e4b3" fill-rule="evenodd" stroke="none"/>
      <path d="M24.7 46.65 Q25.05 47.5 25.55 46.9 L25.45 47.8 24.95 47.45 Q24.6 46.85 24.7 46.65" fill="#b9b93e" fill-rule="evenodd" stroke="none"/>
      <path d="M25.6 48.1 L25.7 46.35 26.65 45.8 27.8 46.9 26.55 46.35 25.95 46.65 25.6 48.1" fill="#a6a637" fill-rule="evenodd" stroke="none"/>
      <path d="M24.1 40.85 L23.75 40.9 Q23.2 41.15 23.0 41.55 L23.0 42.0 25.05 45.3 24.45 46.5 Q24.45 47.8 25.6 48.1 L25.95 46.65 26.55 46.35 27.8 46.9 27.95 46.55 28.05 46.45 Q28.25 45.8 27.9 45.1 L27.9 45.05 26.3 44.65 25.15 41.4 24.7 40.9 24.1 40.85 Z" fill="none" stroke="#000000" stroke-linecap="round" stroke-linejoin="round" stroke-opacity="0.3019608" stroke-width="0.30000000000000004"/>
    </g>
    <g id="sprite1" transform="matrix(1.0, 0.0, 0.0, 1.0, 0.0, 0.0)">
      <use height="26.7" transform="matrix(0.0042, -1.3515, 1.3935, 0.02, 22.09, 56.0263)" width="26.7" xlink:href="#sprite2"/>
      <use height="26.7" transform="matrix(0.0095, -3.0486, 0.372, 0.0053, 36.507, 81.3775)" width="26.7" xlink:href="#sprite2"/>
      <use height="26.7" transform="matrix(3.0486, 0.0095, -0.0053, 0.372, 0.1225, 35.107)" width="26.7" xlink:href="#sprite2"/>
    </g>
    <g id="sprite2" transform="matrix(1.0, 0.0, 0.0, 1.0, 13.35, 13.35)">
      <use height="26.7" transform="matrix(1.0, 0.0, 0.0, 1.0, -13.35, -13.35)" width="26.7" xlink:href="#shape1"/>
    </g>
    <g id="shape1" transform="matrix(1.0, 0.0, 0.0, 1.0, 13.35, 13.35)">
      <path d="M9.3 -9.85 Q13.35 -5.8 13.35 0.0 13.35 5.8 9.3 9.3 5.8 13.35 0.0 13.35 -5.8 13.35 -9.85 9.3 -13.35 5.8 -13.35 0.0 -13.35 -5.8 -9.85 -9.85 -5.8 -13.35 0.0 -13.35 5.8 -13.35 9.3 -9.85" fill="url(#gradient0)" fill-rule="evenodd" stroke="none"/>
    </g>
    <radialGradient cx="0" cy="0" gradientTransform="matrix(0.0213, 0.0, 0.0, 0.0213, 0.0, 0.0)" gradientUnits="userSpaceOnUse" id="gradient0" r="819.2" spreadMethod="pad">
      <stop offset="0.19607843137254902" stop-color="#fee3bc" stop-opacity="0.28627452"/>
      <stop offset="0.5019607843137255" stop-color="#fee3bc" stop-opacity="0.043137256"/>
      <stop offset="0.7607843137254902" stop-color="#ffe3bd" stop-opacity="0.0"/>
    </radialGradient>
  </defs>
</svg>
