<?xml version="1.0" encoding="UTF-8" standalone="no"?>
<svg xmlns:xlink="http://www.w3.org/1999/xlink" height="52.0px" width="52.0px" xmlns="http://www.w3.org/2000/svg">
  <g transform="matrix(1.0, 0.0, 0.0, 1.0, 0.0, 0.0)">
    <use height="56.0" transform="matrix(1.0, 0.0, 0.0, 1.0, -2.0, -2.0)" width="56.0" xlink:href="#shape0"/>
    <use height="156.85" transform="matrix(-0.1876, -0.0066, 0.0149, -0.0715, 21.3759, 38.0117)" width="73.1" xlink:href="#sprite0"/>
    <use height="15.8" transform="matrix(1.0, 0.0, 0.0, 1.0, 8.5, 25.55)" width="15.8" xlink:href="#shape2"/>
    <use height="26.6" transform="matrix(0.2141, 0.0, 0.0, 0.2141, 9.85, 26.3153)" width="79.2" xlink:href="#sprite1"/>
    <use height="29.6" transform="matrix(1.0, 0.0, 0.0, 1.0, 4.8, 3.65)" width="42.9" xlink:href="#shape4"/>
    <use height="156.85" transform="matrix(0.0621, -0.3269, -0.1238, -0.0319, 35.7593, 32.0038)" width="73.1" xlink:href="#sprite0"/>
    <use height="156.85" transform="matrix(-0.2523, -0.0088, 0.0227, -0.1089, 44.9844, 31.3677)" width="73.1" xlink:href="#sprite0"/>
    <use height="156.85" transform="matrix(-0.0866, -0.0951, -0.0433, 0.0556, 31.2195, 35.1059)" width="73.1" xlink:href="#sprite0"/>
    <use height="156.85" transform="matrix(-0.0788, -0.0505, -0.0349, 0.0305, 21.1671, 44.153)" width="73.1" xlink:href="#sprite0"/>
    <use height="156.85" transform="matrix(-0.0788, -0.0505, -0.0349, 0.0305, 14.7671, 40.053)" width="73.1" xlink:href="#sprite0"/>
    <use height="0.0" transform="matrix(0.1837, 0.0, 0.0, 0.1341, 30.95, 15.1)" width="0.0" xlink:href="#sprite2"/>
    <use height="0.0" transform="matrix(0.0324, -0.0562, 0.0611, 0.0353, 14.5, 33.65)" width="0.0" xlink:href="#sprite2"/>
    <use height="0.0" transform="matrix(0.0104, -0.018, 0.0351, 0.0202, 10.9, 26.65)" width="0.0" xlink:href="#sprite2"/>
    <use height="0.0" transform="matrix(0.0147, -0.0147, 0.0286, 0.0286, 24.75, 20.5)" width="0.0" xlink:href="#sprite2"/>
    <use height="81.5" transform="matrix(0.0685, 0.0, 0.0, 0.0685, 12.3, 24.9)" width="81.5" xlink:href="#sprite3"/>
    <use height="81.5" transform="matrix(0.0685, 0.0, 0.0, 0.0685, 21.25, 17.65)" width="81.5" xlink:href="#sprite3"/>
  </g>
  <defs>
    <g id="shape0" transform="matrix(1.0, 0.0, 0.0, 1.0, 2.0, 2.0)">
      <path d="M52.0 0.0 L52.0 52.0 0.0 52.0 0.0 0.0 52.0 0.0" fill="#795fa9" fill-opacity="0.0" fill-rule="evenodd" stroke="none"/>
      <path d="M25.55 6.75 L25.5 6.95 Q22.8 8.0 20.1 9.9 19.2 10.45 18.0 12.1 L17.15 15.2 16.45 19.3 17.3 22.1 18.75 24.9 20.4 26.25 19.3 26.3 19.35 26.35 18.85 26.35 17.2 24.95 15.6 25.1 15.2 26.05 14.25 26.1 13.8 25.7 6.85 24.6 5.55 25.6 5.65 27.05 7.75 29.1 9.85 29.6 9.95 29.6 9.7 29.7 7.35 35.3 7.65 35.8 6.25 37.75 5.5 42.05 7.55 44.9 10.35 44.15 11.5 42.35 11.35 41.6 11.15 40.45 13.65 41.35 12.5 45.25 14.2 49.1 18.05 48.35 18.9 45.75 17.3 42.25 17.5 40.75 19.2 39.9 20.85 36.95 21.6 32.95 23.1 31.2 21.8 36.55 21.65 41.1 22.8 42.55 26.3 41.15 27.55 38.3 26.65 36.35 26.35 31.25 27.55 32.3 28.0 32.35 28.9 32.45 30.15 32.5 31.5 32.5 Q33.35 31.55 35.35 30.6 L35.45 30.55 46.95 19.7 45.95 14.65 40.55 8.6 39.85 8.1 39.65 8.0 Q37.75 6.8 35.4 5.7 L35.25 5.65 34.55 5.55 32.65 5.5 32.6 5.35 31.2 4.6 28.2 4.65 Q26.7 5.05 26.05 5.85 L25.55 6.75 M7.6 26.75 L8.9 27.45 9.45 27.2 8.55 26.3 7.45 26.15 7.6 26.75" fill="none" stroke="#000000" stroke-linecap="round" stroke-linejoin="round" stroke-opacity="0.3019608" stroke-width="1.0"/>
      <path d="M10.35 44.15 L7.55 44.9 5.5 42.05 6.2 38.2 7.35 38.7 7.75 40.85 6.1 41.85 5.8 41.95 5.5 42.05 5.8 41.95 7.65 44.55 9.85 44.0 10.35 42.55 10.35 44.15 M17.35 41.8 L17.3 42.25 15.35 45.55 13.25 44.55 13.6 42.55 16.15 42.55 17.35 41.8" fill="#bfb072" fill-rule="evenodd" stroke="none"/>
      <path d="M6.25 37.75 L6.85 36.95 7.65 38.3 6.25 37.75 M5.8 41.95 L6.1 41.85 8.1 41.3 10.35 42.55 9.85 44.0 7.65 44.55 5.8 41.95 M14.2 49.1 L12.5 45.25 15.35 45.55 15.35 47.25 14.2 49.1" fill="#a89e64" fill-rule="evenodd" stroke="none"/>
      <path d="M7.85 39.45 L11.35 41.6 11.5 42.35 10.35 42.55 8.1 41.3 7.85 39.45 M13.3 42.55 L13.9 40.55 13.6 42.55 13.3 42.55 M17.3 42.25 L18.9 45.75 18.05 48.35 15.35 47.25 15.35 45.55 17.3 42.25" fill="#5f5a3a" fill-rule="evenodd" stroke="none"/>
      <path d="M7.65 38.3 L7.85 39.45 8.1 41.3 6.1 41.85 7.75 40.85 7.35 38.7 6.2 38.2 6.25 37.75 7.65 38.3 M12.5 45.25 L13.3 42.55 13.6 42.55 13.25 44.55 15.35 45.55 12.5 45.25" fill="#d0c586" fill-rule="evenodd" stroke="none"/>
      <path d="M9.85 36.35 L10.85 37.2 Q10.95 39.65 11.35 41.6 L7.85 39.45 7.65 38.3 9.85 36.35 7.65 38.3 6.85 36.95 8.2 35.05 9.85 36.35 M11.5 42.35 L10.35 44.15 10.35 42.55 11.5 42.35 M13.9 40.55 L14.1 40.0 17.7 39.35 17.35 41.8 16.15 42.55 13.6 42.55 13.9 40.55 M18.05 48.35 L14.2 49.1 15.35 47.25 18.05 48.35" fill="#49432e" fill-rule="evenodd" stroke="none"/>
      <path d="M11.35 41.6 Q10.95 39.65 10.85 37.2 L9.85 36.35 7.65 38.3 7.85 39.45 8.1 41.3 6.1 41.85 5.8 41.95 5.5 42.05 6.2 38.2 6.25 37.75 6.85 36.95 8.2 35.05 9.85 36.35 M11.35 41.6 L11.5 42.35 10.35 44.15 7.55 44.9 5.5 42.05 M10.35 42.55 L8.1 41.3 M13.3 42.55 L13.9 40.55 14.1 40.0 17.7 39.35 17.35 41.8 17.3 42.25 18.9 45.75 18.05 48.35 14.2 49.1 12.5 45.25 13.3 42.55 M10.35 42.55 L11.5 42.35 M12.5 45.25 L15.35 45.55 17.3 42.25 M15.35 45.55 L15.35 47.25 18.05 48.35 M15.35 47.25 L14.2 49.1 M10.35 44.15 L10.35 42.55 M7.65 38.3 L6.25 37.75" fill="none" stroke="#000000" stroke-linecap="round" stroke-linejoin="round" stroke-opacity="0.3019608" stroke-width="0.30000000000000004"/>
      <path d="M9.5 30.1 L9.7 29.7 15.25 26.6 16.35 30.15 15.85 31.85 14.2 34.65 11.45 35.3 10.25 33.65 9.5 30.5 9.5 30.1 M15.25 26.6 L21.45 26.2 21.75 26.35 20.85 27.0 16.6 29.15 15.25 26.6 M20.85 36.95 L19.2 39.9 16.35 41.35 18.95 39.55 20.1 36.85 18.2 34.75 15.75 34.75 18.45 34.1 20.85 36.95 M10.4 40.15 L10.25 40.1 9.8 39.35 10.5 38.0 10.5 35.8 9.2 34.25 7.35 35.3 9.35 33.15 10.85 35.95 10.85 37.4 10.85 38.05 10.85 37.4 14.75 41.55 10.85 38.05 10.4 40.15" fill="#bfb072" fill-rule="evenodd" stroke="none"/>
      <path d="M15.85 31.85 L16.35 30.15 20.85 27.0 21.75 26.35 25.3 28.65 23.45 30.8 20.45 32.8 18.45 34.1 15.75 34.75 14.95 34.95 15.85 31.85 M9.8 39.35 L7.35 35.3 9.2 34.25 10.5 35.8 10.5 38.0 9.8 39.35" fill="#a89e64" fill-rule="evenodd" stroke="none"/>
      <path d="M21.6 32.95 L20.85 36.95 18.45 34.1 20.45 32.8 21.6 32.95 M15.15 41.9 L10.4 40.15 10.85 38.05 14.75 41.55 15.15 41.9" fill="#5f5a3a" fill-rule="evenodd" stroke="none"/>
      <path d="M9.5 30.1 L9.5 30.5 10.25 33.65 11.45 35.3 14.2 34.65 15.85 31.85 14.95 34.95 10.85 35.95 9.35 33.15 7.35 35.3 9.5 30.1 M16.35 30.15 L15.25 26.6 16.6 29.15 20.85 27.0 16.35 30.15 M9.5 30.5 L9.35 33.15 9.5 30.5" fill="#d0c586" fill-rule="evenodd" stroke="none"/>
      <path d="M23.45 30.8 L21.6 32.95 20.45 32.8 23.45 30.8 M16.35 41.35 L15.15 41.9 14.75 41.55 10.85 37.4 10.85 35.95 14.95 34.95 15.75 34.75 18.2 34.75 20.1 36.85 18.95 39.55 16.35 41.35" fill="#49432e" fill-rule="evenodd" stroke="none"/>
      <path d="M15.25 26.6 L9.7 29.7 9.5 30.1 9.5 30.5 9.35 33.15 7.35 35.3 9.5 30.1 M15.85 31.85 L16.35 30.15 15.25 26.6 21.45 26.2 21.75 26.35 25.3 28.65 23.45 30.8 21.6 32.95 20.85 36.95 19.2 39.9 16.35 41.35 15.15 41.9 10.4 40.15 10.25 40.1 9.8 39.35 7.35 35.3 M10.85 37.4 L10.85 35.95 9.35 33.15 M10.85 38.05 L10.85 37.4 M14.75 41.55 L15.15 41.9 M15.75 34.75 L14.95 34.95 10.85 35.95 M14.95 34.95 L15.85 31.85 M14.75 41.55 L10.85 38.05 10.4 40.15 M20.85 27.0 L21.75 26.35 M15.75 34.75 L18.45 34.1 20.45 32.8 23.45 30.8 M21.6 32.95 L20.45 32.8 M18.45 34.1 L20.85 36.95 M16.35 30.15 L20.85 27.0" fill="none" stroke="#000000" stroke-linecap="round" stroke-linejoin="round" stroke-opacity="0.3019608" stroke-width="0.30000000000000004"/>
      <path d="M25.25 41.6 L22.8 42.55 21.65 41.1 21.8 36.55 23.35 39.25 22.15 37.7 22.15 40.75 22.85 41.95 25.25 41.6 M23.35 30.1 Q24.05 28.5 24.85 28.15 L26.25 29.7 25.6 30.7 23.95 32.8 23.15 33.0 23.35 30.1 M26.55 34.85 L26.65 36.35 26.45 37.2 25.5 39.6 23.4 38.7 22.25 36.25 22.6 33.3 24.0 33.15 26.55 34.85" fill="#bfb072" fill-rule="evenodd" stroke="none"/>
      <path d="M26.3 41.15 L25.35 41.55 25.25 41.6 22.85 41.95 22.15 40.75 22.15 37.7 23.35 39.25 25.7 40.2 26.3 41.15" fill="#a89e64" fill-rule="evenodd" stroke="none"/>
      <path d="M26.65 36.35 L27.55 38.3 26.3 41.15 25.7 40.2 26.45 37.2 26.65 36.35" fill="#5f5a3a" fill-rule="evenodd" stroke="none"/>
      <path d="M21.8 36.55 L22.6 33.3 23.35 30.1 23.15 33.0 23.95 32.8 25.6 30.7 24.0 33.15 22.6 33.3 22.25 36.25 23.4 38.7 25.5 39.6 26.45 37.2 25.7 40.2 23.35 39.25 21.8 36.55" fill="#d0c586" fill-rule="evenodd" stroke="none"/>
      <path d="M26.25 29.7 L26.55 34.85 24.0 33.15 25.6 30.7 26.25 29.7" fill="#696141" fill-rule="evenodd" stroke="none"/>
      <path d="M26.65 36.35 L27.55 38.3 26.3 41.15 25.35 41.55 M25.25 41.6 L22.8 42.55 21.65 41.1 21.8 36.55 22.6 33.3 23.35 30.1 Q24.05 28.5 24.85 28.15 L26.25 29.7 26.55 34.85 26.65 36.35 26.45 37.2 25.7 40.2 26.3 41.15 M25.6 30.7 L26.25 29.7 M24.0 33.15 L22.6 33.3 M25.6 30.7 L24.0 33.15 26.55 34.85 M23.35 39.25 L25.7 40.2 M21.8 36.55 L23.35 39.25" fill="none" stroke="#000000" stroke-linecap="round" stroke-linejoin="round" stroke-opacity="0.3019608" stroke-width="0.30000000000000004"/>
    </g>
    <g id="sprite0" transform="matrix(1.0, 0.0, 0.0, 1.0, 0.15, 0.15)">
      <use height="164.05" transform="matrix(1.0, 0.0, 0.0, 1.0, -3.75, -3.75)" width="80.3" xlink:href="#shape1"/>
    </g>
    <g id="shape1" transform="matrix(1.0, 0.0, 0.0, 1.0, 3.75, 3.75)">
      <path d="M67.1 47.3 Q60.05 84.7 45.15 118.0 L67.1 47.3" fill="#000000" fill-opacity="0.03529412" fill-rule="evenodd" stroke="none"/>
      <path d="M72.8 0.4 Q71.4 24.6 67.1 47.3 60.05 84.7 45.15 118.0 L45.0 118.3 Q39.4 130.85 24.25 156.55 M43.75 69.05 Q26.65 113.65 20.4 117.6 17.55 109.85 28.1 81.45 38.25 56.05 47.2 54.0 48.65 56.75 43.75 69.05 M48.0 24.8 Q34.25 59.6 13.6 90.6 7.15 100.3 0.0 109.6 M66.8 0.0 Q53.65 80.05 13.6 143.35 L12.4 145.2 M67.1 47.3 L45.15 118.0" fill="none" stroke="#000000" stroke-linecap="round" stroke-linejoin="round" stroke-opacity="0.050980393" stroke-width="0.30000000000000004"/>
    </g>
    <g id="shape2" transform="matrix(1.0, 0.0, 0.0, 1.0, -8.5, -25.55)">
      <path d="M14.85 28.85 L14.2 28.45 Q14.25 28.2 14.75 28.1 L14.85 28.2 15.25 28.35 15.65 28.4 15.7 28.4 15.75 28.35 15.85 28.25 15.85 28.2 15.7 28.05 15.95 28.05 16.3 28.2 15.85 28.55 15.55 28.65 14.85 28.85 M17.85 29.45 L16.55 29.8 15.85 29.4 16.3 28.9 Q16.6 28.7 17.05 28.65 L17.85 29.25 17.85 29.45 M13.25 30.6 L14.3 31.1 14.75 31.3 Q15.7 31.45 16.1 30.8 16.3 31.6 14.75 31.6 L11.8 30.1 Q11.9 29.5 12.95 29.3 L13.1 29.25 13.5 29.4 13.7 29.45 13.85 29.5 13.15 29.45 12.85 29.5 12.1 30.05 13.25 30.6 M13.85 29.7 L13.95 29.9 13.75 30.05 13.55 30.05 13.35 30.0 13.2 29.95 13.0 29.8 12.9 29.7 12.85 29.6 Q12.9 29.5 13.1 29.45 L13.45 29.5 13.5 29.5 13.65 29.55 13.85 29.65 13.85 29.7 M11.75 32.35 L12.85 32.95 13.55 33.3 Q14.25 32.95 14.2 32.4 L14.4 32.5 Q14.65 33.3 13.6 33.6 L10.55 32.0 Q10.15 31.15 11.4 30.9 L11.8 31.05 11.3 31.05 Q10.65 31.4 10.8 31.85 L11.7 32.35 11.75 32.35 M12.2 31.75 L12.05 31.85 12.0 31.85 11.9 31.9 11.6 31.85 11.25 31.65 11.15 31.55 11.1 31.45 11.3 31.3 11.75 31.35 12.05 31.5 12.1 31.5 12.2 31.65 12.2 31.75 M11.15 33.8 L11.3 34.05 11.1 34.15 10.95 34.15 10.8 34.15 10.75 34.15 10.7 34.15 10.3 33.95 10.2 33.85 10.2 33.75 10.4 33.6 10.8 33.65 10.85 33.65 11.0 33.7 11.1 33.75 11.15 33.8 M11.2 33.45 L10.4 33.3 Q9.9 33.5 9.9 33.95 L10.55 34.5 10.8 34.65 11.1 34.8 11.7 35.1 11.75 35.1 12.1 35.2 12.2 35.25 12.7 35.4 Q13.5 35.35 13.55 34.65 13.95 35.5 12.65 35.75 L12.0 35.5 11.6 35.25 10.75 34.85 10.7 34.8 10.45 34.65 9.7 34.15 Q9.4 33.35 10.5 33.05 L11.15 33.4 11.2 33.45 M17.75 26.8 Q17.5 26.8 17.4 26.95 L17.4 27.35 17.8 27.7 18.3 27.8 18.6 27.65 18.65 27.5 18.6 27.3 18.25 26.95 17.75 26.8 M18.05 26.65 L19.1 27.35 18.95 27.8 Q18.75 28.05 18.15 28.2 L18.0 28.1 Q16.9 27.5 16.95 27.15 17.0 26.75 17.65 26.5 L18.05 26.65 M19.8 27.95 L20.05 28.2 Q19.9 28.5 19.05 28.55 L18.85 28.5 Q19.2 27.95 19.8 27.95 M21.9 26.7 L21.5 26.55 21.1 26.5 20.95 26.6 20.9 26.65 21.05 26.85 21.4 27.05 21.5 27.05 21.8 27.05 22.0 26.95 21.9 26.7 M20.95 27.4 L20.2 26.75 20.75 26.4 21.2 26.3 22.4 26.85 22.4 26.95 21.85 27.3 21.8 27.35 20.95 27.4 M23.25 27.95 L22.0 27.95 22.2 27.7 Q22.55 27.45 23.2 27.3 L23.55 27.6 23.25 27.95" fill="#ffde4f" fill-rule="evenodd" stroke="none"/>
      <path d="M15.85 29.4 L14.85 28.85 15.55 28.65 15.85 28.55 16.3 28.2 17.05 28.65 Q16.6 28.7 16.3 28.9 L15.85 29.4 M14.5 29.8 Q14.5 30.25 13.4 30.55 L13.25 30.6 12.1 30.05 12.85 29.5 13.15 29.45 13.85 29.5 14.5 29.8 M14.3 31.1 Q14.45 30.5 15.55 30.4 L16.1 30.8 Q15.7 31.45 14.75 31.3 L14.3 31.1 M13.85 29.7 L13.85 29.65 13.65 29.55 13.5 29.5 13.45 29.5 13.1 29.45 Q12.9 29.5 12.85 29.6 L12.9 29.7 13.0 29.8 13.2 29.95 13.35 30.0 13.55 30.05 13.75 30.05 13.95 29.9 13.85 29.7 M12.9 31.6 Q12.85 32.1 11.8 32.35 L11.75 32.35 11.7 32.35 10.8 31.85 Q10.65 31.4 11.3 31.05 L11.8 31.05 12.15 31.2 12.4 31.3 12.9 31.6 M12.85 32.95 Q12.95 32.5 13.4 32.3 L13.85 32.15 14.2 32.4 Q14.25 32.95 13.55 33.3 L12.85 32.95 M12.2 31.75 L12.2 31.65 12.1 31.5 12.05 31.5 11.75 31.35 11.3 31.3 11.1 31.45 11.15 31.55 11.25 31.65 11.6 31.85 11.9 31.9 12.0 31.85 12.05 31.85 12.2 31.75 M11.15 33.8 L11.1 33.75 11.0 33.7 10.85 33.65 10.8 33.65 10.4 33.6 10.2 33.75 10.2 33.85 10.3 33.95 10.7 34.15 10.75 34.15 10.8 34.15 10.95 34.15 11.1 34.15 11.3 34.05 11.15 33.8 M11.2 33.45 L11.55 33.6 Q11.6 34.35 11.1 34.8 L10.8 34.65 10.55 34.5 9.9 33.95 Q9.9 33.5 10.4 33.3 L11.2 33.45 M12.65 34.2 L13.55 34.65 Q13.5 35.35 12.7 35.4 L12.2 35.25 Q12.1 34.6 12.65 34.2 M13.25 37.3 Q13.45 38.0 12.3 38.3 L11.3 37.95 10.6 37.65 10.25 37.5 9.75 37.2 9.3 36.95 9.25 36.7 Q9.25 36.35 9.6 36.1 L10.1 35.8 10.75 36.1 10.05 36.1 Q9.45 36.35 9.55 36.8 L9.8 37.0 10.35 37.35 10.6 37.5 11.05 37.7 11.35 37.8 11.95 37.95 12.25 38.05 Q13.05 37.85 13.25 37.3 M10.7 36.35 L10.75 36.35 10.85 36.5 10.85 36.6 10.75 36.7 10.65 36.7 10.25 36.7 10.0 36.6 9.9 36.5 9.8 36.4 9.75 36.3 9.95 36.15 10.15 36.15 10.4 36.2 10.65 36.3 10.7 36.35 M13.4 39.65 Q13.6 40.3 12.55 40.6 L10.75 39.9 10.45 39.75 9.85 39.4 Q9.6 38.75 10.55 38.4 L10.6 38.35 10.55 38.4 10.45 38.55 10.55 38.55 10.8 38.55 11.1 38.7 11.15 38.7 11.15 38.75 11.3 38.95 11.1 39.1 11.0 39.1 10.7 39.05 10.5 39.0 10.3 38.9 10.3 38.85 10.25 39.35 11.4 39.8 12.4 40.2 12.55 40.25 Q13.15 40.2 13.4 39.65 M19.1 27.35 L19.25 27.45 19.8 27.95 Q19.2 27.95 18.85 28.5 L18.15 28.2 Q18.75 28.05 18.95 27.8 L19.1 27.35 M22.0 27.95 L21.4 27.65 20.95 27.4 21.8 27.35 21.85 27.3 22.4 26.95 22.4 26.85 22.5 26.9 23.2 27.3 Q22.55 27.45 22.2 27.7 L22.0 27.95" fill="#f4a33c" fill-rule="evenodd" stroke="none"/>
      <path d="M14.5 29.8 L14.8 29.95 15.55 30.4 Q14.45 30.5 14.3 31.1 L13.25 30.6 13.4 30.55 Q14.5 30.25 14.5 29.8 M12.9 31.6 L13.05 31.7 13.55 32.0 13.85 32.15 13.4 32.3 Q12.95 32.5 12.85 32.95 L11.75 32.35 11.8 32.35 Q12.85 32.1 12.9 31.6 M11.1 34.8 Q11.6 34.35 11.55 33.6 L12.65 34.2 Q12.1 34.6 12.2 35.25 L12.1 35.2 11.75 35.1 11.7 35.1 11.1 34.8 M13.25 37.3 Q13.05 37.85 12.25 38.05 L11.95 37.95 Q11.6 37.25 12.0 36.65 L13.15 37.15 13.25 37.3 M11.05 37.7 L10.6 37.5 10.35 37.35 9.8 37.0 9.55 36.8 Q9.45 36.35 10.05 36.1 L10.75 36.1 10.85 36.15 10.95 36.35 Q11.25 37.05 11.05 37.7 M10.7 36.35 L10.65 36.3 10.4 36.2 10.15 36.15 9.95 36.15 9.75 36.3 9.8 36.4 9.9 36.5 10.0 36.6 10.25 36.7 10.65 36.7 10.75 36.7 10.85 36.6 10.85 36.5 10.75 36.35 10.7 36.35 M13.4 39.65 Q13.15 40.2 12.55 40.25 L12.4 40.2 Q12.05 39.5 12.3 39.1 L13.35 39.55 13.4 39.65 M11.4 39.8 L10.25 39.35 10.3 38.85 10.3 38.9 10.5 39.0 10.7 39.05 11.0 39.1 11.1 39.1 11.3 38.95 11.15 38.75 11.15 38.7 11.1 38.7 10.8 38.55 10.55 38.55 10.45 38.55 10.55 38.4 10.6 38.35 11.3 38.65 Q11.7 39.2 11.4 39.8" fill="#cc6b22" fill-rule="evenodd" stroke="none"/>
      <path d="M15.95 28.05 L15.7 28.05 15.85 28.2 15.85 28.25 15.75 28.35 15.7 28.4 15.65 28.4 15.25 28.35 14.85 28.2 14.75 28.1 Q14.25 28.2 14.2 28.45 L14.85 28.85 15.85 29.4 16.55 29.8 17.85 29.45 17.45 29.9 16.35 30.05 13.65 28.55 14.1 28.05 14.4 27.9 14.9 27.75 15.1 27.7 15.95 28.05 M17.75 26.8 L18.25 26.95 18.6 27.3 18.65 27.5 18.6 27.65 18.3 27.8 17.8 27.7 17.4 27.35 17.4 26.95 Q17.5 26.8 17.75 26.8 M18.05 26.65 L20.4 28.05 20.4 28.3 Q20.3 28.7 19.6 28.8 L18.9 28.85 16.25 27.35 Q16.3 27.05 16.65 26.85 17.0 26.6 17.65 26.5 17.0 26.75 16.95 27.15 16.9 27.5 18.0 28.1 L18.15 28.2 18.85 28.5 19.05 28.55 Q19.9 28.5 20.05 28.2 L19.8 27.95 19.25 27.45 19.1 27.35 18.05 26.65 M21.9 26.7 L22.0 26.95 21.8 27.05 21.5 27.05 21.4 27.05 21.05 26.85 20.9 26.65 20.95 26.6 21.1 26.5 21.5 26.55 21.9 26.7 M21.2 26.3 L20.75 26.4 20.2 26.75 20.95 27.4 21.4 27.65 22.0 27.95 23.25 27.95 22.65 28.05 21.95 28.05 19.6 26.85 Q19.85 26.5 20.7 26.35 L21.2 26.3" fill="#ffff98" fill-rule="evenodd" stroke="none"/>
      <path d="M11.95 37.95 L11.35 37.8 11.05 37.7 Q11.25 37.05 10.95 36.35 L10.85 36.15 12.0 36.65 Q11.6 37.25 11.95 37.95 M12.4 40.2 L11.4 39.8 Q11.7 39.2 11.3 38.65 L12.3 39.1 Q12.05 39.5 12.4 40.2" fill="#a34100" fill-rule="evenodd" stroke="none"/>
      <path d="M15.95 28.05 L15.1 27.7 14.9 27.75 14.4 27.9 14.1 28.05 13.65 28.55 16.35 30.05 17.45 29.9 17.85 29.45 17.85 29.25 17.05 28.65 16.3 28.2 15.95 28.05 M15.55 30.4 L14.8 29.95 14.5 29.8 13.85 29.5 13.7 29.45 13.5 29.4 13.1 29.25 12.95 29.3 Q11.9 29.5 11.8 30.1 L14.75 31.6 Q16.3 31.6 16.1 30.8 L15.55 30.4 M13.85 32.15 L13.55 32.0 13.05 31.7 12.9 31.6 12.4 31.3 12.15 31.2 11.8 31.05 11.4 30.9 Q10.15 31.15 10.55 32.0 L13.6 33.6 Q14.65 33.3 14.4 32.5 L14.2 32.4 13.85 32.15 M11.55 33.6 L11.2 33.45 11.15 33.4 10.5 33.05 Q9.4 33.35 9.7 34.15 L10.45 34.65 10.7 34.8 10.75 34.85 11.6 35.25 12.0 35.5 12.65 35.75 Q13.95 35.5 13.55 34.65 L12.65 34.2 11.55 33.6 M10.75 36.1 L10.1 35.8 9.6 36.1 Q9.25 36.35 9.25 36.7 L9.3 36.95 9.75 37.2 10.25 37.5 10.6 37.65 11.3 37.95 12.3 38.3 Q13.45 38.0 13.25 37.3 L13.15 37.15 12.0 36.65 10.85 36.15 10.75 36.1 M10.6 38.35 L10.55 38.4 Q9.6 38.75 9.85 39.4 L10.45 39.75 10.75 39.9 12.55 40.6 Q13.6 40.3 13.4 39.65 L13.35 39.55 12.3 39.1 11.3 38.65 10.6 38.35 M17.65 26.5 Q17.0 26.6 16.65 26.85 16.3 27.05 16.25 27.35 L18.9 28.85 19.6 28.8 Q20.3 28.7 20.4 28.3 L20.4 28.05 18.05 26.65 17.65 26.5 M21.2 26.3 L20.7 26.35 Q19.85 26.5 19.6 26.85 L21.95 28.05 22.65 28.05 23.25 27.95 23.55 27.6 23.2 27.3 22.5 26.9 22.4 26.85 21.2 26.3" fill="none" stroke="#000000" stroke-linecap="round" stroke-linejoin="round" stroke-opacity="0.3019608" stroke-width="0.30000000000000004"/>
    </g>
    <g id="sprite1" transform="matrix(1.0, 0.0, 0.0, 1.0, 0.0, 4.6)">
      <use height="26.6" transform="matrix(1.0, 0.0, 0.0, 1.0, 0.0, -4.6)" width="79.2" xlink:href="#shape3"/>
    </g>
    <g id="shape3" transform="matrix(1.0, 0.0, 0.0, 1.0, 0.0, 4.6)">
      <path d="M44.0 -4.6 L51.6 -4.6 70.25 6.1 79.2 18.7 64.0 11.85 62.5 14.6 62.75 14.9 54.75 8.35 44.0 -4.6 M37.25 0.25 L40.75 3.5 34.75 5.75 27.25 11.75 19.0 22.0 5.0 22.0 0.0 13.5 Q10.65 3.15 23.25 0.0 L26.5 3.1 37.25 0.25 M9.75 17.0 L16.75 17.0 20.75 10.5 14.8 8.25 8.75 12.5 9.75 17.0" fill="#49432e" fill-opacity="0.49019608" fill-rule="evenodd" stroke="none"/>
    </g>
    <g id="shape4" transform="matrix(1.0, 0.0, 0.0, 1.0, -4.8, -3.65)">
      <path d="M7.3 25.55 L7.4 26.75 8.75 27.6 7.65 27.3 6.0 25.75 6.8 24.75 10.8 25.45 10.95 25.55 11.35 25.9 12.0 26.95 11.95 27.6 9.4 27.8 9.1 27.7 10.45 26.8 9.15 25.6 7.85 25.55 7.3 25.55 M5.75 27.15 L5.85 25.95 7.3 27.55 7.75 29.1 5.75 27.15 M9.45 28.05 L14.8 27.3 14.15 27.4 13.8 27.15 12.95 26.35 12.6 25.5 13.8 25.7 14.25 26.1 15.0 26.85 15.2 27.05 15.4 27.25 15.3 27.75 15.2 28.25 15.15 27.45 9.95 28.25 9.85 29.55 9.45 28.05 M17.75 26.15 L17.05 26.05 16.85 26.0 15.65 25.15 15.6 25.1 16.2 25.05 Q18.0 25.6 17.75 26.15 M15.2 26.05 L15.4 26.0 15.5 26.0 15.7 26.0 16.25 26.5 16.8 27.05 15.55 26.95 14.6 26.1 15.2 26.05" fill="#ffde4f" fill-rule="evenodd" stroke="none"/>
      <path d="M9.15 25.6 L10.45 26.8 9.45 27.2 8.55 26.3 9.15 25.6 M7.75 29.1 L7.75 27.65 9.45 28.05 9.85 29.55 9.85 29.6 7.75 29.1 M16.35 26.6 L16.8 26.2 17.35 26.25 Q17.5 26.55 17.25 27.1 L17.2 27.2 17.15 27.3 16.85 27.6 16.55 27.55 16.3 28.1 15.55 27.85 15.7 27.05 16.8 27.1 16.55 27.55 16.8 27.1 16.8 27.05 16.25 26.5 16.35 26.6 M18.25 26.35 L18.85 26.4 18.25 27.7 17.65 27.65 17.75 27.2 18.25 26.35 M18.85 26.35 L17.75 26.15 Q18.0 25.6 16.2 25.05 L17.2 24.95 18.85 26.35 M14.25 26.1 L14.6 26.1 15.55 26.95 15.0 26.85 14.25 26.1" fill="#f4a33c" fill-rule="evenodd" stroke="none"/>
      <path d="M7.85 25.55 L9.15 25.6 8.55 26.3 7.9 26.2 7.75 25.9 7.75 25.8 7.85 25.55 M11.95 27.6 L12.0 26.95 Q12.0 26.25 11.6 25.75 L11.2 25.4 11.05 25.25 12.6 25.5 12.95 26.35 13.8 27.15 14.15 27.4 13.35 27.45 11.95 27.6 M15.4 26.0 Q15.6 25.3 15.75 25.4 L16.65 26.1 16.35 26.6 16.25 26.5 15.7 26.0 15.5 26.0 15.4 26.0 M17.25 27.1 L17.45 26.75 17.55 26.25 18.25 26.35 17.75 27.2 17.65 27.65 16.85 27.6 17.15 27.3 17.2 27.2 17.25 27.1 M9.85 29.6 L9.85 29.55 9.95 28.25 15.15 27.45 15.2 28.25 9.85 29.6" fill="#cc6b22" fill-rule="evenodd" stroke="none"/>
      <path d="M12.0 26.95 L11.35 25.9 10.95 25.55 10.8 25.45 6.8 24.75 6.0 25.75 7.65 27.3 8.75 27.6 7.4 26.75 7.3 25.55 7.45 26.15 7.6 26.75 8.9 27.45 9.45 27.2 10.45 26.8 9.1 27.7 9.4 27.8 11.95 27.6 13.35 27.45 14.15 27.4 14.8 27.3 9.45 28.05 7.75 27.65 7.75 29.1 7.3 27.55 5.85 25.95 5.75 27.15 5.65 27.05 5.55 25.6 6.85 24.6 11.05 25.25 11.2 25.4 11.6 25.75 Q12.0 26.25 12.0 26.95 M15.6 25.1 L15.65 25.15 16.85 26.0 17.05 26.05 17.75 26.15 18.85 26.35 18.85 26.4 18.25 26.35 17.55 26.25 17.45 26.75 17.25 27.1 Q17.5 26.55 17.35 26.25 L16.8 26.2 16.35 26.6 16.65 26.1 15.75 25.4 Q15.6 25.3 15.4 26.0 L15.2 26.05 15.6 25.1 M16.8 27.1 L15.7 27.05 15.2 27.05 15.0 26.85 15.55 26.95 16.8 27.05 16.8 27.1" fill="#ffff98" fill-rule="evenodd" stroke="none"/>
      <path d="M7.3 25.55 L7.85 25.55 7.75 25.8 7.75 25.9 7.9 26.2 7.45 26.15 7.3 25.55 M15.7 27.05 L15.55 27.85 15.3 27.75 15.4 27.25 15.2 27.05 15.7 27.05" fill="#984d1b" fill-rule="evenodd" stroke="none"/>
      <path d="M11.05 25.25 L6.85 24.6 5.55 25.6 5.65 27.05 5.75 27.15 7.75 29.1 9.85 29.6 15.2 28.25 15.3 27.75 15.55 27.85 16.3 28.1 16.55 27.55 16.8 27.1 16.8 27.05 16.25 26.5 15.7 26.0 15.5 26.0 15.4 26.0 15.2 26.05 15.6 25.1 16.2 25.05 17.2 24.95 18.85 26.35 18.85 26.4 18.25 27.7 17.65 27.65 16.85 27.6 16.55 27.55 M7.9 26.2 L7.45 26.15 7.6 26.75 8.9 27.45 9.45 27.2 8.55 26.3 7.9 26.2 M9.45 27.2 L10.45 26.8 M12.6 25.5 L13.8 25.7 14.25 26.1 14.6 26.1 15.2 26.05 M15.2 27.05 L15.4 27.25 15.3 27.75 M15.0 26.85 L15.2 27.05 M15.0 26.85 L14.25 26.1 M11.05 25.25 L12.6 25.5 M7.3 25.55 L7.45 26.15 M9.85 29.55 L9.85 29.6" fill="none" stroke="#000000" stroke-linecap="round" stroke-linejoin="round" stroke-opacity="0.3019608" stroke-width="0.30000000000000004"/>
      <path d="M28.9 32.45 L28.0 32.35 23.1 24.45 24.1 24.5 25.1 24.55 27.55 25.75 27.6 25.8 30.9 28.35 31.15 31.65 28.9 32.45 M20.85 12.05 L22.45 12.0 23.4 13.0 21.25 12.8 19.9 14.25 20.85 12.05" fill="#5f5a3a" fill-rule="evenodd" stroke="none"/>
      <path d="M32.15 5.5 L32.5 6.05 36.35 12.85 34.1 17.35 31.6 15.3 27.65 12.05 25.15 7.4 29.25 5.85 32.15 5.5 M18.75 24.9 L17.3 22.1 17.2 17.5 17.7 21.9 18.45 22.65 19.25 19.95 18.75 24.9 M38.45 11.0 L38.8 10.55 40.55 9.3 43.15 11.65 44.85 14.25 42.05 14.8 39.25 14.8 38.45 11.0 M39.55 16.55 L40.9 23.15 44.9 21.0 36.1 26.75 35.3 26.95 32.35 27.65 34.45 26.8 33.8 26.25 32.6 26.6 30.75 26.8 28.7 25.55 30.15 26.1 31.75 26.3 35.9 25.1 36.55 24.1 36.3 25.5 35.05 25.9 35.1 26.6 36.0 26.2 40.15 23.55 39.55 16.55 M21.75 22.3 L19.8 18.25 19.3 13.45 20.6 9.9 24.6 7.75 27.0 11.9 28.2 16.25 28.25 16.4 28.35 17.35 22.95 11.45 20.85 12.05 19.9 14.25 20.45 18.55 25.1 23.95 24.1 24.5 23.1 24.45 22.05 22.8 22.0 22.7 21.75 22.3" fill="#bfb072" fill-rule="evenodd" stroke="none"/>
      <path d="M32.5 6.05 L32.15 5.5 34.55 5.55 35.25 5.65 35.4 5.7 Q37.75 6.8 39.65 8.0 L40.55 8.6 36.6 12.3 32.5 6.05 M31.6 15.3 L34.1 17.35 31.85 21.85 23.4 13.0 22.45 12.0 20.85 12.05 22.95 11.45 28.35 17.35 28.25 16.4 28.2 16.25 27.75 13.0 31.6 15.3 M42.05 14.8 L46.0 14.8 46.95 19.7 44.9 21.0 40.9 23.15 39.55 16.55 39.25 14.8 42.05 14.8 M35.45 30.55 L35.35 30.6 35.3 26.95 36.1 26.75 35.45 30.55 M28.7 25.55 L30.75 26.8 32.6 26.6 33.8 26.25 34.45 26.8 32.35 27.65 31.75 27.8 27.6 25.8 27.55 25.75 25.1 24.55 26.45 24.65 27.8 25.2 28.3 25.4 28.7 25.55 M22.0 22.7 L22.05 22.8 25.9 29.95 18.75 24.9 19.25 19.95 19.35 18.5 21.75 22.3 22.0 22.7" fill="#a89e64" fill-rule="evenodd" stroke="none"/>
      <path d="M46.95 19.7 L35.45 30.55 36.1 26.75 44.9 21.0 46.95 19.7" fill="#49432e" fill-rule="evenodd" stroke="none"/>
      <path d="M30.15 26.1 L28.7 25.55 28.3 25.4 28.2 23.85 27.15 23.05 26.3 22.1 28.75 23.4 28.35 23.85 29.4 23.6 30.05 25.4 30.15 26.1 M22.85 18.45 L24.1 19.2 24.1 20.45 23.05 20.8 21.55 19.1 22.15 18.4 22.75 18.45 22.85 18.45 M28.35 23.85 L28.2 23.85 28.35 23.85" fill="#8f3600" fill-rule="evenodd" stroke="none"/>
      <path d="M23.05 20.8 L24.1 20.45 24.1 19.2 22.85 18.45 24.65 18.55 24.5 21.0 23.25 21.0 23.05 20.8 M26.3 22.1 L24.85 20.6 24.75 19.55 26.2 20.05 29.15 23.0 28.75 23.4 26.3 22.1 M29.4 23.6 L29.85 23.5 30.05 25.4 29.4 23.6 M27.8 25.2 L27.8 24.25 25.6 21.85 27.15 23.05 28.2 23.85 28.3 25.4 27.8 25.2" fill="#c13a02" fill-rule="evenodd" stroke="none"/>
      <path d="M23.25 21.0 L24.5 21.0 25.6 21.85 27.8 24.25 27.8 25.2 26.45 24.65 23.25 21.0" fill="#872801" fill-rule="evenodd" stroke="none"/>
      <path d="M29.25 5.85 L25.15 7.4 27.65 12.05 31.6 15.3 27.75 13.0 28.2 16.25 27.0 11.9 24.6 7.75 20.6 9.9 19.3 13.45 19.8 18.25 21.75 22.3 19.35 18.5 18.7 13.6 18.0 12.1 Q19.2 10.45 20.1 9.9 24.65 6.75 29.25 5.85 M34.1 17.35 L36.35 12.85 32.5 6.05 36.6 12.3 40.55 8.6 45.95 14.65 46.0 14.8 42.05 14.8 44.85 14.25 43.15 11.65 40.55 9.3 38.8 10.55 38.45 11.0 37.0 12.7 33.0 21.25 35.65 23.65 31.85 21.85 34.1 17.35 M31.5 32.5 L30.15 32.5 28.9 32.45 31.15 31.65 30.9 28.35 27.6 25.8 31.75 27.8 31.5 32.5 M28.0 32.35 L27.55 32.3 18.75 24.9 25.9 29.95 22.05 22.8 23.1 24.45 28.0 32.35 M17.3 22.1 L16.45 19.3 17.15 15.2 17.2 17.5 17.3 22.1 M36.35 12.85 L36.6 12.3 36.35 12.85 M20.1 9.9 L18.7 13.6 20.1 9.9 M21.55 19.1 L23.05 20.8 23.25 21.0 26.45 24.65 25.1 24.55 24.1 24.5 25.1 23.95 20.45 18.55 19.9 14.25 20.9 18.35 21.55 19.1" fill="#d0c586" fill-rule="evenodd" stroke="none"/>
      <path d="M35.35 30.6 Q33.35 31.55 31.5 32.5 L31.75 27.8 32.35 27.65 35.3 26.95 35.35 30.6 M17.15 15.2 L18.0 12.1 18.7 13.6 19.35 18.5 19.25 19.95 18.45 22.65 17.7 21.9 17.2 17.5 17.15 15.2 M39.25 14.8 L39.55 16.55 40.15 23.55 36.0 26.2 35.1 26.6 35.05 25.9 36.3 25.5 36.55 24.1 35.65 23.65 33.0 21.25 37.0 12.7 38.45 11.0 39.25 14.8" fill="#978957" fill-rule="evenodd" stroke="none"/>
      <path d="M24.5 21.0 L24.65 18.55 26.45 19.8 29.35 22.75 29.85 23.5 29.4 23.6 28.35 23.85 28.75 23.4 29.15 23.0 26.2 20.05 24.75 19.55 24.85 20.6 26.3 22.1 27.15 23.05 25.6 21.85 24.5 21.0" fill="#fb5915" fill-rule="evenodd" stroke="none"/>
      <path d="M35.65 23.65 L36.55 24.1 35.9 25.1 31.75 26.3 30.15 26.1 30.05 25.4 29.85 23.5 29.35 22.75 26.45 19.8 24.65 18.55 22.85 18.45 22.75 18.45 22.15 18.4 21.55 19.1 20.9 18.35 19.9 14.25 21.25 12.8 23.4 13.0 31.85 21.85 35.65 23.65" fill="#342e21" fill-rule="evenodd" stroke="none"/>
      <path d="M32.5 6.05 L32.15 5.5 29.25 5.85 Q24.65 6.75 20.1 9.9 19.2 10.45 18.0 12.1 L18.7 13.6 20.1 9.9 M34.1 17.35 L36.35 12.85 36.6 12.3 40.55 8.6 39.65 8.0 Q37.75 6.8 35.4 5.7 L35.25 5.65 34.55 5.55 32.15 5.5 M32.5 6.05 L36.6 12.3 M46.0 14.8 L45.95 14.65 40.55 8.6 M46.0 14.8 L46.95 19.7 35.45 30.55 35.35 30.6 Q33.35 31.55 31.5 32.5 L30.15 32.5 28.9 32.45 28.0 32.35 27.55 32.3 18.75 24.9 17.3 22.1 16.45 19.3 17.15 15.2 18.0 12.1 M44.9 21.0 L46.95 19.7 M35.65 23.65 L36.55 24.1 35.9 25.1 31.75 26.3 30.15 26.1 28.7 25.55 28.3 25.4 27.8 25.2 26.45 24.65 23.25 21.0 24.5 21.0 24.65 18.55 22.85 18.45 M32.35 27.65 L35.3 26.95 36.1 26.75 44.9 21.0 M20.85 12.05 L22.45 12.0 23.4 13.0 31.85 21.85 34.1 17.35 M17.2 17.5 L17.15 15.2 M19.9 14.25 L21.25 12.8 23.4 13.0 M19.9 14.25 L20.85 12.05 M22.75 18.45 L22.15 18.4 21.55 19.1 23.05 20.8 23.25 21.0 M21.55 19.1 L20.9 18.35 19.9 14.25 M24.1 24.5 L25.1 24.55 26.45 24.65 M22.05 22.8 L23.1 24.45 24.1 24.5 M21.75 22.3 L22.0 22.7 M19.25 19.95 L19.35 18.5 18.7 13.6 M19.35 18.5 L21.75 22.3 M18.75 24.9 L19.25 19.95 M28.35 23.85 L29.4 23.6 29.85 23.5 29.35 22.75 26.45 19.8 24.65 18.55 M28.2 23.85 L28.35 23.85 M25.6 21.85 L24.5 21.0 M27.15 23.05 L28.2 23.85 28.3 25.4 M27.6 25.8 L31.75 27.8 32.35 27.65 M25.1 24.55 L27.55 25.75 M30.05 25.4 L29.85 23.5 M30.05 25.4 L30.15 26.1 M25.6 21.85 L27.15 23.05 M17.3 22.1 L17.2 17.5 M31.85 21.85 L35.65 23.65 M35.45 30.55 L36.1 26.75 M28.0 32.35 L23.1 24.45 M31.5 32.5 L31.75 27.8" fill="none" stroke="#000000" stroke-linecap="round" stroke-linejoin="round" stroke-opacity="0.3019608" stroke-width="0.30000000000000004"/>
      <path d="M25.8 7.1 L25.8 7.05 25.85 7.05 25.8 7.1" fill="#141516" fill-rule="evenodd" stroke="none"/>
      <path d="M25.55 6.75 L25.8 7.05 25.85 7.0 Q25.8 6.85 25.9 6.65 L26.35 5.9 Q26.95 5.25 28.3 4.85 L30.95 4.8 31.9 5.15 Q32.15 6.0 29.25 7.15 L29.25 7.2 29.05 7.25 26.7 7.35 25.85 7.05 25.8 7.05 25.8 7.1 Q25.9 7.6 26.85 7.75 L29.2 7.55 Q30.5 7.25 31.4 6.65 32.2 6.2 32.25 5.75 L32.3 5.75 32.6 5.35 32.7 5.6 Q32.75 6.2 31.75 6.85 30.75 7.55 29.25 7.9 L26.65 8.05 Q25.55 7.85 25.5 7.25 L25.55 6.75 M43.15 14.8 Q43.85 15.75 43.7 17.0 43.55 18.5 42.35 19.6 41.2 20.65 39.65 20.65 38.15 20.65 37.15 19.55 36.2 18.45 36.3 16.95 L36.35 16.8 36.65 17.15 36.9 17.45 36.9 16.95 36.95 16.8 Q37.1 15.6 38.0 14.75 39.0 13.85 40.3 13.85 41.6 13.9 42.4 14.8 L42.55 14.95 Q42.5 17.55 39.15 18.25 L39.0 18.25 Q37.75 18.2 36.9 17.45 36.95 18.4 37.6 19.15 38.45 20.05 39.7 20.05 41.0 20.05 42.0 19.15 43.0 18.25 43.1 17.0 43.2 16.25 42.95 15.65 L43.15 14.8" fill="#2d2f31" fill-rule="evenodd" stroke="none"/>
      <path d="M29.25 7.2 Q30.75 6.85 31.75 6.15 L32.25 5.75 Q32.2 6.2 31.4 6.65 30.5 7.25 29.2 7.55 L26.85 7.75 Q25.9 7.6 25.8 7.1 L25.85 7.05 26.7 7.35 29.05 7.25 29.25 7.2 M39.15 18.25 Q40.65 18.3 41.85 17.2 42.6 16.55 42.95 15.65 43.2 16.25 43.1 17.0 43.0 18.25 42.0 19.15 41.0 20.05 39.7 20.05 38.45 20.05 37.6 19.15 36.95 18.4 36.9 17.45 37.75 18.2 39.0 18.25 L39.15 18.25" fill="#000000" fill-rule="evenodd" stroke="none"/>
      <path d="M36.35 16.8 Q36.5 15.35 37.65 14.35 38.8 13.3 40.35 13.3 41.9 13.3 42.85 14.4 L43.15 14.8 42.95 15.65 Q42.6 16.55 41.85 17.2 40.65 18.3 39.15 18.25 42.5 17.55 42.55 14.95 L42.4 14.8 Q41.6 13.9 40.3 13.85 39.0 13.85 38.0 14.75 37.1 15.6 36.95 16.8 L36.9 16.95 36.9 17.45 36.65 17.15 36.35 16.8" fill="#4a4d4f" fill-rule="evenodd" stroke="none"/>
      <path d="M25.55 6.75 L26.05 5.85 Q26.7 5.05 28.2 4.65 L31.2 4.6 32.6 5.35 32.3 5.75 32.25 5.75 31.75 6.15 Q30.75 6.85 29.25 7.2 L29.25 7.15 Q32.15 6.0 31.9 5.15 L30.95 4.8 28.3 4.85 Q26.95 5.25 26.35 5.9 L25.9 6.65 Q25.8 6.85 25.85 7.0 L25.8 7.05 25.55 6.75" fill="#3e4142" fill-rule="evenodd" stroke="none"/>
      <path d="M32.6 5.35 L31.2 4.6 28.2 4.65 Q26.7 5.05 26.05 5.85 L25.55 6.75 25.5 7.25 Q25.55 7.85 26.65 8.05 L29.25 7.9 Q30.75 7.55 31.75 6.85 32.75 6.2 32.7 5.6 L32.6 5.35 M36.35 16.8 Q36.5 15.35 37.65 14.35 38.8 13.3 40.35 13.3 41.9 13.3 42.85 14.4 L43.15 14.8 Q43.85 15.75 43.7 17.0 43.55 18.5 42.35 19.6 41.2 20.65 39.65 20.65 38.15 20.65 37.15 19.55 36.2 18.45 36.3 16.95 L36.35 16.8" fill="none" stroke="#000000" stroke-linecap="round" stroke-linejoin="round" stroke-opacity="0.3019608" stroke-width="0.30000000000000004"/>
    </g>
    <g id="sprite3" transform="matrix(1.0, 0.0, 0.0, 1.0, 0.0, 0.0)">
      <use height="26.7" transform="matrix(0.0042, -1.3515, 1.3935, 0.02, 22.09, 56.0263)" width="26.7" xlink:href="#sprite4"/>
      <use height="26.7" transform="matrix(0.0095, -3.0486, 0.372, 0.0053, 36.507, 81.3775)" width="26.7" xlink:href="#sprite4"/>
      <use height="26.7" transform="matrix(3.0486, 0.0095, -0.0053, 0.372, 0.1225, 35.107)" width="26.7" xlink:href="#sprite4"/>
    </g>
    <g id="sprite4" transform="matrix(1.0, 0.0, 0.0, 1.0, 13.35, 13.35)">
      <use height="26.7" transform="matrix(1.0, 0.0, 0.0, 1.0, -13.35, -13.35)" width="26.7" xlink:href="#shape5"/>
    </g>
    <g id="shape5" transform="matrix(1.0, 0.0, 0.0, 1.0, 13.35, 13.35)">
      <path d="M9.3 -9.85 Q13.35 -5.8 13.35 0.0 13.35 5.8 9.3 9.3 5.8 13.35 0.0 13.35 -5.8 13.35 -9.85 9.3 -13.35 5.8 -13.35 0.0 -13.35 -5.8 -9.85 -9.85 -5.8 -13.35 0.0 -13.35 5.8 -13.35 9.3 -9.85" fill="url(#gradient0)" fill-rule="evenodd" stroke="none"/>
    </g>
    <radialGradient cx="0" cy="0" gradientTransform="matrix(0.0213, 0.0, 0.0, 0.0213, 0.0, 0.0)" gradientUnits="userSpaceOnUse" id="gradient0" r="819.2" spreadMethod="pad">
      <stop offset="0.19607843137254902" stop-color="#fee3bc" stop-opacity="0.5372549"/>
      <stop offset="0.5019607843137255" stop-color="#fee3bc" stop-opacity="0.08627451"/>
      <stop offset="0.7607843137254902" stop-color="#ffe3bd" stop-opacity="0.0"/>
    </radialGradient>
  </defs>
</svg>
