<?xml version="1.0" encoding="UTF-8" standalone="no"?>
<svg xmlns:xlink="http://www.w3.org/1999/xlink" height="52.0px" width="52.0px" xmlns="http://www.w3.org/2000/svg">
  <g transform="matrix(1.0, 0.0, 0.0, 1.0, 0.0, 0.0)">
    <use height="106.0" transform="matrix(1.0, 0.0, 0.0, 1.0, -27.0, -27.0)" width="106.0" xlink:href="#shape0"/>
    <use height="0.0" transform="matrix(0.1428, 0.0, -0.0134, 0.1746, 36.25, 22.3)" width="0.0" xlink:href="#sprite0"/>
    <use height="0.0" transform="matrix(0.0657, 0.0096, -0.0019, 0.0246, 39.3, 7.4)" width="0.0" xlink:href="#sprite0"/>
    <use height="0.0" transform="matrix(0.0595, -0.007, 0.0136, 0.0725, 24.1, 42.45)" width="0.0" xlink:href="#sprite0"/>
    <use height="0.0" transform="matrix(0.0247, 0.0195, -0.0389, 0.0568, 7.95, 32.0)" width="0.0" xlink:href="#sprite0"/>
    <use height="81.5" transform="matrix(0.1478, 0.0, 0.0, 0.147, 32.05, 14.65)" width="81.5" xlink:href="#sprite1"/>
    <use height="81.5" transform="matrix(0.1012, 0.0, 0.0, 0.1006, 32.05, 3.25)" width="81.5" xlink:href="#sprite1"/>
  </g>
  <defs>
    <g id="shape0" transform="matrix(1.0, 0.0, 0.0, 1.0, 27.0, 27.0)">
      <path d="M52.0 0.0 L52.0 52.0 0.0 52.0 0.0 0.0 52.0 0.0" fill="#795fa9" fill-opacity="0.0" fill-rule="evenodd" stroke="none"/>
      <path d="M17.7 15.05 L16.8 16.8 Q16.55 17.6 16.6 18.3 L16.9 19.1 Q15.85 21.1 15.25 23.4 14.8 25.25 14.65 27.05 L16.95 32.4 21.7 37.2 18.8 37.25 Q17.25 37.55 15.5 38.95 L14.65 40.95 15.4 43.85 16.65 45.95 19.3 48.4 22.65 48.9 Q26.45 49.3 30.0 45.9 L27.7 45.9 30.95 43.8 29.4 41.25 36.3 42.6 37.45 41.9 Q41.7 39.1 43.9 34.65 L44.4 33.6 45.5 30.35 45.7 29.4 46.75 29.15 Q48.1 28.5 48.2 26.2 47.9 24.55 47.25 23.45 49.1 22.85 48.6 19.3 48.15 17.55 46.75 16.45 L46.5 16.25 Q45.85 15.75 44.95 15.4 L43.85 12.9 44.1 12.55 44.65 11.4 44.7 9.9 44.4 9.0 43.75 7.95 43.65 7.8 Q42.3 6.25 40.0 5.65 L39.75 5.55 37.55 5.35 Q36.55 5.4 35.65 5.8 L34.65 6.3 Q33.5 7.05 33.15 8.35 L33.1 8.5 32.7 8.55 32.55 8.6 Q28.75 9.15 25.35 10.9 24.95 10.55 24.15 10.5 22.7 10.5 20.85 11.8 18.95 13.15 17.7 15.05 M13.4 25.75 L13.75 32.05 11.55 37.0 7.75 37.95 5.4 37.1 3.8 36.2 3.3 35.85 Q3.35 34.7 3.85 33.7 7.0 27.45 13.05 25.9 L13.4 25.75 M9.95 39.8 L8.85 44.5 Q9.8 45.1 10.8 43.6 L12.65 40.9 13.05 38.95 9.95 39.8 M7.3 39.65 L5.3 40.25 5.6 40.8 6.4 42.05 7.35 42.75 8.75 40.6 8.2 39.65 7.3 39.65 M16.0 36.85 L18.9 35.85 17.75 34.4 16.15 35.1 16.0 35.65 16.0 36.85" fill="none" stroke="#000000" stroke-linecap="round" stroke-linejoin="round" stroke-opacity="0.3019608" stroke-width="1.0"/>
      <path d="M37.55 5.35 L39.75 5.55 Q42.45 6.85 42.9 7.65 43.1 8.7 41.5 8.2 38.25 6.35 35.65 7.15 L34.25 7.1 Q35.05 6.0 37.55 5.35" fill="#ffde4f" fill-rule="evenodd" stroke="none"/>
      <path d="M43.65 7.8 L43.75 7.95 44.4 9.0 Q43.5 10.75 42.2 10.15 40.75 9.05 38.3 8.2 35.8 7.3 33.05 9.05 L33.05 8.75 Q35.55 7.05 36.95 7.3 39.45 7.6 41.25 8.7 43.1 9.75 43.65 7.8 M44.7 9.9 L44.65 11.4 44.1 12.55 43.3 11.4 Q44.0 9.4 44.7 9.9" fill="#f4a33c" fill-rule="evenodd" stroke="none"/>
      <path d="M33.05 8.75 L33.15 8.35 Q33.5 7.05 34.65 6.3 L35.65 5.8 Q36.55 5.4 37.55 5.35 35.05 6.0 34.25 7.1 L35.65 7.15 Q38.25 6.35 41.5 8.2 43.1 8.7 42.9 7.65 42.45 6.85 39.75 5.55 L40.0 5.65 Q42.3 6.25 43.65 7.8 43.1 9.75 41.25 8.7 39.45 7.6 36.95 7.3 35.55 7.05 33.05 8.75" fill="#ffff98" fill-rule="evenodd" stroke="none"/>
      <path d="M44.4 9.0 L44.7 9.9 Q44.0 9.4 43.3 11.4 L44.1 12.55 Q43.45 13.45 42.15 13.95 L37.75 14.1 Q35.35 13.45 34.0 11.75 32.95 10.45 33.05 9.05 35.8 7.3 38.3 8.2 40.75 9.05 42.2 10.15 43.5 10.75 44.4 9.0" fill="#cc6b22" fill-rule="evenodd" stroke="none"/>
      <path d="M33.05 8.75 L33.15 8.35 Q33.5 7.05 34.65 6.3 L35.65 5.8 Q36.55 5.4 37.55 5.35 L39.75 5.55 40.0 5.65 Q42.3 6.25 43.65 7.8 L43.75 7.95 44.4 9.0 44.7 9.9 44.65 11.4 44.1 12.55 Q43.45 13.45 42.15 13.95 L37.75 14.1 Q35.35 13.45 34.0 11.75 32.95 10.45 33.05 9.05 L33.05 8.75 Z" fill="none" stroke="#000000" stroke-linecap="round" stroke-linejoin="round" stroke-opacity="0.3019608" stroke-width="0.30000000000000004"/>
      <path d="M14.65 27.05 L15.55 27.9 16.8 29.1 19.2 31.3 19.85 33.55 19.85 34.45 16.95 32.4 14.65 27.05 M36.2 41.1 L36.3 42.6 34.3 42.2 36.2 41.1 M28.15 40.3 L27.85 40.95 26.7 40.45 26.4 39.4 25.95 38.05 26.35 36.2 27.25 32.6 28.65 33.35 28.9 37.3 28.15 40.3" fill="#a34100" fill-rule="evenodd" stroke="none"/>
      <path d="M33.45 36.6 L33.95 37.2 33.85 37.25 33.45 36.6" fill="#ca5202" fill-rule="evenodd" stroke="none"/>
      <path d="M28.5 30.45 L27.25 32.6 26.35 36.2 26.35 34.65 26.35 32.4 28.5 30.45 M25.55 39.9 L25.95 38.05 26.4 39.4 25.55 39.9" fill="#321401" fill-rule="evenodd" stroke="none"/>
      <path d="M32.7 8.55 L35.9 8.95 Q39.15 10.0 40.55 13.9 L41.05 16.3 41.1 16.45 41.35 19.6 41.35 20.5 Q41.15 25.0 38.7 28.5 L37.55 29.9 36.6 30.9 33.25 33.25 Q32.6 34.1 32.95 34.9 L33.95 37.2 33.45 36.6 33.45 36.55 32.4 34.9 Q31.7 33.25 29.35 32.75 L31.3 33.0 Q34.3 31.75 36.8 29.3 L37.7 28.4 38.7 28.5 37.7 28.4 33.55 27.95 38.25 27.75 38.4 27.6 Q40.25 24.35 40.35 20.15 L39.15 20.8 40.35 19.6 40.3 17.9 39.15 20.3 40.2 17.2 40.05 15.95 39.65 14.05 Q38.75 9.3 34.4 9.1 27.85 9.0 22.8 13.25 L22.5 13.5 Q20.45 15.3 18.65 17.75 15.9 22.2 15.6 27.55 L15.55 27.9 14.65 27.05 Q14.8 25.25 15.3 23.4 16.9 17.1 21.75 13.25 L22.8 12.45 23.45 12.05 Q27.65 9.3 32.55 8.6 L32.7 8.55 M41.05 16.3 L40.3 17.9 41.05 16.3 M41.35 19.6 L40.35 20.15 41.35 19.6 M16.8 29.1 L20.2 31.4 25.25 32.35 20.35 32.0 19.85 33.55 19.2 31.3 16.8 29.1 M25.85 32.35 L28.3 30.1 30.8 29.05 28.5 30.45 26.35 32.4 26.35 34.65 25.85 32.35" fill="#ffff98" fill-rule="evenodd" stroke="none"/>
      <path d="M35.9 8.95 L32.7 8.55 35.55 8.35 Q39.55 8.25 42.05 10.6 L41.9 11.55 42.05 10.6 Q43.95 12.4 45.0 15.55 L45.25 16.4 44.85 16.75 45.25 16.4 45.85 18.85 46.3 22.35 Q46.5 26.35 45.5 30.35 L44.4 33.55 44.1 33.0 44.4 33.55 43.95 34.65 Q41.7 39.1 37.45 41.9 L36.3 42.6 36.2 41.1 33.85 37.25 33.95 37.2 36.45 40.4 36.8 41.55 Q40.6 39.25 43.45 34.25 L43.85 33.45 42.65 30.4 44.1 33.0 Q45.9 27.3 45.7 22.15 L45.25 18.55 45.05 17.4 42.1 19.0 44.85 16.75 Q43.75 13.05 41.9 11.55 39.05 8.85 35.9 8.95 M15.55 27.9 L15.6 27.55 Q15.9 22.2 18.65 17.75 20.45 15.3 22.5 13.5 L22.8 13.25 Q27.85 9.0 34.4 9.1 38.75 9.3 39.65 14.05 L40.05 15.95 40.2 17.2 39.15 20.3 40.3 17.9 40.35 19.6 39.15 20.8 38.85 21.0 39.15 20.8 40.35 20.15 Q40.25 24.35 38.4 27.6 L38.25 27.75 33.55 27.95 37.7 28.4 36.8 29.3 Q34.3 31.75 31.3 33.0 L29.35 32.75 27.25 32.6 28.5 30.45 30.8 29.05 32.8 27.9 38.85 21.0 39.15 20.3 38.85 21.0 32.8 27.9 30.8 29.05 28.3 30.1 25.85 32.35 25.25 32.35 20.2 31.4 16.8 29.1 15.55 27.9 M32.8 27.9 L33.2 27.95 32.8 27.9" fill="#ffde4f" fill-rule="evenodd" stroke="none"/>
      <path d="M41.05 16.3 L40.55 13.9 Q39.15 10.0 35.9 8.95 39.05 8.85 41.9 11.55 L41.05 16.3 41.9 11.55 Q43.75 13.05 44.85 16.75 L42.1 19.0 45.05 17.4 45.25 18.55 45.7 22.15 Q45.9 27.3 44.1 33.0 L42.65 30.4 38.7 28.5 42.65 30.4 43.85 33.45 43.45 34.25 Q40.6 39.25 36.8 41.55 L36.45 40.4 33.95 37.2 32.95 34.9 Q32.6 34.1 33.25 33.25 L36.6 30.9 37.55 29.9 38.7 28.5 Q41.15 25.0 41.35 20.5 L41.35 19.6 41.1 16.45 41.05 16.3 M41.35 19.6 L42.1 19.0 41.35 19.6 M31.75 35.45 L29.35 37.5 28.15 40.3 28.9 37.3 28.65 33.35 27.25 32.6 29.35 32.75 29.35 36.5 31.75 35.45" fill="#f4a33c" fill-rule="evenodd" stroke="none"/>
      <path d="M29.35 32.75 Q31.7 33.25 32.4 34.9 L31.75 35.45 29.35 36.5 29.35 32.75 M19.85 34.45 L23.25 38.8 16.95 32.4 19.85 34.45" fill="#cc6b22" fill-rule="evenodd" stroke="none"/>
      <path d="M32.4 34.9 L33.45 36.55 33.45 36.6 33.85 37.25 36.2 41.1 34.3 42.2 27.85 40.95 28.15 40.3 29.35 37.5 31.75 35.45 32.4 34.9 M25.25 32.35 L25.85 32.35 26.35 34.65 26.35 36.2 25.95 38.05 25.55 39.9 23.25 38.8 19.85 34.45 19.85 33.55 20.35 32.0 25.25 32.35" fill="#8f3600" fill-rule="evenodd" stroke="none"/>
      <path d="M32.7 8.55 L32.55 8.6 Q27.65 9.3 23.45 12.05 L22.8 12.45 21.75 13.25 Q16.9 17.1 15.3 23.4 14.8 25.25 14.65 27.05 L15.55 27.9 16.8 29.1 19.2 31.3 M39.15 20.3 L40.3 17.9 41.05 16.3 41.9 11.55 42.05 10.6 Q39.55 8.25 35.55 8.35 L32.7 8.55 M44.85 16.75 L45.25 16.4 45.0 15.55 Q43.95 12.4 42.05 10.6 M42.1 19.0 L41.35 19.6 40.35 20.15 39.15 20.8 38.85 21.0 39.15 20.3 M38.7 28.5 L42.65 30.4 44.1 33.0 44.4 33.55 45.5 30.35 Q46.5 26.35 46.3 22.35 L45.85 18.85 45.25 16.4 M42.1 19.0 L44.85 16.75 M30.8 29.05 L32.8 27.9 38.85 21.0 M33.2 27.95 L32.8 27.9 M32.4 34.9 L33.45 36.55 M38.7 28.5 L37.7 28.4 33.55 27.95 M33.45 36.6 L33.85 37.25 36.2 41.1 36.3 42.6 37.45 41.9 Q41.7 39.1 43.95 34.65 L44.4 33.55 M32.4 34.9 L31.75 35.45 29.35 37.5 28.15 40.3 27.85 40.95 34.3 42.2 36.2 41.1 M25.25 32.35 L25.85 32.35 M30.8 29.05 L28.5 30.45 27.25 32.6 26.35 36.2 26.35 34.65 26.35 32.4 28.5 30.45 M19.85 33.55 L19.85 34.45 23.25 38.8 25.55 39.9 25.95 38.05 26.35 36.2 M19.85 33.55 L20.35 32.0 25.25 32.35 M19.85 34.45 L16.95 32.4 23.25 38.8 M25.95 38.05 L26.4 39.4 26.7 40.45 27.85 40.95 M26.4 39.4 L25.55 39.9 M16.95 32.4 L14.65 27.05 M36.3 42.6 L34.3 42.2" fill="none" stroke="#000000" stroke-linecap="round" stroke-linejoin="round" stroke-opacity="0.3019608" stroke-width="0.30000000000000004"/>
      <path d="M17.1 17.3 Q17.45 17.8 18.35 17.85 19.8 17.85 21.7 16.5 23.55 15.2 24.8 13.3 L25.35 12.4 Q25.35 13.55 24.35 15.1 23.2 16.85 21.5 18.05 19.8 19.2 18.5 19.2 17.2 19.2 17.05 18.0 L17.1 17.3" fill="#a34100" fill-rule="evenodd" stroke="none"/>
      <path d="M16.8 16.8 L17.1 17.3 Q17.1 17.0 17.25 16.65 L18.05 15.05 Q19.15 13.35 20.9 12.15 22.6 10.95 23.9 10.95 25.0 10.95 25.25 11.9 L25.35 12.2 25.35 12.4 25.7 11.55 25.75 11.85 Q25.9 13.25 24.65 15.1 23.4 17.0 21.55 18.35 19.65 19.65 18.2 19.65 16.75 19.65 16.6 18.3 16.55 17.6 16.8 16.8 M17.1 17.3 L17.05 18.0 Q17.2 19.2 18.5 19.2 19.8 19.2 21.5 18.05 23.2 16.85 24.35 15.1 25.35 13.55 25.35 12.4 L24.8 13.3 Q23.55 15.2 21.7 16.5 19.8 17.85 18.35 17.85 17.45 17.8 17.1 17.3" fill="#ca5202" fill-rule="evenodd" stroke="none"/>
      <path d="M16.8 16.8 L17.7 15.05 Q18.95 13.15 20.85 11.8 22.7 10.5 24.15 10.5 25.4 10.55 25.7 11.55 L25.35 12.4 25.35 12.2 25.25 11.9 Q25.0 10.95 23.9 10.95 22.6 10.95 20.9 12.15 19.15 13.35 18.05 15.05 L17.25 16.65 Q17.1 17.0 17.1 17.3 L16.8 16.8" fill="#ea6004" fill-rule="evenodd" stroke="none"/>
      <path d="M25.7 11.55 Q25.4 10.55 24.15 10.5 22.7 10.5 20.85 11.8 18.95 13.15 17.7 15.05 L16.8 16.8 Q16.55 17.6 16.6 18.3 16.75 19.65 18.2 19.65 19.65 19.65 21.55 18.35 23.4 17.0 24.65 15.1 25.9 13.25 25.75 11.85 L25.7 11.55 Z" fill="none" stroke="#000000" stroke-linecap="round" stroke-linejoin="round" stroke-opacity="0.3019608" stroke-width="0.30000000000000004"/>
      <path d="M23.35 11.6 Q20.55 13.25 18.4 15.9 19.65 12.7 23.35 11.6" fill="#ffde4f" fill-rule="evenodd" stroke="none"/>
      <path d="M23.35 11.6 Q19.65 12.7 18.4 15.9 20.55 13.25 23.35 11.6 M23.95 11.25 Q20.75 13.25 18.05 16.45 19.3 12.15 23.95 11.25" fill="#fdcc0b" fill-opacity="0.5019608" fill-rule="evenodd" stroke="none"/>
      <path d="M36.55 19.45 Q36.55 19.1 36.7 18.7 37.6 18.15 38.65 17.85 L39.45 20.55 38.7 20.7 Q36.55 20.65 36.55 19.45 M41.2 20.5 L39.75 20.5 39.3 17.75 Q40.5 17.55 41.95 17.75 L42.3 20.6 41.2 20.5" fill="#ffff98" fill-rule="evenodd" stroke="none"/>
      <path d="M39.75 20.5 L39.45 20.55 38.65 17.85 39.3 17.75 39.75 20.5 M45.25 18.8 L44.85 21.4 Q43.75 20.9 42.7 20.7 L42.55 17.85 Q44.1 18.0 45.25 18.8" fill="#ffde4f" fill-rule="evenodd" stroke="none"/>
      <path d="M40.35 16.05 L39.9 16.1 39.85 16.15 39.6 16.15 Q37.2 16.5 36.75 17.8 36.65 18.2 36.7 18.7 36.55 19.1 36.55 19.45 36.45 21.4 38.5 21.15 40.7 20.7 41.15 21.4 40.75 21.95 38.55 22.6 35.0 23.5 33.75 22.1 33.25 19.5 34.85 17.25 36.4 15.75 38.75 15.45 42.0 14.8 41.95 15.4 41.8 15.8 40.35 16.05 M47.0 17.55 L46.75 17.3 46.35 16.9 Q44.8 15.65 42.6 15.3 L42.25 14.7 Q44.95 15.1 46.5 16.25 L46.75 16.45 Q48.15 17.55 48.6 19.3 49.1 22.85 47.25 23.45 L47.0 23.05 47.25 23.45 Q47.9 24.55 48.2 26.2 48.1 28.5 46.75 29.15 L45.7 29.4 45.75 28.8 46.75 28.2 47.25 27.65 Q48.0 25.9 47.25 24.3 L46.75 23.7 46.75 23.6 45.05 22.1 Q43.55 21.15 41.8 21.2 L41.2 20.5 42.3 20.6 42.7 20.7 Q43.75 20.9 44.85 21.4 L45.1 21.5 45.15 21.55 45.25 21.55 46.75 22.75 46.8 22.8 47.0 23.05 Q47.95 22.65 48.1 21.45 48.45 19.6 47.85 18.55 L47.0 17.55" fill="#983d01" fill-rule="evenodd" stroke="none"/>
      <path d="M36.75 17.8 Q37.2 16.5 39.6 16.15 L39.85 16.15 39.9 16.1 40.35 16.05 Q42.6 15.85 42.6 15.3 44.8 15.65 46.35 16.9 L46.75 17.3 47.0 17.55 Q47.8 19.55 46.95 19.8 47.05 19.35 46.05 18.4 L46.0 18.35 Q44.05 17.15 41.85 16.8 39.3 16.45 36.75 17.8 M37.9 23.2 L40.5 22.7 Q41.95 21.9 41.8 21.2 43.55 21.15 45.05 22.1 L46.75 23.6 46.75 23.95 46.75 25.4 46.3 25.95 Q45.65 24.75 44.55 24.05 L44.0 23.7 Q42.15 22.8 39.4 23.25 L37.9 23.2" fill="#7e3301" fill-rule="evenodd" stroke="none"/>
      <path d="M45.1 21.5 L45.6 19.05 45.8 19.2 46.3 19.75 46.4 19.9 46.75 20.45 47.05 20.95 46.8 22.8 46.75 22.75 45.25 21.55 45.15 21.55 45.1 21.5 M42.55 17.85 L42.7 20.7 42.3 20.6 41.95 17.75 42.55 17.85" fill="#f4a33c" fill-rule="evenodd" stroke="none"/>
      <path d="M45.25 18.8 L45.6 19.05 45.1 21.5 44.85 21.4 45.25 18.8" fill="#cc6b22" fill-rule="evenodd" stroke="none"/>
      <path d="M36.7 18.7 Q36.65 18.2 36.75 17.8 39.3 16.45 41.85 16.8 44.05 17.15 46.0 18.35 L46.05 18.4 Q47.05 19.35 46.95 19.8 47.8 19.55 47.0 17.55 L47.85 18.55 Q48.45 19.6 48.1 21.45 47.95 22.65 47.0 23.05 L46.8 22.8 47.05 20.95 46.75 20.45 46.4 19.9 46.3 19.75 45.8 19.2 45.6 19.05 45.25 18.8 Q44.1 18.0 42.55 17.85 L41.95 17.75 Q40.5 17.55 39.3 17.75 L38.65 17.85 Q37.6 18.15 36.7 18.7 M33.95 23.05 L37.9 23.2 39.4 23.25 Q42.15 22.8 44.0 23.7 L44.55 24.05 Q45.65 24.75 46.3 25.95 L46.75 25.4 46.75 23.95 46.75 23.6 46.75 23.7 47.25 24.3 Q48.0 25.9 47.25 27.65 L46.75 28.2 45.75 28.8 45.85 27.45 45.25 25.85 44.3 24.9 43.85 24.6 Q42.2 23.7 38.55 24.2 35.45 24.0 33.95 23.05" fill="#6d2c01" fill-rule="evenodd" stroke="none"/>
      <path d="M40.35 16.05 Q41.8 15.8 41.95 15.4 42.0 14.8 38.75 15.45 36.4 15.75 34.85 17.25 33.25 19.5 33.75 22.1 35.0 23.5 38.55 22.6 40.75 21.95 41.15 21.4 40.7 20.7 38.5 21.15 36.45 21.4 36.55 19.45 36.55 20.65 38.7 20.7 L39.45 20.55 39.75 20.5 41.2 20.5 41.8 21.2 Q41.95 21.9 40.5 22.7 L37.9 23.2 33.95 23.05 Q32.8 22.25 33.25 19.85 33.7 17.45 35.3 16.3 36.9 15.15 41.55 14.65 L42.25 14.7 42.6 15.3 Q42.6 15.85 40.35 16.05" fill="#a94401" fill-rule="evenodd" stroke="none"/>
      <path d="M36.55 19.45 Q36.55 19.1 36.7 18.7 37.6 18.15 38.65 17.85 L39.3 17.75 Q40.5 17.55 41.95 17.75 L42.55 17.85 Q44.1 18.0 45.25 18.8 L45.6 19.05 45.8 19.2 46.3 19.75 46.4 19.9 46.75 20.45 47.05 20.95 46.8 22.8 47.0 23.05 47.25 23.45 Q47.9 24.55 48.2 26.2 48.1 28.5 46.75 29.15 L45.7 29.4 45.75 28.8 45.85 27.45 45.25 25.85 44.3 24.9 43.85 24.6 Q42.2 23.7 38.55 24.2 35.45 24.0 33.95 23.05 32.8 22.25 33.25 19.85 33.7 17.45 35.3 16.3 36.9 15.15 41.55 14.65 L42.25 14.7 Q44.95 15.1 46.5 16.25 L46.75 16.45 Q48.15 17.55 48.6 19.3 49.1 22.85 47.25 23.45 M41.2 20.5 L39.75 20.5 39.45 20.55 38.7 20.7 Q36.55 20.65 36.55 19.45 M44.85 21.4 L45.1 21.5 45.6 19.05 M46.8 22.8 L46.75 22.75 45.25 21.55 45.15 21.55 45.1 21.5 M42.7 20.7 L42.55 17.85 M42.3 20.6 L42.7 20.7 Q43.75 20.9 44.85 21.4 M42.3 20.6 L41.2 20.5 M39.3 17.75 L39.75 20.5" fill="none" stroke="#000000" stroke-linecap="round" stroke-linejoin="round" stroke-opacity="0.3019608" stroke-width="0.30000000000000004"/>
      <path d="M21.55 19.0 L21.1 19.05 21.1 19.0 21.55 19.0" fill="#ca5202" fill-rule="evenodd" stroke="none"/>
      <path d="M27.8 25.75 Q23.75 24.5 20.15 24.4 L20.1 24.4 Q18.45 24.3 18.2 22.85 18.2 21.3 18.55 20.35 18.55 20.25 18.65 20.3 19.2 19.45 21.1 19.05 L21.55 19.0 26.0 19.45 Q26.95 20.15 27.3 22.35 L27.35 22.8 27.8 25.75 M21.1 19.0 L21.1 19.05 21.1 19.0" fill="#a34100" fill-rule="evenodd" stroke="none"/>
      <path d="M21.1 19.0 L21.1 19.05 21.1 19.0" fill="#7e3301" fill-rule="evenodd" stroke="none"/>
      <path d="M30.65 10.55 L31.25 11.95 Q32.1 16.05 27.8 25.75 L27.35 22.8 27.3 22.35 Q27.25 20.25 28.0 19.05 L29.85 16.0 Q31.05 13.45 30.65 10.55" fill="#cc6b22" fill-rule="evenodd" stroke="none"/>
      <path d="M18.2 19.3 L20.15 17.0 Q25.3 11.3 30.65 10.55 25.25 12.6 22.3 15.4 20.8 16.75 19.9 18.3 19.75 18.6 21.55 19.0 L21.1 19.0 18.2 19.3 M26.0 19.45 L28.0 19.05 Q27.25 20.25 27.3 22.35 26.95 20.15 26.0 19.45" fill="#ffff98" fill-rule="evenodd" stroke="none"/>
      <path d="M21.55 19.0 Q19.75 18.6 19.9 18.3 20.8 16.75 22.3 15.4 L23.1 16.55 Q25.05 18.45 29.85 16.0 L28.0 19.05 26.0 19.45 21.55 19.0" fill="#ffde4f" fill-rule="evenodd" stroke="none"/>
      <path d="M31.25 11.95 Q32.6 14.35 31.95 18.4 31.1 24.05 28.9 27.6 L20.6 26.1 18.2 24.4 Q17.1 21.65 18.2 19.3 L21.1 19.0 21.1 19.05 Q19.2 19.45 18.65 20.3 18.55 20.25 18.55 20.35 18.2 21.3 18.2 22.85 18.45 24.3 20.1 24.4 L20.15 24.4 Q23.75 24.5 27.8 25.75 32.1 16.05 31.25 11.95 M18.2 24.4 L20.1 24.4 18.2 24.4 M29.85 16.0 Q25.05 18.45 23.1 16.55 L22.3 15.4 Q25.25 12.6 30.65 10.55 31.05 13.45 29.85 16.0" fill="#f4a33c" fill-rule="evenodd" stroke="none"/>
      <path d="M18.2 24.4 Q17.1 21.65 18.2 19.3 L20.15 17.0 Q25.3 11.3 30.65 10.55 L31.25 11.95 Q32.1 16.05 27.8 25.75 23.75 24.5 20.15 24.4 L20.1 24.4 18.2 24.4 Z" fill="none" stroke="#000000" stroke-linecap="round" stroke-linejoin="round" stroke-opacity="0.3019608" stroke-width="0.30000000000000004"/>
      <path d="M39.15 33.15 L39.55 32.15 39.65 31.5 40.0 32.65 40.05 32.8 39.15 33.15 40.05 32.8 39.9 34.65 Q39.4 36.55 37.75 37.5 36.55 38.15 35.3 38.15 L35.2 38.15 35.1 36.15 Q36.05 36.0 37.0 35.45 38.45 34.6 39.15 33.15 M32.9 32.9 L33.05 32.9 36.45 33.3 33.7 33.45 31.9 32.75 32.9 32.9 M31.05 35.15 L32.85 36.0 34.7 36.2 34.8 38.1 34.2 37.95 Q32.3 37.45 31.35 35.8 L31.05 35.15" fill="#a34100" fill-rule="evenodd" stroke="none"/>
      <path d="M40.05 32.8 L40.0 32.65 39.65 31.5 39.55 32.15 39.15 33.15 36.45 33.3 39.15 33.15 Q38.45 34.6 37.0 35.45 36.05 36.0 35.1 36.15 L35.2 38.15 35.3 38.15 Q36.55 38.15 37.75 37.5 39.4 36.55 39.9 34.65 L40.05 32.8 40.8 32.55 40.05 32.8 M39.7 30.1 L40.1 30.75 40.8 32.55 Q41.0 33.65 40.65 34.85 40.05 37.05 38.1 38.15 36.75 38.95 35.25 38.9 L35.2 38.15 35.25 38.9 34.0 38.7 Q31.8 38.1 30.7 36.15 30.1 35.15 29.95 34.1 L31.05 35.15 30.75 34.0 Q30.65 33.2 30.85 32.35 L31.9 32.75 33.7 33.45 34.25 34.45 33.7 33.45 36.45 33.3 33.05 32.9 32.9 32.9 30.95 31.95 Q31.5 30.3 33.05 29.4 34.7 28.4 36.6 28.9 38.15 29.35 39.1 30.55 L39.45 31.1 39.65 31.5 39.7 30.1 M34.7 36.2 L32.85 36.0 31.05 35.15 31.35 35.8 Q32.3 37.45 34.2 37.95 L34.8 38.1 34.7 36.2 35.1 36.15 34.25 34.45 34.7 36.2" fill="#ca5202" fill-rule="evenodd" stroke="none"/>
      <path d="M39.7 30.1 L39.65 31.5 39.45 31.1 39.1 30.55 Q38.15 29.35 36.6 28.9 34.7 28.4 33.05 29.4 31.5 30.3 30.95 31.95 L32.9 32.9 31.9 32.75 30.85 32.35 30.15 32.05 30.85 32.35 Q30.65 33.2 30.75 34.0 L31.05 35.15 29.95 34.1 Q29.85 33.1 30.15 32.05 30.7 29.85 32.7 28.75 34.6 27.6 36.8 28.2 38.6 28.65 39.7 30.1 M34.7 36.2 L34.25 34.45 35.1 36.15 34.7 36.2" fill="#ea6004" fill-rule="evenodd" stroke="none"/>
      <path d="M39.15 33.15 L40.05 32.8 40.8 32.55 40.1 30.75 39.7 30.1 Q38.6 28.65 36.8 28.2 34.6 27.6 32.7 28.75 30.7 29.85 30.15 32.05 L30.85 32.35 31.9 32.75 32.9 32.9 M33.05 32.9 L36.45 33.3 39.15 33.15 M35.1 36.15 L35.2 38.15 35.25 38.9 34.0 38.7 Q31.8 38.1 30.7 36.15 30.1 35.15 29.95 34.1 29.85 33.1 30.15 32.05 M35.25 38.9 Q36.75 38.95 38.1 38.15 40.05 37.05 40.65 34.85 41.0 33.65 40.8 32.55 M34.25 34.45 L33.7 33.45 31.9 32.75 M35.1 36.15 L34.25 34.45 M33.7 33.45 L36.45 33.3" fill="none" stroke="#000000" stroke-linecap="round" stroke-linejoin="round" stroke-opacity="0.3019608" stroke-width="0.30000000000000004"/>
      <path d="M36.9 37.1 L34.7 29.35 Q37.3 32.5 36.9 37.1" fill="#ffde4f" fill-rule="evenodd" stroke="none"/>
      <path d="M36.9 37.1 Q37.3 32.5 34.7 29.35 L36.9 37.1 M37.0 38.0 L34.3 28.7 Q37.95 32.45 37.0 38.0" fill="#fdcc0b" fill-opacity="0.5019608" fill-rule="evenodd" stroke="none"/>
      <path d="M18.9 35.85 L18.2 35.65 16.2 35.1 17.75 34.4 18.9 35.85 M18.2 42.85 L20.05 42.95 21.6 44.15 20.9 43.9 20.25 43.65 18.2 42.85 M24.4 44.8 L27.2 44.95 30.95 43.8 27.7 45.9 25.55 45.9 22.8 44.7 24.4 44.8 M22.65 48.9 L19.3 48.35 20.95 46.2 22.65 48.9" fill="#a34100" fill-rule="evenodd" stroke="none"/>
      <path d="M18.3 39.7 Q18.05 38.5 18.8 37.25 L24.95 37.7 27.9 38.8 30.95 43.8 27.2 44.95 24.4 44.8 27.4 44.5 Q28.7 44.0 29.95 43.45 L29.9 42.8 27.65 38.95 26.2 38.35 Q20.2 39.0 20.5 41.45 L20.5 42.95 22.5 44.55 21.6 44.15 20.05 42.95 18.2 42.85 17.55 42.8 19.85 42.3 19.65 41.6 18.3 39.7 M28.85 45.9 L30.0 45.9 Q26.45 49.3 22.65 48.9 L20.95 46.2 20.25 43.65 20.9 43.9 21.55 46.15 21.95 47.1 Q24.35 48.5 26.2 47.7 L28.85 45.9" fill="#ffff98" fill-rule="evenodd" stroke="none"/>
      <path d="M18.2 35.65 L16.0 35.65 16.2 35.1 18.2 35.65 M18.8 37.25 Q18.05 38.5 18.3 39.7 17.3 38.8 16.05 39.1 L15.25 40.75 15.65 43.1 17.55 42.8 15.4 43.85 14.65 40.95 15.5 38.95 Q17.25 37.55 18.8 37.25" fill="#ffde4f" fill-rule="evenodd" stroke="none"/>
      <path d="M18.9 35.85 L16.0 36.85 16.0 35.65 18.2 35.65 18.9 35.85 M21.6 44.15 L22.5 44.55 20.5 42.95 20.5 41.45 Q20.2 39.0 26.2 38.35 L27.65 38.95 29.9 42.8 29.95 43.45 Q28.7 44.0 27.4 44.5 L24.4 44.8 22.8 44.7 22.5 44.55 22.8 44.7 25.55 45.9 27.7 45.9 28.85 45.9 26.2 47.7 Q24.35 48.5 21.95 47.1 L21.55 46.15 20.9 43.9 21.6 44.15" fill="#f4a33c" fill-rule="evenodd" stroke="none"/>
      <path d="M15.4 43.85 L17.55 42.8 15.65 43.1 15.25 40.75 16.05 39.1 Q17.3 38.8 18.3 39.7 L19.65 41.6 19.85 42.3 17.55 42.8 18.2 42.85 20.25 43.65 20.95 46.2 19.3 48.35 16.65 45.95 15.4 43.85" fill="#cc6b22" fill-rule="evenodd" stroke="none"/>
      <path d="M16.0 35.65 L16.0 36.85 18.9 35.85 18.2 35.65 16.2 35.1 17.75 34.4 18.9 35.85 M16.0 35.65 L16.2 35.1 M18.8 37.25 Q17.25 37.55 15.5 38.95 L14.65 40.95 15.4 43.85 17.55 42.8 18.2 42.85 20.05 42.95 21.6 44.15 22.5 44.55 22.8 44.7 25.55 45.9 27.7 45.9 28.85 45.9 30.0 45.9 Q26.45 49.3 22.65 48.9 L19.3 48.35 16.65 45.95 15.4 43.85 M30.95 43.8 L27.9 38.8 24.95 37.7 18.8 37.25 M30.95 43.8 L27.7 45.9 M20.95 46.2 L19.3 48.35 M20.95 46.2 L20.25 43.65 M22.65 48.9 L20.95 46.2" fill="none" stroke="#000000" stroke-linecap="round" stroke-linejoin="round" stroke-opacity="0.3019608" stroke-width="0.30000000000000004"/>
      <path d="M13.45 25.75 L13.75 32.05 13.5 32.2 11.2 32.65 13.45 25.75 M11.6 37.0 L7.75 37.95 7.45 36.85 8.05 36.7 8.55 36.55 11.6 37.0 M7.5 42.05 L8.2 39.65 8.8 40.65 7.4 42.8 7.5 42.05 M9.95 39.8 L10.35 40.45 9.6 42.8 8.85 44.45 9.95 39.8" fill="#a34100" fill-rule="evenodd" stroke="none"/>
      <path d="M3.8 36.2 L3.3 35.85 Q3.4 34.7 3.9 33.7 7.0 27.45 13.05 25.9 L13.45 25.75 11.2 32.65 13.5 32.2 11.0 33.25 8.8 36.25 9.75 34.55 10.15 33.9 10.2 33.85 12.4 26.5 Q8.35 27.95 5.9 31.25 4.65 32.95 3.8 35.1 L3.8 36.2 M5.4 37.1 L4.05 36.35 8.05 36.7 7.45 36.85 5.4 37.1 M7.3 39.65 L8.2 39.65 7.5 42.05 7.3 39.65 M10.35 40.45 L12.05 39.7 9.6 42.8 10.35 40.45" fill="#ffff98" fill-rule="evenodd" stroke="none"/>
      <path d="M5.9 31.25 Q8.35 27.95 12.4 26.5 L10.2 33.85 10.15 33.9 9.75 34.55 Q4.05 37.35 5.9 31.25 M7.3 39.65 L7.5 42.05 7.4 42.8 Q6.9 42.7 6.4 42.0 L5.6 40.8 5.3 40.25 7.3 39.65" fill="#ffde4f" fill-rule="evenodd" stroke="none"/>
      <path d="M7.75 37.95 L5.4 37.1 7.45 36.85 7.75 37.95 M4.05 36.35 L3.8 36.2 3.8 35.1 Q4.65 32.95 5.9 31.25 4.05 37.35 9.75 34.55 L8.8 36.25 8.55 36.55 8.05 36.7 4.05 36.35 M12.05 39.7 L13.1 38.95 12.65 40.9 10.85 43.6 Q9.8 45.1 8.85 44.45 L9.6 42.8 12.05 39.7" fill="#f4a33c" fill-rule="evenodd" stroke="none"/>
      <path d="M13.75 32.05 L11.6 37.0 8.55 36.55 8.8 36.25 11.0 33.25 13.5 32.2 13.75 32.05 M13.1 38.95 L12.05 39.7 10.35 40.45 9.95 39.8 13.1 38.95" fill="#cc6b22" fill-rule="evenodd" stroke="none"/>
      <path d="M3.8 36.2 L3.3 35.85 Q3.4 34.7 3.9 33.7 7.0 27.45 13.05 25.9 L13.45 25.75 13.75 32.05 11.6 37.0 7.75 37.95 5.4 37.1 4.05 36.35 3.8 36.2 M8.8 36.25 L11.0 33.25 13.5 32.2 13.75 32.05 M11.2 32.65 L13.45 25.75 M7.75 37.95 L7.45 36.85 5.4 37.1 M8.2 39.65 L7.3 39.65 5.3 40.25 5.6 40.8 6.4 42.0 Q6.9 42.7 7.4 42.8 L7.5 42.05 8.2 39.65 8.8 40.65 7.4 42.8 M7.45 36.85 L8.05 36.7 8.55 36.55 8.8 36.25 M12.05 39.7 L13.1 38.95 9.95 39.8 10.35 40.45 12.05 39.7 M9.6 42.8 L8.85 44.45 Q9.8 45.1 10.85 43.6 L12.65 40.9 13.1 38.95 M8.55 36.55 L11.6 37.0 M10.35 40.45 L9.6 42.8 M9.95 39.8 L8.85 44.45" fill="none" stroke="#000000" stroke-linecap="round" stroke-linejoin="round" stroke-opacity="0.3019608" stroke-width="0.30000000000000004"/>
      <path d="M37.55 6.55 L36.9 6.7 36.2 6.55 35.95 6.15 36.2 5.75 36.9 5.6 37.55 5.75 37.85 6.15 37.55 6.55" fill="#ffff98" fill-rule="evenodd" stroke="none"/>
    </g>
    <g id="sprite1" transform="matrix(1.0, 0.0, 0.0, 1.0, 0.0, 0.0)">
      <use height="26.7" transform="matrix(0.0042, -1.3515, 1.3935, 0.02, 22.09, 56.0263)" width="26.7" xlink:href="#sprite2"/>
      <use height="26.7" transform="matrix(0.0095, -3.0486, 0.372, 0.0053, 36.507, 81.3775)" width="26.7" xlink:href="#sprite2"/>
      <use height="26.7" transform="matrix(3.0486, 0.0095, -0.0053, 0.372, 0.1225, 35.107)" width="26.7" xlink:href="#sprite2"/>
    </g>
    <g id="sprite2" transform="matrix(1.0, 0.0, 0.0, 1.0, 13.35, 13.35)">
      <use height="26.7" transform="matrix(1.0, 0.0, 0.0, 1.0, -13.35, -13.35)" width="26.7" xlink:href="#shape1"/>
    </g>
    <g id="shape1" transform="matrix(1.0, 0.0, 0.0, 1.0, 13.35, 13.35)">
      <path d="M9.3 -9.85 Q13.35 -5.8 13.35 0.0 13.35 5.8 9.3 9.3 5.8 13.35 0.0 13.35 -5.8 13.35 -9.85 9.3 -13.35 5.8 -13.35 0.0 -13.35 -5.8 -9.85 -9.85 -5.8 -13.35 0.0 -13.35 5.8 -13.35 9.3 -9.85" fill="url(#gradient0)" fill-rule="evenodd" stroke="none"/>
    </g>
    <radialGradient cx="0" cy="0" gradientTransform="matrix(0.0213, 0.0, 0.0, 0.0213, 0.0, 0.0)" gradientUnits="userSpaceOnUse" id="gradient0" r="819.2" spreadMethod="pad">
      <stop offset="0.19607843137254902" stop-color="#fee3bc" stop-opacity="0.5764706"/>
      <stop offset="0.5019607843137255" stop-color="#fee3bc" stop-opacity="0.09019608"/>
      <stop offset="0.7607843137254902" stop-color="#ffe3bd" stop-opacity="0.0"/>
    </radialGradient>
  </defs>
</svg>
