<?xml version="1.0" encoding="UTF-8" standalone="no"?>
<svg xmlns:xlink="http://www.w3.org/1999/xlink" height="52.0px" width="52.0px" xmlns="http://www.w3.org/2000/svg">
  <g transform="matrix(1.0, 0.0, 0.0, 1.0, 0.0, 0.0)">
    <use height="54.0" transform="matrix(1.0, 0.0, 0.0, 1.0, -1.0, -1.0)" width="54.0" xlink:href="#shape0"/>
    <use height="0.0" transform="matrix(0.0672, 0.013, -0.0433, 0.1213, 37.65, 29.8)" width="0.0" xlink:href="#sprite0"/>
    <use height="0.0" transform="matrix(0.0398, 0.0632, -0.1063, 0.0504, 19.7, 15.95)" width="0.0" xlink:href="#sprite0"/>
    <use height="0.0" transform="matrix(-0.0241, 0.0605, -0.1239, -0.1071, 17.7, 34.05)" width="0.0" xlink:href="#sprite0"/>
    <use height="81.5" transform="matrix(0.136, 0.0202, -0.0167, 0.1544, 34.3, 20.15)" width="81.5" xlink:href="#sprite1"/>
    <use height="81.5" transform="matrix(0.136, 0.0202, -0.0167, 0.1544, 21.65, 11.95)" width="81.5" xlink:href="#sprite1"/>
    <use height="81.5" transform="matrix(0.136, 0.0202, -0.0167, 0.1544, 13.15, 27.4)" width="81.5" xlink:href="#sprite1"/>
    <use height="4.55" transform="matrix(1.0, 0.0, 0.0, 1.0, 38.85, 15.5)" width="4.6" xlink:href="#shape2"/>
    <use height="81.5" transform="matrix(0.0515, 0.0076, -0.0063, 0.0585, 38.4, 14.05)" width="81.5" xlink:href="#sprite1"/>
    <use height="81.5" transform="matrix(0.0515, 0.0076, -0.0063, 0.0585, 16.75, 6.25)" width="81.5" xlink:href="#sprite1"/>
  </g>
  <defs>
    <g id="shape0" transform="matrix(1.0, 0.0, 0.0, 1.0, 1.0, 1.0)">
      <path d="M52.0 0.0 L52.0 52.0 0.0 52.0 0.0 0.0 52.0 0.0" fill="#795fa9" fill-opacity="0.0" fill-rule="evenodd" stroke="none"/>
      <path d="M25.2 8.85 L25.6 10.75 26.3 10.85 28.55 11.45 29.9 11.95 29.95 11.95 30.25 12.05 32.35 12.95 Q34.85 14.1 36.6 15.35 37.0 13.95 38.0 13.05 39.6 11.65 41.55 11.95 43.05 12.15 44.15 13.3 45.65 14.65 46.45 16.2 L46.6 16.4 47.0 17.35 Q47.35 18.5 47.35 19.7 L47.4 19.85 47.35 20.65 47.2 21.65 Q46.75 23.25 45.6 24.3 L44.25 25.2 43.4 25.4 43.6 27.4 43.5 28.9 43.3 30.65 42.55 32.95 Q41.5 35.95 39.15 38.15 L36.25 40.35 35.9 40.5 35.8 40.6 35.95 41.3 36.0 42.2 Q35.95 44.1 35.0 45.9 32.95 44.95 31.55 42.35 L29.25 42.8 26.45 42.6 26.5 42.6 26.3 43.25 25.9 44.45 Q24.85 46.9 22.9 48.15 L22.75 47.9 Q21.35 45.7 21.35 42.25 L21.35 41.45 22.0 41.6 18.0 40.5 17.5 40.35 16.95 40.1 16.7 40.4 15.95 41.25 Q14.25 43.0 11.9 43.75 11.1 41.2 12.1 37.8 L12.15 37.45 12.25 37.05 11.15 36.0 10.35 34.95 9.95 34.4 8.6 32.25 8.35 32.2 7.55 32.0 7.3 31.9 6.95 31.75 Q5.75 31.2 4.65 29.95 L5.85 28.65 6.7 28.0 7.25 27.65 Q6.85 25.35 7.4 22.85 L7.5 22.35 8.2 20.0 Q9.3 17.35 11.3 15.35 12.55 14.15 14.15 13.05 L14.6 12.8 14.15 11.2 Q13.9 9.7 14.4 7.75 14.85 6.15 16.15 5.1 17.6 4.05 19.3 4.1 L19.9 4.15 20.1 4.2 21.05 4.5 Q21.9 4.8 22.6 5.45 24.0 6.6 24.75 7.95 L25.2 8.85 M21.05 9.15 L21.2 9.3 21.2 9.35 21.1 9.7 20.35 10.75 19.9 10.75 19.65 10.85 18.45 11.1 18.35 11.1 18.1 10.55 18.1 10.25 Q18.05 10.1 18.15 9.9 L18.15 9.85 Q18.2 9.4 18.5 9.1 L18.75 8.8 Q19.35 8.4 20.0 8.5 L20.8 8.85 21.05 9.15 M40.1 18.25 Q40.2 17.5 40.7 17.0 41.2 16.55 41.85 16.65 L42.3 16.85 42.6 17.05 42.9 17.3 43.0 17.55 Q42.95 18.35 42.4 18.9 L42.25 19.1 Q41.65 19.65 40.95 19.6 L40.5 19.05 40.05 18.5 40.1 18.25 M33.2 22.3 L33.1 22.0 32.95 21.75 33.2 22.3 M31.55 25.35 L30.1 25.5 28.4 24.7 Q27.8 22.45 27.85 20.4 L27.0 21.95 25.3 23.8 23.65 23.95 22.15 23.4 Q21.3 22.2 21.15 20.35 L20.55 21.55 19.8 22.65 18.75 23.0 18.1 22.9 17.2 25.0 17.1 25.6 16.9 27.4 17.2 27.45 17.9 28.2 Q18.3 29.25 18.35 30.6 L18.35 32.05 Q19.5 30.5 20.9 29.55 L22.6 29.8 23.4 30.45 24.15 34.15 Q25.25 32.0 26.9 30.95 L28.6 31.2 29.6 31.9 30.0 33.8 29.8 33.9 30.75 33.25 31.5 32.5 32.8 30.8 33.85 27.95 Q34.3 25.8 33.8 23.8 L33.6 23.25 32.55 24.5 31.55 25.35 M23.55 35.95 L23.8 35.95 24.5 35.85 24.85 35.85 23.9 35.95 23.55 35.95" fill="none" stroke="#000000" stroke-linecap="round" stroke-linejoin="round" stroke-opacity="0.3019608" stroke-width="1.0"/>
      <path d="M16.65 37.2 L15.7 38.8 14.75 40.3 13.15 39.05 12.9 38.8 12.1 37.8 12.15 37.45 12.6 36.05 Q15.05 37.15 16.65 37.2 M11.9 43.75 Q13.5 42.6 15.1 40.4 L15.2 40.25 15.05 40.5 15.0 40.55 15.95 41.25 Q14.25 43.0 11.9 43.75" fill="#339328" fill-rule="evenodd" stroke="none"/>
      <path d="M13.15 39.05 Q14.35 40.25 14.1 41.0 L14.05 41.15 11.9 43.75 Q11.1 41.2 12.1 37.8 L12.9 38.8 13.15 39.05" fill="#75d74a" fill-rule="evenodd" stroke="none"/>
      <path d="M13.15 39.05 L14.75 40.3 15.7 38.8 16.65 37.2 17.1 37.2 15.1 40.4 Q13.5 42.6 11.9 43.75 L14.05 41.15 14.1 41.0 Q14.35 40.25 13.15 39.05" fill="#d7f16b" fill-rule="evenodd" stroke="none"/>
      <path d="M15.1 40.4 L17.1 37.2 17.45 39.25 16.7 40.4 15.95 41.25 15.0 40.55 15.05 40.5 15.2 40.25 15.1 40.4" fill="#246c41" fill-rule="evenodd" stroke="none"/>
      <path d="M17.1 37.2 L16.65 37.2 Q15.05 37.15 12.6 36.05 L12.15 37.45 12.1 37.8 Q11.1 41.2 11.9 43.75 14.25 43.0 15.95 41.25 L16.7 40.4 17.45 39.25 17.1 37.2 Z" fill="none" stroke="#000000" stroke-linecap="round" stroke-linejoin="round" stroke-opacity="0.3019608" stroke-width="0.30000000000000004"/>
      <path d="M4.65 29.95 L6.75 30.7 6.8 30.7 7.55 32.0 7.3 31.9 6.95 31.75 Q5.75 31.2 4.65 29.95 M10.25 30.6 L8.65 30.6 8.3 30.55 8.35 30.55 7.2 30.45 7.2 30.4 7.1 30.45 7.0 30.4 6.65 30.35 6.7 28.0 8.55 27.1 9.6 26.8 Q9.75 29.25 10.25 30.6" fill="#339328" fill-rule="evenodd" stroke="none"/>
      <path d="M6.65 30.35 L6.6 30.35 4.65 29.95 5.85 28.65 6.7 28.0 6.65 30.35" fill="#75d74a" fill-rule="evenodd" stroke="none"/>
      <path d="M6.8 30.7 L6.75 30.7 4.65 29.95 6.6 30.35 6.65 30.35 7.0 30.4 7.1 30.45 7.2 30.4 7.2 30.45 8.35 30.55 8.3 30.55 8.65 30.6 10.25 30.6 10.45 31.0 8.75 30.95 8.3 30.95 7.5 30.85 6.8 30.7" fill="#d7f16b" fill-rule="evenodd" stroke="none"/>
      <path d="M6.8 30.7 L7.5 30.85 8.3 30.95 8.75 30.95 10.45 31.0 9.3 32.25 8.35 32.2 7.55 32.0 6.8 30.7" fill="#246c41" fill-rule="evenodd" stroke="none"/>
      <path d="M10.45 31.0 L10.25 30.6 Q9.75 29.25 9.6 26.8 L8.55 27.1 6.7 28.0 5.85 28.65 4.65 29.95 Q5.75 31.2 6.95 31.75 L7.3 31.9 7.55 32.0 8.35 32.2 9.3 32.25 10.45 31.0 Z" fill="none" stroke="#000000" stroke-linecap="round" stroke-linejoin="round" stroke-opacity="0.3019608" stroke-width="0.30000000000000004"/>
      <path d="M22.6 5.45 Q24.0 6.6 24.75 7.95 L25.2 8.85 23.75 7.0 23.15 6.1 22.6 5.45 M25.6 12.2 L25.6 12.25 Q25.35 13.75 24.4 14.85 L23.6 15.6 Q22.4 16.45 20.95 16.55 L16.2 14.65 16.7 14.5 18.45 14.15 20.25 14.1 Q21.1 13.95 21.85 13.4 L22.15 13.2 23.4 11.85 Q23.95 10.95 24.15 9.9 L24.15 9.75 24.7 10.25 25.35 11.7 25.6 12.2 M17.5 8.45 L18.1 7.7 Q18.55 7.4 19.1 7.35 20.35 7.95 20.0 8.5 19.35 8.4 18.75 8.8 L18.5 9.1 Q18.2 9.4 18.15 9.85 L18.15 9.9 18.15 9.85 Q17.45 9.95 17.5 8.45" fill="#339328" fill-rule="evenodd" stroke="none"/>
      <path d="M16.2 14.65 L15.35 13.85 Q14.45 12.35 14.4 10.8 14.3 8.95 15.2 6.9 16.1 6.35 17.0 7.2 L17.05 7.25 17.35 7.6 16.9 8.7 Q16.7 9.6 17.3 10.25 L17.5 10.6 17.6 10.75 17.9 10.85 18.35 11.1 18.65 11.15 19.25 11.2 Q20.4 11.25 21.5 12.6 L21.85 13.4 Q21.1 13.95 20.25 14.1 L18.45 14.15 16.7 14.5 16.2 14.65 M18.05 4.8 L18.9 4.65 19.95 4.65 21.05 4.9 21.2 4.95 Q23.0 6.05 23.6 8.15 23.95 9.7 23.25 11.25 L23.2 11.45 Q21.5 10.6 21.1 9.7 L21.2 9.35 21.2 9.3 21.2 8.45 20.95 7.9 20.8 7.7 Q20.3 7.0 19.45 6.9 L19.3 6.85 19.25 6.85 18.2 5.65 Q17.95 5.2 18.05 4.8" fill="#75d74a" fill-rule="evenodd" stroke="none"/>
      <path d="M22.6 5.45 L23.15 6.1 23.75 7.0 24.0 7.8 24.2 8.55 24.7 9.5 Q25.25 10.55 25.35 11.7 L24.7 10.25 24.15 9.75 24.15 9.9 Q23.95 10.95 23.4 11.85 L22.15 13.2 21.85 13.4 23.2 11.45 23.25 11.25 Q23.95 9.7 23.6 8.15 23.0 6.05 21.2 4.95 L21.05 4.9 19.95 4.65 18.9 4.65 18.05 4.8 Q16.9 5.15 15.85 6.05 L17.0 7.2 Q16.1 6.35 15.2 6.9 14.3 8.95 14.4 10.8 14.45 12.35 15.35 13.85 14.35 12.75 14.15 11.2 13.9 9.7 14.4 7.75 14.85 6.15 16.15 5.1 17.6 4.05 19.3 4.1 L19.9 4.15 20.1 4.2 21.05 4.5 Q21.9 4.8 22.6 5.45 M17.35 7.6 L17.75 7.25 Q18.4 6.8 19.25 6.85 L19.3 6.85 19.45 6.9 Q20.3 7.0 20.8 7.7 L20.95 7.9 Q20.5 7.45 19.8 7.35 L19.1 7.35 Q18.55 7.4 18.1 7.7 L17.5 8.45 Q17.3 8.75 17.25 9.15 17.1 9.95 17.5 10.6 L17.3 10.25 Q16.7 9.6 16.9 8.7 L17.35 7.6 M19.25 11.2 L20.05 10.95 Q21.0 11.55 21.5 12.6 20.4 11.25 19.25 11.2" fill="#d7f16b" fill-rule="evenodd" stroke="none"/>
      <path d="M23.2 11.45 L21.85 13.4 21.5 12.6 Q21.0 11.55 20.05 10.95 L20.3 10.7 21.1 9.7 Q21.5 10.6 23.2 11.45 M17.35 7.6 L17.05 7.25 17.0 7.2 15.85 6.05 Q16.9 5.15 18.05 4.8 17.95 5.2 18.2 5.65 L19.25 6.85 19.3 6.85 19.25 6.85 Q18.4 6.8 17.75 7.25 L17.35 7.6" fill="#9ae17b" fill-rule="evenodd" stroke="none"/>
      <path d="M23.75 7.0 L25.2 8.85 Q25.7 10.05 25.65 11.4 L25.65 11.5 25.6 12.2 25.35 11.7 Q25.25 10.55 24.7 9.5 L24.2 8.55 24.0 7.8 23.75 7.0 M19.1 7.35 L19.8 7.35 Q20.5 7.45 20.95 7.9 L21.2 8.45 21.2 9.3 21.05 9.15 20.8 8.85 20.0 8.5 Q20.35 7.95 19.1 7.35 M18.35 11.1 L17.9 10.85 17.6 10.75 17.5 10.6 Q17.1 9.95 17.25 9.15 17.3 8.75 17.5 8.45 17.45 9.95 18.15 9.85 L18.15 9.9 Q18.05 10.1 18.1 10.25 L18.1 10.55 18.35 11.1" fill="#246c41" fill-rule="evenodd" stroke="none"/>
      <path d="M25.2 8.85 L24.75 7.95 Q24.0 6.6 22.6 5.45 21.9 4.8 21.05 4.5 L20.1 4.2 19.9 4.15 19.3 4.1 Q17.6 4.05 16.15 5.1 14.85 6.15 14.4 7.75 13.9 9.7 14.15 11.2 14.35 12.75 15.35 13.85 L16.2 14.65 20.95 16.55 Q22.4 16.45 23.6 15.6 L24.4 14.85 Q25.35 13.75 25.6 12.25 L25.6 12.2 25.65 11.5 25.65 11.4 Q25.7 10.05 25.2 8.85 M21.2 9.3 L21.2 8.45 20.95 7.9 M20.0 8.5 L20.8 8.85 21.05 9.15 21.2 9.3 21.2 9.35 21.1 9.7 20.3 10.7 20.05 10.95 19.25 11.2 18.65 11.15 18.35 11.1 17.9 10.85 17.6 10.75 17.5 10.6 M18.15 9.9 L18.15 9.85 Q18.2 9.4 18.5 9.1 L18.75 8.8 Q19.35 8.4 20.0 8.5 M18.15 9.9 Q18.05 10.1 18.1 10.25 L18.1 10.55 18.35 11.1" fill="none" stroke="#000000" stroke-linecap="round" stroke-linejoin="round" stroke-opacity="0.3019608" stroke-width="0.30000000000000004"/>
      <path d="M19.2 11.2 L19.25 10.5 20.45 9.55 21.05 9.75 20.75 10.25 20.6 10.5 Q20.05 11.15 19.2 11.25 L19.2 11.2 M18.5 10.0 L18.6 8.45 19.3 8.1 Q19.2 9.0 19.55 9.85 L19.1 10.25 18.5 10.0" fill="#cc6b22" fill-rule="evenodd" stroke="none"/>
      <path d="M17.65 9.9 L18.9 10.5 19.2 11.2 19.2 11.25 18.85 11.25 18.2 11.1 17.65 9.9 M21.1 9.6 L20.45 9.3 20.4 7.85 21.05 8.35 21.15 8.9 21.1 9.6" fill="#f4a33c" fill-rule="evenodd" stroke="none"/>
      <path d="M18.5 10.0 L17.9 9.75 18.3 8.65 18.6 8.45 18.5 10.0 M19.3 8.1 L19.8 7.75 20.1 8.05 20.25 8.85 20.05 9.45 19.55 9.85 Q19.2 9.0 19.3 8.1 M19.2 11.25 L19.2 11.2 19.2 11.25" fill="#ffde4f" fill-rule="evenodd" stroke="none"/>
      <path d="M17.65 9.9 L18.0 8.5 19.7 7.6 20.4 7.85 20.45 9.3 21.1 9.6 21.05 9.75 20.45 9.55 19.25 10.5 19.2 11.2 18.9 10.5 17.65 9.9 M18.6 8.45 L18.3 8.65 17.9 9.75 18.5 10.0 19.1 10.25 19.55 9.85 20.05 9.45 20.25 8.85 20.1 8.05 19.8 7.75 19.3 8.1 18.6 8.45" fill="#ffff98" fill-rule="evenodd" stroke="none"/>
      <path d="M20.4 7.85 L19.7 7.6 18.0 8.5 17.65 9.9 18.2 11.1 18.05 10.95 17.65 10.7 M21.05 9.75 L21.1 9.6 21.15 8.9 21.05 8.35 21.0 8.05 20.75 7.65 M20.4 7.85 L21.05 8.35 M21.05 9.75 L20.75 10.25 20.6 10.5 Q20.05 11.15 19.2 11.25 L18.85 11.25 18.2 11.1" fill="none" stroke="#000000" stroke-linecap="round" stroke-linejoin="round" stroke-opacity="0.3019608" stroke-width="0.30000000000000004"/>
      <path d="M25.5 16.15 L25.3 15.6 24.75 14.0 Q24.25 12.05 24.2 10.55 L26.3 10.85 28.55 11.45 Q28.2 12.05 28.1 12.85 L27.9 14.65 28.05 17.05 27.45 16.75 25.5 16.15 M41.7 20.85 Q43.5 23.95 43.6 27.4 L43.5 28.9 43.15 28.4 Q42.15 26.35 39.95 25.1 L39.9 24.55 39.5 22.7 Q39.0 20.75 37.9 18.9 L36.95 17.45 36.3 16.65 35.8 16.1 34.5 14.8 Q35.85 15.35 37.05 16.2 38.3 16.95 39.35 18.05 L41.7 20.85 M29.25 42.8 L25.45 42.55 18.6 40.65 19.95 40.95 23.2 41.25 Q24.45 41.9 26.5 42.35 L28.6 42.7 29.25 42.8 M32.8 30.8 Q33.1 31.7 33.95 32.55 L36.5 34.45 35.55 35.65 35.45 35.7 33.85 36.85 30.95 33.85 30.75 33.25 31.5 32.5 32.8 30.8 M12.95 28.1 Q12.4 26.1 12.85 23.9 13.0 23.15 13.3 22.45 L13.5 21.8 Q17.45 20.35 17.2 25.0 L17.1 25.6 Q16.45 28.75 17.95 31.6 16.75 31.15 15.6 30.45 L14.3 29.45 12.95 28.1" fill="#339328" fill-rule="evenodd" stroke="none"/>
      <path d="M15.5 12.35 L15.85 12.75 Q17.0 15.4 16.95 16.85 L16.85 17.35 16.75 17.45 Q15.05 18.5 13.9 19.95 L13.0 21.35 Q12.45 22.5 12.15 23.8 11.3 27.9 13.95 31.35 L14.2 31.7 15.15 32.75 15.3 32.9 Q16.9 34.45 18.85 35.15 L19.8 35.4 21.7 35.8 23.9 35.95 25.05 37.3 Q25.85 38.75 25.95 41.1 L25.65 41.25 23.2 41.25 19.95 40.95 18.6 40.65 18.0 40.5 17.5 40.35 14.0 38.45 11.15 36.0 10.35 34.95 9.95 34.4 Q6.15 29.1 7.4 22.85 L7.5 22.35 8.2 20.0 Q9.3 17.35 11.3 15.35 12.55 14.15 14.15 13.05 14.8 12.65 15.5 12.35 M28.55 11.45 L29.9 11.95 29.95 11.95 30.2 12.1 Q31.05 12.45 31.9 12.95 L32.05 13.1 32.2 13.15 Q33.4 13.9 34.5 14.8 L35.8 16.1 36.3 16.65 Q39.85 22.3 39.2 27.2 L39.15 27.55 38.65 29.85 38.55 30.05 37.85 32.25 36.5 34.45 33.95 32.55 Q33.1 31.7 32.8 30.8 L33.85 27.95 Q34.3 25.8 33.8 23.8 33.3 22.05 32.1 20.4 30.85 18.75 29.25 17.75 L29.0 17.55 28.8 17.45 28.45 17.25 28.05 17.05 27.9 14.65 28.1 12.85 Q28.2 12.05 28.55 11.45" fill="#75d74a" fill-rule="evenodd" stroke="none"/>
      <path d="M25.95 41.1 L25.95 41.15 25.65 41.25 25.95 41.1" fill="#ecf49b" fill-rule="evenodd" stroke="none"/>
      <path d="M15.85 12.75 Q16.85 14.15 17.5 16.65 L17.6 16.95 18.5 16.6 21.3 15.9 24.4 16.0 24.6 16.05 24.4 16.0 21.4 16.05 Q19.85 16.35 18.4 17.05 L17.8 17.35 17.4 17.55 16.3 18.35 15.0 19.5 Q14.1 20.5 13.5 21.8 L13.3 22.45 Q13.0 23.15 12.85 23.9 12.4 26.1 12.95 28.1 13.3 29.6 14.25 30.95 L14.6 31.45 15.25 32.25 15.7 32.75 Q17.4 34.45 19.8 35.4 L18.85 35.15 Q16.9 34.45 15.3 32.9 L15.15 32.75 14.2 31.7 13.95 31.35 Q11.3 27.9 12.15 23.8 12.45 22.5 13.0 21.35 L13.9 19.95 Q15.05 18.5 16.75 17.45 L16.85 17.35 16.95 16.85 Q17.0 15.4 15.85 12.75 M29.95 11.95 L30.25 12.05 32.35 12.95 Q34.9 14.15 36.7 15.45 L37.1 15.75 Q39.05 17.05 40.5 19.05 L41.7 20.85 39.35 18.05 Q38.3 16.95 37.05 16.2 35.85 15.35 34.5 14.8 33.4 13.9 32.2 13.15 L32.05 13.1 31.9 12.95 Q31.05 12.45 30.2 12.1 L29.95 11.95 M36.5 34.45 L37.85 32.25 38.55 30.05 38.65 29.85 39.15 27.55 39.2 27.2 Q39.85 22.3 36.3 16.65 L36.95 17.45 37.9 18.9 Q39.0 20.75 39.5 22.7 L39.9 24.55 39.95 25.1 Q42.15 26.35 43.15 28.4 41.45 26.4 40.0 25.95 L39.65 29.1 39.55 29.55 Q39.25 31.0 38.55 32.4 37.65 34.4 36.05 36.05 L35.65 36.45 33.65 38.1 32.65 38.75 Q30.4 40.1 28.05 40.75 L25.95 41.15 25.95 41.1 28.05 40.5 Q31.1 39.45 33.4 37.7 31.7 35.75 31.05 34.05 L30.95 33.85 33.85 36.85 35.45 35.7 35.55 35.65 36.5 34.45" fill="#d7f16b" fill-rule="evenodd" stroke="none"/>
      <path d="M15.5 12.35 Q17.55 11.25 19.65 10.85 L19.9 10.75 24.2 10.55 Q24.25 12.05 24.75 14.0 L25.3 15.6 25.5 16.15 25.0 16.05 24.9 16.05 24.7 16.05 24.6 16.05 24.4 16.0 21.3 15.9 18.5 16.6 17.6 16.95 17.5 16.65 Q16.85 14.15 15.85 12.75 L15.5 12.35 M23.9 35.95 L26.65 35.5 29.25 34.3 30.75 33.25 30.95 33.85 31.05 34.05 Q31.7 35.75 33.4 37.7 31.1 39.45 28.05 40.5 L25.95 41.1 Q25.85 38.75 25.05 37.3 L23.9 35.95" fill="#9ae17b" fill-rule="evenodd" stroke="none"/>
      <path d="M43.5 28.9 L43.3 30.65 42.55 32.95 Q41.5 35.95 39.15 38.15 L36.9 37.6 35.9 36.85 35.65 36.45 36.05 36.05 Q37.65 34.4 38.55 32.4 39.25 31.0 39.55 29.55 L39.65 29.1 40.0 25.95 Q41.45 26.4 43.15 28.4 L43.5 28.9 M13.5 21.8 Q14.1 20.5 15.0 19.5 L16.3 18.35 18.15 18.2 18.3 18.25 Q19.9 18.5 21.15 19.55 18.15 21.6 17.2 25.0 17.45 20.35 13.5 21.8 M17.95 31.6 L18.0 31.75 18.9 33.1 Q20.1 34.75 21.7 35.8 L19.8 35.4 Q17.4 34.45 15.7 32.75 L15.25 32.25 14.6 31.45 14.25 30.95 Q13.3 29.6 12.95 28.1 L14.3 29.45 15.6 30.45 Q16.75 31.15 17.95 31.6" fill="#246c41" fill-rule="evenodd" stroke="none"/>
      <path d="M24.6 16.05 L24.7 16.05 24.9 16.05 25.0 16.05 25.5 16.15 27.45 16.75 28.05 17.05 28.45 17.25 28.8 17.45 29.0 17.55 29.25 17.75 Q27.5 17.45 25.85 17.75 23.9 18.0 22.15 18.95 L21.7 19.2 21.15 19.55 Q19.9 18.5 18.3 18.25 L18.15 18.2 16.3 18.35 17.4 17.55 17.8 17.35 18.4 17.05 Q19.85 16.35 21.4 16.05 L24.4 16.0 24.6 16.05 M39.15 38.15 L36.25 40.35 35.9 40.5 35.25 40.9 Q32.4 42.4 29.25 42.8 L28.6 42.7 26.5 42.35 Q24.45 41.9 23.2 41.25 L25.65 41.25 25.95 41.15 28.05 40.75 Q30.4 40.1 32.65 38.75 L33.65 38.1 35.65 36.45 35.9 36.85 36.9 37.6 39.15 38.15" fill="#1c5331" fill-rule="evenodd" stroke="none"/>
      <path d="M24.2 10.55 L19.9 10.75 19.65 10.85 Q17.55 11.25 15.5 12.35 14.8 12.65 14.15 13.05 12.55 14.15 11.3 15.35 9.3 17.35 8.2 20.0 L7.5 22.35 7.4 22.85 Q6.15 29.1 9.95 34.4 L10.35 34.95 11.15 36.0 14.0 38.45 17.5 40.35 17.6 40.35 17.75 40.4 18.0 40.5 17.6 40.35 M24.6 16.05 L24.7 16.05 24.9 16.05 25.0 16.05 25.5 16.15 27.45 16.75 28.05 17.05 28.45 17.25 28.8 17.45 29.0 17.55 29.25 17.75 Q30.85 18.75 32.1 20.4 33.3 22.05 33.8 23.8 34.3 25.8 33.85 27.95 L32.8 30.8 31.5 32.5 30.75 33.25 29.25 34.3 26.65 35.5 23.9 35.95 21.7 35.8 Q20.1 34.75 18.9 33.1 L18.0 31.75 17.95 31.6 Q16.45 28.75 17.1 25.6 L17.2 25.0 Q18.15 21.6 21.15 19.55 L21.7 19.2 22.15 18.95 Q23.9 18.0 25.85 17.75 27.5 17.45 29.25 17.75 M24.2 10.55 L26.3 10.85 28.55 11.45 29.9 11.95 29.95 11.95 30.25 12.05 32.35 12.95 Q34.9 14.15 36.7 15.45 L37.1 15.75 Q39.05 17.05 40.5 19.05 L41.7 20.85 Q43.5 23.95 43.6 27.4 L43.5 28.9 43.3 30.65 42.55 32.95 Q41.5 35.95 39.15 38.15 L36.25 40.35 35.9 40.5 35.25 40.9 Q32.4 42.4 29.25 42.8 L25.45 42.55 18.6 40.65 18.0 40.5 17.5 40.35 M19.8 35.4 L21.7 35.8 M19.8 35.4 L18.85 35.15" fill="none" stroke="#000000" stroke-linecap="round" stroke-linejoin="round" stroke-opacity="0.3019608" stroke-width="0.30000000000000004"/>
      <path d="M20.55 21.55 L19.8 22.65 18.75 23.0 19.65 21.3 20.55 21.55 M16.4 19.95 L16.3 19.2 Q18.5 17.3 21.1 16.75 L20.35 18.9 17.95 19.0 16.4 19.95" fill="#339328" fill-rule="evenodd" stroke="none"/>
      <path d="M16.5 20.65 L16.4 19.95 17.95 19.0 Q20.45 18.6 20.05 19.65 L18.6 22.5 Q17.7 22.3 16.5 20.65" fill="#75d74a" fill-rule="evenodd" stroke="none"/>
      <path d="M21.1 16.75 L21.35 16.65 Q20.7 19.25 19.65 21.3 L18.75 23.0 18.0 22.9 Q16.8 22.15 16.5 20.65 17.7 22.3 18.6 22.5 L20.05 19.65 Q20.45 18.6 17.95 19.0 L20.35 18.9 21.1 16.75" fill="#d7f16b" fill-rule="evenodd" stroke="none"/>
      <path d="M21.35 16.65 L21.85 17.65 Q21.45 19.9 20.55 21.55 L19.65 21.3 Q20.7 19.25 21.35 16.65" fill="#246c41" fill-rule="evenodd" stroke="none"/>
      <path d="M21.1 16.75 L21.35 16.65 21.85 17.65 Q21.45 19.9 20.55 21.55 L19.8 22.65 18.75 23.0 18.0 22.9 Q16.8 22.15 16.5 20.65 L16.4 19.95 16.3 19.2 Q18.5 17.3 21.1 16.75 Z" fill="none" stroke="#000000" stroke-linecap="round" stroke-linejoin="round" stroke-opacity="0.3019608" stroke-width="0.30000000000000004"/>
      <path d="M21.05 18.5 L21.1 18.0 23.05 18.05 Q26.85 18.85 26.25 20.5 L25.8 21.25 Q24.75 23.0 23.65 23.35 L22.4 23.15 Q21.4 22.15 21.05 18.5" fill="#75d74a" fill-rule="evenodd" stroke="none"/>
      <path d="M27.0 21.95 L25.3 23.8 23.65 23.95 Q24.95 23.3 26.0 21.85 27.25 20.9 27.0 21.95 M21.1 18.0 L21.3 16.7 27.65 17.0 26.75 19.4 Q26.1 18.2 23.05 18.05 L21.1 18.0" fill="#339328" fill-rule="evenodd" stroke="none"/>
      <path d="M27.65 17.0 L28.15 17.15 Q27.25 20.1 26.0 21.85 24.95 23.3 23.65 23.95 L22.15 23.4 Q20.9 21.6 21.05 18.5 21.4 22.15 22.4 23.15 L23.65 23.35 Q24.75 23.0 25.8 21.25 L26.25 20.5 Q26.85 18.85 23.05 18.05 26.1 18.2 26.75 19.4 L27.65 17.0" fill="#d7f16b" fill-rule="evenodd" stroke="none"/>
      <path d="M28.15 17.15 L28.9 17.55 Q28.05 20.35 27.0 21.95 27.25 20.9 26.0 21.85 27.25 20.1 28.15 17.15" fill="#246c41" fill-rule="evenodd" stroke="none"/>
      <path d="M27.65 17.0 L28.15 17.15 28.9 17.55 Q28.05 20.35 27.0 21.95 L25.3 23.8 23.65 23.95 22.15 23.4 Q20.9 21.6 21.05 18.5 L21.1 18.0 21.3 16.7 27.65 17.0 Z" fill="none" stroke="#000000" stroke-linecap="round" stroke-linejoin="round" stroke-opacity="0.3019608" stroke-width="0.30000000000000004"/>
      <path d="M28.45 18.6 L30.6 20.05 Q32.55 22.6 30.95 24.45 L30.65 24.6 30.1 24.95 28.7 24.45 Q27.9 22.35 28.45 18.6" fill="#75d74a" fill-rule="evenodd" stroke="none"/>
      <path d="M28.6 17.35 L28.8 17.45 29.0 17.55 Q30.8 18.6 32.1 20.4 L33.1 22.0 31.85 23.7 Q32.2 21.65 30.6 20.05 L28.45 18.6 28.6 17.35 M32.55 24.5 L31.55 25.35 30.1 25.5 31.6 24.4 32.55 24.5" fill="#339328" fill-rule="evenodd" stroke="none"/>
      <path d="M28.6 17.35 L28.45 18.6 Q27.9 22.35 28.7 24.45 L30.1 24.95 30.65 24.6 30.95 24.45 Q32.55 22.6 30.6 20.05 32.2 21.65 31.85 23.7 L33.1 22.0 33.3 22.45 31.6 24.4 30.1 25.5 28.4 24.7 Q27.3 20.7 28.3 17.25 L28.45 17.3 28.55 17.35 28.6 17.35" fill="#d7f16b" fill-rule="evenodd" stroke="none"/>
      <path d="M33.3 22.45 L33.6 23.25 32.55 24.5 31.6 24.4 33.3 22.45" fill="#246c41" fill-rule="evenodd" stroke="none"/>
      <path d="M33.1 22.0 L32.1 20.4 Q30.8 18.6 29.0 17.55 L28.8 17.45 28.6 17.35 28.55 17.35 28.45 17.3 28.3 17.25 Q27.3 20.7 28.4 24.7 L30.1 25.5 31.55 25.35 32.55 24.5 33.6 23.25 33.3 22.45 33.1 22.0 Z" fill="none" stroke="#000000" stroke-linecap="round" stroke-linejoin="round" stroke-opacity="0.3019608" stroke-width="0.30000000000000004"/>
      <path d="M17.2 27.45 L17.9 28.2 Q18.3 29.25 18.35 30.6 L17.6 29.9 17.2 27.45 M17.3 33.8 Q14.75 31.95 13.9 29.8 L14.85 30.85 Q16.65 32.55 17.4 30.85 L17.3 33.8" fill="#339328" fill-rule="evenodd" stroke="none"/>
      <path d="M13.9 29.8 L13.8 29.45 Q14.8 27.8 15.45 27.7 L16.95 27.9 17.35 30.25 Q16.6 32.25 14.85 30.85 L13.9 29.8" fill="#75d74a" fill-rule="evenodd" stroke="none"/>
      <path d="M13.8 29.45 Q14.35 27.6 15.55 27.2 L17.2 27.45 17.6 29.9 Q17.7 31.65 17.3 33.8 L17.4 30.85 Q16.65 32.55 14.85 30.85 16.6 32.25 17.35 30.25 L16.95 27.9 15.45 27.7 Q14.8 27.8 13.8 29.45" fill="#d7f16b" fill-rule="evenodd" stroke="none"/>
      <path d="M18.35 30.6 L18.15 33.35 17.3 33.8 Q17.7 31.65 17.6 29.9 L18.35 30.6" fill="#246c41" fill-rule="evenodd" stroke="none"/>
      <path d="M17.2 27.45 L17.9 28.2 Q18.3 29.25 18.35 30.6 L18.15 33.35 17.3 33.8 Q14.75 31.95 13.9 29.8 L13.8 29.45 Q14.35 27.6 15.55 27.2 L17.2 27.45 Z" fill="none" stroke="#000000" stroke-linecap="round" stroke-linejoin="round" stroke-opacity="0.3019608" stroke-width="0.30000000000000004"/>
      <path d="M17.3 33.5 Q19.5 30.8 20.85 29.9 L22.35 30.1 Q22.55 34.2 21.1 34.9 L18.45 34.8 Q17.75 34.3 17.2 33.7 L17.3 33.5" fill="#75d74a" fill-rule="evenodd" stroke="none"/>
      <path d="M23.85 32.75 L23.05 32.45 22.6 29.8 23.4 30.45 23.85 32.75 M18.45 34.8 L21.1 34.9 Q22.65 34.3 22.6 31.45 L23.05 35.9 Q20.15 35.9 18.45 34.8" fill="#339328" fill-rule="evenodd" stroke="none"/>
      <path d="M22.6 29.8 L23.05 32.45 23.35 35.9 23.05 35.9 22.6 31.45 Q22.65 34.3 21.1 34.9 22.55 34.2 22.35 30.1 L20.85 29.9 Q19.5 30.8 17.3 33.5 18.9 31.0 20.9 29.55 L22.6 29.8" fill="#d7f16b" fill-rule="evenodd" stroke="none"/>
      <path d="M23.05 32.45 L23.85 32.75 24.3 35.1 23.35 35.9 23.05 32.45" fill="#246c41" fill-rule="evenodd" stroke="none"/>
      <path d="M23.85 32.75 L23.4 30.45 22.6 29.8 20.9 29.55 Q18.9 31.0 17.3 33.5 L17.2 33.7 Q17.75 34.3 18.45 34.8 20.15 35.9 23.05 35.9 L23.35 35.9 24.3 35.1 23.85 32.75 Z" fill="none" stroke="#000000" stroke-linecap="round" stroke-linejoin="round" stroke-opacity="0.3019608" stroke-width="0.30000000000000004"/>
      <path d="M29.85 33.1 L28.95 32.7 28.6 31.2 29.6 31.9 29.85 33.1 M28.7 34.6 Q26.7 35.7 24.5 35.85 25.9 35.5 26.8 34.9 28.15 34.05 28.65 32.75 L28.7 34.6" fill="#339328" fill-rule="evenodd" stroke="none"/>
      <path d="M24.5 35.85 L23.8 35.95 Q25.25 32.45 26.95 31.45 L28.35 31.65 Q28.5 33.4 26.8 34.9 25.9 35.5 24.5 35.85" fill="#75d74a" fill-rule="evenodd" stroke="none"/>
      <path d="M28.95 32.7 L29.1 34.4 28.7 34.6 28.65 32.75 Q28.15 34.05 26.8 34.9 28.5 33.4 28.35 31.65 L26.95 31.45 Q25.25 32.45 23.8 35.95 L23.35 35.95 Q24.65 32.35 26.9 30.95 L28.6 31.2 28.95 32.7" fill="#d7f16b" fill-rule="evenodd" stroke="none"/>
      <path d="M29.85 33.1 L30.0 33.8 29.25 34.3 29.1 34.4 28.95 32.7 29.85 33.1" fill="#246c41" fill-rule="evenodd" stroke="none"/>
      <path d="M29.1 34.4 L29.25 34.3 30.0 33.8 29.85 33.1 29.6 31.9 28.6 31.2 26.9 30.95 Q24.65 32.35 23.35 35.95 L23.8 35.95 24.5 35.85 Q26.7 35.7 28.7 34.6 L29.1 34.4 Z" fill="none" stroke="#000000" stroke-linecap="round" stroke-linejoin="round" stroke-opacity="0.3019608" stroke-width="0.30000000000000004"/>
      <path d="M41.7 22.85 Q43.0 22.75 44.1 21.75 L44.25 21.6 Q45.3 20.55 45.65 19.1 45.85 19.05 46.05 19.25 46.55 19.6 47.1 21.3 L47.15 21.65 Q46.8 23.25 45.6 24.3 L44.25 25.2 43.05 24.4 Q41.85 23.5 41.7 22.85 M45.85 18.1 L45.85 18.05 45.85 18.1 M39.45 16.25 L39.9 15.75 Q40.35 15.4 40.85 15.3 42.35 15.75 42.3 16.8 L41.85 16.7 Q41.2 16.55 40.7 17.0 40.2 17.45 40.1 18.2 L40.05 18.55 Q39.15 17.55 39.45 16.25" fill="#339328" fill-rule="evenodd" stroke="none"/>
      <path d="M45.35 15.05 L44.75 14.05 44.15 13.25 Q45.7 14.65 46.5 16.2 L46.55 16.4 46.95 17.35 Q45.95 15.2 45.35 15.05 M36.65 16.2 Q37.5 12.75 40.6 12.4 L40.6 14.9 Q40.05 14.95 39.65 15.35 38.95 15.95 38.85 16.9 38.75 17.9 39.3 18.7 L39.65 19.1 Q40.0 19.4 40.4 19.5 L40.7 19.6 41.15 22.35 39.9 22.0 Q39.05 18.9 36.65 16.2 M42.3 15.05 Q42.65 13.25 43.4 13.3 L44.7 14.7 Q46.1 16.75 45.0 19.75 L44.25 20.9 Q43.3 20.8 42.5 19.25 L42.4 18.9 Q42.9 18.35 43.0 17.55 L43.0 17.5 42.95 16.6 42.8 16.2 42.55 15.75 42.35 15.5 42.3 15.05" fill="#75d74a" fill-rule="evenodd" stroke="none"/>
      <path d="M44.15 13.25 L44.75 14.05 45.35 15.05 45.65 15.85 Q45.95 16.85 45.85 18.05 L45.85 18.1 46.15 18.45 Q46.7 19.3 47.1 21.3 46.55 19.6 46.05 19.25 45.85 19.05 45.65 19.1 45.3 20.55 44.25 21.6 L44.1 21.75 Q43.0 22.75 41.7 22.85 L40.6 22.85 40.05 22.75 39.9 22.0 41.15 22.35 Q42.65 22.5 43.8 21.35 43.1 21.0 42.5 19.25 43.3 20.8 44.25 20.9 L45.0 19.75 Q46.1 16.75 44.7 14.7 L43.4 13.3 Q42.65 13.25 42.3 15.05 42.35 13.65 42.95 13.0 42.0 12.45 40.9 12.4 L40.6 12.4 Q37.5 12.75 36.65 16.2 L36.45 16.0 Q36.75 14.2 38.0 13.05 39.6 11.65 41.55 11.95 43.05 12.15 44.15 13.25 M40.85 15.3 Q40.35 15.4 39.9 15.75 L39.45 16.25 Q39.15 16.75 39.1 17.35 39.0 18.05 39.3 18.7 38.75 17.9 38.85 16.9 38.95 15.95 39.65 15.35 40.05 14.95 40.6 14.9 L41.2 14.9 Q41.85 15.0 42.35 15.5 L42.55 15.75 42.8 16.2 Q42.25 15.4 41.4 15.3 L40.85 15.3" fill="#d7f16b" fill-rule="evenodd" stroke="none"/>
      <path d="M45.35 15.05 Q45.95 15.2 46.95 17.35 47.35 18.5 47.35 19.7 L47.35 19.85 47.35 20.65 47.15 21.65 47.1 21.3 Q46.7 19.3 46.15 18.45 L45.85 18.1 45.85 18.05 Q45.95 16.85 45.65 15.85 L45.35 15.05 M40.05 22.75 L40.6 22.85 41.7 22.85 Q41.85 23.5 43.05 24.4 L44.25 25.2 43.15 25.45 40.05 22.75 M40.85 15.3 L41.4 15.3 Q42.25 15.4 42.8 16.2 L42.95 16.6 43.0 17.5 42.9 17.35 42.6 17.05 42.3 16.8 Q42.35 15.75 40.85 15.3 M39.3 18.7 Q39.0 18.05 39.1 17.35 39.15 16.75 39.45 16.25 39.15 17.55 40.05 18.55 L40.15 18.95 40.4 19.5 Q40.0 19.4 39.65 19.1 L39.3 18.7" fill="#246c41" fill-rule="evenodd" stroke="none"/>
      <path d="M40.6 12.4 L40.9 12.4 Q42.0 12.45 42.95 13.0 42.35 13.65 42.3 15.05 L42.35 15.5 Q41.85 15.0 41.2 14.9 L40.6 14.9 40.6 12.4 M42.5 19.25 Q43.1 21.0 43.8 21.35 42.65 22.5 41.15 22.35 L40.7 19.6 Q41.55 19.7 42.2 19.1 L42.4 18.9 42.5 19.25" fill="#9ae17b" fill-rule="evenodd" stroke="none"/>
      <path d="M46.95 17.35 L46.55 16.4 46.5 16.2 Q45.7 14.65 44.15 13.25 43.05 12.15 41.55 11.95 39.6 11.65 38.0 13.05 36.75 14.2 36.45 16.0 L36.65 16.2 Q39.05 18.9 39.9 22.0 L40.05 22.75 43.15 25.45 44.25 25.2 45.6 24.3 Q46.8 23.25 47.15 21.65 L47.35 20.65 47.35 19.85 47.35 19.7 Q47.35 18.5 46.95 17.35 M45.85 18.1 L45.85 18.05 M40.05 18.55 L40.1 18.2 Q40.2 17.45 40.7 17.0 41.2 16.55 41.85 16.7 L42.3 16.8 42.6 17.05 42.9 17.35 43.0 17.5 43.0 17.55 Q42.9 18.35 42.4 18.9 L42.2 19.1 Q41.55 19.7 40.7 19.6 L40.4 19.5 Q40.0 19.4 39.65 19.1 L39.3 18.7 M43.0 17.5 L42.95 16.6 42.8 16.2 M40.4 19.5 L40.15 18.95 40.05 18.55" fill="none" stroke="#000000" stroke-linecap="round" stroke-linejoin="round" stroke-opacity="0.3019608" stroke-width="0.30000000000000004"/>
      <path d="M36.0 42.2 Q35.95 44.1 35.0 45.9 35.25 44.15 34.85 41.7 L34.8 41.15 36.0 42.2 M31.55 42.3 L31.0 41.25 Q33.05 40.5 34.05 39.65 L34.55 41.8 Q33.8 40.65 32.85 41.15 32.25 41.4 31.55 42.3" fill="#339328" fill-rule="evenodd" stroke="none"/>
      <path d="M35.0 45.9 Q32.95 44.95 31.55 42.3 32.25 41.4 32.85 41.15 33.65 40.85 34.3 41.95 L34.75 43.05 34.75 43.1 34.75 43.25 35.0 45.9" fill="#75d74a" fill-rule="evenodd" stroke="none"/>
      <path d="M34.05 39.65 L34.3 39.3 34.8 41.15 34.85 41.7 Q35.25 44.15 35.0 45.9 L34.75 43.25 34.75 43.1 34.75 43.05 34.3 41.95 Q33.65 40.85 32.85 41.15 33.8 40.65 34.55 41.8 L34.05 39.65" fill="#d7f16b" fill-rule="evenodd" stroke="none"/>
      <path d="M34.3 39.3 L35.7 40.25 35.95 41.3 36.0 42.2 34.8 41.15 34.3 39.3" fill="#246c41" fill-rule="evenodd" stroke="none"/>
      <path d="M34.3 39.3 L35.7 40.25 35.95 41.3 36.0 42.2 Q35.95 44.1 35.0 45.9 32.95 44.95 31.55 42.3 L31.0 41.25 Q33.05 40.5 34.05 39.65 L34.3 39.3 Z" fill="none" stroke="#000000" stroke-linecap="round" stroke-linejoin="round" stroke-opacity="0.3019608" stroke-width="0.30000000000000004"/>
      <path d="M23.2 42.45 L21.35 42.25 21.35 41.45 24.95 41.75 24.6 43.2 Q23.95 42.65 23.2 42.45 M25.9 44.45 Q24.85 46.9 22.9 48.15 24.15 46.5 24.95 43.45 L25.1 43.0 25.9 44.45" fill="#339328" fill-rule="evenodd" stroke="none"/>
      <path d="M22.75 47.9 Q21.35 45.7 21.35 42.25 L23.2 42.45 Q24.35 42.95 24.45 43.55 L24.45 43.7 24.4 43.9 22.75 47.9" fill="#75d74a" fill-rule="evenodd" stroke="none"/>
      <path d="M25.4 41.65 L26.5 42.6 26.3 43.25 25.9 44.45 25.1 43.0 25.4 41.65" fill="#246c41" fill-rule="evenodd" stroke="none"/>
      <path d="M22.75 47.9 L24.4 43.9 24.45 43.7 24.45 43.55 Q24.35 42.95 23.2 42.45 23.95 42.65 24.6 43.2 L24.95 41.75 25.4 41.65 25.1 43.0 24.95 43.45 Q24.15 46.5 22.9 48.15 L22.75 47.9" fill="#d7f16b" fill-rule="evenodd" stroke="none"/>
      <path d="M21.35 42.25 Q21.35 45.7 22.75 47.9 L22.9 48.15 Q24.85 46.9 25.9 44.45 L26.3 43.25 26.5 42.6 25.4 41.65 24.95 41.75 21.35 41.45 21.35 42.25 Z" fill="none" stroke="#000000" stroke-linecap="round" stroke-linejoin="round" stroke-opacity="0.3019608" stroke-width="0.30000000000000004"/>
    </g>
    <g id="sprite1" transform="matrix(1.0, 0.0, 0.0, 1.0, 0.0, 0.0)">
      <use height="26.7" transform="matrix(0.0042, -1.3515, 1.3935, 0.02, 22.09, 56.0263)" width="26.7" xlink:href="#sprite2"/>
      <use height="26.7" transform="matrix(0.0095, -3.0486, 0.372, 0.0053, 36.507, 81.3775)" width="26.7" xlink:href="#sprite2"/>
      <use height="26.7" transform="matrix(3.0486, 0.0095, -0.0053, 0.372, 0.1225, 35.107)" width="26.7" xlink:href="#sprite2"/>
    </g>
    <g id="sprite2" transform="matrix(1.0, 0.0, 0.0, 1.0, 13.35, 13.35)">
      <use height="26.7" transform="matrix(1.0, 0.0, 0.0, 1.0, -13.35, -13.35)" width="26.7" xlink:href="#shape1"/>
    </g>
    <g id="shape1" transform="matrix(1.0, 0.0, 0.0, 1.0, 13.35, 13.35)">
      <path d="M9.3 -9.85 Q13.35 -5.8 13.35 0.0 13.35 5.8 9.3 9.3 5.8 13.35 0.0 13.35 -5.8 13.35 -9.85 9.3 -13.35 5.8 -13.35 0.0 -13.35 -5.8 -9.85 -9.85 -5.8 -13.35 0.0 -13.35 5.8 -13.35 9.3 -9.85" fill="url(#gradient0)" fill-rule="evenodd" stroke="none"/>
    </g>
    <radialGradient cx="0" cy="0" gradientTransform="matrix(0.0213, 0.0, 0.0, 0.0213, 0.0, 0.0)" gradientUnits="userSpaceOnUse" id="gradient0" r="819.2" spreadMethod="pad">
      <stop offset="0.19607843137254902" stop-color="#fee3bc" stop-opacity="0.41960785"/>
      <stop offset="0.5019607843137255" stop-color="#fee3bc" stop-opacity="0.06666667"/>
      <stop offset="0.7607843137254902" stop-color="#ffe3bd" stop-opacity="0.0"/>
    </radialGradient>
    <g id="shape2" transform="matrix(1.0, 0.0, 0.0, 1.0, -38.85, -15.5)">
      <path d="M40.25 18.2 L40.6 16.6 41.3 16.35 Q41.05 17.25 41.3 18.2 L40.8 18.55 40.25 18.2 M40.7 19.6 L40.9 18.8 42.2 18.1 42.75 18.4 42.4 18.9 42.2 19.1 Q41.55 19.7 40.7 19.6" fill="#cc6b22" fill-rule="evenodd" stroke="none"/>
      <path d="M39.45 17.9 L40.55 18.75 40.7 19.6 40.4 19.5 39.8 19.25 39.45 17.9 M42.8 18.3 L42.25 17.8 42.4 16.3 43.0 16.9 43.0 17.5 43.0 17.55 42.8 18.3" fill="#f4a33c" fill-rule="evenodd" stroke="none"/>
      <path d="M40.25 18.2 L39.65 17.8 40.25 16.7 40.6 16.6 40.25 18.2 M41.3 16.35 L41.85 16.1 42.1 16.45 42.1 17.3 41.85 17.9 41.3 18.2 Q41.05 17.25 41.3 16.35" fill="#ffde4f" fill-rule="evenodd" stroke="none"/>
      <path d="M40.6 16.6 L40.25 16.7 39.65 17.8 40.25 18.2 40.8 18.55 41.3 18.2 41.85 17.9 42.1 17.3 42.1 16.45 41.85 16.1 41.3 16.35 40.6 16.6 M39.45 17.9 L40.0 16.5 41.75 15.95 42.4 16.3 42.25 17.8 42.8 18.3 42.75 18.4 42.2 18.1 40.9 18.8 40.7 19.6 40.55 18.75 39.45 17.9" fill="#ffff98" fill-rule="evenodd" stroke="none"/>
      <path d="M42.4 16.3 L41.75 15.95 40.0 16.5 39.45 17.9 39.8 19.25 39.65 19.1 39.3 18.7 M42.75 18.4 L42.8 18.3 43.0 17.55 43.0 17.5 43.0 16.9 42.95 16.6 42.8 16.2 M42.4 16.3 L43.0 16.9 M42.75 18.4 L42.4 18.9 42.2 19.1 Q41.55 19.7 40.7 19.6 L40.4 19.5 39.8 19.25" fill="none" stroke="#000000" stroke-linecap="round" stroke-linejoin="round" stroke-opacity="0.3019608" stroke-width="0.30000000000000004"/>
    </g>
  </defs>
</svg>
