<?xml version="1.0" encoding="UTF-8" standalone="no"?>
<svg xmlns:xlink="http://www.w3.org/1999/xlink" height="52.0px" width="52.0px" xmlns="http://www.w3.org/2000/svg">
  <g transform="matrix(1.0, 0.0, 0.0, 1.0, 0.0, 0.0)">
    <use height="54.0" transform="matrix(1.0, 0.0, 0.0, 1.0, -1.0, -1.0)" width="54.0" xlink:href="#shape0"/>
    <use height="81.5" transform="matrix(0.0575, 0.0, 0.0, 0.0575, 21.65, 20.25)" width="81.5" xlink:href="#sprite0"/>
    <use height="81.5" transform="matrix(0.0478, 0.0, 0.0, 0.0478, 11.55, 18.1)" width="81.5" xlink:href="#sprite0"/>
    <use height="0.0" transform="matrix(0.1009, 0.0, 0.0, 0.1339, 28.55, 19.3)" width="0.0" xlink:href="#sprite2"/>
    <use height="0.0" transform="matrix(0.0862, 0.0231, -0.0154, 0.0577, 22.85, 37.25)" width="0.0" xlink:href="#sprite2"/>
    <use height="0.0" transform="matrix(0.1088, 0.0291, -0.0058, 0.0217, 15.65, 41.0)" width="0.0" xlink:href="#sprite2"/>
    <use height="0.0" transform="matrix(0.022, 0.0381, -0.0638, 0.0368, 39.6, 24.85)" width="0.0" xlink:href="#sprite2"/>
    <use height="0.0" transform="matrix(0.02, 0.0346, -0.0497, 0.0287, 16.75, 24.95)" width="0.0" xlink:href="#sprite2"/>
    <use height="81.5" transform="matrix(0.134, 0.0, 0.0, 0.1511, 26.2, 18.85)" width="81.5" xlink:href="#sprite0"/>
    <use height="81.5" transform="matrix(0.089, 0.0, 0.0, 0.1003, 15.45, 36.65)" width="81.5" xlink:href="#sprite0"/>
  </g>
  <defs>
    <g id="shape0" transform="matrix(1.0, 0.0, 0.0, 1.0, 1.0, 1.0)">
      <path d="M52.0 0.0 L52.0 52.0 0.0 52.0 0.0 0.0 52.0 0.0" fill="#795fa9" fill-opacity="0.0" fill-rule="evenodd" stroke="none"/>
      <path d="M47.35 21.75 L48.35 23.5 45.25 26.1 35.75 31.65 34.5 31.8 33.05 33.35 30.4 33.35 30.6 36.0 29.1 39.05 29.75 40.75 30.35 42.45 29.4 44.4 27.75 45.45 20.25 44.8 5.3 39.25 4.0 37.3 3.65 36.05 3.65 35.5 6.1 31.9 7.65 31.15 9.55 31.15 10.7 32.3 12.1 29.6 13.4 28.7 12.75 27.4 11.35 27.0 11.15 26.85 9.65 25.3 9.3 23.6 9.65 22.95 8.9 19.15 7.25 15.4 7.25 14.0 8.5 13.55 12.0 13.95 15.15 15.2 17.2 13.5 18.3 11.65 20.5 10.1 24.4 7.0 28.25 6.8 30.15 7.65 31.95 9.75 33.75 11.05 34.45 12.55 37.15 19.25 40.75 20.15 43.3 21.35 46.95 21.65 47.35 21.75 Z" fill="none" stroke="#000000" stroke-linecap="round" stroke-linejoin="round" stroke-opacity="0.3019608" stroke-width="1.0"/>
      <path d="M13.45 33.15 L13.5 33.15 13.55 33.25 13.45 33.15 M14.55 32.5 L14.45 32.35 14.5 32.3 14.55 32.5 M19.7 37.75 L19.55 37.7 19.7 37.7 19.7 37.75" fill="#92f458" fill-rule="evenodd" stroke="none"/>
      <path d="M18.85 32.55 L18.15 32.65 18.8 32.45 18.85 32.55 M19.9 37.75 L19.7 37.75 19.7 37.7 19.9 37.7 19.9 37.75" fill="#d1fba6" fill-rule="evenodd" stroke="none"/>
      <path d="M4.0 37.3 L3.7 36.05 4.9 37.3 4.0 37.3 M8.9 31.15 L9.6 31.15 10.4 32.0 10.45 32.0 Q10.1 32.6 10.95 33.8 L9.45 33.0 Q9.55 32.1 9.1 31.4 L8.9 31.15 M28.6 29.9 L30.15 30.35 28.8 34.1 28.6 34.65 28.6 29.9 M29.15 39.05 L29.75 40.75 27.4 38.5 27.8 38.3 28.75 38.1 29.15 39.05 M27.95 45.35 L27.8 45.45 25.75 43.8 24.5 41.95 25.75 41.6 25.3 42.35 26.15 43.65 27.95 45.35 M9.35 40.75 L5.35 39.25 4.4 37.9 4.4 37.5 5.45 38.9 9.35 40.75 M8.55 37.9 L8.55 37.85 Q8.45 36.3 7.95 35.2 L7.3 34.2 8.9 33.35 9.85 33.65 9.95 34.45 Q10.2 35.6 10.9 36.85 L11.2 37.35 11.2 38.15 11.65 38.65 8.55 37.9 M16.35 33.65 L16.6 34.15 14.75 35.3 14.55 34.8 16.35 33.65 M23.0 32.45 L22.6 31.7 23.65 30.7 24.2 31.25 23.0 32.45 M18.15 32.65 L16.8 27.0 18.8 32.45 18.15 32.65 M20.95 33.65 L22.9 33.35 24.55 31.75 25.7 34.9 26.35 36.8 25.9 37.3 26.35 36.8 27.35 35.8 27.9 37.9 25.9 37.3 25.55 37.2 24.55 37.3 24.05 35.4 Q23.6 34.25 23.0 33.65 L20.95 33.65 M28.35 34.85 L28.6 34.65 28.8 34.1 29.95 32.45 30.2 35.7 29.6 37.25 28.35 34.85 M28.55 42.3 L27.5 42.15 26.35 41.2 25.85 39.3 26.5 38.95 28.55 42.3" fill="#cc6b22" fill-rule="evenodd" stroke="none"/>
      <path d="M26.25 29.2 L27.0 29.45 26.15 30.3 24.55 31.75 22.9 33.35 20.95 33.65 18.8 33.95 18.75 34.0 17.7 34.15 16.8 34.75 14.55 36.2 12.75 37.4 12.75 38.8 12.4 38.3 12.4 36.7 14.75 35.3 16.6 34.15 17.5 33.6 22.65 32.8 23.0 32.45 24.2 31.25 26.25 29.2 M30.15 30.35 L30.65 36.0 29.15 39.05 28.75 38.1 27.9 37.9 27.35 35.8 28.35 34.85 29.6 37.25 30.2 35.7 29.95 32.45 28.8 34.1 30.15 30.35 M29.75 40.75 L30.4 42.45 29.4 44.4 27.95 45.35 26.15 43.65 25.3 42.35 25.75 41.6 25.9 41.55 27.5 42.45 27.8 42.75 29.5 43.75 30.4 42.45 29.55 42.45 28.55 42.3 26.5 38.95 27.4 38.5 29.75 40.75 M22.65 45.0 L20.25 44.8 12.9 42.1 12.2 40.95 12.0 40.7 10.7 39.35 9.85 38.65 12.95 39.25 16.2 40.2 16.7 41.45 Q18.3 43.4 20.25 44.35 L25.55 45.1 22.65 45.0 M21.1 30.65 Q19.85 30.8 18.6 29.15 L19.15 31.55 17.85 27.55 Q18.6 28.9 20.15 30.25 L20.35 30.4 20.6 30.5 21.1 30.65 M23.55 41.75 L24.5 41.95 25.75 43.8 19.1 40.75 23.55 41.75" fill="#a34100" fill-rule="evenodd" stroke="none"/>
      <path d="M27.0 29.45 L28.05 29.75 28.3 34.35 26.35 36.8 25.7 34.9 25.1 31.85 26.15 30.3 27.0 29.45 M10.95 32.6 L12.1 30.6 12.35 30.65 12.65 31.0 13.45 33.15 13.55 33.25 13.65 34.9 11.2 36.55 11.2 37.35 10.9 36.85 Q10.2 35.6 9.95 34.45 L9.85 33.65 12.6 34.65 13.35 35.0 10.95 32.6 M15.35 33.75 L14.65 32.7 14.55 32.5 14.5 32.3 14.25 31.4 14.1 30.25 Q14.05 29.15 14.55 28.5 L16.05 27.5 16.8 32.75 15.35 33.75 M7.3 34.2 L7.95 35.2 Q8.45 36.3 8.55 37.85 L8.55 37.9 6.15 37.3 4.9 37.3 4.4 35.85 7.3 34.2 M18.75 34.0 L18.8 33.95 20.95 33.65 23.0 33.65 Q23.6 34.25 24.05 35.4 L24.55 37.3 23.5 37.4 19.9 37.7 19.7 37.7 19.55 37.7 19.7 37.75 19.9 37.75 24.4 39.05 25.55 40.4 25.9 41.55 25.75 41.6 24.5 41.95 23.55 41.75 19.6 40.5 19.4 40.3 Q18.55 39.45 17.95 38.1 L17.65 37.15 Q17.35 35.4 17.65 34.7 L18.75 34.0 M12.75 38.8 L12.75 37.4 14.55 36.2 Q15.15 37.9 14.7 39.4 L12.75 38.8" fill="#f4a33c" fill-rule="evenodd" stroke="none"/>
      <path d="M12.9 42.1 L9.5 40.8 9.35 40.75 5.45 38.9 4.4 37.5 5.95 37.5 9.85 38.65 10.7 39.35 12.0 40.7 12.2 40.95 12.9 42.1 M11.65 38.65 L11.2 38.15 11.45 38.15 11.7 38.15 12.4 38.3 12.75 38.8 11.65 38.65 M27.8 42.75 L27.5 42.45 29.55 42.45 30.4 42.45 29.5 43.75 27.8 42.75 M25.55 45.1 L20.25 44.35 Q18.3 43.4 16.7 41.45 L16.2 40.2 18.95 41.05 25.05 43.85 26.9 45.15 25.55 45.1" fill="#560000" fill-rule="evenodd" stroke="none"/>
      <path d="M4.0 37.3 L4.9 37.3 6.15 37.3 8.55 37.9 11.65 38.65 12.75 38.8 14.7 39.4 18.8 40.65 17.95 38.1 Q18.55 39.45 19.4 40.3 L19.6 40.5 23.55 41.75 19.1 40.75 25.75 43.8 27.8 45.45 22.65 45.0 25.55 45.1 26.9 45.15 25.05 43.85 18.95 41.05 16.2 40.2 12.95 39.25 9.85 38.65 5.95 37.5 4.4 37.5 4.4 37.9 4.0 37.3 M3.7 35.5 L6.15 31.9 7.4 31.3 8.25 32.7 5.6 34.55 3.7 35.5 M7.7 31.15 L8.9 31.15 9.1 31.4 Q9.55 32.1 9.45 33.0 L9.0 32.8 7.7 31.15 M10.45 32.0 L10.7 32.3 12.1 29.6 12.7 30.4 12.8 30.6 13.1 31.35 13.5 33.15 13.45 33.15 12.65 31.0 12.35 30.65 12.1 30.6 10.95 32.6 10.7 32.3 10.95 32.6 13.35 35.0 12.6 34.65 10.95 33.8 Q10.1 32.6 10.45 32.0 M13.8 28.4 L15.95 26.9 16.75 27.0 16.8 27.0 18.15 32.65 18.85 32.55 22.05 32.15 22.6 31.7 23.0 32.45 22.65 32.8 17.5 33.6 16.6 34.15 16.35 33.65 17.2 33.1 16.05 27.5 14.55 28.5 Q14.05 29.15 14.1 30.25 L14.25 31.4 14.5 32.3 14.45 32.35 14.4 32.3 14.05 31.3 13.85 30.35 13.75 29.05 13.8 28.4 M25.65 28.85 L26.25 29.2 24.2 31.25 23.65 30.7 25.65 28.85 M28.05 29.75 L28.6 29.9 28.6 34.65 28.35 34.85 27.35 35.8 26.35 36.8 28.3 34.35 28.05 29.75 M15.95 26.9 L16.05 27.5 15.95 26.9 M14.55 34.8 L14.75 35.3 12.4 36.7 11.7 38.15 11.45 38.15 11.45 36.75 14.55 34.8 M16.8 34.75 L17.7 34.15 18.75 34.0 17.65 34.7 Q17.35 35.4 17.65 37.15 L16.8 34.75 M24.55 31.75 L26.15 30.3 25.1 31.85 25.7 34.9 24.55 31.75 M25.9 41.55 L25.55 40.4 24.4 39.05 19.9 37.75 25.1 38.75 26.05 38.6 26.1 38.55 Q26.45 38.3 25.3 37.9 L24.95 37.75 23.5 37.4 24.55 37.3 25.55 37.2 25.9 37.3 27.9 37.9 28.75 38.1 27.8 38.3 27.4 38.5 26.5 38.95 25.85 39.3 26.35 41.2 27.5 42.15 28.55 42.3 29.55 42.45 27.5 42.45 25.9 41.55" fill="#ffff98" fill-rule="evenodd" stroke="none"/>
      <path d="M4.9 37.3 L3.7 36.05 3.7 35.5 5.6 34.55 8.25 32.7 7.4 31.3 7.7 31.15 9.0 32.8 9.45 33.0 10.95 33.8 12.6 34.65 9.85 33.65 8.9 33.35 7.3 34.2 4.4 35.85 4.9 37.3 M12.1 29.6 L13.8 28.4 13.75 29.05 13.85 30.35 14.05 31.3 14.4 32.3 14.45 32.35 14.55 32.5 14.65 32.7 15.35 33.75 13.65 34.9 15.35 33.75 16.8 32.75 16.05 27.5 17.2 33.1 16.35 33.65 14.55 34.8 11.45 36.75 11.45 38.15 11.2 38.15 11.2 37.35 11.2 36.55 13.65 34.9 13.55 33.25 13.5 33.15 13.1 31.35 12.8 30.6 12.7 30.4 12.1 29.6 M25.1 28.45 L25.65 28.85 23.65 30.7 22.6 31.7 22.05 32.15 18.85 32.55 18.8 32.45 20.2 32.15 22.1 31.7 23.25 30.45 25.1 28.45 M16.8 34.75 L17.65 37.15 17.95 38.1 18.8 40.65 14.7 39.4 Q15.15 37.9 14.55 36.2 L16.8 34.75 M19.9 37.7 L23.5 37.4 24.95 37.75 25.3 37.9 Q26.45 38.3 26.1 38.55 L26.05 38.6 25.1 38.75 19.9 37.75 19.9 37.7 M11.7 38.15 L12.4 36.7 12.4 38.3 11.7 38.15" fill="#ffffe6" fill-rule="evenodd" stroke="none"/>
      <path d="M16.8 27.0 L17.45 27.05 23.95 27.7 25.1 28.45 23.25 30.45 21.1 30.65 20.6 30.5 20.35 30.4 20.15 30.25 Q18.6 28.9 17.85 27.55 L19.15 31.55 19.35 32.0 20.2 32.15 18.8 32.45 16.8 27.0" fill="#431b01" fill-rule="evenodd" stroke="none"/>
      <path d="M19.15 31.55 L18.6 29.15 Q19.85 30.8 21.1 30.65 L23.25 30.45 22.1 31.7 20.2 32.15 19.35 32.0 19.15 31.55" fill="#5c2501" fill-rule="evenodd" stroke="none"/>
      <path d="M3.7 36.05 L4.0 37.3 4.4 37.9 5.35 39.25 9.35 40.75 M3.7 36.05 L3.7 35.5 6.15 31.9 7.4 31.3 7.7 31.15 8.9 31.15 9.6 31.15 10.4 32.0 M10.45 32.0 L10.7 32.3 12.1 29.6 13.8 28.4 15.95 26.9 16.75 27.0 16.8 27.0 17.45 27.05 23.95 27.7 25.1 28.45 25.65 28.85 26.25 29.2 27.0 29.45 28.05 29.75 28.6 29.9 30.15 30.35 30.65 36.0 29.15 39.05 29.75 40.75 30.4 42.45 29.4 44.4 27.95 45.35 27.8 45.45 22.65 45.0 20.25 44.8 12.9 42.1 9.5 40.8 M13.65 34.9 L15.35 33.75 16.8 32.75 16.05 27.5 15.95 26.9 M11.65 38.65 L11.2 38.15 11.2 37.35 11.2 36.55 13.65 34.9 M10.95 33.8 L9.45 33.0 M10.7 32.3 L10.95 32.6 13.35 35.0 12.6 34.65 10.95 33.8 M20.2 32.15 L22.1 31.7 23.25 30.45 25.1 28.45 M14.75 35.3 L16.6 34.15 17.5 33.6 22.65 32.8 23.0 32.45 24.2 31.25 26.25 29.2 M18.15 32.65 L16.8 27.0 18.8 32.45 20.2 32.15 M16.8 34.75 L17.7 34.15 18.75 34.0 M18.8 33.95 L20.95 33.65 22.9 33.35 24.55 31.75 26.15 30.3 27.0 29.45 M23.55 41.75 L24.5 41.95 25.75 41.6 25.9 41.55 27.5 42.45 29.55 42.45 30.4 42.45 M23.5 37.4 L24.55 37.3 25.55 37.2 25.9 37.3 26.35 36.8 27.35 35.8 28.35 34.85 28.6 34.65 28.6 29.9 M14.55 36.2 L16.8 34.75 M18.8 32.45 L18.15 32.65 M11.45 38.15 L11.7 38.15 12.4 38.3 12.75 38.8 12.75 37.4 14.55 36.2 M12.4 36.7 L14.75 35.3 M27.9 37.9 L25.9 37.3 M28.8 34.1 L28.6 34.65 M28.8 34.1 L30.15 30.35 M28.75 38.1 L27.9 37.9 M27.8 42.75 L27.5 42.45 M28.75 38.1 L29.15 39.05 M27.8 45.45 L25.75 43.8 19.1 40.75 23.55 41.75 M11.45 38.15 L11.2 38.15 M12.4 36.7 L12.4 38.3" fill="none" stroke="#000000" stroke-linecap="round" stroke-linejoin="round" stroke-opacity="0.3019608" stroke-width="0.30000000000000004"/>
      <path d="M29.65 9.2 L29.7 9.1 30.6 9.35 29.65 9.2 M23.45 27.45 L23.5 27.55 23.45 27.55 23.45 27.45 M28.3 29.45 L28.4 29.45 28.4 29.8 28.3 29.45" fill="#92f458" fill-rule="evenodd" stroke="none"/>
      <path d="M7.3 14.05 L8.5 13.6 7.7 14.55 7.3 14.05 M22.25 8.75 L24.45 7.0 28.25 6.8 25.25 7.8 22.25 8.75 M40.8 20.15 L43.35 21.35 47.0 21.7 43.4 22.0 42.9 22.05 40.8 20.15 M27.95 13.6 L23.35 12.5 21.5 11.7 22.1 10.9 24.5 10.75 27.1 11.15 28.85 12.35 28.3 13.65 27.95 13.6 M17.75 13.5 L18.7 13.35 21.5 13.5 25.4 14.55 23.8 18.6 22.0 19.95 21.9 19.95 20.75 19.1 Q19.35 17.85 18.35 15.8 L17.9 14.15 17.75 13.5 M15.6 26.05 L14.45 25.85 12.15 24.55 13.7 22.9 Q14.35 23.15 14.85 24.0 L15.55 25.5 15.6 26.05" fill="#ffde4f" fill-rule="evenodd" stroke="none"/>
      <path d="M31.05 8.7 L31.95 9.75 33.8 11.1 33.4 11.2 31.2 11.55 30.4 11.0 Q29.3 10.1 29.65 9.2 L30.6 9.35 31.95 9.75 30.6 9.35 29.7 9.1 26.05 8.0 28.2 7.25 29.65 7.75 31.05 8.7 M47.0 21.7 L47.4 21.8 48.35 23.5 46.2 25.3 47.8 23.55 47.15 22.05 45.05 24.0 44.65 23.95 Q43.25 23.6 43.4 22.0 L47.0 21.7 M22.0 29.8 L21.35 30.2 21.1 30.2 22.0 28.95 20.2 28.95 22.05 28.4 22.2 28.25 22.5 28.4 22.6 29.1 22.0 29.8 M13.5 28.9 L12.8 27.4 12.35 26.55 12.55 26.3 14.8 26.75 15.1 27.15 Q15.55 27.85 15.4 28.7 L14.6 28.55 13.8 28.9 13.5 28.9 M9.35 23.65 L9.7 22.95 10.05 22.1 10.75 19.35 11.0 20.3 14.1 16.75 15.25 18.95 15.55 19.9 15.75 21.7 13.45 22.45 11.0 20.3 10.45 22.65 9.8 23.55 10.45 25.5 9.35 23.65 M9.4 21.65 L8.95 19.2 8.5 16.65 8.95 17.1 9.4 21.65 M10.2 18.25 L8.8 16.5 8.2 14.7 9.05 14.05 9.25 14.1 10.25 15.2 11.35 18.0 11.4 18.7 11.0 19.05 10.25 18.35 10.2 18.25 M12.3 14.55 L14.8 15.55 14.4 15.85 13.35 16.85 Q12.25 16.2 12.3 14.55 M28.0 10.65 L27.35 10.3 21.85 9.75 22.65 9.0 25.1 8.25 27.1 8.65 28.0 10.65 M28.85 12.35 L29.65 12.9 31.05 14.3 31.5 17.1 31.5 14.15 30.9 12.8 33.6 11.55 34.6 13.95 34.7 14.6 34.8 15.25 34.65 15.95 32.95 21.6 31.2 24.55 23.45 27.45 23.45 26.3 23.45 25.1 23.45 26.3 22.15 27.15 21.35 26.45 21.75 24.35 21.95 26.35 22.9 26.35 23.45 25.1 23.45 23.9 21.1 21.65 21.3 21.45 21.35 21.45 24.25 19.45 30.8 23.65 28.85 22.15 Q28.3 20.75 28.1 19.2 L28.05 19.05 28.0 18.7 28.0 17.2 Q28.0 16.3 28.15 15.35 L30.6 17.25 32.75 21.05 31.7 18.55 31.2 17.3 29.8 15.5 28.3 13.65 28.85 12.35 M18.55 11.8 L20.5 11.0 21.6 10.95 20.95 11.4 18.15 12.65 18.55 11.8 M24.25 18.65 L25.3 16.15 25.4 16.25 26.1 17.25 26.55 18.5 26.9 20.65 24.25 18.65 M19.0 21.8 L18.25 23.45 19.15 24.55 19.35 23.9 19.0 21.8 M16.4 23.45 L16.7 23.4 17.75 21.55 19.35 21.25 21.3 24.3 21.1 25.95 19.6 26.65 17.5 26.35 16.75 25.35 Q16.1 24.3 16.4 23.45 M32.75 21.05 L32.95 21.6 32.75 21.05 M16.85 29.3 L17.4 29.25 16.85 30.2 16.85 29.3 M17.6 28.85 Q16.45 28.15 16.75 27.5 L17.0 27.25 20.75 28.0 19.85 28.55 17.6 28.85 M28.4 29.45 L28.35 29.4 28.2 28.7 28.0 28.0 27.2 26.55 29.55 25.85 29.55 27.3 29.75 28.5 29.85 29.0 30.0 29.5 30.6 31.15 30.75 31.4 28.75 30.85 28.45 30.7 28.4 29.8 28.4 29.45 M31.7 18.55 L31.5 17.1 31.7 18.55 M38.3 19.95 L40.6 20.7 42.3 22.2 41.65 23.95 40.8 23.35 39.7 22.2 39.55 22.05 Q38.85 21.1 38.3 19.95 M38.45 23.45 L38.8 24.4 Q39.05 25.5 38.8 26.2 L38.55 26.6 36.3 26.05 35.4 25.65 37.1 22.5 Q37.65 22.7 38.05 23.05 L38.45 23.45 M33.9 21.3 L33.9 21.8 34.0 22.85 Q34.15 24.2 34.7 25.25 L35.1 25.9 33.9 26.95 33.0 22.8 33.9 21.3 M47.4 21.8 L47.15 22.05 47.4 21.8" fill="#f4a33c" fill-rule="evenodd" stroke="none"/>
      <path d="M8.95 19.2 L7.3 15.4 7.3 14.05 7.7 14.55 8.5 16.65 8.95 19.2 M18.3 11.65 L20.5 10.1 24.85 10.35 20.5 10.7 18.3 11.65 M46.2 25.3 L46.15 25.35 45.25 26.1 43.65 25.3 43.25 27.3 35.8 31.7 34.45 28.7 36.35 30.85 42.85 27.3 43.65 25.3 45.05 24.0 47.15 22.05 47.8 23.55 46.2 25.3 M33.1 33.4 L30.35 33.4 29.05 31.35 30.75 32.85 33.0 32.95 33.1 33.4 M21.1 30.2 L16.85 30.2 16.3 30.2 13.5 28.9 13.8 28.9 14.8 28.9 16.85 29.3 16.85 30.2 17.4 29.25 20.2 28.95 22.0 28.95 21.1 30.2 M11.2 26.9 L9.65 25.3 9.35 23.65 10.45 25.5 9.8 23.55 10.45 22.65 11.0 20.3 13.45 22.45 12.5 23.45 11.4 25.0 11.4 25.75 10.45 25.5 11.2 26.9 M9.7 22.95 L9.45 21.65 9.4 21.65 8.95 17.1 10.2 18.25 10.25 18.35 11.0 19.05 10.75 19.35 10.05 22.1 9.7 22.95 M28.0 10.65 L27.1 8.65 29.65 9.2 Q29.3 10.1 30.4 11.0 L31.2 11.55 30.0 11.75 28.0 10.65 M29.65 12.9 L27.4 10.75 30.0 12.25 31.05 14.3 29.65 12.9 M15.9 22.9 L15.8 23.0 15.7 23.0 15.9 22.9 M19.4 20.8 L20.25 21.25 21.1 21.65 23.45 23.9 21.75 24.35 19.4 20.8 M23.45 27.55 L23.5 27.55 26.75 26.65 27.5 27.75 27.9 28.55 28.3 29.45 28.4 29.8 23.5 28.5 23.45 28.5 23.45 27.55 M29.55 25.85 L31.3 25.4 33.3 26.6 31.7 25.0 33.0 22.8 33.9 26.95 33.8 27.05 34.15 28.15 33.8 27.05 33.3 26.6 33.8 27.05 33.9 26.95 35.1 25.9 34.7 25.25 Q34.15 24.2 34.0 22.85 L33.9 21.8 33.9 21.3 35.0 19.35 35.6 20.25 35.65 23.85 35.4 25.65 36.3 26.05 38.15 26.9 34.7 28.05 34.15 28.15 33.95 29.25 33.05 31.55 31.2 31.0 31.0 30.8 30.4 29.7 30.15 29.15 29.9 28.4 29.55 27.3 29.55 25.85 M37.55 21.8 L37.25 19.6 38.3 19.95 Q38.85 21.1 39.55 22.05 L39.7 22.2 40.8 23.35 41.65 23.95 40.95 25.7 39.3 26.55 39.2 25.2 Q39.05 24.15 38.45 23.45 L38.05 23.05 Q37.65 22.7 37.1 22.5 L37.55 21.8 M33.85 20.1 L34.65 15.95 34.8 15.25 35.05 17.95 33.85 20.1 M35.4 25.65 L35.1 25.9 35.4 25.65" fill="#cc6b22" fill-rule="evenodd" stroke="none"/>
      <path d="M34.5 12.6 L37.2 19.25 37.25 19.6 37.55 21.8 36.1 20.6 35.35 18.75 35.25 17.9 35.25 17.85 34.8 15.25 34.7 14.6 34.8 15.25 34.7 14.6 34.6 13.95 34.5 12.6 M35.8 31.7 L34.55 31.85 33.3 31.95 33.95 29.25 34.15 28.15 34.45 28.7 34.15 28.15 34.7 28.05 38.9 27.25 41.4 25.85 42.9 22.05 43.4 22.0 Q43.25 23.6 44.65 23.95 L45.05 24.0 43.65 25.3 42.85 27.3 36.35 30.85 34.45 28.7 35.8 31.7 M25.85 30.85 L25.6 30.7 22.0 29.8 22.6 29.1 22.5 28.4 23.45 28.5 23.5 28.5 28.45 30.7 28.75 30.85 30.75 31.4 32.75 31.9 33.0 32.95 30.75 32.85 29.05 31.35 28.75 30.85 25.85 30.85 M17.75 13.5 L20.75 11.9 23.15 13.0 27.95 13.6 28.3 13.65 29.8 15.5 31.2 17.3 27.65 14.6 21.0 13.0 18.7 13.35 17.75 13.5 M19.0 21.8 L19.0 23.75 18.25 23.45 19.0 21.8 M15.8 23.0 L15.9 22.9 15.9 22.85 17.25 21.8 16.35 23.0 15.8 23.0 M23.45 25.1 L22.9 26.35 21.95 26.35 21.75 24.35 23.45 23.9 23.45 25.1 M11.4 25.0 L14.4 26.1 19.6 27.05 21.35 26.45 22.15 27.15 21.9 28.05 20.75 27.6 12.8 26.1 12.55 26.3 12.35 26.55 11.85 26.4 11.4 25.75 11.4 25.0 M41.4 25.85 L43.65 25.3 41.4 25.85" fill="#a34100" fill-rule="evenodd" stroke="none"/>
      <path d="M8.5 13.6 L12.05 13.95 15.2 15.2 14.8 15.55 12.3 14.55 12.0 14.4 9.8 14.15 10.45 15.05 Q11.15 16.15 11.35 18.0 L10.25 15.2 9.25 14.1 9.05 14.05 8.2 14.7 8.8 16.5 10.2 18.25 8.95 17.1 8.5 16.65 7.7 14.55 8.5 13.6 M17.25 13.55 L18.3 11.65 20.5 10.7 24.85 10.35 27.4 10.75 24.85 10.35 20.5 10.1 22.25 8.75 25.25 7.8 26.05 8.0 25.25 7.8 28.25 6.8 30.15 7.65 31.05 8.7 29.65 7.75 28.2 7.25 26.05 8.0 29.7 9.1 29.65 9.2 27.1 8.65 25.1 8.25 22.65 9.0 21.85 9.75 27.35 10.3 28.0 10.65 30.0 11.75 31.2 11.55 33.4 11.2 33.8 11.1 34.5 12.6 34.6 13.95 33.6 11.55 30.9 12.8 31.5 14.15 31.5 17.1 31.05 14.3 30.0 12.25 27.4 10.75 29.65 12.9 28.85 12.35 27.1 11.15 24.5 10.75 22.1 10.9 21.5 11.7 23.35 12.5 27.95 13.6 23.15 13.0 20.75 11.9 17.75 13.5 17.25 13.55 M37.2 19.25 L40.8 20.15 42.9 22.05 41.4 25.85 38.9 27.25 38.15 26.9 38.9 27.25 34.7 28.05 38.15 26.9 36.3 26.05 38.55 26.6 38.8 26.2 Q39.05 25.5 38.8 24.4 L38.45 23.45 Q39.05 24.15 39.2 25.2 L39.3 26.55 40.95 25.7 41.65 23.95 42.3 22.2 40.6 20.7 38.3 19.95 37.25 19.6 37.2 19.25 M18.55 11.8 L18.15 12.65 20.95 11.4 21.6 10.95 20.5 11.0 18.55 11.8 M18.35 15.8 Q19.35 17.85 20.75 19.1 L21.9 19.95 22.0 19.95 23.8 18.6 25.4 14.55 21.5 13.5 18.7 13.35 21.0 13.0 27.65 14.6 31.2 17.3 31.7 18.55 32.75 21.05 30.6 17.25 28.15 15.35 Q28.0 16.3 28.0 17.2 L28.0 18.7 28.05 19.05 28.1 19.2 Q28.3 20.75 28.85 22.15 L26.9 20.65 26.55 18.5 26.1 17.25 25.4 16.25 25.3 16.15 24.25 18.65 24.1 18.95 21.35 21.45 21.3 21.45 21.1 21.65 20.25 21.25 21.2 20.55 20.3 19.45 Q19.05 17.85 18.35 15.8 M18.25 23.45 L19.0 23.75 19.0 21.8 19.35 23.9 19.15 24.55 18.25 23.45 M15.8 23.0 L16.35 23.0 17.25 21.8 14.35 22.6 14.65 23.0 15.05 23.8 15.4 24.9 15.55 25.5 14.85 24.0 Q14.35 23.15 13.7 22.9 L12.15 24.55 14.45 25.85 15.6 26.05 17.5 26.35 19.6 26.65 21.1 25.95 21.3 24.3 19.35 21.25 17.75 21.55 16.7 23.4 16.4 23.45 15.4 23.6 15.8 23.0 M15.75 21.7 L16.9 21.35 19.4 20.8 21.75 24.35 21.35 26.45 19.6 27.05 14.4 26.1 11.4 25.0 12.5 23.45 13.45 22.45 15.75 21.7 M23.45 27.45 L31.2 24.55 32.95 21.6 34.65 15.95 33.85 20.1 32.95 21.6 33.85 20.1 35.05 17.95 34.8 15.25 35.25 17.85 35.25 17.9 35.35 18.75 36.1 20.6 35.65 23.85 35.6 20.25 35.0 19.35 33.9 21.3 33.0 22.8 31.7 25.0 33.3 26.6 31.3 25.4 29.55 25.85 27.2 26.55 28.0 28.0 28.2 28.7 28.35 29.4 28.4 29.45 28.3 29.45 27.9 28.55 27.5 27.75 26.75 26.65 23.5 27.55 23.45 27.45 M11.4 18.7 L13.35 16.85 14.4 15.85 15.25 18.95 14.1 16.75 11.0 20.3 10.75 19.35 11.0 19.05 11.4 18.7 M12.55 26.3 L12.8 26.1 20.75 27.6 21.9 28.05 22.2 28.25 22.05 28.4 20.2 28.95 17.4 29.25 16.85 29.3 14.8 28.9 13.8 28.9 14.6 28.55 15.4 28.7 16.8 28.95 17.6 28.85 19.85 28.55 20.75 28.0 17.0 27.25 14.8 26.75 12.55 26.3 M31.2 24.55 L31.7 25.0 31.2 24.55 M23.5 28.5 L28.4 29.8 28.45 30.7 23.5 28.5 M33.4 11.2 L30.0 12.25 33.4 11.2 M35.05 17.95 L35.35 18.75 35.05 17.95 M29.55 27.3 L29.9 28.4 30.15 29.15 30.4 29.7 31.0 30.8 31.2 31.0 33.05 31.55 33.95 29.25 33.3 31.95 33.0 32.0 32.75 31.9 30.75 31.4 30.6 31.15 30.0 29.5 29.85 29.0 29.75 28.5 29.55 27.3" fill="#ffff98" fill-rule="evenodd" stroke="none"/>
      <path d="M15.2 15.2 L17.25 13.55 17.75 13.5 17.9 14.15 18.35 15.8 Q19.05 17.85 20.3 19.45 L21.2 20.55 20.25 21.25 19.4 20.8 16.9 21.35 15.75 21.7 15.55 19.9 15.25 18.95 14.4 15.85 14.8 15.55 15.2 15.2 M11.35 18.0 Q11.15 16.15 10.45 15.05 L9.8 14.15 12.0 14.4 12.3 14.55 Q12.25 16.2 13.35 16.85 L11.4 18.7 11.35 18.0 M21.35 21.45 L24.1 18.95 24.25 18.65 26.9 20.65 28.85 22.15 30.8 23.65 24.25 19.45 21.35 21.45 M15.9 22.9 L15.7 23.0 15.8 23.0 15.4 23.6 16.4 23.45 Q16.1 24.3 16.75 25.35 L17.5 26.35 15.6 26.05 15.55 25.5 15.4 24.9 15.05 23.8 14.65 23.0 14.35 22.6 17.25 21.8 15.9 22.85 15.9 22.9 M15.4 28.7 Q15.55 27.85 15.1 27.15 L14.8 26.75 17.0 27.25 16.75 27.5 Q16.45 28.15 17.6 28.85 L16.8 28.95 15.4 28.7" fill="#ffffcc" fill-rule="evenodd" stroke="none"/>
      <path d="M45.25 26.1 L43.25 27.3 43.65 25.3 45.25 26.1 M34.55 31.85 L33.1 33.4 33.0 32.95 32.75 31.9 33.0 32.0 33.3 31.95 34.55 31.85 M30.35 33.4 L25.85 30.85 28.75 30.85 29.05 31.35 30.35 33.4 M12.8 27.4 L11.35 27.0 11.2 26.9 10.45 25.5 11.4 25.75 11.85 26.4 12.35 26.55 12.8 27.4 M23.45 26.3 L23.45 27.45 23.45 27.55 23.45 28.5 22.5 28.4 22.2 28.25 21.9 28.05 22.15 27.15 23.45 26.3 M36.1 20.6 L37.55 21.8 37.1 22.5 35.4 25.65 35.65 23.85 36.1 20.6" fill="#560000" fill-rule="evenodd" stroke="none"/>
      <path d="M8.95 19.2 L7.3 15.4 7.3 14.05 8.5 13.6 12.05 13.95 15.2 15.2 17.25 13.55 18.3 11.65 20.5 10.1 22.25 8.75 24.45 7.0 28.25 6.8 30.15 7.65 31.05 8.7 31.95 9.75 33.8 11.1 34.5 12.6 37.2 19.25 40.8 20.15 43.35 21.35 47.0 21.7 47.4 21.8 48.35 23.5 46.2 25.3 M46.15 25.35 L45.25 26.1 43.25 27.3 35.8 31.7 34.55 31.85 33.1 33.4 30.35 33.4 25.85 30.85 25.6 30.7 22.0 29.8 21.35 30.2 21.1 30.2 16.85 30.2 16.3 30.2 13.5 28.9 12.8 27.4 11.35 27.0 11.2 26.9 9.65 25.3 9.35 23.65 9.7 22.95 9.45 21.65 M9.4 21.65 L8.95 19.2 8.5 16.65 7.7 14.55 7.3 14.05 M14.8 15.55 L15.2 15.2 M8.5 13.6 L7.7 14.55 M29.7 9.1 L26.05 8.0 25.25 7.8 22.25 8.75 M17.25 13.55 L17.75 13.5 20.75 11.9 23.15 13.0 27.95 13.6 28.3 13.65 29.8 15.5 31.2 17.3 27.65 14.6 21.0 13.0 18.7 13.35 17.75 13.5 M29.65 12.9 L27.4 10.75 24.85 10.35 20.5 10.7 18.3 11.65 M32.75 21.05 L31.7 18.55 31.2 17.3 M18.25 23.45 L19.0 23.75 19.0 21.8 18.25 23.45 M15.9 22.9 L15.7 23.0 15.8 23.0 16.35 23.0 17.25 21.8 15.9 22.85 15.9 22.9 M15.75 21.7 L16.9 21.35 19.4 20.8 20.25 21.25 21.1 21.65 23.45 23.9 21.75 24.35 19.4 20.8 M21.35 26.45 L21.75 24.35 M23.45 25.1 L23.45 23.9 M23.45 25.1 L23.45 26.3 23.45 27.45 31.2 24.55 32.95 21.6 32.75 21.05 M13.35 16.85 L11.4 18.7 11.0 19.05 10.75 19.35 10.05 22.1 9.7 22.95 M14.4 15.85 L13.35 16.85 M15.75 21.7 L13.45 22.45 12.5 23.45 11.4 25.0 14.4 26.1 19.6 27.05 21.35 26.45 22.15 27.15 23.45 26.3 M10.25 18.35 L11.0 19.05 M8.95 17.1 L10.2 18.25 M8.5 16.65 L8.95 17.1 M10.45 25.5 L9.35 23.65 M10.45 25.5 L11.4 25.75 11.4 25.0 M12.35 26.55 L11.85 26.4 11.4 25.75 M12.35 26.55 L12.55 26.3 12.8 26.1 20.75 27.6 21.9 28.05 22.15 27.15 M13.8 28.9 L13.5 28.9 M13.8 28.9 L14.8 28.9 16.85 29.3 17.4 29.25 20.2 28.95 22.05 28.4 22.2 28.25 21.9 28.05 M23.45 27.45 L23.45 27.55 23.45 28.5 23.5 28.5 28.45 30.7 28.75 30.85 30.75 31.4 32.75 31.9 33.0 32.0 33.3 31.95 33.95 29.25 34.15 28.15 33.8 27.05 33.3 26.6 31.7 25.0 31.2 24.55 M22.0 29.8 L22.6 29.1 22.5 28.4 22.2 28.25 M22.5 28.4 L23.45 28.5 M16.85 29.3 L16.85 30.2 M11.2 26.9 L10.45 25.5 M12.35 26.55 L12.8 27.4 M14.4 15.85 L14.8 15.55 M30.6 9.35 L31.95 9.75 M30.6 9.35 L29.7 9.1 M28.25 6.8 L25.25 7.8 M34.6 13.95 L34.5 12.6 M30.0 12.25 L31.05 14.3 31.5 17.1 31.7 18.55 M31.05 14.3 L29.65 12.9 M33.4 11.2 L33.8 11.1 M27.4 10.75 L30.0 12.25 33.4 11.2 M34.8 15.25 L34.7 14.6 34.8 15.25 34.65 15.95 33.85 20.1 35.05 17.95 34.8 15.25 M35.35 18.75 L36.1 20.6 37.55 21.8 37.25 19.6 37.2 19.25 M34.7 14.6 L34.6 13.95 M36.3 26.05 L38.15 26.9 38.9 27.25 41.4 25.85 42.9 22.05 40.8 20.15 M32.95 21.6 L33.85 20.1 M35.65 23.85 L36.1 20.6 M35.35 18.75 L35.05 17.95 M37.55 21.8 L37.1 22.5 35.4 25.65 36.3 26.05 M35.1 25.9 L35.4 25.65 35.65 23.85 M29.05 31.35 L28.75 30.85 25.85 30.85 M33.0 32.95 L33.1 33.4 M33.0 32.95 L32.75 31.9 M30.35 33.4 L29.05 31.35 M34.15 28.15 L34.45 28.7 35.8 31.7 M43.65 25.3 L41.4 25.85 M33.9 26.95 L33.8 27.05 M34.15 28.15 L34.7 28.05 38.9 27.25 M33.9 26.95 L35.1 25.9 M34.55 31.85 L33.3 31.95 M43.4 22.0 L42.9 22.05 M45.25 26.1 L43.65 25.3 43.25 27.3 M43.65 25.3 L45.05 24.0 47.15 22.05 47.4 21.8 M43.4 22.0 L47.0 21.7 M24.85 10.35 L20.5 10.1" fill="none" stroke="#000000" stroke-linecap="round" stroke-linejoin="round" stroke-opacity="0.3019608" stroke-width="0.30000000000000004"/>
      <path d="M28.5 23.55 L23.8 22.5 22.95 21.2 24.2 22.35 28.5 23.55 M17.25 19.9 L16.1 20.75 12.6 19.9 15.85 20.45 17.25 19.9" fill="#ffff98" fill-rule="evenodd" stroke="none"/>
      <path d="M28.5 23.55 L24.2 22.35 22.95 21.2 28.5 23.55 M17.25 19.9 L15.85 20.45 12.6 19.9 17.25 19.9" fill="#cc6b22" fill-rule="evenodd" stroke="none"/>
      <path d="M22.95 21.2 L28.5 23.55 M12.6 19.9 L17.25 19.9" fill="none" stroke="#000000" stroke-linecap="round" stroke-linejoin="round" stroke-opacity="0.3019608" stroke-width="0.30000000000000004"/>
    </g>
    <g id="sprite0" transform="matrix(1.0, 0.0, 0.0, 1.0, 0.0, 0.0)">
      <use height="26.7" transform="matrix(0.0042, -1.3515, 1.3935, 0.02, 22.09, 56.0263)" width="26.7" xlink:href="#sprite1"/>
      <use height="26.7" transform="matrix(0.0095, -3.0486, 0.372, 0.0053, 36.507, 81.3775)" width="26.7" xlink:href="#sprite1"/>
      <use height="26.7" transform="matrix(3.0486, 0.0095, -0.0053, 0.372, 0.1225, 35.107)" width="26.7" xlink:href="#sprite1"/>
    </g>
    <g id="sprite1" transform="matrix(1.0, 0.0, 0.0, 1.0, 13.35, 13.35)">
      <use height="26.7" transform="matrix(1.0, 0.0, 0.0, 1.0, -13.35, -13.35)" width="26.7" xlink:href="#shape1"/>
    </g>
    <g id="shape1" transform="matrix(1.0, 0.0, 0.0, 1.0, 13.35, 13.35)">
      <path d="M9.3 -9.85 Q13.35 -5.8 13.35 0.0 13.35 5.8 9.3 9.3 5.8 13.35 0.0 13.35 -5.8 13.35 -9.85 9.3 -13.35 5.8 -13.35 0.0 -13.35 -5.8 -9.85 -9.85 -5.8 -13.35 0.0 -13.35 5.8 -13.35 9.3 -9.85" fill="url(#gradient0)" fill-rule="evenodd" stroke="none"/>
    </g>
    <radialGradient cx="0" cy="0" gradientTransform="matrix(0.0213, 0.0, 0.0, 0.0213, 0.0, 0.0)" gradientUnits="userSpaceOnUse" id="gradient0" r="819.2" spreadMethod="pad">
      <stop offset="0.19607843137254902" stop-color="#fee3bc" stop-opacity="0.25882354"/>
      <stop offset="0.5019607843137255" stop-color="#fee3bc" stop-opacity="0.039215688"/>
      <stop offset="0.7607843137254902" stop-color="#ffe3bd" stop-opacity="0.0"/>
    </radialGradient>
  </defs>
</svg>
