<?xml version="1.0" encoding="UTF-8" standalone="no"?>
<svg xmlns:xlink="http://www.w3.org/1999/xlink" height="52.0px" width="52.0px" xmlns="http://www.w3.org/2000/svg">
  <g transform="matrix(1.0, 0.0, 0.0, 1.0, 0.0, 0.0)">
    <use height="152.0" transform="matrix(1.0, 0.0, 0.0, 1.0, -50.0, -50.0)" width="152.0" xlink:href="#shape0"/>
    <use height="0.0" transform="matrix(0.1068, 0.0, 0.0, 0.19, 34.85, 20.8)" width="0.0" xlink:href="#sprite0"/>
    <use height="0.0" transform="matrix(0.1068, 0.0, 0.0, 0.1222, 23.8, 34.75)" width="0.0" xlink:href="#sprite0"/>
    <use height="0.0" transform="matrix(0.0458, 0.0, 0.0, 0.0716, 10.55, 33.35)" width="0.0" xlink:href="#sprite0"/>
    <use height="81.5" transform="matrix(0.1183, 0.0, 0.0, 0.1241, 37.1, 22.95)" width="81.5" xlink:href="#sprite1"/>
    <use height="81.5" transform="matrix(0.0852, 0.0, 0.0, 0.0893, 7.0, 32.25)" width="81.5" xlink:href="#sprite1"/>
    <use height="81.5" transform="matrix(0.0852, 0.0, 0.0, 0.0893, 29.6, 11.25)" width="81.5" xlink:href="#sprite1"/>
    <use height="81.5" transform="matrix(0.0852, 0.0, 0.0, 0.0893, 19.8, 8.05)" width="81.5" xlink:href="#sprite1"/>
    <use height="0.0" transform="matrix(0.1068, 0.0, 0.0, 0.0712, 28.55, 12.7)" width="0.0" xlink:href="#sprite0"/>
  </g>
  <defs>
    <g id="shape0" transform="matrix(1.0, 0.0, 0.0, 1.0, 50.0, 50.0)">
      <path d="M52.0 0.0 L52.0 52.0 0.0 52.0 0.0 0.0 52.0 0.0" fill="#795fa9" fill-opacity="0.0" fill-rule="evenodd" stroke="none"/>
      <path d="M43.3 14.85 L44.55 14.85 Q47.15 15.15 48.0 17.25 L48.1 17.55 Q48.35 18.55 48.1 19.75 L47.75 20.8 Q47.1 22.65 44.4 23.1 L44.3 23.95 44.3 24.05 44.7 24.25 Q45.65 24.75 45.9 26.2 L45.85 26.4 45.45 27.55 Q44.5 29.4 42.35 29.35 L40.85 32.0 Q41.1 33.0 40.7 34.55 39.55 35.65 38.2 35.5 L37.1 36.7 39.1 37.25 40.9 37.35 41.05 37.45 Q41.8 38.05 41.15 39.8 L41.15 39.9 Q41.65 43.4 33.5 45.35 L25.1 45.0 22.8 45.35 Q20.05 45.35 17.75 43.55 16.45 42.55 15.7 41.3 14.15 40.05 13.0 38.45 12.4 39.5 11.25 39.5 10.15 39.5 9.05 38.55 L8.1 37.65 Q6.5 35.85 5.75 33.25 L5.35 31.15 4.5 30.55 Q3.95 29.9 3.85 28.85 L3.95 28.1 Q4.05 27.55 4.35 27.15 4.85 26.4 5.6 26.35 L6.6 26.65 6.8 26.15 Q7.15 25.4 7.95 25.25 8.65 25.1 9.25 25.5 L9.4 25.6 Q10.05 26.05 10.3 26.95 L10.25 28.3 10.75 28.85 10.9 29.0 11.05 28.95 11.3 28.9 Q12.7 25.45 17.6 23.65 15.1 20.5 14.95 17.85 L14.65 17.4 Q13.8 16.05 14.3 14.8 L14.4 14.6 Q14.95 13.5 16.4 13.15 L17.8 13.0 Q18.7 12.55 19.85 12.4 26.0 5.5 33.65 7.15 L34.9 7.75 37.0 7.35 Q40.05 7.1 42.6 8.55 43.75 10.4 43.7 12.5 43.7 13.65 43.3 14.85 Z" fill="none" stroke="#000000" stroke-linecap="round" stroke-linejoin="round" stroke-opacity="0.3019608" stroke-width="1.0"/>
      <path d="M20.5 17.1 Q21.2 16.75 21.5 16.05 L21.6 15.6 21.75 15.8 Q22.45 16.95 22.05 18.0 21.65 19.05 20.3 19.35 L17.55 19.05 Q16.05 18.5 15.35 17.3 14.75 16.4 14.9 15.55 15.65 16.55 16.95 17.1 L17.6 17.3 19.75 17.4 20.5 17.1" fill="#cac960" fill-rule="evenodd" stroke="none"/>
      <path d="M17.6 17.3 Q15.35 16.3 15.5 14.45 15.95 13.95 16.8 13.75 18.1 13.45 19.55 14.05 L20.8 14.75 Q21.45 16.3 20.5 17.1 L19.75 17.4 17.6 17.3" fill="#d5d580" fill-rule="evenodd" stroke="none"/>
      <path d="M20.5 17.1 Q21.45 16.3 20.8 14.75 L19.55 14.05 Q18.1 13.45 16.8 13.75 15.95 13.95 15.5 14.45 15.35 16.3 17.6 17.3 L16.95 17.1 Q15.65 16.55 14.9 15.55 14.75 16.4 15.35 17.3 16.05 18.5 17.55 19.05 L20.3 19.35 Q21.65 19.05 22.05 18.0 22.45 16.95 21.75 15.8 L21.6 15.6 21.5 16.05 Q21.2 16.75 20.5 17.1 M16.4 13.2 Q18.0 12.8 19.8 13.55 20.8 13.95 21.55 14.6 L22.45 15.6 Q23.3 17.05 22.8 18.3 22.3 19.55 20.7 19.9 L17.35 19.6 Q15.55 18.85 14.7 17.45 13.8 16.1 14.3 14.85 L14.4 14.65 Q14.95 13.55 16.4 13.2" fill="#f9f8ec" fill-rule="evenodd" stroke="none"/>
      <path d="M16.4 13.2 Q18.0 12.8 19.8 13.55 20.8 13.95 21.55 14.6 L22.45 15.6 Q23.3 17.05 22.8 18.3 22.3 19.55 20.7 19.9 L17.35 19.6 Q15.55 18.85 14.7 17.45 13.8 16.1 14.3 14.85 L14.4 14.65 Q14.95 13.55 16.4 13.2 Z" fill="none" stroke="#000000" stroke-linecap="round" stroke-linejoin="round" stroke-opacity="0.3019608" stroke-width="0.30000000000000004"/>
      <path d="M38.7 8.6 Q40.6 8.15 42.6 8.55 L40.8 8.75 Q38.75 9.05 36.9 9.95 L36.45 9.35 Q37.55 8.85 38.7 8.6 M42.8 16.8 L42.7 16.3 Q44.2 15.6 45.65 16.0 46.85 16.3 48.0 17.25 L48.1 17.55 Q46.65 16.55 45.25 16.4 44.0 16.25 42.8 16.8 M43.1 25.05 L44.35 25.0 Q45.15 25.25 45.9 26.2 L45.85 26.4 Q44.95 25.45 43.85 25.35 L42.95 25.5 43.1 25.05 M40.05 31.55 L40.4 31.0 Q41.3 32.2 40.7 34.55 40.7 32.15 40.05 31.55 M39.7 38.55 L39.4 38.2 Q39.5 37.55 40.8 37.45 39.45 37.75 39.7 38.55" fill="#f9f8ec" fill-rule="evenodd" stroke="none"/>
      <path d="M40.8 37.45 Q39.5 37.55 39.4 38.2 L38.3 37.65 Q39.5 36.8 40.9 37.35 L41.05 37.45 40.8 37.45" fill="#d5d580" fill-rule="evenodd" stroke="none"/>
      <path d="M38.7 8.6 Q37.55 8.85 36.45 9.35 L34.05 8.0 37.0 7.35 Q35.5 8.55 38.7 8.6 M40.8 8.75 L42.6 8.55 Q43.75 10.4 43.7 12.5 42.25 13.6 40.8 8.75 M45.25 16.4 Q46.65 16.55 48.1 17.55 48.35 18.55 48.1 19.75 44.85 20.4 45.25 16.4 M45.65 16.0 Q44.2 15.6 42.7 16.3 L43.3 14.85 44.55 14.85 45.65 16.0 M44.7 24.25 L44.35 25.0 43.1 25.05 43.5 23.95 44.7 24.25 M43.85 25.35 Q44.95 25.45 45.85 26.4 L45.45 27.55 Q43.1 28.55 43.85 25.35" fill="#cac960" fill-rule="evenodd" stroke="none"/>
      <path d="M36.9 9.95 Q38.75 9.05 40.8 8.75 42.25 13.6 43.7 12.5 43.7 13.65 43.3 14.85 L42.7 16.3 42.6 16.5 36.9 9.95 M42.8 16.8 Q44.0 16.25 45.25 16.4 44.85 20.4 48.1 19.75 L47.75 20.8 Q47.0 22.85 43.7 23.15 L42.8 16.8 M42.95 25.5 L43.85 25.35 Q43.1 28.55 45.45 27.55 44.35 29.8 41.35 29.25 L42.95 25.5 M40.05 31.55 Q40.7 32.15 40.7 34.55 39.2 35.95 37.45 35.3 L40.05 31.55 M39.7 38.55 Q39.45 37.75 40.8 37.45 L41.05 37.45 Q41.85 38.05 41.05 39.95 L39.7 38.55" fill="#a6a637" fill-rule="evenodd" stroke="none"/>
      <path d="M42.6 8.55 Q40.6 8.15 38.7 8.6 35.5 8.55 37.0 7.35 40.05 7.1 42.6 8.55 M48.0 17.25 Q46.85 16.3 45.65 16.0 L44.55 14.85 Q47.15 15.15 48.0 17.25 M44.35 25.0 L44.7 24.25 Q45.65 24.75 45.9 26.2 45.15 25.25 44.35 25.0" fill="#f0f0d2" fill-rule="evenodd" stroke="none"/>
      <path d="M36.45 9.35 L36.9 9.95 42.6 16.5 42.7 16.3 42.8 16.8 43.7 23.15 Q47.0 22.85 47.75 20.8 L48.1 19.75 Q48.35 18.55 48.1 17.55 L48.0 17.25 Q47.15 15.15 44.55 14.85 L43.3 14.85 Q43.7 13.65 43.7 12.5 43.75 10.4 42.6 8.55 40.05 7.1 37.0 7.35 L34.05 8.0 36.45 9.35 M42.7 16.3 L43.3 14.85 M44.7 24.25 L43.5 23.95 43.1 25.05 42.95 25.5 41.35 29.25 Q44.35 29.8 45.45 27.55 L45.85 26.4 45.9 26.2 Q45.65 24.75 44.7 24.25 M40.7 34.55 Q41.3 32.2 40.4 31.0 L40.05 31.55 37.45 35.3 Q39.2 35.95 40.7 34.55 M39.4 38.2 L39.7 38.55 41.05 39.95 Q41.85 38.05 41.05 37.45 L40.9 37.35 Q39.5 36.8 38.3 37.65 L39.4 38.2 M40.8 37.45 L41.05 37.45" fill="none" stroke="#000000" stroke-linecap="round" stroke-linejoin="round" stroke-opacity="0.3019608" stroke-width="0.30000000000000004"/>
      <path d="M31.2 9.25 Q31.2 9.75 30.6 10.1 L29.1 10.45 27.65 10.1 Q27.05 9.75 27.05 9.25 27.05 8.75 27.65 8.4 28.25 8.05 29.1 8.05 29.95 8.05 30.6 8.4 31.2 8.75 31.2 9.25 M39.2 20.3 Q41.55 15.95 38.65 11.25 34.45 7.35 30.5 7.7 24.9 7.85 20.8 12.4 23.65 12.8 24.4 13.65 20.8 12.15 18.0 13.65 L16.8 14.7 Q15.0 18.3 21.0 21.95 15.4 19.4 15.9 16.3 15.3 18.25 16.7 20.9 L18.35 23.45 Q22.95 22.6 27.7 25.5 L28.75 26.2 30.4 27.85 Q34.1 28.8 37.2 26.7 35.35 29.05 31.2 28.65 L32.45 30.75 32.55 31.1 Q33.0 32.2 33.1 33.35 L33.15 34.5 32.8 32.95 Q31.3 29.35 28.8 27.05 29.65 28.95 29.0 31.8 26.95 37.65 22.55 38.85 19.65 39.6 15.7 38.35 13.5 37.0 12.2 35.65 L10.95 34.0 Q9.55 26.65 17.6 23.65 13.95 19.1 15.3 15.5 16.8 12.8 19.85 12.4 26.05 5.5 33.65 7.15 45.8 12.45 44.3 23.95 L44.2 24.4 Q42.45 31.15 37.1 36.7 L36.55 37.25 34.35 39.3 31.85 40.65 33.75 39.1 Q41.95 31.5 43.5 24.0 44.15 19.35 42.5 15.95 41.75 14.4 40.5 13.1 L40.3 12.9 Q41.3 15.4 40.4 17.95 40.0 19.1 39.2 20.3 M18.35 23.45 L17.6 23.65 18.35 23.45 M24.0 32.8 Q28.55 30.75 27.15 26.2 24.55 24.2 20.4 23.9 15.6 23.95 12.6 27.5 L11.65 29.65 Q10.9 32.1 11.85 34.2 13.05 36.15 15.7 37.55 18.65 38.6 21.75 38.35 L22.65 38.1 Q26.7 36.8 28.4 31.4 28.9 28.95 28.25 27.35 28.6 30.2 25.8 31.95 L24.0 32.8 M30.4 27.85 L31.2 28.65 30.4 27.85" fill="#f9f8ec" fill-rule="evenodd" stroke="none"/>
      <path d="M31.2 9.25 Q31.2 8.75 30.6 8.4 29.95 8.05 29.1 8.05 28.25 8.05 27.65 8.4 27.05 8.75 27.05 9.25 27.05 9.75 27.65 10.1 L29.1 10.45 30.6 10.1 Q31.2 9.75 31.2 9.25 M39.2 20.3 L37.65 22.2 Q31.8 26.45 23.4 22.95 L21.0 21.95 Q15.0 18.3 16.8 14.7 L18.0 13.65 Q20.8 12.15 24.4 13.65 23.65 12.8 20.8 12.4 24.9 7.85 30.5 7.7 34.45 7.35 38.65 11.25 41.55 15.95 39.2 20.3 M21.35 33.7 L17.3 34.2 Q10.75 33.55 11.65 29.65 L12.6 27.5 Q15.6 23.95 20.4 23.9 24.55 24.2 27.15 26.2 28.55 30.75 24.0 32.8 L21.35 33.7 M10.95 34.0 L12.2 35.65 Q13.4 38.4 16.3 40.5 20.0 43.25 26.7 44.3 34.05 45.3 38.55 42.8 41.05 41.15 40.2 39.0 L39.4 38.2 Q40.6 39.5 38.7 41.0 L36.6 42.15 Q40.65 39.95 38.65 37.75 L36.55 37.25 37.1 36.7 Q41.1 37.4 41.15 39.9 41.65 43.4 33.55 45.35 15.8 46.2 11.3 35.35 L10.95 34.0" fill="#f0f0d2" fill-rule="evenodd" stroke="none"/>
      <path d="M21.0 21.95 L23.4 22.95 Q31.8 26.45 37.65 22.2 L39.2 20.3 Q40.0 19.1 40.4 17.95 42.35 15.65 41.25 20.65 39.95 23.7 37.2 26.7 34.1 28.8 30.4 27.85 L28.75 26.2 27.7 25.5 Q22.95 22.6 18.35 23.45 L16.7 20.9 Q15.3 18.25 15.9 16.3 15.4 19.4 21.0 21.95 M11.65 29.65 Q10.75 33.55 17.3 34.2 L21.35 33.7 Q24.6 33.1 25.8 33.7 L25.8 33.75 Q26.35 35.4 22.65 38.1 L21.75 38.35 Q18.65 38.6 15.7 37.55 13.05 36.15 11.85 34.2 10.9 32.1 11.65 29.65 M36.55 37.25 L38.65 37.75 Q40.65 39.95 36.6 42.15 L33.35 42.05 Q32.4 41.35 34.35 39.3 L36.55 37.25 M22.55 38.85 Q26.95 37.65 29.0 31.8 29.65 28.95 28.8 27.05 31.3 29.35 32.8 32.95 L33.15 34.5 Q33.65 41.25 26.9 41.9 22.25 41.65 22.55 38.85" fill="#d5d580" fill-rule="evenodd" stroke="none"/>
      <path d="M37.2 26.7 Q39.95 23.7 41.25 20.65 42.35 15.65 40.4 17.95 41.3 15.4 40.3 12.9 L40.5 13.1 Q41.75 14.4 42.5 15.95 44.15 19.35 43.5 24.0 41.95 31.5 33.75 39.1 L31.85 40.65 34.35 39.3 Q32.4 41.35 33.35 42.05 L36.6 42.15 38.7 41.0 Q40.6 39.5 39.4 38.2 L40.2 39.0 Q41.05 41.15 38.55 42.8 34.05 45.3 26.7 44.3 20.0 43.25 16.3 40.5 13.4 38.4 12.2 35.65 13.5 37.0 15.7 38.35 19.65 39.6 22.55 38.85 22.25 41.65 26.9 41.9 33.65 41.25 33.15 34.5 L33.1 33.35 Q33.4 31.65 33.15 30.25 36.2 29.3 37.2 26.7 M21.35 33.7 L24.0 32.8 25.8 31.95 Q28.6 30.2 28.25 27.35 28.9 28.95 28.4 31.4 26.7 36.8 22.65 38.1 26.35 35.4 25.8 33.75 L25.8 33.7 Q24.6 33.1 21.35 33.7" fill="#bfbf40" fill-rule="evenodd" stroke="none"/>
      <path d="M33.1 33.35 Q33.0 32.2 32.55 31.1 L32.45 30.75 31.2 28.65 Q35.35 29.05 37.2 26.7 36.2 29.3 33.15 30.25 33.4 31.65 33.1 33.35" fill="#a6a637" fill-rule="evenodd" stroke="none"/>
      <path d="M18.35 23.45 Q22.95 22.6 27.7 25.5 L28.75 26.2 30.4 27.85 31.2 28.65 32.45 30.75 M37.1 36.7 Q42.45 31.15 44.2 24.4 L44.3 23.95 Q45.8 12.45 33.65 7.15 26.05 5.5 19.85 12.4 16.8 12.8 15.3 15.5 13.95 19.1 17.6 23.65 L18.35 23.45 M12.2 35.65 L10.95 34.0 11.3 35.35 Q15.8 46.2 33.55 45.35 41.65 43.4 41.15 39.9 41.1 37.4 37.1 36.7 L36.55 37.25 34.35 39.3 M12.2 35.65 Q13.5 37.0 15.7 38.35 19.65 39.6 22.55 38.85 26.95 37.65 29.0 31.8 29.65 28.95 28.8 27.05 M37.2 26.7 Q35.35 29.05 31.2 28.65 M10.95 34.0 Q9.55 26.65 17.6 23.65" fill="none" stroke="#000000" stroke-linecap="round" stroke-linejoin="round" stroke-opacity="0.3019608" stroke-width="0.30000000000000004"/>
      <path d="M35.65 10.95 L36.1 11.6 36.3 11.95 36.5 12.5 Q36.75 13.55 36.35 14.7 L36.35 14.75 36.3 14.85 36.1 15.25 35.2 16.55 33.95 17.45 33.4 17.75 30.35 18.1 29.1 17.75 28.4 17.3 27.6 16.35 27.2 15.25 Q27.05 14.6 27.2 13.9 L27.4 13.2 27.7 12.5 Q28.35 11.3 29.65 10.55 L29.75 10.5 Q31.55 9.5 33.4 9.85 34.8 10.1 35.65 10.95 M27.7 9.3 Q27.65 9.95 26.6 10.95 L24.6 12.4 24.0 12.75 Q22.5 13.55 21.45 13.65 L21.4 13.65 Q20.35 13.8 20.35 13.15 20.35 12.6 21.2 11.8 L21.4 11.55 21.45 11.55 22.6 10.6 Q23.25 10.15 24.05 9.75 L25.05 9.25 26.6 8.8 Q27.7 8.7 27.7 9.3" fill="#bfbf40" fill-rule="evenodd" stroke="none"/>
      <path d="M26.25 19.05 Q27.95 19.85 29.85 20.95 32.2 23.2 30.9 23.4 L16.9 17.35 Q16.0 16.45 18.35 16.4 L20.1 16.8 20.15 17.3 Q20.45 18.1 22.15 18.95 L23.4 19.35 Q25.25 19.8 26.25 19.05" fill="#5f5a3a" fill-rule="evenodd" stroke="none"/>
      <path d="M35.5 10.5 L35.95 11.1 36.15 11.45 36.35 12.05 Q36.6 13.1 36.2 14.25 L36.2 14.3 36.15 14.4 35.95 14.8 35.05 16.1 33.8 17.0 33.25 17.25 Q31.75 17.95 30.2 17.65 L28.95 17.25 28.25 16.85 27.45 15.9 27.05 14.8 Q26.9 14.15 27.05 13.4 L27.25 12.75 27.6 12.05 Q28.2 10.85 29.5 10.1 L29.6 10.05 Q31.4 9.05 33.25 9.4 34.65 9.6 35.5 10.5 M33.75 14.25 Q34.55 13.25 34.4 12.05 34.3 11.1 33.55 10.1 L33.0 9.95 Q31.4 9.7 29.9 10.55 L29.8 10.6 Q28.8 11.15 28.25 12.05 L27.85 12.85 27.8 13.05 Q27.9 14.15 29.25 14.8 L31.1 15.35 Q29.2 15.4 28.2 14.8 L27.6 14.3 27.7 14.8 28.05 15.55 28.4 16.1 Q29.15 16.9 30.4 17.1 32.0 17.4 33.5 16.5 L34.15 16.1 35.25 14.8 35.55 14.25 35.55 14.2 Q36.0 13.05 35.65 12.05 L35.5 11.7 35.35 11.45 34.5 10.55 34.75 12.05 Q34.75 13.35 33.75 14.25 M25.5 10.45 Q26.25 9.5 25.45 9.2 24.7 9.4 23.8 9.9 L21.75 11.25 21.15 11.85 21.0 12.15 20.95 12.35 Q20.95 12.8 21.75 12.65 L21.8 12.6 23.75 11.85 24.2 11.6 25.75 10.5 26.6 9.35 26.4 9.1 26.0 9.05 26.3 9.4 26.25 9.65 25.5 10.45 M21.3 11.1 L22.45 10.15 Q23.1 9.65 23.9 9.25 L24.9 8.8 26.5 8.35 Q27.55 8.2 27.55 8.85 27.55 9.45 26.45 10.5 L24.45 11.95 23.85 12.3 Q22.35 13.1 21.3 13.2 20.2 13.35 20.2 12.7 20.2 12.15 21.05 11.35 L21.3 11.1" fill="#ffff98" fill-rule="evenodd" stroke="none"/>
      <path d="M23.4 19.35 L22.15 18.95 Q20.45 18.1 20.15 17.3 L24.55 18.8 Q24.9 19.25 23.4 19.35 M31.1 15.35 L29.25 14.8 Q27.9 14.15 27.8 13.05 L27.85 12.85 28.25 12.05 Q28.8 11.15 29.8 10.6 L29.9 10.55 Q31.4 9.7 33.0 9.95 L33.55 10.1 Q34.3 11.1 34.4 12.05 34.55 13.25 33.75 14.25 L33.1 14.8 31.1 15.35 M21.75 11.25 L23.8 9.9 Q24.7 9.4 25.45 9.2 26.25 9.5 25.5 10.45 L24.1 11.3 23.65 11.5 22.85 11.8 Q21.45 11.95 21.75 11.25" fill="#ffde4f" fill-rule="evenodd" stroke="none"/>
      <path d="M26.25 19.05 Q25.25 19.8 23.4 19.35 24.9 19.25 24.55 18.8 L20.15 17.3 20.1 16.8 Q22.9 17.45 26.25 19.05 M33.75 14.25 Q34.75 13.35 34.75 12.05 L34.5 10.55 35.35 11.45 35.5 11.7 35.65 12.05 Q36.0 13.05 35.55 14.2 L35.55 14.25 35.25 14.8 34.15 16.1 33.5 16.5 Q32.0 17.4 30.4 17.1 29.15 16.9 28.4 16.1 L28.05 15.55 27.7 14.8 27.6 14.3 28.2 14.8 Q29.2 15.4 31.1 15.35 L33.1 14.8 33.75 14.25 M25.5 10.45 L26.25 9.65 26.3 9.4 26.0 9.05 26.4 9.1 26.6 9.35 25.75 10.5 24.2 11.6 23.75 11.85 21.8 12.6 21.75 12.65 Q20.95 12.8 20.95 12.35 L21.0 12.15 21.15 11.85 21.75 11.25 Q21.45 11.95 22.85 11.8 L23.65 11.5 24.1 11.3 25.5 10.45" fill="#f4a33c" fill-rule="evenodd" stroke="none"/>
      <path d="M20.1 16.8 L18.35 16.4 Q16.0 16.45 16.9 17.35 L30.9 23.4 Q32.2 23.2 29.85 20.95 27.95 19.85 26.25 19.05 25.25 19.8 23.4 19.35 L22.15 18.95 Q20.45 18.1 20.15 17.3 L20.1 16.8 Q22.9 17.45 26.25 19.05 M35.5 10.5 L35.95 11.1 36.15 11.45 36.35 12.05 Q36.6 13.1 36.2 14.25 L36.2 14.3 36.15 14.4 35.95 14.8 35.05 16.1 33.8 17.0 33.25 17.25 Q31.75 17.95 30.2 17.65 L28.95 17.25 28.25 16.85 27.45 15.9 27.05 14.8 Q26.9 14.15 27.05 13.4 L27.25 12.75 27.6 12.05 Q28.2 10.85 29.5 10.1 L29.6 10.05 Q31.4 9.05 33.25 9.4 34.65 9.6 35.5 10.5 M21.3 11.1 L22.45 10.15 Q23.1 9.65 23.9 9.25 L24.9 8.8 26.5 8.35 Q27.55 8.2 27.55 8.85 27.55 9.45 26.45 10.5 L24.45 11.95 23.85 12.3 Q22.35 13.1 21.3 13.2 20.2 13.35 20.2 12.7 20.2 12.15 21.05 11.35 L21.3 11.1" fill="none" stroke="#000000" stroke-linecap="round" stroke-linejoin="round" stroke-opacity="0.3019608" stroke-width="0.30000000000000004"/>
      <path d="M38.15 22.7 Q38.85 22.35 39.15 21.65 L39.25 21.2 39.4 21.4 Q40.1 22.55 39.7 23.6 39.3 24.65 37.95 24.95 L35.2 24.65 Q33.7 24.1 33.0 22.9 32.4 22.0 32.55 21.15 33.3 22.15 34.6 22.7 L35.25 22.9 37.4 23.0 38.15 22.7" fill="#cac960" fill-rule="evenodd" stroke="none"/>
      <path d="M35.25 22.9 Q33.0 21.9 33.15 20.05 33.6 19.55 34.45 19.35 35.75 19.05 37.2 19.65 L38.45 20.35 Q39.1 21.9 38.15 22.7 L37.4 23.0 35.25 22.9" fill="#d5d580" fill-rule="evenodd" stroke="none"/>
      <path d="M38.15 22.7 Q39.1 21.9 38.45 20.35 L37.2 19.65 Q35.75 19.05 34.45 19.35 33.6 19.55 33.15 20.05 33.0 21.9 35.25 22.9 L34.6 22.7 Q33.3 22.15 32.55 21.15 32.4 22.0 33.0 22.9 33.7 24.1 35.2 24.65 L37.95 24.95 Q39.3 24.65 39.7 23.6 40.1 22.55 39.4 21.4 L39.25 21.2 39.15 21.65 Q38.85 22.35 38.15 22.7 M34.05 18.8 Q35.65 18.4 37.45 19.15 L39.2 20.2 40.1 21.2 Q40.95 22.65 40.45 23.9 39.95 25.15 38.35 25.5 L35.0 25.2 Q33.2 24.45 32.35 23.05 31.45 21.7 31.95 20.45 L32.05 20.25 Q32.6 19.15 34.05 18.8" fill="#f9f8ec" fill-rule="evenodd" stroke="none"/>
      <path d="M34.05 18.8 Q35.65 18.4 37.45 19.15 L39.2 20.2 40.1 21.2 Q40.95 22.65 40.45 23.9 39.95 25.15 38.35 25.5 L35.0 25.2 Q33.2 24.45 32.35 23.05 31.45 21.7 31.95 20.45 L32.05 20.25 Q32.6 19.15 34.05 18.8 Z" fill="none" stroke="#000000" stroke-linecap="round" stroke-linejoin="round" stroke-opacity="0.3019608" stroke-width="0.30000000000000004"/>
      <path d="M12.9 30.35 Q13.6 30.6 13.85 31.25 L13.95 31.55 13.7 32.4 13.7 32.45 14.1 33.3 14.35 34.15 14.5 36.25 Q14.35 37.7 13.45 38.25 L12.15 38.35 11.5 38.0 Q10.5 37.3 9.85 35.8 9.25 34.25 9.45 32.8 9.6 31.55 10.35 31.0 10.7 30.45 11.45 30.25 L12.9 30.35" fill="#a6a637" fill-rule="evenodd" stroke="none"/>
      <path d="M27.65 36.4 L28.0 36.2 28.3 36.15 Q28.75 36.1 29.2 36.4 29.75 36.75 29.95 37.5 L30.0 38.55 29.85 39.0 29.3 39.75 29.35 40.1 Q29.3 41.45 28.5 42.6 27.4 44.25 25.4 44.6 L22.85 44.35 21.75 43.8 Q20.05 42.65 19.65 40.7 19.2 38.75 20.3 37.1 21.4 35.55 23.4 35.2 25.4 34.85 27.1 35.95 L27.65 36.4" fill="#a6a637" fill-rule="evenodd" stroke="none"/>
      <path d="M16.6 35.55 L15.55 35.85 15.15 35.8 15.3 35.9 Q16.05 36.55 16.95 36.55 17.85 36.55 18.4 35.9 18.95 35.3 18.75 34.45 18.65 33.5 17.9 32.9 17.35 32.45 16.65 32.3 17.3 32.9 17.4 33.7 L17.4 34.05 Q17.4 34.75 16.95 35.25 L16.6 35.55" fill="#cac960" fill-rule="evenodd" stroke="none"/>
      <path d="M17.4 34.05 Q17.1 32.7 15.7 32.35 L14.85 32.9 Q14.3 33.5 14.45 34.45 L14.7 35.15 Q15.75 35.85 16.6 35.55 L16.95 35.25 Q17.4 34.75 17.4 34.05" fill="#d5d580" fill-rule="evenodd" stroke="none"/>
      <path d="M16.6 35.55 Q15.75 35.85 14.7 35.15 L14.45 34.45 Q14.3 33.5 14.85 32.9 L15.7 32.35 Q17.1 32.7 17.4 34.05 L17.4 33.7 Q17.3 32.9 16.65 32.3 17.35 32.45 17.9 32.9 18.65 33.5 18.75 34.45 18.95 35.3 18.4 35.9 17.85 36.55 16.95 36.55 16.05 36.55 15.3 35.9 L15.15 35.8 15.55 35.85 16.6 35.55 M14.45 32.6 Q13.8 33.35 14.0 34.4 L14.4 35.55 15.0 36.2 Q15.9 36.95 17.0 37.0 18.1 37.0 18.75 36.2 19.4 35.5 19.25 34.4 19.05 33.35 18.2 32.6 17.3 31.85 16.25 31.85 L16.05 31.85 Q15.1 31.95 14.45 32.6" fill="#f9f8ec" fill-rule="evenodd" stroke="none"/>
      <path d="M14.45 32.6 Q13.8 33.35 14.0 34.4 L14.4 35.55 15.0 36.2 Q15.9 36.95 17.0 37.0 18.1 37.0 18.75 36.2 19.4 35.5 19.25 34.4 19.05 33.35 18.2 32.6 17.3 31.85 16.25 31.85 L16.05 31.85 Q15.1 31.95 14.45 32.6 Z" fill="none" stroke="#000000" stroke-linecap="round" stroke-linejoin="round" stroke-opacity="0.3019608" stroke-width="0.30000000000000004"/>
      <path d="M27.65 41.65 L28.0 40.0 26.95 37.45 Q25.85 35.55 24.05 34.5 22.95 33.85 21.5 33.5 L20.65 33.45 Q18.5 33.35 17.4 34.1 16.05 35.0 16.4 35.35 L19.7 35.1 Q20.45 35.25 21.2 35.65 L22.05 36.4 23.75 38.15 Q25.55 40.35 25.3 42.45 L25.25 42.85 Q24.65 44.65 25.75 44.05 27.1 43.3 27.65 41.65 M27.15 43.55 Q25.6 45.35 22.8 45.35 20.05 45.35 17.75 43.55 15.4 41.75 14.9 39.15 14.4 36.55 16.0 34.75 16.55 34.05 17.3 33.65 18.55 32.95 20.35 32.95 L22.85 33.35 Q24.2 33.8 25.4 34.75 27.7 36.55 28.25 39.15 L28.35 40.45 Q28.35 42.2 27.15 43.55 M24.05 44.2 L24.45 43.55 Q25.1 42.2 24.3 40.2 23.5 38.25 21.75 36.85 L21.25 36.5 Q19.75 35.45 18.25 35.45 17.4 35.45 16.85 35.8 L16.25 36.3 15.9 36.85 Q15.25 38.25 16.05 40.2 16.85 42.2 18.6 43.55 L19.3 44.05 Q20.75 44.95 22.1 44.95 23.35 44.95 24.05 44.2" fill="#f9f8ec" fill-rule="evenodd" stroke="none"/>
      <path d="M22.05 36.4 L21.2 35.65 Q20.45 35.25 19.7 35.1 19.25 33.85 20.65 33.45 L21.5 33.5 Q22.95 33.85 24.05 34.5 25.05 37.1 22.05 36.4" fill="#f0f0d2" fill-rule="evenodd" stroke="none"/>
      <path d="M25.3 42.45 Q26.1 43.35 27.65 41.65 27.1 43.3 25.75 44.05 24.65 44.65 25.25 42.85 L25.3 42.45 M26.95 37.45 Q25.45 39.3 23.75 38.15 L22.05 36.4 Q25.05 37.1 24.05 34.5 25.85 35.55 26.95 37.45 M19.7 35.1 L16.4 35.35 Q16.05 35.0 17.4 34.1 18.5 33.35 20.65 33.45 19.25 33.85 19.7 35.1 M16.25 36.3 L16.85 35.8 Q18.6 38.05 19.1 41.75 18.0 37.5 16.25 36.3" fill="#d5d580" fill-rule="evenodd" stroke="none"/>
      <path d="M27.65 41.65 Q26.1 43.35 25.3 42.45 25.55 40.35 23.75 38.15 25.45 39.3 26.95 37.45 L28.0 40.0 27.65 41.65 M21.25 36.5 L21.75 36.85 Q23.5 38.25 24.3 40.2 25.1 42.2 24.45 43.55 L24.05 44.2 Q21.9 40.8 21.25 36.5 M19.3 44.05 L18.6 43.55 Q16.85 42.2 16.05 40.2 15.25 38.25 15.9 36.85 L16.25 36.3 Q18.0 37.5 19.1 41.75 L19.3 44.05" fill="#bfbf40" fill-rule="evenodd" stroke="none"/>
      <path d="M24.05 44.2 Q23.35 44.95 22.1 44.95 20.75 44.95 19.3 44.05 L19.1 41.75 Q18.6 38.05 16.85 35.8 17.4 35.45 18.25 35.45 19.75 35.45 21.25 36.5 21.9 40.8 24.05 44.2" fill="#a6a637" fill-rule="evenodd" stroke="none"/>
      <path d="M27.15 43.55 Q25.6 45.35 22.8 45.35 20.05 45.35 17.75 43.55 15.4 41.75 14.9 39.15 14.4 36.55 16.0 34.75 16.55 34.05 17.3 33.65 18.55 32.95 20.35 32.95 L22.85 33.35 Q24.2 33.8 25.4 34.75 27.7 36.55 28.25 39.15 L28.35 40.45 Q28.35 42.2 27.15 43.55 Z" fill="none" stroke="#000000" stroke-linecap="round" stroke-linejoin="round" stroke-opacity="0.3019608" stroke-width="0.30000000000000004"/>
      <path d="M24.5 37.35 Q24.95 37.15 25.75 37.35 L27.15 38.1 27.9 39.05 Q28.05 39.5 27.6 39.75 L26.4 39.7 25.95 39.6 24.95 39.05 Q24.3 38.55 24.2 38.05 24.1 37.7 24.3 37.5 L24.5 37.35" fill="#a6a637" fill-rule="evenodd" stroke="none"/>
      <path d="M20.3 33.2 L21.85 33.5 Q22.6 33.8 22.85 34.25 23.1 34.7 22.7 35.0 22.3 35.35 21.55 35.35 L21.1 35.3 20.0 35.0 18.95 34.25 Q18.8 33.95 18.95 33.75 L19.15 33.5 Q19.55 33.2 20.3 33.2" fill="#a6a637" fill-rule="evenodd" stroke="none"/>
      <path d="M21.0 33.75 L20.0 34.05 19.65 34.0 19.8 34.1 Q20.45 34.65 21.25 34.65 22.1 34.65 22.65 34.1 23.1 33.5 23.0 32.75 22.85 31.85 22.25 31.3 21.65 30.85 21.0 30.75 21.6 31.3 21.7 32.05 L21.75 32.4 21.3 33.45 21.0 33.75" fill="#cac960" fill-rule="evenodd" stroke="none"/>
      <path d="M21.75 32.4 Q21.45 31.15 20.1 30.8 L19.3 31.3 Q18.85 31.9 18.95 32.7 L19.2 33.45 Q20.2 34.05 21.0 33.75 L21.3 33.45 21.75 32.4" fill="#d5d580" fill-rule="evenodd" stroke="none"/>
      <path d="M21.0 33.75 Q20.2 34.05 19.2 33.45 L18.95 32.7 Q18.85 31.9 19.3 31.3 L20.1 30.8 Q21.45 31.15 21.75 32.4 L21.7 32.05 Q21.6 31.3 21.0 30.75 21.65 30.85 22.25 31.3 22.85 31.85 23.0 32.75 23.1 33.5 22.65 34.1 22.1 34.65 21.25 34.65 20.45 34.65 19.8 34.1 L19.65 34.0 20.0 34.05 21.0 33.75 M19.0 31.05 Q18.4 31.7 18.55 32.7 L18.95 33.75 19.5 34.4 Q20.35 35.1 21.35 35.1 22.35 35.05 22.95 34.4 23.6 33.65 23.4 32.75 23.3 31.7 22.45 31.0 21.65 30.35 20.65 30.3 L20.45 30.3 Q19.55 30.4 19.0 31.05" fill="#f9f8ec" fill-rule="evenodd" stroke="none"/>
      <path d="M19.0 31.05 Q18.4 31.7 18.55 32.7 L18.95 33.75 19.5 34.4 Q20.35 35.1 21.35 35.1 22.35 35.05 22.95 34.4 23.6 33.65 23.4 32.75 23.3 31.7 22.45 31.0 21.65 30.35 20.65 30.3 L20.45 30.3 Q19.55 30.4 19.0 31.05 Z" fill="none" stroke="#000000" stroke-linecap="round" stroke-linejoin="round" stroke-opacity="0.3019608" stroke-width="0.30000000000000004"/>
      <path d="M26.65 37.95 Q26.2 38.25 25.6 38.25 L25.2 38.2 25.35 38.3 Q26.1 38.95 27.0 38.95 27.9 38.95 28.45 38.3 29.0 37.7 28.8 36.85 28.7 35.9 27.95 35.3 27.4 34.85 26.7 34.7 27.35 35.3 27.45 36.1 L27.45 36.45 Q27.45 37.15 27.0 37.65 L26.65 37.95" fill="#cac960" fill-rule="evenodd" stroke="none"/>
      <path d="M27.45 36.45 Q27.15 35.1 25.75 34.75 25.2 34.9 24.9 35.3 24.35 35.9 24.5 36.85 L24.75 37.55 Q25.8 38.25 26.65 37.95 L27.0 37.65 Q27.45 37.15 27.45 36.45" fill="#d5d580" fill-rule="evenodd" stroke="none"/>
      <path d="M26.65 37.95 Q25.8 38.25 24.75 37.55 L24.5 36.85 Q24.35 35.9 24.9 35.3 25.2 34.9 25.75 34.75 27.15 35.1 27.45 36.45 L27.45 36.1 Q27.35 35.3 26.7 34.7 27.4 34.85 27.95 35.3 28.7 35.9 28.8 36.85 29.0 37.7 28.45 38.3 27.9 38.95 27.0 38.95 26.1 38.95 25.35 38.3 L25.2 38.2 25.6 38.25 Q26.2 38.25 26.65 37.95 M24.5 35.0 Q23.85 35.75 24.05 36.8 L24.45 37.95 25.05 38.6 Q25.95 39.35 27.05 39.4 28.15 39.4 28.8 38.6 29.45 37.9 29.3 36.8 29.1 35.75 28.25 35.0 27.35 34.25 26.3 34.25 L26.1 34.25 Q25.15 34.35 24.5 35.0" fill="#f9f8ec" fill-rule="evenodd" stroke="none"/>
      <path d="M24.5 35.0 Q23.85 35.75 24.05 36.8 L24.45 37.95 25.05 38.6 Q25.95 39.35 27.05 39.4 28.15 39.4 28.8 38.6 29.45 37.9 29.3 36.8 29.1 35.75 28.25 35.0 27.35 34.25 26.3 34.25 L26.1 34.25 Q25.15 34.35 24.5 35.0 Z" fill="none" stroke="#000000" stroke-linecap="round" stroke-linejoin="round" stroke-opacity="0.3019608" stroke-width="0.30000000000000004"/>
      <path d="M5.1 29.5 Q4.65 29.4 4.35 29.05 L4.2 28.75 4.2 28.9 Q4.25 29.75 4.7 30.3 5.2 30.9 5.85 30.85 6.5 30.8 6.9 30.2 7.35 29.6 7.3 28.75 L6.95 27.6 Q6.95 28.35 6.5 28.9 L6.35 29.1 Q6.0 29.5 5.45 29.55 L5.1 29.5" fill="#cac960" fill-rule="evenodd" stroke="none"/>
      <path d="M6.35 29.1 Q7.0 28.15 6.4 27.0 L5.65 26.85 Q5.0 26.85 4.55 27.45 L4.25 28.1 Q4.45 29.15 5.1 29.5 L5.45 29.55 Q6.0 29.5 6.35 29.1" fill="#d5d580" fill-rule="evenodd" stroke="none"/>
      <path d="M5.1 29.5 Q4.45 29.15 4.25 28.1 L4.55 27.45 Q5.0 26.85 5.65 26.85 L6.4 27.0 Q7.0 28.15 6.35 29.1 L6.5 28.9 Q6.95 28.35 6.95 27.6 L7.3 28.75 Q7.35 29.6 6.9 30.2 6.5 30.8 5.85 30.85 5.2 30.9 4.7 30.3 4.25 29.75 4.2 28.9 L4.2 28.75 4.35 29.05 Q4.65 29.4 5.1 29.5 M5.6 26.4 Q4.85 26.45 4.3 27.2 4.05 27.6 3.95 28.15 L3.85 28.95 Q3.9 29.95 4.5 30.6 5.1 31.3 5.85 31.25 6.6 31.2 7.1 30.5 7.65 29.8 7.6 28.75 7.6 27.75 6.95 27.05 L6.9 26.95 Q6.35 26.4 5.6 26.4" fill="#f9f8ec" fill-rule="evenodd" stroke="none"/>
      <path d="M5.6 26.4 Q4.85 26.45 4.3 27.2 4.05 27.6 3.95 28.15 L3.85 28.95 Q3.9 29.95 4.5 30.6 5.1 31.3 5.85 31.25 6.6 31.2 7.1 30.5 7.65 29.8 7.6 28.75 7.6 27.75 6.95 27.05 L6.9 26.95 Q6.35 26.4 5.6 26.4 Z" fill="none" stroke="#000000" stroke-linecap="round" stroke-linejoin="round" stroke-opacity="0.3019608" stroke-width="0.30000000000000004"/>
      <path d="M5.55 28.85 Q6.1 27.05 7.65 27.05 8.35 27.05 9.1 27.45 9.9 27.9 10.75 28.85 12.35 30.7 13.1 33.25 L13.45 34.55 13.5 36.95 13.3 37.65 Q12.75 39.5 11.25 39.5 10.15 39.5 9.05 38.55 L8.1 37.65 Q6.5 35.85 5.75 33.25 5.0 30.7 5.55 28.85 M6.0 30.35 L5.9 31.55 Q6.0 32.65 6.45 33.9 L6.85 34.8 Q7.65 36.55 8.65 37.6 L8.8 37.8 Q9.6 38.55 10.1 38.4 L10.2 38.35 Q10.85 38.1 10.7 36.6 L10.55 35.7 Q10.35 34.6 9.75 33.4 L8.65 31.4 8.0 30.6 Q7.0 29.55 6.4 29.85 L6.3 29.9 6.0 30.35 M9.25 28.15 Q8.3 27.45 7.45 27.45 5.6 27.95 6.2 29.35 6.9 29.25 7.6 29.7 L9.0 31.1 Q10.3 32.85 10.7 34.3 L10.75 34.5 11.05 35.9 11.1 36.1 11.15 36.95 10.95 38.0 Q10.75 39.7 12.45 38.55 L12.85 37.65 13.0 36.75 13.0 34.5 12.9 34.1 Q12.2 31.6 10.95 29.95 L10.2 29.05 9.25 28.15" fill="#f9f8ec" fill-rule="evenodd" stroke="none"/>
      <path d="M7.6 29.7 Q7.3 27.9 9.25 28.15 L10.2 29.05 10.95 29.95 Q11.5 31.3 9.0 31.1 L7.6 29.7" fill="#f0f0d2" fill-rule="evenodd" stroke="none"/>
      <path d="M6.0 30.35 L6.3 29.9 Q7.5 32.3 8.15 34.65 L8.3 35.1 8.1 34.6 Q7.0 31.65 6.0 30.35 M7.6 29.7 Q6.9 29.25 6.2 29.35 5.6 27.95 7.45 27.45 8.3 27.45 9.25 28.15 7.3 27.9 7.6 29.7 M10.95 29.95 Q12.2 31.6 12.9 34.1 L10.7 34.3 Q10.3 32.85 9.0 31.1 11.5 31.3 10.95 29.95 M12.85 37.65 L12.45 38.55 Q10.75 39.7 10.95 38.0 L11.15 36.95 Q11.85 38.3 12.85 37.65" fill="#d5d580" fill-rule="evenodd" stroke="none"/>
      <path d="M8.8 37.8 L8.65 37.6 Q7.65 36.55 6.85 34.8 L6.45 33.9 Q6.0 32.65 5.9 31.55 L6.0 30.35 Q7.0 31.65 8.1 34.6 L8.3 35.1 8.8 37.8 M8.65 31.4 L9.75 33.4 Q10.35 34.6 10.55 35.7 L10.7 36.6 Q10.85 38.1 10.2 38.35 L10.1 38.4 8.65 31.4 M12.9 34.1 L13.0 34.5 13.0 36.75 12.85 37.65 Q11.85 38.3 11.15 36.95 L11.1 36.1 11.05 35.9 10.75 34.5 10.7 34.3 12.9 34.1" fill="#bfbf40" fill-rule="evenodd" stroke="none"/>
      <path d="M6.3 29.9 L6.4 29.85 Q7.0 29.55 8.0 30.6 L8.65 31.4 10.1 38.4 Q9.6 38.55 8.8 37.8 L8.3 35.1 8.15 34.65 Q7.5 32.3 6.3 29.9" fill="#a6a637" fill-rule="evenodd" stroke="none"/>
      <path d="M5.55 28.85 Q6.1 27.05 7.65 27.05 8.35 27.05 9.1 27.45 9.9 27.9 10.75 28.85 12.35 30.7 13.1 33.25 L13.45 34.55 13.5 36.95 13.3 37.65 Q12.75 39.5 11.25 39.5 10.15 39.5 9.05 38.55 L8.1 37.65 Q6.5 35.85 5.75 33.25 5.0 30.7 5.55 28.85 Z" fill="none" stroke="#000000" stroke-linecap="round" stroke-linejoin="round" stroke-opacity="0.3019608" stroke-width="0.30000000000000004"/>
      <path d="M11.55 31.25 L12.35 32.05 Q12.6 32.6 12.45 32.95 12.3 33.4 11.75 33.45 L10.75 33.2 10.45 33.05 9.95 32.4 Q9.7 31.9 9.85 31.45 L10.25 31.05 10.5 31.0 Q11.0 30.9 11.55 31.25" fill="#a6a637" fill-rule="evenodd" stroke="none"/>
      <path d="M10.9 31.6 Q10.5 31.65 10.15 31.35 L9.95 31.15 10.0 31.3 Q10.1 32.0 10.6 32.35 L11.8 32.6 Q12.4 32.45 12.75 31.85 L13.0 30.6 12.5 29.7 12.25 30.85 12.1 31.1 Q11.8 31.5 11.3 31.6 L10.9 31.6" fill="#cac960" fill-rule="evenodd" stroke="none"/>
      <path d="M12.1 31.1 Q12.55 30.15 11.85 29.3 L11.15 29.3 Q10.5 29.45 10.15 30.05 L9.95 30.65 Q10.25 31.5 10.9 31.6 L11.3 31.6 Q11.8 31.5 12.1 31.1" fill="#d5d580" fill-rule="evenodd" stroke="none"/>
      <path d="M10.9 31.6 Q10.25 31.5 9.95 30.65 L10.15 30.05 Q10.5 29.45 11.15 29.3 L11.85 29.3 Q12.55 30.15 12.1 31.1 L12.25 30.85 12.5 29.7 13.0 30.6 12.75 31.85 Q12.4 32.45 11.8 32.6 L10.6 32.35 Q10.1 32.0 10.0 31.3 L9.95 31.15 10.15 31.35 Q10.5 31.65 10.9 31.6 M11.05 28.95 Q10.35 29.1 9.95 29.85 L9.6 30.75 9.65 31.4 Q9.85 32.2 10.45 32.7 L11.85 32.9 Q12.6 32.75 13.0 32.0 13.4 31.35 13.3 30.5 13.1 29.7 12.45 29.25 L12.4 29.2 Q11.75 28.8 11.05 28.95" fill="#f9f8ec" fill-rule="evenodd" stroke="none"/>
      <path d="M11.05 28.95 Q10.35 29.1 9.95 29.85 L9.6 30.75 9.65 31.4 Q9.85 32.2 10.45 32.7 L11.85 32.9 Q12.6 32.75 13.0 32.0 13.4 31.35 13.3 30.5 13.1 29.7 12.45 29.25 L12.4 29.2 Q11.75 28.8 11.05 28.95 Z" fill="none" stroke="#000000" stroke-linecap="round" stroke-linejoin="round" stroke-opacity="0.3019608" stroke-width="0.30000000000000004"/>
      <path d="M7.0 28.15 Q7.25 27.85 7.9 27.85 L9.1 28.15 9.9 28.9 Q10.15 29.35 9.85 29.65 L8.95 29.95 8.6 29.95 7.75 29.65 6.9 28.9 6.85 28.35 7.0 28.15" fill="#a6a637" fill-rule="evenodd" stroke="none"/>
      <path d="M7.95 28.05 L7.15 27.8 6.95 27.55 6.95 27.7 Q7.15 28.45 7.7 28.85 8.25 29.25 8.9 29.15 9.55 29.0 9.85 28.35 10.2 27.75 10.0 27.05 L9.5 26.1 9.3 27.3 9.1 27.55 8.35 28.05 7.95 28.05" fill="#cac960" fill-rule="evenodd" stroke="none"/>
      <path d="M9.1 27.55 Q9.55 26.55 8.8 25.7 L8.05 25.65 Q7.4 25.8 7.1 26.4 L6.9 27.0 Q7.25 27.9 7.95 28.05 L8.35 28.05 9.1 27.55" fill="#d5d580" fill-rule="evenodd" stroke="none"/>
      <path d="M7.95 28.05 Q7.25 27.9 6.9 27.0 L7.1 26.4 Q7.4 25.8 8.05 25.65 L8.8 25.7 Q9.55 26.55 9.1 27.55 L9.3 27.3 9.5 26.1 10.0 27.05 Q10.2 27.75 9.85 28.35 9.55 29.0 8.9 29.15 8.25 29.25 7.7 28.85 7.15 28.45 6.95 27.7 L6.95 27.55 7.15 27.8 7.95 28.05 M7.95 25.25 Q7.2 25.45 6.8 26.2 6.6 26.65 6.55 27.1 L6.6 27.8 Q6.85 28.65 7.55 29.15 L9.0 29.45 Q9.75 29.3 10.1 28.55 10.55 27.85 10.35 27.0 10.1 26.1 9.4 25.6 L9.3 25.55 Q8.65 25.15 7.95 25.25" fill="#f9f8ec" fill-rule="evenodd" stroke="none"/>
      <path d="M7.95 25.25 Q7.2 25.45 6.8 26.2 6.6 26.65 6.55 27.1 L6.6 27.8 Q6.85 28.65 7.55 29.15 L9.0 29.45 Q9.75 29.3 10.1 28.55 10.55 27.85 10.35 27.0 10.1 26.1 9.4 25.6 L9.3 25.55 Q8.65 25.15 7.95 25.25 Z" fill="none" stroke="#000000" stroke-linecap="round" stroke-linejoin="round" stroke-opacity="0.3019608" stroke-width="0.30000000000000004"/>
    </g>
    <g id="sprite1" transform="matrix(1.0, 0.0, 0.0, 1.0, 0.0, 0.0)">
      <use height="26.7" transform="matrix(0.0042, -1.3515, 1.3935, 0.02, 22.09, 56.0263)" width="26.7" xlink:href="#sprite2"/>
      <use height="26.7" transform="matrix(0.0095, -3.0486, 0.372, 0.0053, 36.507, 81.3775)" width="26.7" xlink:href="#sprite2"/>
      <use height="26.7" transform="matrix(3.0486, 0.0095, -0.0053, 0.372, 0.1225, 35.107)" width="26.7" xlink:href="#sprite2"/>
    </g>
    <g id="sprite2" transform="matrix(1.0, 0.0, 0.0, 1.0, 13.35, 13.35)">
      <use height="26.7" transform="matrix(1.0, 0.0, 0.0, 1.0, -13.35, -13.35)" width="26.7" xlink:href="#shape1"/>
    </g>
    <g id="shape1" transform="matrix(1.0, 0.0, 0.0, 1.0, 13.35, 13.35)">
      <path d="M9.3 -9.85 Q13.35 -5.8 13.35 0.0 13.35 5.8 9.3 9.3 5.8 13.35 0.0 13.35 -5.8 13.35 -9.85 9.3 -13.35 5.8 -13.35 0.0 -13.35 -5.8 -9.85 -9.85 -5.8 -13.35 0.0 -13.35 5.8 -13.35 9.3 -9.85" fill="url(#gradient0)" fill-rule="evenodd" stroke="none"/>
    </g>
    <radialGradient cx="0" cy="0" gradientTransform="matrix(0.0213, 0.0, 0.0, 0.0213, 0.0, 0.0)" gradientUnits="userSpaceOnUse" id="gradient0" r="819.2" spreadMethod="pad">
      <stop offset="0.19607843137254902" stop-color="#fee3bc" stop-opacity="0.78039217"/>
      <stop offset="0.5019607843137255" stop-color="#fee3bc" stop-opacity="0.1254902"/>
      <stop offset="0.7607843137254902" stop-color="#ffe3bd" stop-opacity="0.0"/>
    </radialGradient>
  </defs>
</svg>
