<?xml version="1.0" encoding="UTF-8" standalone="no"?>
<svg xmlns:xlink="http://www.w3.org/1999/xlink" height="52.0px" width="52.0px" xmlns="http://www.w3.org/2000/svg">
  <g transform="matrix(1.0, 0.0, 0.0, 1.0, 0.0, 0.0)">
    <use height="210.0" transform="matrix(1.0, 0.0, 0.0, 1.0, -79.0, -79.0)" width="210.0" xlink:href="#shape0"/>
    <use height="81.5" transform="matrix(0.2318, 0.0, 0.0, 0.2216, 21.6, 9.7)" width="81.5" xlink:href="#sprite0"/>
    <use height="0.0" transform="matrix(0.1076, 0.0, 0.0, 0.05, 29.5, 38.15)" width="0.0" xlink:href="#sprite2"/>
    <use height="0.0" transform="matrix(0.0728, 0.0, 0.0, 0.0673, 24.25, 28.6)" width="0.0" xlink:href="#sprite2"/>
    <use height="0.0" transform="matrix(0.0344, -0.0495, 0.088, 0.0493, 12.0, 33.35)" width="0.0" xlink:href="#sprite2"/>
    <use height="81.5" transform="matrix(0.1928, 0.0, 0.0, 0.1843, 8.2, 32.05)" width="81.5" xlink:href="#sprite0"/>
    <use height="0.0" transform="matrix(0.0844, 0.0226, -0.034, 0.1271, 28.1, 14.1)" width="0.0" xlink:href="#sprite2"/>
  </g>
  <defs>
    <g id="shape0" transform="matrix(1.0, 0.0, 0.0, 1.0, 79.0, 79.0)">
      <path d="M52.0 0.0 L52.0 52.0 0.0 52.0 0.0 0.0 52.0 0.0" fill="#795fa9" fill-opacity="0.0" fill-rule="evenodd" stroke="none"/>
      <path d="M21.65 23.95 L21.2 24.1 20.5 24.4 19.9 24.75 19.75 24.85 Q18.85 25.45 18.1 26.25 L16.6 28.25 14.75 28.15 14.25 28.35 Q11.25 27.35 8.25 28.45 4.05 30.7 3.8 35.45 L3.8 36.7 3.8 36.9 3.8 37.0 Q4.1 38.75 8.15 41.35 13.0 44.5 20.35 46.95 27.7 49.4 33.2 49.8 37.1 50.05 38.55 49.2 L38.9 48.95 38.95 48.9 39.05 48.75 39.15 48.6 Q41.95 43.8 40.65 40.45 40.05 38.85 39.15 37.85 L39.25 35.5 Q38.9 31.45 38.05 29.75 40.2 28.95 41.95 27.15 43.6 25.5 44.45 23.55 L46.2 24.1 Q48.15 24.3 48.25 21.7 L45.1 15.2 44.25 13.8 41.6 10.8 Q39.6 8.7 37.0 9.9 36.4 8.85 34.9 8.35 L33.85 8.15 33.8 8.15 Q33.1 4.2 32.0 2.55 24.8 4.8 20.5 14.4 17.75 21.3 22.7 23.65 L21.7 23.9 21.65 23.95 Z" fill="none" stroke="#000000" stroke-linecap="round" stroke-linejoin="round" stroke-opacity="0.3019608" stroke-width="1.0"/>
      <path d="M24.0 17.65 Q23.8 18.75 23.9 19.8 24.1 23.4 26.9 26.6 L27.65 27.4 Q32.85 31.0 38.8 28.3 42.0 26.7 43.75 23.05 L44.45 23.55 43.75 23.05 Q42.0 21.5 42.0 17.85 L42.1 15.75 Q42.25 17.3 42.55 18.55 43.35 21.7 45.3 22.8 46.9 23.8 47.5 21.75 L45.85 18.25 Q46.25 19.85 45.95 20.65 L45.5 21.45 Q46.2 20.15 45.0 16.5 L44.15 14.7 43.55 13.85 Q42.25 12.2 40.75 11.0 L40.65 10.95 Q40.1 10.6 39.5 10.45 41.25 11.45 41.7 14.7 42.15 17.9 41.45 19.35 41.8 15.95 40.95 13.2 L40.85 13.05 Q39.85 11.1 38.65 10.3 L37.45 10.4 Q36.45 10.75 35.6 11.6 L35.7 11.1 36.25 10.4 Q35.2 8.8 33.4 8.85 31.8 8.55 30.15 10.75 L30.85 9.35 Q27.3 10.0 24.95 14.3 24.2 16.0 24.0 17.65 M31.5 8.7 Q31.1 8.95 30.85 9.35 31.1 8.95 31.5 8.7 32.4 8.0 33.85 8.15 L34.9 8.35 Q36.4 8.85 37.0 9.9 39.6 8.7 41.6 10.8 L44.25 13.8 45.1 15.2 48.25 21.7 Q48.15 24.3 46.2 24.1 L44.45 23.55 Q43.6 25.5 41.95 27.15 38.7 30.45 34.05 30.45 29.4 30.45 26.1 27.15 22.85 23.9 22.85 19.25 22.85 14.6 25.95 11.35 L27.75 9.7 Q29.8 8.3 31.5 8.7 M37.0 9.9 Q36.55 10.1 36.25 10.4 36.55 10.1 37.0 9.9" fill="#f9f8ec" fill-rule="evenodd" stroke="none"/>
      <path d="M41.45 19.35 L41.45 19.4 41.35 19.6 40.6 21.05 39.65 22.5 39.1 22.95 Q41.65 19.95 40.9 15.55 L40.45 13.35 Q40.0 15.7 38.9 16.25 37.75 16.75 36.95 15.8 L35.25 13.4 33.05 14.3 Q29.45 14.7 30.15 10.75 31.8 8.55 33.4 8.85 35.2 8.8 36.25 10.4 L35.7 11.1 35.6 11.6 Q36.45 10.75 37.45 10.4 L38.65 10.3 Q39.85 11.1 40.85 13.05 L40.95 13.2 Q41.8 15.95 41.45 19.35 M41.7 14.7 Q41.25 11.45 39.5 10.45 40.1 10.6 40.65 10.95 L40.75 11.0 Q42.25 12.2 43.55 13.85 42.25 12.85 42.1 15.75 L41.7 14.7" fill="#f0f0d2" fill-rule="evenodd" stroke="none"/>
      <path d="M39.1 22.95 Q37.7 24.05 36.05 23.8 31.6 23.25 29.15 19.45 L24.0 17.65 Q24.2 16.0 24.95 14.3 27.3 10.0 30.85 9.35 L30.15 10.75 Q29.45 14.7 33.05 14.3 L35.25 13.4 36.95 15.8 Q37.75 16.75 38.9 16.25 40.0 15.7 40.45 13.35 L40.9 15.55 Q41.65 19.95 39.1 22.95 M42.1 15.75 Q42.25 12.85 43.55 13.85 L44.15 14.7 45.0 16.5 Q46.2 20.15 45.5 21.45 44.1 21.35 42.55 18.55 42.25 17.3 42.1 15.75" fill="#d5d580" fill-rule="evenodd" stroke="none"/>
      <path d="M23.9 19.8 Q23.8 18.75 24.0 17.65 L29.15 19.45 Q31.6 23.25 36.05 23.8 37.7 24.05 39.1 22.95 L39.65 22.5 40.6 21.05 41.35 19.6 41.45 19.4 41.45 19.35 Q42.35 21.05 42.05 23.55 41.85 25.3 39.15 26.45 35.25 26.7 33.05 24.9 L29.45 24.45 Q26.2 23.65 23.9 19.8 M45.5 21.45 L45.95 20.65 Q46.25 19.85 45.85 18.25 L47.5 21.75 Q46.9 23.8 45.3 22.8 43.35 21.7 42.55 18.55 44.1 21.35 45.5 21.45" fill="#bfbf40" fill-rule="evenodd" stroke="none"/>
      <path d="M23.9 19.8 Q26.2 23.65 29.45 24.45 L33.05 24.9 Q35.25 26.7 39.15 26.45 41.85 25.3 42.05 23.55 42.35 21.05 41.45 19.35 42.15 17.9 41.7 14.7 L42.1 15.75 42.0 17.85 Q42.0 21.5 43.75 23.05 42.0 26.7 38.8 28.3 32.85 31.0 27.65 27.4 L26.9 26.6 Q24.1 23.4 23.9 19.8" fill="#a6a637" fill-rule="evenodd" stroke="none"/>
      <path d="M30.85 9.35 Q31.1 8.95 31.5 8.7 29.8 8.3 27.75 9.7 L25.95 11.35 Q22.85 14.6 22.85 19.25 22.85 23.9 26.1 27.15 29.4 30.45 34.05 30.45 38.7 30.45 41.95 27.15 43.6 25.5 44.45 23.55 L43.75 23.05 Q42.0 21.5 42.0 17.85 L42.1 15.75 M35.7 11.1 L36.25 10.4 Q36.55 10.1 37.0 9.9 36.4 8.85 34.9 8.35 L33.85 8.15 Q32.4 8.0 31.5 8.7 M37.0 9.9 Q39.6 8.7 41.6 10.8 L44.25 13.8 45.1 15.2 48.25 21.7 Q48.15 24.3 46.2 24.1 L44.45 23.55 M30.85 9.35 L30.15 10.75" fill="none" stroke="#000000" stroke-linecap="round" stroke-linejoin="round" stroke-opacity="0.3019608" stroke-width="0.30000000000000004"/>
      <path d="M36.6 13.45 L36.6 12.85 36.75 13.1 37.0 13.3 Q37.4 13.5 37.9 13.3 L38.5 12.75 38.45 12.85 37.75 13.65 Q37.25 13.85 36.85 13.65 L36.6 13.45 M34.25 11.45 L34.15 11.65 33.35 12.45 Q32.85 12.7 32.4 12.45 L32.15 12.3 32.15 12.2 32.1 11.6 32.3 11.95 32.55 12.1 Q33.0 12.35 33.5 12.1 L34.25 11.45" fill="#f9f8ec" fill-rule="evenodd" stroke="none"/>
      <path d="M36.6 12.85 L36.75 12.35 37.4 11.6 38.35 11.7 38.6 11.85 38.5 12.75 37.9 13.3 Q37.4 13.5 37.0 13.3 L36.75 13.1 36.6 12.85 M34.2 10.55 L34.25 11.45 33.5 12.1 Q33.0 12.35 32.55 12.1 L32.3 11.95 32.1 11.6 32.25 11.05 Q32.5 10.5 33.0 10.25 L33.95 10.35 34.2 10.55" fill="#f0f0d2" fill-rule="evenodd" stroke="none"/>
      <path d="M38.6 11.85 L38.75 12.1 38.85 12.45 Q39.0 13.0 38.75 13.5 L38.05 14.3 Q37.55 14.5 37.15 14.3 36.75 14.05 36.6 13.45 L36.85 13.65 Q37.25 13.85 37.75 13.65 L38.45 12.85 38.5 12.75 38.6 11.85 M34.25 11.45 L34.2 10.55 34.45 10.85 34.5 11.15 34.45 12.3 33.65 13.1 Q33.15 13.35 32.7 13.1 32.25 12.85 32.15 12.3 L32.4 12.45 Q32.85 12.7 33.35 12.45 L34.15 11.65 34.25 11.45" fill="#d5d580" fill-rule="evenodd" stroke="none"/>
      <path d="M38.6 11.85 L38.35 11.7 37.4 11.6 36.75 12.35 36.6 12.85 36.6 13.45 Q36.75 14.05 37.15 14.3 37.55 14.5 38.05 14.3 L38.75 13.5 Q39.0 13.0 38.85 12.45 L38.75 12.1 38.6 11.85 M38.35 11.25 L38.5 11.35 38.75 11.55 39.15 12.3 Q39.35 13.0 39.05 13.65 38.75 14.35 38.15 14.6 37.55 14.9 37.0 14.6 36.5 14.3 36.35 13.55 L36.35 12.85 36.45 12.35 36.5 12.2 Q36.8 11.55 37.35 11.25 37.9 11.1 38.35 11.25 M32.1 10.95 Q32.4 10.3 32.95 10.0 L34.1 10.1 34.4 10.3 34.75 11.05 Q34.95 11.75 34.65 12.4 L33.75 13.35 Q33.15 13.65 32.6 13.35 32.1 13.05 31.95 12.3 L31.9 11.8 32.0 11.25 32.1 10.95 M32.15 12.3 Q32.25 12.85 32.7 13.1 33.15 13.35 33.65 13.1 L34.45 12.3 34.5 11.15 34.45 10.85 34.2 10.55 33.95 10.35 33.0 10.25 Q32.5 10.5 32.25 11.05 L32.1 11.6 32.15 12.2 32.15 12.3" fill="#bfbf40" fill-rule="evenodd" stroke="none"/>
      <path d="M16.6 28.25 L18.1 26.25 Q18.85 25.45 19.75 24.85 L19.9 24.75 20.5 24.4 21.2 24.1 21.65 23.95 21.7 23.9 Q28.45 21.85 35.25 26.55 L34.5 26.4 34.4 26.35 34.0 26.15 33.05 25.65 30.8 24.7 30.65 24.65 30.6 24.65 30.15 24.5 29.3 24.15 28.25 23.9 27.25 23.7 26.5 23.65 23.6 23.85 23.0 23.95 22.3 24.1 22.1 24.15 21.05 24.6 20.05 25.2 Q19.1 25.95 18.55 26.85 17.75 27.6 17.85 28.35 L16.6 28.25 17.85 28.35 19.8 28.75 21.5 29.3 21.65 29.35 21.95 29.5 21.85 29.8 20.0 29.1 14.7 28.45 Q12.7 29.05 11.5 32.6 12.05 28.9 14.75 28.15 L16.6 28.25 M37.0 31.25 Q37.95 31.45 38.45 32.55 L38.6 33.0 38.7 33.25 Q38.95 34.1 38.8 35.05 L38.6 35.95 38.55 36.05 38.55 34.35 Q38.4 32.85 37.9 32.25 L37.25 31.75 27.85 30.65 28.25 30.5 29.15 30.5 30.45 30.55 31.9 30.6 Q32.8 30.1 33.1 29.4 33.7 27.85 31.65 25.3 33.95 27.3 33.45 29.7 L33.1 30.75 33.35 30.75 34.1 30.85 36.35 31.15 37.0 31.25 M33.1 30.75 L32.75 30.7 32.65 30.7 31.9 30.6 32.65 30.7 32.75 30.7 33.1 30.75 M22.0 30.0 L21.95 30.25 Q21.85 31.5 22.4 31.35 L22.6 31.25 Q23.2 30.9 23.5 29.6 L24.2 28.0 24.55 27.4 24.65 27.2 24.95 26.8 24.8 27.1 24.6 27.5 24.3 28.2 23.55 30.35 Q23.15 31.8 22.65 32.05 22.15 32.3 21.5 31.25 L21.95 30.15 22.0 30.0 M25.0 29.5 Q23.85 32.7 25.1 32.4 25.45 32.4 25.8 32.0 L26.1 31.6 26.75 30.45 27.8 27.55 27.8 27.6 27.45 29.1 27.05 30.35 26.3 31.95 25.95 32.4 25.45 32.8 24.25 32.85 Q24.0 32.6 24.1 31.95 24.4 30.85 25.0 29.5 M20.3 25.1 Q20.9 24.75 21.45 24.7 21.95 24.65 22.15 24.95 L22.0 25.7 21.1 26.5 20.65 26.75 19.95 26.9 Q19.4 26.95 19.25 26.65 19.05 26.35 19.35 25.9 L20.1 25.25 20.3 25.1" fill="#f9f8ec" fill-rule="evenodd" stroke="none"/>
      <path d="M17.85 28.35 Q17.75 27.6 18.55 26.85 19.1 25.95 20.05 25.2 L21.05 24.6 22.3 24.45 23.75 24.35 Q25.85 24.3 25.7 25.25 L25.55 25.3 Q25.15 25.45 24.8 25.75 L25.65 25.9 25.35 26.25 25.2 26.4 25.2 26.45 25.1 26.55 25.1 26.6 25.0 26.7 24.95 26.8 24.65 27.2 24.55 27.4 24.2 28.0 23.5 29.6 Q23.2 30.9 22.6 31.25 L22.4 31.35 Q21.85 31.5 21.95 30.25 L22.0 30.0 22.15 29.65 22.75 28.5 23.65 27.0 24.25 26.25 24.8 25.75 24.25 26.25 23.65 27.0 22.75 28.5 22.15 29.65 21.95 29.5 21.65 29.35 21.5 29.3 19.8 28.75 17.85 28.35 M13.45 34.2 L11.8 33.45 Q11.4 33.05 11.5 32.6 12.7 29.05 14.7 28.45 L20.0 29.1 21.85 29.8 21.85 29.85 21.75 29.95 21.7 30.1 Q20.9 31.65 19.55 31.35 L14.1 30.4 Q13.25 30.1 13.35 29.65 L13.2 29.8 12.85 30.3 12.8 30.35 Q11.65 32.3 12.3 33.2 L13.45 34.2 M38.55 36.05 L37.85 37.1 Q37.05 37.85 35.75 38.05 L27.75 36.15 27.4 36.05 26.75 35.75 26.7 35.7 Q25.85 35.05 26.1 33.8 L26.15 33.65 Q26.3 35.2 27.35 35.65 L35.95 37.55 Q37.1 37.45 38.15 35.9 38.65 33.8 36.9 33.2 L30.6 32.25 28.3 32.05 Q27.1 32.0 27.3 31.1 L27.6 30.85 27.85 30.65 37.25 31.75 37.9 32.25 Q38.4 32.85 38.55 34.35 L38.55 36.05 M21.3 31.75 L21.3 31.8 21.25 31.75 21.3 31.75 M25.1 29.3 L26.25 26.95 26.3 26.9 Q27.2 25.95 27.6 26.2 28.05 26.15 27.85 27.4 L27.85 27.45 27.8 27.55 26.75 30.45 26.1 31.6 25.8 32.0 Q25.45 32.4 25.1 32.4 23.85 32.7 25.0 29.5 L25.05 29.4 25.1 29.35 25.1 29.3 M20.3 25.1 L20.1 25.25 19.35 25.9 Q19.05 26.35 19.25 26.65 19.4 26.95 19.95 26.9 L20.65 26.75 21.1 26.5 22.0 25.7 22.15 24.95 Q21.95 24.65 21.45 24.7 20.9 24.75 20.3 25.1 M20.45 30.0 L20.45 30.05 20.5 30.05 20.45 30.0" fill="#f0f0d2" fill-rule="evenodd" stroke="none"/>
      <path d="M21.05 24.6 L22.1 24.15 22.3 24.1 23.0 23.95 23.6 23.85 26.5 23.65 27.25 23.7 28.25 23.9 29.3 24.15 30.15 24.5 30.6 24.65 30.65 24.65 30.8 24.75 31.5 25.15 31.65 25.3 Q33.7 27.85 33.1 29.4 32.8 30.1 31.9 30.6 L30.45 30.55 29.15 30.5 29.3 27.85 Q28.8 25.55 28.05 25.35 27.65 25.25 27.15 25.65 27.65 25.25 28.05 25.35 28.6 25.75 28.45 27.85 L28.45 27.95 27.95 30.2 27.6 30.85 27.3 31.1 Q26.85 31.6 26.55 32.35 L26.2 33.4 26.15 33.65 26.1 33.8 Q25.85 35.05 26.7 35.7 L26.75 35.75 26.45 35.8 Q24.95 36.15 24.35 35.2 23.95 34.75 24.25 32.85 L25.45 32.8 25.95 32.4 26.3 31.95 27.05 30.35 27.45 29.1 27.8 27.6 27.8 27.55 27.85 27.45 27.85 27.4 Q28.05 26.15 27.6 26.2 27.2 25.95 26.3 26.9 L26.7 26.1 27.15 25.65 27.1 25.55 26.9 25.35 25.75 26.45 25.65 26.6 25.4 27.0 24.75 28.2 24.55 28.65 23.7 31.05 23.25 32.6 23.05 33.0 Q22.45 33.9 21.9 33.35 L21.0 32.55 21.25 31.8 21.3 31.8 21.3 31.75 21.5 31.25 Q22.15 32.3 22.65 32.05 23.15 31.8 23.55 30.35 L24.3 28.2 24.6 27.5 24.8 27.1 24.95 26.8 25.0 26.7 25.1 26.6 25.1 26.55 25.2 26.45 25.2 26.4 25.35 26.25 25.65 25.9 24.8 25.75 Q25.15 25.45 25.55 25.3 L25.7 25.25 Q25.85 24.3 23.75 24.35 L22.3 24.45 21.05 24.6 M34.5 26.4 L35.25 26.55 35.9 27.1 36.9 28.2 37.25 28.6 37.3 28.7 37.9 29.5 37.0 31.25 36.35 31.15 37.0 30.35 37.1 30.15 36.85 28.95 Q36.6 27.85 34.5 26.4 M25.7 25.25 L26.9 25.35 25.7 25.25 M21.7 30.1 Q21.05 31.9 20.15 32.2 16.35 32.35 13.0 30.95 L12.8 30.35 12.85 30.3 13.2 29.8 13.35 29.65 Q13.25 30.1 14.1 30.4 L19.55 31.35 Q20.9 31.65 21.7 30.1" fill="#d5d580" fill-rule="evenodd" stroke="none"/>
      <path d="M30.65 24.65 L30.8 24.7 33.05 25.65 34.0 26.15 34.4 26.35 34.5 26.4 Q36.6 27.85 36.85 28.95 L37.1 30.15 37.0 30.35 36.35 31.15 34.1 30.85 33.35 30.75 33.1 30.75 33.45 29.7 Q33.95 27.3 31.65 25.3 L31.5 25.15 30.8 24.75 30.65 24.65 M37.9 29.5 Q38.9 31.15 39.25 35.5 39.45 37.8 38.6 39.45 L37.95 39.5 Q38.65 37.75 38.7 36.65 38.25 37.2 37.85 37.1 L38.55 36.05 38.6 35.95 38.8 35.05 Q38.95 34.1 38.7 33.25 L38.6 33.0 38.45 32.55 Q37.95 31.45 37.0 31.25 L37.9 29.5 M14.55 34.55 L13.45 34.2 12.3 33.2 Q11.65 32.3 12.8 30.35 L13.0 30.95 Q16.35 32.35 20.15 32.2 21.05 31.9 21.7 30.1 L21.75 29.95 21.85 29.85 21.85 29.8 21.95 29.5 22.15 29.65 22.0 30.0 21.95 30.15 21.5 31.25 21.3 31.75 21.25 31.75 21.25 31.8 21.0 32.55 21.9 33.35 Q22.45 33.9 23.05 33.0 L23.25 32.6 23.1 33.25 Q22.65 35.35 23.1 36.1 L22.85 36.15 22.5 36.25 Q21.6 36.65 20.85 35.45 L20.75 35.15 Q20.5 34.15 21.0 32.55 20.5 34.15 20.75 35.15 17.7 35.9 14.55 34.55 M27.3 31.1 Q27.1 32.0 28.3 32.05 L30.6 32.25 36.9 33.2 Q38.65 33.8 38.15 35.9 37.1 37.45 35.95 37.55 L27.35 35.65 Q26.3 35.2 26.15 33.65 L26.2 33.4 26.55 32.35 Q26.85 31.6 27.3 31.1 M26.75 35.75 L27.4 36.05 27.75 36.15 Q26.1 36.8 25.05 36.55 24.2 36.35 23.8 35.55 L23.65 35.25 23.6 34.55 Q23.6 33.45 24.1 31.95 24.0 32.6 24.25 32.85 23.95 34.75 24.35 35.2 24.95 36.15 26.45 35.8 L26.75 35.75 M28.05 25.35 Q28.8 25.55 29.3 27.85 L29.15 30.5 28.25 30.5 27.85 30.65 27.6 30.85 27.95 30.2 28.45 27.95 28.45 27.85 Q28.6 25.75 28.05 25.35" fill="#bfbf40" fill-rule="evenodd" stroke="none"/>
      <path d="M37.95 39.5 L22.4 40.85 22.3 40.85 14.55 34.55 Q17.7 35.9 20.75 35.15 L20.85 35.45 Q21.6 36.65 22.5 36.25 L22.85 36.15 23.1 36.1 Q22.65 35.35 23.1 33.25 L23.25 32.6 23.7 31.05 24.55 28.65 24.75 28.2 25.4 27.0 25.65 26.6 25.75 26.45 26.9 25.35 27.1 25.55 27.15 25.65 26.7 26.1 26.3 26.9 26.25 26.95 25.1 29.3 25.1 29.35 25.05 29.4 25.0 29.5 Q24.4 30.85 24.1 31.95 23.6 33.45 23.6 34.55 L23.65 35.25 23.8 35.55 Q24.2 36.35 25.05 36.55 26.1 36.8 27.75 36.15 L35.75 38.05 Q37.05 37.85 37.85 37.1 38.25 37.2 38.7 36.65 38.65 37.75 37.95 39.5 M23.8 35.55 L23.1 36.1 23.8 35.55" fill="#a6a637" fill-rule="evenodd" stroke="none"/>
      <path d="M35.25 26.55 Q28.45 21.85 21.7 23.9 L21.65 23.95 21.2 24.1 20.5 24.4 19.9 24.75 19.75 24.85 Q18.85 25.45 18.1 26.25 L16.6 28.25 17.85 28.35 19.8 28.75 21.5 29.3 21.65 29.35 21.95 29.5 22.15 29.65 22.0 30.0 21.95 30.15 21.5 31.25 21.3 31.75 21.3 31.8 21.25 31.75 21.25 31.8 21.0 32.55 Q20.5 34.15 20.75 35.15 17.7 35.9 14.55 34.55 L13.45 34.2 11.8 33.45 Q11.4 33.05 11.5 32.6 12.05 28.9 14.75 28.15 L16.6 28.25 M35.25 26.55 L35.9 27.1 36.9 28.2 37.25 28.6 37.3 28.7 37.9 29.5 Q38.9 31.15 39.25 35.5 39.45 37.8 38.6 39.45 L37.95 39.5 22.4 40.85 M22.3 40.85 L14.55 34.55 M37.0 31.25 Q37.95 31.45 38.45 32.55 L38.6 33.0 38.7 33.25 Q38.95 34.1 38.8 35.05 L38.6 35.95 38.55 36.05 37.85 37.1 Q37.05 37.85 35.75 38.05 L27.75 36.15 27.4 36.05 26.75 35.75 26.7 35.7 Q25.85 35.05 26.1 33.8 L26.15 33.65 26.2 33.4 26.55 32.35 Q26.85 31.6 27.3 31.1 L27.6 30.85 27.85 30.65 28.25 30.5 29.15 30.5 30.45 30.55 31.9 30.6 32.65 30.7 32.75 30.7 33.1 30.75 33.35 30.75 34.1 30.85 36.35 31.15 37.0 31.25 M26.9 25.35 L27.1 25.55 27.15 25.65 Q27.65 25.25 28.05 25.35 28.8 25.55 29.3 27.85 L29.15 30.5 M24.8 25.75 Q25.15 25.45 25.55 25.3 L25.7 25.25 26.9 25.35 M24.8 25.75 L24.25 26.25 23.65 27.0 22.75 28.5 22.15 29.65 M26.3 26.9 L26.7 26.1 27.15 25.65 M26.3 26.9 L26.25 26.95 25.1 29.3 M25.1 29.35 L25.05 29.4 25.0 29.5 Q24.4 30.85 24.1 31.95 23.6 33.45 23.6 34.55 L23.65 35.25 23.8 35.55 Q24.2 36.35 25.05 36.55 26.1 36.8 27.75 36.15 M23.1 36.1 L23.8 35.55 M20.75 35.15 L20.85 35.45 Q21.6 36.65 22.5 36.25 L22.85 36.15 23.1 36.1" fill="none" stroke="#000000" stroke-linecap="round" stroke-linejoin="round" stroke-opacity="0.3019608" stroke-width="0.30000000000000004"/>
      <path d="M22.4 40.85 L22.3 40.85" fill="none" stroke="#ff0000" stroke-linecap="round" stroke-linejoin="round" stroke-width="0.05"/>
      <path d="M7.55 29.95 L7.9 30.05 Q8.1 30.3 7.95 30.75 L7.45 31.6 Q7.1 31.95 6.75 32.1 L6.65 32.1 6.1 32.05 Q5.9 31.8 6.05 31.35 6.15 30.9 6.55 30.5 6.95 30.1 7.35 30.0 L7.55 29.95 M14.15 37.6 L14.2 37.6 14.6 37.8 Q16.2 38.6 17.8 39.6 21.1 40.75 21.6 37.6 21.8 35.35 19.45 32.35 L19.05 32.0 16.6 30.05 15.15 29.2 Q13.9 28.65 12.65 28.45 L12.15 28.4 11.05 28.4 9.7 28.6 9.1 28.8 Q5.85 29.95 4.85 33.05 4.6 33.9 5.35 34.5 L7.45 34.9 Q10.85 35.95 14.15 37.6 M16.7 39.8 Q12.85 37.9 9.4 36.45 7.1 35.5 5.75 35.4 4.1 35.25 3.85 36.3 L3.8 36.7 3.8 35.45 Q4.05 30.7 8.25 28.45 14.0 26.3 19.7 31.9 22.1 34.25 22.9 37.4 21.4 38.95 20.4 41.65 21.4 38.95 22.9 37.4 28.25 33.65 36.6 36.35 39.3 36.95 40.65 40.45 41.95 43.8 39.15 48.6 L39.25 48.25 Q39.5 47.4 38.55 46.6 L38.05 46.25 37.55 46.0 Q36.4 45.4 34.5 44.9 L20.4 41.65 16.7 39.8 M31.1 35.95 L27.2 36.05 Q22.65 37.1 21.95 39.8 21.55 41.3 23.8 41.85 L29.45 42.8 34.3 43.9 Q36.2 44.5 37.65 45.25 L38.8 46.05 Q39.55 46.8 39.8 46.3 40.55 44.55 40.55 43.05 40.35 39.6 38.25 37.9 37.65 37.4 36.9 37.1 L35.75 36.7 33.2 36.15 31.1 35.95 M29.25 36.9 L29.65 36.3 30.6 36.1 31.55 36.4 31.9 37.0 31.5 37.55 30.55 37.75 29.6 37.5 Q29.2 37.25 29.25 36.9" fill="#f9f8ec" fill-rule="evenodd" stroke="none"/>
      <path d="M6.75 32.1 Q6.9 33.35 8.75 34.4 L14.15 37.6 Q10.85 35.95 7.45 34.9 L5.35 34.5 Q4.6 33.9 4.85 33.05 5.85 29.95 9.1 28.8 L7.55 29.95 7.35 30.0 Q6.95 30.1 6.55 30.5 6.15 30.9 6.05 31.35 5.9 31.8 6.1 32.05 L6.65 32.1 6.75 32.1 M16.6 30.05 Q18.95 32.1 19.2 34.1 19.35 37.0 17.2 36.85 13.75 36.05 11.45 34.0 L11.1 33.7 Q9.35 31.8 9.75 30.35 10.25 28.25 15.15 29.2 L16.6 30.05 M33.2 36.15 Q35.65 36.65 36.45 38.1 37.85 41.3 33.75 41.6 28.1 41.7 26.7 39.4 25.75 37.55 27.9 36.5 28.9 36.05 31.1 35.95 L33.2 36.15 M38.25 37.9 Q40.35 39.6 40.55 43.05 40.55 44.55 39.8 46.3 39.55 46.8 38.8 46.05 L37.65 45.25 Q39.35 45.6 39.85 43.95 40.4 41.15 38.25 37.9 M29.25 36.9 Q29.2 37.25 29.6 37.5 L30.55 37.75 31.5 37.55 31.9 37.0 31.55 36.4 30.6 36.1 29.65 36.3 29.25 36.9" fill="#f0f0d2" fill-rule="evenodd" stroke="none"/>
      <path d="M6.75 32.1 Q7.1 31.95 7.45 31.6 L7.95 30.75 Q8.1 30.3 7.9 30.05 L7.55 29.95 9.1 28.8 9.7 28.6 11.05 28.4 12.15 28.4 Q10.4 28.35 9.2 29.5 L9.1 29.6 Q7.85 31.0 11.1 33.7 L11.45 34.0 Q13.75 36.05 17.2 36.85 19.35 37.0 19.2 34.1 18.95 32.1 16.6 30.05 L19.05 32.0 Q20.85 35.4 19.0 37.45 L18.95 37.55 Q17.3 39.1 14.6 37.8 L14.2 37.6 14.15 37.6 8.75 34.4 Q6.9 33.35 6.75 32.1 M5.75 35.4 Q4.15 36.05 4.8 37.6 L5.0 38.0 Q5.65 39.3 8.9 41.25 L11.9 42.85 Q15.6 44.65 20.35 46.25 27.2 48.6 32.45 49.15 35.15 49.45 36.6 49.2 L36.9 49.15 36.9 49.2 Q38.2 49.05 38.85 48.45 39.45 47.8 38.55 46.6 39.5 47.4 39.25 48.25 L39.15 48.6 39.05 48.75 38.95 48.9 38.9 48.95 38.55 49.2 Q37.1 50.05 33.2 49.8 27.7 49.4 20.35 46.95 13.0 44.5 8.15 41.35 4.1 38.75 3.8 37.0 L3.8 36.9 3.8 36.7 3.85 36.3 Q4.1 35.25 5.75 35.4 M34.3 43.9 L29.45 42.8 23.8 41.85 Q21.55 41.3 21.95 39.8 22.65 37.1 27.2 36.05 L31.1 35.95 Q28.9 36.05 27.9 36.5 25.75 37.55 26.7 39.4 28.1 41.7 33.75 41.6 37.85 41.3 36.45 38.1 35.65 36.65 33.2 36.15 L35.75 36.7 36.9 37.1 Q38.55 39.45 38.4 41.6 38.15 44.3 34.3 43.9" fill="#d5d580" fill-rule="evenodd" stroke="none"/>
      <path d="M14.6 37.8 Q17.3 39.1 18.95 37.55 L19.0 37.45 Q20.85 35.4 19.05 32.0 L19.45 32.35 Q21.8 35.35 21.6 37.6 21.1 40.75 17.8 39.6 16.2 38.6 14.6 37.8 M11.1 33.7 Q7.85 31.0 9.1 29.6 L9.2 29.5 Q10.4 28.35 12.15 28.4 L12.65 28.45 Q13.9 28.65 15.15 29.2 10.25 28.25 9.75 30.35 9.35 31.8 11.1 33.7 M34.3 43.9 Q38.15 44.3 38.4 41.6 38.55 39.45 36.9 37.1 37.65 37.4 38.25 37.9 40.4 41.15 39.85 43.95 39.35 45.6 37.65 45.25 36.2 44.5 34.3 43.9" fill="#bfbf40" fill-rule="evenodd" stroke="none"/>
      <path d="M11.9 42.85 L8.9 41.25 Q5.65 39.3 5.0 38.0 L4.8 37.6 Q4.15 36.05 5.75 35.4 7.1 35.5 9.4 36.45 12.85 37.9 16.7 39.8 L17.3 40.6 Q19.1 43.85 17.95 44.25 15.95 44.45 11.9 42.85" fill="#a6a637" fill-rule="evenodd" stroke="none"/>
      <path d="M11.9 42.85 Q15.95 44.45 17.95 44.25 19.1 43.85 17.3 40.6 L16.7 39.8 20.4 41.65 34.5 44.9 Q36.4 45.4 37.55 46.0 L38.05 46.25 38.55 46.6 Q39.45 47.8 38.85 48.45 38.2 49.05 36.9 49.2 L36.9 49.15 36.6 49.2 Q35.15 49.45 32.45 49.15 27.2 48.6 20.35 46.25 15.6 44.65 11.9 42.85" fill="#86862d" fill-rule="evenodd" stroke="none"/>
      <path d="M3.8 36.7 L3.8 36.9 3.8 37.0 Q4.1 38.75 8.15 41.35 13.0 44.5 20.35 46.95 27.7 49.4 33.2 49.8 37.1 50.05 38.55 49.2 L38.9 48.95 38.95 48.9 39.05 48.75 39.15 48.6 Q41.95 43.8 40.65 40.45 39.3 36.95 36.6 36.35 28.25 33.65 22.9 37.4 22.1 34.25 19.7 31.9 14.0 26.3 8.25 28.45 4.05 30.7 3.8 35.45 L3.8 36.7 M20.4 41.65 Q21.4 38.95 22.9 37.4" fill="none" stroke="#000000" stroke-linecap="round" stroke-linejoin="round" stroke-opacity="0.3019608" stroke-width="0.30000000000000004"/>
      <path d="M20.4 19.2 Q20.6 21.75 23.1 22.7 26.7 24.05 30.85 24.05 32.25 24.05 33.85 23.2 L33.8 23.45 33.7 23.75 Q33.15 25.15 30.85 25.2 L25.05 24.4 Q17.2 22.75 20.5 14.4 24.8 4.8 32.0 2.55 33.25 4.45 34.0 9.4 L34.35 11.85 34.5 12.95 34.6 14.55 34.5 12.95 Q36.0 14.75 36.45 17.2 36.1 15.5 34.6 14.55 L34.6 16.3 34.6 18.7 34.6 18.95 34.6 19.25 34.6 18.75 34.0 12.45 Q33.45 8.85 32.6 5.6 32.95 9.65 32.6 13.6 L32.2 16.65 Q32.4 11.45 32.15 7.35 L32.05 6.2 31.7 3.7 31.6 3.4 Q26.95 5.95 23.75 10.75 22.05 13.25 20.75 16.35 L20.55 17.2 Q20.85 20.55 25.15 22.2 L24.7 22.1 Q22.35 21.35 20.4 19.2" fill="#f9f8ec" fill-rule="evenodd" stroke="none"/>
      <path d="M32.2 16.65 L32.05 17.4 31.8 18.5 Q30.05 23.15 25.15 22.2 20.85 20.55 20.55 17.2 L20.75 16.35 Q22.05 13.25 23.75 10.75 27.3 6.55 30.6 4.8 31.7 4.4 32.05 6.2 L32.15 7.35 Q32.4 11.45 32.2 16.65 M34.6 16.3 L34.6 14.55 Q36.1 15.5 36.45 17.2 35.15 14.85 34.6 18.7 L34.6 16.3" fill="#f0f0d2" fill-rule="evenodd" stroke="none"/>
      <path d="M34.6 18.75 Q33.0 22.85 28.85 23.4 24.75 23.85 21.9 21.5 20.65 20.45 20.4 19.2 22.35 21.35 24.7 22.1 L25.15 22.2 Q30.05 23.15 31.8 18.5 L32.05 17.4 32.2 16.65 32.6 13.6 Q33.2 10.25 34.0 12.45 L34.6 18.75 M23.75 10.75 Q26.95 5.95 31.6 3.4 L31.7 3.7 32.05 6.2 Q31.7 4.4 30.6 4.8 27.3 6.55 23.75 10.75" fill="#d5d580" fill-rule="evenodd" stroke="none"/>
      <path d="M20.4 19.2 Q20.65 20.45 21.9 21.5 24.75 23.85 28.85 23.4 33.0 22.85 34.6 18.75 L34.6 19.25 34.6 18.95 Q35.5 23.65 38.15 23.55 L33.8 23.45 33.85 23.2 Q32.25 24.05 30.85 24.05 26.7 24.05 23.1 22.7 20.6 21.75 20.4 19.2 M34.0 12.45 Q33.2 10.25 32.6 13.6 32.95 9.65 32.6 5.6 33.45 8.85 34.0 12.45" fill="#bfbf40" fill-rule="evenodd" stroke="none"/>
      <path d="M34.5 12.95 L34.35 11.85 34.0 9.4 Q33.25 4.45 32.0 2.55 24.8 4.8 20.5 14.4 17.2 22.75 25.05 24.4 L30.85 25.2 Q33.15 25.15 33.7 23.75 M34.6 16.3 L34.6 14.55 34.5 12.95 Q36.0 14.75 36.45 17.2" fill="none" stroke="#000000" stroke-linecap="round" stroke-linejoin="round" stroke-opacity="0.3019608" stroke-width="0.30000000000000004"/>
    </g>
    <g id="sprite0" transform="matrix(1.0, 0.0, 0.0, 1.0, 0.0, 0.0)">
      <use height="26.7" transform="matrix(0.0042, -1.3515, 1.3935, 0.02, 22.09, 56.0263)" width="26.7" xlink:href="#sprite1"/>
      <use height="26.7" transform="matrix(0.0095, -3.0486, 0.372, 0.0053, 36.507, 81.3775)" width="26.7" xlink:href="#sprite1"/>
      <use height="26.7" transform="matrix(3.0486, 0.0095, -0.0053, 0.372, 0.1225, 35.107)" width="26.7" xlink:href="#sprite1"/>
    </g>
    <g id="sprite1" transform="matrix(1.0, 0.0, 0.0, 1.0, 13.35, 13.35)">
      <use height="26.7" transform="matrix(1.0, 0.0, 0.0, 1.0, -13.35, -13.35)" width="26.7" xlink:href="#shape1"/>
    </g>
    <g id="shape1" transform="matrix(1.0, 0.0, 0.0, 1.0, 13.35, 13.35)">
      <path d="M9.3 -9.85 Q13.35 -5.8 13.35 0.0 13.35 5.8 9.3 9.3 5.8 13.35 0.0 13.35 -5.8 13.35 -9.85 9.3 -13.35 5.8 -13.35 0.0 -13.35 -5.8 -9.85 -9.85 -5.8 -13.35 0.0 -13.35 5.8 -13.35 9.3 -9.85" fill="url(#gradient0)" fill-rule="evenodd" stroke="none"/>
    </g>
    <radialGradient cx="0" cy="0" gradientTransform="matrix(0.0213, 0.0, 0.0, 0.0213, 0.0, 0.0)" gradientUnits="userSpaceOnUse" id="gradient0" r="819.2" spreadMethod="pad">
      <stop offset="0.19607843137254902" stop-color="#fee3bc" stop-opacity="0.25882354"/>
      <stop offset="0.5019607843137255" stop-color="#fee3bc" stop-opacity="0.039215688"/>
      <stop offset="0.7607843137254902" stop-color="#ffe3bd" stop-opacity="0.0"/>
    </radialGradient>
  </defs>
</svg>
