<?xml version="1.0" encoding="UTF-8" standalone="no"?>
<svg xmlns:xlink="http://www.w3.org/1999/xlink" height="52.0px" width="52.0px" xmlns="http://www.w3.org/2000/svg">
  <g transform="matrix(1.0, 0.0, 0.0, 1.0, 0.0, 0.0)">
    <use height="54.0" transform="matrix(1.0, 0.0, 0.0, 1.0, -1.0, -1.0)" width="54.0" xlink:href="#shape0"/>
    <use height="0.0" transform="matrix(0.0777, 0.065, -0.1297, 0.1213, 25.15, 19.95)" width="0.0" xlink:href="#sprite0"/>
    <use height="0.0" transform="matrix(0.0983, 0.0, -0.035, 0.0817, 22.85, 36.65)" width="0.0" xlink:href="#sprite0"/>
    <use height="0.0" transform="matrix(0.0695, -0.0695, 0.033, 0.0825, 37.65, 29.6)" width="0.0" xlink:href="#sprite0"/>
    <use height="81.5" transform="matrix(0.1255, 0.0, 0.0, 0.1259, 31.1, 14.95)" width="81.5" xlink:href="#sprite1"/>
  </g>
  <defs>
    <g id="shape0" transform="matrix(1.0, 0.0, 0.0, 1.0, 1.0, 1.0)">
      <path d="M52.0 0.0 L52.0 52.0 0.0 52.0 0.0 0.0 52.0 0.0" fill="#795fa9" fill-opacity="0.0" fill-rule="evenodd" stroke="none"/>
      <path d="M44.5 7.45 L42.65 7.9 Q39.25 9.35 36.6 11.15 L29.3 9.7 26.4 10.95 Q26.4 8.2 25.35 5.65 24.65 4.05 23.9 3.8 23.45 3.65 22.95 4.15 22.3 4.6 24.25 9.1 L24.95 11.5 24.25 11.8 22.55 13.45 21.75 13.7 21.1 14.0 20.55 14.25 20.4 14.35 Q18.8 15.25 17.55 16.65 L17.1 17.15 Q16.4 18.05 16.05 18.9 L16.05 18.95 10.35 22.75 10.35 29.35 14.6 32.9 Q12.15 34.3 11.2 36.1 L11.15 36.1 10.05 35.45 7.25 36.8 6.35 38.4 6.5 39.7 8.55 44.4 11.45 46.5 13.4 46.6 14.8 45.0 14.85 43.95 16.05 44.45 17.75 44.85 17.8 45.55 19.8 48.0 21.65 48.45 24.1 47.7 24.75 45.25 Q27.35 44.75 28.2 42.85 29.2 40.45 29.35 38.4 L32.25 39.25 39.95 37.7 45.2 29.6 41.6 21.9 42.05 19.8 38.25 12.05 Q39.65 11.45 41.0 11.1 44.7 9.8 45.45 8.55 45.85 7.9 45.65 7.6 L44.5 7.45 Z" fill="none" stroke="#000000" stroke-linecap="round" stroke-linejoin="round" stroke-opacity="0.3019608" stroke-width="1.0"/>
      <path d="M17.0 34.7 L17.0 34.8 16.8 34.7 17.0 34.7" fill="#825a20" fill-rule="evenodd" stroke="none"/>
      <path d="M24.1 12.5 L24.05 12.5 24.1 12.5" fill="#e0c585" fill-rule="evenodd" stroke="none"/>
      <path d="M37.95 11.4 L37.6 12.0 30.2 10.25 29.35 9.7 30.2 10.25 32.25 11.55 32.05 11.85 29.45 10.5 24.1 12.5 24.05 12.5 19.25 17.45 18.75 17.3 12.0 22.7 14.6 26.45 17.1 27.15 15.65 28.1 15.2 27.2 12.8 25.0 10.4 22.75 18.6 17.25 24.25 11.8 29.35 9.7 37.95 11.4 M23.85 13.2 L23.0 18.0 24.75 19.85 22.25 18.2 23.85 13.2 M24.1 12.5 L24.1 12.45 24.25 11.8 24.1 12.45 24.1 12.5" fill="#ffff98" fill-rule="evenodd" stroke="none"/>
      <path d="M30.2 10.25 L37.6 12.0 37.05 13.15 34.75 13.15 33.85 12.6 34.75 13.15 36.8 15.0 38.55 20.7 37.9 21.5 36.55 16.05 33.85 12.6 32.95 12.0 32.25 11.55 30.2 10.25 M24.1 12.5 L29.45 10.5 32.05 11.85 27.9 17.8 27.9 17.85 25.65 20.4 27.15 22.35 25.2 24.75 17.1 27.15 14.6 26.45 12.0 22.7 18.75 17.3 19.25 17.45 22.25 18.2 24.75 19.85 23.0 18.0 23.85 13.2 24.05 12.5 24.1 12.5 M33.4 26.9 L37.9 21.5 34.4 26.9 33.4 30.2 39.55 36.8 43.85 31.6 39.95 37.65 32.05 30.85 33.4 26.9 32.05 30.85 17.0 34.7 16.0 29.7 17.5 33.85 31.55 29.95 33.4 26.9 M25.65 20.4 L24.75 19.85 25.65 20.4 M12.7 31.3 L10.4 29.35 10.4 22.75 12.8 25.0 10.8 24.3 11.05 29.3 12.7 31.3" fill="#ffde4f" fill-rule="evenodd" stroke="none"/>
      <path d="M37.6 12.0 L37.95 11.4 42.05 19.8 38.55 20.7 36.8 15.0 37.05 13.15 37.6 12.0 M32.95 12.0 L33.85 12.6 36.55 16.05 37.9 21.5 33.4 26.9 30.25 24.6 33.4 26.9 31.55 29.95 17.5 33.85 16.0 29.7 15.65 28.1 17.1 27.15 25.2 24.75 30.25 24.6 27.15 22.35 25.65 20.4 27.9 17.85 27.9 17.8 32.95 12.0 M24.05 12.5 L23.85 13.2 22.25 18.2 19.25 17.45 24.05 12.5" fill="#f4a33c" fill-rule="evenodd" stroke="none"/>
      <path d="M37.05 13.15 L36.8 15.0 34.75 13.15 37.05 13.15 M37.9 21.5 L38.55 20.7 41.6 21.9 45.2 29.55 43.85 31.6 39.55 36.8 33.4 30.2 34.4 26.9 37.9 21.5 M32.05 11.85 L32.25 11.55 32.95 12.0 27.9 17.8 32.05 11.85 M27.15 22.35 L30.25 24.6 25.2 24.75 27.15 22.35 M12.8 25.0 L15.2 27.2 15.65 28.1 16.0 29.7 17.0 34.7 16.8 34.7 12.7 31.3 11.05 29.3 10.8 24.3 12.8 25.0" fill="#cc6b22" fill-rule="evenodd" stroke="none"/>
      <path d="M38.55 20.7 L42.05 19.8 41.6 21.9 38.55 20.7 M32.05 30.85 L39.95 37.65 32.25 39.25 17.0 34.8 17.0 34.7 32.05 30.85" fill="#a34100" fill-rule="evenodd" stroke="none"/>
      <path d="M37.6 12.0 L37.95 11.4 29.35 9.7 30.2 10.25 32.25 11.55 32.95 12.0 27.9 17.8 M37.6 12.0 L37.05 13.15 36.8 15.0 38.55 20.7 42.05 19.8 37.95 11.4 M33.85 12.6 L34.75 13.15 36.8 15.0 M32.95 12.0 L33.85 12.6 M37.9 21.5 L38.55 20.7 41.6 21.9 42.05 19.8 M27.9 17.85 L25.65 20.4 27.15 22.35 30.25 24.6 33.4 26.9 37.9 21.5 M43.85 31.6 L45.2 29.55 41.6 21.9 M24.1 12.5 L24.05 12.5 23.85 13.2 22.25 18.2 24.75 19.85 25.65 20.4 M24.25 11.8 L24.1 12.45 24.1 12.5 M10.4 22.75 L18.6 17.25 24.25 11.8 29.35 9.7 M12.8 25.0 L15.2 27.2 15.65 28.1 17.1 27.15 25.2 24.75 30.25 24.6 M15.65 28.1 L16.0 29.7 17.0 34.7 32.05 30.85 39.95 37.65 43.85 31.6 M33.4 26.9 L32.05 30.85 M17.0 34.7 L16.8 34.7 17.0 34.8 32.25 39.25 39.95 37.65 M12.7 31.3 L10.4 29.35 10.4 22.75 M12.7 31.3 L16.8 34.7" fill="none" stroke="#000000" stroke-linecap="round" stroke-linejoin="round" stroke-opacity="0.3019608" stroke-width="0.30000000000000004"/>
      <path d="M31.65 16.95 L32.2 16.6 32.3 16.55 33.6 16.15 34.75 16.3 Q35.35 16.5 35.75 16.85 36.45 17.5 36.7 18.6 37.1 20.45 36.15 22.6 L35.95 23.05 Q35.2 24.6 33.95 25.55 L33.55 25.85 32.2 26.55 30.65 26.65 30.35 26.55 Q28.85 26.1 28.45 24.25 L28.35 23.4 28.45 22.0 28.55 21.55 28.95 20.25 29.15 19.9 29.55 19.15 29.9 18.65 30.65 17.75 31.6 16.95 31.65 16.95" fill="#825a20" fill-rule="evenodd" stroke="none"/>
      <path d="M14.8 21.7 L14.85 21.6 14.9 21.65 14.8 21.7" fill="#e6e4b3" fill-rule="evenodd" stroke="none"/>
      <path d="M12.25 24.75 L12.7 24.55 13.8 24.25 14.35 24.15 15.1 24.05 16.35 24.1 23.1 25.55 31.0 30.5 31.3 30.75 32.3 31.85 30.6 30.5 23.1 26.15 16.55 24.55 13.55 24.55 13.75 25.35 13.15 25.35 12.7 25.0 11.45 25.35 12.25 24.75" fill="#ffff98" fill-rule="evenodd" stroke="none"/>
      <path d="M33.75 34.1 L33.7 34.15 30.35 30.75 20.95 26.05 14.55 25.35 13.75 25.35 13.55 24.55 16.55 24.55 23.1 26.15 30.6 30.5 32.3 31.85 32.45 32.0 32.7 32.4 33.75 34.1" fill="#ffde4f" fill-rule="evenodd" stroke="none"/>
      <path d="M14.9 21.65 L14.85 21.6 14.8 21.7 Q13.35 22.7 12.7 24.55 L12.25 24.75 Q12.65 23.6 13.15 22.85 13.65 22.0 14.2 21.55 L14.35 21.45 14.55 21.35 Q14.9 21.1 15.2 21.1 L15.2 21.85 14.8 23.3 14.9 21.7 14.9 21.65 M31.0 30.5 L32.1 30.2 32.5 30.1 32.95 30.05 33.45 29.95 34.3 29.85 35.5 29.95 35.65 30.1 35.0 30.95 34.1 31.6 33.9 31.7 33.2 31.95 34.65 30.8 35.05 30.2 33.55 30.3 31.3 30.75 31.0 30.5" fill="#f9f8ec" fill-rule="evenodd" stroke="none"/>
      <path d="M14.8 21.7 L14.9 21.65 14.9 21.7 14.8 23.3 14.8 23.35 14.35 24.15 13.8 24.25 12.7 24.55 Q13.35 22.7 14.8 21.7 M32.3 31.85 L31.3 30.75 33.55 30.3 35.05 30.2 34.65 30.8 33.2 31.95 32.6 32.0 32.45 32.0 32.3 31.85" fill="#f0f0d2" fill-rule="evenodd" stroke="none"/>
      <path d="M14.8 23.3 L15.2 21.85 15.2 21.1 Q15.75 21.1 16.05 22.0 L16.15 22.3 16.3 23.3 16.35 24.1 15.1 24.05 14.35 24.15 14.8 23.35 14.8 23.3 M35.65 30.1 Q35.9 30.35 35.6 31.2 L35.25 31.95 34.35 33.45 33.8 34.25 33.75 34.1 32.7 32.4 32.45 32.0 32.6 32.0 33.2 31.95 33.9 31.7 34.1 31.6 35.0 30.95 35.65 30.1" fill="#d5d580" fill-rule="evenodd" stroke="none"/>
      <path d="M15.2 21.1 Q14.9 21.1 14.55 21.35 L14.35 21.45 14.2 21.55 Q13.65 22.0 13.15 22.85 12.65 23.6 12.25 24.75 L12.7 24.55 13.8 24.25 14.35 24.15 15.1 24.05 16.35 24.1 23.1 25.55 31.0 30.5 32.1 30.2 32.5 30.1 32.95 30.05 33.45 29.95 34.3 29.85 35.5 29.95 35.65 30.1 Q35.9 30.35 35.6 31.2 L35.25 31.95 34.35 33.45 33.8 34.25 33.75 34.1 32.7 32.4 32.45 32.0 32.3 31.85 31.3 30.75 31.0 30.5 M15.2 21.1 Q15.75 21.1 16.05 22.0 L16.15 22.3 16.3 23.3 16.35 24.1 M11.45 25.35 L12.25 24.75" fill="none" stroke="#000000" stroke-linecap="round" stroke-linejoin="round" stroke-opacity="0.3019608" stroke-width="0.30000000000000004"/>
      <path d="M45.65 7.55 Q45.75 8.05 44.0 8.95 L41.15 10.0 Q38.9 10.55 35.65 12.55 L33.75 14.0 32.4 15.35 31.85 16.0 31.8 16.05 Q31.3 16.4 30.85 16.85 L30.05 17.75 30.65 16.85 31.55 15.6 32.1 14.95 33.7 13.35 34.45 12.7 35.45 11.95 Q38.5 9.7 42.7 7.9 43.8 7.5 44.55 7.4 L45.65 7.55" fill="#ffde4f" fill-rule="evenodd" stroke="none"/>
      <path d="M31.85 16.0 L32.4 15.35 33.75 14.0 35.65 12.55 Q38.9 10.55 41.15 10.0 L44.0 8.95 Q45.75 8.05 45.65 7.55 45.85 7.85 45.45 8.55 44.75 9.8 41.0 11.05 39.05 11.55 37.0 12.65 L35.8 13.3 Q34.8 13.9 33.75 14.65 L32.5 15.6 32.45 15.65 31.85 16.0" fill="#cc6b22" fill-rule="evenodd" stroke="none"/>
      <path d="M45.65 7.55 L44.55 7.4 Q43.8 7.5 42.7 7.9 38.5 9.7 35.45 11.95 L34.45 12.7 33.7 13.35 32.1 14.95 31.55 15.6 30.65 16.85 30.05 17.75 30.85 16.85 Q31.3 16.4 31.8 16.05 L31.85 16.0 32.45 15.65 32.5 15.6 33.75 14.65 Q34.8 13.9 35.8 13.3 L37.0 12.65 Q39.05 11.55 41.0 11.05 44.75 9.8 45.45 8.55 45.85 7.85 45.65 7.55 Z" fill="none" stroke="#000000" stroke-linecap="round" stroke-linejoin="round" stroke-opacity="0.3019608" stroke-width="0.30000000000000004"/>
      <path d="M35.55 16.0 Q36.25 16.65 36.5 17.75 36.9 19.6 35.95 21.75 L35.75 22.2 Q35.0 23.75 33.75 24.75 L33.35 25.05 32.0 25.7 30.45 25.8 30.15 25.7 Q28.65 25.25 28.25 23.4 L28.15 22.55 28.25 21.15 28.35 20.7 28.75 19.45 28.9 19.05 29.35 18.3 29.7 17.85 30.45 16.95 31.4 16.15 31.45 16.1 32.0 15.75 32.1 15.7 33.4 15.35 34.55 15.45 35.55 16.0 M28.85 23.2 Q29.15 24.35 30.0 24.8 L30.45 25.0 31.7 25.1 Q32.45 24.95 33.2 24.4 L33.75 24.05 Q34.8 23.1 35.45 21.65 L35.45 21.6 Q36.25 19.75 35.95 18.15 35.7 17.2 35.15 16.65 L34.25 16.15 33.45 16.05 34.0 17.2 Q34.2 18.1 34.0 19.05 L33.6 20.25 33.6 20.3 33.15 21.2 Q34.2 18.65 33.55 17.15 L32.85 16.15 32.4 16.3 32.15 16.4 32.05 16.4 31.55 16.75 31.5 16.75 31.2 17.0 30.05 18.2 29.8 18.6 29.25 19.6 29.2 19.7 28.9 20.7 Q28.7 21.45 28.75 22.2 L28.75 22.25 28.8 23.0 28.85 23.2" fill="#f9f8ec" fill-rule="evenodd" stroke="none"/>
      <path d="M33.15 21.2 L33.6 20.3 33.6 20.25 34.0 19.05 Q34.2 18.1 34.0 17.2 L33.45 16.05 34.25 16.15 35.15 16.65 Q35.7 17.2 35.95 18.15 36.25 19.75 35.45 21.6 L35.45 21.65 Q34.8 23.1 33.75 24.05 L33.2 24.4 Q32.45 24.95 31.7 25.1 L30.45 25.0 30.0 24.8 Q29.15 24.35 28.85 23.2 L29.15 23.3 29.3 23.3 30.8 23.2 31.6 22.75 33.05 21.25 33.15 21.2" fill="#d5d580" fill-rule="evenodd" stroke="none"/>
      <path d="M28.85 23.2 L28.8 23.0 28.75 22.25 28.75 22.2 Q28.7 21.45 28.9 20.7 L29.2 19.7 29.25 19.6 29.8 18.6 30.05 18.2 31.2 17.0 31.5 16.75 31.55 16.75 32.05 16.4 32.15 16.4 32.4 16.3 32.85 16.15 33.55 17.15 Q34.2 18.65 33.15 21.2 L33.05 21.25 31.6 22.75 30.8 23.2 29.3 23.3 29.15 23.3 28.85 23.2" fill="#e6e4b3" fill-rule="evenodd" stroke="none"/>
      <path d="M35.55 16.0 Q36.25 16.65 36.5 17.75 36.9 19.6 35.95 21.75 L35.75 22.2 Q35.0 23.75 33.75 24.75 L33.35 25.05 32.0 25.7 30.45 25.8 30.15 25.7 Q28.65 25.25 28.25 23.4 L28.15 22.55 28.25 21.15 28.35 20.7 28.75 19.45 28.9 19.05 29.35 18.3 29.7 17.85 30.45 16.95 31.4 16.15 31.45 16.1 32.0 15.75 32.1 15.7 33.4 15.35 34.55 15.45 35.55 16.0 Z" fill="none" stroke="#000000" stroke-linecap="round" stroke-linejoin="round" stroke-opacity="0.3019608" stroke-width="0.30000000000000004"/>
      <path d="M25.85 17.05 L25.8 17.15 25.75 17.3 24.4 19.25 24.15 19.5 23.2 20.45 Q22.1 21.3 20.8 21.9 18.75 22.85 17.4 22.45 16.05 22.1 16.2 20.6 L16.25 20.35 16.4 19.75 16.45 19.65 Q16.75 18.75 17.5 17.85 L17.9 17.35 Q19.15 15.95 20.75 15.05 L20.9 15.0 21.45 14.7 22.1 14.45 23.0 14.15 23.45 14.05 24.3 14.0 24.85 14.15 25.15 14.25 Q25.8 14.5 26.0 15.05 L26.1 15.65 26.1 16.0 26.1 16.2 26.1 16.3 25.9 17.0 25.85 17.05" fill="#825a20" fill-rule="evenodd" stroke="none"/>
      <path d="M25.9 17.0 L25.85 17.05" fill="none" stroke="#000000" stroke-linecap="round" stroke-linejoin="round" stroke-opacity="0.3019608" stroke-width="0.30000000000000004"/>
      <path d="M25.25 16.15 L25.65 13.8 Q26.1 10.25 25.7 8.05 L25.7 7.85 Q25.1 4.9 23.95 3.8 24.65 4.0 25.35 5.65 26.55 8.55 26.4 11.65 L26.3 12.6 25.95 14.55 25.35 16.55 25.3 16.7 25.3 16.8 25.25 16.8 25.2 16.8 25.2 16.7 25.25 16.5 25.25 16.15" fill="#cc6b22" fill-rule="evenodd" stroke="none"/>
      <path d="M23.95 3.8 Q25.1 4.9 25.7 7.85 L25.7 8.05 Q26.1 10.25 25.65 13.8 L25.25 16.15 25.15 15.55 25.15 12.8 25.15 12.7 25.05 12.1 Q24.85 10.4 24.25 9.1 22.3 4.6 23.0 4.15 23.5 3.65 23.95 3.8" fill="#ffde4f" fill-rule="evenodd" stroke="none"/>
      <path d="M25.25 16.15 L25.25 16.5 25.2 16.7 25.2 16.8 M25.25 16.8 L25.3 16.8 25.3 16.7 25.35 16.55 25.95 14.55 26.3 12.6 26.4 11.65 Q26.55 8.55 25.35 5.65 24.65 4.0 23.95 3.8 23.5 3.65 23.0 4.15 22.3 4.6 24.25 9.1 24.85 10.4 25.05 12.1 L25.15 12.7 25.15 12.8 25.15 15.55 25.25 16.15 Z" fill="none" stroke="#000000" stroke-linecap="round" stroke-linejoin="round" stroke-opacity="0.3019608" stroke-width="0.30000000000000004"/>
      <path d="M25.8 14.9 L25.8 15.25 25.75 15.45 25.75 15.55 25.55 16.25 25.5 16.3 25.5 16.4 25.45 16.55 24.05 18.5 23.8 18.75 22.85 19.7 20.5 21.15 Q18.45 22.1 17.05 21.7 15.7 21.35 15.85 19.85 L15.9 19.6 16.05 19.0 16.1 18.9 Q16.4 18.0 17.15 17.1 L17.55 16.6 Q18.85 15.2 20.45 14.3 L20.6 14.25 21.15 13.95 21.75 13.7 22.65 13.4 23.15 13.3 23.95 13.25 24.55 13.35 24.8 13.5 Q25.45 13.75 25.7 14.3 L25.8 14.9 M16.45 19.4 L16.45 19.55 16.45 19.85 Q16.45 20.9 17.55 21.2 18.75 21.55 20.55 20.7 21.75 20.15 22.75 19.3 L23.6 18.45 23.65 18.4 24.85 16.65 24.9 16.55 24.95 16.4 25.2 15.55 25.2 15.4 25.2 15.25 25.1 14.7 Q24.8 14.1 24.1 13.9 L24.05 13.9 23.5 13.8 23.6 14.25 23.6 14.3 23.6 14.55 23.45 15.25 23.4 15.3 23.35 15.4 23.35 15.5 22.45 16.85 22.35 16.95 22.25 17.05 21.25 18.0 Q22.7 16.4 23.0 15.25 23.15 14.45 22.75 13.85 L22.45 13.9 21.85 14.1 21.1 14.4 20.8 14.55 20.45 14.7 Q19.05 15.5 17.95 16.75 L17.6 17.2 Q16.95 17.95 16.65 18.7 L16.45 19.4" fill="#f9f8ec" fill-rule="evenodd" stroke="none"/>
      <path d="M21.25 18.0 L22.25 17.05 22.35 16.95 22.45 16.85 23.35 15.5 23.35 15.4 23.4 15.3 23.45 15.25 23.6 14.55 23.6 14.3 23.6 14.25 23.5 13.8 24.05 13.9 24.1 13.9 Q24.8 14.1 25.1 14.7 L25.2 15.25 25.2 15.4 25.2 15.55 24.95 16.4 24.9 16.55 24.85 16.65 23.65 18.4 23.6 18.45 22.75 19.3 Q21.75 20.15 20.55 20.7 18.75 21.55 17.55 21.2 16.45 20.9 16.45 19.85 L16.45 19.55 16.45 19.4 16.85 19.55 Q17.9 19.85 19.5 19.1 L21.25 18.0" fill="#d5d580" fill-rule="evenodd" stroke="none"/>
      <path d="M16.45 19.4 L16.65 18.7 Q16.95 17.95 17.6 17.2 L17.95 16.75 Q19.05 15.5 20.45 14.7 L20.8 14.55 21.1 14.4 21.85 14.1 22.45 13.9 22.75 13.85 Q23.15 14.45 23.0 15.25 22.7 16.4 21.25 18.0 L19.5 19.1 Q17.9 19.85 16.85 19.55 L16.45 19.4" fill="#e6e4b3" fill-rule="evenodd" stroke="none"/>
      <path d="M25.8 14.9 L25.8 15.25 25.75 15.45 25.75 15.55 25.55 16.25 25.5 16.3 25.5 16.4 25.45 16.55 24.05 18.5 23.8 18.75 22.85 19.7 20.5 21.15 Q18.45 22.1 17.05 21.7 15.7 21.35 15.85 19.85 L15.9 19.6 16.05 19.0 16.1 18.9 Q16.4 18.0 17.15 17.1 L17.55 16.6 Q18.85 15.2 20.45 14.3 L20.6 14.25 21.15 13.95 21.75 13.7 22.65 13.4 23.15 13.3 23.95 13.25 24.55 13.35 24.8 13.5 Q25.45 13.75 25.7 14.3 L25.8 14.9 Z" fill="none" stroke="#000000" stroke-linecap="round" stroke-linejoin="round" stroke-opacity="0.3019608" stroke-width="0.30000000000000004"/>
      <path d="M15.4 34.25 Q15.4 32.5 17.5 31.5 19.65 30.5 22.7 30.8 25.7 31.15 27.85 32.65 30.0 34.15 30.0 35.9 30.0 37.65 27.85 38.65 25.7 39.7 22.7 39.35 19.65 39.0 17.5 37.5 15.4 36.0 15.4 34.25" fill="#36250e" fill-opacity="0.48235294" fill-rule="evenodd" stroke="none"/>
      <path d="M17.3 32.25 Q15.85 32.65 13.25 34.7 11.5 36.05 11.15 38.25 10.95 39.05 12.75 38.6 L13.05 38.55 Q16.3 37.95 20.0 39.3 L24.3 39.15 26.8 36.9 Q24.5 40.95 21.15 40.55 15.65 37.9 11.3 39.5 11.55 40.7 12.65 41.75 13.95 42.95 16.5 43.85 25.8 46.25 27.55 42.4 29.7 37.4 27.6 34.3 24.55 31.55 20.45 31.65 L18.4 31.85 17.3 32.25 M11.25 36.0 Q12.8 33.15 18.2 31.2 L20.15 31.0 Q24.85 30.8 28.3 33.9 30.6 37.3 28.25 42.75 26.35 46.95 16.15 44.35 8.3 41.55 11.25 36.0" fill="#f9f8ec" fill-rule="evenodd" stroke="none"/>
      <path d="M20.0 39.3 Q16.3 37.95 13.05 38.55 L12.75 38.6 Q10.95 39.05 11.15 38.25 11.5 36.05 13.25 34.7 15.85 32.65 17.3 32.25 20.4 33.35 20.0 39.3 M20.45 31.65 Q24.55 31.55 27.6 34.3 L26.8 36.9 24.3 39.15 Q20.4 35.0 20.45 31.65" fill="#e6e4b3" fill-rule="evenodd" stroke="none"/>
      <path d="M27.6 34.3 Q29.7 37.4 27.55 42.4 25.8 46.25 16.5 43.85 13.95 42.95 12.65 41.75 11.55 40.7 11.3 39.5 15.65 37.9 21.15 40.55 24.5 40.95 26.8 36.9 L27.6 34.3" fill="#cac960" fill-rule="evenodd" stroke="none"/>
      <path d="M17.3 32.25 L18.4 31.85 20.45 31.65 Q20.4 35.0 24.3 39.15 L20.0 39.3 Q20.4 33.35 17.3 32.25" fill="#d5d580" fill-rule="evenodd" stroke="none"/>
      <path d="M11.25 36.0 Q12.8 33.15 18.2 31.2 L20.15 31.0 Q24.85 30.8 28.3 33.9 30.6 37.3 28.25 42.75 26.35 46.95 16.15 44.35 8.3 41.55 11.25 36.0 Z" fill="none" stroke="#000000" stroke-linecap="round" stroke-linejoin="round" stroke-opacity="0.3019608" stroke-width="0.30000000000000004"/>
      <path d="M13.6 43.6 L13.2 38.7 14.55 40.05 15.6 42.5 15.35 43.6 Q14.65 43.8 13.6 43.6 M24.15 45.2 L24.35 40.1 25.9 41.5 26.35 43.15 25.45 44.7 24.15 45.2" fill="#a6a637" fill-rule="evenodd" stroke="none"/>
      <path d="M12.4 37.35 L10.2 36.1 8.3 36.85 7.3 36.8 10.1 35.45 12.65 36.9 12.4 37.35 M9.55 37.25 L12.0 38.05 13.3 42.55 13.35 44.3 11.9 38.6 9.45 37.7 7.0 38.65 9.55 37.25 M17.3 38.7 L20.15 36.8 23.9 38.2 23.4 40.0 23.35 38.25 20.55 37.45 21.2 39.3 20.05 38.25 17.3 38.7" fill="#ffff98" fill-rule="evenodd" stroke="none"/>
      <path d="M12.4 37.35 L12.0 38.05 9.55 37.25 8.3 36.85 10.2 36.1 12.4 37.35 M23.1 46.35 L23.1 45.65 22.55 40.6 21.2 39.3 20.55 37.45 23.35 38.25 23.4 40.0 23.1 41.05 23.1 42.15 23.6 44.1 25.5 42.6 23.1 46.35 M23.1 42.15 L23.1 45.65 23.1 42.15" fill="#ffde4f" fill-rule="evenodd" stroke="none"/>
      <path d="M12.0 38.05 L12.4 37.35 12.65 36.9 14.9 41.8 13.3 42.55 12.0 38.05 M8.3 36.85 L9.55 37.25 7.0 38.65 6.5 39.7 6.35 38.4 7.3 36.8 8.3 36.85 M23.9 38.2 L25.5 42.6 23.6 44.1 23.1 42.15 23.1 41.05 23.4 40.0 23.9 38.2" fill="#f4a33c" fill-rule="evenodd" stroke="none"/>
      <path d="M21.65 48.45 L19.8 48.0 17.8 45.5 17.3 38.7 20.05 38.25 21.2 39.3 22.55 40.6 23.1 45.65 23.1 46.35 21.65 48.45 M7.0 38.65 L9.45 37.7 11.9 38.6 13.35 44.3 13.4 46.6 11.45 46.5 8.55 44.4 6.5 39.7 7.0 38.65" fill="#cc6b22" fill-rule="evenodd" stroke="none"/>
      <path d="M13.3 42.55 L14.9 41.8 14.8 45.0 13.4 46.6 13.35 44.3 13.3 42.55 M25.5 42.6 L24.15 47.7 21.65 48.45 23.1 46.35 25.5 42.6" fill="#a34100" fill-rule="evenodd" stroke="none"/>
      <path d="M13.3 42.55 L14.9 41.8 12.65 36.9 10.1 35.45 7.3 36.8 6.35 38.4 6.5 39.7 8.55 44.4 11.45 46.5 13.4 46.6 14.8 45.0 14.9 41.8 M13.35 44.3 L13.3 42.55 M21.65 48.45 L19.8 48.0 17.8 45.5 17.3 38.7 20.15 36.8 23.9 38.2 25.5 42.6 24.15 47.7 21.65 48.45 23.1 46.35 23.1 45.65 23.1 42.15 23.1 41.05 23.4 40.0 23.9 38.2 M13.35 44.3 L13.4 46.6 M25.5 42.6 L23.1 46.35" fill="none" stroke="#000000" stroke-linecap="round" stroke-linejoin="round" stroke-opacity="0.3019608" stroke-width="0.30000000000000004"/>
    </g>
    <g id="sprite1" transform="matrix(1.0, 0.0, 0.0, 1.0, 0.0, 0.0)">
      <use height="26.7" transform="matrix(0.0042, -1.3515, 1.3935, 0.02, 22.09, 56.0263)" width="26.7" xlink:href="#sprite2"/>
      <use height="26.7" transform="matrix(0.0095, -3.0486, 0.372, 0.0053, 36.507, 81.3775)" width="26.7" xlink:href="#sprite2"/>
      <use height="26.7" transform="matrix(3.0486, 0.0095, -0.0053, 0.372, 0.1225, 35.107)" width="26.7" xlink:href="#sprite2"/>
    </g>
    <g id="sprite2" transform="matrix(1.0, 0.0, 0.0, 1.0, 13.35, 13.35)">
      <use height="26.7" transform="matrix(1.0, 0.0, 0.0, 1.0, -13.35, -13.35)" width="26.7" xlink:href="#shape1"/>
    </g>
    <g id="shape1" transform="matrix(1.0, 0.0, 0.0, 1.0, 13.35, 13.35)">
      <path d="M9.3 -9.85 Q13.35 -5.8 13.35 0.0 13.35 5.8 9.3 9.3 5.8 13.35 0.0 13.35 -5.8 13.35 -9.85 9.3 -13.35 5.8 -13.35 0.0 -13.35 -5.8 -9.85 -9.85 -5.8 -13.35 0.0 -13.35 5.8 -13.35 9.3 -9.85" fill="url(#gradient0)" fill-rule="evenodd" stroke="none"/>
    </g>
    <radialGradient cx="0" cy="0" gradientTransform="matrix(0.0213, 0.0, 0.0, 0.0213, 0.0, 0.0)" gradientUnits="userSpaceOnUse" id="gradient0" r="819.2" spreadMethod="pad">
      <stop offset="0.19607843137254902" stop-color="#fee3bc" stop-opacity="0.5568628"/>
      <stop offset="0.5019607843137255" stop-color="#fee3bc" stop-opacity="0.08627451"/>
      <stop offset="0.7607843137254902" stop-color="#ffe3bd" stop-opacity="0.0"/>
    </radialGradient>
  </defs>
</svg>
