<?xml version="1.0" encoding="UTF-8" standalone="no"?>
<svg xmlns:xlink="http://www.w3.org/1999/xlink" height="52.0px" width="52.0px" xmlns="http://www.w3.org/2000/svg">
  <g transform="matrix(1.0, 0.0, 0.0, 1.0, 0.0, 0.0)">
    <use height="102.0" transform="matrix(1.0, 0.0, 0.0, 1.0, -25.0, -25.0)" width="102.0" xlink:href="#shape0"/>
    <use height="0.0" transform="matrix(0.1105, 0.0, 0.0, 0.0801, 31.3, 17.65)" width="0.0" xlink:href="#sprite0"/>
    <use height="0.0" transform="matrix(0.0873, -0.0057, 0.0, 0.0584, 34.2, 33.5)" width="0.0" xlink:href="#sprite0"/>
    <use height="0.0" transform="matrix(0.0844, 0.0352, -0.0428, 0.0949, 19.7, 35.6)" width="0.0" xlink:href="#sprite0"/>
    <use height="0.0" transform="matrix(0.0181, 0.0076, -0.0167, 0.0371, 13.05, 43.3)" width="0.0" xlink:href="#sprite0"/>
    <use height="0.0" transform="matrix(0.0181, 0.0076, -0.0167, 0.0371, 16.6, 44.9)" width="0.0" xlink:href="#sprite0"/>
    <use height="0.0" transform="matrix(0.117, 0.0488, -0.0167, 0.0371, 24.25, 25.15)" width="0.0" xlink:href="#sprite0"/>
    <use height="81.5" transform="matrix(0.1854, 0.0, 0.0, 0.1854, 27.65, 24.4)" width="81.5" xlink:href="#sprite1"/>
  </g>
  <defs>
    <g id="shape0" transform="matrix(1.0, 0.0, 0.0, 1.0, 25.0, 25.0)">
      <path d="M52.0 0.0 L52.0 52.0 0.0 52.0 0.0 0.0 52.0 0.0" fill="#795fa9" fill-opacity="0.0" fill-rule="evenodd" stroke="none"/>
      <path d="M34.8 3.15 Q33.65 2.7 32.95 3.55 L32.45 7.25 31.2 11.4 26.7 12.0 Q24.05 12.9 21.85 14.7 L20.4 16.05 18.9 14.55 Q15.9 14.55 13.7 16.7 L13.45 17.25 Q11.75 20.7 11.9 22.55 11.8 26.5 13.7 29.25 L13.55 29.95 13.4 30.9 11.1 30.75 10.3 29.35 10.25 29.35 Q9.45 29.2 8.9 29.6 L8.8 29.65 8.55 29.95 9.45 30.95 9.25 31.65 Q8.6 32.05 8.05 32.4 L8.0 32.4 Q8.6 33.45 9.8 33.1 L10.8 32.1 13.0 32.75 12.6 34.9 9.55 35.55 8.4 34.35 8.4 34.4 Q7.55 34.45 7.15 35.05 L7.05 35.15 6.9 35.4 7.95 36.2 8.0 36.85 7.0 37.95 Q7.85 38.8 8.9 38.1 L9.6 36.95 12.2 37.0 11.5 40.55 11.55 40.55 11.45 40.8 11.45 40.85 11.45 40.9 11.4 40.9 Q11.3 41.5 11.6 42.15 L11.75 42.5 10.5 45.9 10.5 45.95 10.5 45.9 10.45 46.0 10.5 46.4 10.55 46.65 11.25 47.4 12.3 47.7 12.45 47.65 12.6 47.6 12.8 47.55 12.9 47.4 12.9 47.35 12.95 47.3 14.25 44.95 14.75 45.25 15.0 45.4 13.75 47.5 13.75 47.55 13.7 47.55 13.65 47.6 13.65 48.0 13.65 48.25 14.3 48.9 15.35 49.2 15.55 49.2 15.65 49.15 15.85 49.1 16.05 48.95 16.05 48.9 18.3 46.15 19.05 46.1 19.3 46.0 19.55 45.95 19.9 45.7 19.95 45.7 19.95 45.75 20.15 45.65 20.35 45.55 20.5 45.45 23.7 43.3 23.75 43.2 25.1 45.35 24.45 46.55 Q24.45 47.85 25.6 48.15 L25.6 48.1 26.0 46.7 26.6 46.35 27.8 46.9 28.0 46.55 28.05 46.45 Q28.25 45.8 27.95 45.15 L27.9 45.05 26.3 44.7 25.3 41.85 27.6 39.85 29.65 41.75 29.35 43.05 Q29.65 44.3 30.85 44.25 L30.85 42.8 31.35 42.35 32.7 42.55 32.75 42.2 32.8 42.05 Q32.8 41.35 32.3 40.8 L32.25 40.7 30.65 40.8 29.15 38.6 29.8 37.95 34.5 38.4 35.35 38.4 37.0 37.85 37.0 37.9 Q39.9 36.7 41.65 34.0 L42.05 33.3 Q42.85 29.45 42.9 26.45 42.4 24.05 40.65 22.65 40.9 19.85 39.85 17.1 39.0 15.25 37.75 14.05 39.6 12.25 41.6 10.9 43.2 9.85 44.9 9.1 45.45 8.15 44.65 7.25 L44.4 7.0 44.1 6.8 Q43.2 6.25 42.45 6.8 L35.95 12.65 Q34.8 12.0 33.45 11.7 L36.0 5.05 Q36.25 4.1 35.45 3.5 L35.1 3.25 34.8 3.15 Z" fill="none" stroke="#000000" stroke-linecap="round" stroke-linejoin="round" stroke-opacity="0.3019608" stroke-width="1.0"/>
      <path d="M9.25 31.65 L9.1 31.8 8.35 32.45 8.8 32.85 9.6 32.85 9.65 32.85 10.75 31.85 12.1 32.25 11.9 32.45 10.8 32.1 9.8 33.1 Q8.6 33.45 8.0 32.4 L8.05 32.4 Q8.6 32.05 9.25 31.65 M12.75 31.5 L13.2 31.15 11.0 31.05 10.15 29.6 10.05 29.55 8.9 29.6 Q9.45 29.2 10.25 29.35 L10.3 29.35 11.1 30.75 13.55 30.9 13.2 31.15 15.15 31.25 15.4 31.8 12.75 31.5 M12.55 34.95 L12.05 35.35 13.6 34.95 14.0 35.45 11.55 35.85 12.05 35.35 9.55 35.85 8.35 34.7 8.2 34.7 Q7.7 34.7 7.15 35.05 7.55 34.45 8.4 34.4 L8.4 34.35 9.55 35.55 12.55 34.95 M8.0 36.85 L7.9 37.05 7.3 37.95 7.9 38.15 Q8.6 38.15 8.7 37.95 L9.5 36.75 10.95 36.75 10.8 36.95 9.6 36.95 8.9 38.1 Q7.85 38.8 7.0 37.95 L8.0 36.85" fill="#e6e4b3" fill-rule="evenodd" stroke="none"/>
      <path d="M12.75 31.5 L10.85 31.3 10.05 29.8 9.9 29.75 8.8 29.65 8.9 29.6 10.05 29.55 10.15 29.6 11.0 31.05 13.2 31.15 12.75 31.5 M7.15 35.05 Q7.7 34.7 8.2 34.7 L8.35 34.7 9.55 35.85 12.05 35.35 11.55 35.85 9.45 36.15 8.3 34.9 8.15 34.9 7.05 35.15 7.15 35.05" fill="#ffffff" fill-rule="evenodd" stroke="none"/>
      <path d="M8.8 29.65 L9.9 29.75 10.05 29.8 10.85 31.3 12.75 31.5 12.1 32.2 12.1 32.25 10.75 31.85 9.65 32.85 9.6 32.85 Q8.75 32.8 9.1 31.8 L9.25 31.65 9.45 30.95 8.55 29.95 8.8 29.65 M13.55 30.9 L14.55 30.9 15.15 31.25 13.2 31.15 13.55 30.9 M15.0 33.0 L14.55 33.2 11.9 32.45 12.1 32.25 15.0 33.0 M13.6 34.95 L12.05 35.35 12.55 34.95 12.95 34.85 13.6 34.95 M7.05 35.15 L8.15 34.9 8.3 34.9 9.45 36.15 11.55 35.85 11.1 36.35 10.95 36.75 9.5 36.75 8.7 37.95 Q7.8 38.1 7.9 37.05 L8.0 36.85 7.95 36.2 6.9 35.4 7.05 35.15 M10.8 36.95 L10.95 36.75 13.9 36.75 13.55 37.0 10.8 36.95" fill="#cac960" fill-rule="evenodd" stroke="none"/>
      <path d="M9.1 31.8 Q8.75 32.8 9.6 32.85 L8.8 32.85 8.35 32.45 9.1 31.8 M12.1 32.25 L12.1 32.2 12.75 31.5 15.4 31.8 15.4 32.1 15.0 33.0 12.1 32.25 M11.55 35.85 L14.0 35.45 14.05 35.75 Q14.15 36.4 13.9 36.75 L10.95 36.75 11.1 36.35 11.55 35.85 M7.9 37.05 Q7.8 38.1 8.7 37.95 8.6 38.15 7.9 38.15 L7.3 37.95 7.9 37.05" fill="#b9b93e" fill-rule="evenodd" stroke="none"/>
      <path d="M8.8 29.65 L8.55 29.95 9.45 30.95 9.25 31.65 Q8.6 32.05 8.05 32.4 L7.95 32.35 8.0 32.4 Q8.6 33.45 9.8 33.1 L10.8 32.1 11.9 32.45 14.55 33.2 15.0 33.0 15.4 32.1 15.4 31.8 15.15 31.25 14.55 30.9 13.55 30.9 11.1 30.75 10.3 29.35 10.25 29.35 Q9.45 29.2 8.9 29.6 L8.8 29.65 M13.6 34.95 L12.95 34.85 12.55 34.95 9.55 35.55 8.4 34.35 8.4 34.4 Q7.55 34.45 7.15 35.05 L7.05 35.15 6.9 35.4 7.95 36.2 8.0 36.85 7.0 37.95 Q7.85 38.8 8.9 38.1 L9.6 36.95 10.8 36.95 13.55 37.0 13.9 36.75 Q14.15 36.4 14.05 35.75 L14.0 35.45 13.6 34.95" fill="none" stroke="#000000" stroke-linecap="round" stroke-linejoin="round" stroke-opacity="0.3019608" stroke-width="0.30000000000000004"/>
      <path d="M31.95 12.5 Q33.2 9.85 34.05 7.3 L35.1 3.25 35.45 3.5 34.45 7.25 32.05 13.6 31.45 13.3 31.95 12.5" fill="#b9b93e" fill-rule="evenodd" stroke="none"/>
      <path d="M30.95 13.0 Q32.2 10.5 32.9 7.25 L33.35 3.7 33.85 3.25 Q34.95 3.35 34.5 5.0 33.85 8.05 31.95 12.5 L31.45 13.3 30.95 13.0 M35.45 3.5 Q36.25 4.1 36.0 5.05 L32.6 13.9 32.05 13.6 34.45 7.25 35.45 3.5" fill="#e6e4b3" fill-rule="evenodd" stroke="none"/>
      <path d="M30.95 13.0 L30.6 12.75 Q31.85 10.0 32.45 7.25 L32.95 3.55 Q33.65 2.7 34.8 3.15 L35.1 3.25 34.05 7.3 Q33.2 9.85 31.95 12.5 33.85 8.05 34.5 5.0 34.95 3.35 33.85 3.25 L33.35 3.7 32.9 7.25 Q32.2 10.5 30.95 13.0" fill="#ffffff" fill-rule="evenodd" stroke="none"/>
      <path d="M35.1 3.25 L34.8 3.15 Q33.65 2.7 32.95 3.55 L32.45 7.25 Q31.85 10.0 30.6 12.75 L30.95 13.0 31.45 13.3 32.05 13.6 32.6 13.9 36.0 5.05 Q36.25 4.1 35.45 3.5 L35.1 3.25 Z" fill="none" stroke="#000000" stroke-linecap="round" stroke-linejoin="round" stroke-opacity="0.3019608" stroke-width="0.30000000000000004"/>
      <path d="M44.4 7.0 L44.65 7.25 Q45.15 8.1 44.6 8.8 42.9 9.65 41.45 10.55 38.7 12.35 36.85 14.4 L36.3 14.0 Q38.55 11.4 41.05 9.4 L44.4 7.0" fill="#b9b93e" fill-rule="evenodd" stroke="none"/>
      <path d="M44.65 7.25 Q45.45 8.15 44.9 9.1 43.2 9.85 41.6 10.9 39.3 12.45 37.15 14.6 L36.85 14.4 Q38.7 12.35 41.45 10.55 42.9 9.65 44.6 8.8 45.15 8.1 44.65 7.25 M35.85 13.55 L35.35 13.15 42.45 6.8 Q43.2 6.25 44.1 6.8 42.75 7.55 40.9 9.1 38.7 10.8 35.85 13.55" fill="#e6e4b3" fill-rule="evenodd" stroke="none"/>
      <path d="M36.3 14.0 L35.85 13.55 Q38.7 10.8 40.9 9.1 42.75 7.55 44.1 6.8 L44.4 7.0 41.05 9.4 Q38.55 11.4 36.3 14.0" fill="#ffffff" fill-rule="evenodd" stroke="none"/>
      <path d="M44.4 7.0 L44.65 7.25 Q45.45 8.15 44.9 9.1 43.2 9.85 41.6 10.9 39.3 12.45 37.15 14.6 L36.85 14.4 36.3 14.0 35.85 13.55 35.35 13.15 42.45 6.8 Q43.2 6.25 44.1 6.8 L44.4 7.0 Z" fill="none" stroke="#000000" stroke-linecap="round" stroke-linejoin="round" stroke-opacity="0.3019608" stroke-width="0.30000000000000004"/>
      <path d="M34.95 27.45 L34.95 27.4 34.95 27.45" fill="#f49302" fill-rule="evenodd" stroke="none"/>
      <path d="M28.1 12.25 L27.0 12.5 Q24.55 13.35 22.5 15.0 20.05 17.05 18.2 20.25 L26.1 23.65 34.95 27.4 34.95 27.45 37.6 28.55 Q39.45 25.6 39.8 22.55 40.15 19.85 39.05 17.15 38.05 14.75 36.15 13.45 L34.7 12.65 34.65 12.65 33.75 12.3 Q35.95 13.45 34.05 16.5 32.3 18.9 30.75 20.2 36.9 13.2 31.9 12.0 L28.1 12.25 M21.85 14.75 Q24.05 12.95 26.75 12.0 36.1 9.6 39.9 17.1 41.0 20.0 40.65 22.9 40.25 26.2 38.2 29.4 L17.2 20.4 Q19.15 16.9 21.85 14.75" fill="#d7f16b" fill-rule="evenodd" stroke="none"/>
      <path d="M28.1 12.25 L31.9 12.0 Q36.9 13.2 30.75 20.2 L28.65 21.5 Q25.8 22.55 23.5 20.0 22.15 17.65 23.5 15.5 24.85 13.35 28.1 12.25" fill="#9ae17b" fill-rule="evenodd" stroke="none"/>
      <path d="M26.1 23.65 L18.2 20.25 Q20.05 17.05 22.5 15.0 24.55 13.35 27.0 12.5 L28.1 12.25 Q24.85 13.35 23.5 15.5 22.15 17.65 23.5 20.0 25.8 22.55 28.65 21.5 L26.1 23.65 M36.15 13.45 Q38.05 14.75 39.05 17.15 40.15 19.85 39.8 22.55 39.45 25.6 37.6 28.55 L34.95 27.45 34.95 27.4 Q41.0 18.5 36.15 13.45" fill="#75d74a" fill-rule="evenodd" stroke="none"/>
      <path d="M30.75 20.2 Q32.3 18.9 34.05 16.5 35.95 13.45 33.75 12.3 L34.65 12.65 34.7 12.65 36.15 13.45 Q41.0 18.5 34.95 27.4 L26.1 23.65 28.65 21.5 30.75 20.2" fill="#339328" fill-rule="evenodd" stroke="none"/>
      <path d="M21.85 14.75 Q24.05 12.95 26.75 12.0 36.1 9.6 39.9 17.1 41.0 20.0 40.65 22.9 40.25 26.2 38.2 29.4 L17.2 20.4 Q19.15 16.9 21.85 14.75 Z" fill="none" stroke="#000000" stroke-linecap="round" stroke-linejoin="round" stroke-opacity="0.3019608" stroke-width="0.30000000000000004"/>
      <path d="M33.95 17.9 L34.75 18.0 35.1 18.15 Q35.75 18.5 35.95 19.2 36.2 19.95 35.85 20.75 35.55 21.6 36.15 21.35 L36.05 21.45 35.6 22.15 Q35.65 21.35 35.15 21.8 34.7 22.25 34.05 22.5 L32.1 22.65 Q31.2 22.3 30.9 21.35 30.8 20.8 30.95 20.2 L30.95 20.1 31.25 19.5 Q31.8 18.55 32.8 18.1 L33.95 17.9 M33.15 20.85 Q35.3 19.65 34.7 18.3 L34.5 18.25 33.75 18.1 32.85 18.3 Q31.9 18.7 31.45 19.55 31.3 19.75 31.3 20.0 L31.15 20.5 31.25 21.1 Q31.45 21.9 32.2 22.15 L33.9 22.05 35.25 20.85 Q35.7 20.05 35.5 19.25 L35.1 18.65 34.8 19.6 Q34.35 20.45 33.45 20.8 L33.15 20.85" fill="#ffffff" fill-rule="evenodd" stroke="none"/>
      <path d="M35.95 19.2 Q35.75 18.5 35.1 18.15 L34.75 18.0 33.95 17.9 35.05 18.0 35.1 18.0 Q36.1 18.35 36.4 19.35 L36.5 19.65 Q36.3 19.95 35.95 19.2 M31.15 20.5 L31.3 20.0 Q31.3 19.75 31.45 19.55 31.9 18.7 32.85 18.3 L33.75 18.1 34.5 18.25 34.7 18.3 Q35.3 19.65 33.15 20.85 L33.1 20.9 Q32.4 21.1 31.8 20.9 L31.15 20.5" fill="#e6e4b3" fill-rule="evenodd" stroke="none"/>
      <path d="M35.95 19.2 Q36.3 19.95 36.5 19.65 36.6 20.5 36.15 21.35 35.55 21.6 35.85 20.75 36.2 19.95 35.95 19.2 M30.95 20.1 L30.95 20.2 Q30.8 20.8 30.9 21.35 31.2 22.3 32.1 22.65 L34.05 22.5 Q34.7 22.25 35.15 21.8 35.65 21.35 35.6 22.15 L34.35 23.0 32.15 23.15 Q31.15 22.8 30.85 21.8 30.6 21.0 30.95 20.2 L30.95 20.1 M33.15 20.85 L33.45 20.8 Q34.35 20.45 34.8 19.6 L35.1 18.65 35.5 19.25 Q35.7 20.05 35.25 20.85 L33.9 22.05 32.2 22.15 Q31.45 21.9 31.25 21.1 L31.15 20.5 31.8 20.9 Q32.4 21.1 33.1 20.9 L33.15 20.85" fill="#cac960" fill-rule="evenodd" stroke="none"/>
      <path d="M36.5 19.65 L36.4 19.35 Q36.1 18.35 35.1 18.0 L35.05 18.0 33.95 17.9 32.8 18.1 Q31.8 18.55 31.25 19.5 L30.95 20.1 30.95 20.2 Q30.6 21.0 30.85 21.8 31.15 22.8 32.15 23.15 L34.35 23.0 35.6 22.15 36.05 21.45 36.15 21.35 Q36.6 20.5 36.5 19.65 Z" fill="none" stroke="#000000" stroke-linecap="round" stroke-linejoin="round" stroke-opacity="0.3019608" stroke-width="0.30000000000000004"/>
      <path d="M24.35 17.7 Q26.2 16.4 25.6 15.1 L25.45 15.0 24.75 14.9 23.85 15.15 Q23.1 15.6 22.7 16.4 L22.5 16.9 22.45 17.4 22.55 18.0 Q22.75 18.75 23.45 19.0 L25.0 18.9 Q25.8 18.5 26.25 17.7 26.65 16.85 26.35 16.05 L26.05 15.4 25.75 16.35 Q25.35 17.2 24.55 17.6 L24.35 17.7 M22.25 17.0 L22.45 16.4 Q22.9 15.4 23.9 14.9 L24.9 14.7 25.7 14.8 26.0 14.9 Q26.6 15.2 26.85 15.95 27.05 16.7 26.75 17.5 26.55 18.4 27.05 18.15 L27.0 18.25 26.6 18.9 Q26.65 18.15 26.1 18.6 L25.2 19.35 Q24.25 19.85 23.35 19.55 22.5 19.25 22.25 18.3 L22.2 17.1 22.25 17.0" fill="#ffffff" fill-rule="evenodd" stroke="none"/>
      <path d="M22.45 17.4 L22.5 16.9 22.7 16.4 Q23.1 15.6 23.85 15.15 L24.75 14.9 25.45 15.0 25.6 15.1 Q26.2 16.4 24.35 17.7 L24.25 17.75 Q23.65 17.95 23.05 17.75 L22.45 17.4 M24.9 14.7 L25.9 14.75 25.95 14.8 Q26.95 15.1 27.25 16.1 L27.3 16.35 Q27.15 16.7 26.85 15.95 26.6 15.2 26.0 14.9 L25.7 14.8 24.9 14.7" fill="#e6e4b3" fill-rule="evenodd" stroke="none"/>
      <path d="M24.35 17.7 L24.55 17.6 Q25.35 17.2 25.75 16.35 L26.05 15.4 26.35 16.05 Q26.65 16.85 26.25 17.7 25.8 18.5 25.0 18.9 L23.45 19.0 Q22.75 18.75 22.55 18.0 L22.45 17.4 23.05 17.75 Q23.65 17.95 24.25 17.75 L24.35 17.7 M27.3 16.35 Q27.45 17.25 27.05 18.15 26.55 18.4 26.75 17.5 27.05 16.7 26.85 15.95 27.15 16.7 27.3 16.35 M26.6 18.9 Q26.15 19.45 25.45 19.85 L23.45 20.0 Q22.5 19.65 22.2 18.65 21.95 17.85 22.2 17.1 L22.25 17.0 22.2 17.1 22.25 18.3 Q22.5 19.25 23.35 19.55 24.25 19.85 25.2 19.35 L26.1 18.6 Q26.65 18.15 26.6 18.9" fill="#cac960" fill-rule="evenodd" stroke="none"/>
      <path d="M22.25 17.0 L22.45 16.4 Q22.9 15.4 23.9 14.9 L24.9 14.7 25.9 14.75 25.95 14.8 Q26.95 15.1 27.25 16.1 L27.3 16.35 Q27.45 17.25 27.05 18.15 L27.0 18.25 26.6 18.9 Q26.15 19.45 25.45 19.85 L23.45 20.0 Q22.5 19.65 22.2 18.65 21.95 17.85 22.2 17.1 L22.25 17.0 Z" fill="none" stroke="#000000" stroke-linecap="round" stroke-linejoin="round" stroke-opacity="0.3019608" stroke-width="0.30000000000000004"/>
      <path d="M19.7 20.0 L20.95 20.0 16.5 23.3 15.75 22.6 19.7 20.0 M18.55 24.9 Q18.1 23.9 19.1 22.7 L19.75 22.2 Q20.15 21.9 20.75 21.75 L23.0 21.4 24.15 22.0 21.35 26.0 21.0 26.3 18.55 24.9 M26.5 28.4 L23.65 27.45 23.35 27.35 Q24.5 24.4 27.1 24.05 L28.5 24.35 28.6 23.8 29.5 23.65 28.75 28.95 27.55 28.65 28.5 24.35 27.55 28.65 26.5 28.4 M39.0 26.75 L38.3 27.4 36.75 28.5 Q36.15 26.35 37.95 25.45 38.55 25.3 39.25 25.45 L39.0 26.75 M33.9 29.5 L33.5 29.5 30.8 29.3 Q30.0 28.15 30.45 26.45 30.65 25.75 31.0 25.35 31.65 24.7 32.7 24.8 L33.15 24.9 33.9 28.95 33.9 29.5" fill="#e6e4b3" fill-rule="evenodd" stroke="none"/>
      <path d="M15.2 21.5 L15.2 20.7 Q16.05 19.05 17.2 18.6 L17.45 18.5 Q18.25 18.3 19.4 19.35 L19.7 20.0 15.75 22.6 15.55 22.35 15.2 21.5 M23.0 21.4 L20.75 21.75 Q20.15 21.9 19.75 22.2 L19.1 22.7 Q18.1 23.9 18.55 24.9 L16.85 23.6 20.8 20.45 23.0 21.4 M22.85 27.1 L22.1 26.85 25.3 22.6 28.6 23.8 28.5 24.35 27.1 24.05 26.5 24.1 25.35 24.45 24.45 25.05 Q23.4 25.85 22.85 27.1 M36.35 28.7 L35.85 28.95 35.5 29.05 34.7 25.55 38.9 25.0 39.25 25.4 39.25 25.45 Q38.55 25.3 37.95 25.45 37.15 25.7 36.6 26.5 L36.45 26.9 Q36.2 27.6 36.35 28.7 M32.7 24.8 Q31.65 24.7 31.0 25.35 30.65 25.75 30.45 26.45 30.0 28.15 30.8 29.3 L29.5 29.1 29.15 29.0 29.8 24.1 32.7 24.8" fill="#cac960" fill-rule="evenodd" stroke="none"/>
      <path d="M15.2 20.7 L15.55 18.8 16.45 18.0 Q17.3 17.5 18.5 17.55 L19.4 19.35 Q18.25 18.3 17.45 18.5 L17.2 18.6 Q16.05 19.05 15.2 20.7 M21.0 26.3 L21.35 26.0 24.75 21.8 25.3 22.6 22.1 26.85 21.0 26.3 M35.5 29.05 L33.9 29.5 33.9 28.95 33.65 24.65 34.7 25.55 35.5 29.05" fill="#b9b93e" fill-rule="evenodd" stroke="none"/>
      <path d="M18.3 16.5 Q16.7 16.45 15.75 17.35 L15.4 17.75 Q14.95 19.2 15.0 20.35 14.75 18.05 15.4 17.3 16.35 15.95 18.35 16.05 L21.35 19.0 26.85 21.15 Q27.35 21.35 27.65 20.55 L27.75 20.25 27.9 20.65 27.65 21.45 31.15 22.8 32.95 23.5 38.75 23.5 Q40.1 24.15 39.0 26.75 L39.25 25.45 39.25 25.4 Q39.3 24.35 38.7 24.0 L32.9 23.95 21.3 19.5 18.3 16.5 M14.25 29.8 L13.9 29.45 Q11.85 26.65 11.9 22.55 11.8 20.7 13.45 17.3 L13.5 17.3 13.35 17.7 Q12.55 20.25 13.75 22.55 L14.3 23.25 Q17.8 27.25 23.2 29.2 L26.15 30.25 Q26.7 30.2 26.7 29.05 L26.7 28.8 26.8 29.1 27.1 30.5 28.95 30.95 31.65 31.35 35.2 31.5 Q37.9 30.85 39.8 29.15 L41.4 27.3 Q42.25 24.6 40.4 22.45 41.85 23.65 42.0 25.4 L41.9 26.45 Q41.45 28.4 39.55 29.9 L37.6 31.15 35.2 32.0 Q35.65 34.15 34.6 38.1 35.2 33.9 34.2 32.05 L28.8 31.5 Q25.85 30.9 23.0 29.75 L22.1 29.4 Q19.35 28.3 17.1 26.6 18.5 29.8 18.35 31.55 17.55 27.45 15.8 25.7 L14.1 23.8 13.55 23.1 13.0 21.75 Q11.8 24.6 14.25 29.8" fill="#d7f16b" fill-rule="evenodd" stroke="none"/>
      <path d="M15.0 20.35 L15.05 20.75 15.2 21.5 15.55 22.35 15.75 22.6 16.5 23.3 16.85 23.6 18.55 24.9 21.0 26.3 22.1 26.85 22.85 27.1 23.35 27.35 23.65 27.45 26.5 28.4 26.7 28.8 26.7 29.05 Q26.7 30.2 26.15 30.25 L23.2 29.2 Q17.8 27.25 14.3 23.25 L13.75 22.55 Q12.55 20.25 13.35 17.7 L13.5 17.3 13.5 17.25 13.75 16.75 Q15.9 14.55 18.95 14.6 L22.05 17.7 27.4 19.6 27.75 20.25 27.65 20.55 Q27.35 21.35 26.85 21.15 L21.35 19.0 18.35 16.05 Q16.35 15.95 15.4 17.3 14.75 18.05 15.0 20.35 M30.2 20.6 L34.1 21.95 40.2 22.3 40.4 22.45 Q42.45 23.85 42.95 26.45 42.95 29.45 42.1 33.35 L41.7 34.05 Q39.9 36.7 37.05 37.9 L37.0 37.9 Q36.45 36.2 36.9 33.75 36.65 37.0 38.0 36.95 41.05 34.95 41.85 32.45 L42.4 28.25 Q42.45 26.15 42.0 25.4 41.85 23.65 40.4 22.45 42.25 24.6 41.4 27.3 L39.8 29.15 Q37.9 30.85 35.2 31.5 L31.65 31.35 30.6 30.35 Q30.2 29.8 30.8 29.3 L33.5 29.5 33.9 29.5 35.5 29.05 35.85 28.95 36.35 28.7 36.75 28.5 38.3 27.4 39.0 26.75 Q40.1 24.15 38.75 23.5 L32.95 23.5 31.15 22.8 30.25 21.65 Q30.0 21.1 30.2 20.6" fill="#9ae17b" fill-rule="evenodd" stroke="none"/>
      <path d="M18.5 17.55 L18.3 16.5 21.3 19.5 21.35 20.2 20.95 20.0 19.7 20.0 19.4 19.35 18.5 17.55 M27.4 19.6 L30.2 20.6 Q30.0 21.1 30.25 21.65 L31.15 22.8 27.65 21.45 27.9 20.65 27.75 20.25 27.4 19.6 M37.0 37.9 L35.35 38.4 34.55 38.4 34.6 38.1 Q35.65 34.15 35.2 32.0 L37.6 31.15 36.9 33.75 Q36.45 36.2 37.0 37.9 M17.65 33.05 Q15.75 31.65 14.25 29.8 11.8 24.6 13.0 21.75 L13.55 23.1 14.1 23.8 15.8 25.7 Q17.55 27.45 18.35 31.55 18.3 32.55 17.65 33.05 M26.7 28.8 L26.5 28.4 27.55 28.65 28.75 28.95 29.15 29.0 29.5 29.1 30.8 29.3 Q30.2 29.8 30.6 30.35 L31.65 31.35 28.95 30.95 27.1 30.5 26.8 29.1 26.7 28.8" fill="#75d74a" fill-rule="evenodd" stroke="none"/>
      <path d="M21.35 20.2 L21.3 19.5 32.9 23.95 33.0 24.5 29.5 23.65 28.6 23.8 25.3 22.6 24.75 21.8 21.35 20.2 M34.55 38.4 Q28.8 38.3 23.4 36.1 L22.85 35.9 Q20.2 32.6 22.1 29.4 L23.0 29.75 Q25.85 30.9 28.8 31.5 L34.2 32.05 Q35.2 33.9 34.6 38.1 L34.55 38.4 M42.0 25.4 Q42.45 26.15 42.4 28.25 L41.85 32.45 Q41.05 34.95 38.0 36.95 36.65 37.0 36.9 33.75 L37.6 31.15 39.55 29.9 Q41.45 28.4 41.9 26.45 L42.0 25.4" fill="#339328" fill-rule="evenodd" stroke="none"/>
      <path d="M18.3 16.5 L18.5 17.55 Q17.3 17.5 16.45 18.0 L15.55 18.8 15.2 20.7 15.2 21.5 15.05 20.75 15.0 20.35 Q14.95 19.2 15.4 17.75 L15.75 17.35 Q16.7 16.45 18.3 16.5 M22.85 35.9 Q19.95 34.75 17.65 33.05 18.3 32.55 18.35 31.55 18.5 29.8 17.1 26.6 19.35 28.3 22.1 29.4 20.2 32.6 22.85 35.9 M13.5 17.3 L13.45 17.3 13.5 17.3 M33.65 24.65 L33.0 24.5 32.9 23.95 38.7 24.0 Q39.3 24.35 39.25 25.4 L38.9 25.0 34.7 25.55 33.65 24.65" fill="#246c41" fill-rule="evenodd" stroke="none"/>
      <path d="M20.95 20.0 L21.35 20.2 24.75 21.8 21.35 26.0 24.15 22.0 23.0 21.4 20.8 20.45 16.85 23.6 16.5 23.3 20.95 20.0 M23.35 27.35 L22.85 27.1 Q23.4 25.85 24.45 25.05 L25.35 24.45 26.5 24.1 27.1 24.05 Q24.5 24.4 23.35 27.35 M36.75 28.5 L36.35 28.7 Q36.2 27.6 36.45 26.9 L36.6 26.5 Q37.15 25.7 37.95 25.45 36.15 26.35 36.75 28.5 M28.75 28.95 L29.5 23.65 33.0 24.5 33.65 24.65 33.9 28.95 33.15 24.9 32.7 24.8 29.8 24.1 29.15 29.0 28.75 28.95" fill="#f9f8ec" fill-rule="evenodd" stroke="none"/>
      <path d="M15.0 20.35 L15.05 20.75 15.2 21.5 15.2 20.7 15.55 18.8 16.45 18.0 Q17.3 17.5 18.5 17.55 L19.4 19.35 19.7 20.0 20.95 20.0 21.35 20.2 24.75 21.8 25.3 22.6 22.1 26.85 21.0 26.3 18.55 24.9 16.85 23.6 16.5 23.3 15.75 22.6 19.7 20.0 M13.75 16.75 Q15.9 14.55 18.95 14.6 L22.05 17.7 27.4 19.6 30.2 20.6 34.1 21.95 40.2 22.3 40.4 22.45 Q42.45 23.85 42.95 26.45 42.95 29.45 42.1 33.35 L41.7 34.05 Q39.9 36.7 37.05 37.9 L37.0 37.9 35.35 38.4 34.55 38.4 Q28.8 38.3 23.4 36.1 L22.85 35.9 Q19.95 34.75 17.65 33.05 15.75 31.65 14.25 29.8 L13.9 29.45 Q11.85 26.65 11.9 22.55 11.8 20.7 13.45 17.3 L13.75 16.75 13.5 17.25 13.5 17.3 M26.5 28.4 L23.65 27.45 23.35 27.35 22.85 27.1 22.1 26.85 M15.75 22.6 L15.55 22.35 15.2 21.5 M39.0 26.75 L38.3 27.4 36.75 28.5 36.35 28.7 35.85 28.95 35.5 29.05 33.9 29.5 33.5 29.5 30.8 29.3 29.5 29.1 29.15 29.0 28.75 28.95 27.55 28.65 26.5 28.4 M28.6 23.8 L28.5 24.35 27.55 28.65 M29.5 23.65 L28.6 23.8 25.3 22.6 M33.65 24.65 L33.0 24.5 29.5 23.65 M33.65 24.65 L34.7 25.55 38.9 25.0 39.25 25.4 39.25 25.45 39.0 26.75 M34.7 25.55 L35.5 29.05" fill="none" stroke="#000000" stroke-linecap="round" stroke-linejoin="round" stroke-opacity="0.3019608" stroke-width="0.30000000000000004"/>
      <path d="M13.55 39.4 L13.8 39.4 Q15.1 39.35 16.45 39.85 17.15 39.85 17.9 39.45 L18.7 39.05 20.7 37.35 21.95 35.9 Q25.2 31.55 22.95 30.2 L24.6 31.0 Q24.8 32.75 22.5 35.85 20.55 38.5 18.65 39.95 18.5 40.05 18.45 40.1 L17.8 40.55 18.25 40.8 Q19.4 41.55 20.05 42.55 L20.15 42.65 20.7 44.05 20.7 44.15 20.55 45.1 20.5 45.1 20.4 45.3 20.25 45.5 20.25 45.45 20.35 45.25 20.4 45.05 Q20.6 44.15 19.85 43.05 19.25 42.05 18.2 41.3 L18.15 41.25 17.6 40.9 17.15 40.65 16.25 40.25 15.75 40.1 13.65 39.75 Q12.0 39.85 11.5 40.8 L11.55 40.55 11.55 40.5 13.6 29.95 13.95 28.6 Q14.05 28.25 14.4 28.05 12.75 34.4 12.2 39.8 12.6 39.55 13.15 39.45 L13.55 39.4" fill="#d7f16b" fill-rule="evenodd" stroke="none"/>
      <path d="M17.1 28.0 L17.3 28.0 Q20.15 28.9 22.95 30.2 25.2 31.55 21.95 35.9 L20.7 37.35 18.7 39.05 17.9 39.45 Q17.15 39.85 16.45 39.85 15.1 39.35 13.8 39.4 L13.55 39.4 Q12.75 36.65 13.6 33.55 L14.3 31.25 Q15.25 28.75 17.1 28.0 M31.2 36.25 L30.95 37.05 24.0 43.05 23.7 43.3 Q22.1 44.65 20.5 45.45 L20.35 45.55 20.2 45.65 20.0 45.75 19.95 45.7 20.25 45.5 20.4 45.3 20.5 45.1 20.55 45.1 20.7 44.15 Q21.3 44.5 23.25 43.05 L27.7 39.35 31.2 36.25" fill="#9ae17b" fill-rule="evenodd" stroke="none"/>
      <path d="M17.1 28.0 Q15.25 28.75 14.3 31.25 L13.6 33.55 Q12.75 36.65 13.55 39.4 L13.15 39.45 Q12.6 39.55 12.2 39.8 12.75 34.4 14.4 28.05 L15.85 27.85 17.1 28.0 M24.6 31.0 Q26.75 32.1 28.95 33.45 L29.9 34.25 Q30.25 35.25 29.1 36.7 L26.45 39.45 Q22.75 42.25 20.05 42.55 19.4 41.55 18.25 40.8 L17.8 40.55 18.45 40.1 Q18.5 40.05 18.65 39.95 20.55 38.5 22.5 35.85 24.8 32.75 24.6 31.0 M20.25 45.45 L20.25 45.5 20.25 45.45" fill="#75d74a" fill-rule="evenodd" stroke="none"/>
      <path d="M29.9 34.25 L30.95 35.5 31.2 36.25 27.7 39.35 23.25 43.05 Q21.3 44.5 20.7 44.15 L20.7 44.05 20.15 42.65 20.05 42.55 Q22.75 42.25 26.45 39.45 L29.1 36.7 Q30.25 35.25 29.9 34.25 M13.6 44.55 Q12.6 43.8 12.0 42.85 L11.6 42.15 Q11.3 41.5 11.45 40.9 L11.45 40.85 11.5 40.8 Q12.0 39.85 13.65 39.75 L15.75 40.1 Q16.95 41.95 17.0 43.65 L17.0 43.9 16.15 43.8 15.35 42.35 12.4 42.35 13.6 44.55 M18.2 41.3 Q19.25 42.05 19.85 43.05 20.6 44.15 20.4 45.05 L20.35 45.25 19.45 44.05 18.75 44.0 18.65 43.6 Q18.25 42.35 18.2 41.3" fill="#339328" fill-rule="evenodd" stroke="none"/>
      <path d="M19.35 46.05 L19.05 46.1 18.3 46.15 16.5 45.95 14.75 45.25 13.6 44.55 12.4 42.35 15.35 42.35 16.15 43.8 17.0 43.9 17.0 43.65 Q16.95 41.95 15.75 40.1 L16.25 40.25 17.15 40.65 17.6 40.9 18.15 41.25 18.2 41.3 Q18.25 42.35 18.65 43.6 L18.75 44.0 19.45 44.05 20.35 45.25 20.25 45.45 20.25 45.5 19.95 45.7 19.95 45.75 19.55 45.95 19.35 46.05" fill="#206039" fill-rule="evenodd" stroke="none"/>
      <path d="M22.95 30.2 Q20.15 28.9 17.3 28.0 L17.1 28.0 15.85 27.85 14.4 28.05 Q14.05 28.25 13.95 28.6 L13.6 29.95 11.55 40.5 11.5 40.8 11.45 40.85 11.45 40.9 Q11.3 41.5 11.6 42.15 L12.0 42.85 Q12.6 43.8 13.6 44.55 L14.75 45.25 16.5 45.95 18.3 46.15 19.05 46.1 19.35 46.05 19.55 45.95 19.95 45.75 19.95 45.7 M22.95 30.2 L24.6 31.0 Q26.75 32.1 28.95 33.45 L29.9 34.25 30.95 35.5 31.2 36.25 30.95 37.05 24.0 43.05 23.7 43.3 Q22.1 44.65 20.5 45.45 L20.35 45.55 20.2 45.65 20.0 45.75 19.95 45.75 19.35 46.05 M11.55 40.55 L11.5 40.8" fill="none" stroke="#000000" stroke-linecap="round" stroke-linejoin="round" stroke-opacity="0.3019608" stroke-width="0.30000000000000004"/>
      <path d="M13.75 47.55 L13.75 47.5 16.25 43.2 16.35 43.1 16.35 43.05 Q16.45 42.9 16.6 42.85 L14.25 47.25 14.45 47.25 14.9 47.3 Q15.5 47.15 16.15 46.4 L17.4 44.6 Q18.0 43.2 17.5 42.8 L18.1 42.95 17.85 44.1 16.35 46.7 15.55 47.6 16.15 48.25 Q16.3 48.6 16.05 48.9 L16.05 48.95 16.0 48.3 15.35 47.7 14.4 47.4 13.75 47.55" fill="#d7f16b" fill-rule="evenodd" stroke="none"/>
      <path d="M19.4 44.1 Q19.65 44.5 19.35 44.85 L19.35 44.9 16.05 48.9 Q16.3 48.6 16.15 48.25 18.0 46.35 19.4 44.1 M16.6 42.85 L17.25 42.75 17.5 42.8 Q18.0 43.2 17.4 44.6 L16.15 46.4 Q15.5 47.15 14.9 47.3 L14.45 47.25 14.25 47.25 16.6 42.85" fill="#9ae17b" fill-rule="evenodd" stroke="none"/>
      <path d="M18.1 42.95 L18.3 43.0 18.35 43.05 18.5 43.15 Q19.2 43.5 19.4 44.0 L19.4 44.1 Q18.0 46.35 16.15 48.25 L15.55 47.6 16.35 46.7 17.85 44.1 18.1 42.95" fill="#75d74a" fill-rule="evenodd" stroke="none"/>
      <path d="M16.05 48.95 L15.85 49.1 15.65 49.15 15.55 49.2 15.35 49.2 14.3 48.9 13.65 48.25 13.65 48.0 13.65 47.6 13.7 47.55 13.75 47.55 14.4 47.4 15.35 47.7 16.0 48.3 16.05 48.95" fill="#339328" fill-rule="evenodd" stroke="none"/>
      <path d="M19.4 44.1 Q19.65 44.5 19.35 44.85 L19.35 44.9 16.05 48.9 16.05 48.95 15.85 49.1 15.65 49.15 15.55 49.2 15.35 49.2 14.3 48.9 13.65 48.25 13.65 48.0 13.65 47.6 13.7 47.55 13.75 47.55 13.75 47.5 16.25 43.2 16.35 43.1 16.35 43.05 Q16.45 42.9 16.6 42.85 L17.25 42.75 17.5 42.8 18.1 42.95 18.3 43.0 18.35 43.05 18.5 43.15 Q19.2 43.5 19.4 44.0 L19.4 44.1 M16.05 48.9 L16.05 48.95" fill="none" stroke="#000000" stroke-linecap="round" stroke-linejoin="round" stroke-opacity="0.3019608" stroke-width="0.30000000000000004"/>
      <path d="M12.95 47.35 L12.95 47.4 12.8 46.7 12.1 46.05 11.15 45.8 10.55 45.95 10.55 45.9 12.2 41.3 12.25 41.15 12.25 41.1 12.45 40.9 10.95 45.6 11.15 45.6 11.6 45.65 12.65 44.65 13.55 42.75 Q13.85 41.3 13.35 40.8 L13.9 41.0 13.85 42.2 12.85 45.0 12.25 45.95 12.9 46.6 12.95 47.3 12.95 47.35" fill="#d7f16b" fill-rule="evenodd" stroke="none"/>
      <path d="M15.35 42.15 Q15.6 42.6 15.4 42.95 L15.4 43.0 12.95 47.3 12.9 46.6 Q14.35 44.6 15.35 42.15 M12.45 40.9 L13.05 40.8 13.35 40.8 Q13.85 41.3 13.55 42.75 L12.65 44.65 11.6 45.65 11.15 45.6 10.95 45.6 12.45 40.9" fill="#9ae17b" fill-rule="evenodd" stroke="none"/>
      <path d="M13.9 41.0 L14.1 41.05 14.2 41.1 14.3 41.2 Q15.0 41.55 15.3 42.05 L15.35 42.15 Q14.35 44.6 12.9 46.6 L12.25 45.95 12.85 45.0 13.85 42.2 13.9 41.0" fill="#75d74a" fill-rule="evenodd" stroke="none"/>
      <path d="M12.95 47.4 L12.75 47.5 12.6 47.6 12.5 47.65 12.3 47.65 11.3 47.35 Q10.8 47.1 10.55 46.65 L10.5 46.4 10.45 46.0 10.5 45.9 10.55 45.95 11.15 45.8 12.1 46.05 12.8 46.7 12.95 47.4" fill="#339328" fill-rule="evenodd" stroke="none"/>
      <path d="M13.9 41.0 L14.1 41.05 14.2 41.1 14.3 41.2 Q15.0 41.55 15.3 42.05 L15.35 42.15 Q15.6 42.6 15.4 42.95 L15.4 43.0 12.95 47.3 12.95 47.35 12.95 47.4 12.75 47.5 12.6 47.6 12.5 47.65 12.3 47.65 11.3 47.35 Q10.8 47.1 10.55 46.65 L10.5 46.4 10.45 46.0 10.5 45.9 10.55 45.95 10.55 45.9 12.2 41.3 12.25 41.15 12.25 41.1 12.45 40.9 13.05 40.8 13.35 40.8 13.9 41.0 M12.95 47.3 L12.95 47.35" fill="none" stroke="#000000" stroke-linecap="round" stroke-linejoin="round" stroke-opacity="0.3019608" stroke-width="0.30000000000000004"/>
      <path d="M28.35 39.0 L27.5 39.55 26.7 39.45 Q26.4 39.25 26.45 38.8 26.45 38.35 26.85 37.95 L27.7 37.45 28.5 37.5 Q28.8 37.7 28.75 38.15 L28.35 39.0" fill="#000000" fill-opacity="0.3019608" fill-rule="evenodd" stroke="none"/>
      <path d="M32.7 42.55 L31.25 41.7 31.15 41.65 30.35 42.4 30.55 43.15 29.65 43.1 29.6 43.05 29.9 41.65 26.65 38.6 Q26.75 38.2 27.25 37.8 L27.5 37.65 30.3 41.3 32.0 41.2 32.15 41.25 32.75 42.15 32.7 42.55" fill="#cac960" fill-rule="evenodd" stroke="none"/>
      <path d="M28.1 37.6 L30.45 41.0 32.15 41.0 32.2 41.05 32.75 42.05 32.75 42.15 32.15 41.25 32.0 41.2 30.3 41.3 27.5 37.65 28.1 37.6" fill="#ffffff" fill-rule="evenodd" stroke="none"/>
      <path d="M30.55 43.15 L30.35 42.4 31.15 41.65 31.25 41.7 32.7 42.55 31.3 41.8 30.5 42.55 30.85 44.25 30.85 44.3 Q29.65 44.3 29.35 43.05 L29.65 41.75 26.75 39.05 26.65 38.6 29.9 41.65 29.6 43.05 29.65 43.1 30.05 43.8 30.65 44.0 30.55 43.15 M28.1 37.6 L28.7 37.9 30.65 40.8 32.3 40.75 Q32.85 41.35 32.75 42.05 L32.2 41.05 32.15 41.0 30.45 41.0 28.1 37.6" fill="#e6e4b3" fill-rule="evenodd" stroke="none"/>
      <path d="M30.55 43.15 L30.65 44.0 30.05 43.8 29.65 43.1 30.55 43.15" fill="#b9b93e" fill-rule="evenodd" stroke="none"/>
      <path d="M30.85 44.25 L30.5 42.55 31.3 41.8 32.7 42.55 31.35 42.3 30.85 42.8 30.85 44.25" fill="#246c41" fill-rule="evenodd" stroke="none"/>
      <path d="M26.65 38.6 L26.75 39.05 29.65 41.75 29.35 43.05 Q29.65 44.3 30.85 44.3 L30.85 44.25 30.85 42.8 31.35 42.3 32.7 42.55 32.75 42.15 32.75 42.05 Q32.85 41.35 32.3 40.75 L30.65 40.8 28.7 37.9 28.1 37.6 27.5 37.65 27.25 37.8 Q26.75 38.2 26.65 38.6 Z" fill="none" stroke="#000000" stroke-linecap="round" stroke-linejoin="round" stroke-opacity="0.3019608" stroke-width="0.30000000000000004"/>
      <path d="M23.6 42.65 L22.8 42.4 Q22.55 42.1 22.7 41.7 22.85 41.25 23.35 40.95 L24.3 40.65 Q24.8 40.65 25.05 40.95 25.3 41.25 25.15 41.65 L24.55 42.35 23.6 42.65" fill="#000000" fill-opacity="0.3019608" fill-rule="evenodd" stroke="none"/>
      <path d="M23.05 41.55 Q23.25 41.15 23.8 40.9 L24.15 40.85 25.85 45.1 27.55 45.45 27.7 45.5 28.0 46.55 27.85 46.9 26.7 45.7 26.6 45.65 25.65 46.15 25.6 46.9 Q25.1 47.5 24.75 46.65 L24.75 46.6 25.4 45.35 23.05 41.55" fill="#cac960" fill-rule="evenodd" stroke="none"/>
      <path d="M28.0 46.55 L27.7 45.5 27.55 45.45 25.85 45.1 24.15 40.85 24.75 40.9 26.1 44.85 27.7 45.25 27.8 45.35 28.1 46.45 28.0 46.55" fill="#ffffff" fill-rule="evenodd" stroke="none"/>
      <path d="M23.05 41.55 L25.4 45.35 24.75 46.6 24.75 46.65 Q24.65 46.85 25.0 47.45 L25.5 47.8 25.6 46.9 25.65 46.15 26.6 45.65 26.7 45.7 27.85 46.9 26.7 45.8 25.75 46.35 25.65 48.1 Q24.5 47.8 24.5 46.5 L25.1 45.3 23.05 42.0 23.05 41.55 M24.75 40.9 L25.2 41.4 26.35 44.65 27.95 45.05 27.95 45.1 Q28.3 45.8 28.1 46.45 L27.8 45.35 27.7 45.25 26.1 44.85 24.75 40.9" fill="#e6e4b3" fill-rule="evenodd" stroke="none"/>
      <path d="M24.75 46.65 Q25.1 47.5 25.6 46.9 L25.5 47.8 25.0 47.45 Q24.65 46.85 24.75 46.65" fill="#b9b93e" fill-rule="evenodd" stroke="none"/>
      <path d="M25.65 48.1 L25.75 46.35 26.7 45.8 27.85 46.9 26.6 46.35 26.0 46.65 25.65 48.1" fill="#246c41" fill-rule="evenodd" stroke="none"/>
      <path d="M24.15 40.85 L23.8 40.9 Q23.25 41.15 23.05 41.55 L23.05 42.0 25.1 45.3 24.5 46.5 Q24.5 47.8 25.65 48.1 L26.0 46.65 26.6 46.35 27.85 46.9 28.0 46.55 28.1 46.45 Q28.3 45.8 27.95 45.1 L27.95 45.05 26.35 44.65 25.2 41.4 24.75 40.9 24.15 40.85 Z" fill="none" stroke="#000000" stroke-linecap="round" stroke-linejoin="round" stroke-opacity="0.3019608" stroke-width="0.30000000000000004"/>
    </g>
    <g id="sprite1" transform="matrix(1.0, 0.0, 0.0, 1.0, 0.0, 0.0)">
      <use height="26.7" transform="matrix(0.0042, -1.3515, 1.3935, 0.02, 22.09, 56.0263)" width="26.7" xlink:href="#sprite2"/>
      <use height="26.7" transform="matrix(0.0095, -3.0486, 0.372, 0.0053, 36.507, 81.3775)" width="26.7" xlink:href="#sprite2"/>
      <use height="26.7" transform="matrix(3.0486, 0.0095, -0.0053, 0.372, 0.1225, 35.107)" width="26.7" xlink:href="#sprite2"/>
    </g>
    <g id="sprite2" transform="matrix(1.0, 0.0, 0.0, 1.0, 13.35, 13.35)">
      <use height="26.7" transform="matrix(1.0, 0.0, 0.0, 1.0, -13.35, -13.35)" width="26.7" xlink:href="#shape1"/>
    </g>
    <g id="shape1" transform="matrix(1.0, 0.0, 0.0, 1.0, 13.35, 13.35)">
      <path d="M9.3 -9.85 Q13.35 -5.8 13.35 0.0 13.35 5.8 9.3 9.3 5.8 13.35 0.0 13.35 -5.8 13.35 -9.85 9.3 -13.35 5.8 -13.35 0.0 -13.35 -5.8 -9.85 -9.85 -5.8 -13.35 0.0 -13.35 5.8 -13.35 9.3 -9.85" fill="url(#gradient0)" fill-rule="evenodd" stroke="none"/>
    </g>
    <radialGradient cx="0" cy="0" gradientTransform="matrix(0.0213, 0.0, 0.0, 0.0213, 0.0, 0.0)" gradientUnits="userSpaceOnUse" id="gradient0" r="819.2" spreadMethod="pad">
      <stop offset="0.19607843137254902" stop-color="#fee3bc" stop-opacity="0.28627452"/>
      <stop offset="0.5019607843137255" stop-color="#fee3bc" stop-opacity="0.043137256"/>
      <stop offset="0.7607843137254902" stop-color="#ffe3bd" stop-opacity="0.0"/>
    </radialGradient>
  </defs>
</svg>
