<?xml version="1.0" encoding="UTF-8" standalone="no"?>
<svg xmlns:xlink="http://www.w3.org/1999/xlink" height="52.0px" width="52.0px" xmlns="http://www.w3.org/2000/svg">
  <g transform="matrix(1.0, 0.0, 0.0, 1.0, 0.0, 0.0)">
    <use height="56.0" transform="matrix(1.0, 0.0, 0.0, 1.0, -2.0, -2.0)" width="56.0" xlink:href="#shape0"/>
    <use height="0.0" transform="matrix(0.1484, -0.0856, 0.0789, 0.1366, 31.25, 19.95)" width="0.0" xlink:href="#sprite0"/>
    <use height="0.0" transform="matrix(0.0745, -0.043, 0.0393, 0.068, 13.9, 39.55)" width="0.0" xlink:href="#sprite0"/>
    <use height="0.0" transform="matrix(0.0745, -0.043, 0.0393, 0.068, 14.65, 16.4)" width="0.0" xlink:href="#sprite0"/>
    <use height="0.0" transform="matrix(0.086, 0.0, 0.0, 0.047, 20.1, 8.2)" width="0.0" xlink:href="#sprite0"/>
    <use height="81.5" transform="matrix(0.1567, 0.0, 0.0, 0.1566, 29.45, 14.8)" width="81.5" xlink:href="#sprite1"/>
    <use height="81.5" transform="matrix(0.0948, 0.0, 0.0, 0.0947, 14.35, 37.3)" width="81.5" xlink:href="#sprite1"/>
  </g>
  <defs>
    <g id="shape0" transform="matrix(1.0, 0.0, 0.0, 1.0, 2.0, 2.0)">
      <path d="M52.0 0.0 L52.0 52.0 0.0 52.0 0.0 0.0 52.0 0.0" fill="#795fa9" fill-opacity="0.0" fill-rule="evenodd" stroke="none"/>
      <path d="M31.0 8.3 Q38.3 7.05 43.95 8.5 L46.3 9.2 47.1 9.5 Q47.7 16.2 43.95 23.1 42.4 25.6 40.7 27.4 L39.45 28.65 Q36.6 31.25 33.35 32.2 31.7 33.4 29.95 34.25 L27.3 35.25 24.85 35.8 24.75 36.1 Q25.1 36.8 24.3 37.4 L24.25 37.45 22.45 38.45 21.55 38.7 Q21.75 40.7 21.55 42.85 L21.6 43.3 21.55 43.55 Q21.25 44.75 18.75 44.95 L17.9 45.05 17.65 45.3 17.55 45.35 Q16.05 47.0 14.95 46.45 L14.75 46.3 14.7 46.3 14.0 45.3 13.7 44.5 13.1 44.35 12.45 44.15 12.3 44.3 12.25 44.35 Q10.9 46.0 9.75 45.45 L9.5 45.3 Q9.0 44.95 8.65 44.3 L8.15 43.0 7.95 42.05 Q6.2 40.85 6.2 39.8 L6.25 39.45 6.45 39.0 Q7.45 37.1 8.65 35.55 L7.9 34.7 7.85 34.7 Q7.25 33.9 7.75 33.3 7.65 32.55 7.95 32.25 8.2 31.95 8.75 32.0 L9.7 32.15 10.3 32.35 11.25 32.7 11.3 32.65 11.3 32.5 Q7.25 29.35 5.8 23.8 L5.85 23.8 5.75 23.65 5.75 23.6 5.75 23.55 5.45 22.3 Q5.1 20.4 5.5 18.25 L5.65 17.7 4.8 15.35 4.65 14.75 Q3.75 11.4 4.1 8.1 L4.15 7.65 4.55 5.55 6.8 5.2 Q11.3 4.9 15.6 6.9 18.85 5.55 22.5 5.55 26.35 5.55 29.15 7.05 30.15 7.6 31.0 8.3 Z" fill="none" stroke="#000000" stroke-linecap="round" stroke-linejoin="round" stroke-opacity="0.3019608" stroke-width="1.0"/>
      <path d="M11.65 34.75 L12.05 34.55 11.95 34.85 11.1 36.35 10.45 36.75 9.6 36.35 9.6 35.9 10.35 36.3 11.0 35.9 11.65 34.75" fill="#f4a33c" fill-rule="evenodd" stroke="none"/>
      <path d="M9.6 35.9 L9.4 34.6 Q9.3 33.35 9.6 32.45 L10.45 32.55 12.0 33.25 Q12.25 33.55 11.8 34.2 11.55 34.6 10.8 34.8 L10.25 34.9 10.8 34.95 11.65 34.75 11.0 35.9 10.35 36.3 9.6 35.9" fill="#ffde4f" fill-rule="evenodd" stroke="none"/>
      <path d="M9.4 34.6 L9.25 34.4 8.4 33.0 8.3 32.35 8.6 32.3 9.7 32.35 9.6 32.45 Q9.3 33.35 9.4 34.6" fill="#e6e4b3" fill-rule="evenodd" stroke="none"/>
      <path d="M8.05 32.5 Q7.8 32.8 8.25 33.45 L8.35 33.6 8.25 33.55 Q7.75 33.4 7.7 33.9 L7.95 34.35 9.6 35.9 9.6 36.35 7.9 34.7 7.85 34.7 Q7.25 33.9 7.75 33.3 7.65 32.55 7.95 32.25 L8.05 32.5" fill="#cac960" fill-rule="evenodd" stroke="none"/>
      <path d="M9.7 32.35 L9.7 32.15 10.3 32.35 12.0 33.05 Q12.55 33.25 12.05 34.55 L11.65 34.75 10.8 34.95 10.25 34.9 10.8 34.8 Q11.55 34.6 11.8 34.2 12.25 33.55 12.0 33.25 L10.45 32.55 9.6 32.45 9.7 32.35" fill="#ffff98" fill-rule="evenodd" stroke="none"/>
      <path d="M8.05 32.5 L8.35 33.15 9.25 34.4 9.4 34.6 9.6 35.9 7.95 34.35 7.7 33.9 Q7.75 33.4 8.25 33.55 L8.35 33.6 8.25 33.45 Q7.8 32.8 8.05 32.5" fill="#a6a637" fill-rule="evenodd" stroke="none"/>
      <path d="M9.25 34.4 L8.35 33.15 8.05 32.5 7.95 32.25 Q8.2 31.95 8.75 32.0 L9.7 32.15 9.7 32.35 8.6 32.3 8.3 32.35 8.4 33.0 9.25 34.4" fill="#f9f8ec" fill-rule="evenodd" stroke="none"/>
      <path d="M9.6 35.9 L9.4 34.6 Q9.3 33.35 9.6 32.45 L9.7 32.35 9.7 32.15 8.75 32.0 Q8.2 31.95 7.95 32.25 7.65 32.55 7.75 33.3 7.25 33.9 7.85 34.7 L7.9 34.7 9.6 36.35 9.6 35.9 M12.05 34.55 Q12.55 33.25 12.0 33.05 L10.3 32.35 9.7 32.15 M12.05 34.55 L11.95 34.85 11.1 36.35 10.45 36.75 9.6 36.35" fill="none" stroke="#000000" stroke-linecap="round" stroke-linejoin="round" stroke-opacity="0.3019608" stroke-width="0.30000000000000004"/>
      <path d="M46.3 9.2 L47.1 9.5 Q44.1 13.5 40.95 16.4 L40.05 15.85 Q38.7 15.15 36.65 15.25 L35.3 15.35 34.2 12.65 33.95 12.15 33.6 11.4 Q34.7 12.35 36.25 12.7 L37.15 12.85 37.9 15.1 Q40.1 13.75 41.25 12.4 L42.0 12.15 42.45 12.0 Q44.55 11.1 46.3 9.2 M29.95 34.25 L27.3 35.25 Q22.1 36.85 16.35 35.25 8.05 32.3 5.8 23.8 L5.85 23.8 Q6.5 25.65 8.0 27.25 L8.25 27.5 Q8.75 29.35 11.65 31.95 15.5 35.35 22.4 35.4 L25.95 34.85 Q25.25 34.7 24.45 34.1 22.4 32.05 24.2 29.7 26.45 28.75 28.5 27.25 32.2 24.45 33.7 20.85 L34.45 23.2 Q34.05 28.55 33.05 31.65 32.2 32.9 29.95 34.25 M5.65 17.7 L4.8 15.35 Q6.85 14.7 7.7 12.1 L7.55 11.7 7.55 11.65 7.6 11.7 Q9.6 9.7 12.05 8.3 L12.8 8.4 11.5 9.25 Q9.25 10.95 7.8 12.95 6.25 15.15 5.65 17.7 M9.6 7.8 L7.1 7.65 Q6.85 8.7 6.9 9.95 6.1 8.5 4.7 7.9 L5.0 6.0 7.05 5.85 Q7.6 6.95 9.1 7.6 L9.6 7.8 M45.45 12.05 L46.65 11.1 Q46.8 14.5 45.2 19.3 41.35 27.4 39.25 27.35 L39.2 26.6 Q40.0 19.0 41.85 16.25 L45.45 12.05 M25.9 14.95 Q28.9 11.8 30.6 8.15 32.45 9.8 33.5 11.9 L33.6 12.15 34.0 13.95 Q27.75 16.65 22.45 20.95 17.75 24.8 13.8 29.85 10.1 29.1 7.65 26.45 L7.2 25.95 Q13.1 23.85 17.65 21.25 22.6 18.4 25.9 14.95" fill="#f4a33c" fill-rule="evenodd" stroke="none"/>
      <path d="M47.1 9.5 Q47.7 16.2 43.95 23.1 42.4 25.6 40.7 27.4 39.65 28.15 39.3 27.75 L39.25 27.35 Q41.35 27.4 45.2 19.3 46.8 14.5 46.65 11.1 L45.45 12.05 47.1 9.5 M33.35 32.2 Q31.7 33.4 29.95 34.25 32.2 32.9 33.05 31.65 34.05 28.55 34.45 23.2 34.75 25.0 34.5 27.05 34.3 29.4 33.35 32.2 M4.8 15.35 L4.65 14.75 Q3.9 10.0 4.7 8.75 5.4 8.4 6.9 10.25 L7.05 11.95 7.1 12.25 7.15 12.15 7.4 11.8 7.55 11.65 7.55 11.7 7.7 12.1 Q6.85 14.7 4.8 15.35 M11.15 8.5 L11.35 8.4 10.65 8.05 9.6 7.8 9.1 7.6 Q7.65 6.3 7.95 5.8 11.15 5.75 15.35 7.05 14.0 7.6 12.8 8.4 L12.05 8.3 Q9.6 9.7 7.6 11.7 L7.55 11.65 7.9 11.25 10.4 8.95 11.15 8.5 M35.8 10.7 L36.0 10.95 36.2 11.25 37.15 12.85 36.25 12.7 Q34.7 12.35 33.6 11.4 L32.05 9.25 31.35 8.6 Q38.4 7.55 45.15 9.45 44.85 10.45 42.45 12.0 L42.0 12.15 41.25 12.4 41.65 11.85 42.0 11.3 42.2 10.9 Q39.2 9.55 35.9 10.2 L35.5 10.3 35.8 10.7 M35.3 15.35 L36.65 15.25 Q38.7 15.15 40.05 15.85 L40.95 16.4 Q38.45 18.8 35.85 20.45 35.95 17.7 35.3 15.35 M25.9 14.95 Q22.6 18.4 17.65 21.25 9.65 24.85 7.55 23.5 4.6 20.15 7.8 14.35 11.65 8.8 18.3 6.75 24.5 5.4 28.6 7.7 30.2 9.4 25.9 14.95 M22.45 20.95 Q27.75 16.65 34.0 13.95 34.2 15.6 33.85 17.45 32.85 22.75 27.9 26.45 23.0 30.2 17.05 30.2 16.15 30.2 15.9 29.4 16.35 26.65 22.45 20.95" fill="#ffde4f" fill-rule="evenodd" stroke="none"/>
      <path d="M4.65 14.75 Q3.75 11.4 4.1 8.1 L4.15 7.65 4.55 5.55 6.8 5.2 Q11.3 4.9 15.6 6.9 18.85 5.55 22.5 5.55 26.35 5.55 29.15 7.05 30.15 7.6 31.0 8.3 38.3 7.05 43.95 8.5 L46.3 9.2 Q44.55 11.1 42.45 12.0 44.85 10.45 45.15 9.45 38.4 7.55 31.35 8.6 L32.05 9.25 33.6 11.4 33.95 12.15 34.2 12.65 Q35.1 15.2 34.5 18.25 L33.7 20.85 Q32.2 24.45 28.5 27.25 26.45 28.75 24.2 29.7 22.4 32.05 24.45 34.1 23.4 33.3 23.1 32.15 22.85 31.25 23.05 30.1 L17.5 30.95 Q11.7 30.95 8.25 27.5 L8.0 27.25 Q6.5 25.65 5.85 23.8 L5.75 23.65 5.75 23.6 5.75 23.55 5.45 22.3 Q5.1 20.4 5.5 18.25 L5.65 17.7 Q6.25 15.15 7.8 12.95 9.25 10.95 11.5 9.25 L12.8 8.4 Q14.0 7.6 15.35 7.05 11.15 5.75 7.95 5.8 7.65 6.3 9.1 7.6 7.6 6.95 7.05 5.85 L5.0 6.0 4.7 7.9 Q6.1 8.5 6.9 9.95 6.85 8.7 7.1 7.65 L9.6 7.8 10.65 8.05 11.35 8.4 11.15 8.5 Q9.6 7.9 7.55 8.05 L7.5 8.1 7.55 8.1 Q7.25 9.4 7.35 11.05 L7.4 11.8 7.15 12.15 7.1 12.25 7.05 11.95 6.9 10.25 Q5.4 8.4 4.7 8.75 3.9 10.0 4.65 14.75 M15.6 6.9 L15.35 7.05 15.6 6.9 M42.0 11.3 Q39.15 10.05 35.95 10.7 L35.8 10.7 35.5 10.3 35.9 10.2 Q39.2 9.55 42.2 10.9 L42.0 11.3 M40.95 16.4 Q44.1 13.5 47.1 9.5 L45.45 12.05 41.85 16.25 Q40.0 19.0 39.2 26.6 L39.15 25.05 Q39.15 21.5 40.25 17.7 L37.75 19.7 35.8 21.2 35.85 20.45 Q38.45 18.8 40.95 16.4 M34.0 13.95 L33.6 12.15 33.5 11.9 Q32.45 9.8 30.6 8.15 28.9 11.8 25.9 14.95 30.2 9.4 28.6 7.7 24.5 5.4 18.3 6.75 11.65 8.8 7.8 14.35 4.6 20.15 7.55 23.5 9.65 24.85 17.65 21.25 13.1 23.85 7.2 25.95 L7.65 26.45 Q10.1 29.1 13.8 29.85 17.75 24.8 22.45 20.95 16.35 26.65 15.9 29.4 16.15 30.2 17.05 30.2 23.0 30.2 27.9 26.45 32.85 22.75 33.85 17.45 34.2 15.6 34.0 13.95 M31.35 8.6 L31.0 8.3 31.35 8.6" fill="#ffff98" fill-rule="evenodd" stroke="none"/>
      <path d="M40.7 27.4 L39.45 28.65 Q36.6 31.25 33.35 32.2 34.3 29.4 34.5 27.05 34.75 25.0 34.45 23.2 L33.7 20.85 34.5 18.25 Q35.1 15.2 34.2 12.65 L35.3 15.35 Q35.95 17.7 35.85 20.45 L35.8 21.2 37.75 19.7 40.25 17.7 Q39.15 21.5 39.15 25.05 L39.2 26.6 39.25 27.35 39.3 27.75 Q39.65 28.15 40.7 27.4 M7.4 11.8 L7.35 11.05 Q7.25 9.4 7.55 8.1 L7.5 8.1 7.55 8.05 Q9.6 7.9 11.15 8.5 L10.4 8.95 7.9 8.5 Q7.55 10.0 7.9 11.25 L7.55 11.65 7.4 11.8 M36.2 11.25 L36.0 10.95 35.8 10.7 35.95 10.7 Q39.15 10.05 42.0 11.3 L41.65 11.85 Q39.25 10.5 36.2 11.25 M5.85 23.8 L5.8 23.8 5.85 23.8 M24.45 34.1 Q25.25 34.7 25.95 34.85 L22.4 35.4 Q15.5 35.35 11.65 31.95 8.75 29.35 8.25 27.5 11.7 30.95 17.5 30.95 L23.05 30.1 Q22.85 31.25 23.1 32.15 23.4 33.3 24.45 34.1" fill="#cc6b22" fill-rule="evenodd" stroke="none"/>
      <path d="M36.2 11.25 Q39.25 10.5 41.65 11.85 L41.25 12.4 Q40.1 13.75 37.9 15.1 L37.15 12.85 36.2 11.25 M7.9 11.25 Q7.55 10.0 7.9 8.5 L10.4 8.95 7.9 11.25" fill="#963807" fill-rule="evenodd" stroke="none"/>
      <path d="M4.65 14.75 Q3.75 11.4 4.1 8.1 L4.15 7.65 4.55 5.55 6.8 5.2 Q11.3 4.9 15.6 6.9 18.85 5.55 22.5 5.55 26.35 5.55 29.15 7.05 30.15 7.6 31.0 8.3 38.3 7.05 43.95 8.5 L46.3 9.2 47.1 9.5 Q47.7 16.2 43.95 23.1 42.4 25.6 40.7 27.4 L39.45 28.65 Q36.6 31.25 33.35 32.2 31.7 33.4 29.95 34.25 L27.3 35.25 Q22.1 36.85 16.35 35.25 8.05 32.3 5.8 23.8 L5.75 23.7 5.75 23.6 5.75 23.55 5.45 22.3 Q5.1 20.4 5.5 18.25 L5.65 17.7 4.8 15.35 4.65 14.75 M7.1 12.25 L7.15 12.15 7.4 11.8 7.55 11.65 7.9 11.25 10.4 8.95 11.15 8.5 11.35 8.4 M7.55 8.1 L7.5 8.1 M15.35 7.05 L15.6 6.9 M35.8 10.7 L36.0 10.95 36.2 11.25 37.15 12.85 37.9 15.1 Q40.1 13.75 41.25 12.4 L41.65 11.85 42.0 11.3 42.2 10.9 M35.8 10.7 L35.5 10.3 M33.6 11.4 L33.95 12.15 34.2 12.65 35.3 15.35 Q35.95 17.7 35.85 20.45 L35.8 21.2 M31.35 8.6 L32.05 9.25 33.6 11.4 M31.0 8.3 L31.35 8.6 M12.8 8.4 Q14.0 7.6 15.35 7.05 M12.8 8.4 L11.5 9.25 Q9.25 10.95 7.8 12.95 6.25 15.15 5.65 17.7 M5.85 23.8 L5.75 23.7 M5.85 23.8 L5.75 23.65 5.75 23.6" fill="none" stroke="#000000" stroke-linecap="round" stroke-linejoin="round" stroke-opacity="0.3019608" stroke-width="0.30000000000000004"/>
      <path d="M23.5 14.05 Q24.25 13.5 25.15 13.15 L25.4 13.05 Q27.45 12.2 30.1 12.3 L30.4 13.15 Q26.8 12.95 23.5 14.05 M14.6 13.05 Q15.25 13.65 15.55 14.4 13.45 12.7 10.0 11.95 L9.7 11.85 10.7 11.25 Q13.35 11.85 14.6 13.05" fill="#a34100" fill-rule="evenodd" stroke="none"/>
      <path d="M30.1 12.3 L30.9 13.6 23.5 14.05 Q26.8 12.95 30.4 13.15 L30.1 12.3 M14.6 13.05 Q16.2 14.1 16.25 15.25 13.4 13.05 10.0 11.95 13.45 12.7 15.55 14.4 15.25 13.65 14.6 13.05" fill="#ffff98" fill-rule="evenodd" stroke="none"/>
      <path d="M23.5 14.05 Q24.25 13.5 25.15 13.15 L25.4 13.05 Q27.45 12.2 30.1 12.3 L30.4 13.15 Q26.8 12.95 23.5 14.05 M14.6 13.05 Q15.25 13.65 15.55 14.4 13.45 12.7 10.0 11.95 L9.7 11.85 10.7 11.25 Q13.35 11.85 14.6 13.05" fill="none" stroke="#000000" stroke-linecap="round" stroke-linejoin="round" stroke-opacity="0.3019608" stroke-width="0.30000000000000004"/>
      <path d="M18.35 24.85 L18.65 24.75 20.5 23.85 Q21.85 22.95 22.7 21.7 L23.1 21.0 Q22.1 23.9 17.95 25.55 L18.35 24.85" fill="#ffff98" fill-rule="evenodd" stroke="none"/>
      <path d="M18.35 24.85 L17.95 25.0 15.45 25.35 13.5 25.15 Q12.2 24.8 11.4 24.05 L10.95 23.55 10.15 22.35 9.85 21.6 9.5 20.55 Q9.3 19.45 9.45 18.4 L9.5 18.0 9.5 17.95 20.45 17.95 20.45 16.2 21.75 16.2 21.3 14.9 Q22.7 15.25 23.2 16.6 L23.35 16.95 23.65 18.8 23.65 19.45 23.2 20.8 23.1 21.0 22.7 21.7 Q21.85 22.95 20.5 23.85 L18.65 24.75 18.35 24.85" fill="#cc6b22" fill-rule="evenodd" stroke="none"/>
      <path d="M11.4 13.6 Q9.4 15.35 9.5 17.15 9.5 17.8 9.8 18.5 L11.4 20.0 12.6 20.7 Q15.45 22.1 17.95 19.45 19.35 17.9 19.4 16.05 L18.95 14.35 18.3 13.1 Q17.65 12.2 16.65 11.9 L15.4 11.75 15.4 11.7 15.15 11.3 15.45 11.25 Q17.0 11.4 17.9 12.15 L18.55 12.8 18.65 12.95 18.8 13.15 19.35 14.1 Q21.0 17.3 18.7 19.75 17.25 21.3 15.6 21.6 L12.8 21.3 11.0 20.3 10.8 20.15 Q9.95 19.5 9.45 18.6 L8.95 17.4 8.85 17.1 8.9 16.75 9.4 15.4 Q10.05 14.0 11.2 13.05 L11.25 13.25 11.4 13.6" fill="#f0edd2" fill-rule="evenodd" stroke="none"/>
      <path d="M15.4 11.75 L16.65 11.9 Q17.65 12.2 18.3 13.1 L18.95 14.35 19.4 16.05 Q19.35 17.9 17.95 19.45 15.45 22.1 12.6 20.7 L11.4 20.0 9.8 18.5 Q9.5 17.8 9.5 17.15 9.4 15.35 11.4 13.6 L11.6 13.85 11.75 14.0 11.75 14.05 12.35 14.85 13.0 15.2 13.95 15.35 15.5 14.85 Q16.15 14.4 16.15 13.75 16.15 13.1 15.5 12.6 L15.55 12.4 15.5 12.1 15.5 12.0 15.4 11.75 M8.85 17.1 L8.95 17.4 9.45 18.6 Q9.2 19.8 9.85 21.15 L10.8 22.65 Q12.1 23.7 13.65 24.2 L14.75 24.45 12.85 24.2 Q11.55 23.85 10.75 23.15 L10.3 22.65 9.5 21.45 9.15 20.7 8.85 19.65 Q8.65 18.55 8.75 17.5 L8.85 17.1 M17.9 12.15 Q17.0 11.4 15.45 11.25 L17.55 11.4 17.85 11.5 18.85 11.85 19.9 12.4 20.1 12.5 20.75 13.05 Q21.95 14.05 22.55 15.65 L22.65 16.05 Q21.5 14.25 20.35 13.3 19.1 12.25 17.9 12.15" fill="#e6e4b3" fill-rule="evenodd" stroke="none"/>
      <path d="M9.45 18.6 Q9.95 19.5 10.8 20.15 L11.0 20.3 11.0 20.35 13.7 23.4 Q14.15 24.15 13.65 24.2 12.1 23.7 10.8 22.65 L9.85 21.15 Q9.2 19.8 9.45 18.6 M15.6 21.6 Q17.25 21.3 18.7 19.75 21.0 17.3 19.35 14.1 L18.8 13.15 18.65 12.95 18.55 12.8 17.9 12.15 Q19.1 12.25 20.35 13.3 21.5 14.25 22.65 16.05 L23.0 17.9 22.95 18.5 Q22.85 19.6 22.05 20.75 21.2 22.05 19.85 22.9 L16.0 23.0 15.8 22.75 Q15.55 22.25 15.6 21.6 M15.5 12.6 Q16.15 13.1 16.15 13.75 16.15 14.4 15.5 14.85 L13.95 15.35 13.0 15.2 12.35 14.85 11.75 14.05 12.0 14.2 12.4 14.35 13.0 14.45 14.0 14.25 14.5 14.0 15.25 13.3 15.5 12.6" fill="#cac960" fill-rule="evenodd" stroke="none"/>
      <path d="M15.5 12.0 L15.5 12.1 15.45 12.05 15.5 12.0 M11.6 13.25 Q11.45 12.6 11.7 12.1 L11.75 12.2 11.95 12.55 12.05 12.65 12.15 12.75 12.2 12.75 12.4 12.85 12.95 12.9 13.35 12.75 14.05 12.25 14.15 12.15 14.25 11.8 14.25 11.7 14.2 11.5 14.15 11.3 14.05 11.05 13.95 10.95 Q14.45 10.9 15.05 11.5 15.3 12.3 14.85 13.2 14.55 13.85 13.35 14.15 L13.0 14.15 Q11.85 14.05 11.6 13.25" fill="#f4a33c" fill-rule="evenodd" stroke="none"/>
      <path d="M15.5 12.1 L15.55 12.4 15.5 12.6 15.25 13.3 14.5 14.0 14.0 14.25 13.0 14.45 12.4 14.35 12.0 14.2 11.6 13.25 Q11.85 14.05 13.0 14.15 L13.35 14.15 Q14.55 13.85 14.85 13.2 15.3 12.3 15.05 11.5 L15.45 12.05 15.5 12.1 M13.9 11.55 L13.95 11.7 13.95 11.85 13.95 11.95 13.85 12.2 13.8 12.25 13.25 12.7 12.95 12.75 12.55 12.75 12.35 12.7 12.25 12.6 12.15 12.55 12.0 12.25 12.0 12.2 11.95 12.1 12.05 11.5 12.6 11.0 12.9 10.95 13.4 11.0 13.7 11.25 13.8 11.35 13.9 11.55 M11.7 12.1 L11.7 12.0 11.7 12.1" fill="#ffde4f" fill-rule="evenodd" stroke="none"/>
      <path d="M11.0 20.3 L12.8 21.3 15.6 21.6 Q15.55 22.25 15.8 22.75 L16.0 23.0 19.85 22.9 Q19.0 23.45 17.95 23.85 L17.3 24.1 14.75 24.45 13.65 24.2 Q14.15 24.15 13.7 23.4 L11.0 20.35 11.0 20.3" fill="#a6a637" fill-rule="evenodd" stroke="none"/>
      <path d="M11.4 13.6 L11.25 13.25 11.2 13.05 Q11.0 12.35 11.35 11.65 11.7 10.85 12.6 10.5 L12.9 10.4 14.25 10.55 15.15 11.3 15.4 11.7 15.4 11.75 15.5 12.0 15.45 12.05 15.05 11.5 Q14.45 10.9 13.95 10.95 L14.05 11.05 14.15 11.3 14.2 11.5 14.25 11.7 14.25 11.8 14.15 12.15 14.05 12.25 13.35 12.75 12.95 12.9 12.4 12.85 12.2 12.75 12.15 12.75 12.05 12.65 11.95 12.55 11.75 12.2 11.7 12.1 Q11.45 12.6 11.6 13.25 L12.0 14.2 11.75 14.05 11.75 14.0 11.6 13.85 11.4 13.6 M13.9 11.55 L13.8 11.35 13.7 11.25 13.4 11.0 12.9 10.95 12.6 11.0 12.05 11.5 11.95 12.1 12.0 12.2 12.0 12.25 12.15 12.55 12.25 12.6 12.35 12.7 12.55 12.75 12.95 12.75 13.25 12.7 13.8 12.25 13.85 12.2 13.95 11.95 13.95 11.85 13.95 11.7 13.9 11.55 M11.7 12.1 L11.7 12.0 11.7 12.1" fill="#ffff98" fill-rule="evenodd" stroke="none"/>
      <path d="M11.4 13.6 L11.25 13.25 11.2 13.05 Q10.05 14.0 9.4 15.4 L8.9 16.75 8.85 17.1 8.75 17.5 Q8.65 18.55 8.85 19.65 L9.15 20.7 9.5 21.45 10.3 22.65 10.75 23.15 Q11.55 23.85 12.85 24.2 L14.75 24.45 17.3 24.1 17.95 23.85 Q19.0 23.45 19.85 22.9 21.2 22.05 22.05 20.75 22.85 19.6 22.95 18.5 L23.0 17.9 22.65 16.05 22.55 15.65 Q21.95 14.05 20.75 13.05 L20.1 12.5 19.9 12.4 18.85 11.85 17.85 11.5 17.55 11.4 15.45 11.25 15.15 11.3 15.4 11.7 15.4 11.75 15.5 12.0 15.5 12.1 15.55 12.4 15.5 12.6 15.25 13.3 14.5 14.0 14.0 14.25 13.0 14.45 12.4 14.35 12.0 14.2 11.75 14.05 11.75 14.0 11.6 13.85 11.4 13.6 M11.2 13.05 Q11.0 12.35 11.35 11.65 11.7 10.85 12.6 10.5 L12.9 10.4 14.25 10.55 15.15 11.3" fill="none" stroke="#000000" stroke-linecap="round" stroke-linejoin="round" stroke-opacity="0.3019608" stroke-width="0.30000000000000004"/>
      <path d="M11.45 37.65 L11.85 38.05 13.6 38.4 14.65 38.65 15.1 38.75 Q18.8 39.3 20.1 35.4 19.3 39.35 16.4 39.15 18.4 39.9 19.85 40.9 L21.2 42.15 21.55 42.85 21.6 43.3 Q21.3 42.4 19.85 41.35 18.4 40.35 16.4 39.6 L14.65 39.1 11.85 38.5 11.25 37.8 10.4 37.8 10.4 38.35 10.2 38.35 8.5 38.45 Q7.75 38.5 7.15 38.85 6.6 39.2 6.2 39.8 L6.25 39.45 6.45 39.0 Q8.5 35.05 11.3 32.65 L11.35 32.25 11.65 31.95 11.65 34.1 11.8 34.85 12.05 35.6 12.8 35.05 12.95 34.95 13.0 34.9 13.35 34.6 Q15.25 33.1 17.85 31.95 L18.15 31.8 18.35 31.85 Q15.25 33.45 13.15 35.1 L12.25 35.8 10.8 36.95 10.3 37.55 11.2 37.55 11.45 37.65 M11.3 32.65 L11.3 32.9 11.3 32.65 M11.55 36.0 L11.35 33.9 11.3 32.9 10.55 33.7 Q6.5 38.2 8.05 38.1 L9.0 38.0 9.4 38.0 10.15 38.0 9.95 37.55 11.55 36.0 12.05 35.6 11.55 36.0" fill="#f0edd2" fill-rule="evenodd" stroke="none"/>
      <path d="M16.45 33.95 L13.95 35.6 11.45 37.65 11.2 37.55 10.3 37.55 10.8 36.95 12.25 35.8 Q10.4 37.5 12.25 36.6 L13.45 35.85 16.45 33.95 M16.8 34.35 L19.45 32.9 19.9 33.25 20.3 33.7 20.25 34.25 20.25 34.3 20.1 35.4 Q18.8 39.3 15.1 38.75 L14.65 38.65 13.6 38.4 Q12.6 37.85 14.65 36.05 15.45 35.3 16.8 34.35 M12.6 31.3 L12.8 31.25 12.8 31.55 12.8 33.2 13.0 34.9 12.95 34.95 12.8 35.05 12.05 35.6 11.8 34.85 Q12.6 34.9 12.6 33.55 12.45 32.25 12.6 31.3 M11.3 32.9 L11.35 33.9 11.55 36.0 9.95 37.55 10.15 38.0 9.4 38.0 Q8.15 38.0 8.25 37.5 8.2 36.65 10.55 33.7 L11.3 32.9" fill="#e6e4b3" fill-rule="evenodd" stroke="none"/>
      <path d="M19.75 32.35 Q18.5 32.75 17.15 33.55 L17.05 33.55 16.45 33.95 13.45 35.85 12.25 36.6 Q10.4 37.5 12.25 35.8 L13.15 35.1 Q15.25 33.45 18.35 31.85 19.25 32.05 19.75 32.35 M11.85 38.05 L14.45 35.95 Q15.6 35.05 16.8 34.35 15.45 35.3 14.65 36.05 12.6 37.85 13.6 38.4 L11.85 38.05 M20.3 33.7 L20.5 33.9 Q22.0 37.85 21.55 42.85 L21.2 42.15 Q21.25 36.7 20.25 34.3 L20.25 34.25 20.3 33.7 M9.35 42.95 L7.95 42.05 Q6.2 40.85 6.2 39.8 6.6 39.2 7.15 38.85 6.15 40.05 7.6 41.5 L9.35 42.95 M11.65 31.95 Q12.2 31.45 12.6 31.3 12.45 32.25 12.6 33.55 12.6 34.9 11.8 34.85 L11.65 34.1 11.65 31.95 M10.55 33.7 Q8.2 36.65 8.25 37.5 8.15 38.0 9.4 38.0 L9.0 38.0 8.05 38.1 Q6.5 38.2 10.55 33.7" fill="#cac960" fill-rule="evenodd" stroke="none"/>
      <path d="M19.75 32.35 L19.9 33.25 19.45 32.9 16.8 34.35 Q15.6 35.05 14.45 35.95 L11.85 38.05 11.45 37.65 13.95 35.6 16.45 33.95 17.05 33.55 17.15 33.55 Q18.5 32.75 19.75 32.35 M21.6 43.3 L21.55 43.55 Q21.25 44.75 18.75 44.95 L13.1 44.35 Q10.95 43.8 9.35 42.95 L7.6 41.5 Q6.15 40.05 7.15 38.85 7.75 38.5 8.5 38.45 L10.2 38.35 10.4 38.35 10.4 37.8 11.25 37.8 11.85 38.5 14.65 39.1 16.4 39.6 Q18.4 40.35 19.85 41.35 21.3 42.4 21.6 43.3 M13.1 31.45 L17.85 31.95 Q15.25 33.1 13.35 34.6 13.05 33.65 13.1 31.45 M20.1 35.4 L20.25 34.3 Q21.25 36.7 21.2 42.15 L19.85 40.9 Q18.4 39.9 16.4 39.15 19.3 39.35 20.1 35.4" fill="#a6a637" fill-rule="evenodd" stroke="none"/>
      <path d="M12.8 31.25 L13.1 31.45 Q13.05 33.65 13.35 34.6 L13.0 34.9 12.8 33.2 12.8 31.55 12.8 31.25" fill="#8c8c2f" fill-rule="evenodd" stroke="none"/>
      <path d="M19.9 33.25 L19.75 32.35 Q19.25 32.05 18.35 31.85 L18.15 31.8 17.85 31.95 Q15.25 33.1 13.35 34.6 L13.0 34.9 12.95 34.95 12.8 35.05 12.05 35.6 11.55 36.0 11.35 33.9 11.3 32.9 11.3 32.65 11.35 32.25 11.65 31.95 Q12.2 31.45 12.6 31.3 L12.8 31.25 13.1 31.45 17.85 31.95 M19.45 32.9 L19.9 33.25 20.3 33.7 20.5 33.9 Q22.0 37.85 21.55 42.85 L21.6 43.3 21.55 43.55 Q21.25 44.75 18.75 44.95 L13.1 44.35 Q10.95 43.8 9.35 42.95 L7.95 42.05 Q6.2 40.85 6.2 39.8 L6.25 39.45 6.45 39.0 Q8.5 35.05 11.3 32.65 M10.15 38.0 L9.95 37.55 11.55 36.0" fill="none" stroke="#000000" stroke-linecap="round" stroke-linejoin="round" stroke-opacity="0.3019608" stroke-width="0.30000000000000004"/>
      <path d="M13.35 43.3 L11.05 43.45 Q9.7 43.15 8.7 42.35 7.75 41.55 7.75 40.7 7.75 39.85 8.7 39.45 L11.05 39.35 Q12.4 39.65 13.35 40.45 14.3 41.25 14.3 42.1 14.3 42.95 13.35 43.3" fill="#80802b" fill-rule="evenodd" stroke="none"/>
      <path d="M9.5 45.3 L9.8 45.15 Q10.95 45.45 11.95 44.2 L13.35 42.0 Q13.5 41.3 12.45 40.15 L13.05 40.65 Q13.85 41.35 13.75 42.05 L12.3 44.3 12.25 44.35 Q10.9 46.0 9.75 45.45 L9.5 45.3" fill="#f4a33c" fill-rule="evenodd" stroke="none"/>
      <path d="M9.15 39.45 Q9.85 39.45 10.25 39.8 11.55 40.8 11.3 42.6 11.2 43.55 10.6 44.3 L10.3 44.65 Q9.05 45.05 8.2 42.4 7.9 40.75 8.3 39.75 L8.85 39.5 9.15 39.45" fill="#ffde4f" fill-rule="evenodd" stroke="none"/>
      <path d="M8.3 39.75 Q7.9 40.75 8.2 42.4 9.05 45.05 10.3 44.65 L10.6 44.3 Q11.2 43.55 11.3 42.6 11.55 40.8 10.25 39.8 9.85 39.45 9.15 39.45 L10.8 39.5 Q12.05 40.55 11.85 42.35 11.7 43.45 10.85 44.3 L9.8 45.15 9.5 45.3 Q9.0 44.95 8.65 44.3 L8.15 43.0 Q7.65 41.15 7.8 40.45 7.85 40.0 8.3 39.75" fill="#ffff98" fill-rule="evenodd" stroke="none"/>
      <path d="M9.8 45.15 L10.85 44.3 Q11.7 43.45 11.85 42.35 12.05 40.55 10.8 39.5 L11.05 39.55 12.45 40.15 Q13.5 41.3 13.35 42.0 L11.95 44.2 Q10.95 45.45 9.8 45.15" fill="#cc6b22" fill-rule="evenodd" stroke="none"/>
      <path d="M9.15 39.45 L8.85 39.5 8.3 39.75 Q7.85 40.0 7.8 40.45 7.65 41.15 8.15 43.0 L8.65 44.3 Q9.0 44.95 9.5 45.3 L9.75 45.45 Q10.9 46.0 12.25 44.35 L12.3 44.3 13.75 42.05 Q13.85 41.35 13.05 40.65 L12.45 40.15 11.05 39.55 10.8 39.5 9.15 39.45 Z" fill="none" stroke="#000000" stroke-linecap="round" stroke-linejoin="round" stroke-opacity="0.3019608" stroke-width="0.30000000000000004"/>
      <path d="M22.45 38.45 L21.25 38.75 20.75 38.15 Q20.45 37.55 20.3 36.5 L20.25 36.2 20.6 36.5 20.95 37.8 21.45 38.35 22.4 38.15 22.45 38.45" fill="#f4a33c" fill-rule="evenodd" stroke="none"/>
      <path d="M21.9 37.0 L21.45 36.8 Q20.75 36.35 20.6 35.95 20.45 35.6 20.6 35.05 L22.45 34.65 23.05 34.65 Q22.5 35.75 22.4 37.0 L21.9 37.0" fill="#ffde4f" fill-rule="evenodd" stroke="none"/>
      <path d="M23.05 34.65 L24.15 34.9 24.45 35.05 24.2 35.65 23.05 36.8 22.4 37.0 Q22.5 35.75 23.05 34.65" fill="#e6e4b3" fill-rule="evenodd" stroke="none"/>
      <path d="M24.65 35.25 L24.85 35.0 Q25.05 35.4 24.75 36.1 25.1 36.8 24.3 37.4 L24.25 37.45 22.45 38.45 22.4 38.15 24.25 37.05 24.65 36.7 Q24.75 36.2 24.25 36.25 L24.1 36.25 24.25 36.15 Q24.85 35.6 24.65 35.25" fill="#cac960" fill-rule="evenodd" stroke="none"/>
      <path d="M23.15 34.5 L23.05 34.65 22.45 34.65 20.6 35.05 Q20.45 35.6 20.6 35.95 20.75 36.35 21.45 36.8 L21.9 37.0 21.35 36.9 20.6 36.5 20.25 36.2 Q20.1 34.8 20.75 34.75 L22.55 34.5 23.15 34.5" fill="#ffff98" fill-rule="evenodd" stroke="none"/>
      <path d="M22.4 37.0 L22.4 38.15 21.45 38.35 20.95 37.8 20.6 36.5 21.35 36.9 21.9 37.0 22.4 37.0" fill="#cc6b22" fill-rule="evenodd" stroke="none"/>
      <path d="M23.05 36.8 L24.2 35.8 24.65 35.25 Q24.85 35.6 24.25 36.15 L24.1 36.25 24.25 36.25 Q24.75 36.2 24.65 36.7 L24.25 37.05 22.4 38.15 22.4 37.0 23.05 36.8" fill="#a6a637" fill-rule="evenodd" stroke="none"/>
      <path d="M23.15 34.5 L24.15 34.6 Q24.65 34.7 24.85 35.0 L24.65 35.25 24.2 35.8 23.05 36.8 24.2 35.65 24.45 35.05 24.15 34.9 23.05 34.65 23.15 34.5" fill="#f9f8ec" fill-rule="evenodd" stroke="none"/>
      <path d="M24.85 35.0 Q24.65 34.7 24.15 34.6 L23.15 34.5 23.05 34.65 Q22.5 35.75 22.4 37.0 L22.4 38.15 22.45 38.45 21.25 38.75 20.75 38.15 Q20.45 37.55 20.3 36.5 L20.25 36.2 Q20.1 34.8 20.75 34.75 L22.55 34.5 23.15 34.5 M24.85 35.0 Q25.05 35.4 24.75 36.1 25.1 36.8 24.3 37.4 L24.25 37.45 22.45 38.45" fill="none" stroke="#000000" stroke-linecap="round" stroke-linejoin="round" stroke-opacity="0.3019608" stroke-width="0.30000000000000004"/>
      <path d="M19.15 44.35 L16.85 44.45 Q15.5 44.15 14.5 43.35 13.55 42.55 13.55 41.7 13.55 40.85 14.5 40.5 L16.85 40.35 Q18.2 40.65 19.15 41.45 20.1 42.3 20.1 43.1 20.1 43.95 19.15 44.35" fill="#80802b" fill-rule="evenodd" stroke="none"/>
      <path d="M18.2 41.2 L18.75 41.65 Q19.45 42.35 19.3 43.05 L17.65 45.3 17.55 45.35 Q16.05 47.0 14.95 46.45 L14.75 46.3 15.05 46.15 Q16.15 46.45 17.3 45.2 18.45 44.0 18.9 43.0 19.1 42.3 18.2 41.2" fill="#f4a33c" fill-rule="evenodd" stroke="none"/>
      <path d="M14.75 46.3 L14.7 46.3 14.75 46.3 14.75 46.25 14.75 46.3 M14.05 40.75 L14.65 40.5 14.95 40.45 Q15.65 40.45 16.05 40.8 17.2 41.8 16.8 43.6 16.6 44.55 15.9 45.3 L15.6 45.65 Q14.25 46.05 13.7 43.45 13.55 41.75 14.05 40.75" fill="#ffde4f" fill-rule="evenodd" stroke="none"/>
      <path d="M14.7 46.3 L14.0 45.3 13.6 44.0 Q13.3 42.15 13.5 41.45 13.6 41.0 14.05 40.75 13.55 41.75 13.7 43.45 14.25 46.05 15.6 45.65 L15.9 45.3 Q16.6 44.55 16.8 43.6 17.2 41.8 16.05 40.8 15.65 40.45 14.95 40.45 L16.6 40.5 Q17.75 41.55 17.35 43.35 17.1 44.45 16.2 45.3 L15.05 46.15 14.75 46.3 14.75 46.25 14.75 46.3 14.7 46.3" fill="#ffff98" fill-rule="evenodd" stroke="none"/>
      <path d="M16.6 40.5 L16.85 40.6 18.2 41.2 Q19.1 42.3 18.9 43.0 18.45 44.0 17.3 45.2 16.15 46.45 15.05 46.15 L16.2 45.3 Q17.1 44.45 17.35 43.35 17.75 41.55 16.6 40.5" fill="#cc6b22" fill-rule="evenodd" stroke="none"/>
      <path d="M18.2 41.2 L18.75 41.65 Q19.45 42.35 19.3 43.05 L17.65 45.3 17.55 45.35 Q16.05 47.0 14.95 46.45 L14.75 46.3 14.7 46.3 14.0 45.3 13.6 44.0 Q13.3 42.15 13.5 41.45 13.6 41.0 14.05 40.75 L14.65 40.5 14.95 40.45 16.6 40.5 16.85 40.6 18.2 41.2 Z" fill="none" stroke="#000000" stroke-linecap="round" stroke-linejoin="round" stroke-opacity="0.3019608" stroke-width="0.30000000000000004"/>
      <path d="M14.95 44.25 L14.6 44.7 Q14.35 44.75 14.1 44.5 L13.75 43.85 Q13.6 43.45 13.75 43.1 13.8 42.75 14.05 42.7 L14.6 42.85 15.0 43.5 14.95 44.25" fill="#ffff98" fill-rule="evenodd" stroke="none"/>
      <path d="M9.55 43.5 L9.2 43.95 Q8.95 44.0 8.7 43.75 L8.35 43.1 Q8.2 42.7 8.35 42.35 8.4 42.0 8.65 41.95 8.9 41.85 9.2 42.1 L9.6 42.75 9.55 43.5" fill="#ffff98" fill-rule="evenodd" stroke="none"/>
      <path d="M15.6 9.05 L15.05 8.6 Q14.95 8.25 15.3 7.9 15.6 7.55 16.15 7.4 L17.25 7.35 17.8 7.85 17.55 8.5 16.6 9.05 15.6 9.05" fill="#ffff98" fill-rule="evenodd" stroke="none"/>
    </g>
    <g id="sprite1" transform="matrix(1.0, 0.0, 0.0, 1.0, 0.0, 0.0)">
      <use height="26.7" transform="matrix(0.0042, -1.3515, 1.3935, 0.02, 22.09, 56.0263)" width="26.7" xlink:href="#sprite2"/>
      <use height="26.7" transform="matrix(0.0095, -3.0486, 0.372, 0.0053, 36.507, 81.3775)" width="26.7" xlink:href="#sprite2"/>
      <use height="26.7" transform="matrix(3.0486, 0.0095, -0.0053, 0.372, 0.1225, 35.107)" width="26.7" xlink:href="#sprite2"/>
    </g>
    <g id="sprite2" transform="matrix(1.0, 0.0, 0.0, 1.0, 13.35, 13.35)">
      <use height="26.7" transform="matrix(1.0, 0.0, 0.0, 1.0, -13.35, -13.35)" width="26.7" xlink:href="#shape1"/>
    </g>
    <g id="shape1" transform="matrix(1.0, 0.0, 0.0, 1.0, 13.35, 13.35)">
      <path d="M9.3 -9.85 Q13.35 -5.8 13.35 0.0 13.35 5.8 9.3 9.3 5.8 13.35 0.0 13.35 -5.8 13.35 -9.85 9.3 -13.35 5.8 -13.35 0.0 -13.35 -5.8 -9.85 -9.85 -5.8 -13.35 0.0 -13.35 5.8 -13.35 9.3 -9.85" fill="url(#gradient0)" fill-rule="evenodd" stroke="none"/>
    </g>
    <radialGradient cx="0" cy="0" gradientTransform="matrix(0.0213, 0.0, 0.0, 0.0213, 0.0, 0.0)" gradientUnits="userSpaceOnUse" id="gradient0" r="819.2" spreadMethod="pad">
      <stop offset="0.19607843137254902" stop-color="#fee3bc" stop-opacity="0.42745098"/>
      <stop offset="0.5019607843137255" stop-color="#fee3bc" stop-opacity="0.06666667"/>
      <stop offset="0.7607843137254902" stop-color="#ffe3bd" stop-opacity="0.0"/>
    </radialGradient>
  </defs>
</svg>
