<?xml version="1.0" encoding="UTF-8" standalone="no"?>
<svg xmlns:xlink="http://www.w3.org/1999/xlink" height="52.0px" width="52.0px" xmlns="http://www.w3.org/2000/svg">
  <g transform="matrix(1.0, 0.0, 0.0, 1.0, 0.0, 0.0)">
    <use height="122.0" transform="matrix(1.0, 0.0, 0.0, 1.0, -35.0, -35.0)" width="122.0" xlink:href="#shape0"/>
    <use height="0.0" transform="matrix(0.1821, 0.0, -0.0143, 0.1522, 30.1, 16.4)" width="0.0" xlink:href="#sprite0"/>
    <use height="0.0" transform="matrix(0.0427, 0.0, -0.0042, 0.0448, 34.05, 11.0)" width="0.0" xlink:href="#sprite0"/>
    <use height="47.75" transform="matrix(1.0, 0.0, 0.0, 1.0, -3.3, 11.0)" width="55.85" xlink:href="#shape1"/>
    <use height="0.0" transform="matrix(0.1043, 0.0, -0.0532, 0.1406, 20.7, 34.95)" width="0.0" xlink:href="#sprite0"/>
    <use height="0.0" transform="matrix(0.0548, 0.0, -0.0011, 0.0281, 22.05, 23.75)" width="0.0" xlink:href="#sprite0"/>
    <use height="33.85" transform="matrix(1.0, 0.0, 0.0, 1.0, 1.2, 8.45)" width="32.6" xlink:href="#shape2"/>
    <use height="0.0" transform="matrix(0.0434, 0.0, -0.0141, 0.0374, 17.05, 22.3)" width="0.0" xlink:href="#sprite0"/>
    <use height="81.5" transform="matrix(0.0732, 0.0, 0.0, 0.0788, 15.5, 18.85)" width="81.5" xlink:href="#sprite1"/>
  </g>
  <defs>
    <g id="shape0" transform="matrix(1.0, 0.0, 0.0, 1.0, 35.0, 35.0)">
      <path d="M52.0 0.0 L52.0 52.0 0.0 52.0 0.0 0.0 52.0 0.0" fill="#795fa9" fill-opacity="0.0" fill-rule="evenodd" stroke="none"/>
      <path d="M28.45 4.15 Q22.75 4.65 19.0 8.85 16.75 11.4 16.05 14.45 15.55 16.35 15.75 18.5 L15.9 19.85 18.55 19.1 19.1 19.45 Q19.15 18.65 19.35 17.95 19.55 16.95 20.0 16.05 L19.9 14.75 20.0 13.6 Q20.3 13.05 20.75 12.65 L21.35 12.25 22.55 10.4 23.0 9.9 Q24.95 6.2 29.4 5.7 30.15 5.2 31.05 4.95 L33.9 4.7 Q31.35 3.9 28.45 4.15 M33.7 11.7 Q33.15 10.7 32.05 11.0 L28.25 10.6 Q25.9 10.8 24.05 11.85 L21.8 12.05 21.75 12.05 21.35 12.25 20.65 14.35 Q20.3 15.7 20.2 17.35 L20.15 19.25 19.95 19.95 20.7 20.35 20.9 22.45 19.65 23.8 19.75 24.5 20.1 25.8 Q20.55 27.0 21.3 28.05 24.95 30.6 29.45 30.6 L30.5 30.55 30.65 30.5 Q33.75 30.25 36.3 28.9 L37.8 28.0 36.95 28.15 36.75 28.2 32.6 28.9 33.85 28.35 Q35.35 27.55 36.6 26.2 39.25 23.2 38.5 19.35 38.6 15.4 36.25 13.45 L34.45 12.1 33.7 11.7 M33.9 4.7 Q35.35 5.15 37.15 6.3 L39.65 8.15 Q42.9 10.85 42.8 16.35 43.8 21.75 40.1 25.9 L37.8 28.0 39.9 28.25 Q41.75 29.05 41.9 30.95 42.0 32.25 41.3 34.05 L40.45 35.05 Q38.65 36.75 35.85 36.8 L35.1 36.7 32.15 36.1 31.8 37.1 31.5 37.55 32.95 39.0 33.05 39.1 33.5 39.55 33.55 39.55 33.7 39.75 33.75 39.9 34.15 40.0 35.3 40.55 36.55 41.4 36.85 41.7 37.05 41.9 37.2 41.85 39.45 41.75 39.35 41.85 37.7 43.6 38.75 44.7 37.5 45.05 36.75 45.0 35.55 46.35 35.4 45.65 35.2 45.05 33.9 45.2 33.9 45.05 Q33.9 44.55 34.5 44.05 L34.25 43.75 34.05 43.55 33.2 42.9 32.05 42.3 32.2 43.3 32.25 43.6 32.3 43.95 33.5 43.9 33.6 43.95 32.85 45.05 33.2 45.55 33.75 46.05 32.0 46.45 31.65 47.1 30.75 48.1 30.35 46.6 Q29.2 47.25 28.1 47.25 L27.95 47.25 Q28.25 46.05 29.2 45.3 L29.3 45.2 29.2 44.95 29.1 44.5 29.05 42.9 29.2 41.6 29.3 41.2 29.2 41.05 29.1 40.85 29.1 40.8 28.95 40.15 28.95 40.05 28.9 39.7 Q27.35 40.35 25.8 38.05 L25.8 37.85 25.2 41.45 Q22.9 46.45 18.55 47.55 15.2 48.65 14.1 44.55 L13.7 42.8 10.5 44.3 8.8 44.3 Q7.45 43.9 7.35 42.1 7.2 39.45 8.25 37.55 L8.3 37.5 8.85 36.7 15.3 30.6 14.2 30.2 Q11.55 29.1 9.8 27.45 9.05 24.6 10.05 23.0 L10.75 22.15 11.2 21.9 12.05 21.65 12.55 21.65 13.95 20.4 15.9 19.85 Q16.4 22.35 17.75 24.45 L19.0 24.1 19.45 24.0 19.65 23.8 19.6 22.85 19.85 20.55 19.95 19.95 19.1 19.45 M19.8 25.6 L19.4 26.05 19.85 25.6 19.8 25.6 M21.3 28.05 L20.55 27.45 19.5 26.5 20.0 29.15 19.05 29.85 17.8 29.55 15.9 24.85 15.35 25.0 12.95 24.25 11.8 22.3 Q12.2 22.0 12.55 21.65 M19.4 26.05 L19.5 26.5 17.75 24.45 15.9 24.85 M19.0 24.1 L19.4 26.05" fill="none" stroke="#000000" stroke-linecap="round" stroke-linejoin="round" stroke-opacity="0.3019608" stroke-width="1.0"/>
      <path d="M36.35 6.35 Q34.25 4.6 32.35 5.3 35.4 3.45 36.35 6.35" fill="#e6d795" fill-rule="evenodd" stroke="none"/>
      <path d="M36.35 6.35 Q35.4 3.45 32.35 5.3 34.25 4.6 36.35 6.35 Z" fill="none" stroke="#000000" stroke-linecap="round" stroke-linejoin="round" stroke-opacity="0.3019608" stroke-width="0.30000000000000004"/>
      <path d="M16.05 14.45 Q15.9 16.9 16.45 18.0 16.2 22.3 20.1 25.8 20.55 27.0 21.3 28.05 L20.55 27.45 Q16.2 23.95 15.75 18.5 15.55 16.35 16.05 14.45 M17.55 18.85 Q16.0 15.35 17.55 12.6 20.5 7.45 24.95 5.75 27.05 4.85 28.95 4.8 L26.45 6.05 Q22.7 7.6 21.7 10.3 19.5 14.3 19.45 18.3 18.6 19.0 17.55 18.85 M20.65 14.35 L21.05 16.7 20.45 20.9 20.45 20.95 20.4 22.65 20.4 22.7 19.75 24.5 19.6 22.85 19.85 20.55 20.15 19.25 20.2 17.35 Q20.3 15.7 20.65 14.35 M23.75 21.15 Q21.3 17.05 21.55 13.65 22.85 10.55 24.45 10.15 26.4 6.95 30.75 6.35 32.45 4.45 37.85 7.3 L37.15 6.3 39.65 8.15 Q42.9 10.85 42.8 16.35 43.8 21.75 40.1 25.9 38.4 27.8 36.3 28.9 L38.15 26.4 38.4 26.15 Q42.8 22.25 41.55 16.55 41.8 13.15 41.1 11.65 40.0 9.0 38.2 7.85 40.4 11.55 39.5 14.75 35.65 21.6 27.35 21.9 L26.1 21.9 Q24.75 21.8 23.75 21.15" fill="#e6d795" fill-rule="evenodd" stroke="none"/>
      <path d="M16.05 14.45 Q16.75 11.4 19.0 8.85 22.75 4.65 28.45 4.15 31.35 3.9 33.9 4.7 35.35 5.15 37.15 6.3 L37.85 7.3 Q32.45 4.45 30.75 6.35 26.4 6.95 24.45 10.15 22.85 10.55 21.55 13.65 21.3 17.05 23.75 21.15 L23.4 20.9 Q21.7 19.65 21.05 16.7 L20.65 14.35 Q21.25 11.9 22.55 10.4 L23.0 9.9 Q24.95 6.2 29.4 5.7 30.15 5.2 31.05 4.95 L28.95 4.8 Q27.05 4.85 24.95 5.75 20.5 7.45 17.55 12.6 16.0 15.35 17.55 18.85 L17.05 18.7 16.45 18.0 Q15.9 16.9 16.05 14.45" fill="#ece0b5" fill-rule="evenodd" stroke="none"/>
      <path d="M16.45 18.0 L17.05 18.7 17.55 18.85 Q18.6 19.0 19.45 18.3 19.5 14.3 21.7 10.3 22.7 7.6 26.45 6.05 L28.95 4.8 31.05 4.95 Q30.15 5.2 29.4 5.7 24.95 6.2 23.0 9.9 L22.55 10.4 Q21.25 11.9 20.65 14.35 20.3 15.7 20.2 17.35 L20.15 19.25 19.85 20.55 19.6 22.85 19.75 24.5 20.1 25.8 Q16.2 22.3 16.45 18.0 M21.05 16.7 Q21.7 19.65 23.4 20.9 22.15 21.0 21.35 21.55 20.85 21.85 20.6 22.4 L20.5 22.55 20.4 22.65 20.45 20.95 20.45 20.9 21.05 16.7 M36.3 28.9 Q33.75 30.25 30.65 30.5 L30.5 30.55 29.45 30.6 34.15 28.95 35.65 28.15 38.15 26.4 36.3 28.9 M26.1 21.9 L27.35 21.9 Q35.65 21.6 39.5 14.75 40.4 11.55 38.2 7.85 40.0 9.0 41.1 11.65 41.8 13.15 41.55 16.55 42.8 22.25 38.4 26.15 32.85 28.7 30.9 27.4 L30.6 26.4 30.5 26.1 Q29.6 23.65 26.1 21.9" fill="#ddc877" fill-rule="evenodd" stroke="none"/>
      <path d="M23.4 20.9 L23.75 21.15 Q24.75 21.8 26.1 21.9 29.6 23.65 30.5 26.1 L30.6 26.4 30.9 27.4 Q32.85 28.7 38.4 26.15 L38.15 26.4 35.65 28.15 34.15 28.95 29.45 30.6 Q24.95 30.6 21.3 28.05 20.55 27.0 20.1 25.8 L19.75 24.5 20.4 22.7 20.4 22.65 20.5 22.55 20.6 22.4 Q20.85 21.85 21.35 21.55 22.15 21.0 23.4 20.9" fill="#cfb341" fill-rule="evenodd" stroke="none"/>
      <path d="M28.45 4.15 Q22.75 4.65 19.0 8.85 16.75 11.4 16.05 14.45 15.55 16.35 15.75 18.5 16.2 23.95 20.55 27.45 L21.3 28.05 Q20.55 27.0 20.1 25.8 L19.75 24.5 19.6 22.85 19.85 20.55 20.15 19.25 20.2 17.35 Q20.3 15.7 20.65 14.35 21.25 11.9 22.55 10.4 L23.0 9.9 Q24.95 6.2 29.4 5.7 30.15 5.2 31.05 4.95 L33.9 4.7 Q31.35 3.9 28.45 4.15 M33.9 4.7 Q35.35 5.15 37.15 6.3 L39.65 8.15 Q42.9 10.85 42.8 16.35 43.8 21.75 40.1 25.9 38.4 27.8 36.3 28.9 33.75 30.25 30.65 30.5 L30.5 30.55 29.45 30.6 Q24.95 30.6 21.3 28.05" fill="none" stroke="#000000" stroke-linecap="round" stroke-linejoin="round" stroke-opacity="0.3019608" stroke-width="0.30000000000000004"/>
      <path d="M27.05 5.6 Q30.1 3.8 31.1 6.65 28.95 4.9 27.05 5.6 M21.0 10.2 Q24.05 8.35 25.05 11.25 22.9 9.5 21.0 10.2 M18.1 19.3 Q21.15 17.5 22.15 20.4 20.0 18.65 18.1 19.3" fill="#c4803c" fill-rule="evenodd" stroke="none"/>
      <path d="M18.1 19.3 Q20.0 18.65 22.15 20.4 21.15 17.5 18.1 19.3 M21.0 10.2 Q22.9 9.5 25.05 11.25 24.05 8.35 21.0 10.2 M27.05 5.6 Q28.95 4.9 31.1 6.65 30.1 3.8 27.05 5.6" fill="none" stroke="#000000" stroke-linecap="round" stroke-linejoin="round" stroke-opacity="0.3019608" stroke-width="0.30000000000000004"/>
      <path d="M37.75 10.05 Q39.05 10.9 38.2 14.0 L37.55 14.25 Q36.55 13.4 36.6 12.7 36.65 11.95 37.0 11.5 37.65 10.95 37.75 10.05 M33.8 13.95 Q31.9 12.65 31.25 11.35 30.65 10.15 30.65 9.0 L30.75 9.2 Q31.55 10.85 33.5 11.55 33.2 12.0 33.3 12.55 33.5 13.25 34.4 14.2 L33.8 13.95" fill="#339328" fill-rule="evenodd" stroke="none"/>
      <path d="M37.6 8.8 L37.7 9.3 Q37.3 11.05 36.0 11.25 L33.55 11.05 Q32.1 10.85 30.9 9.15 L30.3 8.0 30.6 8.9 30.65 9.0 Q30.65 10.15 31.25 11.35 31.9 12.65 33.8 13.95 L33.25 13.7 Q30.1 11.8 30.2 8.7 L30.3 8.0 Q31.85 6.7 33.85 6.95 35.1 7.1 36.5 7.8 32.3 7.1 32.55 8.2 L32.6 8.3 Q33.4 9.95 36.3 10.05 37.4 9.95 37.6 8.8" fill="#75d74a" fill-rule="evenodd" stroke="none"/>
      <path d="M30.3 8.0 L30.9 9.15 Q32.1 10.85 33.55 11.05 L36.0 11.25 Q37.3 11.05 37.7 9.3 L37.75 10.05 Q37.65 10.95 37.0 11.5 L36.0 12.05 36.1 12.8 Q36.1 13.65 35.6 14.45 35.85 13.35 35.7 12.75 35.6 12.2 35.1 12.0 L33.5 11.55 Q31.55 10.85 30.75 9.2 L30.65 9.0 30.6 8.9 30.3 8.0" fill="#d7f16b" fill-rule="evenodd" stroke="none"/>
      <path d="M37.6 8.8 Q37.4 9.95 36.3 10.05 33.4 9.95 32.6 8.3 L32.55 8.2 Q32.3 7.1 36.5 7.8 L37.5 8.35 37.6 8.8" fill="#9ae17b" fill-rule="evenodd" stroke="none"/>
      <path d="M35.6 14.45 Q36.1 13.65 36.1 12.8 L36.0 12.05 37.0 11.5 Q36.65 11.95 36.6 12.7 36.55 13.4 37.55 14.25 L35.6 14.45" fill="#246c41" fill-rule="evenodd" stroke="none"/>
      <path d="M37.7 9.3 L37.6 8.8 37.5 8.35 Q39.2 10.45 38.8 12.55 L38.2 14.0 Q39.05 10.9 37.75 10.05 L37.7 9.3 M33.5 11.55 L35.1 12.0 Q35.6 12.2 35.7 12.75 35.85 13.35 35.6 14.45 L35.35 14.4 35.15 14.35 34.4 14.2 Q33.5 13.25 33.3 12.55 33.2 12.0 33.5 11.55" fill="#77b35b" fill-rule="evenodd" stroke="none"/>
      <path d="M36.5 7.8 Q35.1 7.1 33.85 6.95 31.85 6.7 30.3 8.0 L30.2 8.7 Q30.1 11.8 33.25 13.7 L33.8 13.95 34.4 14.2 35.15 14.35 35.35 14.4 35.6 14.45 37.55 14.25 38.2 14.0 38.8 12.55 Q39.2 10.45 37.5 8.35 L36.5 7.8 Z" fill="none" stroke="#000000" stroke-linecap="round" stroke-linejoin="round" stroke-opacity="0.3019608" stroke-width="0.30000000000000004"/>
      <path d="M18.05 7.05 Q18.65 6.5 19.4 6.25 L19.5 6.2 Q20.6 6.2 20.5 6.75 L19.7 7.5 18.45 8.05 17.55 7.95 18.05 7.05" fill="#9ae17b" fill-rule="evenodd" stroke="none"/>
      <path d="M18.45 8.05 L19.7 7.5 20.5 6.75 Q20.6 6.2 19.5 6.2 L23.55 6.1 22.75 6.65 19.75 7.9 18.9 8.1 18.45 8.05 M17.6 11.45 L17.05 11.85 16.8 10.0 Q16.8 9.1 16.95 8.35 L17.4 8.4 17.25 9.85 17.3 10.45 17.6 11.45" fill="#75d74a" fill-rule="evenodd" stroke="none"/>
      <path d="M18.05 7.05 L17.55 7.95 18.45 8.05 18.9 8.1 19.75 7.9 22.75 6.65 21.35 7.55 19.85 8.25 19.55 8.35 18.7 8.55 17.95 8.45 Q17.5 8.95 17.3 10.45 L17.25 9.85 17.4 8.4 16.95 8.35 18.05 7.05" fill="#d7f16b" fill-rule="evenodd" stroke="none"/>
      <path d="M23.55 6.1 L21.55 8.25 20.95 8.8 21.35 7.55 22.75 6.65 23.55 6.1 M19.3 10.15 L17.6 11.45 17.3 10.45 Q17.5 8.95 17.95 8.45 L18.7 8.55 19.55 8.35 19.65 8.95 19.3 10.15" fill="#339328" fill-rule="evenodd" stroke="none"/>
      <path d="M20.95 8.8 L20.85 8.85 20.15 9.5 19.3 10.15 19.65 8.95 19.55 8.35 19.85 8.25 21.35 7.55 20.95 8.8" fill="#246c41" fill-rule="evenodd" stroke="none"/>
      <path d="M19.5 6.2 L19.4 6.25 Q18.65 6.5 18.05 7.05 L16.95 8.35 Q16.8 9.1 16.8 10.0 L17.05 11.85 17.6 11.45 19.3 10.15 20.15 9.5 20.85 8.85 M19.5 6.2 L23.55 6.1 21.55 8.25 20.95 8.8" fill="none" stroke="#000000" stroke-linecap="round" stroke-linejoin="round" stroke-opacity="0.3019608" stroke-width="0.30000000000000004"/>
    </g>
    <g id="shape1" transform="matrix(1.0, 0.0, 0.0, 1.0, 3.3, -11.0)">
      <path d="M12.05 21.65 Q14.05 22.25 17.0 25.5 L17.3 25.85 Q19.55 28.9 17.25 28.5 L15.7 28.05 Q14.15 27.5 13.05 26.7 9.8 23.4 11.25 21.85 L12.05 21.65 M10.25 23.15 Q9.55 24.85 10.05 26.9 11.35 28.55 14.5 29.8 L18.4 31.0 18.15 31.4 14.2 30.15 Q11.6 29.1 9.8 27.45 9.05 24.55 10.1 22.95 L10.8 22.15 10.25 23.15" fill="#e6d795" fill-rule="evenodd" stroke="none"/>
      <path d="M13.05 26.7 Q11.0 25.3 10.25 23.15 L10.8 22.15 11.25 21.85 Q9.8 23.4 13.05 26.7" fill="#ece0b5" fill-rule="evenodd" stroke="none"/>
      <path d="M12.05 21.65 Q13.25 21.55 14.9 22.35 16.05 24.05 17.7 25.25 19.05 26.3 20.75 27.0 L18.4 31.0 14.5 29.8 Q11.35 28.55 10.05 26.9 9.55 24.85 10.25 23.15 11.0 25.3 13.05 26.7 14.15 27.5 15.7 28.05 L17.25 28.5 Q19.55 28.9 17.3 25.85 L17.0 25.5 Q14.05 22.25 12.05 21.65" fill="#ddc877" fill-rule="evenodd" stroke="none"/>
      <path d="M18.4 31.0 L20.75 27.0 Q19.05 26.3 17.7 25.25 16.05 24.05 14.9 22.35 13.25 21.55 12.05 21.65 L11.25 21.85 10.8 22.15 10.1 22.95 Q9.05 24.55 9.8 27.45 11.6 29.1 14.2 30.15 L18.15 31.4 18.4 31.0 Z" fill="none" stroke="#000000" stroke-linecap="round" stroke-linejoin="round" stroke-opacity="0.3019608" stroke-width="0.30000000000000004"/>
      <path d="M27.1 34.75 L26.8 35.95" fill="none" stroke="#ff0000" stroke-linecap="round" stroke-linejoin="round" stroke-width="0.05"/>
      <path d="M29.45 33.7 L29.15 34.2 28.35 33.35 Q27.6 33.5 27.05 33.9 26.3 34.25 25.9 34.9 L26.8 36.15 Q25.1 37.15 23.45 34.65 23.2 33.15 23.95 32.1 L24.25 31.7 Q25.65 30.5 27.05 30.55 L27.75 30.75 Q28.55 30.6 29.35 31.2 29.75 31.8 29.8 32.4 L29.45 33.7 M25.9 34.9 L25.7 35.2 Q24.7 35.45 23.45 34.65 24.7 35.45 25.7 35.2 L25.9 34.9 M27.75 30.75 L28.1 31.05 Q28.2 31.45 27.9 32.15 L27.85 32.3 27.05 33.9 27.85 32.3 27.9 32.15 Q28.2 31.45 28.1 31.05 L27.75 30.75" fill="#74511d" fill-rule="evenodd" stroke="none"/>
      <path d="M29.45 33.7 L29.15 34.2 28.35 33.35 Q27.6 33.5 27.05 33.9 26.3 34.25 25.9 34.9 L26.8 36.15 Q25.1 37.15 23.45 34.65 23.2 33.15 23.95 32.1 L24.25 31.7 Q25.65 30.5 27.05 30.55 L27.75 30.75 Q28.55 30.6 29.35 31.2 29.75 31.8 29.8 32.4 L29.45 33.7 M27.05 33.9 L27.85 32.3 27.9 32.15 Q28.2 31.45 28.1 31.05 L27.75 30.75 M23.45 34.65 Q24.7 35.45 25.7 35.2 L25.9 34.9" fill="none" stroke="#000000" stroke-linecap="round" stroke-linejoin="round" stroke-opacity="0.3019608" stroke-width="0.30000000000000004"/>
      <path d="M28.1 47.25 L28.0 47.25 Q28.3 46.1 29.2 45.3 L29.3 45.25 29.85 44.95 30.4 45.4 29.8 45.7 Q28.75 46.35 28.1 47.25 M29.1 40.85 L29.1 40.8 29.0 40.15 28.95 40.0 28.3 37.6 Q29.35 37.1 30.15 38.2 L30.2 38.35 Q30.8 39.2 30.7 40.0 L30.45 40.85 30.0 41.05 29.55 40.95 29.1 40.85 M29.45 43.8 Q29.0 41.6 29.9 41.5 L30.95 42.4 31.2 43.15 31.3 43.9 31.2 45.4 Q30.55 45.45 29.75 44.6 L29.45 43.8" fill="#aa772b" fill-rule="evenodd" stroke="none"/>
      <path d="M29.3 45.25 L29.25 44.95 29.15 44.5 29.05 42.95 29.2 41.6 29.3 41.2 29.35 41.2 29.5 41.2 Q30.25 41.15 31.15 42.0 31.75 42.9 31.8 43.7 L31.8 43.75 31.8 44.3 32.35 43.95 33.5 43.9 32.4 44.35 31.7 44.9 31.8 44.3 31.7 44.9 31.35 45.75 30.4 45.4 29.85 44.95 29.3 45.25 M28.3 37.6 L28.1 37.0 28.45 36.95 Q29.1 36.15 30.0 36.4 30.35 36.7 30.15 37.15 L30.0 37.1 31.35 38.6 31.7 40.0 Q31.95 41.25 31.7 42.2 31.1 41.35 30.0 41.05 L30.45 40.85 30.7 40.0 Q30.8 39.2 30.2 38.35 L30.15 38.2 Q29.35 37.1 28.3 37.6 M32.85 45.05 L33.25 45.6 33.75 46.05 32.75 45.8 32.4 45.55 32.85 45.05 M30.8 48.1 L30.4 46.6 30.85 46.4 30.8 48.1 M28.45 36.95 L30.0 37.1 28.45 36.95 M29.45 43.8 L29.75 44.6 Q30.55 45.45 31.2 45.4 L31.3 43.9 31.2 43.15 30.95 42.4 29.9 41.5 Q29.0 41.6 29.45 43.8 M29.75 44.6 L29.85 44.95 29.75 44.6" fill="#825a20" fill-rule="evenodd" stroke="none"/>
      <path d="M29.3 41.2 L29.2 41.1 29.1 40.85 29.55 40.95 30.0 41.05 Q31.1 41.35 31.7 42.2 31.95 41.25 31.7 40.0 L31.35 38.6 30.0 37.1 30.15 37.15 Q30.35 36.7 30.0 36.4 29.1 36.15 28.45 36.95 L28.1 37.0 Q27.45 35.55 26.6 34.95 L29.65 33.75 Q31.3 36.0 31.5 38.1 L32.05 40.0 Q32.25 41.15 32.05 42.2 32.05 42.8 32.2 43.25 L32.25 43.55 32.35 43.95 31.8 44.3 31.8 43.75 31.8 43.7 Q31.75 42.9 31.15 42.0 30.25 41.15 29.5 41.2 L29.35 41.2 29.3 41.2 M33.5 43.9 L33.6 43.95 32.85 45.05 32.4 45.55 32.75 45.8 33.75 46.05 32.0 46.45 31.65 47.15 30.8 48.1 30.85 46.4 30.4 46.6 Q29.25 47.25 28.1 47.25 28.75 46.35 29.8 45.7 L30.4 45.4 31.35 45.75 31.7 44.9 32.4 44.35 33.5 43.9 M31.5 38.1 Q30.9 37.5 30.15 37.15 30.9 37.5 31.5 38.1 M32.2 43.25 L31.15 42.0 32.2 43.25" fill="#604217" fill-rule="evenodd" stroke="none"/>
      <path d="M28.1 47.25 L28.0 47.25 Q28.3 46.1 29.2 45.3 L29.3 45.25 29.25 44.95 29.15 44.5 29.05 42.95 29.2 41.6 29.3 41.2 29.2 41.1 29.1 40.85 M29.1 40.8 L29.0 40.15 28.95 40.0 28.3 37.6 28.1 37.0 Q27.45 35.55 26.6 34.95 L29.65 33.75 Q31.3 36.0 31.5 38.1 L32.05 40.0 Q32.25 41.15 32.05 42.2 32.05 42.8 32.2 43.25 L32.25 43.55 32.35 43.95 33.5 43.9 33.6 43.95 32.85 45.05 33.25 45.6 33.75 46.05 32.0 46.45 31.65 47.15 30.8 48.1 30.4 46.6 Q29.25 47.25 28.1 47.25 M30.4 45.4 L29.85 44.95 29.3 45.25 M30.0 37.1 L28.45 36.95 28.1 37.0 M30.15 37.15 Q30.9 37.5 31.5 38.1 M30.15 37.15 L30.0 37.1 M29.3 41.2 L29.35 41.2 29.5 41.2 Q30.25 41.15 31.15 42.0 L32.2 43.25 M31.8 43.75 L31.8 44.3 32.35 43.95 M31.8 44.3 L31.7 44.9 31.35 45.75 30.4 45.4 M29.85 44.95 L29.75 44.6 M30.85 46.4 L30.4 46.6 M32.85 45.05 L32.4 45.55" fill="none" stroke="#000000" stroke-linecap="round" stroke-linejoin="round" stroke-opacity="0.3019608" stroke-width="0.30000000000000004"/>
      <path d="M31.25 37.25 Q30.35 37.9 30.85 39.15 L30.95 39.3 Q31.4 40.25 32.05 40.6 L32.85 40.75 33.25 40.4 Q32.95 41.6 33.4 42.6 L31.55 41.5 30.55 40.45 Q30.15 39.75 30.0 38.5 L30.0 38.7 Q29.5 38.6 29.45 38.15 29.65 37.2 30.65 37.0 L30.85 36.7 31.25 37.25 M30.0 38.5 Q30.15 37.65 30.65 37.0 30.15 37.65 30.0 38.5 M33.5 41.95 Q33.25 40.7 33.65 40.05 L33.75 39.9 34.1 40.05 35.3 40.55 36.55 41.4 36.9 41.7 37.05 41.9 36.55 42.25 36.75 43.0 36.55 44.0 35.65 43.9 35.1 43.75 35.65 43.9 34.8 44.25 33.9 45.05 Q33.95 44.55 34.5 44.0 L35.1 43.75 34.6 43.45 34.6 43.4 Q33.95 42.95 33.5 41.95 M36.35 41.95 L36.55 42.25 36.35 41.95 35.8 41.3 Q34.25 39.8 33.7 40.6 33.6 41.15 33.95 42.0 L34.4 42.6 35.0 43.05 36.25 43.75 Q36.65 43.15 36.35 41.95 M35.15 45.05 L35.8 44.9 35.9 45.35 35.55 46.35 35.4 45.6 35.15 45.05 M38.75 44.7 L37.3 43.9 37.7 43.6 38.75 44.7" fill="#aa772b" fill-rule="evenodd" stroke="none"/>
      <path d="M33.25 40.4 L33.45 40.0 33.55 39.55 33.65 39.75 33.75 39.9 33.65 40.05 Q33.25 40.7 33.5 41.95 33.95 42.95 34.6 43.4 L34.6 43.45 35.1 43.75 34.5 44.0 34.25 43.75 34.0 43.55 33.2 42.9 Q32.25 42.5 31.4 41.8 L30.1 40.35 Q28.45 39.15 27.4 36.5 L29.95 34.35 Q30.0 35.4 30.85 36.7 L30.65 37.0 Q29.65 37.2 29.45 38.15 29.5 38.6 30.0 38.7 L30.0 38.5 Q30.15 39.75 30.55 40.45 L31.55 41.5 33.4 42.6 Q32.95 41.6 33.25 40.4 M30.0 38.7 Q29.85 39.45 30.1 40.35 29.85 39.45 30.0 38.7 M35.65 43.9 L36.55 44.0 36.75 43.0 37.25 42.6 Q38.3 42.0 39.4 41.8 38.85 42.85 37.7 43.6 L37.3 43.9 38.75 44.7 37.5 45.0 36.75 45.0 35.55 46.35 35.9 45.35 35.8 44.9 35.15 45.05 33.85 45.15 33.9 45.05 34.8 44.25 35.65 43.9 M33.5 41.95 L34.0 43.55 33.5 41.95" fill="#825a20" fill-rule="evenodd" stroke="none"/>
      <path d="M33.25 40.4 L32.85 40.75 32.05 40.6 Q31.4 40.25 30.95 39.3 L30.85 39.15 Q30.35 37.9 31.25 37.25 L32.95 39.0 33.0 39.1 33.5 39.5 33.55 39.55 33.45 40.0 33.25 40.4 M36.75 43.0 L36.55 42.25 37.05 41.9 37.2 41.85 39.4 41.75 39.4 41.8 Q38.3 42.0 37.25 42.6 L36.75 43.0 M36.35 41.95 Q36.65 43.15 36.25 43.75 L35.0 43.05 34.4 42.6 33.95 42.0 Q33.6 41.15 33.7 40.6 34.25 39.8 35.8 41.3 L36.35 41.95" fill="#be8830" fill-rule="evenodd" stroke="none"/>
      <path d="M33.5 39.5 L33.0 39.1 32.95 39.0 31.25 37.25 30.85 36.7 30.65 37.0 Q30.15 37.65 30.0 38.5 L30.0 38.7 Q29.85 39.45 30.1 40.35 L31.4 41.8 Q32.25 42.5 33.2 42.9 L34.0 43.55 33.5 41.95 Q33.25 40.7 33.65 40.05 L33.75 39.9 33.65 39.75 33.55 39.55 M30.85 36.7 Q30.0 35.4 29.95 34.35 L27.4 36.5 Q28.45 39.15 30.1 40.35 M34.6 43.45 L35.1 43.75 35.65 43.9 36.55 44.0 36.75 43.0 36.55 42.25 36.35 41.95 M37.05 41.9 L36.9 41.7 36.55 41.4 35.3 40.55 34.1 40.05 33.75 39.9 M33.9 45.05 L33.85 45.15 35.15 45.05 35.8 44.9 M35.55 46.35 L36.75 45.0 37.5 45.0 38.75 44.7 37.7 43.6 Q38.85 42.85 39.4 41.8 L39.4 41.75 37.2 41.85 37.05 41.9 36.55 42.25 M37.3 43.9 L37.7 43.6 M34.5 44.0 Q33.95 44.55 33.9 45.05 M34.0 43.55 L34.25 43.75 34.5 44.0 35.1 43.75 M35.15 45.05 L35.4 45.6 35.55 46.35" fill="none" stroke="#000000" stroke-linecap="round" stroke-linejoin="round" stroke-opacity="0.3019608" stroke-width="0.30000000000000004"/>
      <path d="M28.9 32.25 Q29.75 32.1 30.55 32.7 30.65 33.6 30.35 33.95 L30.05 34.15 29.25 33.9 29.15 33.7 Q29.4 33.0 29.25 32.6 L28.9 32.25 M25.1 33.6 L25.4 33.2 Q26.85 32.0 28.3 32.1 29.0 32.85 28.6 33.75 L27.05 35.15 Q26.05 35.8 25.15 35.55 24.75 35.15 25.1 33.6" fill="#825a20" fill-rule="evenodd" stroke="none"/>
      <path d="M28.9 32.25 L29.25 32.6 Q29.4 33.0 29.15 33.7 L29.25 33.9 30.05 34.15 30.35 33.95 Q30.65 33.6 30.55 32.7 30.95 33.35 30.95 33.95 31.0 34.55 30.65 35.25 L30.3 35.75 29.55 34.85 28.2 35.35 Q27.55 35.8 27.15 36.4 L27.95 37.7 Q26.3 38.65 24.7 36.15 24.35 34.7 25.1 33.6 24.75 35.15 25.15 35.55 26.05 35.8 27.05 35.15 L28.6 33.75 Q29.0 32.85 28.3 32.1 L28.9 32.25 M29.15 33.7 L29.05 33.85 28.2 35.35 29.05 33.85 29.15 33.7 M27.15 36.4 L26.9 36.75 Q25.9 36.95 24.7 36.15 25.9 36.95 26.9 36.75 L27.15 36.4" fill="#74511d" fill-rule="evenodd" stroke="none"/>
      <path d="M30.55 32.7 Q29.75 32.1 28.9 32.25 L29.25 32.6 Q29.4 33.0 29.15 33.7 L29.05 33.85 28.2 35.35 Q27.55 35.8 27.15 36.4 L27.95 37.7 Q26.3 38.65 24.7 36.15 24.35 34.7 25.1 33.6 L25.4 33.2 Q26.85 32.0 28.3 32.1 L28.9 32.25 M30.55 32.7 Q30.95 33.35 30.95 33.95 31.0 34.55 30.65 35.25 L30.3 35.75 29.55 34.85 28.2 35.35 M24.7 36.15 Q25.9 36.95 26.9 36.75 L27.15 36.4" fill="none" stroke="#000000" stroke-linecap="round" stroke-linejoin="round" stroke-opacity="0.3019608" stroke-width="0.30000000000000004"/>
      <path d="M26.3 35.45 L26.6 35.15 Q27.1 34.7 27.55 34.4 26.55 35.45 27.15 35.8 28.05 36.15 29.3 35.35 29.9 34.8 29.75 34.45 30.0 35.0 29.75 35.6 L28.2 37.05 Q27.2 37.7 26.3 37.4 25.9 37.0 26.3 35.45 M30.1 34.15 Q30.9 33.95 31.7 34.6 31.8 35.45 31.5 35.8 L31.25 36.05 31.2 36.05 Q30.75 36.1 30.45 35.75 L30.3 35.55 30.45 34.45 30.1 34.15" fill="#aa772b" fill-rule="evenodd" stroke="none"/>
      <path d="M31.7 34.6 Q32.1 35.2 32.1 35.85 32.15 36.45 31.8 37.1 L31.5 37.6 30.75 36.75 Q30.0 36.9 29.4 37.25 L28.3 38.3 29.15 39.55 Q27.45 40.5 25.85 38.0 25.55 36.55 26.3 35.45 25.9 37.0 26.3 37.4 27.2 37.7 28.2 37.05 L29.75 35.6 Q30.0 35.0 29.75 34.45 L29.45 34.0 30.1 34.15 30.45 34.45 30.3 35.55 30.45 35.75 Q30.75 36.1 31.2 36.05 L31.25 36.05 31.5 35.8 Q31.8 35.45 31.7 34.6 M28.3 38.3 L28.05 38.6 Q27.05 38.85 25.85 38.0 27.05 38.85 28.05 38.6 L28.3 38.3 M29.4 37.25 L30.2 35.75 30.3 35.55 30.2 35.75 29.4 37.25" fill="#825a20" fill-rule="evenodd" stroke="none"/>
      <path d="M27.55 34.4 Q28.5 33.9 29.45 34.0 L29.75 34.45 Q29.9 34.8 29.3 35.35 28.05 36.15 27.15 35.8 26.55 35.45 27.55 34.4" fill="#be8830" fill-rule="evenodd" stroke="none"/>
      <path d="M31.7 34.6 Q32.1 35.2 32.1 35.85 32.15 36.45 31.8 37.1 L31.5 37.6 30.75 36.75 Q30.0 36.9 29.4 37.25 L28.3 38.3 29.15 39.55 Q27.45 40.5 25.85 38.0 25.55 36.55 26.3 35.45 L26.6 35.15 Q27.1 34.7 27.55 34.4 28.5 33.9 29.45 34.0 L30.1 34.15 Q30.9 33.95 31.7 34.6 M30.3 35.55 L30.2 35.75 29.4 37.25 M25.85 38.0 Q27.05 38.85 28.05 38.6 L28.3 38.3 M30.3 35.55 L30.45 34.45 30.1 34.15" fill="none" stroke="#000000" stroke-linecap="round" stroke-linejoin="round" stroke-opacity="0.3019608" stroke-width="0.30000000000000004"/>
      <path d="M15.5 43.95 Q14.6 43.45 14.5 42.35 L14.3 41.2 14.3 39.5 Q14.6 37.45 16.4 36.3 17.4 33.3 19.15 31.3 20.05 28.6 21.8 27.25 21.7 25.3 22.95 24.35 24.35 24.45 24.95 27.9 L24.85 30.65 Q24.65 33.45 23.4 36.75 L23.1 37.7 22.65 38.7 21.45 41.15 Q19.1 43.9 16.2 44.15 L15.5 43.95 M13.55 39.75 Q13.75 42.0 14.55 43.1 14.95 46.55 16.4 46.9 21.95 46.8 24.35 41.35 25.95 34.05 27.25 29.85 28.25 27.6 25.6 24.95 L27.0 26.2 Q28.7 28.5 27.35 31.7 25.65 37.25 25.2 41.45 22.9 46.4 18.55 47.5 15.2 48.6 14.1 44.55 L13.7 42.75 10.45 44.3 8.75 44.25 Q7.45 43.85 7.35 42.05 7.2 39.4 8.25 37.55 7.8 39.15 8.15 39.85 7.7 42.1 8.5 43.35 9.95 44.5 13.6 41.65 L13.55 39.75 M21.5 23.8 L21.9 23.95 19.55 27.35 Q17.45 28.9 16.6 31.25 L16.0 31.95 Q14.55 33.6 13.75 35.7 12.3 36.9 12.3 38.2 11.6 39.5 10.4 40.05 L8.95 39.9 Q7.9 38.45 9.2 36.8 L16.7 29.65 21.5 23.8 M13.6 41.65 L13.7 42.75 13.6 41.65" fill="#e6d795" fill-rule="evenodd" stroke="none"/>
      <path d="M24.95 27.9 Q24.95 25.35 23.6 24.05 24.55 24.2 25.6 24.95 28.25 27.6 27.25 29.85 25.95 34.05 24.35 41.35 21.95 46.8 16.4 46.9 14.95 46.55 14.55 43.1 L15.5 43.95 16.2 44.15 Q19.1 43.9 21.45 41.15 L22.65 38.7 23.1 37.7 23.4 36.75 Q24.65 33.45 24.85 30.65 L24.95 27.9 M22.3 24.2 Q21.15 25.35 21.1 27.5 19.2 28.9 18.65 31.25 16.6 33.1 15.95 35.8 14.25 36.7 13.7 38.9 L13.55 39.75 13.6 41.65 Q9.95 44.5 8.5 43.35 7.7 42.1 8.15 39.85 8.45 40.4 9.3 40.35 L10.4 40.05 Q11.6 39.5 12.3 38.2 12.3 36.9 13.75 35.7 14.55 33.6 16.0 31.95 L16.6 31.25 Q17.45 28.9 19.55 27.35 L21.9 23.95 22.3 24.2" fill="#ddc877" fill-rule="evenodd" stroke="none"/>
      <path d="M24.95 27.9 Q24.35 24.45 22.95 24.35 21.7 25.3 21.8 27.25 20.05 28.6 19.15 31.3 17.4 33.3 16.4 36.3 14.6 37.45 14.3 39.5 L14.3 41.2 14.5 42.35 Q14.6 43.45 15.5 43.95 L14.55 43.1 Q13.75 42.0 13.55 39.75 L13.7 38.9 Q14.25 36.7 15.95 35.8 16.6 33.1 18.65 31.25 19.2 28.9 21.1 27.5 21.15 25.35 22.3 24.2 L23.6 24.05 Q24.95 25.35 24.95 27.9 M8.25 37.55 L8.25 37.45 8.8 36.65 Q17.7 28.8 21.05 23.9 L21.5 23.8 16.7 29.65 9.2 36.8 Q7.9 38.45 8.95 39.9 L10.4 40.05 9.3 40.35 Q8.45 40.4 8.15 39.85 7.8 39.15 8.25 37.55" fill="#ece0b5" fill-rule="evenodd" stroke="none"/>
      <path d="M23.6 24.05 L22.3 24.2 Q21.15 25.35 21.1 27.5 19.2 28.9 18.65 31.25 16.6 33.1 15.95 35.8 14.25 36.7 13.7 38.9 L13.55 39.75 13.6 41.65 13.7 42.75 10.45 44.3 8.75 44.25 Q7.45 43.85 7.35 42.05 7.2 39.4 8.25 37.55 M21.9 23.95 L22.3 24.2 M23.6 24.05 Q24.55 24.2 25.6 24.95 L27.0 26.2 Q28.7 28.5 27.35 31.7 25.65 37.25 25.2 41.45 22.9 46.4 18.55 47.5 15.2 48.6 14.1 44.55 L13.7 42.75 M8.25 37.45 L8.8 36.65 Q17.7 28.8 21.05 23.9 L21.5 23.8 21.9 23.95" fill="none" stroke="#000000" stroke-linecap="round" stroke-linejoin="round" stroke-opacity="0.3019608" stroke-width="0.30000000000000004"/>
      <path d="M17.35 36.4 Q15.75 35.3 14.4 35.75 16.5 34.6 17.35 36.4 M19.95 31.95 Q18.35 30.85 17.0 31.3 19.1 30.15 19.95 31.95 M22.55 28.05 Q20.95 26.95 19.6 27.35 21.75 26.25 22.55 28.05" fill="#c4803c" fill-rule="evenodd" stroke="none"/>
      <path d="M22.55 28.05 Q21.75 26.25 19.6 27.35 20.95 26.95 22.55 28.05 M19.95 31.95 Q19.1 30.15 17.0 31.3 18.35 30.85 19.95 31.95 M17.35 36.4 Q16.5 34.6 14.4 35.75 15.75 35.3 17.35 36.4" fill="none" stroke="#000000" stroke-linecap="round" stroke-linejoin="round" stroke-opacity="0.3019608" stroke-width="0.30000000000000004"/>
      <path d="M22.6 43.2 Q20.85 40.6 18.9 39.7 21.75 40.5 22.6 43.2" fill="#cfb341" fill-opacity="0.7921569" fill-rule="evenodd" stroke="none"/>
      <path d="M20.85 44.2 Q20.4 41.45 18.85 40.25 21.3 41.55 20.85 44.2" fill="#cfb341" fill-opacity="0.7921569" fill-rule="evenodd" stroke="none"/>
      <path d="M18.95 43.3 Q21.4 41.7 21.8 40.0 21.8 42.45 18.95 43.3" fill="#cfb341" fill-opacity="0.7921569" fill-rule="evenodd" stroke="none"/>
      <path d="M20.3 23.75 Q20.15 24.85 20.9 25.05 L23.95 25.5 24.5 25.1 Q25.0 24.85 25.65 24.75 L26.45 24.7 Q27.05 24.95 26.8 24.2 L27.6 25.35 25.75 25.05 25.7 25.05 Q25.25 25.1 24.9 25.3 L23.95 25.9 24.85 26.2 26.2 27.9 27.25 28.25 Q28.05 28.55 28.8 29.1 29.3 29.1 29.3 28.4 L29.5 29.7 29.25 29.95 Q28.35 29.1 27.45 28.7 26.7 28.35 26.0 28.3 L24.65 26.45 23.85 26.05 23.95 25.9 23.85 26.05 Q21.65 25.1 19.8 25.55 L19.25 26.2 Q18.7 25.95 18.5 25.45 L18.35 25.05 18.35 24.95 18.4 25.0 Q18.85 25.65 19.3 25.55 L19.85 25.25 Q19.85 24.35 20.3 23.75 M26.1 28.55 Q26.9 28.7 27.65 29.15 L28.9 30.25 27.25 31.7 Q26.85 29.95 26.1 28.55 M19.85 25.25 L19.8 25.55 19.85 25.25" fill="#aa772b" fill-rule="evenodd" stroke="none"/>
      <path d="M21.05 23.0 L21.1 23.3 21.25 23.65 Q21.55 24.05 22.2 24.35 L23.45 24.6 24.85 24.55 25.4 24.3 Q25.9 23.95 25.85 23.45 L26.8 24.2 Q27.05 24.95 26.45 24.7 L25.65 24.75 Q25.0 24.85 24.5 25.1 L23.95 25.5 20.9 25.05 Q20.15 24.85 20.3 23.75 L20.35 23.65 20.65 23.35 21.05 23.0 20.65 23.35 20.35 23.65 20.3 23.75 Q19.85 24.35 19.85 25.25 L19.3 25.55 Q18.85 25.65 18.4 25.0 L18.35 24.95 18.3 24.8 18.3 24.05 18.4 23.35 18.65 24.55 18.7 24.6 Q18.9 25.2 19.3 24.8 L19.45 24.2 Q19.65 23.5 20.15 23.15 20.3 22.95 20.55 22.85 20.9 22.3 20.35 22.15 L22.05 22.55 Q21.5 22.7 21.05 23.0 M28.9 30.25 L27.65 29.15 Q26.9 28.7 26.1 28.55 L26.0 28.3 Q26.7 28.35 27.45 28.7 28.35 29.1 29.25 29.95 L28.9 30.25 M29.3 28.4 Q29.3 29.1 28.8 29.1 28.05 28.55 27.25 28.25 L26.2 27.9 24.85 26.2 23.95 25.9 24.9 25.3 Q25.25 25.1 25.7 25.05 L25.4 25.5 Q25.25 26.0 25.8 26.5 L26.75 27.15 28.1 27.25 Q28.8 26.95 28.0 25.8 28.95 26.9 29.3 28.4 M19.25 26.2 L18.7 26.8 Q18.2 26.25 18.05 25.7 L17.9 25.15 18.15 25.5 18.5 25.45 Q18.7 25.95 19.25 26.2" fill="#be8830" fill-rule="evenodd" stroke="none"/>
      <path d="M25.85 23.45 Q25.9 23.95 25.4 24.3 L24.85 24.55 23.45 24.6 22.2 24.35 Q21.55 24.05 21.25 23.65 L21.1 23.3 21.05 23.0 Q21.5 22.7 22.05 22.55 L22.5 22.55 Q23.65 22.5 24.8 23.0 L25.75 23.4 25.85 23.45 M18.4 23.35 L18.8 22.6 18.9 22.55 Q19.3 22.3 19.85 22.2 L20.35 22.15 Q20.9 22.3 20.55 22.85 20.3 22.95 20.15 23.15 19.65 23.5 19.45 24.2 L19.3 24.8 Q18.9 25.2 18.7 24.6 L18.65 24.55 18.4 23.35 M28.0 25.8 Q28.8 26.95 28.1 27.25 L26.75 27.15 25.8 26.5 Q25.25 26.0 25.4 25.5 L25.7 25.05 25.75 25.05 27.6 25.35 28.0 25.8 M17.9 25.15 L17.9 25.0 Q17.95 24.5 18.3 24.05 L18.3 24.8 18.35 24.95 18.35 25.05 18.5 25.45 18.15 25.5 17.9 25.15" fill="#cc9933" fill-rule="evenodd" stroke="none"/>
      <path d="M25.85 23.45 L25.75 23.4 24.8 23.0 Q23.65 22.5 22.5 22.55 L22.05 22.55 Q21.5 22.7 21.05 23.0 L20.65 23.35 20.35 23.65 20.3 23.75 Q19.85 24.35 19.85 25.25 L19.8 25.55 19.25 26.2 18.7 26.8 Q18.2 26.25 18.05 25.7 L17.9 25.15 17.9 25.0 Q17.95 24.5 18.3 24.05 L18.4 23.35 18.8 22.6 18.9 22.55 Q19.3 22.3 19.85 22.2 L20.35 22.15 22.05 22.55 M26.8 24.2 L25.85 23.45 M28.9 30.25 L29.25 29.95 Q28.35 29.1 27.45 28.7 26.7 28.35 26.0 28.3 L26.1 28.55 Q26.85 29.95 27.25 31.7 L28.9 30.25 M29.25 29.95 L29.5 29.7 29.3 28.4 Q28.95 26.9 28.0 25.8 L27.6 25.35 25.75 25.05 25.7 25.05 Q25.25 25.1 24.9 25.3 L23.95 25.9 23.85 26.05 24.65 26.45 26.0 28.3 M23.85 26.05 Q21.65 25.1 19.8 25.55 M18.3 24.05 L18.3 24.8 18.35 24.95 18.35 25.05 18.5 25.45 Q18.7 25.95 19.25 26.2 M27.6 25.35 L26.8 24.2" fill="none" stroke="#000000" stroke-linecap="round" stroke-linejoin="round" stroke-opacity="0.3019608" stroke-width="0.30000000000000004"/>
      <path d="M36.7 28.15 Q34.9 28.85 33.85 30.05 33.3 30.75 32.9 31.6 30.9 32.75 28.3 32.65 24.15 31.95 24.4 30.15 L24.8 29.65 25.4 29.15 26.15 29.05 28.2 29.1 31.2 29.0 36.7 28.15 M34.2 36.1 L35.05 36.65 Q29.95 35.8 25.7 33.9 L24.8 33.05 Q29.05 34.9 34.2 36.1" fill="#e6d795" fill-rule="evenodd" stroke="none"/>
      <path d="M28.3 32.65 L32.6 32.5 Q32.25 34.75 34.2 36.1 29.05 34.9 24.8 33.05 24.3 32.35 24.25 31.45 24.15 30.7 24.4 30.15 24.15 31.95 28.3 32.65 M40.45 35.0 Q37.45 36.75 35.25 36.05 32.65 34.0 33.75 31.85 35.85 28.4 38.6 28.45 40.6 28.6 41.9 30.95 42.0 32.2 41.25 34.0 L40.45 35.0 M38.25 32.95 Q38.8 33.55 38.6 34.8 39.55 33.55 38.7 32.5 39.3 31.4 38.95 30.4 38.6 31.65 37.85 32.65 37.1 33.55 35.9 34.2 37.7 34.0 38.25 32.95 M35.7 34.3 L35.9 34.2 35.7 34.3" fill="#ddc877" fill-rule="evenodd" stroke="none"/>
      <path d="M38.25 32.95 L37.85 32.65 38.25 32.95 Q37.7 34.0 35.9 34.2 37.1 33.55 37.85 32.65 38.6 31.65 38.95 30.4 39.3 31.4 38.7 32.5 39.55 33.55 38.6 34.8 38.8 33.55 38.25 32.95" fill="#cfb341" fill-rule="evenodd" stroke="none"/>
      <path d="M36.7 28.15 L36.9 28.1 39.95 28.25 Q41.75 29.05 41.9 30.95 40.6 28.6 38.6 28.45 35.85 28.4 33.75 31.85 32.65 34.0 35.25 36.05 37.45 36.75 40.45 35.0 38.65 36.75 35.8 36.8 L35.05 36.65 34.2 36.1 Q32.25 34.75 32.6 32.5 L28.3 32.65 Q30.9 32.75 32.9 31.6 33.3 30.75 33.85 30.05 34.9 28.85 36.7 28.15" fill="#ece0b5" fill-rule="evenodd" stroke="none"/>
      <path d="M41.9 30.95 Q41.75 29.05 39.95 28.25 L36.9 28.1 36.7 28.15 31.2 29.0 28.2 29.1 26.15 29.05 25.4 29.15 M35.05 36.65 L35.8 36.8 Q38.65 36.75 40.45 35.0 L41.25 34.0 Q42.0 32.2 41.9 30.95 M37.85 32.65 L38.25 32.95 Q38.8 33.55 38.6 34.8 M38.95 30.4 Q38.6 31.65 37.85 32.65 37.1 33.55 35.9 34.2 L35.7 34.3 M24.8 33.05 L25.7 33.9 Q29.95 35.8 35.05 36.65" fill="none" stroke="#000000" stroke-linecap="round" stroke-linejoin="round" stroke-opacity="0.3019608" stroke-width="0.30000000000000004"/>
    </g>
    <g id="shape2" transform="matrix(1.0, 0.0, 0.0, 1.0, -1.2, -8.45)">
      <path d="M16.45 29.75 L17.85 28.95 20.9 27.65 23.3 28.5 22.35 30.75 20.5 31.8 Q19.6 30.8 18.5 30.9 17.8 30.2 16.9 30.75 L16.45 29.75" fill="#dcc04e" fill-opacity="0.3019608" fill-rule="evenodd" stroke="none"/>
      <path d="M15.85 24.75 L15.6 24.25 17.2 23.65 17.6 25.05 15.85 24.75 M17.35 23.6 L18.75 23.05 19.0 24.2 17.75 24.9 17.35 23.6 M19.3 25.7 L19.55 27.0 Q19.05 26.75 18.7 27.9 L18.4 26.9 Q19.0 26.85 19.3 25.7 M17.75 29.35 L16.8 27.15 Q17.25 26.3 18.65 28.55 L19.0 29.8 17.8 29.55 17.75 29.35" fill="#cc6b22" fill-rule="evenodd" stroke="none"/>
      <path d="M17.6 25.05 L17.2 23.65 17.35 23.6 17.75 24.9 18.15 26.25 Q18.6 26.7 19.3 25.7 19.0 26.85 18.4 26.9 L18.7 27.9 19.25 29.7 19.0 29.8 18.65 28.55 17.6 25.05" fill="#ffff98" fill-rule="evenodd" stroke="none"/>
      <path d="M19.0 24.2 L19.3 25.7 Q18.6 26.7 18.15 26.25 L17.75 24.9 19.0 24.2 M19.55 27.0 L20.0 28.9 20.0 29.1 19.25 29.7 18.7 27.9 Q19.05 26.75 19.55 27.0" fill="#ffde4f" fill-rule="evenodd" stroke="none"/>
      <path d="M15.85 24.75 L17.6 25.05 18.65 28.55 Q17.25 26.3 16.8 27.15 L15.85 24.75" fill="#f4a33c" fill-rule="evenodd" stroke="none"/>
      <path d="M20.0 28.9 L20.7 29.0 19.1 30.1 17.35 29.5 17.75 29.35 17.8 29.55 19.0 29.8 19.25 29.7 20.0 29.1 20.0 28.9" fill="#000000" fill-opacity="0.3019608" fill-rule="evenodd" stroke="none"/>
      <path d="M17.2 23.65 L15.6 24.25 15.85 24.75 16.8 27.15 17.75 29.35 17.8 29.55 19.0 29.8 19.25 29.7 20.0 29.1 20.0 28.9 19.55 27.0 19.3 25.7 19.0 24.2 18.75 23.05 17.35 23.6 17.2 23.65 Z" fill="none" stroke="#000000" stroke-linecap="round" stroke-linejoin="round" stroke-opacity="0.3019608" stroke-width="0.30000000000000004"/>
      <path d="M16.05 19.8 L18.55 19.1 19.25 19.45 20.15 20.4 17.9 21.9 17.0 22.2 Q14.1 22.2 14.1 21.3 14.15 20.6 16.05 19.8 M15.4 25.0 L13.0 24.25 11.85 22.3 14.0 23.0 15.35 24.9 15.4 25.0" fill="#ffde4f" fill-rule="evenodd" stroke="none"/>
      <path d="M17.0 22.2 L17.9 21.9 20.15 20.4 19.25 19.45 20.7 20.35 18.8 21.85 19.1 23.2 18.15 22.2 14.75 23.3 15.35 24.9 14.0 23.0 11.85 22.3 14.0 20.4 12.7 22.05 14.6 22.85 17.0 22.2" fill="#ffff98" fill-rule="evenodd" stroke="none"/>
      <path d="M16.05 19.8 Q14.15 20.6 14.1 21.3 14.1 22.2 17.0 22.2 L14.6 22.85 12.7 22.05 14.0 20.4 16.05 19.8 M20.7 20.35 L20.9 22.45 19.5 23.95 19.1 23.2 18.8 21.85 20.7 20.35" fill="#f4a33c" fill-rule="evenodd" stroke="none"/>
      <path d="M19.5 23.95 L15.4 25.0 15.35 24.9 14.75 23.3 18.15 22.2 19.1 23.2 19.5 23.95" fill="#cc6b22" fill-rule="evenodd" stroke="none"/>
      <path d="M19.25 19.45 L18.55 19.1 16.05 19.8 14.0 20.4 11.85 22.3 13.0 24.25 15.4 25.0 19.5 23.95 20.9 22.45 20.7 20.35 19.25 19.45 Z" fill="none" stroke="#000000" stroke-linecap="round" stroke-linejoin="round" stroke-opacity="0.3019608" stroke-width="0.30000000000000004"/>
    </g>
    <g id="sprite1" transform="matrix(1.0, 0.0, 0.0, 1.0, 0.0, 0.0)">
      <use height="26.7" transform="matrix(0.0042, -1.3515, 1.3935, 0.02, 22.09, 56.0263)" width="26.7" xlink:href="#sprite2"/>
      <use height="26.7" transform="matrix(0.0095, -3.0486, 0.372, 0.0053, 36.507, 81.3775)" width="26.7" xlink:href="#sprite2"/>
      <use height="26.7" transform="matrix(3.0486, 0.0095, -0.0053, 0.372, 0.1225, 35.107)" width="26.7" xlink:href="#sprite2"/>
    </g>
    <g id="sprite2" transform="matrix(1.0, 0.0, 0.0, 1.0, 13.35, 13.35)">
      <use height="26.7" transform="matrix(1.0, 0.0, 0.0, 1.0, -13.35, -13.35)" width="26.7" xlink:href="#shape3"/>
    </g>
    <g id="shape3" transform="matrix(1.0, 0.0, 0.0, 1.0, 13.35, 13.35)">
      <path d="M9.3 -9.85 Q13.35 -5.8 13.35 0.0 13.35 5.8 9.3 9.3 5.8 13.35 0.0 13.35 -5.8 13.35 -9.85 9.3 -13.35 5.8 -13.35 0.0 -13.35 -5.8 -9.85 -9.85 -5.8 -13.35 0.0 -13.35 5.8 -13.35 9.3 -9.85" fill="url(#gradient0)" fill-rule="evenodd" stroke="none"/>
    </g>
    <radialGradient cx="0" cy="0" gradientTransform="matrix(0.0213, 0.0, 0.0, 0.0213, 0.0, 0.0)" gradientUnits="userSpaceOnUse" id="gradient0" r="819.2" spreadMethod="pad">
      <stop offset="0.19607843137254902" stop-color="#fee3bc" stop-opacity="0.3882353"/>
      <stop offset="0.5019607843137255" stop-color="#fee3bc" stop-opacity="0.0627451"/>
      <stop offset="0.7607843137254902" stop-color="#ffe3bd" stop-opacity="0.0"/>
    </radialGradient>
  </defs>
</svg>
