<?xml version="1.0" encoding="UTF-8" standalone="no"?>
<svg xmlns:xlink="http://www.w3.org/1999/xlink" height="52.0px" width="52.0px" xmlns="http://www.w3.org/2000/svg">
  <g transform="matrix(1.0, 0.0, 0.0, 1.0, 0.0, 0.0)">
    <use height="56.0" transform="matrix(1.0, 0.0, 0.0, 1.0, -2.0, -2.0)" width="56.0" xlink:href="#shape0"/>
    <use height="0.0" transform="matrix(0.1105, 0.0, 0.0, 0.0801, 31.35, 17.65)" width="0.0" xlink:href="#sprite0"/>
    <use height="0.0" transform="matrix(0.0873, -0.0057, 0.0, 0.0584, 34.2, 33.5)" width="0.0" xlink:href="#sprite0"/>
    <use height="0.0" transform="matrix(0.0844, 0.0352, -0.0428, 0.0949, 19.75, 35.6)" width="0.0" xlink:href="#sprite0"/>
    <use height="0.0" transform="matrix(0.0181, 0.0076, -0.0167, 0.0371, 13.05, 43.3)" width="0.0" xlink:href="#sprite0"/>
    <use height="0.0" transform="matrix(0.0181, 0.0076, -0.0167, 0.0371, 16.6, 44.9)" width="0.0" xlink:href="#sprite0"/>
    <use height="0.0" transform="matrix(0.117, 0.0488, -0.0167, 0.0371, 24.25, 25.15)" width="0.0" xlink:href="#sprite0"/>
    <use height="81.5" transform="matrix(0.1854, 0.0, 0.0, 0.1854, 27.65, 24.4)" width="81.5" xlink:href="#sprite1"/>
  </g>
  <defs>
    <g id="shape0" transform="matrix(1.0, 0.0, 0.0, 1.0, 2.0, 2.0)">
      <path d="M52.0 0.0 L52.0 52.0 0.0 52.0 0.0 0.0 52.0 0.0" fill="#795fa9" fill-opacity="0.0" fill-rule="evenodd" stroke="none"/>
      <path d="M34.8 3.15 Q33.65 2.7 32.95 3.55 L32.45 7.25 31.2 11.4 26.7 12.0 Q24.05 12.9 21.85 14.7 L20.4 16.05 18.9 14.55 Q15.9 14.55 13.7 16.7 L13.45 17.25 Q11.75 20.7 11.9 22.55 11.8 26.5 13.7 29.25 L13.55 29.95 13.4 30.9 11.1 30.75 10.3 29.35 10.25 29.35 Q9.45 29.2 8.9 29.6 L8.8 29.65 8.55 29.95 9.45 30.95 9.25 31.65 Q8.6 32.05 8.05 32.4 L8.0 32.4 Q8.6 33.45 9.8 33.1 L10.8 32.1 13.0 32.75 12.6 34.9 9.55 35.55 8.4 34.35 8.4 34.4 Q7.55 34.45 7.15 35.05 L7.05 35.15 6.9 35.4 7.95 36.2 8.0 36.85 7.0 37.95 Q7.85 38.8 8.9 38.1 L9.6 36.95 12.2 37.0 11.5 40.55 11.55 40.55 11.45 40.8 11.45 40.85 11.45 40.9 11.4 40.9 Q11.3 41.5 11.6 42.15 L11.75 42.5 10.5 45.9 10.5 45.95 10.5 45.9 10.45 46.0 10.5 46.4 10.55 46.65 11.25 47.4 12.3 47.7 12.45 47.65 12.6 47.6 12.8 47.55 12.9 47.4 12.9 47.35 12.95 47.3 14.25 44.95 14.75 45.25 15.0 45.4 13.75 47.5 13.75 47.55 13.7 47.55 13.65 47.6 13.65 48.0 13.65 48.25 14.3 48.9 15.35 49.2 15.55 49.2 15.65 49.15 15.85 49.1 16.05 48.95 16.05 48.9 18.3 46.15 19.05 46.1 19.3 46.0 19.55 45.95 19.9 45.7 19.95 45.7 19.95 45.75 20.15 45.65 20.35 45.55 20.5 45.45 23.7 43.3 23.75 43.2 25.1 45.35 24.45 46.55 Q24.45 47.85 25.6 48.15 L25.6 48.1 26.0 46.7 26.6 46.35 27.8 46.9 28.0 46.55 28.05 46.45 Q28.25 45.8 27.95 45.15 L27.9 45.05 26.3 44.7 25.3 41.85 27.6 39.85 29.65 41.75 29.35 43.05 Q29.65 44.3 30.85 44.25 L30.85 42.8 31.35 42.35 32.7 42.55 32.75 42.2 32.8 42.05 Q32.8 41.35 32.3 40.8 L32.25 40.7 30.65 40.8 29.15 38.6 29.8 37.95 34.5 38.4 35.35 38.4 37.0 37.85 37.0 37.9 Q39.9 36.7 41.65 34.0 L42.05 33.3 Q42.85 29.45 42.9 26.45 42.4 24.05 40.65 22.65 40.9 19.85 39.85 17.1 39.0 15.25 37.75 14.05 39.6 12.25 41.6 10.9 43.2 9.85 44.9 9.1 45.45 8.15 44.65 7.25 L44.4 7.0 44.1 6.8 Q43.2 6.25 42.45 6.8 L35.95 12.65 Q34.8 12.0 33.45 11.7 L36.0 5.05 Q36.25 4.1 35.45 3.5 L35.1 3.25 34.8 3.15 Z" fill="none" stroke="#000000" stroke-linecap="round" stroke-linejoin="round" stroke-opacity="0.3019608" stroke-width="1.0"/>
      <path d="M8.95 29.65 L10.1 29.6 10.2 29.6 11.05 31.05 13.2 31.15 12.75 31.55 10.9 31.35 10.1 29.8 9.95 29.75 8.85 29.65 8.95 29.65 M7.1 35.1 L7.15 35.05 Q7.75 34.7 8.25 34.7 L8.4 34.7 9.6 35.9 12.1 35.35 11.6 35.85 9.5 36.15 8.35 34.9 8.2 34.9 7.1 35.1" fill="#ffff98" fill-rule="evenodd" stroke="none"/>
      <path d="M13.2 31.15 L11.05 31.05 10.2 29.6 10.1 29.6 8.95 29.65 Q9.5 29.2 10.3 29.35 L11.1 30.75 13.6 30.9 13.2 31.15 M9.3 31.65 L9.1 31.8 8.4 32.45 8.85 32.85 9.65 32.85 9.7 32.85 10.8 31.85 12.1 32.25 11.9 32.45 10.85 32.1 9.9 33.05 Q8.65 33.45 8.05 32.4 L9.3 31.65 M12.6 34.95 L12.1 35.35 9.6 35.9 8.4 34.7 8.25 34.7 Q7.75 34.7 7.15 35.05 7.6 34.5 8.4 34.4 L8.45 34.4 9.6 35.6 12.6 34.95 M10.85 37.0 L9.65 36.95 8.95 38.1 Q7.9 38.8 7.05 37.95 L8.05 36.9 7.9 37.1 7.35 37.9 7.95 38.2 8.75 37.95 9.55 36.7 10.95 36.75 10.85 37.0" fill="#ffde4f" fill-rule="evenodd" stroke="none"/>
      <path d="M8.85 29.65 L9.95 29.75 10.1 29.8 10.9 31.35 12.75 31.55 12.1 32.2 12.1 32.25 10.8 31.85 9.7 32.85 9.65 32.85 Q8.75 32.8 9.1 31.8 L9.3 31.65 9.45 31.0 8.6 29.95 8.85 29.65 M11.9 32.45 L12.1 32.25 15.1 33.05 14.65 33.2 11.9 32.45 M14.0 36.75 L13.6 37.0 10.85 37.0 10.95 36.75 14.0 36.75 M8.05 36.9 L8.0 36.2 6.95 35.45 7.1 35.1 8.2 34.9 8.35 34.9 9.5 36.15 11.6 35.85 11.15 36.4 10.95 36.75 9.55 36.7 8.75 37.95 Q7.85 38.15 7.9 37.1 L8.05 36.9" fill="#f4a33c" fill-rule="evenodd" stroke="none"/>
      <path d="M12.75 31.55 L13.2 31.15 15.15 31.25 Q15.4 31.45 15.45 31.8 L12.75 31.55 M9.1 31.8 Q8.75 32.8 9.65 32.85 L8.85 32.85 8.4 32.45 9.1 31.8 M12.1 35.35 L13.6 35.0 14.0 35.45 11.6 35.85 12.1 35.35 M7.9 37.1 Q7.85 38.15 8.75 37.95 L7.95 38.2 7.35 37.9 7.9 37.1" fill="#cc6b22" fill-rule="evenodd" stroke="none"/>
      <path d="M13.2 31.15 L13.6 30.9 14.6 30.95 Q14.95 31.05 15.15 31.25 L13.2 31.15 M12.1 32.25 L12.1 32.2 12.75 31.55 15.45 31.8 15.45 32.15 15.1 33.05 12.1 32.25 M12.6 34.95 L13.0 34.85 13.6 35.0 12.1 35.35 12.6 34.95 M14.0 35.45 L14.1 35.75 14.0 36.75 10.95 36.75 11.15 36.4 11.6 35.85 14.0 35.45" fill="#a34100" fill-rule="evenodd" stroke="none"/>
      <path d="M13.6 30.9 L11.1 30.75 10.3 29.35 Q9.5 29.2 8.95 29.65 L8.85 29.65 8.6 29.95 9.45 31.0 9.3 31.65 8.05 32.4 Q8.65 33.45 9.9 33.05 L10.85 32.1 11.9 32.45 14.65 33.2 15.1 33.05 15.45 32.15 15.45 31.8 Q15.4 31.45 15.15 31.25 14.95 31.05 14.6 30.95 L13.6 30.9 M13.6 35.0 L13.0 34.85 12.6 34.95 9.6 35.6 8.45 34.4 8.4 34.4 Q7.6 34.5 7.15 35.05 L7.1 35.1 6.95 35.45 8.0 36.2 8.05 36.9 7.05 37.95 Q7.9 38.8 8.95 38.1 L9.65 36.95 10.85 37.0 13.6 37.0 14.0 36.75 14.1 35.75 14.0 35.45 13.6 35.0" fill="none" stroke="#000000" stroke-linecap="round" stroke-linejoin="round" stroke-opacity="0.3019608" stroke-width="0.30000000000000004"/>
      <path d="M32.0 12.45 Q33.25 9.85 34.1 7.25 L35.15 3.3 35.45 3.55 34.5 7.3 32.1 13.6 31.55 13.3 32.0 12.45" fill="#f4a33c" fill-rule="evenodd" stroke="none"/>
      <path d="M31.0 13.0 Q32.25 10.5 32.9 7.25 L33.4 3.75 33.9 3.3 Q35.0 3.35 34.55 5.05 33.9 8.05 32.0 12.45 L31.55 13.3 31.0 13.0 M35.45 3.55 Q36.3 4.15 36.05 5.05 L32.65 13.9 32.1 13.6 34.5 7.3 35.45 3.55" fill="#ffde4f" fill-rule="evenodd" stroke="none"/>
      <path d="M31.0 13.0 L30.65 12.8 Q31.9 10.0 32.5 7.25 L33.0 3.55 Q33.7 2.75 34.85 3.15 L35.15 3.3 34.1 7.25 Q33.25 9.85 32.0 12.45 33.9 8.05 34.55 5.05 35.0 3.35 33.9 3.3 L33.4 3.75 32.9 7.25 Q32.25 10.5 31.0 13.0" fill="#ffff98" fill-rule="evenodd" stroke="none"/>
      <path d="M35.15 3.3 L34.85 3.15 Q33.7 2.75 33.0 3.55 L32.5 7.25 Q31.9 10.0 30.65 12.8 L31.0 13.0 31.55 13.3 32.1 13.6 32.65 13.9 36.05 5.05 Q36.3 4.15 35.45 3.55 L35.15 3.3 Z" fill="none" stroke="#000000" stroke-linecap="round" stroke-linejoin="round" stroke-opacity="0.3019608" stroke-width="0.30000000000000004"/>
      <path d="M44.1 6.8 L44.4 7.05 Q42.7 8.1 41.1 9.45 38.65 11.45 36.35 14.0 L35.9 13.6 40.95 9.05 Q42.8 7.6 44.1 6.8" fill="#ffff98" fill-rule="evenodd" stroke="none"/>
      <path d="M35.9 13.6 L35.4 13.2 42.45 6.85 44.1 6.8 Q42.8 7.6 40.95 9.05 L35.9 13.6 M44.7 7.3 Q45.5 8.2 44.95 9.1 43.25 9.85 41.65 10.95 39.35 12.45 37.2 14.65 L36.9 14.4 Q38.7 12.3 41.5 10.55 42.95 9.65 44.65 8.8 45.2 8.1 44.7 7.3" fill="#ffde4f" fill-rule="evenodd" stroke="none"/>
      <path d="M44.4 7.05 L44.7 7.3 Q45.2 8.1 44.65 8.8 42.95 9.65 41.5 10.55 38.7 12.3 36.9 14.4 L36.35 14.0 Q38.65 11.45 41.1 9.45 42.7 8.1 44.4 7.05" fill="#f4a33c" fill-rule="evenodd" stroke="none"/>
      <path d="M35.9 13.6 L35.4 13.2 42.45 6.85 44.1 6.8 44.4 7.05 44.7 7.3 Q45.5 8.2 44.95 9.1 43.25 9.85 41.65 10.95 39.35 12.45 37.2 14.65 L36.9 14.4 36.35 14.0 35.9 13.6 Z" fill="none" stroke="#000000" stroke-linecap="round" stroke-linejoin="round" stroke-opacity="0.3019608" stroke-width="0.30000000000000004"/>
      <path d="M35.0 27.45 L35.0 27.4 35.0 27.45" fill="#f49302" fill-rule="evenodd" stroke="none"/>
      <path d="M28.15 12.25 L27.05 12.5 Q24.6 13.35 22.55 15.0 20.1 17.05 18.25 20.25 L26.15 23.65 35.0 27.4 35.0 27.45 37.65 28.55 Q39.5 25.6 39.85 22.55 40.2 19.85 39.1 17.15 38.1 14.75 36.2 13.45 L34.75 12.65 34.7 12.65 33.8 12.3 Q36.0 13.45 34.1 16.5 32.35 18.9 30.8 20.2 36.95 13.2 31.95 12.0 L28.15 12.25 M21.9 14.75 Q24.1 12.95 26.8 12.0 36.15 9.6 39.95 17.1 41.05 20.0 40.7 22.9 40.3 26.2 38.25 29.4 L17.25 20.4 Q19.2 16.9 21.9 14.75" fill="#f9f8ec" fill-rule="evenodd" stroke="none"/>
      <path d="M28.15 12.25 L31.95 12.0 Q36.95 13.2 30.8 20.2 29.7 21.1 28.7 21.5 25.85 22.55 23.55 20.0 22.2 17.65 23.55 15.5 24.9 13.35 28.15 12.25" fill="#f0f0d2" fill-rule="evenodd" stroke="none"/>
      <path d="M30.8 20.2 Q32.35 18.9 34.1 16.5 36.0 13.45 33.8 12.3 L34.7 12.65 34.75 12.65 36.2 13.45 Q41.05 18.5 35.0 27.4 L26.15 23.65 28.7 21.5 Q29.7 21.1 30.8 20.2" fill="#bfbf40" fill-rule="evenodd" stroke="none"/>
      <path d="M26.15 23.65 L18.25 20.25 Q20.1 17.05 22.55 15.0 24.6 13.35 27.05 12.5 L28.15 12.25 Q24.9 13.35 23.55 15.5 22.2 17.65 23.55 20.0 25.85 22.55 28.7 21.5 L26.15 23.65 M36.2 13.45 Q38.1 14.75 39.1 17.15 40.2 19.85 39.85 22.55 39.5 25.6 37.65 28.55 L35.0 27.45 35.0 27.4 Q41.05 18.5 36.2 13.45" fill="#d5d580" fill-rule="evenodd" stroke="none"/>
      <path d="M21.9 14.75 Q24.1 12.95 26.8 12.0 36.15 9.6 39.95 17.1 41.05 20.0 40.7 22.9 40.3 26.2 38.25 29.4 L17.25 20.4 Q19.2 16.9 21.9 14.75 Z" fill="none" stroke="#000000" stroke-linecap="round" stroke-linejoin="round" stroke-opacity="0.3019608" stroke-width="0.30000000000000004"/>
      <path d="M34.85 17.95 L34.8 18.0 34.0 17.9 34.85 17.95" fill="#e6e4b3" fill-rule="evenodd" stroke="none"/>
      <path d="M36.0 19.25 Q36.35 19.95 36.5 19.65 36.65 20.5 36.15 21.4 35.6 21.65 35.9 20.75 36.2 20.0 36.0 19.25 M35.65 22.15 L34.35 23.0 32.2 23.15 Q31.2 22.8 30.9 21.75 30.65 21.0 31.0 20.2 30.8 20.8 31.0 21.4 31.25 22.3 32.15 22.65 L34.1 22.5 35.15 21.8 Q35.7 21.35 35.65 22.15 M33.2 20.9 L33.5 20.8 34.85 19.6 35.15 18.65 35.55 19.3 Q35.75 20.05 35.3 20.9 L33.95 22.05 32.3 22.2 Q31.5 21.9 31.25 21.1 L31.2 20.5 Q31.45 20.8 31.85 20.9 L33.15 20.95 33.2 20.9" fill="#f4a33c" fill-rule="evenodd" stroke="none"/>
      <path d="M34.85 17.95 L35.05 18.0 35.15 18.0 Q36.15 18.4 36.4 19.4 L36.5 19.65 Q36.35 19.95 36.0 19.25 35.8 18.5 35.15 18.15 L34.8 18.0 34.85 17.95 M31.2 20.5 L31.3 20.05 31.5 19.55 Q32.0 18.75 32.85 18.35 L33.85 18.15 34.5 18.25 34.7 18.35 Q35.3 19.65 33.2 20.9 L33.15 20.95 31.85 20.9 Q31.45 20.8 31.2 20.5" fill="#ffde4f" fill-rule="evenodd" stroke="none"/>
      <path d="M34.8 18.0 L35.15 18.15 Q35.8 18.5 36.0 19.25 36.2 20.0 35.9 20.75 35.6 21.65 36.15 21.4 L36.1 21.45 35.65 22.15 Q35.7 21.35 35.15 21.8 L34.1 22.5 32.15 22.65 Q31.25 22.3 31.0 21.4 30.8 20.8 31.0 20.2 L31.0 20.1 31.25 19.55 Q31.8 18.6 32.85 18.1 L34.0 17.9 34.8 18.0 M33.2 20.9 Q35.3 19.65 34.7 18.35 L34.5 18.25 33.85 18.15 32.85 18.35 Q32.0 18.75 31.5 19.55 L31.3 20.05 31.2 20.5 31.25 21.1 Q31.5 21.9 32.3 22.2 L33.95 22.05 35.3 20.9 Q35.75 20.05 35.55 19.3 L35.15 18.65 34.85 19.6 33.5 20.8 33.2 20.9" fill="#ffff98" fill-rule="evenodd" stroke="none"/>
      <path d="M36.5 19.65 L36.4 19.4 Q36.15 18.4 35.15 18.0 L35.05 18.0 34.85 17.95 34.0 17.9 32.85 18.1 Q31.8 18.6 31.25 19.55 L31.0 20.1 31.0 20.2 Q30.65 21.0 30.9 21.75 31.2 22.8 32.2 23.15 L34.35 23.0 35.65 22.15 36.1 21.45 36.15 21.4 Q36.65 20.5 36.5 19.65 Z" fill="none" stroke="#000000" stroke-linecap="round" stroke-linejoin="round" stroke-opacity="0.3019608" stroke-width="0.30000000000000004"/>
      <path d="M22.25 17.0 L22.25 17.1 22.25 17.0" fill="#cac960" fill-rule="evenodd" stroke="none"/>
      <path d="M24.3 17.75 Q26.25 16.45 25.65 15.1 L25.45 15.05 24.8 14.95 23.9 15.15 Q23.1 15.6 22.7 16.45 L22.55 16.9 22.5 17.4 22.55 18.0 Q22.8 18.8 23.5 19.05 L25.05 18.9 26.2 17.7 Q26.65 16.85 26.4 16.05 L26.05 15.45 25.8 16.4 Q25.4 17.2 24.6 17.6 L24.3 17.75 M22.25 17.1 L22.25 17.0 22.5 16.45 Q22.95 15.45 23.9 14.95 L24.95 14.7 25.7 14.8 26.0 14.95 Q26.6 15.25 26.85 16.0 L26.8 17.55 Q26.6 18.4 27.05 18.15 L27.05 18.25 26.6 18.95 Q26.65 18.15 26.15 18.65 25.8 19.1 25.2 19.35 L23.4 19.55 Q22.55 19.25 22.25 18.35 22.1 17.75 22.25 17.1" fill="#ffff98" fill-rule="evenodd" stroke="none"/>
      <path d="M22.5 17.4 L22.55 16.9 22.7 16.45 Q23.1 15.6 23.9 15.15 L24.8 14.95 25.45 15.05 25.65 15.1 Q26.25 16.45 24.3 17.75 L24.25 17.8 Q23.65 18.0 23.05 17.8 L22.5 17.4 M24.95 14.7 L25.95 14.8 26.0 14.8 Q26.95 15.15 27.25 16.1 L27.3 16.4 Q27.2 16.75 26.85 16.0 26.6 15.25 26.0 14.95 L25.7 14.8 24.95 14.7" fill="#ffde4f" fill-rule="evenodd" stroke="none"/>
      <path d="M24.3 17.75 L24.6 17.6 Q25.4 17.2 25.8 16.4 L26.05 15.45 26.4 16.05 Q26.65 16.85 26.2 17.7 L25.05 18.9 23.5 19.05 Q22.8 18.8 22.55 18.0 L22.5 17.4 23.05 17.8 Q23.65 18.0 24.25 17.8 L24.3 17.75 M26.6 18.95 Q26.15 19.5 25.45 19.85 L23.45 20.05 Q22.5 19.7 22.2 18.7 21.95 17.95 22.25 17.1 22.1 17.75 22.25 18.35 22.55 19.25 23.4 19.55 L25.2 19.35 Q25.8 19.1 26.15 18.65 26.65 18.15 26.6 18.95 M27.3 16.4 Q27.45 17.25 27.05 18.15 26.6 18.4 26.8 17.55 L26.85 16.0 Q27.2 16.75 27.3 16.4" fill="#f4a33c" fill-rule="evenodd" stroke="none"/>
      <path d="M22.25 17.0 L22.25 17.1 Q21.95 17.95 22.2 18.7 22.5 19.7 23.45 20.05 L25.45 19.85 Q26.15 19.5 26.6 18.95 L27.05 18.25 27.05 18.15 Q27.45 17.25 27.3 16.4 L27.25 16.1 Q26.95 15.15 26.0 14.8 L25.95 14.8 24.95 14.7 23.9 14.95 Q22.95 15.45 22.5 16.45 L22.25 17.0 Z" fill="none" stroke="#000000" stroke-linecap="round" stroke-linejoin="round" stroke-opacity="0.3019608" stroke-width="0.30000000000000004"/>
      <path d="M18.3 16.5 Q16.7 16.45 15.75 17.35 L15.4 17.75 Q14.95 19.2 15.05 20.35 14.8 18.05 15.45 17.3 16.4 15.95 18.35 16.05 L21.35 19.0 26.85 21.15 Q27.35 21.35 27.65 20.55 L27.8 20.25 27.9 20.65 27.65 21.45 31.2 22.8 32.95 23.5 38.75 23.5 Q40.1 24.15 39.05 26.75 L39.25 25.45 39.25 25.4 Q39.3 24.35 38.7 24.0 L32.9 23.95 21.3 19.5 18.3 16.5 M14.25 29.8 L13.95 29.45 Q11.85 26.65 11.95 22.55 11.8 20.7 13.45 17.3 L13.5 17.3 13.35 17.7 Q12.55 20.25 13.75 22.55 L14.35 23.25 Q17.8 27.25 23.2 29.2 L26.2 30.25 Q26.7 30.2 26.75 29.05 L26.7 28.8 26.85 29.1 27.15 30.5 28.95 30.95 31.65 31.35 35.2 31.5 Q37.9 30.85 39.8 29.15 L41.4 27.3 Q42.25 24.6 40.4 22.45 41.9 23.65 42.0 25.4 L41.9 26.45 Q41.45 28.4 39.6 29.9 L37.6 31.15 35.2 32.0 Q35.7 34.15 34.6 38.1 35.25 33.9 34.2 32.05 L28.8 31.5 Q25.9 30.9 23.05 29.75 L22.1 29.4 Q19.35 28.3 17.1 26.6 18.5 29.8 18.35 31.55 17.55 27.45 15.8 25.7 L14.1 23.8 13.55 23.1 13.0 21.75 Q11.8 24.6 14.25 29.8" fill="#f9f8ec" fill-rule="evenodd" stroke="none"/>
      <path d="M15.05 20.35 L15.05 20.75 15.2 21.5 15.6 22.35 15.75 22.6 16.5 23.3 16.85 23.6 18.55 24.9 Q19.7 25.7 21.05 26.3 L22.1 26.85 22.85 27.1 23.35 27.35 23.65 27.45 26.5 28.4 26.7 28.8 26.75 29.05 Q26.7 30.2 26.2 30.25 L23.2 29.2 Q17.8 27.25 14.35 23.25 L13.75 22.55 Q12.55 20.25 13.35 17.7 L13.5 17.3 13.5 17.25 13.75 16.75 Q15.9 14.55 18.95 14.6 L22.1 17.7 27.4 19.6 27.8 20.25 27.65 20.55 Q27.35 21.35 26.85 21.15 L21.35 19.0 18.35 16.05 Q16.4 15.95 15.45 17.3 14.8 18.05 15.05 20.35 M30.2 20.6 L34.1 21.95 40.2 22.3 40.4 22.45 Q42.45 23.85 42.95 26.45 42.95 29.45 42.1 33.35 L41.7 34.05 Q39.9 36.7 37.05 37.9 36.5 36.2 36.9 33.75 36.65 37.0 38.0 36.95 41.05 34.95 41.85 32.45 L42.4 28.25 Q42.45 26.15 42.0 25.4 41.9 23.65 40.4 22.45 42.25 24.6 41.4 27.3 L39.8 29.15 Q37.9 30.85 35.2 31.5 L31.65 31.35 30.6 30.35 Q30.2 29.8 30.8 29.3 L33.5 29.5 33.9 29.5 35.55 29.05 35.85 28.95 36.35 28.7 36.75 28.5 38.3 27.4 39.05 26.75 Q40.1 24.15 38.75 23.5 L32.95 23.5 31.2 22.8 30.25 21.65 Q30.0 21.1 30.2 20.6" fill="#f0f0d2" fill-rule="evenodd" stroke="none"/>
      <path d="M18.5 17.55 L18.3 16.5 21.3 19.5 21.35 20.2 20.95 20.0 19.7 20.0 19.4 19.35 18.5 17.55 M27.4 19.6 L30.2 20.6 Q30.0 21.1 30.25 21.65 L31.2 22.8 27.65 21.45 27.9 20.65 27.8 20.25 27.4 19.6 M37.05 37.9 L35.35 38.4 34.55 38.4 34.6 38.1 Q35.7 34.15 35.2 32.0 L37.6 31.15 36.9 33.75 Q36.5 36.2 37.05 37.9 M17.65 33.05 Q15.75 31.65 14.25 29.8 11.8 24.6 13.0 21.75 L13.55 23.1 14.1 23.8 15.8 25.7 Q17.55 27.45 18.35 31.55 18.3 32.55 17.65 33.05 M26.7 28.8 L26.5 28.4 27.55 28.65 28.75 28.95 29.2 29.0 29.5 29.1 30.8 29.3 Q30.2 29.8 30.6 30.35 L31.65 31.35 28.95 30.95 27.15 30.5 26.85 29.1 26.7 28.8" fill="#d5d580" fill-rule="evenodd" stroke="none"/>
      <path d="M21.35 20.2 L21.3 19.5 32.9 23.95 33.0 24.5 29.55 23.65 28.65 23.8 25.3 22.6 24.75 21.8 21.35 20.2 M34.55 38.4 Q28.8 38.3 23.4 36.1 L22.85 35.9 Q20.2 32.6 22.1 29.4 L23.05 29.75 Q25.9 30.9 28.8 31.5 L34.2 32.05 Q35.25 33.9 34.6 38.1 L34.55 38.4 M42.0 25.4 Q42.45 26.15 42.4 28.25 L41.85 32.45 Q41.05 34.95 38.0 36.95 36.65 37.0 36.9 33.75 L37.6 31.15 39.6 29.9 Q41.45 28.4 41.9 26.45 L42.0 25.4" fill="#bfbf40" fill-rule="evenodd" stroke="none"/>
      <path d="M18.5 17.55 Q17.3 17.5 16.45 18.0 L15.6 18.8 15.2 20.7 15.2 21.5 15.05 20.75 15.05 20.35 Q14.95 19.2 15.4 17.75 L15.75 17.35 Q16.7 16.45 18.3 16.5 L18.5 17.55 M33.0 24.5 L32.9 23.95 38.7 24.0 Q39.3 24.35 39.25 25.4 L38.9 25.0 34.7 25.55 33.65 24.65 33.0 24.5 M22.85 35.9 Q19.95 34.75 17.65 33.05 18.3 32.55 18.35 31.55 18.5 29.8 17.1 26.6 19.35 28.3 22.1 29.4 20.2 32.6 22.85 35.9 M13.5 17.3 L13.45 17.3 13.5 17.3" fill="#a6a637" fill-rule="evenodd" stroke="none"/>
      <path d="M23.0 21.4 L20.8 20.45 16.85 23.6 16.5 23.3 20.95 20.0 21.35 20.2 24.75 21.8 21.35 26.0 24.15 22.0 23.0 21.4 M29.55 23.65 L33.0 24.5 33.65 24.65 33.9 28.95 33.15 24.9 32.7 24.8 29.8 24.1 29.2 29.0 28.75 28.95 29.55 23.65 M23.35 27.35 L22.85 27.1 Q23.45 25.85 24.45 25.05 L25.35 24.45 26.5 24.1 27.15 24.05 Q24.5 24.4 23.35 27.35 M36.75 28.5 L36.35 28.7 Q36.2 27.6 36.45 26.9 L36.65 26.5 Q37.2 25.7 37.95 25.45 36.15 26.35 36.75 28.5" fill="#ffff98" fill-rule="evenodd" stroke="none"/>
      <path d="M18.55 24.9 Q18.1 23.9 19.15 22.7 L19.75 22.2 Q20.2 21.9 20.75 21.75 L23.0 21.4 24.15 22.0 21.35 26.0 21.05 26.3 Q19.7 25.7 18.55 24.9 M19.7 20.0 L20.95 20.0 16.5 23.3 15.75 22.6 19.7 20.0 M26.5 28.4 L23.65 27.45 23.35 27.35 Q24.5 24.4 27.15 24.05 L28.5 24.35 27.55 28.65 26.5 28.4 M39.05 26.75 L38.3 27.4 36.75 28.5 Q36.15 26.35 37.95 25.45 38.55 25.3 39.25 25.45 L39.05 26.75 M33.9 29.5 L33.5 29.5 30.8 29.3 Q30.0 28.15 30.45 26.45 L31.05 25.35 Q31.65 24.7 32.7 24.8 L33.15 24.9 33.9 28.95 33.9 29.5" fill="#ffde4f" fill-rule="evenodd" stroke="none"/>
      <path d="M15.2 21.5 L15.2 20.7 Q16.05 19.05 17.2 18.6 L17.45 18.5 Q18.25 18.3 19.4 19.35 L19.7 20.0 15.75 22.6 15.6 22.35 15.2 21.5 M23.0 21.4 L20.75 21.75 Q20.2 21.9 19.75 22.2 L19.15 22.7 Q18.1 23.9 18.55 24.9 L16.85 23.6 20.8 20.45 23.0 21.4 M25.3 22.6 L28.65 23.8 29.55 23.65 28.75 28.95 27.55 28.65 28.5 24.35 27.15 24.05 26.5 24.1 25.35 24.45 24.45 25.05 Q23.45 25.85 22.85 27.1 L22.1 26.85 25.3 22.6 M36.35 28.7 L35.85 28.95 35.55 29.05 34.7 25.55 38.9 25.0 39.25 25.4 39.25 25.45 Q38.55 25.3 37.95 25.45 37.2 25.7 36.65 26.5 L36.45 26.9 Q36.2 27.6 36.35 28.7 M28.5 24.35 L28.65 23.8 28.5 24.35 M30.8 29.3 L29.5 29.1 29.2 29.0 29.8 24.1 32.7 24.8 Q31.65 24.7 31.05 25.35 L30.45 26.45 Q30.0 28.15 30.8 29.3" fill="#f4a33c" fill-rule="evenodd" stroke="none"/>
      <path d="M15.2 20.7 L15.6 18.8 16.45 18.0 Q17.3 17.5 18.5 17.55 L19.4 19.35 Q18.25 18.3 17.45 18.5 L17.2 18.6 Q16.05 19.05 15.2 20.7 M21.05 26.3 L21.35 26.0 24.75 21.8 25.3 22.6 22.1 26.85 21.05 26.3 M35.55 29.05 L33.9 29.5 33.9 28.95 33.65 24.65 34.7 25.55 35.55 29.05" fill="#cc6b22" fill-rule="evenodd" stroke="none"/>
      <path d="M15.2 20.7 L15.6 18.8 16.45 18.0 Q17.3 17.5 18.5 17.55 L19.4 19.35 19.7 20.0 15.75 22.6 16.5 23.3 16.85 23.6 18.55 24.9 Q19.7 25.7 21.05 26.3 L22.1 26.85 25.3 22.6 28.65 23.8 29.55 23.65 33.0 24.5 33.65 24.65 34.7 25.55 38.9 25.0 39.25 25.4 39.25 25.45 39.05 26.75 38.3 27.4 36.75 28.5 36.35 28.7 35.85 28.95 35.55 29.05 33.9 29.5 33.5 29.5 30.8 29.3 29.5 29.1 29.2 29.0 28.75 28.95 27.55 28.65 26.5 28.4 23.65 27.45 23.35 27.35 22.85 27.1 22.1 26.85 M15.05 20.35 L15.05 20.75 15.2 21.5 15.2 20.7 M15.75 22.6 L15.6 22.35 15.2 21.5 M20.95 20.0 L21.35 20.2 24.75 21.8 25.3 22.6 M19.7 20.0 L20.95 20.0 M13.75 16.75 Q15.9 14.55 18.95 14.6 L22.1 17.7 27.4 19.6 30.2 20.6 34.1 21.95 40.2 22.3 40.4 22.45 Q42.45 23.85 42.95 26.45 42.95 29.45 42.1 33.35 L41.7 34.05 Q39.9 36.7 37.05 37.9 L35.35 38.4 34.55 38.4 Q28.8 38.3 23.4 36.1 L22.85 35.9 Q19.95 34.75 17.65 33.05 15.75 31.65 14.25 29.8 L13.95 29.45 Q11.85 26.65 11.95 22.55 11.8 20.7 13.45 17.3 L13.75 16.75 13.5 17.25 13.5 17.3 M28.65 23.8 L28.5 24.35 27.55 28.65 M35.55 29.05 L34.7 25.55" fill="none" stroke="#000000" stroke-linecap="round" stroke-linejoin="round" stroke-opacity="0.3019608" stroke-width="0.30000000000000004"/>
      <path d="M11.6 40.5 L13.65 29.95 14.0 28.6 Q14.1 28.25 14.45 28.05 12.8 34.4 12.25 39.8 12.65 39.55 13.2 39.45 L13.6 39.4 13.85 39.4 Q15.15 39.35 16.5 39.85 L17.95 39.45 18.75 39.05 20.75 37.35 22.0 35.9 Q25.25 31.55 23.0 30.2 L24.65 31.0 Q24.85 32.75 22.55 35.85 20.6 38.5 18.7 39.95 L18.5 40.1 17.85 40.55 18.3 40.8 Q19.45 41.55 20.1 42.55 L20.2 42.65 Q20.65 43.4 20.75 44.05 L20.75 44.15 20.6 45.1 20.55 45.1 20.45 45.3 20.3 45.5 20.3 45.45 20.4 45.25 20.45 45.05 Q20.65 44.15 19.9 43.05 19.3 42.05 18.25 41.3 L18.2 41.25 17.65 40.9 17.2 40.65 16.3 40.25 15.8 40.1 13.7 39.75 Q12.05 39.85 11.55 40.8 L11.6 40.55 11.6 40.5" fill="#f9f8ec" fill-rule="evenodd" stroke="none"/>
      <path d="M20.3 45.5 L20.45 45.3 20.55 45.1 20.6 45.1 20.75 44.15 Q21.35 44.5 23.3 43.05 L27.75 39.35 31.25 36.25 31.0 37.05 24.05 43.05 23.75 43.3 20.55 45.45 20.4 45.55 20.25 45.65 20.05 45.75 20.0 45.7 20.3 45.5 M23.0 30.2 Q25.25 31.55 22.0 35.9 L20.75 37.35 18.75 39.05 17.95 39.45 16.5 39.85 Q15.15 39.35 13.85 39.4 L13.6 39.4 Q12.8 36.65 13.65 33.55 L14.35 31.25 Q15.3 28.75 17.15 28.0 L17.35 28.0 Q20.2 28.9 23.0 30.2" fill="#f0f0d2" fill-rule="evenodd" stroke="none"/>
      <path d="M20.3 45.45 L20.3 45.5 20.3 45.45 M20.1 42.55 Q19.45 41.55 18.3 40.8 L17.85 40.55 18.5 40.1 18.7 39.95 Q20.6 38.5 22.55 35.85 24.85 32.75 24.65 31.0 L29.0 33.45 29.95 34.25 Q30.3 35.25 29.15 36.7 L26.5 39.45 Q22.8 42.25 20.1 42.55 M13.6 39.4 L13.2 39.45 Q12.65 39.55 12.25 39.8 12.8 34.4 14.45 28.05 L15.9 27.85 17.15 28.0 Q15.3 28.75 14.35 31.25 L13.65 33.55 Q12.8 36.65 13.6 39.4" fill="#d5d580" fill-rule="evenodd" stroke="none"/>
      <path d="M11.55 40.8 Q12.05 39.85 13.7 39.75 L15.8 40.1 Q17.0 41.95 17.05 43.65 L17.05 43.9 16.2 43.8 15.4 42.35 12.45 42.35 13.65 44.55 Q12.65 43.8 12.05 42.85 L11.65 42.15 Q11.35 41.5 11.5 40.9 L11.5 40.85 11.55 40.8 M18.25 41.3 Q19.3 42.05 19.9 43.05 20.65 44.15 20.45 45.05 L20.4 45.25 19.5 44.05 18.8 44.0 18.7 43.6 Q18.3 42.35 18.25 41.3 M20.75 44.15 L20.75 44.05 Q20.65 43.4 20.2 42.65 L20.1 42.55 Q22.8 42.25 26.5 39.45 L29.15 36.7 Q30.3 35.25 29.95 34.25 L31.0 35.5 31.25 36.25 27.75 39.35 23.3 43.05 Q21.35 44.5 20.75 44.15" fill="#bfbf40" fill-rule="evenodd" stroke="none"/>
      <path d="M15.8 40.1 L16.3 40.25 17.2 40.65 17.65 40.9 18.2 41.25 18.25 41.3 Q18.3 42.35 18.7 43.6 L18.8 44.0 19.5 44.05 20.4 45.25 20.3 45.45 20.3 45.5 20.0 45.7 20.0 45.75 19.6 45.95 19.4 46.05 19.1 46.1 18.35 46.15 16.55 45.95 14.8 45.25 13.65 44.55 12.45 42.35 15.4 42.35 16.2 43.8 17.05 43.9 17.05 43.65 Q17.0 41.95 15.8 40.1" fill="#80802b" fill-rule="evenodd" stroke="none"/>
      <path d="M14.45 28.05 Q14.1 28.25 14.0 28.6 L13.65 29.95 11.6 40.5 11.55 40.8 11.5 40.85 11.5 40.9 Q11.35 41.5 11.65 42.15 L12.05 42.85 Q12.65 43.8 13.65 44.55 L14.8 45.25 16.55 45.95 18.35 46.15 19.1 46.1 19.4 46.05 19.6 45.95 20.0 45.75 20.0 45.7 M11.6 40.55 L11.55 40.8 M24.65 31.0 L23.0 30.2 Q20.2 28.9 17.35 28.0 L17.15 28.0 15.9 27.85 14.45 28.05 M29.95 34.25 L29.0 33.45 24.65 31.0 M20.05 45.75 L20.25 45.65 20.4 45.55 20.55 45.45 23.75 43.3 24.05 43.05 31.0 37.05 31.25 36.25 31.0 35.5 29.95 34.25 M20.05 45.75 L20.0 45.75 19.4 46.05" fill="none" stroke="#000000" stroke-linecap="round" stroke-linejoin="round" stroke-opacity="0.3019608" stroke-width="0.30000000000000004"/>
      <path d="M13.75 47.55 L13.75 47.5 16.25 43.2 16.35 43.1 16.35 43.05 Q16.45 42.9 16.6 42.85 L14.25 47.25 14.45 47.25 14.9 47.3 Q15.5 47.15 16.15 46.4 L17.4 44.6 Q18.0 43.2 17.5 42.8 L18.1 42.95 17.85 44.1 16.35 46.7 15.55 47.6 16.15 48.25 Q16.3 48.6 16.05 48.9 L16.05 48.95 16.0 48.3 15.35 47.7 14.4 47.4 13.75 47.55" fill="#f9f8ec" fill-rule="evenodd" stroke="none"/>
      <path d="M19.4 44.1 Q19.65 44.5 19.35 44.85 L19.35 44.9 16.05 48.9 Q16.3 48.6 16.15 48.25 18.0 46.35 19.4 44.1 M16.6 42.85 L17.25 42.75 17.5 42.8 Q18.0 43.2 17.4 44.6 L16.15 46.4 Q15.5 47.15 14.9 47.3 L14.45 47.25 14.25 47.25 16.6 42.85" fill="#f0f0d2" fill-rule="evenodd" stroke="none"/>
      <path d="M18.1 42.95 L18.3 43.0 18.35 43.05 18.5 43.15 Q19.2 43.5 19.4 44.0 L19.4 44.1 Q18.0 46.35 16.15 48.25 L15.55 47.6 16.35 46.7 17.85 44.1 18.1 42.95" fill="#d5d580" fill-rule="evenodd" stroke="none"/>
      <path d="M16.05 48.95 L15.85 49.1 15.65 49.15 15.55 49.2 15.35 49.2 14.3 48.9 13.65 48.25 13.65 48.0 13.65 47.6 13.7 47.55 13.75 47.55 14.4 47.4 15.35 47.7 16.0 48.3 16.05 48.95" fill="#bfbf40" fill-rule="evenodd" stroke="none"/>
      <path d="M18.1 42.95 L18.3 43.0 18.35 43.05 18.5 43.15 Q19.2 43.5 19.4 44.0 L19.4 44.1 Q19.65 44.5 19.35 44.85 L19.35 44.9 16.05 48.9 16.05 48.95 15.85 49.1 15.65 49.15 15.55 49.2 15.35 49.2 14.3 48.9 13.65 48.25 13.65 48.0 13.65 47.6 13.7 47.55 13.75 47.55 13.75 47.5 16.25 43.2 16.35 43.1 16.35 43.05 Q16.45 42.9 16.6 42.85 L17.25 42.75 17.5 42.8 18.1 42.95 M16.05 48.9 L16.05 48.95" fill="none" stroke="#000000" stroke-linecap="round" stroke-linejoin="round" stroke-opacity="0.3019608" stroke-width="0.30000000000000004"/>
      <path d="M12.95 47.35 L12.95 47.4 12.8 46.7 12.1 46.05 11.15 45.8 10.55 45.95 10.55 45.9 12.2 41.3 12.25 41.15 12.25 41.1 12.45 40.9 10.95 45.6 11.15 45.6 11.6 45.65 12.65 44.65 13.55 42.75 Q13.85 41.3 13.35 40.8 L13.9 41.0 13.85 42.2 12.85 45.0 12.25 45.95 12.9 46.6 12.95 47.3 12.95 47.35" fill="#f9f8ec" fill-rule="evenodd" stroke="none"/>
      <path d="M15.35 42.15 Q15.6 42.6 15.4 42.95 L15.4 43.0 12.95 47.3 12.9 46.6 Q14.35 44.6 15.35 42.15 M12.45 40.9 L13.05 40.8 13.35 40.8 Q13.85 41.3 13.55 42.75 L12.65 44.65 11.6 45.65 11.15 45.6 10.95 45.6 12.45 40.9" fill="#f0f0d2" fill-rule="evenodd" stroke="none"/>
      <path d="M13.9 41.0 L14.1 41.05 14.2 41.1 14.3 41.2 Q15.0 41.55 15.3 42.05 L15.35 42.15 Q14.35 44.6 12.9 46.6 L12.25 45.95 12.85 45.0 13.85 42.2 13.9 41.0" fill="#d5d580" fill-rule="evenodd" stroke="none"/>
      <path d="M12.95 47.4 L12.75 47.5 12.6 47.6 12.5 47.65 12.3 47.65 11.3 47.35 Q10.8 47.1 10.55 46.65 L10.5 46.4 10.45 46.0 10.5 45.9 10.55 45.95 11.15 45.8 12.1 46.05 12.8 46.7 12.95 47.4" fill="#bfbf40" fill-rule="evenodd" stroke="none"/>
      <path d="M15.35 42.15 Q15.6 42.6 15.4 42.95 L15.4 43.0 12.95 47.3 12.95 47.35 12.95 47.4 12.75 47.5 12.6 47.6 12.5 47.65 12.3 47.65 11.3 47.35 Q10.8 47.1 10.55 46.65 L10.5 46.4 10.45 46.0 10.5 45.9 10.55 45.95 10.55 45.9 12.2 41.3 12.25 41.15 12.25 41.1 12.45 40.9 13.05 40.8 13.35 40.8 13.9 41.0 14.1 41.05 14.2 41.1 14.3 41.2 Q15.0 41.55 15.3 42.05 L15.35 42.15 M12.95 47.3 L12.95 47.35" fill="none" stroke="#000000" stroke-linecap="round" stroke-linejoin="round" stroke-opacity="0.3019608" stroke-width="0.30000000000000004"/>
      <path d="M28.4 39.0 L27.55 39.55 26.75 39.45 Q26.45 39.25 26.5 38.8 26.5 38.35 26.9 37.95 27.25 37.55 27.75 37.45 L28.55 37.5 Q28.85 37.7 28.8 38.15 L28.4 39.0" fill="#000000" fill-opacity="0.3019608" fill-rule="evenodd" stroke="none"/>
      <path d="M32.75 42.15 L32.15 41.25 32.05 41.2 30.3 41.3 27.55 37.65 28.15 37.6 30.5 41.0 32.15 41.0 32.2 41.05 Q32.6 41.4 32.8 42.05 L32.75 42.15" fill="#ffff98" fill-rule="evenodd" stroke="none"/>
      <path d="M32.8 42.05 Q32.6 41.4 32.2 41.05 L32.15 41.0 30.5 41.0 28.15 37.6 28.7 37.9 30.65 40.8 32.3 40.75 32.35 40.75 Q32.85 41.35 32.8 42.05 M26.7 38.6 L29.9 41.65 29.65 43.05 29.65 43.1 30.1 43.8 30.65 44.0 30.55 43.15 30.35 42.4 31.2 41.65 31.25 41.7 32.7 42.55 31.35 41.8 30.5 42.55 30.9 44.25 30.85 44.3 Q29.7 44.3 29.35 43.05 L29.65 41.75 26.8 39.05 26.7 38.6" fill="#ffde4f" fill-rule="evenodd" stroke="none"/>
      <path d="M27.55 37.65 L30.3 41.3 32.05 41.2 32.15 41.25 32.75 42.15 32.7 42.55 31.25 41.7 31.2 41.65 30.35 42.4 30.55 43.15 29.65 43.1 29.65 43.05 29.9 41.65 26.7 38.6 Q26.75 38.2 27.3 37.8 L27.55 37.65" fill="#f4a33c" fill-rule="evenodd" stroke="none"/>
      <path d="M29.65 43.1 L30.55 43.15 30.65 44.0 30.1 43.8 29.65 43.1" fill="#cc6b22" fill-rule="evenodd" stroke="none"/>
      <path d="M30.9 44.25 L30.5 42.55 31.35 41.8 32.7 42.55 31.35 42.3 30.9 42.8 30.9 44.25" fill="#a34100" fill-rule="evenodd" stroke="none"/>
      <path d="M32.75 42.15 L32.8 42.05 Q32.85 41.35 32.35 40.75 L32.3 40.75 30.65 40.8 28.7 37.9 28.15 37.6 27.55 37.65 27.3 37.8 Q26.75 38.2 26.7 38.6 L26.8 39.05 29.65 41.75 29.35 43.05 Q29.7 44.3 30.85 44.3 L30.9 44.25 30.9 42.8 31.35 42.3 32.7 42.55 32.75 42.15 Z" fill="none" stroke="#000000" stroke-linecap="round" stroke-linejoin="round" stroke-opacity="0.3019608" stroke-width="0.30000000000000004"/>
      <path d="M23.65 42.65 L22.85 42.4 Q22.6 42.1 22.75 41.7 22.9 41.25 23.4 40.95 23.85 40.65 24.35 40.65 24.85 40.65 25.1 40.95 25.35 41.25 25.2 41.65 L24.6 42.35 23.65 42.65" fill="#000000" fill-opacity="0.3019608" fill-rule="evenodd" stroke="none"/>
      <path d="M27.85 46.9 L26.65 46.4 26.05 46.7 25.65 48.1 25.75 46.35 26.75 45.85 27.85 46.9" fill="#a34100" fill-rule="evenodd" stroke="none"/>
      <path d="M25.65 46.95 L25.55 47.8 25.0 47.45 24.8 46.65 Q25.1 47.55 25.65 46.95" fill="#cc6b22" fill-rule="evenodd" stroke="none"/>
      <path d="M28.05 46.6 L27.85 46.9 26.6 45.65 25.65 46.2 25.65 46.95 Q25.1 47.55 24.8 46.65 L25.4 45.35 23.1 41.55 Q23.25 41.2 23.85 40.95 L24.15 40.85 25.9 45.1 27.55 45.45 27.7 45.55 28.05 46.6" fill="#f4a33c" fill-rule="evenodd" stroke="none"/>
      <path d="M24.75 40.95 L25.25 41.45 26.35 44.75 27.95 45.1 27.95 45.15 Q28.35 45.85 28.1 46.5 L27.8 45.4 27.75 45.3 26.1 44.85 24.75 40.95 M25.65 48.1 Q24.5 47.85 24.5 46.55 L25.15 45.35 23.05 42.05 Q23.0 41.75 23.1 41.55 L25.4 45.35 24.8 46.65 25.0 47.45 25.55 47.8 25.65 46.95 25.65 46.2 26.6 45.65 27.85 46.9 26.75 45.85 25.75 46.35 25.65 48.1" fill="#ffde4f" fill-rule="evenodd" stroke="none"/>
      <path d="M24.75 40.95 L26.1 44.85 27.75 45.3 27.8 45.4 28.1 46.5 28.05 46.6 27.7 45.55 27.55 45.45 25.9 45.1 24.15 40.85 24.75 40.95" fill="#ffff98" fill-rule="evenodd" stroke="none"/>
      <path d="M28.1 46.5 Q28.35 45.85 27.95 45.15 L27.95 45.1 26.35 44.75 25.25 41.45 24.75 40.95 24.15 40.85 23.85 40.95 Q23.25 41.2 23.1 41.55 23.0 41.75 23.05 42.05 L25.15 45.35 24.5 46.55 Q24.5 47.85 25.65 48.1 L25.7 48.1 25.65 48.1 26.05 46.7 26.65 46.4 27.85 46.9 28.05 46.6 28.1 46.5 Z" fill="none" stroke="#000000" stroke-linecap="round" stroke-linejoin="round" stroke-opacity="0.3019608" stroke-width="0.30000000000000004"/>
    </g>
    <g id="sprite1" transform="matrix(1.0, 0.0, 0.0, 1.0, 0.0, 0.0)">
      <use height="26.7" transform="matrix(0.0042, -1.3515, 1.3935, 0.02, 22.09, 56.0263)" width="26.7" xlink:href="#sprite2"/>
      <use height="26.7" transform="matrix(0.0095, -3.0486, 0.372, 0.0053, 36.507, 81.3775)" width="26.7" xlink:href="#sprite2"/>
      <use height="26.7" transform="matrix(3.0486, 0.0095, -0.0053, 0.372, 0.1225, 35.107)" width="26.7" xlink:href="#sprite2"/>
    </g>
    <g id="sprite2" transform="matrix(1.0, 0.0, 0.0, 1.0, 13.35, 13.35)">
      <use height="26.7" transform="matrix(1.0, 0.0, 0.0, 1.0, -13.35, -13.35)" width="26.7" xlink:href="#shape1"/>
    </g>
    <g id="shape1" transform="matrix(1.0, 0.0, 0.0, 1.0, 13.35, 13.35)">
      <path d="M9.3 -9.85 Q13.35 -5.8 13.35 0.0 13.35 5.8 9.3 9.3 5.8 13.35 0.0 13.35 -5.8 13.35 -9.85 9.3 -13.35 5.8 -13.35 0.0 -13.35 -5.8 -9.85 -9.85 -5.8 -13.35 0.0 -13.35 5.8 -13.35 9.3 -9.85" fill="url(#gradient0)" fill-rule="evenodd" stroke="none"/>
    </g>
    <radialGradient cx="0" cy="0" gradientTransform="matrix(0.0213, 0.0, 0.0, 0.0213, 0.0, 0.0)" gradientUnits="userSpaceOnUse" id="gradient0" r="819.2" spreadMethod="pad">
      <stop offset="0.19607843137254902" stop-color="#fee3bc" stop-opacity="0.28627452"/>
      <stop offset="0.5019607843137255" stop-color="#fee3bc" stop-opacity="0.043137256"/>
      <stop offset="0.7607843137254902" stop-color="#ffe3bd" stop-opacity="0.0"/>
    </radialGradient>
  </defs>
</svg>
