<?xml version="1.0" encoding="UTF-8" standalone="no"?>
<svg xmlns:xlink="http://www.w3.org/1999/xlink" height="52.0px" width="52.0px" xmlns="http://www.w3.org/2000/svg">
  <g transform="matrix(1.0, 0.0, 0.0, 1.0, 0.0, 0.0)">
    <use height="54.0" transform="matrix(1.0, 0.0, 0.0, 1.0, -1.0, -1.0)" width="54.0" xlink:href="#shape0"/>
    <use height="0.0" transform="matrix(-0.0693, 0.0, 0.0, 0.086, 19.45, 10.4)" width="0.0" xlink:href="#sprite0"/>
    <use height="0.0" transform="matrix(-0.1269, 0.0, 0.0, 0.129, 28.85, 23.4)" width="0.0" xlink:href="#sprite0"/>
    <use height="0.0" transform="matrix(-0.0637, 0.0, 0.0, 0.0507, 41.75, 24.0)" width="0.0" xlink:href="#sprite0"/>
    <use height="0.0" transform="matrix(-0.0482, 0.0, 0.0, 0.026, 41.75, 17.65)" width="0.0" xlink:href="#sprite0"/>
    <use height="0.0" transform="matrix(-0.0341, -0.0341, -0.0184, 0.0184, 36.75, 30.5)" width="0.0" xlink:href="#sprite0"/>
    <use height="0.0" transform="matrix(0.0, -0.0649, -0.0405, 0.0, 9.45, 19.8)" width="0.0" xlink:href="#sprite0"/>
    <use height="0.0" transform="matrix(-0.0325, -0.0562, -0.0351, 0.0202, 18.15, 27.85)" width="0.0" xlink:href="#sprite0"/>
    <use height="0.0" transform="matrix(-0.0389, 0.0104, 0.0153, 0.0571, 16.0, 43.3)" width="0.0" xlink:href="#sprite0"/>
    <use height="0.0" transform="matrix(-0.0372, 0.01, 0.0145, 0.054, 8.1, 40.65)" width="0.0" xlink:href="#sprite0"/>
    <use height="156.85" transform="matrix(0.0201, -0.3571, -0.2011, -0.0152, 40.5772, 43.3058)" width="73.1" xlink:href="#sprite1"/>
    <use height="156.85" transform="matrix(0.0405, -0.2613, -0.1539, -0.0476, 32.617, 29.9963)" width="73.1" xlink:href="#sprite1"/>
    <use height="0.0" transform="matrix(0.1148, 0.05, -0.0904, 0.2016, 22.3, 24.0)" width="0.0" xlink:href="#sprite0"/>
  </g>
  <defs>
    <g id="shape0" transform="matrix(1.0, 0.0, 0.0, 1.0, 1.0, 1.0)">
      <path d="M52.0 0.0 L52.0 52.0 0.0 52.0 0.0 0.0 52.0 0.0" fill="#795fa9" fill-opacity="0.0" fill-rule="evenodd" stroke="none"/>
      <path d="M27.8 7.7 Q26.05 6.65 24.25 5.95 20.35 4.4 16.2 4.35 L14.3 4.65 Q12.95 5.45 12.15 8.05 L11.75 9.6 11.6 10.35 Q9.95 11.5 9.15 13.3 8.7 14.45 8.65 15.55 7.35 16.2 6.95 18.15 6.4 20.95 7.8 22.4 6.35 23.2 6.4 24.95 6.55 27.6 9.2 27.9 L9.0 29.45 8.95 29.95 Q8.85 31.55 9.25 32.6 L9.1 33.2 9.05 33.6 9.1 34.45 8.7 36.35 6.8 36.85 Q5.6 36.95 5.0 37.8 L4.65 38.35 Q3.65 40.4 5.65 43.4 7.8 46.5 10.4 45.55 L10.95 45.35 11.65 44.9 12.55 46.55 Q14.35 49.15 16.95 48.65 L17.65 48.45 18.45 48.1 19.05 47.85 Q22.15 45.55 23.1 42.1 L23.2 41.95 Q25.55 39.2 25.9 36.65 26.0 35.65 25.75 34.75 L25.75 34.7 Q30.75 35.05 34.7 33.1 L36.1 34.45 36.15 34.5 Q38.85 36.1 40.75 33.4 42.35 31.3 40.75 29.2 L42.35 29.35 Q46.3 29.2 47.4 25.05 48.25 22.2 46.3 21.0 48.2 19.65 47.5 16.9 46.55 13.55 42.9 14.6 L41.0 15.2 40.1 15.55 Q39.0 13.85 37.3 12.3 35.65 10.8 33.75 9.75 L33.65 9.65 32.4 8.7 31.7 8.35 Q30.8 7.9 29.75 7.75 L28.15 7.75 27.8 7.7 Z" fill="none" stroke="#000000" stroke-linecap="round" stroke-linejoin="round" stroke-opacity="0.3019608" stroke-width="1.0"/>
      <path d="M7.25 25.8 L7.1 25.35 Q6.7 23.6 8.25 22.85 7.35 23.35 7.5 24.35 L7.65 24.9 8.05 25.65 8.65 26.15 12.4 25.85 Q11.55 26.3 10.1 26.65 8.35 27.05 7.25 25.8 M7.45 20.05 L7.35 19.35 Q7.6 17.55 8.5 16.65 L8.1 17.55 Q7.7 18.7 8.0 19.4 8.1 19.95 8.5 20.2 L9.2 20.5 Q11.0 20.35 12.0 19.65 11.15 20.45 9.65 20.95 L8.5 20.85 Q7.9 20.65 7.45 20.05" fill="#d0c586" fill-rule="evenodd" stroke="none"/>
      <path d="M15.95 22.75 Q16.5 23.75 15.75 25.05 13.25 27.9 9.6 27.9 6.55 27.7 6.4 24.95 6.35 23.2 7.85 22.4 6.4 20.9 6.95 18.15 7.7 14.5 11.7 15.3 14.1 15.85 16.2 17.15 L16.35 17.45 Q13.25 15.9 10.7 15.85 L10.1 15.9 Q9.15 16.05 8.5 16.65 7.6 17.55 7.35 19.35 L7.45 20.05 Q7.65 21.1 8.45 21.55 L9.45 21.8 10.25 21.7 Q12.75 21.45 15.05 21.75 L15.35 22.05 11.8 22.25 9.8 22.35 8.5 22.7 8.45 22.75 8.4 22.75 8.25 22.85 Q6.7 23.6 7.1 25.35 L7.25 25.8 Q8.0 27.65 11.05 27.0 14.45 26.3 15.4 24.2 L15.95 22.75 M7.85 22.4 L8.45 22.1 9.45 21.8 8.45 22.1 7.85 22.4" fill="#bfb072" fill-rule="evenodd" stroke="none"/>
      <path d="M8.0 19.4 Q7.7 18.7 8.1 17.55 8.7 16.4 9.35 17.05 9.8 17.6 9.55 18.95 9.05 20.1 8.5 19.95 L8.0 19.4 M8.05 25.65 L7.65 24.9 7.5 24.35 Q7.8 23.25 8.4 23.1 L8.6 23.1 Q9.35 23.2 9.35 24.85 9.25 26.4 8.05 25.65" fill="#a89e64" fill-rule="evenodd" stroke="none"/>
      <path d="M8.25 22.85 L8.4 22.75 8.45 22.75 8.5 22.7 9.8 22.35 11.8 22.25 Q13.95 22.4 13.8 24.45 13.6 25.25 12.4 25.85 L8.65 26.15 8.05 25.65 Q9.25 26.4 9.35 24.85 9.35 23.2 8.6 23.1 L8.4 23.1 Q7.8 23.25 7.5 24.35 7.35 23.35 8.25 22.85 M8.5 16.65 Q9.15 16.05 10.1 15.9 L10.7 15.85 Q13.6 16.7 12.85 18.3 12.6 19.05 12.0 19.65 11.0 20.35 9.2 20.5 L8.5 20.2 Q8.1 19.95 8.0 19.4 L8.5 19.95 Q9.05 20.1 9.55 18.95 9.8 17.6 9.35 17.05 8.7 16.4 8.1 17.55 L8.5 16.65" fill="#696141" fill-rule="evenodd" stroke="none"/>
      <path d="M16.35 17.45 Q17.45 19.55 15.75 21.65 L15.35 22.05 15.95 22.75 15.4 24.2 Q14.45 26.3 11.05 27.0 8.0 27.65 7.25 25.8 8.35 27.05 10.1 26.65 11.55 26.3 12.4 25.85 13.6 25.25 13.8 24.45 13.95 22.4 11.8 22.25 L15.35 22.05 15.05 21.75 Q12.75 21.45 10.25 21.7 L9.45 21.8 8.45 21.55 Q7.65 21.1 7.45 20.05 7.9 20.65 8.5 20.85 L9.65 20.95 Q11.15 20.45 12.0 19.65 12.6 19.05 12.85 18.3 13.6 16.7 10.7 15.85 13.25 15.9 16.35 17.45" fill="#5f5a3a" fill-rule="evenodd" stroke="none"/>
      <path d="M15.95 22.75 Q16.5 23.75 15.75 25.05 13.25 27.9 9.6 27.9 6.55 27.7 6.4 24.95 6.35 23.2 7.85 22.4 6.4 20.9 6.95 18.15 7.7 14.5 11.7 15.3 14.1 15.85 16.2 17.15 L16.35 17.45 Q17.45 19.55 15.75 21.65 L15.35 22.05 15.95 22.75 M15.35 22.05 L15.05 21.75 Q12.75 21.45 10.25 21.7 L9.45 21.8 8.45 22.1 7.85 22.4" fill="none" stroke="#000000" stroke-linecap="round" stroke-linejoin="round" stroke-opacity="0.3019608" stroke-width="0.30000000000000004"/>
      <path d="M8.25 18.05 L8.8 18.0 9.3 17.55 9.45 16.85 9.2 16.45 8.7 16.4 8.2 16.95 8.0 17.6 8.25 18.05" fill="#d0c586" fill-rule="evenodd" stroke="none"/>
      <path d="M18.2 11.7 Q18.95 13.6 18.0 15.7 17.15 17.8 15.25 19.0 13.4 20.25 11.55 19.7 9.75 19.2 9.0 17.35 8.3 15.35 9.2 13.3 10.05 11.25 12.0 10.05 13.85 8.85 15.65 9.35 17.5 9.85 18.2 11.7 M13.1 16.1 Q10.05 17.7 9.25 14.5 8.95 16.05 9.55 17.3 10.2 18.5 11.85 18.9 13.4 19.4 15.0 18.35 16.65 17.3 17.35 15.55 18.15 13.85 17.6 12.3 L17.55 12.15 Q17.1 11.0 16.2 10.5 15.8 10.25 15.35 10.15 13.8 9.7 12.25 10.7 10.85 11.55 10.1 12.95 9.65 14.9 10.2 15.8 10.55 16.35 11.2 16.55 L13.1 16.1" fill="#d0c586" fill-rule="evenodd" stroke="none"/>
      <path d="M17.6 12.3 Q16.95 14.95 13.25 16.1 L13.1 16.1 11.2 16.55 Q10.55 16.35 10.2 15.8 10.1 13.5 10.8 12.6 12.95 9.7 16.2 10.5 17.1 11.0 17.55 12.15 L17.6 12.3" fill="#a89e64" fill-rule="evenodd" stroke="none"/>
      <path d="M17.6 12.3 Q18.15 13.85 17.35 15.55 16.65 17.3 15.0 18.35 13.4 19.4 11.85 18.9 10.2 18.5 9.55 17.3 8.95 16.05 9.25 14.5 10.05 17.7 13.1 16.1 L13.25 16.1 Q16.95 14.95 17.6 12.3 M10.2 15.8 Q9.65 14.9 10.1 12.95 10.85 11.55 12.25 10.7 13.8 9.7 15.35 10.15 15.8 10.25 16.2 10.5 12.95 9.7 10.8 12.6 10.1 13.5 10.2 15.8" fill="#696141" fill-rule="evenodd" stroke="none"/>
      <path d="M18.2 11.7 Q17.5 9.85 15.65 9.35 13.85 8.85 12.0 10.05 10.05 11.25 9.2 13.3 8.3 15.35 9.0 17.35 9.75 19.2 11.55 19.7 13.4 20.25 15.25 19.0 17.15 17.8 18.0 15.7 18.95 13.6 18.2 11.7 Z" fill="none" stroke="#000000" stroke-linecap="round" stroke-linejoin="round" stroke-opacity="0.3019608" stroke-width="0.30000000000000004"/>
      <path d="M28.65 7.85 L29.75 8.1 28.65 7.9 28.65 7.85 M30.35 8.25 L30.8 8.4 30.8 8.45 30.35 8.25" fill="#ff9900" fill-rule="evenodd" stroke="none"/>
      <path d="M14.75 6.4 L14.8 6.35 14.9 6.4 14.75 6.4" fill="url(#gradient0)" fill-rule="evenodd" stroke="none"/>
      <path d="M11.75 21.05 L11.7 21.1 11.6 20.9 11.75 21.05" fill="url(#gradient1)" fill-rule="evenodd" stroke="none"/>
      <path d="M11.45 20.3 L11.5 20.5 11.4 20.55 11.45 20.3 M31.3 33.25 L31.3 33.3 31.3 33.25" fill="url(#gradient2)" fill-rule="evenodd" stroke="none"/>
      <path d="M32.9 9.9 L32.8 9.85 32.9 9.85 32.9 9.9" fill="url(#gradient3)" fill-rule="evenodd" stroke="none"/>
      <path d="M31.1 33.3 L31.3 33.25 31.3 33.3 31.1 33.3" fill="url(#gradient4)" fill-rule="evenodd" stroke="none"/>
      <path d="M13.25 6.7 L13.1 6.95 12.6 8.5 Q12.25 9.85 11.75 9.6 L12.15 8.0 Q12.95 5.45 14.3 4.65 L14.95 4.5 15.0 4.55 Q15.95 5.05 15.35 5.25 L15.05 5.3 Q14.0 5.45 13.25 6.7 M11.25 12.35 Q11.2 17.5 11.65 19.5 12.05 21.4 13.8 22.2 15.7 22.7 17.1 19.9 18.25 16.0 17.6 10.65 L17.05 7.25 Q16.6 5.45 15.75 4.7 L16.35 5.2 19.65 5.1 18.15 5.1 Q17.05 5.15 16.85 5.85 L17.2 6.9 17.4 7.7 17.55 8.45 Q18.15 9.9 18.95 10.5 19.75 11.05 20.65 10.85 21.55 10.65 22.7 9.9 18.95 12.5 17.8 9.7 L18.2 13.55 18.2 15.7 17.95 18.3 Q17.3 22.15 14.6 22.7 13.15 22.65 11.75 21.05 L11.6 20.9 11.5 20.5 11.45 20.3 11.4 20.2 11.2 19.15 11.0 17.45 10.95 15.9 10.95 15.05 11.0 14.25 11.25 12.35 M14.0 11.15 Q13.9 11.6 13.6 11.7 13.25 11.8 12.95 10.9 L12.95 10.5 13.0 10.2 Q13.25 11.95 14.0 11.15 M15.1 11.4 L15.0 10.9 Q15.8 11.8 16.1 10.45 L16.0 11.25 Q15.7 12.15 15.1 11.4 M21.25 14.5 Q22.0 12.1 22.9 10.5 L22.95 10.4 Q26.6 7.8 30.85 9.05 24.6 7.7 21.25 14.5 M14.75 23.2 L15.6 22.95 16.15 22.65 16.25 22.6 18.35 20.75 Q17.3 22.5 17.3 24.4 17.35 26.55 20.05 27.1 31.15 28.35 36.5 18.7 L36.1 19.7 35.5 20.9 Q30.95 27.2 23.45 28.05 L20.6 28.2 Q17.25 27.95 16.45 25.25 L16.25 24.25 Q16.15 23.05 14.75 23.2 M16.05 17.9 Q15.8 18.7 14.85 19.5 13.6 20.3 12.85 18.65 L13.15 18.05 Q13.35 19.4 14.3 19.15 L16.05 17.9 M10.5 16.95 Q10.0 20.25 10.8 21.2 11.1 21.4 11.4 20.55 10.95 22.7 10.3 21.6 L10.05 20.4 Q10.1 18.3 10.5 16.95" fill="#d0c586" fill-rule="evenodd" stroke="none"/>
      <path d="M14.8 6.35 L14.5 6.2 Q13.9 5.9 13.25 6.7 14.0 5.45 15.05 5.3 L15.35 5.25 Q14.95 5.5 15.4 5.85 L15.55 5.95 Q15.95 6.3 16.35 7.4 17.1 9.5 17.25 12.35 17.45 15.75 16.7 18.9 16.3 20.6 15.15 21.4 14.15 21.9 13.05 21.05 12.3 20.5 12.2 19.95 12.9 20.8 13.95 20.95 16.35 21.05 16.8 16.45 L16.8 16.05 16.9 15.35 16.9 12.9 16.8 12.2 16.6 10.0 Q16.15 7.3 15.05 6.4 L14.9 6.4 14.8 6.35 M15.75 4.7 L15.0 4.55 14.95 4.5 14.3 4.65 Q15.15 4.15 16.2 4.3 20.35 4.35 24.25 5.9 L21.75 5.45 19.65 5.1 16.35 5.2 15.75 4.7 M14.0 11.15 L14.15 10.15 Q14.1 7.75 13.7 7.7 L13.9 7.2 14.45 6.8 Q14.0 7.7 14.45 10.25 L14.65 11.2 Q14.2 12.35 13.6 12.25 13.05 12.0 12.95 10.9 13.25 11.8 13.6 11.7 13.9 11.6 14.0 11.15 M27.8 7.65 L28.65 7.85 28.65 7.9 29.75 8.1 30.15 8.2 30.35 8.25 30.8 8.45 30.8 8.4 Q31.95 8.8 33.05 9.35 35.35 10.45 37.3 12.25 42.05 16.6 42.05 22.2 L42.05 22.9 41.8 24.65 Q41.0 28.7 37.3 31.5 32.55 35.15 25.8 34.65 19.1 34.1 14.3 29.8 9.55 25.45 9.55 19.8 9.55 16.7 11.0 14.25 L10.95 15.05 10.95 15.9 10.5 16.95 Q10.1 18.3 10.05 20.4 L10.3 21.6 Q11.1 25.35 13.6 28.0 16.4 30.6 19.45 32.1 26.05 35.35 33.5 33.0 L33.6 32.95 34.05 32.8 Q41.85 28.95 41.45 21.9 L41.35 20.75 41.35 20.55 Q40.15 13.55 32.9 9.85 L32.8 9.85 32.75 9.8 30.85 9.05 Q26.6 7.8 22.95 10.4 23.55 9.35 24.25 8.65 25.3 7.6 26.6 7.5 L27.8 7.65 M16.1 10.45 Q16.05 9.55 15.4 8.2 15.05 7.35 14.6 7.3 14.7 6.6 15.4 7.45 16.35 9.2 16.5 11.65 16.2 12.7 15.6 12.45 L15.1 11.4 Q15.7 12.15 16.0 11.25 L16.1 10.45 M18.2 13.55 Q19.25 11.75 21.85 10.85 L21.1 13.8 Q20.0 11.1 18.7 14.25 18.2 16.35 19.15 17.35 L18.85 17.35 Q18.45 17.15 18.2 15.7 L18.2 13.55" fill="#bfb072" fill-rule="evenodd" stroke="none"/>
      <path d="M12.55 19.3 L12.4 18.85 Q11.9 17.05 12.1 13.7 L12.1 13.6 12.55 10.45 Q13.15 7.35 14.1 6.6 14.45 6.35 14.75 6.4 L14.9 6.4 15.05 6.4 Q16.15 7.3 16.6 10.0 L16.8 12.2 16.6 12.55 Q15.45 13.85 14.75 11.6 14.25 13.2 13.2 12.4 L12.95 12.2 12.8 11.9 Q12.6 12.75 12.55 13.95 L12.7 18.15 Q13.3 16.9 14.15 16.35 15.25 15.65 16.8 16.05 L16.8 16.45 Q15.45 16.15 14.4 16.8 L16.1 16.85 16.05 17.9 14.3 19.15 Q13.35 19.4 13.15 18.05 L12.85 18.65 12.55 19.3 M14.45 6.8 L13.9 7.2 13.7 7.7 Q14.1 7.75 14.15 10.15 L14.0 11.15 Q13.25 11.95 13.0 10.2 L12.95 10.5 12.95 10.9 Q13.05 12.0 13.6 12.25 14.2 12.35 14.65 11.2 L14.45 10.25 Q14.0 7.7 14.45 6.8 L14.75 6.4 14.45 6.8 M24.25 5.9 Q26.05 6.6 27.8 7.65 L26.6 7.5 Q25.3 7.6 24.25 8.65 L22.7 9.9 Q21.55 10.65 20.65 10.85 19.75 11.05 18.95 10.5 18.15 9.9 17.55 8.45 L17.4 7.7 Q17.95 8.95 18.8 9.55 L21.55 9.7 23.35 8.85 Q24.8 7.8 23.3 6.55 21.85 5.4 18.15 5.1 L19.65 5.1 21.75 5.45 24.25 5.9 M15.1 11.4 L15.6 12.45 Q16.2 12.7 16.5 11.65 16.35 9.2 15.4 7.45 14.7 6.6 14.6 7.3 15.05 7.35 15.4 8.2 16.05 9.55 16.1 10.45 15.8 11.8 15.0 10.9 L15.1 11.4 M18.35 20.75 Q20.25 18.6 21.1 14.95 L21.25 14.5 Q24.6 7.7 30.85 9.05 L32.75 9.8 32.8 9.85 32.9 9.9 Q35.2 11.75 36.2 13.8 37.3 16.15 36.5 18.7 31.15 28.35 20.05 27.1 17.35 26.55 17.3 24.4 17.3 22.5 18.35 20.75 M12.55 10.45 Q12.55 11.35 12.8 11.9 12.55 11.35 12.55 10.45 M14.65 11.2 L14.75 11.6 14.65 11.2 M10.5 16.95 L10.95 15.9 11.0 17.45 11.2 19.15 11.4 20.2 11.45 20.3 11.4 20.55 Q11.1 21.4 10.8 21.2 10.0 20.25 10.5 16.95 M12.4 18.85 L12.7 18.15 12.4 18.85 M31.1 33.3 L30.55 33.35 29.75 33.2 Q29.1 33.0 28.95 32.45 28.8 31.9 29.3 31.35 29.75 30.85 30.6 30.6 31.4 30.4 32.1 30.6 32.75 30.85 32.9 31.4 33.05 31.95 32.55 32.45 32.1 33.0 31.3 33.25 L31.1 33.3" fill="#a89e64" fill-rule="evenodd" stroke="none"/>
      <path d="M14.8 6.35 L14.75 6.4 Q14.45 6.35 14.1 6.6 13.15 7.35 12.55 10.45 L12.1 13.6 12.1 13.7 Q11.9 17.05 12.4 18.85 L12.55 19.3 Q13.05 20.6 13.95 20.95 13.05 20.6 12.55 19.3 L12.85 18.65 Q13.6 20.3 14.85 19.5 15.8 18.7 16.05 17.9 L16.1 16.85 14.4 16.8 Q15.45 16.15 16.8 16.45 16.35 21.05 13.95 20.95 12.9 20.8 12.2 19.95 12.3 20.5 13.05 21.05 14.15 21.9 15.15 21.4 16.3 20.6 16.7 18.9 17.45 15.75 17.25 12.35 17.1 9.5 16.35 7.4 15.95 6.3 15.55 5.95 L15.4 5.85 Q14.95 5.5 15.35 5.25 15.95 5.05 15.0 4.55 L15.75 4.7 Q16.6 5.45 17.05 7.25 L17.6 10.65 Q18.25 16.0 17.1 19.9 15.7 22.7 13.8 22.2 12.05 21.4 11.65 19.5 11.2 17.5 11.25 12.35 L11.75 9.6 Q12.25 9.85 12.6 8.5 L13.1 6.95 13.25 6.7 Q13.9 5.9 14.5 6.2 L14.8 6.35 M17.4 7.7 L17.2 6.9 16.85 5.85 Q17.05 5.15 18.15 5.1 21.85 5.4 23.3 6.55 24.8 7.8 23.35 8.85 L21.55 9.7 18.8 9.55 Q17.95 8.95 17.4 7.7 M21.1 13.8 Q20.2 17.05 19.15 17.35 18.2 16.35 18.7 14.25 20.0 11.1 21.1 13.8 M12.55 13.95 Q14.1 14.65 14.15 16.35 13.3 16.9 12.7 18.15 L12.55 13.95 M19.45 32.1 L19.45 31.45 Q23.7 30.8 23.45 28.05 30.95 27.2 35.5 20.9 L36.1 19.7 36.5 18.7 Q37.3 16.15 36.2 13.8 35.2 11.75 32.9 9.9 L32.9 9.85 Q40.15 13.55 41.35 20.55 L41.25 20.55 41.45 21.9 Q41.85 28.95 34.05 32.8 L33.6 32.95 33.5 33.0 Q26.05 35.35 19.45 32.1 M31.3 33.25 Q32.1 33.0 32.55 32.45 33.05 31.95 32.9 31.4 32.75 30.85 32.1 30.6 31.4 30.4 30.6 30.6 29.75 30.85 29.3 31.35 28.8 31.9 28.95 32.45 29.1 33.0 29.75 33.2 L30.55 33.35 31.1 33.3 31.3 33.3 31.3 33.25" fill="#696141" fill-rule="evenodd" stroke="none"/>
      <path d="M16.8 12.2 L16.9 12.9 16.9 15.35 16.8 16.05 Q15.25 15.65 14.15 16.35 14.1 14.65 12.55 13.95 12.6 12.75 12.8 11.9 L12.95 12.2 13.2 12.4 Q14.25 13.2 14.75 11.6 15.45 13.85 16.6 12.55 L16.8 12.2 M22.7 9.9 L24.25 8.65 Q23.55 9.35 22.95 10.4 L22.9 10.5 Q22.0 12.1 21.25 14.5 L21.1 14.95 Q20.25 18.6 18.35 20.75 L16.25 22.6 16.15 22.65 15.6 22.95 14.75 23.2 Q12.8 23.55 11.7 21.1 12.8 23.55 14.75 23.2 16.15 23.05 16.25 24.25 L16.45 25.25 Q17.25 27.95 20.6 28.2 L23.45 28.05 Q23.7 30.8 19.45 31.45 L19.45 32.1 Q16.4 30.6 13.6 28.0 11.1 25.35 10.3 21.6 10.95 22.7 11.4 20.55 L11.5 20.5 11.6 20.9 11.7 21.1 11.75 21.05 Q13.15 22.65 14.6 22.7 17.3 22.15 17.95 18.3 L18.2 15.7 Q18.45 17.15 18.85 17.35 L19.15 17.35 Q20.2 17.05 21.1 13.8 L21.85 10.85 Q19.25 11.75 18.2 13.55 L17.8 9.7 Q18.95 12.5 22.7 9.9 M41.35 20.55 L41.35 20.75 41.45 21.9 41.25 20.55 41.35 20.55" fill="#5f5a3a" fill-rule="evenodd" stroke="none"/>
      <path d="M11.75 9.6 L11.25 12.35 11.0 14.25 Q9.55 16.7 9.55 19.8 9.55 25.45 14.3 29.8 19.1 34.1 25.8 34.65 32.55 35.15 37.3 31.5 41.0 28.7 41.8 24.65 L42.05 22.9 42.05 22.2 Q42.05 16.6 37.3 12.25 35.35 10.45 33.05 9.35 31.95 8.8 30.8 8.4 L30.35 8.25 30.15 8.2 29.75 8.1 28.65 7.85 27.8 7.65 Q26.05 6.6 24.25 5.9 20.35 4.35 16.2 4.3 15.15 4.15 14.3 4.65 12.95 5.45 12.15 8.0 L11.75 9.6 M13.95 20.95 Q13.05 20.6 12.55 19.3 L12.4 18.85 Q11.9 17.05 12.1 13.7 L12.1 13.6 12.55 10.45 Q13.15 7.35 14.1 6.6 14.45 6.35 14.75 6.4 L14.9 6.4 15.05 6.4 Q16.15 7.3 16.6 10.0 L16.8 12.2 16.9 12.9 16.9 15.35 16.8 16.05 16.8 16.45 Q16.35 21.05 13.95 20.95 M14.65 11.2 L14.45 10.25 Q14.0 7.7 14.45 6.8 L14.75 6.4 M24.25 8.65 Q25.3 7.6 26.6 7.5 L27.8 7.65 M21.25 14.5 Q22.0 12.1 22.9 10.5 L22.95 10.4 Q23.55 9.35 24.25 8.65 M11.7 21.1 Q12.8 23.55 14.75 23.2 L15.6 22.95 16.15 22.65 16.25 22.6 18.35 20.75 Q20.25 18.6 21.1 14.95 L21.25 14.5 M16.8 12.2 L16.6 12.55 Q15.45 13.85 14.75 11.6 14.25 13.2 13.2 12.4 L12.95 12.2 12.8 11.9 Q12.55 11.35 12.55 10.45 M14.15 16.35 Q15.25 15.65 16.8 16.05 M14.75 11.6 L14.65 11.2 M10.95 15.9 L10.95 15.05 11.0 14.25 M11.45 20.3 L11.4 20.2 11.2 19.15 11.0 17.45 10.95 15.9 M14.15 16.35 Q13.3 16.9 12.7 18.15 L12.4 18.85 M11.6 20.9 L11.7 21.1 M11.5 20.5 L11.45 20.3 M11.5 20.5 L11.6 20.9" fill="none" stroke="#000000" stroke-linecap="round" stroke-linejoin="round" stroke-opacity="0.3019608" stroke-width="0.30000000000000004"/>
      <path d="M13.85 29.45 Q14.5 29.95 15.25 29.45 L15.35 29.8 15.05 30.0 Q13.8 30.75 12.7 28.8 L12.1 26.95 11.9 26.15 Q11.65 24.7 11.95 23.8 L12.45 22.95 Q11.45 23.6 10.65 24.95 10.1 25.9 9.5 27.8 L9.0 29.4 Q9.45 24.95 11.75 23.0 13.15 21.75 14.45 22.15 L13.9 22.15 Q13.0 22.4 12.4 23.55 11.7 25.0 12.75 27.7 13.25 29.0 13.85 29.45 M9.95 34.8 Q10.05 35.9 9.4 36.45 8.75 36.9 8.0 36.95 7.25 37.2 7.5 37.7 L6.55 37.5 Q5.15 37.5 4.65 38.3 L5.0 37.75 Q5.6 36.95 6.8 36.8 9.6 36.6 9.6 34.8 L9.95 34.8" fill="#d0c586" fill-rule="evenodd" stroke="none"/>
      <path d="M7.5 37.7 L8.6 38.5 9.6 39.7 10.05 40.45 Q11.55 43.0 10.75 44.85 L10.4 45.55 Q7.85 46.45 5.7 43.35 3.65 40.4 4.65 38.3 5.15 37.5 6.55 37.5 L7.5 37.7 M5.4 41.9 Q6.7 44.85 8.85 45.3 10.35 45.6 10.6 44.2 11.15 42.6 8.95 39.5 L8.25 38.8 Q7.0 37.7 5.85 38.1 4.5 38.5 5.0 40.85 L5.4 41.9" fill="#bfb072" fill-rule="evenodd" stroke="none"/>
      <path d="M11.9 26.15 L12.1 26.95 Q11.95 29.15 10.75 29.05 9.65 28.9 9.85 27.1 10.85 25.0 11.4 24.5 L11.9 26.15 M9.95 34.8 L10.45 35.05 10.25 36.4 Q10.25 37.85 8.6 38.5 L7.5 37.7 Q7.25 37.2 8.0 36.95 8.75 36.9 9.4 36.45 10.05 35.9 9.95 34.8" fill="#a89e64" fill-rule="evenodd" stroke="none"/>
      <path d="M14.85 22.25 Q13.95 22.05 13.4 22.75 12.9 23.75 12.75 25.45 12.6 26.95 13.85 29.45 13.25 29.0 12.75 27.7 11.7 25.0 12.4 23.55 13.0 22.4 13.9 22.15 L14.45 22.15 14.85 22.25 M9.5 27.8 Q10.1 25.9 10.65 24.95 11.45 23.6 12.45 22.95 L11.95 23.8 Q11.65 24.7 11.9 26.15 L11.4 24.5 Q10.85 25.0 9.85 27.1 L9.5 27.8 M8.6 38.5 Q10.25 37.85 10.25 36.4 L10.45 35.05 11.7 36.55 11.1 36.9 Q9.95 37.45 9.6 39.7 L8.6 38.5 M12.55 38.35 L13.45 40.7 Q13.85 43.75 10.95 45.3 10.65 45.45 10.4 45.55 L10.75 44.85 11.6 44.3 Q13.8 42.75 12.55 38.35 M5.4 41.9 L5.0 40.85 Q4.5 38.5 5.85 38.1 7.0 37.7 8.25 38.8 9.3 41.85 7.9 42.85 6.95 43.35 5.4 41.9" fill="#696141" fill-rule="evenodd" stroke="none"/>
      <path d="M13.85 29.45 Q12.6 26.95 12.75 25.45 12.9 23.75 13.4 22.75 13.95 22.05 14.85 22.25 L15.0 22.3 Q18.0 27.35 15.25 29.45 14.5 29.95 13.85 29.45 M12.1 26.95 L12.7 28.8 Q13.8 30.75 15.05 30.0 L9.8 33.45 Q8.85 32.3 9.0 29.95 L9.0 29.4 9.5 27.8 9.85 27.1 Q9.65 28.9 10.75 29.05 11.95 29.15 12.1 26.95 M11.7 36.55 L12.55 38.35 Q13.8 42.75 11.6 44.3 L10.75 44.85 Q11.55 43.0 10.05 40.45 L9.6 39.7 Q9.95 37.45 11.1 36.9 L11.7 36.55 M8.25 38.8 L8.95 39.5 Q11.15 42.6 10.6 44.2 10.35 45.6 8.85 45.3 6.7 44.85 5.4 41.9 6.95 43.35 7.9 42.85 9.3 41.85 8.25 38.8" fill="#5f5a3a" fill-rule="evenodd" stroke="none"/>
      <path d="M15.25 29.45 Q18.0 27.35 15.0 22.3 L14.85 22.25 14.45 22.15 Q13.15 21.75 11.75 23.0 9.45 24.95 9.0 29.4 L9.0 29.95 Q8.85 32.3 9.8 33.45 L15.05 30.0 15.35 29.8 15.25 29.45 M10.45 35.05 L9.95 34.8 9.6 34.8 Q9.6 36.6 6.8 36.8 5.6 36.95 5.0 37.75 L4.65 38.3 Q3.65 40.4 5.7 43.35 7.85 46.45 10.4 45.55 10.65 45.45 10.95 45.3 13.85 43.75 13.45 40.7 L12.55 38.35 11.7 36.55 10.45 35.05" fill="none" stroke="#000000" stroke-linecap="round" stroke-linejoin="round" stroke-opacity="0.3019608" stroke-width="0.30000000000000004"/>
      <path d="M17.9 33.25 Q17.6 34.4 16.9 35.5 L15.0 37.4 Q13.05 38.45 11.05 37.9 L10.2 37.3 Q9.3 36.05 9.95 34.4 10.45 33.2 11.25 32.25 10.5 33.7 10.4 34.85 10.4 35.8 10.85 36.55 12.55 38.45 16.1 35.85 17.45 34.45 17.9 33.25" fill="#d0c586" fill-rule="evenodd" stroke="none"/>
      <path d="M25.15 37.2 Q25.75 34.7 24.25 33.15 21.95 30.7 20.2 30.2 L18.1 29.65 17.0 29.65 Q14.85 29.6 12.85 30.75 L11.25 32.25 Q10.45 33.2 9.95 34.4 L9.35 36.1 Q9.0 36.85 9.9 38.9 9.15 37.95 8.7 36.7 9.0 33.05 11.4 31.0 13.9 28.9 17.5 29.2 21.05 29.45 23.7 31.7 26.25 34.0 25.9 36.6 25.6 39.2 23.2 41.95 20.9 44.65 17.3 44.75 15.1 44.75 13.4 44.05 12.65 41.95 11.8 40.8 12.65 41.2 13.3 42.1 L14.1 43.8 Q20.55 44.9 24.0 40.15 L24.8 38.4 25.15 37.2" fill="#bfb072" fill-rule="evenodd" stroke="none"/>
      <path d="M17.0 29.65 Q18.55 31.3 17.95 33.15 L17.9 33.25 Q17.45 34.45 16.1 35.85 12.55 38.45 10.85 36.55 10.4 35.8 10.4 34.85 10.5 33.7 11.25 32.25 L12.85 30.75 Q14.85 29.6 17.0 29.65" fill="#a89e64" fill-rule="evenodd" stroke="none"/>
      <path d="M17.0 29.65 L18.1 29.65 20.2 30.2 Q21.95 30.7 24.25 33.15 25.75 34.7 25.15 37.2 25.25 33.85 21.6 31.75 19.65 30.65 18.4 30.55 19.35 32.85 16.9 35.5 17.6 34.4 17.9 33.25 L17.95 33.15 Q18.55 31.3 17.0 29.65 M24.8 38.4 L24.0 40.15 Q20.55 44.9 14.1 43.8 L13.3 42.1 Q12.65 41.2 11.8 40.8 L10.8 39.75 9.9 38.9 Q9.0 36.85 9.35 36.1 L9.95 34.4 Q9.3 36.05 10.2 37.3 L11.05 37.9 13.8 38.45 16.5 38.8 Q17.6 39.15 18.05 39.45 19.25 40.25 18.55 41.8 18.0 42.7 16.35 42.95 22.05 42.75 24.8 38.4" fill="#696141" fill-rule="evenodd" stroke="none"/>
      <path d="M16.9 35.5 Q19.35 32.85 18.4 30.55 19.65 30.65 21.6 31.75 25.25 33.85 25.15 37.2 L24.8 38.4 Q22.05 42.75 16.35 42.95 18.0 42.7 18.55 41.8 19.25 40.25 18.05 39.45 17.6 39.15 16.5 38.8 L13.8 38.45 11.05 37.9 Q13.05 38.45 15.0 37.4 L16.9 35.5" fill="#5f5a3a" fill-rule="evenodd" stroke="none"/>
      <path d="M11.8 40.8 Q12.65 41.95 13.4 44.05 15.1 44.75 17.3 44.75 20.9 44.65 23.2 41.95 25.6 39.2 25.9 36.6 26.25 34.0 23.7 31.7 21.05 29.45 17.5 29.2 13.9 28.9 11.4 31.0 9.0 33.05 8.7 36.7 9.15 37.95 9.9 38.9 L10.8 39.75 11.8 40.8 Z" fill="none" stroke="#000000" stroke-linecap="round" stroke-linejoin="round" stroke-opacity="0.3019608" stroke-width="0.30000000000000004"/>
      <path d="M13.7 31.9 L13.85 31.9 14.55 31.15 Q14.75 30.75 14.55 30.4 14.35 30.1 13.9 30.05 L12.95 30.3 Q12.45 30.6 12.25 31.0 12.05 31.45 12.25 31.75 12.4 32.1 12.85 32.1 L13.4 32.05 13.7 31.9" fill="#d0c586" fill-rule="evenodd" stroke="none"/>
      <path d="M33.0 9.85 L32.95 9.8 33.0 9.8 33.05 9.85 33.0 9.85 M24.2 11.65 L24.2 11.6 24.25 11.65 24.2 11.65" fill="#ff9900" fill-rule="evenodd" stroke="none"/>
      <path d="M35.3 13.4 L35.3 13.8 Q35.3 15.7 33.7 16.9 32.05 18.05 29.75 17.75 27.55 17.45 25.85 15.9 24.95 15.0 24.55 14.05 24.2 13.3 24.2 12.45 L24.2 12.4 24.25 12.05 24.55 13.2 Q24.95 14.2 25.85 15.1 27.55 16.65 29.75 16.9 32.05 17.25 33.7 16.1 35.15 15.05 35.3 13.4" fill="#342018" fill-opacity="0.2509804" fill-rule="evenodd" stroke="none"/>
      <path d="M33.0 9.9 L33.0 9.85 33.05 9.85 33.0 9.9" fill="url(#gradient5)" fill-rule="evenodd" stroke="none"/>
      <path d="M31.7 13.45 Q33.5 11.05 32.1 9.3 L31.75 8.95 Q30.8 8.4 29.7 8.25 27.8 8.05 26.35 9.0 L25.85 9.45 Q25.1 10.2 24.95 11.3 26.15 14.0 30.25 14.05 L28.35 14.1 Q26.5 13.9 25.1 12.65 24.1 11.35 24.45 10.35 24.85 9.3 25.85 8.65 27.55 7.5 29.75 7.75 30.8 7.9 31.7 8.3 32.85 8.95 33.0 9.8 L32.95 9.8 33.0 9.85 33.0 9.9 33.1 10.75 Q33.1 12.4 31.7 13.45 M29.0 11.0 L28.75 10.85 Q28.25 10.5 28.4 10.1 28.6 9.65 29.05 9.45 L30.05 9.35 31.05 9.85 31.35 10.15 30.5 9.9 29.35 10.05 Q28.85 10.2 28.85 10.65 L29.0 11.0" fill="#d0c586" fill-rule="evenodd" stroke="none"/>
      <path d="M33.0 9.8 Q32.85 8.95 31.7 8.3 L32.45 8.7 Q33.1 9.1 33.7 9.65 L34.15 10.1 Q35.3 11.4 35.3 13.0 L35.3 13.4 Q35.15 15.05 33.7 16.1 32.05 17.25 29.75 16.9 27.55 16.65 25.85 15.1 24.95 14.2 24.55 13.2 L24.25 12.05 24.2 11.65 24.25 11.65 24.2 11.6 Q24.25 10.95 24.45 10.35 24.1 11.35 25.1 12.65 25.35 13.45 25.95 14.15 L26.35 14.55 Q27.8 15.9 29.7 16.1 31.65 16.4 33.05 15.45 34.45 14.4 34.45 12.75 L34.2 11.5 Q33.9 10.7 33.2 10.05 L33.05 9.85 33.0 9.8" fill="#bfb072" fill-rule="evenodd" stroke="none"/>
      <path d="M30.25 14.05 Q26.15 14.0 24.95 11.3 25.1 10.2 25.85 9.45 L26.35 9.0 Q27.8 8.05 29.7 8.25 30.8 8.4 31.75 8.95 L32.1 9.3 Q33.5 11.05 31.7 13.45 L30.25 14.05 M31.35 10.15 L31.05 9.85 30.05 9.35 29.05 9.45 Q28.6 9.65 28.4 10.1 28.25 10.5 28.75 10.85 L29.0 11.0 29.9 11.25 31.05 11.15 31.5 10.6 31.35 10.15" fill="#a89e64" fill-rule="evenodd" stroke="none"/>
      <path d="M30.25 14.05 L31.7 13.45 Q33.1 12.4 33.1 10.75 L33.0 9.9 33.05 9.85 33.2 10.05 Q33.9 10.7 34.2 11.5 L34.45 12.75 Q34.45 14.4 33.05 15.45 31.65 16.4 29.7 16.1 27.8 15.9 26.35 14.55 L25.95 14.15 Q25.35 13.45 25.1 12.65 26.5 13.9 28.35 14.1 L30.25 14.05" fill="#696141" fill-rule="evenodd" stroke="none"/>
      <path d="M31.35 10.15 L31.5 10.6 31.05 11.15 29.9 11.25 29.0 11.0 28.85 10.65 Q28.85 10.2 29.35 10.05 L30.5 9.9 31.35 10.15" fill="#5f5a3a" fill-rule="evenodd" stroke="none"/>
      <path d="M31.7 8.3 Q30.8 7.9 29.75 7.75 27.55 7.5 25.85 8.65 24.85 9.3 24.45 10.35 24.25 10.95 24.2 11.6 L24.2 11.65 24.25 12.05 24.55 13.2 Q24.95 14.2 25.85 15.1 27.55 16.65 29.75 16.9 32.05 17.25 33.7 16.1 35.15 15.05 35.3 13.4 L35.3 13.0 Q35.3 11.4 34.15 10.1 L33.7 9.65 Q33.1 9.1 32.45 8.7 L31.7 8.3 Z" fill="none" stroke="#000000" stroke-linecap="round" stroke-linejoin="round" stroke-opacity="0.3019608" stroke-width="0.30000000000000004"/>
      <path d="M14.1 24.5 L14.3 23.35 Q14.85 22.3 16.65 22.85 L18.45 24.15 Q15.4 22.1 14.95 23.9 14.75 26.15 16.35 28.95 L15.15 27.25 Q14.5 26.15 14.1 24.5 M21.75 38.05 Q20.05 38.2 17.6 39.55 L16.7 39.95 Q16.15 40.25 16.4 40.65 L14.45 40.5 Q13.05 40.4 11.6 41.9 L12.55 40.8 Q14.15 39.8 16.2 39.75 L19.5 38.25 Q20.45 37.9 21.15 37.85 L21.75 38.05" fill="#d0c586" fill-rule="evenodd" stroke="none"/>
      <path d="M14.05 27.65 Q12.35 23.3 14.45 22.2 18.15 21.45 22.55 26.65 27.3 33.3 25.05 36.8 23.95 38.05 22.75 36.2 21.6 34.4 19.5 33.6 17.45 32.7 16.0 31.0 14.7 29.25 14.05 27.65 M16.65 22.85 Q14.85 22.3 14.3 23.35 L14.1 24.5 Q14.15 26.25 15.45 29.05 L15.75 29.6 Q17.25 31.55 19.05 32.4 L19.9 32.7 Q21.8 33.55 23.25 35.45 24.55 37.15 24.95 35.2 25.4 33.75 24.85 32.3 L23.6 29.65 Q21.9 26.6 19.35 24.5 L17.95 23.4 Q17.25 23.05 16.65 22.85 M16.4 40.65 Q17.3 40.85 17.95 41.4 L19.1 42.75 19.4 43.3 Q20.05 44.9 19.3 46.65 L20.4 45.85 Q22.65 43.25 23.1 40.5 23.2 39.7 22.85 39.1 23.2 39.0 23.35 39.35 L23.5 39.8 Q23.15 44.85 19.05 47.8 L18.5 48.1 17.7 48.4 16.95 48.6 Q14.35 49.1 12.55 46.5 10.65 43.65 11.6 41.9 13.05 40.4 14.45 40.5 L16.4 40.65 M12.5 45.55 L13.4 46.7 Q15.05 48.45 17.05 48.1 18.7 47.45 18.9 45.85 19.45 42.9 16.95 41.45 L15.85 41.1 Q13.95 40.65 12.65 41.55 11.15 42.65 12.5 45.55" fill="#bfb072" fill-rule="evenodd" stroke="none"/>
      <path d="M16.35 28.95 Q14.75 26.15 14.95 23.9 15.4 22.1 18.45 24.15 L20.1 25.9 Q21.95 28.7 21.05 30.4 20.05 31.4 18.3 30.4 L16.35 28.95 M17.95 41.4 Q17.3 40.85 16.4 40.65 16.15 40.25 16.7 39.95 L17.6 39.55 Q20.05 38.2 21.75 38.05 22.9 38.55 21.85 39.55 L21.6 39.75 Q20.35 41.05 17.95 41.4" fill="#a89e64" fill-rule="evenodd" stroke="none"/>
      <path d="M16.65 22.85 Q17.25 23.05 17.95 23.4 L19.35 24.5 Q21.85 26.7 22.1 29.8 22.15 32.2 20.0 31.8 18.05 31.35 15.45 29.05 14.15 26.25 14.1 24.5 14.5 26.15 15.15 27.25 L16.35 28.95 18.3 30.4 Q20.05 31.4 21.05 30.4 21.95 28.7 20.1 25.9 L18.45 24.15 16.65 22.85 M23.6 29.65 L24.85 32.3 Q25.4 33.75 24.95 35.2 24.55 37.15 23.25 35.45 21.8 33.55 19.9 32.7 L19.05 32.4 20.6 32.6 Q21.95 33.05 22.75 34.1 L24.05 35.4 Q24.85 35.75 24.7 33.9 24.6 32.0 23.6 29.65 M17.95 41.4 Q20.35 41.05 21.6 39.75 L21.85 39.55 Q22.9 38.55 21.75 38.05 L21.15 37.85 Q22.8 37.75 23.35 39.35 23.2 39.0 22.85 39.1 22.55 39.2 22.1 39.7 20.25 41.25 19.4 43.3 L19.1 42.75 17.95 41.4 M12.5 45.55 Q11.15 42.65 12.65 41.55 13.95 40.65 15.85 41.1 18.45 43.25 17.25 45.5 16.45 46.85 14.3 46.75 L14.25 46.75 Q13.6 46.7 12.5 45.55" fill="#696141" fill-rule="evenodd" stroke="none"/>
      <path d="M19.35 24.5 Q21.9 26.6 23.6 29.65 24.6 32.0 24.7 33.9 24.85 35.75 24.05 35.4 L22.75 34.1 Q21.95 33.05 20.6 32.6 L19.05 32.4 Q17.25 31.55 15.75 29.6 L15.45 29.05 Q18.05 31.35 20.0 31.8 22.15 32.2 22.1 29.8 21.85 26.7 19.35 24.5 M22.85 39.1 Q23.2 39.7 23.1 40.5 22.65 43.25 20.4 45.85 L19.3 46.65 Q20.05 44.9 19.4 43.3 20.25 41.25 22.1 39.7 22.55 39.2 22.85 39.1 M15.85 41.1 L16.95 41.45 Q19.45 42.9 18.9 45.85 18.7 47.45 17.05 48.1 15.05 48.45 13.4 46.7 L12.5 45.55 Q13.6 46.7 14.25 46.75 L14.3 46.75 Q16.45 46.85 17.25 45.5 18.45 43.25 15.85 41.1" fill="#5f5a3a" fill-rule="evenodd" stroke="none"/>
      <path d="M14.05 27.65 Q14.7 29.25 16.0 31.0 17.45 32.7 19.5 33.6 21.6 34.4 22.75 36.2 23.95 38.05 25.05 36.8 27.3 33.3 22.55 26.65 18.15 21.45 14.45 22.2 12.35 23.3 14.05 27.65 M11.6 41.9 Q10.65 43.65 12.55 46.5 14.35 49.1 16.95 48.6 L17.7 48.4 18.5 48.1 19.05 47.8 Q23.15 44.85 23.5 39.8 L23.35 39.35 Q22.8 37.75 21.15 37.85 20.45 37.9 19.5 38.25 L16.2 39.75 Q14.15 39.8 12.55 40.8 L11.6 41.9" fill="none" stroke="#000000" stroke-linecap="round" stroke-linejoin="round" stroke-opacity="0.3019608" stroke-width="0.30000000000000004"/>
      <path d="M38.55 20.45 L38.5 20.5 38.5 20.45 38.55 20.45" fill="#ff9900" fill-rule="evenodd" stroke="none"/>
      <path d="M40.05 16.1 Q38.7 17.1 38.85 17.75 39.05 18.3 40.05 18.95 L40.2 19.05 40.0 19.0 39.7 18.85 Q38.65 18.45 38.5 17.7 L38.9 16.9 40.05 16.1 M41.75 19.35 Q43.85 18.8 44.9 17.9 45.85 17.0 45.3 15.9 44.95 14.9 41.8 15.3 L42.15 15.2 42.5 15.1 42.8 15.05 42.9 15.05 44.55 14.85 Q46.15 15.25 46.2 16.35 46.35 17.85 43.95 19.0 L42.05 19.35 41.75 19.35 M38.5 20.45 L38.5 20.5 Q36.65 21.2 36.65 22.3 36.6 23.75 38.35 25.6 36.95 24.65 36.25 22.9 36.1 22.15 36.3 21.6 L36.65 21.15 Q37.5 20.6 38.5 20.45 M41.55 26.65 Q45.8 26.1 46.5 23.8 46.85 22.75 45.55 21.35 47.1 22.15 47.1 23.8 L46.0 25.2 Q44.35 26.85 41.55 26.65 M34.05 29.65 L35.75 31.4 36.75 32.0 38.6 32.15 Q40.25 31.65 39.85 30.15 39.55 28.9 38.35 27.5 39.7 28.65 40.35 29.9 40.75 31.9 39.45 32.7 L36.6 32.55 35.2 31.45 35.0 31.15 34.05 29.65 M37.6 26.95 Q35.05 25.75 33.75 26.65 L34.4 25.95 Q36.0 25.75 37.6 26.95" fill="#d0c586" fill-rule="evenodd" stroke="none"/>
      <path d="M41.8 15.3 L40.85 15.65 40.05 16.1 38.9 16.9 38.5 17.7 38.35 18.7 Q38.1 17.55 38.75 16.3 39.8 15.6 41.0 15.15 L42.9 14.55 Q46.55 13.55 47.5 16.85 48.2 19.6 46.3 20.95 L45.75 20.65 46.3 20.95 Q48.25 22.2 47.45 25.0 46.3 29.2 42.4 29.3 L40.75 29.2 40.0 28.3 40.75 29.2 Q42.4 31.3 40.75 33.35 38.85 36.05 36.2 34.45 L36.1 34.45 Q33.35 32.45 33.15 28.4 L33.55 26.9 Q33.4 27.55 33.55 28.5 L33.55 28.6 33.7 29.4 Q34.05 31.05 35.1 32.8 L36.3 33.8 Q37.2 34.4 38.0 34.45 38.7 34.45 39.5 33.85 41.05 32.6 40.8 31.0 L40.35 29.9 Q39.7 28.65 38.35 27.5 L37.95 27.2 37.75 27.05 37.6 26.95 Q36.0 25.75 34.4 25.95 35.0 25.55 35.9 25.45 L36.1 25.6 38.1 26.75 39.75 28.05 40.0 28.3 40.95 28.45 42.25 28.5 Q45.85 28.7 47.0 24.55 L47.1 23.8 Q47.1 22.15 45.55 21.35 L44.3 20.85 39.65 20.35 38.55 20.45 38.5 20.45 37.1 20.65 37.85 20.1 39.0 19.95 38.5 19.0 Q38.95 19.7 39.8 19.85 L39.95 19.9 43.8 20.1 Q44.95 20.3 45.75 20.65 47.7 19.2 46.85 16.65 46.2 15.0 44.55 14.85 L42.9 15.05 42.8 15.05 42.5 15.1 42.15 15.2 41.8 15.3 M39.95 19.9 L39.8 19.9 39.0 19.95 39.8 19.9 39.95 19.9" fill="#bfb072" fill-rule="evenodd" stroke="none"/>
      <path d="M40.05 16.1 L40.85 15.65 41.8 15.3 Q44.95 14.9 45.3 15.9 45.85 17.0 44.9 17.9 43.85 18.8 41.75 19.35 L40.2 19.05 40.05 18.95 Q39.05 18.3 38.85 17.75 38.7 17.1 40.05 16.1 M38.5 20.5 L38.55 20.45 39.65 20.35 44.3 20.85 45.55 21.35 Q46.85 22.75 46.5 23.8 45.8 26.1 41.55 26.65 L40.65 26.55 Q39.6 26.3 38.8 25.85 L38.35 25.6 Q36.6 23.75 36.65 22.3 36.65 21.2 38.5 20.5 M36.65 21.15 L37.1 20.65 38.5 20.45 Q37.5 20.6 36.65 21.15 M34.05 29.65 L33.55 28.6 33.55 28.5 Q33.4 27.55 33.55 26.9 L33.75 26.65 Q35.05 25.75 37.6 26.95 L37.75 27.05 37.95 27.2 38.35 27.5 Q39.55 28.9 39.85 30.15 40.25 31.65 38.6 32.15 L36.75 32.0 35.75 31.4 34.05 29.65" fill="#a89e64" fill-rule="evenodd" stroke="none"/>
      <path d="M40.2 19.05 L41.75 19.35 42.05 19.35 42.05 19.4 44.65 19.15 Q46.05 18.55 46.5 17.4 47.1 18.6 45.75 20.65 44.95 20.3 43.8 20.1 L39.95 19.9 39.8 19.85 Q38.95 19.7 38.5 19.0 L38.35 18.7 38.5 17.7 Q38.65 18.45 39.7 18.85 L40.0 19.0 40.2 19.05 M38.35 25.6 L38.8 25.85 Q41.05 27.4 43.05 27.1 45.3 26.7 45.6 26.3 L44.85 27.4 Q43.75 28.45 40.95 28.45 L40.0 28.3 39.75 28.05 38.1 26.75 36.1 25.6 35.85 25.0 Q35.4 23.05 36.3 21.6 36.1 22.15 36.25 22.9 36.95 24.65 38.35 25.6 M33.55 28.6 L34.05 29.65 35.0 31.15 35.2 31.45 35.15 31.5 Q35.8 32.85 37.35 33.3 39.2 33.65 40.25 32.45 40.0 33.7 38.0 34.45 37.2 34.4 36.3 33.8 L35.1 32.8 Q34.05 31.05 33.7 29.4 L33.55 28.6" fill="#696141" fill-rule="evenodd" stroke="none"/>
      <path d="M44.55 14.85 Q46.2 15.0 46.85 16.65 47.7 19.2 45.75 20.65 47.1 18.6 46.5 17.4 46.05 18.55 44.65 19.15 L42.05 19.4 42.05 19.35 43.95 19.0 Q46.35 17.85 46.2 16.35 46.15 15.25 44.55 14.85 M38.8 25.85 Q39.6 26.3 40.65 26.55 L41.55 26.65 Q44.35 26.85 46.0 25.2 L47.1 23.8 47.0 24.55 Q45.85 28.7 42.25 28.5 L40.95 28.45 Q43.75 28.45 44.85 27.4 L45.6 26.3 Q45.3 26.7 43.05 27.1 41.05 27.4 38.8 25.85 M38.0 34.45 Q40.0 33.7 40.25 32.45 39.2 33.65 37.35 33.3 35.8 32.85 35.15 31.5 L35.2 31.45 36.6 32.55 39.45 32.7 Q40.75 31.9 40.35 29.9 L40.8 31.0 Q41.05 32.6 39.5 33.85 38.7 34.45 38.0 34.45" fill="#5f5a3a" fill-rule="evenodd" stroke="none"/>
      <path d="M45.75 20.65 L46.3 20.95 Q48.2 19.6 47.5 16.85 46.55 13.55 42.9 14.55 L41.0 15.15 Q39.8 15.6 38.75 16.3 M37.85 20.1 L39.0 19.95 39.8 19.9 39.95 19.9 43.8 20.1 Q44.95 20.3 45.75 20.65 M35.85 25.0 L36.1 25.6 38.1 26.75 39.75 28.05 40.0 28.3 40.75 29.2 42.4 29.3 Q46.3 29.2 47.45 25.0 48.25 22.2 46.3 20.95 M35.9 25.45 L36.1 25.6 M40.75 29.2 Q42.4 31.3 40.75 33.35 38.85 36.05 36.2 34.45 L36.1 34.45 Q33.35 32.45 33.15 28.4" fill="none" stroke="#000000" stroke-linecap="round" stroke-linejoin="round" stroke-opacity="0.3019608" stroke-width="0.30000000000000004"/>
      <path d="M42.8 21.8 Q42.75 22.15 43.05 22.55 L43.95 23.05 44.95 23.05 45.55 22.5 Q45.7 22.1 45.35 21.75 45.05 21.4 44.4 21.2 43.9 21.05 43.4 21.2 42.9 21.4 42.8 21.8" fill="#d0c586" fill-rule="evenodd" stroke="none"/>
      <path d="M42.05 16.7 L42.55 17.15 43.45 17.15 44.2 16.7 Q44.5 16.35 44.4 16.05 L43.95 15.55 43.05 15.55 42.25 16.0 Q41.95 16.35 42.05 16.7" fill="#d0c586" fill-rule="evenodd" stroke="none"/>
      <path d="M37.95 28.35 Q37.7 28.5 37.7 28.8 37.7 29.15 37.85 29.5 L38.4 29.95 38.9 30.0 39.15 29.55 38.95 28.85 38.5 28.4 37.95 28.35" fill="#d0c586" fill-rule="evenodd" stroke="none"/>
      <path d="M7.5 24.65 L8.05 24.6 8.55 24.15 8.7 23.45 8.45 23.05 7.95 23.0 7.45 23.55 7.25 24.2 7.5 24.65" fill="#d0c586" fill-rule="evenodd" stroke="none"/>
      <path d="M13.95 31.15 L14.1 31.3 14.5 32.1 14.5 33.35 Q14.3 34.6 13.4 35.4 12.55 36.25 11.5 36.35 10.4 36.35 9.75 35.5 L9.65 35.35 Q10.25 36.0 11.2 36.0 12.3 35.95 13.15 35.05 14.0 34.25 14.25 33.0 L14.2 31.75 13.95 31.15" fill="#342018" fill-opacity="0.2509804" fill-rule="evenodd" stroke="none"/>
      <path d="M9.45 33.1 L9.55 33.2 9.45 33.2 9.45 33.1" fill="url(#gradient6)" fill-rule="evenodd" stroke="none"/>
      <path d="M12.05 34.0 Q13.75 32.65 13.4 31.1 13.0 30.65 12.4 30.55 L12.05 30.55 Q11.1 30.55 10.4 31.3 9.9 31.75 9.7 32.3 L9.7 32.55 Q9.65 33.75 11.2 34.2 10.25 34.2 9.7 33.5 L9.55 33.2 9.45 33.1 9.45 33.05 Q9.2 32.65 9.55 32.0 L10.15 31.1 Q11.05 30.3 12.15 30.2 12.8 30.2 13.3 30.5 13.75 30.85 13.75 31.7 13.55 32.7 12.85 33.4 L12.05 34.0 M10.25 32.65 L10.3 32.45 10.55 31.9 Q10.7 31.7 11.0 31.6 L11.5 31.65 11.6 32.1 11.55 32.25 11.5 32.05 11.05 31.95 Q10.8 32.05 10.55 32.25 L10.25 32.65" fill="#d0c586" fill-rule="evenodd" stroke="none"/>
      <path d="M13.75 31.7 Q13.75 30.85 13.3 30.5 L13.8 30.95 13.8 31.0 13.95 31.15 14.2 31.75 14.25 33.0 Q14.0 34.25 13.15 35.05 12.3 35.95 11.2 36.0 10.25 36.0 9.65 35.35 L9.5 35.15 Q9.0 34.5 9.05 33.55 L9.1 33.2 9.35 32.4 9.55 32.0 Q9.2 32.65 9.45 33.05 L9.45 33.1 9.45 33.2 9.5 34.15 9.8 34.8 Q10.3 35.5 11.3 35.5 12.2 35.45 12.95 34.7 13.65 33.95 13.85 32.95 L13.9 32.65 13.75 31.7 M13.8 30.95 L13.8 31.0 13.8 30.95" fill="#bfb072" fill-rule="evenodd" stroke="none"/>
      <path d="M11.2 34.2 Q9.65 33.75 9.7 32.55 L9.7 32.3 Q9.9 31.75 10.4 31.3 11.1 30.55 12.05 30.55 L12.4 30.55 Q13.0 30.65 13.4 31.1 13.75 32.65 12.05 34.0 L11.2 34.2 M11.55 32.25 L11.6 32.1 11.5 31.65 11.0 31.6 Q10.7 31.7 10.55 31.9 L10.3 32.45 10.25 32.65 10.35 32.9 10.7 33.0 11.25 32.65 11.55 32.25" fill="#a89e64" fill-rule="evenodd" stroke="none"/>
      <path d="M11.2 34.2 L12.05 34.0 12.85 33.4 Q13.55 32.7 13.75 31.7 L13.9 32.65 13.85 32.95 Q13.65 33.95 12.95 34.7 12.2 35.45 11.3 35.5 10.3 35.5 9.8 34.8 L9.5 34.15 9.45 33.2 9.55 33.2 9.7 33.5 Q10.25 34.2 11.2 34.2" fill="#696141" fill-rule="evenodd" stroke="none"/>
      <path d="M11.55 32.25 L11.25 32.65 10.7 33.0 10.35 32.9 10.25 32.65 10.55 32.25 Q10.8 32.05 11.05 31.95 L11.5 32.05 11.55 32.25" fill="#5f5a3a" fill-rule="evenodd" stroke="none"/>
      <path d="M13.3 30.5 Q12.8 30.2 12.15 30.2 11.05 30.3 10.15 31.1 L9.55 32.0 9.35 32.4 9.1 33.2 9.05 33.55 Q9.0 34.5 9.5 35.15 L9.65 35.35 Q10.25 36.0 11.2 36.0 12.3 35.95 13.15 35.05 14.0 34.25 14.25 33.0 L14.2 31.75 13.95 31.15 13.8 31.0 13.8 30.95 13.3 30.5 Z" fill="none" stroke="#000000" stroke-linecap="round" stroke-linejoin="round" stroke-opacity="0.3019608" stroke-width="0.30000000000000004"/>
    </g>
    <linearGradient gradientTransform="matrix(-6.0E-4, -0.0037, -0.0065, 0.001, 22.2, 6.3)" gradientUnits="userSpaceOnUse" id="gradient0" spreadMethod="pad" x1="-819.2" x2="819.2">
      <stop offset="0.0" stop-color="#f4bb35"/>
      <stop offset="1.0" stop-color="#ff9900"/>
    </linearGradient>
    <linearGradient gradientTransform="matrix(9.0E-4, -0.0055, -0.0063, -0.001, 17.8, 15.9)" gradientUnits="userSpaceOnUse" id="gradient1" spreadMethod="pad" x1="-819.2" x2="819.2">
      <stop offset="0.0" stop-color="#cc6b22"/>
      <stop offset="1.0" stop-color="#ff9900"/>
    </linearGradient>
    <linearGradient gradientTransform="matrix(-0.0112, 0.0023, 0.0023, 0.0111, 24.2, 25.45)" gradientUnits="userSpaceOnUse" id="gradient2" spreadMethod="pad" x1="-819.2" x2="819.2">
      <stop offset="0.0" stop-color="#cc6b22"/>
      <stop offset="1.0" stop-color="#ff9900"/>
    </linearGradient>
    <linearGradient gradientTransform="matrix(0.004, -0.007, -0.0172, -0.0098, 26.9, 19.15)" gradientUnits="userSpaceOnUse" id="gradient3" spreadMethod="pad" x1="-819.2" x2="819.2">
      <stop offset="0.0" stop-color="#f4bb35"/>
      <stop offset="1.0" stop-color="#ff9900"/>
    </linearGradient>
    <linearGradient gradientTransform="matrix(-0.0012, -0.002, -0.0151, 0.0087, 29.85, 28.25)" gradientUnits="userSpaceOnUse" id="gradient4" spreadMethod="pad" x1="-819.2" x2="819.2">
      <stop offset="0.0" stop-color="#f4bb35"/>
      <stop offset="1.0" stop-color="#ff9900"/>
    </linearGradient>
    <linearGradient gradientTransform="matrix(-0.0032, 0.0018, 0.002, 0.0034, 29.95, 13.5)" gradientUnits="userSpaceOnUse" id="gradient5" spreadMethod="pad" x1="-819.2" x2="819.2">
      <stop offset="0.0" stop-color="#f4bb35"/>
      <stop offset="1.0" stop-color="#ff9900"/>
    </linearGradient>
    <linearGradient gradientTransform="matrix(0.0021, 0.0, 0.0, -0.0023, 11.8, 33.6)" gradientUnits="userSpaceOnUse" id="gradient6" spreadMethod="pad" x1="-819.2" x2="819.2">
      <stop offset="0.0" stop-color="#cc6b22"/>
      <stop offset="1.0" stop-color="#ff9900"/>
    </linearGradient>
    <g id="sprite1" transform="matrix(1.0, 0.0, 0.0, 1.0, 0.15, 0.15)">
      <use height="158.05" transform="matrix(1.0, 0.0, 0.0, 1.0, -0.75, -0.75)" width="74.3" xlink:href="#shape1"/>
    </g>
    <g id="shape1" transform="matrix(1.0, 0.0, 0.0, 1.0, 0.75, 0.75)">
      <path d="M67.1 47.3 Q60.05 84.7 45.15 118.0 L67.1 47.3" fill="#000000" fill-opacity="0.05490196" fill-rule="evenodd" stroke="none"/>
      <path d="M72.8 0.4 Q71.4 24.6 67.1 47.3 60.05 84.7 45.15 118.0 L45.0 118.3 Q39.4 130.85 24.25 156.55 M43.75 69.05 Q26.65 113.65 20.4 117.6 17.55 109.85 28.1 81.45 38.25 56.05 47.2 54.0 48.65 56.75 43.75 69.05 M48.0 24.8 Q34.25 59.6 13.6 90.6 7.15 100.3 0.0 109.6 M66.8 0.0 Q53.65 80.05 13.6 143.35 L12.4 145.2 M67.1 47.3 L45.15 118.0" fill="none" stroke="#000000" stroke-linecap="round" stroke-linejoin="round" stroke-opacity="0.08627451" stroke-width="0.30000000000000004"/>
    </g>
  </defs>
</svg>
