<?xml version="1.0" encoding="UTF-8" standalone="no"?>
<svg xmlns:xlink="http://www.w3.org/1999/xlink" height="52.0px" width="52.0px" xmlns="http://www.w3.org/2000/svg">
  <g transform="matrix(1.0, 0.0, 0.0, 1.0, 0.0, 0.0)">
    <use height="54.0" transform="matrix(1.0, 0.0, 0.0, 1.0, -1.0, -1.0)" width="54.0" xlink:href="#shape0"/>
    <use height="0.0" transform="matrix(0.1148, 0.0308, -0.0437, 0.1474, 21.2, 35.75)" width="0.0" xlink:href="#sprite0"/>
    <use height="0.0" transform="matrix(0.1291, 0.0346, -0.0213, 0.1096, 31.7, 17.85)" width="0.0" xlink:href="#sprite0"/>
    <use height="81.5" transform="matrix(0.1488, 0.0399, -0.04, 0.1494, 33.4, 15.75)" width="81.5" xlink:href="#sprite1"/>
    <use height="81.5" transform="matrix(0.0972, 0.026, -0.0262, 0.0976, 19.7, 35.05)" width="81.5" xlink:href="#sprite1"/>
  </g>
  <defs>
    <g id="shape0" transform="matrix(1.0, 0.0, 0.0, 1.0, 1.0, 1.0)">
      <path d="M52.0 0.0 L52.0 52.0 0.0 52.0 0.0 0.0 52.0 0.0" fill="#795fa9" fill-opacity="0.0" fill-rule="evenodd" stroke="none"/>
      <path d="M40.0 15.35 Q43.25 15.15 43.65 17.55 43.9 19.25 41.4 21.8 42.2 23.3 42.4 24.55 41.3 25.15 39.9 25.0 L39.8 25.3 39.8 25.35 39.35 26.45 38.95 27.2 39.1 30.15 Q37.6 30.55 35.7 29.7 L35.3 29.9 34.85 30.0 Q33.7 31.8 32.45 32.6 30.95 31.8 30.15 29.9 L30.0 29.85 29.4 29.65 28.95 30.05 29.65 30.55 29.75 31.4 Q30.75 32.6 31.0 34.55 31.05 35.45 30.7 36.3 30.2 37.55 28.8 38.7 L28.55 39.4 29.1 39.6 30.25 40.35 Q31.35 41.85 27.3 43.9 23.7 46.15 19.9 46.2 17.45 46.2 15.45 45.5 L15.25 45.4 Q13.85 44.9 12.4 44.05 8.65 41.45 7.25 38.2 L7.1 37.8 6.7 36.35 6.6 35.9 6.5 34.6 Q6.45 33.0 6.9 31.3 L7.0 31.05 7.05 30.9 7.3 29.95 Q9.8 22.75 19.8 23.5 L20.9 23.6 21.15 23.65 20.2 22.45 19.9 22.05 Q17.35 19.6 16.75 16.1 16.0 11.65 18.7 8.05 21.4 4.4 26.0 3.75 28.0 3.45 29.9 3.8 L31.45 4.2 Q32.95 4.75 34.35 5.7 L36.5 7.6 37.55 9.15 38.45 10.85 38.85 12.4 38.85 12.45 Q40.1 13.65 40.0 15.35 M6.5 34.6 Q7.1 37.4 8.1 38.65 12.4 44.15 15.4 38.3 16.8 33.7 20.05 30.3 24.7 25.8 27.45 26.65 28.65 27.05 29.25 27.55 30.4 28.45 29.6 29.5 L29.4 29.65 28.9 30.05 27.7 31.55 Q26.55 32.95 26.2 35.5 25.9 38.05 28.0 39.2 L28.55 39.4 29.1 39.6 M30.0 29.85 L30.15 29.9 30.7 30.0 32.95 29.9 Q34.75 29.55 35.5 28.5 L35.95 27.5 Q36.35 26.5 35.4 25.9 L34.7 25.6 31.0 24.85 28.4 24.7 26.9 22.35 Q25.4 20.5 23.75 19.7 L23.4 19.55 21.05 19.2 Q19.85 19.35 19.6 20.45 L19.65 21.3 19.9 22.05 19.95 22.05 20.2 22.45 M21.8 23.75 L21.15 23.65 M6.9 31.3 L7.0 31.05 M6.7 36.35 L6.6 35.85 6.6 35.9" fill="none" stroke="#000000" stroke-linecap="round" stroke-linejoin="round" stroke-opacity="0.3019608" stroke-width="1.0"/>
      <path d="M28.5 29.95 Q29.1 30.0 29.65 30.55 29.85 31.0 29.7 31.4 L29.4 31.9 29.7 31.4 Q30.75 32.6 31.0 34.55 31.05 35.45 30.7 36.3 30.25 37.55 28.8 38.7 28.4 40.1 27.45 39.6 29.05 39.15 27.8 36.95 27.1 34.3 28.65 32.3 29.85 30.65 28.5 29.95 M28.7 37.75 L28.8 38.7 28.7 37.75 Q30.45 37.05 30.5 34.65 30.3 35.8 29.85 35.9 L29.2 35.95 Q30.55 35.8 30.15 33.15 L29.9 32.6 29.4 31.9 28.55 33.45 Q27.6 35.3 28.35 36.95 L28.7 37.75" fill="#f9f8ec" fill-rule="evenodd" stroke="none"/>
      <path d="M28.5 29.95 Q29.85 30.65 28.65 32.3 27.1 34.3 27.8 36.95 29.05 39.15 27.45 39.6 L27.05 39.3 Q24.9 37.25 25.65 33.7 26.5 30.9 27.6 30.2 28.05 29.9 28.5 29.95 M29.9 32.6 L30.15 33.15 Q30.55 35.8 29.2 35.95 28.35 35.5 28.75 33.6 29.25 32.2 29.9 32.6" fill="#d5d580" fill-rule="evenodd" stroke="none"/>
      <path d="M28.7 37.75 L28.35 36.95 Q27.6 35.3 28.55 33.45 L29.4 31.9 29.9 32.6 Q29.25 32.2 28.75 33.6 28.35 35.5 29.2 35.95 L29.85 35.9 Q30.3 35.8 30.5 34.65 30.45 37.05 28.7 37.75" fill="#bfbf40" fill-rule="evenodd" stroke="none"/>
      <path d="M29.7 31.4 Q29.85 31.0 29.65 30.55 29.1 30.0 28.5 29.95 28.05 29.9 27.6 30.2 26.5 30.9 25.65 33.7 24.9 37.25 27.05 39.3 L27.45 39.6 Q28.4 40.1 28.8 38.7 L28.7 37.75 28.35 36.95 Q27.6 35.3 28.55 33.45 L29.4 31.9 29.7 31.4 Q30.75 32.6 31.0 34.55 31.05 35.45 30.7 36.3 30.25 37.55 28.8 38.7" fill="none" stroke="#000000" stroke-linecap="round" stroke-linejoin="round" stroke-opacity="0.3019608" stroke-width="0.30000000000000004"/>
      <path d="M39.6 22.8 L40.6 21.1 Q41.6 22.65 41.9 24.15 40.2 24.25 39.6 22.8" fill="#d5d580" fill-rule="evenodd" stroke="none"/>
      <path d="M41.9 24.15 Q41.6 22.65 40.6 21.1 L40.85 20.65 Q42.1 22.85 42.35 24.55 L38.5 24.8 38.7 24.35 41.9 24.15" fill="#f0f0d2" fill-rule="evenodd" stroke="none"/>
      <path d="M39.6 22.8 Q40.2 24.25 41.9 24.15 L38.7 24.35 39.6 22.8" fill="#a6a637" fill-rule="evenodd" stroke="none"/>
      <path d="M40.85 20.65 Q42.1 22.85 42.35 24.55 L38.5 24.8" fill="none" stroke="#000000" stroke-linecap="round" stroke-linejoin="round" stroke-opacity="0.3019608" stroke-width="0.30000000000000004"/>
      <path d="M36.85 27.85 L38.3 26.5 Q38.9 28.2 38.75 29.7 37.05 29.35 36.85 27.85" fill="#d5d580" fill-rule="evenodd" stroke="none"/>
      <path d="M38.75 29.7 Q38.9 28.2 38.3 26.5 L38.65 26.15 Q39.3 28.5 39.15 30.15 37.4 30.65 35.15 29.4 L35.5 29.1 Q37.75 30.25 38.75 29.7" fill="#f0f0d2" fill-rule="evenodd" stroke="none"/>
      <path d="M36.85 27.85 Q37.05 29.35 38.75 29.7 37.75 30.25 35.5 29.1 L36.85 27.85" fill="#a6a637" fill-rule="evenodd" stroke="none"/>
      <path d="M38.65 26.15 Q39.3 28.5 39.15 30.15 37.4 30.65 35.15 29.4" fill="none" stroke="#000000" stroke-linecap="round" stroke-linejoin="round" stroke-opacity="0.3019608" stroke-width="0.30000000000000004"/>
      <path d="M32.35 29.6 L34.4 29.7 Q33.7 31.2 32.5 32.1 31.45 30.65 32.35 29.6" fill="#d5d580" fill-rule="evenodd" stroke="none"/>
      <path d="M32.5 32.1 Q33.7 31.2 34.4 29.7 L35.05 29.75 Q33.75 31.7 32.45 32.6 30.75 31.65 29.9 29.4 L30.4 29.4 Q31.3 31.7 32.5 32.1" fill="#f0f0d2" fill-rule="evenodd" stroke="none"/>
      <path d="M32.35 29.6 Q31.45 30.65 32.5 32.1 31.3 31.7 30.4 29.4 L32.35 29.6" fill="#a6a637" fill-rule="evenodd" stroke="none"/>
      <path d="M35.05 29.75 Q33.75 31.7 32.45 32.6 30.75 31.65 29.9 29.4" fill="none" stroke="#000000" stroke-linecap="round" stroke-linejoin="round" stroke-opacity="0.3019608" stroke-width="0.30000000000000004"/>
      <path d="M34.6 22.45 Q36.55 21.5 37.95 18.05 38.25 16.15 38.15 14.6 38.1 12.9 37.45 11.15 L36.95 10.0 Q36.9 14.7 33.8 17.3 L32.45 18.3 32.3 18.4 30.25 19.35 30.2 19.4 25.3 20.0 24.5 19.55 Q23.55 19.05 22.85 18.7 21.15 18.0 20.35 18.3 20.1 18.4 19.95 18.65 18.55 17.75 17.35 16.2 17.85 19.75 21.05 22.9 L20.65 22.65 Q17.4 20.15 16.75 16.1 15.95 11.65 18.7 8.05 21.4 4.45 26.0 3.8 28.0 3.45 29.9 3.8 L31.4 4.2 Q32.95 4.75 34.35 5.7 L36.5 7.6 37.6 9.15 38.45 10.9 38.85 12.5 Q40.15 13.7 40.0 15.35 43.25 15.2 43.7 17.55 43.95 19.65 40.05 23.05 L39.8 25.35 39.4 26.45 Q38.8 27.55 37.8 28.4 L36.7 29.2 35.25 29.85 34.3 30.15 Q33.45 30.4 30.7 29.15 L29.8 27.8 34.0 29.9 Q35.25 29.45 36.25 28.85 39.8 26.65 39.55 22.85 42.85 19.65 43.0 17.95 L41.25 19.8 Q43.05 17.8 42.75 17.0 L42.75 16.9 Q41.7 15.6 39.5 16.05 39.5 14.25 39.0 13.45 39.2 15.2 38.8 16.85 38.45 18.45 37.65 19.7 L36.15 21.6 Q35.5 22.15 34.6 22.45 M38.85 12.5 L38.85 12.75 39.0 13.45 38.85 12.75 38.85 12.5 M30.1 18.95 Q32.0 18.35 33.0 17.5 L34.6 15.8 Q37.2 12.0 35.25 7.6 33.95 6.25 32.1 5.35 30.5 4.6 29.0 4.4 26.65 4.1 24.3 4.9 L24.05 5.0 Q26.4 9.4 25.95 15.15 25.8 7.5 23.2 5.3 20.05 6.8 18.55 10.05 17.55 12.15 17.6 14.35 17.65 16.5 19.9 18.0 20.7 17.4 22.85 18.3 L25.2 19.55 25.2 19.6 25.4 19.6 25.6 19.65 30.1 18.95" fill="#f9f8ec" fill-rule="evenodd" stroke="none"/>
      <path d="M30.1 18.95 L25.6 19.65 25.4 19.6 25.2 19.6 25.2 19.55 25.95 15.15 Q26.4 9.4 24.05 5.0 L24.3 4.9 Q26.65 4.1 29.0 4.4 27.55 12.55 30.1 18.95" fill="#f0f0d2" fill-rule="evenodd" stroke="none"/>
      <path d="M38.8 16.85 Q39.2 15.2 39.0 13.45 39.5 14.25 39.5 16.05 41.7 15.6 42.75 16.9 L42.75 17.0 Q43.05 17.8 41.25 19.8 39.65 21.05 38.95 19.25 L38.8 16.85 M39.55 22.85 Q39.8 26.65 36.25 28.85 32.4 29.35 34.05 26.2 35.45 24.5 36.35 23.85 L37.8 22.85 Q39.0 21.8 39.55 22.85 M29.0 4.4 Q30.5 4.6 32.1 5.35 33.95 6.25 35.25 7.6 37.2 12.0 34.6 15.8 L33.0 17.5 Q32.0 18.35 30.1 18.95 27.55 12.55 29.0 4.4 M25.2 19.55 L22.85 18.3 Q20.7 17.4 19.9 18.0 17.65 16.5 17.6 14.35 17.55 12.15 18.55 10.05 20.05 6.8 23.2 5.3 25.8 7.5 25.95 15.15 L25.2 19.55" fill="#d5d580" fill-rule="evenodd" stroke="none"/>
      <path d="M32.3 18.4 L32.45 18.3 33.8 17.3 Q36.9 14.7 36.95 10.0 L37.45 11.15 Q38.1 12.9 38.15 14.6 38.25 16.15 37.95 18.05 36.55 21.5 34.6 22.45 32.7 23.3 31.6 22.2 30.1 21.1 32.3 18.4 M42.75 16.9 L42.75 17.0 42.75 16.9 M41.25 19.8 L43.0 17.95 Q42.85 19.65 39.55 22.85 39.0 21.8 37.8 22.85 38.8 21.05 38.95 19.25 39.65 21.05 41.25 19.8" fill="#bfbf40" fill-rule="evenodd" stroke="none"/>
      <path d="M34.6 22.45 Q35.5 22.15 36.15 21.6 L37.65 19.7 Q38.45 18.45 38.8 16.85 L38.95 19.25 Q38.8 21.05 37.8 22.85 L36.35 23.85 Q35.45 24.5 34.05 26.2 32.4 29.35 36.25 28.85 35.25 29.45 34.0 29.9 L29.8 27.8 29.7 27.6 21.05 22.9 Q17.85 19.75 17.35 16.2 18.55 17.75 19.95 18.65 20.1 18.4 20.35 18.3 21.15 18.0 22.85 18.7 23.55 19.05 24.5 19.55 L25.3 20.0 30.2 19.4 30.25 19.35 32.3 18.4 Q30.1 21.1 31.6 22.2 32.7 23.3 34.6 22.45" fill="#a6a637" fill-rule="evenodd" stroke="none"/>
      <path d="M37.65 19.7 Q38.45 18.45 38.8 16.85 39.2 15.2 39.0 13.45 L38.85 12.75 38.85 12.5 38.45 10.9 37.6 9.15 36.5 7.6 34.35 5.7 Q32.95 4.75 31.4 4.2 L29.9 3.8 Q28.0 3.45 26.0 3.8 21.4 4.45 18.7 8.05 15.95 11.65 16.75 16.1 17.4 20.15 20.65 22.65 L21.05 22.9 29.7 27.6 29.8 27.8 30.7 29.15 Q33.45 30.4 34.3 30.15 L35.25 29.85 36.7 29.2 37.8 28.4 Q38.8 27.55 39.4 26.45 L39.8 25.35 40.05 23.05 Q43.95 19.65 43.7 17.55 43.25 15.2 40.0 15.35 40.15 13.7 38.85 12.5" fill="none" stroke="#000000" stroke-linecap="round" stroke-linejoin="round" stroke-opacity="0.3019608" stroke-width="0.30000000000000004"/>
      <path d="M35.4 8.7 Q32.95 8.1 30.45 8.65 31.75 7.6 33.2 7.75 34.3 7.9 35.4 8.7 M26.55 6.35 L26.8 5.3 26.85 4.3 Q27.65 4.9 27.3 5.55 L26.55 6.35" fill="#bfbf40" fill-rule="evenodd" stroke="none"/>
      <path d="M35.4 8.7 Q32.95 8.1 30.45 8.65 M26.85 4.3 L26.8 5.3 26.55 6.35" fill="none" stroke="#000000" stroke-linecap="round" stroke-linejoin="round" stroke-opacity="0.3019608" stroke-width="0.30000000000000004"/>
      <path d="M26.4 27.1 Q27.65 27.05 28.7 27.85 29.55 28.35 28.95 29.35 27.35 30.45 26.05 33.1 25.6 34.6 25.55 35.8 L25.35 36.85 Q21.75 38.05 21.35 34.5 20.9 30.95 26.4 27.1 M27.0 42.75 Q29.05 41.7 29.45 40.6 29.95 41.05 29.45 41.8 26.4 44.85 21.05 45.6 15.75 45.7 11.55 42.9 10.35 41.75 11.95 41.8 13.55 41.65 14.15 41.05 L15.0 40.1 Q14.55 42.9 16.55 43.75 20.65 45.3 25.55 43.4 L27.0 42.75 M18.9 39.95 Q17.0 38.35 18.3 33.6 L18.9 32.65 Q23.4 39.55 20.2 40.65 L19.1 40.05 18.9 39.95" fill="#d5d580" fill-rule="evenodd" stroke="none"/>
      <path d="M25.35 36.85 Q24.85 38.7 23.3 39.95 L21.95 40.7 20.2 40.65 Q23.4 39.55 18.9 32.65 21.35 29.35 24.45 27.7 25.45 27.15 26.4 27.1 20.9 30.95 21.35 34.5 21.75 38.05 25.35 36.85" fill="#f0f0d2" fill-rule="evenodd" stroke="none"/>
      <path d="M29.25 27.55 Q30.4 28.4 29.55 29.5 L29.4 29.7 28.9 30.05 27.7 31.6 Q26.5 32.95 26.25 35.5 25.9 38.1 28.0 39.2 29.65 39.65 30.2 40.35 31.35 41.85 27.3 43.9 20.05 48.45 12.4 44.1 6.7 40.1 6.5 34.6 7.15 37.4 8.05 38.6 12.4 44.1 15.4 38.3 16.8 33.65 20.05 30.3 24.7 25.8 27.45 26.65 28.65 27.05 29.25 27.55 M25.35 36.85 L25.55 35.8 Q25.6 34.6 26.05 33.1 27.35 30.45 28.95 29.35 29.55 28.35 28.7 27.85 27.65 27.05 26.4 27.1 25.45 27.15 24.45 27.7 21.35 29.35 18.9 32.65 L18.3 33.6 Q17.0 38.35 18.9 39.95 16.7 38.2 17.1 35.55 16.3 38.45 15.0 40.1 L14.15 41.05 Q13.55 41.65 11.95 41.8 10.35 41.75 11.55 42.9 15.75 45.7 21.05 45.6 26.4 44.85 29.45 41.8 29.95 41.05 29.45 40.6 29.05 41.7 27.0 42.75 29.55 40.9 28.5 40.05 26.5 39.15 26.0 38.1 L25.8 37.75 Q24.55 40.1 21.95 40.7 L23.3 39.95 Q24.85 38.7 25.35 36.85" fill="#f9f8ec" fill-rule="evenodd" stroke="none"/>
      <path d="M21.95 40.7 Q24.55 40.1 25.8 37.75 L26.0 38.1 Q26.5 39.15 28.5 40.05 29.55 40.9 27.0 42.75 L25.55 43.4 Q20.65 45.3 16.55 43.75 14.55 42.9 15.0 40.1 16.3 38.45 17.1 35.55 16.7 38.2 18.9 39.95 L19.1 40.05 20.2 40.65 21.95 40.7" fill="#bfbf40" fill-rule="evenodd" stroke="none"/>
      <path d="M20.15 22.45 L19.6 21.3 19.6 20.4 Q19.8 19.35 21.0 19.25 L23.4 19.55 23.75 19.7 Q25.4 20.5 26.9 22.35 L26.55 22.95 28.1 25.45 30.5 25.65 31.0 24.85 34.7 25.6 35.4 25.9 34.9 26.45 35.1 26.55 Q36.3 27.1 35.5 28.5 34.7 29.5 32.95 29.95 L30.65 30.0 33.85 29.15 34.9 28.5 Q36.05 27.15 33.35 26.45 L30.75 26.1 27.85 25.75 25.8 22.75 Q23.8 20.35 21.85 20.25 19.75 20.1 19.9 21.5 L20.15 22.45 M24.25 24.4 L21.75 24.2 19.45 24.0 16.05 24.1 Q12.1 24.6 9.65 27.15 L9.05 28.05 Q8.1 32.1 10.55 34.85 8.05 33.2 8.25 29.45 6.5 33.25 7.6 35.95 9.8 41.5 12.95 40.25 14.35 39.5 15.3 36.5 L16.9 33.4 Q18.1 31.45 19.6 29.85 L21.1 28.45 22.5 27.35 Q24.3 26.2 26.1 25.9 28.3 25.95 29.25 27.55 28.65 27.05 27.45 26.65 24.7 25.8 20.05 30.3 16.8 33.65 15.4 38.3 12.4 44.1 8.05 38.6 7.15 37.4 6.5 34.6 6.45 32.4 7.3 29.95 9.8 22.75 19.8 23.55 L20.85 23.65 21.1 23.65 21.75 23.75 24.25 24.4" fill="#ffff98" fill-rule="evenodd" stroke="none"/>
      <path d="M35.5 28.5 Q36.3 27.1 35.1 26.55 L34.9 26.45 35.4 25.9 Q36.35 26.5 35.95 27.5 L35.5 28.5 M31.0 24.85 L30.5 25.65 28.1 25.45 26.55 22.95 26.9 22.35 28.4 24.65 31.0 24.85 M19.6 29.85 Q18.1 31.45 16.9 33.4 14.0 36.65 10.65 34.9 L10.55 34.85 Q8.1 32.1 9.05 28.05 L9.65 27.15 Q12.1 24.6 16.05 24.1 24.85 24.05 19.6 29.85" fill="#ffde4f" fill-rule="evenodd" stroke="none"/>
      <path d="M19.9 21.5 Q19.75 20.1 21.85 20.25 23.8 20.35 25.8 22.75 26.05 24.05 24.0 23.85 21.25 23.4 19.9 21.5 M30.75 26.1 L33.35 26.45 Q36.05 27.15 34.9 28.5 L33.85 29.15 Q31.45 28.75 30.45 27.65 29.7 26.75 30.75 26.1 M19.45 24.0 Q23.1 24.65 23.5 25.7 23.8 26.25 22.5 27.35 L21.1 28.45 19.6 29.85 Q24.85 24.05 16.05 24.1 L19.45 24.0 M16.9 33.4 L15.3 36.5 Q14.35 39.5 12.95 40.25 9.8 41.5 7.6 35.95 6.5 33.25 8.25 29.45 8.05 33.2 10.55 34.85 L10.65 34.9 Q14.0 36.65 16.9 33.4" fill="#f4a33c" fill-rule="evenodd" stroke="none"/>
      <path d="M27.85 25.75 L30.75 26.1 Q29.7 26.75 30.45 27.65 31.45 28.75 33.85 29.15 L30.65 30.0 29.4 29.7 29.55 29.5 Q30.4 28.4 29.25 27.55 28.3 25.95 26.1 25.9 24.3 26.2 22.5 27.35 23.8 26.25 23.5 25.7 23.1 24.65 19.45 24.0 L21.75 24.2 24.25 24.4 Q28.0 25.05 26.95 25.85 L27.85 25.75" fill="#cc6b22" fill-rule="evenodd" stroke="none"/>
      <path d="M20.15 22.45 L19.9 21.5 Q21.25 23.4 24.0 23.85 26.05 24.05 25.8 22.75 L27.85 25.75 26.95 25.85 Q28.0 25.05 24.25 24.4 L21.75 23.75 21.1 23.65 20.15 22.45" fill="#a34100" fill-rule="evenodd" stroke="none"/>
      <path d="M26.9 22.35 Q25.4 20.5 23.75 19.7 L23.4 19.55 21.0 19.25 Q19.8 19.35 19.6 20.4 L19.6 21.3 20.15 22.45 21.1 23.65 20.85 23.65 19.8 23.55 Q9.8 22.75 7.3 29.95 6.45 32.4 6.5 34.6 7.15 37.4 8.05 38.6 12.4 44.1 15.4 38.3 16.8 33.65 20.05 30.3 24.7 25.8 27.45 26.65 28.65 27.05 29.25 27.55 30.4 28.4 29.55 29.5 L29.4 29.7 30.65 30.0 32.95 29.95 Q34.7 29.5 35.5 28.5 L35.95 27.5 Q36.35 26.5 35.4 25.9 L34.7 25.6 31.0 24.85 28.4 24.65 26.9 22.35 M29.4 29.7 L28.9 30.05 27.7 31.6 Q26.5 32.95 26.25 35.5 25.9 38.1 28.0 39.2 29.65 39.65 30.2 40.35 31.35 41.85 27.3 43.9 20.05 48.45 12.4 44.1 6.7 40.1 6.5 34.6 M21.75 23.75 L21.1 23.65" fill="none" stroke="#000000" stroke-linecap="round" stroke-linejoin="round" stroke-opacity="0.3019608" stroke-width="0.30000000000000004"/>
    </g>
    <g id="sprite1" transform="matrix(1.0, 0.0, 0.0, 1.0, 0.0, 0.0)">
      <use height="26.7" transform="matrix(0.0042, -1.3515, 1.3935, 0.02, 22.09, 56.0263)" width="26.7" xlink:href="#sprite2"/>
      <use height="26.7" transform="matrix(0.0095, -3.0486, 0.372, 0.0053, 36.507, 81.3775)" width="26.7" xlink:href="#sprite2"/>
      <use height="26.7" transform="matrix(3.0486, 0.0095, -0.0053, 0.372, 0.1225, 35.107)" width="26.7" xlink:href="#sprite2"/>
    </g>
    <g id="sprite2" transform="matrix(1.0, 0.0, 0.0, 1.0, 13.35, 13.35)">
      <use height="26.7" transform="matrix(1.0, 0.0, 0.0, 1.0, -13.35, -13.35)" width="26.7" xlink:href="#shape1"/>
    </g>
    <g id="shape1" transform="matrix(1.0, 0.0, 0.0, 1.0, 13.35, 13.35)">
      <path d="M9.3 -9.85 Q13.35 -5.8 13.35 0.0 13.35 5.8 9.3 9.3 5.8 13.35 0.0 13.35 -5.8 13.35 -9.85 9.3 -13.35 5.8 -13.35 0.0 -13.35 -5.8 -9.85 -9.85 -5.8 -13.35 0.0 -13.35 5.8 -13.35 9.3 -9.85" fill="url(#gradient0)" fill-rule="evenodd" stroke="none"/>
    </g>
    <radialGradient cx="0" cy="0" gradientTransform="matrix(0.0213, 0.0, 0.0, 0.0213, 0.0, 0.0)" gradientUnits="userSpaceOnUse" id="gradient0" r="819.2" spreadMethod="pad">
      <stop offset="0.19607843137254902" stop-color="#fee3bc" stop-opacity="0.5568628"/>
      <stop offset="0.5019607843137255" stop-color="#fee3bc" stop-opacity="0.08627451"/>
      <stop offset="0.7607843137254902" stop-color="#ffe3bd" stop-opacity="0.0"/>
    </radialGradient>
  </defs>
</svg>
