<?xml version="1.0" encoding="UTF-8" standalone="no"?>
<svg xmlns:xlink="http://www.w3.org/1999/xlink" height="52.0px" width="52.0px" xmlns="http://www.w3.org/2000/svg">
  <g transform="matrix(1.0, 0.0, 0.0, 1.0, 0.0, 0.0)">
    <use height="54.0" transform="matrix(1.0, 0.0, 0.0, 1.0, -1.0, -1.0)" width="54.0" xlink:href="#shape0"/>
    <use height="0.0" transform="matrix(0.0777, 0.065, -0.1297, 0.1213, 25.15, 19.95)" width="0.0" xlink:href="#sprite0"/>
    <use height="0.0" transform="matrix(0.0983, 0.0, -0.035, 0.0817, 22.85, 36.65)" width="0.0" xlink:href="#sprite0"/>
    <use height="0.0" transform="matrix(0.0695, -0.0695, 0.033, 0.0825, 37.65, 29.6)" width="0.0" xlink:href="#sprite0"/>
    <use height="81.5" transform="matrix(0.1255, 0.0, 0.0, 0.1259, 31.1, 14.95)" width="81.5" xlink:href="#sprite1"/>
  </g>
  <defs>
    <g id="shape0" transform="matrix(1.0, 0.0, 0.0, 1.0, 1.0, 1.0)">
      <path d="M52.0 0.0 L52.0 52.0 0.0 52.0 0.0 0.0 52.0 0.0" fill="#795fa9" fill-opacity="0.0" fill-rule="evenodd" stroke="none"/>
      <path d="M44.5 7.45 L42.65 7.9 Q39.25 9.35 36.6 11.15 L29.3 9.7 26.4 10.95 Q26.4 8.2 25.35 5.65 24.65 4.05 23.9 3.8 23.45 3.65 22.95 4.15 22.3 4.6 24.25 9.1 L24.95 11.5 24.25 11.8 22.55 13.45 21.75 13.7 21.1 14.0 20.55 14.25 20.4 14.35 Q18.8 15.25 17.55 16.65 L17.1 17.15 Q16.4 18.05 16.05 18.9 L16.05 18.95 10.35 22.75 10.35 29.35 14.6 32.9 Q12.15 34.3 11.2 36.1 L11.15 36.1 10.05 35.45 7.25 36.8 6.35 38.4 6.5 39.7 8.55 44.4 11.45 46.5 13.4 46.6 14.8 45.0 14.85 43.95 16.05 44.45 17.75 44.85 17.8 45.55 19.8 48.0 21.65 48.45 24.1 47.7 24.75 45.25 Q27.35 44.75 28.2 42.85 29.2 40.45 29.35 38.4 L32.25 39.25 39.95 37.7 45.2 29.6 41.6 21.9 42.05 19.8 38.25 12.05 Q39.65 11.45 41.0 11.1 44.7 9.8 45.45 8.55 45.85 7.9 45.65 7.6 L44.5 7.45 Z" fill="none" stroke="#000000" stroke-linecap="round" stroke-linejoin="round" stroke-opacity="0.3019608" stroke-width="1.0"/>
      <path d="M16.8 34.7 L17.0 34.7 17.0 34.8 16.8 34.7" fill="#825a20" fill-rule="evenodd" stroke="none"/>
      <path d="M24.1 12.5 L24.05 12.5 24.1 12.5" fill="#e0c585" fill-rule="evenodd" stroke="none"/>
      <path d="M37.95 11.4 L37.6 12.0 30.2 10.25 32.25 11.55 32.05 11.85 29.45 10.5 24.1 12.5 24.05 12.5 19.25 17.45 18.75 17.3 12.0 22.7 14.6 26.45 17.1 27.15 15.65 28.1 15.2 27.2 12.8 25.0 10.4 22.75 18.6 17.25 24.25 11.8 29.35 9.7 37.95 11.4 M30.2 10.25 L29.35 9.7 30.2 10.25 M23.85 13.2 L23.0 18.0 24.75 19.85 22.25 18.2 23.85 13.2 M24.1 12.5 L24.1 12.45 24.25 11.8 24.1 12.45 24.1 12.5" fill="#d7f16b" fill-rule="evenodd" stroke="none"/>
      <path d="M30.2 10.25 L37.6 12.0 37.05 13.15 34.75 13.15 33.85 12.6 34.75 13.15 36.8 15.0 38.55 20.7 37.9 21.5 36.55 16.05 33.85 12.6 32.95 12.0 32.25 11.55 30.2 10.25 M24.1 12.5 L29.45 10.5 32.05 11.85 27.9 17.8 27.9 17.85 25.65 20.4 24.75 19.85 25.65 20.4 27.15 22.35 25.2 24.75 17.1 27.15 14.6 26.45 12.0 22.7 18.75 17.3 19.25 17.45 22.25 18.2 24.75 19.85 23.0 18.0 23.85 13.2 24.05 12.5 24.1 12.5 M37.9 21.5 L34.4 26.9 33.4 30.2 39.55 36.8 43.85 31.6 39.95 37.65 32.05 30.85 17.0 34.7 16.0 29.7 17.5 33.85 31.55 29.95 33.4 26.9 32.05 30.85 33.4 26.9 37.9 21.5 M12.8 25.0 L10.8 24.3 11.05 29.3 12.7 31.3 10.4 29.35 10.4 22.75 12.8 25.0" fill="#9ae17b" fill-rule="evenodd" stroke="none"/>
      <path d="M37.6 12.0 L37.95 11.4 42.05 19.8 38.55 20.7 36.8 15.0 37.05 13.15 37.6 12.0 M32.95 12.0 L33.85 12.6 36.55 16.05 37.9 21.5 33.4 26.9 31.55 29.95 17.5 33.85 16.0 29.7 15.65 28.1 17.1 27.15 25.2 24.75 30.25 24.6 27.15 22.35 25.65 20.4 27.9 17.85 27.9 17.8 32.95 12.0 M24.05 12.5 L23.85 13.2 22.25 18.2 19.25 17.45 24.05 12.5 M30.25 24.6 L33.4 26.9 30.25 24.6" fill="#75d74a" fill-rule="evenodd" stroke="none"/>
      <path d="M37.05 13.15 L36.8 15.0 34.75 13.15 37.05 13.15 M32.25 11.55 L32.95 12.0 27.9 17.8 32.05 11.85 32.25 11.55 M37.9 21.5 L38.55 20.7 41.6 21.9 45.2 29.55 43.85 31.6 39.55 36.8 33.4 30.2 34.4 26.9 37.9 21.5 M15.65 28.1 L16.0 29.7 17.0 34.7 16.8 34.7 12.7 31.3 11.05 29.3 10.8 24.3 12.8 25.0 15.2 27.2 15.65 28.1 M30.25 24.6 L25.2 24.75 27.15 22.35 30.25 24.6" fill="#339328" fill-rule="evenodd" stroke="none"/>
      <path d="M38.55 20.7 L42.05 19.8 41.6 21.9 38.55 20.7 M17.0 34.8 L17.0 34.7 32.05 30.85 39.95 37.65 32.25 39.25 17.0 34.8" fill="#246c41" fill-rule="evenodd" stroke="none"/>
      <path d="M37.6 12.0 L37.95 11.4 29.35 9.7 30.2 10.25 32.25 11.55 32.95 12.0 33.85 12.6 34.75 13.15 36.8 15.0 38.55 20.7 42.05 19.8 37.95 11.4 M37.6 12.0 L37.05 13.15 36.8 15.0 M27.9 17.8 L32.95 12.0 M37.9 21.5 L38.55 20.7 41.6 21.9 42.05 19.8 M43.85 31.6 L45.2 29.55 41.6 21.9 M24.1 12.5 L24.05 12.5 23.85 13.2 22.25 18.2 24.75 19.85 25.65 20.4 27.9 17.85 M24.25 11.8 L24.1 12.45 24.1 12.5 M10.4 22.75 L18.6 17.25 24.25 11.8 29.35 9.7 M27.15 22.35 L25.65 20.4 M15.65 28.1 L16.0 29.7 17.0 34.7 32.05 30.85 33.4 26.9 37.9 21.5 M33.4 26.9 L30.25 24.6 25.2 24.75 17.1 27.15 15.65 28.1 15.2 27.2 12.8 25.0 M12.7 31.3 L16.8 34.7 17.0 34.7 M16.8 34.7 L17.0 34.8 32.25 39.25 39.95 37.65 32.05 30.85 M12.7 31.3 L10.4 29.35 10.4 22.75 M43.85 31.6 L39.95 37.65 M27.15 22.35 L30.25 24.6" fill="none" stroke="#000000" stroke-linecap="round" stroke-linejoin="round" stroke-opacity="0.3019608" stroke-width="0.30000000000000004"/>
      <path d="M14.75 21.7 L14.85 21.6 14.85 21.7 14.75 21.7" fill="#e6e4b3" fill-rule="evenodd" stroke="none"/>
      <path d="M16.35 24.15 L23.1 25.6 31.0 30.5 31.3 30.8 32.3 31.85 30.6 30.5 23.1 26.2 16.5 24.55 13.55 24.55 13.75 25.35 13.1 25.35 12.65 25.05 11.4 25.35 Q11.75 25.0 12.25 24.8 L12.65 24.55 13.8 24.25 14.3 24.15 15.05 24.1 16.35 24.15" fill="#d7f16b" fill-rule="evenodd" stroke="none"/>
      <path d="M14.85 21.75 L14.85 21.7 14.85 21.75 M33.75 34.15 L33.7 34.15 30.3 30.8 20.9 26.05 14.55 25.35 13.75 25.35 13.55 24.55 16.5 24.55 23.1 26.2 30.6 30.5 32.3 31.85 32.45 32.05 32.7 32.4 33.75 34.15" fill="#9ae17b" fill-rule="evenodd" stroke="none"/>
      <path d="M15.2 21.15 Q15.75 21.15 16.05 22.0 L16.15 22.3 16.3 23.3 16.35 24.15 15.05 24.1 14.3 24.15 14.8 23.35 15.2 21.9 15.2 21.15 M35.65 30.1 Q35.9 30.4 35.6 31.2 L35.2 31.95 34.35 33.45 33.8 34.3 33.75 34.15 32.7 32.4 32.45 32.05 32.6 32.0 33.2 31.95 33.9 31.7 34.1 31.6 35.0 31.0 35.65 30.1" fill="#f4a33c" fill-rule="evenodd" stroke="none"/>
      <path d="M14.75 21.7 L14.85 21.7 14.85 21.75 14.8 23.35 14.3 24.15 13.8 24.25 12.65 24.55 Q13.35 22.7 14.75 21.7 M31.3 30.8 L33.55 30.3 35.05 30.2 34.65 30.85 33.2 31.95 32.6 32.0 32.45 32.05 32.3 31.85 31.3 30.8" fill="#ffde4f" fill-rule="evenodd" stroke="none"/>
      <path d="M14.85 21.7 L14.85 21.6 14.75 21.7 Q13.35 22.7 12.65 24.55 L12.25 24.8 Q12.65 23.65 13.15 22.9 13.6 22.05 14.2 21.6 L14.35 21.5 14.5 21.4 Q14.9 21.1 15.2 21.15 L15.2 21.9 14.8 23.35 14.85 21.75 14.85 21.7 M31.0 30.5 L32.1 30.25 32.45 30.1 32.95 30.05 33.4 29.95 34.3 29.85 35.45 29.95 35.65 30.1 35.0 31.0 34.1 31.6 33.9 31.7 33.2 31.95 34.65 30.85 35.05 30.2 33.55 30.3 31.3 30.8 31.0 30.5" fill="#ffff98" fill-rule="evenodd" stroke="none"/>
      <path d="M12.25 24.8 Q12.65 23.65 13.15 22.9 13.6 22.05 14.2 21.6 L14.35 21.5 14.5 21.4 Q14.9 21.1 15.2 21.15 15.75 21.15 16.05 22.0 L16.15 22.3 16.3 23.3 16.35 24.15 23.1 25.6 31.0 30.5 32.1 30.25 32.45 30.1 32.95 30.05 33.4 29.95 34.3 29.85 35.45 29.95 35.65 30.1 Q35.9 30.4 35.6 31.2 L35.2 31.95 34.35 33.45 33.8 34.3 33.75 34.15 32.7 32.4 32.45 32.05 32.3 31.85 31.3 30.8 31.0 30.5 M11.4 25.35 Q11.75 25.0 12.25 24.8 L12.65 24.55 13.8 24.25 14.3 24.15 15.05 24.1 16.35 24.15" fill="none" stroke="#000000" stroke-linecap="round" stroke-linejoin="round" stroke-opacity="0.3019608" stroke-width="0.30000000000000004"/>
      <path d="M23.95 3.8 Q25.1 4.9 25.7 7.85 L25.7 8.05 Q26.1 10.25 25.65 13.8 L25.25 16.15 25.15 15.55 25.15 12.8 25.15 12.7 25.05 12.1 Q24.85 10.4 24.25 9.1 22.3 4.6 23.0 4.15 23.5 3.65 23.95 3.8" fill="#9ae17b" fill-rule="evenodd" stroke="none"/>
      <path d="M25.25 16.15 L25.65 13.8 Q26.1 10.25 25.7 8.05 L25.7 7.85 Q25.1 4.9 23.95 3.8 24.65 4.0 25.35 5.65 26.55 8.55 26.4 11.65 L26.3 12.6 25.95 14.55 25.35 16.55 25.3 16.7 25.3 16.8 25.25 16.8 25.2 16.8 25.2 16.7 25.25 16.5 25.25 16.15" fill="#339328" fill-rule="evenodd" stroke="none"/>
      <path d="M25.25 16.15 L25.25 16.5 25.2 16.7 25.2 16.8 M25.25 16.8 L25.3 16.8 25.3 16.7 25.35 16.55 25.95 14.55 26.3 12.6 26.4 11.65 Q26.55 8.55 25.35 5.65 24.65 4.0 23.95 3.8 23.5 3.65 23.0 4.15 22.3 4.6 24.25 9.1 24.85 10.4 25.05 12.1 L25.15 12.7 25.15 12.8 25.15 15.55 25.25 16.15 Z" fill="none" stroke="#000000" stroke-linecap="round" stroke-linejoin="round" stroke-opacity="0.3019608" stroke-width="0.30000000000000004"/>
      <path d="M31.85 16.0 L31.8 16.05 Q31.3 16.4 30.85 16.85 L30.05 17.75 30.65 16.85 31.55 15.6 32.1 14.95 33.7 13.35 34.45 12.7 35.45 11.95 Q38.5 9.7 42.7 7.9 43.8 7.5 44.55 7.4 L45.65 7.55 Q45.75 8.05 44.0 8.95 L41.15 10.0 Q38.9 10.55 35.65 12.55 L33.75 14.0 32.4 15.35 31.85 16.0" fill="#9ae17b" fill-rule="evenodd" stroke="none"/>
      <path d="M45.65 7.55 Q45.85 7.85 45.45 8.55 44.75 9.8 41.0 11.05 39.05 11.55 37.0 12.65 L35.8 13.3 Q34.8 13.9 33.75 14.65 L32.5 15.6 32.45 15.65 31.85 16.0 32.4 15.35 33.75 14.0 35.65 12.55 Q38.9 10.55 41.15 10.0 L44.0 8.95 Q45.75 8.05 45.65 7.55" fill="#339328" fill-rule="evenodd" stroke="none"/>
      <path d="M45.65 7.55 Q45.85 7.85 45.45 8.55 44.75 9.8 41.0 11.05 39.05 11.55 37.0 12.65 L35.8 13.3 Q34.8 13.9 33.75 14.65 L32.5 15.6 32.45 15.65 31.85 16.0 31.8 16.05 Q31.3 16.4 30.85 16.85 L30.05 17.75 30.65 16.85 31.55 15.6 32.1 14.95 33.7 13.35 34.45 12.7 35.45 11.95 Q38.5 9.7 42.7 7.9 43.8 7.5 44.55 7.4 L45.65 7.55 Z" fill="none" stroke="#000000" stroke-linecap="round" stroke-linejoin="round" stroke-opacity="0.3019608" stroke-width="0.30000000000000004"/>
      <path d="M35.8 16.85 Q36.45 17.45 36.7 18.6 37.1 20.45 36.2 22.6 L35.95 23.05 Q35.2 24.6 34.0 25.55 L33.55 25.85 32.2 26.55 30.65 26.65 30.35 26.55 Q28.85 26.1 28.45 24.25 L28.35 23.4 28.45 22.0 28.55 21.55 28.95 20.25 29.15 19.9 29.6 19.15 29.9 18.65 30.65 17.75 31.6 16.95 31.65 16.95 32.25 16.6 32.3 16.55 32.35 16.55 33.6 16.2 34.8 16.3 35.8 16.85" fill="#206039" fill-rule="evenodd" stroke="none"/>
      <path d="M29.55 17.85 L30.3 16.9 31.25 16.15 31.3 16.1 31.9 15.75 31.95 15.7 33.25 15.3 34.4 15.45 Q35.0 15.65 35.4 16.0 36.1 16.65 36.35 17.75 36.75 19.6 35.8 21.75 L35.6 22.2 Q34.85 23.75 33.6 24.75 L33.2 25.0 31.85 25.7 30.3 25.8 30.0 25.7 Q28.5 25.25 28.1 23.4 L28.0 22.55 28.1 21.15 28.2 20.7 28.6 19.45 28.8 19.1 29.2 18.3 29.55 17.85 M33.0 21.15 Q34.05 18.65 33.4 17.15 L32.7 16.15 32.3 16.25 32.0 16.35 31.9 16.4 31.45 16.75 31.35 16.75 31.05 17.0 29.9 18.2 29.65 18.6 29.1 19.6 29.1 19.7 28.75 20.7 28.6 22.2 28.6 22.25 28.65 23.0 28.7 23.15 Q29.0 24.35 29.85 24.8 L30.3 25.0 31.55 25.1 Q32.3 24.95 33.05 24.4 L33.6 24.05 Q34.65 23.1 35.3 21.65 L35.3 21.6 Q36.15 19.75 35.8 18.15 L35.0 16.65 Q34.65 16.35 34.1 16.2 L33.3 16.05 33.85 17.2 Q34.05 18.1 33.85 19.05 L33.45 20.25 33.45 20.3 33.0 21.15" fill="#ffff98" fill-rule="evenodd" stroke="none"/>
      <path d="M28.7 23.15 L28.65 23.0 28.6 22.25 28.6 22.2 28.75 20.7 29.1 19.7 29.1 19.6 29.65 18.6 29.9 18.2 31.05 17.0 31.35 16.75 31.45 16.75 31.9 16.4 32.0 16.35 32.3 16.25 32.7 16.15 33.4 17.15 Q34.05 18.65 33.0 21.15 L32.9 21.25 31.45 22.75 30.65 23.2 29.15 23.35 29.0 23.3 28.7 23.15" fill="#ffde4f" fill-rule="evenodd" stroke="none"/>
      <path d="M33.0 21.15 L33.45 20.3 33.45 20.25 33.85 19.05 Q34.05 18.1 33.85 17.2 L33.3 16.05 34.1 16.2 Q34.65 16.35 35.0 16.65 L35.8 18.15 Q36.15 19.75 35.3 21.6 L35.3 21.65 Q34.65 23.1 33.6 24.05 L33.05 24.4 Q32.3 24.95 31.55 25.1 L30.3 25.0 29.85 24.8 Q29.0 24.35 28.7 23.15 L29.0 23.3 29.15 23.35 30.65 23.2 31.45 22.75 32.9 21.25 33.0 21.15" fill="#f4a33c" fill-rule="evenodd" stroke="none"/>
      <path d="M29.55 17.85 L30.3 16.9 31.25 16.15 31.3 16.1 31.9 15.75 31.95 15.7 33.25 15.3 34.4 15.45 Q35.0 15.65 35.4 16.0 36.1 16.65 36.35 17.75 36.75 19.6 35.8 21.75 L35.6 22.2 Q34.85 23.75 33.6 24.75 L33.2 25.0 31.85 25.7 30.3 25.8 30.0 25.7 Q28.5 25.25 28.1 23.4 L28.0 22.55 28.1 21.15 28.2 20.7 28.6 19.45 28.8 19.1 29.2 18.3 29.55 17.85 Z" fill="none" stroke="#000000" stroke-linecap="round" stroke-linejoin="round" stroke-opacity="0.3019608" stroke-width="0.30000000000000004"/>
      <path d="M25.85 17.05 L25.8 17.15 25.75 17.3 24.4 19.25 24.15 19.5 23.15 20.45 20.8 21.9 Q18.75 22.85 17.4 22.45 16.05 22.1 16.2 20.6 L16.2 20.35 16.35 19.75 16.4 19.65 Q16.7 18.75 17.45 17.85 L17.9 17.35 Q19.15 15.95 20.75 15.1 L20.9 15.0 21.45 14.7 22.1 14.45 22.95 14.15 23.45 14.05 24.3 14.0 24.85 14.15 25.15 14.25 Q25.8 14.5 26.0 15.1 L26.1 15.65 26.1 16.0 26.1 16.2 26.05 16.35 25.85 17.0 25.85 17.05" fill="#206039" fill-rule="evenodd" stroke="none"/>
      <path d="M25.85 17.0 L25.85 17.05" fill="none" stroke="#000000" stroke-linecap="round" stroke-linejoin="round" stroke-opacity="0.3019608" stroke-width="0.30000000000000004"/>
      <path d="M21.1 18.05 L22.1 17.05 22.2 16.95 22.3 16.85 23.15 15.55 23.2 15.45 23.25 15.3 23.3 15.25 23.45 14.55 23.45 14.3 23.45 14.25 23.35 13.8 23.9 13.9 23.95 13.9 Q24.65 14.15 24.95 14.75 L25.0 15.25 25.05 15.4 25.0 15.55 24.8 16.4 24.75 16.55 24.7 16.7 23.5 18.4 23.45 18.5 22.6 19.3 Q21.6 20.15 20.35 20.7 18.55 21.55 17.35 21.2 16.3 20.95 16.3 19.85 L16.3 19.55 16.35 19.45 16.7 19.55 Q17.75 19.85 19.3 19.1 L21.1 18.05" fill="#f4a33c" fill-rule="evenodd" stroke="none"/>
      <path d="M16.35 19.45 L16.5 18.75 Q16.8 18.0 17.45 17.2 L17.8 16.75 Q18.9 15.5 20.3 14.75 L20.65 14.55 20.95 14.4 Q21.3 14.2 21.7 14.1 L22.25 13.9 22.6 13.85 Q23.0 14.45 22.85 15.25 22.55 16.4 21.1 18.05 L19.3 19.1 Q17.75 19.85 16.7 19.55 L16.35 19.45" fill="#ffde4f" fill-rule="evenodd" stroke="none"/>
      <path d="M17.4 16.65 Q18.7 15.25 20.25 14.35 L20.4 14.25 21.0 13.95 Q21.3 13.8 21.65 13.7 L22.5 13.4 23.0 13.35 23.8 13.3 24.4 13.4 24.65 13.5 25.5 14.35 25.65 14.9 25.65 15.25 25.6 15.45 25.6 15.6 25.4 16.25 25.35 16.3 25.3 16.4 25.3 16.55 23.9 18.5 23.65 18.75 22.7 19.7 Q21.6 20.6 20.35 21.15 18.3 22.1 16.9 21.7 15.55 21.35 15.7 19.85 L15.75 19.6 15.9 19.05 15.95 18.9 Q16.25 18.05 17.0 17.15 L17.4 16.65 M21.1 18.05 Q22.55 16.4 22.85 15.25 23.0 14.45 22.6 13.85 L22.25 13.9 21.7 14.1 Q21.3 14.2 20.95 14.4 L20.65 14.55 20.3 14.75 Q18.9 15.5 17.8 16.75 L17.45 17.2 Q16.8 18.0 16.5 18.75 L16.35 19.45 16.3 19.55 16.3 19.85 Q16.3 20.95 17.35 21.2 18.55 21.55 20.35 20.7 21.6 20.15 22.6 19.3 L23.45 18.5 23.5 18.4 24.7 16.7 24.75 16.55 24.8 16.4 25.0 15.55 25.05 15.4 25.0 15.25 24.95 14.75 Q24.65 14.15 23.95 13.9 L23.9 13.9 23.35 13.8 23.45 14.25 23.45 14.3 23.45 14.55 23.3 15.25 23.25 15.3 23.2 15.45 23.15 15.55 22.3 16.85 22.2 16.95 22.1 17.05 21.1 18.05" fill="#ffff98" fill-rule="evenodd" stroke="none"/>
      <path d="M17.4 16.65 Q18.7 15.25 20.25 14.35 L20.4 14.25 21.0 13.95 Q21.3 13.8 21.65 13.7 L22.5 13.4 23.0 13.35 23.8 13.3 24.4 13.4 24.65 13.5 25.5 14.35 25.65 14.9 25.65 15.25 25.6 15.45 25.6 15.6 25.4 16.25 25.35 16.3 25.3 16.4 25.3 16.55 23.9 18.5 23.65 18.75 22.7 19.7 Q21.6 20.6 20.35 21.15 18.3 22.1 16.9 21.7 15.55 21.35 15.7 19.85 L15.75 19.6 15.9 19.05 15.95 18.9 Q16.25 18.05 17.0 17.15 L17.4 16.65 Z" fill="none" stroke="#000000" stroke-linecap="round" stroke-linejoin="round" stroke-opacity="0.3019608" stroke-width="0.30000000000000004"/>
      <path d="M15.4 34.25 Q15.4 32.5 17.5 31.5 19.65 30.5 22.7 30.8 25.7 31.15 27.85 32.65 30.0 34.15 30.0 35.9 30.0 37.65 27.85 38.65 25.7 39.7 22.7 39.35 19.65 39.0 17.5 37.5 15.4 36.0 15.4 34.25" fill="#36250e" fill-opacity="0.48235294" fill-rule="evenodd" stroke="none"/>
      <path d="M24.25 39.2 Q25.4 38.4 26.75 36.95 24.45 41.0 21.05 40.6 15.55 37.95 11.25 39.55 11.5 40.75 12.6 41.8 13.9 43.0 16.45 43.9 25.75 46.3 27.5 42.45 29.65 37.45 27.55 34.35 24.5 31.6 20.4 31.7 L18.3 31.9 17.25 32.3 Q15.8 32.7 13.2 34.75 11.45 36.1 11.1 38.3 10.9 39.1 12.7 38.65 L13.0 38.6 Q16.25 38.0 19.95 39.35 L24.25 39.2 M28.2 42.8 Q26.3 47.0 16.1 44.4 8.25 41.6 11.2 36.05 12.75 33.2 18.15 31.25 L20.1 31.05 Q24.8 30.85 28.25 33.95 30.55 37.35 28.2 42.8" fill="#ffff98" fill-rule="evenodd" stroke="none"/>
      <path d="M26.75 36.95 Q25.4 38.4 24.25 39.2 20.35 35.05 20.4 31.7 24.5 31.6 27.55 34.35 L26.75 36.95 M19.95 39.35 Q16.25 38.0 13.0 38.6 L12.7 38.65 Q10.9 39.1 11.1 38.3 11.45 36.1 13.2 34.75 15.8 32.7 17.25 32.3 20.35 33.4 19.95 39.35" fill="#ffde4f" fill-rule="evenodd" stroke="none"/>
      <path d="M24.25 39.2 L19.95 39.35 Q20.35 33.4 17.25 32.3 L18.3 31.9 20.4 31.7 Q20.35 35.05 24.25 39.2" fill="#f4a33c" fill-rule="evenodd" stroke="none"/>
      <path d="M27.55 34.35 Q29.65 37.45 27.5 42.45 25.75 46.3 16.45 43.9 13.9 43.0 12.6 41.8 11.5 40.75 11.25 39.55 15.55 37.95 21.05 40.6 24.45 41.0 26.75 36.95 L27.55 34.35" fill="#cc6b22" fill-rule="evenodd" stroke="none"/>
      <path d="M28.2 42.8 Q26.3 47.0 16.1 44.4 8.25 41.6 11.2 36.05 12.75 33.2 18.15 31.25 L20.1 31.05 Q24.8 30.85 28.25 33.95 30.55 37.35 28.2 42.8 Z" fill="none" stroke="#000000" stroke-linecap="round" stroke-linejoin="round" stroke-opacity="0.3019608" stroke-width="0.30000000000000004"/>
      <path d="M24.15 45.2 L24.35 40.1 25.9 41.55 26.35 43.15 25.45 44.75 24.15 45.2 M13.6 43.65 L13.2 38.75 14.55 40.05 15.6 42.5 15.35 43.65 Q14.65 43.85 13.6 43.65" fill="#8f3600" fill-rule="evenodd" stroke="none"/>
      <path d="M7.3 36.8 L10.1 35.45 12.65 36.9 12.4 37.35 10.2 36.1 8.3 36.85 7.3 36.8 M13.3 42.55 L13.35 44.3 11.9 38.6 9.45 37.7 7.0 38.65 9.55 37.25 12.0 38.05 13.3 42.55 M17.3 38.7 L20.15 36.8 23.9 38.2 23.4 40.0 23.35 38.25 20.55 37.45 21.2 39.3 20.05 38.25 17.3 38.7" fill="#d7f16b" fill-rule="evenodd" stroke="none"/>
      <path d="M8.3 36.85 L10.2 36.1 12.4 37.35 12.0 38.05 9.55 37.25 8.3 36.85 M23.1 46.35 L23.1 45.65 22.55 40.6 21.2 39.3 20.55 37.45 23.35 38.25 23.4 40.0 23.1 41.05 23.1 42.15 23.6 44.1 25.5 42.6 23.1 46.35 M23.1 42.15 L23.1 45.65 23.1 42.15" fill="#9ae17b" fill-rule="evenodd" stroke="none"/>
      <path d="M7.3 36.8 L8.3 36.85 9.55 37.25 7.0 38.65 6.5 39.7 6.35 38.4 7.3 36.8 M12.4 37.35 L12.65 36.9 14.9 41.8 13.3 42.55 12.0 38.05 12.4 37.35 M23.9 38.2 L25.5 42.6 23.6 44.1 23.1 42.15 23.1 41.05 23.4 40.0 23.9 38.2" fill="#75d74a" fill-rule="evenodd" stroke="none"/>
      <path d="M13.4 46.6 L11.45 46.5 8.55 44.4 6.5 39.7 7.0 38.65 9.45 37.7 11.9 38.6 13.35 44.3 13.4 46.6 M21.65 48.45 L19.8 48.0 17.8 45.5 17.3 38.7 20.05 38.25 21.2 39.3 22.55 40.6 23.1 45.65 23.1 46.35 21.65 48.45" fill="#339328" fill-rule="evenodd" stroke="none"/>
      <path d="M14.9 41.8 L14.8 45.0 13.4 46.6 13.35 44.3 13.3 42.55 14.9 41.8 M25.5 42.6 L24.15 47.7 21.65 48.45 23.1 46.35 25.5 42.6" fill="#246c41" fill-rule="evenodd" stroke="none"/>
      <path d="M12.65 36.9 L10.1 35.45 7.3 36.8 6.35 38.4 6.5 39.7 8.55 44.4 11.45 46.5 13.4 46.6 14.8 45.0 14.9 41.8 13.3 42.55 13.35 44.3 13.4 46.6 M12.65 36.9 L14.9 41.8 M21.65 48.45 L19.8 48.0 17.8 45.5 17.3 38.7 20.15 36.8 23.9 38.2 25.5 42.6 24.15 47.7 21.65 48.45 23.1 46.35 23.1 45.65 23.1 42.15 23.1 41.05 23.4 40.0 23.9 38.2 M25.5 42.6 L23.1 46.35" fill="none" stroke="#000000" stroke-linecap="round" stroke-linejoin="round" stroke-opacity="0.3019608" stroke-width="0.30000000000000004"/>
    </g>
    <g id="sprite1" transform="matrix(1.0, 0.0, 0.0, 1.0, 0.0, 0.0)">
      <use height="26.7" transform="matrix(0.0042, -1.3515, 1.3935, 0.02, 22.09, 56.0263)" width="26.7" xlink:href="#sprite2"/>
      <use height="26.7" transform="matrix(0.0095, -3.0486, 0.372, 0.0053, 36.507, 81.3775)" width="26.7" xlink:href="#sprite2"/>
      <use height="26.7" transform="matrix(3.0486, 0.0095, -0.0053, 0.372, 0.1225, 35.107)" width="26.7" xlink:href="#sprite2"/>
    </g>
    <g id="sprite2" transform="matrix(1.0, 0.0, 0.0, 1.0, 13.35, 13.35)">
      <use height="26.7" transform="matrix(1.0, 0.0, 0.0, 1.0, -13.35, -13.35)" width="26.7" xlink:href="#shape1"/>
    </g>
    <g id="shape1" transform="matrix(1.0, 0.0, 0.0, 1.0, 13.35, 13.35)">
      <path d="M9.3 -9.85 Q13.35 -5.8 13.35 0.0 13.35 5.8 9.3 9.3 5.8 13.35 0.0 13.35 -5.8 13.35 -9.85 9.3 -13.35 5.8 -13.35 0.0 -13.35 -5.8 -9.85 -9.85 -5.8 -13.35 0.0 -13.35 5.8 -13.35 9.3 -9.85" fill="url(#gradient0)" fill-rule="evenodd" stroke="none"/>
    </g>
    <radialGradient cx="0" cy="0" gradientTransform="matrix(0.0213, 0.0, 0.0, 0.0213, 0.0, 0.0)" gradientUnits="userSpaceOnUse" id="gradient0" r="819.2" spreadMethod="pad">
      <stop offset="0.19607843137254902" stop-color="#fee3bc" stop-opacity="0.5568628"/>
      <stop offset="0.5019607843137255" stop-color="#fee3bc" stop-opacity="0.08627451"/>
      <stop offset="0.7607843137254902" stop-color="#ffe3bd" stop-opacity="0.0"/>
    </radialGradient>
  </defs>
</svg>
