<?xml version="1.0" encoding="UTF-8" standalone="no"?>
<svg xmlns:xlink="http://www.w3.org/1999/xlink" height="52.0px" width="52.0px" xmlns="http://www.w3.org/2000/svg">
  <g transform="matrix(1.0, 0.0, 0.0, 1.0, 0.0, 0.0)">
    <use height="54.0" transform="matrix(1.0, 0.0, 0.0, 1.0, -1.0, -1.0)" width="54.0" xlink:href="#shape0"/>
    <use height="0.0" transform="matrix(0.1867, -0.028, -0.0424, 0.2107, 24.7, 19.9)" width="0.0" xlink:href="#sprite0"/>
  </g>
  <defs>
    <g id="shape0" transform="matrix(1.0, 0.0, 0.0, 1.0, 1.0, 1.0)">
      <path d="M52.0 0.0 L52.0 52.0 0.0 52.0 0.0 0.0 52.0 0.0" fill="#795fa9" fill-opacity="0.0" fill-rule="evenodd" stroke="none"/>
      <path d="M21.25 7.1 L29.45 6.2 32.0 6.4 34.35 6.75 Q38.0 8.2 40.25 11.2 L43.0 17.3 44.1 17.4 44.15 17.4 45.25 17.55 46.2 18.5 47.95 22.65 47.45 24.45 45.35 26.1 44.6 26.3 42.3 25.8 42.25 25.85 40.1 30.0 40.1 30.1 37.85 33.75 Q33.85 40.25 27.1 47.1 L25.15 48.05 23.3 47.8 21.1 43.2 17.15 43.25 15.4 44.15 13.85 47.05 12.9 47.9 11.5 48.1 Q7.15 43.4 7.15 43.15 L6.9 42.45 7.25 40.85 7.0 39.15 8.65 29.45 8.85 27.6 7.4 27.9 6.6 27.8 5.6 26.8 4.8 25.65 4.05 23.9 4.55 21.75 4.6 21.55 5.5 20.25 7.25 19.4 11.15 19.15 14.25 11.75 21.25 7.1 M19.7 25.55 Q24.25 24.2 28.7 24.4 L28.05 25.65 27.2 25.25 24.7 27.8 24.1 27.85 21.85 25.75 18.7 28.0 19.0 26.6 19.5 25.8 19.7 25.55" fill="none" stroke="#000000" stroke-linecap="round" stroke-linejoin="round" stroke-opacity="0.3019608" stroke-width="1.0"/>
      <path d="M9.45 19.25 L7.2 20.85 6.05 21.5 5.9 20.55 7.25 19.4 9.45 19.25 M12.8 26.65 L7.4 27.9 6.6 27.8 5.6 26.8 9.65 25.8 11.95 25.8 12.4 25.85 12.8 26.65" fill="#a89e64" fill-rule="evenodd" stroke="none"/>
      <path d="M7.2 20.85 L11.3 21.1 11.0 24.05 11.95 25.8 9.65 25.8 5.6 26.8 4.8 25.65 4.05 23.9 6.05 21.5 7.2 20.85 M5.9 20.55 L4.55 21.75 4.6 21.55 5.5 20.25 7.25 19.4 5.9 20.55 M11.0 24.05 L9.65 25.8 11.0 24.05" fill="#bfb072" fill-rule="evenodd" stroke="none"/>
      <path d="M12.75 19.05 L12.8 20.15 11.3 21.1 7.2 20.85 9.45 19.25 12.75 19.05 M4.55 21.75 L5.9 20.55 6.05 21.5 4.05 23.9 4.55 21.75" fill="#d0c586" fill-rule="evenodd" stroke="none"/>
      <path d="M12.75 19.05 L9.45 19.25 7.2 20.85 11.3 21.1 12.8 20.15 M5.9 20.55 L4.55 21.75 4.05 23.9 6.05 21.5 7.2 20.85 M5.9 20.55 L7.25 19.4 5.5 20.25 4.6 21.55 4.55 21.75 M12.8 26.65 L7.4 27.9 6.6 27.8 5.6 26.8 4.8 25.65 4.05 23.9 M5.6 26.8 L9.65 25.8 11.0 24.05 11.3 21.1 M11.95 25.8 L12.4 25.85 M11.0 24.05 L11.95 25.8 9.65 25.8 M7.25 19.4 L9.45 19.25" fill="none" stroke="#000000" stroke-linecap="round" stroke-linejoin="round" stroke-opacity="0.3019608" stroke-width="0.30000000000000004"/>
      <path d="M32.0 6.4 L34.35 6.75 Q38.0 8.2 40.25 11.2 L40.65 13.85 38.05 9.65 38.0 9.55 37.2 8.6 33.2 6.6 32.0 6.4" fill="#a89e64" fill-rule="evenodd" stroke="none"/>
      <path d="M15.65 20.65 Q20.05 18.65 30.45 18.55 L30.45 19.05 29.5 19.05 27.5 19.0 28.95 21.4 29.05 21.65 30.05 21.2 28.7 24.4 Q24.25 24.2 19.7 25.55 L19.5 25.8 18.3 24.05 17.85 23.3 21.15 20.95 20.75 20.2 19.85 20.35 19.7 20.4 17.95 20.75 16.05 21.2 15.65 20.65 M43.6 18.6 L43.5 21.25 42.15 19.15 42.1 19.05 38.7 13.05 38.55 12.2 Q38.7 10.75 38.05 9.65 L40.65 13.85 43.6 18.6 M40.1 30.0 L40.1 30.1 36.95 28.95 34.95 27.6 33.85 25.9 35.85 20.0 35.9 19.9 38.1 13.8 41.4 22.65 41.9 24.6 37.5 23.3 40.1 30.0 M25.15 48.05 L24.8 48.0 23.6 46.75 Q21.5 43.85 21.55 42.4 L22.1 41.7 22.35 41.7 22.9 41.65 23.75 42.7 Q24.5 44.1 24.85 46.3 L25.15 48.05 M17.15 43.25 L15.4 44.15 14.25 40.2 17.15 43.25 M12.9 47.9 L11.5 48.1 Q7.15 43.4 7.15 43.15 L8.3 43.15 Q9.55 42.95 10.6 44.25 L12.9 47.9 M23.0 23.0 L27.55 19.85 27.2 19.15 26.0 19.35 23.8 19.7 21.5 20.05 23.0 23.0" fill="#5f5a3a" fill-rule="evenodd" stroke="none"/>
      <path d="M14.25 11.75 L16.75 12.0 13.5 17.6 9.35 23.6 14.25 11.75 M30.45 18.55 L30.45 18.1 22.75 18.4 26.45 15.35 32.95 10.7 35.1 9.35 36.6 8.8 37.95 10.3 37.45 13.7 34.55 21.8 32.15 25.05 27.4 26.7 27.45 26.65 27.8 26.0 28.05 25.65 28.7 24.4 30.05 21.2 30.15 20.65 30.35 19.7 30.45 19.05 30.45 18.55 M26.1 15.2 L21.05 18.6 17.95 19.2 15.25 19.3 14.35 17.45 17.45 11.5 20.95 7.45 21.25 7.1 29.45 6.2 32.0 6.4 33.2 6.6 32.4 8.4 26.1 15.2 M27.1 47.1 L25.15 48.05 24.85 46.3 Q24.5 44.1 23.75 42.7 L22.9 41.65 24.25 40.55 Q23.95 41.9 24.85 44.45 26.05 46.95 27.1 47.1 M6.9 42.45 L7.25 40.85 11.95 36.1 12.35 36.15 9.65 41.05 8.15 42.55 6.9 42.45 M18.3 24.05 L19.5 25.8 19.0 26.6 18.3 24.05 M16.65 28.4 L17.45 28.35 18.2 28.35 18.7 28.3 19.85 28.25 20.85 28.2 15.55 30.3 14.8 28.45 16.65 28.4 M9.95 41.7 L10.4 42.45 Q10.05 42.75 10.55 43.7 L10.6 44.25 Q9.55 42.95 8.3 43.15 L9.95 41.7" fill="#bfb072" fill-rule="evenodd" stroke="none"/>
      <path d="M30.45 19.05 L30.35 19.7 29.75 20.4 Q29.9 19.6 29.5 19.05 L30.45 19.05 M27.45 26.65 L27.4 26.7 26.9 27.5 26.2 27.6 27.35 26.1 27.45 26.65 M23.8 19.7 L26.0 19.35 24.1 21.65 Q24.5 20.2 23.8 19.7 M17.95 20.75 L19.7 20.4 18.2 22.45 Q18.75 21.1 17.95 20.75 M16.4 27.5 L16.65 28.4 14.8 28.45 14.25 28.4 Q16.05 28.15 16.4 27.5 M22.05 26.3 L22.7 28.0 20.85 28.2 19.85 28.25 Q21.7 27.65 22.05 26.3" fill="#f4a33c" fill-rule="evenodd" stroke="none"/>
      <path d="M29.5 19.05 Q29.9 19.6 29.75 20.4 L28.95 21.4 27.5 19.0 29.5 19.05 M23.0 23.0 L21.5 20.05 23.8 19.7 Q24.5 20.2 24.1 21.65 L23.0 23.0 M16.05 21.2 L17.95 20.75 Q18.75 21.1 18.2 22.45 L17.35 23.7 16.05 21.2 M16.15 26.5 L16.4 27.5 Q16.05 28.15 14.25 28.4 L13.7 28.4 16.15 26.5 M18.2 28.35 L18.7 28.0 21.85 25.75 22.05 26.3 Q21.7 27.65 19.85 28.25 L18.7 28.3 18.2 28.35 M24.7 27.8 L27.2 25.25 27.35 26.1 26.2 27.6 24.7 27.8" fill="#ffde4f" fill-rule="evenodd" stroke="none"/>
      <path d="M32.95 10.7 L26.1 15.2 32.4 8.4 35.1 9.35 32.95 10.7 M24.8 48.0 L23.3 47.8 21.1 43.2 20.45 41.95 22.1 41.7 21.55 42.4 Q21.5 43.85 23.6 46.75 L24.8 48.0 M13.85 47.05 L12.9 47.9 10.6 44.25 10.55 43.7 13.85 47.05 M38.1 13.8 L38.55 12.2 38.7 13.05 42.1 19.05 39.25 14.9 41.4 22.65 38.1 13.8 M27.4 26.7 L32.15 25.05 28.75 33.75 24.25 40.55 22.9 41.65 22.35 41.7 19.55 39.15 19.15 36.55 13.3 36.4 12.35 36.15 11.95 36.1 14.85 31.5 15.55 30.3 20.85 28.2 22.7 28.0 23.55 27.95 24.1 27.85 24.7 27.8 26.2 27.6 26.9 27.5 27.4 26.7 M33.85 25.9 L34.95 27.6 36.95 28.95 35.0 28.15 33.55 26.55 33.85 25.9 M10.4 42.45 L9.95 41.7 12.45 37.25 10.4 42.45" fill="#a19860" fill-rule="evenodd" stroke="none"/>
      <path d="M13.5 17.6 L15.15 19.95 Q11.7 24.25 12.75 28.35 L13.1 28.4 13.7 28.4 14.25 28.4 14.8 28.45 15.55 30.3 14.85 31.5 11.35 35.9 7.5 39.25 8.65 29.45 9.35 23.6 13.5 17.6 M20.95 7.45 L17.1 11.3 14.25 11.75 21.25 7.1 20.95 7.45 M7.15 43.15 L6.9 42.45 8.15 42.55 9.65 41.05 12.35 36.15 13.3 36.4 19.15 36.55 12.7 37.0 12.55 37.2 12.45 37.25 9.95 41.7 8.3 43.15 7.15 43.15 M36.6 8.8 L35.1 9.35 32.4 8.4 33.2 6.6 37.2 8.6 38.0 9.55 38.05 9.65 Q38.7 10.75 38.55 12.2 L38.1 13.8 35.9 19.9 35.85 20.0 34.55 21.8 35.85 20.0 33.85 25.9 33.55 26.55 28.75 33.75 32.15 25.05 34.55 21.8 37.45 13.7 37.95 10.3 36.6 8.8 37.2 8.6 36.6 8.8 M19.55 39.15 L22.35 41.7 22.1 41.7 20.45 41.95 19.55 39.15" fill="#d0c586" fill-rule="evenodd" stroke="none"/>
      <path d="M13.1 28.4 Q13.0 23.7 15.65 20.65 L16.05 21.2 17.35 23.7 17.85 23.3 18.3 24.05 19.0 26.6 18.7 28.0 18.2 28.35 16.15 26.5 13.7 28.4 13.1 28.4 M40.25 11.2 L43.6 18.6 40.65 13.85 40.25 11.2 M43.5 21.25 L42.65 24.8 42.25 25.85 41.9 24.6 41.4 22.65 39.25 14.9 42.1 19.05 42.15 19.15 43.5 21.25 M37.85 33.75 Q33.85 40.25 27.1 47.1 26.05 46.95 24.85 44.45 23.95 41.9 24.25 40.55 L28.75 33.75 33.55 26.55 35.0 28.15 37.85 33.75 M21.1 43.2 L17.15 43.25 14.25 40.2 12.7 37.0 19.15 36.55 19.55 39.15 20.45 41.95 21.1 43.2" fill="#544d34" fill-rule="evenodd" stroke="none"/>
      <path d="M42.25 25.85 L40.1 30.0 37.5 23.3 41.9 24.6 42.25 25.85 M40.1 30.1 L37.85 33.75 35.0 28.15 36.95 28.95 40.1 30.1 M15.4 44.15 L13.85 47.05 10.55 43.7 Q10.05 42.75 10.4 42.45 L12.45 37.25 12.55 37.2 12.7 37.0 14.25 40.2 15.4 44.15" fill="#443f2b" fill-rule="evenodd" stroke="none"/>
      <path d="M16.75 12.0 L14.25 11.75 17.1 11.3 20.95 7.45 17.45 11.5 14.35 17.45 15.25 19.3 17.95 19.2 21.05 18.6 26.1 15.2 32.95 10.7 26.45 15.35 22.75 18.4 30.45 18.1 30.45 18.55 Q20.05 18.65 15.65 20.65 13.0 23.7 13.1 28.4 L12.75 28.35 Q11.7 24.25 15.15 19.95 L13.5 17.6 16.75 12.0 M7.25 40.85 L7.0 39.15 8.65 29.45 7.5 39.25 11.35 35.9 14.85 31.5 11.95 36.1 7.25 40.85" fill="#dbcfa4" fill-rule="evenodd" stroke="none"/>
      <path d="M30.15 20.65 L30.05 21.2 29.05 21.65 30.15 20.65 M28.05 25.65 L27.8 26.0 27.2 25.25 28.05 25.65 M27.2 19.15 L27.55 19.85 23.0 23.0 27.2 19.15 M20.75 20.2 L21.15 20.95 17.85 23.3 17.35 23.7 20.75 20.2 M17.45 28.35 L16.15 26.5 18.2 28.35 17.45 28.35 M23.55 27.95 L21.85 25.75 24.1 27.85 23.55 27.95" fill="#cc6b22" fill-rule="evenodd" stroke="none"/>
      <path d="M30.35 19.7 L30.15 20.65 29.05 21.65 28.95 21.4 29.75 20.4 30.35 19.7 M27.8 26.0 L27.45 26.65 27.35 26.1 27.2 25.25 27.8 26.0 M27.2 19.15 L23.0 23.0 24.1 21.65 26.0 19.35 27.2 19.15 M19.85 20.35 L20.75 20.2 17.35 23.7 18.2 22.45 19.7 20.4 19.85 20.35 M16.4 27.5 L16.15 26.5 17.45 28.35 16.65 28.4 16.4 27.5 M22.05 26.3 L21.85 25.75 23.55 27.95 22.7 28.0 22.05 26.3" fill="#ffff98" fill-rule="evenodd" stroke="none"/>
      <path d="M16.75 12.0 L13.5 17.6 15.15 19.95 M12.75 28.35 L13.1 28.4 Q13.0 23.7 15.65 20.65 20.05 18.65 30.45 18.55 L30.45 19.05 29.5 19.05 27.5 19.0 28.95 21.4 29.05 21.65 30.05 21.2 28.7 24.4 28.05 25.65 27.8 26.0 27.45 26.65 27.4 26.7 32.15 25.05 34.55 21.8 35.85 20.0 35.9 19.9 38.1 13.8 M32.95 10.7 L26.1 15.2 21.05 18.6 M20.95 7.45 L17.1 11.3 14.25 11.75 21.25 7.1 29.45 6.2 32.0 6.4 34.35 6.75 Q38.0 8.2 40.25 11.2 L43.6 18.6 43.5 21.25 42.65 24.8 42.25 25.85 40.1 30.0 40.1 30.1 37.85 33.75 Q33.85 40.25 27.1 47.1 L25.15 48.05 24.8 48.0 23.3 47.8 21.1 43.2 17.15 43.25 15.4 44.15 13.85 47.05 12.9 47.9 11.5 48.1 Q7.15 43.4 7.15 43.15 L6.9 42.45 7.25 40.85 7.0 39.15 8.65 29.45 9.35 23.6 14.25 11.75 M21.25 7.1 L20.95 7.45 M36.6 8.8 L35.1 9.35 32.95 10.7 M37.2 8.6 L36.6 8.8 M38.55 12.2 Q38.7 10.75 38.05 9.65 L38.0 9.55 37.2 8.6 33.2 6.6 32.4 8.4 35.1 9.35 M33.2 6.6 L32.0 6.4 M38.05 9.65 L40.65 13.85 40.25 11.2 M42.15 19.15 L43.5 21.25 M43.6 18.6 L40.65 13.85 M41.4 22.65 L39.25 14.9 42.1 19.05 M30.45 19.05 L30.35 19.7 30.15 20.65 30.05 21.2 M23.0 23.0 L27.55 19.85 27.2 19.15 26.0 19.35 23.8 19.7 21.5 20.05 23.0 23.0 M36.95 28.95 L40.1 30.1 M35.0 28.15 L36.95 28.95 M33.55 26.55 L35.0 28.15 37.85 33.75 M42.25 25.85 L41.9 24.6 41.4 22.65 M35.85 20.0 L33.85 25.9 M20.75 20.2 L21.15 20.95 17.85 23.3 18.3 24.05 19.5 25.8 19.7 25.55 Q24.25 24.2 28.7 24.4 M19.85 20.35 L20.75 20.2 M17.35 23.7 L17.85 23.3 M16.05 21.2 L15.65 20.65 M16.05 21.2 L17.95 20.75 19.7 20.4 M17.35 23.7 L16.05 21.2 M16.65 28.4 L17.45 28.35 18.2 28.35 18.7 28.0 19.0 26.6 18.3 24.05 M16.15 26.5 L18.2 28.35 18.7 28.3 19.85 28.25 20.85 28.2 15.55 30.3 14.8 28.45 14.25 28.4 13.7 28.4 13.1 28.4 M22.7 28.0 L23.55 27.95 24.1 27.85 24.7 27.8 27.2 25.25 28.05 25.65 M21.85 25.75 L24.1 27.85 M19.0 26.6 L19.5 25.8 M13.5 17.6 L9.35 23.6 M14.85 31.5 L15.55 30.3 M14.85 31.5 L11.95 36.1 7.25 40.85 M19.15 36.55 L19.55 39.15 20.45 41.95 21.1 43.2 M24.25 40.55 L28.75 33.75 32.15 25.05 M12.7 37.0 L12.55 37.2 M12.7 37.0 L14.25 40.2 17.15 43.25 M26.2 27.6 L26.9 27.5 27.4 26.7 M26.2 27.6 L24.7 27.8 M22.7 28.0 L20.85 28.2 M16.65 28.4 L14.8 28.45 M13.7 28.4 L16.15 26.5 M18.7 28.0 L21.85 25.75 M19.15 36.55 L12.7 37.0 M24.25 40.55 Q23.95 41.9 24.85 44.45 26.05 46.95 27.1 47.1 M10.55 43.7 L13.85 47.05 M28.75 33.75 L33.55 26.55 M14.25 40.2 L15.4 44.15 M26.1 15.2 L32.4 8.4" fill="none" stroke="#000000" stroke-linecap="round" stroke-linejoin="round" stroke-opacity="0.3019608" stroke-width="0.30000000000000004"/>
      <path d="M28.9 11.5 L29.7 10.6 Q30.55 9.95 31.5 9.9 L31.65 9.95 Q31.95 10.5 31.75 11.2 L31.6 11.65 30.0 12.9 29.1 13.05 Q28.55 12.9 28.9 11.5" fill="#a89e64" fill-rule="evenodd" stroke="none"/>
      <path d="M33.2 10.85 Q33.55 11.45 33.3 12.3 33.1 13.25 32.2 13.95 31.4 14.55 30.55 14.6 L30.35 14.6 Q29.4 14.6 28.85 13.9 L28.65 13.55 28.8 13.6 29.3 13.5 Q29.7 14.0 30.4 14.0 L31.9 13.5 Q33.25 12.7 33.2 10.85" fill="#5f5a3a" fill-rule="evenodd" stroke="none"/>
      <path d="M31.65 9.95 Q32.55 9.95 33.0 10.6 L33.2 10.85 Q33.25 12.7 31.9 13.5 L30.4 14.0 Q29.7 14.0 29.3 13.5 L30.1 13.25 30.65 12.85 Q31.3 12.35 31.6 11.65 L31.75 11.2 Q31.95 10.5 31.65 9.95" fill="#3f3927" fill-rule="evenodd" stroke="none"/>
      <path d="M28.65 13.55 Q28.4 13.0 28.6 12.25 L28.9 11.5 Q28.55 12.9 29.1 13.05 L30.0 12.9 31.6 11.65 Q31.3 12.35 30.65 12.85 L30.1 13.25 29.3 13.5 28.8 13.6 28.65 13.55" fill="#d0c586" fill-rule="evenodd" stroke="none"/>
      <path d="M28.9 11.5 L29.7 10.6 Q30.55 9.95 31.5 9.9 L31.65 9.95 Q32.55 9.95 33.0 10.6 L33.2 10.85 Q33.55 11.45 33.3 12.3 33.1 13.25 32.2 13.95 31.4 14.55 30.55 14.6 L30.35 14.6 Q29.4 14.6 28.85 13.9 L28.65 13.55 Q28.4 13.0 28.6 12.25 L28.9 11.5 Z" fill="none" stroke="#000000" stroke-linecap="round" stroke-linejoin="round" stroke-opacity="0.3019608" stroke-width="0.30000000000000004"/>
      <path d="M15.65 13.15 Q15.9 12.65 16.45 12.25 17.3 11.6 18.25 11.55 L18.4 11.6 Q18.7 12.15 18.5 12.85 L18.35 13.3 16.75 14.55 15.85 14.7 Q15.3 14.55 15.65 13.15" fill="#a89e64" fill-rule="evenodd" stroke="none"/>
      <path d="M19.95 12.5 Q20.3 13.1 20.05 13.95 19.85 14.9 18.95 15.6 18.15 16.2 17.3 16.25 L17.1 16.25 Q16.15 16.25 15.6 15.55 L15.4 15.2 15.55 15.25 16.05 15.15 Q16.45 15.65 17.15 15.65 L18.65 15.15 Q20.0 14.35 19.95 12.5" fill="#5f5a3a" fill-rule="evenodd" stroke="none"/>
      <path d="M18.4 11.6 Q19.3 11.6 19.75 12.25 L19.95 12.5 Q20.0 14.35 18.65 15.15 L17.15 15.65 Q16.45 15.65 16.05 15.15 L16.85 14.9 17.4 14.5 18.35 13.3 18.5 12.85 Q18.7 12.15 18.4 11.6" fill="#3f3927" fill-rule="evenodd" stroke="none"/>
      <path d="M15.4 15.2 Q15.15 14.65 15.35 13.9 L15.65 13.15 Q15.3 14.55 15.85 14.7 L16.75 14.55 18.35 13.3 17.4 14.5 16.85 14.9 16.05 15.15 15.55 15.25 15.4 15.2" fill="#d0c586" fill-rule="evenodd" stroke="none"/>
      <path d="M15.65 13.15 Q15.9 12.65 16.45 12.25 17.3 11.6 18.25 11.55 L18.4 11.6 Q19.3 11.6 19.75 12.25 L19.95 12.5 Q20.3 13.1 20.05 13.95 19.85 14.9 18.95 15.6 18.15 16.2 17.3 16.25 L17.1 16.25 Q16.15 16.25 15.6 15.55 L15.4 15.2 Q15.15 14.65 15.35 13.9 L15.65 13.15 Z" fill="none" stroke="#000000" stroke-linecap="round" stroke-linejoin="round" stroke-opacity="0.3019608" stroke-width="0.30000000000000004"/>
      <path d="M42.95 18.7 L44.35 17.7 46.25 20.5 46.05 22.6 44.85 23.7 42.9 20.85 42.95 18.7" fill="#5f5a3a" fill-rule="evenodd" stroke="none"/>
      <path d="M42.3 17.2 L40.6 18.55 38.45 19.35 37.55 19.75 37.55 19.55 38.5 18.5 42.3 17.2 M45.35 26.1 L44.6 26.3 38.65 25.05 38.05 24.65 37.5 23.3 40.85 23.95 41.2 24.0 43.15 25.0 45.35 26.1" fill="#a89e64" fill-rule="evenodd" stroke="none"/>
      <path d="M37.5 23.3 L37.2 21.9 37.55 19.75 38.45 19.35 40.5 19.1 42.15 19.55 42.4 22.3 40.85 23.95 37.5 23.3" fill="#bfb072" fill-rule="evenodd" stroke="none"/>
      <path d="M44.35 17.7 L42.95 18.7 40.6 18.55 42.3 17.2 44.35 17.7 M41.2 24.0 L42.85 23.0 43.15 25.0 41.2 24.0" fill="#d0c586" fill-rule="evenodd" stroke="none"/>
      <path d="M42.95 18.7 L42.9 20.85 42.85 23.0 41.2 24.0 40.85 23.95 42.4 22.3 42.15 19.55 40.5 19.1 38.45 19.35 40.6 18.55 42.95 18.7 M44.35 17.7 L42.3 17.2 44.1 17.4 44.15 17.4 45.25 17.55 46.2 18.5 44.35 17.7" fill="#a19860" fill-rule="evenodd" stroke="none"/>
      <path d="M42.9 20.85 L44.85 23.7 46.05 22.6 46.25 20.5 44.35 17.7 46.2 18.5 47.95 22.65 47.45 24.45 45.35 26.1 43.15 25.0 42.85 23.0 42.9 20.85" fill="#443f2b" fill-rule="evenodd" stroke="none"/>
      <path d="M44.35 17.7 L42.95 18.7 42.9 20.85 42.85 23.0 41.2 24.0 40.85 23.95 37.5 23.3 37.2 21.9 37.55 19.75 37.55 19.55 38.5 18.5 42.3 17.2 40.6 18.55 42.95 18.7 M42.3 17.2 L44.1 17.4 M44.15 17.4 L45.25 17.55 46.2 18.5 47.95 22.65 47.45 24.45 45.35 26.1 44.6 26.3 38.65 25.05 38.05 24.65 37.5 23.3 M46.2 18.5 L44.35 17.7 M38.45 19.35 L37.55 19.75 M45.35 26.1 L43.15 25.0 41.2 24.0 M40.6 18.55 L38.45 19.35 M43.15 25.0 L42.85 23.0" fill="none" stroke="#000000" stroke-linecap="round" stroke-linejoin="round" stroke-opacity="0.3019608" stroke-width="0.30000000000000004"/>
      <path d="M44.1 17.4 L44.15 17.4" fill="none" stroke="#ff0000" stroke-linecap="round" stroke-linejoin="round" stroke-width="0.05"/>
    </g>
  </defs>
</svg>
