<?xml version="1.0" encoding="UTF-8" standalone="no"?>
<svg xmlns:xlink="http://www.w3.org/1999/xlink" height="52.0px" width="52.0px" xmlns="http://www.w3.org/2000/svg">
  <g transform="matrix(1.0, 0.0, 0.0, 1.0, 0.0, 0.0)">
    <use height="54.0" transform="matrix(1.0, 0.0, 0.0, 1.0, -1.0, -1.0)" width="54.0" xlink:href="#shape0"/>
    <use height="156.85" transform="matrix(0.0175, -0.3123, -0.1507, -0.0433, 32.12, 51.2533)" width="73.1" xlink:href="#sprite0"/>
    <use height="156.85" transform="matrix(0.053, -0.2291, -0.119, -0.0659, 34.9599, 28.0942)" width="73.1" xlink:href="#sprite0"/>
    <use height="0.0" transform="matrix(0.1174, 0.0511, -0.0925, 0.2061, 25.9, 26.3)" width="0.0" xlink:href="#sprite1"/>
  </g>
  <defs>
    <g id="shape0" transform="matrix(1.0, 0.0, 0.0, 1.0, 1.0, 1.0)">
      <path d="M52.0 0.0 L52.0 52.0 0.0 52.0 0.0 0.0 52.0 0.0" fill="#795fa9" fill-opacity="0.0" fill-rule="evenodd" stroke="none"/>
      <path d="M40.9 17.2 Q44.15 17.0 44.55 19.4 44.8 21.1 42.3 23.65 43.1 25.15 43.3 26.4 42.2 27.0 40.8 26.85 L40.7 27.15 40.7 27.2 40.25 28.3 39.85 29.05 40.0 32.0 Q38.5 32.4 36.6 31.55 L36.2 31.75 35.75 31.85 Q34.6 33.65 33.35 34.45 31.85 33.65 31.05 31.75 L30.9 31.7 30.3 31.5 29.85 31.9 Q30.2 32.0 30.55 32.4 L30.65 33.25 Q31.65 34.45 31.9 36.4 31.95 37.3 31.6 38.15 31.1 39.4 29.7 40.55 L29.45 41.25 30.0 41.45 31.15 42.2 Q32.25 43.7 28.2 45.75 24.6 48.0 20.8 48.05 L16.35 47.35 16.15 47.25 Q14.75 46.75 13.3 45.9 9.55 43.3 8.15 40.05 L8.0 39.65 7.6 38.2 7.5 37.75 7.4 36.45 Q7.35 34.85 7.8 33.15 L7.9 32.9 7.95 32.75 8.2 31.8 Q10.7 24.6 20.7 25.35 L21.8 25.45 22.05 25.5 21.1 24.3 20.8 23.9 Q18.25 21.45 17.65 17.95 16.9 13.5 19.6 9.9 22.3 6.25 26.9 5.6 28.9 5.3 30.8 5.65 L32.35 6.05 Q33.85 6.6 35.25 7.55 L37.4 9.45 38.45 11.0 39.35 12.7 39.75 14.25 39.75 14.3 Q41.0 15.5 40.9 17.2 M7.4 36.45 Q8.0 39.25 9.0 40.5 13.3 46.0 16.3 40.15 17.7 35.55 20.95 32.15 25.6 27.65 28.35 28.5 29.55 28.9 30.15 29.4 31.3 30.3 30.5 31.35 L30.3 31.5 29.8 31.9 28.6 33.4 Q27.45 34.8 27.1 37.35 26.8 39.9 28.9 41.05 L29.45 41.25 30.0 41.45 M30.9 31.7 L31.05 31.75 31.6 31.85 33.85 31.75 Q35.65 31.4 36.4 30.35 L36.85 29.35 Q37.25 28.35 36.3 27.75 L35.6 27.45 31.9 26.7 29.3 26.55 27.8 24.2 Q26.3 22.35 24.65 21.55 L24.3 21.4 21.95 21.05 Q20.75 21.2 20.5 22.3 L20.55 23.15 20.8 23.9 20.85 23.9 21.1 24.3 M22.7 25.6 L22.05 25.5 M7.8 33.15 L7.9 32.9 M7.6 38.2 L7.5 37.7 7.5 37.75" fill="none" stroke="#000000" stroke-linecap="round" stroke-linejoin="round" stroke-opacity="0.3019608" stroke-width="1.0"/>
      <path d="M29.4 31.8 Q30.0 31.85 30.55 32.4 30.75 32.85 30.6 33.25 L30.3 33.75 30.6 33.25 Q31.65 34.45 31.9 36.4 31.95 37.3 31.6 38.15 31.15 39.4 29.7 40.55 29.3 41.95 28.35 41.45 29.95 41.0 28.7 38.8 28.0 36.15 29.55 34.15 30.75 32.5 29.4 31.8 M29.6 39.6 L29.7 40.55 29.6 39.6 Q31.35 38.9 31.4 36.5 31.2 37.65 30.75 37.75 L30.1 37.8 Q31.45 37.65 31.05 35.0 L30.8 34.45 30.3 33.75 29.45 35.3 Q28.5 37.15 29.25 38.8 L29.6 39.6" fill="#d0c586" fill-rule="evenodd" stroke="none"/>
      <path d="M29.4 31.8 Q30.75 32.5 29.55 34.15 28.0 36.15 28.7 38.8 29.95 41.0 28.35 41.45 L27.95 41.15 Q25.8 39.1 26.55 35.55 27.4 32.75 28.5 32.05 L29.4 31.8 M30.8 34.45 L31.05 35.0 Q31.45 37.65 30.1 37.8 29.25 37.35 29.65 35.45 30.15 34.05 30.8 34.45" fill="#a89e64" fill-rule="evenodd" stroke="none"/>
      <path d="M29.6 39.6 L29.25 38.8 Q28.5 37.15 29.45 35.3 L30.3 33.75 30.8 34.45 Q30.15 34.05 29.65 35.45 29.25 37.35 30.1 37.8 L30.75 37.75 Q31.2 37.65 31.4 36.5 31.35 38.9 29.6 39.6" fill="#696141" fill-rule="evenodd" stroke="none"/>
      <path d="M30.6 33.25 Q30.75 32.85 30.55 32.4 30.0 31.85 29.4 31.8 L28.5 32.05 Q27.4 32.75 26.55 35.55 25.8 39.1 27.95 41.15 L28.35 41.45 Q29.3 41.95 29.7 40.55 L29.6 39.6 29.25 38.8 Q28.5 37.15 29.45 35.3 L30.3 33.75 30.6 33.25 Q31.65 34.45 31.9 36.4 31.95 37.3 31.6 38.15 31.15 39.4 29.7 40.55" fill="none" stroke="#000000" stroke-linecap="round" stroke-linejoin="round" stroke-opacity="0.3019608" stroke-width="0.30000000000000004"/>
      <path d="M42.8 26.0 Q42.5 24.5 41.5 22.95 L41.75 22.5 Q43.0 24.7 43.25 26.4 41.75 27.3 39.4 26.65 L39.6 26.2 42.8 26.0" fill="#bfb072" fill-rule="evenodd" stroke="none"/>
      <path d="M40.5 24.65 L41.5 22.95 Q42.5 24.5 42.8 26.0 41.1 26.1 40.5 24.65" fill="#a89e64" fill-rule="evenodd" stroke="none"/>
      <path d="M40.5 24.65 Q41.1 26.1 42.8 26.0 L39.6 26.2 40.5 24.65" fill="#5f5a3a" fill-rule="evenodd" stroke="none"/>
      <path d="M41.75 22.5 Q43.0 24.7 43.25 26.4 41.75 27.3 39.4 26.65" fill="none" stroke="#000000" stroke-linecap="round" stroke-linejoin="round" stroke-opacity="0.3019608" stroke-width="0.30000000000000004"/>
      <path d="M39.65 31.55 Q39.8 30.05 39.2 28.35 L39.55 28.0 Q40.2 30.35 40.05 32.0 38.3 32.5 36.05 31.25 L36.4 30.95 Q38.65 32.1 39.65 31.55" fill="#bfb072" fill-rule="evenodd" stroke="none"/>
      <path d="M37.75 29.7 L39.2 28.35 Q39.8 30.05 39.65 31.55 37.95 31.2 37.75 29.7" fill="#a89e64" fill-rule="evenodd" stroke="none"/>
      <path d="M37.75 29.7 Q37.95 31.2 39.65 31.55 38.65 32.1 36.4 30.95 L37.75 29.7" fill="#5f5a3a" fill-rule="evenodd" stroke="none"/>
      <path d="M39.55 28.0 Q40.2 30.35 40.05 32.0 38.3 32.5 36.05 31.25" fill="none" stroke="#000000" stroke-linecap="round" stroke-linejoin="round" stroke-opacity="0.3019608" stroke-width="0.30000000000000004"/>
      <path d="M33.4 33.95 Q34.6 33.05 35.3 31.55 L35.95 31.6 Q34.65 33.55 33.35 34.45 31.65 33.5 30.8 31.25 L31.3 31.25 Q32.2 33.55 33.4 33.95" fill="#bfb072" fill-rule="evenodd" stroke="none"/>
      <path d="M33.25 31.45 L35.3 31.55 Q34.6 33.05 33.4 33.95 32.35 32.5 33.25 31.45" fill="#a89e64" fill-rule="evenodd" stroke="none"/>
      <path d="M33.25 31.45 Q32.35 32.5 33.4 33.95 32.2 33.55 31.3 31.25 L33.25 31.45" fill="#5f5a3a" fill-rule="evenodd" stroke="none"/>
      <path d="M35.95 31.6 Q34.65 33.55 33.35 34.45 31.65 33.5 30.8 31.25" fill="none" stroke="#000000" stroke-linecap="round" stroke-linejoin="round" stroke-opacity="0.3019608" stroke-width="0.30000000000000004"/>
      <path d="M21.95 24.7 L21.5 24.5 Q18.3 21.95 17.65 17.95 16.85 13.5 19.6 9.9 22.3 6.3 26.9 5.6 28.9 5.3 30.75 5.65 L32.35 6.05 Q33.85 6.6 35.25 7.55 L37.4 9.45 Q38.05 10.15 38.5 11.0 39.0 11.8 39.3 12.75 L39.75 14.3 39.75 14.35 39.75 14.6 39.85 15.3 39.75 14.6 39.75 14.35 Q41.05 15.55 40.9 17.2 44.15 17.05 44.6 19.4 44.85 21.5 40.95 24.9 41.0 26.15 40.7 27.2 L40.65 27.25 40.3 28.3 38.75 30.25 37.55 31.05 36.15 31.7 35.2 32.0 Q34.35 32.25 31.65 30.95 L30.75 29.7 34.9 31.75 37.15 30.7 Q40.65 28.55 40.45 24.7 43.8 21.5 43.9 19.8 L42.1 21.7 Q43.95 19.65 43.6 18.8 42.6 17.4 40.4 17.9 40.4 16.05 39.85 15.3 40.1 17.1 39.7 18.7 39.3 20.3 38.55 21.55 L37.1 23.4 35.5 24.3 Q37.45 23.35 38.8 19.9 L39.05 16.45 Q39.0 14.75 38.35 13.0 L37.8 11.85 Q37.8 16.55 34.7 19.1 L33.35 20.2 33.2 20.25 Q32.2 20.85 31.1 21.25 L26.2 21.9 25.35 21.4 23.75 20.6 Q22.0 19.9 21.3 20.15 L20.85 20.5 Q19.45 19.6 18.25 18.1 18.75 21.6 21.95 24.7 M29.85 6.25 Q27.55 5.9 25.2 6.75 L24.9 6.85 Q27.3 11.2 26.85 17.0 26.7 9.35 24.1 7.15 20.95 8.65 19.45 11.9 18.45 14.05 18.5 16.2 18.6 18.3 20.8 19.85 21.6 19.25 23.75 20.15 L26.1 21.35 26.1 21.45 26.25 21.45 26.45 21.5 Q28.55 21.5 31.0 20.75 32.9 20.2 33.9 19.35 L35.5 17.7 Q38.05 13.85 36.15 9.45 34.85 8.1 33.0 7.2 31.45 6.45 29.85 6.25" fill="#d0c586" fill-rule="evenodd" stroke="none"/>
      <path d="M26.85 17.0 Q27.3 11.2 24.9 6.85 L25.2 6.75 Q27.55 5.9 29.85 6.25 28.45 14.45 31.0 20.75 28.55 21.5 26.45 21.5 L26.25 21.45 26.1 21.45 26.1 21.35 26.85 17.0" fill="#bfb072" fill-rule="evenodd" stroke="none"/>
      <path d="M39.7 18.7 Q40.1 17.1 39.85 15.3 40.4 16.05 40.4 17.9 42.6 17.4 43.6 18.8 43.95 19.65 42.1 21.7 40.5 22.9 39.85 21.15 L39.7 18.7 M29.85 6.25 Q31.45 6.45 33.0 7.2 34.85 8.1 36.15 9.45 38.05 13.85 35.5 17.7 L33.9 19.35 Q32.9 20.2 31.0 20.75 28.45 14.45 29.85 6.25 M26.1 21.35 L23.75 20.15 Q21.6 19.25 20.8 19.85 18.6 18.3 18.5 16.2 18.45 14.05 19.45 11.9 20.95 8.65 24.1 7.15 26.7 9.35 26.85 17.0 L26.1 21.35 M40.45 24.7 Q40.65 28.55 37.15 30.7 33.3 31.15 34.9 28.1 36.35 26.35 37.25 25.7 L38.7 24.7 Q39.9 23.65 40.45 24.7" fill="#a89e64" fill-rule="evenodd" stroke="none"/>
      <path d="M33.2 20.25 L33.35 20.2 34.7 19.1 Q37.8 16.55 37.8 11.85 L38.35 13.0 Q39.0 14.75 39.05 16.45 L38.8 19.9 Q37.45 23.35 35.5 24.3 33.6 25.15 32.55 24.05 31.0 22.95 33.2 20.25 M42.1 21.7 L43.9 19.8 Q43.8 21.5 40.45 24.7 39.9 23.65 38.7 24.7 39.7 22.9 39.85 21.15 40.5 22.9 42.1 21.7" fill="#696141" fill-rule="evenodd" stroke="none"/>
      <path d="M21.95 24.7 Q18.75 21.6 18.25 18.1 19.45 19.6 20.85 20.5 L21.3 20.15 Q22.0 19.9 23.75 20.6 L25.35 21.4 26.2 21.9 31.1 21.25 Q32.2 20.85 33.2 20.25 31.0 22.95 32.55 24.05 33.6 25.15 35.5 24.3 L37.1 23.4 38.55 21.55 Q39.3 20.3 39.7 18.7 L39.85 21.15 Q39.7 22.9 38.7 24.7 L37.25 25.7 Q36.35 26.35 34.9 28.1 33.3 31.15 37.15 30.7 L34.9 31.75 30.75 29.7 30.55 29.45 21.95 24.7" fill="#5f5a3a" fill-rule="evenodd" stroke="none"/>
      <path d="M39.75 14.35 L39.75 14.3 39.3 12.75 Q39.0 11.8 38.5 11.0 38.05 10.15 37.4 9.45 L35.25 7.55 Q33.85 6.6 32.35 6.05 L30.75 5.65 Q28.9 5.3 26.9 5.6 22.3 6.3 19.6 9.9 16.85 13.5 17.65 17.95 18.3 21.95 21.5 24.5 L21.95 24.7 30.55 29.45 30.75 29.7 31.65 30.95 Q34.35 32.25 35.2 32.0 L36.15 31.7 37.55 31.05 38.75 30.25 40.3 28.3 40.65 27.25 40.7 27.2 Q41.0 26.15 40.95 24.9 44.85 21.5 44.6 19.4 44.15 17.05 40.9 17.2 41.05 15.55 39.75 14.35 L39.75 14.6 39.85 15.3 Q40.1 17.1 39.7 18.7 39.3 20.3 38.55 21.55" fill="none" stroke="#000000" stroke-linecap="round" stroke-linejoin="round" stroke-opacity="0.3019608" stroke-width="0.30000000000000004"/>
      <path d="M36.3 10.55 Q33.85 9.95 31.35 10.5 32.65 9.45 34.1 9.6 35.2 9.75 36.3 10.55 M27.45 8.2 L27.7 7.15 27.75 6.15 Q28.55 6.75 28.2 7.4 L27.45 8.2" fill="#696141" fill-rule="evenodd" stroke="none"/>
      <path d="M36.3 10.55 Q33.85 9.95 31.35 10.5 M27.75 6.15 L27.7 7.15 27.45 8.2" fill="none" stroke="#000000" stroke-linecap="round" stroke-linejoin="round" stroke-opacity="0.3019608" stroke-width="0.30000000000000004"/>
      <path d="M7.4 36.45 Q8.05 39.25 8.95 40.45 13.3 45.95 16.3 40.15 17.7 35.5 20.95 32.15 25.6 27.65 28.35 28.5 29.55 28.9 30.15 29.4 31.3 30.25 30.45 31.35 L30.3 31.55 29.8 31.9 28.6 33.45 Q27.4 34.8 27.15 37.35 26.8 39.95 28.9 41.05 30.55 41.5 31.1 42.2 32.25 43.7 28.2 45.75 20.95 50.3 13.3 45.95 7.6 41.95 7.4 36.45 M26.25 38.7 L26.45 37.65 Q26.5 36.45 26.95 34.95 28.25 32.3 29.85 31.2 30.45 30.2 29.6 29.7 28.55 28.9 27.3 28.95 26.35 29.0 25.35 29.55 22.25 31.2 19.8 34.5 L19.2 35.45 Q17.9 40.2 19.8 41.8 17.6 40.05 18.0 37.4 17.2 40.3 15.9 41.95 L15.05 42.9 Q14.45 43.5 12.85 43.65 11.25 43.6 12.45 44.75 16.65 47.55 21.95 47.45 27.3 46.7 30.35 43.65 30.85 42.9 30.35 42.45 29.95 43.55 27.9 44.6 30.45 42.75 29.4 41.9 27.4 41.0 26.9 39.95 L26.7 39.6 Q25.45 41.95 22.85 42.55 L24.2 41.8 Q25.75 40.55 26.25 38.7" fill="#d0c586" fill-rule="evenodd" stroke="none"/>
      <path d="M26.25 38.7 Q25.75 40.55 24.2 41.8 L22.85 42.55 21.1 42.5 Q24.3 41.4 19.8 34.5 22.25 31.2 25.35 29.55 26.35 29.0 27.3 28.95 21.8 32.8 22.25 36.35 22.65 39.9 26.25 38.7" fill="#bfb072" fill-rule="evenodd" stroke="none"/>
      <path d="M27.3 28.95 Q28.55 28.9 29.6 29.7 30.45 30.2 29.85 31.2 28.25 32.3 26.95 34.95 26.5 36.45 26.45 37.65 L26.25 38.7 Q22.65 39.9 22.25 36.35 21.8 32.8 27.3 28.95 M27.9 44.6 Q29.95 43.55 30.35 42.45 30.85 42.9 30.35 43.65 27.3 46.7 21.95 47.45 16.65 47.55 12.45 44.75 11.25 43.6 12.85 43.65 14.45 43.5 15.05 42.9 L15.9 41.95 Q15.45 44.75 17.45 45.6 21.55 47.15 26.45 45.25 L27.9 44.6 M19.8 41.8 Q17.9 40.2 19.2 35.45 L19.8 34.5 Q24.3 41.4 21.1 42.5 L20.0 41.9 19.8 41.8" fill="#a89e64" fill-rule="evenodd" stroke="none"/>
      <path d="M22.85 42.55 Q25.45 41.95 26.7 39.6 L26.9 39.95 Q27.4 41.0 29.4 41.9 30.45 42.75 27.9 44.6 L26.45 45.25 Q21.55 47.15 17.45 45.6 15.45 44.75 15.9 41.95 17.2 40.3 18.0 37.4 17.6 40.05 19.8 41.8 L20.0 41.9 21.1 42.5 22.85 42.55" fill="#696141" fill-rule="evenodd" stroke="none"/>
      <path d="M26.7 24.6 Q24.7 22.2 22.75 22.1 20.65 21.95 20.8 23.35 L21.05 24.3 20.5 23.15 20.5 22.25 Q20.7 21.2 21.9 21.1 L24.3 21.4 24.65 21.55 Q26.3 22.35 27.8 24.2 L27.45 24.8 29.0 27.3 31.4 27.5 31.9 26.7 35.6 27.45 36.3 27.75 35.8 28.3 36.0 28.4 Q37.2 28.95 36.4 30.35 35.6 31.35 33.85 31.8 L31.55 31.85 Q33.5 31.6 34.75 31.0 L35.8 30.35 Q36.95 29.0 34.25 28.3 L31.65 27.95 28.75 27.6 26.7 24.6 M25.15 26.25 L22.65 26.05 20.35 25.85 16.95 25.95 Q13.0 26.45 10.55 29.0 L9.95 29.9 Q9.0 33.95 11.45 36.7 8.95 35.05 9.15 31.3 7.4 35.1 8.5 37.8 10.7 43.35 13.85 42.1 15.25 41.35 16.2 38.35 L17.8 35.25 Q19.0 33.3 20.5 31.7 L22.0 30.3 23.4 29.2 Q25.2 28.05 27.0 27.75 29.2 27.8 30.15 29.4 29.55 28.9 28.35 28.5 25.6 27.65 20.95 32.15 17.7 35.5 16.3 40.15 13.3 45.95 8.95 40.45 8.05 39.25 7.4 36.45 7.35 34.25 8.2 31.8 10.7 24.6 20.7 25.4 L21.75 25.5 22.0 25.5 22.65 25.6 25.15 26.25" fill="#f9f8ec" fill-rule="evenodd" stroke="none"/>
      <path d="M36.4 30.35 Q37.2 28.95 36.0 28.4 L35.8 28.3 36.3 27.75 Q37.25 28.35 36.85 29.35 L36.4 30.35 M31.9 26.7 L31.4 27.5 29.0 27.3 27.45 24.8 27.8 24.2 29.3 26.5 31.9 26.7 M20.5 31.7 Q19.0 33.3 17.8 35.25 14.9 38.5 11.55 36.75 L11.45 36.7 Q9.0 33.95 9.95 29.9 L10.55 29.0 Q13.0 26.45 16.95 25.95 25.75 25.9 20.5 31.7" fill="#f0f0d2" fill-rule="evenodd" stroke="none"/>
      <path d="M20.8 23.35 Q20.65 21.95 22.75 22.1 24.7 22.2 26.7 24.6 26.95 25.9 24.9 25.7 22.15 25.25 20.8 23.35 M31.65 27.95 L34.25 28.3 Q36.95 29.0 35.8 30.35 L34.75 31.0 Q32.35 30.6 31.35 29.5 30.6 28.6 31.65 27.95 M23.4 29.2 L22.0 30.3 20.5 31.7 Q25.75 25.9 16.95 25.95 L20.35 25.85 Q24.0 26.5 24.4 27.55 24.7 28.1 23.4 29.2 M17.8 35.25 L16.2 38.35 Q15.25 41.35 13.85 42.1 10.7 43.35 8.5 37.8 7.4 35.1 9.15 31.3 8.95 35.05 11.45 36.7 L11.55 36.75 Q14.9 38.5 17.8 35.25" fill="#d5d580" fill-rule="evenodd" stroke="none"/>
      <path d="M28.75 27.6 L31.65 27.95 Q30.6 28.6 31.35 29.5 32.35 30.6 34.75 31.0 33.5 31.6 31.55 31.85 L30.3 31.55 30.45 31.35 Q31.3 30.25 30.15 29.4 29.2 27.8 27.0 27.75 25.2 28.05 23.4 29.2 24.7 28.1 24.4 27.55 24.0 26.5 20.35 25.85 L22.65 26.05 25.15 26.25 Q28.9 26.9 27.85 27.7 L28.75 27.6" fill="#bfbf40" fill-rule="evenodd" stroke="none"/>
      <path d="M26.7 24.6 L28.75 27.6 27.85 27.7 Q28.9 26.9 25.15 26.25 L22.65 25.6 22.0 25.5 21.05 24.3 20.8 23.35 Q22.15 25.25 24.9 25.7 26.95 25.9 26.7 24.6" fill="#a6a637" fill-rule="evenodd" stroke="none"/>
      <path d="M31.55 31.85 L33.85 31.8 Q35.6 31.35 36.4 30.35 L36.85 29.35 Q37.25 28.35 36.3 27.75 L35.6 27.45 31.9 26.7 29.3 26.5 27.8 24.2 Q26.3 22.35 24.65 21.55 L24.3 21.4 21.9 21.1 Q20.7 21.2 20.5 22.25 L20.5 23.15 21.05 24.3 22.0 25.5 21.75 25.5 20.7 25.4 Q10.7 24.6 8.2 31.8 7.35 34.25 7.4 36.45 8.05 39.25 8.95 40.45 13.3 45.95 16.3 40.15 17.7 35.5 20.95 32.15 25.6 27.65 28.35 28.5 29.55 28.9 30.15 29.4 31.3 30.25 30.45 31.35 L30.3 31.55 29.8 31.9 28.6 33.45 Q27.4 34.8 27.15 37.35 26.8 39.95 28.9 41.05 30.55 41.5 31.1 42.2 32.25 43.7 28.2 45.75 20.95 50.3 13.3 45.95 7.6 41.95 7.4 36.45 M22.65 25.6 L22.0 25.5 M30.3 31.55 L31.55 31.85 Z" fill="none" stroke="#000000" stroke-linecap="round" stroke-linejoin="round" stroke-opacity="0.3019608" stroke-width="0.30000000000000004"/>
    </g>
    <g id="sprite0" transform="matrix(1.0, 0.0, 0.0, 1.0, 0.15, 0.15)">
      <use height="158.05" transform="matrix(1.0, 0.0, 0.0, 1.0, -0.75, -0.75)" width="74.3" xlink:href="#shape1"/>
    </g>
    <g id="shape1" transform="matrix(1.0, 0.0, 0.0, 1.0, 0.75, 0.75)">
      <path d="M67.1 47.3 Q60.05 84.7 45.15 118.0 L67.1 47.3" fill="#000000" fill-opacity="0.05490196" fill-rule="evenodd" stroke="none"/>
      <path d="M72.8 0.4 Q71.4 24.6 67.1 47.3 60.05 84.7 45.15 118.0 L45.0 118.3 Q39.4 130.85 24.25 156.55 M43.75 69.05 Q26.65 113.65 20.4 117.6 17.55 109.85 28.1 81.45 38.25 56.05 47.2 54.0 48.65 56.75 43.75 69.05 M48.0 24.8 Q34.25 59.6 13.6 90.6 7.15 100.3 0.0 109.6 M66.8 0.0 Q53.65 80.05 13.6 143.35 L12.4 145.2 M67.1 47.3 L45.15 118.0" fill="none" stroke="#000000" stroke-linecap="round" stroke-linejoin="round" stroke-opacity="0.08627451" stroke-width="0.30000000000000004"/>
    </g>
  </defs>
</svg>
