<?xml version="1.0" encoding="UTF-8" standalone="no"?>
<svg xmlns:xlink="http://www.w3.org/1999/xlink" height="52.0px" width="52.0px" xmlns="http://www.w3.org/2000/svg">
  <g transform="matrix(1.0, 0.0, 0.0, 1.0, 0.0, 0.0)">
    <use height="54.0" transform="matrix(1.0, 0.0, 0.0, 1.0, -1.0, -1.0)" width="54.0" xlink:href="#shape0"/>
    <use height="0.0" transform="matrix(0.0968, 0.0172, -0.047, 0.0704, 27.65, 26.6)" width="0.0" xlink:href="#sprite0"/>
    <use height="0.0" transform="matrix(0.0816, 0.0145, -0.0471, 0.1024, 20.0, 36.45)" width="0.0" xlink:href="#sprite0"/>
    <use height="0.0" transform="matrix(0.0538, 0.0453, -0.0211, 0.0332, 34.05, 13.15)" width="0.0" xlink:href="#sprite0"/>
    <use height="81.5" transform="matrix(0.0883, 0.0157, -0.0199, 0.1123, 31.8, 19.5)" width="81.5" xlink:href="#sprite1"/>
    <use height="81.5" transform="matrix(0.0757, 0.0134, -0.017, 0.0962, 22.1, 35.3)" width="81.5" xlink:href="#sprite1"/>
    <use height="81.5" transform="matrix(0.0439, 0.0078, -0.0099, 0.0559, 37.65, 13.55)" width="81.5" xlink:href="#sprite1"/>
  </g>
  <defs>
    <g id="shape0" transform="matrix(1.0, 0.0, 0.0, 1.0, 1.0, 1.0)">
      <path d="M52.0 0.0 L52.0 52.0 0.0 52.0 0.0 0.0 52.0 0.0" fill="#795fa9" fill-opacity="0.0" fill-rule="evenodd" stroke="none"/>
      <path d="M41.05 17.2 L39.25 13.3 28.2 4.15 28.15 4.65 28.55 6.15 28.6 9.3 27.95 13.0 30.25 14.8 33.05 18.25 37.4 17.8 39.5 17.8 36.6 20.3 33.8 20.75 32.5 19.7 27.2 19.4 26.7 18.65 24.2 18.2 21.45 19.2 20.4 21.5 20.7 22.05 18.05 22.0 16.1 21.5 15.8 22.55 15.9 22.95 15.9 23.0 17.35 27.3 18.2 28.45 20.05 29.7 20.1 30.15 16.05 32.55 11.7 36.4 11.2 37.85 9.65 39.65 8.35 42.7 9.0 43.4 12.25 41.55 13.95 43.1 16.95 44.4 16.35 47.95 17.4 48.15 20.6 46.9 24.95 43.45 27.05 39.8 27.6 38.05 27.75 35.25 30.9 34.6 37.3 35.75 43.65 33.4 37.65 28.25 37.6 27.4 36.8 25.25 38.3 23.3 39.2 21.35 40.55 18.4 40.8 17.8 40.8 17.75 41.05 17.2 Z" fill="none" stroke="#000000" stroke-linecap="round" stroke-linejoin="round" stroke-opacity="0.3019608" stroke-width="1.0"/>
      <path d="M28.6 6.55 L29.3 8.8 29.9 9.15 31.45 10.0 32.65 10.55 31.15 10.1 29.15 9.45 28.6 9.25 28.6 6.55 M30.4 7.2 L29.2 6.0 28.15 4.6 28.25 4.1 35.4 11.65 37.05 13.3 40.1 16.55 39.3 13.25 41.1 17.2 40.75 17.85 40.55 17.9 40.15 17.85 39.9 17.8 40.0 17.15 38.1 15.15 35.85 12.8 35.35 12.35 34.1 11.0 31.85 8.7 30.4 7.2 M37.45 17.8 L33.1 18.25 30.3 14.75 28.0 12.95 28.6 9.25 29.15 9.45 28.65 12.2 30.1 12.25 32.25 12.3 34.95 12.35 33.65 12.45 28.85 12.85 30.5 14.2 32.4 14.45 34.75 14.8 37.2 15.1 36.25 15.05 33.7 14.95 30.85 14.8 30.3 14.75 30.85 14.8 32.45 16.65 33.3 17.7 35.4 17.75 37.45 17.8 M28.85 12.85 L28.0 12.95 28.85 12.85" fill="#ffff98" fill-rule="evenodd" stroke="none"/>
      <path d="M29.9 9.15 Q30.35 8.05 30.4 7.2 L31.85 8.7 31.45 10.0 29.9 9.15 M36.25 15.05 L35.4 17.75 33.3 17.7 32.45 16.65 Q33.65 15.8 33.7 14.95 L36.25 15.05 M32.65 10.55 L33.35 10.8 32.25 12.3 30.1 12.25 31.15 10.1 32.65 10.55" fill="#ffde4f" fill-rule="evenodd" stroke="none"/>
      <path d="M28.6 6.55 L28.55 6.15 28.15 4.6 29.2 6.0 30.4 7.2 Q30.35 8.05 29.9 9.15 L29.3 8.8 28.6 6.55 M35.15 9.85 L36.7 11.1 Q36.4 11.7 37.05 13.3 L35.4 11.65 35.15 9.85 M39.9 17.8 L37.45 17.8 35.4 17.75 36.25 15.05 37.2 15.1 38.1 15.15 40.0 17.15 39.9 17.8 M31.85 8.7 L34.1 11.0 35.35 12.35 34.95 12.35 32.25 12.3 33.35 10.8 32.65 10.55 31.45 10.0 31.85 8.7 M31.15 10.1 L30.1 12.25 28.65 12.2 29.15 9.45 31.15 10.1 M34.1 11.0 L33.35 10.8 34.1 11.0 M33.7 14.95 Q33.65 15.8 32.45 16.65 L30.85 14.8 33.7 14.95" fill="#f4a33c" fill-rule="evenodd" stroke="none"/>
      <path d="M28.25 4.1 L35.15 9.85 35.4 11.65 28.25 4.1 M36.7 11.1 L39.3 13.25 40.1 16.55 37.05 13.3 Q36.4 11.7 36.7 11.1 M35.35 12.35 L35.85 12.8 34.75 14.8 32.4 14.45 Q33.55 13.65 33.65 12.45 L34.95 12.35 35.35 12.35" fill="#cc6b22" fill-rule="evenodd" stroke="none"/>
      <path d="M35.85 12.8 L38.1 15.15 37.2 15.1 34.75 14.8 35.85 12.8 M33.65 12.45 Q33.55 13.65 32.4 14.45 L30.5 14.2 28.85 12.85 33.65 12.45" fill="#a34100" fill-rule="evenodd" stroke="none"/>
      <path d="M28.15 4.6 L28.55 6.15 28.6 6.55 28.6 9.25 28.0 12.95 28.85 12.85 33.65 12.45 34.95 12.35 35.35 12.35 35.85 12.8 38.1 15.15 40.0 17.15 39.9 17.8 37.45 17.8 33.1 18.25 30.3 14.75 28.0 12.95 M30.4 7.2 L29.2 6.0 28.15 4.6 28.25 4.1 35.15 9.85 36.7 11.1 39.3 13.25 41.1 17.2 40.75 17.85 40.55 17.9 40.15 17.85 M29.15 9.45 L28.6 9.25 M30.4 7.2 L31.85 8.7 34.1 11.0 35.35 12.35 M38.1 15.15 L37.2 15.1 36.25 15.05 33.7 14.95 30.85 14.8 30.3 14.75 M33.35 10.8 L32.65 10.55 31.15 10.1 29.15 9.45 M33.35 10.8 L34.1 11.0" fill="none" stroke="#000000" stroke-linecap="round" stroke-linejoin="round" stroke-opacity="0.3019608" stroke-width="0.30000000000000004"/>
      <path d="M15.3 38.65 L15.35 38.65 15.3 38.65" fill="#f4a33c" fill-rule="evenodd" stroke="none"/>
      <path d="M31.15 34.1 L31.2 34.1 31.15 34.15 31.15 34.1" fill="#cc6b22" fill-rule="evenodd" stroke="none"/>
      <path d="M38.25 29.55 L38.35 29.35 38.3 29.55 38.25 29.55" fill="#ffff98" fill-rule="evenodd" stroke="none"/>
      <path d="M18.4 26.4 L17.25 25.45 17.7 27.05 19.05 27.3 18.2 27.3 17.35 27.25 15.95 23.0 15.95 22.95 15.8 22.5 16.0 22.65 15.8 22.5 16.15 21.45 18.05 22.0 18.2 22.4 18.05 22.0 21.25 22.05 21.4 21.7 27.1 19.4 32.55 19.75 33.8 20.75 34.25 21.15 33.8 20.75 36.65 20.3 40.3 17.15 40.55 17.2 37.15 20.5 37.25 22.05 36.65 20.3 37.25 22.05 36.6 24.3 36.4 23.5 36.9 22.25 36.4 20.75 34.25 21.15 36.15 22.7 34.2 23.7 35.25 22.45 32.35 20.05 31.85 20.0 31.85 20.4 Q31.8 21.4 32.35 22.65 L32.6 23.2 32.65 23.35 32.85 23.65 33.1 24.15 30.85 24.5 33.1 24.15 33.5 24.05 33.65 27.35 32.95 24.8 31.05 25.05 25.75 30.0 26.75 30.75 25.6 33.15 26.4 30.95 25.3 30.15 23.2 29.55 23.15 30.25 23.1 30.85 23.1 31.0 Q23.0 32.75 23.25 34.4 L23.55 35.95 23.0 36.2 20.65 36.2 20.65 35.05 20.35 33.65 20.25 33.25 20.0 32.5 19.4 31.2 19.35 31.15 19.3 31.05 16.65 32.65 16.5 35.45 17.35 36.05 16.05 35.95 17.35 36.05 19.75 36.2 17.4 36.35 16.7 36.4 15.7 38.05 15.8 38.25 16.1 39.25 16.45 41.15 Q16.1 39.35 15.45 38.75 L15.4 38.7 15.35 38.65 15.3 38.65 14.95 39.25 14.6 42.4 16.35 44.1 13.95 43.05 14.1 41.95 14.05 39.5 11.85 37.25 11.7 38.1 12.05 40.85 13.15 42.3 12.3 41.5 12.0 41.3 11.75 41.1 11.45 39.9 11.3 38.3 11.2 37.85 11.7 36.35 16.1 32.55 20.15 30.15 20.05 29.65 20.0 29.15 19.75 27.3 19.55 25.9 19.85 25.3 21.1 22.35 18.75 22.45 19.45 24.9 19.85 25.3 18.7 24.65 16.75 23.65 16.95 24.45 18.4 26.4 M19.05 24.5 L19.45 24.9 19.05 24.5 18.2 22.4 16.45 21.9 16.0 22.65 19.05 24.5 M25.2 29.7 L25.5 29.75 27.6 27.7 30.85 24.5 29.95 24.1 29.5 23.95 29.95 24.1 26.7 23.45 27.2 26.45 26.05 22.5 24.85 22.3 24.55 22.25 21.65 22.45 20.9 24.1 21.7 25.9 22.2 27.9 21.45 26.0 20.65 24.75 20.2 25.75 20.9 29.7 22.05 29.0 22.4 29.1 25.2 29.7 M29.5 23.95 L29.7 22.65 29.6 21.6 Q29.3 20.35 28.6 19.75 L27.2 19.65 23.25 21.65 26.85 22.3 29.05 23.75 29.5 23.95 M24.55 22.25 L21.4 21.7 24.55 22.25 M21.25 22.05 L21.1 22.35 21.25 22.05 M20.9 29.7 L20.15 30.15 20.9 29.7 M25.5 29.75 L25.75 30.0 25.5 29.75 M8.65 42.95 L8.35 42.7 9.7 39.65 11.2 37.85 11.3 38.3 10.25 39.7 10.05 41.35 9.85 40.25 8.65 42.95 M19.95 39.45 L21.35 39.25 20.15 39.95 17.95 42.5 18.95 43.9 18.75 44.1 17.7 43.2 17.3 42.8 17.7 43.2 16.75 47.45 17.3 47.9 17.25 48.1 16.4 47.9 17.0 44.4 17.3 42.8 19.05 40.55 19.95 39.45 M14.8 36.25 Q14.6 35.6 14.9 34.1 L13.5 35.35 12.5 36.25 13.3 38.15 13.7 38.7 14.35 39.4 14.1 41.95 14.35 39.4 15.2 37.7 16.05 35.95 16.05 35.75 15.65 33.4 15.3 33.75 Q14.7 35.5 14.8 36.25 M16.1 32.55 L16.05 35.75 16.1 32.55 M11.7 36.35 L13.3 38.15 11.7 36.35 M9.7 39.65 L9.85 40.25 9.7 39.65 M26.05 22.5 L29.05 23.75 26.05 22.5 M32.5 31.2 L34.6 29.95 34.8 30.05 33.5 31.3 34.75 32.75 35.0 32.7 35.9 31.6 35.2 32.9 35.05 33.1 37.2 35.6 36.7 35.1 32.5 31.2 M34.75 29.25 L37.7 28.25 35.85 29.35 37.65 30.3 Q37.95 30.35 38.25 29.55 L38.3 29.55 38.2 30.6 40.1 31.65 42.4 32.9 39.5 31.7 39.0 31.45 38.5 31.2 34.75 29.25" fill="#ffffff" fill-rule="evenodd" stroke="none"/>
      <path d="M19.05 27.3 L18.4 26.4 16.95 24.45 16.75 23.65 18.7 24.65 19.55 25.9 19.75 27.3 19.05 27.3 M19.85 25.3 L19.45 24.9 18.75 22.45 21.1 22.35 19.85 25.3 M19.05 24.5 L16.0 22.65 16.45 21.9 18.2 22.4 19.05 24.5 M25.2 29.7 L25.15 29.35 25.0 28.85 24.9 28.15 24.9 28.1 24.8 27.6 24.8 27.55 Q24.6 25.85 24.7 24.25 24.7 23.25 24.85 22.3 L26.05 22.5 27.2 26.45 27.6 27.7 25.5 29.75 25.2 29.7 M22.2 27.9 L22.4 28.95 22.4 29.1 22.05 29.0 20.9 29.7 20.2 25.75 20.65 24.75 21.45 26.0 22.2 27.9 M29.05 23.75 L26.85 22.3 23.25 21.65 27.2 19.65 28.6 19.75 Q29.3 20.35 29.6 21.6 L29.7 22.65 29.5 23.95 29.05 23.75 M33.1 24.15 L32.85 23.65 32.65 23.35 32.6 23.2 32.35 22.65 Q31.8 21.4 31.85 20.4 L31.85 20.0 32.35 20.05 35.25 22.45 34.2 23.7 33.5 24.05 33.1 24.15 M36.15 22.7 L34.25 21.15 36.4 20.75 36.9 22.25 36.4 23.5 36.15 22.7 M17.35 36.05 L16.5 35.45 16.65 32.65 19.3 31.05 19.35 31.15 19.4 31.2 20.0 32.5 20.25 33.25 20.35 33.65 20.65 35.05 20.65 36.2 19.9 36.2 19.75 36.2 17.35 36.05 M23.0 36.2 L23.55 35.95 23.25 34.4 Q23.0 32.75 23.1 31.0 L23.1 30.85 23.15 30.25 23.2 29.55 25.3 30.15 26.4 30.95 25.6 33.15 26.75 30.75 25.4 35.5 27.65 37.8 27.6 38.05 25.4 36.3 24.35 36.15 23.5 36.45 22.4 38.85 22.95 39.45 24.9 39.85 22.75 39.9 21.55 41.15 18.95 43.9 17.95 42.5 20.15 39.95 21.35 39.25 21.75 39.2 23.0 36.2 M27.25 31.4 L30.15 31.5 33.65 27.9 37.65 27.35 37.65 27.55 34.05 28.5 30.15 31.5 31.95 32.45 31.85 32.6 29.9 31.85 27.6 31.9 27.25 31.4 M25.4 36.3 L24.45 35.55 23.55 35.95 24.45 35.55 25.6 33.15 24.45 35.55 25.4 36.3 M17.45 47.55 L17.3 47.9 16.75 47.45 17.7 43.2 18.75 44.1 17.45 47.55 M21.75 39.2 L22.75 39.9 21.75 39.2 M14.8 36.25 Q14.7 35.5 15.3 33.75 L15.65 33.4 16.05 35.75 16.05 35.95 15.2 37.7 14.85 36.3 14.8 36.25 M17.4 36.35 L17.45 36.6 17.5 36.75 Q17.95 39.05 19.05 40.55 L17.3 42.8 17.0 44.4 16.65 44.25 16.45 41.15 16.1 39.25 15.8 38.25 15.7 38.05 16.7 36.4 17.4 36.35 M13.7 38.7 L13.3 38.15 12.5 36.25 13.5 35.35 13.7 38.7 M11.3 38.3 L11.45 39.9 10.05 41.35 9.4 42.65 9.05 43.35 8.7 43.0 8.65 42.95 9.85 40.25 10.05 41.35 10.25 39.7 11.3 38.3 M37.25 22.05 L37.15 20.5 40.55 17.2 40.85 17.8 39.2 21.35 37.25 22.05 M37.7 28.25 L38.3 28.75 38.4 28.9 38.35 29.35 38.25 29.55 Q37.95 30.35 37.65 30.3 L35.85 29.35 37.7 28.25 M39.7 30.0 L43.65 33.4 38.45 35.35 Q38.25 34.05 38.5 32.95 L39.0 31.45 39.5 31.7 42.4 32.9 40.1 31.65 39.7 30.0 M35.9 31.6 L35.0 32.7 34.75 32.75 33.5 31.3 34.8 30.05 36.0 30.4 35.9 31.55 35.9 31.6 M43.65 33.4 L42.4 32.9 43.65 33.4" fill="#e6e4b3" fill-rule="evenodd" stroke="none"/>
      <path d="M19.05 27.3 L17.7 27.05 17.25 25.45 18.4 26.4 19.05 27.3 M18.7 24.65 L19.85 25.3 19.55 25.9 18.7 24.65 M24.85 22.3 Q24.7 23.25 24.7 24.25 24.6 25.85 24.8 27.55 L24.8 27.6 24.9 28.1 24.9 28.15 25.0 28.85 25.15 29.35 25.2 29.7 22.4 29.1 22.4 28.95 22.2 27.9 21.7 25.9 20.9 24.1 21.65 22.45 24.55 22.25 24.85 22.3 M27.6 27.7 L27.2 26.45 26.7 23.45 29.95 24.1 30.85 24.5 27.6 27.7 M34.2 23.7 L36.15 22.7 36.4 23.5 36.6 24.3 37.25 22.05 39.2 21.35 37.45 22.6 37.45 22.65 36.8 24.95 36.6 24.3 36.8 24.95 36.85 25.25 37.65 27.35 33.65 27.9 30.15 31.5 27.25 31.4 26.75 30.75 25.75 30.0 31.05 25.05 32.95 24.8 33.65 27.35 33.65 27.9 33.65 27.35 33.5 24.05 34.2 23.7 M25.75 39.8 L27.1 39.75 24.95 43.4 24.55 43.8 Q24.5 42.45 25.35 40.6 L25.75 39.8 M19.75 36.2 L19.9 36.2 19.95 39.45 19.05 40.55 Q17.95 39.05 17.5 36.75 L17.45 36.6 17.4 36.35 19.75 36.2 M21.85 42.65 L21.9 43.15 21.85 43.6 21.5 46.2 20.65 46.9 17.4 48.1 17.25 48.1 17.3 47.9 17.45 47.55 19.65 46.85 20.85 46.0 21.85 42.65 M16.45 41.15 L16.65 44.25 16.35 44.1 14.6 42.4 14.95 39.25 15.3 38.65 15.35 38.65 15.4 38.7 15.45 38.75 Q16.1 39.35 16.45 41.15 M13.15 42.3 L12.05 40.85 11.7 38.1 11.85 37.25 14.05 39.5 14.1 41.95 13.95 43.05 13.15 42.3 M38.4 28.9 L39.7 30.0 40.1 31.65 38.2 30.6 38.3 29.55 38.35 29.35 38.4 28.9 M38.45 35.35 L37.35 35.75 30.95 34.6 31.15 34.15 31.2 34.1 36.7 35.1 37.2 35.6 35.05 33.1 35.2 32.9 35.9 31.6 35.9 31.55 36.0 30.4 38.5 31.2 39.0 31.45 38.5 32.95 Q38.25 34.05 38.45 35.35 M37.2 35.6 L37.35 35.75 37.2 35.6" fill="#d5d580" fill-rule="evenodd" stroke="none"/>
      <path d="M17.35 27.25 L18.2 27.3 18.7 28.4 20.0 29.15 20.05 29.65 18.2 28.45 17.35 27.25 M20.65 36.2 L23.0 36.2 21.75 39.2 21.35 39.25 19.95 39.45 19.9 36.2 20.65 36.2 M26.75 30.75 L27.25 31.4 27.6 31.9 28.0 32.45 27.85 34.8 31.15 34.1 31.15 34.15 30.95 34.6 27.8 35.25 27.65 37.8 25.4 35.5 26.75 30.75 M25.4 36.3 L27.6 38.05 27.1 39.75 25.75 39.8 24.9 39.85 22.95 39.45 22.4 38.85 23.5 36.45 24.35 36.15 25.4 36.3 M18.75 44.1 L18.95 43.9 21.55 41.15 21.85 42.65 20.85 46.0 19.65 46.85 17.45 47.55 18.75 44.1 M13.5 35.35 L14.9 34.1 Q14.6 35.6 14.8 36.25 L14.85 36.3 15.2 37.7 14.35 39.4 13.7 38.7 13.5 35.35 M12.0 41.3 L12.3 41.5 9.05 43.35 9.4 42.65 12.0 41.3 M36.8 24.95 L37.45 22.65 37.45 22.6 39.2 21.35 38.35 23.25 36.85 25.25 36.8 24.95 M37.65 27.55 L37.7 28.25 34.75 29.25 34.6 29.95 32.5 31.2 31.95 32.45 32.5 31.2 36.7 35.1 31.2 34.1 31.85 32.6 31.95 32.45 30.15 31.5 34.05 28.5 37.65 27.55 M27.85 34.8 L27.8 35.25 27.85 34.8" fill="#cac960" fill-rule="evenodd" stroke="none"/>
      <path d="M18.2 27.3 L19.05 27.3 19.75 27.3 20.0 29.15 18.7 28.4 18.2 27.3 M24.9 39.85 L25.75 39.8 25.35 40.6 Q24.5 42.45 24.55 43.8 L21.5 46.2 21.85 43.6 21.9 43.15 21.85 42.65 21.55 41.15 22.75 39.9 24.9 39.85 M11.45 39.9 L11.75 41.1 12.0 41.3 9.4 42.65 10.05 41.35 11.45 39.9 M27.85 34.8 L28.0 32.45 27.6 31.9 29.9 31.85 31.85 32.6 31.2 34.1 31.15 34.1 27.85 34.8 M34.6 29.95 L34.75 29.25 38.5 31.2 36.0 30.4 34.8 30.05 34.6 29.95" fill="#a6a637" fill-rule="evenodd" stroke="none"/>
      <path d="M19.85 25.3 L19.45 24.9 19.05 24.5 16.0 22.65 15.8 22.5 15.95 22.95 15.95 23.0 17.35 27.25 18.2 27.3 19.05 27.3 19.75 27.3 19.55 25.9 19.85 25.3 21.1 22.35 21.25 22.05 21.4 21.7 24.55 22.25 24.85 22.3 26.05 22.5 27.2 26.45 27.6 27.7 25.5 29.75 25.2 29.7 22.4 29.1 22.05 29.0 20.9 29.7 20.15 30.15 20.05 29.65 18.2 28.45 17.35 27.25 M18.2 22.4 L18.05 22.0 16.15 21.45 15.8 22.5 M29.5 23.95 L29.95 24.1 30.85 24.5 33.1 24.15 33.5 24.05 33.65 27.35 33.65 27.9 37.65 27.35 37.65 27.55 37.7 28.25 38.3 28.75 M34.2 23.7 L36.15 22.7 34.25 21.15 33.8 20.75 32.55 19.75 27.1 19.4 21.4 21.7 M18.05 22.0 L21.25 22.05 M19.05 24.5 L18.2 22.4 M20.0 29.15 L19.75 27.3 M20.0 29.15 L20.05 29.65 M20.65 36.2 L23.0 36.2 23.55 35.95 24.45 35.55 25.6 33.15 26.75 30.75 25.75 30.0 25.5 29.75 M26.75 30.75 L27.25 31.4 30.15 31.5 33.65 27.9 M8.65 42.95 L8.35 42.7 9.7 39.65 11.2 37.85 11.7 36.35 16.1 32.55 20.15 30.15 M24.45 35.55 L25.4 36.3 27.6 38.05 27.65 37.8 27.8 35.25 27.85 34.8 28.0 32.45 27.6 31.9 27.25 31.4 M24.9 39.85 L25.75 39.8 27.1 39.75 27.6 38.05 M19.9 36.2 L20.65 36.2 M19.75 36.2 L19.9 36.2 19.95 39.45 21.35 39.25 21.75 39.2 23.0 36.2 M19.05 40.55 L19.95 39.45 M18.75 44.1 L18.95 43.9 21.55 41.15 22.75 39.9 21.75 39.2 M21.5 46.2 L24.55 43.8 24.95 43.4 27.1 39.75 M17.45 47.55 L17.3 47.9 17.25 48.1 17.4 48.1 20.65 46.9 21.5 46.2 M22.75 39.9 L24.9 39.85 M16.05 35.75 L16.1 32.55 M15.2 37.7 L16.05 35.95 16.05 35.75 M16.05 35.95 L17.35 36.05 19.75 36.2 M19.05 40.55 L17.3 42.8 17.7 43.2 18.75 44.1 17.45 47.55 M16.65 44.25 L17.0 44.4 17.3 42.8 M13.15 42.3 L13.95 43.05 14.1 41.95 14.35 39.4 13.7 38.7 13.3 38.15 11.7 36.35 M11.2 37.85 L11.3 38.3 11.45 39.9 11.75 41.1 12.0 41.3 12.3 41.5 13.15 42.3 M10.05 41.35 L9.85 40.25 9.7 39.65 M8.7 43.0 L9.05 43.35 9.4 42.65 10.05 41.35 11.45 39.9 M12.3 41.5 L9.05 43.35 M16.35 44.1 L16.65 44.25 M16.35 44.1 L13.95 43.05 M14.35 39.4 L15.2 37.7 M17.25 48.1 L16.4 47.9 17.0 44.4 M37.25 22.05 L39.2 21.35 40.85 17.8 40.55 17.2 40.3 17.15 36.65 20.3 37.25 22.05 36.6 24.3 36.8 24.95 36.85 25.25 37.65 27.35 M39.2 21.35 L38.35 23.25 36.85 25.25 M38.4 28.9 L39.7 30.0 43.65 33.4 38.45 35.35 37.35 35.75 30.95 34.6 27.8 35.25 M33.8 20.75 L36.65 20.3 M36.15 22.7 L36.4 23.5 36.6 24.3 M34.2 23.7 L33.5 24.05 M29.5 23.95 L29.05 23.75 26.05 22.5 M31.2 34.1 L31.85 32.6 31.95 32.45 32.5 31.2 34.6 29.95 34.75 29.25 37.7 28.25 M30.15 31.5 L31.95 32.45 M36.0 30.4 L34.8 30.05 34.6 29.95 M30.85 24.5 L27.6 27.7 M39.0 31.45 L38.5 31.2 36.0 30.4 M42.4 32.9 L39.5 31.7 39.0 31.45 M42.4 32.9 L43.65 33.4 M34.75 29.25 L38.5 31.2 M37.35 35.75 L37.2 35.6 36.7 35.1 32.5 31.2 M31.2 34.1 L31.15 34.15 30.95 34.6" fill="none" stroke="#000000" stroke-linecap="round" stroke-linejoin="round" stroke-opacity="0.3019608" stroke-width="0.30000000000000004"/>
      <path d="M21.4 19.3 L21.45 19.15 23.15 19.95 24.2 20.35 24.65 20.1 25.1 19.8 25.8 18.8 24.8 18.4 24.2 18.15 26.7 18.6 27.4 19.65 26.5 18.9 25.4 20.15 25.9 21.35 24.85 20.45 24.25 20.75 23.9 20.55 24.25 20.75 23.3 21.7 21.95 21.95 20.45 21.5 21.2 19.75 21.05 21.25 21.9 21.6 23.05 21.25 23.9 20.55 21.4 19.3 M30.95 22.4 L31.05 22.2 33.45 21.05 35.4 21.85 36.2 24.0 35.15 22.3 34.05 24.9 32.2 25.25 33.0 24.9 33.75 24.5 34.75 22.15 33.55 21.55 32.85 21.75 31.9 22.05 30.95 22.4 M30.4 26.0 L30.1 24.15 31.25 25.2 31.45 25.4 30.8 25.8 30.4 26.0" fill="#ffff98" fill-rule="evenodd" stroke="none"/>
      <path d="M21.45 19.15 L23.45 18.45 Q23.85 19.0 23.15 19.95 L21.45 19.15 M24.65 20.1 Q24.1 19.3 24.8 18.4 L25.8 18.8 25.1 19.8 24.65 20.1 M30.95 22.4 L31.9 22.05 Q32.1 23.2 31.25 25.2 L30.1 24.15 30.95 22.4 M32.85 21.75 L33.55 21.55 34.75 22.15 33.75 24.5 33.0 24.9 Q32.4 23.85 32.85 21.75" fill="#ffde4f" fill-rule="evenodd" stroke="none"/>
      <path d="M21.2 19.75 L21.4 19.3 23.9 20.55 23.05 21.25 21.9 21.6 21.05 21.25 21.2 19.75 M23.45 18.45 L24.2 18.15 24.8 18.4 Q24.1 19.3 24.65 20.1 L24.2 20.35 23.15 19.95 Q23.85 19.0 23.45 18.45 M31.9 22.05 L32.85 21.75 Q32.4 23.85 33.0 24.9 L32.2 25.25 31.45 25.4 31.25 25.2 Q32.1 23.2 31.9 22.05" fill="#f4a33c" fill-rule="evenodd" stroke="none"/>
      <path d="M23.15 22.55 L20.95 22.45 20.45 21.5 21.95 21.95 23.3 21.7 23.15 22.55 M35.25 26.55 L32.75 27.25 30.4 26.0 30.8 25.8 32.85 26.85 34.55 26.35 34.05 24.9 35.25 26.55" fill="#cc6b22" fill-rule="evenodd" stroke="none"/>
      <path d="M27.4 19.65 L25.9 21.35 25.4 20.15 26.5 18.9 27.4 19.65 M32.2 25.25 L34.05 24.9 34.55 26.35 32.85 26.85 30.8 25.8 31.45 25.4 32.2 25.25" fill="#a34100" fill-rule="evenodd" stroke="none"/>
      <path d="M25.9 21.35 L23.15 22.55 23.3 21.7 24.25 20.75 24.85 20.45 25.9 21.35 M34.05 24.9 L35.15 22.3 36.2 24.0 35.25 26.55 34.05 24.9" fill="#8f3600" fill-rule="evenodd" stroke="none"/>
      <path d="M21.2 19.75 L21.4 19.3 21.45 19.15 23.45 18.45 24.2 18.15 26.7 18.6 27.4 19.65 25.9 21.35 23.15 22.55 20.95 22.45 20.45 21.5 21.2 19.75 M23.9 20.55 L21.4 19.3 M23.9 20.55 L24.25 20.75 24.85 20.45 M25.9 21.35 L25.4 20.15 26.5 18.9 M23.3 21.7 L21.95 21.95 20.45 21.5 M23.3 21.7 L23.15 22.55 M24.25 20.75 L23.3 21.7 M36.2 24.0 L35.4 21.85 33.45 21.05 31.05 22.2 30.95 22.4 30.1 24.15 31.25 25.2 31.45 25.4 32.2 25.25 34.05 24.9 35.25 26.55 32.75 27.25 30.4 26.0 30.1 24.15 M36.2 24.0 L35.25 26.55 M31.45 25.4 L30.8 25.8 30.4 26.0" fill="none" stroke="#000000" stroke-linecap="round" stroke-linejoin="round" stroke-opacity="0.3019608" stroke-width="0.30000000000000004"/>
    </g>
    <g id="sprite1" transform="matrix(1.0, 0.0, 0.0, 1.0, 0.0, 0.0)">
      <use height="26.7" transform="matrix(0.0042, -1.3515, 1.3935, 0.02, 22.09, 56.0263)" width="26.7" xlink:href="#sprite2"/>
      <use height="26.7" transform="matrix(0.0095, -3.0486, 0.372, 0.0053, 36.507, 81.3775)" width="26.7" xlink:href="#sprite2"/>
      <use height="26.7" transform="matrix(3.0486, 0.0095, -0.0053, 0.372, 0.1225, 35.107)" width="26.7" xlink:href="#sprite2"/>
    </g>
    <g id="sprite2" transform="matrix(1.0, 0.0, 0.0, 1.0, 13.35, 13.35)">
      <use height="26.7" transform="matrix(1.0, 0.0, 0.0, 1.0, -13.35, -13.35)" width="26.7" xlink:href="#shape1"/>
    </g>
    <g id="shape1" transform="matrix(1.0, 0.0, 0.0, 1.0, 13.35, 13.35)">
      <path d="M9.3 -9.85 Q13.35 -5.8 13.35 0.0 13.35 5.8 9.3 9.3 5.8 13.35 0.0 13.35 -5.8 13.35 -9.85 9.3 -13.35 5.8 -13.35 0.0 -13.35 -5.8 -9.85 -9.85 -5.8 -13.35 0.0 -13.35 5.8 -13.35 9.3 -9.85" fill="url(#gradient0)" fill-rule="evenodd" stroke="none"/>
    </g>
    <radialGradient cx="0" cy="0" gradientTransform="matrix(0.0213, 0.0, 0.0, 0.0213, 0.0, 0.0)" gradientUnits="userSpaceOnUse" id="gradient0" r="819.2" spreadMethod="pad">
      <stop offset="0.19607843137254902" stop-color="#fee3bc" stop-opacity="0.78039217"/>
      <stop offset="0.5019607843137255" stop-color="#fee3bc" stop-opacity="0.1254902"/>
      <stop offset="0.7607843137254902" stop-color="#ffe3bd" stop-opacity="0.0"/>
    </radialGradient>
  </defs>
</svg>
