<?xml version="1.0" encoding="UTF-8" standalone="no"?>
<svg xmlns:xlink="http://www.w3.org/1999/xlink" height="52.0px" width="52.0px" xmlns="http://www.w3.org/2000/svg">
  <g transform="matrix(1.0, 0.0, 0.0, 1.0, 0.0, 0.0)">
    <use height="54.0" transform="matrix(1.0, 0.0, 0.0, 1.0, -1.0, -1.0)" width="54.0" xlink:href="#shape0"/>
    <use height="0.0" transform="matrix(0.0672, 0.013, -0.0433, 0.1213, 37.65, 29.8)" width="0.0" xlink:href="#sprite0"/>
    <use height="0.0" transform="matrix(0.0398, 0.0632, -0.1063, 0.0504, 19.7, 15.95)" width="0.0" xlink:href="#sprite0"/>
    <use height="0.0" transform="matrix(-0.0241, 0.0605, -0.1239, -0.1071, 17.7, 34.05)" width="0.0" xlink:href="#sprite0"/>
    <use height="81.5" transform="matrix(0.136, 0.0202, -0.0167, 0.1544, 34.3, 20.1)" width="81.5" xlink:href="#sprite1"/>
    <use height="81.5" transform="matrix(0.136, 0.0202, -0.0167, 0.1544, 21.65, 11.9)" width="81.5" xlink:href="#sprite1"/>
    <use height="81.5" transform="matrix(0.136, 0.0202, -0.0167, 0.1544, 13.15, 27.35)" width="81.5" xlink:href="#sprite1"/>
    <use height="4.55" transform="matrix(1.0, 0.0, 0.0, 1.0, 38.85, 15.5)" width="4.6" xlink:href="#shape2"/>
    <use height="81.5" transform="matrix(0.0515, 0.0076, -0.0063, 0.0585, 38.4, 14.0)" width="81.5" xlink:href="#sprite1"/>
    <use height="81.5" transform="matrix(0.0515, 0.0076, -0.0063, 0.0585, 16.75, 6.2)" width="81.5" xlink:href="#sprite1"/>
  </g>
  <defs>
    <g id="shape0" transform="matrix(1.0, 0.0, 0.0, 1.0, 1.0, 1.0)">
      <path d="M52.0 0.0 L52.0 52.0 0.0 52.0 0.0 0.0 52.0 0.0" fill="#795fa9" fill-opacity="0.0" fill-rule="evenodd" stroke="none"/>
      <path d="M24.75 7.95 L25.2 8.85 25.6 10.75 26.3 10.85 28.55 11.45 29.9 11.95 29.95 11.95 30.25 12.05 32.35 12.95 Q34.85 14.1 36.6 15.35 37.0 13.95 38.0 13.05 39.6 11.65 41.55 11.95 43.05 12.15 44.15 13.3 45.65 14.65 46.45 16.2 L46.6 16.4 47.0 17.35 Q47.35 18.5 47.35 19.7 L47.4 19.85 47.35 20.65 47.2 21.65 Q46.75 23.25 45.6 24.3 L44.25 25.2 43.4 25.4 43.6 27.4 43.5 28.9 43.3 30.65 42.55 32.95 Q41.5 35.95 39.15 38.15 L36.25 40.35 35.9 40.5 35.8 40.6 35.95 41.3 36.0 42.2 Q35.95 44.1 35.0 45.9 32.95 44.95 31.55 42.35 L29.25 42.8 26.45 42.6 26.5 42.6 26.3 43.25 25.9 44.45 Q24.85 46.9 22.9 48.15 L22.75 47.9 Q21.35 45.7 21.35 42.25 L21.35 41.45 22.0 41.6 18.0 40.5 17.5 40.35 16.95 40.1 16.7 40.4 15.95 41.25 Q14.25 43.0 11.9 43.75 11.1 41.2 12.1 37.8 L12.15 37.45 12.25 37.05 11.15 36.0 10.35 34.95 9.95 34.4 8.6 32.25 8.35 32.2 7.55 32.0 7.3 31.9 6.95 31.75 Q5.75 31.2 4.65 29.95 L5.85 28.65 6.7 28.0 7.25 27.65 Q6.85 25.35 7.4 22.85 L7.5 22.35 8.2 20.0 Q9.3 17.35 11.3 15.35 12.55 14.15 14.15 13.05 L14.6 12.8 14.15 11.2 Q13.9 9.7 14.4 7.75 14.85 6.15 16.15 5.1 17.6 4.05 19.3 4.1 L19.9 4.15 20.1 4.2 21.05 4.5 Q21.9 4.8 22.6 5.45 24.0 6.6 24.75 7.95 M21.05 9.15 L21.2 9.3 21.2 9.35 21.1 9.7 20.35 10.75 19.9 10.75 19.65 10.85 18.45 11.1 18.35 11.1 18.1 10.55 18.1 10.25 Q18.05 10.1 18.15 9.9 L18.15 9.85 Q18.2 9.4 18.5 9.1 L18.75 8.8 Q19.35 8.4 20.0 8.5 L20.8 8.85 21.05 9.15 M40.1 18.25 Q40.2 17.5 40.7 17.0 41.2 16.55 41.85 16.65 L42.3 16.85 42.6 17.05 42.9 17.3 43.0 17.55 Q42.95 18.35 42.4 18.9 L42.25 19.1 Q41.65 19.65 40.95 19.6 L40.5 19.05 40.05 18.5 40.1 18.25 M31.55 25.35 L30.1 25.5 28.4 24.7 Q27.8 22.45 27.85 20.4 L27.0 21.95 25.3 23.8 23.65 23.95 22.15 23.4 Q21.3 22.2 21.15 20.35 L20.55 21.55 19.8 22.65 18.75 23.0 18.1 22.9 17.2 25.0 17.1 25.6 16.9 27.4 17.2 27.45 17.9 28.2 Q18.3 29.25 18.35 30.6 L18.35 32.05 Q19.5 30.5 20.9 29.55 L22.6 29.8 23.4 30.45 24.15 34.15 Q25.25 32.0 26.9 30.95 L28.6 31.2 29.6 31.9 30.0 33.8 29.8 33.9 30.75 33.25 31.5 32.5 32.8 30.8 33.85 27.95 Q34.3 25.8 33.8 23.8 L33.6 23.25 32.55 24.5 31.55 25.35 M33.2 22.3 L33.1 22.0 32.95 21.75 33.2 22.3 M23.55 35.95 L23.8 35.95 24.5 35.85 24.85 35.85 23.9 35.95 23.55 35.95" fill="none" stroke="#000000" stroke-linecap="round" stroke-linejoin="round" stroke-opacity="0.3019608" stroke-width="1.0"/>
      <path d="M18.4 11.15 L18.4 11.1 18.5 11.15 18.4 11.15" fill="#75d74a" fill-rule="evenodd" stroke="none"/>
      <path d="M29.3 42.8 L28.6 42.75 28.6 42.7 29.3 42.8 M40.7 19.6 L40.4 19.55 40.15 18.95 40.15 18.9 40.75 19.6 40.7 19.6 M45.9 18.1 L45.85 18.1 45.85 18.05 45.9 18.1" fill="#339328" fill-rule="evenodd" stroke="none"/>
      <path d="M30.05 12.0 L30.25 12.05 30.25 12.1 30.05 12.0 M21.35 16.7 L21.4 16.7 21.4 16.75 21.35 16.75 21.35 16.7 M33.1 22.1 L33.05 22.05 33.1 22.05 33.1 22.1 M40.1 18.6 L40.1 18.45 40.55 19.05 40.95 19.65 40.75 19.6 40.15 18.9 40.1 18.6 M17.4 33.4 L17.4 33.45 17.35 33.5 17.35 33.4 17.4 33.4" fill="#d7f16b" fill-rule="evenodd" stroke="none"/>
      <path d="M28.3 17.25 L28.45 17.3 28.3 17.3 28.3 17.25" fill="#246c41" fill-rule="evenodd" stroke="none"/>
      <path d="M28.45 17.3 L28.45 17.25 28.65 17.35 28.55 17.35 28.45 17.3" fill="#1c5331" fill-rule="evenodd" stroke="none"/>
      <path d="M28.15 17.15 L28.3 17.25 28.3 17.3 28.2 17.65 Q27.85 19.0 27.85 20.4 L27.0 22.0 Q27.3 20.9 26.0 21.9 27.15 20.25 28.0 17.65 L28.15 17.15 M21.25 17.15 L21.15 18.05 21.1 18.55 21.05 19.45 21.05 19.65 21.1 20.35 20.5 21.55 19.7 21.3 20.1 20.4 20.6 19.15 21.25 17.15 M28.7 17.4 L28.65 17.4 28.65 17.35 28.7 17.4 M33.05 22.05 L33.1 22.05 33.05 22.05 M31.65 24.4 L33.3 22.45 33.65 23.25 33.6 23.3 32.55 24.5 31.65 24.4 M28.95 32.7 L29.85 33.1 30.0 33.85 29.65 34.1 29.3 34.3 29.1 34.4 28.95 32.7 M17.2 33.65 L17.3 33.8 17.15 33.7 17.2 33.65 M23.35 35.9 L23.1 32.5 23.85 32.8 24.15 34.15 Q23.7 34.95 23.35 35.9 M18.35 32.1 L18.25 32.2 17.4 33.4 17.65 31.5 17.65 31.0 17.65 29.9 18.35 30.6 18.35 32.1" fill="#a34100" fill-rule="evenodd" stroke="none"/>
      <path d="M22.6 5.45 L23.35 6.15 23.2 6.15 22.6 5.45 M19.1 7.35 L19.1 7.3 19.15 7.35 19.1 7.35 M26.2 41.15 L25.95 41.2 25.6 41.25 26.15 41.15 26.2 41.15" fill="#7e3301" fill-rule="evenodd" stroke="none"/>
      <path d="M26.5 42.65 L26.5 42.7 26.45 42.65 26.5 42.65 M19.1 7.3 L19.15 7.3 19.15 7.35 19.1 7.3 M18.1 22.95 L18.05 22.9 18.1 22.9 18.1 22.95" fill="#6d2c01" fill-rule="evenodd" stroke="none"/>
      <path d="M30.25 12.05 L30.3 12.05 30.25 12.1 30.25 12.05 M21.35 16.7 L21.35 16.75 21.35 16.7" fill="#ea6004" fill-rule="evenodd" stroke="none"/>
      <path d="M24.4 16.0 L24.6 16.0 24.65 16.05 24.9 16.05 25.0 16.05 25.5 16.15 27.45 16.75 28.05 17.05 28.45 17.25 28.45 17.3 28.3 17.25 28.15 17.15 27.6 17.05 21.4 16.7 21.35 16.7 21.15 16.75 Q19.3 17.15 17.65 18.25 L16.3 18.35 17.45 17.55 17.75 17.35 18.4 17.05 20.35 16.35 21.35 16.1 23.05 15.95 24.35 16.0 24.4 16.0" fill="#431b01" fill-rule="evenodd" stroke="none"/>
      <path d="M14.6 12.8 L14.1 11.2 Q13.9 9.75 14.4 7.8 14.8 6.15 16.2 5.1 17.6 4.05 19.3 4.15 L19.95 4.2 20.15 4.2 21.05 4.5 Q21.9 4.8 22.6 5.45 L23.2 6.15 23.75 7.05 24.0 7.85 24.15 8.6 24.7 9.5 25.2 10.65 24.9 10.65 24.7 10.25 24.15 9.8 24.15 9.9 24.0 10.55 23.55 10.55 Q23.9 9.35 23.6 8.2 23.0 6.05 21.2 4.95 L21.05 4.9 19.95 4.65 18.9 4.65 18.05 4.85 Q16.85 5.15 15.9 6.05 L17.0 7.2 Q16.05 6.3 15.2 6.95 14.25 8.95 14.4 10.85 14.45 11.8 14.8 12.7 L14.6 12.8 M30.3 12.05 L32.35 12.95 Q34.85 14.1 36.6 15.35 37.0 14.0 38.05 13.05 39.6 11.65 41.55 11.95 43.05 12.2 44.15 13.3 L44.75 14.05 45.35 15.05 45.65 15.85 Q45.95 16.9 45.85 18.05 L45.85 18.1 45.9 18.1 46.15 18.45 Q46.7 19.3 47.1 21.35 46.55 19.65 46.05 19.25 45.85 19.05 45.65 19.1 45.3 20.6 44.25 21.6 L44.1 21.75 42.6 22.7 41.7 22.9 40.6 22.85 40.1 22.75 39.9 22.05 41.15 22.4 42.45 22.25 43.85 21.35 Q43.1 21.05 42.55 19.25 43.3 20.8 44.25 20.9 L45.0 19.75 Q46.1 16.75 44.7 14.7 L43.45 13.35 Q42.65 13.25 42.3 15.05 42.35 13.65 42.95 13.0 42.0 12.5 40.9 12.4 L40.6 12.4 Q37.85 12.75 36.85 15.55 L36.7 16.0 36.65 16.2 36.45 16.0 36.45 15.85 34.45 14.8 32.25 13.15 32.2 13.15 32.1 13.05 31.9 12.95 30.25 12.1 30.3 12.05 M22.9 48.15 L22.75 47.95 24.4 43.9 24.45 43.7 24.45 43.55 Q24.4 43.0 23.2 42.45 23.9 42.65 24.6 43.2 L24.8 42.4 24.9 41.95 24.95 41.75 25.35 41.65 25.25 42.05 25.2 42.55 25.05 43.0 24.95 43.5 Q24.15 46.5 22.9 48.15 M19.1 7.3 L19.1 7.35 Q18.6 7.4 18.15 7.75 L17.45 8.5 17.25 9.15 Q17.1 9.95 17.5 10.6 L17.25 10.3 Q16.7 9.6 16.9 8.7 17.0 8.1 17.4 7.65 L17.8 7.25 Q18.45 6.8 19.25 6.85 L19.4 6.9 Q20.3 7.0 20.85 7.7 L20.95 7.95 Q20.45 7.45 19.75 7.3 L19.15 7.3 19.1 7.3 M15.85 12.75 L16.8 14.5 16.95 14.95 17.5 16.65 17.6 17.0 18.5 16.6 19.95 16.15 21.3 15.9 23.2 15.85 24.4 16.0 24.35 16.0 23.05 15.95 21.35 16.1 20.35 16.35 18.4 17.05 17.75 17.35 17.45 17.55 16.3 18.35 15.05 19.5 Q14.1 20.55 13.5 21.8 L13.25 22.45 12.85 23.9 Q12.4 26.1 12.95 28.15 13.35 29.6 14.25 30.95 L14.6 31.5 15.25 32.25 15.7 32.75 Q16.9 33.95 18.45 34.8 L19.5 35.3 18.85 35.15 Q16.9 34.5 15.3 32.9 L15.15 32.8 14.2 31.7 13.95 31.4 Q11.35 27.85 12.15 23.8 12.45 22.5 13.0 21.4 L13.9 19.95 Q15.05 18.5 16.75 17.45 L16.85 17.4 16.95 16.85 16.6 14.75 16.5 14.55 15.85 12.75 M36.6 15.35 L36.45 15.85 36.6 15.35 M39.3 18.7 L38.85 17.6 38.85 17.15 38.85 16.95 Q38.95 15.95 39.65 15.35 40.1 15.0 40.6 14.9 L41.2 14.9 Q41.85 15.0 42.35 15.5 L42.55 15.8 42.85 16.2 Q42.25 15.45 41.4 15.3 L40.85 15.3 Q40.35 15.4 39.9 15.8 L39.5 16.25 Q39.15 16.75 39.1 17.35 L39.1 17.4 39.1 17.8 39.3 18.7 M36.3 16.65 L36.95 17.45 37.9 18.9 Q39.0 20.75 39.5 22.7 L39.85 24.55 39.95 25.15 Q42.2 26.4 43.2 28.4 41.45 26.45 40.0 25.95 L39.65 29.1 39.55 29.55 38.6 32.4 Q37.65 34.4 36.05 36.05 L35.65 36.45 33.65 38.1 32.65 38.8 Q30.45 40.1 28.1 40.75 L26.25 41.15 28.0 40.55 Q31.15 39.5 33.4 37.75 31.7 35.75 31.05 34.1 L30.95 33.85 33.85 36.85 35.5 35.7 35.5 35.65 36.55 34.5 37.85 32.3 38.55 30.1 38.65 29.85 39.15 27.5 39.2 27.2 Q39.85 22.35 36.3 16.65 M6.65 30.4 L7.0 30.45 7.1 30.45 7.2 30.45 7.2 30.5 7.9 30.5 8.0 30.95 7.5 30.85 6.8 30.75 6.75 30.75 4.65 30.0 6.6 30.35 6.65 30.4 M34.05 39.65 L34.35 39.3 34.75 41.15 34.75 41.2 34.85 41.7 Q35.3 44.15 35.0 45.9 L34.75 43.25 34.75 43.1 34.75 43.05 34.3 41.95 34.0 41.5 Q33.45 40.95 32.85 41.1 33.6 40.75 34.25 41.4 L34.55 41.8 34.45 41.3 34.05 39.65 M12.1 43.5 L14.05 41.15 14.15 41.0 Q14.35 40.25 13.15 39.1 L14.75 40.35 15.4 39.3 15.7 39.5 15.1 40.35 Q13.7 42.4 12.1 43.5" fill="#d0c586" fill-rule="evenodd" stroke="none"/>
      <path d="M28.55 11.4 L29.95 11.95 30.0 12.0 30.05 12.0 30.25 12.1 31.9 12.95 32.1 13.05 32.2 13.15 32.25 13.15 34.45 14.8 35.8 16.1 36.3 16.65 Q39.85 22.35 39.2 27.2 L39.15 27.5 38.65 29.85 38.55 30.1 37.85 32.3 36.55 34.5 Q34.85 33.55 33.9 32.55 33.1 31.7 32.8 30.8 L33.85 27.95 Q34.3 25.8 33.8 23.8 L33.6 23.3 33.65 23.25 33.3 22.45 33.2 22.25 33.1 22.1 33.1 22.05 32.1 20.4 30.0 18.3 29.1 17.65 29.0 17.6 28.8 17.45 28.7 17.4 28.65 17.35 28.45 17.25 28.05 17.05 27.9 14.65 Q27.9 13.65 28.05 12.85 L28.55 11.4 M44.15 13.3 Q45.7 14.65 46.5 16.2 L46.6 16.4 46.95 17.35 Q45.95 15.2 45.35 15.05 L44.75 14.05 44.15 13.3 M35.0 45.9 Q32.95 44.95 31.55 42.35 32.25 41.4 32.85 41.1 33.45 40.95 34.0 41.5 L34.3 41.95 34.75 43.05 34.75 43.1 34.75 43.25 35.0 45.9 M22.75 47.95 Q21.35 45.75 21.35 42.25 L23.2 42.45 Q24.4 43.0 24.45 43.55 L24.45 43.7 24.4 43.9 22.75 47.95 M19.05 40.8 L18.0 40.5 17.5 40.3 16.95 40.1 15.7 39.5 15.4 39.3 14.0 38.45 12.3 37.1 11.2 35.95 10.35 34.95 9.95 34.4 8.6 32.25 8.0 30.95 7.9 30.5 Q7.4 29.15 7.2 27.7 6.9 25.35 7.35 22.85 L7.5 22.35 Q7.8 21.1 8.25 20.0 9.3 17.4 11.3 15.4 12.55 14.1 14.15 13.1 L14.6 12.8 14.8 12.7 Q14.45 11.8 14.4 10.85 14.25 8.95 15.2 6.95 16.05 6.3 17.0 7.2 L17.4 7.65 Q17.0 8.1 16.9 8.7 16.7 9.6 17.25 10.3 L17.5 10.6 17.6 10.7 17.9 10.9 18.4 11.1 18.4 11.15 Q16.9 11.6 15.5 12.35 L15.85 12.75 16.5 14.55 16.6 14.75 16.95 16.85 16.85 17.4 16.75 17.45 Q15.05 18.5 13.9 19.95 L13.0 21.4 Q12.45 22.5 12.15 23.8 11.35 27.85 13.95 31.4 L14.2 31.7 15.15 32.8 15.3 32.9 Q16.9 34.5 18.85 35.15 L19.5 35.3 23.0 35.95 23.25 35.95 23.35 35.95 23.75 35.95 23.8 35.95 23.9 35.95 25.0 37.3 Q25.85 38.8 26.2 41.15 L26.15 41.15 25.6 41.25 23.2 41.3 19.95 40.95 19.05 40.8 M11.9 43.75 Q11.05 41.2 12.05 37.85 L12.85 38.8 13.15 39.1 Q14.35 40.25 14.15 41.0 L14.05 41.15 12.1 43.5 12.05 43.6 11.9 43.75 M4.65 30.0 L5.85 28.65 6.7 28.0 6.65 30.4 6.6 30.35 4.65 30.0 M18.05 4.85 L18.9 4.65 19.95 4.65 21.05 4.9 21.2 4.95 Q23.0 6.05 23.6 8.2 23.9 9.35 23.55 10.55 L21.75 10.55 21.1 9.7 21.2 9.3 21.2 8.45 20.95 7.95 20.85 7.7 Q20.3 7.0 19.4 6.9 L19.25 6.85 18.2 5.65 Q17.95 5.2 18.05 4.85 M15.5 12.35 L14.8 12.7 15.5 12.35 M36.65 16.2 L36.7 16.0 36.85 15.55 Q37.85 12.75 40.6 12.4 L40.6 14.9 Q40.1 15.0 39.65 15.35 38.95 15.95 38.85 16.95 L38.85 17.15 38.85 17.6 39.3 18.7 39.65 19.1 40.4 19.55 40.7 19.6 41.15 22.4 39.9 22.05 Q39.1 18.9 36.65 16.2 M42.3 15.05 Q42.65 13.25 43.45 13.35 L44.7 14.7 Q46.1 16.75 45.0 19.75 L44.25 20.9 Q43.3 20.8 42.55 19.25 L42.4 18.9 Q42.9 18.35 43.0 17.55 L42.95 16.6 42.85 16.2 42.55 15.8 42.35 15.5 42.3 15.05" fill="#bfb072" fill-rule="evenodd" stroke="none"/>
      <path d="M21.35 42.25 L21.35 41.5 22.0 41.6 24.45 41.85 24.95 41.75 24.9 41.95 24.8 42.4 24.6 43.2 Q23.9 42.65 23.2 42.45 L21.35 42.25 M12.05 37.85 L12.15 37.45 12.3 37.1 14.0 38.45 15.4 39.3 14.75 40.35 13.15 39.1 12.85 38.8 12.05 37.85 M6.7 28.0 L7.2 27.7 Q7.4 29.15 7.9 30.5 L7.2 30.5 7.2 30.45 7.1 30.45 7.0 30.45 6.65 30.4 6.7 28.0 M17.0 7.2 L15.9 6.05 Q16.85 5.15 18.05 4.85 17.95 5.2 18.2 5.65 L19.25 6.85 Q18.45 6.8 17.8 7.25 L17.4 7.65 17.0 7.2 M23.55 10.55 L24.0 10.55 24.2 10.55 Q24.25 12.1 24.8 14.05 L24.85 14.3 25.3 15.65 25.5 16.15 25.0 16.05 24.9 16.05 24.65 16.05 24.6 16.0 24.4 16.0 23.2 15.85 21.3 15.9 19.95 16.15 18.5 16.6 17.6 17.0 17.5 16.65 16.95 14.95 16.8 14.5 15.85 12.75 15.5 12.35 Q16.9 11.6 18.4 11.15 L18.5 11.15 19.7 10.85 19.9 10.8 20.35 10.7 21.75 10.55 20.35 10.7 21.1 9.7 21.75 10.55 23.55 10.55 M41.15 22.4 L40.7 19.6 40.75 19.6 40.95 19.65 Q41.65 19.65 42.2 19.1 L42.4 18.9 42.55 19.25 Q43.1 21.05 43.85 21.35 L42.45 22.25 41.15 22.4 M40.6 14.9 L40.6 12.4 40.9 12.4 Q42.0 12.5 42.95 13.0 42.35 13.65 42.3 15.05 L42.35 15.5 Q41.85 15.0 41.2 14.9 L40.6 14.9 M30.95 33.85 L31.05 34.1 Q31.7 35.75 33.4 37.75 31.15 39.5 28.0 40.55 L26.25 41.15 26.2 41.15 Q25.85 38.8 25.0 37.3 L23.9 35.95 24.7 35.9 24.9 35.85 25.8 35.7 Q27.3 35.4 28.65 34.65 L29.1 34.4 29.3 34.3 29.65 34.1 30.0 33.85 30.75 33.25 30.95 33.85 M31.55 42.35 L31.0 41.3 Q33.05 40.5 34.05 39.65 L34.45 41.3 34.55 41.8 34.25 41.4 Q33.6 40.75 32.85 41.1 32.25 41.4 31.55 42.35" fill="#a89e64" fill-rule="evenodd" stroke="none"/>
      <path d="M25.25 8.9 L25.65 10.75 26.3 10.85 28.55 11.4 28.05 12.85 Q27.9 13.65 27.9 14.65 L28.05 17.05 27.45 16.75 25.5 16.15 25.3 15.65 24.85 14.3 24.8 14.05 Q24.25 12.1 24.2 10.55 L24.9 10.65 25.2 10.65 24.7 9.5 24.15 8.6 24.0 7.85 23.75 7.05 25.25 8.9 M47.2 21.7 Q46.8 23.25 45.6 24.3 L44.25 25.2 43.2 24.5 43.05 24.4 Q41.85 23.5 41.7 22.9 L42.6 22.7 44.1 21.75 44.25 21.6 Q45.3 20.6 45.65 19.1 45.85 19.05 46.05 19.25 46.55 19.65 47.1 21.35 L47.2 21.7 M43.4 25.45 L43.55 27.4 43.55 28.9 43.2 28.4 Q42.2 26.4 39.95 25.15 L39.85 24.55 39.5 22.7 Q39.0 20.75 37.9 18.9 L36.95 17.45 36.3 16.65 35.8 16.1 34.45 14.8 36.45 15.85 36.45 16.0 36.65 16.2 Q39.1 18.9 39.9 22.05 L40.1 22.75 43.15 25.45 43.4 25.45 M35.95 42.2 Q35.95 44.1 35.0 45.9 35.3 44.15 34.85 41.7 L34.75 41.2 35.95 42.2 M28.6 42.75 L26.5 42.65 26.45 42.65 26.0 42.25 26.55 42.35 28.6 42.7 28.6 42.75 M25.9 44.5 Q24.85 46.95 22.9 48.15 24.15 46.5 24.95 43.5 L25.05 43.0 25.9 44.5 M22.0 41.6 L19.05 40.8 19.95 40.95 23.2 41.3 24.45 41.85 22.0 41.6 M16.45 40.8 L15.95 41.3 Q14.3 43.0 11.9 43.75 L12.05 43.6 12.1 43.5 Q13.7 42.4 15.1 40.35 L16.45 40.8 M7.6 32.0 L7.3 31.9 6.95 31.8 Q5.7 31.2 4.65 30.0 L6.75 30.75 6.8 30.75 7.6 32.0 M17.45 8.5 L18.15 7.75 Q18.6 7.4 19.1 7.35 L19.15 7.35 Q20.35 7.95 20.05 8.55 19.35 8.4 18.8 8.8 L18.5 9.1 Q18.2 9.4 18.15 9.85 17.5 9.95 17.45 8.5 M13.5 21.8 Q17.45 20.35 17.25 25.0 L17.1 25.6 16.95 27.4 15.55 27.2 Q14.5 27.6 13.9 29.1 L12.95 28.15 Q12.4 26.1 12.85 23.9 L13.25 22.45 13.5 21.8 M25.65 10.75 L25.2 10.65 25.65 10.75 M36.55 34.5 L35.5 35.65 35.5 35.7 33.85 36.85 30.95 33.85 30.75 33.25 31.5 32.5 32.8 30.8 Q33.1 31.7 33.9 32.55 34.85 33.55 36.55 34.5" fill="#696141" fill-rule="evenodd" stroke="none"/>
      <path d="M23.35 6.15 L24.75 7.95 25.25 8.9 23.75 7.05 23.2 6.15 23.35 6.15 M46.95 17.35 Q47.35 18.5 47.35 19.7 L47.35 19.85 47.35 20.7 47.2 21.7 47.1 21.35 Q46.7 19.3 46.15 18.45 L45.9 18.1 45.85 18.05 Q45.95 16.9 45.65 15.85 L45.35 15.05 Q45.95 15.2 46.95 17.35 M44.25 25.2 L43.4 25.45 43.15 25.45 40.1 22.75 40.6 22.85 41.7 22.9 Q41.85 23.5 43.05 24.4 L43.2 24.5 44.25 25.2 M43.55 28.9 L43.25 30.65 42.6 33.0 Q41.45 35.95 39.15 38.2 L36.9 37.65 35.95 36.85 35.65 36.45 36.05 36.05 Q37.65 34.4 38.6 32.4 L39.55 29.55 39.65 29.1 40.0 25.95 Q41.45 26.45 43.2 28.4 L43.55 28.9 M26.5 42.7 L26.3 43.25 25.9 44.5 25.05 43.0 25.2 42.55 25.25 42.05 25.35 41.65 26.0 42.25 26.45 42.65 26.5 42.7 M16.95 40.1 L16.75 40.4 16.45 40.8 15.1 40.35 15.7 39.5 16.95 40.1 M8.6 32.25 L8.4 32.2 7.6 32.0 6.8 30.75 7.5 30.85 8.0 30.95 8.6 32.25 M24.0 10.55 L24.15 9.9 24.15 9.8 24.7 10.25 24.9 10.65 24.2 10.55 24.0 10.55 M19.15 7.3 L19.75 7.3 Q20.45 7.45 20.95 7.95 L21.2 8.45 21.2 9.3 21.1 9.15 20.8 8.85 20.05 8.55 Q20.35 7.95 19.15 7.35 L19.15 7.3 M17.5 10.6 Q17.1 9.95 17.25 9.15 L17.45 8.5 Q17.5 9.95 18.15 9.85 L18.15 9.9 18.1 10.3 18.15 10.55 18.4 11.1 17.9 10.9 17.6 10.7 17.5 10.6 M16.3 18.35 L17.65 18.25 16.3 19.25 16.4 19.95 16.5 20.7 Q16.85 22.15 18.05 22.9 L18.1 22.95 Q17.55 23.85 17.25 25.0 17.45 20.35 13.5 21.8 14.1 20.55 15.05 19.5 L16.3 18.35 M39.5 16.25 L39.9 15.8 Q40.35 15.4 40.85 15.3 42.35 15.8 42.3 16.85 L41.85 16.7 Q41.2 16.6 40.7 17.05 40.2 17.5 40.1 18.2 L40.1 18.45 40.1 18.6 39.65 18.0 Q39.25 17.2 39.5 16.25 M17.3 33.8 L17.35 33.8 18.45 34.8 Q16.9 33.95 15.7 32.75 L15.25 32.25 14.6 31.5 14.25 30.95 Q13.35 29.6 12.95 28.15 L13.9 29.1 13.75 29.45 13.9 29.8 Q14.75 31.95 17.15 33.7 L17.3 33.8" fill="#5f5a3a" fill-rule="evenodd" stroke="none"/>
      <path d="M39.15 38.2 L36.25 40.35 35.95 40.55 35.8 40.6 35.9 41.3 35.95 42.2 34.75 41.2 34.75 41.15 34.35 39.3 34.05 39.65 Q33.05 40.5 31.0 41.3 L31.55 42.35 29.3 42.8 28.6 42.7 26.55 42.35 26.0 42.25 25.35 41.65 24.95 41.75 24.45 41.85 23.2 41.3 25.6 41.25 25.95 41.2 26.2 41.15 26.25 41.15 28.1 40.75 Q30.45 40.1 32.65 38.8 L33.65 38.1 35.65 36.45 35.95 36.85 36.9 37.65 39.15 38.2 M40.4 19.55 L39.65 19.1 39.3 18.7 39.1 17.8 39.1 17.4 39.1 17.35 Q39.15 16.75 39.5 16.25 39.25 17.2 39.65 18.0 L40.1 18.6 40.15 18.9 40.15 18.95 40.4 19.55 M42.85 16.2 L42.95 16.6 43.0 17.55 42.9 17.35 42.6 17.05 42.3 16.85 Q42.35 15.8 40.85 15.3 L41.4 15.3 Q42.25 15.45 42.85 16.2 M35.8 40.6 L35.7 40.25 34.35 39.3 35.7 40.25 35.8 40.6" fill="#49432e" fill-rule="evenodd" stroke="none"/>
      <path d="M18.05 22.9 Q16.85 22.15 16.5 20.7 17.55 22.1 18.35 22.45 L18.6 22.5 19.4 21.05 20.05 19.7 Q20.45 18.65 18.0 19.05 L19.45 18.55 Q20.1 18.5 20.4 18.9 L21.15 16.75 21.35 16.7 21.35 16.75 21.25 17.15 20.6 19.15 20.1 20.4 19.7 21.3 18.75 23.0 18.1 22.9 18.05 22.9 M27.6 17.05 L28.15 17.15 28.0 17.65 Q27.15 20.25 26.0 21.9 24.95 23.3 23.65 23.95 L22.15 23.4 Q21.25 22.2 21.1 20.35 L21.05 19.65 21.05 19.45 21.1 18.55 21.2 19.55 21.25 19.95 Q21.6 22.4 22.4 23.2 L23.65 23.4 Q24.75 23.05 25.8 21.25 L26.25 20.5 Q26.8 19.05 23.85 18.25 L23.05 18.05 24.15 18.15 Q26.25 18.4 26.8 19.4 L27.45 17.6 27.6 17.05 M28.65 17.35 L28.65 17.4 28.6 17.65 28.45 18.6 28.35 19.05 Q27.95 22.5 28.75 24.45 L30.1 25.0 30.7 24.65 30.95 24.45 Q32.6 22.6 30.65 20.1 32.25 21.65 31.85 23.7 L33.05 22.05 33.1 22.1 33.2 22.25 33.3 22.45 31.65 24.4 30.1 25.5 28.4 24.75 Q27.8 22.5 27.85 20.4 27.85 19.0 28.2 17.65 L28.3 17.3 28.45 17.3 28.55 17.35 28.65 17.35 M28.55 31.2 L28.95 32.7 29.1 34.4 28.65 34.65 Q28.8 33.75 28.6 32.75 28.15 34.05 26.85 34.9 28.5 33.45 28.35 31.7 L26.95 31.5 Q25.55 32.3 24.25 34.9 L24.05 35.35 23.8 35.95 23.75 35.95 23.35 35.95 23.25 35.95 23.0 35.95 22.6 31.45 Q22.65 34.3 21.1 34.9 22.6 34.2 22.35 30.15 L20.85 29.95 Q19.8 30.6 18.35 32.3 L18.3 32.35 17.4 33.4 18.25 32.2 18.35 32.1 Q19.5 30.55 20.9 29.55 L22.6 29.8 23.1 32.5 23.35 35.9 23.35 35.95 23.35 35.9 Q23.7 34.95 24.15 34.15 25.25 31.95 26.9 30.95 L28.55 31.2 M17.65 29.9 L17.65 31.0 17.65 31.5 17.4 33.4 17.35 33.4 17.4 31.4 17.4 30.9 17.15 31.3 Q16.4 32.35 14.85 30.85 16.1 31.85 16.8 31.15 L17.35 30.25 17.0 27.9 15.45 27.7 Q14.85 27.8 13.95 29.15 L13.75 29.45 13.9 29.1 Q14.5 27.6 15.55 27.2 L16.95 27.4 17.2 27.45 17.65 29.9" fill="#ffff98" fill-rule="evenodd" stroke="none"/>
      <path d="M16.5 20.7 L16.4 19.95 18.0 19.05 Q20.45 18.65 20.05 19.7 L19.4 21.05 18.6 22.5 18.35 22.45 Q17.55 22.1 16.5 20.7 M21.15 18.05 L21.8 18.05 23.05 18.05 23.85 18.25 Q26.8 19.05 26.25 20.5 L25.8 21.25 Q24.75 23.05 23.65 23.4 L22.4 23.2 Q21.6 22.4 21.25 19.95 L21.2 19.55 21.1 18.55 21.15 18.05 M28.45 18.6 L28.55 18.65 Q29.8 19.3 30.65 20.1 32.6 22.6 30.95 24.45 L30.7 24.65 30.1 25.0 28.75 24.45 Q27.95 22.5 28.35 19.05 L28.45 18.6 M17.4 33.4 L18.3 32.35 18.35 32.3 Q19.8 30.6 20.85 29.95 L22.35 30.15 Q22.6 34.2 21.1 34.9 L20.65 35.05 18.45 34.8 17.35 33.8 17.3 33.8 17.2 33.65 17.3 33.5 17.35 33.5 17.4 33.45 17.4 33.4 M13.75 29.45 L13.95 29.15 Q14.85 27.8 15.45 27.7 L17.0 27.9 17.35 30.25 16.8 31.15 Q16.1 31.85 14.85 30.85 L13.9 29.8 13.75 29.45 M23.8 35.95 L24.05 35.35 24.25 34.9 Q25.55 32.3 26.95 31.5 L28.35 31.7 Q28.5 33.45 26.85 34.9 25.9 35.5 24.5 35.9 L23.9 35.95 23.8 35.95" fill="#ffde4f" fill-rule="evenodd" stroke="none"/>
      <path d="M16.4 19.95 L16.3 19.25 17.65 18.25 Q19.3 17.15 21.15 16.75 L20.4 18.9 Q20.1 18.5 19.45 18.55 L18.0 19.05 16.4 19.95 M21.4 16.7 L27.6 17.05 27.45 17.6 26.8 19.4 Q26.25 18.4 24.15 18.15 L23.05 18.05 21.8 18.05 21.15 18.05 21.25 17.15 21.35 16.75 21.4 16.75 21.4 16.7 M28.65 17.4 L28.7 17.4 28.8 17.45 29.0 17.6 29.1 17.65 30.0 18.3 32.1 20.4 33.1 22.05 33.05 22.05 31.85 23.7 Q32.25 21.65 30.65 20.1 29.8 19.3 28.55 18.65 L28.45 18.6 28.6 17.65 28.65 17.4 M17.35 33.5 L17.3 33.5 17.2 33.65 17.15 33.7 Q14.75 31.95 13.9 29.8 L14.85 30.85 Q16.4 32.35 17.15 31.3 L17.4 30.9 17.4 31.4 17.35 33.4 17.35 33.5 M18.45 34.8 L20.65 35.05 21.1 34.9 Q22.65 34.3 22.6 31.45 L23.0 35.95 19.5 35.3 18.45 34.8 M24.5 35.9 Q25.9 35.5 26.85 34.9 28.15 34.05 28.6 32.75 28.8 33.75 28.65 34.65 27.3 35.4 25.8 35.7 L24.9 35.85 24.7 35.9 24.5 35.9" fill="#f4a33c" fill-rule="evenodd" stroke="none"/>
      <path d="M23.65 23.95 Q24.95 23.3 26.0 21.9 27.3 20.9 27.0 22.0 26.2 23.3 25.3 23.8 L23.65 23.95 M19.7 21.3 L20.5 21.55 19.85 22.65 18.75 23.0 19.7 21.3 M30.1 25.5 L31.65 24.4 32.55 24.5 31.55 25.35 30.1 25.5 M29.85 33.1 L28.95 32.7 28.55 31.2 29.6 31.95 29.85 33.1 M23.1 32.5 L22.6 29.8 23.4 30.45 23.85 32.8 23.1 32.5 M17.65 29.9 L17.2 27.45 17.9 28.2 Q18.3 29.3 18.35 30.6 L17.65 29.9" fill="#cc6b22" fill-rule="evenodd" stroke="none"/>
      <path d="M14.6 12.8 L14.1 11.2 Q13.9 9.75 14.4 7.8 14.8 6.15 16.2 5.1 17.6 4.05 19.3 4.15 L19.95 4.2 20.15 4.2 21.05 4.5 Q21.9 4.8 22.6 5.45 L23.35 6.15 24.75 7.95 25.25 8.9 25.65 10.75 26.3 10.85 28.55 11.4 29.95 11.95 30.0 12.0 30.05 12.0 30.25 12.05 30.3 12.05 32.35 12.95 Q34.85 14.1 36.6 15.35 37.0 14.0 38.05 13.05 39.6 11.65 41.55 11.95 43.05 12.2 44.15 13.3 45.7 14.65 46.5 16.2 L46.6 16.4 46.95 17.35 Q47.35 18.5 47.35 19.7 L47.35 19.85 47.35 20.7 47.2 21.7 Q46.8 23.25 45.6 24.3 L44.25 25.2 43.4 25.45 43.55 27.4 43.55 28.9 43.25 30.65 42.6 33.0 Q41.45 35.95 39.15 38.2 L36.25 40.35 35.95 40.55 35.8 40.6 35.9 41.3 35.95 42.2 Q35.95 44.1 35.0 45.9 32.95 44.95 31.55 42.35 L29.3 42.8 28.6 42.75 26.5 42.65 26.5 42.7 26.3 43.25 25.9 44.5 Q24.85 46.95 22.9 48.15 L22.75 47.95 Q21.35 45.75 21.35 42.25 L21.35 41.5 22.0 41.6 19.05 40.8 18.0 40.5 17.75 40.45 17.6 40.35 17.5 40.3 16.95 40.1 16.75 40.4 16.45 40.8 15.95 41.3 Q14.3 43.0 11.9 43.75 11.05 41.2 12.05 37.85 L12.15 37.45 12.3 37.1 11.2 35.95 10.35 34.95 9.95 34.4 8.6 32.25 8.4 32.2 7.6 32.0 7.3 31.9 6.95 31.8 Q5.7 31.2 4.65 30.0 L5.85 28.65 6.7 28.0 7.2 27.7 Q6.9 25.35 7.35 22.85 L7.5 22.35 Q7.8 21.1 8.25 20.0 9.3 17.4 11.3 15.4 12.55 14.1 14.15 13.1 L14.6 12.8 14.8 12.7 15.5 12.35 Q16.9 11.6 18.4 11.15 L18.5 11.15 18.4 11.1 18.15 10.55 18.1 10.3 18.15 9.9 18.15 9.85 Q18.2 9.4 18.5 9.1 L18.8 8.8 Q19.35 8.4 20.05 8.55 L20.8 8.85 21.1 9.15 21.2 9.3 21.1 9.7 20.35 10.7 19.9 10.8 19.7 10.85 18.5 11.15 M23.55 10.55 L24.0 10.55 24.2 10.55 24.9 10.65 25.2 10.65 25.65 10.75 M24.6 16.0 L24.65 16.05 24.9 16.05 25.0 16.05 25.5 16.15 27.45 16.75 28.05 17.05 28.45 17.25 28.65 17.35 28.7 17.4 28.8 17.45 29.0 17.6 29.1 17.65 30.0 18.3 32.1 20.4 33.1 22.05 M18.4 11.1 L17.9 10.9 17.6 10.7 17.5 10.6 M17.25 25.0 Q17.55 23.85 18.1 22.95 L18.1 22.9 18.05 22.9 Q16.85 22.15 16.5 20.7 L16.4 19.95 16.3 19.25 17.65 18.25 Q19.3 17.15 21.15 16.75 L21.35 16.7 21.4 16.7 27.6 17.05 28.15 17.15 28.3 17.25 28.45 17.3 28.55 17.35 28.65 17.35 M21.75 10.55 L23.55 10.55 M21.2 9.3 L21.2 8.45 20.95 7.95 M21.75 10.55 L20.35 10.7 M21.35 16.75 L21.4 16.75 21.4 16.7 M21.35 16.75 L21.25 17.15 21.15 18.05 21.1 18.55 21.05 19.45 21.05 19.65 21.1 20.35 Q21.25 22.2 22.15 23.4 L23.65 23.95 25.3 23.8 Q26.2 23.3 27.0 22.0 L27.85 20.4 Q27.8 22.5 28.4 24.75 L30.1 25.5 31.55 25.35 32.55 24.5 33.6 23.3 33.65 23.25 33.3 22.45 33.2 22.25 33.1 22.1 M20.5 21.55 L21.1 20.35 M28.45 17.3 L28.3 17.3 28.2 17.65 Q27.85 19.0 27.85 20.4 M36.45 15.85 L36.6 15.35 M36.65 16.2 L36.45 16.0 36.45 15.85 M36.65 16.2 Q39.1 18.9 39.9 22.05 L40.1 22.75 43.15 25.45 43.4 25.45 M40.7 19.6 L40.4 19.55 39.65 19.1 39.3 18.7 M42.85 16.2 L42.95 16.6 43.0 17.55 Q42.9 18.35 42.4 18.9 L42.2 19.1 Q41.65 19.65 40.95 19.65 L40.55 19.05 40.1 18.45 40.1 18.2 Q40.2 17.5 40.7 17.05 41.2 16.6 41.85 16.7 L42.3 16.85 42.6 17.05 42.9 17.35 43.0 17.55 M40.1 18.6 L40.1 18.45 M40.4 19.55 L40.15 18.95 40.15 18.9 40.1 18.6 M40.75 19.6 L40.95 19.65 M40.75 19.6 L40.7 19.6 M45.85 18.1 L45.85 18.05 M8.0 30.95 L7.9 30.5 Q7.4 29.15 7.2 27.7 M33.6 23.3 L33.8 23.8 Q34.3 25.8 33.85 27.95 L32.8 30.8 31.5 32.5 30.75 33.25 30.0 33.85 29.85 33.1 29.6 31.95 28.55 31.2 26.9 30.95 Q25.25 31.95 24.15 34.15 L23.85 32.8 23.4 30.45 22.6 29.8 20.9 29.55 Q19.5 30.55 18.35 32.1 L18.25 32.2 17.4 33.4 17.4 33.45 17.35 33.5 17.3 33.5 17.2 33.65 17.3 33.8 17.35 33.8 18.45 34.8 19.5 35.3 23.0 35.95 23.25 35.95 23.35 35.95 23.35 35.9 Q23.7 34.95 24.15 34.15 M29.1 34.4 L29.3 34.3 29.65 34.1 30.0 33.85 M31.55 42.35 L31.0 41.3 Q33.05 40.5 34.05 39.65 L34.35 39.3 35.7 40.25 35.8 40.6 M20.5 21.55 L19.85 22.65 18.75 23.0 18.1 22.9 M17.2 27.45 L16.95 27.4 15.55 27.2 Q14.5 27.6 13.9 29.1 L13.75 29.45 13.9 29.8 Q14.75 31.95 17.15 33.7 L17.3 33.8 M23.8 35.95 L23.9 35.95 24.5 35.9 24.7 35.9 23.9 35.95 M28.65 34.65 L29.1 34.4 M16.95 27.4 L17.1 25.6 17.25 25.0 M17.2 27.45 L17.9 28.2 Q18.3 29.3 18.35 30.6 L18.35 32.1 M18.0 40.5 L17.5 40.3 M18.0 40.5 L17.6 40.35 M15.7 39.5 L15.4 39.3 14.0 38.45 12.3 37.1 M16.95 40.1 L15.7 39.5 M28.65 34.65 Q27.3 35.4 25.8 35.7 L24.9 35.85 24.7 35.9 M23.8 35.95 L23.75 35.95 23.35 35.95 M24.95 41.75 L24.45 41.85 22.0 41.6 M26.0 42.25 L25.35 41.65 24.95 41.75 M26.45 42.65 L26.0 42.25 M26.45 42.65 L26.5 42.65 M8.6 32.25 L8.0 30.95" fill="none" stroke="#000000" stroke-linecap="round" stroke-linejoin="round" stroke-opacity="0.3019608" stroke-width="0.30000000000000004"/>
      <path d="M12.1 43.5 L12.05 43.6" fill="none" stroke="#74511d" stroke-linecap="round" stroke-linejoin="round" stroke-width="0.05"/>
      <path d="M19.6 9.85 L19.1 10.25 18.5 10.0 18.65 8.45 19.25 8.1 Q19.2 9.0 19.6 9.85 M19.25 10.95 L19.3 10.5 20.45 9.55 21.05 9.7 20.8 10.25 20.6 10.5 20.45 10.7 20.35 10.7 19.9 10.8 19.7 10.85 19.25 10.95" fill="#cc6b22" fill-rule="evenodd" stroke="none"/>
      <path d="M17.7 9.95 L18.9 10.5 19.1 11.0 18.5 11.15 18.45 11.15 18.25 11.1 17.7 9.95 M21.1 9.6 L20.45 9.25 20.4 7.85 21.05 8.3 21.15 8.85 21.15 8.9 21.1 9.6" fill="#f4a33c" fill-rule="evenodd" stroke="none"/>
      <path d="M19.25 8.1 L19.8 7.75 20.1 8.05 20.25 8.85 20.05 9.45 19.6 9.85 Q19.2 9.0 19.25 8.1 M18.5 10.0 L17.9 9.8 18.3 8.65 18.65 8.45 18.5 10.0" fill="#ffde4f" fill-rule="evenodd" stroke="none"/>
      <path d="M19.6 9.85 L20.05 9.45 20.25 8.85 20.1 8.05 19.8 7.75 19.25 8.1 18.65 8.45 18.3 8.65 17.9 9.8 18.5 10.0 19.1 10.25 19.6 9.85 M17.7 9.95 L18.0 8.5 19.7 7.65 20.4 7.85 20.45 9.25 21.1 9.6 21.05 9.7 20.45 9.55 19.3 10.5 19.25 10.95 19.1 11.0 18.9 10.5 17.7 9.95" fill="#ffff98" fill-rule="evenodd" stroke="none"/>
      <path d="M20.4 7.85 L19.7 7.65 18.0 8.5 17.7 9.95 18.25 11.1 18.05 11.0 17.65 10.65 M19.1 11.0 L19.25 10.95 19.7 10.85 19.9 10.8 20.35 10.7 20.45 10.7 20.6 10.5 20.8 10.25 21.05 9.7 21.1 9.6 21.15 8.9 21.15 8.85 21.05 8.3 20.95 8.0 20.8 7.65 M20.4 7.85 L21.05 8.3 M19.1 11.0 L18.5 11.15 18.45 11.15 18.25 11.1" fill="none" stroke="#000000" stroke-linecap="round" stroke-linejoin="round" stroke-opacity="0.3019608" stroke-width="0.30000000000000004"/>
    </g>
    <g id="sprite1" transform="matrix(1.0, 0.0, 0.0, 1.0, 0.0, 0.0)">
      <use height="26.7" transform="matrix(0.0042, -1.3515, 1.3935, 0.02, 22.09, 56.0263)" width="26.7" xlink:href="#sprite2"/>
      <use height="26.7" transform="matrix(0.0095, -3.0486, 0.372, 0.0053, 36.507, 81.3775)" width="26.7" xlink:href="#sprite2"/>
      <use height="26.7" transform="matrix(3.0486, 0.0095, -0.0053, 0.372, 0.1225, 35.107)" width="26.7" xlink:href="#sprite2"/>
    </g>
    <g id="sprite2" transform="matrix(1.0, 0.0, 0.0, 1.0, 13.35, 13.35)">
      <use height="26.7" transform="matrix(1.0, 0.0, 0.0, 1.0, -13.35, -13.35)" width="26.7" xlink:href="#shape1"/>
    </g>
    <g id="shape1" transform="matrix(1.0, 0.0, 0.0, 1.0, 13.35, 13.35)">
      <path d="M9.3 -9.85 Q13.35 -5.8 13.35 0.0 13.35 5.8 9.3 9.3 5.8 13.35 0.0 13.35 -5.8 13.35 -9.85 9.3 -13.35 5.8 -13.35 0.0 -13.35 -5.8 -9.85 -9.85 -5.8 -13.35 0.0 -13.35 5.8 -13.35 9.3 -9.85" fill="url(#gradient0)" fill-rule="evenodd" stroke="none"/>
    </g>
    <radialGradient cx="0" cy="0" gradientTransform="matrix(0.0213, 0.0, 0.0, 0.0213, 0.0, 0.0)" gradientUnits="userSpaceOnUse" id="gradient0" r="819.2" spreadMethod="pad">
      <stop offset="0.19607843137254902" stop-color="#fee3bc" stop-opacity="0.41960785"/>
      <stop offset="0.5019607843137255" stop-color="#fee3bc" stop-opacity="0.06666667"/>
      <stop offset="0.7607843137254902" stop-color="#ffe3bd" stop-opacity="0.0"/>
    </radialGradient>
    <g id="shape2" transform="matrix(1.0, 0.0, 0.0, 1.0, -38.85, -15.5)">
      <path d="M40.7 19.6 L40.9 18.8 42.2 18.1 42.75 18.4 42.4 18.9 42.2 19.1 Q41.55 19.7 40.7 19.6 M40.25 18.2 L40.6 16.6 41.3 16.35 Q41.05 17.25 41.3 18.2 L40.8 18.55 40.25 18.2" fill="#cc6b22" fill-rule="evenodd" stroke="none"/>
      <path d="M39.45 17.9 L40.55 18.75 40.7 19.6 40.4 19.5 39.8 19.25 39.45 17.9 M42.8 18.3 L42.25 17.8 42.4 16.3 43.0 16.9 43.0 17.5 43.0 17.55 42.8 18.3" fill="#f4a33c" fill-rule="evenodd" stroke="none"/>
      <path d="M40.25 18.2 L39.65 17.8 40.25 16.7 40.6 16.6 40.25 18.2 M41.3 16.35 L41.85 16.1 42.1 16.45 42.1 17.3 41.85 17.9 41.3 18.2 Q41.05 17.25 41.3 16.35" fill="#ffde4f" fill-rule="evenodd" stroke="none"/>
      <path d="M39.45 17.9 L40.0 16.5 41.75 15.95 42.4 16.3 42.25 17.8 42.8 18.3 42.75 18.4 42.2 18.1 40.9 18.8 40.7 19.6 40.55 18.75 39.45 17.9 M40.6 16.6 L40.25 16.7 39.65 17.8 40.25 18.2 40.8 18.55 41.3 18.2 41.85 17.9 42.1 17.3 42.1 16.45 41.85 16.1 41.3 16.35 40.6 16.6" fill="#ffff98" fill-rule="evenodd" stroke="none"/>
      <path d="M42.4 16.3 L41.75 15.95 40.0 16.5 39.45 17.9 39.8 19.25 39.65 19.1 39.3 18.7 M42.75 18.4 L42.8 18.3 43.0 17.55 43.0 17.5 43.0 16.9 42.95 16.6 42.8 16.2 M42.4 16.3 L43.0 16.9 M42.75 18.4 L42.4 18.9 42.2 19.1 Q41.55 19.7 40.7 19.6 L40.4 19.5 39.8 19.25" fill="none" stroke="#000000" stroke-linecap="round" stroke-linejoin="round" stroke-opacity="0.3019608" stroke-width="0.30000000000000004"/>
    </g>
  </defs>
</svg>
