<?xml version="1.0" encoding="UTF-8" standalone="no"?>
<svg xmlns:xlink="http://www.w3.org/1999/xlink" height="52.0px" width="52.0px" xmlns="http://www.w3.org/2000/svg">
  <g transform="matrix(1.0, 0.0, 0.0, 1.0, 0.0, 0.0)">
    <use height="54.0" transform="matrix(1.0, 0.0, 0.0, 1.0, -1.0, -1.0)" width="54.0" xlink:href="#shape0"/>
    <use height="0.0" transform="matrix(0.1773, 0.0, -0.013, 0.2175, 32.55, 21.45)" width="0.0" xlink:href="#sprite0"/>
    <use height="81.5" transform="matrix(0.1259, 0.0, 0.0, 0.1264, 33.25, 7.0)" width="81.5" xlink:href="#sprite1"/>
    <use height="81.5" transform="matrix(0.1259, 0.0, 0.0, 0.1264, 8.75, 17.1)" width="81.5" xlink:href="#sprite1"/>
    <use height="12.9" transform="matrix(1.0, 0.0, 0.0, 1.0, 10.1, 35.55)" width="19.0" xlink:href="#shape2"/>
    <use height="0.0" transform="matrix(0.0873, 0.0504, -0.0263, 0.0398, 18.4, 41.2)" width="0.0" xlink:href="#sprite0"/>
    <use height="81.5" transform="matrix(0.0906, 0.0, 0.0, 0.091, 19.05, 40.8)" width="81.5" xlink:href="#sprite1"/>
  </g>
  <defs>
    <g id="shape0" transform="matrix(1.0, 0.0, 0.0, 1.0, 1.0, 1.0)">
      <path d="M52.0 0.0 L52.0 52.0 0.0 52.0 0.0 0.0 52.0 0.0" fill="#795fa9" fill-opacity="0.0" fill-rule="evenodd" stroke="none"/>
      <path d="M42.6 9.1 Q37.45 3.9 30.2 4.0 23.85 4.1 19.1 8.15 L18.15 9.05 17.7 9.45 Q16.25 11.0 15.25 12.65 L12.9 13.15 Q11.3 13.6 9.85 14.35 7.65 15.45 5.7 17.15 L5.55 17.35 Q3.3 19.6 4.75 24.0 6.6 28.45 10.15 28.5 L10.9 28.5 12.4 28.05 13.3 27.6 Q14.0 30.1 15.45 32.2 16.45 34.0 17.6 35.0 L17.35 35.3 17.15 35.65 16.7 36.45 13.15 36.25 Q10.9 36.75 10.6 38.7 L10.6 38.8 10.6 39.2 10.65 39.9 Q10.9 40.65 11.7 41.65 13.25 43.55 16.0 45.3 L17.25 46.1 17.35 46.2 19.3 47.15 21.0 47.75 22.85 48.0 22.95 48.0 23.1 47.95 23.4 47.9 23.75 47.75 24.05 47.65 Q25.5 46.95 25.65 45.4 25.85 43.45 24.0 41.2 L23.9 41.05 24.4 40.55 24.6 40.3 25.5 39.65 27.05 39.9 30.2 40.15 Q33.55 40.1 36.5 38.9 39.85 37.55 42.6 34.65 47.8 29.3 47.8 21.8 47.8 15.1 43.65 10.2 L42.6 9.1 M21.75 38.15 L21.55 38.3 21.25 38.6 20.05 37.85 20.35 37.25 21.7 38.1 21.75 38.15" fill="none" stroke="#000000" stroke-linecap="round" stroke-linejoin="round" stroke-opacity="0.3019608" stroke-width="1.0"/>
      <path d="M17.95 34.65 Q18.85 33.6 19.6 34.05 L20.0 34.3 Q20.3 34.55 20.25 35.1 19.5 33.9 18.45 34.85 L17.8 35.7 Q16.95 36.9 16.5 38.55 L16.25 40.05 15.85 39.8 15.75 39.65 15.85 39.0 16.0 38.45 16.3 37.55 Q16.65 36.45 17.15 35.7 L17.35 35.35 17.95 34.65" fill="#f0f0d2" fill-rule="evenodd" stroke="none"/>
      <path d="M15.85 39.8 L16.25 40.05 16.5 38.55 Q16.95 36.9 17.8 35.7 L18.45 34.85 Q19.5 33.9 20.25 35.1 L19.1 36.85 Q18.5 37.65 18.1 38.75 17.85 39.35 17.75 40.2 17.6 40.65 17.6 41.05 L16.4 40.15 16.25 40.05 16.4 40.15 17.6 41.05 17.7 41.45 Q17.65 41.9 17.15 41.7 L16.9 41.65 15.85 39.8 M21.75 35.45 Q20.95 36.3 20.65 36.85 19.95 37.7 19.65 38.65 L19.55 39.0 19.3 40.25 19.3 41.25 19.15 41.05 18.55 41.35 18.65 40.25 18.7 39.8 19.0 38.85 Q19.35 37.75 20.0 37.0 L20.05 37.0 Q20.85 35.9 21.75 35.45" fill="#d5d580" fill-rule="evenodd" stroke="none"/>
      <path d="M20.25 35.1 Q21.0 34.7 21.45 34.6 22.65 34.2 21.75 35.45 20.85 35.9 20.05 37.0 L20.0 37.0 Q19.35 37.75 19.0 38.85 L18.7 39.8 18.65 40.25 18.55 41.35 17.2 42.15 16.9 41.65 17.15 41.7 Q17.65 41.9 17.7 41.45 L17.6 41.05 Q17.6 40.65 17.75 40.2 17.85 39.35 18.1 38.75 18.5 37.65 19.1 36.85 L20.25 35.1" fill="#bfbf40" fill-rule="evenodd" stroke="none"/>
      <path d="M17.95 34.65 L17.35 35.35 17.15 35.7 Q16.65 36.45 16.3 37.55 L16.0 38.45 15.85 39.0 15.75 39.65 M15.85 39.8 L16.25 40.05 16.4 40.15 17.6 41.05 M21.75 35.45 Q20.95 36.3 20.65 36.85 19.95 37.7 19.65 38.65 L19.55 39.0 19.3 40.25 19.3 41.25" fill="none" stroke="#000000" stroke-linecap="round" stroke-linejoin="round" stroke-opacity="0.3019608" stroke-width="0.30000000000000004"/>
      <path d="M38.65 10.2 Q38.6 9.3 38.05 8.55 L36.9 7.65 35.85 7.6 Q34.5 7.7 33.75 8.45 L33.15 8.45 33.55 8.0 Q34.35 7.2 35.9 7.05 37.45 6.85 38.4 8.15 39.2 9.2 39.1 10.7 L38.65 10.2 M37.55 26.35 Q41.2 25.75 42.9 22.5 44.65 19.2 43.9 15.6 43.1 11.95 42.15 10.75 L41.65 10.2 Q36.8 5.35 29.9 5.35 26.7 5.35 24.0 6.4 L21.9 6.55 19.8 7.9 21.9 6.55 24.0 6.4 24.05 6.4 Q24.75 6.7 24.45 7.85 L24.0 7.75 Q24.25 6.65 23.3 6.55 21.95 6.85 20.75 7.65 L19.8 7.9 19.2 8.45 18.65 9.1 17.6 10.75 16.15 12.55 15.2 12.65 17.7 9.45 18.1 9.05 19.1 8.15 Q23.8 4.1 30.15 4.0 37.45 3.9 42.6 9.1 L43.6 10.2 Q44.3 12.05 44.6 14.1 L44.75 16.65 44.75 16.95 44.75 17.35 Q44.35 20.65 43.25 22.65 L43.2 22.85 43.05 23.05 42.5 23.95 40.9 25.6 Q39.8 26.45 37.55 26.35 M10.15 28.55 Q6.55 28.45 4.75 24.0 3.3 19.55 5.55 17.35 L5.7 17.15 Q7.65 15.45 9.85 14.35 11.3 13.6 12.9 13.15 6.8 15.75 7.95 16.8 L9.15 16.85 Q11.5 18.0 12.5 20.8 13.35 24.3 12.5 26.0 11.5 27.8 9.55 27.7 7.3 27.05 5.55 24.5 5.75 25.9 7.55 27.4 9.0 28.4 10.95 28.25 L10.15 28.55 M8.6 18.1 Q6.4 17.15 5.4 18.85 4.4 21.15 5.8 23.85 7.4 26.25 9.15 26.5 L9.45 26.6 10.55 26.6 11.5 25.95 11.9 25.3 12.05 24.8 Q12.35 23.3 11.7 21.55 11.05 19.75 9.8 18.75 L9.8 18.7 9.75 18.7 8.8 18.15 8.75 18.15 8.7 18.1 8.6 18.1" fill="#f9f8ec" fill-rule="evenodd" stroke="none"/>
      <path d="M39.1 10.7 Q39.2 9.2 38.4 8.15 37.45 6.85 35.9 7.05 34.35 7.2 33.55 8.0 L33.15 8.45 Q32.6 9.3 32.15 10.85 L32.05 11.1 Q31.6 12.95 32.1 14.35 32.7 15.75 34.35 15.75 36.0 15.75 37.35 14.35 38.4 13.35 38.8 12.15 L39.05 11.2 39.1 10.7 M33.75 8.45 Q34.5 7.7 35.85 7.6 L36.9 7.65 Q37.35 8.45 37.3 9.25 35.75 8.45 33.75 8.45 M24.0 6.4 Q26.7 5.35 29.9 5.35 36.8 5.35 41.65 10.2 L42.15 10.75 Q43.1 11.95 43.9 15.6 44.65 19.2 42.9 22.5 41.2 25.75 37.55 26.35 33.85 25.9 30.1 20.65 28.45 18.65 26.15 17.55 L23.85 16.75 Q21.3 16.3 17.55 17.25 13.35 18.55 10.9 17.1 13.05 18.75 13.65 21.05 14.2 23.35 14.05 24.3 L16.25 24.35 15.3 25.05 14.15 25.85 13.95 25.25 Q13.65 26.35 13.05 27.05 L12.35 27.55 10.95 28.25 Q9.0 28.4 7.55 27.4 5.75 25.9 5.55 24.5 7.3 27.05 9.55 27.7 11.5 27.8 12.5 26.0 13.35 24.3 12.5 20.8 11.5 18.0 9.15 16.85 L7.95 16.8 Q6.8 15.75 12.9 13.15 L15.2 12.65 16.15 12.55 17.6 10.75 17.35 11.3 17.1 12.5 17.5 12.5 19.95 12.55 20.75 12.65 22.3 11.3 23.45 9.85 24.3 8.3 24.45 7.85 Q24.75 6.7 24.05 6.4 L24.0 6.4 M23.95 13.3 L22.15 12.9 20.75 12.65 22.15 12.9 23.95 13.3 M24.2 33.95 Q21.65 33.55 19.4 32.4 L18.75 32.05 Q16.7 30.9 14.9 29.15 L14.85 29.1 14.1 27.65 Q15.75 29.95 18.5 31.6 20.95 33.05 24.2 33.95 M7.3 18.0 Q6.15 18.35 5.8 19.8 5.45 21.3 6.1 23.05 6.8 24.85 8.05 25.9 L9.15 26.5 Q7.4 26.25 5.8 23.85 4.4 21.15 5.4 18.85 6.4 17.15 8.6 18.1 L7.3 18.0 M20.75 7.65 Q21.95 6.85 23.3 6.55 23.55 7.05 23.3 7.65 22.05 7.45 20.75 7.65 M16.15 12.55 L17.1 12.5 16.15 12.55" fill="#f0f0d2" fill-rule="evenodd" stroke="none"/>
      <path d="M36.9 7.65 L38.05 8.55 Q38.6 9.3 38.65 10.2 L37.3 9.25 Q37.35 8.45 36.9 7.65 M44.6 14.1 Q44.3 12.05 43.6 10.2 47.75 15.1 47.75 21.8 47.75 29.3 42.6 34.65 39.8 37.55 36.45 38.9 33.55 40.1 30.15 40.15 L27.05 39.9 Q24.55 39.6 23.35 38.9 L21.7 38.1 18.7 36.0 18.2 35.5 Q16.65 34.4 15.4 32.2 14.0 30.05 13.25 27.6 L13.4 27.5 14.05 27.05 14.2 26.95 15.5 25.8 Q16.1 25.3 16.8 24.95 16.1 25.3 15.5 25.8 L14.2 26.95 14.05 27.05 13.4 27.5 13.25 27.6 12.4 28.05 10.85 28.5 10.15 28.55 10.95 28.25 12.35 27.55 13.05 27.05 Q13.65 26.35 13.95 25.25 L14.15 25.85 15.3 25.05 16.25 24.35 16.3 24.35 17.1 24.0 Q18.65 23.3 20.75 23.1 22.85 22.9 25.4 23.85 L24.45 23.95 Q20.3 23.6 17.65 24.6 L16.8 24.95 Q22.2 25.55 25.3 30.55 26.9 33.75 24.45 34.0 L24.2 33.95 Q20.95 33.05 18.5 31.6 15.75 29.95 14.1 27.65 L14.85 29.1 15.4 30.15 16.45 31.9 Q17.4 33.5 18.8 34.8 L19.75 35.65 21.95 36.9 23.0 37.35 24.25 37.65 Q25.75 38.3 28.55 38.55 L29.9 38.6 Q32.6 38.6 35.0 37.85 38.7 36.65 41.65 33.7 46.5 28.85 46.5 21.95 46.5 18.65 45.4 15.85 L44.6 14.1 M17.6 10.75 L18.65 9.1 19.2 8.45 19.8 7.9 20.75 7.65 19.25 9.0 19.1 9.2 18.65 9.85 18.2 10.5 Q17.5 11.65 17.5 12.5 L17.1 12.5 17.35 11.3 17.6 10.75 M9.15 26.5 L8.05 25.9 Q6.8 24.85 6.1 23.05 5.45 21.3 5.8 19.8 6.15 18.35 7.3 18.0 5.95 20.65 7.3 23.5 L8.2 24.75 Q9.4 25.85 11.5 25.95 L10.55 26.6 9.45 26.6 9.15 26.5 M23.3 6.55 Q24.25 6.65 24.0 7.75 L23.3 7.65 Q23.55 7.05 23.3 6.55 M9.75 18.7 L9.8 18.7 9.8 18.75 9.75 18.7" fill="#d5d580" fill-rule="evenodd" stroke="none"/>
      <path d="M38.65 10.2 L39.1 10.7 39.05 11.2 38.8 12.15 Q38.4 13.35 37.35 14.35 36.0 15.75 34.35 15.75 32.7 15.75 32.1 14.35 31.6 12.95 32.05 11.1 L32.15 10.85 Q32.6 9.3 33.15 8.45 L33.75 8.45 Q33.05 9.15 32.55 10.95 L32.5 11.2 32.3 12.4 35.35 12.3 34.4 12.95 Q33.0 13.8 32.3 12.95 L32.55 13.95 Q33.05 15.2 34.5 15.2 35.95 15.2 37.15 14.0 38.0 13.15 38.4 12.1 L38.65 11.25 38.65 10.2 M37.55 26.35 Q39.8 26.45 40.9 25.6 L42.5 23.95 43.05 23.05 43.2 22.85 43.25 22.65 43.3 22.65 Q44.9 19.55 45.25 20.7 45.55 21.2 45.05 23.85 L44.55 25.2 Q37.95 36.2 29.2 36.0 L28.4 36.0 26.05 36.0 Q22.6 35.55 20.7 34.6 L17.3 32.5 16.45 31.9 15.4 30.15 14.85 29.1 14.9 29.15 Q16.7 30.9 18.75 32.05 L19.4 32.4 Q21.65 33.55 24.2 33.95 L24.45 34.0 Q26.9 33.75 25.3 30.55 22.2 25.55 16.8 24.95 L17.65 24.6 Q21.55 23.9 24.3 24.75 25.8 25.25 26.1 24.5 26.2 24.15 25.4 23.85 22.85 22.9 20.75 23.1 18.65 23.3 17.1 24.0 L16.3 24.35 16.25 24.35 14.05 24.3 Q14.2 23.35 13.65 21.05 13.05 18.75 10.9 17.1 13.35 18.55 17.55 17.25 21.3 16.3 23.85 16.75 L26.15 17.55 Q28.45 18.65 30.1 20.65 33.85 25.9 37.55 26.35 M24.45 7.85 L24.3 8.3 23.45 9.85 22.3 11.3 20.75 12.65 19.95 12.55 Q21.95 11.25 23.05 9.8 L23.7 8.55 24.0 7.75 24.45 7.85 M18.65 9.85 Q18.65 10.65 20.55 10.05 18.85 10.95 18.2 10.5 L18.65 9.85" fill="#bfbf40" fill-rule="evenodd" stroke="none"/>
      <path d="M35.35 12.3 L32.3 12.4 32.5 11.2 32.55 10.95 Q33.05 9.15 33.75 8.45 35.75 8.45 37.3 9.25 L36.9 10.55 36.05 11.7 35.35 12.3 M43.25 22.65 Q44.35 20.65 44.75 17.35 L44.75 16.95 44.75 16.65 44.6 14.1 45.4 15.85 Q46.5 18.65 46.5 21.95 46.5 28.85 41.65 33.7 38.7 36.65 35.0 37.85 32.6 38.6 29.9 38.6 L28.55 38.55 Q25.75 38.3 24.25 37.65 L23.0 37.35 21.95 36.9 19.75 35.65 18.8 34.8 Q17.4 33.5 16.45 31.9 L17.3 32.5 20.7 34.6 Q22.6 35.55 26.05 36.0 L28.4 36.0 29.2 36.0 Q37.95 36.2 44.55 25.2 L45.05 23.85 Q45.55 21.2 45.25 20.7 44.9 19.55 43.3 22.65 L43.25 22.65 M25.4 23.85 Q26.2 24.15 26.1 24.5 25.8 25.25 24.3 24.75 21.55 23.9 17.65 24.6 20.3 23.6 24.45 23.95 L25.4 23.85 M11.5 25.95 Q9.4 25.85 8.2 24.75 7.8 22.8 11.7 21.55 12.35 23.3 12.05 24.8 L11.9 25.3 11.5 25.95 M18.65 9.85 L19.1 9.2 19.25 9.0 20.75 7.65 Q22.05 7.45 23.3 7.65 22.95 8.45 21.45 9.55 L20.9 9.85 20.55 10.05 Q18.65 10.65 18.65 9.85" fill="#a6a637" fill-rule="evenodd" stroke="none"/>
      <path d="M37.3 9.25 L38.65 10.2 38.65 11.25 38.4 12.1 Q38.0 13.15 37.15 14.0 35.95 15.2 34.5 15.2 33.05 15.2 32.55 13.95 L32.3 12.95 Q33.0 13.8 34.4 12.95 L35.35 12.3 36.05 11.7 36.9 10.55 37.3 9.25 M7.3 18.0 L8.6 18.1 8.7 18.1 8.75 18.15 8.8 18.15 9.75 18.7 9.8 18.75 Q11.05 19.75 11.7 21.55 7.8 22.8 8.2 24.75 L7.3 23.5 Q5.95 20.65 7.3 18.0 M20.55 10.05 L20.9 9.85 21.45 9.55 Q22.95 8.45 23.3 7.65 L24.0 7.75 23.7 8.55 23.05 9.8 Q21.95 11.25 19.95 12.55 L17.5 12.5 Q17.5 11.65 18.2 10.5 18.85 10.95 20.55 10.05" fill="#86862d" fill-rule="evenodd" stroke="none"/>
      <path d="M39.1 10.7 Q39.2 9.2 38.4 8.15 37.45 6.85 35.9 7.05 34.35 7.2 33.55 8.0 L33.15 8.45 Q32.6 9.3 32.15 10.85 L32.05 11.1 Q31.6 12.95 32.1 14.35 32.7 15.75 34.35 15.75 36.0 15.75 37.35 14.35 38.4 13.35 38.8 12.15 L39.05 11.2 39.1 10.7 M43.6 10.2 L42.6 9.1 Q37.45 3.9 30.15 4.0 23.8 4.1 19.1 8.15 L18.1 9.05 17.7 9.45 15.2 12.65 16.15 12.55 17.1 12.5 17.5 12.5 19.95 12.55 20.75 12.65 22.15 12.9 23.95 13.3 M17.6 10.75 L18.65 9.1 19.2 8.45 19.8 7.9 21.9 6.55 24.0 6.4 24.05 6.4 Q24.75 6.7 24.45 7.85 L24.3 8.3 23.45 9.85 22.3 11.3 20.75 12.65 M17.65 24.6 L16.8 24.95 Q16.1 25.3 15.5 25.8 L14.2 26.95 14.05 27.05 13.4 27.5 13.25 27.6 12.4 28.05 10.85 28.5 10.15 28.55 Q6.55 28.45 4.75 24.0 3.3 19.55 5.55 17.35 L5.7 17.15 Q7.65 15.45 9.85 14.35 11.3 13.6 12.9 13.15 L15.2 12.65 M13.25 27.6 Q14.0 30.05 15.4 32.2 16.65 34.4 18.2 35.5 L18.7 36.0 21.7 38.1 23.35 38.9 Q24.55 39.6 27.05 39.9 L30.15 40.15 Q33.55 40.1 36.45 38.9 39.8 37.55 42.6 34.65 47.75 29.3 47.75 21.8 47.75 15.1 43.6 10.2 M7.3 18.0 L8.6 18.1 8.7 18.1 8.75 18.15 8.8 18.15 9.75 18.7 9.8 18.75 Q11.05 19.75 11.7 21.55 12.35 23.3 12.05 24.8 L11.9 25.3 11.5 25.95 M17.6 10.75 L17.35 11.3 17.1 12.5 M17.65 24.6 Q20.3 23.6 24.45 23.95" fill="none" stroke="#000000" stroke-linecap="round" stroke-linejoin="round" stroke-opacity="0.3019608" stroke-width="0.30000000000000004"/>
      <path d="M17.35 14.5 L15.95 14.8 14.6 14.5 Q14.0 14.25 14.0 13.8 14.0 13.4 14.6 13.1 15.15 12.8 15.95 12.8 L17.35 13.1 Q17.9 13.4 17.9 13.8 17.9 14.25 17.35 14.5" fill="#f9f8ec" fill-rule="evenodd" stroke="none"/>
      <path d="M30.95 7.4 L28.9 7.85 26.85 7.4 Q26.0 6.95 26.0 6.35 26.0 5.75 26.85 5.3 L28.9 4.9 30.95 5.3 Q31.8 5.75 31.8 6.35 31.8 6.95 30.95 7.4" fill="#f9f8ec" fill-rule="evenodd" stroke="none"/>
    </g>
    <g id="sprite1" transform="matrix(1.0, 0.0, 0.0, 1.0, 0.0, 0.0)">
      <use height="26.7" transform="matrix(0.0042, -1.3515, 1.3935, 0.02, 22.09, 56.0263)" width="26.7" xlink:href="#sprite2"/>
      <use height="26.7" transform="matrix(0.0095, -3.0486, 0.372, 0.0053, 36.507, 81.3775)" width="26.7" xlink:href="#sprite2"/>
      <use height="26.7" transform="matrix(3.0486, 0.0095, -0.0053, 0.372, 0.1225, 35.107)" width="26.7" xlink:href="#sprite2"/>
    </g>
    <g id="sprite2" transform="matrix(1.0, 0.0, 0.0, 1.0, 13.35, 13.35)">
      <use height="26.7" transform="matrix(1.0, 0.0, 0.0, 1.0, -13.35, -13.35)" width="26.7" xlink:href="#shape1"/>
    </g>
    <g id="shape1" transform="matrix(1.0, 0.0, 0.0, 1.0, 13.35, 13.35)">
      <path d="M9.3 -9.85 Q13.35 -5.8 13.35 0.0 13.35 5.8 9.3 9.3 5.8 13.35 0.0 13.35 -5.8 13.35 -9.85 9.3 -13.35 5.8 -13.35 0.0 -13.35 -5.8 -9.85 -9.85 -5.8 -13.35 0.0 -13.35 5.8 -13.35 9.3 -9.85" fill="url(#gradient0)" fill-rule="evenodd" stroke="none"/>
    </g>
    <radialGradient cx="0" cy="0" gradientTransform="matrix(0.0213, 0.0, 0.0, 0.0213, 0.0, 0.0)" gradientUnits="userSpaceOnUse" id="gradient0" r="819.2" spreadMethod="pad">
      <stop offset="0.19607843137254902" stop-color="#fee3bc" stop-opacity="0.5568628"/>
      <stop offset="0.5019607843137255" stop-color="#fee3bc" stop-opacity="0.08627451"/>
      <stop offset="0.7607843137254902" stop-color="#ffe3bd" stop-opacity="0.0"/>
    </radialGradient>
    <g id="shape2" transform="matrix(1.0, 0.0, 0.0, 1.0, -10.1, -35.55)">
      <path d="M25.1 36.0 Q26.45 35.55 26.85 36.3 L27.05 36.65 26.9 37.55 Q26.85 36.1 25.45 36.4 L24.5 36.8 Q23.15 37.4 22.0 38.65 L21.0 39.8 20.75 39.4 20.75 39.35 20.75 39.2 21.15 38.7 21.55 38.3 Q21.9 37.95 22.3 37.65 L23.9 36.5 24.3 36.3 25.1 36.0" fill="#f0f0d2" fill-rule="evenodd" stroke="none"/>
      <path d="M26.9 37.55 L25.0 38.5 Q24.1 38.9 23.25 39.65 L22.15 40.7 21.6 41.35 21.55 41.75 Q21.3 42.1 20.9 41.65 L20.75 41.5 20.75 39.35 20.75 39.4 21.0 39.8 22.0 38.65 Q23.15 37.4 24.5 36.8 L25.45 36.4 Q26.85 36.1 26.9 37.55 M22.35 42.15 L22.95 41.15 23.2 40.85 23.9 40.15 Q24.8 39.4 25.75 39.05 27.05 38.55 28.05 38.6 L26.4 39.2 Q25.4 39.65 24.6 40.3 L24.4 40.55 Q23.9 40.95 23.55 41.5 L23.0 42.35 23.0 42.15 22.35 42.15 M21.6 41.35 L21.05 40.0 21.0 39.8 21.05 40.0 21.6 41.35" fill="#d5d580" fill-rule="evenodd" stroke="none"/>
      <path d="M26.9 37.55 L28.2 37.65 Q29.45 37.95 28.05 38.6 27.05 38.55 25.75 39.05 24.8 39.4 23.9 40.15 L23.2 40.85 22.95 41.15 22.35 42.15 20.75 42.15 20.75 41.5 20.9 41.65 Q21.3 42.1 21.55 41.75 L21.6 41.35 22.15 40.7 23.25 39.65 Q24.1 38.9 25.0 38.5 L26.9 37.55" fill="#bfbf40" fill-rule="evenodd" stroke="none"/>
      <path d="M28.05 38.6 L26.4 39.2 Q25.4 39.65 24.6 40.3 L24.4 40.55 Q23.9 40.95 23.55 41.5 L23.0 42.35 M25.1 36.0 L24.3 36.3 23.9 36.5 22.3 37.65 Q21.9 37.95 21.55 38.3 L21.15 38.7 20.75 39.2 M20.75 39.35 L20.75 39.4 21.0 39.8 21.05 40.0 21.6 41.35" fill="none" stroke="#000000" stroke-linecap="round" stroke-linejoin="round" stroke-opacity="0.3019608" stroke-width="0.30000000000000004"/>
      <path d="M10.6 39.25 L10.6 38.8 10.6 38.7 Q10.9 36.75 13.15 36.3 15.5 35.8 18.6 37.15 21.75 38.55 23.8 40.95 L24.0 41.25 Q25.8 43.5 25.65 45.45 25.5 47.0 24.0 47.65 L23.75 47.8 23.4 47.9 23.75 47.7 23.9 47.5 Q24.4 46.6 22.9 44.7 L20.15 42.1 18.65 41.05 18.5 40.95 Q16.55 39.7 14.75 39.0 L13.6 38.6 11.05 38.55 10.7 38.9 10.6 39.25 M16.8 39.4 L18.9 40.7 20.6 41.95 21.8 43.0 Q22.7 42.65 22.85 41.45 L22.95 40.7 Q20.85 38.7 18.65 37.6 16.75 36.7 14.8 36.5 12.05 36.55 11.45 37.85 L13.7 38.1 Q15.15 38.5 16.8 39.4 M25.15 44.0 L24.6 42.7 Q22.9 42.05 22.7 43.9 L23.2 44.55 24.25 46.15 24.35 47.05 Q25.0 46.8 25.3 45.65 L25.15 44.0" fill="#f9f8ec" fill-rule="evenodd" stroke="none"/>
      <path d="M16.8 39.4 Q15.15 38.5 13.7 38.1 L11.45 37.85 Q12.05 36.55 14.8 36.5 16.75 36.7 18.65 37.6 18.95 39.0 16.8 39.4" fill="#f0f0d2" fill-rule="evenodd" stroke="none"/>
      <path d="M18.65 37.6 Q20.85 38.7 22.95 40.7 L22.85 41.45 Q22.7 42.65 21.8 43.0 L20.6 41.95 18.9 40.7 16.8 39.4 Q18.95 39.0 18.65 37.6 M25.15 44.0 L25.3 45.65 Q25.0 46.8 24.35 47.05 L24.25 46.15 Q24.85 45.55 25.15 44.0" fill="#d5d580" fill-rule="evenodd" stroke="none"/>
      <path d="M24.25 46.15 L23.2 44.55 22.7 43.9 Q22.9 42.05 24.6 42.7 L25.15 44.0 Q24.85 45.55 24.25 46.15" fill="#bfbf40" fill-rule="evenodd" stroke="none"/>
      <path d="M22.85 48.0 L21.0 47.75 19.3 47.2 Q18.45 44.55 18.4 42.5 L18.5 40.95 18.65 41.05 20.15 42.1 22.9 44.7 Q24.4 46.6 23.9 47.5 L23.75 47.7 23.4 47.9 23.05 48.0 22.85 48.0 M17.2 46.15 L16.0 45.35 Q13.2 43.55 11.7 41.65 10.85 40.65 10.65 39.95 L10.6 39.25 10.7 38.9 11.05 38.55 13.6 38.6 14.75 39.0 Q16.05 41.0 16.65 42.9 17.2 44.55 17.2 46.15" fill="#a6a637" fill-rule="evenodd" stroke="none"/>
      <path d="M19.3 47.2 Q18.35 46.8 17.35 46.2 L17.2 46.15 Q17.2 44.55 16.65 42.9 16.05 41.0 14.75 39.0 16.55 39.7 18.5 40.95 L18.4 42.5 Q18.45 44.55 19.3 47.2" fill="#86862d" fill-rule="evenodd" stroke="none"/>
      <path d="M10.6 39.25 L10.6 38.8 10.6 38.7 Q10.9 36.75 13.15 36.3 15.5 35.8 18.6 37.15 21.75 38.55 23.8 40.95 L24.0 41.25 Q25.8 43.5 25.65 45.45 25.5 47.0 24.0 47.65 L23.75 47.8 23.4 47.9 22.85 48.0 21.0 47.75 19.3 47.2 Q18.35 46.8 17.35 46.2 L17.2 46.15 16.0 45.35 Q13.2 43.55 11.7 41.65 10.85 40.65 10.65 39.95 L10.6 39.25 M23.4 47.9 L23.05 48.0 22.85 48.0" fill="none" stroke="#000000" stroke-linecap="round" stroke-linejoin="round" stroke-opacity="0.3019608" stroke-width="0.30000000000000004"/>
    </g>
  </defs>
</svg>
