<?xml version="1.0" encoding="UTF-8" standalone="no"?>
<svg xmlns:xlink="http://www.w3.org/1999/xlink" height="52.0px" width="52.0px" xmlns="http://www.w3.org/2000/svg">
  <g transform="matrix(1.0, 0.0, 0.0, 1.0, 0.0, 0.0)">
    <use height="94.0" transform="matrix(1.0, 0.0, 0.0, 1.0, -21.0, -21.0)" width="94.0" xlink:href="#shape0"/>
    <use height="0.0" transform="matrix(0.1773, 0.0, -0.013, 0.2175, 32.6, 21.45)" width="0.0" xlink:href="#sprite0"/>
    <use height="81.5" transform="matrix(0.1259, 0.0, 0.0, 0.1264, 33.25, 7.0)" width="81.5" xlink:href="#sprite1"/>
    <use height="81.5" transform="matrix(0.1259, 0.0, 0.0, 0.1264, 8.8, 17.1)" width="81.5" xlink:href="#sprite1"/>
    <use height="24.9" transform="matrix(1.0, 0.0, 0.0, 1.0, 4.2, 29.55)" width="30.9" xlink:href="#shape2"/>
    <use height="0.0" transform="matrix(0.0873, 0.0504, -0.0263, 0.0398, 18.45, 41.2)" width="0.0" xlink:href="#sprite0"/>
    <use height="81.5" transform="matrix(0.0906, 0.0, 0.0, 0.091, 19.1, 40.8)" width="81.5" xlink:href="#sprite1"/>
  </g>
  <defs>
    <g id="shape0" transform="matrix(1.0, 0.0, 0.0, 1.0, 21.0, 21.0)">
      <path d="M52.0 0.0 L52.0 52.0 0.0 52.0 0.0 0.0 52.0 0.0" fill="#795fa9" fill-opacity="0.0" fill-rule="evenodd" stroke="none"/>
      <path d="M42.6 9.1 Q37.45 3.9 30.2 4.0 23.85 4.1 19.1 8.15 L18.15 9.05 17.7 9.45 Q16.25 11.0 15.25 12.65 L12.9 13.15 Q11.3 13.6 9.85 14.35 7.65 15.45 5.7 17.15 L5.55 17.35 Q3.3 19.6 4.75 24.0 6.6 28.45 10.15 28.5 L10.9 28.5 12.4 28.05 13.3 27.6 Q14.0 30.1 15.45 32.2 16.45 34.0 17.6 35.0 L17.35 35.3 17.15 35.65 16.7 36.45 13.15 36.25 Q10.9 36.75 10.6 38.7 L10.6 38.8 10.6 39.2 10.65 39.9 Q10.9 40.65 11.7 41.65 13.25 43.55 16.0 45.3 L17.25 46.1 17.35 46.2 19.3 47.15 21.0 47.75 22.85 48.0 22.95 48.0 23.1 47.95 23.4 47.9 23.75 47.75 24.05 47.65 Q25.5 46.95 25.65 45.4 25.85 43.45 24.0 41.2 L23.9 41.05 24.4 40.55 24.6 40.3 25.5 39.65 27.05 39.9 30.2 40.15 Q33.55 40.1 36.5 38.9 39.85 37.55 42.6 34.65 47.8 29.3 47.8 21.8 47.8 15.1 43.65 10.2 L42.6 9.1 M21.75 38.15 L21.55 38.3 21.25 38.6 20.05 37.85 20.35 37.25 21.7 38.1 21.75 38.15" fill="none" stroke="#000000" stroke-linecap="round" stroke-linejoin="round" stroke-opacity="0.3019608" stroke-width="1.0"/>
      <path d="M18.0 34.65 Q18.9 33.6 19.65 34.05 L20.05 34.3 Q20.35 34.55 20.3 35.1 19.55 33.9 18.5 34.85 L17.85 35.7 Q17.0 36.9 16.55 38.55 L16.3 40.05 15.9 39.8 15.8 39.65 15.9 39.0 16.05 38.45 16.35 37.55 Q16.7 36.45 17.2 35.7 L17.4 35.35 18.0 34.65" fill="#9ae17b" fill-rule="evenodd" stroke="none"/>
      <path d="M20.3 35.1 L19.15 36.85 Q18.55 37.65 18.15 38.75 17.9 39.35 17.8 40.2 L17.65 41.05 17.75 41.45 Q17.7 41.9 17.2 41.7 L16.95 41.65 15.9 39.8 16.3 40.05 16.55 38.55 Q17.0 36.9 17.85 35.7 L18.5 34.85 Q19.55 33.9 20.3 35.1 M18.6 41.35 L18.7 40.25 18.75 39.8 19.05 38.85 Q19.4 37.75 20.05 37.0 L20.1 37.0 Q20.9 35.9 21.8 35.45 21.0 36.3 20.7 36.85 20.0 37.7 19.7 38.65 L19.6 39.0 19.35 40.25 19.35 41.25 19.2 41.05 18.6 41.35 M17.65 41.05 L16.45 40.15 16.3 40.05 16.45 40.15 17.65 41.05" fill="#75d74a" fill-rule="evenodd" stroke="none"/>
      <path d="M20.3 35.1 Q21.05 34.7 21.5 34.6 22.7 34.2 21.8 35.45 20.9 35.9 20.1 37.0 L20.05 37.0 Q19.4 37.75 19.05 38.85 L18.75 39.8 18.7 40.25 18.6 41.35 17.25 42.15 16.95 41.65 17.2 41.7 Q17.7 41.9 17.75 41.45 L17.65 41.05 17.8 40.2 Q17.9 39.35 18.15 38.75 18.55 37.65 19.15 36.85 L20.3 35.1" fill="#339328" fill-rule="evenodd" stroke="none"/>
      <path d="M21.8 35.45 Q21.0 36.3 20.7 36.85 20.0 37.7 19.7 38.65 L19.6 39.0 19.35 40.25 19.35 41.25 M18.0 34.65 L17.4 35.35 17.2 35.7 Q16.7 36.45 16.35 37.55 L16.05 38.45 15.9 39.0 15.8 39.65 M15.9 39.8 L16.3 40.05 16.45 40.15 17.65 41.05" fill="none" stroke="#000000" stroke-linecap="round" stroke-linejoin="round" stroke-opacity="0.3019608" stroke-width="0.30000000000000004"/>
      <path d="M38.7 10.2 Q38.65 9.3 38.1 8.55 37.6 7.9 36.95 7.65 L35.9 7.6 Q34.55 7.7 33.8 8.45 L33.2 8.45 33.6 8.0 Q34.4 7.2 35.95 7.05 37.5 6.85 38.45 8.15 39.25 9.2 39.15 10.7 L38.7 10.2 M37.6 26.35 Q41.25 25.75 42.95 22.5 44.7 19.2 43.95 15.6 43.15 11.95 42.2 10.75 L41.7 10.2 Q36.85 5.35 29.95 5.35 26.75 5.35 24.05 6.4 L21.95 6.55 Q20.9 7.0 19.85 7.9 20.9 7.0 21.95 6.55 L24.05 6.4 24.1 6.4 Q24.8 6.7 24.5 7.85 L24.05 7.75 Q24.3 6.65 23.35 6.55 22.0 6.85 20.8 7.65 L19.85 7.9 19.25 8.45 18.7 9.1 17.65 10.75 16.2 12.55 15.25 12.65 17.75 9.45 18.15 9.05 19.15 8.15 Q23.85 4.1 30.2 4.0 37.5 3.9 42.65 9.1 L43.65 10.2 Q44.35 12.05 44.65 14.1 L44.8 16.65 44.8 16.95 44.8 17.35 Q44.4 20.65 43.3 22.65 L43.25 22.85 43.1 23.05 42.55 23.95 40.95 25.6 Q39.85 26.45 37.6 26.35 M8.65 18.1 Q6.45 17.15 5.45 18.85 4.45 21.15 5.85 23.85 7.45 26.25 9.2 26.5 L9.5 26.6 10.6 26.6 11.55 25.95 11.95 25.3 12.1 24.8 Q12.4 23.3 11.75 21.55 11.1 19.75 9.85 18.75 L9.85 18.7 9.8 18.7 8.85 18.15 8.8 18.15 8.75 18.1 8.65 18.1 M10.2 28.55 Q6.6 28.45 4.8 24.0 3.35 19.55 5.6 17.35 L5.75 17.15 Q7.7 15.45 9.9 14.35 11.35 13.6 12.95 13.15 6.85 15.75 8.0 16.8 L9.2 16.85 Q11.55 18.0 12.55 20.8 13.4 24.3 12.55 26.0 11.55 27.8 9.6 27.7 7.35 27.05 5.6 24.5 5.8 25.9 7.6 27.4 9.05 28.4 11.0 28.25 L10.2 28.55" fill="#d7f16b" fill-rule="evenodd" stroke="none"/>
      <path d="M39.15 10.7 Q39.25 9.2 38.45 8.15 37.5 6.85 35.95 7.05 34.4 7.2 33.6 8.0 L33.2 8.45 Q32.65 9.3 32.2 10.85 L32.1 11.1 Q31.65 12.95 32.15 14.35 32.75 15.75 34.4 15.75 36.05 15.75 37.4 14.35 38.45 13.35 38.85 12.15 L39.1 11.2 39.15 10.7 M33.8 8.45 Q34.55 7.7 35.9 7.6 L36.95 7.65 Q37.4 8.45 37.35 9.25 35.8 8.45 33.8 8.45 M24.05 6.4 Q26.75 5.35 29.95 5.35 36.85 5.35 41.7 10.2 L42.2 10.75 Q43.15 11.95 43.95 15.6 44.7 19.2 42.95 22.5 41.25 25.75 37.6 26.35 33.9 25.9 30.15 20.65 28.5 18.65 26.2 17.55 25.1 17.05 23.9 16.75 21.35 16.3 17.6 17.25 13.4 18.55 10.95 17.1 13.1 18.75 13.7 21.05 14.25 23.35 14.1 24.3 L16.3 24.35 15.35 25.05 14.2 25.85 14.0 25.25 Q13.7 26.35 13.1 27.05 L12.4 27.55 11.0 28.25 Q9.05 28.4 7.6 27.4 5.8 25.9 5.6 24.5 7.35 27.05 9.6 27.7 11.55 27.8 12.55 26.0 13.4 24.3 12.55 20.8 11.55 18.0 9.2 16.85 L8.0 16.8 Q6.85 15.75 12.95 13.15 L15.25 12.65 16.2 12.55 17.65 10.75 17.4 11.3 17.15 12.5 17.55 12.5 20.0 12.55 20.8 12.65 22.35 11.3 23.5 9.85 24.35 8.3 24.5 7.85 Q24.8 6.7 24.1 6.4 L24.05 6.4 M24.0 13.3 L22.2 12.9 20.8 12.65 22.2 12.9 24.0 13.3 M24.25 33.95 Q21.7 33.55 19.45 32.4 L18.8 32.05 Q16.75 30.9 14.95 29.15 L14.9 29.1 14.15 27.65 Q15.8 29.95 18.55 31.6 21.0 33.05 24.25 33.95 M7.35 18.0 Q6.2 18.35 5.85 19.8 5.5 21.3 6.15 23.05 6.85 24.85 8.1 25.9 L9.2 26.5 Q7.45 26.25 5.85 23.85 4.45 21.15 5.45 18.85 6.45 17.15 8.65 18.1 L7.35 18.0 M20.8 7.65 Q22.0 6.85 23.35 6.55 23.6 7.05 23.35 7.65 22.1 7.45 20.8 7.65 M16.2 12.55 L17.15 12.5 16.2 12.55" fill="#9ae17b" fill-rule="evenodd" stroke="none"/>
      <path d="M36.95 7.65 Q37.6 7.9 38.1 8.55 38.65 9.3 38.7 10.2 L37.35 9.25 Q37.4 8.45 36.95 7.65 M44.65 14.1 Q44.35 12.05 43.65 10.2 47.8 15.1 47.8 21.8 47.8 29.3 42.65 34.65 39.85 37.55 36.5 38.9 33.6 40.1 30.2 40.15 L27.1 39.9 Q24.6 39.6 23.4 38.9 L21.75 38.1 18.75 36.0 18.25 35.5 Q16.7 34.4 15.45 32.2 14.05 30.05 13.3 27.6 L12.45 28.05 10.9 28.5 10.2 28.55 11.0 28.25 12.4 27.55 13.1 27.05 Q13.7 26.35 14.0 25.25 L14.2 25.85 15.35 25.05 16.3 24.35 16.35 24.35 17.15 24.0 Q18.7 23.3 20.8 23.1 22.9 22.9 25.45 23.85 L24.5 23.95 Q20.35 23.6 17.7 24.6 L16.85 24.95 Q22.25 25.55 25.35 30.55 26.95 33.75 24.5 34.0 L24.25 33.95 Q21.0 33.05 18.55 31.6 15.8 29.95 14.15 27.65 L14.9 29.1 15.45 30.15 16.5 31.9 Q17.45 33.5 18.85 34.8 L19.8 35.65 22.0 36.9 23.05 37.35 24.3 37.65 Q25.8 38.3 28.6 38.55 L29.95 38.6 Q32.65 38.6 35.05 37.85 38.75 36.65 41.7 33.7 46.55 28.85 46.55 21.95 46.55 18.65 45.45 15.85 L44.65 14.1 M17.65 10.75 L18.7 9.1 19.25 8.45 19.85 7.9 20.8 7.65 Q20.0 8.2 19.3 9.0 L19.15 9.2 18.7 9.85 18.25 10.5 Q17.55 11.65 17.55 12.5 L17.15 12.5 17.4 11.3 17.65 10.75 M9.2 26.5 L8.1 25.9 Q6.85 24.85 6.15 23.05 5.5 21.3 5.85 19.8 6.2 18.35 7.35 18.0 6.0 20.65 7.35 23.5 L8.25 24.75 Q9.45 25.85 11.55 25.95 L10.6 26.6 9.5 26.6 9.2 26.5 M23.35 6.55 Q24.3 6.65 24.05 7.75 L23.35 7.65 Q23.6 7.05 23.35 6.55 M9.8 18.7 L9.85 18.7 9.85 18.75 9.8 18.7 M13.3 27.6 L13.45 27.5 14.1 27.05 14.25 26.95 15.55 25.8 Q16.15 25.3 16.85 24.95 16.15 25.3 15.55 25.8 L14.25 26.95 14.1 27.05 13.45 27.5 13.3 27.6" fill="#75d74a" fill-rule="evenodd" stroke="none"/>
      <path d="M38.7 10.2 L39.15 10.7 39.1 11.2 38.85 12.15 Q38.45 13.35 37.4 14.35 36.05 15.75 34.4 15.75 32.75 15.75 32.15 14.35 31.65 12.95 32.1 11.1 L32.2 10.85 Q32.65 9.3 33.2 8.45 L33.8 8.45 Q33.1 9.15 32.6 10.95 L32.55 11.2 32.35 12.4 35.4 12.3 34.45 12.95 Q33.05 13.8 32.35 12.95 L32.6 13.95 Q33.1 15.2 34.55 15.2 36.0 15.2 37.2 14.0 L38.45 12.1 38.7 11.25 38.7 10.2 M37.6 26.35 Q39.85 26.45 40.95 25.6 L42.55 23.95 43.1 23.05 43.25 22.85 43.3 22.65 43.35 22.65 Q44.95 19.55 45.3 20.7 45.6 21.2 45.1 23.85 L44.6 25.2 Q38.0 36.2 29.25 36.0 L28.45 36.0 26.1 36.0 Q22.65 35.55 20.75 34.6 L17.35 32.5 16.5 31.9 15.45 30.15 14.9 29.1 14.95 29.15 Q16.75 30.9 18.8 32.05 L19.45 32.4 Q21.7 33.55 24.25 33.95 L24.5 34.0 Q26.95 33.75 25.35 30.55 22.25 25.55 16.85 24.95 L17.7 24.6 Q21.6 23.9 24.35 24.75 25.85 25.25 26.15 24.5 26.25 24.15 25.45 23.85 22.9 22.9 20.8 23.1 18.7 23.3 17.15 24.0 L16.35 24.35 16.3 24.35 14.1 24.3 Q14.25 23.35 13.7 21.05 13.1 18.75 10.95 17.1 13.4 18.55 17.6 17.25 21.35 16.3 23.9 16.75 25.1 17.05 26.2 17.55 28.5 18.65 30.15 20.65 33.9 25.9 37.6 26.35 M24.5 7.85 L24.35 8.3 23.5 9.85 22.35 11.3 20.8 12.65 20.0 12.55 Q22.0 11.25 23.1 9.8 L23.75 8.55 24.05 7.75 24.5 7.85 M18.7 9.85 Q18.7 10.65 20.6 10.05 18.9 10.95 18.25 10.5 L18.7 9.85" fill="#339328" fill-rule="evenodd" stroke="none"/>
      <path d="M35.4 12.3 L32.35 12.4 32.55 11.2 32.6 10.95 Q33.1 9.15 33.8 8.45 35.8 8.45 37.35 9.25 L36.95 10.55 36.1 11.7 35.4 12.3 M43.3 22.65 Q44.4 20.65 44.8 17.35 L44.8 16.95 44.8 16.65 44.65 14.1 45.45 15.85 Q46.55 18.65 46.55 21.95 46.55 28.85 41.7 33.7 38.75 36.65 35.05 37.85 32.65 38.6 29.95 38.6 L28.6 38.55 Q25.8 38.3 24.3 37.65 L23.05 37.35 22.0 36.9 19.8 35.65 18.85 34.8 Q17.45 33.5 16.5 31.9 L17.35 32.5 20.75 34.6 Q22.65 35.55 26.1 36.0 L28.45 36.0 29.25 36.0 Q38.0 36.2 44.6 25.2 L45.1 23.85 Q45.6 21.2 45.3 20.7 44.95 19.55 43.35 22.65 L43.3 22.65 M25.45 23.85 Q26.25 24.15 26.15 24.5 25.85 25.25 24.35 24.75 21.6 23.9 17.7 24.6 20.35 23.6 24.5 23.95 L25.45 23.85 M11.55 25.95 Q9.45 25.85 8.25 24.75 7.85 22.8 11.75 21.55 12.4 23.3 12.1 24.8 L11.95 25.3 11.55 25.95 M18.7 9.85 L19.15 9.2 19.3 9.0 Q20.0 8.2 20.8 7.65 22.1 7.45 23.35 7.65 23.0 8.45 21.5 9.55 L20.95 9.85 20.6 10.05 Q18.7 10.65 18.7 9.85" fill="#246c41" fill-rule="evenodd" stroke="none"/>
      <path d="M37.35 9.25 L38.7 10.2 38.7 11.25 38.45 12.1 37.2 14.0 Q36.0 15.2 34.55 15.2 33.1 15.2 32.6 13.95 L32.35 12.95 Q33.05 13.8 34.45 12.95 L35.4 12.3 36.1 11.7 36.95 10.55 37.35 9.25 M7.35 18.0 L8.65 18.1 8.75 18.1 8.8 18.15 8.85 18.15 9.8 18.7 9.85 18.75 Q11.1 19.75 11.75 21.55 7.85 22.8 8.25 24.75 L7.35 23.5 Q6.0 20.65 7.35 18.0 M20.6 10.05 L20.95 9.85 21.5 9.55 Q23.0 8.45 23.35 7.65 L24.05 7.75 23.75 8.55 23.1 9.8 Q22.0 11.25 20.0 12.55 L17.55 12.5 Q17.55 11.65 18.25 10.5 18.9 10.95 20.6 10.05" fill="#206039" fill-rule="evenodd" stroke="none"/>
      <path d="M39.15 10.7 Q39.25 9.2 38.45 8.15 37.5 6.85 35.95 7.05 34.4 7.2 33.6 8.0 L33.2 8.45 Q32.65 9.3 32.2 10.85 L32.1 11.1 Q31.65 12.95 32.15 14.35 32.75 15.75 34.4 15.75 36.05 15.75 37.4 14.35 38.45 13.35 38.85 12.15 L39.1 11.2 39.15 10.7 M43.65 10.2 L42.65 9.1 Q37.5 3.9 30.2 4.0 23.85 4.1 19.15 8.15 L18.15 9.05 17.75 9.45 15.25 12.65 16.2 12.55 17.15 12.5 17.55 12.5 20.0 12.55 20.8 12.65 22.2 12.9 24.0 13.3 M17.65 10.75 L18.7 9.1 19.25 8.45 19.85 7.9 Q20.9 7.0 21.95 6.55 L24.05 6.4 24.1 6.4 Q24.8 6.7 24.5 7.85 L24.35 8.3 23.5 9.85 22.35 11.3 20.8 12.65 M17.7 24.6 L16.85 24.95 Q16.15 25.3 15.55 25.8 L14.25 26.95 14.1 27.05 13.45 27.5 13.3 27.6 Q14.05 30.05 15.45 32.2 16.7 34.4 18.25 35.5 L18.75 36.0 21.75 38.1 23.4 38.9 Q24.6 39.6 27.1 39.9 L30.2 40.15 Q33.6 40.1 36.5 38.9 39.85 37.55 42.65 34.65 47.8 29.3 47.8 21.8 47.8 15.1 43.65 10.2 M7.35 18.0 L8.65 18.1 8.75 18.1 8.8 18.15 8.85 18.15 9.8 18.7 9.85 18.75 Q11.1 19.75 11.75 21.55 12.4 23.3 12.1 24.8 L11.95 25.3 11.55 25.95 M12.95 13.15 Q11.35 13.6 9.9 14.35 7.7 15.45 5.75 17.15 L5.6 17.35 Q3.35 19.55 4.8 24.0 6.6 28.45 10.2 28.55 L10.9 28.5 12.45 28.05 13.3 27.6 M12.95 13.15 L15.25 12.65 M17.65 10.75 L17.4 11.3 17.15 12.5 M17.7 24.6 Q20.35 23.6 24.5 23.95" fill="none" stroke="#000000" stroke-linecap="round" stroke-linejoin="round" stroke-opacity="0.3019608" stroke-width="0.30000000000000004"/>
      <path d="M17.35 14.5 L15.95 14.8 14.6 14.5 Q14.0 14.25 14.0 13.8 14.0 13.4 14.6 13.1 15.15 12.8 15.95 12.8 L17.35 13.1 Q17.9 13.4 17.9 13.8 17.9 14.25 17.35 14.5" fill="#d7f16b" fill-rule="evenodd" stroke="none"/>
      <path d="M31.0 7.4 L28.95 7.85 26.9 7.4 Q26.05 6.95 26.05 6.35 26.05 5.75 26.9 5.3 L28.95 4.9 31.0 5.3 Q31.85 5.75 31.85 6.35 31.85 6.95 31.0 7.4" fill="#d7f16b" fill-rule="evenodd" stroke="none"/>
    </g>
    <g id="sprite1" transform="matrix(1.0, 0.0, 0.0, 1.0, 0.0, 0.0)">
      <use height="26.7" transform="matrix(0.0042, -1.3515, 1.3935, 0.02, 22.09, 56.0263)" width="26.7" xlink:href="#sprite2"/>
      <use height="26.7" transform="matrix(0.0095, -3.0486, 0.372, 0.0053, 36.507, 81.3775)" width="26.7" xlink:href="#sprite2"/>
      <use height="26.7" transform="matrix(3.0486, 0.0095, -0.0053, 0.372, 0.1225, 35.107)" width="26.7" xlink:href="#sprite2"/>
    </g>
    <g id="sprite2" transform="matrix(1.0, 0.0, 0.0, 1.0, 13.35, 13.35)">
      <use height="26.7" transform="matrix(1.0, 0.0, 0.0, 1.0, -13.35, -13.35)" width="26.7" xlink:href="#shape1"/>
    </g>
    <g id="shape1" transform="matrix(1.0, 0.0, 0.0, 1.0, 13.35, 13.35)">
      <path d="M9.3 -9.85 Q13.35 -5.8 13.35 0.0 13.35 5.8 9.3 9.3 5.8 13.35 0.0 13.35 -5.8 13.35 -9.85 9.3 -13.35 5.8 -13.35 0.0 -13.35 -5.8 -9.85 -9.85 -5.8 -13.35 0.0 -13.35 5.8 -13.35 9.3 -9.85" fill="url(#gradient0)" fill-rule="evenodd" stroke="none"/>
    </g>
    <radialGradient cx="0" cy="0" gradientTransform="matrix(0.0213, 0.0, 0.0, 0.0213, 0.0, 0.0)" gradientUnits="userSpaceOnUse" id="gradient0" r="819.2" spreadMethod="pad">
      <stop offset="0.19607843137254902" stop-color="#fee3bc" stop-opacity="0.5568628"/>
      <stop offset="0.5019607843137255" stop-color="#fee3bc" stop-opacity="0.08627451"/>
      <stop offset="0.7607843137254902" stop-color="#ffe3bd" stop-opacity="0.0"/>
    </radialGradient>
    <g id="shape2" transform="matrix(1.0, 0.0, 0.0, 1.0, -4.2, -29.55)">
      <path d="M25.1 36.0 Q26.45 35.55 26.85 36.3 L27.05 36.65 26.9 37.55 Q26.85 36.1 25.45 36.4 L24.5 36.8 Q23.15 37.4 22.0 38.65 L21.0 39.8 20.75 39.4 20.75 39.35 20.75 39.2 21.15 38.7 21.55 38.3 Q21.9 37.95 22.3 37.65 L23.9 36.5 24.3 36.3 25.1 36.0" fill="#9ae17b" fill-rule="evenodd" stroke="none"/>
      <path d="M20.75 39.35 L20.75 39.4 21.0 39.8 22.0 38.65 Q23.15 37.4 24.5 36.8 L25.45 36.4 Q26.85 36.1 26.9 37.55 L25.0 38.5 Q24.1 38.9 23.25 39.65 L22.15 40.7 21.6 41.35 21.05 40.0 21.0 39.8 21.05 40.0 21.6 41.35 21.55 41.75 Q21.3 42.1 20.9 41.65 L20.75 41.5 20.75 39.35 M28.05 38.6 L26.4 39.2 Q25.4 39.65 24.6 40.3 L24.4 40.55 Q23.9 40.95 23.55 41.5 L23.0 42.35 23.0 42.15 22.35 42.15 22.95 41.15 23.2 40.85 23.9 40.15 Q24.8 39.4 25.75 39.05 27.05 38.55 28.05 38.6" fill="#75d74a" fill-rule="evenodd" stroke="none"/>
      <path d="M26.9 37.55 L28.2 37.65 Q29.45 37.95 28.05 38.6 27.05 38.55 25.75 39.05 24.8 39.4 23.9 40.15 L23.2 40.85 22.95 41.15 22.35 42.15 20.75 42.15 20.75 41.5 20.9 41.65 Q21.3 42.1 21.55 41.75 L21.6 41.35 22.15 40.7 23.25 39.65 Q24.1 38.9 25.0 38.5 L26.9 37.55" fill="#339328" fill-rule="evenodd" stroke="none"/>
      <path d="M25.1 36.0 L24.3 36.3 23.9 36.5 22.3 37.65 Q21.9 37.95 21.55 38.3 L21.15 38.7 20.75 39.2 M20.75 39.35 L20.75 39.4 21.0 39.8 21.05 40.0 21.6 41.35 M28.05 38.6 L26.4 39.2 Q25.4 39.65 24.6 40.3 L24.4 40.55 Q23.9 40.95 23.55 41.5 L23.0 42.35" fill="none" stroke="#000000" stroke-linecap="round" stroke-linejoin="round" stroke-opacity="0.3019608" stroke-width="0.30000000000000004"/>
      <path d="M14.85 39.0 L13.6 38.6 11.1 38.55 10.75 38.85 10.65 39.25 10.65 38.8 10.65 38.7 Q10.9 36.8 13.2 36.3 15.6 35.8 18.7 37.15 21.8 38.55 23.85 41.0 L24.05 41.2 Q25.9 43.45 25.7 45.4 25.55 47.0 24.1 47.65 L23.8 47.8 23.45 47.9 23.85 47.65 23.95 47.5 Q24.5 46.6 22.95 44.65 L20.2 42.1 18.7 41.0 18.55 40.95 Q16.6 39.65 14.85 39.0 M18.7 37.6 Q16.8 36.7 14.85 36.45 12.1 36.5 11.5 37.9 L13.75 38.1 Q15.2 38.55 16.85 39.4 L18.95 40.65 20.7 41.95 21.85 43.0 Q22.75 42.65 22.95 41.45 L22.95 40.65 Q20.9 38.65 18.7 37.6 M25.2 44.0 L24.65 42.7 Q22.95 42.05 22.75 43.95 L23.3 44.55 24.3 46.15 24.4 47.05 Q25.1 46.75 25.4 45.6 L25.2 44.0" fill="#d7f16b" fill-rule="evenodd" stroke="none"/>
      <path d="M16.85 39.4 Q15.2 38.55 13.75 38.1 L11.5 37.9 Q12.1 36.5 14.85 36.45 16.8 36.7 18.7 37.6 19.0 38.95 16.85 39.4" fill="#9ae17b" fill-rule="evenodd" stroke="none"/>
      <path d="M18.7 37.6 Q20.9 38.65 22.95 40.65 L22.95 41.45 Q22.75 42.65 21.85 43.0 L20.7 41.95 18.95 40.65 16.85 39.4 Q19.0 38.95 18.7 37.6 M25.2 44.0 L25.4 45.6 Q25.1 46.75 24.4 47.05 L24.3 46.15 Q24.95 45.55 25.2 44.0" fill="#75d74a" fill-rule="evenodd" stroke="none"/>
      <path d="M24.3 46.15 L23.3 44.55 22.75 43.95 Q22.95 42.05 24.65 42.7 L25.2 44.0 Q24.95 45.55 24.3 46.15" fill="#339328" fill-rule="evenodd" stroke="none"/>
      <path d="M10.65 39.25 L10.75 38.85 11.1 38.55 13.6 38.6 14.85 39.0 Q16.15 41.0 16.7 42.9 17.25 44.55 17.25 46.1 L16.05 45.35 Q13.3 43.55 11.75 41.65 10.95 40.65 10.7 39.9 L10.65 39.25 M18.55 40.95 L18.7 41.0 20.2 42.1 22.95 44.65 Q24.5 46.6 23.95 47.5 L23.85 47.65 23.45 47.9 23.15 47.95 22.95 48.0 22.9 48.0 21.05 47.75 19.35 47.2 Q18.5 44.55 18.5 42.5 18.45 41.65 18.55 40.95" fill="#246c41" fill-rule="evenodd" stroke="none"/>
      <path d="M14.85 39.0 Q16.6 39.65 18.55 40.95 18.45 41.65 18.5 42.5 18.5 44.55 19.35 47.2 L17.45 46.2 17.25 46.1 Q17.25 44.55 16.7 42.9 16.15 41.0 14.85 39.0" fill="#206039" fill-rule="evenodd" stroke="none"/>
      <path d="M23.45 47.9 L23.8 47.8 24.1 47.65 Q25.55 47.0 25.7 45.4 25.9 43.45 24.05 41.2 L23.85 41.0 Q21.8 38.55 18.7 37.15 15.6 35.8 13.2 36.3 10.9 36.8 10.65 38.7 L10.65 38.8 10.65 39.25 10.7 39.9 Q10.95 40.65 11.75 41.65 13.3 43.55 16.05 45.35 L17.25 46.1 17.45 46.2 19.35 47.2 21.05 47.75 22.9 48.0 22.95 48.0 23.15 47.95 23.45 47.9 22.95 48.0" fill="none" stroke="#000000" stroke-linecap="round" stroke-linejoin="round" stroke-opacity="0.3019608" stroke-width="0.30000000000000004"/>
    </g>
  </defs>
</svg>
