<?xml version="1.0" encoding="UTF-8" standalone="no"?>
<svg xmlns:xlink="http://www.w3.org/1999/xlink" height="52.0px" width="52.0px" xmlns="http://www.w3.org/2000/svg">
  <g transform="matrix(1.0, 0.0, 0.0, 1.0, 0.0, 0.0)">
    <use height="56.0" transform="matrix(1.0, 0.0, 0.0, 1.0, -2.0, -2.0)" width="56.0" xlink:href="#shape0"/>
    <use height="0.0" transform="matrix(0.1377, -0.0176, 0.0182, 0.1425, 28.95, 16.7)" width="0.0" xlink:href="#sprite0"/>
    <use height="0.0" transform="matrix(0.0789, 0.0257, -0.0323, 0.0992, 17.25, 35.75)" width="0.0" xlink:href="#sprite0"/>
    <use height="0.0" transform="matrix(0.0402, 0.0021, -0.0019, 0.0362, 23.55, 21.9)" width="0.0" xlink:href="#sprite0"/>
    <use height="0.0" transform="matrix(0.0169, 0.0055, -0.0112, 0.0345, 17.35, 20.0)" width="0.0" xlink:href="#sprite0"/>
    <use height="0.0" transform="matrix(0.0369, 0.012, -0.0112, 0.0345, 25.05, 33.2)" width="0.0" xlink:href="#sprite0"/>
    <use height="81.5" transform="matrix(0.1017, -0.013, 0.0126, 0.0983, 21.3, 18.1)" width="81.5" xlink:href="#sprite1"/>
    <use height="81.5" transform="matrix(0.1017, -0.013, 0.0126, 0.0983, 21.9, 30.95)" width="81.5" xlink:href="#sprite1"/>
  </g>
  <defs>
    <g id="shape0" transform="matrix(1.0, 0.0, 0.0, 1.0, 2.0, 2.0)">
      <path d="M52.0 0.0 L52.0 52.0 0.0 52.0 0.0 0.0 52.0 0.0" fill="#795fa9" fill-opacity="0.0" fill-rule="evenodd" stroke="none"/>
      <path d="M30.05 7.95 Q26.75 4.9 22.55 4.1 19.35 6.4 17.55 9.75 L19.8 11.15 Q17.9 10.75 15.6 11.55 14.3 16.0 15.05 18.75 L16.65 18.55 16.6 18.6 16.4 18.9 16.0 19.45 15.7 20.05 15.55 20.4 15.3 21.25 15.1 22.05 15.3 23.1 15.45 23.4 Q15.5 25.45 15.9 27.5 L15.9 27.45 14.75 28.3 14.65 28.5 13.45 29.05 11.55 30.95 10.25 32.95 9.1 35.5 9.7 36.8 9.2 38.5 9.45 38.6 9.15 39.55 9.05 39.9 8.9 40.5 8.85 40.85 8.2 40.85 8.0 42.15 8.1 43.8 8.45 44.05 8.55 44.1 8.5 44.45 9.15 46.6 Q9.5 47.05 10.0 47.0 L10.6 46.9 10.6 47.15 Q10.75 48.05 12.25 48.1 14.75 47.3 16.65 45.65 L19.05 43.1 19.6 43.4 20.6 42.15 20.8 42.8 22.65 42.5 24.45 41.25 24.8 40.6 24.95 40.55 25.45 40.4 26.5 38.2 26.85 36.4 26.6 36.25 26.7 35.85 Q27.35 36.05 28.0 36.35 L28.5 35.3 28.55 35.1 28.85 32.8 28.55 32.65 28.4 31.45 28.6 31.5 28.7 31.3 28.7 31.2 28.6 30.75 31.0 30.5 Q31.8 30.4 31.7 32.55 35.1 33.8 39.55 33.45 L40.6 29.1 Q42.15 27.45 43.95 27.15 43.65 22.35 41.95 18.3 L38.85 18.1 Q39.85 12.95 39.15 8.5 36.2 5.8 32.4 5.4 L30.05 7.95 Z" fill="none" stroke="#000000" stroke-linecap="round" stroke-linejoin="round" stroke-opacity="0.3019608" stroke-width="1.0"/>
      <path d="M11.55 31.0 L11.5 31.5 10.8 33.0 11.65 34.0 11.25 33.7 10.5 33.2 10.25 32.95 10.5 33.2 11.25 33.7 10.4 34.45 9.95 34.85 9.6 34.4 10.25 32.95 11.55 31.0" fill="#e6e4b3" fill-rule="evenodd" stroke="none"/>
      <path d="M13.15 29.35 L13.1 29.85 12.2 31.25 11.7 31.25 11.55 31.0 13.15 29.35 M10.2 35.55 L9.85 37.25 9.15 35.5 10.2 35.55" fill="#aa772b" fill-rule="evenodd" stroke="none"/>
      <path d="M12.2 32.1 L13.2 30.35 14.35 31.05 14.85 31.65 14.7 31.8 13.6 33.5 12.2 32.1" fill="#74511d" fill-rule="evenodd" stroke="none"/>
      <path d="M13.5 29.1 L13.4 29.95 14.35 31.05 13.2 30.35 12.2 32.1 11.9 31.7 11.7 31.25 12.2 31.25 13.1 29.85 13.15 29.35 13.5 29.1 M9.95 34.85 L10.2 35.05 10.75 35.45 10.2 35.55 9.15 35.5 9.6 34.4 9.95 34.85" fill="#cc9933" fill-rule="evenodd" stroke="none"/>
      <path d="M14.35 31.05 L13.4 29.95 13.5 29.1 16.65 27.6 14.85 31.65 14.35 31.05 M10.75 35.45 L11.25 35.7 11.95 36.0 11.05 37.35 9.85 37.25 10.2 35.55 10.75 35.45" fill="#825a20" fill-rule="evenodd" stroke="none"/>
      <path d="M11.5 31.5 Q12.6 32.7 12.75 33.55 12.75 34.05 11.9 34.1 L11.65 34.0 10.8 33.0 11.5 31.5 M10.4 34.45 Q11.05 34.0 11.55 34.3 L12.25 34.75 Q12.35 35.45 11.25 35.7 L10.75 35.45 10.2 35.05 9.95 34.85 10.4 34.45" fill="#cac960" fill-rule="evenodd" stroke="none"/>
      <path d="M11.7 31.25 L11.9 31.7 12.2 32.1 13.6 33.5 12.95 34.55 11.9 34.1 12.95 34.55 11.95 36.0 11.25 35.7 Q12.35 35.45 12.25 34.75 L11.55 34.3 Q11.05 34.0 10.4 34.45 L11.25 33.7 11.65 34.0 11.9 34.1 Q12.75 34.05 12.75 33.55 12.6 32.7 11.5 31.5 L11.55 31.0 11.7 31.25" fill="#a6a637" fill-rule="evenodd" stroke="none"/>
      <path d="M13.5 29.1 L13.15 29.35 11.55 31.0 11.7 31.25 11.9 31.7 12.2 32.1 13.6 33.5 14.7 31.8 14.85 31.65 16.65 27.6 13.5 29.1 M11.9 34.1 L12.95 34.55 13.6 33.5 M9.95 34.85 L10.2 35.05 10.75 35.45 11.25 35.7 11.95 36.0 12.95 34.55 M11.25 33.7 L10.5 33.2 10.25 32.95 9.6 34.4 9.95 34.85 M11.25 33.7 L11.65 34.0 11.9 34.1 M9.85 37.25 L11.05 37.35 11.95 36.0 M9.15 35.5 L9.85 37.25 M9.6 34.4 L9.15 35.5 M10.25 32.95 L11.55 31.0" fill="none" stroke="#000000" stroke-linecap="round" stroke-linejoin="round" stroke-opacity="0.3019608" stroke-width="0.30000000000000004"/>
      <path d="M26.15 26.9 L24.35 27.75 24.5 29.9 Q25.25 30.9 26.55 30.3 L24.6 30.45 24.2 30.2 23.9 27.9 23.8 27.5 26.15 26.9" fill="#e6e4b3" fill-rule="evenodd" stroke="none"/>
      <path d="M21.15 16.5 L21.55 16.25 21.3 19.9 19.2 22.3 19.4 25.5 18.75 22.35 18.8 22.2 20.95 19.6 21.15 16.5 M34.25 24.0 Q33.05 27.15 29.85 29.3 L27.75 30.45 27.6 29.95 Q30.9 28.6 34.25 24.0 M19.75 27.05 L19.8 27.25 19.2 29.15 19.6 29.9 18.85 29.65 17.0 28.2 16.2 25.65 16.0 23.4 16.45 23.25 18.5 22.8 19.75 27.05 M20.7 30.6 L20.65 30.6 20.7 30.6" fill="#aa772b" fill-rule="evenodd" stroke="none"/>
      <path d="M18.8 22.2 L18.75 22.35 19.4 25.5 19.75 27.05 18.5 22.8 16.45 23.25 18.8 22.2 M19.2 29.15 L20.65 30.6 19.65 30.3 Q18.15 29.75 16.65 28.5 L16.2 25.65 17.0 28.2 18.85 29.65 19.6 29.9 19.2 29.15" fill="#e0c585" fill-rule="evenodd" stroke="none"/>
      <path d="M21.55 16.25 Q23.85 14.85 25.45 14.3 L27.7 14.2 Q31.6 14.45 33.6 17.15 35.6 19.8 34.45 23.4 L34.25 24.0 Q30.9 28.6 27.6 29.95 26.95 28.05 26.15 26.9 L21.3 19.9 21.55 16.25 M16.1 22.9 Q16.55 21.1 17.75 19.5 19.2 17.8 21.15 16.5 L20.95 19.6 18.8 22.2 16.45 23.25 16.0 23.4 16.1 22.9 M19.8 27.25 L23.9 27.9 24.2 30.2 24.3 31.0 20.7 30.6 20.65 30.6 19.2 29.15 19.8 27.25" fill="#74511d" fill-rule="evenodd" stroke="none"/>
      <path d="M15.5 22.6 L16.1 22.9 16.0 23.4 16.2 25.65 16.65 28.5 16.15 28.45 Q15.4 25.6 15.5 22.6" fill="#d7b15b" fill-rule="evenodd" stroke="none"/>
      <path d="M19.4 25.5 L19.2 22.3 21.3 19.9 26.15 26.9 23.8 27.5 23.9 27.9 19.8 27.25 19.75 27.05 19.4 25.5" fill="#825a20" fill-rule="evenodd" stroke="none"/>
      <path d="M21.55 16.25 L21.15 16.5 Q19.2 17.8 17.75 19.5 16.55 21.1 16.1 22.9 L15.5 22.6 15.6 22.25 Q16.7 18.65 20.25 16.3 22.75 14.65 25.45 14.3 23.85 14.85 21.55 16.25 M24.35 31.35 L22.35 31.4 Q18.9 31.2 16.15 28.45 L16.65 28.5 Q18.15 29.75 19.65 30.3 L20.65 30.6 20.7 30.6 24.3 31.0 24.35 31.35" fill="#cc9933" fill-rule="evenodd" stroke="none"/>
      <path d="M27.75 30.45 Q26.1 31.15 24.35 31.35 L24.3 31.0 24.2 30.2 24.6 30.45 26.55 30.3 26.95 29.8 Q27.1 28.95 26.15 26.9 26.95 28.05 27.6 29.95 L27.75 30.45" fill="#a6a637" fill-rule="evenodd" stroke="none"/>
      <path d="M26.55 30.3 Q25.25 30.9 24.5 29.9 L24.35 27.75 26.15 26.9 Q27.1 28.95 26.95 29.8 L26.55 30.3" fill="#cac960" fill-rule="evenodd" stroke="none"/>
      <path d="M25.45 14.3 Q22.75 14.65 20.25 16.3 16.7 18.65 15.6 22.25 L15.5 22.6 Q15.4 25.6 16.15 28.45 18.9 31.2 22.35 31.4 L24.35 31.35 Q26.1 31.15 27.75 30.45 L29.85 29.3 Q33.05 27.15 34.25 24.0 L34.45 23.4 Q35.6 19.8 33.6 17.15 31.6 14.45 27.7 14.2 L25.45 14.3 M23.9 27.9 L23.8 27.5 26.15 26.9 Q26.95 28.05 27.6 29.95 L27.75 30.45 M24.2 30.2 L24.3 31.0 24.35 31.35 M24.2 30.2 L23.9 27.9" fill="none" stroke="#000000" stroke-linecap="round" stroke-linejoin="round" stroke-opacity="0.3019608" stroke-width="0.30000000000000004"/>
      <path d="M22.45 30.9 L20.75 31.95 18.85 32.7 18.35 32.85 17.9 32.5 16.5 31.65 Q17.65 31.0 18.85 30.4 L22.45 30.9 M16.4 28.85 Q17.0 29.6 18.85 30.4 L14.5 31.75 14.3 31.3 15.0 29.3 15.9 28.95 16.4 28.85 M19.95 37.9 L21.55 35.1 Q22.3 34.8 23.1 34.45 L21.5 39.1 20.5 40.65 19.45 38.45 19.95 37.9" fill="#aa772b" fill-rule="evenodd" stroke="none"/>
      <path d="M14.45 35.3 L18.55 35.05 18.75 35.4 17.5 38.15 16.75 38.9 11.95 36.55 14.1 35.35 14.45 35.3 M17.15 36.15 L17.2 36.15 17.15 36.15 17.05 36.1 16.65 36.0 16.5 36.05 16.65 36.0 17.05 36.1 17.15 36.15 M16.9 36.7 Q16.2 36.5 16.5 36.05 L16.3 36.3 16.15 36.65 16.15 36.7 16.15 36.75 16.2 36.85 16.15 36.75 16.15 36.95 16.15 37.05 16.4 37.35 16.8 37.4 17.15 37.15 17.2 36.7 17.3 36.45 17.25 36.4 17.2 36.15 17.1 36.45 16.9 36.7 M17.2 36.75 L17.2 36.7 17.2 36.75 M18.8 37.45 L19.65 34.75 19.75 34.6 Q20.95 33.7 21.0 34.45 L19.65 37.0 19.05 38.1 18.8 37.45" fill="#ffde4f" fill-rule="evenodd" stroke="none"/>
      <path d="M16.5 31.65 L17.9 32.5 16.4 32.0 13.5 33.5 13.15 33.9 15.2 33.65 12.05 34.45 12.95 33.4 16.5 31.65 M14.95 29.1 L15.9 28.95 15.0 29.3 14.3 31.3 14.5 31.75 13.85 31.9 13.8 31.7 14.95 29.1" fill="#e0c585" fill-rule="evenodd" stroke="none"/>
      <path d="M17.9 32.5 L18.35 32.85 15.2 33.65 13.15 33.9 13.5 33.5 16.4 32.0 17.9 32.5 M14.7 28.4 L14.95 29.1 13.8 31.7 13.85 31.9 12.95 32.2 14.7 28.4 M11.75 33.35 L12.95 33.4 12.05 34.45 11.1 35.5 11.75 33.35" fill="#d7b15b" fill-rule="evenodd" stroke="none"/>
      <path d="M22.45 30.9 L23.45 30.85 20.5 32.3 18.85 32.7 20.75 31.95 22.45 30.9 M16.85 28.8 L16.4 28.85 15.9 28.95 14.95 29.1 14.7 28.4 14.75 28.3 15.95 27.5 16.05 27.8 16.85 28.8 M18.85 30.4 Q17.65 31.0 16.5 31.65 L12.95 33.4 11.75 33.35 12.65 32.9 14.0 32.35 14.65 32.05 18.85 30.4 M18.35 39.7 L19.45 38.45 20.5 40.65 18.35 39.7" fill="#cc9933" fill-rule="evenodd" stroke="none"/>
      <path d="M20.5 32.3 L23.45 30.85 22.45 30.9 18.85 30.4 Q17.0 29.6 16.4 28.85 L16.85 28.8 Q17.8 29.65 19.55 30.1 L23.9 30.6 24.2 32.1 24.4 33.2 24.2 32.1 25.3 33.0 21.5 39.1 23.1 34.45 Q22.3 34.8 21.55 35.1 L19.95 37.9 19.65 37.0 21.0 34.45 21.6 33.45 24.4 33.2 20.5 32.3 M14.5 31.75 L18.85 30.4 14.65 32.05 14.5 31.75 M14.0 32.35 L12.65 32.9 12.95 32.2 13.85 31.9 14.0 32.35" fill="#74511d" fill-rule="evenodd" stroke="none"/>
      <path d="M18.85 32.7 L20.5 32.3 24.4 33.2 21.6 33.45 20.2 33.6 19.25 33.8 15.9 34.4 11.1 35.5 12.05 34.45 15.2 33.65 18.35 32.85 18.85 32.7 M19.05 38.1 L19.65 37.0 19.95 37.9 19.45 38.45 18.35 39.7 17.75 39.4 19.05 38.1 M14.65 32.05 L14.0 32.35 13.85 31.9 14.5 31.75 14.65 32.05" fill="#825a20" fill-rule="evenodd" stroke="none"/>
      <path d="M14.45 35.3 L14.1 35.35 11.45 36.35 10.7 36.0 10.8 35.85 14.15 34.95 20.0 34.0 19.75 34.6 19.65 34.75 18.4 37.2 17.7 37.95 Q19.0 35.9 19.15 34.7 L14.45 35.3 M16.9 36.7 L17.1 36.45 17.2 36.15 17.25 36.4 17.3 36.45 17.2 36.7 17.2 36.75 17.15 36.85 16.8 37.1 16.4 37.05 16.2 36.85 16.15 36.75 16.15 36.7 16.15 36.65 16.7 36.75 16.9 36.7" fill="#f4a33c" fill-rule="evenodd" stroke="none"/>
      <path d="M16.75 38.9 L17.5 38.15 17.7 37.95 18.4 37.2 18.8 37.45 19.05 38.1 17.75 39.4 16.75 38.9 M17.2 36.75 L17.2 36.7 17.15 37.15 16.8 37.4 16.4 37.35 16.15 37.05 16.15 36.95 16.15 36.75 16.2 36.85 16.4 37.05 16.8 37.1 17.15 36.85 17.2 36.75 M21.0 34.45 Q20.95 33.7 19.75 34.6 L20.0 34.0 14.15 34.95 10.8 35.85 11.1 35.5 15.9 34.4 19.25 33.8 20.2 33.6 20.0 34.0 20.2 33.6 21.6 33.45 21.0 34.45" fill="#cc6b22" fill-rule="evenodd" stroke="none"/>
      <path d="M17.5 38.15 L18.75 35.4 18.55 35.05 14.45 35.3 19.15 34.7 Q19.0 35.9 17.7 37.95 L17.5 38.15 M14.1 35.35 L11.95 36.55 11.45 36.35 14.1 35.35 M17.2 36.15 L17.15 36.15 17.2 36.15 M16.5 36.05 Q16.2 36.5 16.9 36.7 L16.7 36.75 16.15 36.65 16.3 36.3 16.5 36.05 M18.8 37.45 L18.4 37.2 19.65 34.75 18.8 37.45" fill="#ffff98" fill-rule="evenodd" stroke="none"/>
      <path d="M24.4 33.2 L24.2 32.1 23.9 30.6 19.55 30.1 Q17.8 29.65 16.85 28.8 L16.05 27.8 15.95 27.5 14.75 28.3 14.7 28.4 12.95 32.2 12.65 32.9 11.75 33.35 11.1 35.5 10.8 35.85 10.7 36.0 11.45 36.35 11.95 36.55 16.75 38.9 17.5 38.15 17.7 37.95 18.4 37.2 19.65 34.75 19.75 34.6 20.0 34.0 20.2 33.6 21.6 33.45 24.4 33.2 M17.2 36.15 L17.15 36.15 17.05 36.1 16.65 36.0 16.5 36.05 16.3 36.3 16.15 36.65 16.15 36.7 16.15 36.75 16.2 36.85 16.4 37.05 16.8 37.1 17.15 36.85 17.2 36.75 17.2 36.7 17.3 36.45 17.25 36.4 17.2 36.15 M19.05 38.1 L19.65 37.0 21.0 34.45 21.6 33.45 M20.2 33.6 L19.25 33.8 15.9 34.4 11.1 35.5 M21.5 39.1 L25.3 33.0 24.2 32.1 M18.85 30.4 L14.65 32.05 14.0 32.35 12.65 32.9 M16.75 38.9 L17.75 39.4 19.05 38.1 M17.75 39.4 L18.35 39.7 20.5 40.65 21.5 39.1" fill="none" stroke="#000000" stroke-linecap="round" stroke-linejoin="round" stroke-opacity="0.3019608" stroke-width="0.30000000000000004"/>
      <path d="M15.1 41.95 L16.0 42.8 16.2 43.05 Q16.8 43.95 16.85 45.05 L16.45 45.4 14.65 43.85 Q13.6 43.15 12.4 42.8 L12.0 42.7 12.35 41.85 Q12.6 41.65 13.0 41.55 L15.1 41.95 M9.05 41.7 L9.2 40.1 9.3 40.0 Q9.95 39.5 11.1 40.4 L11.35 40.85 11.45 41.55 Q11.55 42.25 11.1 42.85 10.0 41.95 9.05 41.7" fill="#e6e4b3" fill-rule="evenodd" stroke="none"/>
      <path d="M20.25 42.55 L19.6 43.4 19.05 43.15 15.25 40.9 16.35 39.6 18.8 40.5 20.55 41.45 20.25 42.55 M16.65 45.7 Q14.75 47.3 12.25 48.1 10.8 48.05 10.6 47.2 11.35 47.95 12.45 47.7 L13.9 47.15 12.55 47.25 12.2 45.25 12.3 43.15 12.4 42.8 Q13.6 43.15 14.65 43.85 L15.9 45.4 14.55 46.8 Q15.55 46.25 16.45 45.4 L16.65 45.7 M10.0 47.05 Q9.5 47.0 9.2 46.65 L9.65 44.55 10.5 43.65 10.95 43.2 10.35 46.55 10.0 47.05 M9.45 38.6 L9.25 38.45 9.95 36.15 10.4 36.95 Q10.0 37.7 9.75 38.75 L9.45 38.6" fill="#aa772b" fill-rule="evenodd" stroke="none"/>
      <path d="M13.45 39.8 L12.4 39.9 10.05 38.8 Q10.3 37.35 11.45 36.05 L14.2 37.25 Q14.85 38.0 13.45 39.8 M10.85 37.15 L11.15 37.7 11.9 37.9 12.6 37.75 12.9 37.3 12.65 36.75 11.95 36.55 11.2 36.7 10.85 37.15" fill="#ffde4f" fill-rule="evenodd" stroke="none"/>
      <path d="M8.5 44.5 L8.65 42.2 8.9 44.3 9.3 44.4 10.5 43.65 9.65 44.55 8.5 44.5 M12.3 43.15 L12.2 45.25 12.55 47.25 13.9 47.15 12.45 47.7 11.8 45.3 12.3 43.15" fill="#e0c585" fill-rule="evenodd" stroke="none"/>
      <path d="M16.15 38.15 L21.25 40.5 21.2 41.35 18.8 40.5 16.35 39.6 16.15 38.15 M10.6 47.2 L10.65 46.9 11.0 44.75 11.8 45.3 12.45 47.7 Q11.35 47.95 10.6 47.2 M8.65 42.2 L8.7 41.65 9.05 41.7 Q10.0 41.95 11.1 42.85 L10.95 43.2 10.5 43.65 9.3 44.4 8.9 44.3 8.65 42.2 M9.95 36.15 L10.65 35.55 11.2 35.8 Q10.7 36.3 10.4 36.95 L9.95 36.15" fill="#cc9933" fill-rule="evenodd" stroke="none"/>
      <path d="M21.2 41.35 L20.25 42.55 20.55 41.45 18.8 40.5 21.2 41.35 M9.2 46.65 L8.5 44.5 9.65 44.55 9.2 46.65 M11.7 42.65 L12.0 42.7 12.4 42.8 12.3 43.15 11.8 45.3 11.0 44.75 11.45 43.2 11.7 42.65" fill="#d7b15b" fill-rule="evenodd" stroke="none"/>
      <path d="M15.7 37.9 L16.15 38.15 16.35 39.6 15.25 40.9 19.05 43.15 18.6 42.9 14.25 40.85 14.3 40.75 14.55 40.45 15.7 37.9 M10.65 46.9 L10.0 47.05 10.35 46.55 10.95 43.2 11.1 42.85 11.45 43.2 11.0 44.75 10.65 46.9 M14.65 43.85 L16.45 45.4 Q15.55 46.25 14.55 46.8 L15.9 45.4 14.65 43.85" fill="#825a20" fill-rule="evenodd" stroke="none"/>
      <path d="M11.2 35.8 L11.35 35.65 15.7 37.65 15.7 37.9 14.55 40.45 Q15.55 38.1 15.35 37.8 L14.8 37.55 Q14.3 39.1 13.45 39.8 L12.9 40.15 14.3 40.75 14.25 40.85 14.1 41.0 12.85 40.45 12.6 40.35 10.1 39.15 9.75 38.75 Q10.0 37.7 10.4 36.95 10.7 36.3 11.2 35.8 M13.45 39.8 Q14.85 38.0 14.2 37.25 L11.45 36.05 Q10.3 37.35 10.05 38.8 L12.4 39.9 13.45 39.8 M10.85 37.15 L11.2 36.7 11.95 36.55 12.65 36.75 12.9 37.3 12.6 37.75 11.9 37.9 11.15 37.7 10.85 37.15" fill="#ffff98" fill-rule="evenodd" stroke="none"/>
      <path d="M14.3 40.75 L12.9 40.15 13.45 39.8 Q14.3 39.1 14.8 37.55 L15.35 37.8 Q15.55 38.1 14.55 40.45 L14.3 40.75" fill="#cc6b22" fill-rule="evenodd" stroke="none"/>
      <path d="M19.05 43.15 L16.65 45.7 16.45 45.4 16.85 45.05 18.6 42.9 19.05 43.15" fill="#cac960" fill-rule="evenodd" stroke="none"/>
      <path d="M9.15 39.55 L9.45 38.6 9.75 38.75 10.1 39.15 12.6 40.35 12.75 40.4 12.85 40.45 14.1 41.0 14.25 40.85 18.6 42.9 16.85 45.05 Q16.8 43.95 16.2 43.05 L16.0 42.8 15.1 41.95 Q13.8 41.05 12.75 41.1 L12.35 41.1 12.25 41.25 11.7 42.65 11.45 43.2 11.1 42.85 Q11.55 42.25 11.45 41.55 L11.35 40.85 11.1 40.4 Q10.8 39.9 10.25 39.65 L9.15 39.55 M12.35 41.1 L12.75 40.4 12.35 41.1" fill="#a6a637" fill-rule="evenodd" stroke="none"/>
      <path d="M8.7 41.65 L8.9 40.5 9.1 39.9 9.15 39.55 10.25 39.65 Q10.8 39.9 11.1 40.4 9.95 39.5 9.3 40.0 L9.2 40.1 9.05 41.7 8.7 41.65 M12.35 41.1 L12.75 41.1 Q13.8 41.05 15.1 41.95 L13.0 41.55 Q12.6 41.65 12.35 41.85 L12.0 42.7 11.7 42.65 12.25 41.25 12.35 41.1" fill="#ffffff" fill-rule="evenodd" stroke="none"/>
      <path d="M11.2 35.8 L11.35 35.65 15.7 37.65 15.7 37.9 16.15 38.15 21.25 40.5 21.2 41.35 20.25 42.55 19.6 43.4 19.05 43.15 16.65 45.7 Q14.75 47.3 12.25 48.1 10.8 48.05 10.6 47.2 L10.65 46.9 10.0 47.05 Q9.5 47.0 9.2 46.65 L8.5 44.5 8.65 42.2 8.7 41.65 8.9 40.5 9.1 39.9 9.15 39.55 9.45 38.6 9.25 38.45 9.95 36.15 10.65 35.55 11.2 35.8 Q10.7 36.3 10.4 36.95 10.0 37.7 9.75 38.75 L10.1 39.15 12.6 40.35 12.75 40.4 12.85 40.45 14.1 41.0 14.25 40.85 14.3 40.75 14.55 40.45 15.7 37.9 M12.75 40.4 L12.35 41.1 12.25 41.25 11.7 42.65 12.0 42.7 12.4 42.8 Q13.6 43.15 14.65 43.85 L16.45 45.4 16.65 45.7 M18.6 42.9 L14.25 40.85 M8.7 41.65 L9.05 41.7 Q10.0 41.95 11.1 42.85 L11.45 43.2 11.7 42.65 M9.45 38.6 L9.75 38.75 M11.0 44.75 L10.65 46.9 M11.45 43.2 L11.0 44.75 M19.05 43.15 L18.6 42.9" fill="none" stroke="#000000" stroke-linecap="round" stroke-linejoin="round" stroke-opacity="0.3019608" stroke-width="0.30000000000000004"/>
      <path d="M12.1 45.45 Q10.95 45.2 10.9 44.9 10.8 44.45 11.15 43.45 L11.2 43.25 11.65 42.5 Q12.55 42.45 13.4 43.0 L13.35 43.9 12.6 45.35 12.1 45.45 M11.9 45.1 L12.35 45.15 12.9 44.45 13.15 43.4 12.95 43.25 12.35 42.95 11.65 42.85 Q11.4 43.05 11.3 43.5 L11.05 44.6 11.2 44.7 11.3 44.8 11.2 44.7 11.4 43.6 11.65 43.35 11.95 43.1 12.3 43.45 11.95 44.6 11.3 44.8 11.9 45.1" fill="#ffde4f" fill-rule="evenodd" stroke="none"/>
      <path d="M12.1 45.45 L12.6 45.35 13.35 43.9 13.6 43.3 13.65 42.85 13.9 43.05 Q13.8 44.05 13.3 44.75 L12.7 45.6 11.65 45.7 10.9 45.25 12.1 45.45 M11.9 45.1 L11.3 44.8 11.95 44.6 12.6 43.65 12.35 42.95 12.95 43.25 12.65 44.3 12.6 44.45 11.9 45.1" fill="#cc6b22" fill-rule="evenodd" stroke="none"/>
      <path d="M11.65 45.7 L12.7 45.6 13.3 44.75 Q13.8 44.05 13.9 43.05 L14.0 43.15 Q14.0 44.1 13.55 44.85 L12.7 45.85 11.65 45.7 M12.95 43.25 L13.15 43.4 12.9 44.45 12.35 45.15 11.9 45.1 12.6 44.45 12.65 44.3 12.95 43.25" fill="#f4a33c" fill-rule="evenodd" stroke="none"/>
      <path d="M13.35 43.9 L13.4 43.0 Q12.55 42.45 11.65 42.5 L11.2 43.25 11.15 43.45 Q10.8 44.45 10.9 44.9 10.95 45.2 12.1 45.45 L10.9 45.25 10.65 45.0 11.0 43.35 11.6 42.15 Q12.65 42.25 13.65 42.85 L13.6 43.3 13.35 43.9 M11.2 44.7 L11.05 44.6 11.3 43.5 Q11.4 43.05 11.65 42.85 L12.35 42.95 12.6 43.65 11.95 44.6 12.3 43.45 11.95 43.1 11.65 43.35 11.4 43.6 11.2 44.7" fill="#ffff98" fill-rule="evenodd" stroke="none"/>
      <path d="M13.65 42.85 Q12.65 42.25 11.6 42.15 L11.0 43.35 10.65 45.0 10.9 45.25 11.65 45.7 12.7 45.85 13.55 44.85 Q14.0 44.1 14.0 43.15 L13.9 43.05 13.65 42.85 M12.95 43.25 L13.15 43.4 12.9 44.45 12.35 45.15 11.9 45.1 11.3 44.8 11.2 44.7 11.05 44.6 11.3 43.5 Q11.4 43.05 11.65 42.85 L12.35 42.95 12.95 43.25" fill="none" stroke="#000000" stroke-linecap="round" stroke-linejoin="round" stroke-opacity="0.3019608" stroke-width="0.30000000000000004"/>
      <path d="M9.5 44.1 Q8.45 44.0 8.25 43.7 8.05 43.25 8.1 42.2 L8.15 42.0 8.3 41.15 Q9.15 41.0 10.05 41.45 L10.25 42.3 9.9 43.95 9.5 44.1 M9.2 43.75 L9.6 43.7 9.9 43.0 9.9 41.85 9.65 41.8 Q9.35 41.6 9.05 41.55 L8.4 41.5 8.3 42.25 8.35 43.4 8.5 43.45 8.65 43.55 8.5 43.45 8.45 42.3 8.55 42.0 8.75 41.75 9.15 42.1 9.15 43.25 8.65 43.55 Q8.95 43.75 9.2 43.75" fill="#ffde4f" fill-rule="evenodd" stroke="none"/>
      <path d="M10.15 41.3 L10.45 41.4 Q10.6 42.4 10.35 43.2 L10.05 44.15 9.15 44.45 8.4 44.1 9.5 44.1 9.9 43.95 10.25 42.3 10.25 41.7 10.15 41.3 M9.2 43.75 Q8.95 43.75 8.65 43.55 L9.15 43.25 9.45 42.2 9.05 41.55 Q9.35 41.6 9.65 41.8 9.85 42.1 9.7 42.85 L9.65 43.0 9.2 43.75" fill="#cc6b22" fill-rule="evenodd" stroke="none"/>
      <path d="M10.45 41.4 L10.6 41.5 Q10.8 42.45 10.6 43.25 L10.15 44.4 9.15 44.45 10.05 44.15 10.35 43.2 Q10.6 42.4 10.45 41.4 M9.65 41.8 L9.9 41.85 9.9 43.0 9.6 43.7 9.2 43.75 9.65 43.0 9.7 42.85 Q9.85 42.1 9.65 41.8" fill="#f4a33c" fill-rule="evenodd" stroke="none"/>
      <path d="M8.4 44.1 L8.1 43.8 8.0 42.15 8.2 40.85 Q9.15 40.8 10.15 41.3 L10.25 41.7 10.25 42.3 10.05 41.45 Q9.15 41.0 8.3 41.15 L8.15 42.0 8.1 42.2 Q8.05 43.25 8.25 43.7 8.45 44.0 9.5 44.1 L8.4 44.1 M8.5 43.45 L8.35 43.4 8.3 42.25 8.4 41.5 9.05 41.55 9.45 42.2 9.15 43.25 9.15 42.1 8.75 41.75 8.55 42.0 8.45 42.3 8.5 43.45" fill="#ffff98" fill-rule="evenodd" stroke="none"/>
      <path d="M8.4 44.1 L8.1 43.8 8.0 42.15 8.2 40.85 Q9.15 40.8 10.15 41.3 L10.45 41.4 10.6 41.5 Q10.8 42.45 10.6 43.25 L10.15 44.4 9.15 44.45 8.4 44.1 M9.65 41.8 L9.9 41.85 9.9 43.0 9.6 43.7 9.2 43.75 Q8.95 43.75 8.65 43.55 L8.5 43.45 8.35 43.4 8.3 42.25 8.4 41.5 9.05 41.55 Q9.35 41.6 9.65 41.8" fill="none" stroke="#000000" stroke-linecap="round" stroke-linejoin="round" stroke-opacity="0.3019608" stroke-width="0.30000000000000004"/>
      <path d="M24.4 41.25 L22.7 42.55 22.95 40.75 24.55 39.2 24.4 41.25 M20.85 38.5 L21.1 37.5 21.75 41.3 21.6 41.65 20.85 42.2 20.5 41.1 20.85 38.5" fill="#aa772b" fill-rule="evenodd" stroke="none"/>
      <path d="M21.85 36.15 L25.55 38.05 25.1 38.65 23.1 40.2 22.15 40.5 21.1 37.5 21.85 36.15" fill="#cc9933" fill-rule="evenodd" stroke="none"/>
      <path d="M20.85 42.8 L20.15 41.05 20.85 38.5 20.5 41.1 20.85 42.2 21.6 41.65 20.85 42.8 M24.55 39.2 L22.95 40.75 21.75 41.3 21.1 37.5 22.15 40.5 23.1 40.2 25.1 38.65 24.55 39.2" fill="#d7b15b" fill-rule="evenodd" stroke="none"/>
      <path d="M21.85 36.15 L23.15 33.6 26.85 32.45 Q27.2 34.6 26.35 37.15 L25.55 38.05 21.85 36.15" fill="#74511d" fill-rule="evenodd" stroke="none"/>
      <path d="M25.55 38.05 L26.35 37.15 Q25.7 39.1 24.4 41.25 L24.55 39.2 25.1 38.65 25.55 38.05 M22.7 42.55 L20.85 42.8 21.6 41.65 21.75 41.3 22.95 40.75 22.7 42.55" fill="#825a20" fill-rule="evenodd" stroke="none"/>
      <path d="M26.35 37.15 Q27.2 34.6 26.85 32.45 L23.15 33.6 21.85 36.15 21.1 37.5 20.85 38.5 20.15 41.05 20.85 42.8 22.7 42.55 24.4 41.25 Q25.7 39.1 26.35 37.15 Z" fill="none" stroke="#000000" stroke-linecap="round" stroke-linejoin="round" stroke-opacity="0.3019608" stroke-width="0.30000000000000004"/>
      <path d="M23.75 40.05 L25.3 40.15 26.25 38.25 26.35 37.95 26.55 36.75 Q25.75 36.1 24.55 36.2 L23.9 37.3 Q23.35 38.65 23.4 39.6 L23.75 40.05 M24.25 39.7 L23.8 39.45 23.9 38.35 Q24.0 37.6 24.45 36.9 L24.75 36.9 25.5 36.85 26.3 37.1 26.05 38.2 25.4 39.65 25.15 39.7 24.95 39.8 25.15 39.7 25.85 38.2 25.9 37.75 25.8 37.3 25.2 37.55 24.55 39.05 24.95 39.8 24.25 39.7" fill="#ffde4f" fill-rule="evenodd" stroke="none"/>
      <path d="M24.5 35.95 L24.05 36.0 Q23.35 37.3 23.3 38.45 L23.1 39.85 23.95 40.6 24.95 40.55 Q24.15 40.4 23.75 40.05 L23.4 39.6 Q23.35 38.65 23.9 37.3 L24.2 36.45 24.5 35.95 M24.25 39.7 L24.95 39.8 24.55 39.05 24.75 37.55 25.5 36.85 24.75 36.9 Q24.4 37.2 24.15 38.3 L24.15 38.5 24.25 39.7" fill="#cc6b22" fill-rule="evenodd" stroke="none"/>
      <path d="M24.05 36.0 L23.85 36.0 Q23.15 37.15 22.95 38.4 22.8 39.25 22.95 40.15 23.4 40.55 23.95 40.6 L23.1 39.85 23.3 38.45 Q23.35 37.3 24.05 36.0 M24.75 36.9 L24.45 36.9 Q24.0 37.6 23.9 38.35 L23.8 39.45 24.25 39.7 24.15 38.5 24.15 38.3 Q24.4 37.2 24.75 36.9" fill="#f4a33c" fill-rule="evenodd" stroke="none"/>
      <path d="M24.95 40.55 L25.4 40.4 26.4 38.2 26.8 36.4 Q25.8 35.8 24.5 35.95 L24.2 36.45 23.9 37.3 24.55 36.2 Q25.75 36.1 26.55 36.75 L26.35 37.95 26.25 38.25 25.3 40.15 23.75 40.05 Q24.15 40.4 24.95 40.55 M25.15 39.7 L25.4 39.65 26.05 38.2 26.3 37.1 25.5 36.85 24.75 37.55 24.55 39.05 25.2 37.55 25.8 37.3 25.9 37.75 25.85 38.2 25.15 39.7" fill="#ffff98" fill-rule="evenodd" stroke="none"/>
      <path d="M24.95 40.55 L25.4 40.4 26.4 38.2 26.8 36.4 Q25.8 35.8 24.5 35.95 L24.05 36.0 23.85 36.0 Q23.15 37.15 22.95 38.4 22.8 39.25 22.95 40.15 23.4 40.55 23.95 40.6 L24.95 40.55 M24.75 36.9 L24.45 36.9 Q24.0 37.6 23.9 38.35 L23.8 39.45 24.25 39.7 24.95 39.8 25.15 39.7 25.4 39.65 26.05 38.2 26.3 37.1 25.5 36.85 24.75 36.9" fill="none" stroke="#000000" stroke-linecap="round" stroke-linejoin="round" stroke-opacity="0.3019608" stroke-width="0.30000000000000004"/>
      <path d="M24.4 30.55 L24.25 30.55 24.45 30.55 24.4 30.55 M25.75 29.95 L25.6 30.2 25.1 30.4 22.5 30.85 22.35 30.8 22.4 30.45 Q23.85 29.65 25.55 29.8 L25.65 29.8 25.75 29.95 M25.9 32.5 L25.8 32.75 25.75 32.85 Q25.3 33.6 24.05 33.95 L21.95 34.05 22.25 32.35 Q22.7 31.95 23.6 31.7 24.7 31.55 25.7 31.7 L25.9 31.7 25.9 31.65 25.9 32.5" fill="#ffde4f" fill-rule="evenodd" stroke="none"/>
      <path d="M28.4 31.45 L28.55 32.65 28.35 32.5 28.2 31.4 28.4 31.45 M22.25 32.0 L22.35 31.4 25.65 31.05 25.95 31.7 25.9 31.65 25.9 31.7 25.7 31.7 Q24.7 31.55 23.6 31.7 L22.25 32.0" fill="#aa772b" fill-rule="evenodd" stroke="none"/>
      <path d="M22.4 31.15 L25.65 30.8 26.0 30.85 26.65 30.95 28.2 31.4 28.35 32.5 Q27.95 32.25 27.6 32.1 L25.95 31.7 25.65 31.05 22.35 31.4 22.4 31.15" fill="#74511d" fill-rule="evenodd" stroke="none"/>
      <path d="M24.4 30.55 L24.45 30.55 24.25 30.55 24.2 30.55 23.25 30.7 22.1 31.05 22.3 30.5 22.4 30.45 22.35 30.8 22.5 30.85 25.1 30.4 25.6 30.2 25.75 29.95 25.75 30.05 25.65 30.35 25.55 30.4 25.65 30.4 26.05 30.5 26.4 30.55 27.75 30.9 28.7 31.2 28.7 31.3 27.75 31.05 26.95 30.8 26.0 30.6 25.6 30.6 25.1 30.55 24.4 30.55 M28.55 35.1 L28.5 35.3 28.4 35.2 Q27.6 34.65 26.55 34.4 L25.95 34.25 25.55 34.2 23.95 34.1 22.0 34.25 21.7 34.3 22.05 32.05 22.25 32.0 23.6 31.7 Q22.7 31.95 22.25 32.35 L21.95 34.05 24.05 33.95 Q25.3 33.6 25.75 32.85 L25.8 32.75 25.9 32.5 25.8 32.85 25.7 33.0 24.5 33.95 25.6 34.05 25.9 34.1 26.25 34.15 26.6 34.25 Q27.7 34.45 28.55 35.1" fill="#ffff98" fill-rule="evenodd" stroke="none"/>
      <path d="M26.85 30.05 L28.55 30.6 28.7 31.2 27.75 30.9 26.4 30.55 Q26.35 30.25 26.85 30.05 M28.55 32.65 L28.85 32.8 28.55 35.1 Q27.7 34.45 26.6 34.25 L26.25 34.15 Q26.55 32.9 27.6 32.1 27.95 32.25 28.35 32.5 L28.55 32.65 M28.5 35.3 L28.0 36.35 26.05 35.65 25.45 35.5 25.3 35.5 22.35 35.2 21.7 34.3 22.0 34.25 22.4 35.0 25.4 35.4 25.6 35.4 26.05 35.5 Q27.1 35.7 27.95 36.15 L28.4 35.2 28.5 35.3" fill="#f4a33c" fill-rule="evenodd" stroke="none"/>
      <path d="M24.25 30.55 L24.4 30.55 25.1 30.55 25.6 30.6 26.0 30.6 26.95 30.8 26.65 30.95 26.0 30.85 25.65 30.8 22.4 31.15 22.1 31.05 23.25 30.7 24.2 30.55 24.25 30.55 M25.65 29.8 L26.15 29.85 26.85 30.05 Q26.35 30.25 26.4 30.55 L26.05 30.5 25.65 30.4 25.55 30.4 25.65 30.35 25.75 30.05 25.75 29.95 25.65 29.8 M25.95 31.7 L27.6 32.1 Q26.55 32.9 26.25 34.15 L25.9 34.1 25.6 34.05 24.5 33.95 25.7 33.0 25.8 32.85 25.9 32.5 25.9 31.65 25.95 31.7 M22.0 34.25 L23.95 34.1 25.55 34.2 25.95 34.25 26.55 34.4 Q26.75 35.0 26.0 35.3 L25.6 35.4 25.4 35.4 22.4 35.0 22.0 34.25" fill="#cc6b22" fill-rule="evenodd" stroke="none"/>
      <path d="M26.65 30.95 L26.95 30.8 27.75 31.05 28.7 31.3 28.6 31.5 28.4 31.45 28.2 31.4 26.65 30.95 M26.55 34.4 Q27.6 34.65 28.4 35.2 L27.95 36.15 Q27.1 35.7 26.05 35.5 L25.6 35.4 26.0 35.3 Q26.75 35.0 26.55 34.4" fill="#a34100" fill-rule="evenodd" stroke="none"/>
      <path d="M22.1 31.05 L22.4 31.15 25.65 30.8 26.0 30.85 26.65 30.95 28.2 31.4 28.4 31.45 28.55 32.65 28.85 32.8 28.55 35.1 28.5 35.3 28.0 36.35 26.05 35.65 25.45 35.5 25.3 35.5 22.35 35.2 21.7 34.3 22.05 32.05 22.25 32.0 22.35 31.4 22.4 31.15 M22.4 30.45 L22.3 30.5 22.1 31.05 M22.4 30.45 Q23.85 29.65 25.55 29.8 L25.65 29.8 26.15 29.85 26.85 30.05 28.55 30.6 28.7 31.2 28.7 31.3 28.6 31.5 28.4 31.45 M25.95 31.7 L27.6 32.1 Q27.95 32.25 28.35 32.5 L28.55 32.65 M23.6 31.7 L22.25 32.0 M21.7 34.3 L22.0 34.25 M28.4 35.2 L28.5 35.3 M25.9 31.65 L25.9 31.7 25.7 31.7 Q24.7 31.55 23.6 31.7 M25.9 31.65 L25.95 31.7" fill="none" stroke="#000000" stroke-linecap="round" stroke-linejoin="round" stroke-opacity="0.3019608" stroke-width="0.30000000000000004"/>
      <path d="M22.6 32.25 L23.05 32.1 23.5 32.1 23.75 32.3 23.6 32.55 23.2 32.75 22.7 32.7 22.5 32.55 22.6 32.25" fill="#ffff98" fill-rule="evenodd" stroke="none"/>
      <path d="M22.65 30.4 L22.9 30.3 23.1 30.3 23.25 30.35 23.15 30.45 22.95 30.5 22.7 30.55 22.55 30.5 22.65 30.4" fill="#ffff98" fill-rule="evenodd" stroke="none"/>
      <path d="M38.8 13.65 Q39.05 15.25 38.85 18.1 L42.0 18.3 Q43.65 22.35 44.0 27.1 42.15 27.5 40.65 29.1 L39.55 33.4 Q35.15 33.8 31.75 32.55 31.8 30.4 31.0 30.5 28.85 31.15 27.0 30.45 L27.05 30.25 Q27.65 28.75 29.25 27.65 L24.9 27.85 Q27.55 23.4 31.45 20.5 L29.65 17.05 Q27.9 17.55 26.8 19.1 L21.55 19.5 22.5 17.35 23.2 16.9 22.3 19.0 26.35 18.65 Q28.2 16.6 29.8 16.4 L30.15 16.95 32.15 20.6 Q28.45 23.0 25.7 27.4 L29.3 27.3 30.2 27.05 29.6 27.7 28.35 28.8 Q27.6 29.4 27.4 30.3 29.4 30.35 31.45 29.6 32.25 30.05 32.2 32.25 35.45 33.4 39.1 32.9 L40.0 28.65 Q41.75 26.8 43.3 26.55 41.65 22.85 36.3 25.8 L37.45 25.1 Q40.6 23.2 42.9 24.7 L41.85 20.35 41.45 18.55 Q39.9 18.15 38.2 18.6 38.75 16.0 38.8 13.65 M30.4 7.55 L32.6 6.15 33.3 6.2 Q36.55 8.05 32.6 11.65 L27.75 14.5 Q23.1 16.65 20.6 17.25 16.85 17.7 18.7 14.95 L20.45 13.55 Q17.8 14.85 16.05 17.3 L17.0 18.5 16.25 18.6 Q15.5 18.45 15.4 18.15 14.9 16.8 15.4 14.4 15.7 16.2 16.5 15.4 15.9 15.6 15.8 14.6 15.7 13.95 16.3 12.1 L21.45 11.7 Q25.95 8.9 30.65 9.3 L30.05 8.0 30.4 7.55 M25.15 8.6 L24.85 8.8 Q21.45 10.8 17.6 9.75 20.25 6.35 23.2 4.9 L23.85 5.15 Q26.75 6.5 25.15 8.6" fill="#e6e4b3" fill-rule="evenodd" stroke="none"/>
      <path d="M32.6 11.65 Q36.65 8.7 34.4 6.5 36.7 7.15 38.45 8.75 L38.5 8.95 Q38.5 15.8 33.65 17.6 31.9 18.05 30.15 16.95 L29.8 16.4 Q28.2 16.6 26.35 18.65 L22.3 19.0 23.2 16.9 Q21.45 16.75 18.75 19.05 17.2 18.2 16.55 17.2 L17.75 15.85 Q17.15 18.0 20.6 17.25 23.1 16.65 27.75 14.5 L32.6 11.65 M41.85 20.35 L42.9 24.7 Q40.6 23.2 37.45 25.1 L36.3 25.8 36.15 25.85 33.75 27.2 Q30.9 28.65 29.6 27.7 L30.2 27.05 29.3 27.3 Q28.45 26.45 29.7 24.55 30.95 22.7 34.8 20.4 38.6 18.15 41.85 20.35 M30.65 9.3 Q25.95 8.9 21.45 11.7 L19.8 11.15 17.6 9.75 Q21.45 10.8 24.85 8.8 L25.15 8.6 Q27.05 7.15 24.95 5.5 28.35 6.8 30.65 9.3" fill="#cac960" fill-rule="evenodd" stroke="none"/>
      <path d="M33.65 17.6 Q35.15 17.25 36.7 15.8 38.3 13.9 38.8 11.4 L38.8 13.65 Q38.75 16.0 38.2 18.6 39.9 18.15 41.45 18.55 L41.85 20.35 Q38.6 18.15 34.8 20.4 30.95 22.7 29.7 24.55 28.45 26.45 29.3 27.3 L25.7 27.4 Q28.45 23.0 32.15 20.6 L30.15 16.95 Q31.9 18.05 33.65 17.6 M36.3 25.8 Q41.65 22.85 43.3 26.55 41.75 26.8 40.0 28.65 L39.1 32.9 Q35.45 33.4 32.2 32.25 32.25 30.05 31.45 29.6 29.4 30.35 27.4 30.3 27.6 29.4 28.35 28.8 L29.6 27.7 Q30.9 28.65 33.75 27.2 L36.15 25.85 36.3 25.8" fill="#a6a637" fill-rule="evenodd" stroke="none"/>
      <path d="M33.65 17.6 Q38.5 15.8 38.5 8.95 L38.45 8.75 Q36.7 7.15 34.4 6.5 36.65 8.7 32.6 11.65 36.55 8.05 33.3 6.2 L32.6 6.15 30.4 7.55 32.45 5.4 Q36.2 5.85 39.15 8.55 39.9 12.95 38.85 18.1 39.05 15.25 38.8 13.65 L38.8 11.4 Q38.3 13.9 36.7 15.8 35.15 17.25 33.65 17.6 M20.6 17.25 Q17.15 18.0 17.75 15.85 L16.55 17.2 Q17.2 18.2 18.75 19.05 21.45 16.75 23.2 16.9 L22.5 17.35 Q20.35 17.9 18.85 19.6 L17.0 18.5 16.05 17.3 Q17.8 14.85 20.45 13.55 L18.7 14.95 Q16.85 17.7 20.6 17.25 M21.45 11.7 L16.3 12.1 Q15.7 13.95 15.8 14.6 15.9 15.6 16.5 15.4 15.7 16.2 15.4 14.4 14.9 16.8 15.4 18.15 15.5 18.45 16.25 18.6 L15.05 18.75 Q14.3 16.0 15.6 11.55 17.9 10.75 19.8 11.15 L21.45 11.7 M30.05 8.0 L30.65 9.3 Q28.35 6.8 24.95 5.5 27.05 7.15 25.15 8.6 26.75 6.5 23.85 5.15 L23.2 4.9 Q20.25 6.35 17.6 9.75 19.35 6.4 22.6 4.1 26.75 4.85 30.05 8.0" fill="#f9f8ec" fill-rule="evenodd" stroke="none"/>
      <path d="M38.85 18.1 Q39.9 12.95 39.15 8.55 36.2 5.85 32.45 5.4 L30.4 7.55 30.05 8.0 Q26.75 4.85 22.6 4.1 19.35 6.4 17.6 9.75 L19.8 11.15 Q17.9 10.75 15.6 11.55 14.3 16.0 15.05 18.75 L16.25 18.6 17.0 18.5 16.05 17.3 Q17.8 14.85 20.45 13.55 M22.5 17.35 L21.55 19.5 26.8 19.1 Q27.9 17.55 29.65 17.05 L31.45 20.5 Q27.55 23.4 24.9 27.85 L29.25 27.65 Q27.65 28.75 27.05 30.25 L27.0 30.45 Q28.85 31.15 31.0 30.5 31.8 30.4 31.75 32.55 35.15 33.8 39.55 33.4 L40.65 29.1 Q42.15 27.5 44.0 27.1 43.65 22.35 42.0 18.3 L38.85 18.1 M22.5 17.35 Q20.35 17.9 18.85 19.6 L17.0 18.5" fill="none" stroke="#000000" stroke-linecap="round" stroke-linejoin="round" stroke-opacity="0.3019608" stroke-width="0.30000000000000004"/>
      <path d="M20.7 22.4 L20.75 22.05 20.9 21.35 21.2 20.7 21.5 20.3 Q22.25 19.3 23.55 18.85 L26.45 19.0 26.5 19.05 26.55 19.1 26.65 19.55 26.4 21.1 26.2 21.5 Q25.65 22.45 24.55 22.9 26.45 21.5 26.4 20.1 26.35 19.25 24.65 19.0 L23.6 19.15 Q22.25 19.6 21.55 20.65 L21.45 20.75 21.5 20.75 21.45 20.85 Q21.1 21.65 21.4 22.2 L21.4 22.35 Q22.0 23.0 23.65 23.2 L21.55 22.95 21.35 22.85 21.05 22.7 20.7 22.4" fill="#ffff98" fill-rule="evenodd" stroke="none"/>
      <path d="M26.5 19.05 Q27.85 19.7 28.25 21.0 28.65 22.4 27.85 23.7 27.05 25.0 25.5 25.45 L22.6 25.35 21.25 24.25 20.8 23.3 20.7 22.4 21.05 22.7 21.1 23.15 21.3 23.55 Q21.7 24.45 22.7 24.9 L24.2 25.25 25.25 25.0 Q26.65 24.6 27.4 23.4 28.1 22.25 27.7 21.05 27.45 20.1 26.65 19.55 L26.55 19.1 26.5 19.05 M23.65 23.2 Q22.0 23.0 21.4 22.35 L21.4 22.2 Q21.1 21.65 21.45 20.85 L21.5 20.75 21.45 20.75 21.55 20.65 Q22.25 19.6 23.6 19.15 L24.65 19.0 Q26.35 19.25 26.4 20.1 26.45 21.5 24.55 22.9 L24.15 23.05 23.65 23.2" fill="#ffde4f" fill-rule="evenodd" stroke="none"/>
      <path d="M26.4 21.1 L26.65 19.55 Q27.45 20.1 27.7 21.05 28.1 22.25 27.4 23.4 26.65 24.6 25.25 25.0 L24.2 25.25 Q25.65 24.7 26.25 23.8 27.3 22.1 26.4 21.1" fill="#cc6b22" fill-rule="evenodd" stroke="none"/>
      <path d="M21.05 22.7 L21.35 22.85 21.55 22.95 23.65 23.2 24.15 23.05 24.55 22.9 Q25.65 22.45 26.2 21.5 L26.4 21.1 Q27.3 22.1 26.25 23.8 25.65 24.7 24.2 25.25 L22.7 24.9 Q21.7 24.45 21.3 23.55 L21.1 23.15 21.05 22.7" fill="#f4a33c" fill-rule="evenodd" stroke="none"/>
      <path d="M20.7 22.4 L20.75 22.05 20.9 21.35 21.2 20.7 21.5 20.3 Q22.25 19.3 23.55 18.85 L26.45 19.0 26.5 19.05 Q27.85 19.7 28.25 21.0 28.65 22.4 27.85 23.7 27.05 25.0 25.5 25.45 L22.6 25.35 21.25 24.25 20.8 23.3 20.7 22.4 Z" fill="none" stroke="#000000" stroke-linecap="round" stroke-linejoin="round" stroke-opacity="0.3019608" stroke-width="0.30000000000000004"/>
      <path d="M19.0 17.85 L19.0 17.9 18.9 18.3 18.25 19.65 18.0 20.0 16.9 21.15 Q18.1 20.05 18.6 18.8 18.85 18.0 18.3 17.65 L17.8 17.75 Q17.15 18.0 16.5 18.95 L16.45 19.05 16.4 19.15 Q16.0 19.8 15.9 20.35 L15.9 20.45 Q15.85 21.0 16.4 21.35 15.9 21.45 15.65 20.95 L15.65 20.9 15.6 20.7 15.55 20.45 15.7 20.1 16.0 19.5 16.35 18.9 16.6 18.65 17.9 17.45 Q18.65 17.15 19.0 17.85" fill="#ffff98" fill-rule="evenodd" stroke="none"/>
      <path d="M18.9 18.3 L19.0 17.9 19.0 17.85 Q19.25 18.5 19.0 19.7 18.7 21.0 17.9 22.05 17.15 23.15 16.35 23.45 15.6 23.8 15.25 23.15 L15.15 22.1 15.25 21.25 15.55 20.45 15.6 20.7 15.5 21.1 15.4 21.5 Q15.2 22.3 15.45 22.75 L15.95 23.15 16.45 23.05 Q17.1 22.8 17.8 21.8 L18.75 19.7 18.9 18.3 M16.4 21.35 Q15.85 21.0 15.9 20.45 L15.9 20.35 Q16.0 19.8 16.4 19.15 L16.45 19.05 16.5 18.95 Q17.15 18.0 17.8 17.75 L18.3 17.65 Q18.85 18.0 18.6 18.8 18.1 20.05 16.9 21.15 L16.7 21.3 16.4 21.35" fill="#ffde4f" fill-rule="evenodd" stroke="none"/>
      <path d="M18.9 18.3 L18.75 19.7 17.8 21.8 Q17.1 22.8 16.45 23.05 L15.95 23.15 17.25 22.05 Q18.25 20.6 18.25 19.65 L18.9 18.3" fill="#cc6b22" fill-rule="evenodd" stroke="none"/>
      <path d="M15.95 23.15 L15.45 22.75 Q15.2 22.3 15.4 21.5 L15.5 21.1 15.6 20.7 15.65 20.9 15.65 20.95 Q15.9 21.45 16.4 21.35 L16.7 21.3 16.9 21.15 18.0 20.0 18.25 19.65 Q18.25 20.6 17.25 22.05 L15.95 23.15" fill="#f4a33c" fill-rule="evenodd" stroke="none"/>
      <path d="M15.55 20.45 L15.25 21.25 15.15 22.1 15.25 23.15 Q15.6 23.8 16.35 23.45 17.15 23.15 17.9 22.05 18.7 21.0 19.0 19.7 19.25 18.5 19.0 17.85 18.65 17.15 17.9 17.45 L16.6 18.65 16.35 18.9 16.0 19.5 15.7 20.1 15.55 20.45 Z" fill="none" stroke="#000000" stroke-linecap="round" stroke-linejoin="round" stroke-opacity="0.3019608" stroke-width="0.30000000000000004"/>
      <path d="M21.95 20.45 L22.4 19.8 Q22.7 19.55 23.05 19.5 23.35 19.4 23.5 19.6 L23.55 20.1 23.15 20.65 22.45 21.05 22.0 20.95 Q21.85 20.75 21.95 20.45" fill="#ffff98" fill-rule="evenodd" stroke="none"/>
      <path d="M16.45 19.45 Q16.45 19.15 16.7 18.85 L17.15 18.35 17.45 18.2 17.4 18.55 17.15 19.1 16.7 19.65 16.45 19.75 16.45 19.45" fill="#ffff98" fill-rule="evenodd" stroke="none"/>
    </g>
    <g id="sprite1" transform="matrix(1.0, 0.0, 0.0, 1.0, 0.0, 0.0)">
      <use height="26.7" transform="matrix(0.0042, -1.3515, 1.3935, 0.02, 22.09, 56.0263)" width="26.7" xlink:href="#sprite2"/>
      <use height="26.7" transform="matrix(0.0095, -3.0486, 0.372, 0.0053, 36.507, 81.3775)" width="26.7" xlink:href="#sprite2"/>
      <use height="26.7" transform="matrix(3.0486, 0.0095, -0.0053, 0.372, 0.1225, 35.107)" width="26.7" xlink:href="#sprite2"/>
    </g>
    <g id="sprite2" transform="matrix(1.0, 0.0, 0.0, 1.0, 13.35, 13.35)">
      <use height="26.7" transform="matrix(1.0, 0.0, 0.0, 1.0, -13.35, -13.35)" width="26.7" xlink:href="#shape1"/>
    </g>
    <g id="shape1" transform="matrix(1.0, 0.0, 0.0, 1.0, 13.35, 13.35)">
      <path d="M9.3 -9.85 Q13.35 -5.8 13.35 0.0 13.35 5.8 9.3 9.3 5.8 13.35 0.0 13.35 -5.8 13.35 -9.85 9.3 -13.35 5.8 -13.35 0.0 -13.35 -5.8 -9.85 -9.85 -5.8 -13.35 0.0 -13.35 5.8 -13.35 9.3 -9.85" fill="url(#gradient0)" fill-rule="evenodd" stroke="none"/>
    </g>
    <radialGradient cx="0" cy="0" gradientTransform="matrix(0.0213, 0.0, 0.0, 0.0213, 0.0, 0.0)" gradientUnits="userSpaceOnUse" id="gradient0" r="819.2" spreadMethod="pad">
      <stop offset="0.19607843137254902" stop-color="#fee3bc" stop-opacity="0.3764706"/>
      <stop offset="0.5019607843137255" stop-color="#fee3bc" stop-opacity="0.05882353"/>
      <stop offset="0.7607843137254902" stop-color="#ffe3bd" stop-opacity="0.0"/>
    </radialGradient>
  </defs>
</svg>
