<?xml version="1.0" encoding="UTF-8" standalone="no"?>
<svg xmlns:xlink="http://www.w3.org/1999/xlink" height="52.0px" width="52.0px" xmlns="http://www.w3.org/2000/svg">
  <g transform="matrix(1.0, 0.0, 0.0, 1.0, 0.0, 0.0)">
    <use height="258.0" transform="matrix(1.0, 0.0, 0.0, 1.0, -103.0, -103.0)" width="258.0" xlink:href="#shape0"/>
    <use height="0.0" transform="matrix(0.0677, 0.0, -0.0306, 0.0881, 20.1, 40.0)" width="0.0" xlink:href="#sprite0"/>
    <use height="96.85" transform="matrix(1.0, 0.0, 0.0, 1.0, -22.15, -24.65)" width="97.3" xlink:href="#shape1"/>
    <use height="0.0" transform="matrix(0.1346, 0.0, -0.0478, 0.1343, 29.45, 23.8)" width="0.0" xlink:href="#sprite0"/>
    <use height="79.5" transform="matrix(1.0, 0.0, 0.0, 1.0, -23.15, -15.95)" width="89.1" xlink:href="#shape2"/>
    <use height="0.0" transform="matrix(0.1316, 0.0, -0.0305, 0.0899, 24.5, 12.7)" width="0.0" xlink:href="#sprite0"/>
    <use height="0.0" transform="matrix(0.0407, 0.0, -0.0116, 0.0343, 32.0, 6.1)" width="0.0" xlink:href="#sprite0"/>
    <use height="0.0" transform="matrix(0.0586, 0.0, -0.0154, 0.0455, 16.45, 36.6)" width="0.0" xlink:href="#sprite0"/>
    <use height="81.5" transform="matrix(0.1892, 0.0, 0.0, 0.164, 25.45, 15.45)" width="81.5" xlink:href="#sprite1"/>
  </g>
  <defs>
    <g id="shape0" transform="matrix(1.0, 0.0, 0.0, 1.0, 103.0, 103.0)">
      <path d="M52.0 0.0 L52.0 52.0 0.0 52.0 0.0 0.0 52.0 0.0" fill="#795fa9" fill-opacity="0.0" fill-rule="evenodd" stroke="none"/>
      <path d="M10.15 15.45 L9.65 14.3 Q9.85 11.8 11.05 10.45 13.15 9.15 14.95 9.45 19.25 6.8 23.9 6.45 L23.9 5.3 Q25.2 4.15 27.05 3.8 L29.25 5.0 Q30.4 3.9 31.95 3.9 33.55 3.9 34.65 5.05 L34.75 5.1 Q35.55 5.95 35.75 7.0 L40.95 6.6 Q42.0 7.85 42.05 9.75 L42.05 10.25 41.8 11.85 41.5 12.25 39.55 14.4 39.65 14.55 40.05 15.85 40.2 16.75 40.05 18.25 41.65 18.25 Q43.4 19.2 44.05 21.6 L44.1 21.9 Q44.2 24.25 43.45 25.4 L42.65 26.2 42.4 26.3 42.3 26.35 40.65 27.0 38.1 27.35 38.0 27.15 36.8 29.1 Q35.8 30.5 34.4 31.7 L33.4 32.5 30.45 34.3 30.9 35.25 31.1 36.7 31.05 37.55 30.75 38.0 Q29.85 39.35 28.6 39.6 L25.45 39.05 25.4 39.1 24.2 41.9 Q20.25 48.85 16.85 48.4 L16.5 48.3 16.2 48.25 16.2 45.8 15.6 45.75 15.25 47.7 14.15 47.65 13.45 47.35 Q11.85 46.2 11.4 41.8 L11.1 40.4 Q10.95 38.95 11.45 37.35 11.65 36.6 12.0 35.95 L12.15 35.3 10.65 34.75 9.65 33.55 9.65 33.3 Q9.65 32.1 10.35 31.4 L11.75 30.5 Q9.15 27.35 8.9 23.3 L8.5 23.2 8.15 22.3 7.95 21.4 Q7.8 20.4 8.05 19.25 L8.2 18.65 8.45 17.9 8.5 17.8 Q8.9 16.85 9.6 16.0 L10.15 15.45 Z" fill="none" stroke="#000000" stroke-linecap="round" stroke-linejoin="round" stroke-opacity="0.3019608" stroke-width="1.0"/>
      <path d="M25.7 36.75 Q22.4 47.5 16.95 48.15 L19.0 42.35 19.3 41.75 Q20.4 39.1 19.3 37.75 L15.4 32.35 Q17.95 30.8 20.65 31.2 23.5 31.7 24.9 34.1 25.6 35.35 25.7 36.75 M16.2 45.8 L15.6 45.75 15.25 47.7 14.95 47.7 15.25 45.6 14.4 45.15 Q13.5 44.75 12.75 43.6 L12.45 43.15 12.45 42.95 Q13.5 43.8 15.35 44.65 L16.2 44.8 16.2 45.8 M15.6 45.75 L15.25 45.6 15.6 45.75" fill="#aa772b" fill-rule="evenodd" stroke="none"/>
      <path d="M25.7 36.75 Q25.8 38.1 25.4 39.1 L24.2 41.9 Q20.25 48.85 16.85 48.4 L16.95 48.15 Q22.4 47.5 25.7 36.75 M12.45 42.95 L12.45 43.15 12.75 43.6 Q13.5 44.75 14.4 45.15 L14.35 45.75 13.85 47.15 12.75 46.0 Q11.7 44.2 11.95 42.05 11.45 40.8 11.45 39.55 11.65 37.65 12.85 37.85 14.9 38.55 16.3 40.65 17.5 43.2 15.25 44.1 13.15 43.35 12.45 42.55 L12.45 42.95" fill="#d8a53f" fill-rule="evenodd" stroke="none"/>
      <path d="M16.95 48.15 L16.85 48.4 16.5 48.3 16.55 44.45 15.25 44.1 Q17.5 43.2 16.3 40.65 14.9 38.55 12.85 37.85 11.65 37.65 11.45 39.55 11.4 38.55 11.65 37.55 12.25 35.3 14.4 33.05 L15.05 32.55 15.4 32.35 19.3 37.75 Q20.4 39.1 19.3 41.75 L19.0 42.35 16.95 48.15" fill="#cc9933" fill-rule="evenodd" stroke="none"/>
      <path d="M14.95 47.7 L14.15 47.65 14.35 45.75 14.4 45.15 15.25 45.6 14.95 47.7" fill="#825a20" fill-rule="evenodd" stroke="none"/>
      <path d="M16.5 48.3 L16.2 48.25 16.2 45.8 16.2 44.8 15.35 44.65 Q13.5 43.8 12.45 42.95 L12.45 42.55 Q13.15 43.35 15.25 44.1 L16.55 44.45 16.5 48.3 M14.15 47.65 L13.45 47.35 Q11.85 46.2 11.4 41.8 L11.1 40.4 Q10.95 38.95 11.45 37.35 12.25 34.75 14.4 33.05 12.25 35.3 11.65 37.55 11.4 38.55 11.45 39.55 11.45 40.8 11.95 42.05 11.7 44.2 12.75 46.0 L13.85 47.15 14.35 45.75 14.15 47.65" fill="#e0c585" fill-rule="evenodd" stroke="none"/>
      <path d="M16.85 48.4 Q20.25 48.85 24.2 41.9 L25.4 39.1 Q25.8 38.1 25.7 36.75 25.6 35.35 24.9 34.1 23.5 31.7 20.65 31.2 17.95 30.8 15.4 32.35 L15.05 32.55 14.4 33.05 Q12.25 34.75 11.45 37.35 10.95 38.95 11.1 40.4 L11.4 41.8 Q11.85 46.2 13.45 47.35 L14.15 47.65 14.95 47.7 15.25 47.7 15.6 45.75 16.2 45.8 16.2 44.8 15.35 44.65 M16.85 48.4 L16.5 48.3 16.2 48.25 16.2 45.8 M12.45 43.15 L12.75 43.6 Q13.5 44.75 14.4 45.15 L15.25 45.6 15.6 45.75" fill="none" stroke="#000000" stroke-linecap="round" stroke-linejoin="round" stroke-opacity="0.3019608" stroke-width="0.30000000000000004"/>
      <path d="M24.55 35.85 L29.35 35.85 30.3 37.55 30.55 37.25 30.8 36.55 30.9 35.25 31.1 36.7 31.05 37.55 30.75 38.0 Q29.85 39.35 28.6 39.6 L27.9 39.45 25.45 38.15 28.95 38.45 Q29.9 37.6 29.2 36.4 L24.4 36.4 24.55 35.85" fill="#aa772b" fill-rule="evenodd" stroke="none"/>
      <path d="M24.35 37.55 L24.35 36.8 24.4 36.4 29.2 36.4 Q29.9 37.6 28.95 38.45 L25.45 38.15 24.35 37.55" fill="#d8a53f" fill-rule="evenodd" stroke="none"/>
      <path d="M24.55 35.85 L24.75 35.35 Q25.7 34.55 26.8 34.1 L27.75 33.75 30.2 34.0 30.9 35.25 30.8 36.55 30.55 37.25 30.3 37.55 29.35 35.85 24.55 35.85 M27.9 39.45 L24.6 38.9 24.35 37.55 25.45 38.15 27.9 39.45" fill="#825a20" fill-rule="evenodd" stroke="none"/>
      <path d="M30.9 35.25 L30.2 34.0 27.75 33.75 26.8 34.1 Q25.7 34.55 24.75 35.35 L24.55 35.85 24.4 36.4 24.35 36.8 24.35 37.55 24.6 38.9 27.9 39.45 28.6 39.6 Q29.85 39.35 30.75 38.0 L31.05 37.55 31.1 36.7 30.9 35.25 Z" fill="none" stroke="#000000" stroke-linecap="round" stroke-linejoin="round" stroke-opacity="0.3019608" stroke-width="0.30000000000000004"/>
      <path d="M9.65 33.3 L13.15 34.65 13.55 33.2 14.75 33.95 13.65 35.85 10.65 34.75 9.65 33.55 9.65 33.3" fill="#aa772b" fill-rule="evenodd" stroke="none"/>
      <path d="M9.65 33.3 Q9.65 32.1 10.35 31.4 L11.2 30.85 13.55 33.2 13.15 34.65 9.65 33.3" fill="#d8a53f" fill-rule="evenodd" stroke="none"/>
      <path d="M13.55 33.2 L11.2 30.85 12.0 30.3 15.3 33.05 14.75 33.95 13.55 33.2" fill="#825a20" fill-rule="evenodd" stroke="none"/>
      <path d="M11.2 30.85 L10.35 31.4 Q9.65 32.1 9.65 33.3 L9.65 33.55 10.65 34.75 13.65 35.85 14.75 33.95 15.3 33.05 12.0 30.3 11.2 30.85 Z" fill="none" stroke="#000000" stroke-linecap="round" stroke-linejoin="round" stroke-opacity="0.3019608" stroke-width="0.30000000000000004"/>
      <path d="M28.9 7.2 L26.55 6.9 24.6 5.25 26.8 4.15 29.2 4.95 29.9 5.3 28.9 7.2" fill="#d8a53f" fill-rule="evenodd" stroke="none"/>
      <path d="M23.9 5.3 L26.3 7.45 28.9 7.2 27.95 9.15 23.9 9.15 23.9 5.3" fill="#aa772b" fill-rule="evenodd" stroke="none"/>
      <path d="M29.2 4.95 L26.8 4.15 24.6 5.25 26.55 6.9 28.9 7.2 26.3 7.45 23.9 5.3 Q25.2 4.15 27.05 3.8 L29.2 4.95" fill="#e0c585" fill-rule="evenodd" stroke="none"/>
      <path d="M29.2 4.95 L27.05 3.8 Q25.2 4.15 23.9 5.3 L23.9 9.15 27.95 9.15 28.9 7.2 29.9 5.3 29.2 4.95 Z" fill="none" stroke="#000000" stroke-linecap="round" stroke-linejoin="round" stroke-opacity="0.3019608" stroke-width="0.30000000000000004"/>
      <path d="M32.1 4.65 Q33.3 4.7 34.15 5.55 L34.2 5.6 34.6 6.15 33.6 7.8 33.35 8.05 Q35.25 5.65 32.1 4.65" fill="#d7f16b" fill-rule="evenodd" stroke="none"/>
      <path d="M28.05 7.75 Q28.05 6.2 29.2 5.05 30.35 3.9 31.95 3.9 33.55 3.9 34.65 5.05 L34.75 5.05 Q35.8 6.2 35.8 7.75 35.8 9.35 34.65 10.5 33.55 11.65 31.95 11.65 30.35 11.65 29.2 10.5 28.1 9.4 28.05 7.85 L28.1 7.8 28.05 7.75 M32.1 4.65 L31.95 4.65 Q30.65 4.65 29.7 5.55 28.8 6.5 28.8 7.75 L28.9 8.45 Q29.05 9.3 29.7 10.0 30.65 10.9 31.95 10.9 33.25 10.9 34.15 10.0 35.05 9.05 35.05 7.75 35.05 6.85 34.6 6.15 L34.2 5.6 34.15 5.55 Q33.3 4.7 32.1 4.65" fill="#9ae17b" fill-rule="evenodd" stroke="none"/>
      <path d="M28.05 7.85 L28.05 7.75 28.1 7.8 28.05 7.85 M28.9 8.45 L28.8 7.75 Q28.8 6.5 29.7 5.55 30.65 4.65 31.95 4.65 L32.1 4.65 Q35.25 5.65 33.35 8.05 32.3 8.95 30.85 8.95 L28.9 8.45" fill="#75d74a" fill-rule="evenodd" stroke="none"/>
      <path d="M34.6 6.15 Q35.05 6.85 35.05 7.75 35.05 9.05 34.15 10.0 33.25 10.9 31.95 10.9 30.65 10.9 29.7 10.0 29.05 9.3 28.9 8.45 L30.85 8.95 Q32.3 8.95 33.35 8.05 L33.6 7.8 34.6 6.15" fill="#339328" fill-rule="evenodd" stroke="none"/>
      <path d="M28.05 7.75 Q28.05 6.2 29.2 5.05 30.35 3.9 31.95 3.9 33.55 3.9 34.65 5.05 L34.75 5.05 Q35.8 6.2 35.8 7.75 35.8 9.35 34.65 10.5 33.55 11.65 31.95 11.65 30.35 11.65 29.2 10.5 28.1 9.4 28.05 7.85 L28.05 7.75 Z" fill="none" stroke="#000000" stroke-linecap="round" stroke-linejoin="round" stroke-opacity="0.3019608" stroke-width="0.30000000000000004"/>
      <path d="M33.9 9.7 L37.75 10.95 37.85 13.6 37.2 16.0 33.3 11.2 33.9 9.7 M40.65 8.0 L40.8 6.7 40.8 6.6 40.95 6.6 Q42.0 7.85 42.05 9.75 L42.05 10.25 41.8 11.85 41.5 12.25 41.5 10.2 41.5 10.05 Q41.3 8.45 40.65 8.0" fill="#aa772b" fill-rule="evenodd" stroke="none"/>
      <path d="M37.0 6.95 L40.4 7.25 40.15 8.25 38.45 10.6 33.9 9.7 35.0 7.1 37.0 6.95" fill="#d8a53f" fill-rule="evenodd" stroke="none"/>
      <path d="M37.85 13.6 L38.45 11.2 39.95 9.3 40.65 8.0 Q41.3 8.45 41.5 10.05 L41.5 10.2 41.5 12.25 Q39.45 14.9 37.2 16.0 L37.85 13.6" fill="#825a20" fill-rule="evenodd" stroke="none"/>
      <path d="M33.9 9.7 L38.45 10.6 40.15 8.25 40.4 7.25 37.0 6.95 40.8 6.6 40.8 6.7 40.65 8.0 39.95 9.3 38.45 11.2 37.85 13.6 37.75 10.95 33.9 9.7" fill="#e0c585" fill-rule="evenodd" stroke="none"/>
      <path d="M37.0 6.95 L35.0 7.1 33.9 9.7 33.3 11.2 37.2 16.0 Q39.45 14.9 41.5 12.25 L41.8 11.85 42.05 10.25 42.05 9.75 Q42.0 7.85 40.95 6.6 L40.8 6.6 37.0 6.95 M37.2 16.0 L37.05 16.15" fill="none" stroke="#000000" stroke-linecap="round" stroke-linejoin="round" stroke-opacity="0.3019608" stroke-width="0.30000000000000004"/>
      <path d="M14.2 12.55 L15.1 13.8 12.95 14.9 12.8 13.65 13.3 12.9 14.2 12.55" fill="#aa772b" fill-rule="evenodd" stroke="none"/>
      <path d="M10.3 15.7 L10.3 13.8 Q10.1 12.9 11.35 10.65 L14.0 9.8 15.7 10.5 15.05 11.95 14.75 12.3 13.85 11.8 12.3 12.2 12.3 13.8 13.1 15.85 11.05 17.4 10.3 15.7" fill="#d8a53f" fill-rule="evenodd" stroke="none"/>
      <path d="M13.1 15.85 L12.3 13.8 12.8 12.5 13.5 12.3 14.2 12.55 13.3 12.9 12.8 13.65 12.95 14.9 13.1 15.85" fill="#825a20" fill-rule="evenodd" stroke="none"/>
      <path d="M15.05 11.95 L16.25 10.4 18.15 12.2 15.35 14.05 15.1 13.8 14.2 12.55 13.5 12.3 12.8 12.5 12.3 13.8 12.3 12.2 13.85 11.8 14.75 12.3 15.05 11.95" fill="#cc9933" fill-rule="evenodd" stroke="none"/>
      <path d="M15.05 11.95 L15.7 10.5 14.0 9.8 11.35 10.65 Q10.1 12.9 10.3 13.8 L10.3 15.7 9.65 14.3 Q9.85 11.8 11.05 10.45 13.3 9.05 15.25 9.45 L16.25 10.4 15.05 11.95" fill="#e0c585" fill-rule="evenodd" stroke="none"/>
      <path d="M16.25 10.4 L15.25 9.45 Q13.3 9.05 11.05 10.45 9.85 11.8 9.65 14.3 L10.3 15.7 11.05 17.4 13.1 15.85 12.3 13.8 12.8 12.5 13.5 12.3 14.2 12.55 15.1 13.8 15.35 14.05 18.15 12.2 16.25 10.4 M12.95 14.9 L12.8 13.65 13.3 12.9 14.2 12.55 M15.1 13.8 L12.95 14.9 13.1 15.85" fill="none" stroke="#000000" stroke-linecap="round" stroke-linejoin="round" stroke-opacity="0.3019608" stroke-width="0.30000000000000004"/>
    </g>
    <g id="shape1" transform="matrix(1.0, 0.0, 0.0, 1.0, 22.15, 24.65)">
      <path d="M14.65 35.25 L14.8 36.8 14.55 40.15 15.1 40.4 Q16.8 40.45 18.4 39.8 L18.6 39.75 20.0 38.9 Q21.15 37.65 21.9 34.3 L22.3 34.4 Q21.7 37.3 20.95 38.55 L20.5 39.15 19.1 40.1 18.2 40.5 15.2 40.75 14.85 40.7 14.8 40.7 14.5 40.6 Q13.0 39.65 12.4 38.35 L13.6 39.55 Q14.4 39.8 14.6 36.65 L14.65 35.25" fill="#d7f16b" fill-rule="evenodd" stroke="none"/>
      <path d="M14.05 32.85 L14.7 32.25 17.9 33.15 Q17.35 36.85 18.25 39.45 L18.4 39.8 Q16.8 40.45 15.1 40.4 L14.55 40.15 14.8 36.8 14.65 35.25 14.05 32.85" fill="#9ae17b" fill-rule="evenodd" stroke="none"/>
      <path d="M14.05 32.85 L14.65 35.25 14.6 36.65 Q14.4 39.8 13.6 39.55 L12.4 38.35 12.0 37.05 Q11.85 36.15 12.3 34.9 L12.85 33.8 14.05 32.85 M17.9 33.15 L21.9 34.3 Q21.15 37.65 20.0 38.9 17.65 39.4 17.9 33.15 M19.45 40.75 L18.85 40.95 16.95 41.05 15.2 40.75 18.2 40.5 19.45 40.75" fill="#75d74a" fill-rule="evenodd" stroke="none"/>
      <path d="M18.4 39.8 L18.25 39.45 Q17.35 36.85 17.9 33.15 17.65 39.4 20.0 38.9 L18.6 39.75 18.4 39.8 M21.6 38.95 L19.75 40.6 19.45 40.75 18.2 40.5 19.1 40.1 20.5 39.15 20.95 38.55 21.6 38.95" fill="#339328" fill-rule="evenodd" stroke="none"/>
      <path d="M22.3 34.4 L23.2 34.4 21.85 38.65 21.6 38.95 20.95 38.55 Q21.7 37.3 22.3 34.4" fill="#246c41" fill-rule="evenodd" stroke="none"/>
      <path d="M17.9 33.15 L14.7 32.25 14.05 32.85 12.85 33.8 12.3 34.9 Q11.85 36.15 12.0 37.05 L12.4 38.35 Q13.0 39.65 14.5 40.6 L14.8 40.7 14.85 40.7 15.2 40.75 16.95 41.05 18.85 40.95 19.45 40.75 19.75 40.6 21.6 38.95 21.85 38.65 23.2 34.4 22.3 34.4 21.9 34.3 17.9 33.15 Z" fill="none" stroke="#000000" stroke-linecap="round" stroke-linejoin="round" stroke-opacity="0.3019608" stroke-width="0.30000000000000004"/>
      <path d="M33.5 23.25 Q34.55 21.85 35.05 20.25 L35.6 17.15 Q35.75 14.8 34.95 12.8 38.85 16.6 38.55 21.9 38.5 23.7 37.95 25.3 37.4 26.9 36.5 28.3 L35.95 27.6 33.6 25.2 33.05 24.9 32.45 24.55 33.05 24.9 35.25 27.3 36.05 28.9 35.6 29.5 33.85 31.2 33.5 31.55 33.2 30.1 32.4 27.85 31.8 26.4 31.55 26.05 31.3 25.65 31.55 26.05 32.75 29.9 33.15 31.85 32.75 32.1 Q28.7 35.05 23.5 35.05 19.1 35.05 15.7 32.95 L15.6 32.9 14.95 31.05 14.6 28.5 14.7 27.15 14.6 28.5 14.55 29.85 14.75 32.3 13.45 31.2 Q9.4 27.35 9.7 21.9 L9.8 20.9 Q10.55 23.5 12.75 25.6 L13.1 25.9 14.7 27.15 14.8 27.2 Q16.65 28.35 18.9 28.8 L21.9 29.1 Q26.75 29.1 30.5 26.3 L31.3 25.65 31.35 25.6 32.45 24.55 33.45 23.35 33.5 23.25" fill="#aa772b" fill-rule="evenodd" stroke="none"/>
      <path d="M10.9 17.05 L11.25 16.4 Q12.4 14.35 14.35 12.6 L14.7 12.35 Q15.7 11.3 17.1 10.5 19.2 9.25 21.35 9.1 L24.75 8.75 26.45 8.85 Q31.6 12.05 28.65 21.85 26.4 27.95 18.9 28.8 16.65 28.35 14.8 27.2 L14.7 27.15 13.1 25.9 Q10.2 22.6 10.05 19.45 L10.15 19.1 Q10.4 18.05 10.85 17.15 L10.9 17.05 12.3 20.65 12.7 21.7 14.8 25.0 15.05 20.65 20.05 14.0 15.05 20.65 14.8 25.0 12.7 21.7 12.3 20.65 10.9 17.05 M14.8 25.0 L14.7 27.15 14.8 25.0 M10.4 18.9 L12.3 20.65 10.4 18.9 M24.55 15.9 L28.65 21.85 24.55 15.9" fill="#d8a53f" fill-rule="evenodd" stroke="none"/>
      <path d="M26.45 8.85 L24.75 8.75 21.35 9.1 Q19.2 9.25 17.1 10.5 15.7 11.3 14.7 12.35 L14.35 12.6 Q12.4 14.35 11.25 16.4 L10.9 17.05 10.55 16.15 10.9 17.05 10.85 17.15 Q10.4 18.05 10.15 19.1 L10.05 19.45 Q10.2 22.6 13.1 25.9 L12.75 25.6 Q10.55 23.5 9.8 20.9 L9.4 18.95 Q9.7 17.9 10.15 16.9 L10.55 16.15 Q11.75 13.95 13.85 12.15 18.5 8.1 24.8 8.1 30.25 8.1 34.15 11.1 L34.95 12.8 Q35.75 14.8 35.6 17.15 L35.05 20.25 Q34.55 21.85 33.5 23.25 36.95 16.15 33.35 11.45 30.35 9.2 26.45 8.85" fill="#e0c585" fill-rule="evenodd" stroke="none"/>
      <path d="M26.45 8.85 Q30.35 9.2 33.35 11.45 36.95 16.15 33.5 23.25 L33.45 23.35 32.45 24.55 29.4 22.9 31.3 25.65 29.4 22.9 32.45 24.55 31.35 25.6 31.3 25.65 30.5 26.3 Q26.75 29.1 21.9 29.1 L18.9 28.8 Q26.4 27.95 28.65 21.85 31.6 12.05 26.45 8.85 M34.95 12.8 L34.15 11.1 35.35 12.15 Q39.6 16.2 39.3 21.9 39.25 23.8 38.65 25.5 38.05 27.4 36.8 29.1 35.8 30.5 34.4 31.7 L33.4 32.5 Q29.05 35.75 23.45 35.75 18.8 35.75 15.25 33.55 L12.9 31.7 Q8.65 27.65 8.9 21.9 9.0 20.35 9.4 18.95 L9.8 20.9 9.7 21.9 Q9.4 27.35 13.45 31.2 L14.75 32.3 14.55 29.85 14.6 28.5 14.95 31.05 15.6 32.9 15.7 32.95 Q19.1 35.05 23.5 35.05 28.7 35.05 32.75 32.1 L33.15 31.85 32.75 29.9 31.55 26.05 31.8 26.4 32.4 27.85 33.2 30.1 33.5 31.55 33.85 31.2 35.6 29.5 36.05 28.9 35.25 27.3 33.05 24.9 33.6 25.2 35.95 27.6 36.5 28.3 Q37.4 26.9 37.95 25.3 38.5 23.7 38.55 21.9 38.85 16.6 34.95 12.8 M36.8 29.1 L36.5 28.3 36.8 29.1 M33.4 32.5 L33.5 31.55 33.4 32.5 M28.65 21.85 L29.4 22.9 28.65 21.85 M15.25 33.55 Q14.9 33.15 14.75 32.3 14.9 33.15 15.25 33.55" fill="#cc9933" fill-rule="evenodd" stroke="none"/>
      <path d="M34.15 11.1 Q30.25 8.1 24.8 8.1 18.5 8.1 13.85 12.15 11.75 13.95 10.55 16.15 L10.9 17.05 12.3 20.65 12.7 21.7 14.8 25.0 15.05 20.65 20.05 14.0 M9.4 18.95 Q9.7 17.9 10.15 16.9 L10.55 16.15 M34.15 11.1 L35.35 12.15 Q39.6 16.2 39.3 21.9 39.25 23.8 38.65 25.5 38.05 27.4 36.8 29.1 35.8 30.5 34.4 31.7 L33.4 32.5 Q29.05 35.75 23.45 35.75 18.8 35.75 15.25 33.55 L12.9 31.7 Q8.65 27.65 8.9 21.9 9.0 20.35 9.4 18.95 M14.7 27.15 L14.8 25.0 M36.5 28.3 L36.8 29.1 M33.05 24.9 L33.6 25.2 35.95 27.6 36.5 28.3 M32.45 24.55 L33.05 24.9 M33.5 31.55 L33.4 32.5 M32.45 24.55 L29.4 22.9 31.3 25.65 31.55 26.05 31.8 26.4 32.4 27.85 33.2 30.1 33.5 31.55 M29.4 22.9 L28.65 21.85 24.55 15.9 M14.7 27.15 L14.6 28.5 14.55 29.85 14.75 32.3 Q14.9 33.15 15.25 33.55 M12.3 20.65 L10.4 18.9" fill="none" stroke="#000000" stroke-linecap="round" stroke-linejoin="round" stroke-opacity="0.3019608" stroke-width="0.30000000000000004"/>
      <path d="M26.75 14.5 L26.65 14.55 26.7 14.5 26.75 14.5" fill="#ffcc00" fill-rule="evenodd" stroke="none"/>
      <path d="M34.25 13.05 L32.7 13.05 Q34.4 12.45 34.65 11.65 35.0 10.7 33.3 9.45 35.05 10.5 35.05 11.6 L34.8 12.4 34.25 13.05 M15.3 17.75 L15.4 17.75 15.5 18.2 15.3 17.8 15.3 17.75 M14.9 14.4 Q14.65 11.0 16.2 9.55 14.15 13.85 17.7 16.2 L18.8 16.55 Q21.2 17.1 25.1 15.3 L22.05 17.1 18.55 17.3 Q15.5 16.95 14.9 14.4" fill="#d7f16b" fill-rule="evenodd" stroke="none"/>
      <path d="M34.25 13.05 L35.65 13.15 36.2 13.25 Q36.55 12.7 36.5 12.15 L36.2 11.4 Q35.4 10.1 32.3 8.7 30.15 7.8 28.1 7.4 23.9 6.55 20.0 7.8 L19.8 7.85 18.25 8.45 Q17.25 8.9 16.2 9.55 14.65 11.0 14.9 14.4 L14.95 15.1 15.0 15.55 15.0 15.7 15.4 17.75 15.3 17.75 14.65 15.6 Q13.95 12.6 14.25 9.85 19.45 6.4 25.1 6.4 32.1 6.4 36.8 10.9 L37.8 11.9 Q38.9 13.15 39.65 14.55 L40.05 15.85 39.45 15.1 39.1 14.7 38.75 14.6 36.05 13.9 35.4 13.7 32.7 13.6 Q30.55 13.75 28.7 14.55 L28.25 14.75 27.75 17.0 27.75 15.0 27.55 14.15 24.3 12.45 28.2 14.0 30.8 13.35 32.4 13.1 32.7 13.05 34.25 13.05 M26.65 14.55 L26.75 14.5 27.1 15.25 Q25.55 15.45 23.35 16.85 L22.9 17.15 18.65 20.3 18.45 19.8 Q19.7 18.75 21.0 17.85 L21.9 17.2 22.05 17.1 25.1 15.3 26.35 14.7 26.65 14.55" fill="#9ae17b" fill-rule="evenodd" stroke="none"/>
      <path d="M32.7 13.05 L32.4 13.1 30.8 13.35 28.2 14.0 24.3 12.45 26.7 14.5 26.65 14.55 26.35 14.7 25.1 15.3 Q21.2 17.1 18.8 16.55 L17.7 16.2 Q14.15 13.85 16.2 9.55 17.25 8.9 18.25 8.45 L19.8 7.85 20.0 7.8 Q23.9 6.55 28.1 7.4 31.55 8.4 33.3 9.45 35.0 10.7 34.65 11.65 34.4 12.45 32.7 13.05 M39.45 15.1 L40.05 15.85 40.2 16.75 Q40.25 18.4 39.4 20.25 39.95 18.15 39.8 16.7 L39.45 15.1" fill="#75d74a" fill-rule="evenodd" stroke="none"/>
      <path d="M28.1 7.4 Q30.15 7.8 32.3 8.7 35.4 10.1 36.2 11.4 L36.5 12.15 Q36.55 12.7 36.2 13.25 L35.65 13.15 34.25 13.05 34.8 12.4 35.05 11.6 Q35.05 10.5 33.3 9.45 31.55 8.4 28.1 7.4 M36.05 13.9 L38.75 14.6 Q38.0 15.35 37.85 16.35 L37.85 17.05 35.0 16.65 35.75 16.0 36.2 14.6 36.05 13.9 M15.4 17.75 L15.0 15.7 15.0 15.55 14.95 15.1 14.9 14.4 Q15.5 16.95 18.55 17.3 L22.05 17.1 21.9 17.2 21.0 17.85 Q19.7 18.75 18.45 19.8 L16.0 19.3 15.5 18.2 15.4 17.75 M18.65 20.3 L22.9 17.15 23.35 16.85 Q22.75 18.8 23.2 19.55 L23.9 20.0 19.5 22.5 18.65 20.3" fill="#339328" fill-rule="evenodd" stroke="none"/>
      <path d="M24.3 12.45 L27.55 14.15 27.75 15.0 27.75 17.0 28.25 14.75 28.7 14.55 Q30.55 13.75 32.7 13.6 L35.4 13.7 36.05 13.9 36.2 14.6 35.75 16.0 35.0 16.65 34.7 16.65 Q30.2 16.75 23.9 20.0 L23.2 19.55 Q22.75 18.8 23.35 16.85 25.55 15.45 27.1 15.25 L26.75 14.5 26.7 14.5 24.3 12.45 M38.75 14.6 L39.1 14.7 39.45 15.1 39.8 16.7 Q39.95 18.15 39.4 20.25 L39.35 20.4 38.75 17.35 37.85 17.05 37.85 16.35 Q38.0 15.35 38.75 14.6" fill="#246c41" fill-rule="evenodd" stroke="none"/>
      <path d="M40.05 15.85 L39.65 14.55 Q38.9 13.15 37.8 11.9 L36.8 10.9 Q32.1 6.4 25.1 6.4 19.45 6.4 14.25 9.85 13.95 12.6 14.65 15.6 L15.3 17.75 15.3 17.8 15.5 18.2 16.0 19.3 18.45 19.8 18.65 20.3 19.5 22.5 23.9 20.0 Q30.2 16.75 34.7 16.65 L35.0 16.65 37.85 17.05 38.75 17.35 39.35 20.4 39.4 20.25 Q40.25 18.4 40.2 16.75 L40.05 15.85 Z" fill="none" stroke="#000000" stroke-linecap="round" stroke-linejoin="round" stroke-opacity="0.3019608" stroke-width="0.30000000000000004"/>
      <path d="M44.05 21.6 Q44.25 24.15 43.45 25.4 L42.65 26.2 42.4 26.3 42.25 25.65 Q43.55 24.65 43.8 23.25 L44.05 21.9 44.05 21.6 M40.65 27.0 L38.1 27.35 37.75 26.75 40.1 26.35 40.65 27.0 M38.6 24.3 L39.0 21.5 40.45 22.15 40.65 23.35 40.0 23.95 38.6 24.3" fill="#aa772b" fill-rule="evenodd" stroke="none"/>
      <path d="M38.3 18.25 L41.65 18.25 Q43.4 19.2 44.05 21.6 L44.05 21.9 Q43.35 23.05 41.85 23.95 L40.0 23.95 40.65 23.35 41.15 22.35 40.8 20.65 38.45 19.8 38.3 18.25" fill="#d8a53f" fill-rule="evenodd" stroke="none"/>
      <path d="M42.4 26.3 L42.3 26.35 40.65 27.0 40.1 26.35 42.1 25.7 42.25 25.65 42.4 26.3 M39.0 21.5 L38.55 20.5 40.65 21.15 41.15 22.35 40.65 23.35 40.45 22.15 39.0 21.5" fill="#825a20" fill-rule="evenodd" stroke="none"/>
      <path d="M37.75 26.15 L38.1 24.4 38.6 24.3 40.0 23.95 41.85 23.95 Q43.35 23.05 44.05 21.9 L43.8 23.25 Q42.85 24.8 41.7 25.4 39.4 26.3 37.75 26.15" fill="#cc9933" fill-rule="evenodd" stroke="none"/>
      <path d="M37.75 26.75 L37.75 26.15 Q39.4 26.3 41.7 25.4 42.85 24.8 43.8 23.25 43.55 24.65 42.25 25.65 L42.1 25.7 40.1 26.35 37.75 26.75 M38.55 20.5 L38.45 19.8 40.8 20.65 41.15 22.35 40.65 21.15 38.55 20.5" fill="#e0c585" fill-rule="evenodd" stroke="none"/>
      <path d="M38.3 18.25 L41.65 18.25 Q43.4 19.2 44.05 21.6 44.25 24.15 43.45 25.4 L42.65 26.2 42.4 26.3 42.3 26.35 40.65 27.0 38.1 27.35 37.75 26.75 M38.1 24.4 L38.6 24.3 39.0 21.5 38.55 20.5 M44.05 21.6 L44.05 21.9 M41.15 22.35 L40.65 23.35 40.0 23.95 38.6 24.3 M39.0 21.5 L40.45 22.15 40.65 23.35" fill="none" stroke="#000000" stroke-linecap="round" stroke-linejoin="round" stroke-opacity="0.3019608" stroke-width="0.30000000000000004"/>
      <path d="M13.65 19.4 L15.5 22.55 15.9 24.15 14.25 21.65 13.65 19.4 M19.3 21.75 L19.65 21.4 21.0 19.5 21.35 21.4 20.55 23.05 19.4 23.85 19.05 23.85 19.3 21.75" fill="#aa772b" fill-rule="evenodd" stroke="none"/>
      <path d="M15.05 17.4 L17.25 18.3 16.15 21.05 15.05 17.4" fill="#d8a53f" fill-rule="evenodd" stroke="none"/>
      <path d="M19.4 18.3 L19.7 18.3 21.0 19.5 19.65 21.4 19.3 21.75 Q18.4 22.45 17.05 22.9 L16.4 23.05 15.9 24.15 15.5 22.55 13.65 19.4 15.5 21.65 16.7 22.5 19.0 21.25 20.2 19.8 19.4 18.3" fill="#e0c585" fill-rule="evenodd" stroke="none"/>
      <path d="M19.4 18.3 L20.2 19.8 19.0 21.25 16.7 22.5 15.5 21.65 13.65 19.4 Q13.95 17.9 15.05 17.4 L16.15 21.05 17.25 18.3 19.4 18.3" fill="#cc9933" fill-rule="evenodd" stroke="none"/>
      <path d="M15.9 24.15 L16.4 23.05 17.05 22.9 Q18.4 22.45 19.3 21.75 L19.05 23.85 15.9 24.15" fill="#825a20" fill-rule="evenodd" stroke="none"/>
      <path d="M21.0 19.5 L19.7 18.3 19.4 18.3 17.25 18.3 15.05 17.4 Q13.95 17.9 13.65 19.4 L14.25 21.65 15.9 24.15 19.05 23.85 19.4 23.85 20.55 23.05 21.35 21.4 21.0 19.5 Z" fill="none" stroke="#000000" stroke-linecap="round" stroke-linejoin="round" stroke-opacity="0.3019608" stroke-width="0.30000000000000004"/>
    </g>
    <g id="shape2" transform="matrix(1.0, 0.0, 0.0, 1.0, 23.15, 15.95)">
      <path d="M32.15 24.4 L32.15 24.35 32.15 24.4" fill="url(#gradient0)" fill-rule="evenodd" stroke="none"/>
      <path d="M28.6 25.35 L28.25 24.5 28.05 23.9 Q27.8 22.35 29.0 20.95 L29.4 20.65 Q31.15 19.5 33.1 20.7 L33.25 21.75 Q33.25 22.65 32.9 23.35 33.45 20.9 31.95 20.5 30.35 20.3 29.1 21.4 28.25 22.7 28.5 23.65 28.75 24.5 29.1 24.7 L30.9 24.8 32.4 24.1 32.15 24.35 32.15 24.4 32.1 24.4 32.05 24.45 32.05 24.5 31.85 24.6 31.4 24.95 Q30.55 25.45 29.5 25.45 L28.6 25.35 M8.15 22.3 L7.95 21.35 Q7.85 20.35 8.05 19.25 7.9 21.45 8.45 21.4 9.2 21.0 10.3 18.4 L10.8 17.1 10.55 18.45 10.5 18.6 Q10.1 20.1 9.05 21.45 L8.15 22.3" fill="#d7f16b" fill-rule="evenodd" stroke="none"/>
      <path d="M33.1 20.7 Q31.15 19.5 29.4 20.65 L29.0 20.95 Q27.8 22.35 28.05 23.9 L28.25 24.5 28.6 25.35 Q30.15 26.6 31.75 26.45 32.75 26.15 33.4 25.55 L33.8 25.1 34.4 23.75 Q34.4 21.8 33.1 20.7 M27.45 23.25 Q27.45 21.7 28.5 20.6 29.6 19.5 31.15 19.5 L32.75 19.9 33.8 20.6 Q34.9 21.7 34.9 23.25 34.9 24.7 33.95 25.75 L33.8 25.9 Q32.7 27.0 31.15 27.0 29.6 27.0 28.5 25.9 L27.9 25.1 Q27.55 24.5 27.45 23.7 L27.45 23.25 M8.45 17.9 L8.5 17.8 Q8.9 16.85 9.6 16.0 10.3 15.25 10.8 15.1 L11.2 15.15 Q11.75 15.4 11.8 16.7 L11.6 18.8 11.45 19.5 Q11.05 21.0 9.95 22.35 8.9 23.75 8.5 23.2 L8.15 22.3 Q8.65 23.2 9.2 22.5 10.45 21.2 11.3 18.7 L11.35 18.35 Q11.65 15.6 10.85 15.65 9.9 15.75 8.5 17.8 L8.45 17.9" fill="#9ae17b" fill-rule="evenodd" stroke="none"/>
      <path d="M32.4 24.1 L30.9 24.8 29.1 24.7 Q28.75 24.5 28.5 23.65 28.25 22.7 29.1 21.4 30.35 20.3 31.95 20.5 33.45 20.9 32.9 23.35 L32.4 24.1 M8.05 19.25 L8.2 18.65 8.45 17.9 8.5 17.8 Q9.9 15.75 10.85 15.65 L10.85 15.8 10.8 17.1 10.3 18.4 Q9.2 21.0 8.45 21.4 7.9 21.45 8.05 19.25" fill="#75d74a" fill-rule="evenodd" stroke="none"/>
      <path d="M33.1 20.7 Q34.4 21.8 34.4 23.75 L33.8 25.1 33.4 25.55 Q32.75 26.15 31.75 26.45 30.15 26.6 28.6 25.35 L29.5 25.45 Q30.55 25.45 31.4 24.95 L31.85 24.6 32.05 24.5 32.05 24.45 32.1 24.4 32.15 24.4 32.15 24.35 32.4 24.1 32.9 23.35 Q33.25 22.65 33.25 21.75 L33.1 20.7 M10.85 15.65 Q11.65 15.6 11.35 18.35 L11.3 18.7 Q10.45 21.2 9.2 22.5 8.65 23.2 8.15 22.3 L9.05 21.45 Q10.1 20.1 10.5 18.6 L10.55 18.45 10.8 17.1 10.85 15.8 10.85 15.65" fill="#339328" fill-rule="evenodd" stroke="none"/>
      <path d="M27.45 23.25 Q27.45 21.7 28.5 20.6 29.6 19.5 31.15 19.5 L32.75 19.9 33.8 20.6 Q34.9 21.7 34.9 23.25 34.9 24.7 33.95 25.75 L33.8 25.9 Q32.7 27.0 31.15 27.0 29.6 27.0 28.5 25.9 L27.9 25.1 Q27.55 24.5 27.45 23.7 L27.45 23.25 M8.45 17.9 L8.5 17.8 Q8.9 16.85 9.6 16.0 10.3 15.25 10.8 15.1 L11.2 15.15 Q11.75 15.4 11.8 16.7 L11.6 18.8 11.45 19.5 Q11.05 21.0 9.95 22.35 8.9 23.75 8.5 23.2 L8.15 22.3 7.95 21.35 Q7.85 20.35 8.05 19.25 L8.2 18.65 8.45 17.9" fill="none" stroke="#000000" stroke-linecap="round" stroke-linejoin="round" stroke-opacity="0.3019608" stroke-width="0.30000000000000004"/>
      <path d="M16.7 27.6 L13.95 27.3 13.8 30.35 13.4 26.5 Q15.1 26.9 16.7 27.6" fill="#d7f16b" fill-rule="evenodd" stroke="none"/>
      <path d="M13.4 26.5 L13.8 30.35 14.65 31.05 14.6 31.3 13.2 30.65 13.2 26.45 13.4 26.5 M15.55 27.9 L15.85 29.9 16.15 31.45 16.4 31.55 17.55 32.0 17.35 32.5 15.55 31.85 15.55 27.9" fill="#9ae17b" fill-rule="evenodd" stroke="none"/>
      <path d="M13.8 30.35 L13.95 27.3 16.7 27.6 17.4 27.95 Q17.45 29.55 16.55 29.85 L15.85 29.9 15.55 27.9 14.65 31.05 13.8 30.35 M16.4 31.55 L17.25 30.15 Q18.0 29.1 18.65 28.65 L18.85 28.75 17.55 32.0 16.4 31.55" fill="#75d74a" fill-rule="evenodd" stroke="none"/>
      <path d="M14.65 31.05 L15.55 27.9 15.55 31.85 Q15.55 31.2 14.6 31.3 L14.65 31.05 M15.85 29.9 L16.55 29.85 Q17.45 29.55 17.4 27.95 L18.65 28.65 Q18.0 29.1 17.25 30.15 L16.4 31.55 16.15 31.45 15.85 29.9" fill="#339328" fill-rule="evenodd" stroke="none"/>
      <path d="M17.55 32.0 L18.85 28.75 18.0 32.3 17.35 32.5 17.55 32.0" fill="#246c41" fill-rule="evenodd" stroke="none"/>
      <path d="M16.7 27.6 Q15.1 26.9 13.4 26.5 L13.2 26.45 13.2 30.65 14.6 31.3 Q15.55 31.2 15.55 31.85 L15.55 27.9 M17.4 27.95 L16.7 27.6 M18.65 28.65 L17.4 27.95 M18.85 28.75 L18.65 28.65 M17.35 32.5 L18.0 32.3 18.85 28.75 M17.35 32.5 L15.55 31.85" fill="none" stroke="#000000" stroke-linecap="round" stroke-linejoin="round" stroke-opacity="0.3019608" stroke-width="0.30000000000000004"/>
    </g>
    <linearGradient gradientTransform="matrix(0.0022, -0.005, 0.0026, 0.0012, 32.65, 22.05)" gradientUnits="userSpaceOnUse" id="gradient0" spreadMethod="pad" x1="-819.2" x2="819.2">
      <stop offset="0.0" stop-color="#cc6b22"/>
      <stop offset="1.0" stop-color="#ff9900"/>
    </linearGradient>
    <g id="sprite1" transform="matrix(1.0, 0.0, 0.0, 1.0, 0.0, 0.0)">
      <use height="26.7" transform="matrix(0.0042, -1.3515, 1.3935, 0.02, 22.09, 56.0263)" width="26.7" xlink:href="#sprite2"/>
      <use height="26.7" transform="matrix(0.0095, -3.0486, 0.372, 0.0053, 36.507, 81.3775)" width="26.7" xlink:href="#sprite2"/>
      <use height="26.7" transform="matrix(3.0486, 0.0095, -0.0053, 0.372, 0.1225, 35.107)" width="26.7" xlink:href="#sprite2"/>
    </g>
    <g id="sprite2" transform="matrix(1.0, 0.0, 0.0, 1.0, 13.35, 13.35)">
      <use height="26.7" transform="matrix(1.0, 0.0, 0.0, 1.0, -13.35, -13.35)" width="26.7" xlink:href="#shape3"/>
    </g>
    <g id="shape3" transform="matrix(1.0, 0.0, 0.0, 1.0, 13.35, 13.35)">
      <path d="M9.3 -9.85 Q13.35 -5.8 13.35 0.0 13.35 5.8 9.3 9.3 5.8 13.35 0.0 13.35 -5.8 13.35 -9.85 9.3 -13.35 5.8 -13.35 0.0 -13.35 -5.8 -9.85 -9.85 -5.8 -13.35 0.0 -13.35 5.8 -13.35 9.3 -9.85" fill="url(#gradient1)" fill-rule="evenodd" stroke="none"/>
    </g>
    <radialGradient cx="0" cy="0" gradientTransform="matrix(0.0213, 0.0, 0.0, 0.0213, 0.0, 0.0)" gradientUnits="userSpaceOnUse" id="gradient1" r="819.2" spreadMethod="pad">
      <stop offset="0.19607843137254902" stop-color="#fee3bc" stop-opacity="0.35686275"/>
      <stop offset="0.5019607843137255" stop-color="#fee3bc" stop-opacity="0.05490196"/>
      <stop offset="0.7607843137254902" stop-color="#ffe3bd" stop-opacity="0.0"/>
    </radialGradient>
  </defs>
</svg>
