<?xml version="1.0" encoding="UTF-8" standalone="no"?>
<svg xmlns:xlink="http://www.w3.org/1999/xlink" height="52.0px" width="52.0px" xmlns="http://www.w3.org/2000/svg">
  <g transform="matrix(1.0, 0.0, 0.0, 1.0, 0.0, 0.0)">
    <use height="54.0" transform="matrix(1.0, 0.0, 0.0, 1.0, -1.0, -1.0)" width="54.0" xlink:href="#shape0"/>
    <use height="0.0" transform="matrix(0.0816, 0.0145, -0.047, 0.0704, 30.75, 28.5)" width="0.0" xlink:href="#sprite0"/>
    <use height="0.0" transform="matrix(0.0816, 0.0145, -0.0033, 0.0782, 21.0, 40.3)" width="0.0" xlink:href="#sprite0"/>
    <use height="0.0" transform="matrix(0.0538, 0.0453, -0.0211, 0.0332, 34.05, 13.15)" width="0.0" xlink:href="#sprite0"/>
    <use height="81.5" transform="matrix(0.0883, 0.0157, -0.0199, 0.1123, 31.75, 19.5)" width="81.5" xlink:href="#sprite1"/>
    <use height="81.5" transform="matrix(0.0757, 0.0134, -0.017, 0.0962, 22.05, 35.3)" width="81.5" xlink:href="#sprite1"/>
    <use height="81.5" transform="matrix(0.0439, 0.0078, -0.0099, 0.0559, 37.6, 13.55)" width="81.5" xlink:href="#sprite1"/>
  </g>
  <defs>
    <g id="shape0" transform="matrix(1.0, 0.0, 0.0, 1.0, 1.0, 1.0)">
      <path d="M52.0 0.0 L52.0 52.0 0.0 52.0 0.0 0.0 52.0 0.0" fill="#795fa9" fill-opacity="0.0" fill-rule="evenodd" stroke="none"/>
      <path d="M41.05 17.15 L39.25 13.25 28.2 4.1 28.15 4.6 28.55 6.1 28.6 9.25 27.95 12.95 30.25 14.75 33.05 18.2 37.4 17.75 39.5 17.75 36.6 20.25 33.8 20.7 32.5 19.65 27.2 19.35 26.7 18.6 24.2 18.15 21.45 19.15 20.4 21.45 20.7 22.0 18.05 21.95 16.1 21.45 15.8 22.5 15.9 22.9 15.9 22.95 17.35 27.25 18.2 28.4 20.05 29.65 20.1 30.1 16.05 32.5 11.7 36.35 11.2 37.8 9.65 39.6 8.35 42.65 9.0 43.35 12.25 41.5 13.95 43.05 16.95 44.35 16.35 47.9 17.4 48.1 20.6 46.85 24.95 43.4 27.05 39.75 27.6 38.0 27.75 35.2 30.9 34.55 37.3 35.7 43.65 33.35 37.65 28.2 37.6 27.35 36.8 25.2 38.3 23.25 39.2 21.3 40.55 18.35 40.8 17.75 40.8 17.7 41.05 17.15 Z" fill="none" stroke="#000000" stroke-linecap="round" stroke-linejoin="round" stroke-opacity="0.3019608" stroke-width="1.0"/>
      <path d="M34.85 12.4 L35.35 12.3 35.8 12.85 34.75 14.8 32.3 14.45 Q33.5 13.65 33.6 12.45 L34.85 12.4 M36.65 11.1 L39.25 13.25 40.05 16.55 37.0 13.3 Q36.3 11.7 36.65 11.1 M28.2 4.15 L35.1 9.85 35.35 11.65 28.2 4.15" fill="#339328" fill-rule="evenodd" stroke="none"/>
      <path d="M35.35 12.3 L34.85 12.4 32.2 12.3 33.3 10.8 32.55 10.6 31.4 9.95 31.75 8.7 34.05 11.0 35.35 12.3 M33.3 10.8 L34.05 11.0 33.3 10.8 M31.1 10.1 L30.05 12.25 28.6 12.25 29.15 9.45 31.1 10.1 M36.65 11.1 Q36.3 11.7 37.0 13.3 L35.35 11.65 35.1 9.85 36.65 11.1 M39.85 17.8 L37.4 17.8 35.35 17.7 36.2 15.1 37.15 15.1 38.1 15.15 39.95 17.15 39.85 17.8 M28.5 6.55 L28.5 6.15 28.1 4.65 29.15 6.0 30.3 7.2 29.85 9.15 29.25 8.8 28.5 6.55 M33.65 14.95 Q33.6 15.8 32.4 16.7 L30.8 14.8 33.65 14.95" fill="#75d74a" fill-rule="evenodd" stroke="none"/>
      <path d="M33.3 10.8 L32.2 12.3 30.05 12.25 31.1 10.1 32.55 10.6 33.3 10.8 M36.2 15.1 L35.35 17.7 33.25 17.65 32.4 16.7 Q33.6 15.8 33.65 14.95 L36.2 15.1 M29.85 9.15 L30.3 7.2 31.75 8.7 31.4 9.95 29.85 9.15" fill="#9ae17b" fill-rule="evenodd" stroke="none"/>
      <path d="M35.35 12.3 L34.05 11.0 31.75 8.7 30.3 7.2 29.15 6.0 28.1 4.65 28.2 4.15 35.35 11.65 37.0 13.3 40.05 16.55 39.25 13.25 41.0 17.2 40.7 17.85 40.5 17.9 40.15 17.85 39.85 17.8 39.95 17.15 38.1 15.15 35.8 12.85 35.35 12.3 M32.2 12.3 L34.85 12.4 33.6 12.45 28.8 12.9 27.95 12.95 28.55 9.25 28.5 6.55 29.25 8.8 29.85 9.15 31.4 9.95 32.55 10.6 31.1 10.1 29.15 9.45 28.6 12.25 30.05 12.25 32.2 12.3 M32.3 14.45 L34.75 14.8 37.15 15.1 36.2 15.1 33.65 14.95 30.8 14.8 32.4 16.7 33.25 17.65 35.35 17.7 37.4 17.8 33.05 18.25 30.25 14.75 27.95 12.95 28.8 12.9 30.45 14.15 32.3 14.45 M28.55 9.25 L29.15 9.45 28.55 9.25 M30.8 14.8 L30.25 14.75 30.8 14.8" fill="#d7f16b" fill-rule="evenodd" stroke="none"/>
      <path d="M33.6 12.45 Q33.5 13.65 32.3 14.45 L30.45 14.15 28.8 12.9 33.6 12.45 M34.75 14.8 L35.8 12.85 38.1 15.15 37.15 15.1 34.75 14.8" fill="#246c41" fill-rule="evenodd" stroke="none"/>
      <path d="M34.85 12.4 L35.35 12.3 34.05 11.0 33.3 10.8 32.55 10.6 31.1 10.1 29.15 9.45 28.55 9.25 28.5 6.55 28.5 6.15 28.1 4.65 28.2 4.15 35.1 9.85 36.65 11.1 39.25 13.25 41.0 17.2 40.7 17.85 40.5 17.9 40.15 17.85 M34.85 12.4 L33.6 12.45 28.8 12.9 27.95 12.95 28.55 9.25 M35.8 12.85 L35.35 12.3 M39.85 17.8 L37.4 17.8 33.05 18.25 30.25 14.75 27.95 12.95 M38.1 15.15 L37.15 15.1 36.2 15.1 33.65 14.95 30.8 14.8 30.25 14.75 M38.1 15.15 L35.8 12.85 M39.85 17.8 L39.95 17.15 38.1 15.15 M30.3 7.2 L29.15 6.0 28.1 4.65 M31.75 8.7 L30.3 7.2 M31.75 8.7 L34.05 11.0" fill="none" stroke="#000000" stroke-linecap="round" stroke-linejoin="round" stroke-opacity="0.3019608" stroke-width="0.30000000000000004"/>
      <path d="M36.8 25.2 L37.6 27.35 33.65 27.85 33.65 27.35 33.65 27.85 30.15 31.45 27.2 31.35 26.75 30.7 25.75 29.95 31.05 25.05 32.95 24.75 33.65 27.35 33.5 24.0 34.15 23.7 36.15 22.7 36.35 23.45 36.35 23.5 36.55 24.25 37.2 22.05 39.2 21.3 37.45 22.55 37.4 22.6 36.75 24.9 36.8 25.2 M38.4 28.85 L39.7 29.95 40.05 31.6 38.2 30.6 38.3 29.3 38.4 28.85 M38.4 35.3 L37.3 35.7 30.9 34.55 31.15 34.1 36.65 35.05 37.2 35.55 35.05 33.05 35.2 32.9 35.9 31.6 35.9 31.55 36.0 30.35 38.5 31.15 38.95 31.4 Q38.6 32.1 38.5 32.9 38.25 34.05 38.4 35.3 M27.05 39.75 L24.95 43.4 24.5 43.75 Q24.45 42.45 25.3 40.55 L25.75 39.75 27.05 39.75 M21.5 46.2 L20.6 46.85 17.4 48.1 17.25 48.05 17.3 47.85 17.45 47.5 19.6 46.85 20.8 45.95 21.8 42.65 21.9 43.1 21.85 43.1 21.85 43.55 21.5 46.2 M16.65 44.25 L16.3 44.1 14.6 42.4 14.95 39.2 15.3 38.65 15.4 38.65 15.45 38.7 Q16.1 39.3 16.4 41.15 L16.65 44.25 M13.95 43.05 L13.1 42.25 12.0 40.85 11.7 38.05 11.85 37.25 14.05 39.45 14.1 41.9 13.95 43.05 M19.0 27.3 L17.65 27.05 17.25 25.4 18.4 26.4 19.0 27.3 M18.65 24.65 L19.85 25.25 19.55 25.9 18.65 24.65 M30.85 24.45 L27.55 27.65 27.2 26.4 26.65 23.4 29.95 24.05 30.85 24.45 M36.75 24.9 L36.55 24.25 36.75 24.9 M37.2 35.55 L37.3 35.7 37.2 35.55 M24.55 22.25 L24.85 22.3 24.65 24.25 24.8 27.55 24.8 27.6 24.85 28.05 24.85 28.1 24.95 28.85 25.1 29.35 25.2 29.7 22.4 29.05 22.4 28.9 22.2 27.85 21.7 25.9 20.85 24.05 21.6 22.45 24.55 22.25 M19.7 36.1 L19.9 36.15 19.9 39.4 19.05 40.55 Q17.9 39.0 17.45 36.7 L17.4 36.6 17.35 36.3 19.7 36.1" fill="#f4a33c" fill-rule="evenodd" stroke="none"/>
      <path d="M40.55 17.2 L40.8 17.75 40.55 18.35 39.2 21.3 37.2 22.05 37.2 20.5 40.55 17.2 M37.6 27.35 L37.65 27.5 34.0 28.45 30.15 31.45 31.9 32.4 31.85 32.55 29.85 31.8 27.6 31.9 27.2 31.35 30.15 31.45 33.65 27.85 37.6 27.35 M37.65 28.2 L38.25 28.75 38.4 28.85 38.3 29.3 38.25 29.5 Q37.9 30.35 37.6 30.25 L35.85 29.35 37.65 28.2 M39.7 29.95 L43.65 33.35 38.4 35.3 Q38.25 34.05 38.5 32.9 38.6 32.1 38.95 31.4 L39.45 31.65 42.4 32.9 43.65 33.35 42.4 32.9 40.05 31.6 39.7 29.95 M27.6 37.8 L27.6 38.0 25.35 36.3 24.35 36.1 23.5 36.4 22.4 38.8 22.95 39.4 24.9 39.8 22.7 39.9 21.5 41.15 18.9 43.85 17.9 42.45 20.1 39.9 21.3 39.25 21.75 39.15 23.0 36.15 23.55 35.9 23.2 34.35 Q23.0 32.75 23.05 31.0 L23.05 30.85 23.1 30.2 23.15 29.5 25.25 30.1 26.35 30.9 25.6 33.15 26.75 30.7 25.4 35.5 27.6 37.8 M16.95 44.35 L16.65 44.25 16.4 41.15 16.1 39.2 15.8 38.25 15.65 38.05 16.65 36.35 17.35 36.3 17.4 36.6 17.45 36.7 Q17.9 39.0 19.05 40.55 L17.25 42.75 16.95 44.35 M9.0 43.35 L8.7 43.0 8.6 42.9 9.8 40.2 10.05 41.3 10.25 39.65 11.25 38.25 11.45 39.85 10.05 41.3 9.4 42.6 9.0 43.35 M18.4 26.4 L16.95 24.45 16.7 23.6 18.65 24.65 19.55 25.9 19.75 27.25 19.0 27.3 18.4 26.4 M19.85 25.25 L19.45 24.9 18.7 22.45 21.05 22.35 19.85 25.25 M19.05 24.5 L15.95 22.6 16.4 21.85 18.25 22.35 19.05 24.5 M33.1 24.1 L32.8 23.65 32.65 23.3 32.6 23.2 32.3 22.65 Q31.8 21.35 31.85 20.35 L31.85 19.95 32.3 20.0 35.25 22.4 34.15 23.7 33.5 24.0 33.1 24.1 M36.15 22.7 L34.25 21.1 36.35 20.7 36.9 22.2 36.35 23.45 36.15 22.7 M27.55 27.65 L25.5 29.75 25.2 29.7 25.1 29.35 24.95 28.85 24.85 28.1 24.85 28.05 24.8 27.6 24.8 27.55 24.65 24.25 24.85 22.3 26.0 22.5 27.2 26.4 27.55 27.65 M35.9 31.6 L34.95 32.7 34.7 32.7 33.45 31.25 34.75 30.0 36.0 30.35 35.9 31.55 35.9 31.6 M22.2 27.85 L22.4 28.9 22.4 29.05 22.0 28.95 20.85 29.65 20.2 25.7 20.6 24.75 21.45 26.0 22.2 27.85 M29.0 23.75 L26.85 22.25 23.2 21.65 27.15 19.65 28.55 19.75 Q29.3 20.35 29.55 21.55 L29.7 22.65 29.45 23.9 29.0 23.75 M14.8 36.25 Q14.65 35.5 15.25 33.75 L15.65 33.35 16.05 35.75 16.05 35.95 15.2 37.65 14.8 36.3 14.8 36.25 M17.35 36.0 L16.5 35.4 16.6 32.6 19.25 31.0 19.3 31.1 19.4 31.15 20.0 32.45 20.2 33.2 20.3 33.6 20.65 35.0 20.65 36.2 19.9 36.15 19.7 36.1 17.35 36.0 M25.35 36.3 L24.45 35.55 25.6 33.15 24.45 35.55 25.35 36.3 M24.45 35.55 L23.55 35.9 24.45 35.55 M21.75 39.15 L22.7 39.9 21.75 39.15 M17.7 43.2 L18.7 44.05 17.45 47.5 17.3 47.85 16.75 47.4 17.7 43.2 M13.25 38.1 L12.45 36.25 13.5 35.35 13.7 38.65 13.25 38.1" fill="#ffde4f" fill-rule="evenodd" stroke="none"/>
      <path d="M39.2 21.3 L38.3 23.25 36.8 25.2 36.75 24.9 37.4 22.6 37.45 22.55 39.2 21.3 M37.65 27.5 L37.65 28.2 34.7 29.2 34.6 29.95 32.45 31.15 36.65 35.05 31.15 34.1 31.85 32.55 31.9 32.4 30.15 31.45 34.0 28.45 37.65 27.5 M30.9 34.55 L27.75 35.2 27.6 37.8 25.4 35.5 26.75 30.7 27.2 31.35 27.6 31.9 27.95 32.4 27.8 34.7 27.8 34.75 31.15 34.05 31.15 34.1 30.9 34.55 M27.6 38.0 L27.05 39.75 25.75 39.75 24.9 39.8 22.95 39.4 22.4 38.8 23.5 36.4 24.35 36.1 25.35 36.3 27.6 38.0 M12.25 41.5 L9.0 43.35 9.4 42.6 12.0 41.25 12.25 41.5 M20.05 29.65 L18.2 28.4 17.35 27.25 18.2 27.25 18.65 28.35 20.0 29.1 20.05 29.65 M32.45 31.15 L31.9 32.4 32.45 31.15 M14.8 36.25 L14.8 36.3 15.2 37.65 14.35 39.4 13.7 38.65 13.5 35.35 14.85 34.05 Q14.55 35.55 14.8 36.25 M20.65 36.2 L23.0 36.15 21.75 39.15 21.3 39.25 19.9 39.4 19.9 36.15 20.65 36.2 M27.8 34.75 L27.75 35.2 27.8 34.75 M18.9 43.85 L21.5 41.15 21.8 42.65 20.8 45.95 19.6 46.85 17.45 47.5 18.7 44.05 18.9 43.85" fill="#cc6b22" fill-rule="evenodd" stroke="none"/>
      <path d="M17.35 27.25 L15.9 22.95 15.9 22.9 15.8 22.5 16.1 21.45 18.05 21.95 21.25 22.0 21.35 21.65 27.05 19.35 32.5 19.65 33.8 20.7 36.6 20.25 40.3 17.15 40.55 17.2 37.2 20.5 37.2 22.05 36.55 24.25 36.35 23.5 36.35 23.45 36.9 22.2 36.35 20.7 34.25 21.1 36.15 22.7 34.15 23.7 35.25 22.4 32.3 20.0 31.85 19.95 31.85 20.35 Q31.8 21.35 32.3 22.65 L32.6 23.2 32.65 23.3 32.8 23.65 33.1 24.1 33.5 24.0 33.65 27.35 32.95 24.75 31.05 25.05 25.75 29.95 25.5 29.75 25.75 29.95 26.75 30.7 25.6 33.15 26.35 30.9 25.25 30.1 23.15 29.5 23.1 30.2 23.05 30.85 23.05 31.0 Q23.0 32.75 23.2 34.35 L23.55 35.9 23.0 36.15 20.65 36.2 20.65 35.0 20.3 33.6 20.2 33.2 20.0 32.45 19.4 31.15 19.3 31.1 19.25 31.0 16.6 32.6 16.5 35.4 17.35 36.0 16.05 35.95 17.35 36.0 19.7 36.1 17.35 36.3 16.65 36.35 15.65 38.05 15.8 38.25 16.1 39.2 16.4 41.15 Q16.1 39.3 15.45 38.7 L15.4 38.65 15.3 38.65 14.95 39.2 14.6 42.4 16.3 44.1 13.95 43.05 14.1 41.9 14.05 39.45 11.85 37.25 11.7 38.05 12.0 40.85 13.1 42.25 12.25 41.5 12.0 41.25 11.7 41.05 11.45 39.85 11.25 38.25 11.2 37.8 11.25 38.25 10.25 39.65 10.05 41.3 9.8 40.2 8.6 42.9 8.35 42.65 9.65 39.6 11.2 37.8 11.7 36.35 16.05 32.5 20.1 30.1 20.05 29.65 20.0 29.1 19.75 27.25 19.55 25.9 19.85 25.25 21.05 22.35 18.7 22.45 19.45 24.9 19.85 25.25 18.65 24.65 16.7 23.6 16.95 24.45 18.4 26.4 17.25 25.4 17.65 27.05 19.0 27.3 18.2 27.25 17.35 27.25 M17.25 48.05 L16.35 47.9 16.95 44.35 17.25 42.75 19.05 40.55 19.9 39.4 21.3 39.25 20.1 39.9 17.9 42.45 18.9 43.85 18.7 44.05 17.7 43.2 16.75 47.4 17.3 47.85 17.25 48.05 M19.05 24.5 L19.45 24.9 19.05 24.5 18.25 22.35 16.4 21.85 15.95 22.6 19.05 24.5 M15.8 22.5 L15.95 22.6 15.8 22.5 M33.8 20.7 L34.25 21.1 33.8 20.7 M30.85 24.45 L33.1 24.1 30.85 24.45 29.95 24.05 29.45 23.9 29.95 24.05 26.65 23.4 27.2 26.4 26.0 22.5 24.85 22.3 24.55 22.25 21.6 22.45 20.85 24.05 21.7 25.9 22.2 27.85 21.45 26.0 20.6 24.75 20.2 25.7 20.85 29.65 22.0 28.95 22.4 29.05 25.2 29.7 25.5 29.75 27.55 27.65 30.85 24.45 M36.6 20.25 L37.2 22.05 36.6 20.25 M34.75 30.0 L33.45 31.25 34.7 32.7 34.95 32.7 35.9 31.6 35.2 32.9 35.05 33.05 37.2 35.55 36.65 35.05 32.45 31.15 34.6 29.95 34.75 30.0 M34.7 29.2 L37.65 28.2 35.85 29.35 37.6 30.25 Q37.9 30.35 38.25 29.5 L38.3 29.3 38.2 30.6 40.05 31.6 42.4 32.9 39.45 31.65 38.95 31.4 38.5 31.15 34.7 29.2 M29.0 23.75 L26.0 22.5 29.0 23.75 29.45 23.9 29.7 22.65 29.55 21.55 Q29.3 20.35 28.55 19.75 L27.15 19.65 23.2 21.65 26.85 22.25 29.0 23.75 M18.05 21.95 L18.25 22.35 18.05 21.95 M21.25 22.0 L21.05 22.35 21.25 22.0 M16.05 35.75 L15.65 33.35 15.25 33.75 Q14.65 35.5 14.8 36.25 14.55 35.55 14.85 34.05 L13.5 35.35 12.45 36.25 13.25 38.1 13.7 38.65 14.35 39.4 15.2 37.65 16.05 35.95 16.05 35.75 16.05 32.5 16.05 35.75 M20.1 30.1 L20.85 29.65 20.1 30.1 M21.35 21.65 L24.55 22.25 21.35 21.65 M17.7 43.2 L17.25 42.75 17.7 43.2 M11.7 36.35 L13.25 38.1 11.7 36.35 M9.65 39.6 L9.8 40.2 9.65 39.6 M14.35 39.4 L14.1 41.9 14.35 39.4" fill="#ffff98" fill-rule="evenodd" stroke="none"/>
      <path d="M24.5 43.75 L21.5 46.2 21.85 43.55 21.85 43.1 21.9 43.1 21.8 42.65 21.5 41.15 22.7 39.9 24.9 39.8 25.75 39.75 25.3 40.55 Q24.45 42.45 24.5 43.75 M18.2 27.25 L19.0 27.3 19.75 27.25 20.0 29.1 18.65 28.35 18.2 27.25 M36.0 30.35 L34.75 30.0 34.6 29.95 34.7 29.2 38.5 31.15 36.0 30.35 M27.6 31.9 L29.85 31.8 31.85 32.55 31.15 34.1 31.15 34.05 27.8 34.75 27.8 34.7 27.95 32.4 27.6 31.9 M11.45 39.85 L11.7 41.05 12.0 41.25 9.4 42.6 10.05 41.3 11.45 39.85" fill="#a34100" fill-rule="evenodd" stroke="none"/>
      <path d="M17.35 27.25 L15.9 22.95 15.9 22.9 15.8 22.5 16.1 21.45 18.05 21.95 21.25 22.0 21.35 21.65 27.05 19.35 32.5 19.65 33.8 20.7 36.6 20.25 40.3 17.15 40.55 17.2 40.8 17.75 40.55 18.35 39.2 21.3 38.3 23.25 36.8 25.2 37.6 27.35 37.65 27.5 37.65 28.2 38.25 28.75 M38.4 28.85 L39.7 29.95 43.65 33.35 38.4 35.3 37.3 35.7 30.9 34.55 27.75 35.2 27.6 37.8 27.6 38.0 27.05 39.75 24.95 43.4 24.5 43.75 21.5 46.2 20.6 46.85 17.4 48.1 17.25 48.05 16.35 47.9 16.95 44.35 16.65 44.25 16.3 44.1 13.95 43.05 13.1 42.25 12.25 41.5 9.0 43.35 8.7 43.0 M8.6 42.9 L8.35 42.65 9.65 39.6 11.2 37.8 11.7 36.35 16.05 32.5 20.1 30.1 20.05 29.65 18.2 28.4 17.35 27.25 18.2 27.25 19.0 27.3 19.75 27.25 20.0 29.1 20.05 29.65 M19.85 25.25 L19.45 24.9 19.05 24.5 15.95 22.6 15.8 22.5 M34.15 23.7 L36.15 22.7 34.25 21.1 33.8 20.7 M34.15 23.7 L33.5 24.0 33.65 27.35 33.65 27.85 37.6 27.35 M33.5 24.0 L33.1 24.1 30.85 24.45 27.55 27.65 25.5 29.75 25.75 29.95 26.75 30.7 27.2 31.35 27.6 31.9 27.95 32.4 27.8 34.7 27.8 34.75 27.75 35.2 M36.15 22.7 L36.35 23.45 36.35 23.5 36.55 24.25 37.2 22.05 36.6 20.25 M36.75 24.9 L36.8 25.2 M36.55 24.25 L36.75 24.9 M37.2 22.05 L39.2 21.3 M36.0 30.35 L34.75 30.0 34.6 29.95 32.45 31.15 36.65 35.05 37.2 35.55 37.3 35.7 M34.6 29.95 L34.7 29.2 37.65 28.2 M31.15 34.1 L31.85 32.55 31.9 32.4 30.15 31.45 27.2 31.35 M31.15 34.1 L30.9 34.55 M30.15 31.45 L33.65 27.85 M31.9 32.4 L32.45 31.15 M43.65 33.35 L42.4 32.9 39.45 31.65 38.95 31.4 38.5 31.15 36.0 30.35 M34.7 29.2 L38.5 31.15 M24.85 22.3 L24.55 22.25 21.35 21.65 M22.4 29.05 L25.2 29.7 25.5 29.75 M24.85 22.3 L26.0 22.5 29.0 23.75 29.45 23.9 29.95 24.05 30.85 24.45 M18.25 22.35 L18.05 21.95 M21.05 22.35 L21.25 22.0 M20.85 29.65 L22.0 28.95 22.4 29.05 M19.55 25.9 L19.85 25.25 21.05 22.35 M19.55 25.9 L19.75 27.25 M15.2 37.65 L16.05 35.95 16.05 35.75 16.05 32.5 M20.65 36.2 L23.0 36.15 23.55 35.9 24.45 35.55 25.35 36.3 27.6 38.0 M25.6 33.15 L26.75 30.7 M27.2 26.4 L27.55 27.65 M20.85 29.65 L20.1 30.1 M19.05 24.5 L18.25 22.35 M26.0 22.5 L27.2 26.4 M24.9 39.8 L25.75 39.75 27.05 39.75 M25.6 33.15 L24.45 35.55 M22.7 39.9 L24.9 39.8 M19.7 36.1 L19.9 36.15 20.65 36.2 M21.3 39.25 L21.75 39.15 23.0 36.15 M19.9 39.4 L19.9 36.15 M19.9 39.4 L21.3 39.25 M18.9 43.85 L21.5 41.15 22.7 39.9 21.75 39.15 M18.7 44.05 L17.7 43.2 17.25 42.75 19.05 40.55 19.9 39.4 M17.3 47.85 L17.45 47.5 18.7 44.05 18.9 43.85 M16.05 35.95 L17.35 36.0 19.7 36.1 M13.25 38.1 L13.7 38.65 14.35 39.4 15.2 37.65 M13.25 38.1 L11.7 36.35 M11.2 37.8 L11.25 38.25 11.45 39.85 11.7 41.05 12.0 41.25 12.25 41.5 M9.8 40.2 L9.65 39.6 M9.0 43.35 L9.4 42.6 10.05 41.3 9.8 40.2 M10.05 41.3 L11.45 39.85 M13.95 43.05 L14.1 41.9 14.35 39.4 M16.95 44.35 L17.25 42.75 M17.25 48.05 L17.3 47.85" fill="none" stroke="#000000" stroke-linecap="round" stroke-linejoin="round" stroke-opacity="0.3019608" stroke-width="0.30000000000000004"/>
      <path d="M21.2 19.7 L21.35 19.25 23.85 20.5 23.05 21.2 21.9 21.55 21.05 21.2 21.2 19.7" fill="#339328" fill-rule="evenodd" stroke="none"/>
      <path d="M21.45 19.15 L23.4 18.4 Q23.85 19.0 23.15 19.85 L21.45 19.15 M24.6 20.0 Q24.1 19.25 24.75 18.35 L25.8 18.8 25.1 19.75 24.6 20.0" fill="#75d74a" fill-rule="evenodd" stroke="none"/>
      <path d="M27.4 19.65 L25.9 21.35 25.4 20.1 26.5 18.85 27.4 19.65 M23.1 22.55 L20.95 22.4 20.4 21.45 21.9 21.85 23.25 21.7 23.1 22.55" fill="#246c41" fill-rule="evenodd" stroke="none"/>
      <path d="M25.9 21.35 L23.1 22.55 23.25 21.7 24.25 20.75 Q24.55 20.55 24.8 20.4 L25.9 21.35" fill="#1c5331" fill-rule="evenodd" stroke="none"/>
      <path d="M23.4 18.4 L24.2 18.15 24.75 18.35 Q24.1 19.25 24.6 20.0 L24.15 20.35 23.15 19.85 Q23.85 19.0 23.4 18.4" fill="#9ae17b" fill-rule="evenodd" stroke="none"/>
      <path d="M24.2 18.15 L26.7 18.6 27.4 19.65 26.5 18.85 25.4 20.1 25.9 21.35 24.8 20.4 Q24.55 20.55 24.25 20.75 L23.85 20.5 24.25 20.75 23.25 21.7 21.9 21.85 20.4 21.45 21.2 19.7 21.05 21.2 21.9 21.55 23.05 21.2 23.85 20.5 21.35 19.25 21.45 19.15 23.15 19.85 24.15 20.35 24.6 20.0 25.1 19.75 25.8 18.8 24.75 18.35 24.2 18.15" fill="#d7f16b" fill-rule="evenodd" stroke="none"/>
      <path d="M23.4 18.4 L24.2 18.15 26.7 18.6 27.4 19.65 25.9 21.35 23.1 22.55 20.95 22.4 20.4 21.45 21.2 19.7 21.35 19.25 21.45 19.15 23.4 18.4 M23.85 20.5 L24.25 20.75 Q24.55 20.55 24.8 20.4 M25.9 21.35 L25.4 20.1 26.5 18.85 M23.25 21.7 L21.9 21.85 20.4 21.45 M23.25 21.7 L23.1 22.55 M24.25 20.75 L23.25 21.7 M21.35 19.25 L23.85 20.5" fill="none" stroke="#000000" stroke-linecap="round" stroke-linejoin="round" stroke-opacity="0.3019608" stroke-width="0.30000000000000004"/>
      <path d="M33.0 24.9 L33.7 24.5 34.7 22.15 33.5 21.55 32.8 21.75 31.9 22.05 30.9 22.35 31.0 22.15 33.45 21.05 35.35 21.85 36.15 24.0 35.15 22.3 34.05 24.9 32.2 25.25 33.0 24.9 M30.05 24.15 L31.2 25.2 31.45 25.4 30.8 25.8 30.4 26.0 30.05 24.15" fill="#d7f16b" fill-rule="evenodd" stroke="none"/>
      <path d="M32.8 21.75 L33.5 21.55 34.7 22.15 33.7 24.5 33.0 24.9 Q32.35 23.8 32.8 21.75 M30.9 22.35 L31.9 22.05 Q32.05 23.2 31.2 25.2 L30.05 24.15 30.9 22.35" fill="#75d74a" fill-rule="evenodd" stroke="none"/>
      <path d="M33.0 24.9 L32.2 25.25 31.45 25.4 31.2 25.2 Q32.05 23.2 31.9 22.05 L32.8 21.75 Q32.35 23.8 33.0 24.9" fill="#9ae17b" fill-rule="evenodd" stroke="none"/>
      <path d="M34.05 24.9 L35.15 22.3 36.15 24.0 35.2 26.55 34.05 24.9" fill="#1c5331" fill-rule="evenodd" stroke="none"/>
      <path d="M32.2 25.25 L34.05 24.9 34.5 26.3 32.85 26.85 30.8 25.8 31.45 25.4 32.2 25.25" fill="#246c41" fill-rule="evenodd" stroke="none"/>
      <path d="M30.8 25.8 L32.85 26.85 34.5 26.3 34.05 24.9 35.2 26.55 32.7 27.2 30.4 26.0 30.8 25.8" fill="#339328" fill-rule="evenodd" stroke="none"/>
      <path d="M32.2 25.25 L34.05 24.9 35.2 26.55 36.15 24.0 35.35 21.85 33.45 21.05 31.0 22.15 30.9 22.35 30.05 24.15 31.2 25.2 31.45 25.4 30.8 25.8 30.4 26.0 30.05 24.15 M30.4 26.0 L32.7 27.2 35.2 26.55 M31.45 25.4 L32.2 25.25 Z" fill="none" stroke="#000000" stroke-linecap="round" stroke-linejoin="round" stroke-opacity="0.3019608" stroke-width="0.30000000000000004"/>
    </g>
    <g id="sprite1" transform="matrix(1.0, 0.0, 0.0, 1.0, 0.0, 0.0)">
      <use height="26.7" transform="matrix(0.0042, -1.3515, 1.3935, 0.02, 22.09, 56.0263)" width="26.7" xlink:href="#sprite2"/>
      <use height="26.7" transform="matrix(0.0095, -3.0486, 0.372, 0.0053, 36.507, 81.3775)" width="26.7" xlink:href="#sprite2"/>
      <use height="26.7" transform="matrix(3.0486, 0.0095, -0.0053, 0.372, 0.1225, 35.107)" width="26.7" xlink:href="#sprite2"/>
    </g>
    <g id="sprite2" transform="matrix(1.0, 0.0, 0.0, 1.0, 13.35, 13.35)">
      <use height="26.7" transform="matrix(1.0, 0.0, 0.0, 1.0, -13.35, -13.35)" width="26.7" xlink:href="#shape1"/>
    </g>
    <g id="shape1" transform="matrix(1.0, 0.0, 0.0, 1.0, 13.35, 13.35)">
      <path d="M9.3 -9.85 Q13.35 -5.8 13.35 0.0 13.35 5.8 9.3 9.3 5.8 13.35 0.0 13.35 -5.8 13.35 -9.85 9.3 -13.35 5.8 -13.35 0.0 -13.35 -5.8 -9.85 -9.85 -5.8 -13.35 0.0 -13.35 5.8 -13.35 9.3 -9.85" fill="url(#gradient0)" fill-rule="evenodd" stroke="none"/>
    </g>
    <radialGradient cx="0" cy="0" gradientTransform="matrix(0.0213, 0.0, 0.0, 0.0213, 0.0, 0.0)" gradientUnits="userSpaceOnUse" id="gradient0" r="819.2" spreadMethod="pad">
      <stop offset="0.19607843137254902" stop-color="#fee3bc" stop-opacity="0.78039217"/>
      <stop offset="0.5019607843137255" stop-color="#fee3bc" stop-opacity="0.1254902"/>
      <stop offset="0.7607843137254902" stop-color="#ffe3bd" stop-opacity="0.0"/>
    </radialGradient>
  </defs>
</svg>
