<?xml version="1.0" encoding="UTF-8" standalone="no"?>
<svg xmlns:xlink="http://www.w3.org/1999/xlink" height="52.0px" width="52.0px" xmlns="http://www.w3.org/2000/svg">
  <g transform="matrix(1.0, 0.0, 0.0, 1.0, 0.0, 0.0)">
    <use height="54.0" transform="matrix(1.0, 0.0, 0.0, 1.0, -1.0, -1.0)" width="54.0" xlink:href="#shape0"/>
    <use height="81.5" transform="matrix(0.2318, 0.0, 0.0, 0.2216, 22.1, 8.9)" width="81.5" xlink:href="#sprite0"/>
    <use height="0.0" transform="matrix(0.1076, 0.0, 0.0, 0.05, 30.0, 37.35)" width="0.0" xlink:href="#sprite2"/>
    <use height="0.0" transform="matrix(0.0728, 0.0, 0.0, 0.0673, 24.75, 27.8)" width="0.0" xlink:href="#sprite2"/>
    <use height="0.0" transform="matrix(0.0344, -0.0495, 0.088, 0.0493, 12.5, 32.55)" width="0.0" xlink:href="#sprite2"/>
    <use height="81.5" transform="matrix(0.1928, 0.0, 0.0, 0.1843, 8.7, 31.25)" width="81.5" xlink:href="#sprite0"/>
    <use height="0.0" transform="matrix(0.0844, 0.0226, -0.034, 0.1271, 28.6, 13.3)" width="0.0" xlink:href="#sprite2"/>
  </g>
  <defs>
    <g id="shape0" transform="matrix(1.0, 0.0, 0.0, 1.0, 1.0, 1.0)">
      <path d="M52.0 0.0 L52.0 52.0 0.0 52.0 0.0 0.0 52.0 0.0" fill="#795fa9" fill-opacity="0.0" fill-rule="evenodd" stroke="none"/>
      <path d="M22.15 23.15 L21.7 23.3 21.0 23.6 20.4 23.95 20.25 24.05 18.6 25.45 17.1 27.45 15.25 27.35 14.75 27.55 Q11.75 26.55 8.75 27.65 4.55 29.9 4.3 34.65 L4.3 35.9 4.3 36.1 4.3 36.2 Q4.6 37.95 8.65 40.55 13.5 43.7 20.85 46.15 28.2 48.6 33.7 49.0 37.6 49.25 39.05 48.4 L39.4 48.15 39.45 48.1 39.55 47.95 39.65 47.8 Q42.45 43.0 41.15 39.65 40.55 38.05 39.65 37.05 L39.75 34.7 Q39.4 30.65 38.55 28.95 40.7 28.15 42.45 26.35 44.1 24.7 44.95 22.75 L46.7 23.3 Q48.65 23.5 48.75 20.9 L45.6 14.4 44.75 13.0 42.1 10.0 Q40.1 7.9 37.5 9.1 36.9 8.05 35.4 7.55 L34.35 7.35 34.3 7.35 Q33.6 3.4 32.5 1.75 25.3 4.0 21.0 13.6 18.25 20.5 23.2 22.85 L22.2 23.1 22.15 23.15 Z" fill="none" stroke="#000000" stroke-linecap="round" stroke-linejoin="round" stroke-opacity="0.3019608" stroke-width="1.0"/>
      <path d="M24.5 16.85 Q24.3 17.95 24.4 19.0 24.6 22.6 27.4 25.8 L28.15 26.6 Q33.35 30.2 39.3 27.5 42.5 25.9 44.25 22.25 L44.95 22.75 44.25 22.25 Q42.5 20.7 42.5 17.05 L42.6 14.95 Q42.75 16.5 43.05 17.75 43.85 20.9 45.8 22.0 47.4 23.0 48.0 20.95 L46.35 17.45 Q46.75 19.05 46.45 19.85 L46.0 20.65 Q46.7 19.35 45.5 15.7 L44.65 13.9 44.05 13.05 Q42.75 11.4 41.25 10.2 L41.15 10.15 40.0 9.65 Q41.75 10.65 42.2 13.9 42.65 17.1 41.95 18.55 42.3 15.15 41.45 12.4 L41.35 12.25 Q40.35 10.3 39.15 9.5 L37.95 9.6 Q36.95 9.95 36.1 10.8 L36.2 10.3 36.75 9.6 Q35.7 8.0 33.9 8.05 32.3 7.75 30.65 9.95 L31.35 8.55 Q27.8 9.2 25.45 13.5 24.7 15.2 24.5 16.85 M32.0 7.9 Q31.6 8.15 31.35 8.55 31.6 8.15 32.0 7.9 32.9 7.2 34.35 7.35 L35.4 7.55 Q36.9 8.05 37.5 9.1 40.1 7.9 42.1 10.0 L44.75 13.0 45.6 14.4 48.75 20.9 Q48.65 23.5 46.7 23.3 L44.95 22.75 Q44.1 24.7 42.45 26.35 39.2 29.65 34.55 29.65 29.9 29.65 26.6 26.35 23.35 23.1 23.35 18.45 23.35 13.8 26.45 10.55 L28.25 8.9 Q30.3 7.5 32.0 7.9 M37.5 9.1 Q37.05 9.3 36.75 9.6 37.05 9.3 37.5 9.1" fill="#d7f16b" fill-rule="evenodd" stroke="none"/>
      <path d="M41.95 18.55 L41.95 18.6 41.85 18.8 41.1 20.25 40.15 21.7 39.6 22.15 Q42.15 19.15 41.4 14.75 L40.95 12.55 Q40.5 14.9 39.4 15.45 38.25 15.95 37.45 15.0 L35.75 12.6 33.55 13.5 Q29.95 13.9 30.65 9.95 32.3 7.75 33.9 8.05 35.7 8.0 36.75 9.6 L36.2 10.3 36.1 10.8 Q36.95 9.95 37.95 9.6 L39.15 9.5 Q40.35 10.3 41.35 12.25 L41.45 12.4 Q42.3 15.15 41.95 18.55 M42.2 13.9 Q41.75 10.65 40.0 9.65 L41.15 10.15 41.25 10.2 Q42.75 11.4 44.05 13.05 42.75 12.05 42.6 14.95 L42.2 13.9" fill="#9ae17b" fill-rule="evenodd" stroke="none"/>
      <path d="M39.6 22.15 Q38.2 23.25 36.55 23.0 32.1 22.45 29.65 18.65 L24.5 16.85 Q24.7 15.2 25.45 13.5 27.8 9.2 31.35 8.55 L30.65 9.95 Q29.95 13.9 33.55 13.5 L35.75 12.6 37.45 15.0 Q38.25 15.95 39.4 15.45 40.5 14.9 40.95 12.55 L41.4 14.75 Q42.15 19.15 39.6 22.15 M42.6 14.95 Q42.75 12.05 44.05 13.05 L44.65 13.9 45.5 15.7 Q46.7 19.35 46.0 20.65 44.6 20.55 43.05 17.75 42.75 16.5 42.6 14.95" fill="#75d74a" fill-rule="evenodd" stroke="none"/>
      <path d="M24.4 19.0 Q24.3 17.95 24.5 16.85 L29.65 18.65 Q32.1 22.45 36.55 23.0 38.2 23.25 39.6 22.15 L40.15 21.7 41.1 20.25 41.85 18.8 41.95 18.6 41.95 18.55 Q42.85 20.25 42.55 22.75 42.35 24.5 39.65 25.65 35.75 25.9 33.55 24.1 L29.95 23.65 Q26.7 22.85 24.4 19.0 M46.0 20.65 L46.45 19.85 Q46.75 19.05 46.35 17.45 L48.0 20.95 Q47.4 23.0 45.8 22.0 43.85 20.9 43.05 17.75 44.6 20.55 46.0 20.65" fill="#339328" fill-rule="evenodd" stroke="none"/>
      <path d="M24.4 19.0 Q26.7 22.85 29.95 23.65 L33.55 24.1 Q35.75 25.9 39.65 25.65 42.35 24.5 42.55 22.75 42.85 20.25 41.95 18.55 42.65 17.1 42.2 13.9 L42.6 14.95 42.5 17.05 Q42.5 20.7 44.25 22.25 42.5 25.9 39.3 27.5 33.35 30.2 28.15 26.6 L27.4 25.8 Q24.6 22.6 24.4 19.0" fill="#246c41" fill-rule="evenodd" stroke="none"/>
      <path d="M31.35 8.55 Q31.6 8.15 32.0 7.9 30.3 7.5 28.25 8.9 L26.45 10.55 Q23.35 13.8 23.35 18.45 23.35 23.1 26.6 26.35 29.9 29.65 34.55 29.65 39.2 29.65 42.45 26.35 44.1 24.7 44.95 22.75 L44.25 22.25 Q42.5 20.7 42.5 17.05 L42.6 14.95 M36.2 10.3 L36.75 9.6 Q37.05 9.3 37.5 9.1 36.9 8.05 35.4 7.55 L34.35 7.35 Q32.9 7.2 32.0 7.9 M37.5 9.1 Q40.1 7.9 42.1 10.0 L44.75 13.0 45.6 14.4 48.75 20.9 Q48.65 23.5 46.7 23.3 L44.95 22.75 M31.35 8.55 L30.65 9.95" fill="none" stroke="#000000" stroke-linecap="round" stroke-linejoin="round" stroke-opacity="0.3019608" stroke-width="0.30000000000000004"/>
      <path d="M37.1 12.65 L37.1 12.05 37.25 12.3 37.5 12.5 Q37.9 12.7 38.4 12.5 L39.0 11.95 38.95 12.05 Q38.75 12.65 38.25 12.85 37.75 13.05 37.35 12.85 L37.1 12.65 M32.65 11.5 L32.65 11.4 32.6 10.8 32.8 11.15 33.05 11.3 Q33.5 11.55 34.0 11.3 L34.75 10.65 34.65 10.85 33.85 11.65 Q33.35 11.9 32.9 11.65 L32.65 11.5" fill="#d7f16b" fill-rule="evenodd" stroke="none"/>
      <path d="M37.1 12.05 L37.25 11.55 Q37.45 11.05 37.9 10.8 L38.85 10.9 39.1 11.05 39.0 11.95 38.4 12.5 Q37.9 12.7 37.5 12.5 L37.25 12.3 37.1 12.05 M32.6 10.8 L32.75 10.25 Q33.0 9.7 33.5 9.45 L34.45 9.55 34.7 9.75 34.75 10.65 34.0 11.3 Q33.5 11.55 33.05 11.3 L32.8 11.15 32.6 10.8" fill="#9ae17b" fill-rule="evenodd" stroke="none"/>
      <path d="M39.1 11.05 L39.25 11.3 39.35 11.65 Q39.5 12.2 39.25 12.7 L38.55 13.5 Q38.05 13.7 37.65 13.5 37.25 13.25 37.1 12.65 L37.35 12.85 Q37.75 13.05 38.25 12.85 38.75 12.65 38.95 12.05 L39.0 11.95 39.1 11.05 M34.7 9.75 L34.95 10.05 35.0 10.35 34.95 11.5 34.15 12.3 Q33.65 12.55 33.2 12.3 32.75 12.05 32.65 11.5 L32.9 11.65 Q33.35 11.9 33.85 11.65 L34.65 10.85 34.75 10.65 34.7 9.75" fill="#75d74a" fill-rule="evenodd" stroke="none"/>
      <path d="M38.85 10.45 L39.0 10.55 39.25 10.75 39.65 11.5 Q39.85 12.2 39.55 12.85 L38.65 13.8 Q38.05 14.1 37.5 13.8 37.0 13.5 36.85 12.75 L36.85 12.05 36.95 11.55 37.0 11.4 Q37.3 10.75 37.85 10.45 38.4 10.3 38.85 10.45 M39.1 11.05 L38.85 10.9 37.9 10.8 Q37.45 11.05 37.25 11.55 L37.1 12.05 37.1 12.65 Q37.25 13.25 37.65 13.5 38.05 13.7 38.55 13.5 L39.25 12.7 Q39.5 12.2 39.35 11.65 L39.25 11.3 39.1 11.05 M32.6 10.15 Q32.9 9.5 33.45 9.2 L34.6 9.3 34.9 9.5 35.25 10.25 Q35.45 10.95 35.15 11.6 34.85 12.3 34.25 12.55 33.65 12.85 33.1 12.55 32.6 12.25 32.45 11.5 L32.4 11.0 32.5 10.45 32.6 10.15 M34.7 9.75 L34.45 9.55 33.5 9.45 Q33.0 9.7 32.75 10.25 L32.6 10.8 32.65 11.4 32.65 11.5 Q32.75 12.05 33.2 12.3 33.65 12.55 34.15 12.3 L34.95 11.5 35.0 10.35 34.95 10.05 34.7 9.75" fill="#339328" fill-rule="evenodd" stroke="none"/>
      <path d="M31.15 23.85 L31.1 23.85 30.65 23.7 29.8 23.35 28.75 23.1 27.75 22.9 27.0 22.85 24.1 23.05 23.5 23.15 22.8 23.3 22.6 23.35 21.55 23.8 20.55 24.4 Q19.6 25.15 19.05 26.05 18.25 26.8 18.35 27.55 L17.1 27.45 18.35 27.55 20.3 27.95 Q21.2 28.15 22.0 28.5 L22.15 28.55 22.45 28.7 22.35 29.0 20.5 28.3 15.2 27.65 Q13.2 28.25 12.0 31.8 12.55 28.1 15.25 27.35 L17.1 27.45 18.6 25.45 20.25 24.05 20.4 23.95 21.0 23.6 21.7 23.3 22.15 23.15 22.2 23.1 Q28.95 21.05 35.75 25.75 L35.0 25.6 34.9 25.55 34.5 25.35 33.55 24.85 31.3 23.9 31.15 23.85 M29.65 29.7 L30.95 29.75 32.4 29.8 Q33.3 29.3 33.6 28.6 34.2 27.05 32.15 24.5 34.45 26.5 33.95 28.9 L33.6 29.95 33.85 29.95 34.6 30.05 36.85 30.35 37.5 30.45 Q38.45 30.65 38.95 31.75 L39.1 32.2 39.2 32.45 Q39.45 33.3 39.3 34.25 L39.1 35.15 39.05 35.25 39.05 33.55 Q38.9 32.05 38.4 31.45 L37.75 30.95 28.35 29.85 28.75 29.7 29.65 29.7 M22.5 29.2 L22.45 29.45 Q22.35 30.7 22.9 30.55 L23.1 30.45 Q23.7 30.1 24.0 28.8 L24.7 27.2 25.05 26.6 25.15 26.4 25.45 26.0 25.3 26.3 25.1 26.7 24.8 27.4 24.05 29.55 Q23.65 31.0 23.15 31.25 22.65 31.5 22.0 30.45 L22.45 29.35 22.5 29.2 M25.5 28.7 Q24.35 31.9 25.6 31.6 L26.3 31.2 26.6 30.8 27.25 29.65 28.3 26.75 28.3 26.8 27.95 28.3 27.55 29.55 26.8 31.15 26.45 31.6 25.95 32.0 24.75 32.05 Q24.5 31.8 24.6 31.15 L25.5 28.7 M32.4 29.8 L33.15 29.9 33.25 29.9 33.6 29.95 33.25 29.9 33.15 29.9 32.4 29.8 M20.8 24.3 Q21.4 23.95 21.95 23.9 22.45 23.85 22.65 24.15 L22.5 24.9 21.6 25.7 21.15 25.95 20.45 26.1 Q19.9 26.15 19.75 25.85 19.55 25.55 19.85 25.1 L20.6 24.45 20.8 24.3" fill="#d7f16b" fill-rule="evenodd" stroke="none"/>
      <path d="M18.35 27.55 Q18.25 26.8 19.05 26.05 19.6 25.15 20.55 24.4 L21.55 23.8 22.8 23.65 24.25 23.55 Q26.35 23.5 26.2 24.45 L26.05 24.5 Q25.65 24.65 25.3 24.95 25.95 24.8 26.15 25.1 L25.85 25.45 25.7 25.6 25.7 25.65 25.6 25.75 25.6 25.8 25.5 25.9 25.45 26.0 25.15 26.4 25.05 26.6 24.7 27.2 24.0 28.8 Q23.7 30.1 23.1 30.45 L22.9 30.55 Q22.35 30.7 22.45 29.45 L22.5 29.2 22.65 28.85 23.25 27.7 24.15 26.2 24.75 25.45 25.3 24.95 24.75 25.45 24.15 26.2 23.25 27.7 22.65 28.85 22.45 28.7 22.15 28.55 22.0 28.5 Q21.2 28.15 20.3 27.95 L18.35 27.55 M13.95 33.4 L12.3 32.65 Q11.9 32.25 12.0 31.8 13.2 28.25 15.2 27.65 L20.5 28.3 22.35 29.0 22.35 29.05 22.25 29.15 22.2 29.3 Q21.4 30.85 20.05 30.55 L14.6 29.6 Q13.75 29.3 13.85 28.85 L13.7 29.0 13.35 29.5 13.3 29.55 Q12.15 31.5 12.8 32.4 L13.95 33.4 M39.05 35.25 L38.35 36.3 Q37.55 37.05 36.25 37.25 L28.25 35.35 27.9 35.25 Q27.5 35.1 27.25 34.95 L27.2 34.9 Q26.35 34.25 26.6 33.0 L26.65 32.85 Q26.8 34.4 27.85 34.85 L36.45 36.75 Q37.6 36.65 38.65 35.1 39.15 33.0 37.4 32.4 L31.1 31.45 28.8 31.25 Q27.6 31.2 27.8 30.3 L28.1 30.05 28.35 29.85 37.75 30.95 38.4 31.45 Q38.9 32.05 39.05 33.55 L39.05 35.25 M21.8 30.95 L21.8 31.0 21.75 30.95 21.8 30.95 M25.6 28.5 L26.75 26.15 26.8 26.1 Q27.7 25.15 28.1 25.4 28.55 25.35 28.35 26.6 L28.35 26.65 28.3 26.75 27.25 29.65 26.6 30.8 26.3 31.2 25.6 31.6 Q24.35 31.9 25.5 28.7 L25.55 28.6 25.6 28.55 25.6 28.5 M20.8 24.3 L20.6 24.45 19.85 25.1 Q19.55 25.55 19.75 25.85 19.9 26.15 20.45 26.1 L21.15 25.95 21.6 25.7 22.5 24.9 22.65 24.15 Q22.45 23.85 21.95 23.9 21.4 23.95 20.8 24.3 M20.95 29.25 L21.0 29.25 20.95 29.2 20.95 29.25" fill="#9ae17b" fill-rule="evenodd" stroke="none"/>
      <path d="M21.55 23.8 L22.6 23.35 22.8 23.3 23.5 23.15 24.1 23.05 27.0 22.85 27.75 22.9 28.75 23.1 29.8 23.35 30.65 23.7 31.1 23.85 31.15 23.85 31.3 23.95 32.0 24.35 32.15 24.5 Q34.2 27.05 33.6 28.6 33.3 29.3 32.4 29.8 L30.95 29.75 29.65 29.7 29.8 27.05 Q29.3 24.75 28.55 24.55 28.15 24.45 27.65 24.85 28.15 24.45 28.55 24.55 29.1 24.95 28.95 27.05 L28.95 27.15 28.45 29.4 28.1 30.05 27.8 30.3 Q27.35 30.8 27.05 31.55 L26.7 32.6 26.65 32.85 26.6 33.0 Q26.35 34.25 27.2 34.9 L27.25 34.95 26.95 35.0 Q25.45 35.35 24.85 34.4 24.45 33.95 24.75 32.05 L25.95 32.0 26.45 31.6 26.8 31.15 27.55 29.55 27.95 28.3 28.3 26.8 28.3 26.75 28.35 26.65 28.35 26.6 Q28.55 25.35 28.1 25.4 27.7 25.15 26.8 26.1 L27.2 25.3 27.65 24.85 27.6 24.75 27.4 24.55 26.2 24.45 27.4 24.55 26.25 25.65 26.15 25.8 25.9 26.2 25.25 27.4 25.05 27.85 24.2 30.25 23.75 31.8 23.55 32.2 Q22.95 33.1 22.4 32.55 L21.5 31.75 21.75 31.0 21.8 31.0 21.8 30.95 22.0 30.45 Q22.65 31.5 23.15 31.25 23.65 31.0 24.05 29.55 L24.8 27.4 25.1 26.7 25.3 26.3 25.45 26.0 25.5 25.9 25.6 25.8 25.6 25.75 25.7 25.65 25.7 25.6 25.85 25.45 26.15 25.1 Q25.95 24.8 25.3 24.95 25.65 24.65 26.05 24.5 L26.2 24.45 Q26.35 23.5 24.25 23.55 L22.8 23.65 21.55 23.8 M35.0 25.6 L35.75 25.75 36.4 26.3 37.4 27.4 37.75 27.8 37.8 27.9 38.4 28.7 37.5 30.45 36.85 30.35 Q37.3 30.2 37.5 29.55 L37.6 29.35 37.35 28.15 Q37.1 27.05 35.0 25.6 M22.2 29.3 Q21.55 31.1 20.65 31.4 16.85 31.55 13.5 30.15 13.2 29.75 13.3 29.55 L13.35 29.5 13.7 29.0 13.85 28.85 Q13.75 29.3 14.6 29.6 L20.05 30.55 Q21.4 30.85 22.2 29.3" fill="#75d74a" fill-rule="evenodd" stroke="none"/>
      <path d="M31.15 23.85 L31.3 23.9 33.55 24.85 34.5 25.35 34.9 25.55 35.0 25.6 Q37.1 27.05 37.35 28.15 L37.6 29.35 37.5 29.55 Q37.3 30.2 36.85 30.35 L34.6 30.05 33.85 29.95 33.6 29.95 33.95 28.9 Q34.45 26.5 32.15 24.5 L32.0 24.35 31.3 23.95 31.15 23.85 M28.55 24.55 Q29.3 24.75 29.8 27.05 L29.65 29.7 28.75 29.7 28.35 29.85 28.1 30.05 28.45 29.4 28.95 27.15 28.95 27.05 Q29.1 24.95 28.55 24.55 M38.4 28.7 Q39.4 30.35 39.75 34.7 39.95 37.0 39.1 38.65 L38.45 38.7 Q39.15 36.95 39.2 35.85 38.75 36.4 38.35 36.3 L39.05 35.25 39.1 35.15 39.3 34.25 Q39.45 33.3 39.2 32.45 L39.1 32.2 38.95 31.75 Q38.45 30.65 37.5 30.45 L38.4 28.7 M15.05 33.75 L13.95 33.4 12.8 32.4 Q12.15 31.5 13.3 29.55 13.2 29.75 13.5 30.15 16.85 31.55 20.65 31.4 21.55 31.1 22.2 29.3 L22.25 29.15 22.35 29.05 22.35 29.0 22.45 28.7 22.65 28.85 22.5 29.2 22.45 29.35 22.0 30.45 21.8 30.95 21.75 30.95 21.75 31.0 21.5 31.75 22.4 32.55 Q22.95 33.1 23.55 32.2 L23.75 31.8 23.6 32.45 Q23.15 34.55 23.6 35.3 L23.35 35.35 23.0 35.45 Q22.1 35.85 21.35 34.65 L21.25 34.35 Q21.0 33.35 21.5 31.75 21.0 33.35 21.25 34.35 18.2 35.1 15.05 33.75 M27.8 30.3 Q27.6 31.2 28.8 31.25 L31.1 31.45 37.4 32.4 Q39.15 33.0 38.65 35.1 37.6 36.65 36.45 36.75 L27.85 34.85 Q26.8 34.4 26.65 32.85 L26.7 32.6 27.05 31.55 Q27.35 30.8 27.8 30.3 M27.25 34.95 Q27.5 35.1 27.9 35.25 L28.25 35.35 Q26.6 36.0 25.55 35.75 24.7 35.55 24.3 34.75 L24.15 34.45 24.1 33.75 Q24.1 32.65 24.6 31.15 24.5 31.8 24.75 32.05 24.45 33.95 24.85 34.4 25.45 35.35 26.95 35.0 L27.25 34.95" fill="#339328" fill-rule="evenodd" stroke="none"/>
      <path d="M27.4 24.55 L27.6 24.75 27.65 24.85 27.2 25.3 26.8 26.1 26.75 26.15 25.6 28.5 25.6 28.55 25.55 28.6 25.5 28.7 24.6 31.15 Q24.1 32.65 24.1 33.75 L24.15 34.45 24.3 34.75 Q24.7 35.55 25.55 35.75 26.6 36.0 28.25 35.35 L36.25 37.25 Q37.55 37.05 38.35 36.3 38.75 36.4 39.2 35.85 39.15 36.95 38.45 38.7 L22.9 40.05 22.8 40.05 15.05 33.75 Q18.2 35.1 21.25 34.35 L21.35 34.65 Q22.1 35.85 23.0 35.45 L23.35 35.35 23.6 35.3 Q23.15 34.55 23.6 32.45 L23.75 31.8 24.2 30.25 25.05 27.85 25.25 27.4 25.9 26.2 26.15 25.8 26.25 25.65 27.4 24.55 M24.3 34.75 L23.6 35.3 24.3 34.75" fill="#246c41" fill-rule="evenodd" stroke="none"/>
      <path d="M35.75 25.75 Q28.95 21.05 22.2 23.1 L22.15 23.15 21.7 23.3 21.0 23.6 20.4 23.95 20.25 24.05 18.6 25.45 17.1 27.45 18.35 27.55 20.3 27.95 Q21.2 28.15 22.0 28.5 L22.15 28.55 22.45 28.7 22.65 28.85 22.5 29.2 22.45 29.35 22.0 30.45 21.8 30.95 21.8 31.0 21.75 30.95 21.75 31.0 21.5 31.75 Q21.0 33.35 21.25 34.35 18.2 35.1 15.05 33.75 L13.95 33.4 12.3 32.65 Q11.9 32.25 12.0 31.8 12.55 28.1 15.25 27.35 L17.1 27.45 M26.2 24.45 L27.4 24.55 27.6 24.75 27.65 24.85 Q28.15 24.45 28.55 24.55 29.3 24.75 29.8 27.05 L29.65 29.7 30.95 29.75 32.4 29.8 33.15 29.9 33.25 29.9 33.6 29.95 33.85 29.95 34.6 30.05 36.85 30.35 37.5 30.45 Q38.45 30.65 38.95 31.75 L39.1 32.2 39.2 32.45 Q39.45 33.3 39.3 34.25 L39.1 35.15 39.05 35.25 38.35 36.3 Q37.55 37.05 36.25 37.25 L28.25 35.35 27.9 35.25 Q27.5 35.1 27.25 34.95 L27.2 34.9 Q26.35 34.25 26.6 33.0 L26.65 32.85 26.7 32.6 27.05 31.55 Q27.35 30.8 27.8 30.3 L28.1 30.05 28.35 29.85 28.75 29.7 29.65 29.7 M35.75 25.75 L36.4 26.3 37.4 27.4 37.75 27.8 37.8 27.9 38.4 28.7 Q39.4 30.35 39.75 34.7 39.95 37.0 39.1 38.65 L38.45 38.7 22.9 40.05 M22.8 40.05 L15.05 33.75 M25.3 24.95 Q25.65 24.65 26.05 24.5 L26.2 24.45 M25.3 24.95 L24.75 25.45 24.15 26.2 23.25 27.7 22.65 28.85 M26.8 26.1 L26.75 26.15 25.6 28.5 M25.6 28.55 L25.55 28.6 25.5 28.7 24.6 31.15 Q24.1 32.65 24.1 33.75 L24.15 34.45 24.3 34.75 Q24.7 35.55 25.55 35.75 26.6 36.0 28.25 35.35 M26.8 26.1 L27.2 25.3 27.65 24.85 M23.6 35.3 L24.3 34.75 M21.25 34.35 L21.35 34.65 Q22.1 35.85 23.0 35.45 L23.35 35.35 23.6 35.3" fill="none" stroke="#000000" stroke-linecap="round" stroke-linejoin="round" stroke-opacity="0.3019608" stroke-width="0.30000000000000004"/>
      <path d="M22.9 40.05 L22.8 40.05" fill="none" stroke="#ff0000" stroke-linecap="round" stroke-linejoin="round" stroke-width="0.05"/>
      <path d="M8.05 29.15 L8.4 29.25 Q8.6 29.5 8.45 29.95 L7.95 30.8 7.25 31.3 7.15 31.3 6.6 31.25 Q6.4 31.0 6.55 30.55 6.65 30.1 7.05 29.7 7.45 29.3 7.85 29.2 L8.05 29.15 M14.65 36.8 L14.7 36.8 15.1 37.0 18.3 38.8 Q21.6 39.95 22.1 36.8 22.3 34.55 19.95 31.55 L19.55 31.2 17.1 29.25 Q16.35 28.75 15.65 28.4 14.4 27.85 13.15 27.65 L12.65 27.6 11.55 27.6 10.2 27.8 9.6 28.0 Q6.35 29.15 5.35 32.25 5.1 33.1 5.85 33.7 6.7 33.65 7.95 34.1 11.35 35.15 14.65 36.8 M4.3 35.9 L4.3 34.65 Q4.55 29.9 8.75 27.65 14.5 25.5 20.2 31.1 22.6 33.45 23.4 36.6 28.75 32.85 37.1 35.55 39.8 36.15 41.15 39.65 42.45 43.0 39.65 47.8 L39.75 47.45 Q40.0 46.6 39.05 45.8 L38.55 45.45 38.05 45.2 Q36.9 44.6 35.0 44.1 29.65 42.65 20.9 40.85 L17.2 39.0 Q13.35 37.1 9.9 35.65 7.6 34.7 6.25 34.6 4.6 34.45 4.35 35.5 L4.3 35.9 M23.4 36.6 Q21.9 38.15 20.9 40.85 21.9 38.15 23.4 36.6 M31.6 35.15 L27.7 35.25 Q23.15 36.3 22.45 39.0 22.05 40.5 24.3 41.05 L29.95 42.0 34.8 43.1 Q36.7 43.7 38.15 44.45 L39.3 45.25 Q40.05 46.0 40.3 45.5 41.05 43.75 41.05 42.25 40.85 38.8 38.75 37.1 38.15 36.6 37.4 36.3 L36.25 35.9 33.7 35.35 31.6 35.15 M29.75 36.1 Q29.75 35.75 30.15 35.5 L31.1 35.3 Q31.7 35.35 32.05 35.6 L32.4 36.2 32.0 36.75 31.05 36.95 30.1 36.7 Q29.7 36.45 29.75 36.1" fill="#d7f16b" fill-rule="evenodd" stroke="none"/>
      <path d="M9.6 28.0 L8.05 29.15 7.85 29.2 Q7.45 29.3 7.05 29.7 6.65 30.1 6.55 30.55 6.4 31.0 6.6 31.25 L7.15 31.3 7.25 31.3 Q7.4 32.55 9.25 33.6 L14.65 36.8 Q11.35 35.15 7.95 34.1 6.7 33.65 5.85 33.7 5.1 33.1 5.35 32.25 6.35 29.15 9.6 28.0 M17.1 29.25 Q19.45 31.3 19.7 33.3 19.85 36.2 17.7 36.05 14.25 35.25 11.95 33.2 L11.6 32.9 Q9.85 31.0 10.25 29.55 10.75 27.45 15.65 28.4 16.35 28.75 17.1 29.25 M33.7 35.35 Q36.15 35.85 36.95 37.3 38.35 40.5 34.25 40.8 28.6 40.9 27.2 38.6 26.25 36.75 28.4 35.7 29.4 35.25 31.6 35.15 L33.7 35.35 M38.75 37.1 Q40.85 38.8 41.05 42.25 41.05 43.75 40.3 45.5 40.05 46.0 39.3 45.25 L38.15 44.45 Q39.85 44.8 40.35 43.15 40.9 40.35 38.75 37.1 M29.75 36.1 Q29.7 36.45 30.1 36.7 L31.05 36.95 32.0 36.75 32.4 36.2 32.05 35.6 Q31.7 35.35 31.1 35.3 L30.15 35.5 Q29.75 35.75 29.75 36.1" fill="#9ae17b" fill-rule="evenodd" stroke="none"/>
      <path d="M8.05 29.15 L9.6 28.0 10.2 27.8 11.55 27.6 12.65 27.6 Q10.9 27.55 9.7 28.7 L9.6 28.8 Q8.35 30.2 11.6 32.9 L11.95 33.2 Q14.25 35.25 17.7 36.05 19.85 36.2 19.7 33.3 19.45 31.3 17.1 29.25 L19.55 31.2 Q21.35 34.6 19.5 36.65 L19.45 36.75 Q17.8 38.3 15.1 37.0 L14.7 36.8 14.65 36.8 9.25 33.6 Q7.4 32.55 7.25 31.3 L7.95 30.8 8.45 29.95 Q8.6 29.5 8.4 29.25 L8.05 29.15 M39.65 47.8 L39.55 47.95 39.45 48.1 39.4 48.15 39.05 48.4 Q37.6 49.25 33.7 49.0 28.2 48.6 20.85 46.15 13.5 43.7 8.65 40.55 4.6 37.95 4.3 36.2 L4.3 36.1 4.3 35.9 4.35 35.5 Q4.6 34.45 6.25 34.6 4.65 35.25 5.3 36.8 L5.5 37.2 Q6.15 38.5 9.4 40.45 L12.4 42.05 Q16.1 43.85 20.85 45.45 27.7 47.8 32.95 48.35 35.65 48.65 37.1 48.4 L37.4 48.35 37.4 48.4 Q38.7 48.25 39.35 47.65 39.95 47.0 39.05 45.8 40.0 46.6 39.75 47.45 L39.65 47.8 M34.8 43.1 L29.95 42.0 24.3 41.05 Q22.05 40.5 22.45 39.0 23.15 36.3 27.7 35.25 L31.6 35.15 Q29.4 35.25 28.4 35.7 26.25 36.75 27.2 38.6 28.6 40.9 34.25 40.8 38.35 40.5 36.95 37.3 36.15 35.85 33.7 35.35 L36.25 35.9 37.4 36.3 Q39.05 38.65 38.9 40.8 38.65 43.5 34.8 43.1" fill="#75d74a" fill-rule="evenodd" stroke="none"/>
      <path d="M15.1 37.0 Q17.8 38.3 19.45 36.75 L19.5 36.65 Q21.35 34.6 19.55 31.2 L19.95 31.55 Q22.3 34.55 22.1 36.8 21.6 39.95 18.3 38.8 L15.1 37.0 M11.6 32.9 Q8.35 30.2 9.6 28.8 L9.7 28.7 Q10.9 27.55 12.65 27.6 L13.15 27.65 Q14.4 27.85 15.65 28.4 10.75 27.45 10.25 29.55 9.85 31.0 11.6 32.9 M34.8 43.1 Q38.65 43.5 38.9 40.8 39.05 38.65 37.4 36.3 38.15 36.6 38.75 37.1 40.9 40.35 40.35 43.15 39.85 44.8 38.15 44.45 36.7 43.7 34.8 43.1" fill="#339328" fill-rule="evenodd" stroke="none"/>
      <path d="M12.4 42.05 L9.4 40.45 Q6.15 38.5 5.5 37.2 L5.3 36.8 Q4.65 35.25 6.25 34.6 7.6 34.7 9.9 35.65 13.35 37.1 17.2 39.0 L17.8 39.8 Q19.6 43.05 18.45 43.45 16.45 43.65 12.4 42.05" fill="#246c41" fill-rule="evenodd" stroke="none"/>
      <path d="M39.05 45.8 Q39.95 47.0 39.35 47.65 38.7 48.25 37.4 48.4 L37.4 48.35 37.1 48.4 Q35.65 48.65 32.95 48.35 27.7 47.8 20.85 45.45 16.1 43.85 12.4 42.05 16.45 43.65 18.45 43.45 19.6 43.05 17.8 39.8 L17.2 39.0 20.9 40.85 Q29.65 42.65 35.0 44.1 36.9 44.6 38.05 45.2 L38.55 45.45 39.05 45.8" fill="#206039" fill-rule="evenodd" stroke="none"/>
      <path d="M39.65 47.8 L39.55 47.95 39.45 48.1 39.4 48.15 39.05 48.4 Q37.6 49.25 33.7 49.0 28.2 48.6 20.85 46.15 13.5 43.7 8.65 40.55 4.6 37.95 4.3 36.2 L4.3 36.1 4.3 35.9 4.3 34.65 Q4.55 29.9 8.75 27.65 14.5 25.5 20.2 31.1 22.6 33.45 23.4 36.6 28.75 32.85 37.1 35.55 39.8 36.15 41.15 39.65 42.45 43.0 39.65 47.8 M20.9 40.85 Q21.9 38.15 23.4 36.6" fill="none" stroke="#000000" stroke-linecap="round" stroke-linejoin="round" stroke-opacity="0.3019608" stroke-width="0.30000000000000004"/>
      <path d="M24.25 9.95 Q22.55 12.45 21.25 15.55 L21.05 16.4 Q21.35 19.75 25.65 21.4 L25.2 21.3 Q22.85 20.55 20.9 18.4 21.1 20.95 23.6 21.9 27.2 23.25 31.35 23.25 32.75 23.25 34.35 22.4 L34.3 22.65 34.2 22.95 Q33.65 24.35 31.35 24.4 L25.55 23.6 Q17.7 21.95 21.0 13.6 25.3 4.0 32.5 1.75 33.75 3.65 34.5 8.6 L34.85 11.05 35.0 12.15 35.1 13.75 35.0 12.15 Q36.5 13.95 36.95 16.4 36.6 14.7 35.1 13.75 L35.1 15.5 35.1 17.9 35.1 18.15 35.1 18.45 35.1 17.95 34.5 11.65 Q33.95 8.05 33.1 4.8 33.45 8.85 33.1 12.8 L32.7 15.85 Q32.9 10.65 32.65 6.55 L32.55 5.4 32.2 2.9 32.1 2.6 Q27.45 5.15 24.25 9.95" fill="#d7f16b" fill-rule="evenodd" stroke="none"/>
      <path d="M25.65 21.4 Q21.35 19.75 21.05 16.4 L21.25 15.55 Q22.55 12.45 24.25 9.95 27.8 5.75 31.1 4.0 32.2 3.6 32.55 5.4 L32.65 6.55 Q32.9 10.65 32.7 15.85 L32.55 16.6 32.3 17.7 Q30.55 22.35 25.65 21.4 M35.1 17.9 L35.1 15.5 35.1 13.75 Q36.6 14.7 36.95 16.4 35.65 14.05 35.1 17.9" fill="#9ae17b" fill-rule="evenodd" stroke="none"/>
      <path d="M24.25 9.95 Q27.45 5.15 32.1 2.6 L32.2 2.9 32.55 5.4 Q32.2 3.6 31.1 4.0 27.8 5.75 24.25 9.95 M32.7 15.85 L33.1 12.8 Q33.7 9.45 34.5 11.65 L35.1 17.95 Q33.5 22.05 29.35 22.6 25.25 23.05 22.4 20.7 21.15 19.65 20.9 18.4 22.85 20.55 25.2 21.3 L25.65 21.4 Q30.55 22.35 32.3 17.7 L32.55 16.6 32.7 15.85" fill="#75d74a" fill-rule="evenodd" stroke="none"/>
      <path d="M33.1 12.8 Q33.45 8.85 33.1 4.8 33.95 8.05 34.5 11.65 33.7 9.45 33.1 12.8 M35.1 17.95 L35.1 18.45 35.1 18.15 Q36.0 22.85 38.65 22.75 L34.3 22.65 34.35 22.4 Q32.75 23.25 31.35 23.25 27.2 23.25 23.6 21.9 21.1 20.95 20.9 18.4 21.15 19.65 22.4 20.7 25.25 23.05 29.35 22.6 33.5 22.05 35.1 17.95" fill="#339328" fill-rule="evenodd" stroke="none"/>
      <path d="M35.1 15.5 L35.1 13.75 35.0 12.15 34.85 11.05 34.5 8.6 Q33.75 3.65 32.5 1.75 25.3 4.0 21.0 13.6 17.7 21.95 25.55 23.6 L31.35 24.4 Q33.65 24.35 34.2 22.95 M36.95 16.4 Q36.5 13.95 35.0 12.15" fill="none" stroke="#000000" stroke-linecap="round" stroke-linejoin="round" stroke-opacity="0.3019608" stroke-width="0.30000000000000004"/>
    </g>
    <g id="sprite0" transform="matrix(1.0, 0.0, 0.0, 1.0, 0.0, 0.0)">
      <use height="26.7" transform="matrix(0.0042, -1.3515, 1.3935, 0.02, 22.09, 56.0263)" width="26.7" xlink:href="#sprite1"/>
      <use height="26.7" transform="matrix(0.0095, -3.0486, 0.372, 0.0053, 36.507, 81.3775)" width="26.7" xlink:href="#sprite1"/>
      <use height="26.7" transform="matrix(3.0486, 0.0095, -0.0053, 0.372, 0.1225, 35.107)" width="26.7" xlink:href="#sprite1"/>
    </g>
    <g id="sprite1" transform="matrix(1.0, 0.0, 0.0, 1.0, 13.35, 13.35)">
      <use height="26.7" transform="matrix(1.0, 0.0, 0.0, 1.0, -13.35, -13.35)" width="26.7" xlink:href="#shape1"/>
    </g>
    <g id="shape1" transform="matrix(1.0, 0.0, 0.0, 1.0, 13.35, 13.35)">
      <path d="M9.3 -9.85 Q13.35 -5.8 13.35 0.0 13.35 5.8 9.3 9.3 5.8 13.35 0.0 13.35 -5.8 13.35 -9.85 9.3 -13.35 5.8 -13.35 0.0 -13.35 -5.8 -9.85 -9.85 -5.8 -13.35 0.0 -13.35 5.8 -13.35 9.3 -9.85" fill="url(#gradient0)" fill-rule="evenodd" stroke="none"/>
    </g>
    <radialGradient cx="0" cy="0" gradientTransform="matrix(0.0213, 0.0, 0.0, 0.0213, 0.0, 0.0)" gradientUnits="userSpaceOnUse" id="gradient0" r="819.2" spreadMethod="pad">
      <stop offset="0.19607843137254902" stop-color="#fee3bc" stop-opacity="0.25882354"/>
      <stop offset="0.5019607843137255" stop-color="#fee3bc" stop-opacity="0.039215688"/>
      <stop offset="0.7607843137254902" stop-color="#ffe3bd" stop-opacity="0.0"/>
    </radialGradient>
  </defs>
</svg>
