<?xml version="1.0" encoding="UTF-8" standalone="no"?>
<svg xmlns:xlink="http://www.w3.org/1999/xlink" height="52.0px" width="52.0px" xmlns="http://www.w3.org/2000/svg">
  <g transform="matrix(1.0, 0.0, 0.0, 1.0, 0.0, 0.0)">
    <use height="98.0" transform="matrix(1.0, 0.0, 0.0, 1.0, -23.0, -23.0)" width="98.0" xlink:href="#shape0"/>
    <use height="0.0" transform="matrix(0.0873, -0.0057, 0.0, 0.0584, 34.15, 33.0)" width="0.0" xlink:href="#sprite0"/>
    <use height="0.0" transform="matrix(0.117, 0.0488, -0.0167, 0.0371, 24.2, 24.65)" width="0.0" xlink:href="#sprite0"/>
    <use height="81.5" transform="matrix(0.1854, 0.0, 0.0, 0.1854, 26.45, 19.55)" width="81.5" xlink:href="#sprite1"/>
    <use height="183.25" transform="matrix(0.1348, -0.2422, -0.1476, -0.0613, 32.2719, 53.7513)" width="99.5" xlink:href="#sprite3"/>
    <use height="183.25" transform="matrix(0.0268, -0.173, -0.1036, -0.0207, 36.7757, 27.0864)" width="99.5" xlink:href="#sprite3"/>
    <use height="0.0" transform="matrix(0.0991, 0.0432, -0.0781, 0.1741, 23.25, 29.5)" width="0.0" xlink:href="#sprite0"/>
  </g>
  <defs>
    <g id="shape0" transform="matrix(1.0, 0.0, 0.0, 1.0, 23.0, 23.0)">
      <path d="M52.0 0.0 L52.0 52.0 0.0 52.0 0.0 0.0 52.0 0.0" fill="#795fa9" fill-opacity="0.0" fill-rule="evenodd" stroke="none"/>
      <path d="M34.8 2.65 Q33.65 2.2 32.95 3.05 L32.45 6.75 31.2 10.9 26.7 11.5 Q24.05 12.4 21.85 14.2 L20.4 15.55 18.9 14.05 Q15.9 14.05 13.7 16.2 L13.45 16.75 Q11.75 20.2 11.9 22.05 11.8 26.0 13.7 28.75 L13.55 29.45 13.4 30.4 11.1 30.25 10.3 28.85 10.25 28.85 Q9.45 28.7 8.9 29.1 L8.8 29.15 8.55 29.45 9.45 30.45 9.25 31.15 Q8.6 31.55 8.05 31.9 L8.0 31.9 Q8.6 32.95 9.8 32.6 L10.8 31.6 13.0 32.25 12.6 34.4 9.55 35.05 8.4 33.85 8.4 33.9 Q7.55 33.95 7.15 34.55 L7.05 34.65 6.9 34.9 7.95 35.7 8.0 36.35 7.0 37.45 Q7.85 38.3 8.9 37.6 L9.6 36.45 12.2 36.5 11.5 40.05 11.55 40.05 11.45 40.3 11.45 40.35 11.45 40.4 11.4 40.4 Q11.3 41.0 11.6 41.65 L11.75 42.0 10.5 45.4 10.5 45.45 10.5 45.4 10.45 45.5 10.5 45.9 10.55 46.15 11.25 46.9 12.3 47.2 12.45 47.15 12.6 47.1 12.8 47.05 12.9 46.9 12.9 46.85 12.95 46.8 14.25 44.45 14.75 44.75 15.0 44.9 13.75 47.0 13.75 47.05 13.7 47.05 13.65 47.1 13.65 47.5 13.65 47.75 14.3 48.4 15.35 48.7 15.55 48.7 15.65 48.65 15.85 48.6 16.05 48.45 16.05 48.4 18.3 45.65 19.05 45.6 19.3 45.5 19.55 45.45 19.9 45.2 19.95 45.2 19.95 45.25 20.15 45.15 20.35 45.05 20.5 44.95 23.7 42.8 23.75 42.7 25.1 44.85 24.45 46.05 Q24.45 47.35 25.6 47.65 L25.6 47.6 26.0 46.2 26.6 45.85 27.8 46.4 28.0 46.05 28.05 45.95 Q28.25 45.3 27.95 44.65 L27.9 44.55 26.3 44.2 25.3 41.35 27.6 39.35 29.65 41.25 29.35 42.55 Q29.65 43.8 30.85 43.75 L30.85 42.3 31.35 41.85 32.7 42.05 32.75 41.7 32.8 41.55 Q32.8 40.85 32.3 40.3 L32.25 40.2 30.65 40.3 29.15 38.1 29.8 37.45 34.5 37.9 35.35 37.9 37.0 37.35 37.0 37.4 Q39.9 36.2 41.65 33.5 L42.05 32.8 Q42.85 28.95 42.9 25.95 42.4 23.55 40.65 22.15 40.9 19.35 39.85 16.6 39.0 14.75 37.75 13.55 39.6 11.75 41.6 10.4 43.2 9.35 44.9 8.6 45.45 7.65 44.65 6.75 L44.4 6.5 44.1 6.3 Q43.2 5.75 42.45 6.3 L35.95 12.15 Q34.8 11.5 33.45 11.2 L36.0 4.55 Q36.25 3.6 35.45 3.0 L35.1 2.75 34.8 2.65 Z" fill="none" stroke="#000000" stroke-linecap="round" stroke-linejoin="round" stroke-opacity="0.3019608" stroke-width="1.0"/>
      <path d="M9.25 31.15 L9.1 31.3 8.35 31.95 8.8 32.35 9.6 32.35 9.65 32.35 10.75 31.35 12.1 31.75 11.9 31.95 10.8 31.6 9.8 32.6 Q8.6 32.95 8.0 31.9 L8.05 31.9 Q8.6 31.55 9.25 31.15 M12.75 31.0 L13.2 30.65 11.0 30.55 10.15 29.1 10.05 29.05 8.9 29.1 Q9.45 28.7 10.25 28.85 L10.3 28.85 11.1 30.25 13.55 30.4 13.2 30.65 15.15 30.75 15.4 31.3 12.75 31.0 M12.55 34.45 L12.05 34.85 13.6 34.45 14.0 34.95 11.55 35.35 12.05 34.85 9.55 35.35 8.35 34.2 8.2 34.2 Q7.7 34.2 7.15 34.55 7.55 33.95 8.4 33.9 L8.4 33.85 9.55 35.05 12.55 34.45 M8.0 36.35 L7.9 36.55 7.3 37.45 7.9 37.65 Q8.6 37.65 8.7 37.45 L9.5 36.25 10.95 36.25 10.8 36.45 9.6 36.45 8.9 37.6 Q7.85 38.3 7.0 37.45 L8.0 36.35" fill="#e6e4b3" fill-rule="evenodd" stroke="none"/>
      <path d="M12.75 31.0 L10.85 30.8 10.05 29.3 9.9 29.25 8.8 29.15 8.9 29.1 10.05 29.05 10.15 29.1 11.0 30.55 13.2 30.65 12.75 31.0 M7.15 34.55 Q7.7 34.2 8.2 34.2 L8.35 34.2 9.55 35.35 12.05 34.85 11.55 35.35 9.45 35.65 8.3 34.4 8.15 34.4 7.05 34.65 7.15 34.55" fill="#ffffff" fill-rule="evenodd" stroke="none"/>
      <path d="M8.8 29.15 L9.9 29.25 10.05 29.3 10.85 30.8 12.75 31.0 12.1 31.7 12.1 31.75 10.75 31.35 9.65 32.35 9.6 32.35 Q8.75 32.3 9.1 31.3 L9.25 31.15 9.45 30.45 8.55 29.45 8.8 29.15 M13.55 30.4 L14.55 30.4 15.15 30.75 13.2 30.65 13.55 30.4 M15.0 32.5 L14.55 32.7 11.9 31.95 12.1 31.75 15.0 32.5 M13.6 34.45 L12.05 34.85 12.55 34.45 12.95 34.35 13.6 34.45 M7.05 34.65 L8.15 34.4 8.3 34.4 9.45 35.65 11.55 35.35 11.1 35.85 10.95 36.25 9.5 36.25 8.7 37.45 Q7.8 37.6 7.9 36.55 L8.0 36.35 7.95 35.7 6.9 34.9 7.05 34.65 M10.8 36.45 L10.95 36.25 13.9 36.25 13.55 36.5 10.8 36.45" fill="#cac960" fill-rule="evenodd" stroke="none"/>
      <path d="M9.1 31.3 Q8.75 32.3 9.6 32.35 L8.8 32.35 8.35 31.95 9.1 31.3 M12.1 31.75 L12.1 31.7 12.75 31.0 15.4 31.3 15.4 31.6 15.0 32.5 12.1 31.75 M11.55 35.35 L14.0 34.95 14.05 35.25 Q14.15 35.9 13.9 36.25 L10.95 36.25 11.1 35.85 11.55 35.35 M7.9 36.55 Q7.8 37.6 8.7 37.45 8.6 37.65 7.9 37.65 L7.3 37.45 7.9 36.55" fill="#b9b93e" fill-rule="evenodd" stroke="none"/>
      <path d="M8.8 29.15 L8.55 29.45 9.45 30.45 9.25 31.15 Q8.6 31.55 8.05 31.9 L7.95 31.85 8.0 31.9 Q8.6 32.95 9.8 32.6 L10.8 31.6 11.9 31.95 14.55 32.7 15.0 32.5 15.4 31.6 15.4 31.3 15.15 30.75 14.55 30.4 13.55 30.4 11.1 30.25 10.3 28.85 10.25 28.85 Q9.45 28.7 8.9 29.1 L8.8 29.15 M13.6 34.45 L12.95 34.35 12.55 34.45 9.55 35.05 8.4 33.85 8.4 33.9 Q7.55 33.95 7.15 34.55 L7.05 34.65 6.9 34.9 7.95 35.7 8.0 36.35 7.0 37.45 Q7.85 38.3 8.9 37.6 L9.6 36.45 10.8 36.45 13.55 36.5 13.9 36.25 Q14.15 35.9 14.05 35.25 L14.0 34.95 13.6 34.45" fill="none" stroke="#000000" stroke-linecap="round" stroke-linejoin="round" stroke-opacity="0.3019608" stroke-width="0.30000000000000004"/>
      <path d="M31.95 12.0 Q33.2 9.35 34.05 6.8 L35.1 2.75 35.45 3.0 34.45 6.75 32.05 13.1 31.45 12.8 31.95 12.0" fill="#b9b93e" fill-rule="evenodd" stroke="none"/>
      <path d="M30.95 12.5 Q32.2 10.0 32.9 6.75 L33.35 3.2 33.85 2.75 Q34.95 2.85 34.5 4.5 33.85 7.55 31.95 12.0 L31.45 12.8 30.95 12.5 M35.45 3.0 Q36.25 3.6 36.0 4.55 L32.6 13.4 32.05 13.1 34.45 6.75 35.45 3.0" fill="#e6e4b3" fill-rule="evenodd" stroke="none"/>
      <path d="M31.95 12.0 Q33.85 7.55 34.5 4.5 34.95 2.85 33.85 2.75 L33.35 3.2 32.9 6.75 Q32.2 10.0 30.95 12.5 L30.6 12.25 Q31.85 9.5 32.45 6.75 L32.95 3.05 Q33.65 2.2 34.8 2.65 L35.1 2.75 34.05 6.8 Q33.2 9.35 31.95 12.0" fill="#ffffff" fill-rule="evenodd" stroke="none"/>
      <path d="M35.1 2.75 L34.8 2.65 Q33.65 2.2 32.95 3.05 L32.45 6.75 Q31.85 9.5 30.6 12.25 L30.95 12.5 31.45 12.8 32.05 13.1 32.6 13.4 36.0 4.55 Q36.25 3.6 35.45 3.0 L35.1 2.75 Z" fill="none" stroke="#000000" stroke-linecap="round" stroke-linejoin="round" stroke-opacity="0.3019608" stroke-width="0.30000000000000004"/>
      <path d="M44.4 6.5 L44.65 6.75 Q45.15 7.6 44.6 8.3 42.9 9.15 41.45 10.05 38.7 11.85 36.85 13.9 L36.3 13.5 Q38.55 10.9 41.05 8.9 L44.4 6.5" fill="#b9b93e" fill-rule="evenodd" stroke="none"/>
      <path d="M35.85 13.05 L35.35 12.65 42.45 6.3 Q43.2 5.75 44.1 6.3 42.75 7.05 40.9 8.6 38.7 10.3 35.85 13.05 M44.65 6.75 Q45.45 7.65 44.9 8.6 43.2 9.35 41.6 10.4 39.3 11.95 37.15 14.1 L36.85 13.9 Q38.7 11.85 41.45 10.05 42.9 9.15 44.6 8.3 45.15 7.6 44.65 6.75" fill="#e6e4b3" fill-rule="evenodd" stroke="none"/>
      <path d="M44.1 6.3 L44.4 6.5 41.05 8.9 Q38.55 10.9 36.3 13.5 L35.85 13.05 Q38.7 10.3 40.9 8.6 42.75 7.05 44.1 6.3" fill="#ffffff" fill-rule="evenodd" stroke="none"/>
      <path d="M35.85 13.05 L35.35 12.65 42.45 6.3 Q43.2 5.75 44.1 6.3 L44.4 6.5 44.65 6.75 Q45.45 7.65 44.9 8.6 43.2 9.35 41.6 10.4 39.3 11.95 37.15 14.1 L36.85 13.9 36.3 13.5 35.85 13.05 Z" fill="none" stroke="#000000" stroke-linecap="round" stroke-linejoin="round" stroke-opacity="0.3019608" stroke-width="0.30000000000000004"/>
      <path d="M34.95 26.95 L34.95 26.9 34.95 26.95" fill="#f49302" fill-rule="evenodd" stroke="none"/>
      <path d="M28.1 11.75 L27.0 12.0 Q24.55 12.85 22.5 14.5 20.05 16.55 18.2 19.75 L26.1 23.15 34.95 26.9 34.95 26.95 37.6 28.05 Q39.45 25.1 39.8 22.05 40.15 19.35 39.05 16.65 38.05 14.25 36.15 12.95 L34.7 12.15 34.65 12.15 33.75 11.8 Q35.95 12.95 34.05 16.0 32.3 18.4 30.75 19.7 36.9 12.7 31.9 11.5 L28.1 11.75 M21.85 14.25 Q24.05 12.45 26.75 11.5 36.1 9.1 39.9 16.6 41.0 19.5 40.65 22.4 40.25 25.7 38.2 28.9 L17.2 19.9 Q19.15 16.4 21.85 14.25" fill="#d0c586" fill-rule="evenodd" stroke="none"/>
      <path d="M28.1 11.75 L31.9 11.5 Q36.9 12.7 30.75 19.7 L28.65 21.0 Q25.8 22.05 23.5 19.5 22.15 17.15 23.5 15.0 24.85 12.85 28.1 11.75" fill="#bfb072" fill-rule="evenodd" stroke="none"/>
      <path d="M26.1 23.15 L18.2 19.75 Q20.05 16.55 22.5 14.5 24.55 12.85 27.0 12.0 L28.1 11.75 Q24.85 12.85 23.5 15.0 22.15 17.15 23.5 19.5 25.8 22.05 28.65 21.0 L26.1 23.15 M36.15 12.95 Q38.05 14.25 39.05 16.65 40.15 19.35 39.8 22.05 39.45 25.1 37.6 28.05 L34.95 26.95 34.95 26.9 Q41.0 18.0 36.15 12.95" fill="#a89e64" fill-rule="evenodd" stroke="none"/>
      <path d="M30.75 19.7 Q32.3 18.4 34.05 16.0 35.95 12.95 33.75 11.8 L34.65 12.15 34.7 12.15 36.15 12.95 Q41.0 18.0 34.95 26.9 L26.1 23.15 28.65 21.0 30.75 19.7" fill="#696141" fill-rule="evenodd" stroke="none"/>
      <path d="M21.85 14.25 Q24.05 12.45 26.75 11.5 36.1 9.1 39.9 16.6 41.0 19.5 40.65 22.4 40.25 25.7 38.2 28.9 L17.2 19.9 Q19.15 16.4 21.85 14.25 Z" fill="none" stroke="#000000" stroke-linecap="round" stroke-linejoin="round" stroke-opacity="0.3019608" stroke-width="0.30000000000000004"/>
      <path d="M30.95 19.6 L31.25 19.0 Q31.8 18.05 32.8 17.6 L33.95 17.4 34.75 17.5 35.1 17.65 Q35.75 18.0 35.95 18.7 36.2 19.45 35.85 20.25 35.55 21.1 36.15 20.85 L36.05 20.95 35.6 21.65 Q35.65 20.85 35.15 21.3 34.7 21.75 34.05 22.0 L32.1 22.15 Q31.2 21.8 30.9 20.85 30.8 20.3 30.95 19.7 L30.95 19.6 M33.15 20.35 Q35.3 19.15 34.7 17.8 L34.5 17.75 33.75 17.6 32.85 17.8 Q31.9 18.2 31.45 19.05 31.3 19.25 31.3 19.5 L31.15 20.0 31.25 20.6 Q31.45 21.4 32.2 21.65 L33.9 21.55 35.25 20.35 Q35.7 19.55 35.5 18.75 L35.1 18.15 34.8 19.1 Q34.35 19.95 33.45 20.3 L33.15 20.35" fill="#ffffff" fill-rule="evenodd" stroke="none"/>
      <path d="M33.95 17.4 L35.05 17.5 35.1 17.5 Q36.1 17.85 36.4 18.85 L36.5 19.15 Q36.3 19.45 35.95 18.7 35.75 18.0 35.1 17.65 L34.75 17.5 33.95 17.4 M31.15 20.0 L31.3 19.5 Q31.3 19.25 31.45 19.05 31.9 18.2 32.85 17.8 L33.75 17.6 34.5 17.75 34.7 17.8 Q35.3 19.15 33.15 20.35 L33.1 20.4 Q32.4 20.6 31.8 20.4 L31.15 20.0" fill="#e6e4b3" fill-rule="evenodd" stroke="none"/>
      <path d="M36.5 19.15 Q36.6 20.0 36.15 20.85 35.55 21.1 35.85 20.25 36.2 19.45 35.95 18.7 36.3 19.45 36.5 19.15 M35.6 21.65 L34.35 22.5 32.15 22.65 Q31.15 22.3 30.85 21.3 30.6 20.5 30.95 19.7 L30.95 19.6 30.95 19.7 Q30.8 20.3 30.9 20.85 31.2 21.8 32.1 22.15 L34.05 22.0 Q34.7 21.75 35.15 21.3 35.65 20.85 35.6 21.65 M33.15 20.35 L33.45 20.3 Q34.35 19.95 34.8 19.1 L35.1 18.15 35.5 18.75 Q35.7 19.55 35.25 20.35 L33.9 21.55 32.2 21.65 Q31.45 21.4 31.25 20.6 L31.15 20.0 31.8 20.4 Q32.4 20.6 33.1 20.4 L33.15 20.35" fill="#cac960" fill-rule="evenodd" stroke="none"/>
      <path d="M30.95 19.6 L31.25 19.0 Q31.8 18.05 32.8 17.6 L33.95 17.4 35.05 17.5 35.1 17.5 Q36.1 17.85 36.4 18.85 L36.5 19.15 Q36.6 20.0 36.15 20.85 L36.05 20.95 35.6 21.65 34.35 22.5 32.15 22.65 Q31.15 22.3 30.85 21.3 30.6 20.5 30.95 19.7 L30.95 19.6 Z" fill="none" stroke="#000000" stroke-linecap="round" stroke-linejoin="round" stroke-opacity="0.3019608" stroke-width="0.30000000000000004"/>
      <path d="M24.9 14.2 L25.7 14.3 26.0 14.4 Q26.6 14.7 26.85 15.45 27.05 16.2 26.75 17.0 26.55 17.9 27.05 17.65 L27.0 17.75 26.6 18.4 Q26.65 17.65 26.1 18.1 L25.2 18.85 Q24.25 19.35 23.35 19.05 22.5 18.75 22.25 17.8 L22.2 16.6 22.25 16.5 22.45 15.9 Q22.9 14.9 23.9 14.4 L24.9 14.2 M24.35 17.2 Q26.2 15.9 25.6 14.6 L25.45 14.5 24.75 14.4 23.85 14.65 Q23.1 15.1 22.7 15.9 L22.5 16.4 22.45 16.9 22.55 17.5 Q22.75 18.25 23.45 18.5 L25.0 18.4 Q25.8 18.0 26.25 17.2 26.65 16.35 26.35 15.55 L26.05 14.9 25.75 15.85 Q25.35 16.7 24.55 17.1 L24.35 17.2" fill="#ffffff" fill-rule="evenodd" stroke="none"/>
      <path d="M26.85 15.45 Q26.6 14.7 26.0 14.4 L25.7 14.3 24.9 14.2 25.9 14.25 25.95 14.3 Q26.95 14.6 27.25 15.6 L27.3 15.85 Q27.15 16.2 26.85 15.45 M22.45 16.9 L22.5 16.4 22.7 15.9 Q23.1 15.1 23.85 14.65 L24.75 14.4 25.45 14.5 25.6 14.6 Q26.2 15.9 24.35 17.2 L24.25 17.25 Q23.65 17.45 23.05 17.25 L22.45 16.9" fill="#e6e4b3" fill-rule="evenodd" stroke="none"/>
      <path d="M26.85 15.45 Q27.15 16.2 27.3 15.85 27.45 16.75 27.05 17.65 26.55 17.9 26.75 17.0 27.05 16.2 26.85 15.45 M22.25 16.5 L22.2 16.6 22.25 17.8 Q22.5 18.75 23.35 19.05 24.25 19.35 25.2 18.85 L26.1 18.1 Q26.65 17.65 26.6 18.4 26.15 18.95 25.45 19.35 L23.45 19.5 Q22.5 19.15 22.2 18.15 21.95 17.35 22.2 16.6 L22.25 16.5 M24.35 17.2 L24.55 17.1 Q25.35 16.7 25.75 15.85 L26.05 14.9 26.35 15.55 Q26.65 16.35 26.25 17.2 25.8 18.0 25.0 18.4 L23.45 18.5 Q22.75 18.25 22.55 17.5 L22.45 16.9 23.05 17.25 Q23.65 17.45 24.25 17.25 L24.35 17.2" fill="#cac960" fill-rule="evenodd" stroke="none"/>
      <path d="M27.3 15.85 L27.25 15.6 Q26.95 14.6 25.95 14.3 L25.9 14.25 24.9 14.2 23.9 14.4 Q22.9 14.9 22.45 15.9 L22.25 16.5 22.2 16.6 Q21.95 17.35 22.2 18.15 22.5 19.15 23.45 19.5 L25.45 19.35 Q26.15 18.95 26.6 18.4 L27.0 17.75 27.05 17.65 Q27.45 16.75 27.3 15.85 Z" fill="none" stroke="#000000" stroke-linecap="round" stroke-linejoin="round" stroke-opacity="0.3019608" stroke-width="0.30000000000000004"/>
      <path d="M38.95 26.25 L38.3 26.9 36.7 28.0 Q36.15 25.85 37.9 25.0 L39.2 24.9 38.95 26.25 M33.9 28.95 L33.45 29.05 30.75 28.8 Q29.95 27.6 30.4 25.9 30.6 25.25 30.95 24.85 31.6 24.2 32.7 24.3 L33.15 24.4 33.85 28.45 33.9 28.95 M28.6 23.3 L29.5 23.1 28.75 28.4 27.5 28.15 26.45 27.9 23.6 26.95 23.3 26.85 Q24.45 23.85 27.1 23.5 L28.45 23.8 27.5 28.15 28.45 23.8 28.6 23.3 M22.95 20.85 L24.1 21.5 21.3 25.5 21.0 25.85 18.5 24.4 Q18.05 23.4 19.05 22.2 L19.7 21.65 20.7 21.25 22.95 20.85 M20.95 19.5 L16.45 22.8 15.7 22.1 19.65 19.45 20.95 19.5" fill="#e6e4b3" fill-rule="evenodd" stroke="none"/>
      <path d="M36.3 28.2 L35.85 28.45 35.5 28.55 34.65 25.05 38.85 24.5 39.25 24.9 39.2 24.9 37.9 25.0 Q37.15 25.15 36.6 25.95 L36.4 26.35 Q36.15 27.05 36.3 28.2 M29.15 28.5 L29.75 23.6 32.7 24.3 Q31.6 24.2 30.95 24.85 30.6 25.25 30.4 25.9 29.95 27.6 30.75 28.8 L29.45 28.55 29.15 28.5 M28.6 23.3 L28.45 23.8 27.1 23.5 26.45 23.55 25.3 23.95 Q24.85 24.2 24.45 24.55 23.35 25.35 22.8 26.6 L22.1 26.35 25.25 22.1 28.6 23.3 M16.85 23.1 L20.75 19.95 22.95 20.85 20.7 21.25 19.7 21.65 19.05 22.2 Q18.05 23.4 18.5 24.4 L16.85 23.1 M19.35 18.85 L19.65 19.45 15.7 22.1 15.55 21.8 15.15 21.0 15.15 20.2 Q16.0 18.55 17.15 18.1 L17.4 18.0 Q18.2 17.8 19.35 18.85" fill="#cac960" fill-rule="evenodd" stroke="none"/>
      <path d="M35.5 28.55 L33.9 28.95 33.85 28.45 33.6 24.1 34.65 25.05 35.5 28.55 M24.7 21.3 L25.25 22.1 22.1 26.35 21.0 25.85 21.3 25.5 24.7 21.3 M19.35 18.85 Q18.2 17.8 17.4 18.0 L17.15 18.1 Q16.0 18.55 15.15 20.2 L15.55 18.3 Q15.9 17.8 16.4 17.45 17.25 16.95 18.5 17.05 L19.35 18.85" fill="#b9b93e" fill-rule="evenodd" stroke="none"/>
      <path d="M14.25 29.35 L13.9 28.95 Q11.8 26.15 11.9 22.05 11.75 20.2 13.45 16.75 L13.3 17.2 Q12.5 19.75 13.7 22.05 L14.25 22.75 Q17.8 26.75 23.2 28.7 L26.15 29.75 Q26.65 29.65 26.65 28.55 L26.65 28.3 26.75 28.55 Q27.1 29.3 27.05 30.05 L28.95 30.4 31.6 30.85 35.15 31.0 Q37.85 30.35 39.75 28.65 L41.35 26.75 Q42.2 24.1 40.35 21.9 41.85 23.15 41.95 24.9 L41.9 25.95 Q41.4 27.85 39.55 29.4 L37.5 30.65 35.2 31.5 Q35.6 33.65 34.55 37.6 35.2 33.35 34.15 31.55 L28.8 31.0 Q25.85 30.45 23.0 29.25 L22.1 28.95 Q19.3 27.8 17.05 26.1 18.45 29.3 18.3 31.05 17.55 26.9 15.75 25.15 L14.05 23.3 13.5 22.6 13.0 21.25 Q11.75 24.1 14.25 29.35 M31.15 22.3 L32.85 23.0 38.65 23.0 Q40.05 23.65 38.95 26.25 L39.2 24.9 39.25 24.9 Q39.25 23.85 38.65 23.45 L32.85 23.45 21.3 19.0 18.3 16.0 Q16.65 15.9 15.75 16.8 L15.35 17.25 Q14.9 18.7 15.0 19.8 14.75 17.55 15.35 16.75 16.35 15.4 18.3 15.55 L21.3 18.5 26.85 20.65 Q27.3 20.8 27.6 20.05 L27.7 19.75 27.85 20.15 27.6 20.95 31.15 22.3 M36.7 28.0 L36.3 28.2 Q36.15 27.05 36.4 26.35 L36.6 25.95 Q37.15 25.15 37.9 25.0 36.15 25.85 36.7 28.0 M32.95 23.95 L33.6 24.1 33.85 28.45 33.15 24.4 32.7 24.3 29.75 23.6 29.15 28.5 28.75 28.4 29.5 23.1 32.95 23.95 M27.1 23.5 Q24.45 23.85 23.3 26.85 L22.8 26.6 Q23.35 25.35 24.45 24.55 24.85 24.2 25.3 23.95 L26.45 23.55 27.1 23.5 M22.95 20.85 L20.75 19.95 16.85 23.1 16.45 22.8 20.95 19.5 21.3 19.7 24.7 21.3 21.3 25.5 24.1 21.5 22.95 20.85" fill="#d0c586" fill-rule="evenodd" stroke="none"/>
      <path d="M30.15 20.1 L34.05 21.45 40.15 21.8 40.35 21.9 Q42.35 23.3 42.9 25.95 42.85 28.95 42.05 32.8 L41.65 33.5 Q39.9 36.2 37.0 37.4 L37.0 37.35 Q36.45 35.7 36.9 33.25 36.6 36.5 37.95 36.45 41.0 34.4 41.8 31.95 L42.4 27.75 Q42.4 25.6 41.95 24.9 41.85 23.15 40.35 21.9 42.2 24.1 41.35 26.75 L39.75 28.65 Q37.85 30.35 35.15 31.0 L31.6 30.85 30.55 29.85 Q30.15 29.3 30.75 28.8 L33.45 29.05 33.9 28.95 35.5 28.55 35.85 28.45 36.3 28.2 36.7 28.0 38.3 26.9 38.95 26.25 Q40.05 23.65 38.65 23.0 L32.85 23.0 31.15 22.3 30.2 21.15 Q29.95 20.6 30.15 20.1 M13.7 16.2 Q15.9 14.05 18.9 14.05 L22.05 17.2 27.4 19.1 27.7 19.75 27.6 20.05 Q27.3 20.8 26.85 20.65 L21.3 18.5 18.3 15.55 Q16.35 15.4 15.35 16.75 14.75 17.55 15.0 19.8 L15.05 20.25 15.15 21.0 15.55 21.8 15.7 22.1 16.45 22.8 16.85 23.1 18.5 24.4 21.0 25.85 22.1 26.35 22.8 26.6 23.3 26.85 23.6 26.95 26.45 27.9 26.65 28.3 26.65 28.55 Q26.65 29.65 26.15 29.75 L23.2 28.7 Q17.8 26.75 14.25 22.75 L13.7 22.05 Q12.5 19.75 13.3 17.2 L13.45 16.75 13.7 16.2" fill="#bfb072" fill-rule="evenodd" stroke="none"/>
      <path d="M37.0 37.35 L35.35 37.9 34.5 37.9 34.55 37.6 Q35.6 33.65 35.2 31.5 L37.5 30.65 36.9 33.25 Q36.45 35.7 37.0 37.35 M17.6 32.5 Q15.75 31.1 14.25 29.35 11.75 24.1 13.0 21.25 L13.5 22.6 14.05 23.3 15.75 25.15 Q17.55 26.9 18.3 31.05 18.2 32.05 17.6 32.5 M27.4 19.1 L30.15 20.1 Q29.95 20.6 30.2 21.15 L31.15 22.3 27.6 20.95 27.85 20.15 27.7 19.75 27.4 19.1 M30.75 28.8 Q30.15 29.3 30.55 29.85 L31.6 30.85 28.95 30.4 27.05 30.05 Q27.1 29.3 26.75 28.55 L26.65 28.3 26.45 27.9 27.5 28.15 28.75 28.4 29.15 28.5 29.45 28.55 30.75 28.8 M18.3 16.0 L21.3 19.0 21.3 19.7 20.95 19.5 19.65 19.45 19.35 18.85 18.5 17.05 18.3 16.0" fill="#a89e64" fill-rule="evenodd" stroke="none"/>
      <path d="M34.5 37.9 Q28.8 37.8 23.4 35.6 L22.85 35.4 Q20.2 32.05 22.1 28.95 L23.0 29.25 Q25.85 30.45 28.8 31.0 L34.15 31.55 Q35.2 33.35 34.55 37.6 L34.5 37.9 M41.95 24.9 Q42.4 25.6 42.4 27.75 L41.8 31.95 Q41.0 34.4 37.95 36.45 36.6 36.5 36.9 33.25 L37.5 30.65 39.55 29.4 Q41.4 27.85 41.9 25.95 L41.95 24.9 M32.85 23.45 L32.95 23.95 29.5 23.1 28.6 23.3 25.25 22.1 24.7 21.3 21.3 19.7 21.3 19.0 32.85 23.45" fill="#696141" fill-rule="evenodd" stroke="none"/>
      <path d="M22.85 35.4 Q19.9 34.25 17.6 32.5 18.2 32.05 18.3 31.05 18.45 29.3 17.05 26.1 19.3 27.8 22.1 28.95 20.2 32.05 22.85 35.4 M39.25 24.9 L38.85 24.5 34.65 25.05 33.6 24.1 32.95 23.95 32.85 23.45 38.65 23.45 Q39.25 23.85 39.25 24.9 M15.0 19.8 Q14.9 18.7 15.35 17.25 L15.75 16.8 Q16.65 15.9 18.3 16.0 L18.5 17.05 Q17.25 16.95 16.4 17.45 15.9 17.8 15.55 18.3 L15.15 20.2 15.15 21.0 15.05 20.25 15.0 19.8" fill="#5f5a3a" fill-rule="evenodd" stroke="none"/>
      <path d="M30.15 20.1 L34.05 21.45 40.15 21.8 40.35 21.9 Q42.35 23.3 42.9 25.95 42.85 28.95 42.05 32.8 L41.65 33.5 Q39.9 36.2 37.0 37.4 L37.0 37.35 35.35 37.9 34.5 37.9 Q28.8 37.8 23.4 35.6 L22.85 35.4 Q19.9 34.25 17.6 32.5 15.75 31.1 14.25 29.35 L13.9 28.95 Q11.8 26.15 11.9 22.05 11.75 20.2 13.45 16.75 L13.7 16.2 Q15.9 14.05 18.9 14.05 L22.05 17.2 27.4 19.1 30.15 20.1 M38.95 26.25 L38.3 26.9 36.7 28.0 36.3 28.2 35.85 28.45 35.5 28.55 33.9 28.95 33.45 29.05 30.75 28.8 29.45 28.55 29.15 28.5 28.75 28.4 27.5 28.15 26.45 27.9 23.6 26.95 23.3 26.85 22.8 26.6 22.1 26.35 25.25 22.1 28.6 23.3 29.5 23.1 32.95 23.95 33.6 24.1 34.65 25.05 35.5 28.55 M34.65 25.05 L38.85 24.5 39.25 24.9 39.2 24.9 38.95 26.25 M13.45 16.75 L13.7 16.2 M28.45 23.8 L27.5 28.15 M28.6 23.3 L28.45 23.8 M24.7 21.3 L25.25 22.1 M24.7 21.3 L21.3 19.7 20.95 19.5 19.65 19.45 15.7 22.1 16.45 22.8 16.85 23.1 18.5 24.4 21.0 25.85 22.1 26.35 M19.35 18.85 L19.65 19.45 M19.35 18.85 L18.5 17.05 Q17.25 16.95 16.4 17.45 15.9 17.8 15.55 18.3 L15.15 20.2 15.15 21.0 15.55 21.8 15.7 22.1 M15.15 21.0 L15.05 20.25 15.0 19.8" fill="none" stroke="#000000" stroke-linecap="round" stroke-linejoin="round" stroke-opacity="0.3019608" stroke-width="0.30000000000000004"/>
      <path d="M11.55 40.0 L13.6 29.45 13.95 28.1 Q14.05 27.75 14.4 27.55 12.75 33.9 12.2 39.3 12.6 39.05 13.15 38.95 L13.55 38.9 13.8 38.9 Q15.1 38.85 16.45 39.35 17.15 39.35 17.9 38.95 L18.7 38.55 20.7 36.85 21.95 35.4 Q25.2 31.05 22.95 29.7 L24.6 30.5 Q24.8 32.25 22.5 35.35 20.55 38.0 18.65 39.45 18.5 39.55 18.45 39.6 L17.8 40.05 18.25 40.3 Q19.4 41.05 20.05 42.05 L20.15 42.15 20.7 43.55 20.7 43.65 20.55 44.6 20.5 44.6 20.4 44.8 20.25 45.0 20.25 44.95 20.35 44.75 20.4 44.55 Q20.6 43.65 19.85 42.55 19.25 41.55 18.2 40.8 L18.15 40.75 17.6 40.4 17.15 40.15 16.25 39.75 15.75 39.6 13.65 39.25 Q12.0 39.35 11.5 40.3 L11.55 40.05 11.55 40.0" fill="#d0c586" fill-rule="evenodd" stroke="none"/>
      <path d="M20.25 45.0 L20.4 44.8 20.5 44.6 20.55 44.6 20.7 43.65 Q21.3 44.0 23.25 42.55 L27.7 38.85 31.2 35.75 30.95 36.55 24.0 42.55 23.7 42.8 Q22.1 44.15 20.5 44.95 L20.35 45.05 20.2 45.15 20.0 45.25 19.95 45.2 20.25 45.0 M22.95 29.7 Q25.2 31.05 21.95 35.4 L20.7 36.85 18.7 38.55 17.9 38.95 Q17.15 39.35 16.45 39.35 15.1 38.85 13.8 38.9 L13.55 38.9 Q12.75 36.15 13.6 33.05 L14.3 30.75 Q15.25 28.25 17.1 27.5 L17.3 27.5 Q20.15 28.4 22.95 29.7" fill="#bfb072" fill-rule="evenodd" stroke="none"/>
      <path d="M20.25 44.95 L20.25 45.0 20.25 44.95 M20.05 42.05 Q19.4 41.05 18.25 40.3 L17.8 40.05 18.45 39.6 Q18.5 39.55 18.65 39.45 20.55 38.0 22.5 35.35 24.8 32.25 24.6 30.5 26.75 31.6 28.95 32.95 L29.9 33.75 Q30.25 34.75 29.1 36.2 L26.45 38.95 Q22.75 41.75 20.05 42.05 M13.55 38.9 L13.15 38.95 Q12.6 39.05 12.2 39.3 12.75 33.9 14.4 27.55 L15.85 27.35 17.1 27.5 Q15.25 28.25 14.3 30.75 L13.6 33.05 Q12.75 36.15 13.55 38.9" fill="#a89e64" fill-rule="evenodd" stroke="none"/>
      <path d="M11.5 40.3 Q12.0 39.35 13.65 39.25 L15.75 39.6 Q16.95 41.45 17.0 43.15 L17.0 43.4 16.15 43.3 15.35 41.85 12.4 41.85 13.6 44.05 Q12.6 43.3 12.0 42.35 L11.6 41.65 Q11.3 41.0 11.45 40.4 L11.45 40.35 11.5 40.3 M18.2 40.8 Q19.25 41.55 19.85 42.55 20.6 43.65 20.4 44.55 L20.35 44.75 19.45 43.55 18.75 43.5 18.65 43.1 Q18.25 41.85 18.2 40.8 M20.7 43.65 L20.7 43.55 20.15 42.15 20.05 42.05 Q22.75 41.75 26.45 38.95 L29.1 36.2 Q30.25 34.75 29.9 33.75 L30.95 35.0 31.2 35.75 27.7 38.85 23.25 42.55 Q21.3 44.0 20.7 43.65" fill="#696141" fill-rule="evenodd" stroke="none"/>
      <path d="M15.75 39.6 L16.25 39.75 17.15 40.15 17.6 40.4 18.15 40.75 18.2 40.8 Q18.25 41.85 18.65 43.1 L18.75 43.5 19.45 43.55 20.35 44.75 20.25 44.95 20.25 45.0 19.95 45.2 19.95 45.25 19.55 45.45 19.35 45.55 19.05 45.6 18.3 45.65 16.5 45.45 14.75 44.75 13.6 44.05 12.4 41.85 15.35 41.85 16.15 43.3 17.0 43.4 17.0 43.15 Q16.95 41.45 15.75 39.6" fill="#49432e" fill-rule="evenodd" stroke="none"/>
      <path d="M14.4 27.55 Q14.05 27.75 13.95 28.1 L13.6 29.45 11.55 40.0 11.5 40.3 11.45 40.35 11.45 40.4 Q11.3 41.0 11.6 41.65 L12.0 42.35 Q12.6 43.3 13.6 44.05 L14.75 44.75 16.5 45.45 18.3 45.65 19.05 45.6 19.35 45.55 19.55 45.45 19.95 45.25 19.95 45.2 M11.55 40.05 L11.5 40.3 M24.6 30.5 L22.95 29.7 Q20.15 28.4 17.3 27.5 L17.1 27.5 15.85 27.35 14.4 27.55 M29.9 33.75 L28.95 32.95 Q26.75 31.6 24.6 30.5 M20.0 45.25 L20.2 45.15 20.35 45.05 20.5 44.95 Q22.1 44.15 23.7 42.8 L24.0 42.55 30.95 36.55 31.2 35.75 30.95 35.0 29.9 33.75 M20.0 45.25 L19.95 45.25 19.35 45.55" fill="none" stroke="#000000" stroke-linecap="round" stroke-linejoin="round" stroke-opacity="0.3019608" stroke-width="0.30000000000000004"/>
      <path d="M13.75 47.05 L13.75 47.0 16.25 42.7 16.35 42.6 16.35 42.55 Q16.45 42.4 16.6 42.35 L14.25 46.75 14.45 46.75 14.9 46.8 Q15.5 46.65 16.15 45.9 L17.4 44.1 Q18.0 42.7 17.5 42.3 L18.1 42.45 17.85 43.6 16.35 46.2 15.55 47.1 16.15 47.75 Q16.3 48.1 16.05 48.4 L16.05 48.45 16.0 47.8 15.35 47.2 14.4 46.9 13.75 47.05" fill="#d0c586" fill-rule="evenodd" stroke="none"/>
      <path d="M19.4 43.6 Q19.65 44.0 19.35 44.35 L19.35 44.4 16.05 48.4 Q16.3 48.1 16.15 47.75 18.0 45.85 19.4 43.6 M16.6 42.35 L17.25 42.25 17.5 42.3 Q18.0 42.7 17.4 44.1 L16.15 45.9 Q15.5 46.65 14.9 46.8 L14.45 46.75 14.25 46.75 16.6 42.35" fill="#bfb072" fill-rule="evenodd" stroke="none"/>
      <path d="M18.1 42.45 L18.3 42.5 18.35 42.55 18.5 42.65 Q19.2 43.0 19.4 43.5 L19.4 43.6 Q18.0 45.85 16.15 47.75 L15.55 47.1 16.35 46.2 17.85 43.6 18.1 42.45" fill="#a89e64" fill-rule="evenodd" stroke="none"/>
      <path d="M16.05 48.45 L15.85 48.6 15.65 48.65 15.55 48.7 15.35 48.7 14.3 48.4 13.65 47.75 13.65 47.5 13.65 47.1 13.7 47.05 13.75 47.05 14.4 46.9 15.35 47.2 16.0 47.8 16.05 48.45" fill="#696141" fill-rule="evenodd" stroke="none"/>
      <path d="M18.1 42.45 L18.3 42.5 18.35 42.55 18.5 42.65 Q19.2 43.0 19.4 43.5 L19.4 43.6 Q19.65 44.0 19.35 44.35 L19.35 44.4 16.05 48.4 16.05 48.45 15.85 48.6 15.65 48.65 15.55 48.7 15.35 48.7 14.3 48.4 13.65 47.75 13.65 47.5 13.65 47.1 13.7 47.05 13.75 47.05 13.75 47.0 16.25 42.7 16.35 42.6 16.35 42.55 Q16.45 42.4 16.6 42.35 L17.25 42.25 17.5 42.3 18.1 42.45 M16.05 48.4 L16.05 48.45" fill="none" stroke="#000000" stroke-linecap="round" stroke-linejoin="round" stroke-opacity="0.3019608" stroke-width="0.30000000000000004"/>
      <path d="M12.9 46.85 L12.9 46.9 12.75 46.2 12.05 45.55 11.1 45.3 10.5 45.45 10.5 45.4 12.15 40.8 12.2 40.65 12.2 40.6 12.4 40.4 10.9 45.1 11.1 45.1 11.55 45.15 12.6 44.15 13.5 42.25 Q13.8 40.8 13.3 40.3 L13.85 40.5 13.8 41.7 12.8 44.5 12.2 45.45 12.85 46.1 Q13.05 46.5 12.9 46.8 L12.9 46.85" fill="#d0c586" fill-rule="evenodd" stroke="none"/>
      <path d="M15.3 41.65 Q15.55 42.1 15.35 42.45 L15.35 42.5 12.9 46.8 Q13.05 46.5 12.85 46.1 14.3 44.1 15.3 41.65 M12.4 40.4 L13.0 40.3 13.3 40.3 Q13.8 40.8 13.5 42.25 L12.6 44.15 11.55 45.15 11.1 45.1 10.9 45.1 12.4 40.4" fill="#bfb072" fill-rule="evenodd" stroke="none"/>
      <path d="M13.85 40.5 L14.05 40.55 14.15 40.6 14.25 40.7 Q14.95 41.05 15.25 41.55 L15.3 41.65 Q14.3 44.1 12.85 46.1 L12.2 45.45 12.8 44.5 13.8 41.7 13.85 40.5" fill="#a89e64" fill-rule="evenodd" stroke="none"/>
      <path d="M12.9 46.9 L12.7 47.0 12.55 47.1 12.45 47.15 12.25 47.15 11.25 46.85 10.5 46.15 10.45 45.9 10.4 45.5 10.45 45.4 10.5 45.45 11.1 45.3 12.05 45.55 12.75 46.2 12.9 46.9" fill="#696141" fill-rule="evenodd" stroke="none"/>
      <path d="M15.3 41.65 Q15.55 42.1 15.35 42.45 L15.35 42.5 12.9 46.8 12.9 46.85 12.9 46.9 12.7 47.0 12.55 47.1 12.45 47.15 12.25 47.15 11.25 46.85 10.5 46.15 10.45 45.9 10.4 45.5 10.45 45.4 10.5 45.45 10.5 45.4 12.15 40.8 12.2 40.65 12.2 40.6 12.4 40.4 13.0 40.3 13.3 40.3 13.85 40.5 14.05 40.55 14.15 40.6 14.25 40.7 Q14.95 41.05 15.25 41.55 L15.3 41.65 M12.9 46.8 L12.9 46.85" fill="none" stroke="#000000" stroke-linecap="round" stroke-linejoin="round" stroke-opacity="0.3019608" stroke-width="0.30000000000000004"/>
      <path d="M28.35 38.5 L27.5 39.05 26.7 38.95 Q26.4 38.75 26.45 38.3 26.45 37.85 26.85 37.45 L27.7 36.95 28.5 37.0 Q28.8 37.2 28.75 37.65 L28.35 38.5" fill="#000000" fill-opacity="0.3019608" fill-rule="evenodd" stroke="none"/>
      <path d="M32.7 42.05 L31.25 41.2 31.15 41.15 30.35 41.9 30.55 42.65 29.65 42.6 29.6 42.55 29.9 41.15 26.65 38.1 Q26.75 37.7 27.25 37.3 L27.5 37.15 30.3 40.8 32.0 40.7 32.15 40.75 32.75 41.65 32.7 42.05" fill="#cac960" fill-rule="evenodd" stroke="none"/>
      <path d="M28.1 37.1 L30.45 40.5 32.15 40.5 32.2 40.55 32.75 41.55 32.75 41.65 32.15 40.75 32.0 40.7 30.3 40.8 27.5 37.15 28.1 37.1" fill="#ffffff" fill-rule="evenodd" stroke="none"/>
      <path d="M30.55 42.65 L30.35 41.9 31.15 41.15 31.25 41.2 32.7 42.05 31.3 41.3 30.5 42.05 30.85 43.75 30.85 43.8 Q29.65 43.8 29.35 42.55 L29.65 41.25 26.75 38.55 26.65 38.1 29.9 41.15 29.6 42.55 29.65 42.6 30.05 43.3 30.65 43.5 30.55 42.65 M28.1 37.1 L28.7 37.4 30.65 40.3 32.3 40.25 Q32.85 40.85 32.75 41.55 L32.2 40.55 32.15 40.5 30.45 40.5 28.1 37.1" fill="#e6e4b3" fill-rule="evenodd" stroke="none"/>
      <path d="M30.55 42.65 L30.65 43.5 30.05 43.3 29.65 42.6 30.55 42.65" fill="#b9b93e" fill-rule="evenodd" stroke="none"/>
      <path d="M30.85 43.75 L30.5 42.05 31.3 41.3 32.7 42.05 31.35 41.8 30.85 42.3 30.85 43.75" fill="#5f5a3a" fill-rule="evenodd" stroke="none"/>
      <path d="M26.65 38.1 L26.75 38.55 29.65 41.25 29.35 42.55 Q29.65 43.8 30.85 43.8 L30.85 43.75 30.85 42.3 31.35 41.8 32.7 42.05 32.75 41.65 32.75 41.55 Q32.85 40.85 32.3 40.25 L30.65 40.3 28.7 37.4 28.1 37.1 27.5 37.15 27.25 37.3 Q26.75 37.7 26.65 38.1 Z" fill="none" stroke="#000000" stroke-linecap="round" stroke-linejoin="round" stroke-opacity="0.3019608" stroke-width="0.30000000000000004"/>
      <path d="M23.6 42.15 L22.8 41.9 Q22.55 41.6 22.7 41.2 22.85 40.75 23.35 40.45 L24.3 40.15 Q24.8 40.15 25.05 40.45 25.3 40.75 25.15 41.15 L24.55 41.85 23.6 42.15" fill="#000000" fill-opacity="0.3019608" fill-rule="evenodd" stroke="none"/>
      <path d="M27.8 46.4 L26.65 45.2 26.55 45.15 25.6 45.65 25.55 46.4 Q25.05 47.0 24.7 46.15 L24.7 46.1 25.35 44.85 23.0 41.05 Q23.2 40.65 23.75 40.4 L24.1 40.35 25.8 44.6 27.5 44.95 27.65 45.0 27.95 46.05 27.8 46.4" fill="#cac960" fill-rule="evenodd" stroke="none"/>
      <path d="M24.1 40.35 L24.7 40.4 26.05 44.35 27.65 44.75 27.75 44.85 28.05 45.95 27.95 46.05 27.65 45.0 27.5 44.95 25.8 44.6 24.1 40.35" fill="#ffffff" fill-rule="evenodd" stroke="none"/>
      <path d="M25.6 47.6 Q24.45 47.3 24.45 46.0 L25.05 44.8 23.0 41.5 23.0 41.05 25.35 44.85 24.7 46.1 24.7 46.15 Q24.6 46.35 24.95 46.95 L25.45 47.3 25.55 46.4 25.6 45.65 26.55 45.15 26.65 45.2 27.8 46.4 26.65 45.3 25.7 45.85 25.6 47.6 M24.7 40.4 L25.15 40.9 26.3 44.15 27.9 44.55 27.9 44.6 Q28.25 45.3 28.05 45.95 L27.75 44.85 27.65 44.75 26.05 44.35 24.7 40.4" fill="#e6e4b3" fill-rule="evenodd" stroke="none"/>
      <path d="M25.55 46.4 L25.45 47.3 24.95 46.95 Q24.6 46.35 24.7 46.15 25.05 47.0 25.55 46.4" fill="#b9b93e" fill-rule="evenodd" stroke="none"/>
      <path d="M25.6 47.6 L25.7 45.85 26.65 45.3 27.8 46.4 26.55 45.85 25.95 46.15 25.6 47.6" fill="#5f5a3a" fill-rule="evenodd" stroke="none"/>
      <path d="M23.0 41.05 L23.0 41.5 25.05 44.8 24.45 46.0 Q24.45 47.3 25.6 47.6 L25.95 46.15 26.55 45.85 27.8 46.4 27.95 46.05 28.05 45.95 Q28.25 45.3 27.9 44.6 L27.9 44.55 26.3 44.15 25.15 40.9 24.7 40.4 24.1 40.35 23.75 40.4 Q23.2 40.65 23.0 41.05 Z" fill="none" stroke="#000000" stroke-linecap="round" stroke-linejoin="round" stroke-opacity="0.3019608" stroke-width="0.30000000000000004"/>
    </g>
    <g id="sprite1" transform="matrix(1.0, 0.0, 0.0, 1.0, 0.0, 0.0)">
      <use height="26.7" transform="matrix(0.0042, -1.3515, 1.3935, 0.02, 22.09, 56.0263)" width="26.7" xlink:href="#sprite2"/>
      <use height="26.7" transform="matrix(0.0095, -3.0486, 0.372, 0.0053, 36.507, 81.3775)" width="26.7" xlink:href="#sprite2"/>
      <use height="26.7" transform="matrix(3.0486, 0.0095, -0.0053, 0.372, 0.1225, 35.107)" width="26.7" xlink:href="#sprite2"/>
    </g>
    <g id="sprite2" transform="matrix(1.0, 0.0, 0.0, 1.0, 13.35, 13.35)">
      <use height="26.7" transform="matrix(1.0, 0.0, 0.0, 1.0, -13.35, -13.35)" width="26.7" xlink:href="#shape1"/>
    </g>
    <g id="shape1" transform="matrix(1.0, 0.0, 0.0, 1.0, 13.35, 13.35)">
      <path d="M9.3 -9.85 Q13.35 -5.8 13.35 0.0 13.35 5.8 9.3 9.3 5.8 13.35 0.0 13.35 -5.8 13.35 -9.85 9.3 -13.35 5.8 -13.35 0.0 -13.35 -5.8 -9.85 -9.85 -5.8 -13.35 0.0 -13.35 5.8 -13.35 9.3 -9.85" fill="url(#gradient0)" fill-rule="evenodd" stroke="none"/>
    </g>
    <radialGradient cx="0" cy="0" gradientTransform="matrix(0.0213, 0.0, 0.0, 0.0213, 0.0, 0.0)" gradientUnits="userSpaceOnUse" id="gradient0" r="819.2" spreadMethod="pad">
      <stop offset="0.19607843137254902" stop-color="#fee3bc" stop-opacity="0.28627452"/>
      <stop offset="0.5019607843137255" stop-color="#fee3bc" stop-opacity="0.043137256"/>
      <stop offset="0.7607843137254902" stop-color="#ffe3bd" stop-opacity="0.0"/>
    </radialGradient>
    <g id="sprite3" transform="matrix(1.0, 0.0, 0.0, 1.0, 13.35, 13.35)">
      <use height="184.45" transform="matrix(1.0, 0.0, 0.0, 1.0, -13.95, -13.95)" width="100.7" xlink:href="#shape2"/>
    </g>
    <g id="shape2" transform="matrix(1.0, 0.0, 0.0, 1.0, 13.95, 13.95)">
      <path d="M67.1 47.3 Q60.05 84.7 45.15 118.0 L67.1 47.3" fill="#000000" fill-opacity="0.05490196" fill-rule="evenodd" stroke="none"/>
      <path d="M72.8 0.4 Q71.4 24.6 67.1 47.3 60.05 84.7 45.15 118.0 L45.0 118.3 Q39.4 130.85 24.25 156.55 M43.75 69.05 Q26.65 113.65 20.4 117.6 17.55 109.85 28.1 81.45 38.25 56.05 47.2 54.0 48.65 56.75 43.75 69.05 M48.0 24.8 Q34.25 59.6 13.6 90.6 7.15 100.3 0.0 109.6 M66.8 0.0 Q53.65 80.05 13.6 143.35 L12.4 145.2 M67.1 47.3 L45.15 118.0" fill="none" stroke="#000000" stroke-linecap="round" stroke-linejoin="round" stroke-opacity="0.08627451" stroke-width="0.30000000000000004"/>
    </g>
  </defs>
</svg>
