<?xml version="1.0" encoding="UTF-8" standalone="no"?>
<svg xmlns:xlink="http://www.w3.org/1999/xlink" height="52.0px" width="52.0px" xmlns="http://www.w3.org/2000/svg">
  <g transform="matrix(1.0, 0.0, 0.0, 1.0, 0.0, 0.0)">
    <use height="54.0" transform="matrix(1.0, 0.0, 0.0, 1.0, -1.0, -1.0)" width="54.0" xlink:href="#shape0"/>
    <use height="0.0" transform="matrix(0.0706, 0.0151, -0.0549, 0.1323, 36.6, 21.45)" width="0.0" xlink:href="#sprite0"/>
    <use height="0.0" transform="matrix(0.0256, -0.0866, 0.0259, 0.0092, 19.8, 32.25)" width="0.0" xlink:href="#sprite0"/>
    <use height="0.0" transform="matrix(0.0181, -0.0893, 0.0259, 0.0092, 26.3, 33.55)" width="0.0" xlink:href="#sprite0"/>
    <use height="0.0" transform="matrix(0.0414, -0.0801, 0.023, 0.0153, 13.95, 29.8)" width="0.0" xlink:href="#sprite0"/>
    <use height="0.0" transform="matrix(-0.003, -0.0433, 0.0679, 0.006, 36.8, 34.2)" width="0.0" xlink:href="#sprite0"/>
    <use height="0.0" transform="matrix(0.0244, 0.0022, -0.0196, 0.0434, 32.55, 19.05)" width="0.0" xlink:href="#sprite0"/>
    <use height="81.5" transform="matrix(0.1609, 0.0198, -0.0096, 0.157, 28.05, 10.9)" width="81.5" xlink:href="#sprite1"/>
  </g>
  <defs>
    <g id="shape0" transform="matrix(1.0, 0.0, 0.0, 1.0, 1.0, 1.0)">
      <path d="M52.0 0.0 L52.0 52.0 0.0 52.0 0.0 0.0 52.0 0.0" fill="#795fa9" fill-opacity="0.0" fill-rule="evenodd" stroke="none"/>
      <path d="M17.35 15.7 Q16.05 18.35 15.7 21.3 L14.95 21.05 13.75 20.9 11.0 23.2 10.0 25.75 7.2 28.4 6.65 30.6 7.8 31.8 8.5 31.75 8.65 33.25 10.2 32.75 9.2 36.05 9.7 37.0 11.4 37.2 14.1 36.7 15.15 35.45 14.7 39.95 Q14.25 44.05 15.35 45.95 L17.25 45.85 19.35 44.45 23.1 45.2 23.2 48.5 25.6 48.0 Q27.7 47.2 29.5 44.9 L29.85 44.35 30.6 43.55 31.5 41.35 33.8 38.4 33.9 37.6 35.05 37.7 36.8 38.25 37.35 39.4 37.4 40.2 37.25 42.6 38.5 43.05 42.1 40.3 43.95 34.45 43.8 29.75 42.5 29.2 41.4 29.05 40.2 29.55 Q38.95 30.3 37.65 31.1 L36.55 30.95 34.5 32.05 34.6 31.1 35.05 31.0 39.0 28.8 41.7 26.3 42.65 23.95 Q43.3 21.95 43.5 19.75 L42.65 16.85 42.0 15.65 40.85 14.15 40.1 13.75 39.85 12.9 41.55 10.4 43.65 10.4 Q44.45 7.0 42.6 4.2 L38.65 3.7 33.7 4.5 30.75 6.8 29.05 9.5 27.75 9.4 24.55 9.7 Q20.15 11.3 17.4 15.65 L17.35 15.7 Z" fill="none" stroke="#000000" stroke-linecap="round" stroke-linejoin="round" stroke-opacity="0.3019608" stroke-width="1.0"/>
      <path d="M13.75 20.9 L14.6 22.4 14.7 23.3 13.65 21.7 11.3 23.4 9.4 28.2 8.75 31.55 8.7 32.25 11.0 29.05 10.0 31.1 8.65 33.25 8.45 31.6 9.15 28.05 10.95 23.2 13.75 20.9" fill="#d7f16b" fill-rule="evenodd" stroke="none"/>
      <path d="M14.6 22.4 L13.75 20.9 14.95 21.05 14.6 22.4" fill="#9ae17b" fill-rule="evenodd" stroke="none"/>
      <path d="M11.0 29.05 L8.7 32.25 8.75 31.55 9.4 28.2 11.3 23.4 13.65 21.7 14.7 23.3 14.8 24.15 11.0 29.05" fill="#75d74a" fill-rule="evenodd" stroke="none"/>
      <path d="M10.0 31.1 L11.0 29.05 14.8 24.15 14.9 24.95 15.9 24.25 11.45 31.3 10.0 31.1" fill="#246c41" fill-rule="evenodd" stroke="none"/>
      <path d="M8.65 33.25 L10.0 31.1 11.45 31.3 10.2 32.75 8.65 33.25 M14.7 23.3 L14.6 22.4 14.95 21.05 16.35 21.5 15.9 24.25 14.9 24.95 14.8 24.15 14.7 23.3" fill="#206039" fill-rule="evenodd" stroke="none"/>
      <path d="M14.6 22.4 L13.75 20.9 10.95 23.2 9.15 28.05 8.45 31.6 8.65 33.25 10.0 31.1 11.45 31.3 10.2 32.75 8.65 33.25 M14.7 23.3 L14.6 22.4 14.95 21.05 13.75 20.9 M14.95 21.05 L16.35 21.5 15.9 24.25 11.45 31.3 M14.8 24.15 L14.9 24.95 15.9 24.25 M14.7 23.3 L14.8 24.15" fill="none" stroke="#000000" stroke-linecap="round" stroke-linejoin="round" stroke-opacity="0.3019608" stroke-width="0.30000000000000004"/>
      <path d="M20.75 44.75 L19.35 44.45 17.3 43.45 16.9 43.9 15.35 45.95 Q14.25 44.0 14.7 39.95 L15.0 37.15 16.0 36.5 18.35 32.85 16.1 37.2 15.4 37.5 14.8 42.75 Q14.95 44.7 15.4 45.3 L16.6 43.1 15.8 42.15 19.3 44.1 20.5 44.25 23.25 41.45 24.2 39.25 22.6 40.65 25.55 37.15 23.65 41.55 20.75 44.75 M21.55 32.65 L19.3 38.25 20.5 40.85 22.0 40.7 20.15 41.1 18.95 38.45 18.95 37.95 21.55 32.65 M30.55 39.2 L31.95 39.4 29.45 42.15 30.55 39.2" fill="#d7f16b" fill-rule="evenodd" stroke="none"/>
      <path d="M23.2 48.45 L23.1 45.2 23.65 45.25 23.5 47.85 26.05 46.3 29.15 41.75 29.3 41.1 30.9 34.5 30.55 39.2 29.45 42.15 28.3 43.8 28.75 43.85 26.55 46.3 Q24.95 47.95 23.2 48.45 M18.35 32.85 L18.95 31.95 21.55 32.65 18.95 37.95 18.95 38.45 20.15 41.1 22.0 40.7 22.6 40.65 24.2 39.25 23.25 41.45 20.5 44.25 19.3 44.1 15.8 42.15 16.6 43.1 15.4 45.3 Q14.95 44.7 14.8 42.75 L15.4 37.5 16.1 37.2 18.35 32.85" fill="#9ae17b" fill-rule="evenodd" stroke="none"/>
      <path d="M23.1 45.2 L20.75 44.75 23.65 41.55 25.55 37.15 26.85 35.65 26.1 39.65 26.85 42.05 28.0 42.2 29.3 41.1 29.15 41.75 26.05 46.3 23.5 47.85 23.65 45.25 23.1 45.2" fill="#75d74a" fill-rule="evenodd" stroke="none"/>
      <path d="M29.8 44.35 L29.45 44.9 Q27.7 47.2 25.55 48.0 L23.2 48.45 Q24.95 47.95 26.55 46.3 L29.8 44.35" fill="#339328" fill-rule="evenodd" stroke="none"/>
      <path d="M18.8 25.6 L31.2 29.75 30.9 34.3 30.9 34.5 29.3 41.1 28.0 42.2 26.85 42.05 26.1 39.65 26.85 35.65 25.55 37.15 22.6 40.65 22.0 40.7 20.5 40.85 19.3 38.25 21.55 32.65 18.95 31.95 18.35 32.85 16.0 36.5 15.0 37.15 15.2 35.1 16.35 29.4 18.8 25.65 18.8 25.6 M33.8 38.4 L31.5 41.35 28.3 43.8 29.45 42.15 31.95 39.4 33.8 38.4 M30.6 43.55 L29.8 44.35 26.55 46.3 28.75 43.85 30.6 43.55 M18.05 45.3 L17.25 45.8 15.35 45.95 16.9 43.9 18.05 45.3" fill="#246c41" fill-rule="evenodd" stroke="none"/>
      <path d="M31.2 29.75 L34.75 29.7 33.8 38.4 31.95 39.4 30.55 39.2 30.9 34.5 30.9 34.3 31.2 29.75 M31.5 41.35 L30.6 43.55 28.75 43.85 28.3 43.8 31.5 41.35 M19.35 44.45 L18.05 45.3 16.9 43.9 17.3 43.45 19.35 44.45" fill="#206039" fill-rule="evenodd" stroke="none"/>
      <path d="M18.9 25.45 L18.8 25.6 31.2 29.75 34.75 29.7 33.8 38.4 31.5 41.35 30.6 43.55 29.8 44.35 29.45 44.9 Q27.7 47.2 25.55 48.0 L23.2 48.45 23.1 45.2 20.75 44.75 19.35 44.45 18.05 45.3 17.25 45.8 15.35 45.95 Q14.25 44.0 14.7 39.95 L15.0 37.15 15.2 35.1 16.35 29.4 18.8 25.65 18.8 25.6 M30.9 34.3 L31.2 29.75 M30.55 39.2 L31.95 39.4 33.8 38.4 M30.55 39.2 L30.9 34.5 M17.3 43.45 L19.35 44.45" fill="none" stroke="#000000" stroke-linecap="round" stroke-linejoin="round" stroke-opacity="0.3019608" stroke-width="0.30000000000000004"/>
      <path d="M15.6 22.05 Q15.9 18.7 17.35 15.7 L17.4 15.65 Q20.15 11.3 24.5 9.65 L27.75 9.45 29.05 9.45 28.9 9.75 26.0 10.05 22.7 11.3 Q19.35 13.8 17.5 17.1 L16.55 21.4 15.65 22.1 16.55 21.4 20.75 20.35 16.9 21.65 15.05 23.25 11.9 25.1 10.5 27.05 7.2 28.4 10.8 25.0 14.6 23.0 15.65 22.1 15.6 22.05 M30.5 7.2 L30.75 6.8 31.05 6.8 31.15 6.85 32.65 6.8 31.15 6.85 35.6 5.3 34.4 4.65 33.65 4.45 34.85 4.3 36.7 4.95 41.75 4.1 42.55 4.2 37.1 5.3 36.95 5.4 36.9 5.4 34.8 6.05 32.65 6.8 32.55 7.9 29.6 10.85 31.6 8.25 32.05 7.35 31.3 7.25 30.5 7.2 M16.0 39.0 L16.1 37.3 16.7 38.9 17.15 39.3 18.65 38.85 20.9 35.15 22.75 28.6 21.45 35.2 22.0 38.55 21.0 35.9 18.95 39.15 17.15 39.8 16.0 39.0 M16.1 24.75 L17.05 23.7 18.05 22.2 21.65 20.1 21.7 20.1 23.65 19.65 30.45 15.2 32.15 11.3 29.05 12.3 Q30.05 11.75 31.0 11.3 L32.25 10.85 32.8 10.65 35.45 11.95 38.4 16.0 38.65 18.9 38.65 18.95 38.3 21.0 36.3 24.15 32.8 27.65 29.05 29.6 28.35 27.55 29.2 28.7 32.4 27.25 36.2 23.8 36.85 22.35 37.6 18.35 37.15 15.9 36.45 16.15 34.75 16.75 33.75 17.15 Q29.25 19.15 24.45 22.65 L20.85 26.2 20.1 27.75 18.3 26.85 18.8 24.75 17.5 25.5 18.1 23.25 10.15 33.95 11.1 31.2 14.35 26.8 16.1 24.75 M36.9 5.4 L34.4 4.65 36.9 5.4" fill="#d7f16b" fill-rule="evenodd" stroke="none"/>
      <path d="M16.55 21.4 L17.5 17.1 Q19.35 13.8 22.7 11.3 L26.0 10.05 28.9 9.75 29.05 9.45 30.5 7.2 31.3 7.25 27.9 12.6 26.85 13.65 Q27.95 12.9 29.05 12.3 L32.15 11.3 30.45 15.2 23.65 19.65 21.7 20.1 21.65 20.1 20.75 20.35 16.55 21.4 M30.75 6.8 L33.65 4.45 34.4 4.65 35.6 5.3 31.15 6.85 31.05 6.8 30.75 6.8 M34.85 4.3 L38.6 3.75 41.75 4.1 36.7 4.95 34.85 4.3 M42.65 16.8 L43.45 19.75 40.75 16.95 42.65 16.8 M25.1 41.6 Q23.95 41.15 23.5 39.5 L23.85 34.35 25.05 30.3 25.3 29.45 25.45 26.7 26.35 24.05 26.85 29.3 25.95 37.1 24.75 39.6 24.0 39.1 24.05 39.45 24.9 40.65 25.85 39.8 27.25 36.35 28.15 30.65 27.85 35.95 28.8 37.65 27.8 36.55 26.15 40.3 25.1 41.6 M16.1 37.3 L17.55 33.25 17.75 35.25 20.8 31.1 23.45 24.85 23.1 26.75 22.75 28.6 20.9 35.15 18.65 38.85 17.15 39.3 16.7 38.9 16.1 37.3 M9.7 37.0 L9.2 36.05 10.6 31.4 10.75 31.0 14.35 26.8 11.1 31.2 10.15 33.95 10.15 34.0 9.65 35.9 9.95 36.35 12.0 35.65 15.8 30.35 17.65 27.35 15.25 31.9 14.9 32.55 12.85 35.65 12.6 36.05 9.7 37.0 M6.6 30.6 L7.2 28.4 10.5 27.05 9.25 30.0 7.7 31.05 6.6 30.6 M32.8 27.65 L36.3 24.15 35.8 27.2 32.8 27.65 M38.65 18.9 L38.4 16.0 35.45 11.95 32.8 10.65 33.35 10.45 35.8 11.55 36.5 12.25 Q38.1 14.0 38.95 16.4 L39.0 16.6 38.65 18.9 M34.8 6.05 L32.55 7.9 32.65 6.8 34.8 6.05 M28.9 9.75 L26.85 13.65 28.9 9.75" fill="#9ae17b" fill-rule="evenodd" stroke="none"/>
      <path d="M40.05 13.75 L40.85 14.15 41.95 15.65 42.65 16.8 40.75 16.95 38.95 16.4 Q38.1 14.0 36.5 12.25 L35.8 11.55 37.25 12.25 40.05 13.75 M41.65 26.3 L39.0 28.8 35.8 27.2 36.3 24.15 38.3 21.0 41.65 26.3 M17.55 33.25 L19.8 28.45 20.1 27.75 20.85 26.2 24.45 22.65 Q29.25 19.15 33.75 17.15 L34.75 16.75 36.45 16.15 37.15 15.9 37.6 18.35 36.85 22.35 36.2 23.8 32.4 27.25 29.2 28.7 28.35 27.55 28.15 30.65 27.25 36.35 25.85 39.8 24.9 40.65 24.05 39.45 24.0 39.1 24.75 39.6 25.95 37.1 26.85 29.3 26.35 24.05 25.45 26.7 24.3 28.2 23.0 28.5 23.1 26.75 23.45 24.85 20.8 31.1 17.75 35.25 17.55 33.25 M18.05 22.2 L16.6 23.55 11.95 28.1 9.25 30.0 10.5 27.05 11.9 25.1 15.05 23.25 16.9 21.65 20.75 20.35 21.65 20.1 18.05 22.2 M10.15 33.95 L18.1 23.25 17.5 25.5 18.8 24.75 17.65 27.35 15.8 30.35 12.0 35.65 9.95 36.35 9.65 35.9 10.15 34.0 10.15 33.95 M12.6 36.05 L12.85 35.65 13.6 36.5 12.6 36.05 M14.9 32.55 L15.25 31.9 16.15 34.3 14.9 32.55 M29.6 10.85 L27.9 12.6 31.3 7.25 32.05 7.35 31.6 8.25 29.6 10.85" fill="#75d74a" fill-rule="evenodd" stroke="none"/>
      <path d="M42.55 4.2 Q44.45 7.0 43.65 10.4 L39.9 8.5 37.8 6.3 36.95 5.4 37.1 5.3 42.55 4.2 M27.95 40.65 L27.75 40.75 26.85 41.25 25.95 41.55 25.1 41.6 26.15 40.3 27.95 40.65 M18.85 40.6 L17.9 40.65 17.15 39.8 18.95 39.15 18.85 40.6 M17.05 23.7 L16.1 24.75 16.6 23.55 18.05 22.2 17.05 23.7 M23.0 28.9 L23.0 28.5 24.3 28.2 25.45 26.7 25.3 29.45 23.0 28.9" fill="#339328" fill-rule="evenodd" stroke="none"/>
      <path d="M43.65 10.4 L41.5 10.4 39.9 8.5 43.65 10.4 M43.45 19.75 Q43.25 21.95 42.65 23.95 L41.65 26.3 38.3 21.0 38.65 18.95 38.65 18.9 39.0 16.6 38.95 16.4 40.75 16.95 43.45 19.75 M39.0 28.8 L35.05 31.0 31.85 31.5 29.9 31.45 29.95 31.0 29.05 29.6 32.8 27.65 35.8 27.2 39.0 28.8 M29.1 37.95 L27.95 40.65 26.15 40.3 27.8 36.55 28.8 37.65 29.1 37.95 M25.05 30.3 L24.1 30.2 23.7 30.2 23.25 29.6 23.0 28.9 25.3 29.45 25.05 30.3 M22.0 38.55 L18.85 40.6 18.95 39.15 21.0 35.9 22.0 38.55 M17.9 40.65 L16.95 40.65 16.0 39.0 17.15 39.8 17.9 40.65 M19.8 28.45 L18.9 28.1 18.3 26.85 20.1 27.75 19.8 28.45 M14.05 36.7 L11.35 37.2 9.7 37.0 12.6 36.05 13.6 36.5 14.05 36.7 M8.65 31.75 L7.75 31.8 6.6 30.6 7.7 31.05 8.65 31.75 M32.8 10.65 L32.25 10.85 31.0 11.3 Q30.05 11.75 29.05 12.3 27.95 12.9 26.85 13.65 L27.9 12.6 29.6 10.85 32.55 7.9 34.8 6.05 36.9 5.4 36.95 5.4 37.8 6.3 38.7 9.25 37.25 12.25 35.8 11.55 33.35 10.45 32.8 10.65" fill="#246c41" fill-rule="evenodd" stroke="none"/>
      <path d="M41.5 10.4 L39.85 12.9 40.05 13.75 37.25 12.25 38.7 9.25 37.8 6.3 39.9 8.5 41.5 10.4 M29.9 31.45 L29.1 37.95 28.8 37.65 27.85 35.95 28.15 30.65 28.35 27.55 29.05 29.6 29.95 31.0 29.9 31.45 M24.1 30.2 L22.8 34.85 22.0 38.55 21.45 35.2 22.75 28.6 23.1 26.75 23.0 28.5 23.0 28.9 23.25 29.6 23.7 30.2 24.1 30.2 M18.9 28.1 L16.15 34.3 14.05 36.7 13.6 36.5 12.85 35.65 14.9 32.55 16.15 34.3 15.25 31.9 17.65 27.35 18.8 24.75 18.3 26.85 18.9 28.1 M10.6 31.4 L9.3 31.75 8.65 31.75 7.7 31.05 9.25 30.0 11.95 28.1 16.6 23.55 16.1 24.75 14.35 26.8 10.75 31.0 10.6 31.4" fill="#206039" fill-rule="evenodd" stroke="none"/>
      <path d="M29.05 9.45 L27.75 9.45 24.5 9.65 Q20.15 11.3 17.4 15.65 L17.35 15.7 Q15.9 18.7 15.6 22.05 M15.65 22.1 L16.55 21.4 M28.9 9.75 L29.05 9.45 30.5 7.2 30.75 6.8 33.65 4.45 34.85 4.3 38.6 3.75 41.75 4.1 42.55 4.2 Q44.45 7.0 43.65 10.4 L41.5 10.4 39.85 12.9 40.05 13.75 40.85 14.15 41.95 15.65 42.65 16.8 43.45 19.75 Q43.25 21.95 42.65 23.95 L41.65 26.3 39.0 28.8 35.05 31.0 31.85 31.5 29.9 31.45 29.1 37.95 27.95 40.65 27.75 40.75 26.85 41.25 25.95 41.55 25.1 41.6 Q23.95 41.15 23.5 39.5 L23.85 34.35 25.05 30.3 24.1 30.2 22.8 34.85 22.0 38.55 18.85 40.6 17.9 40.65 16.95 40.65 16.0 39.0 16.1 37.3 17.55 33.25 19.8 28.45 18.9 28.1 16.15 34.3 14.05 36.7 11.35 37.2 9.7 37.0 9.2 36.05 10.6 31.4 9.3 31.75 8.65 31.75 7.75 31.8 6.6 30.6 7.2 28.4 10.8 25.0 14.6 23.0 15.65 22.1 M16.1 24.75 L17.05 23.7 M16.6 23.55 L16.1 24.75 14.35 26.8 10.75 31.0 10.6 31.4 M18.8 24.75 L18.3 26.85 20.1 27.75 20.85 26.2 M28.35 27.55 L29.05 29.6 32.8 27.65 36.3 24.15 38.3 21.0 38.65 18.95 38.65 18.9 39.0 16.6 38.95 16.4 40.75 16.95 42.65 16.8 M32.8 10.65 L32.25 10.85 31.0 11.3 Q30.05 11.75 29.05 12.3 27.95 12.9 26.85 13.65 L28.9 9.75 M19.8 28.45 L20.1 27.75 M18.3 26.85 L18.9 28.1 M43.65 10.4 L39.9 8.5 41.5 10.4 M37.25 12.25 L40.05 13.75 M39.9 8.5 L37.8 6.3 36.95 5.4 36.9 5.4 34.8 6.05 32.55 7.9 29.6 10.85 27.9 12.6 26.85 13.65 M31.05 6.8 L30.75 6.8 M32.65 6.8 L31.15 6.85 M34.4 4.65 L33.65 4.45 M32.55 7.9 L32.65 6.8 34.8 6.05 M34.4 4.65 L36.9 5.4 M36.95 5.4 L37.1 5.3 42.55 4.2 M35.8 11.55 L37.25 12.25 M35.8 11.55 L36.5 12.25 Q38.1 14.0 38.95 16.4 M32.8 10.65 L33.35 10.45 35.8 11.55 M35.8 27.2 L32.8 27.65 M36.3 24.15 L35.8 27.2 39.0 28.8 M28.15 30.65 L28.35 27.55 M23.0 28.5 L23.0 28.9 25.3 29.45 25.45 26.7 M23.0 28.5 L23.1 26.75 22.75 28.6 21.45 35.2 M21.0 35.9 L18.95 39.15 17.15 39.8 16.0 39.0 M23.0 28.9 L23.25 29.6 23.7 30.2 24.1 30.2 M25.05 30.3 L25.3 29.45 M27.85 35.95 L28.15 30.65 M29.9 31.45 L29.95 31.0 29.05 29.6 M38.3 21.0 L41.65 26.3 M40.75 16.95 L43.45 19.75 M26.15 40.3 L25.1 41.6 M27.8 36.55 L26.15 40.3" fill="none" stroke="#000000" stroke-linecap="round" stroke-linejoin="round" stroke-opacity="0.3019608" stroke-width="0.30000000000000004"/>
      <path d="M31.9 37.25 L31.8 35.35 36.55 30.95 32.4 35.4 32.35 36.65 35.35 36.5 36.1 36.7 Q37.15 37.2 37.75 38.4 L37.35 39.4 36.8 38.25 Q36.1 37.3 35.2 37.1 L34.75 37.05 31.9 37.25 M40.2 29.5 L41.4 29.05 42.45 29.2 41.75 31.6 40.65 30.9 41.75 31.6 41.9 33.0 43.9 34.45 41.95 33.85 41.25 36.4 40.95 37.4 Q40.05 39.8 38.8 41.25 L37.2 42.55 37.25 42.1 38.6 40.75 40.15 37.55 41.2 34.1 41.35 31.95 40.65 30.9 40.3 29.75 40.2 29.5 M41.9 33.0 L41.95 33.85 41.9 33.0" fill="#d7f16b" fill-rule="evenodd" stroke="none"/>
      <path d="M36.55 30.95 L37.6 31.1 38.9 35.4 37.75 38.4 38.9 35.4 40.65 30.9 41.35 31.95 41.2 34.1 40.15 37.55 38.6 40.75 37.25 42.1 37.35 40.2 37.35 39.4 37.75 38.4 Q37.15 37.2 36.1 36.7 L35.35 36.5 32.35 36.65 32.4 35.4 36.55 30.95" fill="#9ae17b" fill-rule="evenodd" stroke="none"/>
      <path d="M32.85 37.65 L31.9 37.25 34.75 37.05 32.85 37.65 M31.8 35.35 L32.15 33.25 36.55 30.95 31.8 35.35 M42.45 29.2 L43.75 29.75 43.9 34.45 41.9 33.0 41.75 31.6 42.45 29.2 M38.9 35.4 L37.6 31.1 39.0 34.35 40.25 31.35 40.3 29.75 40.65 30.9 38.9 35.4 M40.8 40.1 L38.8 41.25 Q40.05 39.8 40.95 37.4 L40.8 40.1" fill="#75d74a" fill-rule="evenodd" stroke="none"/>
      <path d="M37.6 31.1 L40.2 29.5 40.3 29.75 40.25 31.35 39.0 34.35 37.6 31.1 M43.9 34.45 L42.2 39.9 41.25 39.25 41.25 36.4 41.95 33.85 43.9 34.45" fill="#339328" fill-rule="evenodd" stroke="none"/>
      <path d="M42.2 39.9 L42.1 40.25 40.8 40.1 40.95 37.4 41.25 36.4 41.25 39.25 42.2 39.9 M36.8 38.25 L35.05 37.7 32.85 37.65 34.75 37.05 35.2 37.1 Q36.1 37.3 36.8 38.25" fill="#246c41" fill-rule="evenodd" stroke="none"/>
      <path d="M42.1 40.25 L38.45 43.05 37.2 42.55 38.8 41.25 40.8 40.1 42.1 40.25" fill="#206039" fill-rule="evenodd" stroke="none"/>
      <path d="M32.85 37.65 L31.9 37.25 31.8 35.35 32.15 33.25 36.55 30.95 37.6 31.1 40.2 29.5 41.4 29.05 42.45 29.2 43.75 29.75 43.9 34.45 42.2 39.9 42.1 40.25 38.45 43.05 37.2 42.55 37.25 42.1 37.35 40.2 37.35 39.4 36.8 38.25 35.05 37.7 32.85 37.65 34.75 37.05 31.9 37.25 M37.75 38.4 L38.9 35.4 37.6 31.1 M40.3 29.75 L40.2 29.5 M36.8 38.25 Q36.1 37.3 35.2 37.1 L34.75 37.05 M31.8 35.35 L36.55 30.95 M41.75 31.6 L42.45 29.2 M40.3 29.75 L40.65 30.9 41.75 31.6 41.9 33.0 41.95 33.85 41.25 36.4 40.95 37.4 Q40.05 39.8 38.8 41.25 L37.2 42.55 M43.9 34.45 L41.95 33.85 M40.65 30.9 L38.9 35.4 M40.8 40.1 L42.1 40.25 M38.8 41.25 L40.8 40.1 40.95 37.4 M37.75 38.4 L37.35 39.4" fill="none" stroke="#000000" stroke-linecap="round" stroke-linejoin="round" stroke-opacity="0.3019608" stroke-width="0.30000000000000004"/>
      <path d="M32.1 17.5 L31.75 17.35 Q31.95 16.1 32.65 16.0 L33.6 16.2 34.95 18.35 33.85 20.45 33.1 20.9 Q32.6 20.75 32.35 19.05 L32.55 18.45 32.1 17.5 M30.0 17.45 L29.4 18.1 Q29.05 18.95 29.3 19.75 L30.15 20.75 30.8 20.7 31.45 22.1 30.8 22.25 Q29.65 22.25 28.55 21.4 27.95 20.55 28.3 18.35 28.6 17.2 29.5 16.6 L30.0 17.45" fill="#a34100" fill-rule="evenodd" stroke="none"/>
      <path d="M31.15 20.65 L30.25 20.55 30.35 19.65 30.35 18.95 30.85 18.0 32.1 17.5 32.55 18.45 32.35 19.05 32.2 19.7 31.15 20.65 M34.95 21.45 L33.95 20.8 34.95 18.35 35.7 19.3 34.95 21.45" fill="#431b01" fill-rule="evenodd" stroke="none"/>
      <path d="M30.15 17.65 L30.65 17.35 30.85 17.35 32.1 17.5 30.85 18.0 30.15 17.65 M30.25 20.55 L29.7 19.9 Q29.55 19.25 29.7 18.65 L30.35 19.65 30.25 20.55 M28.9 22.15 Q29.45 22.45 30.15 22.55 L31.85 22.4 33.8 21.05 34.95 21.45 32.1 22.95 Q30.8 23.3 28.9 22.15 M34.95 18.35 L33.85 15.9 35.05 17.2 35.7 19.3 34.95 18.35" fill="#5c2501" fill-rule="evenodd" stroke="none"/>
      <path d="M29.7 18.65 L29.7 18.6 29.8 18.25 30.15 17.65 30.85 18.0 30.35 18.95 30.35 19.65 29.7 18.65" fill="#7e3301" fill-rule="evenodd" stroke="none"/>
      <path d="M31.75 17.35 L30.5 17.1 30.0 17.45 29.5 16.6 31.0 15.6 32.05 15.9 Q31.65 16.55 31.75 17.35 M30.8 20.7 L31.15 20.65 32.2 19.7 32.7 21.2 31.45 22.1 30.8 20.7" fill="#ca5202" fill-rule="evenodd" stroke="none"/>
      <path d="M32.1 17.5 L30.85 17.35 30.65 17.35 30.15 17.65 29.8 18.25 29.7 18.6 29.7 18.65 Q29.55 19.25 29.7 19.9 L30.25 20.55 31.15 20.65 30.8 20.7 30.15 20.75 29.3 19.75 Q29.05 18.95 29.4 18.1 L30.0 17.45 30.5 17.1 31.75 17.35 32.1 17.5 M32.35 19.05 Q32.6 20.75 33.1 20.9 L33.85 20.45 34.95 18.35 33.6 16.2 32.65 16.0 Q31.95 16.1 31.75 17.35 31.65 16.55 32.05 15.9 L31.0 15.6 29.5 16.6 Q28.6 17.2 28.3 18.35 27.95 20.55 28.55 21.4 29.65 22.25 30.8 22.25 L31.45 22.1 32.7 21.2 32.2 19.7 32.35 19.05 M28.9 22.15 L28.1 21.45 Q27.15 19.4 28.2 17.35 29.45 16.05 30.85 15.25 L33.85 15.9 34.95 18.35 33.95 20.8 34.95 21.45 33.8 21.05 31.85 22.4 30.15 22.55 Q29.45 22.45 28.9 22.15" fill="#ea6004" fill-rule="evenodd" stroke="none"/>
      <path d="M31.15 20.65 L30.25 20.55 30.35 19.65 30.35 18.95 30.85 18.0 32.1 17.5 32.55 18.45 32.35 19.05 32.2 19.7 31.15 20.65 M33.85 15.9 L30.85 15.25 Q29.45 16.05 28.2 17.35 27.15 19.4 28.1 21.45 L28.9 22.15 Q30.8 23.3 32.1 22.95 L34.95 21.45 35.7 19.3 35.05 17.2 33.85 15.9" fill="none" stroke="#000000" stroke-linecap="round" stroke-linejoin="round" stroke-opacity="0.3019608" stroke-width="0.30000000000000004"/>
      <path d="M19.95 14.75 L19.35 15.4 Q18.9 16.2 18.9 17.0 L19.25 17.95 19.8 17.9 19.95 19.25 19.4 19.4 Q18.5 19.45 17.9 18.6 17.65 17.8 18.45 15.65 18.95 14.55 19.8 13.95 L19.95 14.75 M21.55 14.75 L21.3 14.6 Q21.8 13.4 22.35 13.25 L23.0 13.4 23.5 15.5 22.15 17.55 21.5 17.95 Q21.15 17.85 21.35 16.25 L21.65 15.65 21.55 14.75" fill="#a34100" fill-rule="evenodd" stroke="none"/>
      <path d="M20.1 17.85 L19.4 17.75 19.7 16.85 19.9 16.2 20.5 15.25 21.55 14.75 21.65 15.65 21.35 16.25 21.1 16.85 20.1 17.85 M22.75 18.5 L22.15 17.9 23.5 15.5 23.85 16.35 22.75 18.5" fill="#431b01" fill-rule="evenodd" stroke="none"/>
      <path d="M19.8 17.9 L19.25 17.95 18.9 17.0 Q18.9 16.2 19.35 15.4 L19.95 14.75 20.45 14.4 21.3 14.6 21.55 14.75 20.7 14.6 20.5 14.6 20.05 14.95 19.65 15.5 19.45 15.85 19.45 15.9 19.15 17.15 19.4 17.75 20.1 17.85 19.8 17.9 M19.8 13.95 Q18.95 14.55 18.45 15.65 17.65 17.8 17.9 18.6 18.5 19.45 19.4 19.4 L19.95 19.25 21.1 18.35 21.1 16.85 21.35 16.25 Q21.15 17.85 21.5 17.95 L22.15 17.55 23.5 15.5 22.15 17.9 22.75 18.5 22.0 18.15 20.15 19.55 18.85 19.7 18.0 19.35 17.55 18.7 Q17.35 16.7 18.65 14.7 L21.2 12.55 23.3 13.1 23.5 15.5 23.0 13.4 22.35 13.25 Q21.8 13.4 21.3 14.6 21.45 13.8 21.95 13.15 L21.2 12.9 19.8 13.95" fill="#ea6004" fill-rule="evenodd" stroke="none"/>
      <path d="M19.95 14.75 L19.8 13.95 21.2 12.9 21.95 13.15 Q21.45 13.8 21.3 14.6 L20.45 14.4 19.95 14.75 M19.95 19.25 L19.8 17.9 20.1 17.85 21.1 16.85 21.1 18.35 19.95 19.25" fill="#ca5202" fill-rule="evenodd" stroke="none"/>
      <path d="M19.45 15.9 L19.45 15.85 19.65 15.5 20.05 14.95 20.5 15.25 19.9 16.2 19.7 16.85 19.45 15.9 M23.85 16.35 L23.5 15.5 23.3 13.1 23.9 14.4 23.85 16.35" fill="#7e3301" fill-rule="evenodd" stroke="none"/>
      <path d="M19.4 17.75 L19.15 17.15 19.45 15.9 19.7 16.85 19.4 17.75 M20.05 14.95 L20.5 14.6 20.7 14.6 21.55 14.75 20.5 15.25 20.05 14.95 M18.0 19.35 L18.85 19.7 20.15 19.55 22.0 18.15 22.75 18.5 20.25 20.0 Q19.2 20.4 18.0 19.35" fill="#5c2501" fill-rule="evenodd" stroke="none"/>
      <path d="M20.1 17.85 L19.4 17.75 19.7 16.85 19.9 16.2 20.5 15.25 21.55 14.75 21.65 15.65 21.35 16.25 21.1 16.85 20.1 17.85 M23.3 13.1 L21.2 12.55 18.65 14.7 Q17.35 16.7 17.55 18.7 L18.0 19.35 Q19.2 20.4 20.25 20.0 L22.75 18.5 23.85 16.35 23.9 14.4 23.3 13.1" fill="none" stroke="#000000" stroke-linecap="round" stroke-linejoin="round" stroke-opacity="0.3019608" stroke-width="0.30000000000000004"/>
    </g>
    <g id="sprite1" transform="matrix(1.0, 0.0, 0.0, 1.0, 0.0, 0.0)">
      <use height="26.7" transform="matrix(0.0042, -1.3515, 1.3935, 0.02, 22.09, 56.0263)" width="26.7" xlink:href="#sprite2"/>
      <use height="26.7" transform="matrix(0.0095, -3.0486, 0.372, 0.0053, 36.507, 81.3775)" width="26.7" xlink:href="#sprite2"/>
      <use height="26.7" transform="matrix(3.0486, 0.0095, -0.0053, 0.372, 0.1225, 35.107)" width="26.7" xlink:href="#sprite2"/>
    </g>
    <g id="sprite2" transform="matrix(1.0, 0.0, 0.0, 1.0, 13.35, 13.35)">
      <use height="26.7" transform="matrix(1.0, 0.0, 0.0, 1.0, -13.35, -13.35)" width="26.7" xlink:href="#shape1"/>
    </g>
    <g id="shape1" transform="matrix(1.0, 0.0, 0.0, 1.0, 13.35, 13.35)">
      <path d="M9.3 -9.85 Q13.35 -5.8 13.35 0.0 13.35 5.8 9.3 9.3 5.8 13.35 0.0 13.35 -5.8 13.35 -9.85 9.3 -13.35 5.8 -13.35 0.0 -13.35 -5.8 -9.85 -9.85 -5.8 -13.35 0.0 -13.35 5.8 -13.35 9.3 -9.85" fill="url(#gradient0)" fill-rule="evenodd" stroke="none"/>
    </g>
    <radialGradient cx="0" cy="0" gradientTransform="matrix(0.0213, 0.0, 0.0, 0.0213, 0.0, 0.0)" gradientUnits="userSpaceOnUse" id="gradient0" r="819.2" spreadMethod="pad">
      <stop offset="0.19607843137254902" stop-color="#fee3bc" stop-opacity="0.28627452"/>
      <stop offset="0.5019607843137255" stop-color="#fee3bc" stop-opacity="0.043137256"/>
      <stop offset="0.7607843137254902" stop-color="#ffe3bd" stop-opacity="0.0"/>
    </radialGradient>
  </defs>
</svg>
