<?xml version="1.0" encoding="UTF-8" standalone="no"?>
<svg xmlns:xlink="http://www.w3.org/1999/xlink" height="52.0px" width="52.0px" xmlns="http://www.w3.org/2000/svg">
  <g transform="matrix(1.0, 0.0, 0.0, 1.0, 0.0, 0.0)">
    <use height="80.0" transform="matrix(1.0, 0.0, 0.0, 1.0, -14.0, -14.0)" width="80.0" xlink:href="#shape0"/>
    <use height="172.45" transform="matrix(0.1339, -0.0093, 0.0123, 0.0805, 13.6875, 31.4841)" width="88.7" xlink:href="#sprite0"/>
    <use height="172.45" transform="matrix(-0.0962, -0.0992, -0.0587, 0.0528, 23.5809, 28.5687)" width="88.7" xlink:href="#sprite0"/>
    <use height="0.0" transform="matrix(0.0706, 0.0151, -0.0549, 0.1323, 37.05, 21.5)" width="0.0" xlink:href="#sprite1"/>
    <use height="0.0" transform="matrix(0.0256, -0.0866, 0.0259, 0.0092, 20.25, 32.3)" width="0.0" xlink:href="#sprite1"/>
    <use height="0.0" transform="matrix(0.0181, -0.0893, 0.0259, 0.0092, 26.75, 33.6)" width="0.0" xlink:href="#sprite1"/>
    <use height="0.0" transform="matrix(0.0414, -0.0801, 0.023, 0.0153, 14.45, 29.85)" width="0.0" xlink:href="#sprite1"/>
    <use height="0.0" transform="matrix(-0.003, -0.0433, 0.0679, 0.006, 37.25, 34.25)" width="0.0" xlink:href="#sprite1"/>
    <use height="0.0" transform="matrix(0.0244, 0.0022, -0.0196, 0.0434, 32.95, 19.1)" width="0.0" xlink:href="#sprite1"/>
    <use height="0.0" transform="matrix(0.0244, 0.0022, -0.0196, 0.0434, 21.9, 16.2)" width="0.0" xlink:href="#sprite1"/>
    <use height="81.5" transform="matrix(0.1609, 0.0198, -0.0096, 0.157, 28.55, 10.9)" width="81.5" xlink:href="#sprite2"/>
  </g>
  <defs>
    <g id="shape0" transform="matrix(1.0, 0.0, 0.0, 1.0, 14.0, 14.0)">
      <path d="M52.0 0.0 L52.0 52.0 0.0 52.0 0.0 0.0 52.0 0.0" fill="#795fa9" fill-opacity="0.0" fill-rule="evenodd" stroke="none"/>
      <path d="M17.85 15.7 Q16.55 18.35 16.2 21.3 L15.45 21.05 14.25 20.9 11.5 23.2 10.5 25.75 7.7 28.4 7.15 30.6 8.3 31.8 9.0 31.75 9.15 33.25 10.7 32.75 9.7 36.05 10.2 37.0 11.9 37.2 14.6 36.7 15.65 35.45 15.2 39.95 Q14.75 44.05 15.85 45.95 L17.75 45.85 19.85 44.45 23.6 45.2 23.7 48.5 26.1 48.0 Q28.2 47.2 30.0 44.9 L30.35 44.35 31.1 43.55 32.0 41.35 34.3 38.4 34.4 37.6 35.55 37.7 37.3 38.25 37.85 39.4 37.9 40.2 37.75 42.6 39.0 43.05 42.6 40.3 44.45 34.45 44.3 29.75 43.0 29.2 41.9 29.05 40.7 29.55 38.15 31.1 37.05 30.95 35.0 32.05 35.1 31.1 35.55 31.0 39.5 28.8 42.2 26.3 43.15 23.95 Q43.8 21.95 44.0 19.75 L43.15 16.85 42.5 15.65 41.35 14.15 40.6 13.75 40.35 12.9 42.05 10.4 44.15 10.4 Q44.95 7.0 43.1 4.2 L39.15 3.7 34.2 4.5 31.25 6.8 29.55 9.5 28.25 9.4 25.05 9.7 Q20.65 11.3 17.9 15.65 L17.85 15.7 Z" fill="none" stroke="#000000" stroke-linecap="round" stroke-linejoin="round" stroke-opacity="0.3019608" stroke-width="1.0"/>
      <path d="M14.2 20.95 L15.05 22.45 15.15 23.35 14.1 21.75 11.75 23.45 9.85 28.25 9.2 31.6 9.15 32.3 11.45 29.1 10.45 31.15 9.1 33.3 8.9 31.65 9.6 28.1 11.4 23.25 14.2 20.95" fill="#ffff98" fill-rule="evenodd" stroke="none"/>
      <path d="M15.05 22.45 L14.2 20.95 15.4 21.1 15.05 22.45" fill="#ffde4f" fill-rule="evenodd" stroke="none"/>
      <path d="M11.45 29.1 L9.15 32.3 9.2 31.6 9.85 28.25 11.75 23.45 14.1 21.75 15.15 23.35 15.25 24.2 11.45 29.1" fill="#f4a33c" fill-rule="evenodd" stroke="none"/>
      <path d="M10.45 31.15 L11.45 29.1 15.25 24.2 15.35 25.0 16.35 24.3 11.9 31.35 10.45 31.15" fill="#a34100" fill-rule="evenodd" stroke="none"/>
      <path d="M9.1 33.3 L10.45 31.15 11.9 31.35 10.65 32.8 9.1 33.3 M15.15 23.35 L15.05 22.45 15.4 21.1 16.8 21.55 16.35 24.3 15.35 25.0 15.25 24.2 15.15 23.35" fill="#431b01" fill-rule="evenodd" stroke="none"/>
      <path d="M15.05 22.45 L14.2 20.95 11.4 23.25 9.6 28.1 8.9 31.65 9.1 33.3 10.45 31.15 11.9 31.35 10.65 32.8 9.1 33.3 M15.15 23.35 L15.05 22.45 15.4 21.1 14.2 20.95 M15.4 21.1 L16.8 21.55 16.35 24.3 11.9 31.35 M15.15 23.35 L15.25 24.2 15.35 25.0 16.35 24.3" fill="none" stroke="#000000" stroke-linecap="round" stroke-linejoin="round" stroke-opacity="0.3019608" stroke-width="0.30000000000000004"/>
      <path d="M31.0 39.25 L32.35 39.4 29.9 42.15 31.0 39.25 M21.2 44.7 L19.8 44.45 17.75 43.45 17.35 43.9 15.8 45.9 Q14.7 44.0 15.15 39.95 L15.4 37.15 Q15.95 36.8 16.4 36.55 L18.8 32.85 16.5 37.2 15.85 37.5 15.25 42.8 Q15.4 44.7 15.8 45.3 L17.05 43.1 16.25 42.15 19.7 44.15 20.95 44.3 23.7 41.45 24.65 39.25 23.05 40.65 26.05 37.15 24.1 41.55 21.2 44.7 M22.0 32.7 L19.7 38.25 20.95 40.8 22.45 40.7 20.6 41.1 19.35 38.45 19.4 37.95 22.0 32.7" fill="#ffff98" fill-rule="evenodd" stroke="none"/>
      <path d="M31.35 34.55 L31.0 39.25 29.9 42.15 28.75 43.8 28.7 43.85 29.15 43.9 27.0 46.3 Q25.4 47.95 23.65 48.5 L23.55 45.2 24.1 45.3 23.9 47.9 26.5 46.35 29.6 41.7 29.75 41.1 31.35 34.55 M18.8 32.85 L19.35 31.95 22.0 32.7 19.4 37.95 19.35 38.45 20.6 41.1 22.45 40.7 23.05 40.65 24.65 39.25 23.7 41.45 20.95 44.3 19.7 44.15 16.25 42.15 17.05 43.1 15.8 45.3 Q15.4 44.7 15.25 42.8 L15.85 37.5 16.5 37.2 18.8 32.85" fill="#ffde4f" fill-rule="evenodd" stroke="none"/>
      <path d="M23.55 45.2 L21.2 44.7 24.1 41.55 26.05 37.15 27.3 35.65 26.55 39.65 27.3 42.05 28.45 42.2 29.75 41.1 29.6 41.7 26.5 46.35 23.9 47.9 24.1 45.3 23.55 45.2 M19.25 25.65 L19.25 25.6 19.25 25.65" fill="#f4a33c" fill-rule="evenodd" stroke="none"/>
      <path d="M30.3 44.4 L29.9 44.9 Q28.15 47.2 26.05 48.0 L23.65 48.5 Q25.4 47.95 27.0 46.3 L30.3 44.4" fill="#cc6b22" fill-rule="evenodd" stroke="none"/>
      <path d="M31.65 29.75 L31.35 34.35 31.35 34.55 29.75 41.1 28.45 42.2 27.3 42.05 26.55 39.65 27.3 35.65 26.05 37.15 23.05 40.65 22.45 40.7 20.95 40.8 19.7 38.25 22.0 32.7 19.35 31.95 18.8 32.85 16.4 36.55 Q15.95 36.8 15.4 37.15 L15.65 35.1 16.8 29.35 19.25 25.65 19.25 25.6 31.65 29.75 M32.35 39.4 L34.2 38.4 31.95 41.35 28.75 43.8 29.9 42.15 32.35 39.4 M31.05 43.55 L30.3 44.4 27.0 46.3 29.15 43.9 31.05 43.55 M18.5 45.35 L17.7 45.85 15.8 45.9 17.35 43.9 18.5 45.35" fill="#a34100" fill-rule="evenodd" stroke="none"/>
      <path d="M31.65 29.75 L35.15 29.65 34.2 38.4 32.35 39.4 31.0 39.25 31.35 34.55 31.35 34.35 31.65 29.75 M31.95 41.35 L31.05 43.55 29.15 43.9 28.7 43.85 28.75 43.8 31.95 41.35 M19.8 44.45 L18.5 45.35 17.35 43.9 17.75 43.45 19.8 44.45" fill="#8f3600" fill-rule="evenodd" stroke="none"/>
      <path d="M34.2 38.4 L35.15 29.65 31.65 29.75 31.35 34.35 M31.35 34.55 L31.0 39.25 32.35 39.4 34.2 38.4 31.95 41.35 31.05 43.55 30.3 44.4 29.9 44.9 Q28.15 47.2 26.05 48.0 L23.65 48.5 23.55 45.2 21.2 44.7 19.8 44.45 18.5 45.35 17.7 45.85 15.8 45.9 Q14.7 44.0 15.15 39.95 L15.4 37.15 15.65 35.1 16.8 29.35 19.25 25.65 19.25 25.6 19.35 25.45 M17.75 43.45 L19.8 44.45 M19.25 25.6 L31.65 29.75" fill="none" stroke="#000000" stroke-linecap="round" stroke-linejoin="round" stroke-opacity="0.3019608" stroke-width="0.30000000000000004"/>
      <path d="M16.05 22.1 Q16.35 18.75 17.8 15.75 L17.85 15.7 Q20.6 11.35 24.95 9.7 L28.2 9.5 29.5 9.5 29.35 9.8 26.45 10.1 23.15 11.35 Q19.8 13.85 17.95 17.15 L17.0 21.45 16.1 22.15 17.0 21.45 21.2 20.4 17.35 21.7 15.5 23.3 12.35 25.15 10.95 27.1 7.65 28.45 11.25 25.05 15.05 23.05 16.1 22.15 16.05 22.1 M30.95 7.25 L31.2 6.85 31.5 6.85 31.6 6.9 33.1 6.85 31.6 6.9 36.05 5.35 34.85 4.7 34.1 4.5 35.3 4.35 37.15 5.0 42.2 4.15 43.0 4.25 37.55 5.35 37.4 5.45 37.35 5.45 35.25 6.1 33.1 6.85 33.0 7.95 30.05 10.9 32.05 8.3 32.5 7.4 31.75 7.3 30.95 7.25 M16.45 39.05 L16.55 37.35 17.15 38.95 17.6 39.35 19.1 38.9 21.35 35.2 23.2 28.65 21.9 35.25 22.45 38.6 21.45 35.95 19.4 39.2 17.6 39.85 16.45 39.05 M16.55 24.8 L17.5 23.75 18.5 22.25 22.1 20.15 22.15 20.15 24.1 19.7 30.9 15.25 32.6 11.35 29.5 12.35 31.45 11.35 32.7 10.9 33.25 10.7 35.9 12.0 38.85 16.05 39.1 18.95 39.1 19.0 38.75 21.05 36.75 24.2 33.25 27.7 29.5 29.65 28.8 27.6 29.65 28.75 32.85 27.3 36.65 23.85 37.3 22.4 38.05 18.4 37.6 15.95 36.9 16.2 35.2 16.8 34.2 17.2 Q29.7 19.2 24.9 22.7 L21.3 26.25 20.55 27.8 18.75 26.9 19.25 24.8 17.95 25.55 18.55 23.3 10.6 34.0 11.55 31.25 14.8 26.85 16.55 24.8 M37.35 5.45 L34.85 4.7 37.35 5.45" fill="#ffff98" fill-rule="evenodd" stroke="none"/>
      <path d="M17.0 21.45 L17.95 17.15 Q19.8 13.85 23.15 11.35 L26.45 10.1 29.35 9.8 29.5 9.5 30.95 7.25 31.75 7.3 28.35 12.65 27.3 13.7 29.35 9.8 27.3 13.7 29.5 12.35 32.6 11.35 30.9 15.25 24.1 19.7 22.15 20.15 22.1 20.15 21.2 20.4 17.0 21.45 M31.2 6.85 L34.1 4.5 34.85 4.7 36.05 5.35 31.6 6.9 31.5 6.85 31.2 6.85 M35.3 4.35 L39.05 3.8 42.2 4.15 37.15 5.0 35.3 4.35 M43.1 16.85 L43.9 19.8 41.2 17.0 43.1 16.85 M25.55 41.65 Q24.4 41.2 23.95 39.55 L24.3 34.4 25.5 30.35 25.75 29.5 25.9 26.75 26.8 24.1 27.3 29.35 26.4 37.15 25.2 39.65 24.45 39.15 24.5 39.5 25.35 40.7 26.3 39.85 27.7 36.4 28.6 30.7 28.3 36.0 29.25 37.7 28.25 36.6 26.6 40.35 25.55 41.65 M16.55 37.35 L18.0 33.3 18.2 35.3 21.25 31.15 23.9 24.9 23.55 26.8 23.2 28.65 21.35 35.2 19.1 38.9 17.6 39.35 17.15 38.95 16.55 37.35 M10.15 37.05 L9.65 36.1 11.05 31.45 11.2 31.05 14.8 26.85 11.55 31.25 10.6 34.0 10.6 34.05 10.1 35.95 10.4 36.4 12.45 35.7 16.25 30.4 18.1 27.4 15.7 31.95 15.35 32.6 13.3 35.7 13.05 36.1 10.15 37.05 M7.05 30.65 L7.65 28.45 10.95 27.1 9.7 30.05 8.15 31.1 7.05 30.65 M33.25 27.7 L36.75 24.2 36.25 27.25 33.25 27.7 M39.1 18.95 L38.85 16.05 35.9 12.0 33.25 10.7 33.8 10.5 36.25 11.6 36.95 12.3 Q38.55 14.05 39.4 16.45 L39.45 16.65 39.1 18.95 M33.0 7.95 L33.1 6.85 35.25 6.1 33.0 7.95" fill="#ffde4f" fill-rule="evenodd" stroke="none"/>
      <path d="M40.5 13.8 L41.3 14.2 42.4 15.7 43.1 16.85 41.2 17.0 39.4 16.45 Q38.55 14.05 36.95 12.3 L36.25 11.6 37.7 12.3 40.5 13.8 M42.1 26.35 L39.45 28.85 36.25 27.25 36.75 24.2 38.75 21.05 42.1 26.35 M18.0 33.3 L20.25 28.5 20.55 27.8 21.3 26.25 24.9 22.7 Q29.7 19.2 34.2 17.2 L35.2 16.8 36.9 16.2 37.6 15.95 38.05 18.4 37.3 22.4 36.65 23.85 32.85 27.3 29.65 28.75 28.8 27.6 28.6 30.7 27.7 36.4 26.3 39.85 25.35 40.7 24.5 39.5 24.45 39.15 25.2 39.65 26.4 37.15 27.3 29.35 26.8 24.1 25.9 26.75 24.75 28.25 23.45 28.55 23.55 26.8 23.9 24.9 21.25 31.15 18.2 35.3 18.0 33.3 M18.5 22.25 L17.05 23.6 12.4 28.15 9.7 30.05 10.95 27.1 12.35 25.15 15.5 23.3 17.35 21.7 21.2 20.4 22.1 20.15 18.5 22.25 M10.6 34.0 L18.55 23.3 17.95 25.55 19.25 24.8 18.1 27.4 16.25 30.4 12.45 35.7 10.4 36.4 10.1 35.95 10.6 34.05 10.6 34.0 M13.05 36.1 L13.3 35.7 14.05 36.55 13.05 36.1 M15.35 32.6 L15.7 31.95 16.6 34.35 15.35 32.6 M31.75 7.3 L32.5 7.4 32.05 8.3 30.05 10.9 28.35 12.65 31.75 7.3" fill="#f4a33c" fill-rule="evenodd" stroke="none"/>
      <path d="M43.0 4.25 Q44.9 7.05 44.1 10.45 L40.35 8.55 38.25 6.35 37.4 5.45 37.55 5.35 43.0 4.25 M28.4 40.7 L28.2 40.8 27.3 41.3 26.4 41.6 25.55 41.65 26.6 40.35 28.4 40.7 M19.3 40.65 L18.35 40.7 17.6 39.85 19.4 39.2 19.3 40.65 M16.55 24.8 L17.05 23.6 18.5 22.25 17.5 23.75 16.55 24.8 M25.75 29.5 L23.45 28.95 23.45 28.55 24.75 28.25 25.9 26.75 25.75 29.5" fill="#cc6b22" fill-rule="evenodd" stroke="none"/>
      <path d="M44.1 10.45 L41.95 10.45 40.35 8.55 44.1 10.45 M43.9 19.8 Q43.7 22.0 43.1 24.0 L42.1 26.35 38.75 21.05 39.1 19.0 39.1 18.95 39.45 16.65 39.4 16.45 41.2 17.0 43.9 19.8 M39.45 28.85 L35.5 31.05 32.3 31.55 30.35 31.5 30.4 31.05 29.5 29.65 33.25 27.7 36.25 27.25 39.45 28.85 M29.55 38.0 L28.4 40.7 26.6 40.35 28.25 36.6 29.25 37.7 29.55 38.0 M25.5 30.35 L24.55 30.25 24.15 30.25 23.7 29.65 23.45 28.95 25.75 29.5 25.5 30.35 M22.45 38.6 L19.3 40.65 19.4 39.2 21.45 35.95 22.45 38.6 M18.35 40.7 L17.4 40.7 16.45 39.05 17.6 39.85 18.35 40.7 M20.25 28.5 L19.35 28.15 18.75 26.9 20.55 27.8 20.25 28.5 M14.5 36.75 L11.8 37.25 10.15 37.05 13.05 36.1 14.05 36.55 14.5 36.75 M9.1 31.8 L8.2 31.85 7.05 30.65 8.15 31.1 9.1 31.8 M33.25 10.7 L32.7 10.9 31.45 11.35 29.5 12.35 27.3 13.7 28.35 12.65 30.05 10.9 33.0 7.95 35.25 6.1 37.35 5.45 37.4 5.45 38.25 6.35 39.15 9.3 37.7 12.3 36.25 11.6 33.8 10.5 33.25 10.7" fill="#a34100" fill-rule="evenodd" stroke="none"/>
      <path d="M41.95 10.45 L40.3 12.95 40.5 13.8 37.7 12.3 39.15 9.3 38.25 6.35 40.35 8.55 41.95 10.45 M30.35 31.5 L29.55 38.0 29.25 37.7 28.3 36.0 28.6 30.7 28.8 27.6 29.5 29.65 30.4 31.05 30.35 31.5 M24.55 30.25 L23.25 34.9 22.45 38.6 21.9 35.25 23.2 28.65 23.55 26.8 23.45 28.55 23.45 28.95 23.7 29.65 24.15 30.25 24.55 30.25 M19.35 28.15 L16.6 34.35 14.5 36.75 14.05 36.55 13.3 35.7 15.35 32.6 16.6 34.35 15.7 31.95 18.1 27.4 19.25 24.8 18.75 26.9 19.35 28.15 M11.05 31.45 L9.75 31.8 9.1 31.8 8.15 31.1 9.7 30.05 12.4 28.15 17.05 23.6 16.55 24.8 14.8 26.85 11.2 31.05 11.05 31.45" fill="#8f3600" fill-rule="evenodd" stroke="none"/>
      <path d="M29.5 9.5 L28.2 9.5 24.95 9.7 Q20.6 11.35 17.85 15.7 L17.8 15.75 Q16.35 18.75 16.05 22.1 M16.1 22.15 L17.0 21.45 M29.35 9.8 L29.5 9.5 30.95 7.25 31.2 6.85 34.1 4.5 35.3 4.35 39.05 3.8 42.2 4.15 43.0 4.25 Q44.9 7.05 44.1 10.45 L41.95 10.45 40.3 12.95 40.5 13.8 41.3 14.2 42.4 15.7 43.1 16.85 43.9 19.8 Q43.7 22.0 43.1 24.0 L42.1 26.35 39.45 28.85 35.5 31.05 32.3 31.55 30.35 31.5 29.55 38.0 28.4 40.7 28.2 40.8 27.3 41.3 26.4 41.6 25.55 41.65 Q24.4 41.2 23.95 39.55 L24.3 34.4 25.5 30.35 24.55 30.25 23.25 34.9 22.45 38.6 19.3 40.65 18.35 40.7 17.4 40.7 16.45 39.05 16.55 37.35 18.0 33.3 20.25 28.5 19.35 28.15 16.6 34.35 14.5 36.75 11.8 37.25 10.15 37.05 9.65 36.1 11.05 31.45 9.75 31.8 9.1 31.8 8.2 31.85 7.05 30.65 7.65 28.45 11.25 25.05 15.05 23.05 16.1 22.15 M17.05 23.6 L16.55 24.8 17.5 23.75 M16.55 24.8 L14.8 26.85 11.2 31.05 11.05 31.45 M19.25 24.8 L18.75 26.9 20.55 27.8 21.3 26.25 M28.8 27.6 L29.5 29.65 33.25 27.7 36.75 24.2 38.75 21.05 39.1 19.0 39.1 18.95 39.45 16.65 39.4 16.45 41.2 17.0 43.1 16.85 M33.25 10.7 L32.7 10.9 31.45 11.35 29.5 12.35 27.3 13.7 28.35 12.65 30.05 10.9 33.0 7.95 33.1 6.85 31.6 6.9 M18.75 26.9 L19.35 28.15 M20.25 28.5 L20.55 27.8 M40.35 8.55 L41.95 10.45 M44.1 10.45 L40.35 8.55 38.25 6.35 37.4 5.45 37.35 5.45 35.25 6.1 33.0 7.95 M37.7 12.3 L40.5 13.8 M31.5 6.85 L31.2 6.85 M34.85 4.7 L34.1 4.5 M34.85 4.7 L37.35 5.45 M37.4 5.45 L37.55 5.35 43.0 4.25 M35.25 6.1 L33.1 6.85 M27.3 13.7 L29.35 9.8 M36.25 11.6 L37.7 12.3 M36.25 11.6 L36.95 12.3 Q38.55 14.05 39.4 16.45 M33.25 10.7 L33.8 10.5 36.25 11.6 M36.75 24.2 L36.25 27.25 39.45 28.85 M36.25 27.25 L33.25 27.7 M28.6 30.7 L28.8 27.6 M25.5 30.35 L25.75 29.5 23.45 28.95 23.7 29.65 24.15 30.25 24.55 30.25 M23.45 28.55 L23.45 28.95 M28.3 36.0 L28.6 30.7 M21.9 35.25 L23.2 28.65 23.55 26.8 23.45 28.55 M30.35 31.5 L30.4 31.05 29.5 29.65 M25.75 29.5 L25.9 26.75 M38.75 21.05 L42.1 26.35 M41.2 17.0 L43.9 19.8 M26.6 40.35 L25.55 41.65 M16.45 39.05 L17.6 39.85 19.4 39.2 21.45 35.95 M28.25 36.6 L26.6 40.35" fill="none" stroke="#000000" stroke-linecap="round" stroke-linejoin="round" stroke-opacity="0.3019608" stroke-width="0.30000000000000004"/>
      <path d="M37.0 31.0 L32.85 35.45 32.8 36.7 35.8 36.55 36.55 36.75 Q37.6 37.25 38.2 38.45 L37.8 39.45 37.25 38.3 Q36.55 37.35 35.65 37.15 L35.2 37.1 32.35 37.3 32.25 35.4 37.0 31.0 M42.9 29.25 L42.2 31.65 41.1 30.95 42.2 31.65 42.35 33.05 44.35 34.5 42.4 33.9 41.7 36.45 41.4 37.45 Q40.5 39.85 39.25 41.3 L37.65 42.6 37.7 42.15 39.05 40.8 40.6 37.6 41.65 34.15 41.8 32.0 41.1 30.95 40.75 29.8 40.65 29.55 41.85 29.1 42.9 29.25 M42.35 33.05 L42.4 33.9 42.35 33.05" fill="#ffff98" fill-rule="evenodd" stroke="none"/>
      <path d="M38.2 38.45 Q37.6 37.25 36.55 36.75 L35.8 36.55 32.8 36.7 32.85 35.45 37.0 31.0 38.05 31.15 39.35 35.45 38.2 38.45 39.35 35.45 41.1 30.95 41.8 32.0 41.65 34.15 40.6 37.6 39.05 40.8 37.7 42.15 37.8 40.25 37.8 39.45 38.2 38.45" fill="#ffde4f" fill-rule="evenodd" stroke="none"/>
      <path d="M39.35 35.45 L38.05 31.15 39.45 34.4 40.7 31.4 40.75 29.8 41.1 30.95 39.35 35.45 M37.0 31.0 L32.25 35.4 32.6 33.3 37.0 31.0 M32.35 37.3 L35.2 37.1 33.3 37.7 32.35 37.3 M42.2 31.65 L42.9 29.25 44.2 29.8 44.35 34.5 42.35 33.05 42.2 31.65 M39.25 41.3 Q40.5 39.85 41.4 37.45 L41.25 40.15 39.25 41.3" fill="#f4a33c" fill-rule="evenodd" stroke="none"/>
      <path d="M40.65 29.55 L40.75 29.8 40.7 31.4 39.45 34.4 38.05 31.15 40.65 29.55 M41.7 36.45 L42.4 33.9 44.35 34.5 42.65 39.95 41.7 39.3 41.7 36.45" fill="#cc6b22" fill-rule="evenodd" stroke="none"/>
      <path d="M35.2 37.1 L35.65 37.15 Q36.55 37.35 37.25 38.3 36.45 37.9 35.5 37.75 L33.3 37.7 35.2 37.1 M41.4 37.45 L41.7 36.45 41.7 39.3 42.65 39.95 42.55 40.3 41.25 40.15 41.4 37.45" fill="#a34100" fill-rule="evenodd" stroke="none"/>
      <path d="M37.65 42.6 L39.25 41.3 41.25 40.15 42.55 40.3 38.9 43.1 37.65 42.6" fill="#8f3600" fill-rule="evenodd" stroke="none"/>
      <path d="M38.2 38.45 L39.35 35.45 38.05 31.15 37.0 31.0 32.25 35.4 32.35 37.3 35.2 37.1 35.65 37.15 Q36.55 37.35 37.25 38.3 L37.8 39.45 38.2 38.45 M32.25 35.4 L32.6 33.3 37.0 31.0 M33.3 37.7 L32.35 37.3 M35.2 37.1 L33.3 37.7 35.5 37.75 Q36.45 37.9 37.25 38.3 M42.2 31.65 L42.9 29.25 41.85 29.1 40.65 29.55 40.75 29.8 41.1 30.95 42.2 31.65 42.35 33.05 42.4 33.9 44.35 34.5 42.65 39.95 42.55 40.3 38.9 43.1 37.65 42.6 39.25 41.3 Q40.5 39.85 41.4 37.45 L41.7 36.45 42.4 33.9 M44.35 34.5 L44.2 29.8 42.9 29.25 M37.7 42.15 L37.65 42.6 M38.05 31.15 L40.65 29.55 M41.1 30.95 L39.35 35.45 M39.25 41.3 L41.25 40.15 41.4 37.45 M41.25 40.15 L42.55 40.3 M37.7 42.15 L37.8 40.25 37.8 39.45" fill="none" stroke="#000000" stroke-linecap="round" stroke-linejoin="round" stroke-opacity="0.3019608" stroke-width="0.30000000000000004"/>
      <path d="M35.45 18.4 L34.35 20.5 33.6 20.95 Q33.1 20.8 32.85 19.1 L33.05 18.5 32.6 17.55 32.25 17.4 Q32.45 16.15 33.15 16.05 L34.1 16.25 35.45 18.4 M31.95 22.15 L31.3 22.3 Q30.15 22.3 29.05 21.45 28.45 20.6 28.8 18.4 29.1 17.25 30.0 16.65 L30.5 17.5 29.9 18.15 Q29.55 19.0 29.8 19.8 L30.65 20.8 31.3 20.75 31.95 22.15" fill="#a34100" fill-rule="evenodd" stroke="none"/>
      <path d="M35.45 21.5 L34.45 20.85 35.45 18.4 36.2 19.35 35.45 21.5 M32.85 19.1 L32.7 19.75 31.65 20.7 30.75 20.6 30.85 19.7 30.85 19.0 31.35 18.05 32.6 17.55 33.05 18.5 32.85 19.1" fill="#431b01" fill-rule="evenodd" stroke="none"/>
      <path d="M29.4 22.2 L30.65 22.6 32.35 22.45 34.3 21.1 35.45 21.5 32.6 23.0 Q31.3 23.35 29.4 22.2 M35.45 18.4 Q35.1 17.3 34.35 15.95 L35.55 17.25 36.2 19.35 35.45 18.4 M31.35 18.05 L30.65 17.7 Q30.9 17.5 31.15 17.4 L31.35 17.4 32.6 17.55 31.35 18.05 M30.2 18.7 L30.85 19.7 30.75 20.6 30.2 19.95 Q30.05 19.3 30.2 18.7" fill="#5c2501" fill-rule="evenodd" stroke="none"/>
      <path d="M30.65 17.7 L31.35 18.05 30.85 19.0 30.85 19.7 30.2 18.7 30.2 18.65 30.3 18.3 30.65 17.7" fill="#7e3301" fill-rule="evenodd" stroke="none"/>
      <path d="M32.7 19.75 L33.2 21.25 31.95 22.15 31.3 20.75 31.65 20.7 32.7 19.75 M30.0 16.65 L31.5 15.65 32.55 15.95 Q32.15 16.6 32.25 17.4 L31.0 17.15 30.5 17.5 30.0 16.65" fill="#ca5202" fill-rule="evenodd" stroke="none"/>
      <path d="M29.4 22.2 L28.6 21.5 Q27.65 19.45 28.7 17.4 29.95 16.1 31.35 15.3 L34.35 15.95 Q35.1 17.3 35.45 18.4 L34.45 20.85 35.45 21.5 34.3 21.1 32.35 22.45 30.65 22.6 29.4 22.2 M32.85 19.1 Q33.1 20.8 33.6 20.95 L34.35 20.5 35.45 18.4 34.1 16.25 33.15 16.05 Q32.45 16.15 32.25 17.4 32.15 16.6 32.55 15.95 L31.5 15.65 30.0 16.65 Q29.1 17.25 28.8 18.4 28.45 20.6 29.05 21.45 30.15 22.3 31.3 22.3 L31.95 22.15 33.2 21.25 32.7 19.75 32.85 19.1 M30.65 17.7 L30.3 18.3 30.2 18.65 30.2 18.7 Q30.05 19.3 30.2 19.95 L30.75 20.6 31.65 20.7 31.3 20.75 30.65 20.8 29.8 19.8 Q29.55 19.0 29.9 18.15 L30.5 17.5 31.0 17.15 32.25 17.4 32.6 17.55 31.35 17.4 31.15 17.4 Q30.9 17.5 30.65 17.7" fill="#ea6004" fill-rule="evenodd" stroke="none"/>
      <path d="M34.35 15.95 L31.35 15.3 Q29.95 16.1 28.7 17.4 27.65 19.45 28.6 21.5 L29.4 22.2 Q31.3 23.35 32.6 23.0 L35.45 21.5 36.2 19.35 35.55 17.25 34.35 15.95 M32.85 19.1 L32.7 19.75 31.65 20.7 30.75 20.6 30.85 19.7 30.85 19.0 31.35 18.05 32.6 17.55 33.05 18.5 32.85 19.1" fill="none" stroke="#000000" stroke-linecap="round" stroke-linejoin="round" stroke-opacity="0.3019608" stroke-width="0.30000000000000004"/>
      <path d="M20.45 14.8 L19.85 15.45 Q19.4 16.25 19.4 17.05 L19.75 18.0 20.3 17.95 20.45 19.3 19.9 19.45 Q19.0 19.5 18.4 18.65 18.15 17.85 18.95 15.7 19.45 14.6 20.3 14.0 L20.45 14.8 M22.05 14.8 L21.8 14.65 Q22.3 13.45 22.85 13.3 L23.5 13.45 24.0 15.55 22.65 17.6 22.0 18.0 Q21.65 17.9 21.85 16.3 L22.15 15.7 22.05 14.8" fill="#a34100" fill-rule="evenodd" stroke="none"/>
      <path d="M20.6 17.9 L19.9 17.8 20.2 16.9 20.4 16.25 21.0 15.3 22.05 14.8 22.15 15.7 21.85 16.3 21.6 16.9 20.6 17.9 M23.25 18.55 L22.65 17.95 24.0 15.55 24.35 16.4 23.25 18.55" fill="#431b01" fill-rule="evenodd" stroke="none"/>
      <path d="M20.3 17.95 L19.75 18.0 19.4 17.05 Q19.4 16.25 19.85 15.45 L20.45 14.8 20.95 14.45 21.8 14.65 22.05 14.8 21.2 14.65 21.0 14.65 20.55 15.0 20.15 15.55 19.95 15.9 19.95 15.95 19.65 17.2 19.9 17.8 20.6 17.9 20.3 17.95 M20.3 14.0 Q19.45 14.6 18.95 15.7 18.15 17.85 18.4 18.65 19.0 19.5 19.9 19.45 L20.45 19.3 Q21.4 18.8 21.6 18.4 L21.6 16.9 21.85 16.3 Q21.65 17.9 22.0 18.0 L22.65 17.6 24.0 15.55 22.65 17.95 23.25 18.55 22.5 18.2 20.65 19.6 19.35 19.75 18.5 19.4 18.05 18.75 Q17.85 16.75 19.15 14.75 20.4 13.45 21.7 12.6 L23.8 13.15 24.0 15.55 23.5 13.45 22.85 13.3 Q22.3 13.45 21.8 14.65 21.95 13.85 22.45 13.2 L21.7 12.95 20.3 14.0" fill="#ea6004" fill-rule="evenodd" stroke="none"/>
      <path d="M20.45 14.8 L20.3 14.0 21.7 12.95 22.45 13.2 Q21.95 13.85 21.8 14.65 L20.95 14.45 20.45 14.8 M20.45 19.3 L20.3 17.95 20.6 17.9 21.6 16.9 21.6 18.4 Q21.4 18.8 20.45 19.3" fill="#ca5202" fill-rule="evenodd" stroke="none"/>
      <path d="M19.95 15.95 L19.95 15.9 20.15 15.55 20.55 15.0 21.0 15.3 20.4 16.25 20.2 16.9 19.95 15.95 M24.0 15.55 L23.8 13.15 24.4 14.45 24.35 16.4 24.0 15.55" fill="#7e3301" fill-rule="evenodd" stroke="none"/>
      <path d="M19.9 17.8 L19.65 17.2 19.95 15.95 20.2 16.9 19.9 17.8 M20.55 15.0 L21.0 14.65 21.2 14.65 22.05 14.8 21.0 15.3 20.55 15.0 M18.5 19.4 L19.35 19.75 20.65 19.6 22.5 18.2 23.25 18.55 20.75 20.05 Q19.7 20.45 18.5 19.4" fill="#5c2501" fill-rule="evenodd" stroke="none"/>
      <path d="M20.6 17.9 L19.9 17.8 20.2 16.9 20.4 16.25 21.0 15.3 22.05 14.8 22.15 15.7 21.85 16.3 21.6 16.9 20.6 17.9 M23.8 13.15 L21.7 12.6 Q20.4 13.45 19.15 14.75 17.85 16.75 18.05 18.75 L18.5 19.4 Q19.7 20.45 20.75 20.05 L23.25 18.55 24.35 16.4 24.4 14.45 23.8 13.15" fill="none" stroke="#000000" stroke-linecap="round" stroke-linejoin="round" stroke-opacity="0.3019608" stroke-width="0.30000000000000004"/>
    </g>
    <g id="sprite0" transform="matrix(1.0, 0.0, 0.0, 1.0, 7.95, 7.95)">
      <use height="173.65" transform="matrix(1.0, 0.0, 0.0, 1.0, -8.55, -8.55)" width="89.9" xlink:href="#shape1"/>
    </g>
    <g id="shape1" transform="matrix(1.0, 0.0, 0.0, 1.0, 8.55, 8.55)">
      <path d="M67.1 47.3 Q60.05 84.7 45.15 118.0 L67.1 47.3" fill="#000000" fill-opacity="0.03529412" fill-rule="evenodd" stroke="none"/>
      <path d="M72.8 0.4 Q71.4 24.6 67.1 47.3 60.05 84.7 45.15 118.0 L45.0 118.3 Q39.4 130.85 24.25 156.55 M43.75 69.05 Q26.65 113.65 20.4 117.6 17.55 109.85 28.1 81.45 38.25 56.05 47.2 54.0 48.65 56.75 43.75 69.05 M48.0 24.8 Q34.25 59.6 13.6 90.6 7.15 100.3 0.0 109.6 M66.8 0.0 Q53.65 80.05 13.6 143.35 L12.4 145.2 M67.1 47.3 L45.15 118.0" fill="none" stroke="#000000" stroke-linecap="round" stroke-linejoin="round" stroke-opacity="0.050980393" stroke-width="0.30000000000000004"/>
    </g>
    <g id="sprite2" transform="matrix(1.0, 0.0, 0.0, 1.0, 0.0, 0.0)">
      <use height="26.7" transform="matrix(0.0042, -1.3515, 1.3935, 0.02, 22.09, 56.0263)" width="26.7" xlink:href="#sprite3"/>
      <use height="26.7" transform="matrix(0.0095, -3.0486, 0.372, 0.0053, 36.507, 81.3775)" width="26.7" xlink:href="#sprite3"/>
      <use height="26.7" transform="matrix(3.0486, 0.0095, -0.0053, 0.372, 0.1225, 35.107)" width="26.7" xlink:href="#sprite3"/>
    </g>
    <g id="sprite3" transform="matrix(1.0, 0.0, 0.0, 1.0, 13.35, 13.35)">
      <use height="26.7" transform="matrix(1.0, 0.0, 0.0, 1.0, -13.35, -13.35)" width="26.7" xlink:href="#shape2"/>
    </g>
    <g id="shape2" transform="matrix(1.0, 0.0, 0.0, 1.0, 13.35, 13.35)">
      <path d="M9.3 -9.85 Q13.35 -5.8 13.35 0.0 13.35 5.8 9.3 9.3 5.8 13.35 0.0 13.35 -5.8 13.35 -9.85 9.3 -13.35 5.8 -13.35 0.0 -13.35 -5.8 -9.85 -9.85 -5.8 -13.35 0.0 -13.35 5.8 -13.35 9.3 -9.85" fill="url(#gradient0)" fill-rule="evenodd" stroke="none"/>
    </g>
    <radialGradient cx="0" cy="0" gradientTransform="matrix(0.0213, 0.0, 0.0, 0.0213, 0.0, 0.0)" gradientUnits="userSpaceOnUse" id="gradient0" r="819.2" spreadMethod="pad">
      <stop offset="0.19607843137254902" stop-color="#fee3bc" stop-opacity="0.28627452"/>
      <stop offset="0.5019607843137255" stop-color="#fee3bc" stop-opacity="0.043137256"/>
      <stop offset="0.7607843137254902" stop-color="#ffe3bd" stop-opacity="0.0"/>
    </radialGradient>
  </defs>
</svg>
