<?xml version="1.0" encoding="UTF-8" standalone="no"?>
<svg xmlns:xlink="http://www.w3.org/1999/xlink" height="52.0px" width="52.0px" xmlns="http://www.w3.org/2000/svg">
  <g transform="matrix(1.0, 0.0, 0.0, 1.0, 0.0, 0.0)">
    <use height="54.0" transform="matrix(1.0, 0.0, 0.0, 1.0, -1.0, -1.0)" width="54.0" xlink:href="#shape0"/>
    <use height="1.85" transform="matrix(-0.707, 0.1894, 0.1599, 0.5969, 16.3, 4.05)" width="3.35" xlink:href="#sprite0"/>
    <use height="1.85" transform="matrix(-0.6339, 0.366, 0.3686, 0.6384, 15.25, 16.0)" width="3.35" xlink:href="#sprite0"/>
    <use height="1.85" transform="matrix(0.0, 0.7319, 0.9829, 0.0, 14.45, 23.0)" width="3.35" xlink:href="#sprite0"/>
    <use height="1.85" transform="matrix(-0.409, 0.2361, 0.2457, 0.4256, 11.6, 30.15)" width="3.35" xlink:href="#sprite0"/>
    <use height="81.5" transform="matrix(-0.1606, 0.0, 0.0, 0.1605, 18.05, 26.4)" width="81.5" xlink:href="#sprite1"/>
    <use height="81.5" transform="matrix(-0.1606, 0.0, 0.0, 0.1605, 20.85, 9.95)" width="81.5" xlink:href="#sprite1"/>
    <use height="81.5" transform="matrix(-0.1147, 0.0, 0.0, 0.1146, 30.15, 6.25)" width="81.5" xlink:href="#sprite1"/>
    <use height="0.0" transform="matrix(-0.0693, 0.0, 0.0, 0.086, 19.45, 10.05)" width="0.0" xlink:href="#sprite3"/>
    <use height="0.0" transform="matrix(-0.1269, 0.0, 0.0, 0.129, 28.85, 23.05)" width="0.0" xlink:href="#sprite3"/>
    <use height="0.0" transform="matrix(-0.0637, 0.0, 0.0, 0.0507, 41.75, 23.65)" width="0.0" xlink:href="#sprite3"/>
    <use height="0.0" transform="matrix(-0.0482, 0.0, 0.0, 0.026, 41.75, 17.3)" width="0.0" xlink:href="#sprite3"/>
    <use height="0.0" transform="matrix(-0.0341, -0.0341, -0.0184, 0.0184, 36.75, 30.15)" width="0.0" xlink:href="#sprite3"/>
    <use height="0.0" transform="matrix(0.0, -0.0649, -0.0405, 0.0, 9.45, 19.45)" width="0.0" xlink:href="#sprite3"/>
    <use height="0.0" transform="matrix(-0.0325, -0.0562, -0.0351, 0.0202, 18.15, 27.45)" width="0.0" xlink:href="#sprite3"/>
    <use height="0.0" transform="matrix(-0.0389, 0.0104, 0.0153, 0.0571, 16.0, 42.95)" width="0.0" xlink:href="#sprite3"/>
    <use height="0.0" transform="matrix(-0.0372, 0.01, 0.0145, 0.054, 8.1, 40.3)" width="0.0" xlink:href="#sprite3"/>
  </g>
  <defs>
    <g id="shape0" transform="matrix(1.0, 0.0, 0.0, 1.0, 1.0, 1.0)">
      <path d="M52.0 0.0 L52.0 52.0 0.0 52.0 0.0 0.0 52.0 0.0" fill="#795fa9" fill-opacity="0.0" fill-rule="evenodd" stroke="none"/>
      <path d="M27.8 7.3 Q26.05 6.25 24.25 5.55 20.35 4.0 16.2 3.95 L14.3 4.25 Q12.95 5.05 12.15 7.65 L11.75 9.2 11.6 9.95 Q9.95 11.1 9.15 12.9 8.7 14.05 8.65 15.15 7.35 15.8 6.95 17.75 6.4 20.55 7.8 22.0 6.35 22.8 6.4 24.55 6.55 27.2 9.2 27.5 L9.0 29.05 8.95 29.55 Q8.85 31.15 9.25 32.2 L9.1 32.8 9.05 33.2 9.1 34.05 8.7 35.95 6.8 36.45 Q5.6 36.55 5.0 37.4 L4.65 37.95 Q3.65 40.0 5.65 43.0 7.8 46.1 10.4 45.15 L10.95 44.95 11.65 44.5 12.55 46.15 Q14.35 48.75 16.95 48.25 L17.65 48.05 18.45 47.7 19.05 47.45 Q22.15 45.15 23.1 41.7 L23.2 41.55 Q25.55 38.8 25.9 36.25 26.0 35.25 25.75 34.35 L25.75 34.3 Q30.75 34.65 34.7 32.7 L36.1 34.05 36.15 34.1 Q38.85 35.7 40.75 33.0 42.35 30.9 40.75 28.8 L42.35 28.95 Q46.3 28.8 47.4 24.65 48.25 21.8 46.3 20.6 48.2 19.25 47.5 16.5 46.55 13.15 42.9 14.2 L41.0 14.8 40.1 15.15 Q39.0 13.45 37.3 11.9 35.65 10.4 33.75 9.35 L33.65 9.25 32.4 8.3 31.7 7.95 Q30.8 7.5 29.75 7.35 L28.15 7.35 27.8 7.3 Z" fill="none" stroke="#000000" stroke-linecap="round" stroke-linejoin="round" stroke-opacity="0.3019608" stroke-width="1.0"/>
      <path d="M7.25 25.45 L7.1 25.0 Q6.7 23.25 8.25 22.5 7.35 23.0 7.5 24.0 L7.65 24.55 8.05 25.3 8.65 25.8 12.4 25.5 Q11.55 25.95 10.1 26.3 8.35 26.7 7.25 25.45 M7.45 19.7 L7.35 19.0 Q7.6 17.2 8.5 16.3 L8.1 17.2 Q7.7 18.35 8.0 19.05 8.1 19.6 8.5 19.85 L9.2 20.15 Q11.0 20.0 12.0 19.3 11.15 20.1 9.65 20.6 L8.5 20.5 Q7.9 20.3 7.45 19.7" fill="#f9f8ec" fill-rule="evenodd" stroke="none"/>
      <path d="M15.95 22.4 Q16.5 23.4 15.75 24.7 13.25 27.55 9.6 27.55 6.55 27.35 6.4 24.6 6.35 22.85 7.85 22.05 6.4 20.55 6.95 17.8 7.7 14.15 11.7 14.95 14.1 15.5 16.2 16.8 L16.35 17.1 Q13.25 15.55 10.7 15.5 L10.1 15.55 Q9.15 15.7 8.5 16.3 7.6 17.2 7.35 19.0 L7.45 19.7 Q7.65 20.75 8.45 21.2 L9.45 21.45 10.25 21.35 Q12.75 21.1 15.05 21.4 L15.35 21.7 11.8 21.9 9.8 22.0 8.5 22.35 8.45 22.4 8.4 22.4 8.25 22.5 Q6.7 23.25 7.1 25.0 L7.25 25.45 Q8.0 27.3 11.05 26.65 14.45 25.95 15.4 23.85 L15.95 22.4 M7.85 22.05 L8.45 21.75 9.45 21.45 8.45 21.75 7.85 22.05" fill="#f0f0d2" fill-rule="evenodd" stroke="none"/>
      <path d="M8.25 22.5 L8.4 22.4 8.45 22.4 8.5 22.35 9.8 22.0 11.8 21.9 Q13.95 22.05 13.8 24.1 13.6 24.9 12.4 25.5 L8.65 25.8 8.05 25.3 Q9.25 26.05 9.35 24.5 9.35 22.85 8.6 22.75 L8.4 22.75 Q7.8 22.9 7.5 24.0 7.35 23.0 8.25 22.5 M8.5 16.3 Q9.15 15.7 10.1 15.55 L10.7 15.5 Q13.6 16.35 12.85 17.95 12.6 18.7 12.0 19.3 11.0 20.0 9.2 20.15 L8.5 19.85 Q8.1 19.6 8.0 19.05 L8.5 19.6 Q9.05 19.75 9.55 18.6 9.8 17.25 9.35 16.7 8.7 16.05 8.1 17.2 L8.5 16.3" fill="#bfbf40" fill-rule="evenodd" stroke="none"/>
      <path d="M8.0 19.05 Q7.7 18.35 8.1 17.2 8.7 16.05 9.35 16.7 9.8 17.25 9.55 18.6 9.05 19.75 8.5 19.6 L8.0 19.05 M8.05 25.3 L7.65 24.55 7.5 24.0 Q7.8 22.9 8.4 22.75 L8.6 22.75 Q9.35 22.85 9.35 24.5 9.25 26.05 8.05 25.3" fill="#d5d580" fill-rule="evenodd" stroke="none"/>
      <path d="M16.35 17.1 Q17.45 19.2 15.75 21.3 L15.35 21.7 15.95 22.4 15.4 23.85 Q14.45 25.95 11.05 26.65 8.0 27.3 7.25 25.45 8.35 26.7 10.1 26.3 11.55 25.95 12.4 25.5 13.6 24.9 13.8 24.1 13.95 22.05 11.8 21.9 L15.35 21.7 15.05 21.4 Q12.75 21.1 10.25 21.35 L9.45 21.45 8.45 21.2 Q7.65 20.75 7.45 19.7 7.9 20.3 8.5 20.5 L9.65 20.6 Q11.15 20.1 12.0 19.3 12.6 18.7 12.85 17.95 13.6 16.35 10.7 15.5 13.25 15.55 16.35 17.1" fill="#a6a637" fill-rule="evenodd" stroke="none"/>
      <path d="M15.95 22.4 Q16.5 23.4 15.75 24.7 13.25 27.55 9.6 27.55 6.55 27.35 6.4 24.6 6.35 22.85 7.85 22.05 6.4 20.55 6.95 17.8 7.7 14.15 11.7 14.95 14.1 15.5 16.2 16.8 L16.35 17.1 Q17.45 19.2 15.75 21.3 L15.35 21.7 15.95 22.4 M15.35 21.7 L15.05 21.4 Q12.75 21.1 10.25 21.35 L9.45 21.45 8.45 21.75 7.85 22.05" fill="none" stroke="#000000" stroke-linecap="round" stroke-linejoin="round" stroke-opacity="0.3019608" stroke-width="0.30000000000000004"/>
      <path d="M8.3 17.7 L8.85 17.65 9.35 17.2 9.5 16.5 9.25 16.1 8.75 16.05 Q8.45 16.2 8.25 16.6 L8.05 17.25 8.3 17.7" fill="#f9f8ec" fill-rule="evenodd" stroke="none"/>
      <path d="M18.2 11.35 Q18.95 13.25 18.0 15.35 17.15 17.45 15.25 18.65 13.4 19.9 11.55 19.35 9.75 18.85 9.0 17.0 8.3 15.0 9.2 12.95 10.05 10.9 12.0 9.7 13.85 8.5 15.65 9.0 17.5 9.5 18.2 11.35 M13.1 15.75 Q10.05 17.35 9.25 14.15 8.95 15.7 9.55 16.95 10.2 18.15 11.85 18.55 13.4 19.05 15.0 18.0 16.65 16.95 17.35 15.2 18.15 13.5 17.6 11.95 L17.55 11.8 Q17.1 10.65 16.2 10.15 15.8 9.9 15.35 9.8 13.8 9.35 12.25 10.35 10.85 11.2 10.1 12.6 9.65 14.55 10.2 15.45 10.55 16.0 11.2 16.2 L13.1 15.75" fill="#f9f8ec" fill-rule="evenodd" stroke="none"/>
      <path d="M17.6 11.95 Q18.15 13.5 17.35 15.2 16.65 16.95 15.0 18.0 13.4 19.05 11.85 18.55 10.2 18.15 9.55 16.95 8.95 15.7 9.25 14.15 10.05 17.35 13.1 15.75 L13.25 15.75 Q16.95 14.6 17.6 11.95 M10.2 15.45 Q9.65 14.55 10.1 12.6 10.85 11.2 12.25 10.35 13.8 9.35 15.35 9.8 15.8 9.9 16.2 10.15 12.95 9.35 10.8 12.25 10.1 13.15 10.2 15.45" fill="#bfbf40" fill-rule="evenodd" stroke="none"/>
      <path d="M17.6 11.95 Q16.95 14.6 13.25 15.75 L13.1 15.75 11.2 16.2 Q10.55 16.0 10.2 15.45 10.1 13.15 10.8 12.25 12.95 9.35 16.2 10.15 17.1 10.65 17.55 11.8 L17.6 11.95" fill="#d5d580" fill-rule="evenodd" stroke="none"/>
      <path d="M18.2 11.35 Q17.5 9.5 15.65 9.0 13.85 8.5 12.0 9.7 10.05 10.9 9.2 12.95 8.3 15.0 9.0 17.0 9.75 18.85 11.55 19.35 13.4 19.9 15.25 18.65 17.15 17.45 18.0 15.35 18.95 13.25 18.2 11.35 Z" fill="none" stroke="#000000" stroke-linecap="round" stroke-linejoin="round" stroke-opacity="0.3019608" stroke-width="0.30000000000000004"/>
      <path d="M28.65 7.5 L29.75 7.75 28.65 7.55 28.65 7.5 M30.35 7.9 L30.8 8.05 30.8 8.1 30.35 7.9" fill="#ff9900" fill-rule="evenodd" stroke="none"/>
      <path d="M13.25 6.35 L13.1 6.6 12.6 8.15 Q12.25 9.5 11.75 9.25 L12.15 7.65 Q12.95 5.1 14.3 4.3 L14.95 4.15 15.0 4.2 Q15.95 4.7 15.35 4.9 L15.05 4.95 Q14.0 5.1 13.25 6.35 M11.25 12.0 Q11.2 17.15 11.65 19.15 12.05 21.05 13.8 21.85 15.7 22.35 17.1 19.55 18.25 15.65 17.6 10.3 L17.05 6.9 Q16.6 5.1 15.75 4.35 L16.35 4.85 19.65 4.75 18.15 4.75 Q17.05 4.8 16.85 5.5 L17.2 6.55 17.4 7.35 17.55 8.1 Q18.15 9.55 18.95 10.15 19.75 10.7 20.65 10.5 21.55 10.3 22.7 9.55 18.95 12.15 17.8 9.35 L18.2 13.2 18.2 15.35 17.95 17.95 Q17.3 21.8 14.6 22.35 13.15 22.3 11.75 20.7 L11.6 20.55 11.5 20.15 11.45 19.95 11.4 19.85 11.2 18.8 11.0 17.1 10.95 15.55 10.95 14.7 11.0 13.9 11.25 12.0 M14.0 10.8 Q13.9 11.25 13.6 11.35 13.25 11.45 12.95 10.55 L12.95 10.15 13.0 9.85 Q13.25 11.6 14.0 10.8 M15.1 11.05 L15.0 10.55 Q15.8 11.45 16.1 10.1 L16.0 10.9 Q15.7 11.8 15.1 11.05 M21.25 14.15 Q22.0 11.75 22.9 10.15 L22.95 10.05 Q26.6 7.45 30.85 8.7 24.6 7.35 21.25 14.15 M14.75 22.85 L15.6 22.6 16.15 22.3 16.25 22.25 18.35 20.4 Q17.3 22.15 17.3 24.05 17.35 26.2 20.05 26.75 31.15 28.0 36.5 18.35 L36.1 19.35 35.5 20.55 Q30.95 26.85 23.45 27.7 L20.6 27.85 Q17.25 27.6 16.45 24.9 L16.25 23.9 Q16.15 22.7 14.75 22.85 M16.05 17.55 Q15.8 18.35 14.85 19.15 13.6 19.95 12.85 18.3 L13.15 17.7 Q13.35 19.05 14.3 18.8 L16.05 17.55 M10.5 16.6 Q10.0 19.9 10.8 20.85 11.1 21.05 11.4 20.2 10.95 22.35 10.3 21.25 L10.05 20.05 Q10.1 17.95 10.5 16.6" fill="#f9f8ec" fill-rule="evenodd" stroke="none"/>
      <path d="M14.8 6.0 L14.5 5.85 Q13.9 5.55 13.25 6.35 14.0 5.1 15.05 4.95 L15.35 4.9 Q14.95 5.15 15.4 5.5 L15.55 5.6 Q15.95 5.95 16.35 7.05 17.1 9.15 17.25 12.0 17.45 15.4 16.7 18.55 16.3 20.25 15.15 21.05 14.15 21.55 13.05 20.7 12.3 20.15 12.2 19.6 12.9 20.45 13.95 20.6 16.35 20.7 16.8 16.1 L16.8 15.7 16.9 15.0 16.9 12.55 16.8 11.85 16.6 9.65 Q16.15 6.95 15.05 6.05 L14.9 6.05 14.8 6.0 M15.75 4.35 L15.0 4.2 14.95 4.15 14.3 4.3 Q15.15 3.8 16.2 3.95 20.35 4.0 24.25 5.55 L21.75 5.1 19.65 4.75 16.35 4.85 15.75 4.35 M14.0 10.8 L14.15 9.8 Q14.1 7.4 13.7 7.35 L13.9 6.85 14.45 6.45 Q14.0 7.35 14.45 9.9 L14.65 10.85 Q14.2 12.0 13.6 11.9 13.05 11.65 12.95 10.55 13.25 11.45 13.6 11.35 13.9 11.25 14.0 10.8 M27.8 7.3 L28.65 7.5 28.65 7.55 29.75 7.75 30.15 7.85 30.35 7.9 30.8 8.1 30.8 8.05 Q31.95 8.45 33.05 9.0 35.35 10.1 37.3 11.9 42.05 16.25 42.05 21.85 L42.05 22.55 41.8 24.3 Q41.0 28.35 37.3 31.15 32.55 34.8 25.8 34.3 19.1 33.75 14.3 29.45 9.55 25.1 9.55 19.45 9.55 16.35 11.0 13.9 L10.95 14.7 10.95 15.55 10.5 16.6 Q10.1 17.95 10.05 20.05 L10.3 21.25 Q11.1 25.0 13.6 27.65 16.4 30.25 19.45 31.75 26.05 35.0 33.5 32.65 L33.6 32.6 34.05 32.45 Q41.85 28.6 41.45 21.55 L41.35 20.4 41.35 20.2 Q40.15 13.2 32.9 9.5 L32.8 9.5 32.75 9.45 30.85 8.7 Q26.6 7.45 22.95 10.05 23.55 9.0 24.25 8.3 25.3 7.25 26.6 7.15 L27.8 7.3 M16.1 10.1 Q16.05 9.2 15.4 7.85 15.05 7.0 14.6 6.95 14.7 6.25 15.4 7.1 16.35 8.85 16.5 11.3 16.2 12.35 15.6 12.1 L15.1 11.05 Q15.7 11.8 16.0 10.9 L16.1 10.1 M18.2 13.2 Q19.25 11.4 21.85 10.5 L21.1 13.45 Q20.0 10.75 18.7 13.9 18.2 16.0 19.15 17.0 L18.85 17.0 Q18.45 16.8 18.2 15.35 L18.2 13.2" fill="#f0f0d2" fill-rule="evenodd" stroke="none"/>
      <path d="M12.55 18.95 L12.4 18.5 Q11.9 16.7 12.1 13.35 L12.1 13.25 12.55 10.1 Q13.15 7.0 14.1 6.25 14.45 6.0 14.75 6.05 L14.9 6.05 15.05 6.05 Q16.15 6.95 16.6 9.65 L16.8 11.85 16.6 12.2 Q15.45 13.5 14.75 11.25 14.25 12.85 13.2 12.05 L12.95 11.85 12.8 11.55 Q12.6 12.4 12.55 13.6 L12.7 17.8 Q13.3 16.55 14.15 16.0 15.25 15.3 16.8 15.7 L16.8 16.1 Q15.45 15.8 14.4 16.45 L16.1 16.5 16.05 17.55 14.3 18.8 Q13.35 19.05 13.15 17.7 L12.85 18.3 12.55 18.95 M14.45 6.45 L13.9 6.85 13.7 7.35 Q14.1 7.4 14.15 9.8 L14.0 10.8 Q13.25 11.6 13.0 9.85 L12.95 10.15 12.95 10.55 Q13.05 11.65 13.6 11.9 14.2 12.0 14.65 10.85 L14.45 9.9 Q14.0 7.35 14.45 6.45 L14.75 6.05 14.45 6.45 M24.25 5.55 Q26.05 6.25 27.8 7.3 L26.6 7.15 Q25.3 7.25 24.25 8.3 L22.7 9.55 Q21.55 10.3 20.65 10.5 19.75 10.7 18.95 10.15 18.15 9.55 17.55 8.1 L17.4 7.35 Q17.95 8.6 18.8 9.2 L21.55 9.35 23.35 8.5 Q24.8 7.45 23.3 6.2 21.85 5.05 18.15 4.75 L19.65 4.75 21.75 5.1 24.25 5.55 M15.1 11.05 L15.6 12.1 Q16.2 12.35 16.5 11.3 16.35 8.85 15.4 7.1 14.7 6.25 14.6 6.95 15.05 7.0 15.4 7.85 16.05 9.2 16.1 10.1 15.8 11.45 15.0 10.55 L15.1 11.05 M18.35 20.4 Q20.25 18.25 21.1 14.6 L21.25 14.15 Q24.6 7.35 30.85 8.7 L32.75 9.45 32.8 9.5 32.9 9.55 Q35.2 11.4 36.2 13.45 37.3 15.8 36.5 18.35 31.15 28.0 20.05 26.75 17.35 26.2 17.3 24.05 17.3 22.15 18.35 20.4 M12.55 10.1 Q12.55 11.0 12.8 11.55 12.55 11.0 12.55 10.1 M14.65 10.85 L14.75 11.25 14.65 10.85 M10.5 16.6 L10.95 15.55 11.0 17.1 11.2 18.8 11.4 19.85 11.45 19.95 11.4 20.2 Q11.1 21.05 10.8 20.85 10.0 19.9 10.5 16.6 M12.4 18.5 L12.7 17.8 12.4 18.5 M31.1 32.95 L30.55 33.0 29.75 32.85 Q29.1 32.65 28.95 32.1 28.8 31.55 29.3 31.0 29.75 30.5 30.6 30.25 31.4 30.05 32.1 30.25 32.75 30.5 32.9 31.05 33.05 31.6 32.55 32.1 32.1 32.65 31.3 32.9 L31.1 32.95" fill="#d5d580" fill-rule="evenodd" stroke="none"/>
      <path d="M14.8 6.0 L14.75 6.05 Q14.45 6.0 14.1 6.25 13.15 7.0 12.55 10.1 L12.1 13.25 12.1 13.35 Q11.9 16.7 12.4 18.5 L12.55 18.95 Q13.05 20.25 13.95 20.6 13.05 20.25 12.55 18.95 L12.85 18.3 Q13.6 19.95 14.85 19.15 15.8 18.35 16.05 17.55 L16.1 16.5 14.4 16.45 Q15.45 15.8 16.8 16.1 16.35 20.7 13.95 20.6 12.9 20.45 12.2 19.6 12.3 20.15 13.05 20.7 14.15 21.55 15.15 21.05 16.3 20.25 16.7 18.55 17.45 15.4 17.25 12.0 17.1 9.15 16.35 7.05 15.95 5.95 15.55 5.6 L15.4 5.5 Q14.95 5.15 15.35 4.9 15.95 4.7 15.0 4.2 L15.75 4.35 Q16.6 5.1 17.05 6.9 L17.6 10.3 Q18.25 15.65 17.1 19.55 15.7 22.35 13.8 21.85 12.05 21.05 11.65 19.15 11.2 17.15 11.25 12.0 L11.75 9.25 Q12.25 9.5 12.6 8.15 L13.1 6.6 13.25 6.35 Q13.9 5.55 14.5 5.85 L14.8 6.0 M17.4 7.35 L17.2 6.55 16.85 5.5 Q17.05 4.8 18.15 4.75 21.85 5.05 23.3 6.2 24.8 7.45 23.35 8.5 L21.55 9.35 18.8 9.2 Q17.95 8.6 17.4 7.35 M21.1 13.45 Q20.2 16.7 19.15 17.0 18.2 16.0 18.7 13.9 20.0 10.75 21.1 13.45 M12.55 13.6 Q14.1 14.3 14.15 16.0 13.3 16.55 12.7 17.8 L12.55 13.6 M19.45 31.75 L19.45 31.1 Q23.7 30.45 23.45 27.7 30.95 26.85 35.5 20.55 L36.1 19.35 36.5 18.35 Q37.3 15.8 36.2 13.45 35.2 11.4 32.9 9.55 L32.9 9.5 Q40.15 13.2 41.35 20.2 L41.25 20.2 41.45 21.55 Q41.85 28.6 34.05 32.45 L33.6 32.6 33.5 32.65 Q26.05 35.0 19.45 31.75 M31.3 32.9 Q32.1 32.65 32.55 32.1 33.05 31.6 32.9 31.05 32.75 30.5 32.1 30.25 31.4 30.05 30.6 30.25 29.75 30.5 29.3 31.0 28.8 31.55 28.95 32.1 29.1 32.65 29.75 32.85 L30.55 33.0 31.1 32.95 31.3 32.95 31.3 32.9" fill="#bfbf40" fill-rule="evenodd" stroke="none"/>
      <path d="M16.8 11.85 L16.9 12.55 16.9 15.0 16.8 15.7 Q15.25 15.3 14.15 16.0 14.1 14.3 12.55 13.6 12.6 12.4 12.8 11.55 L12.95 11.85 13.2 12.05 Q14.25 12.85 14.75 11.25 15.45 13.5 16.6 12.2 L16.8 11.85 M22.7 9.55 L24.25 8.3 Q23.55 9.0 22.95 10.05 L22.9 10.15 Q22.0 11.75 21.25 14.15 L21.1 14.6 Q20.25 18.25 18.35 20.4 L16.25 22.25 16.15 22.3 15.6 22.6 14.75 22.85 Q12.8 23.2 11.7 20.75 12.8 23.2 14.75 22.85 16.15 22.7 16.25 23.9 L16.45 24.9 Q17.25 27.6 20.6 27.85 L23.45 27.7 Q23.7 30.45 19.45 31.1 L19.45 31.75 Q16.4 30.25 13.6 27.65 11.1 25.0 10.3 21.25 10.95 22.35 11.4 20.2 L11.5 20.15 11.6 20.55 11.7 20.75 11.75 20.7 Q13.15 22.3 14.6 22.35 17.3 21.8 17.95 17.95 L18.2 15.35 Q18.45 16.8 18.85 17.0 L19.15 17.0 Q20.2 16.7 21.1 13.45 L21.85 10.5 Q19.25 11.4 18.2 13.2 L17.8 9.35 Q18.95 12.15 22.7 9.55 M41.35 20.2 L41.35 20.4 41.45 21.55 41.25 20.2 41.35 20.2" fill="#a6a637" fill-rule="evenodd" stroke="none"/>
      <path d="M14.75 6.05 L14.8 6.0 14.9 6.05 14.75 6.05" fill="url(#gradient0)" fill-rule="evenodd" stroke="none"/>
      <path d="M11.75 20.7 L11.7 20.75 11.6 20.55 11.75 20.7" fill="url(#gradient1)" fill-rule="evenodd" stroke="none"/>
      <path d="M11.45 19.95 L11.5 20.15 11.4 20.2 11.45 19.95 M31.3 32.9 L31.3 32.95 31.3 32.9" fill="url(#gradient2)" fill-rule="evenodd" stroke="none"/>
      <path d="M32.9 9.55 L32.8 9.5 32.9 9.5 32.9 9.55" fill="url(#gradient3)" fill-rule="evenodd" stroke="none"/>
      <path d="M31.1 32.95 L31.3 32.9 31.3 32.95 31.1 32.95" fill="url(#gradient4)" fill-rule="evenodd" stroke="none"/>
      <path d="M11.75 9.25 L11.25 12.0 11.0 13.9 Q9.55 16.35 9.55 19.45 9.55 25.1 14.3 29.45 19.1 33.75 25.8 34.3 32.55 34.8 37.3 31.15 41.0 28.35 41.8 24.3 L42.05 22.55 42.05 21.85 Q42.05 16.25 37.3 11.9 35.35 10.1 33.05 9.0 31.95 8.45 30.8 8.05 L30.35 7.9 30.15 7.85 29.75 7.75 28.65 7.5 27.8 7.3 Q26.05 6.25 24.25 5.55 20.35 4.0 16.2 3.95 15.15 3.8 14.3 4.3 12.95 5.1 12.15 7.65 L11.75 9.25 M13.95 20.6 Q13.05 20.25 12.55 18.95 L12.4 18.5 Q11.9 16.7 12.1 13.35 L12.1 13.25 12.55 10.1 Q13.15 7.0 14.1 6.25 14.45 6.0 14.75 6.05 L14.9 6.05 15.05 6.05 Q16.15 6.95 16.6 9.65 L16.8 11.85 16.9 12.55 16.9 15.0 16.8 15.7 16.8 16.1 Q16.35 20.7 13.95 20.6 M14.65 10.85 L14.45 9.9 Q14.0 7.35 14.45 6.45 L14.75 6.05 M24.25 8.3 Q25.3 7.25 26.6 7.15 L27.8 7.3 M21.25 14.15 Q22.0 11.75 22.9 10.15 L22.95 10.05 Q23.55 9.0 24.25 8.3 M11.7 20.75 Q12.8 23.2 14.75 22.85 L15.6 22.6 16.15 22.3 16.25 22.25 18.35 20.4 Q20.25 18.25 21.1 14.6 L21.25 14.15 M16.8 11.85 L16.6 12.2 Q15.45 13.5 14.75 11.25 14.25 12.85 13.2 12.05 L12.95 11.85 12.8 11.55 Q12.55 11.0 12.55 10.1 M14.15 16.0 Q15.25 15.3 16.8 15.7 M14.75 11.25 L14.65 10.85 M10.95 15.55 L10.95 14.7 11.0 13.9 M11.45 19.95 L11.4 19.85 11.2 18.8 11.0 17.1 10.95 15.55 M14.15 16.0 Q13.3 16.55 12.7 17.8 L12.4 18.5 M11.6 20.55 L11.7 20.75 M11.5 20.15 L11.45 19.95 M11.5 20.15 L11.6 20.55" fill="none" stroke="#000000" stroke-linecap="round" stroke-linejoin="round" stroke-opacity="0.3019608" stroke-width="0.30000000000000004"/>
      <path d="M13.85 29.1 Q14.5 29.6 15.25 29.1 L15.35 29.45 15.05 29.65 Q13.8 30.4 12.7 28.45 L12.1 26.6 11.9 25.8 Q11.65 24.35 11.95 23.45 L12.45 22.6 Q11.45 23.25 10.65 24.6 10.1 25.55 9.5 27.45 L9.0 29.05 Q9.45 24.6 11.75 22.65 13.15 21.4 14.45 21.8 L13.9 21.8 Q13.0 22.05 12.4 23.2 11.7 24.65 12.75 27.35 13.25 28.65 13.85 29.1 M9.95 34.45 Q10.05 35.55 9.4 36.1 8.75 36.55 8.0 36.6 7.25 36.85 7.5 37.35 L6.55 37.15 Q5.15 37.15 4.65 37.95 L5.0 37.4 Q5.6 36.6 6.8 36.45 9.6 36.25 9.6 34.45 L9.95 34.45" fill="#f9f8ec" fill-rule="evenodd" stroke="none"/>
      <path d="M7.5 37.35 L8.6 38.15 9.6 39.35 10.05 40.1 Q11.55 42.65 10.75 44.5 L10.4 45.2 Q7.85 46.1 5.7 43.0 3.65 40.05 4.65 37.95 5.15 37.15 6.55 37.15 L7.5 37.35 M5.4 41.55 Q6.7 44.5 8.85 44.95 10.35 45.25 10.6 43.85 11.15 42.25 8.95 39.15 L8.25 38.45 Q7.0 37.35 5.85 37.75 4.5 38.15 5.0 40.5 L5.4 41.55" fill="#f0f0d2" fill-rule="evenodd" stroke="none"/>
      <path d="M14.85 21.9 Q13.95 21.7 13.4 22.4 12.9 23.4 12.75 25.1 12.6 26.6 13.85 29.1 13.25 28.65 12.75 27.35 11.7 24.65 12.4 23.2 13.0 22.05 13.9 21.8 L14.45 21.8 14.85 21.9 M9.5 27.45 Q10.1 25.55 10.65 24.6 11.45 23.25 12.45 22.6 L11.95 23.45 Q11.65 24.35 11.9 25.8 L11.4 24.15 Q10.85 24.65 9.85 26.75 L9.5 27.45 M8.6 38.15 Q10.25 37.5 10.25 36.05 L10.45 34.7 11.7 36.2 11.1 36.55 Q9.95 37.1 9.6 39.35 L8.6 38.15 M12.55 38.0 L13.45 40.35 Q13.85 43.4 10.95 44.95 10.65 45.1 10.4 45.2 L10.75 44.5 11.6 43.95 Q13.8 42.4 12.55 38.0 M5.4 41.55 L5.0 40.5 Q4.5 38.15 5.85 37.75 7.0 37.35 8.25 38.45 9.3 41.5 7.9 42.5 6.95 43.0 5.4 41.55" fill="#bfbf40" fill-rule="evenodd" stroke="none"/>
      <path d="M13.85 29.1 Q12.6 26.6 12.75 25.1 12.9 23.4 13.4 22.4 13.95 21.7 14.85 21.9 L15.0 21.95 Q18.0 27.0 15.25 29.1 14.5 29.6 13.85 29.1 M12.1 26.6 L12.7 28.45 Q13.8 30.4 15.05 29.65 L9.8 33.1 Q8.85 31.95 9.0 29.6 L9.0 29.05 9.5 27.45 9.85 26.75 Q9.65 28.55 10.75 28.7 11.95 28.8 12.1 26.6 M11.7 36.2 L12.55 38.0 Q13.8 42.4 11.6 43.95 L10.75 44.5 Q11.55 42.65 10.05 40.1 L9.6 39.35 Q9.95 37.1 11.1 36.55 L11.7 36.2 M8.25 38.45 L8.95 39.15 Q11.15 42.25 10.6 43.85 10.35 45.25 8.85 44.95 6.7 44.5 5.4 41.55 6.95 43.0 7.9 42.5 9.3 41.5 8.25 38.45" fill="#a6a637" fill-rule="evenodd" stroke="none"/>
      <path d="M11.9 25.8 L12.1 26.6 Q11.95 28.8 10.75 28.7 9.65 28.55 9.85 26.75 10.85 24.65 11.4 24.15 L11.9 25.8 M9.95 34.45 L10.45 34.7 10.25 36.05 Q10.25 37.5 8.6 38.15 L7.5 37.35 Q7.25 36.85 8.0 36.6 8.75 36.55 9.4 36.1 10.05 35.55 9.95 34.45" fill="#d5d580" fill-rule="evenodd" stroke="none"/>
      <path d="M15.25 29.1 Q18.0 27.0 15.0 21.95 L14.85 21.9 14.45 21.8 Q13.15 21.4 11.75 22.65 9.45 24.6 9.0 29.05 L9.0 29.6 Q8.85 31.95 9.8 33.1 L15.05 29.65 15.35 29.45 15.25 29.1 M10.45 34.7 L9.95 34.45 9.6 34.45 Q9.6 36.25 6.8 36.45 5.6 36.6 5.0 37.4 L4.65 37.95 Q3.65 40.05 5.7 43.0 7.85 46.1 10.4 45.2 10.65 45.1 10.95 44.95 13.85 43.4 13.45 40.35 L12.55 38.0 11.7 36.2 10.45 34.7" fill="none" stroke="#000000" stroke-linecap="round" stroke-linejoin="round" stroke-opacity="0.3019608" stroke-width="0.30000000000000004"/>
      <path d="M17.9 32.9 Q17.6 34.05 16.9 35.15 L15.0 37.05 Q13.05 38.1 11.05 37.55 L10.2 36.95 Q9.3 35.7 9.95 34.05 10.45 32.85 11.25 31.9 10.5 33.35 10.4 34.5 10.4 35.45 10.85 36.2 12.55 38.1 16.1 35.5 17.45 34.1 17.9 32.9" fill="#f9f8ec" fill-rule="evenodd" stroke="none"/>
      <path d="M25.15 36.85 Q25.75 34.35 24.25 32.8 21.95 30.35 20.2 29.85 L18.1 29.3 17.0 29.3 Q14.85 29.25 12.85 30.4 L11.25 31.9 Q10.45 32.85 9.95 34.05 L9.35 35.75 Q9.0 36.5 9.9 38.55 9.15 37.6 8.7 36.35 9.0 32.7 11.4 30.65 13.9 28.55 17.5 28.85 21.05 29.1 23.7 31.35 26.25 33.65 25.9 36.25 25.6 38.85 23.2 41.6 20.9 44.3 17.3 44.4 15.1 44.4 13.4 43.7 12.65 41.6 11.8 40.45 12.65 40.85 13.3 41.75 L14.1 43.45 Q20.55 44.55 24.0 39.8 L24.8 38.05 25.15 36.85" fill="#f0f0d2" fill-rule="evenodd" stroke="none"/>
      <path d="M17.0 29.3 L18.1 29.3 20.2 29.85 Q21.95 30.35 24.25 32.8 25.75 34.35 25.15 36.85 25.25 33.5 21.6 31.4 19.65 30.3 18.4 30.2 19.35 32.5 16.9 35.15 17.6 34.05 17.9 32.9 L17.95 32.8 Q18.55 30.95 17.0 29.3 M24.8 38.05 L24.0 39.8 Q20.55 44.55 14.1 43.45 L13.3 41.75 Q12.65 40.85 11.8 40.45 L10.8 39.4 9.9 38.55 Q9.0 36.5 9.35 35.75 L9.95 34.05 Q9.3 35.7 10.2 36.95 L11.05 37.55 13.8 38.1 16.5 38.45 Q17.6 38.8 18.05 39.1 19.25 39.9 18.55 41.45 18.0 42.35 16.35 42.6 22.05 42.4 24.8 38.05" fill="#bfbf40" fill-rule="evenodd" stroke="none"/>
      <path d="M17.0 29.3 Q18.55 30.95 17.95 32.8 L17.9 32.9 Q17.45 34.1 16.1 35.5 12.55 38.1 10.85 36.2 10.4 35.45 10.4 34.5 10.5 33.35 11.25 31.9 L12.85 30.4 Q14.85 29.25 17.0 29.3" fill="#d5d580" fill-rule="evenodd" stroke="none"/>
      <path d="M16.9 35.15 Q19.35 32.5 18.4 30.2 19.65 30.3 21.6 31.4 25.25 33.5 25.15 36.85 L24.8 38.05 Q22.05 42.4 16.35 42.6 18.0 42.35 18.55 41.45 19.25 39.9 18.05 39.1 17.6 38.8 16.5 38.45 L13.8 38.1 11.05 37.55 Q13.05 38.1 15.0 37.05 L16.9 35.15" fill="#a6a637" fill-rule="evenodd" stroke="none"/>
      <path d="M11.8 40.45 Q12.65 41.6 13.4 43.7 15.1 44.4 17.3 44.4 20.9 44.3 23.2 41.6 25.6 38.85 25.9 36.25 26.25 33.65 23.7 31.35 21.05 29.1 17.5 28.85 13.9 28.55 11.4 30.65 9.0 32.7 8.7 36.35 9.15 37.6 9.9 38.55 L10.8 39.4 11.8 40.45 Z" fill="none" stroke="#000000" stroke-linecap="round" stroke-linejoin="round" stroke-opacity="0.3019608" stroke-width="0.30000000000000004"/>
      <path d="M13.75 31.55 L13.9 31.55 14.6 30.8 Q14.8 30.4 14.6 30.05 14.4 29.75 13.95 29.7 L13.0 29.95 Q12.5 30.25 12.3 30.65 12.1 31.1 12.3 31.4 L12.9 31.75 13.45 31.7 13.75 31.55" fill="#f9f8ec" fill-rule="evenodd" stroke="none"/>
      <path d="M33.0 9.5 L32.95 9.45 33.0 9.45 33.05 9.5 33.0 9.5 M24.2 11.3 L24.2 11.25 24.25 11.3 24.2 11.3" fill="#ff9900" fill-rule="evenodd" stroke="none"/>
      <path d="M35.3 13.05 L35.3 13.45 Q35.3 15.35 33.7 16.55 32.05 17.7 29.75 17.4 27.55 17.1 25.85 15.55 24.95 14.65 24.55 13.7 24.2 12.95 24.2 12.1 L24.2 12.05 24.25 11.7 24.55 12.85 Q24.95 13.85 25.85 14.75 27.55 16.3 29.75 16.55 32.05 16.9 33.7 15.75 35.15 14.7 35.3 13.05" fill="#342018" fill-opacity="0.2509804" fill-rule="evenodd" stroke="none"/>
      <path d="M31.7 13.1 Q33.5 10.7 32.1 8.95 L31.75 8.6 Q30.8 8.05 29.7 7.9 27.8 7.7 26.35 8.65 L25.85 9.1 Q25.1 9.85 24.95 10.95 26.15 13.65 30.25 13.7 L28.35 13.75 Q26.5 13.55 25.1 12.3 24.1 11.0 24.45 10.0 24.85 8.95 25.85 8.3 27.55 7.15 29.75 7.4 30.8 7.55 31.7 7.95 32.85 8.6 33.0 9.45 L32.95 9.45 33.0 9.5 33.0 9.55 33.1 10.4 Q33.1 12.05 31.7 13.1 M29.0 10.65 L28.75 10.5 Q28.25 10.15 28.4 9.75 28.6 9.3 29.05 9.1 L30.05 9.0 31.05 9.5 31.35 9.8 30.5 9.55 29.35 9.7 Q28.85 9.85 28.85 10.3 L29.0 10.65" fill="#f9f8ec" fill-rule="evenodd" stroke="none"/>
      <path d="M33.0 9.45 Q32.85 8.6 31.7 7.95 L32.45 8.35 Q33.1 8.75 33.7 9.3 L34.15 9.75 Q35.3 11.05 35.3 12.65 L35.3 13.05 Q35.15 14.7 33.7 15.75 32.05 16.9 29.75 16.55 27.55 16.3 25.85 14.75 24.95 13.85 24.55 12.85 L24.25 11.7 24.2 11.3 24.25 11.3 24.2 11.25 Q24.25 10.6 24.45 10.0 24.1 11.0 25.1 12.3 25.35 13.1 25.95 13.8 L26.35 14.2 Q27.8 15.55 29.7 15.75 31.65 16.05 33.05 15.1 34.45 14.05 34.45 12.4 L34.2 11.15 Q33.9 10.35 33.2 9.7 L33.05 9.5 33.0 9.45" fill="#f0f0d2" fill-rule="evenodd" stroke="none"/>
      <path d="M31.35 9.8 L31.5 10.25 31.05 10.8 29.9 10.9 29.0 10.65 28.85 10.3 Q28.85 9.85 29.35 9.7 L30.5 9.55 31.35 9.8" fill="#a6a637" fill-rule="evenodd" stroke="none"/>
      <path d="M33.0 9.55 L33.0 9.5 33.05 9.5 33.0 9.55" fill="url(#gradient5)" fill-rule="evenodd" stroke="none"/>
      <path d="M30.25 13.7 Q26.15 13.65 24.95 10.95 25.1 9.85 25.85 9.1 L26.35 8.65 Q27.8 7.7 29.7 7.9 30.8 8.05 31.75 8.6 L32.1 8.95 Q33.5 10.7 31.7 13.1 L30.25 13.7 M31.35 9.8 L31.05 9.5 30.05 9.0 29.05 9.1 Q28.6 9.3 28.4 9.75 28.25 10.15 28.75 10.5 L29.0 10.65 29.9 10.9 31.05 10.8 31.5 10.25 31.35 9.8" fill="#d5d580" fill-rule="evenodd" stroke="none"/>
      <path d="M30.25 13.7 L31.7 13.1 Q33.1 12.05 33.1 10.4 L33.0 9.55 33.05 9.5 33.2 9.7 Q33.9 10.35 34.2 11.15 L34.45 12.4 Q34.45 14.05 33.05 15.1 31.65 16.05 29.7 15.75 27.8 15.55 26.35 14.2 L25.95 13.8 Q25.35 13.1 25.1 12.3 26.5 13.55 28.35 13.75 L30.25 13.7" fill="#bfbf40" fill-rule="evenodd" stroke="none"/>
      <path d="M31.7 7.95 Q30.8 7.55 29.75 7.4 27.55 7.15 25.85 8.3 24.85 8.95 24.45 10.0 24.25 10.6 24.2 11.25 L24.2 11.3 24.25 11.7 24.55 12.85 Q24.95 13.85 25.85 14.75 27.55 16.3 29.75 16.55 32.05 16.9 33.7 15.75 35.15 14.7 35.3 13.05 L35.3 12.65 Q35.3 11.05 34.15 9.75 L33.7 9.3 Q33.1 8.75 32.45 8.35 L31.7 7.95 Z" fill="none" stroke="#000000" stroke-linecap="round" stroke-linejoin="round" stroke-opacity="0.3019608" stroke-width="0.30000000000000004"/>
      <path d="M14.1 24.15 L14.3 23.0 Q14.85 21.95 16.65 22.5 L18.45 23.8 Q15.4 21.75 14.95 23.55 14.75 25.8 16.35 28.6 L15.15 26.9 Q14.5 25.8 14.1 24.15 M21.75 37.7 Q20.05 37.85 17.6 39.2 L16.7 39.6 Q16.15 39.9 16.4 40.3 L14.45 40.15 Q13.05 40.05 11.6 41.55 L12.55 40.45 Q14.15 39.45 16.2 39.4 L19.5 37.9 Q20.45 37.55 21.15 37.5 L21.75 37.7" fill="#f9f8ec" fill-rule="evenodd" stroke="none"/>
      <path d="M14.05 27.3 Q12.35 22.95 14.45 21.85 18.15 21.1 22.55 26.3 27.3 32.95 25.05 36.45 23.95 37.7 22.75 35.85 21.6 34.05 19.5 33.25 17.45 32.35 16.0 30.65 14.7 28.9 14.05 27.3 M16.65 22.5 Q14.85 21.95 14.3 23.0 L14.1 24.15 Q14.15 25.9 15.45 28.7 L15.75 29.25 Q17.25 31.2 19.05 32.05 L19.9 32.35 Q21.8 33.2 23.25 35.1 24.55 36.8 24.95 34.85 25.4 33.4 24.85 31.95 L23.6 29.3 Q21.9 26.25 19.35 24.15 L17.95 23.05 Q17.25 22.7 16.65 22.5 M16.4 40.3 Q17.3 40.5 17.95 41.05 L19.1 42.4 19.4 42.95 Q20.05 44.55 19.3 46.3 L20.4 45.5 Q22.65 42.9 23.1 40.15 23.2 39.35 22.85 38.75 23.2 38.65 23.35 39.0 L23.5 39.45 Q23.15 44.5 19.05 47.45 L18.5 47.75 17.7 48.05 16.95 48.25 Q14.35 48.75 12.55 46.15 10.65 43.3 11.6 41.55 13.05 40.05 14.45 40.15 L16.4 40.3 M12.5 45.2 L13.4 46.35 Q15.05 48.1 17.05 47.75 18.7 47.1 18.9 45.5 19.45 42.55 16.95 41.1 L15.85 40.75 Q13.95 40.3 12.65 41.2 11.15 42.3 12.5 45.2" fill="#f0f0d2" fill-rule="evenodd" stroke="none"/>
      <path d="M16.65 22.5 Q17.25 22.7 17.95 23.05 L19.35 24.15 Q21.85 26.35 22.1 29.45 22.15 31.85 20.0 31.45 18.05 31.0 15.45 28.7 14.15 25.9 14.1 24.15 14.5 25.8 15.15 26.9 L16.35 28.6 18.3 30.05 Q20.05 31.05 21.05 30.05 21.95 28.35 20.1 25.55 L18.45 23.8 16.65 22.5 M23.6 29.3 L24.85 31.95 Q25.4 33.4 24.95 34.85 24.55 36.8 23.25 35.1 21.8 33.2 19.9 32.35 L19.05 32.05 20.6 32.25 Q21.95 32.7 22.75 33.75 L24.05 35.05 Q24.85 35.4 24.7 33.55 24.6 31.65 23.6 29.3 M17.95 41.05 Q20.35 40.7 21.6 39.4 L21.85 39.2 Q22.9 38.2 21.75 37.7 L21.15 37.5 Q22.8 37.4 23.35 39.0 23.2 38.65 22.85 38.75 22.55 38.85 22.1 39.35 20.25 40.9 19.4 42.95 L19.1 42.4 17.95 41.05 M12.5 45.2 Q11.15 42.3 12.65 41.2 13.95 40.3 15.85 40.75 18.45 42.9 17.25 45.15 16.45 46.5 14.3 46.4 L14.25 46.4 Q13.6 46.35 12.5 45.2" fill="#bfbf40" fill-rule="evenodd" stroke="none"/>
      <path d="M16.35 28.6 Q14.75 25.8 14.95 23.55 15.4 21.75 18.45 23.8 L20.1 25.55 Q21.95 28.35 21.05 30.05 20.05 31.05 18.3 30.05 L16.35 28.6 M17.95 41.05 Q17.3 40.5 16.4 40.3 16.15 39.9 16.7 39.6 L17.6 39.2 Q20.05 37.85 21.75 37.7 22.9 38.2 21.85 39.2 L21.6 39.4 Q20.35 40.7 17.95 41.05" fill="#d5d580" fill-rule="evenodd" stroke="none"/>
      <path d="M19.35 24.15 Q21.9 26.25 23.6 29.3 24.6 31.65 24.7 33.55 24.85 35.4 24.05 35.05 L22.75 33.75 Q21.95 32.7 20.6 32.25 L19.05 32.05 Q17.25 31.2 15.75 29.25 L15.45 28.7 Q18.05 31.0 20.0 31.45 22.15 31.85 22.1 29.45 21.85 26.35 19.35 24.15 M22.85 38.75 Q23.2 39.35 23.1 40.15 22.65 42.9 20.4 45.5 L19.3 46.3 Q20.05 44.55 19.4 42.95 20.25 40.9 22.1 39.35 22.55 38.85 22.85 38.75 M15.85 40.75 L16.95 41.1 Q19.45 42.55 18.9 45.5 18.7 47.1 17.05 47.75 15.05 48.1 13.4 46.35 L12.5 45.2 Q13.6 46.35 14.25 46.4 L14.3 46.4 Q16.45 46.5 17.25 45.15 18.45 42.9 15.85 40.75" fill="#a6a637" fill-rule="evenodd" stroke="none"/>
      <path d="M14.05 27.3 Q14.7 28.9 16.0 30.65 17.45 32.35 19.5 33.25 21.6 34.05 22.75 35.85 23.95 37.7 25.05 36.45 27.3 32.95 22.55 26.3 18.15 21.1 14.45 21.85 12.35 22.95 14.05 27.3 M11.6 41.55 Q10.65 43.3 12.55 46.15 14.35 48.75 16.95 48.25 L17.7 48.05 18.5 47.75 19.05 47.45 Q23.15 44.5 23.5 39.45 L23.35 39.0 Q22.8 37.4 21.15 37.5 20.45 37.55 19.5 37.9 L16.2 39.4 Q14.15 39.45 12.55 40.45 L11.6 41.55" fill="none" stroke="#000000" stroke-linecap="round" stroke-linejoin="round" stroke-opacity="0.3019608" stroke-width="0.30000000000000004"/>
      <path d="M38.55 20.1 L38.5 20.15 38.5 20.1 38.55 20.1" fill="#ff9900" fill-rule="evenodd" stroke="none"/>
      <path d="M40.05 15.75 Q38.7 16.75 38.85 17.4 39.05 17.95 40.05 18.6 L40.2 18.7 40.0 18.65 39.7 18.5 Q38.65 18.1 38.5 17.35 L38.9 16.55 40.05 15.75 M41.75 19.0 Q43.85 18.45 44.9 17.55 45.85 16.65 45.3 15.55 44.95 14.55 41.8 14.95 L42.15 14.85 42.5 14.75 42.8 14.7 42.9 14.7 44.55 14.5 Q46.15 14.9 46.2 16.0 46.35 17.5 43.95 18.65 L42.05 19.0 41.75 19.0 M38.5 20.1 L38.5 20.15 Q36.65 20.85 36.65 21.95 36.6 23.4 38.35 25.25 36.95 24.3 36.25 22.55 36.1 21.8 36.3 21.25 L36.65 20.8 Q37.5 20.25 38.5 20.1 M41.55 26.3 Q45.8 25.75 46.5 23.45 46.85 22.4 45.55 21.0 47.1 21.8 47.1 23.45 L46.0 24.85 Q44.35 26.5 41.55 26.3 M34.05 29.3 L35.75 31.05 36.75 31.65 38.6 31.8 Q40.25 31.3 39.85 29.8 39.55 28.55 38.35 27.15 39.7 28.3 40.35 29.55 40.75 31.55 39.45 32.35 L36.6 32.2 35.2 31.1 35.0 30.8 34.05 29.3 M37.6 26.6 Q35.05 25.4 33.75 26.3 L34.4 25.6 Q36.0 25.4 37.6 26.6" fill="#f9f8ec" fill-rule="evenodd" stroke="none"/>
      <path d="M41.8 14.95 L40.85 15.3 40.05 15.75 38.9 16.55 38.5 17.35 38.35 18.35 Q38.1 17.2 38.75 15.95 39.8 15.25 41.0 14.8 L42.9 14.2 Q46.55 13.2 47.5 16.5 48.2 19.25 46.3 20.6 L45.75 20.3 46.3 20.6 Q48.25 21.85 47.45 24.65 46.3 28.85 42.4 28.95 L40.75 28.85 40.0 27.95 40.75 28.85 Q42.4 30.95 40.75 33.0 38.85 35.7 36.2 34.1 L36.1 34.1 Q33.35 32.1 33.15 28.05 L33.55 26.55 Q33.4 27.2 33.55 28.15 L33.55 28.25 33.7 29.05 Q34.05 30.7 35.1 32.45 L36.3 33.45 Q37.2 34.05 38.0 34.1 38.7 34.1 39.5 33.5 41.05 32.25 40.8 30.65 L40.35 29.55 Q39.7 28.3 38.35 27.15 L37.95 26.85 37.75 26.7 37.6 26.6 Q36.0 25.4 34.4 25.6 35.0 25.2 35.9 25.1 L36.1 25.25 38.1 26.4 39.75 27.7 40.0 27.95 40.95 28.1 42.25 28.15 Q45.85 28.35 47.0 24.2 L47.1 23.45 Q47.1 21.8 45.55 21.0 L44.3 20.5 39.65 20.0 38.55 20.1 38.5 20.1 37.1 20.3 37.85 19.75 39.0 19.6 38.5 18.65 Q38.95 19.35 39.8 19.5 L39.95 19.55 43.8 19.75 Q44.95 19.95 45.75 20.3 47.7 18.85 46.85 16.3 46.2 14.65 44.55 14.5 L42.9 14.7 42.8 14.7 42.5 14.75 42.15 14.85 41.8 14.95 M39.95 19.55 L39.8 19.55 39.0 19.6 39.8 19.55 39.95 19.55" fill="#f0f0d2" fill-rule="evenodd" stroke="none"/>
      <path d="M40.2 18.7 L41.75 19.0 42.05 19.0 42.05 19.05 44.65 18.8 Q46.05 18.2 46.5 17.05 47.1 18.25 45.75 20.3 44.95 19.95 43.8 19.75 L39.95 19.55 39.8 19.5 Q38.95 19.35 38.5 18.65 L38.35 18.35 38.5 17.35 Q38.65 18.1 39.7 18.5 L40.0 18.65 40.2 18.7 M38.35 25.25 L38.8 25.5 Q41.05 27.05 43.05 26.75 45.3 26.35 45.6 25.95 L44.85 27.05 Q43.75 28.1 40.95 28.1 L40.0 27.95 39.75 27.7 38.1 26.4 36.1 25.25 35.85 24.65 Q35.4 22.7 36.3 21.25 36.1 21.8 36.25 22.55 36.95 24.3 38.35 25.25 M33.55 28.25 L34.05 29.3 35.0 30.8 35.2 31.1 35.15 31.15 Q35.8 32.5 37.35 32.95 39.2 33.3 40.25 32.1 40.0 33.35 38.0 34.1 37.2 34.05 36.3 33.45 L35.1 32.45 Q34.05 30.7 33.7 29.05 L33.55 28.25" fill="#bfbf40" fill-rule="evenodd" stroke="none"/>
      <path d="M40.05 15.75 L40.85 15.3 41.8 14.95 Q44.95 14.55 45.3 15.55 45.85 16.65 44.9 17.55 43.85 18.45 41.75 19.0 L40.2 18.7 40.05 18.6 Q39.05 17.95 38.85 17.4 38.7 16.75 40.05 15.75 M38.5 20.15 L38.55 20.1 39.65 20.0 44.3 20.5 45.55 21.0 Q46.85 22.4 46.5 23.45 45.8 25.75 41.55 26.3 L40.65 26.2 Q39.6 25.95 38.8 25.5 L38.35 25.25 Q36.6 23.4 36.65 21.95 36.65 20.85 38.5 20.15 M36.65 20.8 L37.1 20.3 38.5 20.1 Q37.5 20.25 36.65 20.8 M34.05 29.3 L33.55 28.25 33.55 28.15 Q33.4 27.2 33.55 26.55 L33.75 26.3 Q35.05 25.4 37.6 26.6 L37.75 26.7 37.95 26.85 38.35 27.15 Q39.55 28.55 39.85 29.8 40.25 31.3 38.6 31.8 L36.75 31.65 35.75 31.05 34.05 29.3" fill="#d5d580" fill-rule="evenodd" stroke="none"/>
      <path d="M44.55 14.5 Q46.2 14.65 46.85 16.3 47.7 18.85 45.75 20.3 47.1 18.25 46.5 17.05 46.05 18.2 44.65 18.8 L42.05 19.05 42.05 19.0 43.95 18.65 Q46.35 17.5 46.2 16.0 46.15 14.9 44.55 14.5 M38.8 25.5 Q39.6 25.95 40.65 26.2 L41.55 26.3 Q44.35 26.5 46.0 24.85 L47.1 23.45 47.0 24.2 Q45.85 28.35 42.25 28.15 L40.95 28.1 Q43.75 28.1 44.85 27.05 L45.6 25.95 Q45.3 26.35 43.05 26.75 41.05 27.05 38.8 25.5 M38.0 34.1 Q40.0 33.35 40.25 32.1 39.2 33.3 37.35 32.95 35.8 32.5 35.15 31.15 L35.2 31.1 36.6 32.2 39.45 32.35 Q40.75 31.55 40.35 29.55 L40.8 30.65 Q41.05 32.25 39.5 33.5 38.7 34.1 38.0 34.1" fill="#a6a637" fill-rule="evenodd" stroke="none"/>
      <path d="M45.75 20.3 L46.3 20.6 Q48.2 19.25 47.5 16.5 46.55 13.2 42.9 14.2 L41.0 14.8 Q39.8 15.25 38.75 15.95 M37.85 19.75 L39.0 19.6 39.8 19.55 39.95 19.55 43.8 19.75 Q44.95 19.95 45.75 20.3 M35.85 24.65 L36.1 25.25 38.1 26.4 39.75 27.7 40.0 27.95 40.75 28.85 42.4 28.95 Q46.3 28.85 47.45 24.65 48.25 21.85 46.3 20.6 M35.9 25.1 L36.1 25.25 M40.75 28.85 Q42.4 30.95 40.75 33.0 38.85 35.7 36.2 34.1 L36.1 34.1 Q33.35 32.1 33.15 28.05" fill="none" stroke="#000000" stroke-linecap="round" stroke-linejoin="round" stroke-opacity="0.3019608" stroke-width="0.30000000000000004"/>
      <path d="M42.8 21.4 Q42.75 21.75 43.05 22.15 L43.95 22.65 44.95 22.65 45.55 22.1 Q45.7 21.7 45.35 21.35 45.05 21.0 44.4 20.8 43.9 20.65 43.4 20.8 42.9 21.0 42.8 21.4" fill="#f9f8ec" fill-rule="evenodd" stroke="none"/>
      <path d="M42.05 16.3 L42.55 16.75 43.45 16.75 44.2 16.3 Q44.5 15.95 44.4 15.65 L43.95 15.15 43.05 15.15 42.25 15.6 Q41.95 15.95 42.05 16.3" fill="#f9f8ec" fill-rule="evenodd" stroke="none"/>
      <path d="M37.95 27.95 Q37.7 28.1 37.7 28.4 37.7 28.75 37.85 29.1 L38.4 29.55 38.9 29.6 39.15 29.15 38.95 28.45 38.5 28.0 37.95 27.95" fill="#f9f8ec" fill-rule="evenodd" stroke="none"/>
      <path d="M7.55 24.3 L8.1 24.25 8.6 23.8 8.75 23.1 8.5 22.7 8.0 22.65 7.5 23.2 7.3 23.85 Q7.35 24.15 7.55 24.3" fill="#f9f8ec" fill-rule="evenodd" stroke="none"/>
      <path d="M13.95 30.8 L14.1 30.95 14.5 31.75 14.5 33.0 Q14.3 34.25 13.4 35.05 12.55 35.9 11.5 36.0 10.4 36.0 9.75 35.15 L9.65 35.0 Q10.25 35.65 11.2 35.65 12.3 35.6 13.15 34.7 14.0 33.9 14.25 32.65 L14.2 31.4 13.95 30.8" fill="#342018" fill-opacity="0.2509804" fill-rule="evenodd" stroke="none"/>
      <path d="M12.05 33.65 Q13.75 32.3 13.4 30.75 13.0 30.3 12.4 30.2 L12.05 30.2 Q11.1 30.2 10.4 30.95 9.9 31.4 9.7 31.95 L9.7 32.2 Q9.65 33.4 11.2 33.85 10.25 33.85 9.7 33.15 L9.55 32.85 9.45 32.75 9.45 32.7 Q9.2 32.3 9.55 31.65 L10.15 30.75 Q11.05 29.95 12.15 29.85 12.8 29.85 13.3 30.15 13.75 30.5 13.75 31.35 13.55 32.35 12.85 33.05 L12.05 33.65 M10.25 32.3 L10.3 32.1 10.55 31.55 Q10.7 31.35 11.0 31.25 L11.5 31.3 11.6 31.75 11.55 31.9 11.5 31.7 11.05 31.6 Q10.8 31.7 10.55 31.9 L10.25 32.3" fill="#f9f8ec" fill-rule="evenodd" stroke="none"/>
      <path d="M13.75 31.35 Q13.75 30.5 13.3 30.15 L13.8 30.6 13.8 30.65 13.95 30.8 14.2 31.4 14.25 32.65 Q14.0 33.9 13.15 34.7 12.3 35.6 11.2 35.65 10.25 35.65 9.65 35.0 L9.5 34.8 Q9.0 34.15 9.05 33.2 L9.1 32.85 9.35 32.05 9.55 31.65 Q9.2 32.3 9.45 32.7 L9.45 32.75 9.45 32.85 9.5 33.8 9.8 34.45 Q10.3 35.15 11.3 35.15 12.2 35.1 12.95 34.35 13.65 33.6 13.85 32.6 L13.9 32.3 13.75 31.35 M13.8 30.6 L13.8 30.65 13.8 30.6" fill="#f0f0d2" fill-rule="evenodd" stroke="none"/>
      <path d="M11.55 31.9 L11.25 32.3 10.7 32.65 10.35 32.55 10.25 32.3 10.55 31.9 Q10.8 31.7 11.05 31.6 L11.5 31.7 11.55 31.9" fill="#a6a637" fill-rule="evenodd" stroke="none"/>
      <path d="M9.45 32.75 L9.55 32.85 9.45 32.85 9.45 32.75" fill="url(#gradient6)" fill-rule="evenodd" stroke="none"/>
      <path d="M11.2 33.85 Q9.65 33.4 9.7 32.2 L9.7 31.95 Q9.9 31.4 10.4 30.95 11.1 30.2 12.05 30.2 L12.4 30.2 Q13.0 30.3 13.4 30.75 13.75 32.3 12.05 33.65 L11.2 33.85 M11.55 31.9 L11.6 31.75 11.5 31.3 11.0 31.25 Q10.7 31.35 10.55 31.55 L10.3 32.1 10.25 32.3 10.35 32.55 10.7 32.65 11.25 32.3 11.55 31.9" fill="#d5d580" fill-rule="evenodd" stroke="none"/>
      <path d="M11.2 33.85 L12.05 33.65 12.85 33.05 Q13.55 32.35 13.75 31.35 L13.9 32.3 13.85 32.6 Q13.65 33.6 12.95 34.35 12.2 35.1 11.3 35.15 10.3 35.15 9.8 34.45 L9.5 33.8 9.45 32.85 9.55 32.85 9.7 33.15 Q10.25 33.85 11.2 33.85" fill="#bfbf40" fill-rule="evenodd" stroke="none"/>
      <path d="M13.3 30.15 Q12.8 29.85 12.15 29.85 11.05 29.95 10.15 30.75 L9.55 31.65 9.35 32.05 9.1 32.85 9.05 33.2 Q9.0 34.15 9.5 34.8 L9.65 35.0 Q10.25 35.65 11.2 35.65 12.3 35.6 13.15 34.7 14.0 33.9 14.25 32.65 L14.2 31.4 13.95 30.8 13.8 30.65 13.8 30.6 13.3 30.15 Z" fill="none" stroke="#000000" stroke-linecap="round" stroke-linejoin="round" stroke-opacity="0.3019608" stroke-width="0.30000000000000004"/>
    </g>
    <linearGradient gradientTransform="matrix(-6.0E-4, -0.0037, -0.0065, 0.001, 22.2, 5.95)" gradientUnits="userSpaceOnUse" id="gradient0" spreadMethod="pad" x1="-819.2" x2="819.2">
      <stop offset="0.0" stop-color="#f4bb35"/>
      <stop offset="1.0" stop-color="#ff9900"/>
    </linearGradient>
    <linearGradient gradientTransform="matrix(9.0E-4, -0.0055, -0.0063, -0.001, 17.8, 15.55)" gradientUnits="userSpaceOnUse" id="gradient1" spreadMethod="pad" x1="-819.2" x2="819.2">
      <stop offset="0.0" stop-color="#cc6b22"/>
      <stop offset="1.0" stop-color="#ff9900"/>
    </linearGradient>
    <linearGradient gradientTransform="matrix(-0.0112, 0.0023, 0.0023, 0.0111, 24.2, 25.1)" gradientUnits="userSpaceOnUse" id="gradient2" spreadMethod="pad" x1="-819.2" x2="819.2">
      <stop offset="0.0" stop-color="#cc6b22"/>
      <stop offset="1.0" stop-color="#ff9900"/>
    </linearGradient>
    <linearGradient gradientTransform="matrix(0.004, -0.007, -0.0172, -0.0098, 26.9, 18.8)" gradientUnits="userSpaceOnUse" id="gradient3" spreadMethod="pad" x1="-819.2" x2="819.2">
      <stop offset="0.0" stop-color="#f4bb35"/>
      <stop offset="1.0" stop-color="#ff9900"/>
    </linearGradient>
    <linearGradient gradientTransform="matrix(-0.0012, -0.002, -0.0151, 0.0087, 29.85, 27.9)" gradientUnits="userSpaceOnUse" id="gradient4" spreadMethod="pad" x1="-819.2" x2="819.2">
      <stop offset="0.0" stop-color="#f4bb35"/>
      <stop offset="1.0" stop-color="#ff9900"/>
    </linearGradient>
    <linearGradient gradientTransform="matrix(-0.0032, 0.0018, 0.002, 0.0034, 29.95, 13.15)" gradientUnits="userSpaceOnUse" id="gradient5" spreadMethod="pad" x1="-819.2" x2="819.2">
      <stop offset="0.0" stop-color="#f4bb35"/>
      <stop offset="1.0" stop-color="#ff9900"/>
    </linearGradient>
    <linearGradient gradientTransform="matrix(0.0021, 0.0, 0.0, -0.0023, 11.8, 33.25)" gradientUnits="userSpaceOnUse" id="gradient6" spreadMethod="pad" x1="-819.2" x2="819.2">
      <stop offset="0.0" stop-color="#cc6b22"/>
      <stop offset="1.0" stop-color="#ff9900"/>
    </linearGradient>
    <g id="sprite0" transform="matrix(1.0, 0.0, 0.0, 1.0, 0.0, 0.0)">
      <use height="1.85" transform="matrix(1.0, 0.0, 0.0, 1.0, 0.0, 0.0)" width="3.35" xlink:href="#shape1"/>
    </g>
    <g id="shape1" transform="matrix(1.0, 0.0, 0.0, 1.0, 0.0, 0.0)">
      <path d="M2.85 1.55 L1.65 1.85 0.45 1.55 Q0.0 1.3 0.0 0.9 0.0 0.55 0.45 0.25 L1.65 0.0 2.85 0.25 Q3.35 0.55 3.35 0.9 3.35 1.3 2.85 1.55" fill="#ffffff" fill-rule="evenodd" stroke="none"/>
    </g>
    <g id="sprite1" transform="matrix(1.0, 0.0, 0.0, 1.0, 0.0, 0.0)">
      <use height="26.7" transform="matrix(0.0042, -1.3515, 1.3935, 0.02, 22.09, 56.0263)" width="26.7" xlink:href="#sprite2"/>
      <use height="26.7" transform="matrix(0.0095, -3.0486, 0.372, 0.0053, 36.507, 81.3775)" width="26.7" xlink:href="#sprite2"/>
      <use height="26.7" transform="matrix(3.0486, 0.0095, -0.0053, 0.372, 0.1225, 35.107)" width="26.7" xlink:href="#sprite2"/>
    </g>
    <g id="sprite2" transform="matrix(1.0, 0.0, 0.0, 1.0, 13.35, 13.35)">
      <use height="26.7" transform="matrix(1.0, 0.0, 0.0, 1.0, -13.35, -13.35)" width="26.7" xlink:href="#shape2"/>
    </g>
    <g id="shape2" transform="matrix(1.0, 0.0, 0.0, 1.0, 13.35, 13.35)">
      <path d="M9.3 -9.85 Q13.35 -5.8 13.35 0.0 13.35 5.8 9.3 9.3 5.8 13.35 0.0 13.35 -5.8 13.35 -9.85 9.3 -13.35 5.8 -13.35 0.0 -13.35 -5.8 -9.85 -9.85 -5.8 -13.35 0.0 -13.35 5.8 -13.35 9.3 -9.85" fill="url(#gradient7)" fill-rule="evenodd" stroke="none"/>
    </g>
    <radialGradient cx="0" cy="0" gradientTransform="matrix(0.0213, 0.0, 0.0, 0.0213, 0.0, 0.0)" gradientUnits="userSpaceOnUse" id="gradient7" r="819.2" spreadMethod="pad">
      <stop offset="0.19607843137254902" stop-color="#fee3bc" stop-opacity="0.5372549"/>
      <stop offset="0.5019607843137255" stop-color="#fee3bc" stop-opacity="0.08627451"/>
      <stop offset="0.7607843137254902" stop-color="#ffe3bd" stop-opacity="0.0"/>
    </radialGradient>
  </defs>
</svg>
