<?xml version="1.0" encoding="UTF-8" standalone="no"?>
<svg xmlns:xlink="http://www.w3.org/1999/xlink" height="52.0px" width="52.0px" xmlns="http://www.w3.org/2000/svg">
  <g transform="matrix(1.0, 0.0, 0.0, 1.0, 0.0, 0.0)">
    <use height="108.0" transform="matrix(1.0, 0.0, 0.0, 1.0, -28.0, -28.0)" width="108.0" xlink:href="#shape0"/>
    <use height="0.0" transform="matrix(0.1398, 0.0267, 0.0, 0.0622, 17.75, 41.65)" width="0.0" xlink:href="#sprite0"/>
    <use height="0.0" transform="matrix(0.0839, 0.0161, -0.0361, 0.0716, 17.3, 32.25)" width="0.0" xlink:href="#sprite0"/>
    <use height="0.0" transform="matrix(-0.0218, 0.1423, -0.1059, -0.0445, 35.4, 20.25)" width="0.0" xlink:href="#sprite0"/>
    <use height="0.0" transform="matrix(-0.0147, 0.0961, -0.0682, -0.0112, 11.05, 21.5)" width="0.0" xlink:href="#sprite0"/>
    <use height="81.5" transform="matrix(0.1261, 0.0, 0.0, 0.111, 22.0, 35.7)" width="81.5" xlink:href="#sprite1"/>
    <use height="81.5" transform="matrix(0.0695, 0.0, 0.0, 0.0612, 22.7, 20.2)" width="81.5" xlink:href="#sprite1"/>
    <use height="81.5" transform="matrix(0.0695, 0.0, 0.0, 0.0612, 15.9, 19.5)" width="81.5" xlink:href="#sprite1"/>
  </g>
  <defs>
    <g id="shape0" transform="matrix(1.0, 0.0, 0.0, 1.0, 28.0, 28.0)">
      <path d="M52.0 0.0 L52.0 52.0 0.0 52.0 0.0 0.0 52.0 0.0" fill="#795fa9" fill-opacity="0.0" fill-rule="evenodd" stroke="none"/>
      <path d="M5.45 19.15 Q5.0 17.4 5.1 15.45 L7.4 16.25 Q10.2 10.3 15.85 6.95 20.35 4.35 25.25 4.15 L30.8 4.6 31.35 4.75 Q33.35 5.5 35.0 6.6 38.65 9.0 40.7 13.25 42.95 17.9 42.9 22.25 L46.95 22.0 Q46.1 25.75 43.45 28.2 L41.25 29.85 Q40.1 32.3 38.4 34.05 L38.25 34.2 37.5 34.9 Q36.3 35.7 34.0 36.05 L32.8 36.2 30.8 36.25 Q31.65 39.95 30.75 44.7 L30.75 44.75 30.45 45.5 30.0 46.0 Q28.85 47.0 26.1 47.3 L24.4 47.35 Q21.05 47.35 16.95 46.25 L15.85 45.95 Q11.45 44.55 8.5 42.45 6.1 40.65 5.75 39.15 L5.75 38.2 5.8 38.1 5.95 37.7 Q7.8 32.85 10.5 30.25 L9.8 29.75 Q6.6 27.45 6.15 25.55 L6.15 25.5 6.15 25.55 Q5.45 23.1 5.85 20.35 L5.45 19.15 Z" fill="none" stroke="#000000" stroke-linecap="round" stroke-linejoin="round" stroke-opacity="0.3019608" stroke-width="1.0"/>
      <path d="M11.3 22.75 L10.85 22.45 8.3 20.25 Q6.65 18.45 5.45 15.95 L5.4 15.55 10.85 17.4 10.85 17.8 Q10.8 20.2 11.3 22.75" fill="#e6e4b3" fill-rule="evenodd" stroke="none"/>
      <path d="M5.4 15.55 L5.45 15.95 Q6.65 18.45 8.3 20.25 L10.85 22.45 11.3 22.75 11.45 23.5 11.35 23.6 9.1 21.75 8.3 20.9 Q6.65 19.05 5.6 16.8 L5.1 15.45 5.4 15.55" fill="#fbfaf2" fill-rule="evenodd" stroke="none"/>
      <path d="M5.6 16.8 Q6.65 19.05 8.3 20.9 L9.1 21.75 11.35 23.6 8.9 24.75 Q7.65 23.6 6.85 22.3 5.9 20.85 5.45 19.15 5.2 17.1 5.6 16.8" fill="#939331" fill-rule="evenodd" stroke="none"/>
      <path d="M5.1 15.45 L5.6 16.8 Q5.2 17.1 5.45 19.15 5.0 17.4 5.1 15.45" fill="#acac39" fill-rule="evenodd" stroke="none"/>
      <path d="M5.4 15.55 L5.1 15.45 Q5.0 17.4 5.45 19.15 5.9 20.85 6.85 22.3 7.65 23.6 8.9 24.75 L11.35 23.6 11.45 23.5 11.3 22.75 Q10.8 20.2 10.85 17.8 L10.85 17.4 5.4 15.55 Z" fill="none" stroke="#000000" stroke-linecap="round" stroke-linejoin="round" stroke-opacity="0.3019608" stroke-width="0.30000000000000004"/>
      <path d="M31.8 18.4 Q30.7 22.7 28.75 27.15 28.45 27.75 28.45 28.65 L28.6 29.0 Q27.85 29.7 26.9 30.0 21.65 31.3 17.2 29.15 15.05 27.6 14.65 26.35 18.15 29.45 23.45 28.2 27.3 26.5 29.05 22.1 30.7 16.35 26.1 13.05 L22.4 12.2 22.35 12.2 20.05 12.15 19.85 12.15 19.65 12.15 16.6 12.45 17.1 11.95 17.75 11.4 Q23.55 10.4 28.6 12.6 31.45 14.45 31.8 18.4" fill="#cac960" fill-rule="evenodd" stroke="none"/>
      <path d="M20.05 12.6 Q17.8 12.8 16.0 13.8 12.4 19.55 13.95 24.5 16.05 27.65 21.0 28.05 25.15 27.7 27.3 24.35 30.05 20.55 28.05 16.0 27.05 14.15 24.9 13.1 22.2 12.3 20.2 12.6 L20.05 12.6 M16.6 12.45 L19.65 12.15 19.85 12.15 20.05 12.15 22.35 12.2 22.4 12.2 26.1 13.05 Q30.7 16.35 29.05 22.1 27.3 26.5 23.45 28.2 18.15 29.45 14.65 26.35 L13.55 25.2 13.05 22.75 12.95 21.3 12.95 21.25 Q13.0 17.8 14.65 14.95 15.45 13.65 16.6 12.45" fill="#ece8c6" fill-rule="evenodd" stroke="none"/>
      <path d="M20.05 12.6 L20.2 12.6 Q22.2 12.3 24.9 13.1 27.05 14.15 28.05 16.0 30.05 20.55 27.3 24.35 25.15 27.7 21.0 28.05 16.05 27.65 13.95 24.5 12.4 19.55 16.0 13.8 17.8 12.8 20.05 12.6 M13.55 25.2 L14.65 26.35 Q15.05 27.6 17.2 29.15 21.65 31.3 26.9 30.0 27.85 29.7 28.6 29.0 L28.75 29.45 26.95 30.55 25.55 30.9 Q21.5 31.55 17.15 29.5 L16.3 28.9 Q15.0 27.95 14.45 27.2 L14.2 26.8 13.55 25.2" fill="#e6e4b3" fill-rule="evenodd" stroke="none"/>
      <path d="M22.75 8.2 Q18.0 7.95 15.15 9.4 13.0 12.3 11.8 15.7 10.3 19.1 10.2 21.5 10.15 23.5 9.25 23.2 7.35 23.1 6.6 23.9 6.0 24.1 6.1 21.3 6.9 16.7 10.65 11.7 13.9 8.1 18.6 5.8 L19.7 5.5 19.3 5.75 Q18.95 6.1 19.0 6.45 L19.6 6.85 20.7 6.8 Q21.3 6.65 21.7 6.3 L21.95 5.65 Q21.9 5.35 21.4 5.2 L20.9 5.15 26.4 4.4 Q31.05 4.7 33.55 6.1 37.15 8.55 38.3 13.55 39.2 17.9 36.6 23.75 33.2 29.55 29.55 28.25 29.3 28.15 29.3 27.25 31.35 22.4 32.4 18.4 33.4 14.35 32.7 11.3 28.1 8.6 22.75 8.2 M31.05 29.35 L31.65 29.15 32.9 28.4 Q32.0 29.15 32.55 29.5 35.05 30.7 37.05 33.25 37.7 34.3 39.1 32.65 42.2 27.75 42.5 21.85 42.45 18.25 40.95 14.5 39.65 11.5 38.0 9.6 37.4 8.85 36.65 8.65 L35.0 6.6 Q38.65 9.0 40.7 13.25 43.7 19.45 42.6 25.2 41.55 30.9 38.4 34.05 L38.25 34.2 37.5 34.9 Q36.3 35.7 34.0 36.05 37.2 35.5 36.9 33.9 35.5 31.2 31.05 29.35 M6.15 25.55 L6.15 25.5 6.15 25.55 M28.75 29.45 Q28.85 30.5 27.1 30.9 L25.55 30.9 26.95 30.55 28.75 29.45" fill="#43484e" fill-rule="evenodd" stroke="none"/>
      <path d="M32.7 11.3 Q32.8 13.45 32.55 14.85 30.65 13.45 28.6 12.6 23.55 10.4 17.75 11.4 L15.45 9.6 Q17.9 8.3 22.75 8.2 28.1 8.6 32.7 11.3 M32.9 28.4 Q37.7 25.3 38.75 18.0 39.3 12.6 36.65 8.65 37.4 8.85 38.0 9.6 39.65 11.5 40.95 14.5 42.45 18.25 42.5 21.85 42.2 27.75 39.1 32.65 37.7 34.3 37.05 33.25 35.05 30.7 32.55 29.5 32.0 29.15 32.9 28.4" fill="#272c2e" fill-rule="evenodd" stroke="none"/>
      <path d="M28.45 28.65 L30.05 28.95 31.05 29.35 Q35.5 31.2 36.9 33.9 37.2 35.5 34.0 36.05 L32.8 36.2 Q27.55 36.6 20.8 34.7 17.0 33.65 14.0 32.25 L9.8 29.75 Q6.6 27.45 6.15 25.55 L6.15 25.5 Q6.05 23.6 9.55 23.9 10.65 24.05 11.4 24.6 L14.45 27.2 Q15.0 27.95 16.3 28.9 L17.15 29.5 Q21.5 31.55 25.55 30.9 L27.1 30.9 Q28.85 30.5 28.75 29.45 L28.6 29.0 28.45 28.65" fill="#141516" fill-rule="evenodd" stroke="none"/>
      <path d="M32.7 11.3 Q33.4 14.35 32.4 18.4 31.35 22.4 29.3 27.25 29.3 28.15 29.55 28.25 33.2 29.55 36.6 23.75 39.2 17.9 38.3 13.55 37.15 8.55 33.55 6.1 31.05 4.7 26.4 4.4 L20.9 5.15 21.4 5.2 Q21.9 5.35 21.95 5.65 L21.7 6.3 Q21.3 6.65 20.7 6.8 L19.6 6.85 19.0 6.45 Q18.95 6.1 19.3 5.75 L19.7 5.5 18.6 5.8 Q13.9 8.1 10.65 11.7 6.9 16.7 6.1 21.3 6.0 24.1 6.6 23.9 7.35 23.1 9.25 23.2 10.15 23.5 10.2 21.5 10.3 19.1 11.8 15.7 13.0 12.3 15.15 9.4 18.0 7.95 22.75 8.2 17.9 8.3 15.45 9.6 12.4 14.15 10.7 19.65 L10.55 21.7 Q10.65 23.9 11.4 24.6 10.65 24.05 9.55 23.9 6.05 23.6 6.15 25.5 L6.15 25.55 Q5.45 23.05 5.85 20.25 8.4 11.4 15.85 6.95 20.35 4.35 25.25 4.15 L30.8 4.6 31.35 4.75 Q33.35 5.5 35.0 6.6 L36.65 8.65 Q39.3 12.6 38.75 18.0 37.7 25.3 32.9 28.4 L31.65 29.15 31.05 29.35 30.05 28.95 28.45 28.65 Q28.45 27.75 28.75 27.15 30.7 22.7 31.8 18.4 L32.55 14.85 Q32.8 13.45 32.7 11.3" fill="#5b6368" fill-rule="evenodd" stroke="none"/>
      <path d="M32.55 14.85 L31.8 18.4 Q31.45 14.45 28.6 12.6 30.65 13.45 32.55 14.85" fill="#b3b33c" fill-rule="evenodd" stroke="none"/>
      <path d="M11.4 24.6 Q10.65 23.9 10.55 21.7 L10.7 19.65 Q12.4 14.15 15.45 9.6 L17.75 11.4 17.1 11.95 16.6 12.45 Q15.45 13.65 14.65 14.95 13.0 17.8 12.95 21.25 L12.95 21.3 13.05 22.75 13.55 25.2 14.2 26.8 14.45 27.2 11.4 24.6" fill="#000000" fill-rule="evenodd" stroke="none"/>
      <path d="M35.0 6.6 Q33.35 5.5 31.35 4.75 L30.8 4.6 25.25 4.15 Q20.35 4.35 15.85 6.95 8.4 11.4 5.85 20.25 5.45 23.05 6.15 25.55 6.6 27.45 9.8 29.75 L14.0 32.25 Q17.0 33.65 20.8 34.7 27.55 36.6 32.8 36.2 L34.0 36.05 Q37.2 35.5 36.9 33.9 M35.0 6.6 Q38.65 9.0 40.7 13.25 43.7 19.45 42.6 25.2 41.55 30.9 38.4 34.05 L38.25 34.2 37.5 34.9 Q36.3 35.7 34.0 36.05 M6.15 25.5 L6.15 25.55 6.15 25.5" fill="none" stroke="#000000" stroke-linecap="round" stroke-linejoin="round" stroke-opacity="0.3019608" stroke-width="0.30000000000000004"/>
      <path d="M15.3 14.65 L16.0 13.65 16.6 13.1 17.9 12.95 Q18.4 13.25 18.4 14.15 18.35 15.1 17.8 16.05 L16.45 17.55 Q15.7 18.05 15.15 17.75 14.65 17.45 14.65 16.55 L14.85 15.7 Q14.95 15.15 15.3 14.65" fill="#ece8c6" fill-rule="evenodd" stroke="none"/>
      <path d="M17.6 22.2 L17.5 21.9 Q18.05 21.3 18.7 21.3 L18.95 21.3 18.95 21.9 18.8 22.35 18.7 21.95 18.55 21.8 18.25 21.75 Q17.95 21.8 17.6 22.2 M25.45 25.5 L25.25 25.55 24.6 25.7 23.5 25.85 21.0 25.7 20.25 25.55 19.65 25.4 18.2 24.9 18.75 24.55 20.05 25.05 22.0 25.05 22.4 25.05 22.95 25.0 24.05 24.55 25.05 25.05 25.45 25.5 M25.1 22.15 L24.6 22.25 24.75 21.85 Q25.6 21.9 26.1 22.65 L25.2 23.55 25.4 23.25 25.5 23.0 25.55 22.45 25.1 22.15" fill="#cc6b22" fill-rule="evenodd" stroke="none"/>
      <path d="M17.85 24.7 L18.2 24.5 18.5 24.35 18.75 24.55 18.2 24.9 17.85 24.7 M18.55 23.35 L17.6 22.2 Q17.95 21.8 18.25 21.75 L18.5 22.45 18.55 23.35 M25.85 25.35 L25.45 25.5 25.05 25.05 24.05 24.55 24.15 24.35 25.2 24.9 25.85 25.35 M24.8 23.9 L24.6 23.05 24.55 22.95 24.6 22.25 25.1 22.15 25.2 22.95 25.1 23.1 24.8 23.9 M22.0 25.05 L22.25 25.05 22.4 25.05 22.0 25.05" fill="#ffde4f" fill-rule="evenodd" stroke="none"/>
      <path d="M18.95 22.6 L18.55 23.35 18.8 22.5 18.8 22.35 18.95 21.9 18.95 21.3 19.1 21.35 19.15 21.95 19.0 22.5 18.95 22.6 M26.1 22.65 L26.2 22.8 26.0 23.05 25.75 23.3 Q25.3 23.8 24.8 23.9 L25.2 23.55 26.1 22.65 M21.8 23.7 L22.05 23.75 Q23.45 24.1 23.7 24.4 23.45 24.75 22.85 24.9 L21.6 25.0 20.2 24.9 Q19.3 24.75 19.15 24.4 L20.15 23.75 21.5 23.7 21.8 23.7" fill="#f4a33c" fill-rule="evenodd" stroke="none"/>
      <path d="M16.45 14.55 Q18.3 14.35 19.1 16.0 L19.45 17.0 18.6 15.95 Q17.55 14.85 16.45 14.55 M19.35 20.7 L18.35 20.85 17.95 21.0 Q16.5 21.5 16.25 22.5 L16.2 22.6 Q16.15 23.15 16.4 23.6 16.0 23.15 15.9 22.6 15.85 22.35 15.95 22.05 16.2 21.05 17.65 20.55 L18.05 20.45 19.15 20.25 22.2 20.35 24.65 21.0 26.15 21.75 Q27.0 22.3 27.3 22.85 L26.5 22.2 26.45 22.15 24.95 21.45 22.85 20.85 22.5 20.75 19.45 20.65 19.35 20.7 M26.95 17.55 L27.65 17.05 Q29.35 15.95 31.9 16.65 29.65 16.6 28.1 17.1 L26.95 17.55" fill="#cac960" fill-rule="evenodd" stroke="none"/>
      <path d="M18.7 21.3 L18.95 20.95 Q19.05 20.75 19.35 20.7 L19.45 20.65 22.5 20.75 22.85 20.85 23.15 21.6 Q23.35 22.3 23.2 23.05 L22.95 23.9 21.8 23.7 21.5 23.7 20.15 23.75 19.95 23.8 19.45 23.55 Q19.05 23.2 18.95 22.6 L19.0 22.5 19.15 21.95 19.1 21.35 18.95 21.3 18.7 21.3" fill="#606020" fill-rule="evenodd" stroke="none"/>
      <path d="M18.5 24.35 L19.95 23.8 20.15 23.75 19.15 24.4 Q19.3 24.75 20.2 24.9 L21.6 25.0 22.85 24.9 Q23.45 24.75 23.7 24.4 23.45 24.1 22.05 23.75 L21.8 23.7 22.95 23.9 24.15 24.35 24.05 24.55 22.95 25.0 22.4 25.05 22.25 25.05 22.0 25.05 20.05 25.05 18.75 24.55 18.5 24.35 M18.25 21.75 L18.55 21.8 18.7 21.95 18.8 22.35 18.8 22.5 18.55 23.35 18.5 22.45 18.25 21.75 M24.8 23.9 L25.1 23.1 25.2 22.95 25.1 22.15 25.55 22.45 25.5 23.0 25.4 23.25 25.2 23.55 24.8 23.9" fill="#ffff98" fill-rule="evenodd" stroke="none"/>
      <path d="M18.7 21.3 Q18.05 21.3 17.5 21.9 L17.6 22.2 18.55 23.35 18.95 22.6 Q19.05 23.2 19.45 23.55 L19.95 23.8 18.5 24.35 18.2 24.5 17.85 24.7 17.15 24.25 16.4 23.6 Q16.15 23.15 16.2 22.6 L16.25 22.5 Q16.5 21.5 17.95 21.0 L18.35 20.85 19.35 20.7 Q19.05 20.75 18.95 20.95 L18.7 21.3 M22.85 20.85 L24.95 21.45 26.45 22.15 26.5 22.2 27.3 22.85 27.45 23.75 27.4 23.85 Q27.2 24.8 25.85 25.35 L25.2 24.9 24.15 24.35 22.95 23.9 23.2 23.05 Q23.35 22.3 23.15 21.6 L22.85 20.85 M24.6 22.25 L24.55 22.95 24.6 23.05 24.8 23.9 Q25.3 23.8 25.75 23.3 L26.0 23.05 26.2 22.8 26.1 22.65 Q25.6 21.9 24.75 21.85 L24.6 22.25" fill="#404015" fill-rule="evenodd" stroke="none"/>
      <path d="M19.45 17.0 L16.45 14.55 Q17.55 14.85 18.6 15.95 L19.45 17.0 M26.95 17.55 L28.1 17.1 Q29.65 16.6 31.9 16.65 L26.95 17.55" fill="#ffffff" fill-rule="evenodd" stroke="none"/>
      <path d="M16.45 14.55 Q17.55 14.85 18.6 15.95 L19.45 17.0 M17.6 22.2 L17.5 21.9 Q18.05 21.3 18.7 21.3 L18.95 21.3 19.1 21.35 19.15 21.95 19.0 22.5 18.95 22.6 18.55 23.35 17.6 22.2 M16.4 23.6 L17.15 24.25 17.85 24.7 18.2 24.5 18.5 24.35 19.95 23.8 20.15 23.75 21.5 23.7 21.8 23.7 22.95 23.9 24.15 24.35 25.2 24.9 25.85 25.35 25.45 25.5 25.25 25.55 24.6 25.7 23.5 25.85 21.0 25.7 20.25 25.55 19.65 25.4 18.2 24.9 17.85 24.7 M27.3 22.85 L27.45 23.75 27.4 23.85 Q27.2 24.8 25.85 25.35 M24.6 22.25 L24.55 22.95 24.6 23.05 24.8 23.9 Q25.3 23.8 25.75 23.3 L26.0 23.05 26.2 22.8 26.1 22.65 Q25.6 21.9 24.75 21.85 L24.6 22.25 M26.95 17.55 L28.1 17.1 Q29.65 16.6 31.9 16.65" fill="none" stroke="#000000" stroke-linecap="round" stroke-linejoin="round" stroke-opacity="0.3019608" stroke-width="0.30000000000000004"/>
      <path d="M40.8 22.8 L46.6 22.4 Q44.65 24.5 42.6 25.8 L39.55 27.25 39.05 27.45 Q40.2 25.15 40.8 22.8" fill="#e6e4b3" fill-rule="evenodd" stroke="none"/>
      <path d="M41.45 27.05 L42.4 26.45 Q45.1 24.7 46.95 22.0 46.1 25.75 43.45 28.2 L42.05 27.75 Q41.6 27.5 41.45 27.05" fill="#cac960" fill-rule="evenodd" stroke="none"/>
      <path d="M40.8 22.8 L40.9 22.4 46.95 22.0 Q45.1 24.7 42.4 26.45 L41.45 27.05 38.85 28.25 38.7 28.15 39.05 27.45 39.55 27.25 42.6 25.8 Q44.65 24.5 46.6 22.4 L40.8 22.8" fill="#fbfaf2" fill-rule="evenodd" stroke="none"/>
      <path d="M38.85 28.25 L41.45 27.05 Q41.6 27.5 42.05 27.75 L43.45 28.2 40.9 30.0 38.85 28.25" fill="#939331" fill-rule="evenodd" stroke="none"/>
      <path d="M46.95 22.0 L40.9 22.4 40.8 22.8 Q40.2 25.15 39.05 27.45 L38.7 28.15 38.85 28.25 40.9 30.0 43.45 28.2 Q46.1 25.75 46.95 22.0 Z" fill="none" stroke="#000000" stroke-linecap="round" stroke-linejoin="round" stroke-opacity="0.3019608" stroke-width="0.30000000000000004"/>
      <path d="M27.4 30.05 L27.8 30.45 28.55 31.25 28.5 31.3 27.8 30.45 28.5 31.3 Q29.65 33.6 29.75 36.5 29.75 40.45 27.5 40.25 L24.6 38.5 Q28.6 38.3 27.8 32.3 L27.4 30.05 M24.4 47.35 Q21.05 47.35 16.95 46.25 L15.85 45.95 14.45 43.0 Q12.8 40.1 10.35 37.6 L12.65 38.85 13.15 38.85 14.4 36.8 14.3 37.75 Q14.25 38.65 14.5 39.4 17.7 38.1 19.8 37.65 L21.55 37.4 21.6 37.85 Q19.5 38.0 16.55 39.0 L15.35 39.4 14.5 39.4 15.35 39.4 16.55 39.0 Q17.85 41.35 19.9 43.5 21.85 45.5 24.4 47.35 M18.4 29.35 Q18.5 29.8 18.9 30.15 L19.3 30.45 19.3 30.5 19.15 31.75 17.7 30.4 17.65 30.35 18.3 29.45 18.4 29.35 M29.45 33.2 Q30.4 35.15 30.65 36.9 31.15 40.15 30.55 43.35 30.25 42.7 29.6 42.0 30.7 41.25 30.45 38.35 30.2 35.45 29.45 33.2 M16.05 29.15 L15.6 29.4 13.7 28.75 Q13.6 28.6 13.85 28.4 L16.05 29.15 M13.25 31.35 Q13.0 32.15 15.7 32.55 L15.75 32.85 14.65 35.8 14.65 35.85 13.1 37.95 13.9 36.55 14.4 35.75 15.3 33.05 14.5 32.55 13.3 32.1 Q13.1 31.75 13.25 31.35 M15.15 29.9 L16.25 29.2 Q16.4 29.7 16.85 30.0 L16.5 30.6 16.15 31.3 15.85 30.7 15.15 29.9 M12.35 29.25 Q10.85 30.6 9.85 32.1 L9.8 32.15 8.5 34.45 Q7.7 36.25 9.05 37.05 L8.15 36.75 6.55 36.9 Q8.1 32.9 11.65 29.7 L12.35 29.25 M14.5 32.55 L15.45 32.8 15.75 32.85 15.45 32.8 14.5 32.55" fill="#f4a33c" fill-rule="evenodd" stroke="none"/>
      <path d="M22.1 27.6 L22.3 27.65 23.15 27.9 25.4 28.8 Q26.4 29.3 27.25 29.95 27.65 32.2 27.35 33.7 26.75 37.9 22.0 37.55 L21.55 37.4 19.8 37.65 Q17.0 37.9 14.65 39.1 14.3 37.2 15.1 35.2 15.85 33.2 16.45 32.95 L18.6 33.15 19.4 32.7 19.5 32.55 Q19.95 31.8 19.6 30.05 L19.6 30.0 23.15 30.25 23.65 30.25 23.85 30.1 23.95 29.75 23.35 28.2 Q23.75 29.35 23.6 29.8 L23.35 30.0 19.45 29.75 19.4 29.7 19.4 29.75 19.25 29.3 19.3 30.45 18.9 30.15 Q18.5 29.8 18.4 29.35 L20.2 27.45 22.1 27.6 M14.15 27.85 L15.15 27.55 15.35 27.5 Q14.25 28.05 13.85 28.4 13.6 28.6 13.7 28.75 L15.6 29.4 Q13.6 30.5 13.25 31.35 13.1 31.75 13.3 32.1 L14.5 32.55 15.3 33.05 14.4 35.75 13.9 36.55 Q13.3 37.1 12.55 38.4 10.85 37.4 9.1 36.85 8.05 36.3 8.55 34.9 L9.8 32.15 9.85 32.1 Q10.85 30.6 12.35 29.25 L14.15 27.85 M23.15 27.9 L23.35 28.2 23.15 27.9 M16.15 31.4 L15.6 32.25 Q13.75 32.0 13.45 31.5 13.4 31.1 14.65 30.2 L15.15 29.9 15.85 30.7 16.15 31.3 16.15 31.4 M16.25 29.2 L16.95 28.8 16.25 29.05 Q14.5 28.75 14.3 28.4 14.2 28.25 15.35 27.7 16.6 27.1 19.0 27.2 L18.15 28.3 17.45 29.15 16.6 29.3 16.8 29.3 17.3 29.35 17.1 29.6 16.85 30.0 Q16.4 29.7 16.25 29.2 M19.15 31.75 L18.4 32.6 16.25 32.4 17.6 30.4 17.65 30.35 17.7 30.4 19.15 31.75" fill="#ffde4f" fill-rule="evenodd" stroke="none"/>
      <path d="M30.0 46.0 Q28.85 47.0 26.1 47.3 L24.4 47.35 Q21.85 45.5 19.9 43.5 17.85 41.35 16.55 39.0 19.5 38.0 21.6 37.85 26.7 39.4 29.1 41.8 31.45 44.25 30.0 46.0 M15.85 45.95 Q11.45 44.55 8.5 42.45 6.1 40.65 5.75 39.15 5.9 36.8 8.15 36.75 L9.05 37.05 10.35 37.6 Q12.8 40.1 14.45 43.0 L15.85 45.95 M19.3 27.1 L19.9 27.45 18.0 29.5 17.8 29.8 15.85 32.55 18.7 32.65 18.85 32.6 19.2 32.25 19.4 32.7 18.6 33.15 16.45 32.95 15.75 32.85 15.85 32.55 15.75 32.85 15.7 32.55 15.8 32.3 16.15 31.4 16.15 31.3 16.5 30.6 16.85 30.0 17.1 29.6 17.3 29.35 17.5 29.65 17.45 29.15 18.15 28.3 19.3 27.1 M19.45 29.75 L23.35 30.0 23.6 29.8 23.85 30.1 23.65 30.25 23.15 30.25 19.6 30.0 19.45 29.75" fill="#cc6b22" fill-rule="evenodd" stroke="none"/>
      <path d="M27.25 29.95 L27.4 30.05 27.8 32.3 Q28.6 38.3 24.6 38.5 L27.5 40.25 27.95 40.6 29.6 42.0 Q30.25 42.7 30.55 43.35 31.15 40.15 30.65 36.9 30.4 35.15 29.45 33.2 L28.5 31.3 28.55 31.25 Q32.35 36.35 30.75 44.7 L30.75 44.75 30.45 45.5 30.0 46.0 Q31.45 44.25 29.1 41.8 26.7 39.4 21.6 37.85 L21.55 37.4 22.0 37.55 Q26.75 37.9 27.35 33.7 27.65 32.2 27.25 29.95 M5.75 39.15 L5.75 38.2 5.8 38.1 5.95 37.7 Q9.0 29.85 14.15 27.85 L12.35 29.25 11.65 29.7 Q8.1 32.9 6.55 36.9 L8.15 36.75 Q5.9 36.8 5.75 39.15 M15.55 27.4 L16.9 27.1 19.3 27.1 18.15 28.3 19.0 27.2 Q16.6 27.1 15.35 27.7 14.2 28.25 14.3 28.4 14.5 28.75 16.25 29.05 L16.95 28.8 16.25 29.2 15.15 29.9 14.65 30.2 Q13.4 31.1 13.45 31.5 13.75 32.0 15.6 32.25 L16.15 31.4 15.8 32.3 15.7 32.55 Q13.0 32.15 13.25 31.35 13.6 30.5 15.6 29.4 L16.05 29.15 13.85 28.4 Q14.25 28.05 15.35 27.5 L15.55 27.4 M19.9 27.45 L20.2 27.2 22.1 27.6 20.2 27.45 18.4 29.35 18.3 29.45 17.65 30.35 17.6 30.4 16.25 32.4 18.4 32.6 19.15 31.75 19.3 30.5 19.3 30.45 19.25 29.3 19.4 29.75 19.45 30.8 19.5 31.2 19.2 32.25 18.85 32.6 18.7 32.65 15.85 32.55 17.8 29.8 18.0 29.5 19.9 27.45 M19.8 37.65 Q17.7 38.1 14.5 39.4 14.25 38.65 14.3 37.75 L14.4 36.8 14.65 35.85 14.65 35.8 15.75 32.85 16.45 32.95 Q15.85 33.2 15.1 35.2 14.3 37.2 14.65 39.1 17.0 37.9 19.8 37.65 M17.5 29.65 L17.45 29.3 17.45 29.25 16.6 29.3 17.45 29.15 17.5 29.65 M9.8 32.15 L8.55 34.9 Q8.05 36.3 9.1 36.85 10.85 37.4 12.55 38.4 13.3 37.1 13.9 36.55 L13.1 37.95 12.65 38.85 10.35 37.6 9.05 37.05 Q7.7 36.25 8.5 34.45 L9.8 32.15" fill="#ffff98" fill-rule="evenodd" stroke="none"/>
      <path d="M17.3 29.35 L16.8 29.3 16.6 29.3 17.45 29.25 17.45 29.3 17.5 29.65 17.3 29.35" fill="#8f3600" fill-rule="evenodd" stroke="none"/>
      <path d="M19.4 29.75 L19.4 29.7 19.45 29.75 19.6 30.0 19.6 30.05 Q19.95 31.8 19.5 32.55 L19.4 32.7 19.2 32.25 19.5 31.2 19.45 30.8 19.4 29.75 M23.6 29.8 Q23.75 29.35 23.35 28.2 L23.95 29.75 23.85 30.1 23.6 29.8 M28.5 31.3 L29.45 33.2 Q30.2 35.45 30.45 38.35 30.7 41.25 29.6 42.0 L27.95 40.6 27.5 40.25 Q29.75 40.45 29.75 36.5 29.65 33.6 28.5 31.3 M14.65 35.85 L14.4 36.8 13.15 38.85 12.65 38.85 13.1 37.95 14.65 35.85" fill="#a34100" fill-rule="evenodd" stroke="none"/>
      <path d="M22.1 27.6 L22.3 27.65 23.15 27.9 25.4 28.8 Q26.4 29.3 27.25 29.95 L27.4 30.05 27.8 30.45 28.55 31.25 Q32.35 36.35 30.75 44.7 L30.75 44.75 30.7 44.95 30.45 45.5 30.0 46.0 Q28.85 47.0 26.1 47.3 L24.4 47.35 Q21.05 47.35 16.95 46.25 L15.85 45.95 Q11.45 44.55 8.5 42.45 6.1 40.65 5.75 39.15 L5.75 38.2 5.8 38.1 5.95 37.7 Q9.0 29.85 14.15 27.85 L15.15 27.55 15.35 27.5 15.55 27.4 16.9 27.1 19.3 27.1 19.9 27.45 20.2 27.2 22.1 27.6 M23.35 28.2 L23.15 27.9 M23.85 30.1 L23.95 29.75 23.35 28.2 M19.6 30.0 L23.15 30.25 23.65 30.25 23.85 30.1 M27.8 30.45 L28.5 31.3 M21.6 37.85 L21.55 37.4 M14.5 39.4 L15.35 39.4 16.55 39.0 Q19.5 38.0 21.6 37.85 M30.45 45.5 L30.75 44.75 M15.6 29.4 L16.05 29.15 M13.85 28.4 Q13.6 28.6 13.7 28.75 L15.6 29.4 Q13.6 30.5 13.25 31.35 13.1 31.75 13.3 32.1 L14.5 32.55 15.45 32.8 15.75 32.85 16.45 32.95 18.6 33.15 19.4 32.7 19.5 32.55 Q19.95 31.8 19.6 30.05 L19.6 30.0 M19.9 27.45 L18.0 29.5 17.8 29.8 15.85 32.55 15.75 32.85 14.65 35.8 14.65 35.85 14.4 36.8 14.3 37.75 Q14.25 38.65 14.5 39.4 M13.85 28.4 Q14.25 28.05 15.35 27.5 L15.55 27.4 M15.7 32.55 L15.75 32.85 M9.05 37.05 L10.35 37.6 12.65 38.85 13.15 38.85 14.4 36.8 M9.05 37.05 L8.15 36.75 M5.95 37.7 L5.8 38.1" fill="none" stroke="#000000" stroke-linecap="round" stroke-linejoin="round" stroke-opacity="0.3019608" stroke-width="0.30000000000000004"/>
    </g>
    <g id="sprite1" transform="matrix(1.0, 0.0, 0.0, 1.0, 0.0, 0.0)">
      <use height="26.7" transform="matrix(0.0042, -1.3515, 1.3935, 0.02, 22.09, 56.0263)" width="26.7" xlink:href="#sprite2"/>
      <use height="26.7" transform="matrix(0.0095, -3.0486, 0.372, 0.0053, 36.507, 81.3775)" width="26.7" xlink:href="#sprite2"/>
      <use height="26.7" transform="matrix(3.0486, 0.0095, -0.0053, 0.372, 0.1225, 35.107)" width="26.7" xlink:href="#sprite2"/>
    </g>
    <g id="sprite2" transform="matrix(1.0, 0.0, 0.0, 1.0, 13.35, 13.35)">
      <use height="26.7" transform="matrix(1.0, 0.0, 0.0, 1.0, -13.35, -13.35)" width="26.7" xlink:href="#shape1"/>
    </g>
    <g id="shape1" transform="matrix(1.0, 0.0, 0.0, 1.0, 13.35, 13.35)">
      <path d="M9.3 -9.85 Q13.35 -5.8 13.35 0.0 13.35 5.8 9.3 9.3 5.8 13.35 0.0 13.35 -5.8 13.35 -9.85 9.3 -13.35 5.8 -13.35 0.0 -13.35 -5.8 -9.85 -9.85 -5.8 -13.35 0.0 -13.35 5.8 -13.35 9.3 -9.85" fill="url(#gradient0)" fill-rule="evenodd" stroke="none"/>
    </g>
    <radialGradient cx="0" cy="0" gradientTransform="matrix(0.0213, 0.0, 0.0, 0.0213, 0.0, 0.0)" gradientUnits="userSpaceOnUse" id="gradient0" r="819.2" spreadMethod="pad">
      <stop offset="0.19607843137254902" stop-color="#fee3bc" stop-opacity="0.40784314"/>
      <stop offset="0.5019607843137255" stop-color="#fee3bc" stop-opacity="0.0627451"/>
      <stop offset="0.7607843137254902" stop-color="#ffe3bd" stop-opacity="0.0"/>
    </radialGradient>
  </defs>
</svg>
