<?xml version="1.0" encoding="UTF-8" standalone="no"?>
<svg xmlns:xlink="http://www.w3.org/1999/xlink" height="52.0px" width="52.0px" xmlns="http://www.w3.org/2000/svg">
  <g transform="matrix(1.0, 0.0, 0.0, 1.0, 0.0, 0.0)">
    <use height="54.0" transform="matrix(1.0, 0.0, 0.0, 1.0, -1.0, -1.0)" width="54.0" xlink:href="#shape0"/>
    <use height="0.0" transform="matrix(0.1428, 0.0, -0.0134, 0.1746, 36.25, 22.3)" width="0.0" xlink:href="#sprite0"/>
    <use height="0.0" transform="matrix(0.0657, 0.0096, -0.0019, 0.0246, 39.35, 7.45)" width="0.0" xlink:href="#sprite0"/>
    <use height="0.0" transform="matrix(0.0595, -0.007, 0.0136, 0.0725, 24.1, 42.45)" width="0.0" xlink:href="#sprite0"/>
    <use height="0.0" transform="matrix(0.0247, 0.0195, -0.0389, 0.0568, 7.95, 32.0)" width="0.0" xlink:href="#sprite0"/>
    <use height="81.5" transform="matrix(0.1478, 0.0, 0.0, 0.147, 32.05, 14.65)" width="81.5" xlink:href="#sprite1"/>
    <use height="81.5" transform="matrix(0.1012, 0.0, 0.0, 0.1006, 32.05, 3.25)" width="81.5" xlink:href="#sprite1"/>
    <use height="156.85" transform="matrix(0.0185, -0.3298, -0.1857, -0.0141, 46.7251, 42.4016)" width="73.1" xlink:href="#sprite3"/>
    <use height="156.85" transform="matrix(0.0374, -0.2413, -0.1422, -0.044, 39.3657, 30.1428)" width="73.1" xlink:href="#sprite3"/>
  </g>
  <defs>
    <g id="shape0" transform="matrix(1.0, 0.0, 0.0, 1.0, 1.0, 1.0)">
      <path d="M52.0 0.0 L52.0 52.0 0.0 52.0 0.0 0.0 52.0 0.0" fill="#795fa9" fill-opacity="0.0" fill-rule="evenodd" stroke="none"/>
      <path d="M17.7 15.1 L16.8 16.85 Q16.55 17.65 16.6 18.35 L16.9 19.15 Q15.85 21.15 15.25 23.45 14.8 25.3 14.65 27.1 L16.95 32.45 21.7 37.25 18.8 37.3 Q17.25 37.6 15.5 39.0 L14.65 41.0 15.4 43.9 16.65 46.0 19.3 48.45 22.65 48.95 Q26.45 49.35 30.0 45.95 L27.7 45.95 30.95 43.85 29.4 41.3 36.3 42.65 37.45 41.95 Q41.7 39.15 43.9 34.7 L44.4 33.65 45.5 30.4 45.7 29.45 46.75 29.2 Q48.1 28.55 48.2 26.25 47.9 24.6 47.25 23.5 49.1 22.9 48.6 19.35 48.15 17.6 46.75 16.5 L46.5 16.3 Q45.85 15.8 44.95 15.45 L43.85 12.95 44.1 12.6 44.65 11.45 44.7 9.95 44.4 9.05 43.75 8.0 43.65 7.85 Q42.3 6.3 40.0 5.7 L39.75 5.6 37.55 5.4 Q36.55 5.45 35.65 5.85 L34.65 6.35 Q33.5 7.1 33.15 8.4 L33.1 8.55 32.7 8.6 32.55 8.65 Q28.75 9.2 25.35 10.95 24.95 10.6 24.15 10.55 22.7 10.55 20.85 11.85 18.95 13.2 17.7 15.1 M13.4 25.8 L13.75 32.1 11.55 37.05 7.75 38.0 5.4 37.15 3.8 36.25 3.3 35.9 Q3.35 34.75 3.85 33.75 7.0 27.5 13.05 25.95 L13.4 25.8 M9.95 39.85 L8.85 44.55 Q9.8 45.15 10.8 43.65 L12.65 40.95 13.05 39.0 9.95 39.85 M7.3 39.7 L5.3 40.3 5.6 40.85 6.4 42.1 7.35 42.8 8.75 40.65 8.2 39.7 7.3 39.7 M16.0 36.9 L18.9 35.9 17.75 34.45 16.15 35.15 16.0 35.7 16.0 36.9" fill="none" stroke="#000000" stroke-linecap="round" stroke-linejoin="round" stroke-opacity="0.3019608" stroke-width="1.0"/>
      <path d="M33.05 8.8 L33.15 8.4 Q33.5 7.1 34.65 6.35 L35.65 5.85 Q36.55 5.45 37.55 5.4 35.05 6.05 34.25 7.15 L35.65 7.2 Q38.25 6.4 41.5 8.25 43.1 8.75 42.9 7.7 42.45 6.9 39.75 5.6 L40.0 5.7 Q42.3 6.3 43.65 7.85 43.1 9.8 41.25 8.75 39.45 7.65 36.95 7.35 35.55 7.1 33.05 8.8" fill="#d0c586" fill-rule="evenodd" stroke="none"/>
      <path d="M37.55 5.4 L39.75 5.6 Q42.45 6.9 42.9 7.7 43.1 8.75 41.5 8.25 38.25 6.4 35.65 7.2 L34.25 7.15 Q35.05 6.05 37.55 5.4" fill="#bfb072" fill-rule="evenodd" stroke="none"/>
      <path d="M43.65 7.85 L43.75 8.0 44.4 9.05 Q43.5 10.8 42.2 10.2 40.75 9.1 38.3 8.25 35.8 7.35 33.05 9.1 L33.05 8.8 Q35.55 7.1 36.95 7.35 39.45 7.65 41.25 8.75 43.1 9.8 43.65 7.85 M44.7 9.95 L44.65 11.45 44.1 12.6 43.3 11.45 Q44.0 9.45 44.7 9.95" fill="#a89e64" fill-rule="evenodd" stroke="none"/>
      <path d="M44.4 9.05 L44.7 9.95 Q44.0 9.45 43.3 11.45 L44.1 12.6 Q43.45 13.5 42.15 14.0 L37.75 14.15 Q35.35 13.5 34.0 11.8 32.95 10.5 33.05 9.1 35.8 7.35 38.3 8.25 40.75 9.1 42.2 10.2 43.5 10.8 44.4 9.05" fill="#696141" fill-rule="evenodd" stroke="none"/>
      <path d="M33.05 8.8 L33.15 8.4 Q33.5 7.1 34.65 6.35 L35.65 5.85 Q36.55 5.45 37.55 5.4 L39.75 5.6 40.0 5.7 Q42.3 6.3 43.65 7.85 L43.75 8.0 44.4 9.05 44.7 9.95 44.65 11.45 44.1 12.6 Q43.45 13.5 42.15 14.0 L37.75 14.15 Q35.35 13.5 34.0 11.8 32.95 10.5 33.05 9.1 L33.05 8.8 Z" fill="none" stroke="#000000" stroke-linecap="round" stroke-linejoin="round" stroke-opacity="0.3019608" stroke-width="0.30000000000000004"/>
      <path d="M33.45 36.65 L33.95 37.25 33.85 37.3 33.45 36.65" fill="#ca5202" fill-rule="evenodd" stroke="none"/>
      <path d="M28.5 30.5 L27.25 32.65 26.35 36.25 26.35 34.7 26.35 32.45 28.5 30.5 M25.55 39.95 L25.95 38.1 26.4 39.45 25.55 39.95" fill="#154026" fill-rule="evenodd" stroke="none"/>
      <path d="M32.7 8.6 L35.9 9.0 Q39.15 10.05 40.55 13.95 L41.05 16.35 41.1 16.5 41.35 19.65 41.35 20.55 Q41.15 25.05 38.7 28.55 L37.55 29.95 36.6 30.95 33.25 33.3 Q32.6 34.15 32.95 34.95 L33.95 37.25 33.45 36.65 33.45 36.6 32.4 34.95 Q31.7 33.3 29.35 32.8 L31.3 33.05 Q34.3 31.8 36.8 29.35 L37.7 28.45 38.7 28.55 37.7 28.45 33.55 28.0 38.25 27.8 38.4 27.65 Q40.25 24.4 40.35 20.2 L39.15 20.85 40.35 19.65 40.3 17.95 39.15 20.35 40.2 17.25 40.05 16.0 39.65 14.1 Q38.75 9.35 34.4 9.15 27.85 9.05 22.8 13.3 L22.5 13.55 Q20.45 15.35 18.65 17.8 15.9 22.25 15.6 27.6 L15.55 27.95 14.65 27.1 Q14.8 25.3 15.3 23.45 16.9 17.15 21.75 13.3 L22.8 12.5 23.45 12.1 Q27.65 9.35 32.55 8.65 L32.7 8.6 M41.05 16.35 L40.3 17.95 41.05 16.35 M41.35 19.65 L40.35 20.2 41.35 19.65 M16.8 29.15 L20.2 31.45 25.25 32.4 20.35 32.05 19.85 33.6 19.2 31.35 16.8 29.15 M25.85 32.4 L28.3 30.15 30.8 29.1 28.5 30.5 26.35 32.45 26.35 34.7 25.85 32.4" fill="#d0c586" fill-rule="evenodd" stroke="none"/>
      <path d="M35.9 9.0 L32.7 8.6 35.55 8.4 Q39.55 8.3 42.05 10.65 L41.9 11.6 42.05 10.65 Q43.95 12.45 45.0 15.6 L45.25 16.45 44.85 16.8 45.25 16.45 45.85 18.9 46.3 22.4 Q46.5 26.4 45.5 30.4 L44.4 33.6 44.1 33.05 44.4 33.6 43.95 34.7 Q41.7 39.15 37.45 41.95 L36.3 42.65 36.2 41.15 33.85 37.3 33.95 37.25 36.45 40.45 36.8 41.6 Q40.6 39.3 43.45 34.3 L43.85 33.5 42.65 30.45 44.1 33.05 Q45.9 27.35 45.7 22.2 L45.25 18.6 45.05 17.45 42.1 19.05 44.85 16.8 Q43.75 13.1 41.9 11.6 39.05 8.9 35.9 9.0 M15.55 27.95 L15.6 27.6 Q15.9 22.25 18.65 17.8 20.45 15.35 22.5 13.55 L22.8 13.3 Q27.85 9.05 34.4 9.15 38.75 9.35 39.65 14.1 L40.05 16.0 40.2 17.25 39.15 20.35 40.3 17.95 40.35 19.65 39.15 20.85 38.85 21.05 39.15 20.85 40.35 20.2 Q40.25 24.4 38.4 27.65 L38.25 27.8 33.55 28.0 37.7 28.45 36.8 29.35 Q34.3 31.8 31.3 33.05 L29.35 32.8 27.25 32.65 28.5 30.5 30.8 29.1 32.8 27.95 38.85 21.05 39.15 20.35 38.85 21.05 32.8 27.95 30.8 29.1 28.3 30.15 25.85 32.4 25.25 32.4 20.2 31.45 16.8 29.15 15.55 27.95 M32.8 27.95 L33.2 28.0 32.8 27.95" fill="#bfb072" fill-rule="evenodd" stroke="none"/>
      <path d="M41.05 16.35 L40.55 13.95 Q39.15 10.05 35.9 9.0 39.05 8.9 41.9 11.6 L41.05 16.35 41.9 11.6 Q43.75 13.1 44.85 16.8 L42.1 19.05 45.05 17.45 45.25 18.6 45.7 22.2 Q45.9 27.35 44.1 33.05 L42.65 30.45 38.7 28.55 42.65 30.45 43.85 33.5 43.45 34.3 Q40.6 39.3 36.8 41.6 L36.45 40.45 33.95 37.25 32.95 34.95 Q32.6 34.15 33.25 33.3 L36.6 30.95 37.55 29.95 38.7 28.55 Q41.15 25.05 41.35 20.55 L41.35 19.65 41.1 16.5 41.05 16.35 M41.35 19.65 L42.1 19.05 41.35 19.65 M31.75 35.5 L29.35 37.55 28.15 40.35 28.9 37.35 28.65 33.4 27.25 32.65 29.35 32.8 29.35 36.55 31.75 35.5" fill="#a89e64" fill-rule="evenodd" stroke="none"/>
      <path d="M29.35 32.8 Q31.7 33.3 32.4 34.95 L31.75 35.5 29.35 36.55 29.35 32.8 M19.85 34.5 L23.25 38.85 16.95 32.45 19.85 34.5" fill="#696141" fill-rule="evenodd" stroke="none"/>
      <path d="M14.65 27.1 L15.55 27.95 16.8 29.15 19.2 31.35 19.85 33.6 19.85 34.5 16.95 32.45 14.65 27.1 M36.2 41.15 L36.3 42.65 34.3 42.25 36.2 41.15 M28.15 40.35 L27.85 41.0 26.7 40.5 26.4 39.45 25.95 38.1 26.35 36.25 27.25 32.65 28.65 33.4 28.9 37.35 28.15 40.35" fill="#5f5a3a" fill-rule="evenodd" stroke="none"/>
      <path d="M32.4 34.95 L33.45 36.6 33.45 36.65 33.85 37.3 36.2 41.15 34.3 42.25 27.85 41.0 28.15 40.35 29.35 37.55 31.75 35.5 32.4 34.95 M25.25 32.4 L25.85 32.4 26.35 34.7 26.35 36.25 25.95 38.1 25.55 39.95 23.25 38.85 19.85 34.5 19.85 33.6 20.35 32.05 25.25 32.4" fill="#49432e" fill-rule="evenodd" stroke="none"/>
      <path d="M32.7 8.6 L32.55 8.65 Q27.65 9.35 23.45 12.1 L22.8 12.5 21.75 13.3 Q16.9 17.15 15.3 23.45 14.8 25.3 14.65 27.1 L15.55 27.95 16.8 29.15 19.2 31.35 M39.15 20.35 L40.3 17.95 41.05 16.35 41.9 11.6 42.05 10.65 Q39.55 8.3 35.55 8.4 L32.7 8.6 M44.85 16.8 L45.25 16.45 45.0 15.6 Q43.95 12.45 42.05 10.65 M42.1 19.05 L41.35 19.65 40.35 20.2 39.15 20.85 38.85 21.05 39.15 20.35 M38.7 28.55 L42.65 30.45 44.1 33.05 44.4 33.6 45.5 30.4 Q46.5 26.4 46.3 22.4 L45.85 18.9 45.25 16.45 M42.1 19.05 L44.85 16.8 M30.8 29.1 L32.8 27.95 38.85 21.05 M33.2 28.0 L32.8 27.95 M32.4 34.95 L33.45 36.6 M38.7 28.55 L37.7 28.45 33.55 28.0 M33.45 36.65 L33.85 37.3 36.2 41.15 36.3 42.65 37.45 41.95 Q41.7 39.15 43.95 34.7 L44.4 33.6 M32.4 34.95 L31.75 35.5 29.35 37.55 28.15 40.35 27.85 41.0 34.3 42.25 36.2 41.15 M25.25 32.4 L25.85 32.4 M30.8 29.1 L28.5 30.5 27.25 32.65 26.35 36.25 26.35 34.7 26.35 32.45 28.5 30.5 M19.85 33.6 L19.85 34.5 23.25 38.85 25.55 39.95 25.95 38.1 26.35 36.25 M19.85 33.6 L20.35 32.05 25.25 32.4 M19.85 34.5 L16.95 32.45 23.25 38.85 M25.95 38.1 L26.4 39.45 26.7 40.5 27.85 41.0 M26.4 39.45 L25.55 39.95 M16.95 32.45 L14.65 27.1 M36.3 42.65 L34.3 42.25" fill="none" stroke="#000000" stroke-linecap="round" stroke-linejoin="round" stroke-opacity="0.3019608" stroke-width="0.30000000000000004"/>
      <path d="M25.35 12.25 L25.45 12.25 25.35 12.45 25.35 12.25" fill="#ea6004" fill-rule="evenodd" stroke="none"/>
      <path d="M25.35 12.25 L25.25 11.95 Q25.05 11.05 23.9 11.0 22.6 11.0 20.9 12.2 19.2 13.4 18.05 15.1 L17.25 16.7 Q17.1 17.05 17.1 17.35 L16.8 16.85 Q17.1 16.05 17.75 15.1 18.95 13.2 20.85 11.85 22.75 10.55 24.2 10.6 25.4 10.6 25.7 11.6 L25.45 12.25 25.35 12.25" fill="#ffff98" fill-rule="evenodd" stroke="none"/>
      <path d="M17.1 17.35 Q17.1 17.05 17.25 16.7 L18.05 15.1 Q19.2 13.4 20.9 12.2 22.6 11.0 23.9 11.0 25.05 11.05 25.25 11.95 L25.35 12.25 25.35 12.45 24.8 13.35 Q23.55 15.25 21.7 16.55 19.8 17.9 18.35 17.85 17.5 17.85 17.1 17.35" fill="#ffde4f" fill-rule="evenodd" stroke="none"/>
      <path d="M25.45 12.25 L25.7 11.6 25.75 11.95 Q25.9 13.3 24.65 15.15 23.45 17.05 21.55 18.4 19.65 19.7 18.2 19.7 16.75 19.65 16.65 18.35 16.55 17.65 16.8 16.85 L17.1 17.35 17.1 18.05 Q17.2 19.25 18.5 19.25 19.8 19.25 21.5 18.1 23.25 16.9 24.35 15.15 25.35 13.6 25.35 12.45 L25.45 12.25" fill="#f4a33c" fill-rule="evenodd" stroke="none"/>
      <path d="M17.1 17.35 Q17.5 17.85 18.35 17.85 19.8 17.9 21.7 16.55 23.55 15.25 24.8 13.35 L25.35 12.45 Q25.35 13.6 24.35 15.15 23.25 16.9 21.5 18.1 19.8 19.25 18.5 19.25 17.2 19.25 17.1 18.05 L17.1 17.35" fill="#cc6b22" fill-rule="evenodd" stroke="none"/>
      <path d="M25.7 11.6 Q25.4 10.6 24.2 10.6 22.75 10.55 20.85 11.85 18.95 13.2 17.75 15.1 17.1 16.05 16.8 16.85 16.55 17.65 16.65 18.35 16.75 19.65 18.2 19.7 19.65 19.7 21.55 18.4 23.45 17.05 24.65 15.15 25.9 13.3 25.75 11.95 L25.7 11.6 Z" fill="none" stroke="#000000" stroke-linecap="round" stroke-linejoin="round" stroke-opacity="0.3019608" stroke-width="0.30000000000000004"/>
      <path d="M23.35 11.65 Q19.7 12.75 18.4 15.95 20.55 13.3 23.35 11.65 M24.05 11.3 Q20.8 13.25 18.05 16.45 19.4 12.2 24.05 11.3" fill="#fdcc0b" fill-opacity="0.5019608" fill-rule="evenodd" stroke="none"/>
      <path d="M23.35 11.65 Q20.55 13.3 18.4 15.95 19.7 12.75 23.35 11.65" fill="#5f5a3a" fill-rule="evenodd" stroke="none"/>
      <path d="M40.4 16.1 Q41.8 15.8 42.0 15.45 42.0 14.85 38.75 15.5 36.4 15.8 34.85 17.3 33.25 19.5 33.75 22.15 35.0 23.55 38.6 22.65 40.75 22.0 41.15 21.45 40.7 20.75 38.5 21.2 36.45 21.45 36.55 19.5 36.55 20.7 38.7 20.75 L39.45 20.6 39.75 20.55 41.2 20.55 Q41.7 20.85 41.8 21.25 42.0 21.95 40.5 22.75 L37.9 23.25 33.95 23.1 Q32.8 22.3 33.25 19.9 33.7 17.5 35.3 16.35 36.95 15.2 41.55 14.7 L42.25 14.75 42.6 15.35 Q42.6 15.9 40.4 16.1" fill="#ffff98" fill-rule="evenodd" stroke="none"/>
      <path d="M40.4 16.1 L39.9 16.15 39.85 16.15 39.6 16.2 Q37.2 16.55 36.8 17.85 L36.7 18.75 Q36.55 19.15 36.55 19.5 36.45 21.45 38.5 21.2 40.7 20.75 41.15 21.45 40.75 22.0 38.6 22.65 35.0 23.55 33.75 22.15 33.25 19.5 34.85 17.3 36.4 15.8 38.75 15.5 42.0 14.85 42.0 15.45 41.8 15.8 40.4 16.1 M47.05 17.6 L46.8 17.35 46.35 16.95 Q44.8 15.7 42.6 15.35 L42.25 14.75 Q44.95 15.15 46.55 16.3 L46.8 16.5 Q48.15 17.6 48.6 19.35 49.1 22.9 47.25 23.5 L47.05 23.1 Q48.0 22.7 48.1 21.5 48.45 19.65 47.85 18.6 L47.05 17.6 M46.85 22.85 L47.05 23.1 47.25 23.5 Q47.95 24.6 48.2 26.25 48.1 28.55 46.8 29.2 L45.7 29.45 45.75 28.85 46.8 28.25 47.25 27.65 Q48.0 25.95 47.25 24.35 L46.8 23.75 46.75 23.65 45.05 22.15 Q43.55 21.2 41.8 21.25 41.7 20.85 41.2 20.55 L42.3 20.65 42.75 20.75 Q43.8 20.95 44.9 21.45 L45.1 21.55 45.2 21.6 45.25 21.65 Q46.15 22.05 46.8 22.8 L46.85 22.85" fill="#ffde4f" fill-rule="evenodd" stroke="none"/>
      <path d="M36.8 17.85 Q37.2 16.55 39.6 16.2 L39.85 16.15 39.9 16.15 40.4 16.1 Q42.6 15.9 42.6 15.35 44.8 15.7 46.35 16.95 L46.8 17.35 47.05 17.6 Q47.85 19.65 46.95 19.85 47.05 19.4 46.05 18.45 L46.0 18.4 Q44.05 17.2 41.85 16.85 39.35 16.5 36.8 17.85 M37.9 23.25 L40.5 22.75 Q42.0 21.95 41.8 21.25 43.55 21.2 45.05 22.15 L46.75 23.65 46.75 23.75 46.8 24.0 46.8 25.45 46.3 26.0 Q45.65 24.8 44.55 24.1 L44.0 23.75 Q42.15 22.85 39.4 23.3 L37.9 23.25" fill="#f4a33c" fill-rule="evenodd" stroke="none"/>
      <path d="M36.7 18.75 L36.8 17.85 Q39.35 16.5 41.85 16.85 44.05 17.2 46.0 18.4 L46.05 18.45 Q47.05 19.4 46.95 19.85 47.85 19.65 47.05 17.6 L47.85 18.6 Q48.45 19.65 48.1 21.5 48.0 22.7 47.05 23.1 L46.85 22.85 47.05 21.0 46.8 20.5 46.4 19.95 46.3 19.8 45.8 19.25 45.65 19.1 45.25 18.85 Q44.1 18.05 42.6 17.9 L41.95 17.8 Q40.55 17.6 39.3 17.8 L38.65 17.95 Q37.6 18.2 36.7 18.75 M33.95 23.1 L37.9 23.25 39.4 23.3 Q42.15 22.85 44.0 23.75 L44.55 24.1 Q45.65 24.8 46.3 26.0 L46.8 25.45 46.8 24.0 46.75 23.75 46.8 23.75 47.25 24.35 Q48.0 25.95 47.25 27.65 L46.8 28.25 45.75 28.85 45.85 27.5 45.25 25.95 44.3 24.95 43.85 24.65 Q42.2 23.75 38.6 24.25 35.45 24.05 33.95 23.1" fill="#cc6b22" fill-rule="evenodd" stroke="none"/>
      <path d="M46.75 23.75 L46.75 23.65 46.8 23.75 46.75 23.75" fill="#6d2c01" fill-rule="evenodd" stroke="none"/>
      <path d="M36.55 19.5 Q36.55 19.15 36.7 18.75 37.6 18.2 38.65 17.95 L39.45 20.6 38.7 20.75 Q36.55 20.7 36.55 19.5 M39.3 17.8 Q40.55 17.6 41.95 17.8 L42.3 20.65 41.2 20.55 39.75 20.55 39.3 17.8" fill="#f9f8ec" fill-rule="evenodd" stroke="none"/>
      <path d="M42.6 17.9 Q44.1 18.05 45.25 18.85 L44.9 21.45 Q43.8 20.95 42.75 20.75 L42.6 17.9" fill="#f0f0d2" fill-rule="evenodd" stroke="none"/>
      <path d="M38.65 17.95 L39.3 17.8 39.75 20.55 39.45 20.6 38.65 17.95 M41.95 17.8 L42.6 17.9 42.75 20.75 42.3 20.65 41.95 17.8 M45.65 19.1 L45.8 19.25 46.3 19.8 46.4 19.95 46.8 20.5 47.05 21.0 46.85 22.85 46.8 22.8 Q46.15 22.05 45.25 21.65 L45.2 21.6 45.1 21.55 45.65 19.1" fill="#d5d580" fill-rule="evenodd" stroke="none"/>
      <path d="M45.25 18.85 L45.65 19.1 45.1 21.55 44.9 21.45 45.25 18.85" fill="#bfbf40" fill-rule="evenodd" stroke="none"/>
      <path d="M36.55 19.5 Q36.55 19.15 36.7 18.75 37.6 18.2 38.65 17.95 L39.3 17.8 Q40.55 17.6 41.95 17.8 L42.6 17.9 Q44.1 18.05 45.25 18.85 L45.65 19.1 45.8 19.25 46.3 19.8 46.4 19.95 46.8 20.5 47.05 21.0 46.85 22.85 47.05 23.1 47.25 23.5 Q49.1 22.9 48.6 19.35 48.15 17.6 46.8 16.5 L46.55 16.3 Q44.95 15.15 42.25 14.75 L41.55 14.7 Q36.95 15.2 35.3 16.35 33.7 17.5 33.25 19.9 32.8 22.3 33.95 23.1 35.45 24.05 38.6 24.25 42.2 23.75 43.85 24.65 L44.3 24.95 45.25 25.95 45.85 27.5 45.75 28.85 45.7 29.45 46.8 29.2 Q48.1 28.55 48.2 26.25 47.95 24.6 47.25 23.5 M41.2 20.55 L39.75 20.55 39.45 20.6 38.7 20.75 Q36.55 20.7 36.55 19.5 M46.85 22.85 L46.8 22.8 Q46.15 22.05 45.25 21.65 L45.2 21.6 45.1 21.55 44.9 21.45 Q43.8 20.95 42.75 20.75 L42.3 20.65 41.2 20.55 M45.1 21.55 L45.65 19.1 M42.75 20.75 L42.6 17.9 M39.3 17.8 L39.75 20.55" fill="none" stroke="#000000" stroke-linecap="round" stroke-linejoin="round" stroke-opacity="0.3019608" stroke-width="0.30000000000000004"/>
      <path d="M21.55 19.05 L21.1 19.1 21.1 19.05 21.55 19.05" fill="#ca5202" fill-rule="evenodd" stroke="none"/>
      <path d="M21.1 19.05 L21.1 19.1 21.1 19.05" fill="#7e3301" fill-rule="evenodd" stroke="none"/>
      <path d="M18.2 19.35 L20.15 17.05 Q25.3 11.35 30.65 10.6 25.25 12.65 22.3 15.45 20.8 16.8 19.9 18.35 19.75 18.65 21.55 19.05 L21.1 19.05 18.2 19.35 M26.0 19.5 L28.0 19.1 Q27.25 20.3 27.3 22.4 26.95 20.2 26.0 19.5" fill="#d0c586" fill-rule="evenodd" stroke="none"/>
      <path d="M21.55 19.05 Q19.75 18.65 19.9 18.35 20.8 16.8 22.3 15.45 L23.1 16.6 Q25.05 18.5 29.85 16.05 L28.0 19.1 26.0 19.5 21.55 19.05" fill="#bfb072" fill-rule="evenodd" stroke="none"/>
      <path d="M31.25 12.0 Q32.6 14.4 31.95 18.45 31.1 24.1 28.9 27.65 L20.6 26.15 18.2 24.45 Q17.1 21.7 18.2 19.35 L21.1 19.05 21.1 19.1 Q19.2 19.5 18.65 20.35 18.55 20.3 18.55 20.4 18.2 21.35 18.2 22.9 18.45 24.35 20.1 24.45 L20.15 24.45 Q23.75 24.55 27.8 25.8 32.1 16.1 31.25 12.0 M18.2 24.45 L20.1 24.45 18.2 24.45 M29.85 16.05 Q25.05 18.5 23.1 16.6 L22.3 15.45 Q25.25 12.65 30.65 10.6 31.05 13.5 29.85 16.05" fill="#a89e64" fill-rule="evenodd" stroke="none"/>
      <path d="M30.65 10.6 L31.25 12.0 Q32.1 16.1 27.8 25.8 L27.35 22.85 27.3 22.4 Q27.25 20.3 28.0 19.1 L29.85 16.05 Q31.05 13.5 30.65 10.6" fill="#696141" fill-rule="evenodd" stroke="none"/>
      <path d="M27.8 25.8 Q23.75 24.55 20.15 24.45 L20.1 24.45 Q18.45 24.35 18.2 22.9 18.2 21.35 18.55 20.4 18.55 20.3 18.65 20.35 19.2 19.5 21.1 19.1 L21.55 19.05 26.0 19.5 Q26.95 20.2 27.3 22.4 L27.35 22.85 27.8 25.8 M21.1 19.05 L21.1 19.1 21.1 19.05" fill="#5f5a3a" fill-rule="evenodd" stroke="none"/>
      <path d="M18.2 24.45 Q17.1 21.7 18.2 19.35 L20.15 17.05 Q25.3 11.35 30.65 10.6 L31.25 12.0 Q32.1 16.1 27.8 25.8 23.75 24.55 20.15 24.45 L20.1 24.45 18.2 24.45 Z" fill="none" stroke="#000000" stroke-linecap="round" stroke-linejoin="round" stroke-opacity="0.3019608" stroke-width="0.30000000000000004"/>
      <path d="M39.7 31.55 L39.45 31.15 39.1 30.6 Q38.15 29.4 36.6 29.0 34.75 28.45 33.1 29.45 31.5 30.35 30.95 32.0 L32.95 32.95 31.95 32.85 30.85 32.4 30.15 32.1 30.85 32.4 Q30.65 33.25 30.75 34.05 L31.05 35.2 30.0 34.15 Q29.85 33.15 30.15 32.1 30.75 29.9 32.7 28.8 34.65 27.65 36.8 28.25 38.6 28.7 39.7 30.15 L39.7 31.55" fill="#ffff98" fill-rule="evenodd" stroke="none"/>
      <path d="M32.95 32.95 L30.95 32.0 Q31.5 30.35 33.1 29.45 34.75 28.45 36.6 29.0 38.15 29.4 39.1 30.6 L39.45 31.15 39.7 31.55 39.55 32.2 39.15 33.2 36.45 33.35 39.15 33.2 Q38.45 34.65 37.0 35.5 36.1 36.05 35.1 36.2 L34.25 34.55 33.7 33.5 36.45 33.35 33.05 32.95 32.95 32.95 M30.85 32.4 L31.95 32.85 33.7 33.5 34.25 34.55 34.7 36.25 32.9 36.05 31.05 35.2 30.75 34.05 Q30.65 33.25 30.85 32.4" fill="#ffde4f" fill-rule="evenodd" stroke="none"/>
      <path d="M39.7 31.55 L39.7 30.15 40.15 30.8 40.8 32.6 Q41.0 33.7 40.65 34.9 40.1 37.1 38.15 38.2 36.75 39.0 35.3 38.95 L35.25 38.2 35.3 38.95 34.0 38.75 Q31.8 38.15 30.7 36.25 30.1 35.2 30.0 34.15 L31.05 35.2 31.35 35.85 Q32.3 37.5 34.2 38.0 L34.8 38.15 34.7 36.25 34.25 34.55 35.1 36.2 35.25 38.2 35.3 38.2 Q36.55 38.2 37.75 37.55 39.4 36.55 39.9 34.7 L40.05 32.85 40.05 32.7 39.7 31.55 M40.05 32.85 L40.8 32.6 40.05 32.85" fill="#f4a33c" fill-rule="evenodd" stroke="none"/>
      <path d="M32.95 32.95 L33.05 32.95 36.45 33.35 33.7 33.5 31.95 32.85 32.95 32.95 M39.15 33.2 L39.55 32.2 39.7 31.55 40.05 32.7 40.05 32.85 39.9 34.7 Q39.4 36.55 37.75 37.55 36.55 38.2 35.3 38.2 L35.25 38.2 35.1 36.2 Q36.1 36.05 37.0 35.5 38.45 34.65 39.15 33.2 L40.05 32.85 39.15 33.2 M31.05 35.2 L32.9 36.05 34.7 36.25 34.8 38.15 34.2 38.0 Q32.3 37.5 31.35 35.85 L31.05 35.2" fill="#cc6b22" fill-rule="evenodd" stroke="none"/>
      <path d="M33.05 32.95 L36.45 33.35 39.15 33.2 40.05 32.85 40.8 32.6 Q41.0 33.7 40.65 34.9 40.1 37.1 38.15 38.2 36.75 39.0 35.3 38.95 L34.0 38.75 Q31.8 38.15 30.7 36.25 30.1 35.2 30.0 34.15 29.85 33.15 30.15 32.1 L30.85 32.4 31.95 32.85 32.95 32.95 M39.7 30.15 Q38.6 28.7 36.8 28.25 34.65 27.65 32.7 28.8 30.75 29.9 30.15 32.1 M33.7 33.5 L31.95 32.85 M34.25 34.55 L33.7 33.5 36.45 33.35 M34.25 34.55 L35.1 36.2 35.25 38.2 35.3 38.95 M39.7 30.15 L40.15 30.8 40.8 32.6" fill="none" stroke="#000000" stroke-linecap="round" stroke-linejoin="round" stroke-opacity="0.3019608" stroke-width="0.30000000000000004"/>
      <path d="M36.95 37.15 Q37.3 32.55 34.7 29.4 L36.95 37.15 M37.0 38.05 L34.3 28.75 Q37.95 32.5 37.0 38.05" fill="#fdcc0b" fill-opacity="0.5019608" fill-rule="evenodd" stroke="none"/>
      <path d="M36.95 37.15 L34.7 29.4 Q37.3 32.55 36.95 37.15" fill="#5f5a3a" fill-rule="evenodd" stroke="none"/>
      <path d="M18.3 39.75 Q18.05 38.55 18.8 37.3 L24.95 37.75 27.9 38.85 30.95 43.85 27.2 45.0 24.4 44.85 27.4 44.55 Q28.7 44.05 29.95 43.5 L29.9 42.85 27.65 39.0 26.2 38.4 Q20.2 39.05 20.5 41.5 L20.5 43.0 22.5 44.6 21.6 44.2 20.05 43.0 18.2 42.9 17.55 42.85 19.85 42.35 19.65 41.65 18.3 39.75 M28.85 45.95 L30.0 45.95 Q26.45 49.35 22.65 48.95 L20.95 46.25 20.25 43.7 20.9 43.95 21.55 46.2 21.95 47.15 Q24.35 48.55 26.2 47.75 L28.85 45.95" fill="#d0c586" fill-rule="evenodd" stroke="none"/>
      <path d="M18.2 35.7 L16.0 35.7 16.2 35.15 18.2 35.7 M18.8 37.3 Q18.05 38.55 18.3 39.75 17.3 38.85 16.05 39.15 L15.25 40.8 15.65 43.15 17.55 42.85 15.4 43.9 14.65 41.0 15.5 39.0 Q17.25 37.6 18.8 37.3" fill="#bfb072" fill-rule="evenodd" stroke="none"/>
      <path d="M18.9 35.9 L16.0 36.9 16.0 35.7 18.2 35.7 18.9 35.9 M21.6 44.2 L22.5 44.6 20.5 43.0 20.5 41.5 Q20.2 39.05 26.2 38.4 L27.65 39.0 29.9 42.85 29.95 43.5 Q28.7 44.05 27.4 44.55 L24.4 44.85 22.8 44.75 22.5 44.6 22.8 44.75 25.55 45.95 27.7 45.95 28.85 45.95 26.2 47.75 Q24.35 48.55 21.95 47.15 L21.55 46.2 20.9 43.95 21.6 44.2" fill="#a89e64" fill-rule="evenodd" stroke="none"/>
      <path d="M15.4 43.9 L17.55 42.85 15.65 43.15 15.25 40.8 16.05 39.15 Q17.3 38.85 18.3 39.75 L19.65 41.65 19.85 42.35 17.55 42.85 18.2 42.9 20.25 43.7 20.95 46.25 19.3 48.4 16.65 46.0 15.4 43.9" fill="#696141" fill-rule="evenodd" stroke="none"/>
      <path d="M18.9 35.9 L18.2 35.7 16.2 35.15 17.75 34.45 18.9 35.9 M18.2 42.9 L20.05 43.0 21.6 44.2 20.9 43.95 20.25 43.7 18.2 42.9 M24.4 44.85 L27.2 45.0 30.95 43.85 27.7 45.95 25.55 45.95 22.8 44.75 24.4 44.85 M22.65 48.95 L19.3 48.4 20.95 46.25 22.65 48.95" fill="#5f5a3a" fill-rule="evenodd" stroke="none"/>
      <path d="M16.0 35.7 L16.0 36.9 18.9 35.9 18.2 35.7 16.2 35.15 17.75 34.45 18.9 35.9 M16.0 35.7 L16.2 35.15 M18.8 37.3 Q17.25 37.6 15.5 39.0 L14.65 41.0 15.4 43.9 17.55 42.85 18.2 42.9 20.05 43.0 21.6 44.2 22.5 44.6 22.8 44.75 25.55 45.95 27.7 45.95 28.85 45.95 30.0 45.95 Q26.45 49.35 22.65 48.95 L19.3 48.4 16.65 46.0 15.4 43.9 M30.95 43.85 L27.9 38.85 24.95 37.75 18.8 37.3 M30.95 43.85 L27.7 45.95 M20.95 46.25 L19.3 48.4 M20.95 46.25 L20.25 43.7 M22.65 48.95 L20.95 46.25" fill="none" stroke="#000000" stroke-linecap="round" stroke-linejoin="round" stroke-opacity="0.3019608" stroke-width="0.30000000000000004"/>
      <path d="M3.8 36.25 L3.3 35.9 Q3.4 34.75 3.9 33.75 7.0 27.5 13.05 25.95 L13.45 25.8 11.2 32.7 13.5 32.25 11.0 33.3 8.8 36.3 9.75 34.6 10.15 33.95 10.2 33.9 12.4 26.55 Q8.35 28.0 5.9 31.3 4.65 33.0 3.8 35.15 L3.8 36.25 M5.4 37.15 L4.05 36.4 8.05 36.75 7.45 36.9 5.4 37.15 M7.3 39.7 L8.2 39.7 7.5 42.1 7.3 39.7 M10.35 40.5 L12.05 39.75 9.6 42.85 10.35 40.5" fill="#d0c586" fill-rule="evenodd" stroke="none"/>
      <path d="M5.9 31.3 Q8.35 28.0 12.4 26.55 L10.2 33.9 10.15 33.95 9.75 34.6 Q4.05 37.4 5.9 31.3 M7.3 39.7 L7.5 42.1 7.4 42.85 Q6.9 42.75 6.4 42.05 L5.6 40.85 5.3 40.3 7.3 39.7" fill="#bfb072" fill-rule="evenodd" stroke="none"/>
      <path d="M7.75 38.0 L5.4 37.15 7.45 36.9 7.75 38.0 M4.05 36.4 L3.8 36.25 3.8 35.15 Q4.65 33.0 5.9 31.3 4.05 37.4 9.75 34.6 L8.8 36.3 8.55 36.6 8.05 36.75 4.05 36.4 M12.05 39.75 L13.1 39.0 12.65 40.95 10.85 43.65 Q9.8 45.15 8.85 44.5 L9.6 42.85 12.05 39.75" fill="#a89e64" fill-rule="evenodd" stroke="none"/>
      <path d="M13.75 32.1 L11.6 37.05 8.55 36.6 8.8 36.3 11.0 33.3 13.5 32.25 13.75 32.1 M13.1 39.0 L12.05 39.75 10.35 40.5 9.95 39.85 13.1 39.0" fill="#696141" fill-rule="evenodd" stroke="none"/>
      <path d="M13.45 25.8 L13.75 32.1 13.5 32.25 11.2 32.7 13.45 25.8 M11.6 37.05 L7.75 38.0 7.45 36.9 8.05 36.75 8.55 36.6 11.6 37.05 M7.5 42.1 L8.2 39.7 8.8 40.7 7.4 42.85 7.5 42.1 M9.95 39.85 L10.35 40.5 9.6 42.85 8.85 44.5 9.95 39.85" fill="#5f5a3a" fill-rule="evenodd" stroke="none"/>
      <path d="M3.8 36.25 L3.3 35.9 Q3.4 34.75 3.9 33.75 7.0 27.5 13.05 25.95 L13.45 25.8 13.75 32.1 11.6 37.05 7.75 38.0 5.4 37.15 4.05 36.4 3.8 36.25 M8.8 36.3 L11.0 33.3 13.5 32.25 13.75 32.1 M11.2 32.7 L13.45 25.8 M7.75 38.0 L7.45 36.9 5.4 37.15 M8.2 39.7 L7.3 39.7 5.3 40.3 5.6 40.85 6.4 42.05 Q6.9 42.75 7.4 42.85 L7.5 42.1 8.2 39.7 8.8 40.7 7.4 42.85 M7.45 36.9 L8.05 36.75 8.55 36.6 8.8 36.3 M12.05 39.75 L13.1 39.0 9.95 39.85 10.35 40.5 12.05 39.75 M9.6 42.85 L8.85 44.5 Q9.8 45.15 10.85 43.65 L12.65 40.95 13.1 39.0 M8.55 36.6 L11.6 37.05 M10.35 40.5 L9.6 42.85 M9.95 39.85 L8.85 44.5" fill="none" stroke="#000000" stroke-linecap="round" stroke-linejoin="round" stroke-opacity="0.3019608" stroke-width="0.30000000000000004"/>
      <path d="M37.6 6.55 L36.95 6.7 36.25 6.55 36.0 6.15 36.25 5.75 36.95 5.6 37.6 5.75 37.9 6.15 37.6 6.55" fill="#d0c586" fill-rule="evenodd" stroke="none"/>
    </g>
    <g id="sprite1" transform="matrix(1.0, 0.0, 0.0, 1.0, 0.0, 0.0)">
      <use height="26.7" transform="matrix(0.0042, -1.3515, 1.3935, 0.02, 22.09, 56.0263)" width="26.7" xlink:href="#sprite2"/>
      <use height="26.7" transform="matrix(0.0095, -3.0486, 0.372, 0.0053, 36.507, 81.3775)" width="26.7" xlink:href="#sprite2"/>
      <use height="26.7" transform="matrix(3.0486, 0.0095, -0.0053, 0.372, 0.1225, 35.107)" width="26.7" xlink:href="#sprite2"/>
    </g>
    <g id="sprite2" transform="matrix(1.0, 0.0, 0.0, 1.0, 13.35, 13.35)">
      <use height="26.7" transform="matrix(1.0, 0.0, 0.0, 1.0, -13.35, -13.35)" width="26.7" xlink:href="#shape1"/>
    </g>
    <g id="shape1" transform="matrix(1.0, 0.0, 0.0, 1.0, 13.35, 13.35)">
      <path d="M9.3 -9.85 Q13.35 -5.8 13.35 0.0 13.35 5.8 9.3 9.3 5.8 13.35 0.0 13.35 -5.8 13.35 -9.85 9.3 -13.35 5.8 -13.35 0.0 -13.35 -5.8 -9.85 -9.85 -5.8 -13.35 0.0 -13.35 5.8 -13.35 9.3 -9.85" fill="url(#gradient0)" fill-rule="evenodd" stroke="none"/>
    </g>
    <radialGradient cx="0" cy="0" gradientTransform="matrix(0.0213, 0.0, 0.0, 0.0213, 0.0, 0.0)" gradientUnits="userSpaceOnUse" id="gradient0" r="819.2" spreadMethod="pad">
      <stop offset="0.19607843137254902" stop-color="#fee3bc" stop-opacity="0.5764706"/>
      <stop offset="0.5019607843137255" stop-color="#fee3bc" stop-opacity="0.09019608"/>
      <stop offset="0.7607843137254902" stop-color="#ffe3bd" stop-opacity="0.0"/>
    </radialGradient>
    <g id="sprite3" transform="matrix(1.0, 0.0, 0.0, 1.0, 0.15, 0.15)">
      <use height="158.05" transform="matrix(1.0, 0.0, 0.0, 1.0, -0.75, -0.75)" width="74.3" xlink:href="#shape2"/>
    </g>
    <g id="shape2" transform="matrix(1.0, 0.0, 0.0, 1.0, 0.75, 0.75)">
      <path d="M67.1 47.3 Q60.05 84.7 45.15 118.0 L67.1 47.3" fill="#000000" fill-opacity="0.05490196" fill-rule="evenodd" stroke="none"/>
      <path d="M72.8 0.4 Q71.4 24.6 67.1 47.3 60.05 84.7 45.15 118.0 L45.0 118.3 Q39.4 130.85 24.25 156.55 M43.75 69.05 Q26.65 113.65 20.4 117.6 17.55 109.85 28.1 81.45 38.25 56.05 47.2 54.0 48.65 56.75 43.75 69.05 M48.0 24.8 Q34.25 59.6 13.6 90.6 7.15 100.3 0.0 109.6 M66.8 0.0 Q53.65 80.05 13.6 143.35 L12.4 145.2 M67.1 47.3 L45.15 118.0" fill="none" stroke="#000000" stroke-linecap="round" stroke-linejoin="round" stroke-opacity="0.08627451" stroke-width="0.30000000000000004"/>
    </g>
  </defs>
</svg>
