<?xml version="1.0" encoding="UTF-8" standalone="no"?>
<svg xmlns:xlink="http://www.w3.org/1999/xlink" height="52.0px" width="52.0px" xmlns="http://www.w3.org/2000/svg">
  <g transform="matrix(1.0, 0.0, 0.0, 1.0, 0.0, 0.0)">
    <use height="54.0" transform="matrix(1.0, 0.0, 0.0, 1.0, -1.0, -1.0)" width="54.0" xlink:href="#shape0"/>
    <use height="0.0" transform="matrix(0.0777, 0.065, -0.1297, 0.1213, 25.1, 19.95)" width="0.0" xlink:href="#sprite0"/>
    <use height="0.0" transform="matrix(0.0983, 0.0, -0.035, 0.0817, 22.8, 36.65)" width="0.0" xlink:href="#sprite0"/>
    <use height="0.0" transform="matrix(0.0695, -0.0695, 0.033, 0.0825, 37.6, 29.6)" width="0.0" xlink:href="#sprite0"/>
    <use height="81.5" transform="matrix(0.1255, 0.0, 0.0, 0.1259, 31.1, 14.95)" width="81.5" xlink:href="#sprite1"/>
  </g>
  <defs>
    <g id="shape0" transform="matrix(1.0, 0.0, 0.0, 1.0, 1.0, 1.0)">
      <path d="M52.0 0.0 L52.0 52.0 0.0 52.0 0.0 0.0 52.0 0.0" fill="#795fa9" fill-opacity="0.0" fill-rule="evenodd" stroke="none"/>
      <path d="M44.5 7.45 L42.65 7.9 Q39.25 9.35 36.6 11.15 L29.3 9.7 26.4 10.95 Q26.4 8.2 25.35 5.65 24.65 4.05 23.9 3.8 23.45 3.65 22.95 4.15 22.3 4.6 24.25 9.1 L24.95 11.5 24.25 11.8 22.55 13.45 21.75 13.7 21.1 14.0 20.55 14.25 20.4 14.35 Q18.8 15.25 17.55 16.65 L17.1 17.15 Q16.4 18.05 16.05 18.9 L16.05 18.95 10.35 22.75 10.35 29.35 14.6 32.9 Q12.15 34.3 11.2 36.1 L11.15 36.1 10.05 35.45 7.25 36.8 6.35 38.4 6.5 39.7 8.55 44.4 11.45 46.5 13.4 46.6 14.8 45.0 14.85 43.95 16.05 44.45 17.75 44.85 17.8 45.55 19.8 48.0 21.65 48.45 24.1 47.7 24.75 45.25 Q27.35 44.75 28.2 42.85 29.2 40.45 29.35 38.4 L32.25 39.25 39.95 37.7 45.2 29.6 41.6 21.9 42.05 19.8 38.25 12.05 Q39.65 11.45 41.0 11.1 44.7 9.8 45.45 8.55 45.85 7.9 45.65 7.6 L44.5 7.45 Z" fill="none" stroke="#000000" stroke-linecap="round" stroke-linejoin="round" stroke-opacity="0.3019608" stroke-width="1.0"/>
      <path d="M16.95 34.75 L16.75 34.7 12.7 31.3 11.0 29.3 10.75 24.3 12.75 24.95 15.15 27.2 15.6 28.1 15.95 29.7 16.95 34.65 16.95 34.75 M41.6 21.85 L45.15 29.55 43.85 31.6 39.5 36.8 33.4 30.2 34.35 26.9 37.85 21.5 38.5 20.65 41.6 21.85 M36.95 13.15 L36.75 14.95 34.7 13.15 36.95 13.15 M16.75 34.7 L16.95 34.65 16.75 34.7 M30.2 24.6 L25.15 24.7 27.1 22.35 30.2 24.6" fill="#825a20" fill-rule="evenodd" stroke="none"/>
      <path d="M43.85 31.6 L39.9 37.65 32.0 30.8 33.35 26.9 32.0 30.8 16.95 34.65 15.95 29.7 17.5 33.85 31.55 29.95 33.35 26.9 37.85 21.5 34.35 26.9 33.4 30.2 39.5 36.8 43.85 31.6 M12.7 31.3 L10.35 29.35 10.35 22.7 12.75 24.95 10.75 24.3 11.0 29.3 12.7 31.3 M24.7 19.8 L25.6 20.4 27.1 22.35 25.15 24.7 17.05 27.1 14.55 26.4 11.95 22.7 18.7 17.3 19.2 17.4 22.2 18.2 24.7 19.8 M27.85 17.8 L32.0 11.8 32.2 11.5 30.15 10.2 37.55 12.0 36.95 13.15 34.7 13.15 33.8 12.6 34.7 13.15 36.75 14.95 38.5 20.65 37.85 21.5 36.5 16.05 33.8 12.6 32.9 12.0 27.85 17.8 M32.9 12.0 L32.2 11.5 32.9 12.0" fill="#cc9933" fill-rule="evenodd" stroke="none"/>
      <path d="M10.35 22.7 L18.55 17.25 24.25 11.8 29.3 9.65 37.9 11.35 37.55 12.0 30.15 10.2 29.3 9.65 30.15 10.2 32.2 11.5 32.0 11.8 29.4 10.5 24.05 12.45 24.0 12.45 24.0 12.5 19.2 17.4 18.7 17.3 11.95 22.7 14.55 26.4 15.15 27.2 12.75 24.95 10.35 22.7 M23.8 13.15 L22.95 17.95 24.7 19.8 22.2 18.2 23.8 13.15 M24.0 12.45 L24.05 12.45 24.25 11.8 24.05 12.45 24.0 12.45" fill="#e0c585" fill-rule="evenodd" stroke="none"/>
      <path d="M23.8 13.15 L24.0 12.5 24.0 12.45 24.05 12.45 29.4 10.5 32.0 11.8 27.85 17.8 25.6 20.4 24.7 19.8 22.95 17.95 23.8 13.15 M15.15 27.2 L14.55 26.4 17.05 27.1 15.6 28.1 15.15 27.2" fill="#d7b15b" fill-rule="evenodd" stroke="none"/>
      <path d="M37.9 11.35 L42.0 19.75 38.5 20.65 36.75 14.95 36.95 13.15 37.55 12.0 37.9 11.35 M37.85 21.5 L33.35 26.9 31.55 29.95 17.5 33.85 15.95 29.7 15.6 28.1 17.05 27.1 25.15 24.7 30.2 24.6 27.1 22.35 25.6 20.4 27.85 17.8 32.9 12.0 33.8 12.6 36.5 16.05 37.85 21.5 M24.0 12.5 L23.8 13.15 22.2 18.2 19.2 17.4 24.0 12.5 M30.2 24.6 L33.35 26.9 30.2 24.6" fill="#aa772b" fill-rule="evenodd" stroke="none"/>
      <path d="M39.9 37.65 L32.2 39.2 16.95 34.75 16.95 34.65 32.0 30.8 39.9 37.65 M42.0 19.75 L41.6 21.85 38.5 20.65 42.0 19.75" fill="#6c4b1c" fill-rule="evenodd" stroke="none"/>
      <path d="M43.85 31.6 L39.9 37.65 32.2 39.2 16.95 34.75 16.75 34.7 12.7 31.3 10.35 29.35 10.35 22.7 18.55 17.25 24.25 11.8 29.3 9.65 37.9 11.35 42.0 19.75 41.6 21.85 45.15 29.55 43.85 31.6 M37.85 21.5 L33.35 26.9 32.0 30.8 39.9 37.65 M24.0 12.5 L23.8 13.15 22.2 18.2 24.7 19.8 25.6 20.4 27.85 17.8 32.9 12.0 33.8 12.6 34.7 13.15 36.75 14.95 38.5 20.65 42.0 19.75 M24.0 12.45 L24.0 12.5 M30.15 10.2 L29.3 9.65 M24.25 11.8 L24.05 12.45 24.0 12.45 M37.55 12.0 L37.9 11.35 M32.2 11.5 L30.15 10.2 M37.55 12.0 L36.95 13.15 36.75 14.95 M32.2 11.5 L32.9 12.0 M37.85 21.5 L38.5 20.65 41.6 21.85 M15.15 27.2 L15.6 28.1 17.05 27.1 25.15 24.7 30.2 24.6 33.35 26.9 M12.75 24.95 L15.15 27.2 M16.95 34.65 L16.75 34.7 M15.95 29.7 L16.95 34.65 32.0 30.8 M15.6 28.1 L15.95 29.7 M27.1 22.35 L30.2 24.6 M27.1 22.35 L25.6 20.4" fill="none" stroke="#000000" stroke-linecap="round" stroke-linejoin="round" stroke-opacity="0.3019608" stroke-width="0.30000000000000004"/>
      <path d="M14.8 23.3 L14.85 21.7 14.8 21.6 14.75 21.7 Q13.35 22.7 12.65 24.55 L12.2 24.75 13.1 22.85 14.15 21.6 14.3 21.45 14.5 21.35 Q14.85 21.1 15.15 21.1 L15.2 21.85 14.8 23.3 M30.95 30.5 L32.05 30.2 32.45 30.1 32.95 30.05 33.4 29.95 34.3 29.85 35.45 29.95 35.65 30.05 34.95 30.95 34.05 31.6 33.9 31.7 33.15 31.95 34.6 30.8 35.0 30.2 33.5 30.3 31.25 30.75 30.95 30.5" fill="#f9f8ec" fill-rule="evenodd" stroke="none"/>
      <path d="M12.65 24.55 Q13.35 22.7 14.75 21.7 L14.8 21.6 14.85 21.7 14.8 23.3 14.3 24.15 13.75 24.25 12.65 24.55 M32.25 31.85 L31.25 30.75 33.5 30.3 35.0 30.2 34.6 30.8 33.15 31.95 32.6 32.0 32.4 32.05 32.25 31.85" fill="#e6e4b3" fill-rule="evenodd" stroke="none"/>
      <path d="M14.8 23.3 L15.2 21.85 15.15 21.1 Q15.7 21.1 16.0 22.0 L16.1 22.3 16.25 23.3 16.3 24.1 15.05 24.1 14.3 24.15 14.8 23.3 M35.65 30.05 Q35.85 30.35 35.55 31.2 L35.2 31.95 34.3 33.45 33.8 34.25 33.7 34.1 32.65 32.4 32.4 32.05 32.6 32.0 33.15 31.95 33.9 31.7 34.05 31.6 34.95 30.95 35.65 30.05" fill="#d5d580" fill-rule="evenodd" stroke="none"/>
      <path d="M33.7 34.1 L33.65 34.15 30.3 30.75 20.9 26.05 14.5 25.35 13.7 25.35 13.5 24.55 16.5 24.55 23.05 26.15 30.6 30.5 32.25 31.85 32.4 32.05 32.65 32.4 33.7 34.1" fill="#cc9933" fill-rule="evenodd" stroke="none"/>
      <path d="M12.2 24.75 L12.65 24.55 13.75 24.25 14.3 24.15 15.05 24.1 16.3 24.1 23.05 25.55 30.95 30.5 31.25 30.75 32.25 31.85 30.6 30.5 23.05 26.15 16.5 24.55 13.5 24.55 13.7 25.35 13.1 25.35 12.65 25.05 11.4 25.35 Q11.75 25.0 12.2 24.75" fill="#d7b15b" fill-rule="evenodd" stroke="none"/>
      <path d="M15.15 21.1 Q14.85 21.1 14.5 21.35 L14.3 21.45 14.15 21.6 13.1 22.85 12.2 24.75 12.65 24.55 13.75 24.25 14.3 24.15 15.05 24.1 16.3 24.1 23.05 25.55 30.95 30.5 32.05 30.2 32.45 30.1 32.95 30.05 33.4 29.95 34.3 29.85 35.45 29.95 35.65 30.05 Q35.85 30.35 35.55 31.2 L35.2 31.95 34.3 33.45 33.8 34.25 33.7 34.1 32.65 32.4 32.4 32.05 32.25 31.85 31.25 30.75 30.95 30.5 M15.15 21.1 Q15.7 21.1 16.0 22.0 L16.1 22.3 16.25 23.3 16.3 24.1 M11.4 25.35 Q11.75 25.0 12.2 24.75" fill="none" stroke="#000000" stroke-linecap="round" stroke-linejoin="round" stroke-opacity="0.3019608" stroke-width="0.30000000000000004"/>
      <path d="M25.2 16.1 L25.1 15.55 25.1 12.75 25.1 12.7 25.05 12.05 Q24.8 10.35 24.2 9.1 22.3 4.55 22.95 4.1 23.45 3.65 23.9 3.8 25.05 4.9 25.65 7.85 L25.65 8.05 Q26.1 10.2 25.6 13.8 L25.2 16.1" fill="#aa772b" fill-rule="evenodd" stroke="none"/>
      <path d="M23.9 3.8 Q24.6 4.0 25.3 5.65 26.5 8.5 26.35 11.65 L26.3 12.6 25.95 14.55 25.35 16.5 25.3 16.65 25.25 16.8 25.15 16.8 25.2 16.7 25.2 16.65 25.2 16.5 25.2 16.1 25.6 13.8 Q26.1 10.2 25.65 8.05 L25.65 7.85 Q25.05 4.9 23.9 3.8" fill="#825a20" fill-rule="evenodd" stroke="none"/>
      <path d="M25.2 16.1 L25.1 15.55 25.1 12.75 25.1 12.7 25.05 12.05 Q24.8 10.35 24.2 9.1 22.3 4.55 22.95 4.1 23.45 3.65 23.9 3.8 24.6 4.0 25.3 5.65 26.5 8.5 26.35 11.65 L26.3 12.6 25.95 14.55 25.35 16.5 25.3 16.65 25.25 16.8 M25.15 16.8 L25.2 16.7 25.2 16.65 25.2 16.5 25.2 16.1 Z" fill="none" stroke="#000000" stroke-linecap="round" stroke-linejoin="round" stroke-opacity="0.3019608" stroke-width="0.30000000000000004"/>
      <path d="M45.6 7.55 Q45.7 8.1 43.95 9.0 L41.1 10.0 Q38.85 10.55 35.6 12.6 34.55 13.25 33.65 14.05 L32.3 15.4 31.8 16.05 31.75 16.05 30.8 16.85 30.05 17.75 30.6 16.85 31.5 15.6 32.05 14.95 33.65 13.4 34.45 12.7 35.4 11.95 Q38.4 9.7 42.65 7.9 L44.5 7.45 45.6 7.55" fill="#aa772b" fill-rule="evenodd" stroke="none"/>
      <path d="M31.8 16.05 L32.3 15.4 33.65 14.05 Q34.55 13.25 35.6 12.6 38.85 10.55 41.1 10.0 L43.95 9.0 Q45.7 8.1 45.6 7.55 45.85 7.85 45.4 8.55 44.7 9.8 40.95 11.1 39.0 11.55 36.95 12.65 L35.75 13.3 33.7 14.7 32.45 15.65 32.35 15.65 Q32.05 15.8 31.8 16.05" fill="#825a20" fill-rule="evenodd" stroke="none"/>
      <path d="M45.6 7.55 L44.5 7.45 42.65 7.9 Q38.4 9.7 35.4 11.95 L34.45 12.7 33.65 13.4 32.05 14.95 31.5 15.6 30.6 16.85 30.05 17.75 30.8 16.85 31.75 16.05 31.8 16.05 Q32.05 15.8 32.35 15.65 L32.45 15.65 33.7 14.7 35.75 13.3 36.95 12.65 Q39.0 11.55 40.95 11.1 44.7 9.8 45.4 8.55 45.85 7.85 45.6 7.55 Z" fill="none" stroke="#000000" stroke-linecap="round" stroke-linejoin="round" stroke-opacity="0.3019608" stroke-width="0.30000000000000004"/>
      <path d="M31.6 16.95 L32.15 16.6 32.25 16.55 33.55 16.15 34.7 16.3 Q35.3 16.5 35.7 16.85 36.4 17.5 36.65 18.6 37.05 20.45 36.1 22.6 L35.9 23.05 Q35.15 24.6 33.9 25.55 L33.5 25.85 Q32.8 26.35 32.15 26.55 L30.6 26.65 30.3 26.55 Q28.8 26.1 28.4 24.25 L28.3 23.4 28.4 22.0 28.5 21.55 28.9 20.25 29.1 19.9 29.5 19.15 29.85 18.65 30.6 17.75 31.55 16.95 31.6 16.95" fill="#825a20" fill-rule="evenodd" stroke="none"/>
      <path d="M28.8 23.2 Q29.1 24.35 29.95 24.8 L30.4 25.0 31.65 25.1 Q32.4 24.95 33.15 24.4 L33.7 24.05 Q34.75 23.1 35.4 21.65 L35.4 21.6 Q36.2 19.75 35.9 18.15 35.65 17.2 35.1 16.65 L34.2 16.15 33.4 16.05 33.95 17.2 Q34.15 18.1 33.95 19.05 L33.55 20.25 33.55 20.3 33.1 21.2 Q34.15 18.65 33.5 17.15 L32.8 16.15 32.35 16.3 32.1 16.4 32.0 16.4 31.5 16.75 31.45 16.75 31.15 17.0 30.0 18.2 29.75 18.6 29.2 19.6 29.15 19.7 28.85 20.7 28.7 22.2 28.7 22.25 28.75 23.0 28.8 23.2 M35.5 16.0 Q36.2 16.65 36.45 17.75 36.85 19.6 35.9 21.75 L35.7 22.2 Q34.95 23.75 33.7 24.75 L33.3 25.05 31.95 25.7 30.4 25.8 30.1 25.7 Q28.6 25.25 28.2 23.4 L28.1 22.55 28.2 21.15 28.3 20.7 28.7 19.45 28.85 19.05 29.3 18.3 29.65 17.85 30.4 16.95 31.35 16.15 31.4 16.1 31.95 15.75 32.05 15.7 33.35 15.35 34.5 15.45 35.5 16.0" fill="#f9f8ec" fill-rule="evenodd" stroke="none"/>
      <path d="M33.1 21.2 L33.55 20.3 33.55 20.25 33.95 19.05 Q34.15 18.1 33.95 17.2 L33.4 16.05 34.2 16.15 35.1 16.65 Q35.65 17.2 35.9 18.15 36.2 19.75 35.4 21.6 L35.4 21.65 Q34.75 23.1 33.7 24.05 L33.15 24.4 Q32.4 24.95 31.65 25.1 L30.4 25.0 29.95 24.8 Q29.1 24.35 28.8 23.2 L29.1 23.3 29.25 23.3 30.75 23.2 31.55 22.75 33.0 21.25 33.1 21.2" fill="#d5d580" fill-rule="evenodd" stroke="none"/>
      <path d="M28.8 23.2 L28.75 23.0 28.7 22.25 28.7 22.2 28.85 20.7 29.15 19.7 29.2 19.6 29.75 18.6 30.0 18.2 31.15 17.0 31.45 16.75 31.5 16.75 32.0 16.4 32.1 16.4 32.35 16.3 32.8 16.15 33.5 17.15 Q34.15 18.65 33.1 21.2 L33.0 21.25 31.55 22.75 30.75 23.2 29.25 23.3 29.1 23.3 28.8 23.2" fill="#e6e4b3" fill-rule="evenodd" stroke="none"/>
      <path d="M35.5 16.0 Q36.2 16.65 36.45 17.75 36.85 19.6 35.9 21.75 L35.7 22.2 Q34.95 23.75 33.7 24.75 L33.3 25.05 31.95 25.7 30.4 25.8 30.1 25.7 Q28.6 25.25 28.2 23.4 L28.1 22.55 28.2 21.15 28.3 20.7 28.7 19.45 28.85 19.05 29.3 18.3 29.65 17.85 30.4 16.95 31.35 16.15 31.4 16.1 31.95 15.75 32.05 15.7 33.35 15.35 34.5 15.45 35.5 16.0 Z" fill="none" stroke="#000000" stroke-linecap="round" stroke-linejoin="round" stroke-opacity="0.3019608" stroke-width="0.30000000000000004"/>
      <path d="M25.8 17.05 L25.75 17.15 25.7 17.3 24.35 19.25 24.1 19.5 23.15 20.45 20.75 21.9 Q18.7 22.85 17.35 22.45 16.0 22.1 16.15 20.6 L16.2 20.35 16.35 19.75 16.4 19.65 Q16.7 18.75 17.45 17.85 L17.85 17.35 Q19.1 15.95 20.7 15.05 L20.85 15.0 21.4 14.7 22.05 14.45 22.95 14.15 23.4 14.05 24.25 14.0 24.8 14.15 25.1 14.25 Q25.75 14.5 25.95 15.05 L26.05 15.65 26.05 16.0 26.05 16.2 26.05 16.3 25.85 17.0 25.8 17.05" fill="#825a20" fill-rule="evenodd" stroke="none"/>
      <path d="M25.85 17.0 L25.8 17.05" fill="none" stroke="#000000" stroke-linecap="round" stroke-linejoin="round" stroke-opacity="0.3019608" stroke-width="0.30000000000000004"/>
      <path d="M25.75 14.9 L25.75 15.25 25.7 15.45 25.7 15.55 25.5 16.25 25.45 16.3 25.45 16.4 25.4 16.55 24.0 18.5 23.75 18.75 22.8 19.7 20.45 21.15 Q18.4 22.1 17.0 21.7 15.65 21.35 15.8 19.85 L15.85 19.6 16.0 19.0 16.05 18.9 Q16.35 18.0 17.1 17.1 L17.5 16.6 Q18.8 15.2 20.4 14.3 L20.55 14.25 21.1 13.95 21.7 13.7 22.6 13.4 23.1 13.3 23.9 13.25 24.5 13.35 24.75 13.5 Q25.4 13.75 25.65 14.3 L25.75 14.9 M16.4 19.4 L16.4 19.55 16.4 19.85 Q16.4 20.9 17.5 21.2 18.7 21.55 20.5 20.7 L22.7 19.3 23.55 18.45 23.6 18.4 24.8 16.65 24.85 16.55 24.9 16.4 25.15 15.55 25.15 15.4 25.15 15.25 25.05 14.7 Q24.75 14.1 24.05 13.9 L24.0 13.9 23.45 13.8 23.55 14.25 23.55 14.3 23.55 14.55 23.4 15.25 23.35 15.3 23.3 15.4 23.3 15.5 22.4 16.85 22.3 16.95 22.2 17.05 21.2 18.0 Q22.65 16.4 22.95 15.25 23.1 14.45 22.7 13.85 L22.4 13.9 21.8 14.1 21.05 14.4 20.75 14.55 20.4 14.7 Q19.0 15.5 17.9 16.75 L17.55 17.2 Q16.9 17.95 16.6 18.7 L16.4 19.4" fill="#f9f8ec" fill-rule="evenodd" stroke="none"/>
      <path d="M21.2 18.0 L22.2 17.05 22.3 16.95 22.4 16.85 23.3 15.5 23.3 15.4 23.35 15.3 23.4 15.25 23.55 14.55 23.55 14.3 23.55 14.25 23.45 13.8 24.0 13.9 24.05 13.9 Q24.75 14.1 25.05 14.7 L25.15 15.25 25.15 15.4 25.15 15.55 24.9 16.4 24.85 16.55 24.8 16.65 23.6 18.4 23.55 18.45 22.7 19.3 20.5 20.7 Q18.7 21.55 17.5 21.2 16.4 20.9 16.4 19.85 L16.4 19.55 16.4 19.4 16.8 19.55 Q17.85 19.85 19.45 19.1 L21.2 18.0" fill="#d5d580" fill-rule="evenodd" stroke="none"/>
      <path d="M16.4 19.4 L16.6 18.7 Q16.9 17.95 17.55 17.2 L17.9 16.75 Q19.0 15.5 20.4 14.7 L20.75 14.55 21.05 14.4 21.8 14.1 22.4 13.9 22.7 13.85 Q23.1 14.45 22.95 15.25 22.65 16.4 21.2 18.0 L19.45 19.1 Q17.85 19.85 16.8 19.55 L16.4 19.4" fill="#e6e4b3" fill-rule="evenodd" stroke="none"/>
      <path d="M25.75 14.9 L25.75 15.25 25.7 15.45 25.7 15.55 25.5 16.25 25.45 16.3 25.45 16.4 25.4 16.55 24.0 18.5 23.75 18.75 22.8 19.7 20.45 21.15 Q18.4 22.1 17.0 21.7 15.65 21.35 15.8 19.85 L15.85 19.6 16.0 19.0 16.05 18.9 Q16.35 18.0 17.1 17.1 L17.5 16.6 Q18.8 15.2 20.4 14.3 L20.55 14.25 21.1 13.95 21.7 13.7 22.6 13.4 23.1 13.3 23.9 13.25 24.5 13.35 24.75 13.5 Q25.4 13.75 25.65 14.3 L25.75 14.9 Z" fill="none" stroke="#000000" stroke-linecap="round" stroke-linejoin="round" stroke-opacity="0.3019608" stroke-width="0.30000000000000004"/>
      <path d="M15.4 34.25 Q15.4 32.5 17.5 31.5 19.65 30.5 22.7 30.8 25.7 31.15 27.85 32.65 30.0 34.15 30.0 35.9 30.0 37.65 27.85 38.65 25.7 39.7 22.7 39.35 19.65 39.0 17.5 37.5 15.4 36.0 15.4 34.25" fill="#36250e" fill-opacity="0.48235294" fill-rule="evenodd" stroke="none"/>
      <path d="M17.2 32.3 Q15.75 32.7 13.15 34.75 11.4 36.1 11.05 38.3 10.85 39.1 12.65 38.65 L12.95 38.6 Q16.2 38.0 19.9 39.35 21.7 40.8 24.2 39.2 L26.7 36.95 Q24.4 41.0 21.05 40.6 15.55 37.95 11.2 39.55 11.45 40.75 12.55 41.8 13.85 43.0 16.4 43.9 25.7 46.3 27.45 42.45 29.6 37.45 27.5 34.35 24.45 31.6 20.35 31.7 L18.3 31.9 17.2 32.3 M11.15 36.05 Q12.7 33.2 18.1 31.25 L20.05 31.05 Q24.75 30.85 28.2 33.95 30.5 37.35 28.15 42.8 26.25 47.0 16.05 44.4 8.2 41.6 11.15 36.05" fill="#f9f8ec" fill-rule="evenodd" stroke="none"/>
      <path d="M19.9 39.35 Q16.2 38.0 12.95 38.6 L12.65 38.65 Q10.85 39.1 11.05 38.3 11.4 36.1 13.15 34.75 15.75 32.7 17.2 32.3 20.3 33.4 19.9 39.35 M20.35 31.7 Q24.45 31.6 27.5 34.35 L26.7 36.95 24.2 39.2 Q20.3 35.05 20.35 31.7" fill="#e6e4b3" fill-rule="evenodd" stroke="none"/>
      <path d="M27.5 34.35 Q29.6 37.45 27.45 42.45 25.7 46.3 16.4 43.9 13.85 43.0 12.55 41.8 11.45 40.75 11.2 39.55 15.55 37.95 21.05 40.6 24.4 41.0 26.7 36.95 L27.5 34.35" fill="#cac960" fill-rule="evenodd" stroke="none"/>
      <path d="M17.2 32.3 L18.3 31.9 20.35 31.7 Q20.3 35.05 24.2 39.2 21.7 40.8 19.9 39.35 20.3 33.4 17.2 32.3" fill="#d5d580" fill-rule="evenodd" stroke="none"/>
      <path d="M11.15 36.05 Q12.7 33.2 18.1 31.25 L20.05 31.05 Q24.75 30.85 28.2 33.95 30.5 37.35 28.15 42.8 26.25 47.0 16.05 44.4 8.2 41.6 11.15 36.05 Z" fill="none" stroke="#000000" stroke-linecap="round" stroke-linejoin="round" stroke-opacity="0.3019608" stroke-width="0.30000000000000004"/>
      <path d="M24.1 45.2 L24.35 40.1 25.9 41.55 26.3 43.15 25.45 44.75 24.1 45.2 M13.6 43.65 L13.15 38.75 14.55 40.05 15.6 42.5 15.3 43.65 13.6 43.65" fill="#a6a637" fill-rule="evenodd" stroke="none"/>
      <path d="M13.3 42.55 L12.0 38.05 12.4 37.35 12.6 36.9 14.9 41.8 13.3 42.55 M9.5 37.25 L7.0 38.65 6.5 39.7 6.35 38.4 7.25 36.8 8.25 36.85 9.5 37.25 M23.35 40.0 L23.9 38.2 25.5 42.6 23.6 44.1 23.05 42.15 23.05 41.0 23.35 40.0" fill="#aa772b" fill-rule="evenodd" stroke="none"/>
      <path d="M12.0 38.05 L9.5 37.25 8.25 36.85 10.15 36.1 12.4 37.35 12.0 38.05 M21.15 39.3 L20.55 37.45 23.3 38.25 23.35 40.0 23.05 41.0 23.05 42.15 23.6 44.1 25.5 42.6 23.05 46.3 23.05 45.65 22.55 40.6 21.15 39.3 M23.05 42.15 L23.05 45.65 23.05 42.15" fill="#cc9933" fill-rule="evenodd" stroke="none"/>
      <path d="M7.0 38.65 L9.45 37.7 11.85 38.6 13.35 44.3 13.4 46.6 11.45 46.5 8.55 44.4 6.5 39.7 7.0 38.65 M17.25 38.65 L20.0 38.25 21.15 39.3 22.55 40.6 23.05 45.65 23.05 46.3 21.65 48.45 19.8 48.0 17.8 45.55 17.25 38.65" fill="#825a20" fill-rule="evenodd" stroke="none"/>
      <path d="M13.35 44.3 L13.3 42.55 14.9 41.8 14.8 45.0 13.4 46.6 13.35 44.3 M23.05 46.3 L25.5 42.6 24.1 47.7 21.65 48.45 23.05 46.3" fill="#6c4b1c" fill-rule="evenodd" stroke="none"/>
      <path d="M13.35 44.3 L11.85 38.6 9.45 37.7 7.0 38.65 9.5 37.25 12.0 38.05 13.3 42.55 13.35 44.3 M8.25 36.85 L7.25 36.8 10.05 35.45 12.6 36.9 12.4 37.35 10.15 36.1 8.25 36.85 M23.35 40.0 L23.3 38.25 20.55 37.45 21.15 39.3 20.0 38.25 17.25 38.65 20.1 36.8 23.9 38.2 23.35 40.0" fill="#d7b15b" fill-rule="evenodd" stroke="none"/>
      <path d="M13.35 44.3 L13.3 42.55 14.9 41.8 14.8 45.0 13.4 46.6 13.35 44.3 M6.5 39.7 L8.55 44.4 11.45 46.5 13.4 46.6 M7.25 36.8 L6.35 38.4 6.5 39.7 M12.6 36.9 L10.05 35.45 7.25 36.8 M12.6 36.9 L14.9 41.8 M23.35 40.0 L23.9 38.2 20.1 36.8 17.25 38.65 17.8 45.55 19.8 48.0 21.65 48.45 23.05 46.3 25.5 42.6 24.1 47.7 21.65 48.45 M23.05 45.65 L23.05 42.15 23.05 41.0 23.35 40.0 M25.5 42.6 L23.9 38.2 M23.05 45.65 L23.05 46.3" fill="none" stroke="#000000" stroke-linecap="round" stroke-linejoin="round" stroke-opacity="0.3019608" stroke-width="0.30000000000000004"/>
    </g>
    <g id="sprite1" transform="matrix(1.0, 0.0, 0.0, 1.0, 0.0, 0.0)">
      <use height="26.7" transform="matrix(0.0042, -1.3515, 1.3935, 0.02, 22.09, 56.0263)" width="26.7" xlink:href="#sprite2"/>
      <use height="26.7" transform="matrix(0.0095, -3.0486, 0.372, 0.0053, 36.507, 81.3775)" width="26.7" xlink:href="#sprite2"/>
      <use height="26.7" transform="matrix(3.0486, 0.0095, -0.0053, 0.372, 0.1225, 35.107)" width="26.7" xlink:href="#sprite2"/>
    </g>
    <g id="sprite2" transform="matrix(1.0, 0.0, 0.0, 1.0, 13.35, 13.35)">
      <use height="26.7" transform="matrix(1.0, 0.0, 0.0, 1.0, -13.35, -13.35)" width="26.7" xlink:href="#shape1"/>
    </g>
    <g id="shape1" transform="matrix(1.0, 0.0, 0.0, 1.0, 13.35, 13.35)">
      <path d="M9.3 -9.85 Q13.35 -5.8 13.35 0.0 13.35 5.8 9.3 9.3 5.8 13.35 0.0 13.35 -5.8 13.35 -9.85 9.3 -13.35 5.8 -13.35 0.0 -13.35 -5.8 -9.85 -9.85 -5.8 -13.35 0.0 -13.35 5.8 -13.35 9.3 -9.85" fill="url(#gradient0)" fill-rule="evenodd" stroke="none"/>
    </g>
    <radialGradient cx="0" cy="0" gradientTransform="matrix(0.0213, 0.0, 0.0, 0.0213, 0.0, 0.0)" gradientUnits="userSpaceOnUse" id="gradient0" r="819.2" spreadMethod="pad">
      <stop offset="0.19607843137254902" stop-color="#fee3bc" stop-opacity="0.5568628"/>
      <stop offset="0.5019607843137255" stop-color="#fee3bc" stop-opacity="0.08627451"/>
      <stop offset="0.7607843137254902" stop-color="#ffe3bd" stop-opacity="0.0"/>
    </radialGradient>
  </defs>
</svg>
