<?xml version="1.0" encoding="UTF-8" standalone="no"?>
<svg xmlns:xlink="http://www.w3.org/1999/xlink" height="52.0px" width="52.0px" xmlns="http://www.w3.org/2000/svg">
  <g transform="matrix(1.0, 0.0, 0.0, 1.0, 0.0, 0.0)">
    <use height="54.0" transform="matrix(1.0, 0.0, 0.0, 1.0, -1.0, -1.0)" width="54.0" xlink:href="#shape0"/>
    <use height="156.85" transform="matrix(0.2189, 0.0151, -0.0039, 0.1245, 17.0677, 26.0791)" width="73.1" xlink:href="#sprite0"/>
    <use height="8.45" transform="matrix(1.0, 0.0, 0.0, 1.0, 31.15, 23.4)" width="7.6" xlink:href="#shape2"/>
    <use height="156.85" transform="matrix(0.32, -0.0043, -0.0076, 0.1578, 15.6031, 6.677)" width="73.1" xlink:href="#sprite0"/>
    <use height="156.85" transform="matrix(0.0063, -0.112, -0.0786, -0.0039, 22.4109, 40.6674)" width="73.1" xlink:href="#sprite0"/>
    <use height="0.0" transform="matrix(0.0922, 0.0402, -0.0277, 0.05, 34.0, 10.6)" width="0.0" xlink:href="#sprite1"/>
    <use height="0.0" transform="matrix(0.0791, 0.0344, -0.0842, 0.1876, 27.2, 29.5)" width="0.0" xlink:href="#sprite1"/>
    <use height="0.0" transform="matrix(0.0222, 0.0096, -0.0397, 0.0549, 27.5, 15.5)" width="0.0" xlink:href="#sprite1"/>
    <use height="0.0" transform="matrix(0.0852, 0.0371, -0.0249, 0.0344, 19.7, 31.45)" width="0.0" xlink:href="#sprite1"/>
  </g>
  <defs>
    <g id="shape0" transform="matrix(1.0, 0.0, 0.0, 1.0, 1.0, 1.0)">
      <path d="M52.0 0.0 L52.0 52.0 0.0 52.0 0.0 0.0 52.0 0.0" fill="#795fa9" fill-opacity="0.0" fill-rule="evenodd" stroke="none"/>
      <path d="M29.6 4.75 L25.95 7.35 24.35 10.0 24.45 11.95 23.75 14.05 22.1 15.95 21.9 15.25 20.75 14.35 18.5 15.1 16.35 17.9 16.65 20.45 17.15 21.05 15.9 22.25 12.1 27.5 11.85 28.95 13.35 30.25 14.8 31.0 12.65 33.45 9.3 39.75 11.1 42.5 14.0 44.25 16.3 42.25 16.85 41.35 17.3 41.55 15.65 43.35 15.4 44.2 15.25 44.95 16.75 45.7 17.5 45.55 17.4 46.0 21.6 47.85 24.65 47.6 26.35 46.1 29.05 41.55 32.75 32.65 33.0 30.8 33.7 31.4 36.25 30.6 37.75 28.45 38.3 25.6 38.0 25.0 37.45 24.1 36.65 23.95 37.45 22.85 38.4 23.0 41.4 19.75 42.65 17.0 42.65 12.1 42.1 10.65 40.1 8.5 37.7 6.9 Q34.65 5.95 31.6 5.1 L29.6 4.75 M20.1 18.25 L19.45 18.95 19.1 18.85 19.3 18.2 19.9 18.1 20.1 18.25 M35.25 27.25 L35.2 27.5 34.2 27.8 33.95 27.55 34.6 26.75 35.25 27.25" fill="none" stroke="#000000" stroke-linecap="round" stroke-linejoin="round" stroke-opacity="0.3019608" stroke-width="1.0"/>
      <path d="M20.05 17.25 L19.9 18.1 19.3 18.2 18.65 18.35 20.05 17.25" fill="#a89e64" fill-rule="evenodd" stroke="none"/>
      <path d="M18.95 20.85 L17.65 21.65 16.65 20.45 17.7 20.65 18.95 20.85 M20.45 18.6 L19.9 18.1 20.05 17.25 20.7 17.35 21.0 18.2 20.45 18.6 M19.3 18.2 L19.1 18.85 18.6 18.8 18.65 18.35 19.3 18.2" fill="#5f5a3a" fill-rule="evenodd" stroke="none"/>
      <path d="M18.5 15.1 L20.75 14.35 21.9 15.25 19.3 16.0 21.9 15.25 22.5 17.5 18.95 20.85 17.7 20.65 16.95 19.8 16.9 18.05 19.3 16.0 18.5 15.1 M20.45 18.6 L21.0 18.2 20.7 17.35 20.05 17.25 18.65 18.35 18.6 18.8 19.1 18.85 19.95 19.05 20.45 18.6" fill="#bfb072" fill-rule="evenodd" stroke="none"/>
      <path d="M18.5 15.1 L19.3 16.0 16.9 18.05 16.95 19.8 17.7 20.65 16.65 20.45 16.35 17.9 18.5 15.1 M19.3 16.0 L16.35 17.9 19.3 16.0" fill="#d0c586" fill-rule="evenodd" stroke="none"/>
      <path d="M21.9 15.25 L20.75 14.35 18.5 15.1 19.3 16.0 21.9 15.25 22.5 17.5 18.95 20.85 17.65 21.65 16.65 20.45 16.35 17.9 18.5 15.1 M19.9 18.1 L20.45 18.6 21.0 18.2 20.7 17.35 20.05 17.25 19.9 18.1 19.3 18.2 19.1 18.85 19.95 19.05 20.45 18.6 M18.65 18.35 L19.3 18.2 M19.1 18.85 L18.6 18.8 18.65 18.35 20.05 17.25 M17.7 20.65 L18.95 20.85 M16.65 20.45 L17.7 20.65 M16.35 17.9 L19.3 16.0" fill="none" stroke="#000000" stroke-linecap="round" stroke-linejoin="round" stroke-opacity="0.3019608" stroke-width="0.30000000000000004"/>
      <path d="M29.95 6.1 L31.6 5.1 Q34.65 5.95 37.7 6.9 L38.0 9.4 40.1 8.5 42.1 10.65 39.95 15.75 38.4 16.75 37.15 15.05 37.6 10.25 37.3 10.7 35.1 12.05 28.7 9.2 26.2 9.3 29.95 6.1 M12.65 33.45 L14.15 31.75 14.95 33.95 13.7 38.15 10.8 39.0 12.65 33.45 M11.85 28.95 L12.1 27.5 14.25 24.55 12.95 27.7 11.85 28.95 M28.1 12.75 L28.9 11.65 29.2 11.15 29.95 10.9 27.65 16.75 27.4 13.9 28.1 12.75 M37.6 10.25 L38.0 9.4 37.6 10.25 M27.3 20.9 L23.4 18.2 24.1 17.1 21.7 18.55 21.55 19.4 21.4 20.35 21.55 20.45 25.5 25.9 26.55 30.55 26.2 32.45 25.0 32.2 19.8 29.8 Q18.85 29.2 17.95 28.7 L16.9 25.5 17.1 24.95 20.6 18.35 24.3 15.45 24.9 16.85 25.6 16.55 27.3 20.9 M24.9 16.85 L24.1 17.1 24.9 16.85" fill="#bfb072" fill-rule="evenodd" stroke="none"/>
      <path d="M42.65 12.1 L42.65 17.0 41.4 19.75 38.65 22.8 38.4 23.0 37.45 22.85 33.3 28.45 27.75 35.85 27.4 32.1 28.8 30.2 29.55 29.2 33.5 23.45 33.25 22.5 31.95 16.65 34.8 22.45 35.9 21.6 37.9 20.05 37.7 19.1 36.25 16.85 32.65 13.7 32.65 12.2 32.65 13.7 31.6 15.35 29.0 19.5 28.55 18.75 30.65 16.15 31.55 13.75 32.65 12.2 Q31.3 11.5 29.95 10.9 L29.2 11.15 28.9 11.65 28.1 12.75 24.75 13.5 24.1 13.0 24.45 11.95 24.35 10.0 25.15 9.45 29.0 9.65 35.95 12.75 37.15 15.05 38.4 16.75 38.9 18.6 40.65 15.6 42.65 12.1 M24.65 47.6 L21.6 47.85 17.4 46.0 17.5 45.55 17.6 45.1 20.5 46.25 20.9 46.45 22.7 46.8 20.4 43.35 18.4 41.85 17.3 41.55 16.85 41.35 16.25 41.2 13.75 40.5 11.2 39.7 10.4 40.1 11.6 41.95 13.1 42.95 13.85 43.45 14.0 44.25 11.1 42.5 9.3 39.75 10.8 39.0 16.95 40.65 19.95 41.8 23.4 37.1 23.8 36.55 26.6 37.95 29.4 36.3 32.55 31.4 32.45 32.45 28.95 40.9 27.0 41.9 24.1 43.0 21.4 43.1 19.95 41.8 21.4 43.1 24.65 47.6 M16.75 45.7 L15.25 44.95 15.4 44.2 16.9 44.85 16.75 45.7 M14.15 31.75 L14.65 31.2 16.05 32.55 14.95 33.95 14.15 31.75 M14.8 31.0 L13.35 30.25 11.85 28.95 12.95 27.7 17.95 28.7 Q18.85 29.2 19.8 29.8 L24.6 32.55 25.35 33.2 26.9 36.55 25.4 36.25 24.4 35.8 16.55 31.85 14.8 31.0 M37.45 22.85 L37.95 20.2 37.9 20.05 37.95 20.2 37.45 22.85 M33.5 23.45 L34.8 22.45 33.5 23.45 M28.7 23.45 L29.4 20.25 29.5 22.0 28.7 23.45 M27.7 23.85 L28.3 30.2 26.9 31.85 26.2 32.45 26.55 30.55 25.5 25.9 21.55 20.45 23.7 21.45 27.7 23.85 M38.9 18.6 L38.65 22.8 38.9 18.6 M28.9 11.65 L26.35 11.05 24.7 11.6 24.45 11.95 24.7 11.6 26.35 11.05 28.9 11.65" fill="#5f5a3a" fill-rule="evenodd" stroke="none"/>
      <path d="M25.95 7.35 L28.9 6.7 25.15 9.45 24.35 10.0 25.95 7.35 M37.7 6.9 L40.1 8.5 38.0 9.4 37.7 6.9 M42.1 10.65 L42.65 12.1 40.65 15.6 38.9 18.6 38.4 16.75 39.95 15.75 42.1 10.65 M15.9 22.25 L19.5 18.85 17.1 24.95 16.9 25.5 15.9 22.25 M23.75 14.05 L24.1 13.0 24.75 13.5 28.1 12.75 27.4 13.9 27.65 16.75 29.95 10.9 Q31.3 11.5 32.65 12.2 L31.55 13.75 30.0 15.9 28.55 18.75 29.0 19.5 29.4 20.25 28.7 23.45 28.4 22.85 27.3 20.9 25.6 16.55 27.4 13.9 25.6 16.55 24.9 16.85 24.3 15.45 23.75 14.05 M35.95 12.75 L35.75 12.35 37.3 10.7 37.6 10.25 37.15 15.05 35.95 12.75 M39.95 15.75 L40.65 15.6 39.95 15.75 M33.5 23.45 L29.55 29.2 33.25 22.5 33.5 23.45 M28.8 30.2 L27.4 32.1 26.65 32.9 24.6 32.55 19.8 29.8 25.0 32.2 26.2 32.45 26.9 31.85 28.3 30.2 27.7 23.85 28.8 30.2 M27.65 16.75 L27.75 18.3 27.3 20.9 27.75 18.3 27.65 16.75 M23.8 36.55 L23.4 37.1 19.9 40.9 18.7 41.1 15.9 39.85 13.7 38.15 14.95 33.95 16.05 32.55 23.8 36.55" fill="#a89e64" fill-rule="evenodd" stroke="none"/>
      <path d="M25.95 7.35 L29.6 4.75 31.6 5.1 29.95 6.1 28.9 6.7 29.95 6.1 26.2 9.3 28.7 9.2 35.1 12.05 37.3 10.7 35.75 12.35 35.95 12.75 29.0 9.65 25.15 9.45 28.9 6.7 25.95 7.35 M9.3 39.75 L12.65 33.45 10.8 39.0 9.3 39.75 M14.25 24.55 L15.9 22.25 16.9 25.5 17.95 28.7 12.95 27.7 14.25 24.55 M19.5 18.85 L19.8 18.6 23.75 14.05 24.3 15.45 20.6 18.35 17.1 24.95 19.5 18.85 M31.55 13.75 L30.65 16.15 28.55 18.75 30.0 15.9 31.55 13.75 M27.3 20.9 L28.4 22.85 27.25 21.45 23.15 18.3 22.05 18.55 21.55 19.4 21.7 18.55 24.1 17.1 23.4 18.2 27.3 20.9 M23.4 37.1 L19.95 41.8 16.95 40.65 10.8 39.0 13.7 38.15 15.9 39.85 18.7 41.1 19.9 40.9 23.4 37.1" fill="#d0c586" fill-rule="evenodd" stroke="none"/>
      <path d="M33.3 28.45 L33.05 30.6 32.55 31.4 29.4 36.3 26.6 37.95 23.8 36.55 24.4 35.8 23.8 36.55 16.05 32.55 16.55 31.85 16.05 32.55 14.65 31.2 14.8 31.0 16.55 31.85 24.4 35.8 25.4 36.25 26.9 36.55 27.75 35.85 33.3 28.45" fill="#443f2b" fill-rule="evenodd" stroke="none"/>
      <path d="M33.05 30.6 L32.75 32.65 29.05 41.55 26.35 46.1 28.05 42.2 24.1 43.0 27.0 41.9 28.95 40.9 32.45 32.45 32.55 31.4 33.05 30.6 M15.4 44.2 L15.65 43.35 17.0 41.9 15.85 43.85 17.2 44.55 16.9 44.85 15.4 44.2 M20.5 46.25 L17.6 45.1 17.7 44.85 18.15 45.05 20.5 46.25 M13.1 42.95 L14.4 42.95 13.85 43.45 13.1 42.95" fill="#6f6544" fill-rule="evenodd" stroke="none"/>
      <path d="M26.35 46.1 L24.65 47.6 21.4 43.1 24.1 43.0 28.05 42.2 26.35 46.1" fill="#595237" fill-rule="evenodd" stroke="none"/>
      <path d="M37.7 19.1 L37.9 20.05 35.9 21.6 37.7 19.1 M31.6 15.35 L31.95 16.65 33.25 22.5 29.55 29.2 28.8 30.2 27.7 23.85 28.7 23.45 29.5 22.0 29.4 20.25 29.0 19.5 31.6 15.35 M27.4 32.1 L27.75 35.85 26.9 36.55 25.35 33.2 24.6 32.55 26.65 32.9 27.4 32.1" fill="#696141" fill-rule="evenodd" stroke="none"/>
      <path d="M32.65 13.7 L36.25 16.85 37.7 19.1 35.9 21.6 34.8 22.45 31.95 16.65 31.6 15.35 32.65 13.7 M28.4 22.85 L28.7 23.45 27.7 23.85 23.7 21.45 21.55 20.45 21.4 20.35 21.55 19.4 22.05 18.55 23.15 18.3 27.25 21.45 28.4 22.85" fill="#49432e" fill-rule="evenodd" stroke="none"/>
      <path d="M17.0 41.9 L17.3 41.55 18.4 41.85 20.4 43.35 19.55 44.8 18.15 45.05 17.7 44.85 18.15 43.65 17.2 44.55 15.85 43.85 17.0 41.9 M13.75 40.5 L16.25 41.2 15.85 41.75 14.4 42.95 13.1 42.95 11.6 41.95 12.2 41.3 Q12.95 40.85 13.75 40.5" fill="#3f3727" fill-rule="evenodd" stroke="none"/>
      <path d="M17.5 45.55 L16.75 45.7 16.9 44.85 17.2 44.55 18.15 43.65 17.7 44.85 17.6 45.1 17.5 45.55 M16.85 41.35 L16.3 42.25 14.0 44.25 13.85 43.45 14.4 42.95 15.85 41.75 16.25 41.2 16.85 41.35 M20.4 43.35 L22.7 46.8 20.9 46.45 20.5 46.25 18.15 45.05 19.55 44.8 20.4 43.35 M10.4 40.1 L11.2 39.7 13.75 40.5 Q12.95 40.85 12.2 41.3 L11.6 41.95 10.4 40.1" fill="#29241b" fill-rule="evenodd" stroke="none"/>
      <path d="M31.6 5.1 L29.6 4.75 25.95 7.35 28.9 6.7 29.95 6.1 31.6 5.1 Q34.65 5.95 37.7 6.9 L40.1 8.5 42.1 10.65 42.65 12.1 42.65 17.0 41.4 19.75 38.65 22.8 38.4 23.0 37.45 22.85 33.3 28.45 33.05 30.6 32.75 32.65 29.05 41.55 26.35 46.1 24.65 47.6 21.6 47.85 17.4 46.0 17.5 45.55 16.75 45.7 15.25 44.95 15.4 44.2 15.65 43.35 17.0 41.9 17.3 41.55 16.85 41.35 16.3 42.25 14.0 44.25 11.1 42.5 9.3 39.75 12.65 33.45 14.15 31.75 14.65 31.2 14.8 31.0 13.35 30.25 11.85 28.95 12.1 27.5 14.25 24.55 15.9 22.25 19.5 18.85 19.8 18.6 23.75 14.05 24.1 13.0 24.45 11.95 24.35 10.0 25.95 7.35 M29.95 10.9 L29.2 11.15 28.9 11.65 28.1 12.75 27.4 13.9 25.6 16.55 24.9 16.85 24.3 15.45 23.75 14.05 M27.65 16.75 L29.95 10.9 Q31.3 11.5 32.65 12.2 L32.65 13.7 36.25 16.85 37.7 19.1 37.9 20.05 37.95 20.2 37.45 22.85 M31.6 15.35 L31.95 16.65 34.8 22.45 35.9 21.6 37.7 19.1 M31.6 15.35 L32.65 13.7 M32.65 12.2 L31.55 13.75 30.65 16.15 28.55 18.75 29.0 19.5 31.6 15.35 M37.3 10.7 L35.75 12.35 35.95 12.75 37.15 15.05 37.6 10.25 37.3 10.7 M31.55 13.75 L30.0 15.9 28.55 18.75 M40.1 8.5 L38.0 9.4 37.6 10.25 M40.65 15.6 L39.95 15.75 38.4 16.75 38.9 18.6 40.65 15.6 42.65 12.1 M37.15 15.05 L38.4 16.75 M39.95 15.75 L42.1 10.65 M38.0 9.4 L37.7 6.9 M35.9 21.6 L37.9 20.05 M34.8 22.45 L33.5 23.45 29.55 29.2 28.8 30.2 27.4 32.1 26.65 32.9 24.6 32.55 19.8 29.8 Q18.85 29.2 17.95 28.7 L12.95 27.7 11.85 28.95 M27.75 35.85 L33.3 28.45 M33.5 23.45 L33.25 22.5 31.95 16.65 M29.4 20.25 L29.0 19.5 M28.4 22.85 L28.7 23.45 29.4 20.25 29.5 22.0 28.7 23.45 27.7 23.85 28.8 30.2 M27.3 20.9 L27.75 18.3 27.65 16.75 M28.4 22.85 L27.3 20.9 M24.1 17.1 L21.7 18.55 21.55 19.4 21.4 20.35 21.55 20.45 23.7 21.45 27.7 23.85 M23.8 36.55 L23.4 37.1 19.95 41.8 21.4 43.1 24.1 43.0 28.05 42.2 26.35 46.1 M26.9 36.55 L27.75 35.85 M26.9 36.55 L25.4 36.25 24.4 35.8 23.8 36.55 M16.05 32.55 L14.95 33.95 13.7 38.15 10.8 39.0 16.95 40.65 19.95 41.8 M24.65 47.6 L21.4 43.1 M20.4 43.35 L22.7 46.8 20.9 46.45 20.5 46.25 M17.6 45.1 L17.5 45.55 M38.65 22.8 L38.9 18.6 M24.45 11.95 L24.7 11.6 26.35 11.05 28.9 11.65 M24.1 13.0 L24.75 13.5 28.1 12.75 M25.15 9.45 L24.35 10.0 M24.1 17.1 L24.9 16.85 M17.1 24.95 L16.9 25.5 17.95 28.7 M15.9 22.25 L16.9 25.5 M17.1 24.95 L19.5 18.85 M16.05 32.55 L16.55 31.85 14.8 31.0 M14.95 33.95 L14.15 31.75 M10.4 40.1 L11.2 39.7 13.75 40.5 16.25 41.2 16.85 41.35 M10.8 39.0 L9.3 39.75 M12.95 27.7 L14.25 24.55 M20.4 43.35 L18.4 41.85 17.3 41.55 M17.2 44.55 L18.15 43.65 17.7 44.85 17.6 45.1 M16.9 44.85 L16.75 45.7 M16.9 44.85 L17.2 44.55 M28.9 6.7 L25.15 9.45 M16.55 31.85 L24.4 35.8" fill="none" stroke="#000000" stroke-linecap="round" stroke-linejoin="round" stroke-opacity="0.3019608" stroke-width="0.30000000000000004"/>
    </g>
    <g id="sprite0" transform="matrix(1.0, 0.0, 0.0, 1.0, 0.15, 0.15)">
      <use height="158.65" transform="matrix(1.0, 0.0, 0.0, 1.0, -1.05, -1.05)" width="74.9" xlink:href="#shape1"/>
    </g>
    <g id="shape1" transform="matrix(1.0, 0.0, 0.0, 1.0, 1.05, 1.05)">
      <path d="M67.1 47.3 Q60.05 84.7 45.15 118.0 L67.1 47.3" fill="#000000" fill-opacity="0.05490196" fill-rule="evenodd" stroke="none"/>
      <path d="M72.8 0.4 Q71.4 24.6 67.1 47.3 60.05 84.7 45.15 118.0 L45.0 118.3 Q39.4 130.85 24.25 156.55 M43.75 69.05 Q26.65 113.65 20.4 117.6 17.55 109.85 28.1 81.45 38.25 56.05 47.2 54.0 48.65 56.75 43.75 69.05 M48.0 24.8 Q34.25 59.6 13.6 90.6 7.15 100.3 0.0 109.6 M66.8 0.0 Q53.65 80.05 13.6 143.35 L12.4 145.2 M67.1 47.3 L45.15 118.0" fill="none" stroke="#000000" stroke-linecap="round" stroke-linejoin="round" stroke-opacity="0.08627451" stroke-width="0.30000000000000004"/>
    </g>
    <g id="shape2" transform="matrix(1.0, 0.0, 0.0, 1.0, -31.15, -23.4)">
      <path d="M38.3 25.6 L37.75 28.45 36.25 30.6 33.7 31.4 33.7 30.95 34.1 30.2 35.65 29.6 36.25 30.6 37.2 27.95 38.05 26.15 38.3 25.6 M35.25 27.25 L34.1 26.4 33.8 25.25 35.5 25.85 35.25 27.25" fill="#5f5a3a" fill-rule="evenodd" stroke="none"/>
      <path d="M35.9 23.85 L37.45 24.1 38.0 25.0 35.9 23.85 M33.7 31.4 L31.7 29.65 31.6 28.45 33.45 30.1 33.7 30.95 33.7 31.4 M37.2 27.95 L36.25 30.6 35.65 29.6 37.2 27.95" fill="#a89e64" fill-rule="evenodd" stroke="none"/>
      <path d="M35.9 23.85 L38.0 25.0 38.3 25.6 38.05 26.15 35.8 28.5 34.0 29.7 31.6 28.45 33.15 26.5 34.2 27.8 35.2 27.5 35.25 27.25 35.5 25.85 33.8 25.25 34.5 24.2 35.9 23.85" fill="#bfb072" fill-rule="evenodd" stroke="none"/>
      <path d="M38.05 26.15 L37.2 27.95 35.65 29.6 34.1 30.2 33.7 30.95 33.45 30.1 31.6 28.45 34.0 29.7 35.8 28.5 38.05 26.15" fill="#d0c586" fill-rule="evenodd" stroke="none"/>
      <path d="M38.0 25.0 L37.45 24.1 35.9 23.85 38.0 25.0 38.3 25.6 37.75 28.45 36.25 30.6 33.7 31.4 31.7 29.65 31.6 28.45 33.15 26.5 34.2 27.8 35.2 27.5 35.25 27.25 34.1 26.4 33.8 25.25 34.5 24.2 35.9 23.85 M38.3 25.6 L38.05 26.15 37.2 27.95 36.25 30.6 35.65 29.6 34.1 30.2 33.7 30.95 33.7 31.4 M33.8 25.25 L35.5 25.85 35.25 27.25 M35.65 29.6 L37.2 27.95 M33.7 30.95 L33.45 30.1 31.6 28.45" fill="none" stroke="#000000" stroke-linecap="round" stroke-linejoin="round" stroke-opacity="0.3019608" stroke-width="0.30000000000000004"/>
    </g>
  </defs>
</svg>
