<?xml version="1.0" encoding="UTF-8" standalone="no"?>
<svg xmlns:xlink="http://www.w3.org/1999/xlink" height="52.0px" width="52.0px" xmlns="http://www.w3.org/2000/svg">
  <g transform="matrix(1.0, 0.0, 0.0, 1.0, 0.0, 0.0)">
    <use height="54.0" transform="matrix(1.0, 0.0, 0.0, 1.0, -1.0, -1.0)" width="54.0" xlink:href="#shape0"/>
    <use height="156.85" transform="matrix(0.3437, -0.0251, 0.0028, 0.203, 14.198, 5.4733)" width="73.1" xlink:href="#sprite0"/>
    <use height="156.85" transform="matrix(0.1339, -0.0093, 0.0123, 0.0805, 14.8281, 32.0393)" width="73.1" xlink:href="#sprite0"/>
    <use height="156.85" transform="matrix(-0.0962, -0.0992, -0.0587, 0.0528, 22.3232, 28.207)" width="73.1" xlink:href="#sprite0"/>
    <use height="0.0" transform="matrix(0.0706, 0.0151, -0.0549, 0.1323, 37.05, 21.5)" width="0.0" xlink:href="#sprite1"/>
    <use height="0.0" transform="matrix(0.0256, -0.0866, 0.0259, 0.0092, 20.25, 32.3)" width="0.0" xlink:href="#sprite1"/>
    <use height="0.0" transform="matrix(0.0181, -0.0893, 0.0259, 0.0092, 26.7, 33.6)" width="0.0" xlink:href="#sprite1"/>
    <use height="0.0" transform="matrix(0.0414, -0.0801, 0.023, 0.0153, 14.45, 29.85)" width="0.0" xlink:href="#sprite1"/>
    <use height="0.0" transform="matrix(-0.003, -0.0433, 0.0679, 0.006, 37.25, 34.25)" width="0.0" xlink:href="#sprite1"/>
    <use height="0.0" transform="matrix(0.0244, 0.0022, -0.0196, 0.0434, 32.95, 19.1)" width="0.0" xlink:href="#sprite1"/>
    <use height="0.0" transform="matrix(0.0244, 0.0022, -0.0196, 0.0434, 21.9, 16.25)" width="0.0" xlink:href="#sprite1"/>
    <use height="81.5" transform="matrix(0.1609, 0.0198, -0.0096, 0.157, 28.55, 10.95)" width="81.5" xlink:href="#sprite2"/>
  </g>
  <defs>
    <g id="shape0" transform="matrix(1.0, 0.0, 0.0, 1.0, 1.0, 1.0)">
      <path d="M52.0 0.0 L52.0 52.0 0.0 52.0 0.0 0.0 52.0 0.0" fill="#795fa9" fill-opacity="0.0" fill-rule="evenodd" stroke="none"/>
      <path d="M17.8 15.75 Q16.5 18.4 16.15 21.35 L15.4 21.1 14.2 20.95 11.45 23.25 10.45 25.8 7.65 28.45 7.1 30.65 8.25 31.85 8.95 31.8 9.1 33.3 10.65 32.8 9.65 36.1 10.15 37.05 11.85 37.25 14.55 36.75 15.6 35.5 15.15 40.0 Q14.7 44.1 15.8 46.0 L17.7 45.9 19.8 44.5 23.55 45.25 23.65 48.55 26.05 48.05 Q28.15 47.25 29.95 44.95 L30.3 44.4 31.05 43.6 31.95 41.4 34.25 38.45 34.35 37.65 35.5 37.75 Q36.45 37.9 37.25 38.3 L37.8 39.45 37.85 40.25 37.7 42.65 38.95 43.1 42.55 40.35 44.4 34.5 44.25 29.8 42.95 29.25 41.85 29.1 40.65 29.6 38.1 31.15 37.0 31.0 34.95 32.1 35.05 31.15 35.5 31.05 39.45 28.85 42.15 26.35 43.1 24.0 Q43.75 22.0 43.95 19.8 L43.1 16.9 42.45 15.7 41.3 14.2 40.55 13.8 40.3 12.95 42.0 10.45 44.1 10.45 Q44.9 7.05 43.05 4.25 L39.1 3.75 34.15 4.55 31.2 6.85 29.5 9.55 28.2 9.45 25.0 9.75 Q20.6 11.35 17.85 15.7 L17.8 15.75 Z" fill="none" stroke="#000000" stroke-linecap="round" stroke-linejoin="round" stroke-opacity="0.3019608" stroke-width="1.0"/>
      <path d="M15.25 24.2 L15.35 25.05 16.35 24.35 11.9 31.4 10.45 31.15 11.45 29.1 15.25 24.2" fill="#5f5a3a" fill-rule="evenodd" stroke="none"/>
      <path d="M15.15 23.4 L15.25 24.2 11.45 29.1 9.15 32.25 9.2 31.6 9.85 28.25 11.7 23.45 14.1 21.75 15.15 23.4" fill="#a89e64" fill-rule="evenodd" stroke="none"/>
      <path d="M15.4 21.1 L15.05 22.45 14.2 20.95 15.4 21.1" fill="#bfb072" fill-rule="evenodd" stroke="none"/>
      <path d="M15.05 22.45 L15.15 23.4 14.1 21.75 11.7 23.45 9.85 28.25 9.2 31.6 9.15 32.25 11.45 29.1 10.45 31.15 9.1 33.3 8.9 31.6 9.55 28.15 11.4 23.25 14.2 20.95 15.05 22.45" fill="#d0c586" fill-rule="evenodd" stroke="none"/>
      <path d="M15.4 21.1 L16.75 21.55 16.35 24.35 15.35 25.05 15.25 24.2 15.15 23.4 15.05 22.45 15.4 21.1 M11.9 31.4 L10.65 32.8 9.1 33.3 10.45 31.15 11.9 31.4" fill="#443f2b" fill-rule="evenodd" stroke="none"/>
      <path d="M16.35 24.35 L16.75 21.55 15.4 21.1 15.05 22.45 15.15 23.4 15.25 24.2 15.35 25.05 16.35 24.35 11.9 31.4 10.65 32.8 9.1 33.3 8.9 31.6 9.55 28.15 11.4 23.25 14.2 20.95 15.4 21.1 M15.05 22.45 L14.2 20.95 M9.1 33.3 L10.45 31.15 11.9 31.4" fill="none" stroke="#000000" stroke-linecap="round" stroke-linejoin="round" stroke-opacity="0.3019608" stroke-width="0.30000000000000004"/>
      <path d="M31.65 29.8 L31.35 34.4 31.35 34.6 29.75 41.15 28.45 42.25 27.3 42.1 26.55 39.7 27.3 35.7 26.05 37.2 23.05 40.7 22.45 40.75 20.95 40.85 19.7 38.3 22.0 32.75 19.35 32.0 18.8 32.9 16.4 36.6 Q15.95 36.85 15.4 37.2 L15.65 35.15 16.8 29.4 19.25 25.7 19.25 25.65 31.65 29.8 M32.35 39.45 L34.2 38.45 31.95 41.4 28.75 43.85 29.9 42.2 32.35 39.45 M31.05 43.6 L30.3 44.45 27.0 46.35 29.15 43.95 31.05 43.6 M18.5 45.4 L17.7 45.9 15.8 45.95 17.35 43.95 18.5 45.4" fill="#5f5a3a" fill-rule="evenodd" stroke="none"/>
      <path d="M23.55 45.25 L21.2 44.75 24.1 41.6 26.05 37.2 27.3 35.7 26.55 39.7 27.3 42.1 28.45 42.25 29.75 41.15 29.6 41.75 26.5 46.4 23.9 47.95 24.1 45.35 23.55 45.25 M19.25 25.7 L19.25 25.65 19.25 25.7" fill="#a89e64" fill-rule="evenodd" stroke="none"/>
      <path d="M31.35 34.6 L31.0 39.3 29.9 42.2 28.75 43.85 28.7 43.9 29.15 43.95 27.0 46.35 Q25.4 48.0 23.65 48.55 L23.55 45.25 24.1 45.35 23.9 47.95 26.5 46.4 29.6 41.75 29.75 41.15 31.35 34.6 M18.8 32.9 L19.35 32.0 22.0 32.75 19.4 38.0 19.35 38.5 20.6 41.15 22.45 40.75 23.05 40.7 24.65 39.3 23.7 41.5 20.95 44.35 19.7 44.2 16.25 42.2 17.05 43.15 15.8 45.35 Q15.4 44.75 15.25 42.85 L15.85 37.55 16.5 37.25 18.8 32.9" fill="#bfb072" fill-rule="evenodd" stroke="none"/>
      <path d="M31.0 39.3 L32.35 39.45 29.9 42.2 31.0 39.3 M21.2 44.75 L19.8 44.5 17.75 43.5 17.35 43.95 15.8 45.95 Q14.7 44.05 15.15 40.0 L15.4 37.2 Q15.95 36.85 16.4 36.6 L18.8 32.9 16.5 37.25 15.85 37.55 15.25 42.85 Q15.4 44.75 15.8 45.35 L17.05 43.15 16.25 42.2 19.7 44.2 20.95 44.35 23.7 41.5 24.65 39.3 23.05 40.7 26.05 37.2 24.1 41.6 21.2 44.75 M22.0 32.75 L19.7 38.3 20.95 40.85 22.45 40.75 20.6 41.15 19.35 38.5 19.4 38.0 22.0 32.75" fill="#d0c586" fill-rule="evenodd" stroke="none"/>
      <path d="M31.65 29.8 L35.15 29.7 34.2 38.45 32.35 39.45 31.0 39.3 31.35 34.6 31.35 34.4 31.65 29.8 M31.95 41.4 L31.05 43.6 29.15 43.95 28.7 43.9 28.75 43.85 31.95 41.4 M19.8 44.5 L18.5 45.4 17.35 43.95 17.75 43.5 19.8 44.5" fill="#49432e" fill-rule="evenodd" stroke="none"/>
      <path d="M30.3 44.45 L29.9 44.95 Q28.15 47.25 26.05 48.05 L23.65 48.55 Q25.4 48.0 27.0 46.35 L30.3 44.45" fill="#696141" fill-rule="evenodd" stroke="none"/>
      <path d="M34.2 38.45 L35.15 29.7 31.65 29.8 31.35 34.4 M31.35 34.6 L31.0 39.3 32.35 39.45 34.2 38.45 31.95 41.4 31.05 43.6 30.3 44.45 29.9 44.95 Q28.15 47.25 26.05 48.05 L23.65 48.55 23.55 45.25 21.2 44.75 19.8 44.5 18.5 45.4 17.7 45.9 15.8 45.95 Q14.7 44.05 15.15 40.0 L15.4 37.2 15.65 35.15 16.8 29.4 19.25 25.7 19.25 25.65 19.35 25.5 M19.25 25.65 L31.65 29.8 M17.75 43.5 L19.8 44.5" fill="none" stroke="#000000" stroke-linecap="round" stroke-linejoin="round" stroke-opacity="0.3019608" stroke-width="0.30000000000000004"/>
      <path d="M30.0 10.95 L33.05 7.95 35.2 6.15 37.35 5.45 38.25 6.35 39.15 9.3 37.7 12.35 36.25 11.55 33.8 10.5 33.25 10.7 32.7 10.85 31.45 11.35 29.5 12.35 27.25 13.75 28.3 12.65 30.0 10.95 M43.95 19.8 Q43.7 22.0 43.05 24.0 L42.1 26.4 38.75 21.05 39.1 18.95 39.45 16.65 39.4 16.5 41.2 16.95 43.95 19.8 M39.45 28.85 L35.5 31.05 32.3 31.6 30.3 31.5 30.4 31.05 29.5 29.65 33.2 27.65 36.2 27.3 39.45 28.85 M29.55 38.05 L28.4 40.7 26.6 40.35 28.25 36.6 29.25 37.7 29.55 38.05 M25.5 30.35 L24.55 30.25 24.15 30.25 23.7 29.65 23.4 28.9 25.75 29.5 25.5 30.35 M22.5 38.65 L19.3 40.65 19.35 39.2 21.45 35.95 22.5 38.65 M18.35 40.7 L17.4 40.75 16.45 39.05 17.6 39.85 18.35 40.7 M20.25 28.55 L19.35 28.1 18.75 26.95 20.55 27.8 20.25 28.55 M14.55 36.75 L11.85 37.25 10.15 37.05 13.05 36.1 14.05 36.55 14.55 36.75 M9.1 31.8 L8.25 31.85 7.05 30.65 Q7.6 30.85 8.15 31.15 L9.1 31.8 M44.05 10.45 L41.95 10.45 40.4 8.55 44.05 10.45" fill="#5f5a3a" fill-rule="evenodd" stroke="none"/>
      <path d="M31.7 7.3 L32.5 7.4 32.05 8.25 30.0 10.95 28.3 12.65 31.7 7.3 M36.25 11.55 L37.7 12.35 40.5 13.8 41.3 14.2 42.4 15.7 43.05 16.9 41.2 16.95 39.4 16.5 Q38.5 14.05 37.0 12.35 L36.25 11.55 M42.1 26.4 L39.45 28.85 36.2 27.3 36.7 24.2 38.75 21.05 42.1 26.4 M18.0 33.3 L20.25 28.55 20.55 27.8 21.25 26.25 24.9 22.7 Q29.7 19.2 34.2 17.25 L35.2 16.8 36.9 16.2 37.55 15.95 38.1 18.45 37.3 22.35 36.65 23.8 32.85 27.25 29.65 28.8 28.8 27.6 28.6 30.65 27.7 36.4 26.3 39.85 25.35 40.75 24.5 39.5 24.45 39.15 25.2 39.6 26.4 37.15 27.3 29.35 26.75 24.1 25.95 26.75 24.75 28.25 23.45 28.5 23.55 26.8 23.9 24.9 21.25 31.15 18.2 35.3 18.0 33.3 M10.6 34.05 L18.55 23.35 17.95 25.55 19.25 24.8 18.1 27.4 16.25 30.4 12.45 35.7 10.4 36.4 10.1 35.95 10.6 34.05 M22.1 20.2 L18.5 22.2 17.0 23.6 12.4 28.15 Q11.0 29.1 9.7 30.0 L10.9 27.15 12.3 25.15 15.5 23.3 17.35 21.75 21.2 20.4 22.1 20.2 M15.35 32.6 L15.7 31.95 16.6 34.35 15.35 32.6 M13.3 35.75 L14.05 36.55 13.05 36.1 13.3 35.75" fill="#a89e64" fill-rule="evenodd" stroke="none"/>
      <path d="M34.15 4.55 L34.85 4.75 36.0 5.35 31.6 6.85 31.5 6.9 31.2 6.85 34.15 4.55 M42.2 4.2 L37.15 4.95 35.3 4.35 39.1 3.8 42.2 4.2 M30.95 7.25 L31.7 7.3 28.3 12.65 27.25 13.75 29.5 12.35 32.55 11.35 30.9 15.25 24.1 19.7 22.15 20.2 22.1 20.2 21.2 20.4 17.0 21.45 17.9 17.15 Q19.75 13.8 23.15 11.35 L26.45 10.1 29.35 9.8 29.5 9.5 30.95 7.25 M33.05 7.95 L33.1 6.85 35.2 6.15 33.05 7.95 M29.35 9.8 L27.25 13.75 29.35 9.8 M33.25 10.7 L33.8 10.5 36.25 11.55 37.0 12.35 Q38.5 14.05 39.4 16.5 L39.45 16.65 39.1 18.95 38.8 16.05 35.9 12.0 33.25 10.7 M43.05 16.9 L43.95 19.8 41.2 16.95 43.05 16.9 M25.5 41.7 Q24.4 41.25 24.0 39.55 L24.3 34.4 25.5 30.35 25.75 29.5 25.95 26.75 26.75 24.1 27.3 29.35 26.4 37.15 25.2 39.6 24.45 39.15 24.5 39.5 25.35 40.75 26.3 39.85 27.7 36.4 28.6 30.65 28.3 36.0 29.25 37.7 28.25 36.6 26.6 40.35 25.5 41.7 M16.55 37.35 L17.9 33.5 18.0 33.3 18.2 35.3 21.25 31.15 23.9 24.9 23.55 26.8 23.2 28.7 21.3 35.2 19.1 38.85 17.6 39.35 17.1 39.0 16.55 37.35 M10.15 37.05 L9.65 36.1 11.05 31.45 11.15 31.05 14.8 26.85 11.55 31.25 10.6 34.05 10.1 35.95 10.4 36.4 12.45 35.7 16.25 30.4 18.1 27.4 15.7 31.95 15.35 32.6 13.3 35.75 13.05 36.1 10.15 37.05 M7.05 30.65 L7.65 28.45 10.9 27.15 9.7 30.0 8.15 31.15 Q7.6 30.85 7.05 30.65 M33.2 27.65 L36.7 24.2 36.2 27.3 33.2 27.65" fill="#bfb072" fill-rule="evenodd" stroke="none"/>
      <path d="M34.85 4.75 L34.15 4.55 35.3 4.35 37.15 4.95 42.2 4.2 43.0 4.3 37.5 5.35 37.35 5.45 34.85 4.75 37.35 5.45 35.2 6.15 33.1 6.85 33.05 7.95 30.0 10.95 32.05 8.25 32.5 7.4 31.7 7.3 30.95 7.25 31.2 6.85 31.5 6.9 31.6 6.85 36.0 5.35 34.85 4.75 M31.6 6.85 L33.1 6.85 31.6 6.85 M16.05 22.1 Q16.35 18.75 17.8 15.75 L17.85 15.7 Q20.55 11.35 24.95 9.7 L28.2 9.45 29.5 9.5 29.35 9.8 26.45 10.1 23.15 11.35 Q19.75 13.8 17.9 17.15 L17.0 21.45 16.1 22.2 17.0 21.45 21.2 20.4 17.35 21.75 15.5 23.3 12.3 25.15 10.9 27.15 7.65 28.45 11.2 25.05 15.05 23.05 16.1 22.2 16.05 22.1 M22.1 20.2 L22.15 20.2 24.1 19.7 30.9 15.25 32.55 11.35 29.5 12.35 31.45 11.35 32.7 10.85 33.25 10.7 35.9 12.0 38.8 16.05 39.1 18.95 38.75 21.05 36.7 24.2 33.2 27.65 29.5 29.65 28.8 27.6 29.65 28.8 32.85 27.25 36.65 23.8 37.3 22.35 38.1 18.45 37.55 15.95 36.9 16.2 35.2 16.8 34.2 17.25 Q29.7 19.2 24.9 22.7 L21.25 26.25 20.55 27.8 18.75 26.95 19.25 24.8 17.95 25.55 18.55 23.35 10.6 34.05 11.55 31.25 14.8 26.85 16.6 24.8 17.5 23.75 18.5 22.2 22.1 20.2 M16.45 39.05 L16.55 37.35 17.1 39.0 17.6 39.35 19.1 38.85 21.3 35.2 23.2 28.7 21.9 35.25 22.5 38.65 21.45 35.95 19.35 39.2 17.6 39.85 16.45 39.05" fill="#d0c586" fill-rule="evenodd" stroke="none"/>
      <path d="M37.7 12.35 L39.15 9.3 38.25 6.35 40.4 8.55 41.95 10.45 40.25 12.95 40.5 13.8 37.7 12.35 M30.3 31.5 L29.55 38.05 29.25 37.7 28.3 36.0 28.6 30.65 28.8 27.6 29.5 29.65 30.4 31.05 30.3 31.5 M24.55 30.25 L23.25 34.9 22.5 38.65 21.9 35.25 23.2 28.7 23.55 26.8 23.45 28.5 23.4 28.9 23.7 29.65 24.15 30.25 24.55 30.25 M19.35 28.1 L16.6 34.35 14.55 36.75 14.05 36.55 13.3 35.75 15.35 32.6 16.6 34.35 15.7 31.95 18.1 27.4 19.25 24.8 18.75 26.95 19.35 28.1 M11.05 31.45 L9.75 31.8 9.1 31.8 8.15 31.15 9.7 30.0 Q11.0 29.1 12.4 28.15 L17.0 23.6 16.6 24.8 14.8 26.85 11.15 31.05 11.05 31.45" fill="#49432e" fill-rule="evenodd" stroke="none"/>
      <path d="M37.35 5.45 L37.5 5.35 43.0 4.3 Q44.85 7.05 44.05 10.45 L40.4 8.55 38.25 6.35 37.35 5.45 M28.4 40.7 L28.2 40.85 27.25 41.35 26.35 41.6 25.5 41.7 26.6 40.35 28.4 40.7 M19.3 40.65 L18.35 40.7 17.6 39.85 19.35 39.2 19.3 40.65 M23.45 28.5 L24.75 28.25 25.95 26.75 25.75 29.5 23.4 28.9 23.45 28.5 M18.5 22.2 L17.5 23.75 16.6 24.8 17.0 23.6 18.5 22.2" fill="#696141" fill-rule="evenodd" stroke="none"/>
      <path d="M34.85 4.75 L34.15 4.55 31.2 6.85 31.5 6.9 M34.85 4.75 L37.35 5.45 37.5 5.35 43.0 4.3 42.2 4.2 39.1 3.8 35.3 4.35 34.15 4.55 M31.2 6.85 L30.95 7.25 29.5 9.5 28.2 9.45 24.95 9.7 Q20.55 11.35 17.85 15.7 L17.8 15.75 Q16.35 18.75 16.05 22.1 M30.0 10.95 L33.05 7.95 33.1 6.85 31.6 6.85 M16.1 22.2 L17.0 21.45 M29.35 9.8 L29.5 9.5 M29.5 12.35 L27.25 13.75 29.35 9.8 M29.5 12.35 L31.45 11.35 32.7 10.85 33.25 10.7 33.8 10.5 36.25 11.55 37.7 12.35 40.5 13.8 41.3 14.2 42.4 15.7 43.05 16.9 43.95 19.8 Q43.7 22.0 43.05 24.0 L42.1 26.4 39.45 28.85 35.5 31.05 32.3 31.6 30.3 31.5 29.55 38.05 28.4 40.7 28.2 40.85 27.25 41.35 26.35 41.6 25.5 41.7 Q24.4 41.25 24.0 39.55 L24.3 34.4 25.5 30.35 24.55 30.25 23.25 34.9 22.5 38.65 19.3 40.65 18.35 40.7 17.4 40.75 16.45 39.05 16.55 37.35 17.9 33.5 18.0 33.3 20.25 28.55 19.35 28.1 16.6 34.35 14.55 36.75 11.85 37.25 10.15 37.05 9.65 36.1 11.05 31.45 9.75 31.8 9.1 31.8 8.25 31.85 7.05 30.65 7.65 28.45 11.2 25.05 15.05 23.05 16.1 22.2 M38.25 6.35 L37.35 5.45 35.2 6.15 33.05 7.95 M27.25 13.75 L28.3 12.65 30.0 10.95 M40.4 8.55 L38.25 6.35 M41.95 10.45 L40.25 12.95 40.5 13.8 M44.05 10.45 L41.95 10.45 40.4 8.55 44.05 10.45 Q44.85 7.05 43.0 4.3 M36.25 11.55 L37.0 12.35 Q38.5 14.05 39.4 16.5 L41.2 16.95 43.05 16.9 M39.4 16.5 L39.45 16.65 39.1 18.95 38.75 21.05 42.1 26.4 M28.8 27.6 L29.5 29.65 33.2 27.65 36.7 24.2 38.75 21.05 M41.2 16.95 L43.95 19.8 M35.2 6.15 L33.1 6.85 M36.2 27.3 L39.45 28.85 M36.7 24.2 L36.2 27.3 33.2 27.65 M28.6 30.65 L28.8 27.6 M23.45 28.5 L23.4 28.9 25.75 29.5 25.95 26.75 M23.4 28.9 L23.7 29.65 24.15 30.25 24.55 30.25 M25.5 30.35 L25.75 29.5 M30.3 31.5 L30.4 31.05 29.5 29.65 M23.55 26.8 L23.45 28.5 M23.2 28.7 L23.55 26.8 M17.5 23.75 L16.6 24.8 14.8 26.85 11.15 31.05 11.05 31.45 M19.25 24.8 L18.75 26.95 20.55 27.8 21.25 26.25 M17.0 23.6 L16.6 24.8 M20.25 28.55 L20.55 27.8 M18.75 26.95 L19.35 28.1 M23.2 28.7 L21.9 35.25 M21.45 35.95 L19.35 39.2 17.6 39.85 16.45 39.05 M28.3 36.0 L28.6 30.65 M26.6 40.35 L25.5 41.7 M28.25 36.6 L26.6 40.35" fill="none" stroke="#000000" stroke-linecap="round" stroke-linejoin="round" stroke-opacity="0.3019608" stroke-width="0.30000000000000004"/>
      <path d="M42.65 39.95 L42.5 40.35 41.25 40.2 41.45 37.45 41.7 36.45 41.7 39.3 42.65 39.95 M37.2 38.3 L35.5 37.7 Q34.5 37.55 33.3 37.7 L35.15 37.05 35.6 37.15 Q36.55 37.35 37.2 38.3" fill="#5f5a3a" fill-rule="evenodd" stroke="none"/>
      <path d="M42.9 29.25 L44.25 29.8 44.35 34.5 42.3 33.05 42.2 31.65 42.9 29.25 M33.3 37.7 L32.35 37.3 35.15 37.05 33.3 37.7 M32.25 35.4 L32.6 33.35 37.0 31.0 32.25 35.4 M40.7 29.8 L41.15 30.95 39.35 35.45 38.05 31.15 39.4 34.35 40.65 31.4 40.7 29.8 M41.25 40.2 Q40.25 40.7 39.2 41.3 40.55 39.85 41.45 37.45 L41.25 40.2" fill="#a89e64" fill-rule="evenodd" stroke="none"/>
      <path d="M37.7 42.1 L37.8 40.25 37.8 39.45 38.2 38.4 39.35 35.45 38.2 38.4 Q37.55 37.25 36.55 36.8 L35.8 36.55 32.75 36.65 32.85 35.45 37.0 31.0 38.05 31.15 39.35 35.45 41.15 30.95 41.75 32.05 41.65 34.2 40.6 37.6 39.0 40.8 37.7 42.1" fill="#bfb072" fill-rule="evenodd" stroke="none"/>
      <path d="M40.65 29.6 L41.8 29.1 42.9 29.25 42.2 31.65 41.15 30.95 42.2 31.65 42.3 33.05 44.35 34.5 42.35 33.95 42.3 33.05 42.35 33.95 41.7 36.45 41.45 37.45 Q40.55 39.85 39.2 41.3 L37.65 42.6 37.7 42.1 39.0 40.8 40.6 37.6 41.65 34.2 41.75 32.05 41.15 30.95 40.7 29.8 40.65 29.6 M37.8 39.45 L37.2 38.3 Q36.55 37.35 35.6 37.15 L35.15 37.05 32.35 37.3 32.25 35.4 37.0 31.0 32.85 35.45 32.75 36.65 35.8 36.55 36.55 36.8 Q37.55 37.25 38.2 38.4 L37.8 39.45" fill="#d0c586" fill-rule="evenodd" stroke="none"/>
      <path d="M42.5 40.35 L38.95 43.1 37.65 42.6 39.2 41.3 Q40.25 40.7 41.25 40.2 L42.5 40.35" fill="#49432e" fill-rule="evenodd" stroke="none"/>
      <path d="M44.35 34.5 L42.65 39.95 41.7 39.3 41.7 36.45 42.35 33.95 44.35 34.5" fill="#696141" fill-rule="evenodd" stroke="none"/>
      <path d="M38.05 31.15 L40.65 29.6 40.7 29.8 40.65 31.4 39.4 34.35 38.05 31.15" fill="#978957" fill-rule="evenodd" stroke="none"/>
      <path d="M40.65 29.6 L41.8 29.1 42.9 29.25 44.25 29.8 44.35 34.5 42.65 39.95 42.5 40.35 38.95 43.1 37.65 42.6 37.7 42.1 37.8 40.25 37.8 39.45 37.2 38.3 35.5 37.7 Q34.5 37.55 33.3 37.7 L32.35 37.3 32.25 35.4 32.6 33.35 37.0 31.0 38.05 31.15 40.65 29.6 40.7 29.8 41.15 30.95 42.2 31.65 42.9 29.25 M42.35 33.95 L44.35 34.5 M42.3 33.05 L42.35 33.95 41.7 36.45 41.45 37.45 Q40.55 39.85 39.2 41.3 L37.65 42.6 M42.3 33.05 L42.2 31.65 M41.15 30.95 L39.35 35.45 38.2 38.4 37.8 39.45 M39.35 35.45 L38.05 31.15 M39.2 41.3 Q40.25 40.7 41.25 40.2 L41.45 37.45 M41.25 40.2 L42.5 40.35 M37.2 38.3 Q36.55 37.35 35.6 37.15 L35.15 37.05 33.3 37.7 M32.25 35.4 L37.0 31.0 M35.15 37.05 L32.35 37.3" fill="none" stroke="#000000" stroke-linecap="round" stroke-linejoin="round" stroke-opacity="0.3019608" stroke-width="0.30000000000000004"/>
      <path d="M30.0 16.7 Q29.05 17.35 28.75 18.45 28.45 20.65 29.05 21.45 30.15 22.35 31.3 22.35 L31.9 22.25 Q33.05 21.75 33.15 21.35 L32.65 19.8 32.8 19.15 Q33.05 20.85 33.6 20.95 L34.35 20.55 35.4 18.45 34.05 16.3 33.15 16.1 Q32.45 16.2 32.2 17.5 L32.6 17.65 31.35 17.4 31.15 17.45 30.6 17.8 Q30.4 18.0 30.3 18.35 L30.15 18.7 30.15 18.75 Q30.0 19.35 30.2 20.0 L30.75 20.65 31.65 20.8 31.25 20.85 30.6 20.85 29.8 19.85 Q29.5 19.0 29.9 18.2 L30.45 17.55 30.95 17.25 32.2 17.5 Q32.1 16.6 32.55 16.0 L31.45 15.7 30.0 16.7 M34.3 16.0 L35.4 18.45 34.4 20.9 35.45 21.55 34.3 21.15 32.3 22.55 30.65 22.65 29.4 22.25 28.6 21.55 Q27.6 19.5 28.7 17.45 29.9 16.15 31.35 15.3 L34.3 16.0" fill="#d7f16b" fill-rule="evenodd" stroke="none"/>
      <path d="M30.15 18.75 L30.15 18.7 30.3 18.35 Q30.4 18.0 30.6 17.8 L31.35 18.1 30.85 19.0 30.8 19.7 30.15 18.75 M35.4 18.45 L34.3 16.0 35.55 17.35 36.15 19.45 35.4 18.45" fill="#339328" fill-rule="evenodd" stroke="none"/>
      <path d="M30.0 16.7 L30.45 17.55 29.9 18.2 Q29.5 19.0 29.8 19.85 L30.6 20.85 31.25 20.85 31.9 22.25 31.3 22.35 Q30.15 22.35 29.05 21.45 28.45 20.65 28.75 18.45 29.05 17.35 30.0 16.7 M32.6 17.65 L32.2 17.5 Q32.45 16.2 33.15 16.1 L34.05 16.3 35.4 18.45 34.35 20.55 33.6 20.95 Q33.05 20.85 32.8 19.15 L33.0 18.55 32.6 17.65" fill="#75d74a" fill-rule="evenodd" stroke="none"/>
      <path d="M30.45 17.55 L30.0 16.7 31.45 15.7 32.55 16.0 Q32.1 16.6 32.2 17.5 L30.95 17.25 30.45 17.55 M31.9 22.25 L31.25 20.85 31.65 20.8 32.65 19.8 33.15 21.35 Q33.05 21.75 31.9 22.25" fill="#9ae17b" fill-rule="evenodd" stroke="none"/>
      <path d="M30.6 17.8 L31.15 17.45 31.35 17.4 32.6 17.65 31.35 18.1 30.6 17.8 M29.4 22.25 L30.65 22.65 32.3 22.55 34.3 21.15 35.45 21.55 32.55 23.05 Q31.3 23.35 29.4 22.25 M30.15 18.75 L30.8 19.7 30.75 20.65 30.2 20.0 Q30.0 19.35 30.15 18.75" fill="#246c41" fill-rule="evenodd" stroke="none"/>
      <path d="M35.45 21.55 L34.4 20.9 35.4 18.45 36.15 19.45 35.45 21.55 M32.8 19.15 L32.65 19.8 31.65 20.8 30.75 20.65 30.8 19.7 30.85 19.0 31.35 18.1 32.6 17.65 33.0 18.55 32.8 19.15" fill="#1c5331" fill-rule="evenodd" stroke="none"/>
      <path d="M34.3 16.0 L31.35 15.3 Q29.9 16.15 28.7 17.45 27.6 19.5 28.6 21.55 L29.4 22.25 Q31.3 23.35 32.55 23.05 L35.45 21.55 36.15 19.45 35.55 17.35 34.3 16.0 M32.8 19.15 L32.65 19.8 31.65 20.8 30.75 20.65 30.8 19.7 30.85 19.0 31.35 18.1 32.6 17.65 33.0 18.55 32.8 19.15" fill="none" stroke="#000000" stroke-linecap="round" stroke-linejoin="round" stroke-opacity="0.3019608" stroke-width="0.30000000000000004"/>
      <path d="M20.45 14.8 L20.9 14.45 21.85 14.65 22.05 14.8 21.15 14.65 21.0 14.65 20.55 15.05 20.1 15.55 19.95 15.95 19.95 16.0 19.65 17.2 19.9 17.8 20.55 17.9 20.3 17.95 19.75 18.0 19.4 17.05 Q19.4 16.25 19.9 15.45 L20.45 14.8 M21.85 14.65 Q22.0 13.85 22.45 13.25 L21.65 13.0 20.35 13.95 Q19.45 14.65 19.0 15.7 18.2 17.85 18.4 18.65 19.05 19.45 19.9 19.45 L20.45 19.25 Q21.4 18.8 21.6 18.35 L21.6 16.9 21.85 16.35 Q21.65 17.9 22.05 18.0 L22.7 17.6 24.05 15.5 23.5 13.45 22.85 13.3 Q22.3 13.45 21.85 14.65 M23.8 13.2 L24.05 15.5 22.65 17.95 23.3 18.5 22.5 18.2 20.7 19.55 19.4 19.75 18.5 19.4 18.1 18.75 Q17.85 16.75 19.1 14.75 20.4 13.45 21.7 12.6 L23.8 13.2" fill="#d7f16b" fill-rule="evenodd" stroke="none"/>
      <path d="M19.95 16.0 L19.95 15.95 20.1 15.55 20.55 15.05 21.05 15.3 20.4 16.25 20.2 16.9 19.95 16.0 M24.05 15.5 L23.8 13.2 24.4 14.4 24.3 16.4 24.05 15.5" fill="#339328" fill-rule="evenodd" stroke="none"/>
      <path d="M20.45 14.8 L19.9 15.45 Q19.4 16.25 19.4 17.05 L19.75 18.0 20.3 17.95 20.45 19.25 19.9 19.45 Q19.05 19.45 18.4 18.65 18.2 17.85 19.0 15.7 19.45 14.65 20.35 13.95 L20.45 14.8 M22.05 14.8 L21.85 14.65 Q22.3 13.45 22.85 13.3 L23.5 13.45 24.05 15.5 22.7 17.6 22.05 18.0 Q21.65 17.9 21.85 16.35 L22.15 15.7 22.05 14.8" fill="#75d74a" fill-rule="evenodd" stroke="none"/>
      <path d="M21.85 14.65 L20.9 14.45 20.45 14.8 20.35 13.95 21.65 13.0 22.45 13.25 Q22.0 13.85 21.85 14.65 M20.3 17.95 L20.55 17.9 21.6 16.9 21.6 18.35 Q21.4 18.8 20.45 19.25 L20.3 17.95" fill="#9ae17b" fill-rule="evenodd" stroke="none"/>
      <path d="M19.9 17.8 L19.65 17.2 19.95 16.0 20.2 16.9 19.9 17.8 M20.55 15.05 L21.0 14.65 21.15 14.65 22.05 14.8 21.05 15.3 20.55 15.05 M18.5 19.4 L19.4 19.75 20.7 19.55 22.5 18.2 23.3 18.5 20.75 20.1 Q19.65 20.4 18.5 19.4" fill="#246c41" fill-rule="evenodd" stroke="none"/>
      <path d="M20.55 17.9 L19.9 17.8 20.2 16.9 20.4 16.25 21.05 15.3 22.05 14.8 22.15 15.7 21.85 16.35 21.6 16.9 20.55 17.9 M24.05 15.5 L24.3 16.4 23.3 18.5 22.65 17.95 24.05 15.5" fill="#1c5331" fill-rule="evenodd" stroke="none"/>
      <path d="M20.55 17.9 L19.9 17.8 20.2 16.9 20.4 16.25 21.05 15.3 22.05 14.8 22.15 15.7 21.85 16.35 21.6 16.9 20.55 17.9 M24.3 16.4 L24.4 14.4 23.8 13.2 21.7 12.6 Q20.4 13.45 19.1 14.75 17.85 16.75 18.1 18.75 L18.5 19.4 Q19.65 20.4 20.75 20.1 L23.3 18.5 24.3 16.4" fill="none" stroke="#000000" stroke-linecap="round" stroke-linejoin="round" stroke-opacity="0.3019608" stroke-width="0.30000000000000004"/>
    </g>
    <g id="sprite0" transform="matrix(1.0, 0.0, 0.0, 1.0, 0.15, 0.15)">
      <use height="158.65" transform="matrix(1.0, 0.0, 0.0, 1.0, -1.05, -1.05)" width="74.9" xlink:href="#shape1"/>
    </g>
    <g id="shape1" transform="matrix(1.0, 0.0, 0.0, 1.0, 1.05, 1.05)">
      <path d="M67.1 47.3 Q60.05 84.7 45.15 118.0 L67.1 47.3" fill="#000000" fill-opacity="0.03529412" fill-rule="evenodd" stroke="none"/>
      <path d="M72.8 0.4 Q71.4 24.6 67.1 47.3 60.05 84.7 45.15 118.0 L45.0 118.3 Q39.4 130.85 24.25 156.55 M43.75 69.05 Q26.65 113.65 20.4 117.6 17.55 109.85 28.1 81.45 38.25 56.05 47.2 54.0 48.65 56.75 43.75 69.05 M48.0 24.8 Q34.25 59.6 13.6 90.6 7.15 100.3 0.0 109.6 M66.8 0.0 Q53.65 80.05 13.6 143.35 L12.4 145.2 M67.1 47.3 L45.15 118.0" fill="none" stroke="#000000" stroke-linecap="round" stroke-linejoin="round" stroke-opacity="0.050980393" stroke-width="0.30000000000000004"/>
    </g>
    <g id="sprite2" transform="matrix(1.0, 0.0, 0.0, 1.0, 0.0, 0.0)">
      <use height="26.7" transform="matrix(0.0042, -1.3515, 1.3935, 0.02, 22.09, 56.0263)" width="26.7" xlink:href="#sprite3"/>
      <use height="26.7" transform="matrix(0.0095, -3.0486, 0.372, 0.0053, 36.507, 81.3775)" width="26.7" xlink:href="#sprite3"/>
      <use height="26.7" transform="matrix(3.0486, 0.0095, -0.0053, 0.372, 0.1225, 35.107)" width="26.7" xlink:href="#sprite3"/>
    </g>
    <g id="sprite3" transform="matrix(1.0, 0.0, 0.0, 1.0, 13.35, 13.35)">
      <use height="26.7" transform="matrix(1.0, 0.0, 0.0, 1.0, -13.35, -13.35)" width="26.7" xlink:href="#shape2"/>
    </g>
    <g id="shape2" transform="matrix(1.0, 0.0, 0.0, 1.0, 13.35, 13.35)">
      <path d="M9.3 -9.85 Q13.35 -5.8 13.35 0.0 13.35 5.8 9.3 9.3 5.8 13.35 0.0 13.35 -5.8 13.35 -9.85 9.3 -13.35 5.8 -13.35 0.0 -13.35 -5.8 -9.85 -9.85 -5.8 -13.35 0.0 -13.35 5.8 -13.35 9.3 -9.85" fill="url(#gradient0)" fill-rule="evenodd" stroke="none"/>
    </g>
    <radialGradient cx="0" cy="0" gradientTransform="matrix(0.0213, 0.0, 0.0, 0.0213, 0.0, 0.0)" gradientUnits="userSpaceOnUse" id="gradient0" r="819.2" spreadMethod="pad">
      <stop offset="0.19607843137254902" stop-color="#fee3bc" stop-opacity="0.28627452"/>
      <stop offset="0.5019607843137255" stop-color="#fee3bc" stop-opacity="0.043137256"/>
      <stop offset="0.7607843137254902" stop-color="#ffe3bd" stop-opacity="0.0"/>
    </radialGradient>
  </defs>
</svg>
