<?xml version="1.0" encoding="UTF-8" standalone="no"?>
<svg xmlns:xlink="http://www.w3.org/1999/xlink" height="52.0px" width="52.0px" xmlns="http://www.w3.org/2000/svg">
  <g transform="matrix(1.0, 0.0, 0.0, 1.0, 0.0, 0.0)">
    <use height="56.0" transform="matrix(1.0, 0.0, 0.0, 1.0, -2.0, -2.0)" width="56.0" xlink:href="#shape0"/>
    <use height="0.0" transform="matrix(0.1506, 0.0276, -0.0075, 0.0482, 22.1, 34.7)" width="0.0" xlink:href="#sprite0"/>
    <use height="41.55" transform="matrix(1.0, 0.0, 0.0, 1.0, 3.05, 5.45)" width="41.95" xlink:href="#shape1"/>
    <use height="0.0" transform="matrix(0.129, 0.0, 0.0066, 0.0963, 15.55, 15.5)" width="0.0" xlink:href="#sprite0"/>
    <use height="0.0" transform="matrix(0.0624, 0.0, -0.0253, 0.1617, 38.25, 25.6)" width="0.0" xlink:href="#sprite0"/>
    <use height="0.0" transform="matrix(0.0624, 0.0, -0.0253, 0.1617, 30.7, 20.05)" width="0.0" xlink:href="#sprite0"/>
    <use height="81.5" transform="matrix(0.1022, 0.0, 0.0, 0.1057, 18.6, 13.5)" width="81.5" xlink:href="#sprite1"/>
    <use height="81.5" transform="matrix(0.1022, 0.0, 0.0, 0.1057, 34.7, 28.15)" width="81.5" xlink:href="#sprite1"/>
  </g>
  <defs>
    <g id="shape0" transform="matrix(1.0, 0.0, 0.0, 1.0, 2.0, 2.0)">
      <path d="M52.0 0.0 L52.0 52.0 0.0 52.0 0.0 0.0 52.0 0.0" fill="#795fa9" fill-opacity="0.0" fill-rule="evenodd" stroke="none"/>
      <path d="M38.15 11.15 L38.3 11.5 38.95 11.5 44.25 22.0 43.7 25.25 43.45 25.55 43.55 25.8 42.8 29.05 42.55 29.3 42.75 29.75 42.3 31.5 Q44.2 31.3 45.95 29.75 L46.5 29.65 Q47.85 29.55 48.15 31.8 48.45 33.9 46.05 35.4 43.65 36.45 41.5 36.3 L40.85 36.25 40.7 36.7 40.25 37.15 40.4 37.55 40.25 38.45 39.3 40.9 38.5 41.45 38.45 41.3 37.8 41.95 34.95 41.55 34.85 44.15 Q34.55 45.2 33.85 45.75 32.9 46.5 31.1 46.25 29.05 45.65 28.55 43.7 28.7 42.85 29.15 41.9 L26.85 42.0 Q24.65 41.4 24.05 39.45 L20.8 38.7 19.1 38.25 19.0 41.1 Q18.65 42.2 17.9 42.8 16.9 43.6 14.95 43.35 12.75 42.7 12.2 40.6 12.4 39.6 12.9 38.5 L10.4 38.75 Q8.15 38.15 7.65 36.0 8.0 34.15 9.4 31.85 8.35 30.1 7.65 28.35 7.35 27.6 7.4 27.2 L7.65 25.15 6.8 24.65 Q3.6 21.3 4.3 17.3 3.7 16.65 3.8 15.95 L3.85 15.85 Q4.05 15.05 5.0 14.65 L5.2 14.6 Q5.6 13.75 6.15 12.85 L6.2 12.05 Q6.3 10.7 6.65 9.45 7.1 7.85 8.05 6.5 10.25 4.6 11.7 9.1 L12.4 8.95 13.1 7.65 25.35 8.05 Q31.5 8.7 37.05 10.45 37.6 10.6 38.15 11.15 M41.7 35.75 L41.65 35.9 41.7 35.75" fill="none" stroke="#000000" stroke-linecap="round" stroke-linejoin="round" stroke-opacity="0.3019608" stroke-width="1.0"/>
      <path d="M11.55 25.2 Q11.05 24.6 10.95 23.65 11.65 18.05 14.15 12.0 14.4 11.4 15.1 10.9 L15.6 11.55 Q14.8 12.05 14.55 12.7 12.1 18.75 11.35 24.35 L11.55 25.2 M37.75 14.65 Q38.4 13.15 39.05 13.85 L42.95 20.15 43.2 20.65 Q43.8 21.65 43.6 22.85 42.05 32.7 38.45 41.3 35.95 37.9 34.15 33.45 33.9 32.95 33.9 31.9 36.6 22.8 37.75 14.65 M34.2 27.05 L33.15 31.15 Q32.95 31.75 32.05 32.2 L22.0 30.7 Q14.85 29.35 7.4 27.2 8.4 18.65 10.7 12.65 9.05 21.4 9.75 24.65 10.4 26.05 15.2 27.05 L22.35 28.45 30.55 29.5 Q32.7 29.5 34.2 27.05" fill="#f4a33c" fill-rule="evenodd" stroke="none"/>
      <path d="M11.55 25.2 Q12.05 25.8 13.1 25.95 L22.4 27.8 28.45 28.65 Q30.75 28.95 31.6 26.7 34.35 19.5 34.1 14.5 L33.9 13.8 Q33.35 12.45 31.8 12.15 L24.9 11.05 15.85 10.45 15.1 10.9 Q14.4 11.4 14.15 12.0 11.65 18.05 10.95 23.65 11.05 24.6 11.55 25.2 M42.95 20.15 L39.05 13.85 Q38.4 13.15 37.75 14.65 L38.15 11.15 42.95 20.15 M11.75 10.25 Q12.7 8.65 13.7 8.35 19.4 7.95 25.3 8.6 30.75 9.2 36.35 10.75 36.9 10.75 36.7 13.45 35.95 19.95 34.2 27.05 32.7 29.5 30.55 29.5 L22.35 28.45 15.2 27.05 Q10.4 26.05 9.75 24.65 9.05 21.4 10.7 12.65 L11.75 10.25" fill="#ffde4f" fill-rule="evenodd" stroke="none"/>
      <path d="M38.15 11.15 L37.75 14.65 Q36.6 22.8 33.9 31.9 33.9 32.95 34.15 33.45 35.95 37.9 38.45 41.3 L37.8 41.95 35.55 37.7 33.6 34.05 Q32.2 33.0 31.35 32.9 L21.85 31.6 Q16.15 30.6 10.25 29.05 L7.65 28.35 Q7.35 27.6 7.4 27.2 14.85 29.35 22.0 30.7 L32.05 32.2 Q32.95 31.75 33.15 31.15 L34.2 27.05 Q35.95 19.95 36.7 13.45 36.9 10.75 36.35 10.75 30.75 9.2 25.3 8.6 19.4 7.95 13.7 8.35 12.7 8.65 11.75 10.25 L13.1 7.65 25.35 8.05 Q31.5 8.7 37.05 10.45 37.6 10.6 38.15 11.15" fill="#ffff98" fill-rule="evenodd" stroke="none"/>
      <path d="M7.65 28.35 L10.25 29.05 Q8.95 34.35 20.95 37.65 34.4 41.4 35.55 37.7 L37.8 41.95 Q29.45 40.85 20.8 38.7 L12.95 36.5 Q9.3 32.55 7.65 28.35" fill="#cc6b22" fill-rule="evenodd" stroke="none"/>
      <path d="M33.9 13.8 L34.1 14.5 Q34.35 19.5 31.6 26.7 30.75 28.95 28.45 28.65 L22.4 27.8 13.1 25.95 Q12.05 25.8 11.55 25.2 L11.35 24.35 Q12.1 18.75 14.55 12.7 14.8 12.05 15.6 11.55 L16.3 11.15 24.8 11.7 32.2 12.85 Q33.3 13.05 33.9 13.8 M10.25 29.05 Q16.15 30.6 21.85 31.6 L31.35 32.9 Q32.2 33.0 33.6 34.05 L35.55 37.7 Q34.4 41.4 20.95 37.65 8.95 34.35 10.25 29.05" fill="#a34100" fill-rule="evenodd" stroke="none"/>
      <path d="M15.1 10.9 L15.85 10.45 24.9 11.05 31.8 12.15 Q33.35 12.45 33.9 13.8 33.3 13.05 32.2 12.85 L24.8 11.7 16.3 11.15 15.6 11.55 15.1 10.9" fill="#8f3600" fill-rule="evenodd" stroke="none"/>
      <path d="M33.9 13.8 L34.1 14.5 Q34.35 19.5 31.6 26.7 30.75 28.95 28.45 28.65 L22.4 27.8 13.1 25.95 Q12.05 25.8 11.55 25.2 L11.35 24.35 M42.95 20.15 L38.15 11.15 Q37.6 10.6 37.05 10.45 31.5 8.7 25.35 8.05 L13.1 7.65 11.75 10.25 10.7 12.65 Q8.4 18.65 7.4 27.2 7.35 27.6 7.65 28.35 9.3 32.55 12.95 36.5 L20.8 38.7 Q29.45 40.85 37.8 41.95 L38.45 41.3 Q42.05 32.7 43.6 22.85 43.8 21.65 43.2 20.65 L42.95 20.15" fill="none" stroke="#000000" stroke-linecap="round" stroke-linejoin="round" stroke-opacity="0.3019608" stroke-width="0.30000000000000004"/>
      <path d="M44.8 33.9 Q47.1 32.35 46.9 30.95 46.9 30.3 46.15 30.15 L46.95 30.3 Q47.45 30.8 47.3 31.55 46.5 33.3 44.8 33.9" fill="#f9f8ec" fill-rule="evenodd" stroke="none"/>
      <path d="M46.15 30.15 Q45.05 31.4 42.6 31.95 L42.1 32.0 42.25 31.7 Q44.2 31.5 46.0 29.95 L46.55 29.8 Q47.9 29.75 48.2 32.0 48.5 34.1 46.1 35.55 43.7 36.65 41.5 36.45 L41.7 36.1 Q44.45 36.4 47.3 34.2 48.2 32.9 47.85 31.35 L46.95 30.3 46.15 30.15" fill="#d5d580" fill-rule="evenodd" stroke="none"/>
      <path d="M42.1 32.0 L41.95 33.55 Q42.45 34.25 43.65 34.15 L44.8 33.9 Q46.5 33.3 47.3 31.55 47.45 30.8 46.95 30.3 L47.85 31.35 Q48.2 32.9 47.3 34.2 44.45 36.4 41.7 36.1 L41.5 36.45 39.55 36.05 39.7 35.5 41.7 36.1 41.75 35.95 42.2 34.8 41.95 33.55 Q41.55 33.05 41.6 32.1 L40.7 32.1 40.85 31.65 41.65 31.7 42.25 31.7 42.1 32.0" fill="#cac960" fill-rule="evenodd" stroke="none"/>
      <path d="M42.1 32.0 L42.6 31.95 Q45.05 31.4 46.15 30.15 46.9 30.3 46.9 30.95 47.1 32.35 44.8 33.9 L43.65 34.15 Q42.45 34.25 41.95 33.55 L42.1 32.0" fill="#e6e4b3" fill-rule="evenodd" stroke="none"/>
      <path d="M40.7 32.1 L41.6 32.1 Q41.55 33.05 41.95 33.55 L42.2 34.8 41.75 35.95 41.7 36.1 39.7 35.5 40.7 32.1" fill="#a6a637" fill-rule="evenodd" stroke="none"/>
      <path d="M41.5 36.45 Q43.7 36.65 46.1 35.55 48.5 34.1 48.2 32.0 47.9 29.75 46.55 29.8 L46.0 29.95 Q44.2 31.5 42.25 31.7 L41.65 31.7 40.85 31.65 40.7 32.1 39.7 35.5 39.55 36.05 41.5 36.45 Z" fill="none" stroke="#000000" stroke-linecap="round" stroke-linejoin="round" stroke-opacity="0.3019608" stroke-width="0.30000000000000004"/>
      <path d="M30.55 39.15 Q30.55 38.65 31.3 38.4 L33.05 38.35 34.8 39.0 Q35.5 39.45 35.5 39.95 35.5 40.45 34.8 40.7 L33.05 40.75 Q32.0 40.55 31.3 40.1 30.55 39.65 30.55 39.15" fill="#8f3600" fill-rule="evenodd" stroke="none"/>
      <path d="M26.1 34.1 Q26.1 33.5 26.95 33.25 L28.95 33.2 Q30.1 33.4 30.95 33.9 31.8 34.45 31.8 35.05 31.8 35.6 30.95 35.85 L28.95 35.95 Q27.8 35.75 26.95 35.2 26.1 34.65 26.1 34.1" fill="#8f3600" fill-rule="evenodd" stroke="none"/>
      <path d="M14.35 36.1 Q14.35 35.55 15.15 35.3 L17.0 35.25 Q18.1 35.45 18.9 35.95 19.7 36.45 19.7 37.0 19.7 37.55 18.9 37.8 L17.0 37.85 Q15.95 37.65 15.15 37.15 14.35 36.65 14.35 36.1" fill="#8f3600" fill-rule="evenodd" stroke="none"/>
      <path d="M9.7 31.35 Q9.7 30.8 10.5 30.55 L12.4 30.5 Q13.5 30.7 14.3 31.2 15.05 31.7 15.05 32.25 15.05 32.8 14.3 33.05 L12.4 33.1 10.5 32.4 Q9.7 31.9 9.7 31.35" fill="#8f3600" fill-rule="evenodd" stroke="none"/>
    </g>
    <g id="shape1" transform="matrix(1.0, 0.0, 0.0, 1.0, -3.05, -5.45)">
      <path d="M28.95 43.5 Q29.35 45.25 31.2 45.75 32.95 46.05 33.85 45.1 L34.5 43.9 34.6 41.05 Q34.65 40.15 34.05 39.5 L33.85 39.4 Q33.15 39.0 32.55 38.85 L31.95 38.85 Q33.5 39.4 33.65 41.7 33.45 42.75 32.5 43.8 L31.7 44.15 Q29.3 44.1 29.1 42.75 L28.95 43.5 M33.85 38.9 L34.3 39.2 Q35.0 39.9 34.95 40.9 L34.85 44.1 Q34.55 45.1 33.85 45.7 32.9 46.45 31.1 46.2 29.0 45.6 28.55 43.65 28.9 41.6 30.65 39.05 31.9 37.95 33.85 38.9" fill="#d5d580" fill-rule="evenodd" stroke="none"/>
      <path d="M32.55 38.85 Q33.3 39.15 33.6 40.75 L33.65 41.7 Q33.5 39.4 31.95 38.85 L32.55 38.85 M31.7 44.15 Q30.3 44.55 28.95 43.5 L29.1 42.75 Q29.3 44.1 31.7 44.15" fill="#e6e4b3" fill-rule="evenodd" stroke="none"/>
      <path d="M32.55 38.85 Q33.15 39.0 33.85 39.4 L34.05 39.5 Q34.65 40.15 34.6 41.05 L34.5 43.9 33.85 45.1 Q32.95 46.05 31.2 45.75 29.35 45.25 28.95 43.5 30.3 44.55 31.7 44.15 L32.5 43.8 Q33.45 42.75 33.65 41.7 L33.6 40.75 Q33.3 39.15 32.55 38.85" fill="#a6a637" fill-rule="evenodd" stroke="none"/>
      <path d="M33.85 38.9 Q31.9 37.95 30.65 39.05 28.9 41.6 28.55 43.65 29.0 45.6 31.1 46.2 32.9 46.45 33.85 45.7 34.55 45.1 34.85 44.1 L34.95 40.9 Q35.0 39.9 34.3 39.2 L33.85 38.9 Z" fill="none" stroke="#000000" stroke-linecap="round" stroke-linejoin="round" stroke-opacity="0.3019608" stroke-width="0.30000000000000004"/>
      <path d="M27.8 33.8 L28.45 33.8 Q29.3 34.1 29.65 35.95 L29.7 37.05 Q29.5 34.4 27.8 33.8 M24.3 39.1 L24.5 38.2 Q24.75 39.75 27.5 39.85 25.85 40.3 24.3 39.1" fill="#f9f8ec" fill-rule="evenodd" stroke="none"/>
      <path d="M28.45 33.8 L27.8 33.8 Q27.05 33.8 26.45 34.35 25.05 36.5 24.5 38.2 L24.3 39.1 Q24.8 41.1 26.9 41.7 28.95 42.0 29.95 40.95 L30.65 39.55 30.8 36.3 Q30.85 35.25 30.15 34.5 L29.95 34.4 28.45 33.8 M29.95 33.85 L30.5 34.15 Q31.25 34.95 31.2 36.15 L31.05 39.75 Q30.75 41.0 29.95 41.6 28.85 42.45 26.8 42.2 24.4 41.5 23.85 39.25 24.25 36.95 26.3 33.95 L29.95 33.85" fill="#d5d580" fill-rule="evenodd" stroke="none"/>
      <path d="M27.8 33.8 Q29.5 34.4 29.7 37.05 29.5 38.3 28.4 39.4 L27.5 39.85 Q24.75 39.75 24.5 38.2 25.05 36.5 26.45 34.35 27.05 33.8 27.8 33.8" fill="#e6e4b3" fill-rule="evenodd" stroke="none"/>
      <path d="M29.7 37.05 L29.65 35.95 Q29.3 34.1 28.45 33.8 L29.95 34.4 30.15 34.5 Q30.85 35.25 30.8 36.3 L30.65 39.55 29.95 40.95 Q28.95 42.0 26.9 41.7 24.8 41.1 24.3 39.1 25.85 40.3 27.5 39.85 L28.4 39.4 Q29.5 38.3 29.7 37.05" fill="#cac960" fill-rule="evenodd" stroke="none"/>
      <path d="M29.95 33.85 L26.3 33.95 Q24.25 36.95 23.85 39.25 24.4 41.5 26.8 42.2 28.85 42.45 29.95 41.6 30.75 41.0 31.05 39.75 L31.2 36.15 Q31.25 34.95 30.5 34.15 L29.95 33.85 Z" fill="none" stroke="#000000" stroke-linecap="round" stroke-linejoin="round" stroke-opacity="0.3019608" stroke-width="0.30000000000000004"/>
      <path d="M12.35 40.6 Q12.8 42.5 14.8 43.05 16.65 43.35 17.6 42.35 L18.3 41.05 18.4 38.0 Q18.45 37.0 17.85 36.3 L17.6 36.2 Q16.85 35.8 16.25 35.65 L15.6 35.65 Q17.25 36.25 17.4 38.7 17.2 39.85 16.15 40.9 L15.3 41.3 Q12.75 41.25 12.55 39.8 L12.35 40.6 M17.6 35.7 L18.1 36.0 Q18.85 36.75 18.8 37.85 L18.7 41.25 Q18.35 42.35 17.6 42.95 16.6 43.75 14.65 43.5 12.45 42.85 11.95 40.75 12.35 38.6 14.2 35.85 15.55 34.65 17.6 35.7" fill="#d5d580" fill-rule="evenodd" stroke="none"/>
      <path d="M16.25 35.65 Q17.05 36.0 17.35 37.65 L17.4 38.7 Q17.25 36.25 15.6 35.65 L16.25 35.65 M15.3 41.3 Q13.8 41.75 12.35 40.6 L12.55 39.8 Q12.75 41.25 15.3 41.3" fill="#e6e4b3" fill-rule="evenodd" stroke="none"/>
      <path d="M16.25 35.65 Q16.85 35.8 17.6 36.2 L17.85 36.3 Q18.45 37.0 18.4 38.0 L18.3 41.05 17.6 42.35 Q16.65 43.35 14.8 43.05 12.8 42.5 12.35 40.6 13.8 41.75 15.3 41.3 L16.15 40.9 Q17.2 39.85 17.4 38.7 L17.35 37.65 Q17.05 36.0 16.25 35.65" fill="#a6a637" fill-rule="evenodd" stroke="none"/>
      <path d="M17.6 35.7 Q15.55 34.65 14.2 35.85 12.35 38.6 11.95 40.75 12.45 42.85 14.65 43.5 16.6 43.75 17.6 42.95 18.35 42.35 18.7 41.25 L18.8 37.85 Q18.85 36.75 18.1 36.0 L17.6 35.7 Z" fill="none" stroke="#000000" stroke-linecap="round" stroke-linejoin="round" stroke-opacity="0.3019608" stroke-width="0.30000000000000004"/>
      <path d="M11.1 30.8 L11.7 30.85 Q12.5 31.15 12.8 32.85 L12.85 33.9 Q12.7 31.4 11.1 30.8 M7.8 35.8 L8.0 35.0 Q8.2 36.45 10.8 36.5 9.25 36.95 7.8 35.8" fill="#f9f8ec" fill-rule="evenodd" stroke="none"/>
      <path d="M11.7 30.85 L11.1 30.8 Q10.4 30.85 9.8 31.35 8.5 33.35 8.0 35.0 L7.8 35.8 Q8.25 37.7 10.25 38.25 12.15 38.55 13.1 37.55 L13.8 36.25 13.9 33.15 Q13.95 32.15 13.3 31.5 L13.1 31.4 Q12.35 30.95 11.7 30.85 M13.1 30.85 L13.6 31.15 Q14.35 31.9 14.3 33.0 L14.15 36.45 Q13.85 37.6 13.1 38.15 12.05 39.0 10.15 38.7 7.9 38.1 7.4 35.95 7.75 33.8 9.65 31.0 L13.1 30.85" fill="#d5d580" fill-rule="evenodd" stroke="none"/>
      <path d="M11.1 30.8 Q12.7 31.4 12.85 33.9 12.7 35.05 11.65 36.1 L10.8 36.5 Q8.2 36.45 8.0 35.0 8.5 33.35 9.8 31.35 10.4 30.85 11.1 30.8" fill="#e6e4b3" fill-rule="evenodd" stroke="none"/>
      <path d="M12.85 33.9 L12.8 32.85 Q12.5 31.15 11.7 30.85 12.35 30.95 13.1 31.4 L13.3 31.5 Q13.95 32.15 13.9 33.15 L13.8 36.25 13.1 37.55 Q12.15 38.55 10.25 38.25 8.25 37.7 7.8 35.8 9.25 36.95 10.8 36.5 L11.65 36.1 Q12.7 35.05 12.85 33.9" fill="#cac960" fill-rule="evenodd" stroke="none"/>
      <path d="M13.1 30.85 L9.65 31.0 Q7.75 33.8 7.4 35.95 7.9 38.1 10.15 38.7 12.05 39.0 13.1 38.15 13.85 37.6 14.15 36.45 L14.3 33.0 Q14.35 31.9 13.6 31.15 L13.1 30.85 Z" fill="none" stroke="#000000" stroke-linecap="round" stroke-linejoin="round" stroke-opacity="0.3019608" stroke-width="0.30000000000000004"/>
      <path d="M39.0 11.6 L40.5 14.55 40.75 16.6 Q40.45 17.9 40.25 17.65 L38.8 14.75 39.0 11.6" fill="#f4a33c" fill-rule="evenodd" stroke="none"/>
      <path d="M42.05 17.7 L44.25 22.0 44.15 22.7 43.6 24.4 42.1 21.4 Q41.65 18.95 42.05 17.7" fill="#cc6b22" fill-rule="evenodd" stroke="none"/>
      <path d="M40.5 14.55 L42.05 17.7 Q41.65 18.95 42.1 21.4 L40.45 18.05 40.75 16.6 40.5 14.55" fill="#a34100" fill-rule="evenodd" stroke="none"/>
      <path d="M38.15 11.5 L38.95 11.5 38.45 14.85 37.75 15.35 38.15 11.5" fill="#ffde4f" fill-rule="evenodd" stroke="none"/>
      <path d="M37.75 15.35 L38.45 14.85 38.95 11.5 39.0 11.6 38.8 14.75 40.25 17.65 Q40.45 17.9 40.75 16.6 L40.45 18.05 42.1 21.4 43.6 24.4 44.15 22.7 43.7 25.25 43.3 24.55 38.55 15.15 37.75 15.35" fill="#ffff98" fill-rule="evenodd" stroke="none"/>
      <path d="M43.7 25.25 L43.05 26.0 37.75 15.35 38.55 15.15 43.3 24.55 43.7 25.25" fill="#8f3600" fill-rule="evenodd" stroke="none"/>
      <path d="M38.95 11.5 L38.15 11.5 M38.95 11.5 L39.0 11.6 40.5 14.55 42.05 17.7 44.25 22.0 44.15 22.7 43.7 25.25 43.05 26.0" fill="none" stroke="#000000" stroke-linecap="round" stroke-linejoin="round" stroke-opacity="0.3019608" stroke-width="0.30000000000000004"/>
      <path d="M40.15 20.6 Q39.75 21.9 39.55 21.7 L38.2 18.85 38.6 15.7 40.0 18.55 40.15 20.6" fill="#f4a33c" fill-rule="evenodd" stroke="none"/>
      <path d="M43.4 26.5 L42.7 28.25 41.25 25.3 Q41.0 22.9 41.5 21.6 L43.55 25.8 43.4 26.5" fill="#cc6b22" fill-rule="evenodd" stroke="none"/>
      <path d="M41.25 25.3 L39.75 22.05 40.15 20.6 40.0 18.55 41.5 21.6 Q41.0 22.9 41.25 25.3" fill="#a34100" fill-rule="evenodd" stroke="none"/>
      <path d="M38.55 15.6 L37.85 18.95 37.05 19.5 37.75 15.6 38.55 15.6" fill="#ffde4f" fill-rule="evenodd" stroke="none"/>
      <path d="M38.55 15.6 L38.6 15.7 38.2 18.85 39.55 21.7 Q39.75 21.9 40.15 20.6 L39.75 22.05 41.25 25.3 42.7 28.25 43.4 26.5 42.8 29.05 42.4 28.4 37.9 19.25 37.05 19.5 37.85 18.95 38.55 15.6" fill="#ffff98" fill-rule="evenodd" stroke="none"/>
      <path d="M37.05 19.5 L37.9 19.25 42.4 28.4 42.8 29.05 42.0 29.85 37.05 19.5" fill="#8f3600" fill-rule="evenodd" stroke="none"/>
      <path d="M38.6 15.7 L38.55 15.6 37.75 15.6 M42.8 29.05 L43.4 26.5 43.55 25.8 41.5 21.6 40.0 18.55 38.6 15.7 M42.0 29.85 L42.8 29.05" fill="none" stroke="#000000" stroke-linecap="round" stroke-linejoin="round" stroke-opacity="0.3019608" stroke-width="0.30000000000000004"/>
      <path d="M37.9 19.9 L39.25 22.7 39.35 24.7 Q38.95 26.0 38.75 25.8 L37.45 23.05 37.9 19.9" fill="#f4a33c" fill-rule="evenodd" stroke="none"/>
      <path d="M40.7 25.65 L42.75 29.75 42.6 30.45 41.85 32.2 40.45 29.3 Q40.2 26.95 40.7 25.65" fill="#cc6b22" fill-rule="evenodd" stroke="none"/>
      <path d="M39.25 22.7 L40.7 25.65 Q40.2 26.95 40.45 29.3 L38.95 26.15 39.35 24.7 39.25 22.7" fill="#a34100" fill-rule="evenodd" stroke="none"/>
      <path d="M37.0 19.85 L37.85 19.8 37.05 23.2 36.2 23.75 37.0 19.85" fill="#ffde4f" fill-rule="evenodd" stroke="none"/>
      <path d="M36.2 23.75 L37.05 23.2 37.85 19.8 37.9 19.9 37.45 23.05 38.75 25.8 Q38.95 26.0 39.35 24.7 L38.95 26.15 40.45 29.3 41.85 32.2 42.6 30.45 41.95 32.95 41.55 32.35 37.1 23.45 36.2 23.75" fill="#ffff98" fill-rule="evenodd" stroke="none"/>
      <path d="M41.95 32.95 L41.15 33.75 36.2 23.75 37.1 23.45 41.55 32.35 41.95 32.95" fill="#8f3600" fill-rule="evenodd" stroke="none"/>
      <path d="M37.85 19.8 L37.0 19.85 M37.85 19.8 L37.9 19.9 39.25 22.7 40.7 25.65 42.75 29.75 42.6 30.45 41.95 32.95 41.15 33.75" fill="none" stroke="#000000" stroke-linecap="round" stroke-linejoin="round" stroke-opacity="0.3019608" stroke-width="0.30000000000000004"/>
      <path d="M38.4 28.65 Q37.9 30.0 37.7 29.75 L36.45 27.15 37.05 24.0 38.35 26.7 38.4 28.65" fill="#f4a33c" fill-rule="evenodd" stroke="none"/>
      <path d="M41.5 34.15 L40.6 35.95 39.3 33.15 Q39.15 30.85 39.75 29.5 L41.7 33.45 41.5 34.15" fill="#cc6b22" fill-rule="evenodd" stroke="none"/>
      <path d="M39.3 33.15 L37.85 30.15 38.4 28.65 38.35 26.7 39.75 29.5 Q39.15 30.85 39.3 33.15" fill="#a34100" fill-rule="evenodd" stroke="none"/>
      <path d="M37.0 23.9 L36.05 27.25 35.15 27.85 36.1 24.0 37.0 23.9" fill="#ffde4f" fill-rule="evenodd" stroke="none"/>
      <path d="M37.0 23.9 L37.05 24.0 36.45 27.15 37.7 29.75 Q37.9 30.0 38.4 28.65 L37.85 30.15 39.3 33.15 40.6 35.95 41.5 34.15 40.7 36.7 40.3 36.1 36.05 27.55 35.15 27.85 36.05 27.25 37.0 23.9" fill="#ffff98" fill-rule="evenodd" stroke="none"/>
      <path d="M35.15 27.85 L36.05 27.55 40.3 36.1 40.7 36.7 39.8 37.55 35.15 27.85" fill="#8f3600" fill-rule="evenodd" stroke="none"/>
      <path d="M37.05 24.0 L37.0 23.9 36.1 24.0 M40.7 36.7 L41.5 34.15 41.7 33.45 39.75 29.5 38.35 26.7 37.05 24.0 M39.8 37.55 L40.7 36.7" fill="none" stroke="#000000" stroke-linecap="round" stroke-linejoin="round" stroke-opacity="0.3019608" stroke-width="0.30000000000000004"/>
      <path d="M37.3 32.95 Q36.8 34.25 36.45 34.0 L35.25 31.5 36.0 28.3 37.25 31.0 37.3 32.95" fill="#f4a33c" fill-rule="evenodd" stroke="none"/>
      <path d="M40.25 38.45 Q39.7 39.8 39.15 40.05 L38.0 37.45 Q38.0 35.15 38.6 33.8 L40.4 37.55 40.25 38.45" fill="#cc6b22" fill-rule="evenodd" stroke="none"/>
      <path d="M38.0 37.45 L36.6 34.35 Q37.15 33.8 37.3 32.95 L37.25 31.0 38.6 33.8 Q38.0 35.15 38.0 37.45" fill="#a34100" fill-rule="evenodd" stroke="none"/>
      <path d="M35.95 28.2 L34.9 31.45 34.05 32.1 35.1 28.3 35.95 28.2" fill="#ffde4f" fill-rule="evenodd" stroke="none"/>
      <path d="M35.95 28.2 L36.0 28.3 35.25 31.5 36.45 34.0 Q36.8 34.25 37.3 32.95 37.15 33.8 36.6 34.35 L38.0 37.45 39.15 40.05 Q39.7 39.8 40.25 38.45 L39.3 40.9 34.95 31.65 34.05 32.1 34.9 31.45 35.95 28.2" fill="#ffff98" fill-rule="evenodd" stroke="none"/>
      <path d="M34.05 32.1 L34.95 31.65 39.3 40.9 38.5 41.45 34.05 32.1" fill="#8f3600" fill-rule="evenodd" stroke="none"/>
      <path d="M36.0 28.3 L35.95 28.2 35.1 28.3 M39.3 40.9 L40.25 38.45 40.4 37.55 38.6 33.8 37.25 31.0 36.0 28.3 M38.5 41.45 L39.3 40.9" fill="none" stroke="#000000" stroke-linecap="round" stroke-linejoin="round" stroke-opacity="0.3019608" stroke-width="0.30000000000000004"/>
      <path d="M32.85 15.35 L32.9 15.75 32.6 16.35 32.0 16.65 Q31.65 16.65 31.4 16.35 L31.15 15.9 31.15 15.75 31.15 15.6 Q31.2 15.3 31.4 15.1 31.65 14.8 32.0 14.8 32.35 14.8 32.6 15.1 L32.75 15.25 32.85 15.35" fill="#7e2601" fill-rule="evenodd" stroke="none"/>
      <path d="M32.1 14.7 L32.25 14.7 Q32.45 14.7 32.6 14.85 L32.75 15.25 32.75 15.3 32.6 15.6 32.25 15.75 31.9 15.6 31.8 15.45 31.75 15.25 31.9 14.85 32.1 14.7" fill="#f4a33c" fill-rule="evenodd" stroke="none"/>
      <path d="M31.45 15.6 L31.55 15.7 Q31.8 16.0 32.15 16.0 32.5 16.0 32.75 15.7 L33.05 15.1 33.05 14.95 33.1 15.1 33.2 15.45 32.9 16.05 32.3 16.35 Q31.95 16.35 31.7 16.05 L31.45 15.6" fill="#cc6b22" fill-rule="evenodd" stroke="none"/>
      <path d="M33.05 14.95 L33.05 15.1 32.75 15.7 Q32.5 16.0 32.15 16.0 31.8 16.0 31.55 15.7 L31.45 15.6 31.45 15.45 31.45 15.3 31.7 14.8 Q31.95 14.55 32.3 14.55 32.65 14.55 32.9 14.8 L33.05 14.95 M31.9 14.85 L31.75 15.25 31.8 15.45 31.9 15.6 32.25 15.75 32.6 15.6 32.75 15.3 32.75 15.25 32.6 14.85 Q32.45 14.7 32.25 14.7 L32.1 14.7 31.9 14.85" fill="#ffde4f" fill-rule="evenodd" stroke="none"/>
      <path d="M31.45 15.6 L31.7 16.05 Q31.95 16.35 32.3 16.35 L32.9 16.05 33.2 15.45 33.1 15.1 33.05 14.95 32.9 14.8 Q32.65 14.55 32.3 14.55 31.95 14.55 31.7 14.8 L31.45 15.3 31.45 15.45 31.45 15.6 Z" fill="none" stroke="#000000" stroke-linecap="round" stroke-linejoin="round" stroke-opacity="0.3019608" stroke-width="0.30000000000000004"/>
      <path d="M32.5 14.85 L32.45 15.0 32.3 15.15 32.1 15.1 32.0 15.05 31.95 14.95 Q31.9 14.85 32.0 14.8 L32.2 14.7 32.35 14.7 32.5 14.8 32.5 14.85" fill="#ffff98" fill-rule="evenodd" stroke="none"/>
      <path d="M29.2 18.4 L29.25 18.65 29.1 19.05 28.7 19.2 28.3 19.05 28.15 18.75 28.15 18.65 28.15 18.55 28.3 18.25 Q28.45 18.05 28.7 18.05 L29.1 18.25 29.15 18.3 29.2 18.4" fill="#7e2601" fill-rule="evenodd" stroke="none"/>
      <path d="M28.45 18.0 L28.55 18.0 28.75 18.1 28.85 18.35 28.85 18.4 28.75 18.55 28.55 18.65 28.3 18.55 28.25 18.45 28.2 18.35 28.3 18.1 28.45 18.0" fill="#f4a33c" fill-rule="evenodd" stroke="none"/>
      <path d="M29.05 18.15 L29.1 18.25 29.15 18.45 28.95 18.85 Q28.8 19.05 28.55 19.05 28.35 19.05 28.15 18.85 L28.0 18.55 28.05 18.6 Q28.25 18.8 28.45 18.8 28.7 18.8 28.85 18.6 L29.05 18.25 29.05 18.15" fill="#cc6b22" fill-rule="evenodd" stroke="none"/>
      <path d="M28.3 18.1 L28.2 18.35 28.25 18.45 28.3 18.55 28.55 18.65 28.75 18.55 28.85 18.4 28.85 18.35 28.75 18.1 28.55 18.0 28.45 18.0 28.3 18.05 28.3 18.1 M28.0 18.55 L28.0 18.45 28.0 18.4 28.15 18.05 28.55 17.9 Q28.8 17.9 28.95 18.05 L29.05 18.15 29.05 18.25 28.85 18.6 Q28.7 18.8 28.45 18.8 28.25 18.8 28.05 18.6 L28.0 18.55" fill="#ffde4f" fill-rule="evenodd" stroke="none"/>
      <path d="M28.0 18.55 L28.0 18.45 28.0 18.4 28.15 18.05 28.55 17.9 Q28.8 17.9 28.95 18.05 L29.05 18.15 29.1 18.25 29.15 18.45 28.95 18.85 Q28.8 19.05 28.55 19.05 28.35 19.05 28.15 18.85 L28.0 18.55 Z" fill="none" stroke="#000000" stroke-linecap="round" stroke-linejoin="round" stroke-opacity="0.3019608" stroke-width="0.30000000000000004"/>
      <path d="M28.7 18.15 L28.7 18.2 28.6 18.3 28.5 18.25 28.4 18.25 28.35 18.2 28.45 18.05 28.5 18.0 28.65 18.0 28.7 18.1 28.7 18.15" fill="#ffff98" fill-rule="evenodd" stroke="none"/>
      <path d="M31.5 21.5 L31.55 21.8 31.3 22.4 30.75 22.65 30.15 22.4 29.95 21.95 29.9 21.8 29.95 21.7 30.15 21.2 Q30.4 20.95 30.75 20.95 L31.3 21.2 31.4 21.35 31.5 21.5" fill="#7e2601" fill-rule="evenodd" stroke="none"/>
      <path d="M30.35 20.85 L30.5 20.85 Q30.7 20.85 30.8 21.0 L30.95 21.35 30.95 21.45 30.8 21.7 30.5 21.85 30.15 21.7 30.05 21.55 30.0 21.35 30.15 21.0 30.35 20.85" fill="#f4a33c" fill-rule="evenodd" stroke="none"/>
      <path d="M31.2 21.1 L31.3 21.2 31.35 21.55 31.1 22.15 30.55 22.4 Q30.2 22.4 29.95 22.15 L29.75 21.7 29.8 21.8 30.4 22.05 30.95 21.8 31.2 21.2 31.2 21.1" fill="#cc6b22" fill-rule="evenodd" stroke="none"/>
      <path d="M30.15 21.0 L30.0 21.35 30.05 21.55 30.15 21.7 30.5 21.85 30.8 21.7 30.95 21.45 30.95 21.35 30.8 21.0 Q30.7 20.85 30.5 20.85 L30.35 20.85 30.15 21.0 M29.75 21.7 L29.7 21.55 29.75 21.45 29.95 20.95 Q30.2 20.7 30.55 20.7 L31.1 20.95 31.2 21.1 31.2 21.2 30.95 21.8 30.4 22.05 29.8 21.8 29.75 21.7" fill="#ffde4f" fill-rule="evenodd" stroke="none"/>
      <path d="M29.75 21.7 L29.7 21.55 29.75 21.45 29.95 20.95 Q30.2 20.7 30.55 20.7 L31.1 20.95 31.2 21.1 31.3 21.2 31.35 21.55 31.1 22.15 30.55 22.4 Q30.2 22.4 29.95 22.15 L29.75 21.7 Z" fill="none" stroke="#000000" stroke-linecap="round" stroke-linejoin="round" stroke-opacity="0.3019608" stroke-width="0.30000000000000004"/>
      <path d="M30.75 21.5 L30.65 21.6 30.55 21.7 30.3 21.7 30.25 21.65 30.25 21.55 30.25 21.4 30.45 21.3 30.6 21.3 30.75 21.45 30.75 21.5" fill="#ffff98" fill-rule="evenodd" stroke="none"/>
      <path d="M26.65 14.85 L26.7 15.1 26.55 15.5 26.15 15.65 25.75 15.5 25.6 15.2 25.6 15.1 25.6 15.0 25.75 14.7 26.15 14.5 26.55 14.7 26.6 14.75 26.65 14.85" fill="#7e2601" fill-rule="evenodd" stroke="none"/>
      <path d="M25.9 14.45 L26.0 14.45 26.2 14.55 26.3 14.8 26.3 14.85 26.2 15.0 26.0 15.1 25.75 15.0 25.7 14.9 25.65 14.8 25.75 14.55 25.9 14.45" fill="#f4a33c" fill-rule="evenodd" stroke="none"/>
      <path d="M25.45 15.0 L25.5 15.05 25.9 15.25 26.3 15.05 26.5 14.7 26.5 14.6 26.55 14.7 26.6 14.9 26.4 15.3 26.0 15.5 25.6 15.3 25.45 15.0" fill="#cc6b22" fill-rule="evenodd" stroke="none"/>
      <path d="M26.5 14.6 L26.5 14.7 26.3 15.05 25.9 15.25 25.5 15.05 25.45 15.0 25.45 14.9 25.45 14.85 25.6 14.5 26.0 14.35 Q26.25 14.35 26.4 14.5 L26.5 14.6 M25.75 14.55 L25.65 14.8 25.7 14.9 25.75 15.0 26.0 15.1 26.2 15.0 26.3 14.85 26.3 14.8 26.2 14.55 26.0 14.45 25.9 14.45 25.75 14.5 25.75 14.55" fill="#ffde4f" fill-rule="evenodd" stroke="none"/>
      <path d="M25.45 15.0 L25.6 15.3 26.0 15.5 26.4 15.3 26.6 14.9 26.55 14.7 26.5 14.6 26.4 14.5 Q26.25 14.35 26.0 14.35 L25.6 14.5 25.45 14.85 25.45 14.9 25.45 15.0 Z" fill="none" stroke="#000000" stroke-linecap="round" stroke-linejoin="round" stroke-opacity="0.3019608" stroke-width="0.30000000000000004"/>
      <path d="M26.15 14.65 L26.15 14.7 26.05 14.8 25.95 14.75 25.85 14.75 25.8 14.7 25.9 14.55 25.95 14.5 26.1 14.5 26.15 14.6 26.15 14.65" fill="#ffff98" fill-rule="evenodd" stroke="none"/>
      <path d="M24.45 24.05 L24.5 24.35 24.25 24.95 23.7 25.2 Q23.35 25.2 23.1 24.95 L22.9 24.5 22.85 24.35 22.9 24.25 23.1 23.75 Q23.35 23.5 23.7 23.5 24.0 23.5 24.25 23.75 L24.35 23.9 24.45 24.05" fill="#7e2601" fill-rule="evenodd" stroke="none"/>
      <path d="M23.8 23.4 L23.95 23.4 24.25 23.55 24.4 23.9 24.4 24.0 24.25 24.25 23.95 24.4 23.6 24.25 23.5 24.1 23.45 23.9 23.6 23.55 23.8 23.4" fill="#f4a33c" fill-rule="evenodd" stroke="none"/>
      <path d="M23.2 24.25 L23.25 24.35 23.85 24.6 24.4 24.35 24.65 23.75 24.65 23.65 24.75 23.75 24.8 24.1 24.55 24.7 24.0 24.95 23.4 24.7 23.2 24.25" fill="#cc6b22" fill-rule="evenodd" stroke="none"/>
      <path d="M24.65 23.65 L24.65 23.75 24.4 24.35 23.85 24.6 23.25 24.35 23.2 24.25 23.15 24.1 23.2 24.0 23.4 23.5 Q23.65 23.25 24.0 23.25 24.3 23.25 24.55 23.5 L24.65 23.65 M23.6 23.55 L23.45 23.9 23.5 24.1 23.6 24.25 23.95 24.4 24.25 24.25 24.4 24.0 24.4 23.9 24.25 23.55 23.95 23.4 23.8 23.4 23.6 23.55" fill="#ffde4f" fill-rule="evenodd" stroke="none"/>
      <path d="M23.2 24.25 L23.4 24.7 24.0 24.95 24.55 24.7 24.8 24.1 24.75 23.75 24.65 23.65 24.55 23.5 Q24.3 23.25 24.0 23.25 23.65 23.25 23.4 23.5 L23.2 24.0 23.15 24.1 23.2 24.25 Z" fill="none" stroke="#000000" stroke-linecap="round" stroke-linejoin="round" stroke-opacity="0.3019608" stroke-width="0.30000000000000004"/>
      <path d="M24.2 23.5 L24.1 23.6 24.0 23.7 23.75 23.7 23.7 23.65 23.7 23.55 23.7 23.4 23.9 23.3 24.05 23.3 24.2 23.45 24.2 23.5" fill="#ffff98" fill-rule="evenodd" stroke="none"/>
      <path d="M28.7 25.95 L28.75 26.2 28.6 26.6 28.2 26.75 Q27.95 26.75 27.8 26.6 L27.65 26.3 27.65 26.2 27.65 26.1 27.8 25.8 Q27.95 25.6 28.2 25.6 L28.6 25.8 28.65 25.85 28.7 25.95" fill="#7e2601" fill-rule="evenodd" stroke="none"/>
      <path d="M27.95 25.55 L28.05 25.55 28.25 25.65 28.35 25.9 28.35 25.95 28.25 26.1 28.05 26.2 27.8 26.1 27.75 26.0 27.7 25.9 27.8 25.65 Q27.85 25.55 27.95 25.55" fill="#f4a33c" fill-rule="evenodd" stroke="none"/>
      <path d="M27.5 26.1 L27.55 26.15 Q27.75 26.35 27.95 26.35 28.2 26.35 28.35 26.15 L28.55 25.8 28.55 25.7 28.6 25.8 28.65 26.0 28.45 26.4 Q28.3 26.6 28.05 26.6 27.85 26.6 27.65 26.4 L27.5 26.1" fill="#cc6b22" fill-rule="evenodd" stroke="none"/>
      <path d="M28.55 25.7 L28.55 25.8 28.35 26.15 Q28.2 26.35 27.95 26.35 27.75 26.35 27.55 26.15 L27.5 26.1 27.5 26.0 27.5 25.95 27.65 25.6 28.05 25.45 Q28.3 25.45 28.45 25.6 L28.55 25.7 M27.8 25.65 L27.7 25.9 27.75 26.0 27.8 26.1 28.05 26.2 28.25 26.1 28.35 25.95 28.35 25.9 28.25 25.65 28.05 25.55 27.95 25.55 27.8 25.6 27.8 25.65" fill="#ffde4f" fill-rule="evenodd" stroke="none"/>
      <path d="M27.5 26.1 L27.65 26.4 Q27.85 26.6 28.05 26.6 28.3 26.6 28.45 26.4 L28.65 26.0 28.6 25.8 28.55 25.7 28.45 25.6 Q28.3 25.45 28.05 25.45 L27.65 25.6 27.5 25.95 27.5 26.0 27.5 26.1 Z" fill="none" stroke="#000000" stroke-linecap="round" stroke-linejoin="round" stroke-opacity="0.3019608" stroke-width="0.30000000000000004"/>
      <path d="M28.2 25.75 L28.2 25.8 28.1 25.9 28.0 25.85 27.9 25.85 27.85 25.8 27.95 25.65 28.0 25.6 28.15 25.6 28.2 25.7 28.2 25.75" fill="#ffff98" fill-rule="evenodd" stroke="none"/>
      <path d="M28.2 24.6 Q25.9 27.5 22.95 27.9 L21.85 27.7 Q17.8 28.65 13.15 27.85 7.8 26.5 7.85 23.65 L27.4 11.95 Q29.95 11.45 28.75 17.8 30.1 22.3 28.2 24.6" fill="#7e2601" fill-opacity="0.62352943" fill-rule="evenodd" stroke="none"/>
      <path d="M8.5 10.4 L8.35 10.5 7.1 12.0 6.35 13.25 6.4 12.4 Q6.4 11.8 6.55 11.3 7.2 11.5 8.0 10.35 L8.35 9.85 Q9.3 8.1 8.85 6.7 L9.0 6.75 Q9.85 8.65 8.5 10.4 M20.75 14.4 L20.75 13.2 Q20.6 12.0 19.9 11.05 L19.05 10.2 20.65 10.75 Q22.25 11.4 23.7 12.4 L23.75 12.65 Q23.65 14.7 24.5 14.5 25.25 14.4 25.75 11.85 L25.8 10.95 25.55 10.25 25.9 11.2 25.65 14.65 25.25 16.1 24.6 17.35 Q20.6 23.8 12.45 24.25 7.5 23.85 5.4 20.75 4.65 19.3 4.6 18.2 L4.7 17.25 Q4.95 22.85 13.9 21.4 19.8 20.05 20.65 15.4 L20.7 15.2 20.75 14.55 20.75 14.4" fill="#f4a33c" fill-rule="evenodd" stroke="none"/>
      <path d="M10.8 9.4 L9.25 9.9 8.5 10.4 Q9.85 8.65 9.0 6.75 10.3 7.3 10.8 9.4 M25.65 14.65 Q26.1 12.95 26.15 11.1 L26.15 10.25 Q27.4 11.25 26.5 16.45 27.45 21.3 24.7 23.95 18.6 27.95 10.45 25.85 5.7 24.55 4.85 20.75 7.2 24.05 11.35 24.3 L12.45 24.25 Q20.6 23.8 24.6 17.35 L25.25 16.1 25.65 14.65" fill="#cc6b22" fill-rule="evenodd" stroke="none"/>
      <path d="M7.1 12.0 Q8.15 10.85 8.85 10.7 L9.0 10.65 Q12.8 9.4 16.3 9.7 18.2 10.4 19.25 11.35 20.7 12.7 20.75 14.4 L20.75 14.55 20.7 15.2 20.65 15.4 Q19.8 20.05 13.9 21.4 4.95 22.85 4.7 17.25 5.0 15.3 6.35 13.25 L7.1 12.0 M23.7 12.4 Q24.4 10.1 25.35 10.2 L25.55 10.25 25.8 10.95 25.75 11.85 Q25.25 14.4 24.5 14.5 23.65 14.7 23.75 12.65 L23.7 12.4 M6.55 11.3 L6.8 9.9 Q7.45 7.85 8.7 6.65 L8.85 6.7 Q9.3 8.1 8.35 9.85 L8.0 10.35 Q7.2 11.5 6.55 11.3" fill="#ffde4f" fill-rule="evenodd" stroke="none"/>
      <path d="M11.3 9.3 Q17.65 7.95 23.5 11.35 24.2 9.25 25.95 9.1 28.35 9.15 27.2 16.2 28.75 22.65 23.25 26.0 14.6 29.55 6.45 24.85 1.5 19.7 5.8 13.1 L5.85 12.3 Q5.9 10.9 6.3 9.65 6.75 8.1 7.65 6.75 9.85 4.85 11.3 9.3 L10.8 9.4 11.3 9.3 M9.25 9.9 L10.8 9.4 Q10.3 7.3 9.0 6.75 L8.85 6.7 8.7 6.65 Q7.45 7.85 6.8 9.9 L6.55 11.3 Q6.4 11.8 6.4 12.4 L6.35 13.25 Q5.0 15.3 4.7 17.25 L4.6 18.2 Q4.65 19.3 5.4 20.75 7.5 23.85 12.45 24.25 L11.35 24.3 Q7.2 24.05 4.85 20.75 5.7 24.55 10.45 25.85 18.6 27.95 24.7 23.95 27.45 21.3 26.5 16.45 27.4 11.25 26.15 10.25 L26.15 11.1 Q26.1 12.95 25.65 14.65 L25.9 11.2 25.55 10.25 25.35 10.2 Q24.4 10.1 23.7 12.4 22.25 11.4 20.65 10.75 L19.05 10.2 19.9 11.05 Q20.6 12.0 20.75 13.2 L20.75 14.4 Q20.7 12.7 19.25 11.35 18.2 10.4 16.3 9.7 12.8 9.4 9.0 10.65 L8.85 10.7 Q8.15 10.85 7.1 12.0 L8.35 10.5 8.5 10.4 9.25 9.9" fill="#ffff98" fill-rule="evenodd" stroke="none"/>
      <path d="M11.3 9.3 Q9.85 4.85 7.65 6.75 6.75 8.1 6.3 9.65 5.9 10.9 5.85 12.3 L5.8 13.1 Q1.5 19.7 6.45 24.85 14.6 29.55 23.25 26.0 28.75 22.65 27.2 16.2 28.35 9.15 25.95 9.1 24.2 9.25 23.5 11.35 17.65 7.95 11.3 9.3 L10.8 9.4 9.25 9.9" fill="none" stroke="#000000" stroke-linecap="round" stroke-linejoin="round" stroke-opacity="0.3019608" stroke-width="0.30000000000000004"/>
      <path d="M17.8 12.55 L18.1 13.0 18.1 13.6 18.05 13.8 17.6 14.45 17.15 14.65 Q16.9 14.6 16.8 14.2 L16.75 14.1 Q17.1 14.5 17.55 14.1 L17.6 14.05 17.8 13.55 Q18.0 13.0 17.8 12.55 M12.05 11.85 L12.2 12.25 12.3 12.75 12.15 13.05 11.8 13.75 Q11.5 14.0 11.25 13.9 L10.95 13.45 10.95 12.95 Q11.1 13.5 11.4 13.45 L11.75 13.2 12.0 12.7 12.05 11.85" fill="#560000" fill-rule="evenodd" stroke="none"/>
      <path d="M16.75 14.1 L16.8 13.8 16.95 13.45 Q17.3 12.9 17.55 13.0 17.7 13.0 17.65 13.55 L17.55 14.05 17.55 14.1 Q17.1 14.5 16.75 14.1 M6.75 20.45 L6.5 19.8 Q8.15 22.5 11.55 20.75 13.05 22.75 15.55 22.15 L17.0 21.65 16.7 22.15 15.55 22.55 Q13.15 23.1 11.45 21.4 7.65 22.55 6.75 20.45 M10.95 12.95 L11.0 12.75 11.05 12.7 11.25 12.45 11.65 12.15 Q11.85 12.0 11.85 12.45 L11.75 13.2 11.4 13.45 Q11.1 13.5 10.95 12.95" fill="#cc6b22" fill-rule="evenodd" stroke="none"/>
      <path d="M17.6 14.05 L17.55 14.1 17.55 14.05 17.6 14.05 M16.7 22.15 Q16.55 23.05 15.45 23.35 L15.25 23.4 Q13.05 23.9 11.1 22.4 9.9 22.9 8.25 22.4 6.9 22.0 6.85 21.15 7.1 21.75 8.45 22.2 9.8 22.6 11.15 21.8 11.9 22.9 14.1 23.1 L15.5 22.9 16.7 22.15 M11.0 12.75 L11.05 12.7 11.0 12.75" fill="#ffde4f" fill-rule="evenodd" stroke="none"/>
      <path d="M16.8 13.8 L16.85 13.45 16.85 13.4 17.25 12.7 17.8 12.55 Q18.0 13.0 17.8 13.55 L17.6 14.05 17.55 14.05 17.65 13.55 Q17.7 13.0 17.55 13.0 17.3 12.9 16.95 13.45 L16.8 13.8 M6.85 21.15 Q6.65 20.8 6.75 20.45 7.65 22.55 11.45 21.4 13.15 23.1 15.55 22.55 L16.7 22.15 15.5 22.9 14.1 23.1 Q11.9 22.9 11.15 21.8 9.8 22.6 8.45 22.2 7.1 21.75 6.85 21.15 M11.05 12.7 Q11.15 12.25 11.4 11.95 L11.95 11.8 12.05 11.85 12.0 12.7 11.75 13.2 11.85 12.45 Q11.85 12.0 11.65 12.15 L11.25 12.45 11.05 12.7" fill="#ffff98" fill-rule="evenodd" stroke="none"/>
      <path d="M17.8 12.55 L18.1 13.0 18.1 13.6 18.05 13.8 17.6 14.45 17.15 14.65 Q16.9 14.6 16.8 14.2 L16.75 14.1 16.8 13.8 16.85 13.45 16.85 13.4 17.25 12.7 17.8 12.55 M6.75 20.45 Q7.65 22.55 11.45 21.4 13.15 23.1 15.55 22.55 L16.7 22.15 M12.05 11.85 L12.2 12.25 12.3 12.75 12.15 13.05 11.8 13.75 Q11.5 14.0 11.25 13.9 L10.95 13.45 10.95 12.95 11.0 12.75 11.05 12.7 Q11.15 12.25 11.4 11.95 L11.95 11.8 12.05 11.85" fill="none" stroke="#000000" stroke-linecap="round" stroke-linejoin="round" stroke-opacity="0.3019608" stroke-width="0.30000000000000004"/>
      <path d="M3.95 16.3 Q4.15 15.6 5.1 15.2 L7.3 15.05 8.8 15.55 9.35 15.95 Q10.05 16.65 10.05 17.35 L10.05 17.45 Q9.9 18.25 8.9 18.65 L6.7 18.85 Q5.45 18.65 4.65 17.9 3.85 17.2 3.95 16.4 L3.95 16.3" fill="#a34100" fill-rule="evenodd" stroke="none"/>
      <path d="M8.65 16.85 L8.8 16.7 Q9.25 16.2 8.85 15.5 8.2 15.05 7.3 14.9 L5.2 15.0 Q4.55 15.25 4.35 15.7 4.35 16.6 6.35 17.15 L6.15 17.15 Q5.0 16.95 4.25 16.3 L4.2 16.25 3.8 15.85 Q4.0 15.1 4.95 14.65 L7.35 14.5 8.95 15.05 9.25 15.75 9.2 16.0 8.8 16.7 8.65 16.85" fill="#f9f8ec" fill-rule="evenodd" stroke="none"/>
      <path d="M6.35 17.15 Q4.35 16.6 4.35 15.7 4.55 15.25 5.2 15.0 L7.3 14.9 Q8.2 15.05 8.85 15.5 9.25 16.2 8.8 16.7 L8.65 16.85 8.25 17.0 6.35 17.15" fill="#e6e4b3" fill-rule="evenodd" stroke="none"/>
      <path d="M8.65 16.85 L8.8 16.7 9.2 16.0 9.25 15.75 Q9.85 16.3 9.85 16.9 L9.85 17.05 Q9.7 17.7 8.8 18.0 L6.75 18.15 Q5.55 17.95 4.85 17.3 4.2 16.85 4.2 16.25 L4.25 16.3 Q5.0 16.95 6.15 17.15 L6.35 17.15 8.25 17.0 8.65 16.85" fill="#cac960" fill-rule="evenodd" stroke="none"/>
      <path d="M9.25 15.75 L8.95 15.05 9.5 15.45 Q10.4 16.2 10.3 17.0 L10.3 17.1 Q10.15 17.95 9.05 18.3 L6.7 18.5 Q5.35 18.3 4.5 17.5 3.65 16.8 3.8 15.95 L3.8 15.85 4.2 16.25 Q4.2 16.85 4.85 17.3 5.55 17.95 6.75 18.15 L8.8 18.0 Q9.7 17.7 9.85 17.05 L9.85 16.9 Q9.85 16.3 9.25 15.75" fill="#d5d580" fill-rule="evenodd" stroke="none"/>
      <path d="M8.95 15.05 L7.35 14.5 4.95 14.65 Q4.0 15.1 3.8 15.85 L3.8 15.95 Q3.65 16.8 4.5 17.5 5.35 18.3 6.7 18.5 L9.05 18.3 Q10.15 17.95 10.3 17.1 L10.3 17.0 Q10.4 16.2 9.5 15.45 L8.95 15.05 Z" fill="none" stroke="#000000" stroke-linecap="round" stroke-linejoin="round" stroke-opacity="0.3019608" stroke-width="0.30000000000000004"/>
      <path d="M17.2 17.85 L17.9 17.3 Q19.05 16.75 20.55 16.85 21.7 16.9 22.6 17.3 L23.1 17.6 Q24.2 18.3 24.15 19.2 24.1 20.1 22.95 20.65 21.85 21.25 20.3 21.15 18.8 21.05 17.75 20.35 16.75 19.7 16.8 18.8 L16.8 18.45 17.2 17.85" fill="#a34100" fill-rule="evenodd" stroke="none"/>
      <path d="M16.8 18.9 L16.3 18.3 16.6 17.7 17.4 17.15 Q18.55 16.65 20.1 16.7 L22.05 17.2 22.4 17.8 22.4 18.0 Q22.35 18.75 21.35 19.2 L20.9 19.4 Q22.45 18.5 21.85 17.55 21.05 17.15 20.05 17.05 18.75 17.0 17.85 17.45 L17.3 17.8 16.9 18.35 Q17.05 19.1 18.65 19.55 17.65 19.4 16.95 18.95 L16.8 18.9" fill="#f9f8ec" fill-rule="evenodd" stroke="none"/>
      <path d="M18.65 19.55 Q17.05 19.1 16.9 18.35 L17.3 17.8 17.85 17.45 Q18.75 17.0 20.05 17.05 21.05 17.15 21.85 17.55 22.45 18.5 20.9 19.4 L19.15 19.55 18.65 19.55" fill="#e6e4b3" fill-rule="evenodd" stroke="none"/>
      <path d="M16.3 18.3 L16.8 18.9 Q16.9 19.5 17.7 20.05 18.55 20.6 19.85 20.65 L22.1 20.3 Q23.05 19.8 23.05 19.05 23.1 18.35 22.4 17.8 L22.05 17.2 22.65 17.45 Q23.7 18.2 23.65 19.1 23.6 20.0 22.5 20.55 L19.85 21.0 Q18.3 20.95 17.25 20.25 16.15 19.55 16.2 18.65 L16.3 18.3" fill="#d5d580" fill-rule="evenodd" stroke="none"/>
      <path d="M16.8 18.9 L16.95 18.95 Q17.65 19.4 18.65 19.55 L19.15 19.55 20.9 19.4 21.35 19.2 Q22.35 18.75 22.4 18.0 L22.4 17.8 Q23.1 18.35 23.05 19.05 23.05 19.8 22.1 20.3 L19.85 20.65 Q18.55 20.6 17.7 20.05 16.9 19.5 16.8 18.9" fill="#cac960" fill-rule="evenodd" stroke="none"/>
      <path d="M22.05 17.2 L20.1 16.7 Q18.55 16.65 17.4 17.15 L16.6 17.7 16.3 18.3 16.2 18.65 Q16.15 19.55 17.25 20.25 18.3 20.95 19.85 21.0 L22.5 20.55 Q23.6 20.0 23.65 19.1 23.7 18.2 22.65 17.45 L22.05 17.2 Z" fill="none" stroke="#000000" stroke-linecap="round" stroke-linejoin="round" stroke-opacity="0.3019608" stroke-width="0.30000000000000004"/>
    </g>
    <g id="sprite1" transform="matrix(1.0, 0.0, 0.0, 1.0, 0.0, 0.0)">
      <use height="26.7" transform="matrix(0.0042, -1.3515, 1.3935, 0.02, 22.09, 56.0263)" width="26.7" xlink:href="#sprite2"/>
      <use height="26.7" transform="matrix(0.0095, -3.0486, 0.372, 0.0053, 36.507, 81.3775)" width="26.7" xlink:href="#sprite2"/>
      <use height="26.7" transform="matrix(3.0486, 0.0095, -0.0053, 0.372, 0.1225, 35.107)" width="26.7" xlink:href="#sprite2"/>
    </g>
    <g id="sprite2" transform="matrix(1.0, 0.0, 0.0, 1.0, 13.35, 13.35)">
      <use height="26.7" transform="matrix(1.0, 0.0, 0.0, 1.0, -13.35, -13.35)" width="26.7" xlink:href="#shape2"/>
    </g>
    <g id="shape2" transform="matrix(1.0, 0.0, 0.0, 1.0, 13.35, 13.35)">
      <path d="M9.3 -9.85 Q13.35 -5.8 13.35 0.0 13.35 5.8 9.3 9.3 5.8 13.35 0.0 13.35 -5.8 13.35 -9.85 9.3 -13.35 5.8 -13.35 0.0 -13.35 -5.8 -9.85 -9.85 -5.8 -13.35 0.0 -13.35 5.8 -13.35 9.3 -9.85" fill="url(#gradient0)" fill-rule="evenodd" stroke="none"/>
    </g>
    <radialGradient cx="0" cy="0" gradientTransform="matrix(0.0213, 0.0, 0.0, 0.0213, 0.0, 0.0)" gradientUnits="userSpaceOnUse" id="gradient0" r="819.2" spreadMethod="pad">
      <stop offset="0.19607843137254902" stop-color="#fee3bc" stop-opacity="0.5568628"/>
      <stop offset="0.5019607843137255" stop-color="#fee3bc" stop-opacity="0.08627451"/>
      <stop offset="0.7607843137254902" stop-color="#ffe3bd" stop-opacity="0.0"/>
    </radialGradient>
  </defs>
</svg>
