<?xml version="1.0" encoding="UTF-8" standalone="no"?>
<svg xmlns:xlink="http://www.w3.org/1999/xlink" height="52.0px" width="52.0px" xmlns="http://www.w3.org/2000/svg">
  <g transform="matrix(1.0, 0.0, 0.0, 1.0, 0.0, 0.0)">
    <use height="162.0" transform="matrix(1.0, 0.0, 0.0, 1.0, -55.0, -55.0)" width="162.0" xlink:href="#shape0"/>
    <use height="81.5" transform="matrix(0.2318, 0.0, 0.0, 0.2216, 21.25, 8.95)" width="81.5" xlink:href="#sprite0"/>
    <use height="0.0" transform="matrix(0.1076, 0.0, 0.0, 0.05, 29.15, 37.4)" width="0.0" xlink:href="#sprite2"/>
    <use height="0.0" transform="matrix(0.0728, 0.0, 0.0, 0.0673, 23.9, 27.85)" width="0.0" xlink:href="#sprite2"/>
    <use height="0.0" transform="matrix(0.0344, -0.0495, 0.088, 0.0493, 11.65, 32.6)" width="0.0" xlink:href="#sprite2"/>
    <use height="81.5" transform="matrix(0.1928, 0.0, 0.0, 0.1843, 7.85, 31.3)" width="81.5" xlink:href="#sprite0"/>
    <use height="0.0" transform="matrix(0.0844, 0.0226, -0.034, 0.1271, 27.75, 13.35)" width="0.0" xlink:href="#sprite2"/>
  </g>
  <defs>
    <g id="shape0" transform="matrix(1.0, 0.0, 0.0, 1.0, 55.0, 55.0)">
      <path d="M52.0 0.0 L52.0 52.0 0.0 52.0 0.0 0.0 52.0 0.0" fill="#795fa9" fill-opacity="0.0" fill-rule="evenodd" stroke="none"/>
      <path d="M21.3 23.2 L20.85 23.35 Q20.5 23.45 20.15 23.65 L19.55 24.0 19.4 24.1 17.75 25.5 16.25 27.5 14.4 27.4 13.9 27.6 Q10.9 26.6 7.9 27.7 3.7 29.95 3.45 34.7 L3.45 35.95 3.45 36.15 3.45 36.25 Q3.75 38.0 7.8 40.6 12.65 43.75 20.0 46.2 27.35 48.65 32.85 49.05 36.75 49.3 38.2 48.45 L38.55 48.2 38.6 48.15 38.7 48.0 38.8 47.85 Q41.6 43.05 40.3 39.7 39.7 38.1 38.8 37.1 L38.9 34.75 Q38.55 30.7 37.7 29.0 39.85 28.2 41.6 26.4 43.25 24.75 44.1 22.8 L45.85 23.35 Q47.8 23.55 47.9 20.95 L44.75 14.45 43.9 13.05 41.25 10.05 Q39.25 7.95 36.65 9.15 36.05 8.1 34.55 7.6 L33.5 7.4 33.45 7.4 Q32.75 3.45 31.65 1.8 24.45 4.05 20.15 13.65 17.4 20.55 22.35 22.9 L21.35 23.15 21.3 23.2 Z" fill="none" stroke="#000000" stroke-linecap="round" stroke-linejoin="round" stroke-opacity="0.3019608" stroke-width="1.0"/>
      <path d="M38.75 22.2 Q37.35 23.3 35.7 23.05 31.25 22.5 28.8 18.7 L23.65 16.9 Q23.85 15.25 24.6 13.55 26.95 9.25 30.5 8.6 30.05 9.15 29.8 10.0 29.1 13.95 32.7 13.55 L34.9 12.65 36.6 15.05 Q37.4 16.0 38.55 15.5 39.65 14.95 40.1 12.6 L40.55 14.8 Q41.3 19.2 38.75 22.2 M41.75 15.0 Q41.9 12.1 43.2 13.1 L43.8 13.95 44.65 15.75 Q45.85 19.4 45.15 20.7 43.75 20.6 42.2 17.8 41.9 16.55 41.75 15.0" fill="#f4a33c" fill-rule="evenodd" stroke="none"/>
      <path d="M23.65 16.9 Q23.45 18.0 23.55 19.05 23.75 22.65 26.55 25.85 L27.3 26.65 Q32.5 30.25 38.45 27.55 41.65 25.95 43.4 22.3 L44.1 22.8 43.4 22.3 Q41.65 20.75 41.65 17.1 L41.75 15.0 Q41.9 16.55 42.2 17.8 43.0 20.95 44.95 22.05 46.55 23.05 47.15 21.0 L45.5 17.5 Q45.9 19.1 45.6 19.9 L45.15 20.7 Q45.85 19.4 44.65 15.75 L43.8 13.95 43.2 13.1 Q41.9 11.45 40.4 10.25 L40.3 10.2 Q39.75 9.85 39.15 9.7 40.9 10.7 41.35 13.95 41.8 17.15 41.1 18.6 41.45 15.2 40.6 12.45 L40.5 12.3 Q39.5 10.35 38.3 9.55 L37.1 9.65 Q36.1 10.0 35.25 10.85 L35.35 10.35 Q35.55 9.95 35.9 9.65 34.85 8.05 33.05 8.1 31.45 7.8 29.8 10.0 30.05 9.15 30.5 8.6 26.95 9.25 24.6 13.55 23.85 15.25 23.65 16.9 M31.15 7.95 Q30.75 8.2 30.5 8.6 30.75 8.2 31.15 7.95 32.05 7.25 33.5 7.4 L34.55 7.6 Q36.05 8.1 36.65 9.15 39.25 7.95 41.25 10.05 L43.9 13.05 44.75 14.45 47.9 20.95 Q47.8 23.55 45.85 23.35 L44.1 22.8 Q43.25 24.75 41.6 26.4 38.35 29.7 33.7 29.7 29.05 29.7 25.75 26.4 22.5 23.15 22.5 18.5 22.5 13.85 25.6 10.6 L27.4 8.95 Q29.45 7.55 31.15 7.95 M36.65 9.15 Q36.2 9.35 35.9 9.65 36.2 9.35 36.65 9.15" fill="#ffff98" fill-rule="evenodd" stroke="none"/>
      <path d="M23.55 19.05 Q23.45 18.0 23.65 16.9 L28.8 18.7 Q31.25 22.5 35.7 23.05 37.35 23.3 38.75 22.2 L39.3 21.75 40.25 20.3 41.0 18.85 41.1 18.65 41.1 18.6 Q42.0 20.3 41.7 22.8 41.5 24.55 38.8 25.7 34.9 25.95 32.7 24.15 L29.1 23.7 Q25.85 22.9 23.55 19.05 M45.15 20.7 L45.6 19.9 Q45.9 19.1 45.5 17.5 L47.15 21.0 Q46.55 23.05 44.95 22.05 43.0 20.95 42.2 17.8 43.75 20.6 45.15 20.7" fill="#cc6b22" fill-rule="evenodd" stroke="none"/>
      <path d="M41.1 18.6 L41.1 18.65 41.0 18.85 40.25 20.3 39.3 21.75 38.75 22.2 Q41.3 19.2 40.55 14.8 L40.1 12.6 Q39.65 14.95 38.55 15.5 37.4 16.0 36.6 15.05 L34.9 12.65 32.7 13.55 Q29.1 13.95 29.8 10.0 31.45 7.8 33.05 8.1 34.85 8.05 35.9 9.65 35.55 9.95 35.35 10.35 L35.25 10.85 Q36.1 10.0 37.1 9.65 L38.3 9.55 Q39.5 10.35 40.5 12.3 L40.6 12.45 Q41.45 15.2 41.1 18.6 M41.35 13.95 Q40.9 10.7 39.15 9.7 39.75 9.85 40.3 10.2 L40.4 10.25 Q41.9 11.45 43.2 13.1 41.9 12.1 41.75 15.0 L41.35 13.95" fill="#ffde4f" fill-rule="evenodd" stroke="none"/>
      <path d="M23.55 19.05 Q25.85 22.9 29.1 23.7 L32.7 24.15 Q34.9 25.95 38.8 25.7 41.5 24.55 41.7 22.8 42.0 20.3 41.1 18.6 41.8 17.15 41.35 13.95 L41.75 15.0 41.65 17.1 Q41.65 20.75 43.4 22.3 41.65 25.95 38.45 27.55 32.5 30.25 27.3 26.65 L26.55 25.85 Q23.75 22.65 23.55 19.05" fill="#a34100" fill-rule="evenodd" stroke="none"/>
      <path d="M30.5 8.6 Q30.75 8.2 31.15 7.95 29.45 7.55 27.4 8.95 L25.6 10.6 Q22.5 13.85 22.5 18.5 22.5 23.15 25.75 26.4 29.05 29.7 33.7 29.7 38.35 29.7 41.6 26.4 43.25 24.75 44.1 22.8 L43.4 22.3 Q41.65 20.75 41.65 17.1 L41.75 15.0 M35.35 10.35 Q35.55 9.95 35.9 9.65 36.2 9.35 36.65 9.15 36.05 8.1 34.55 7.6 L33.5 7.4 Q32.05 7.25 31.15 7.95 M36.65 9.15 Q39.25 7.95 41.25 10.05 L43.9 13.05 44.75 14.45 47.9 20.95 Q47.8 23.55 45.85 23.35 L44.1 22.8 M30.5 8.6 Q30.05 9.15 29.8 10.0" fill="none" stroke="#000000" stroke-linecap="round" stroke-linejoin="round" stroke-opacity="0.3019608" stroke-width="0.30000000000000004"/>
      <path d="M38.25 11.1 L38.0 10.95 37.05 10.85 36.4 11.6 36.25 12.1 36.25 12.7 Q36.4 13.3 36.8 13.55 37.2 13.75 37.7 13.55 L38.4 12.75 Q38.65 12.25 38.5 11.7 L38.4 11.35 38.25 11.1 M38.0 10.5 L38.15 10.6 38.4 10.8 Q38.75 11.05 38.8 11.55 39.0 12.25 38.7 12.9 L37.8 13.85 Q37.2 14.15 36.65 13.85 36.15 13.55 36.0 12.8 L36.0 12.1 36.1 11.6 36.15 11.45 Q36.45 10.8 37.0 10.5 37.55 10.35 38.0 10.5 M31.75 10.2 Q32.05 9.55 32.6 9.25 L33.75 9.35 34.05 9.55 34.4 10.3 Q34.6 11.0 34.3 11.65 L33.4 12.6 Q32.8 12.9 32.25 12.6 31.75 12.3 31.6 11.55 L31.55 11.05 31.65 10.5 31.75 10.2 M31.8 11.55 Q31.9 12.1 32.35 12.35 32.8 12.6 33.3 12.35 L34.1 11.55 34.15 10.4 34.1 10.1 33.85 9.8 33.6 9.6 32.65 9.5 Q32.15 9.75 31.9 10.3 L31.75 10.85 Q31.7 11.15 31.8 11.45 L31.8 11.55" fill="#cc6b22" fill-rule="evenodd" stroke="none"/>
      <path d="M36.25 12.1 L36.4 11.6 37.05 10.85 38.0 10.95 38.25 11.1 38.15 12.0 37.55 12.55 Q37.05 12.75 36.65 12.55 L36.4 12.35 36.25 12.1 M33.85 9.8 L33.9 10.7 33.15 11.35 Q32.65 11.6 32.2 11.35 L31.95 11.2 31.75 10.85 31.9 10.3 Q32.15 9.75 32.65 9.5 L33.6 9.6 33.85 9.8" fill="#ffde4f" fill-rule="evenodd" stroke="none"/>
      <path d="M38.25 11.1 L38.4 11.35 38.5 11.7 Q38.65 12.25 38.4 12.75 L37.7 13.55 Q37.2 13.75 36.8 13.55 36.4 13.3 36.25 12.7 L36.5 12.9 Q36.9 13.1 37.4 12.9 37.9 12.7 38.1 12.1 L38.15 12.0 38.25 11.1 M33.9 10.7 L33.85 9.8 34.1 10.1 34.15 10.4 34.1 11.55 33.3 12.35 Q32.8 12.6 32.35 12.35 31.9 12.1 31.8 11.55 L32.05 11.7 Q32.5 11.95 33.0 11.7 L33.8 10.9 33.9 10.7" fill="#f4a33c" fill-rule="evenodd" stroke="none"/>
      <path d="M36.25 12.7 L36.25 12.1 36.4 12.35 36.65 12.55 Q37.05 12.75 37.55 12.55 L38.15 12.0 38.1 12.1 Q37.9 12.7 37.4 12.9 36.9 13.1 36.5 12.9 L36.25 12.7 M33.9 10.7 L33.8 10.9 33.0 11.7 Q32.5 11.95 32.05 11.7 L31.8 11.55 31.8 11.45 Q31.7 11.15 31.75 10.85 L31.95 11.2 32.2 11.35 Q32.65 11.6 33.15 11.35 L33.9 10.7" fill="#ffff98" fill-rule="evenodd" stroke="none"/>
      <path d="M20.7 23.85 L21.75 23.4 21.95 23.35 22.65 23.2 23.25 23.1 26.15 22.9 26.9 22.95 27.9 23.15 28.95 23.4 29.8 23.75 30.25 23.9 30.3 23.9 30.45 24.0 31.15 24.4 31.3 24.55 Q33.35 27.1 32.75 28.65 32.45 29.35 31.55 29.85 L30.1 29.8 28.8 29.75 28.95 27.1 Q28.45 24.8 27.7 24.6 27.3 24.5 26.8 24.9 27.3 24.5 27.7 24.6 28.25 25.0 28.1 27.1 L28.1 27.2 27.6 29.45 27.25 30.1 26.95 30.35 Q26.5 30.85 26.2 31.6 L25.85 32.65 25.8 32.9 25.75 33.05 Q25.5 34.3 26.35 34.95 L26.4 35.0 26.1 35.05 Q24.6 35.4 24.0 34.45 23.6 34.0 23.9 32.1 L25.1 32.05 25.6 31.65 25.95 31.2 26.7 29.6 27.1 28.35 27.45 26.85 27.45 26.8 27.5 26.7 27.5 26.65 Q27.7 25.4 27.25 25.45 26.85 25.2 25.95 26.15 L26.35 25.35 26.8 24.9 26.75 24.8 26.55 24.6 25.4 25.7 25.3 25.85 25.05 26.25 24.4 27.45 24.2 27.9 23.35 30.3 22.9 31.85 22.7 32.25 Q22.1 33.15 21.55 32.6 L20.65 31.8 20.9 31.05 20.95 31.05 20.95 31.0 21.15 30.5 Q21.8 31.55 22.3 31.3 22.8 31.05 23.2 29.6 L23.95 27.45 24.25 26.75 24.45 26.35 24.6 26.05 24.65 25.95 24.75 25.85 24.75 25.8 24.85 25.7 24.85 25.65 25.0 25.5 25.3 25.15 24.45 25.0 25.2 24.55 25.35 24.5 Q25.5 23.55 23.4 23.6 L21.95 23.7 20.7 23.85 M34.15 25.65 L34.9 25.8 35.55 26.35 36.55 27.45 36.9 27.85 36.95 27.95 37.55 28.75 36.65 30.5 36.0 30.4 36.65 29.6 36.75 29.4 36.5 28.2 Q36.25 27.1 34.15 25.65 M25.35 24.5 L26.55 24.6 25.35 24.5 M21.35 29.35 Q20.7 31.15 19.8 31.45 16.0 31.6 12.65 30.2 12.35 29.8 12.45 29.6 L12.5 29.55 12.85 29.05 13.0 28.9 Q12.9 29.35 13.75 29.65 L19.2 30.6 Q20.55 30.9 21.35 29.35" fill="#f4a33c" fill-rule="evenodd" stroke="none"/>
      <path d="M16.25 27.5 L17.75 25.5 19.4 24.1 19.55 24.0 20.15 23.65 Q20.5 23.45 20.85 23.35 L21.3 23.2 21.35 23.15 Q28.1 21.1 34.9 25.8 L34.15 25.65 34.05 25.6 33.65 25.4 32.7 24.9 30.45 23.95 30.3 23.9 30.25 23.9 29.8 23.75 28.95 23.4 27.9 23.15 26.9 22.95 26.15 22.9 23.25 23.1 22.65 23.2 21.95 23.35 21.75 23.4 20.7 23.85 19.7 24.45 Q18.75 25.2 18.2 26.1 17.4 26.85 17.5 27.6 L16.25 27.5 17.5 27.6 19.45 28.0 21.15 28.55 21.3 28.6 21.6 28.75 21.5 29.05 19.65 28.35 14.35 27.7 Q12.35 28.3 11.15 31.85 11.7 28.15 14.4 27.4 L16.25 27.5 M36.65 30.5 Q37.6 30.7 38.1 31.8 L38.25 32.25 38.35 32.5 Q38.6 33.35 38.45 34.3 L38.25 35.2 38.2 35.3 38.2 33.6 Q38.05 32.1 37.55 31.5 L36.9 31.0 27.5 29.9 27.9 29.75 28.8 29.75 30.1 29.8 31.55 29.85 Q32.45 29.35 32.75 28.65 33.35 27.1 31.3 24.55 33.6 26.55 33.1 28.95 L32.75 30.0 33.0 30.0 33.75 30.1 36.0 30.4 36.65 30.5 M32.75 30.0 L32.4 29.95 32.3 29.95 31.55 29.85 32.3 29.95 32.4 29.95 32.75 30.0 M21.65 29.25 L21.6 29.5 Q21.5 30.75 22.05 30.6 L22.25 30.5 Q22.85 30.15 23.15 28.85 L23.85 27.25 24.2 26.65 24.3 26.45 24.6 26.05 24.45 26.35 24.25 26.75 23.95 27.45 23.2 29.6 Q22.8 31.05 22.3 31.3 21.8 31.55 21.15 30.5 L21.6 29.4 21.65 29.25 M24.65 28.75 Q23.5 31.95 24.75 31.65 L25.45 31.25 25.75 30.85 26.4 29.7 27.45 26.8 27.45 26.85 27.1 28.35 26.7 29.6 25.95 31.2 25.6 31.65 25.1 32.05 23.9 32.1 Q23.65 31.85 23.75 31.2 24.05 30.1 24.65 28.75 M19.95 24.35 Q20.55 24.0 21.1 23.95 21.6 23.9 21.8 24.2 L21.65 24.95 20.75 25.75 Q20.5 25.9 20.3 26.0 L19.6 26.15 Q19.05 26.2 18.9 25.9 18.7 25.6 19.0 25.15 19.3 24.8 19.75 24.5 L19.95 24.35" fill="#ffff98" fill-rule="evenodd" stroke="none"/>
      <path d="M30.3 23.9 L30.45 23.95 32.7 24.9 33.65 25.4 34.05 25.6 34.15 25.65 Q36.25 27.1 36.5 28.2 L36.75 29.4 36.65 29.6 36.0 30.4 33.75 30.1 33.0 30.0 32.75 30.0 33.1 28.95 Q33.6 26.55 31.3 24.55 L31.15 24.4 30.45 24.0 30.3 23.9 M37.55 28.75 Q38.55 30.4 38.9 34.75 39.1 37.05 38.25 38.7 L37.6 38.75 38.35 35.9 Q37.9 36.45 37.5 36.35 L38.2 35.3 38.25 35.2 38.45 34.3 Q38.6 33.35 38.35 32.5 L38.25 32.25 38.1 31.8 Q37.6 30.7 36.65 30.5 L37.55 28.75 M14.2 33.8 L13.1 33.45 11.95 32.45 Q11.3 31.55 12.45 29.6 12.35 29.8 12.65 30.2 16.0 31.6 19.8 31.45 20.7 31.15 21.35 29.35 L21.4 29.2 21.5 29.1 21.5 29.05 21.6 28.75 21.8 28.9 21.65 29.25 21.6 29.4 21.15 30.5 20.95 31.0 20.9 31.0 20.9 31.05 20.65 31.8 21.55 32.6 Q22.1 33.15 22.7 32.25 L22.9 31.85 22.75 32.5 Q22.3 34.6 22.75 35.35 L22.5 35.4 22.15 35.5 Q21.25 35.9 20.5 34.7 L20.4 34.4 Q20.15 33.4 20.65 31.8 20.15 33.4 20.4 34.4 17.35 35.15 14.2 33.8 M26.95 30.35 Q26.75 31.25 27.95 31.3 L30.25 31.5 36.55 32.45 Q38.3 33.05 37.8 35.15 36.75 36.7 35.6 36.8 L27.0 34.9 Q25.95 34.45 25.8 32.9 L25.85 32.65 26.2 31.6 Q26.5 30.85 26.95 30.35 M26.4 35.0 L27.05 35.3 27.4 35.4 Q25.75 36.05 24.7 35.8 23.85 35.6 23.45 34.8 L23.3 34.5 23.25 33.8 Q23.25 32.7 23.75 31.2 23.65 31.85 23.9 32.1 23.6 34.0 24.0 34.45 24.6 35.4 26.1 35.05 L26.4 35.0 M27.7 24.6 Q28.45 24.8 28.95 27.1 L28.8 29.75 27.9 29.75 27.5 29.9 27.25 30.1 27.6 29.45 28.1 27.2 28.1 27.1 Q28.25 25.0 27.7 24.6" fill="#cc6b22" fill-rule="evenodd" stroke="none"/>
      <path d="M17.5 27.6 Q17.4 26.85 18.2 26.1 18.75 25.2 19.7 24.45 L20.7 23.85 21.95 23.7 23.4 23.6 Q25.5 23.55 25.35 24.5 L25.2 24.55 24.45 25.0 25.3 25.15 25.0 25.5 24.85 25.65 24.85 25.7 24.75 25.8 24.75 25.85 24.65 25.95 24.6 26.05 24.3 26.45 24.2 26.65 23.85 27.25 23.15 28.85 Q22.85 30.15 22.25 30.5 L22.05 30.6 Q21.5 30.75 21.6 29.5 L21.65 29.25 21.8 28.9 22.4 27.75 23.3 26.25 23.9 25.5 24.45 25.0 23.9 25.5 23.3 26.25 22.4 27.75 21.8 28.9 21.6 28.75 21.3 28.6 21.15 28.55 19.45 28.0 17.5 27.6 M13.1 33.45 L11.45 32.7 Q11.05 32.3 11.15 31.85 12.35 28.3 14.35 27.7 L19.65 28.35 21.5 29.05 21.5 29.1 21.4 29.2 21.35 29.35 Q20.55 30.9 19.2 30.6 L13.75 29.65 Q12.9 29.35 13.0 28.9 L12.85 29.05 12.5 29.55 12.45 29.6 Q11.3 31.55 11.95 32.45 L13.1 33.45 M38.2 35.3 L37.5 36.35 Q36.7 37.1 35.4 37.3 L27.4 35.4 27.05 35.3 26.4 35.0 26.35 34.95 Q25.5 34.3 25.75 33.05 L25.8 32.9 Q25.95 34.45 27.0 34.9 L35.6 36.8 Q36.75 36.7 37.8 35.15 38.3 33.05 36.55 32.45 L30.25 31.5 27.95 31.3 Q26.75 31.25 26.95 30.35 L27.25 30.1 27.5 29.9 36.9 31.0 37.55 31.5 Q38.05 32.1 38.2 33.6 L38.2 35.3 M20.95 31.0 L20.95 31.05 20.9 31.0 20.95 31.0 M24.75 28.55 L25.9 26.2 25.95 26.15 Q26.85 25.2 27.25 25.45 27.7 25.4 27.5 26.65 L27.5 26.7 27.45 26.8 26.4 29.7 25.75 30.85 25.45 31.25 24.75 31.65 Q23.5 31.95 24.65 28.75 L24.7 28.65 24.75 28.6 24.75 28.55 M19.95 24.35 L19.75 24.5 Q19.3 24.8 19.0 25.15 18.7 25.6 18.9 25.9 19.05 26.2 19.6 26.15 L20.3 26.0 Q20.5 25.9 20.75 25.75 L21.65 24.95 21.8 24.2 Q21.6 23.9 21.1 23.95 20.55 24.0 19.95 24.35 M20.1 29.25 L20.1 29.3 20.15 29.3 20.1 29.25" fill="#ffde4f" fill-rule="evenodd" stroke="none"/>
      <path d="M37.6 38.75 L22.05 40.1 21.95 40.1 14.2 33.8 Q17.35 35.15 20.4 34.4 L20.5 34.7 Q21.25 35.9 22.15 35.5 L22.5 35.4 22.75 35.35 Q22.3 34.6 22.75 32.5 L22.9 31.85 23.35 30.3 24.2 27.9 24.4 27.45 25.05 26.25 25.3 25.85 25.4 25.7 26.55 24.6 26.75 24.8 26.8 24.9 26.35 25.35 25.95 26.15 25.9 26.2 24.75 28.55 24.75 28.6 24.7 28.65 24.65 28.75 Q24.05 30.1 23.75 31.2 23.25 32.7 23.25 33.8 L23.3 34.5 23.45 34.8 Q23.85 35.6 24.7 35.8 25.75 36.05 27.4 35.4 L35.4 37.3 Q36.7 37.1 37.5 36.35 37.9 36.45 38.35 35.9 L37.6 38.75 M23.45 34.8 L22.75 35.35 23.45 34.8" fill="#a34100" fill-rule="evenodd" stroke="none"/>
      <path d="M34.9 25.8 Q28.1 21.1 21.35 23.15 L21.3 23.2 20.85 23.35 Q20.5 23.45 20.15 23.65 L19.55 24.0 19.4 24.1 17.75 25.5 16.25 27.5 17.5 27.6 19.45 28.0 21.15 28.55 21.3 28.6 21.6 28.75 21.8 28.9 21.65 29.25 21.6 29.4 21.15 30.5 20.95 31.0 20.95 31.05 20.9 31.0 20.9 31.05 20.65 31.8 Q20.15 33.4 20.4 34.4 17.35 35.15 14.2 33.8 L13.1 33.45 11.45 32.7 Q11.05 32.3 11.15 31.85 11.7 28.15 14.4 27.4 L16.25 27.5 M34.9 25.8 L35.55 26.35 36.55 27.45 36.9 27.85 36.95 27.95 37.55 28.75 Q38.55 30.4 38.9 34.75 39.1 37.05 38.25 38.7 L37.6 38.75 22.05 40.1 M21.95 40.1 L14.2 33.8 M36.65 30.5 Q37.6 30.7 38.1 31.8 L38.25 32.25 38.35 32.5 Q38.6 33.35 38.45 34.3 L38.25 35.2 38.2 35.3 37.5 36.35 Q36.7 37.1 35.4 37.3 L27.4 35.4 27.05 35.3 26.4 35.0 26.35 34.95 Q25.5 34.3 25.75 33.05 L25.8 32.9 25.85 32.65 26.2 31.6 Q26.5 30.85 26.95 30.35 L27.25 30.1 27.5 29.9 27.9 29.75 28.8 29.75 30.1 29.8 31.55 29.85 32.3 29.95 32.4 29.95 32.75 30.0 33.0 30.0 33.75 30.1 36.0 30.4 36.65 30.5 M26.55 24.6 L26.75 24.8 26.8 24.9 Q27.3 24.5 27.7 24.6 28.45 24.8 28.95 27.1 L28.8 29.75 M24.45 25.0 L25.2 24.55 25.35 24.5 26.55 24.6 M24.45 25.0 L23.9 25.5 23.3 26.25 22.4 27.75 21.8 28.9 M25.95 26.15 L26.35 25.35 26.8 24.9 M25.95 26.15 L25.9 26.2 24.75 28.55 M24.75 28.6 L24.7 28.65 24.65 28.75 Q24.05 30.1 23.75 31.2 23.25 32.7 23.25 33.8 L23.3 34.5 23.45 34.8 Q23.85 35.6 24.7 35.8 25.75 36.05 27.4 35.4 M22.75 35.35 L23.45 34.8 M20.4 34.4 L20.5 34.7 Q21.25 35.9 22.15 35.5 L22.5 35.4 22.75 35.35" fill="none" stroke="#000000" stroke-linecap="round" stroke-linejoin="round" stroke-opacity="0.3019608" stroke-width="0.30000000000000004"/>
      <path d="M22.05 40.1 L21.95 40.1" fill="none" stroke="#ff0000" stroke-linecap="round" stroke-linejoin="round" stroke-width="0.05"/>
      <path d="M14.25 37.05 Q16.95 38.35 18.6 36.8 L18.65 36.7 Q20.5 34.65 18.7 31.25 L19.1 31.6 Q21.45 34.6 21.25 36.85 20.75 40.0 17.45 38.85 L14.25 37.05 M10.75 32.95 Q7.5 30.25 8.75 28.85 L8.85 28.75 Q10.05 27.6 11.8 27.65 L12.3 27.7 Q13.55 27.9 14.8 28.45 9.9 27.5 9.4 29.6 9.0 31.05 10.75 32.95 M33.95 43.15 Q37.8 43.55 38.05 40.85 38.2 38.7 36.55 36.35 37.3 36.65 37.9 37.15 40.05 40.4 39.5 43.2 39.0 44.85 37.3 44.5 35.85 43.75 33.95 43.15" fill="#cc6b22" fill-rule="evenodd" stroke="none"/>
      <path d="M7.2 29.2 L7.55 29.3 Q7.75 29.55 7.6 30.0 L7.1 30.85 6.4 31.35 6.3 31.35 5.75 31.3 Q5.55 31.05 5.7 30.6 5.8 30.15 6.2 29.75 6.6 29.35 7.0 29.25 L7.2 29.2 M13.8 36.85 L13.85 36.85 14.25 37.05 17.45 38.85 Q20.75 40.0 21.25 36.85 21.45 34.6 19.1 31.6 L18.7 31.25 16.25 29.3 14.8 28.45 Q13.55 27.9 12.3 27.7 L11.8 27.65 10.7 27.65 9.35 27.85 8.75 28.05 Q5.5 29.2 4.5 32.3 4.25 33.15 5.0 33.75 L7.1 34.15 Q10.5 35.2 13.8 36.85 M16.35 39.05 Q12.5 37.15 9.05 35.7 6.75 34.75 5.4 34.65 3.75 34.5 3.5 35.55 L3.45 35.95 3.45 34.7 Q3.7 29.95 7.9 27.7 13.65 25.55 19.35 31.15 21.75 33.5 22.55 36.65 21.05 38.2 20.05 40.9 21.05 38.2 22.55 36.65 27.9 32.9 36.25 35.6 38.95 36.2 40.3 39.7 41.6 43.05 38.8 47.85 L38.9 47.5 Q39.15 46.65 38.2 45.85 L37.7 45.5 37.2 45.25 Q36.05 44.65 34.15 44.15 28.8 42.7 20.05 40.9 L16.35 39.05 M30.75 35.2 L26.85 35.3 Q22.3 36.35 21.6 39.05 21.2 40.55 23.45 41.1 L29.1 42.05 33.95 43.15 Q35.85 43.75 37.3 44.5 L38.45 45.3 Q39.2 46.05 39.45 45.55 40.2 43.8 40.2 42.3 40.0 38.85 37.9 37.15 37.3 36.65 36.55 36.35 L35.4 35.95 32.85 35.4 30.75 35.2 M28.9 36.15 Q28.9 35.8 29.3 35.55 L30.25 35.35 31.2 35.65 31.55 36.25 Q31.55 36.6 31.15 36.8 L30.2 37.0 29.25 36.75 Q28.85 36.5 28.9 36.15" fill="#ffff98" fill-rule="evenodd" stroke="none"/>
      <path d="M6.4 31.35 Q6.55 32.6 8.4 33.65 L13.8 36.85 Q10.5 35.2 7.1 34.15 L5.0 33.75 Q4.25 33.15 4.5 32.3 5.5 29.2 8.75 28.05 L7.2 29.2 7.0 29.25 Q6.6 29.35 6.2 29.75 5.8 30.15 5.7 30.6 5.55 31.05 5.75 31.3 L6.3 31.35 6.4 31.35 M16.25 29.3 Q18.6 31.35 18.85 33.35 19.0 36.25 16.85 36.1 13.4 35.3 11.1 33.25 L10.75 32.95 Q9.0 31.05 9.4 29.6 9.9 27.5 14.8 28.45 L16.25 29.3 M32.85 35.4 Q35.3 35.9 36.1 37.35 37.5 40.55 33.4 40.85 27.75 40.95 26.35 38.65 25.4 36.8 27.55 35.75 28.55 35.3 30.75 35.2 L32.85 35.4 M37.9 37.15 Q40.0 38.85 40.2 42.3 40.2 43.8 39.45 45.55 39.2 46.05 38.45 45.3 L37.3 44.5 Q39.0 44.85 39.5 43.2 40.05 40.4 37.9 37.15 M28.9 36.15 Q28.85 36.5 29.25 36.75 L30.2 37.0 31.15 36.8 Q31.55 36.6 31.55 36.25 L31.2 35.65 30.25 35.35 29.3 35.55 Q28.9 35.8 28.9 36.15" fill="#ffde4f" fill-rule="evenodd" stroke="none"/>
      <path d="M6.4 31.35 L7.1 30.85 7.6 30.0 Q7.75 29.55 7.55 29.3 L7.2 29.2 8.75 28.05 9.35 27.85 10.7 27.65 11.8 27.65 Q10.05 27.6 8.85 28.75 L8.75 28.85 Q7.5 30.25 10.75 32.95 L11.1 33.25 Q13.4 35.3 16.85 36.1 19.0 36.25 18.85 33.35 18.6 31.35 16.25 29.3 L18.7 31.25 Q20.5 34.65 18.65 36.7 L18.6 36.8 Q16.95 38.35 14.25 37.05 L13.85 36.85 13.8 36.85 8.4 33.65 Q6.55 32.6 6.4 31.35 M5.4 34.65 Q3.8 35.3 4.45 36.85 L4.65 37.25 Q5.3 38.55 8.55 40.5 L11.55 42.1 Q15.25 43.9 20.0 45.5 26.85 47.85 32.1 48.4 34.8 48.7 36.25 48.45 L36.55 48.4 36.55 48.45 Q37.85 48.3 38.5 47.7 39.1 47.05 38.2 45.85 39.15 46.65 38.9 47.5 L38.8 47.85 38.7 48.0 38.6 48.15 38.55 48.2 38.2 48.45 Q36.75 49.3 32.85 49.05 27.35 48.65 20.0 46.2 12.65 43.75 7.8 40.6 3.75 38.0 3.45 36.25 L3.45 36.15 3.45 35.95 3.5 35.55 Q3.75 34.5 5.4 34.65 M33.95 43.15 L29.1 42.05 23.45 41.1 Q21.2 40.55 21.6 39.05 22.3 36.35 26.85 35.3 L30.75 35.2 Q28.55 35.3 27.55 35.75 25.4 36.8 26.35 38.65 27.75 40.95 33.4 40.85 37.5 40.55 36.1 37.35 35.3 35.9 32.85 35.4 L35.4 35.95 36.55 36.35 Q38.2 38.7 38.05 40.85 37.8 43.55 33.95 43.15" fill="#f4a33c" fill-rule="evenodd" stroke="none"/>
      <path d="M11.55 42.1 L8.55 40.5 Q5.3 38.55 4.65 37.25 L4.45 36.85 Q3.8 35.3 5.4 34.65 6.75 34.75 9.05 35.7 12.5 37.15 16.35 39.05 L16.95 39.85 Q18.75 43.1 17.6 43.5 15.6 43.7 11.55 42.1" fill="#a34100" fill-rule="evenodd" stroke="none"/>
      <path d="M11.55 42.1 Q15.6 43.7 17.6 43.5 18.75 43.1 16.95 39.85 L16.35 39.05 20.05 40.9 Q28.8 42.7 34.15 44.15 36.05 44.65 37.2 45.25 L37.7 45.5 38.2 45.85 Q39.1 47.05 38.5 47.7 37.85 48.3 36.55 48.45 L36.55 48.4 36.25 48.45 Q34.8 48.7 32.1 48.4 26.85 47.85 20.0 45.5 15.25 43.9 11.55 42.1" fill="#8f3600" fill-rule="evenodd" stroke="none"/>
      <path d="M3.45 35.95 L3.45 36.15 3.45 36.25 Q3.75 38.0 7.8 40.6 12.65 43.75 20.0 46.2 27.35 48.65 32.85 49.05 36.75 49.3 38.2 48.45 L38.55 48.2 38.6 48.15 38.7 48.0 38.8 47.85 Q41.6 43.05 40.3 39.7 38.95 36.2 36.25 35.6 27.9 32.9 22.55 36.65 21.75 33.5 19.35 31.15 13.65 25.55 7.9 27.7 3.7 29.95 3.45 34.7 L3.45 35.95 M20.05 40.9 Q21.05 38.2 22.55 36.65" fill="none" stroke="#000000" stroke-linecap="round" stroke-linejoin="round" stroke-opacity="0.3019608" stroke-width="0.30000000000000004"/>
      <path d="M34.25 18.0 Q32.65 22.1 28.5 22.65 24.4 23.1 21.55 20.75 20.3 19.7 20.05 18.45 22.0 20.6 24.35 21.35 L24.8 21.45 Q29.7 22.4 31.45 17.75 L31.7 16.65 31.85 15.9 32.25 12.85 Q32.85 9.5 33.65 11.7 L34.25 18.0 M23.4 10.0 Q26.6 5.2 31.25 2.65 L31.35 2.95 31.7 5.45 Q31.35 3.65 30.25 4.05 26.95 5.8 23.4 10.0" fill="#f4a33c" fill-rule="evenodd" stroke="none"/>
      <path d="M31.85 15.9 L31.7 16.65 31.45 17.75 Q29.7 22.4 24.8 21.45 20.5 19.8 20.2 16.45 L20.4 15.6 Q21.7 12.5 23.4 10.0 26.95 5.8 30.25 4.05 31.35 3.65 31.7 5.45 L31.8 6.6 Q32.05 10.7 31.85 15.9 M34.25 15.55 L34.25 13.8 Q35.75 14.75 36.1 16.45 34.8 14.1 34.25 17.95 L34.25 15.55" fill="#ffde4f" fill-rule="evenodd" stroke="none"/>
      <path d="M20.05 18.45 Q20.25 21.0 22.75 21.95 26.35 23.3 30.5 23.3 31.9 23.3 33.5 22.45 L33.45 22.7 33.35 23.0 Q32.8 24.4 30.5 24.45 L24.7 23.65 Q16.85 22.0 20.15 13.65 24.45 4.05 31.65 1.8 32.9 3.7 33.65 8.65 L34.0 11.1 34.15 12.2 34.25 13.8 34.15 12.2 Q35.65 14.0 36.1 16.45 35.75 14.75 34.25 13.8 L34.25 15.55 34.25 17.95 34.25 18.2 34.25 18.5 34.25 18.0 33.65 11.7 32.25 4.85 Q32.6 8.9 32.25 12.85 L31.85 15.9 Q32.05 10.7 31.8 6.6 L31.7 5.45 31.35 2.95 31.25 2.65 Q26.6 5.2 23.4 10.0 21.7 12.5 20.4 15.6 L20.2 16.45 Q20.5 19.8 24.8 21.45 L24.35 21.35 Q22.0 20.6 20.05 18.45" fill="#ffff98" fill-rule="evenodd" stroke="none"/>
      <path d="M20.05 18.45 Q20.3 19.7 21.55 20.75 24.4 23.1 28.5 22.65 32.65 22.1 34.25 18.0 L34.25 18.5 34.25 18.2 Q35.15 22.9 37.8 22.8 L33.45 22.7 33.5 22.45 Q31.9 23.3 30.5 23.3 26.35 23.3 22.75 21.95 20.25 21.0 20.05 18.45 M33.65 11.7 Q32.85 9.5 32.25 12.85 32.6 8.9 32.25 4.85 L33.65 11.7" fill="#cc6b22" fill-rule="evenodd" stroke="none"/>
      <path d="M34.15 12.2 L34.0 11.1 33.65 8.65 Q32.9 3.7 31.65 1.8 24.45 4.05 20.15 13.65 16.85 22.0 24.7 23.65 L30.5 24.45 Q32.8 24.4 33.35 23.0 M34.25 15.55 L34.25 13.8 34.15 12.2 Q35.65 14.0 36.1 16.45" fill="none" stroke="#000000" stroke-linecap="round" stroke-linejoin="round" stroke-opacity="0.3019608" stroke-width="0.30000000000000004"/>
    </g>
    <g id="sprite0" transform="matrix(1.0, 0.0, 0.0, 1.0, 0.0, 0.0)">
      <use height="26.7" transform="matrix(0.0042, -1.3515, 1.3935, 0.02, 22.09, 56.0263)" width="26.7" xlink:href="#sprite1"/>
      <use height="26.7" transform="matrix(0.0095, -3.0486, 0.372, 0.0053, 36.507, 81.3775)" width="26.7" xlink:href="#sprite1"/>
      <use height="26.7" transform="matrix(3.0486, 0.0095, -0.0053, 0.372, 0.1225, 35.107)" width="26.7" xlink:href="#sprite1"/>
    </g>
    <g id="sprite1" transform="matrix(1.0, 0.0, 0.0, 1.0, 13.35, 13.35)">
      <use height="26.7" transform="matrix(1.0, 0.0, 0.0, 1.0, -13.35, -13.35)" width="26.7" xlink:href="#shape1"/>
    </g>
    <g id="shape1" transform="matrix(1.0, 0.0, 0.0, 1.0, 13.35, 13.35)">
      <path d="M9.3 -9.85 Q13.35 -5.8 13.35 0.0 13.35 5.8 9.3 9.3 5.8 13.35 0.0 13.35 -5.8 13.35 -9.85 9.3 -13.35 5.8 -13.35 0.0 -13.35 -5.8 -9.85 -9.85 -5.8 -13.35 0.0 -13.35 5.8 -13.35 9.3 -9.85" fill="url(#gradient0)" fill-rule="evenodd" stroke="none"/>
    </g>
    <radialGradient cx="0" cy="0" gradientTransform="matrix(0.0213, 0.0, 0.0, 0.0213, 0.0, 0.0)" gradientUnits="userSpaceOnUse" id="gradient0" r="819.2" spreadMethod="pad">
      <stop offset="0.19607843137254902" stop-color="#fee3bc" stop-opacity="0.25882354"/>
      <stop offset="0.5019607843137255" stop-color="#fee3bc" stop-opacity="0.039215688"/>
      <stop offset="0.7607843137254902" stop-color="#ffe3bd" stop-opacity="0.0"/>
    </radialGradient>
  </defs>
</svg>
