<?xml version="1.0" encoding="UTF-8" standalone="no"?>
<svg xmlns:xlink="http://www.w3.org/1999/xlink" height="52.0px" width="52.0px" xmlns="http://www.w3.org/2000/svg">
  <g transform="matrix(1.0, 0.0, 0.0, 1.0, 0.0, 0.0)">
    <use height="54.0" transform="matrix(1.0, 0.0, 0.0, 1.0, -1.0, -1.0)" width="54.0" xlink:href="#shape0"/>
    <use height="0.0" transform="matrix(0.0923, 0.0402, -0.0277, 0.0501, 34.0, 10.55)" width="0.0" xlink:href="#sprite0"/>
    <use height="0.0" transform="matrix(0.0791, 0.0345, -0.0842, 0.1878, 27.2, 29.45)" width="0.0" xlink:href="#sprite0"/>
    <use height="0.0" transform="matrix(0.0222, 0.0097, -0.0398, 0.0549, 27.5, 15.5)" width="0.0" xlink:href="#sprite0"/>
    <use height="0.0" transform="matrix(0.0853, 0.0371, -0.0249, 0.0345, 19.7, 31.45)" width="0.0" xlink:href="#sprite0"/>
    <use height="81.5" transform="matrix(0.1437, 0.0255, -0.0255, 0.1437, 22.0, 25.4)" width="81.5" xlink:href="#sprite1"/>
    <use height="81.5" transform="matrix(0.1437, 0.0255, -0.0255, 0.1437, 31.0, 5.65)" width="81.5" xlink:href="#sprite1"/>
  </g>
  <defs>
    <g id="shape0" transform="matrix(1.0, 0.0, 0.0, 1.0, 1.0, 1.0)">
      <path d="M52.0 0.0 L52.0 52.0 0.0 52.0 0.0 0.0 52.0 0.0" fill="#795fa9" fill-opacity="0.0" fill-rule="evenodd" stroke="none"/>
      <path d="M29.6 4.7 L25.95 7.3 24.35 9.95 24.45 11.9 23.75 14.0 22.1 15.9 21.9 15.2 20.75 14.3 18.45 15.05 16.35 17.85 16.65 20.4 17.15 21.0 15.9 22.2 12.1 27.45 11.85 28.9 13.35 30.2 14.75 30.95 12.6 33.4 9.3 39.75 11.1 42.45 Q12.4 43.35 14.0 44.25 L16.3 42.25 16.8 41.35 17.3 41.5 15.65 43.35 15.4 44.2 15.25 44.95 16.75 45.7 17.5 45.5 17.4 46.0 21.55 47.85 24.65 47.6 26.35 46.05 29.05 41.55 32.75 32.6 33.0 30.75 33.75 31.4 36.25 30.55 37.75 28.45 38.3 25.6 38.0 24.95 37.45 24.05 36.65 23.9 37.45 22.8 38.45 22.95 41.4 19.7 42.65 16.95 42.7 12.05 42.1 10.6 40.1 8.45 37.7 6.8 31.6 5.05 29.6 4.7 M20.1 18.2 L19.4 18.9 19.05 18.8 19.25 18.15 19.9 18.05 20.1 18.2 M35.25 27.2 L35.2 27.45 34.2 27.75 34.0 27.5 34.6 26.7 35.25 27.2" fill="none" stroke="#000000" stroke-linecap="round" stroke-linejoin="round" stroke-opacity="0.3019608" stroke-width="1.0"/>
      <path d="M18.45 15.05 L19.3 15.95 16.9 18.0 16.95 19.75 17.7 20.6 16.65 20.4 16.35 17.85 18.45 15.05 M19.3 15.95 L16.35 17.85 19.3 15.95" fill="#ffff98" fill-rule="evenodd" stroke="none"/>
      <path d="M18.45 15.05 L20.75 14.3 21.9 15.2 19.3 15.95 21.9 15.2 22.5 17.45 18.95 20.8 17.7 20.6 16.95 19.75 16.9 18.0 19.3 15.95 18.45 15.05 M20.45 18.55 L21.0 18.15 20.7 17.35 20.05 17.25 18.65 18.3 18.55 18.75 19.05 18.8 19.9 19.0 20.45 18.55" fill="#ffde4f" fill-rule="evenodd" stroke="none"/>
      <path d="M20.05 17.25 L19.9 18.05 19.25 18.15 18.65 18.3 20.05 17.25" fill="#f4a33c" fill-rule="evenodd" stroke="none"/>
      <path d="M18.95 20.8 L17.65 21.65 16.65 20.4 17.7 20.6 18.95 20.8 M20.45 18.55 L19.9 18.05 20.05 17.25 20.7 17.35 21.0 18.15 20.45 18.55 M19.25 18.15 L19.05 18.8 18.55 18.75 18.65 18.3 19.25 18.15" fill="#a34100" fill-rule="evenodd" stroke="none"/>
      <path d="M21.9 15.2 L20.75 14.3 18.45 15.05 19.3 15.95 21.9 15.2 22.5 17.45 18.95 20.8 17.65 21.65 16.65 20.4 16.35 17.85 18.45 15.05 M19.9 18.05 L20.45 18.55 21.0 18.15 20.7 17.35 20.05 17.25 19.9 18.05 19.25 18.15 19.05 18.8 19.9 19.0 20.45 18.55 M18.65 18.3 L19.25 18.15 M19.05 18.8 L18.55 18.75 18.65 18.3 20.05 17.25 M17.7 20.6 L18.95 20.8 M16.35 17.85 L19.3 15.95 M16.65 20.4 L17.7 20.6" fill="none" stroke="#000000" stroke-linecap="round" stroke-linejoin="round" stroke-opacity="0.3019608" stroke-width="0.30000000000000004"/>
      <path d="M9.3 39.75 L12.65 33.4 10.8 39.0 9.3 39.75 M14.25 24.5 L15.9 22.25 16.9 25.45 17.9 28.65 12.95 27.7 14.25 24.5 M19.5 18.8 L19.8 18.55 23.7 14.0 24.3 15.4 20.6 18.3 17.1 24.95 19.5 18.8 M25.95 7.3 L29.6 4.7 31.6 5.05 29.95 6.0 26.2 9.2 28.7 9.15 35.15 12.0 37.25 10.6 35.7 12.25 35.95 12.7 29.0 9.55 25.15 9.4 28.9 6.65 25.95 7.3 M31.55 13.65 L30.65 16.1 28.55 18.75 30.05 15.85 31.55 13.65 M29.95 6.0 L28.9 6.65 29.95 6.0 M24.1 17.05 L23.4 18.2 27.3 20.85 28.4 22.85 27.25 21.45 23.15 18.2 22.05 18.5 21.55 19.3 21.7 18.45 24.1 17.05 M23.4 37.05 L19.95 41.75 16.95 40.65 10.8 39.0 13.7 38.1 15.9 39.85 18.7 41.05 19.9 40.85 23.4 37.05" fill="#ffff98" fill-rule="evenodd" stroke="none"/>
      <path d="M31.6 5.05 L37.65 6.8 38.0 9.3 37.65 10.2 38.0 9.3 40.15 8.4 42.1 10.6 40.0 15.7 38.4 16.75 37.15 15.0 37.65 10.2 37.25 10.6 35.15 12.0 28.7 9.15 26.2 9.2 29.95 6.0 31.6 5.05 M12.65 33.4 L14.1 31.7 14.95 33.9 13.7 38.1 10.8 39.0 12.65 33.4 M11.8 28.95 L12.1 27.45 14.25 24.5 12.95 27.7 11.8 28.95 M28.1 12.7 L28.85 11.55 29.15 11.1 29.95 10.85 27.6 16.65 27.35 13.85 28.1 12.7 M24.3 15.4 L24.85 16.75 25.6 16.5 27.3 20.85 23.4 18.2 24.1 17.05 21.7 18.45 21.55 19.3 21.35 20.3 21.6 20.4 25.5 25.85 26.5 30.5 26.15 32.4 24.95 32.2 19.75 29.75 17.9 28.65 16.9 25.45 17.1 24.95 20.6 18.3 24.3 15.4 M24.85 16.75 L24.1 17.05 24.85 16.75" fill="#ffde4f" fill-rule="evenodd" stroke="none"/>
      <path d="M37.65 6.8 L40.15 8.4 38.0 9.3 37.65 6.8 M42.1 10.6 L42.65 12.05 40.65 15.6 38.95 18.6 38.4 16.75 40.0 15.7 42.1 10.6 M15.9 22.25 L19.5 18.8 17.1 24.95 16.9 25.45 15.9 22.25 M23.7 14.0 L24.05 12.95 24.75 13.45 28.1 12.7 27.35 13.85 27.6 16.65 29.95 10.85 32.65 12.1 31.55 13.65 30.05 15.85 28.55 18.75 29.0 19.5 29.4 20.25 28.7 23.4 28.4 22.85 27.3 20.85 25.6 16.5 24.85 16.75 24.3 15.4 23.7 14.0 M24.35 9.95 L25.95 7.3 28.9 6.65 25.15 9.4 24.35 9.95 M37.25 10.6 L37.65 10.2 37.15 15.0 35.95 12.7 35.7 12.25 37.25 10.6 M40.0 15.7 L40.65 15.6 40.0 15.7 M33.25 22.45 L33.45 23.4 29.55 29.15 33.25 22.45 M28.85 30.15 L27.4 32.05 26.65 32.9 24.6 32.55 19.75 29.75 24.95 32.2 26.15 32.4 26.95 31.8 28.3 30.15 27.7 23.85 28.85 30.15 M27.35 13.85 L25.6 16.5 27.35 13.85 M27.6 16.65 L27.75 18.25 27.3 20.85 27.75 18.25 27.6 16.65 M23.8 36.5 L23.4 37.05 19.9 40.85 18.7 41.05 15.9 39.85 13.7 38.1 14.95 33.9 16.0 32.55 23.8 36.5" fill="#f4a33c" fill-rule="evenodd" stroke="none"/>
      <path d="M33.05 30.55 L32.8 32.6 29.05 41.55 26.3 46.05 28.05 42.15 24.1 42.95 27.0 41.85 28.95 40.85 32.45 32.45 32.55 31.3 33.05 30.55 M15.35 44.2 L15.65 43.35 16.95 41.9 15.8 43.8 17.2 44.5 16.9 44.8 15.35 44.2 M29.0 19.5 L31.6 15.3 31.9 16.6 33.25 22.45 29.55 29.15 28.85 30.15 27.7 23.85 28.7 23.4 29.5 21.95 29.4 20.25 29.0 19.5 M37.7 19.05 L37.9 20.05 35.9 21.6 37.7 19.05 M27.4 32.05 L27.7 35.85 26.85 36.5 25.35 33.2 24.6 32.55 26.65 32.9 27.4 32.05 M13.05 42.95 L14.35 42.9 13.85 43.4 13.05 42.95 M17.6 45.05 L17.65 44.8 18.15 45.05 20.45 46.25 17.6 45.05" fill="#cc6b22" fill-rule="evenodd" stroke="none"/>
      <path d="M42.65 12.05 L42.65 17.0 41.4 19.7 38.65 22.75 38.45 23.0 37.5 22.8 33.3 28.45 27.7 35.85 27.4 32.05 28.85 30.15 29.55 29.15 33.45 23.4 33.25 22.45 31.9 16.6 34.8 22.4 35.9 21.6 37.9 20.05 37.7 19.05 36.25 16.8 32.65 13.65 31.6 15.3 29.0 19.5 28.55 18.75 30.65 16.1 31.55 13.65 32.65 12.1 32.65 13.65 32.65 12.1 29.95 10.85 29.15 11.1 28.85 11.55 28.1 12.7 24.75 13.45 24.05 12.95 24.45 11.9 24.35 9.95 25.15 9.4 29.0 9.55 35.95 12.7 37.15 15.0 38.4 16.75 38.95 18.6 40.65 15.6 42.65 12.05 M24.65 47.6 L21.55 47.9 17.4 46.05 17.5 45.55 17.6 45.05 20.45 46.25 20.9 46.45 22.7 46.75 20.35 43.3 18.4 41.85 17.35 41.5 16.8 41.35 16.25 41.2 13.7 40.45 11.2 39.7 10.4 40.05 11.6 41.9 13.05 42.95 13.85 43.4 14.0 44.25 Q12.35 43.35 11.1 42.45 L9.3 39.75 10.8 39.0 16.95 40.65 19.95 41.75 23.4 37.05 23.8 36.5 26.6 37.9 29.4 36.3 32.55 31.3 32.45 32.45 28.95 40.85 27.0 41.85 24.1 42.95 21.4 43.05 19.95 41.75 21.4 43.05 24.65 47.6 M16.7 45.7 L15.2 44.9 15.35 44.2 16.9 44.8 16.7 45.7 M14.1 31.7 L14.6 31.15 16.0 32.55 14.95 33.9 14.1 31.7 M14.75 30.95 L13.35 30.25 11.8 28.95 12.95 27.7 17.9 28.65 19.75 29.75 24.6 32.55 25.35 33.2 26.85 36.5 25.4 36.25 24.4 35.75 16.55 31.8 14.75 30.95 M37.5 22.8 L37.95 20.15 37.9 20.05 37.95 20.15 37.5 22.8 M38.95 18.6 L38.65 22.75 38.95 18.6 M33.45 23.4 L34.8 22.4 33.45 23.4 M28.85 11.55 L26.35 11.0 24.7 11.5 24.45 11.9 24.7 11.5 26.35 11.0 28.85 11.55 M26.15 32.4 L26.5 30.5 25.5 25.85 21.6 20.4 23.7 21.4 27.7 23.85 28.3 30.15 26.95 31.8 26.15 32.4 M29.4 20.25 L29.5 21.95 28.7 23.4 29.4 20.25" fill="#a34100" fill-rule="evenodd" stroke="none"/>
      <path d="M26.3 46.05 L24.65 47.6 21.4 43.05 24.1 42.95 28.05 42.15 26.3 46.05 M31.6 15.3 L32.65 13.65 36.25 16.8 37.7 19.05 35.9 21.6 34.8 22.4 31.9 16.6 31.6 15.3 M21.55 19.3 L22.05 18.5 23.15 18.2 27.25 21.45 28.4 22.85 28.7 23.4 27.7 23.85 23.7 21.4 21.6 20.4 21.35 20.3 21.55 19.3" fill="#8f3600" fill-rule="evenodd" stroke="none"/>
      <path d="M33.3 28.45 L33.05 30.55 32.55 31.3 29.4 36.3 26.6 37.9 23.8 36.5 16.0 32.55 16.55 31.8 16.0 32.55 14.6 31.15 14.75 30.95 16.55 31.8 24.4 35.75 25.4 36.25 26.85 36.5 27.7 35.85 33.3 28.45 M23.8 36.5 L24.4 35.75 23.8 36.5 M13.7 40.45 L12.15 41.25 11.6 41.9 10.4 40.05 11.2 39.7 13.7 40.45 M20.45 46.25 L18.15 45.05 19.55 44.8 20.35 43.3 22.7 46.75 20.9 46.45 20.45 46.25" fill="#560000" fill-rule="evenodd" stroke="none"/>
      <path d="M16.95 41.9 L17.35 41.5 18.4 41.85 20.35 43.3 19.55 44.8 18.15 45.05 17.65 44.8 18.15 43.6 17.2 44.5 15.8 43.8 16.95 41.9 M16.25 41.2 L15.85 41.75 14.35 42.9 13.05 42.95 11.6 41.9 12.15 41.25 13.7 40.45 16.25 41.2" fill="#6c2206" fill-rule="evenodd" stroke="none"/>
      <path d="M17.5 45.55 L16.7 45.7 16.9 44.8 17.2 44.5 18.15 43.6 17.65 44.8 17.6 45.05 17.5 45.55 M16.8 41.35 L16.3 42.25 14.0 44.25 13.85 43.4 14.35 42.9 15.85 41.75 16.25 41.2 16.8 41.35" fill="#220000" fill-rule="evenodd" stroke="none"/>
      <path d="M31.6 5.05 L37.65 6.8 40.15 8.4 42.1 10.6 42.65 12.05 42.65 17.0 41.4 19.7 38.65 22.75 38.45 23.0 37.5 22.8 33.3 28.45 33.05 30.55 32.8 32.6 29.05 41.55 26.3 46.05 24.65 47.6 21.55 47.9 17.4 46.05 17.5 45.55 16.7 45.7 15.2 44.9 15.35 44.2 15.65 43.35 16.95 41.9 17.35 41.5 16.8 41.35 16.3 42.25 14.0 44.25 Q12.35 43.35 11.1 42.45 L9.3 39.75 12.65 33.4 14.1 31.7 14.6 31.15 14.75 30.95 13.35 30.25 11.8 28.95 12.1 27.45 14.25 24.5 15.9 22.25 19.5 18.8 19.8 18.55 23.7 14.0 24.05 12.95 24.45 11.9 24.35 9.95 25.95 7.3 29.6 4.7 31.6 5.05 29.95 6.0 28.9 6.65 25.15 9.4 24.35 9.95 M37.25 10.6 L37.65 10.2 38.0 9.3 37.65 6.8 M40.65 15.6 L40.0 15.7 38.4 16.75 38.95 18.6 40.65 15.6 42.65 12.05 M40.0 15.7 L42.1 10.6 M37.25 10.6 L35.7 12.25 35.95 12.7 37.15 15.0 37.65 10.2 M32.65 13.65 L32.65 12.1 31.55 13.65 30.65 16.1 28.55 18.75 29.0 19.5 31.6 15.3 32.65 13.65 36.25 16.8 37.7 19.05 37.9 20.05 37.95 20.15 37.5 22.8 M31.6 15.3 L31.9 16.6 34.8 22.4 35.9 21.6 37.7 19.05 M37.9 20.05 L35.9 21.6 M29.55 29.15 L33.45 23.4 33.25 22.45 31.9 16.6 M29.55 29.15 L28.85 30.15 27.4 32.05 26.65 32.9 24.6 32.55 19.75 29.75 17.9 28.65 12.95 27.7 11.8 28.95 M27.7 35.85 L33.3 28.45 M34.8 22.4 L33.45 23.4 M38.65 22.75 L38.95 18.6 M38.4 16.75 L37.15 15.0 M40.15 8.4 L38.0 9.3 M25.95 7.3 L28.9 6.65 M12.95 27.7 L14.25 24.5 M29.95 10.85 L29.15 11.1 28.85 11.55 28.1 12.7 27.35 13.85 25.6 16.5 24.85 16.75 24.3 15.4 23.7 14.0 M27.6 16.65 L29.95 10.85 32.65 12.1 M24.45 11.9 L24.7 11.5 26.35 11.0 28.85 11.55 M24.05 12.95 L24.75 13.45 28.1 12.7 M24.1 17.05 L21.7 18.45 21.55 19.3 21.35 20.3 21.6 20.4 23.7 21.4 27.7 23.85 28.7 23.4 28.4 22.85 27.3 20.85 27.75 18.25 27.6 16.65 M24.1 17.05 L24.85 16.75 M17.1 24.95 L16.9 25.45 17.9 28.65 M17.1 24.95 L19.5 18.8 M15.9 22.25 L16.9 25.45 M29.4 20.25 L29.0 19.5 M29.4 20.25 L29.5 21.95 28.7 23.4 29.4 20.25 M31.55 13.65 L30.05 15.85 28.55 18.75 M23.8 36.5 L23.4 37.05 19.95 41.75 21.4 43.05 24.1 42.95 28.05 42.15 26.3 46.05 M16.0 32.55 L14.95 33.9 13.7 38.1 10.8 39.0 16.95 40.65 19.95 41.75 M24.4 35.75 L23.8 36.5 M26.85 36.5 L25.4 36.25 24.4 35.75 16.55 31.8 16.0 32.55 M26.85 36.5 L27.7 35.85 M16.25 41.2 L16.8 41.35 M20.35 43.3 L18.4 41.85 17.35 41.5 M16.25 41.2 L13.7 40.45 11.2 39.7 10.4 40.05 M17.65 44.8 L17.6 45.05 17.5 45.55 M17.65 44.8 L18.15 43.6 17.2 44.5 16.9 44.8 16.7 45.7 M20.35 43.3 L22.7 46.75 20.9 46.45 20.45 46.25 M10.8 39.0 L9.3 39.75 M24.65 47.6 L21.4 43.05 M14.95 33.9 L14.1 31.7 M16.55 31.8 L14.75 30.95 M27.7 23.85 L28.85 30.15" fill="none" stroke="#000000" stroke-linecap="round" stroke-linejoin="round" stroke-opacity="0.3019608" stroke-width="0.30000000000000004"/>
      <path d="M38.05 26.1 L37.2 27.9 35.7 29.6 34.1 30.2 33.7 30.9 33.45 30.1 31.6 28.4 34.0 29.65 35.8 28.45 38.05 26.1" fill="#ffff98" fill-rule="evenodd" stroke="none"/>
      <path d="M35.9 23.8 L38.0 24.95 38.3 25.6 38.05 26.1 35.8 28.45 34.0 29.65 31.6 28.4 33.15 26.45 34.2 27.75 35.2 27.45 35.25 27.2 35.5 25.8 33.8 25.2 34.5 24.15 35.9 23.8" fill="#ffde4f" fill-rule="evenodd" stroke="none"/>
      <path d="M35.9 23.8 L37.45 24.05 38.0 24.95 35.9 23.8 M33.75 31.4 L31.7 29.6 31.6 28.4 33.45 30.1 33.7 30.9 33.75 31.4 M37.2 27.9 L36.25 30.55 35.7 29.6 37.2 27.9" fill="#f4a33c" fill-rule="evenodd" stroke="none"/>
      <path d="M38.3 25.6 L37.75 28.45 36.25 30.55 33.75 31.4 33.7 30.9 34.1 30.2 35.7 29.6 36.25 30.55 37.2 27.9 38.05 26.1 38.3 25.6 M35.25 27.2 L34.05 26.35 33.8 25.2 35.5 25.8 35.25 27.2" fill="#a34100" fill-rule="evenodd" stroke="none"/>
      <path d="M38.0 24.95 L37.45 24.05 35.9 23.8 38.0 24.95 38.3 25.6 37.75 28.45 36.25 30.55 33.75 31.4 31.7 29.6 31.6 28.4 33.15 26.45 34.2 27.75 35.2 27.45 35.25 27.2 34.05 26.35 33.8 25.2 34.5 24.15 35.9 23.8 M38.05 26.1 L37.2 27.9 36.25 30.55 35.7 29.6 34.1 30.2 33.7 30.9 33.75 31.4 M38.3 25.6 L38.05 26.1 M31.6 28.4 L33.45 30.1 33.7 30.9 M33.8 25.2 L35.5 25.8 35.25 27.2 M35.7 29.6 L37.2 27.9" fill="none" stroke="#000000" stroke-linecap="round" stroke-linejoin="round" stroke-opacity="0.3019608" stroke-width="0.30000000000000004"/>
    </g>
    <g id="sprite1" transform="matrix(1.0, 0.0, 0.0, 1.0, 0.0, 0.0)">
      <use height="26.7" transform="matrix(0.0042, -1.3515, 1.3935, 0.02, 22.09, 56.0263)" width="26.7" xlink:href="#sprite2"/>
      <use height="26.7" transform="matrix(0.0095, -3.0486, 0.372, 0.0053, 36.507, 81.3775)" width="26.7" xlink:href="#sprite2"/>
      <use height="26.7" transform="matrix(3.0486, 0.0095, -0.0053, 0.372, 0.1225, 35.107)" width="26.7" xlink:href="#sprite2"/>
    </g>
    <g id="sprite2" transform="matrix(1.0, 0.0, 0.0, 1.0, 13.35, 13.35)">
      <use height="26.7" transform="matrix(1.0, 0.0, 0.0, 1.0, -13.35, -13.35)" width="26.7" xlink:href="#shape1"/>
    </g>
    <g id="shape1" transform="matrix(1.0, 0.0, 0.0, 1.0, 13.35, 13.35)">
      <path d="M9.3 -9.85 Q13.35 -5.8 13.35 0.0 13.35 5.8 9.3 9.3 5.8 13.35 0.0 13.35 -5.8 13.35 -9.85 9.3 -13.35 5.8 -13.35 0.0 -13.35 -5.8 -9.85 -9.85 -5.8 -13.35 0.0 -13.35 5.8 -13.35 9.3 -9.85" fill="url(#gradient0)" fill-rule="evenodd" stroke="none"/>
    </g>
    <radialGradient cx="0" cy="0" gradientTransform="matrix(0.0213, 0.0, 0.0, 0.0213, 0.0, 0.0)" gradientUnits="userSpaceOnUse" id="gradient0" r="819.2" spreadMethod="pad">
      <stop offset="0.19607843137254902" stop-color="#fee3bc" stop-opacity="0.28627452"/>
      <stop offset="0.5019607843137255" stop-color="#fee3bc" stop-opacity="0.043137256"/>
      <stop offset="0.7607843137254902" stop-color="#ffe3bd" stop-opacity="0.0"/>
    </radialGradient>
  </defs>
</svg>
