<?xml version="1.0" encoding="UTF-8" standalone="no"?>
<svg xmlns:xlink="http://www.w3.org/1999/xlink" height="52.0px" width="52.0px" xmlns="http://www.w3.org/2000/svg">
  <g transform="matrix(1.0, 0.0, 0.0, 1.0, 0.0, 0.0)">
    <use height="56.0" transform="matrix(1.0, 0.0, 0.0, 1.0, -2.0, -2.0)" width="56.0" xlink:href="#shape0"/>
    <use height="0.0" transform="matrix(0.0871, 0.0287, -0.0375, 0.0908, 18.35, 33.8)" width="0.0" xlink:href="#sprite0"/>
    <use height="0.0" transform="matrix(0.1496, 0.0493, -0.1003, 0.1233, 26.6, 17.2)" width="0.0" xlink:href="#sprite0"/>
    <use height="81.5" transform="matrix(0.1879, -0.0066, 0.0066, 0.1879, 23.1, 19.6)" width="81.5" xlink:href="#sprite1"/>
    <use height="81.5" transform="matrix(0.1879, -0.0066, 0.0066, 0.1879, 6.55, 22.4)" width="81.5" xlink:href="#sprite1"/>
    <use height="81.5" transform="matrix(0.11, -0.0039, 0.0039, 0.11, 16.4, 8.05)" width="81.5" xlink:href="#sprite1"/>
    <use height="81.5" transform="matrix(0.11, -0.0039, 0.0039, 0.11, 25.65, 31.35)" width="81.5" xlink:href="#sprite1"/>
    <use height="81.5" transform="matrix(0.0829, -0.0029, 0.0029, 0.0829, 17.25, 39.8)" width="81.5" xlink:href="#sprite1"/>
    <use height="81.5" transform="matrix(0.11, -0.0039, 0.0039, 0.11, 28.15, 11.1)" width="81.5" xlink:href="#sprite1"/>
  </g>
  <defs>
    <g id="shape0" transform="matrix(1.0, 0.0, 0.0, 1.0, 2.0, 2.0)">
      <path d="M52.0 0.0 L52.0 52.0 0.0 52.0 0.0 0.0 52.0 0.0" fill="#795fa9" fill-opacity="0.0" fill-rule="evenodd" stroke="none"/>
      <path d="M23.95 8.7 L23.75 8.75 Q21.15 9.4 17.55 11.0 L16.55 11.55 14.0 13.3 13.2 13.9 11.6 15.35 Q9.6 17.35 8.05 19.85 L7.95 19.95 7.45 20.85 7.4 21.6 Q7.3 22.8 7.5 23.95 7.7 25.3 8.2 26.65 L8.9 28.1 8.5 28.4 7.7 29.55 7.45 30.05 7.35 30.25 7.0 31.2 Q6.85 31.75 6.85 32.25 6.85 32.8 7.2 33.1 L10.15 34.25 Q9.65 36.1 10.05 38.15 L7.2 38.85 7.1 38.85 6.9 38.95 6.85 38.95 6.8 38.95 Q6.5 39.2 6.7 40.15 L7.05 41.25 7.45 42.25 7.8 42.85 8.65 44.05 Q9.3 44.7 9.55 44.5 L9.6 44.5 9.65 44.5 9.7 44.35 9.7 44.4 12.4 42.7 Q13.6 44.05 15.3 45.05 L15.95 45.4 15.55 46.7 15.5 46.85 Q15.4 47.4 16.3 47.9 L16.9 48.2 18.6 48.65 18.8 48.7 19.3 48.7 20.95 48.55 21.2 48.45 Q22.0 48.2 22.05 47.7 L22.05 47.65 22.05 47.45 22.05 46.45 23.0 46.3 Q26.95 45.5 28.9 42.2 L29.5 41.05 35.2 41.2 38.3 40.25 39.2 39.65 41.6 37.4 Q42.85 35.85 43.7 33.75 L43.8 33.5 Q44.8 31.1 45.3 27.95 L45.3 27.85 Q45.85 23.5 44.65 19.7 L43.35 16.7 Q41.5 13.4 38.15 10.6 L37.25 9.8 34.65 8.5 35.8 8.0 Q36.55 7.55 36.75 5.4 36.7 4.8 36.2 4.4 L35.95 4.25 Q34.6 3.6 32.95 3.55 31.75 3.85 30.45 4.9 29.45 5.65 28.45 6.7 L27.5 7.75 Q25.85 8.0 24.2 8.6 L23.95 8.7 M39.95 13.1 L39.9 13.1 39.8 12.75 39.95 13.1" fill="none" stroke="#000000" stroke-linecap="round" stroke-linejoin="round" stroke-opacity="0.3019608" stroke-width="1.0"/>
      <path d="M28.45 6.7 Q28.1 8.2 30.3 7.6 L30.3 7.65 Q28.5 8.9 27.7 9.8 26.65 9.8 26.25 9.3 L27.3 8.0 27.5 7.8 28.45 6.7 M32.9 5.95 Q33.45 3.65 30.4 4.9 31.75 3.85 32.9 3.5 34.6 3.6 35.95 4.25 L35.65 4.65 33.75 5.5 32.9 5.95" fill="#cc0000" fill-rule="evenodd" stroke="none"/>
      <path d="M38.15 10.6 Q41.5 13.4 43.3 16.65 L44.65 19.65 44.65 19.95 43.15 17.3 Q41.55 14.65 40.05 13.3 L39.95 13.05 40.05 13.3 Q40.55 14.55 40.7 15.9 L40.7 16.25 40.7 16.45 40.45 18.0 39.8 19.9 39.3 20.8 37.15 23.6 34.7 25.45 32.65 26.4 32.0 26.7 31.0 27.05 30.2 27.3 Q26.15 28.45 22.25 27.4 19.45 26.65 17.7 25.0 16.45 23.85 15.75 22.35 L15.55 21.85 15.45 21.5 Q14.9 19.75 15.2 17.95 L15.3 17.4 Q15.6 16.05 16.4 14.65 L16.7 14.2 17.65 12.85 Q15.85 13.3 16.5 11.55 L17.55 10.95 Q21.1 9.35 23.75 8.7 L23.95 8.65 24.2 8.6 27.5 7.8 27.3 8.0 Q26.55 8.3 25.85 8.65 23.25 9.0 20.65 10.25 L19.25 11.25 Q18.0 12.6 17.6 13.5 17.35 14.3 20.1 15.25 L18.2 14.8 17.65 14.65 17.1 14.45 Q15.85 15.65 15.35 18.1 L15.2 19.1 Q15.35 20.45 15.9 21.8 L16.0 21.95 16.4 22.55 17.85 24.4 Q19.6 26.0 22.4 26.8 26.3 27.8 30.35 26.75 L31.9 26.2 32.15 26.1 Q36.0 24.65 38.25 21.95 38.45 19.95 33.8 18.8 L34.7 19.0 Q38.5 20.05 38.6 21.5 L39.15 20.7 39.65 19.85 Q41.1 16.8 39.85 13.1 L39.95 13.05 39.75 12.7 Q39.15 11.5 38.15 10.6 M7.05 31.15 L7.3 30.3 7.45 30.0 7.65 29.55 Q8.75 29.65 9.7 30.75 L10.35 31.55 9.65 30.9 Q8.1 29.55 7.35 30.55 L7.05 31.15 M7.45 23.9 L7.4 21.6 7.45 20.85 7.9 19.95 8.0 19.85 Q9.55 17.35 11.6 15.35 13.2 16.9 13.65 20.55 12.7 16.6 11.5 16.1 9.75 17.45 8.0 20.45 8.55 21.4 11.45 22.5 L8.65 21.85 8.45 21.85 Q7.95 21.8 7.75 22.25 L7.45 23.9 M23.0 10.7 L22.8 10.6 21.25 10.75 Q20.4 11.05 19.95 11.8 19.45 12.45 19.65 13.05 L19.9 13.45 20.6 13.9 20.9 14.0 20.95 14.15 20.5 14.1 Q19.9 13.95 19.6 13.55 L19.4 13.1 Q19.2 12.4 19.7 11.7 20.25 10.85 21.2 10.45 L23.0 10.35 23.25 10.45 23.1 10.6 23.0 10.7 M24.15 14.25 L25.6 14.45 Q26.25 14.5 26.75 13.9 L29.55 11.15 Q29.9 10.8 30.3 10.55 L29.6 11.15 Q27.35 13.1 26.5 14.9 26.25 16.05 26.35 16.75 L25.85 15.2 Q25.35 14.55 24.15 14.25 M20.65 10.25 Q22.05 9.35 23.75 8.7 22.05 9.35 20.65 10.25 M30.4 16.15 Q30.15 15.4 30.45 14.6 30.85 13.75 31.9 13.35 L33.95 13.25 Q35.05 13.55 35.55 14.3 L35.65 14.55 35.7 14.75 Q35.9 15.35 35.6 16.0 35.2 16.8 34.15 17.25 L32.05 17.35 30.8 16.7 30.5 16.25 30.4 16.15 M19.25 11.25 L17.65 12.85 19.25 11.25 M28.2 23.6 L29.15 23.7 Q29.85 23.0 30.2 22.1 30.6 20.3 29.8 19.45 L29.75 19.4 Q28.7 18.4 27.05 18.3 L26.45 18.25 22.5 17.15 22.3 17.05 Q20.55 16.35 19.05 16.1 17.5 16.35 16.6 17.65 L16.65 17.85 17.45 17.9 17.3 18.3 17.05 18.85 Q16.7 18.3 16.15 19.25 16.1 20.0 16.6 20.55 L16.7 20.65 Q17.55 21.6 18.7 21.6 L20.9 21.4 Q22.65 21.2 23.45 22.1 24.1 23.25 25.3 24.15 L27.35 24.05 Q27.15 24.6 26.55 24.8 L25.85 24.5 Q24.45 23.95 23.45 22.45 22.6 21.65 21.3 21.7 L20.25 21.9 20.1 21.9 Q18.7 22.1 17.2 21.45 L16.55 20.95 16.35 20.7 16.35 20.65 Q16.0 20.2 15.9 19.5 L15.95 18.75 15.95 18.7 15.95 18.5 16.0 18.25 Q17.35 15.35 20.65 16.2 L22.15 16.8 Q24.45 17.75 27.05 18.15 L28.15 18.25 29.8 19.0 28.15 18.25 32.5 18.6 33.15 18.7 29.8 19.0 30.45 19.55 30.55 19.9 30.55 20.1 Q30.85 21.55 30.25 22.85 29.45 24.0 28.45 24.45 L27.75 24.8 28.5 24.25 Q28.15 24.1 28.2 23.6 M35.25 14.65 L35.1 14.45 Q34.7 13.85 33.8 13.6 L32.05 13.7 Q31.25 14.0 30.85 14.7 30.55 15.45 30.9 16.1 L31.25 16.45 32.2 17.05 33.95 16.9 Q34.85 16.6 35.2 15.9 L35.25 14.65 M33.2 28.3 Q33.4 29.1 35.4 29.85 L33.95 29.55 32.1 29.4 Q32.7 28.6 33.2 28.3 M40.4 31.05 L42.3 31.15 Q42.15 28.15 40.85 25.9 40.0 24.5 38.65 23.55 L39.8 21.5 Q40.15 23.2 41.1 24.6 L41.2 24.7 Q42.35 26.25 44.5 27.4 L44.2 28.25 43.5 31.55 42.45 34.05 42.8 32.55 Q43.05 31.7 40.4 31.05 M44.7 20.0 Q45.1 23.0 44.8 25.6 L44.05 26.15 Q44.8 25.2 44.7 20.0" fill="#ffff98" fill-rule="evenodd" stroke="none"/>
      <path d="M37.25 9.85 L38.1 10.55 38.15 10.6 Q39.15 11.5 39.75 12.7 L39.85 13.1 Q41.1 16.8 39.65 19.85 L39.15 20.7 38.6 21.5 Q38.5 20.05 34.7 19.0 L33.8 18.8 33.35 18.7 33.15 18.7 32.5 18.6 28.15 18.25 27.05 18.15 27.15 17.9 27.95 16.2 30.4 16.15 30.5 16.25 30.8 16.7 32.05 17.35 34.15 17.25 Q35.2 16.8 35.6 16.0 35.9 15.35 35.7 14.75 41.3 13.6 37.25 9.85 M44.65 19.65 Q45.85 23.45 45.3 27.8 L45.3 27.9 Q44.75 31.1 43.75 33.5 L43.7 33.7 Q42.95 34.6 43.5 31.55 L44.2 28.25 44.5 27.4 Q42.35 26.25 41.2 24.7 L41.1 24.6 41.2 24.65 Q43.1 26.4 44.05 26.15 L44.8 25.6 Q45.1 23.0 44.7 20.0 L44.65 19.95 44.65 19.65 M10.15 34.25 L7.2 33.1 6.85 32.25 10.25 33.75 10.15 34.25 M8.55 28.4 L8.9 28.05 9.2 27.95 9.8 28.05 10.0 28.15 12.5 30.35 11.9 30.95 8.55 28.4 M11.6 15.35 L13.2 13.9 Q13.45 15.75 14.8 16.95 L15.3 17.4 15.2 17.95 Q14.7 19.8 14.8 21.65 L15.05 23.65 13.85 23.25 13.65 20.55 Q13.2 16.9 11.6 15.35 M30.3 10.55 Q28.7 9.65 25.9 10.05 L24.05 10.35 23.1 10.6 23.25 10.45 25.85 8.65 Q26.55 8.3 27.3 8.0 L26.25 9.3 Q26.65 9.8 27.7 9.8 L28.35 9.4 Q30.3 7.95 32.15 7.8 L33.45 8.1 34.1 8.3 34.05 8.3 Q32.6 8.9 31.25 9.9 L30.9 10.05 30.3 10.55 M20.1 15.25 L21.25 15.4 21.65 16.3 22.15 16.8 20.65 16.2 Q17.35 15.35 16.0 18.25 L15.95 18.5 15.9 18.7 15.9 18.75 15.95 18.75 15.9 19.5 Q16.0 20.2 16.35 20.65 L16.35 20.7 16.5 21.05 Q17.05 22.05 18.25 22.45 L20.65 22.6 17.75 22.5 16.4 21.35 Q16.0 20.9 15.9 20.35 15.7 19.6 15.9 18.75 15.55 18.85 15.2 19.1 L15.35 18.1 Q15.85 15.65 17.1 14.45 L17.65 14.65 18.2 14.8 20.1 15.25 M31.0 27.05 L32.0 26.7 32.65 26.4 34.7 25.45 Q33.0 27.65 34.25 27.6 L33.2 28.3 Q32.7 28.6 32.1 29.4 32.85 33.0 29.5 35.0 29.0 33.5 28.1 32.4 L27.45 31.5 Q30.45 31.8 31.45 29.0 31.7 27.35 31.0 27.05 M37.15 23.6 L39.3 20.8 39.8 19.9 40.45 18.0 40.7 16.45 40.7 16.6 40.7 17.15 40.55 18.95 40.7 17.15 40.7 16.6 Q41.55 19.25 42.35 20.1 43.05 20.85 43.7 20.65 L42.2 20.8 Q41.2 20.45 40.55 18.95 L39.8 21.5 38.65 23.55 36.75 25.65 Q37.7 23.8 37.15 23.6 M28.25 23.5 L28.2 23.6 Q28.15 24.1 28.5 24.25 L27.75 24.8 26.55 24.8 Q27.15 24.6 27.35 24.05 L27.45 23.75 28.25 23.5 M20.1 21.9 L20.25 21.9 21.3 21.7 Q21.15 21.85 21.3 22.0 L22.0 22.35 20.95 22.45 20.9 22.5 20.8 22.2 20.1 21.9 M31.3 21.35 L31.2 22.5 Q29.6 26.4 25.65 25.4 24.3 24.75 23.45 23.4 24.4 24.65 26.15 25.25 28.15 25.6 29.25 24.65 30.85 23.35 31.0 21.9 L30.75 20.3 30.55 19.9 30.45 19.55 Q31.2 20.3 31.3 21.35 M15.85 29.15 Q17.65 28.5 19.55 28.65 22.0 28.9 23.8 29.75 25.15 30.4 26.2 31.3 L26.45 31.6 26.5 31.7 Q27.85 33.35 26.95 35.5 24.65 39.4 20.0 40.3 13.35 40.4 11.05 35.55 10.8 34.9 10.95 34.1 L11.05 33.7 Q11.45 32.45 12.95 30.9 14.35 29.7 15.85 29.15" fill="#f4a33c" fill-rule="evenodd" stroke="none"/>
      <path d="M28.45 6.7 L30.4 4.9 Q33.45 3.65 32.9 5.95 31.7 6.65 30.4 7.5 L30.3 7.65 30.3 7.6 Q28.1 8.2 28.45 6.7" fill="#ba0101" fill-rule="evenodd" stroke="none"/>
      <path d="M30.3 7.65 L30.4 7.5 Q31.7 6.65 32.9 5.95 L33.75 5.5 36.75 5.4 Q36.5 7.5 35.8 8.0 L34.65 8.45 34.1 8.3 33.45 8.1 32.15 7.8 Q30.3 7.95 28.35 9.4 L27.7 9.8 Q28.5 8.9 30.3 7.65" fill="#660000" fill-rule="evenodd" stroke="none"/>
      <path d="M39.2 39.6 L38.25 40.2 Q36.7 40.9 35.15 41.15 32.35 41.75 29.5 41.05 L29.75 40.3 Q35.25 41.45 40.15 38.4 L39.2 39.6 M6.85 32.25 L7.05 31.15 7.35 30.55 Q8.1 29.55 9.65 30.9 L10.35 31.55 10.9 32.45 10.25 33.75 6.85 32.25 M8.9 28.05 L8.2 26.65 7.45 23.9 7.75 22.25 Q7.8 24.65 8.55 26.4 8.8 27.25 9.2 27.95 L8.9 28.05 M13.2 13.9 L13.95 13.3 Q13.6 14.75 14.8 16.95 13.45 15.75 13.2 13.9 M23.0 10.7 L22.65 11.05 21.4 11.25 20.2 12.3 Q19.75 12.9 19.9 13.45 L19.65 13.05 Q19.45 12.45 19.95 11.8 20.4 11.05 21.25 10.75 L22.8 10.6 23.0 10.7 M21.4 12.5 Q21.45 13.0 22.05 13.45 20.75 13.5 21.65 16.3 L26.6 17.65 26.35 16.75 Q26.25 16.05 26.5 14.9 27.35 13.1 29.6 11.15 L30.3 10.55 30.9 10.05 31.25 9.9 Q32.6 8.9 34.05 8.3 L34.05 8.35 Q30.0 12.15 27.95 16.2 L27.15 17.9 27.05 18.15 Q24.45 17.75 22.15 16.8 L21.65 16.3 21.25 15.4 21.0 14.5 20.95 14.15 20.9 14.0 21.0 13.15 21.4 12.5 M16.4 22.55 L16.0 21.95 15.9 21.8 Q15.35 20.45 15.2 19.1 15.55 18.85 15.9 18.75 L15.9 18.7 15.95 18.5 15.95 18.7 15.95 18.75 15.9 18.75 Q15.7 19.6 15.9 20.35 16.0 20.9 16.4 21.35 L16.35 21.6 16.4 22.55 M15.45 21.5 L15.55 21.85 15.75 22.35 Q16.45 23.85 17.7 25.0 19.45 26.65 22.25 27.4 26.15 28.45 30.2 27.3 L31.0 27.05 Q31.7 27.35 31.45 29.0 30.45 31.8 27.45 31.5 L26.8 30.9 Q25.7 29.95 23.8 29.75 22.0 28.9 19.55 28.65 17.65 28.5 15.85 29.15 17.5 28.0 16.45 26.0 15.2 23.4 15.45 21.5 M34.7 25.45 L37.15 23.6 Q37.7 23.8 36.75 25.65 L35.1 27.1 34.25 27.6 Q33.0 27.65 34.7 25.45 M17.45 17.9 L17.55 17.65 Q18.55 16.35 21.0 17.15 L22.65 17.95 24.95 18.6 26.9 18.8 Q27.8 18.95 28.95 19.7 29.9 20.4 29.5 21.65 L29.25 22.25 29.25 22.2 29.45 21.4 Q29.45 20.05 27.25 19.5 L26.95 19.45 24.9 19.2 23.4 18.85 23.2 18.75 22.35 18.4 22.05 18.25 Q21.5 17.95 20.95 17.75 L20.05 17.55 19.75 17.55 19.3 17.45 Q18.35 17.45 17.8 18.15 17.5 18.55 17.35 19.25 L17.35 19.95 17.45 20.35 17.2 20.05 Q16.95 19.55 17.05 18.85 L17.3 18.3 17.45 17.9 M16.35 20.7 L16.55 20.95 17.2 21.45 Q18.7 22.1 20.1 21.9 L20.8 22.2 20.9 22.5 20.8 22.5 20.65 22.6 18.25 22.45 Q17.05 22.05 16.5 21.05 L16.35 20.7 M21.3 21.7 Q22.6 21.65 23.45 22.45 24.45 23.95 25.85 24.5 L26.55 24.8 27.75 24.8 28.45 24.45 Q29.45 24.0 30.25 22.85 30.85 21.55 30.55 20.1 L30.55 19.9 30.75 20.3 31.0 21.9 Q30.85 23.35 29.25 24.65 28.15 25.6 26.15 25.25 24.4 24.65 23.45 23.4 L23.4 23.35 23.15 23.05 23.05 22.9 Q22.6 22.4 22.0 22.35 L21.3 22.0 Q21.15 21.85 21.3 21.7 M13.85 23.25 L15.05 23.65 15.35 24.8 Q14.65 29.3 12.95 28.55 L11.25 27.75 Q10.0 27.0 9.3 25.9 8.3 24.25 8.45 21.85 L8.65 21.85 11.45 22.5 13.85 23.25 M10.95 34.1 Q10.8 34.9 11.05 35.55 13.35 40.4 20.0 40.3 24.65 39.4 26.95 35.5 27.85 33.35 26.5 31.7 28.8 34.45 29.25 37.3 29.55 41.3 25.95 44.2 18.25 48.15 12.15 41.1 9.85 37.95 10.95 34.1 M43.7 20.65 L43.9 20.55 43.95 20.55 44.65 20.0 44.7 20.0 Q44.8 25.2 44.05 26.15 43.1 26.4 41.2 24.65 L41.1 24.6 Q40.15 23.2 39.8 21.5 L40.55 18.95 Q41.2 20.45 42.2 20.8 L43.7 20.65 M31.25 16.45 L30.9 16.1 Q30.55 15.45 30.85 14.7 31.25 14.0 32.05 13.7 L33.8 13.6 Q34.7 13.85 35.1 14.45 L35.25 14.65 35.1 14.55 Q34.7 14.25 34.2 14.1 L32.45 14.2 Q31.65 14.55 31.3 15.3 30.95 15.9 31.25 16.45 M35.4 29.85 L35.5 29.85 38.0 30.55 39.5 30.85 40.4 31.05 Q43.05 31.7 42.8 32.55 L42.45 34.05 40.95 37.15 Q34.35 40.7 32.8 35.75 32.2 33.25 33.95 29.55 L35.4 29.85 M34.05 8.35 Q29.6 12.1 27.3 16.2 L26.6 17.65 27.3 16.2 Q29.6 12.1 34.05 8.35" fill="#cc6b22" fill-rule="evenodd" stroke="none"/>
      <path d="M29.25 22.25 L29.05 22.7 29.05 22.75 29.0 22.75 Q27.75 23.3 26.6 21.9 L26.5 20.95 26.95 20.05 27.45 20.1 Q29.0 20.55 29.45 21.4 L29.25 22.2 29.25 22.25 M17.7 19.25 L18.0 18.8 Q18.5 18.05 19.45 18.1 L19.75 18.1 19.7 19.05 Q19.15 20.2 18.05 19.55 L17.7 19.25 M20.05 18.15 L20.2 18.2 21.1 18.35 22.2 18.85 22.5 19.05 22.85 19.25 Q22.4 19.85 20.75 20.05 20.25 19.8 20.0 19.25 L20.05 18.15 M23.2 19.4 L23.55 19.55 25.05 19.8 26.55 20.0 26.4 20.35 Q25.35 21.6 23.85 21.05 23.3 20.65 23.05 19.9 L23.2 19.4" fill="#f9f8ec" fill-rule="evenodd" stroke="none"/>
      <path d="M34.65 8.45 Q36.1 9.0 37.25 9.85 41.3 13.6 35.7 14.75 L35.65 14.55 35.55 14.3 Q35.05 13.55 33.95 13.25 L31.9 13.35 Q30.85 13.75 30.45 14.6 30.15 15.4 30.4 16.15 L27.95 16.2 Q30.0 12.15 34.05 8.35 L34.1 8.3 34.65 8.45 M43.7 33.7 Q42.85 35.8 41.6 37.35 L39.2 39.6 40.15 38.4 40.95 37.15 42.45 34.05 43.5 31.55 Q42.95 34.6 43.7 33.7 M29.5 41.05 L28.9 42.15 Q26.95 45.45 22.95 46.3 19.05 47.1 15.3 45.05 11.6 42.95 10.3 39.15 9.5 36.6 10.15 34.25 L10.25 33.75 10.9 32.45 10.35 31.55 9.7 30.75 Q8.75 29.65 7.65 29.55 L8.55 28.4 11.9 30.95 12.5 30.35 Q13.75 29.05 15.55 28.45 16.6 28.05 16.3 27.0 L15.35 24.8 15.05 23.65 14.8 21.65 Q14.7 19.8 15.2 17.95 14.9 19.75 15.45 21.5 15.2 23.4 16.45 26.0 17.5 28.0 15.85 29.15 14.35 29.7 12.95 30.9 11.45 32.45 11.05 33.7 L10.95 34.1 Q9.85 37.95 12.15 41.1 18.25 48.15 25.95 44.2 29.55 41.3 29.25 37.3 28.8 34.45 26.5 31.7 L26.45 31.6 26.2 31.3 Q25.15 30.4 23.8 29.75 25.7 29.95 26.8 30.9 L27.45 31.5 28.1 32.4 Q29.0 33.5 29.5 35.0 L29.6 35.15 Q30.45 37.85 29.75 40.3 L29.5 41.05 M13.95 13.3 L16.5 11.55 Q15.85 13.3 17.65 12.85 L16.7 14.2 16.4 14.65 Q15.6 16.05 15.3 17.4 L14.8 16.95 Q13.6 14.75 13.95 13.3 M22.65 11.05 L23.0 10.7 23.1 10.6 24.05 10.35 25.9 10.05 Q28.7 9.65 30.3 10.55 29.9 10.8 29.55 11.15 L26.75 13.9 Q26.25 14.5 25.6 14.45 L24.15 14.25 23.15 14.0 22.45 13.7 22.05 13.45 Q21.45 13.0 21.4 12.5 L22.65 11.05 M23.25 10.45 L23.0 10.35 21.2 10.45 Q20.25 10.85 19.7 11.7 19.2 12.4 19.4 13.1 L19.6 13.55 Q19.9 13.95 20.5 14.1 L20.95 14.15 21.0 14.5 21.25 15.4 20.1 15.25 Q17.35 14.3 17.6 13.5 18.0 12.6 19.25 11.25 L20.65 10.25 Q23.25 9.0 25.85 8.65 L23.25 10.45 M40.05 13.3 Q41.55 14.65 43.15 17.3 L44.65 19.95 44.7 20.0 44.65 20.0 43.95 20.55 43.9 20.55 43.7 20.65 Q43.05 20.85 42.35 20.1 41.55 19.25 40.7 16.6 L40.7 16.45 40.7 16.25 40.7 15.9 Q40.55 14.55 40.05 13.3 M33.8 18.8 Q38.45 19.95 38.25 21.95 36.0 24.65 32.15 26.1 L31.9 26.2 30.35 26.75 Q26.3 27.8 22.4 26.8 19.6 26.0 17.85 24.4 L16.4 22.55 16.35 21.6 16.45 21.8 17.8 22.95 20.7 23.0 20.9 22.95 21.0 22.95 22.05 22.8 Q22.7 22.85 23.25 23.4 L23.5 23.75 23.55 23.8 Q24.4 25.2 25.75 25.8 29.7 26.9 31.25 22.95 L31.3 21.35 Q31.2 20.3 30.45 19.55 L29.8 19.0 33.15 18.7 33.35 18.7 33.8 18.8 M29.25 22.25 L29.5 21.65 Q29.9 20.4 28.95 19.7 27.8 18.95 26.9 18.8 L24.95 18.6 22.65 17.95 21.0 17.15 Q18.55 16.35 17.55 17.65 L17.45 17.9 16.65 17.85 16.6 17.65 Q17.5 16.35 19.05 16.1 20.55 16.35 22.3 17.05 L22.5 17.15 26.45 18.25 27.05 18.3 Q28.7 18.4 29.75 19.4 L29.8 19.45 Q30.6 20.3 30.2 22.1 29.85 23.0 29.15 23.7 L28.2 23.6 28.25 23.5 28.65 23.15 29.0 22.75 29.05 22.75 29.05 22.7 29.25 22.25 M17.05 18.85 Q16.95 19.55 17.2 20.05 L17.45 20.35 17.5 20.4 17.55 20.5 Q18.0 21.15 19.2 21.2 L19.65 21.2 19.8 21.2 20.65 21.05 22.5 20.8 22.7 20.85 Q23.5 21.1 24.25 21.85 L24.95 22.9 25.2 23.15 Q26.45 23.9 27.45 23.75 L27.35 24.05 25.3 24.15 Q24.1 23.25 23.45 22.1 22.65 21.2 20.9 21.4 L18.7 21.6 Q17.55 21.6 16.7 20.65 L16.6 20.55 Q16.1 20.0 16.15 19.25 16.7 18.3 17.05 18.85 M13.85 23.25 L11.45 22.5 Q8.55 21.4 8.0 20.45 9.75 17.45 11.5 16.1 12.7 16.6 13.65 20.55 L13.85 23.25 M11.9 30.95 L11.35 31.6 11.05 32.15 10.9 32.45 11.05 32.15 11.35 31.6 11.9 30.95 M36.75 25.65 L38.65 23.55 Q40.0 24.5 40.85 25.9 42.15 28.15 42.3 31.15 L40.4 31.05 39.5 30.85 38.0 30.55 35.5 29.85 35.4 29.85 Q33.4 29.1 33.2 28.3 L34.25 27.6 35.1 27.1 36.75 25.65" fill="#ffde4f" fill-rule="evenodd" stroke="none"/>
      <path d="M19.9 13.45 Q19.75 12.9 20.2 12.3 L21.4 11.25 22.65 11.05 21.4 12.5 21.0 13.15 20.9 14.0 20.6 13.9 19.9 13.45 M31.25 16.45 Q30.95 15.9 31.3 15.3 31.65 14.55 32.45 14.2 L34.2 14.1 Q34.7 14.25 35.1 14.55 L35.25 14.65 35.2 15.9 Q34.85 16.6 33.95 16.9 L32.2 17.05 31.25 16.45" fill="#8f3600" fill-rule="evenodd" stroke="none"/>
      <path d="M22.05 13.45 L22.45 13.7 23.15 14.0 24.15 14.25 Q25.35 14.55 25.85 15.2 L26.35 16.75 26.6 17.65 21.65 16.3 Q20.75 13.5 22.05 13.45 M8.45 21.85 Q8.3 24.25 9.3 25.9 10.0 27.0 11.25 27.75 L12.95 28.55 Q14.65 29.3 15.35 24.8 L16.3 27.0 Q16.6 28.05 15.55 28.45 13.75 29.05 12.5 30.35 L10.0 28.15 9.8 28.05 9.2 27.95 Q8.8 27.25 8.55 26.4 7.8 24.65 7.75 22.25 7.95 21.8 8.45 21.85 M16.35 21.6 L16.4 21.35 17.75 22.5 20.65 22.6 20.8 22.5 20.9 22.5 20.95 22.45 22.0 22.35 Q22.6 22.4 23.05 22.9 L23.15 23.05 23.4 23.35 23.45 23.4 Q24.3 24.75 25.65 25.4 29.6 26.4 31.2 22.5 L31.3 21.35 31.25 22.95 Q29.7 26.9 25.75 25.8 24.4 25.2 23.55 23.8 L23.5 23.75 23.25 23.4 Q22.7 22.85 22.05 22.8 L21.0 22.95 20.9 22.95 20.7 23.0 17.8 22.95 16.45 21.8 16.35 21.6 M29.5 35.0 Q32.85 33.0 32.1 29.4 L33.95 29.55 Q32.2 33.25 32.8 35.75 34.35 40.7 40.95 37.15 L40.15 38.4 Q35.25 41.45 29.75 40.3 30.45 37.85 29.6 35.15 L29.5 35.0" fill="#a34100" fill-rule="evenodd" stroke="none"/>
      <path d="M29.0 22.75 L28.65 23.15 Q27.0 23.15 26.6 21.9 27.75 23.3 29.0 22.75 M18.05 19.55 Q19.15 20.2 19.7 19.05 L19.7 19.9 Q18.8 20.3 18.05 19.55 M22.85 19.25 L23.0 19.35 22.9 19.7 Q21.6 20.45 20.75 20.05 22.4 19.85 22.85 19.25 M25.85 21.3 Q24.6 21.6 23.85 21.05 25.35 21.6 26.4 20.35 L25.85 21.3" fill="#ffffff" fill-rule="evenodd" stroke="none"/>
      <path d="M35.95 4.25 L36.2 4.4 Q36.7 4.75 36.75 5.4 L33.75 5.5 35.65 4.65 35.95 4.25" fill="#ff0000" fill-rule="evenodd" stroke="none"/>
      <path d="M34.05 8.3 L34.1 8.3 34.05 8.35 34.05 8.3 M28.65 23.15 L28.25 23.5 27.45 23.75 Q26.45 23.9 25.2 23.15 L26.5 20.95 26.6 21.9 Q27.0 23.15 28.65 23.15 M17.7 19.25 L18.05 19.55 Q18.8 20.3 19.7 19.9 L19.65 21.2 19.2 21.2 Q18.0 21.15 17.55 20.5 L17.5 20.4 17.45 20.35 17.5 19.9 17.7 19.25 M19.8 21.2 L20.0 19.25 Q20.25 19.8 20.75 20.05 21.6 20.45 22.9 19.7 L22.5 20.8 20.65 21.05 19.8 21.2 M23.85 21.05 Q24.6 21.6 25.85 21.3 L24.95 22.9 24.25 21.85 Q23.5 21.1 22.7 20.85 L23.05 19.9 Q23.3 20.65 23.85 21.05" fill="#e6e4b3" fill-rule="evenodd" stroke="none"/>
      <path d="M17.45 20.35 L17.35 19.95 17.35 19.25 Q17.5 18.55 17.8 18.15 18.35 17.45 19.3 17.45 L19.75 17.55 19.75 18.1 19.45 18.1 Q18.5 18.05 18.0 18.8 L17.7 19.25 17.5 19.9 17.45 20.35 M20.05 17.55 L20.95 17.75 Q21.5 17.95 22.05 18.25 L22.35 18.4 23.2 18.75 23.0 19.35 22.85 19.25 22.5 19.05 22.2 18.85 21.1 18.35 20.2 18.2 20.05 18.15 20.05 17.55 M23.4 18.85 L24.9 19.2 26.95 19.45 26.55 20.0 25.05 19.8 23.55 19.55 23.2 19.4 23.4 18.85 M27.25 19.5 Q29.45 20.05 29.45 21.4 29.0 20.55 27.45 20.1 L26.95 20.05 27.25 19.5" fill="#d5d580" fill-rule="evenodd" stroke="none"/>
      <path d="M19.75 17.55 L20.05 17.55 20.05 18.15 20.0 19.25 19.8 21.2 19.65 21.2 19.7 19.9 19.7 19.05 19.75 18.1 19.75 17.55 M23.2 18.75 L23.4 18.85 23.2 19.4 23.05 19.9 22.7 20.85 22.5 20.8 22.9 19.7 23.0 19.35 23.2 18.75 M26.95 19.45 L27.25 19.5 26.95 20.05 26.5 20.95 25.2 23.15 24.95 22.9 25.85 21.3 26.4 20.35 26.55 20.0 26.95 19.45" fill="#cac960" fill-rule="evenodd" stroke="none"/>
      <path d="M30.4 4.9 L28.45 6.7 27.5 7.8 24.2 8.6 23.95 8.65 23.75 8.7 Q22.05 9.35 20.65 10.25 L19.25 11.25 17.65 12.85 16.7 14.2 16.4 14.65 Q15.6 16.05 15.3 17.4 L15.2 17.95 Q14.7 19.8 14.8 21.65 L15.05 23.65 15.35 24.8 16.3 27.0 Q16.6 28.05 15.55 28.45 13.75 29.05 12.5 30.35 L10.0 28.15 9.8 28.05 9.2 27.95 8.9 28.05 8.2 26.65 7.45 23.9 7.4 21.6 7.45 20.85 7.9 19.95 8.0 19.85 Q9.55 17.35 11.6 15.35 L13.2 13.9 13.95 13.3 16.5 11.55 17.55 10.95 Q21.1 9.35 23.75 8.7 M30.4 4.9 Q31.75 3.85 32.9 3.5 34.6 3.6 35.95 4.25 L36.2 4.4 Q36.7 4.75 36.75 5.4 36.5 7.5 35.8 8.0 L34.65 8.45 Q36.1 9.0 37.25 9.85 L38.1 10.55 38.15 10.6 Q41.5 13.4 43.3 16.65 L44.65 19.65 Q45.85 23.45 45.3 27.8 L45.3 27.9 Q44.75 31.1 43.75 33.5 L43.7 33.7 Q42.85 35.8 41.6 37.35 L39.2 39.6 38.25 40.2 Q36.7 40.9 35.15 41.15 32.35 41.75 29.5 41.05 L28.9 42.15 Q26.95 45.45 22.95 46.3 19.05 47.1 15.3 45.05 11.6 42.95 10.3 39.15 9.5 36.6 10.15 34.25 L7.2 33.1 6.85 32.25 7.05 31.15 7.3 30.3 7.45 30.0 7.65 29.55 8.55 28.4 8.9 28.05 M22.65 11.05 L23.0 10.7 23.1 10.6 23.25 10.45 25.85 8.65 Q26.55 8.3 27.3 8.0 L27.5 7.8 M22.65 11.05 L21.4 12.5 21.0 13.15 20.9 14.0 20.95 14.15 21.0 14.5 21.25 15.4 21.65 16.3 26.6 17.65 27.3 16.2 Q29.6 12.1 34.05 8.35 L34.1 8.3 33.45 8.1 32.15 7.8 Q30.3 7.95 28.35 9.4 L27.7 9.8 Q26.65 9.8 26.25 9.3 L27.3 8.0 M34.1 8.3 L34.65 8.45 M39.75 12.7 Q39.15 11.5 38.15 10.6 M39.75 12.7 L39.95 13.05 40.05 13.3 Q40.55 14.55 40.7 15.9 L40.7 16.25 40.7 16.45 40.7 16.6 40.7 17.15 40.55 18.95 39.8 21.5 38.65 23.55 36.75 25.65 35.1 27.1 34.25 27.6 33.2 28.3 Q32.7 28.6 32.1 29.4 32.85 33.0 29.5 35.0 L29.6 35.15 Q30.45 37.85 29.75 40.3 L29.5 41.05 M29.25 22.25 L29.05 22.7 29.05 22.75 29.0 22.75 28.65 23.15 28.25 23.5 27.45 23.75 Q26.45 23.9 25.2 23.15 L24.95 22.9 24.25 21.85 Q23.5 21.1 22.7 20.85 L22.5 20.8 20.65 21.05 19.8 21.2 19.65 21.2 19.2 21.2 Q18.0 21.15 17.55 20.5 L17.5 20.4 17.45 20.35 17.35 19.95 17.35 19.25 Q17.5 18.55 17.8 18.15 18.35 17.45 19.3 17.45 L19.75 17.55 20.05 17.55 20.95 17.75 Q21.5 17.95 22.05 18.25 L22.35 18.4 23.2 18.75 23.4 18.85 24.9 19.2 26.95 19.45 27.25 19.5 Q29.45 20.05 29.45 21.4 L29.25 22.2 29.25 22.25 M15.95 18.5 L16.0 18.25 Q17.35 15.35 20.65 16.2 L22.15 16.8 Q24.45 17.75 27.05 18.15 L28.15 18.25 29.8 19.0 30.45 19.55 Q31.2 20.3 31.3 21.35 L31.2 22.5 Q29.6 26.4 25.65 25.4 24.3 24.75 23.45 23.4 L23.4 23.35 23.15 23.05 M15.95 18.5 L15.9 18.7 15.9 18.75 Q15.7 19.6 15.9 20.35 16.0 20.9 16.4 21.35 L17.75 22.5 20.65 22.6 20.8 22.5 20.9 22.5 20.95 22.45 22.0 22.35 Q22.6 22.4 23.05 22.9 M26.8 30.9 L27.45 31.5 28.1 32.4 Q29.0 33.5 29.5 35.0 M11.9 30.95 L12.5 30.35 M10.9 32.45 L11.05 32.15 11.35 31.6 11.9 30.95 M10.25 33.75 L10.9 32.45 M10.15 34.25 L10.25 33.75" fill="none" stroke="#000000" stroke-linecap="round" stroke-linejoin="round" stroke-opacity="0.3019608" stroke-width="0.30000000000000004"/>
      <path d="M17.25 28.95 Q19.6 28.65 21.4 29.45 23.2 30.25 23.35 31.55 23.5 32.95 22.0 34.2 20.45 35.35 18.05 35.6 L13.8 35.15 Q12.05 34.35 11.85 32.9 11.75 31.6 13.3 30.45 14.85 29.25 17.25 28.95" fill="#ffde4f" fill-rule="evenodd" stroke="none"/>
      <path d="M17.0 29.35 L18.4 29.55 Q18.95 29.8 19.0 30.3 19.1 30.8 18.55 31.1 18.1 31.55 17.2 31.65 L15.8 31.5 Q15.25 31.2 15.15 30.7 15.1 30.35 15.65 29.9 16.15 29.5 17.0 29.35" fill="#ffff98" fill-rule="evenodd" stroke="none"/>
      <path d="M23.55 11.7 Q23.55 11.4 23.7 11.05 L23.9 10.8 24.55 10.35 25.85 10.25 26.15 10.35 26.75 10.85 26.8 10.9 26.75 11.0 26.65 11.45 26.15 12.05 25.8 12.2 24.5 12.3 23.8 11.9 23.55 11.7" fill="#cc0000" fill-rule="evenodd" stroke="none"/>
      <path d="M26.3 12.5 L25.95 12.65 24.65 12.7 Q24.2 12.6 23.95 12.35 L23.75 12.1 23.7 11.95 23.55 11.7 23.8 11.9 24.5 12.3 25.8 12.2 26.15 12.05 26.3 12.5" fill="#660000" fill-rule="evenodd" stroke="none"/>
      <path d="M26.8 10.9 L26.85 11.05 26.8 11.95 26.3 12.5 26.15 12.05 26.65 11.45 26.75 11.0 26.8 10.9" fill="#990000" fill-rule="evenodd" stroke="none"/>
      <path d="M23.55 11.7 Q23.55 11.4 23.7 11.05 L23.9 10.8 24.55 10.35 25.85 10.25 26.15 10.35 26.75 10.85 26.8 10.9 26.85 11.05 26.8 11.95 26.3 12.5 25.95 12.65 24.65 12.7 Q24.2 12.6 23.95 12.35 L23.75 12.1 23.7 11.95 23.55 11.7 Z" fill="none" stroke="#000000" stroke-linecap="round" stroke-linejoin="round" stroke-opacity="0.3019608" stroke-width="0.30000000000000004"/>
      <path d="M11.7 38.15 L12.6 39.55 12.4 39.75 12.05 39.0 11.9 38.65 11.45 38.2 7.7 39.15 7.15 38.8 10.35 38.05 10.8 37.9 10.95 37.85 11.45 38.2 11.7 38.15 M12.2 42.8 L9.9 44.25 9.9 43.65 12.55 42.0 12.2 42.8 M8.65 44.05 L7.75 42.8 7.8 41.8 7.8 41.65 7.2 38.95 7.7 39.45 8.05 39.9 8.1 41.8 8.65 44.05 M26.9 37.65 L26.85 37.55 26.9 37.45 27.2 35.75 27.7 35.7 27.45 36.55 27.3 37.1 27.3 38.05 26.9 37.65 M29.4 35.15 L29.5 35.15 30.85 35.1 Q30.55 35.2 30.3 35.65 L27.7 35.7 28.05 35.25 28.8 35.2 29.35 35.15 29.4 35.15 M31.95 39.75 L31.6 40.4 31.1 41.0 30.9 39.55 30.55 38.2 Q30.35 37.4 29.95 36.95 L30.3 36.05 30.85 37.9 Q31.3 39.0 31.95 39.75 M30.15 41.05 L28.75 40.7 28.25 40.55 28.2 40.55 28.15 40.5 27.7 39.9 29.65 40.3 Q29.8 40.85 30.15 41.05 M19.8 42.8 L20.15 43.65 18.6 43.65 17.15 43.9 16.65 45.7 16.2 45.9 Q15.75 46.1 15.65 46.3 L16.2 44.65 16.35 44.35 Q16.7 44.05 17.15 43.9 L17.55 42.55 19.25 42.7 19.8 42.8 M22.1 45.6 L22.05 45.75 22.05 46.95 21.65 46.55 21.65 44.05 22.05 44.3 22.1 45.05 22.1 45.6 M21.55 46.8 L21.15 47.0 Q20.3 47.35 19.75 47.75 19.0 48.2 18.8 48.6 L18.6 48.65 16.9 48.2 19.6 47.65 19.9 47.5 Q20.55 47.15 20.35 46.25 L20.6 46.25 21.2 46.6 21.45 46.7 21.55 46.8" fill="#f4a33c" fill-rule="evenodd" stroke="none"/>
      <path d="M11.35 37.75 L11.4 37.75 11.7 38.15 11.45 38.2 10.95 37.85 11.35 37.75 M13.4 41.4 L13.55 41.9 13.55 41.95 12.9 42.35 12.55 42.55 12.2 42.8 12.55 42.0 9.9 43.65 9.8 43.25 9.7 42.55 9.1 41.15 8.85 40.6 10.85 40.5 11.7 40.15 12.4 39.75 12.6 40.65 12.55 42.0 13.4 41.4 M27.25 40.3 L27.1 40.0 27.05 39.75 27.7 39.9 Q27.3 39.2 27.3 38.05 L27.75 38.35 29.5 38.55 29.5 39.25 Q29.45 39.75 29.55 40.15 L29.65 40.3 27.7 39.9 28.15 40.5 28.2 40.55 27.25 40.3 M27.2 35.75 L27.35 35.25 28.05 35.25 27.7 35.7 27.2 35.75 M20.15 43.65 L20.3 43.7 21.05 43.8 21.65 44.05 21.65 43.6 21.8 43.7 22.05 43.85 22.05 44.3 21.65 44.05 21.65 46.55 21.6 46.55 21.25 46.35 Q20.55 45.85 19.45 45.7 L19.9 44.8 20.15 43.9 20.15 43.85 20.15 43.65 M16.9 42.55 L17.4 42.55 17.55 42.55 17.15 43.9 Q16.7 44.05 16.35 44.35 L16.4 44.0 16.9 42.55" fill="#cc6b22" fill-rule="evenodd" stroke="none"/>
      <path d="M10.35 37.75 Q10.15 37.2 10.45 37.05 L10.55 37.0 10.95 37.1 11.35 37.55 11.4 37.55 12.8 39.75 13.2 40.55 13.75 42.15 13.9 42.95 13.9 43.3 13.8 43.35 13.75 43.4 Q13.45 43.65 12.8 42.85 L12.7 42.7 Q13.3 43.4 13.6 43.2 L13.6 43.15 13.65 43.05 13.7 43.0 13.55 42.05 13.55 41.9 13.4 41.4 13.1 40.55 12.7 39.8 12.6 39.55 11.7 38.15 11.4 37.75 11.35 37.75 10.8 37.3 10.6 37.25 10.45 37.25 10.35 37.75 M9.7 44.4 L9.6 44.45 9.55 44.45 9.55 44.5 Q9.3 44.7 8.65 44.05 L8.1 41.8 8.05 39.9 8.9 41.25 9.4 42.45 9.65 43.3 9.7 44.4 M7.75 42.8 L7.45 42.25 7.05 41.25 6.75 40.15 Q6.45 39.15 6.8 38.9 L6.9 38.95 6.9 38.9 7.75 41.65 7.8 41.8 7.75 42.8 M28.75 40.7 L28.0 41.45 27.5 41.1 27.3 40.9 27.1 40.6 27.0 40.25 26.9 39.95 26.85 39.7 26.75 37.65 26.75 37.55 26.75 37.45 27.05 35.75 27.3 35.0 27.35 34.8 27.75 34.35 Q28.15 33.8 28.6 33.85 29.1 33.9 29.45 35.0 L29.5 35.15 29.4 35.15 29.35 35.1 Q29.05 34.3 28.55 34.2 L28.15 34.3 27.5 35.1 27.35 35.25 27.2 35.75 26.9 37.45 26.85 37.55 26.9 37.65 Q26.8 38.8 27.0 39.7 L27.05 39.75 27.1 40.0 27.25 40.3 27.65 40.95 27.7 40.95 28.05 41.1 Q28.35 41.1 28.65 40.8 L28.75 40.7 M31.35 35.1 L31.45 35.1 Q32.0 35.15 32.2 36.1 L32.3 36.6 32.25 38.35 31.95 39.75 Q31.3 39.0 30.85 37.9 L30.3 36.05 30.4 35.85 30.55 35.65 Q30.95 35.1 31.35 35.1 M31.1 41.0 L30.55 41.15 30.35 41.1 29.85 40.4 29.8 40.2 29.7 39.05 29.7 38.7 29.75 38.0 29.9 37.45 30.4 38.35 30.9 39.55 31.1 41.0 M27.7 35.7 L30.3 35.65 30.2 35.75 Q29.75 36.65 29.55 37.95 L29.55 38.05 27.75 38.35 27.3 38.05 27.3 37.1 27.45 36.55 27.7 35.7 M21.65 43.6 L20.85 43.15 19.8 42.8 19.25 42.7 17.55 42.55 17.4 42.55 16.9 42.55 16.7 42.6 Q16.0 42.7 15.7 43.0 L15.45 43.4 Q15.35 44.0 16.0 44.55 15.15 44.05 15.2 43.35 15.25 42.95 15.75 42.7 L16.5 42.45 16.75 42.4 17.2 42.4 19.3 42.55 20.95 43.0 Q21.55 43.25 22.0 43.6 L22.3 43.8 22.8 44.35 22.95 44.95 Q22.9 45.45 22.05 45.75 L22.1 45.6 22.7 44.95 22.65 44.65 22.05 43.85 21.8 43.7 21.65 43.6 M16.65 45.7 L17.15 43.9 18.6 43.65 20.15 43.65 20.15 43.85 20.15 43.9 19.7 44.65 18.95 45.6 18.85 45.65 18.25 45.55 16.65 45.7 M21.55 46.8 L21.95 47.15 22.05 47.45 22.05 47.5 22.05 47.65 Q22.0 48.15 21.15 48.45 L20.9 48.5 19.3 48.65 18.8 48.6 Q19.0 48.2 19.75 47.75 20.3 47.35 21.15 47.0 L21.55 46.8 M20.35 46.25 Q20.55 47.15 19.9 47.5 L19.6 47.65 16.9 48.2 16.3 47.9 Q15.55 47.5 15.5 47.0 16.5 44.95 20.35 46.25 M7.7 39.15 L11.45 38.2 11.9 38.65 12.05 39.0 12.4 39.75 11.7 40.15 10.8 40.4 8.6 40.25 7.9 39.3 7.7 39.15" fill="#ffde4f" fill-rule="evenodd" stroke="none"/>
      <path d="M9.9 44.25 L9.7 44.4 9.65 43.3 9.4 42.45 8.9 41.25 8.05 39.9 7.7 39.45 7.2 38.95 7.8 41.65 7.8 41.8 7.75 41.65 6.9 38.9 7.1 38.85 7.15 38.8 7.7 39.15 7.9 39.3 8.6 40.25 10.8 40.4 11.7 40.15 10.85 40.5 8.85 40.6 9.1 41.15 9.7 42.55 9.8 43.25 9.9 43.65 9.9 44.25 M30.85 35.1 L31.1 35.1 31.35 35.1 Q30.95 35.1 30.55 35.65 L30.4 35.85 30.3 36.05 29.95 36.95 Q30.35 37.4 30.55 38.2 L30.9 39.55 30.4 38.35 29.9 37.45 29.75 38.0 29.7 38.7 29.7 39.05 29.8 40.2 29.85 40.4 30.35 41.1 30.15 41.05 Q29.8 40.85 29.65 40.3 L29.55 40.15 Q29.45 39.75 29.5 39.25 L29.5 38.55 27.75 38.35 29.55 38.05 29.55 37.95 Q29.75 36.65 30.2 35.75 L30.3 35.65 Q30.55 35.2 30.85 35.1 M16.65 45.7 L18.25 45.55 18.85 45.65 18.95 45.6 19.7 44.65 20.15 43.9 19.9 44.8 19.45 45.7 Q20.55 45.85 21.25 46.35 L21.6 46.55 21.65 46.55 22.05 46.95 22.05 47.45 21.95 47.15 21.55 46.8 21.45 46.7 21.2 46.6 20.6 46.25 20.35 46.25 Q16.5 44.95 15.5 47.0 L15.45 46.8 15.5 46.65 15.65 46.3 Q15.75 46.1 16.2 45.9 L16.65 45.7" fill="#ffff98" fill-rule="evenodd" stroke="none"/>
      <path d="M10.8 37.3 L11.35 37.75 10.95 37.85 10.8 37.9 10.75 37.75 10.75 37.7 Q10.7 37.4 10.8 37.3 M13.55 42.05 L13.7 43.0 13.0 42.45 12.9 42.35 13.55 41.95 13.55 42.05 M28.75 40.7 L28.65 40.8 Q28.35 41.1 28.05 41.1 L27.7 40.95 28.2 40.6 28.25 40.55 28.75 40.7 M27.35 35.25 L27.5 35.1 28.15 34.3 28.8 35.2 28.05 35.25 27.35 35.25 M22.05 43.85 L22.65 44.65 22.45 44.85 22.1 45.05 22.05 44.3 22.05 43.85 M15.7 43.0 Q16.0 42.7 16.7 42.6 L16.9 42.55 16.4 44.0 Q15.75 43.5 15.7 43.0" fill="#8f3600" fill-rule="evenodd" stroke="none"/>
      <path d="M10.35 37.75 L10.45 37.25 10.6 37.25 10.8 37.3 Q10.7 37.4 10.75 37.7 L10.75 37.75 10.8 37.9 10.35 38.05 10.35 37.75 M12.6 39.55 L12.7 39.8 13.1 40.55 13.4 41.4 12.55 42.0 12.6 40.65 12.4 39.75 12.6 39.55 M13.7 43.0 L13.65 43.05 13.6 43.15 13.6 43.2 Q13.3 43.4 12.7 42.7 L12.7 42.65 12.55 42.55 12.9 42.35 13.0 42.45 13.7 43.0 M27.7 40.95 L27.65 40.95 27.25 40.3 28.2 40.55 28.25 40.55 28.2 40.6 27.7 40.95 M27.05 39.75 L27.0 39.7 Q26.8 38.8 26.9 37.65 L27.3 38.05 Q27.3 39.2 27.7 39.9 L27.05 39.75 M28.15 34.3 L28.55 34.2 Q29.05 34.3 29.35 35.1 L29.4 35.15 29.35 35.15 28.8 35.2 28.15 34.3 M21.65 43.6 L21.65 44.05 21.05 43.8 20.3 43.7 20.15 43.65 19.8 42.8 20.85 43.15 21.65 43.6 M22.65 44.65 L22.7 44.95 22.1 45.6 22.1 45.05 22.45 44.85 22.65 44.65 M16.0 44.55 Q15.35 44.0 15.45 43.4 L15.7 43.0 Q15.75 43.5 16.4 44.0 L16.35 44.35 16.2 44.65 16.0 44.55" fill="#a34100" fill-rule="evenodd" stroke="none"/>
      <path d="M11.35 37.75 L11.4 37.75 11.7 38.15 12.6 39.55 12.7 39.8 13.1 40.55 13.4 41.4 13.55 41.9 13.55 42.05 M12.55 42.55 L12.2 42.8 9.9 44.25 9.7 44.4 9.6 44.45 9.55 44.45 9.55 44.5 Q9.3 44.7 8.65 44.05 L7.75 42.8 7.45 42.25 7.05 41.25 6.75 40.15 Q6.45 39.15 6.8 38.9 L6.9 38.95 6.9 38.9 7.1 38.85 M7.15 38.8 L10.35 38.05 10.8 37.9 10.95 37.85 11.35 37.75 M27.25 40.3 L27.1 40.0 27.05 39.75 27.0 39.7 Q26.8 38.8 26.9 37.65 L26.85 37.55 26.9 37.45 27.2 35.75 27.35 35.25 28.05 35.25 28.8 35.2 29.35 35.15 29.4 35.15 29.5 35.15 30.85 35.1 M31.1 35.1 L31.35 35.1 31.45 35.1 Q32.0 35.15 32.2 36.1 L32.3 36.6 32.25 38.35 31.95 39.75 31.6 40.4 31.1 41.0 30.55 41.15 30.35 41.1 30.15 41.05 28.75 40.7 28.25 40.55 28.2 40.55 27.25 40.3 M21.65 43.6 L20.85 43.15 19.8 42.8 19.25 42.7 17.55 42.55 17.4 42.55 16.9 42.55 16.4 44.0 16.35 44.35 16.2 44.65 15.65 46.3 15.5 46.65 15.45 46.8 15.5 47.0 Q15.55 47.5 16.3 47.9 L16.9 48.2 18.6 48.65 18.8 48.6 19.3 48.65 20.9 48.5 21.15 48.45 Q22.0 48.15 22.05 47.65 L22.05 47.5 M21.65 43.6 L21.8 43.7 22.05 43.85 22.05 44.3 22.1 45.05 22.1 45.6 22.05 45.75 22.05 46.95 M22.05 47.45 L21.95 47.15 M13.55 41.95 L12.9 42.35 12.55 42.55 M13.55 41.95 L13.55 41.9" fill="none" stroke="#000000" stroke-linecap="round" stroke-linejoin="round" stroke-opacity="0.3019608" stroke-width="0.30000000000000004"/>
      <path d="M22.05 47.5 L22.05 47.45 22.05 46.95" fill="none" stroke="#000000" stroke-linecap="round" stroke-linejoin="round" stroke-opacity="0.3019608" stroke-width="0.30000000000000004"/>
      <path d="M14.25 33.4 Q14.9 32.85 15.65 32.9 16.35 32.95 16.65 33.4 L16.7 33.4 16.7 33.45 16.75 33.5 17.15 34.25 17.35 34.75 17.35 34.85 17.4 35.35 17.25 35.8 17.3 35.95 16.55 37.1 16.5 37.15 Q15.95 37.6 15.2 37.65 14.5 37.7 13.95 37.15 L13.35 36.2 13.35 36.1 13.35 36.0 Q13.1 35.45 13.3 34.8 13.55 33.95 14.25 33.4" fill="#cc6b22" fill-rule="evenodd" stroke="none"/>
      <path d="M14.05 34.65 Q13.95 34.2 14.25 33.7 14.25 34.1 14.55 33.95 L14.35 34.45 14.4 34.85 14.1 34.7 14.05 34.65 M14.7 33.15 L14.8 33.15 15.1 33.05 15.55 33.0 15.7 33.1 15.7 33.15 15.9 33.4 15.55 33.35 15.5 33.4 Q15.2 33.4 14.95 33.55 15.05 33.2 14.7 33.15 M16.55 32.4 L17.2 33.0 17.5 33.45 17.55 33.55 17.7 34.05 17.7 34.55 17.7 34.6 17.4 33.95 16.95 33.45 17.0 33.4 16.55 32.4 M17.05 35.8 L15.7 36.6 Q14.9 36.75 14.25 36.3 L13.4 35.5 Q13.7 35.75 14.2 35.8 L14.7 35.85 15.9 35.5 Q16.3 35.3 17.05 35.8" fill="#d5d580" fill-rule="evenodd" stroke="none"/>
      <path d="M15.55 33.0 L15.25 32.95 15.05 32.95 14.3 33.25 Q13.95 33.6 13.9 34.05 13.8 34.35 14.0 34.6 L14.05 34.65 14.1 34.7 14.4 34.85 14.55 34.9 14.85 34.9 15.55 34.55 15.95 33.8 15.95 33.65 15.95 33.5 15.9 33.4 15.7 33.15 15.7 33.1 15.55 33.0 M13.2 35.3 L13.15 35.25 Q12.8 34.75 12.85 34.15 12.95 33.3 13.6 32.7 14.3 32.0 15.15 31.95 15.9 31.9 16.4 32.35 L16.45 32.35 16.55 32.4 17.0 33.4 16.95 33.45 16.95 33.65 17.0 33.8 16.95 33.95 Q16.35 35.25 14.7 35.85 L14.2 35.8 Q13.7 35.75 13.4 35.5 L13.3 35.4 13.3 35.45 13.2 35.3 13.3 35.4 13.2 35.3" fill="#f0f0d2" fill-rule="evenodd" stroke="none"/>
      <path d="M14.25 33.7 L14.3 33.55 14.7 33.15 Q15.05 33.2 14.95 33.55 L14.75 33.7 14.55 33.95 Q14.25 34.1 14.25 33.7 M17.7 34.6 Q17.6 35.25 17.1 35.8 L17.05 35.75 Q16.45 35.3 16.6 34.95 L16.95 33.95 17.0 33.8 16.95 33.65 16.95 33.45 17.4 33.95 17.7 34.6" fill="#e6e4b3" fill-rule="evenodd" stroke="none"/>
      <path d="M14.05 34.65 L14.0 34.6 Q13.8 34.35 13.9 34.05 13.95 33.6 14.3 33.25 L15.05 32.95 15.25 32.95 15.55 33.0 15.1 33.05 14.8 33.15 14.7 33.15 14.3 33.55 14.25 33.7 Q13.95 34.2 14.05 34.65 M17.05 35.75 L17.05 35.8 Q16.3 35.3 15.9 35.5 L14.7 35.85 Q16.35 35.25 16.95 33.95 L16.6 34.95 Q16.45 35.3 17.05 35.75" fill="#ffffff" fill-rule="evenodd" stroke="none"/>
      <path d="M15.9 33.4 L15.95 33.5 15.95 33.65 15.95 33.8 15.55 34.55 14.85 34.9 14.55 34.9 14.4 34.85 14.35 34.45 14.55 33.95 14.75 33.7 14.95 33.55 Q15.2 33.4 15.5 33.4 L15.55 33.35 15.9 33.4" fill="#cac960" fill-rule="evenodd" stroke="none"/>
      <path d="M13.4 35.5 L13.3 35.45 13.3 35.4 13.4 35.5" fill="#825a20" fill-rule="evenodd" stroke="none"/>
      <path d="M15.55 33.0 L15.7 33.1 M15.7 33.15 L15.9 33.4 15.95 33.5 15.95 33.65 15.95 33.8 15.55 34.55 14.85 34.9 14.55 34.9 14.4 34.85 M13.2 35.3 L13.15 35.25 Q12.8 34.75 12.85 34.15 12.95 33.3 13.6 32.7 14.3 32.0 15.15 31.95 15.9 31.9 16.4 32.35 L16.45 32.35 16.55 32.4 17.2 33.0 17.5 33.45 17.55 33.55 17.7 34.05 17.7 34.55 17.7 34.6 Q17.6 35.25 17.1 35.8 L17.05 35.75 17.05 35.8 15.7 36.6 Q14.9 36.75 14.25 36.3 L13.4 35.5 13.3 35.4 13.2 35.3" fill="none" stroke="#000000" stroke-linecap="round" stroke-linejoin="round" stroke-opacity="0.3019608" stroke-width="0.30000000000000004"/>
    </g>
    <g id="sprite1" transform="matrix(1.0, 0.0, 0.0, 1.0, 0.0, 0.0)">
      <use height="26.7" transform="matrix(0.0042, -1.3515, 1.3935, 0.02, 22.09, 56.0263)" width="26.7" xlink:href="#sprite2"/>
      <use height="26.7" transform="matrix(0.0095, -3.0486, 0.372, 0.0053, 36.507, 81.3775)" width="26.7" xlink:href="#sprite2"/>
      <use height="26.7" transform="matrix(3.0486, 0.0095, -0.0053, 0.372, 0.1225, 35.107)" width="26.7" xlink:href="#sprite2"/>
    </g>
    <g id="sprite2" transform="matrix(1.0, 0.0, 0.0, 1.0, 13.35, 13.35)">
      <use height="26.7" transform="matrix(1.0, 0.0, 0.0, 1.0, -13.35, -13.35)" width="26.7" xlink:href="#shape1"/>
    </g>
    <g id="shape1" transform="matrix(1.0, 0.0, 0.0, 1.0, 13.35, 13.35)">
      <path d="M9.3 -9.85 Q13.35 -5.8 13.35 0.0 13.35 5.8 9.3 9.3 5.8 13.35 0.0 13.35 -5.8 13.35 -9.85 9.3 -13.35 5.8 -13.35 0.0 -13.35 -5.8 -9.85 -9.85 -5.8 -13.35 0.0 -13.35 5.8 -13.35 9.3 -9.85" fill="url(#gradient0)" fill-rule="evenodd" stroke="none"/>
    </g>
    <radialGradient cx="0" cy="0" gradientTransform="matrix(0.0213, 0.0, 0.0, 0.0213, 0.0, 0.0)" gradientUnits="userSpaceOnUse" id="gradient0" r="819.2" spreadMethod="pad">
      <stop offset="0.19607843137254902" stop-color="#fee3bc" stop-opacity="0.30588236"/>
      <stop offset="0.5019607843137255" stop-color="#fee3bc" stop-opacity="0.047058824"/>
      <stop offset="0.7607843137254902" stop-color="#ffe3bd" stop-opacity="0.0"/>
    </radialGradient>
  </defs>
</svg>
