<?xml version="1.0" encoding="UTF-8" standalone="no"?>
<svg xmlns:xlink="http://www.w3.org/1999/xlink" height="52.0px" width="52.0px" xmlns="http://www.w3.org/2000/svg">
  <g transform="matrix(1.0, 0.0, 0.0, 1.0, 0.0, 0.0)">
    <use height="58.0" transform="matrix(1.0, 0.0, 0.0, 1.0, -3.0, -3.0)" width="58.0" xlink:href="#shape0"/>
    <use height="81.5" transform="matrix(0.1303, 0.0, 0.0, 0.1303, 22.8, 13.9)" width="81.5" xlink:href="#sprite0"/>
  </g>
  <defs>
    <g id="shape0" transform="matrix(1.0, 0.0, 0.0, 1.0, 3.0, 3.0)">
      <path d="M52.0 0.0 L52.0 52.0 0.0 52.0 0.0 0.0 52.0 0.0" fill="#795fa9" fill-opacity="0.0" fill-rule="evenodd" stroke="none"/>
      <path d="M6.7 17.6 Q6.5 19.0 6.85 20.35 L7.3 21.65 8.2 23.05 9.05 24.1 9.7 24.7 10.2 25.1 10.9 25.5 Q11.45 25.85 12.15 26.0 L12.35 26.05 12.4 26.05 12.95 26.15 Q13.45 27.15 14.4 27.85 L14.4 28.0 Q14.5 29.45 13.65 30.8 L13.45 31.0 10.75 29.9 10.7 29.95 Q9.25 31.55 9.7 32.75 L10.3 34.65 11.0 35.45 11.1 35.6 11.0 36.15 10.95 37.35 Q10.95 38.95 11.4 40.35 L11.1 40.55 10.05 41.55 9.25 42.5 Q8.75 43.4 9.2 44.05 L10.1 45.6 10.15 45.65 10.65 45.85 11.75 45.8 12.0 45.7 13.1 45.05 13.25 44.95 14.0 44.2 Q16.9 46.85 20.9 46.85 L21.1 46.85 21.25 47.15 21.85 48.0 22.05 48.25 Q22.5 48.6 23.05 48.6 L23.35 48.6 23.55 48.45 24.15 47.85 24.35 47.45 24.35 47.35 24.45 46.35 24.45 46.25 Q26.4 45.55 27.95 44.05 30.15 41.95 30.7 39.15 L30.75 39.15 32.15 39.2 32.9 39.1 34.4 38.75 34.7 38.6 35.65 37.7 36.05 36.45 36.05 36.15 36.0 34.9 35.95 34.8 35.45 33.25 30.8 33.6 Q31.35 31.45 33.25 29.35 34.8 30.35 36.65 30.15 L37.15 30.05 37.75 29.95 40.0 29.0 42.95 26.9 44.0 25.65 Q44.8 24.5 45.25 23.15 L45.3 22.75 45.35 21.2 Q45.1 18.95 43.1 18.25 L42.0 18.05 41.95 18.05 41.4 18.0 41.2 18.0 Q39.6 18.05 37.9 18.85 L37.65 19.0 37.2 19.2 Q36.45 16.55 33.95 14.45 32.3 13.15 30.35 12.4 L30.65 11.6 31.85 11.05 Q36.35 8.55 37.35 6.2 36.5 5.1 30.65 4.0 L29.45 3.8 24.0 4.1 Q24.55 7.5 27.1 10.85 L26.8 11.55 Q23.05 11.15 20.15 12.8 L19.8 12.9 18.05 13.3 16.6 14.3 Q15.95 14.5 15.35 14.9 L13.15 13.9 8.05 14.1 Q6.7 15.6 6.7 17.5 L6.7 17.6 M29.2 8.75 Q27.95 7.45 27.85 6.1 L30.3 6.3 32.5 6.8 30.85 8.0 29.2 8.75 M28.9 15.5 L28.95 15.45 28.65 15.25 28.9 15.5" fill="none" stroke="#000000" stroke-linecap="round" stroke-linejoin="round" stroke-opacity="0.3019608" stroke-width="1.0"/>
      <path d="M35.85 5.85 L33.15 4.85 29.55 4.1 Q26.95 3.75 24.65 4.1 24.0 4.55 26.2 5.3 25.1 5.2 24.45 4.8 25.25 7.7 27.6 10.7 L26.3 14.15 25.75 14.05 27.1 10.85 Q24.5 7.5 24.0 4.1 L29.45 3.8 30.65 3.95 Q36.45 5.1 37.35 6.2 L37.0 6.15 36.65 6.1 36.3 5.95 35.85 5.85 M32.95 8.2 L31.3 9.25 30.8 9.45 28.8 10.2 Q28.35 11.0 27.6 13.45 L28.55 10.0 Q27.25 8.8 26.8 6.75 L26.75 6.1 Q27.2 7.85 28.65 9.5 L29.05 9.85 31.2 9.15 32.95 8.2 M32.45 6.8 L33.2 7.1 31.0 8.45 28.75 9.15 29.15 8.75 30.85 8.0 32.45 6.8" fill="#ea6004" fill-rule="evenodd" stroke="none"/>
      <path d="M26.2 5.3 Q24.0 4.55 24.65 4.1 26.95 3.75 29.55 4.1 L33.15 4.85 35.85 5.85 Q34.1 5.3 32.4 5.15 L29.9 5.15 29.35 5.2 26.2 5.3 M33.2 7.1 L33.9 7.4 32.95 8.2 31.2 9.15 29.05 9.85 28.65 9.5 28.75 9.15 31.0 8.45 33.2 7.1" fill="#ca5202" fill-rule="evenodd" stroke="none"/>
      <path d="M37.0 6.15 L37.35 6.2 Q36.35 8.55 31.8 11.0 L30.65 11.65 29.45 14.7 29.0 14.6 30.3 11.1 31.65 10.5 Q35.35 8.7 37.0 6.15 M26.3 14.15 L27.6 10.7 Q25.25 7.7 24.45 4.8 25.1 5.2 26.2 5.3 L29.35 5.2 29.9 5.15 32.4 5.15 Q34.6 5.65 34.8 7.2 34.1 8.6 31.45 9.85 L28.95 10.8 27.65 14.35 26.3 14.15 M32.95 8.2 L33.9 7.4 33.2 7.1 32.45 6.8 30.25 6.25 27.85 6.1 26.75 6.1 26.8 6.75 Q27.25 8.8 28.55 10.0 L27.6 13.45 Q28.35 11.0 28.8 10.2 L30.8 9.45 31.3 9.25 32.95 8.2" fill="#a34100" fill-rule="evenodd" stroke="none"/>
      <path d="M35.85 5.85 L36.3 5.95 36.65 6.1 37.0 6.15 Q35.35 8.7 31.65 10.5 L30.3 11.1 29.0 14.6 27.65 14.35 28.95 10.8 31.45 9.85 Q34.1 8.6 34.8 7.2 34.6 5.65 32.4 5.15 34.1 5.3 35.85 5.85 M26.75 6.1 L27.85 6.1 Q27.9 7.45 29.15 8.75 L28.75 9.15 28.65 9.5 Q27.2 7.85 26.75 6.1" fill="#7e3301" fill-rule="evenodd" stroke="none"/>
      <path d="M37.35 6.2 Q36.45 5.1 30.65 3.95 L29.45 3.8 24.0 4.1 Q24.5 7.5 27.1 10.85 L25.75 14.05 26.3 14.15 27.65 14.35 29.0 14.6 29.45 14.7 30.65 11.65 31.8 11.0 Q36.35 8.55 37.35 6.2 M27.85 6.1 L30.25 6.25 32.45 6.8 30.85 8.0 29.15 8.75 Q27.9 7.45 27.85 6.1" fill="none" stroke="#000000" stroke-linecap="round" stroke-linejoin="round" stroke-opacity="0.3019608" stroke-width="0.30000000000000004"/>
      <path d="M10.3 33.75 L9.7 32.75 Q9.2 31.55 10.65 30.0 10.05 30.7 10.2 31.8 L10.4 32.9 10.75 33.5 12.1 34.85 11.9 35.15 10.3 33.75" fill="#ea6004" fill-rule="evenodd" stroke="none"/>
      <path d="M9.7 32.75 L10.3 33.75 11.0 35.45 10.3 34.65 9.7 32.75 M10.75 33.5 L10.4 32.9 10.2 31.8 13.0 30.85 14.4 31.4 13.8 32.3 Q11.85 32.4 10.75 33.5" fill="#ca5202" fill-rule="evenodd" stroke="none"/>
      <path d="M12.1 34.85 L10.75 33.5 Q11.85 32.4 13.8 32.3 L12.1 34.85 M10.2 31.8 Q10.05 30.7 10.65 30.0 L10.7 29.95 10.7 29.9 13.0 30.85 10.2 31.8" fill="#a34100" fill-rule="evenodd" stroke="none"/>
      <path d="M10.3 33.75 L11.9 35.15 12.8 36.5 Q11.8 36.3 11.0 35.45 L10.3 33.75" fill="#7e3301" fill-rule="evenodd" stroke="none"/>
      <path d="M11.9 35.15 L12.1 34.85 13.8 32.3 14.4 31.4 13.0 30.85 10.7 29.9 10.7 29.95 10.65 30.0 Q9.2 31.55 9.7 32.75 L10.3 34.65 11.0 35.45 Q11.8 36.3 12.8 36.5 L11.9 35.15 Z" fill="none" stroke="#000000" stroke-linecap="round" stroke-linejoin="round" stroke-opacity="0.3019608" stroke-width="0.30000000000000004"/>
      <path d="M9.9 16.1 L11.85 16.2 12.35 16.35 Q13.55 15.35 13.4 14.4 L12.95 14.25 Q10.3 13.45 8.3 14.3 5.65 17.95 8.8 21.95 L9.05 22.25 9.55 22.75 Q10.95 21.7 10.9 19.7 L11.45 20.2 Q12.1 20.75 12.9 21.05 11.85 21.95 11.95 24.0 L13.05 24.1 15.0 23.85 15.0 24.15 12.85 24.6 12.5 24.6 Q12.25 24.85 12.6 25.35 L13.3 26.15 12.4 26.05 12.3 26.05 12.1 26.0 12.15 25.95 Q12.3 25.15 10.9 24.2 9.65 23.6 8.6 22.3 L8.25 21.9 8.2 21.85 7.75 21.15 7.0 19.5 Q6.7 18.5 6.7 17.6 L6.7 17.5 Q6.7 15.6 8.05 14.1 10.1 12.8 13.15 13.85 14.65 14.4 16.35 15.5 L16.25 15.75 15.1 15.15 Q14.0 15.75 13.95 17.1 L15.3 18.05 15.2 18.25 13.65 17.25 Q12.7 16.7 11.75 16.45 L11.5 16.35 9.9 16.1" fill="#ea6004" fill-rule="evenodd" stroke="none"/>
      <path d="M10.9 19.7 Q10.95 21.7 9.55 22.75 L9.05 22.25 8.8 21.95 Q5.65 17.95 8.3 14.3 10.3 13.45 12.95 14.25 L13.4 14.4 Q13.55 15.35 12.35 16.35 L11.85 16.2 9.9 16.1 Q9.5 17.65 10.35 19.0 L10.9 19.7 M15.3 18.05 L13.95 17.1 Q14.0 15.75 15.1 15.15 L16.25 15.75 15.3 18.05 M6.7 17.6 Q6.7 18.5 7.0 19.5 L7.3 21.65 6.85 20.35 Q6.5 19.0 6.7 17.6 M15.0 23.85 L13.05 24.1 11.95 24.0 Q11.85 21.95 12.9 21.05 L14.1 21.3 15.15 21.3 15.0 23.85" fill="#ca5202" fill-rule="evenodd" stroke="none"/>
      <path d="M11.5 16.35 L11.75 16.45 Q12.7 16.7 13.65 17.25 14.9 18.7 14.4 18.85 L12.75 18.05 14.4 18.85 15.25 19.4 15.15 21.3 14.1 21.3 12.9 21.05 Q12.1 20.75 11.45 20.2 L10.9 19.7 10.35 19.0 Q9.5 17.65 9.9 16.1 L10.75 17.45 11.15 17.55 12.75 18.05 11.75 17.05 Q11.45 16.6 11.5 16.35 M7.0 19.5 L7.75 21.15 8.2 21.85 8.25 21.9 8.6 22.3 Q9.65 23.6 10.9 24.2 12.3 25.15 12.15 25.95 L12.1 26.0 Q11.45 25.85 10.85 25.5 L10.15 25.1 9.7 24.7 9.05 24.1 8.15 23.1 7.3 21.65 7.0 19.5 M13.3 26.15 L12.6 25.35 Q12.25 24.85 12.5 24.6 L12.85 24.6 15.0 24.15 15.75 25.8 13.3 26.15 M11.45 20.2 Q10.8 19.25 10.65 18.45 L10.75 17.45 10.65 18.45 Q10.8 19.25 11.45 20.2" fill="#a34100" fill-rule="evenodd" stroke="none"/>
      <path d="M9.9 16.1 L11.5 16.35 Q11.45 16.6 11.75 17.05 L12.75 18.05 11.15 17.55 10.75 17.45 9.9 16.1 M13.65 17.25 L15.2 18.25 15.25 19.4 14.4 18.85 Q14.9 18.7 13.65 17.25" fill="#7e3301" fill-rule="evenodd" stroke="none"/>
      <path d="M15.2 18.25 L15.3 18.05 16.25 15.75 16.35 15.5 Q14.65 14.4 13.15 13.85 10.1 12.8 8.05 14.1 6.7 15.6 6.7 17.5 L6.7 17.6 Q6.5 19.0 6.85 20.35 L7.3 21.65 8.15 23.1 9.05 24.1 9.7 24.7 10.15 25.1 10.85 25.5 Q11.45 25.85 12.1 26.0 L12.3 26.05 12.4 26.05 13.3 26.15 15.75 25.8 15.0 24.15 15.0 23.85 15.15 21.3 14.1 21.3 12.9 21.05 Q12.1 20.75 11.45 20.2 L10.9 19.7 M10.75 17.45 L11.15 17.55 12.75 18.05 14.4 18.85 15.25 19.4 15.15 21.3 M15.25 19.4 L15.2 18.25 M10.75 17.45 L10.65 18.45 Q10.8 19.25 11.45 20.2" fill="none" stroke="#000000" stroke-linecap="round" stroke-linejoin="round" stroke-opacity="0.3019608" stroke-width="0.30000000000000004"/>
      <path d="M14.2 27.0 L14.15 26.95 13.8 26.15 14.55 26.95 Q15.7 29.0 14.6 30.8 L13.7 31.35 Q15.2 29.8 14.35 27.45 L14.2 27.0 M17.35 18.05 L13.2 23.35 Q12.85 19.4 16.25 14.85 17.45 13.85 18.95 13.35 L20.9 13.1 18.6 16.5 18.5 16.6 17.4 17.95 17.35 18.05 M24.5 14.45 Q29.7 18.5 27.0 25.55 25.95 27.15 23.95 28.15 17.9 29.85 16.3 27.6 14.7 24.9 18.4 18.8 L18.45 18.75 Q20.75 15.85 24.5 14.45 M13.45 35.9 Q12.4 37.5 11.9 36.75 11.8 34.1 14.25 31.55 15.35 30.9 16.55 30.7 L15.35 33.0 13.45 35.9 M21.7 31.65 Q24.0 33.0 24.2 36.2 23.7 38.65 21.8 39.85 16.8 41.45 15.8 39.05 15.25 35.75 17.7 32.95 19.25 31.7 21.7 31.65" fill="#f0f0d2" fill-rule="evenodd" stroke="none"/>
      <path d="M13.15 24.65 L13.05 24.35 Q12.65 23.05 12.65 21.65 L12.75 20.35 Q13.25 16.95 16.35 14.5 L18.05 13.3 19.8 12.9 20.15 12.8 21.55 12.75 22.3 12.75 Q25.8 12.95 28.55 15.2 L28.7 15.3 28.9 15.45 Q32.1 18.2 32.35 22.05 32.6 25.9 29.85 28.65 L29.65 28.85 29.25 29.2 29.1 29.35 28.5 29.8 Q27.4 30.7 27.45 31.95 L27.65 32.7 27.65 32.75 27.8 33.45 27.75 35.25 Q27.25 37.55 25.2 39.25 L24.45 39.85 Q22.4 41.25 20.0 41.6 L18.35 41.7 18.1 41.7 15.35 41.25 14.5 40.85 13.6 40.3 13.05 39.85 11.9 38.3 11.7 37.8 11.5 36.5 11.6 35.25 11.65 35.05 Q11.9 34.0 12.45 33.05 12.95 32.15 13.7 31.35 L14.6 30.8 Q16.3 29.9 18.55 30.15 L19.9 30.35 20.05 30.4 Q21.85 30.8 22.85 31.8 24.3 33.1 24.3 35.4 L24.2 36.2 Q24.0 33.0 21.7 31.65 20.3 30.75 18.1 30.6 L17.45 30.6 15.35 33.0 16.55 30.7 Q15.35 30.9 14.25 31.55 11.8 34.1 11.9 36.75 12.4 37.5 13.45 35.9 L12.4 38.05 12.05 37.75 Q12.65 39.45 14.3 40.4 15.4 41.15 16.05 41.25 L17.85 41.45 18.1 41.45 Q21.3 41.35 23.95 39.55 26.4 37.85 27.1 35.55 27.45 32.75 24.4 31.0 26.6 31.7 27.35 33.85 L27.3 33.25 27.15 32.55 27.15 32.45 Q26.6 30.8 28.0 29.6 L24.65 30.1 24.4 30.05 24.55 30.05 Q27.85 29.65 29.05 28.75 L29.35 28.5 Q32.15 25.8 31.9 22.0 31.6 18.15 28.45 15.45 27.05 14.5 25.55 13.85 27.95 16.35 28.2 20.3 28.45 23.45 27.0 25.55 29.7 18.5 24.5 14.45 23.6 13.75 22.5 13.15 L21.8 13.1 18.6 16.5 20.9 13.1 18.95 13.35 Q17.45 13.85 16.25 14.85 12.85 19.4 13.2 23.35 L17.35 18.05 Q15.25 20.9 13.15 24.65 M14.3 27.5 L14.3 27.45 14.35 27.45 14.3 27.5 M23.95 28.15 L23.35 28.4 Q21.25 29.2 19.1 29.2 17.0 29.0 15.0 27.35 15.75 22.1 18.4 18.8 14.7 24.9 16.3 27.6 17.9 29.85 23.95 28.15 M21.8 39.85 Q20.75 40.55 18.45 40.7 15.0 40.8 14.75 39.55 15.3 34.85 17.7 32.95 15.25 35.75 15.8 39.05 16.8 41.45 21.8 39.85" fill="#f9f8ec" fill-rule="evenodd" stroke="none"/>
      <path d="M24.55 30.05 L24.4 30.05 24.65 30.1 28.0 29.6 Q26.6 30.8 27.15 32.45 L27.15 32.55 27.3 33.25 27.35 33.85 Q26.6 31.7 24.4 31.0 L24.25 30.95 20.05 30.4 19.9 30.35 18.55 30.15 Q16.3 29.9 14.6 30.8 15.7 29.0 14.55 26.95 L15.0 27.35 Q17.0 29.0 19.1 29.2 L24.55 30.05 M20.0 41.6 Q22.4 41.25 24.45 39.85 L25.2 39.25 25.55 40.0 25.25 40.2 24.3 40.8 Q22.7 41.65 21.0 41.95 L20.0 41.6 M27.45 31.95 Q27.4 30.7 28.5 29.8 L29.1 29.35 29.25 29.2 29.65 28.85 30.05 29.4 29.8 29.65 29.65 29.75 29.05 30.2 Q27.9 31.35 28.45 33.05 L27.45 31.95" fill="#a6a637" fill-rule="evenodd" stroke="none"/>
      <path d="M13.8 26.15 L13.75 25.95 13.65 25.8 13.15 24.65 Q15.25 20.9 17.35 18.05 L17.4 17.95 18.5 16.6 18.6 16.5 21.8 13.1 22.5 13.15 Q23.6 13.75 24.5 14.45 20.75 15.85 18.45 18.75 L18.4 18.8 Q15.75 22.1 15.0 27.35 L14.55 26.95 13.8 26.15 M27.0 25.55 Q28.45 23.45 28.2 20.3 27.95 16.35 25.55 13.85 27.05 14.5 28.45 15.45 31.6 18.15 31.9 22.0 32.15 25.8 29.35 28.5 L29.05 28.75 Q27.85 29.65 24.55 30.05 L19.1 29.2 Q21.25 29.2 23.35 28.4 L23.95 28.15 Q25.95 27.15 27.0 25.55 M24.4 31.0 Q27.45 32.75 27.1 35.55 26.4 37.85 23.95 39.55 21.3 41.35 18.1 41.45 L17.85 41.45 16.05 41.25 Q15.4 41.15 14.3 40.4 12.65 39.45 12.05 37.75 L12.4 38.05 13.45 35.9 15.35 33.0 17.45 30.6 18.1 30.6 Q20.3 30.75 21.7 31.65 19.25 31.7 17.7 32.95 15.3 34.85 14.75 39.55 15.0 40.8 18.45 40.7 20.75 40.55 21.8 39.85 23.7 38.65 24.2 36.2 L24.3 35.4 Q24.3 33.1 22.85 31.8 21.85 30.8 20.05 30.4 L24.25 30.95 24.4 31.0" fill="#d5d580" fill-rule="evenodd" stroke="none"/>
      <path d="M15.35 41.25 L18.1 41.7 18.35 41.7 20.0 41.6 21.0 41.95 19.2 42.1 16.1 41.55 15.35 41.25 M25.2 39.25 Q27.25 37.55 27.75 35.25 L27.8 33.45 27.65 32.75 27.65 32.7 27.45 31.95 28.45 33.05 28.45 33.1 28.65 33.8 28.55 35.6 Q28.1 37.75 26.25 39.4 L25.55 40.0 25.2 39.25 M29.65 28.85 L29.85 28.65 Q32.6 25.9 32.35 22.05 32.1 18.2 28.9 15.45 L29.45 15.9 30.75 17.15 Q32.7 19.5 32.9 22.5 33.0 24.05 32.6 25.45 32.05 27.45 30.4 29.1 L30.05 29.4 29.65 28.85" fill="#bfbf40" fill-rule="evenodd" stroke="none"/>
      <path d="M20.15 12.8 Q23.15 11.1 27.0 11.6 30.95 12.05 33.95 14.5 37.6 17.45 37.5 21.65 37.5 25.85 33.8 28.8 L33.65 28.95 Q30.75 31.9 30.55 35.05 L30.85 37.35 Q30.85 41.3 27.9 44.1 25.0 46.85 20.9 46.85 16.75 46.85 13.85 44.1 10.9 41.3 10.9 37.35 L11.0 36.15 Q11.35 33.1 13.65 30.8 14.5 29.45 14.4 28.0 L14.3 27.5 14.35 27.45 Q15.2 29.8 13.7 31.35 12.95 32.15 12.45 33.05 11.9 34.0 11.65 35.05 L11.6 35.25 11.5 36.5 11.7 37.8 11.95 39.45 Q12.5 42.55 15.55 44.7 L16.5 45.3 Q20.55 46.95 24.15 45.6 25.9 44.9 27.55 43.5 30.6 40.0 30.2 37.25 29.85 34.8 30.2 33.25 L30.3 32.85 Q31.2 30.15 34.3 27.4 L35.75 25.75 Q37.2 23.5 36.85 20.5 36.15 17.3 33.9 15.25 34.3 16.6 32.35 17.0 34.9 16.2 31.55 13.55 30.35 12.9 28.85 12.4 24.45 11.4 22.3 12.75 L21.55 12.75 20.15 12.8" fill="#ea6004" fill-rule="evenodd" stroke="none"/>
      <path d="M11.7 37.8 L11.9 38.3 13.05 39.85 13.6 40.3 14.5 40.85 Q13.7 42.35 15.55 44.7 12.5 42.55 11.95 39.45 L11.7 37.8 M28.7 15.3 L28.55 15.2 Q25.8 12.95 22.3 12.75 24.45 11.4 28.85 12.4 30.35 12.9 31.55 13.55 34.9 16.2 32.35 17.0 L30.75 17.15 29.45 15.9 28.9 15.45 28.7 15.3" fill="#ca5202" fill-rule="evenodd" stroke="none"/>
      <path d="M14.5 40.85 L15.35 41.25 16.1 41.55 19.2 42.1 21.0 41.95 Q22.7 41.65 24.3 40.8 27.25 43.7 24.15 45.6 20.55 46.95 16.5 45.3 L15.55 44.7 Q13.7 42.35 14.5 40.85 M32.35 17.0 Q34.3 16.6 33.9 15.25 36.15 17.3 36.85 20.5 37.2 23.5 35.75 25.75 33.25 27.05 32.6 25.45 33.0 24.05 32.9 22.5 32.7 19.5 30.75 17.15 L32.35 17.0 M30.2 33.25 Q29.85 34.8 30.2 37.25 30.6 40.0 27.55 43.5 25.8 43.4 26.25 39.4 28.1 37.75 28.55 35.6 L28.65 33.8 28.45 33.1 28.45 33.05 Q29.7 32.45 30.2 33.25" fill="#a34100" fill-rule="evenodd" stroke="none"/>
      <path d="M35.75 25.75 L34.3 27.4 Q31.2 30.15 30.3 32.85 L30.2 33.25 Q29.7 32.45 28.45 33.05 27.9 31.35 29.05 30.2 L29.65 29.75 29.8 29.65 30.05 29.4 30.4 29.1 Q32.05 27.45 32.6 25.45 33.25 27.05 35.75 25.75 M27.55 43.5 Q25.9 44.9 24.15 45.6 27.25 43.7 24.3 40.8 L25.25 40.2 25.55 40.0 26.25 39.4 Q25.8 43.4 27.55 43.5" fill="#7e3301" fill-rule="evenodd" stroke="none"/>
      <path d="M13.15 24.65 L13.05 24.35 Q12.65 23.05 12.65 21.65 L12.75 20.35 Q13.25 16.95 16.35 14.5 L18.05 13.3 19.8 12.9 20.15 12.8 Q23.15 11.1 27.0 11.6 30.95 12.05 33.95 14.5 37.6 17.45 37.5 21.65 37.5 25.85 33.8 28.8 L33.65 28.95 Q30.75 31.9 30.55 35.05 L30.85 37.35 Q30.85 41.3 27.9 44.1 25.0 46.85 20.9 46.85 16.75 46.85 13.85 44.1 10.9 41.3 10.9 37.35 L11.0 36.15 Q11.35 33.1 13.65 30.8 14.5 29.45 14.4 28.0 L14.3 27.5 14.3 27.45 14.2 27.0 14.15 26.95 13.8 26.15 13.75 25.95 13.65 25.8 13.15 24.65 M13.7 31.35 Q12.95 32.15 12.45 33.05 11.9 34.0 11.65 35.05 L11.6 35.25 11.5 36.5 11.7 37.8 11.9 38.3 13.05 39.85 13.6 40.3 14.5 40.85 15.35 41.25 16.1 41.55 19.2 42.1 21.0 41.95 Q22.7 41.65 24.3 40.8 L25.25 40.2 25.55 40.0 26.25 39.4 Q28.1 37.75 28.55 35.6 L28.65 33.8 28.45 33.1 28.45 33.05 Q27.9 31.35 29.05 30.2 L29.65 29.75 29.8 29.65 30.05 29.4 30.4 29.1 Q32.05 27.45 32.6 25.45 33.0 24.05 32.9 22.5 32.7 19.5 30.75 17.15 L29.45 15.9 28.9 15.45 28.7 15.3 28.55 15.2 Q25.8 12.95 22.3 12.75 L21.55 12.75 20.15 12.8 M28.7 15.3 L28.9 15.45 M14.2 27.0 L14.35 27.45 Q15.2 29.8 13.7 31.35" fill="none" stroke="#000000" stroke-linecap="round" stroke-linejoin="round" stroke-opacity="0.3019608" stroke-width="0.30000000000000004"/>
      <path d="M40.95 20.95 L40.95 20.85 41.0 20.9 41.05 21.05 40.95 20.95" fill="#f9f8ec" fill-rule="evenodd" stroke="none"/>
      <path d="M42.0 18.05 L41.95 18.05 42.0 18.05" fill="#d5d580" fill-rule="evenodd" stroke="none"/>
      <path d="M42.0 18.05 Q43.35 18.35 43.7 19.3 44.45 19.9 44.9 21.1 L45.3 22.75 Q44.5 20.35 43.8 20.0 L43.75 20.7 43.25 22.15 42.4 23.4 42.15 23.7 Q40.0 26.55 37.85 27.45 L37.35 27.65 Q36.95 28.0 37.2 28.85 L37.75 29.95 37.1 30.1 36.85 29.05 Q36.6 28.35 35.7 28.05 L32.75 27.3 32.9 26.75 Q35.4 28.0 37.45 27.2 37.75 25.15 37.1 24.8 L37.65 24.6 39.75 23.0 Q39.25 24.1 39.1 24.85 38.95 25.65 39.15 26.1 40.85 24.7 41.8 23.35 42.9 21.9 43.2 20.55 L43.25 20.05 Q43.4 18.95 42.35 18.45 L42.1 18.45 41.55 18.4 41.2 18.4 39.95 19.55 Q39.65 19.9 39.8 20.15 L39.95 20.35 Q40.7 20.45 40.95 20.85 L40.95 20.95 Q40.25 20.5 39.0 20.6 37.75 20.65 36.9 21.15 35.3 21.85 34.25 22.9 L34.4 22.4 Q36.25 21.05 37.6 20.55 L38.2 19.6 Q38.35 19.2 38.05 19.2 L37.85 19.25 Q36.55 19.75 35.05 20.6 36.35 19.6 37.6 19.0 L37.85 18.85 Q39.6 18.05 41.2 18.0 L41.4 18.0 41.95 18.05 42.0 18.05" fill="#ea6004" fill-rule="evenodd" stroke="none"/>
      <path d="M45.3 22.75 L44.9 21.1 Q44.45 19.9 43.7 19.3 43.35 18.35 42.0 18.05 L43.05 18.25 Q45.1 18.95 45.3 21.2 L45.3 22.75 M35.05 20.6 Q36.55 19.75 37.85 19.25 L38.05 19.2 Q38.35 19.2 38.2 19.6 L37.6 20.55 Q36.25 21.05 34.4 22.4 L34.7 20.9 35.05 20.6 M40.95 20.85 Q40.7 20.45 39.95 20.35 L39.8 20.15 Q39.65 19.9 39.95 19.55 L41.2 18.4 41.55 18.4 42.1 18.45 42.35 18.45 Q43.4 18.95 43.25 20.05 L43.2 20.55 Q42.9 21.9 41.8 23.35 40.85 24.7 39.15 26.1 38.95 25.65 39.1 24.85 39.25 24.1 39.75 23.0 L40.2 22.55 40.55 22.15 40.55 22.1 41.05 21.05 41.0 20.9 40.95 20.85 M37.1 24.8 Q37.75 25.15 37.45 27.2 35.4 28.0 32.9 26.75 L33.8 25.0 34.4 25.2 37.1 24.8" fill="#ca5202" fill-rule="evenodd" stroke="none"/>
      <path d="M39.75 23.0 L37.65 24.6 37.1 24.8 34.4 25.2 34.55 24.5 Q35.5 23.9 36.45 23.45 37.05 23.1 37.7 22.9 39.0 22.35 40.35 22.15 L40.55 22.15 40.2 22.55 39.75 23.0 M32.75 27.3 L35.7 28.05 Q36.6 28.35 36.85 29.05 L37.1 30.1 36.6 30.15 Q34.75 30.35 33.2 29.3 33.5 28.2 32.75 27.3 M42.4 23.4 L43.25 22.15 43.75 20.7 43.8 20.0 Q44.5 20.35 45.3 22.75 L45.25 23.1 43.95 25.65 42.9 26.9 43.0 24.6 Q42.9 23.7 42.4 23.4" fill="#a34100" fill-rule="evenodd" stroke="none"/>
      <path d="M34.25 22.9 Q35.3 21.85 36.9 21.15 37.9 21.5 38.0 21.95 L37.7 22.9 Q37.05 23.1 36.45 23.45 35.5 23.9 34.55 24.5 L34.25 22.9 M37.75 29.95 L37.2 28.85 Q36.95 28.0 37.35 27.65 L37.85 27.45 Q40.0 26.55 42.15 23.7 L42.4 23.4 Q42.9 23.7 43.0 24.6 L42.9 26.9 39.95 29.0 37.75 29.95" fill="#7e3301" fill-rule="evenodd" stroke="none"/>
      <path d="M36.9 21.15 Q37.75 20.65 39.0 20.6 40.25 20.5 40.95 20.95 L41.05 21.05 40.55 22.1 40.55 22.15 40.35 22.15 Q39.0 22.35 37.7 22.9 L38.0 21.95 Q37.9 21.5 36.9 21.15" fill="#5c2501" fill-rule="evenodd" stroke="none"/>
      <path d="M41.95 18.05 L41.4 18.0 41.2 18.0 Q39.6 18.05 37.85 18.85 L37.6 19.0 Q36.35 19.6 35.05 20.6 L34.7 20.9 M39.75 23.0 L37.65 24.6 37.1 24.8 34.4 25.2 33.8 25.0 M37.1 30.1 L37.75 29.95 39.95 29.0 42.9 26.9 43.95 25.65 45.25 23.1 45.3 22.75 45.3 21.2 Q45.1 18.95 43.05 18.25 L42.0 18.05 41.95 18.05 M37.7 22.9 Q39.0 22.35 40.35 22.15 L40.55 22.15 40.55 22.1 41.05 21.05 M37.7 22.9 Q37.05 23.1 36.45 23.45 35.5 23.9 34.55 24.5 M40.55 22.15 L40.2 22.55 39.75 23.0 M37.1 30.1 L36.6 30.15 Q34.75 30.35 33.2 29.3" fill="none" stroke="#000000" stroke-linecap="round" stroke-linejoin="round" stroke-opacity="0.3019608" stroke-width="0.30000000000000004"/>
      <path d="M26.85 26.55 L26.85 26.7 26.8 26.8 26.4 27.45 26.4 26.75 Q26.2 26.4 25.5 26.4 L26.85 26.25 26.85 26.55 M24.25 28.4 L23.85 28.4 24.2 27.35 24.0 26.5 Q23.6 25.95 22.4 26.2 L24.5 26.3 24.75 25.45 25.5 25.4 24.65 27.5 24.25 28.4 M20.25 28.25 L20.15 28.25 19.95 28.2 20.2 27.1 Q20.2 26.4 19.75 25.95 19.4 25.65 18.9 25.55 L20.4 26.05 20.5 25.45 20.9 25.45 21.2 25.5 20.55 27.4 20.25 28.25 M17.0 27.6 L16.8 27.5 16.7 26.15 16.5 25.55 Q16.05 24.8 15.15 25.05 L16.65 25.1 16.55 24.2 17.25 24.5 17.1 26.0 17.0 27.6" fill="#f9f8ec" fill-rule="evenodd" stroke="none"/>
      <path d="M26.4 27.45 L26.15 27.7 25.5 28.25 24.25 28.4 24.65 27.5 24.7 27.4 25.2 26.6 25.5 26.4 Q26.2 26.4 26.4 26.75 L26.4 27.45 M23.85 28.4 L20.25 28.25 20.55 27.4 21.25 26.7 22.05 26.25 22.4 26.2 Q23.6 25.95 24.0 26.5 L24.2 27.35 23.85 28.4 M19.95 28.2 L18.65 28.0 17.0 27.6 17.1 26.0 17.2 25.9 17.45 25.7 Q17.8 25.45 18.45 25.5 L18.9 25.55 Q19.4 25.65 19.75 25.95 20.2 26.4 20.2 27.1 L19.95 28.2 M16.8 27.5 L15.4 26.95 15.2 26.8 14.8 26.35 Q14.75 25.35 15.15 25.05 16.05 24.8 16.5 25.55 L16.7 26.15 16.8 27.5" fill="#f0f0d2" fill-rule="evenodd" stroke="none"/>
      <path d="M25.5 26.4 L25.2 26.6 24.7 27.4 24.65 27.5 25.5 25.4 26.05 25.4 26.85 26.25 25.5 26.4 M24.75 25.45 L24.5 26.3 22.4 26.2 22.05 26.25 21.25 26.7 20.55 27.4 21.2 25.5 22.7 25.55 24.75 25.45 M20.5 25.45 L20.4 26.05 18.9 25.55 18.45 25.5 Q17.8 25.45 17.45 25.7 L17.2 25.9 17.1 26.0 17.25 24.5 17.7 24.7 18.45 25.0 20.5 25.45 M14.8 26.35 Q13.45 24.75 14.55 23.95 15.0 23.55 16.55 24.2 L16.65 25.1 15.15 25.05 Q14.75 25.35 14.8 26.35" fill="#d5d580" fill-rule="evenodd" stroke="none"/>
      <path d="M15.2 22.45 Q14.8 22.7 15.05 22.85 L15.3 22.9 15.65 23.0 16.2 23.2 Q17.05 23.8 18.4 24.2 L20.0 24.6 20.85 24.75 20.0 24.7 18.4 24.4 Q17.15 24.0 16.1 23.35 L15.3 23.2 Q13.8 23.0 13.7 24.3 13.65 24.95 13.9 25.45 L14.3 26.1 14.25 26.15 Q13.2 25.25 13.4 24.2 13.6 23.45 14.1 23.1 L14.1 22.65 14.3 22.6 15.2 22.45 M13.25 23.1 Q12.75 23.95 12.85 25.1 13.65 26.55 14.75 27.25 16.2 28.1 17.45 28.3 L18.7 28.55 19.6 28.65 22.6 28.9 25.8 28.7 Q26.8 28.4 27.5 27.35 28.2 26.25 27.45 24.75 28.2 25.55 27.95 26.8 27.0 28.75 25.45 28.95 L21.6 29.05 20.6 29.0 19.2 28.8 Q18.75 28.9 19.25 29.4 L18.7 29.0 18.55 28.75 16.4 28.2 14.65 27.5 Q13.75 26.95 12.6 25.15 12.3 23.8 13.25 23.1" fill="#ea6004" fill-rule="evenodd" stroke="none"/>
      <path d="M15.2 22.45 L16.4 22.75 16.8 23.0 18.35 23.65 18.55 23.7 20.4 24.05 Q23.15 24.4 26.6 24.1 28.25 24.3 28.6 25.45 28.1 24.8 27.2 24.5 L27.45 24.75 Q28.2 26.25 27.5 27.35 26.8 28.4 25.8 28.7 L22.6 28.9 19.6 28.65 18.7 28.55 17.45 28.3 Q16.2 28.1 14.75 27.25 13.65 26.55 12.85 25.1 12.75 23.95 13.25 23.1 13.6 22.8 14.1 22.65 L14.1 23.1 Q13.6 23.45 13.4 24.2 13.2 25.25 14.25 26.15 L14.4 26.2 14.5 26.3 15.2 26.8 15.4 26.95 16.8 27.5 17.0 27.6 18.65 28.0 19.95 28.2 20.15 28.25 20.25 28.25 23.85 28.4 24.25 28.4 25.5 28.25 26.15 27.7 26.4 27.45 26.8 26.8 26.85 26.7 26.85 26.55 Q27.55 25.2 25.95 24.7 L22.25 24.8 21.45 24.8 20.85 24.75 20.0 24.6 18.4 24.2 Q17.05 23.8 16.2 23.2 L15.65 23.0 15.3 22.9 15.05 22.85 Q14.8 22.7 15.2 22.45" fill="#ca5202" fill-rule="evenodd" stroke="none"/>
      <path d="M22.25 24.8 L25.95 24.7 Q27.55 25.2 26.85 26.55 L26.85 26.25 26.05 25.4 25.5 25.4 24.75 25.45 22.7 25.55 Q22.1 25.2 22.25 24.8 M15.2 26.8 L14.5 26.3 14.4 26.2 14.25 26.15 14.3 26.1 13.9 25.45 Q13.65 24.95 13.7 24.3 13.8 23.0 15.3 23.2 L16.1 23.35 Q17.15 24.0 18.4 24.4 L20.0 24.7 Q20.85 25.05 20.9 25.45 L20.5 25.45 18.45 25.0 17.7 24.7 17.25 24.5 16.55 24.2 Q15.0 23.55 14.55 23.95 13.45 24.75 14.8 26.35 L15.2 26.8 M27.45 24.75 L27.2 24.5 Q28.1 24.8 28.6 25.45 L28.7 26.1 Q28.65 27.25 28.15 28.05 27.4 29.2 25.85 29.75 L22.0 29.8 19.5 29.6 19.25 29.4 Q18.75 28.9 19.2 28.8 L20.6 29.0 21.6 29.05 25.45 28.95 Q27.0 28.75 27.95 26.8 28.2 25.55 27.45 24.75 M17.45 29.15 L16.05 28.7 Q13.4 27.75 12.65 25.5 L12.6 25.15 Q13.75 26.95 14.65 27.5 L16.4 28.2 Q17.55 28.6 17.45 29.15" fill="#a34100" fill-rule="evenodd" stroke="none"/>
      <path d="M20.85 24.75 L21.45 24.8 22.25 24.8 Q22.1 25.2 22.7 25.55 L21.2 25.5 20.9 25.45 Q20.85 25.05 20.0 24.7 L20.85 24.75 M19.5 29.6 L19.3 29.55 18.75 29.45 17.45 29.15 Q17.55 28.6 16.4 28.2 L18.55 28.75 18.7 29.0 19.25 29.4 19.5 29.6" fill="#7e3301" fill-rule="evenodd" stroke="none"/>
      <path d="M28.6 25.45 Q28.25 24.3 26.6 24.1 23.15 24.4 20.4 24.05 L18.55 23.7 18.35 23.65 16.8 23.0 16.4 22.75 15.2 22.45 14.3 22.6 14.1 22.65 Q13.6 22.8 13.25 23.1 12.3 23.8 12.6 25.15 L12.65 25.5 Q13.4 27.75 16.05 28.7 L17.45 29.15 18.75 29.45 19.3 29.55 19.5 29.6 22.0 29.8 25.85 29.75 Q27.4 29.2 28.15 28.05 28.65 27.25 28.7 26.1 L28.6 25.45 M26.85 26.55 L26.85 26.7 26.8 26.8 26.4 27.45 26.15 27.7 25.5 28.25 24.25 28.4 23.85 28.4 20.25 28.25 20.15 28.25 19.95 28.2 18.65 28.0 17.0 27.6 16.8 27.5 15.4 26.95 15.2 26.8 14.8 26.35 Q13.45 24.75 14.55 23.95 15.0 23.55 16.55 24.2 L17.25 24.5 17.7 24.7 18.45 25.0 20.5 25.45 20.9 25.45 21.2 25.5 22.7 25.55 24.75 25.45 25.5 25.4 26.05 25.4 26.85 26.25 26.85 26.55" fill="none" stroke="#000000" stroke-linecap="round" stroke-linejoin="round" stroke-opacity="0.3019608" stroke-width="0.30000000000000004"/>
      <path d="M23.15 20.0 L23.15 19.8 23.05 19.65 Q22.95 18.05 24.05 16.95 25.15 15.85 26.75 15.85 L28.15 16.05 28.55 16.2 Q29.1 16.5 29.65 16.95 30.85 18.05 30.95 19.65 L31.0 19.8 31.0 20.0 Q31.0 21.35 30.0 22.35 L29.0 23.1 Q28.25 23.5 27.3 23.5 25.7 23.5 24.4 22.35 23.55 21.6 23.25 20.6 L23.15 20.0" fill="#a6a637" fill-rule="evenodd" stroke="none"/>
      <path d="M31.0 20.0 Q31.1 21.6 30.05 22.7 L29.05 23.45 27.3 23.8 Q25.7 23.8 24.45 22.7 23.6 21.9 23.25 20.9 L23.1 20.0 23.15 20.0 23.25 20.6 Q23.55 21.6 24.4 22.35 25.7 23.5 27.3 23.5 28.25 23.5 29.0 23.1 L30.0 22.35 Q31.0 21.35 31.0 20.0" fill="#ffffff" fill-rule="evenodd" stroke="none"/>
      <path d="M29.7 20.85 Q30.0 20.15 29.95 19.3 29.85 17.9 28.75 16.9 L28.4 16.6 28.75 17.95 Q28.85 19.15 28.2 20.05 L27.9 20.35 27.25 20.9 27.0 21.05 26.95 21.05 25.6 21.35 25.25 21.35 23.9 21.0 23.55 20.75 23.3 20.65 24.15 21.7 Q25.25 22.7 26.7 22.7 L28.2 22.35 28.55 22.15 29.1 21.7 29.7 20.85 M27.8 16.5 L27.45 16.1 26.2 15.9 26.15 15.9 Q24.75 15.9 23.8 16.9 22.85 17.9 22.95 19.3 L23.0 19.7 23.55 20.4 24.9 21.05 27.1 20.9 Q29.5 18.7 27.8 16.5 M28.1 15.85 L29.2 16.6 Q30.45 17.7 30.55 19.3 30.65 20.9 29.6 22.0 L28.6 22.75 26.85 23.1 Q25.25 23.1 24.0 22.0 23.15 21.2 22.85 20.25 L22.65 19.3 Q22.55 17.7 23.6 16.6 24.7 15.45 26.3 15.45 L27.75 15.7 28.1 15.85" fill="#ffff98" fill-rule="evenodd" stroke="none"/>
      <path d="M26.15 15.9 L26.2 15.9 27.45 16.1 27.8 16.5 Q25.9 16.45 24.9 18.05 23.75 19.9 24.9 21.05 L23.55 20.4 Q23.85 17.25 26.15 15.9" fill="#ffde4f" fill-rule="evenodd" stroke="none"/>
      <path d="M26.15 15.9 Q23.85 17.25 23.55 20.4 L23.0 19.7 22.95 19.3 Q22.85 17.9 23.8 16.9 24.75 15.9 26.15 15.9 M24.9 21.05 Q23.75 19.9 24.9 18.05 25.9 16.45 27.8 16.5 29.5 18.7 27.1 20.9 L24.9 21.05" fill="#f4a33c" fill-rule="evenodd" stroke="none"/>
      <path d="M28.75 17.95 L28.4 16.6 28.75 16.9 Q29.85 17.9 29.95 19.3 30.0 20.15 29.7 20.85 29.85 18.75 28.8 17.95 L28.75 17.95 M28.55 22.15 L28.2 22.35 26.7 22.7 Q25.25 22.7 24.15 21.7 L23.3 20.65 23.55 20.75 23.9 21.0 25.25 21.35 25.6 21.35 26.95 21.05 27.0 21.05 27.25 20.9 27.9 20.35 28.2 20.05 Q29.6 20.4 28.55 22.15" fill="#cc6b22" fill-rule="evenodd" stroke="none"/>
      <path d="M28.75 17.95 L28.8 17.95 Q29.85 18.75 29.7 20.85 L29.1 21.7 28.55 22.15 Q29.6 20.4 28.2 20.05 28.85 19.15 28.75 17.95" fill="#a34100" fill-rule="evenodd" stroke="none"/>
      <path d="M28.1 15.85 L29.2 16.6 Q30.45 17.7 30.55 19.3 30.65 20.9 29.6 22.0 L28.6 22.75 26.85 23.1 Q25.25 23.1 24.0 22.0 23.15 21.2 22.85 20.25 L22.65 19.3 Q22.55 17.7 23.6 16.6 24.7 15.45 26.3 15.45 L27.75 15.7 28.1 15.85 Z" fill="none" stroke="#000000" stroke-linecap="round" stroke-linejoin="round" stroke-opacity="0.3019608" stroke-width="0.30000000000000004"/>
      <path d="M13.15 18.5 L13.2 18.35 13.2 18.2 Q13.6 16.7 14.9 15.65 16.15 14.6 17.55 14.55 L18.75 14.8 18.95 14.9 19.75 15.6 Q20.45 16.65 20.05 18.15 L20.05 18.3 20.0 18.45 Q19.55 19.7 18.4 20.65 L17.25 21.35 15.7 21.7 Q14.3 21.75 13.55 20.7 13.05 20.0 13.05 19.05 L13.15 18.5" fill="#a6a637" fill-rule="evenodd" stroke="none"/>
      <path d="M20.0 18.45 Q19.6 19.95 18.3 20.95 L17.2 21.65 15.6 22.0 Q14.2 22.05 13.45 21.0 12.95 20.3 12.95 19.35 L13.15 18.5 13.05 19.05 Q13.05 20.0 13.55 20.7 14.3 21.75 15.7 21.7 L17.25 21.35 18.4 20.65 Q19.55 19.7 20.0 18.45" fill="#ffffff" fill-rule="evenodd" stroke="none"/>
      <path d="M18.95 16.75 Q19.5 17.6 18.45 19.55 L17.55 20.35 16.95 20.75 Q18.6 19.15 17.55 18.65 18.5 17.85 18.95 16.75" fill="#a34100" fill-rule="evenodd" stroke="none"/>
      <path d="M18.95 16.75 L18.95 16.7 19.2 15.45 19.4 15.7 Q19.85 16.8 19.3 18.1 L18.45 19.55 Q19.5 17.6 18.95 16.75 M16.95 20.75 L16.55 20.9 15.1 21.05 Q13.9 20.95 13.4 19.9 L13.15 18.8 13.3 18.95 13.55 19.2 Q13.9 19.55 14.55 19.65 L14.8 19.65 16.05 19.55 16.15 19.5 16.35 19.4 17.2 18.95 17.55 18.65 Q18.6 19.15 16.95 20.75" fill="#cc6b22" fill-rule="evenodd" stroke="none"/>
      <path d="M17.65 14.55 Q15.1 15.65 13.45 18.65 L13.3 17.9 13.45 17.5 Q14.0 16.15 15.25 15.3 16.45 14.45 17.65 14.55 M14.35 19.35 Q13.9 18.15 15.6 16.5 17.2 15.05 18.75 15.25 19.25 17.5 16.25 19.4 L14.35 19.35" fill="#f4a33c" fill-rule="evenodd" stroke="none"/>
      <path d="M17.65 14.55 L18.65 14.85 18.75 15.25 Q17.2 15.05 15.6 16.5 13.9 18.15 14.35 19.35 L13.45 18.65 Q15.1 15.65 17.65 14.55" fill="#ffde4f" fill-rule="evenodd" stroke="none"/>
      <path d="M18.75 15.25 L18.65 14.85 17.65 14.55 Q16.45 14.45 15.25 15.3 14.0 16.15 13.45 17.5 L13.3 17.9 13.45 18.65 14.35 19.35 16.25 19.4 Q19.25 17.5 18.75 15.25 M19.3 14.65 L19.9 15.45 Q20.45 16.65 19.85 18.2 19.25 19.7 17.85 20.65 L16.7 21.3 15.05 21.5 Q13.7 21.35 13.15 20.15 12.8 19.35 12.95 18.35 L13.2 17.5 Q13.8 15.95 15.2 15.0 16.6 14.0 17.95 14.15 18.6 14.2 19.05 14.5 L19.3 14.65 M18.45 19.55 L19.3 18.1 Q19.85 16.8 19.4 15.7 L19.2 15.45 18.95 16.7 18.95 16.75 Q18.5 17.85 17.55 18.65 L17.2 18.95 16.35 19.4 16.15 19.5 16.05 19.55 14.8 19.65 14.55 19.65 Q13.9 19.55 13.55 19.2 L13.3 18.95 13.15 18.8 13.4 19.9 Q13.9 20.95 15.1 21.05 L16.55 20.9 16.95 20.75 17.55 20.35 18.45 19.55" fill="#ffff98" fill-rule="evenodd" stroke="none"/>
      <path d="M19.3 14.65 L19.9 15.45 Q20.45 16.65 19.85 18.2 19.25 19.7 17.85 20.65 L16.7 21.3 15.05 21.5 Q13.7 21.35 13.15 20.15 12.8 19.35 12.95 18.35 L13.2 17.5 Q13.8 15.95 15.2 15.0 16.6 14.0 17.95 14.15 18.6 14.2 19.05 14.5 L19.3 14.65 Z" fill="none" stroke="#000000" stroke-linecap="round" stroke-linejoin="round" stroke-opacity="0.3019608" stroke-width="0.30000000000000004"/>
      <path d="M24.05 34.5 L23.65 34.35 Q22.0 33.75 20.4 33.4 20.3 32.95 21.0 32.75 L24.1 33.7 24.05 34.5" fill="#d5d580" fill-rule="evenodd" stroke="none"/>
      <path d="M21.0 32.75 L14.8 32.05 Q14.1 33.0 13.65 34.25 13.35 35.1 13.2 36.15 L13.0 36.15 Q13.2 33.8 14.7 31.9 19.4 31.7 24.05 33.45 L24.1 33.7 21.0 32.75" fill="#ffffff" fill-rule="evenodd" stroke="none"/>
      <path d="M15.2 32.85 Q14.5 34.0 14.15 35.2 13.7 35.05 13.65 34.25 14.1 33.0 14.8 32.05 L15.2 32.85" fill="#a6a637" fill-rule="evenodd" stroke="none"/>
      <path d="M20.15 33.35 L15.2 32.85 14.8 32.05 21.0 32.75 Q20.3 32.95 20.4 33.4 L20.15 33.35 M14.15 35.2 L13.9 36.15 13.2 36.15 Q13.35 35.1 13.65 34.25 13.7 35.05 14.15 35.2" fill="#bfbf40" fill-rule="evenodd" stroke="none"/>
      <path d="M15.2 36.2 Q15.25 34.1 17.35 33.55 L18.25 33.4 Q16.6 33.85 16.05 34.6 15.5 35.35 15.95 36.3 L15.2 36.2" fill="#ffff98" fill-rule="evenodd" stroke="none"/>
      <path d="M18.25 33.4 L18.95 33.35 19.15 33.35 19.25 33.35 Q21.2 33.55 22.45 34.3 23.5 34.95 23.4 35.75 22.95 37.0 21.85 37.55 19.25 36.65 16.4 36.35 L15.95 36.3 Q15.5 35.35 16.05 34.6 16.6 33.85 18.25 33.4" fill="#ffde4f" fill-rule="evenodd" stroke="none"/>
      <path d="M19.25 33.35 L20.15 33.35 20.4 33.4 Q22.0 33.75 23.65 34.35 L24.05 34.5 Q23.5 36.75 22.55 37.75 L21.85 37.55 Q22.95 37.0 23.4 35.75 23.5 34.95 22.45 34.3 21.2 33.55 19.25 33.35" fill="#f4a33c" fill-rule="evenodd" stroke="none"/>
      <path d="M20.15 33.35 L19.25 33.35 19.15 33.35 18.95 33.35 18.25 33.4 17.35 33.55 Q15.25 34.1 15.2 36.2 L13.9 36.15 14.15 35.2 Q14.5 34.0 15.2 32.85 L20.15 33.35" fill="#cc6b22" fill-rule="evenodd" stroke="none"/>
      <path d="M20.15 33.35 L15.2 32.85 Q14.5 34.0 14.15 35.2 L13.9 36.15 15.2 36.2 15.95 36.3 16.4 36.35 Q19.25 36.65 21.85 37.55 L22.55 37.75 Q23.5 36.75 24.05 34.5 L23.65 34.35 Q22.0 33.75 20.4 33.4 L20.15 33.35 M24.1 33.7 L24.05 34.5 M13.9 36.15 L13.2 36.15" fill="none" stroke="#000000" stroke-linecap="round" stroke-linejoin="round" stroke-opacity="0.3019608" stroke-width="0.30000000000000004"/>
      <path d="M23.8 43.25 L23.7 43.3 23.45 42.25 23.8 43.25" fill="#bfbf40" fill-rule="evenodd" stroke="none"/>
      <path d="M35.55 34.7 L35.45 35.5 35.25 36.0 35.1 36.25 33.95 37.2 Q33.75 37.7 34.65 38.6 L34.4 38.75 33.55 37.55 33.3 37.45 31.75 37.7 31.15 37.7 29.8 37.6 29.9 37.15 29.95 36.6 32.0 34.65 32.2 34.35 32.5 33.5 34.65 33.35 33.25 34.9 Q32.4 36.1 32.3 37.3 L33.75 36.8 Q34.5 36.55 34.9 35.8 35.4 34.85 35.45 33.25 L35.55 34.7 M10.0 41.5 Q10.85 41.5 11.8 40.65 L11.95 40.45 12.25 40.7 13.5 41.55 13.8 41.7 13.3 42.3 13.2 42.4 12.5 43.1 11.7 43.7 10.95 44.1 11.7 43.7 Q11.55 43.9 11.55 44.15 11.45 44.75 11.95 45.7 L11.75 45.75 10.95 44.1 9.95 44.25 9.55 44.2 9.15 44.05 Q8.75 43.4 9.25 42.5 L10.0 41.5 M13.5 41.55 L12.15 41.8 Q10.8 42.15 9.2 43.0 9.2 43.7 9.6 43.75 10.85 43.75 12.35 42.6 L13.5 41.55 M23.45 42.25 L23.7 43.3 23.8 44.0 23.85 44.35 Q23.95 45.8 23.25 46.55 L23.05 46.7 23.55 48.5 23.35 48.55 22.75 46.9 Q21.9 47.0 21.25 46.4 L21.15 46.2 20.8 45.7 20.3 44.35 21.45 43.8 Q22.0 43.35 22.15 42.75 L23.45 42.25 M21.95 44.55 L21.2 45.95 Q21.8 46.65 22.55 46.55 L23.05 46.2 Q23.7 45.4 23.55 43.25 22.6 43.7 21.95 44.55 M23.05 46.7 L22.75 46.9 23.05 46.7" fill="#ea6004" fill-rule="evenodd" stroke="none"/>
      <path d="M35.55 34.7 L35.45 33.25 Q35.4 34.85 34.9 35.8 34.5 36.55 33.75 36.8 L32.3 37.3 Q32.4 36.1 33.25 34.9 L34.65 33.35 35.45 33.25 35.95 34.8 35.95 34.9 36.05 36.15 35.55 34.7 M32.5 33.5 L32.2 34.35 32.0 34.65 29.95 36.6 Q30.1 35.05 29.65 33.7 L32.5 33.5 M11.95 40.45 L11.8 40.65 Q10.85 41.5 10.0 41.5 L11.1 40.55 11.65 40.15 11.7 40.1 11.95 40.45 M9.15 44.05 L9.55 44.2 10.65 45.85 10.1 45.65 10.05 45.6 9.15 44.05 M13.5 41.55 L12.35 42.6 Q10.85 43.75 9.6 43.75 9.2 43.7 9.2 43.0 10.8 42.15 12.15 41.8 L13.5 41.55 M19.95 42.8 L20.9 42.9 22.15 42.75 Q22.0 43.35 21.45 43.8 L20.3 44.35 19.95 42.8 M21.95 44.55 Q22.6 43.7 23.55 43.25 23.7 45.4 23.05 46.2 L22.55 46.55 Q21.8 46.65 21.2 45.95 L21.95 44.55 M20.3 44.35 L20.8 45.7 21.15 46.2 21.25 46.4 22.05 48.25 21.8 48.0 21.2 47.1 20.3 44.35" fill="#ca5202" fill-rule="evenodd" stroke="none"/>
      <path d="M34.65 38.6 Q33.75 37.7 33.95 37.2 L35.1 36.25 35.25 36.0 35.45 35.5 35.55 34.7 36.05 36.15 36.05 36.45 35.65 37.7 34.65 38.6 M29.8 37.6 L31.15 37.7 31.75 37.7 Q31.35 38.25 32.4 38.85 L32.9 39.1 32.15 39.2 30.75 39.15 30.3 39.1 29.8 37.6 M9.55 44.2 L9.95 44.25 10.95 44.1 11.75 45.75 10.65 45.85 9.55 44.2 M13.3 42.3 L13.8 41.7 14.6 43.55 13.2 44.95 13.6 43.55 Q13.75 42.6 13.3 42.3 M23.7 43.3 L23.8 43.25 24.0 43.95 24.45 46.4 24.35 47.35 24.3 46.55 Q24.25 45.2 23.85 44.35 L23.8 44.0 23.7 43.3 M22.05 48.25 L21.25 46.4 Q21.9 47.0 22.75 46.9 L23.35 48.55 23.0 48.6 22.05 48.25" fill="#a34100" fill-rule="evenodd" stroke="none"/>
      <path d="M31.75 37.7 L33.3 37.45 33.55 37.55 34.4 38.75 32.9 39.1 32.4 38.85 Q31.35 38.25 31.75 37.7 M11.7 43.7 L12.5 43.1 13.2 42.4 13.3 42.3 Q13.75 42.6 13.6 43.55 L13.2 44.95 13.1 45.05 11.95 45.7 Q11.45 44.75 11.55 44.15 11.55 43.9 11.7 43.7 M23.85 44.35 Q24.25 45.2 24.3 46.55 L24.35 47.35 24.3 47.45 24.1 47.85 23.55 48.5 23.05 46.7 23.25 46.55 Q23.95 45.8 23.85 44.35" fill="#7e3301" fill-rule="evenodd" stroke="none"/>
      <path d="M34.65 33.35 L32.5 33.5 29.65 33.7 M34.4 38.75 L34.65 38.6 35.65 37.7 36.05 36.45 36.05 36.15 35.95 34.9 35.95 34.8 35.45 33.25 34.65 33.35 M10.0 41.5 L9.25 42.5 Q8.75 43.4 9.15 44.05 L9.55 44.2 9.95 44.25 10.95 44.1 11.7 43.7 12.5 43.1 13.2 42.4 13.3 42.3 13.8 41.7 14.6 43.55 13.2 44.95 13.1 45.05 11.95 45.7 11.75 45.75 10.65 45.85 10.1 45.65 10.05 45.6 9.15 44.05 M11.7 40.1 L11.65 40.15 11.1 40.55 10.0 41.5 M32.9 39.1 L32.15 39.2 30.75 39.15 30.3 39.1 29.8 37.6 M32.9 39.1 L34.4 38.75 M23.8 43.25 L23.45 42.25 23.7 43.3 23.8 44.0 23.85 44.35 Q23.95 45.8 23.25 46.55 L23.05 46.7 22.75 46.9 Q21.9 47.0 21.25 46.4 L21.15 46.2 20.8 45.7 20.3 44.35 21.2 47.1 21.8 48.0 22.05 48.25 23.0 48.6 23.35 48.55 23.55 48.5 24.1 47.85 24.3 47.45 24.35 47.35 24.45 46.4 24.0 43.95 23.8 43.25 M20.3 44.35 L19.95 42.8" fill="none" stroke="#000000" stroke-linecap="round" stroke-linejoin="round" stroke-opacity="0.3019608" stroke-width="0.30000000000000004"/>
    </g>
    <g id="sprite0" transform="matrix(1.0, 0.0, 0.0, 1.0, 0.0, 0.0)">
      <use height="26.7" transform="matrix(0.0042, -1.3515, 1.3935, 0.02, 22.09, 56.0263)" width="26.7" xlink:href="#sprite1"/>
      <use height="26.7" transform="matrix(0.0095, -3.0486, 0.372, 0.0053, 36.507, 81.3775)" width="26.7" xlink:href="#sprite1"/>
      <use height="26.7" transform="matrix(3.0486, 0.0095, -0.0053, 0.372, 0.1225, 35.107)" width="26.7" xlink:href="#sprite1"/>
    </g>
    <g id="sprite1" transform="matrix(1.0, 0.0, 0.0, 1.0, 13.35, 13.35)">
      <use height="26.7" transform="matrix(1.0, 0.0, 0.0, 1.0, -13.35, -13.35)" width="26.7" xlink:href="#shape1"/>
    </g>
    <g id="shape1" transform="matrix(1.0, 0.0, 0.0, 1.0, 13.35, 13.35)">
      <path d="M9.3 -9.85 Q13.35 -5.8 13.35 0.0 13.35 5.8 9.3 9.3 5.8 13.35 0.0 13.35 -5.8 13.35 -9.85 9.3 -13.35 5.8 -13.35 0.0 -13.35 -5.8 -9.85 -9.85 -5.8 -13.35 0.0 -13.35 5.8 -13.35 9.3 -9.85" fill="url(#gradient0)" fill-rule="evenodd" stroke="none"/>
    </g>
    <radialGradient cx="0" cy="0" gradientTransform="matrix(0.0213, 0.0, 0.0, 0.0213, 0.0, 0.0)" gradientUnits="userSpaceOnUse" id="gradient0" r="819.2" spreadMethod="pad">
      <stop offset="0.19607843137254902" stop-color="#fee3bc" stop-opacity="0.41960785"/>
      <stop offset="0.5019607843137255" stop-color="#fee3bc" stop-opacity="0.06666667"/>
      <stop offset="0.7607843137254902" stop-color="#ffe3bd" stop-opacity="0.0"/>
    </radialGradient>
  </defs>
</svg>
