<?xml version="1.0" encoding="UTF-8" standalone="no"?>
<svg xmlns:xlink="http://www.w3.org/1999/xlink" height="52.0px" width="52.0px" xmlns="http://www.w3.org/2000/svg">
  <g transform="matrix(1.0, 0.0, 0.0, 1.0, 0.0, 0.0)">
    <use height="58.0" transform="matrix(1.0, 0.0, 0.0, 1.0, -3.0, -3.0)" width="58.0" xlink:href="#shape0"/>
    <use height="81.5" transform="matrix(0.0575, 0.0, 0.0, 0.0575, 21.65, 20.2)" width="81.5" xlink:href="#sprite0"/>
    <use height="81.5" transform="matrix(0.0478, 0.0, 0.0, 0.0478, 11.55, 18.1)" width="81.5" xlink:href="#sprite0"/>
    <use height="0.0" transform="matrix(0.1009, 0.0, 0.0, 0.1339, 28.55, 19.25)" width="0.0" xlink:href="#sprite2"/>
    <use height="0.0" transform="matrix(0.0862, 0.0231, -0.0154, 0.0577, 22.85, 37.2)" width="0.0" xlink:href="#sprite2"/>
    <use height="0.0" transform="matrix(0.1088, 0.0291, -0.0058, 0.0217, 15.65, 40.95)" width="0.0" xlink:href="#sprite2"/>
    <use height="0.0" transform="matrix(0.022, 0.0381, -0.0638, 0.0368, 39.6, 24.85)" width="0.0" xlink:href="#sprite2"/>
    <use height="0.0" transform="matrix(0.02, 0.0346, -0.0497, 0.0287, 16.75, 24.9)" width="0.0" xlink:href="#sprite2"/>
    <use height="81.5" transform="matrix(0.134, 0.0, 0.0, 0.1511, 26.2, 18.8)" width="81.5" xlink:href="#sprite0"/>
    <use height="81.5" transform="matrix(0.089, 0.0, 0.0, 0.1003, 15.45, 36.65)" width="81.5" xlink:href="#sprite0"/>
  </g>
  <defs>
    <g id="shape0" transform="matrix(1.0, 0.0, 0.0, 1.0, 3.0, 3.0)">
      <path d="M52.0 0.0 L52.0 52.0 0.0 52.0 0.0 0.0 52.0 0.0" fill="#795fa9" fill-opacity="0.0" fill-rule="evenodd" stroke="none"/>
      <path d="M47.35 21.7 L48.35 23.45 45.25 26.05 35.75 31.6 34.5 31.75 33.05 33.3 30.4 33.3 30.6 35.95 29.1 39.0 29.75 40.7 30.35 42.4 29.4 44.35 27.75 45.4 20.25 44.75 5.3 39.2 4.0 37.25 3.65 36.0 3.65 35.45 6.1 31.85 7.65 31.1 9.55 31.1 10.7 32.25 12.1 29.55 13.4 28.65 12.75 27.35 11.35 26.95 11.15 26.8 9.65 25.25 9.3 23.55 9.65 22.9 8.9 19.1 7.25 15.35 7.25 13.95 8.5 13.5 12.0 13.9 15.15 15.15 17.2 13.45 18.3 11.6 20.5 10.05 24.4 6.95 28.25 6.75 30.15 7.6 31.95 9.7 33.75 11.0 34.45 12.5 37.15 19.2 40.75 20.1 43.3 21.3 46.95 21.6 47.35 21.7 Z" fill="none" stroke="#000000" stroke-linecap="round" stroke-linejoin="round" stroke-opacity="0.3019608" stroke-width="1.0"/>
      <path d="M14.55 32.5 L14.5 32.3 14.2 31.4 14.1 30.25 Q14.05 29.15 14.55 28.5 L16.05 27.5 16.8 32.75 15.35 33.75 14.65 32.7 14.55 32.5 M10.95 32.6 L12.1 30.6 12.35 30.65 12.65 31.05 13.45 33.15 13.5 33.25 13.6 34.9 11.2 36.55 11.2 37.35 10.9 36.85 Q10.2 35.6 9.95 34.45 L9.8 33.65 12.6 34.6 13.3 35.0 10.95 32.6 M27.0 29.45 L28.05 29.75 28.3 34.35 26.35 36.8 25.7 34.9 25.1 31.85 26.15 30.3 27.0 29.45 M24.5 37.3 L23.5 37.35 19.7 37.7 19.55 37.7 19.7 37.75 19.85 37.75 24.4 39.05 25.55 40.4 25.9 41.5 25.75 41.55 24.5 41.95 23.55 41.7 19.6 40.45 19.4 40.3 Q18.55 39.45 17.95 38.1 L17.75 37.6 17.6 37.15 Q17.35 35.4 17.6 34.7 L18.7 34.0 18.8 33.95 20.95 33.65 22.95 33.65 Q23.6 34.2 24.05 35.4 L24.5 37.3 M14.5 36.2 Q15.15 37.9 14.65 39.4 L12.75 38.8 12.75 37.35 14.5 36.2 M8.55 37.9 L6.15 37.3 4.9 37.3 4.4 35.85 7.3 34.2 7.9 35.2 Q8.45 36.3 8.55 37.85 L8.55 37.9" fill="#75d74a" fill-rule="evenodd" stroke="none"/>
      <path d="M28.6 29.9 L30.15 30.35 28.8 34.05 29.95 32.45 30.2 35.7 29.6 37.25 28.35 34.85 28.6 34.6 28.6 29.9 M29.1 39.05 L29.75 40.75 27.4 38.5 27.8 38.25 28.75 38.1 29.1 39.05 M27.95 45.35 L27.8 45.45 25.75 43.8 24.5 41.95 25.75 41.55 25.3 42.4 26.15 43.65 27.95 45.35 M9.35 40.75 L5.35 39.25 5.3 39.25 4.4 37.85 4.4 37.5 5.45 38.9 9.35 40.75 M4.0 37.3 L3.7 36.05 4.9 37.3 4.0 37.3 M8.85 31.15 L9.55 31.15 10.4 32.0 Q10.1 32.6 10.95 33.8 L9.45 33.0 Q9.5 32.1 9.1 31.4 L8.85 31.15 M16.8 27.0 L18.8 32.45 18.15 32.65 16.8 27.0 M11.2 37.35 L11.2 38.1 11.65 38.65 8.55 37.9 8.55 37.85 Q8.45 36.3 7.9 35.2 L7.3 34.2 8.85 33.35 9.8 33.65 9.95 34.45 Q10.2 35.6 10.9 36.85 L11.2 37.35 M14.55 34.8 L16.35 33.65 16.6 34.15 14.7 35.3 14.55 34.8 M22.95 32.45 L22.55 31.65 23.65 30.7 24.2 31.25 22.95 32.45 M26.35 36.8 L27.35 35.8 27.9 37.85 25.85 37.3 25.55 37.2 24.5 37.3 24.05 35.4 Q23.6 34.2 22.95 33.65 L20.95 33.65 22.9 33.35 24.55 31.75 25.7 34.9 26.35 36.8 25.85 37.3 26.35 36.8 M28.5 42.3 L27.5 42.15 26.35 41.2 25.8 39.3 26.5 38.95 28.5 42.3 M28.6 34.6 L28.8 34.05 28.6 34.6" fill="#339328" fill-rule="evenodd" stroke="none"/>
      <path d="M28.05 29.75 L28.6 29.9 28.6 34.6 28.35 34.85 27.35 35.8 26.35 36.8 28.3 34.35 28.05 29.75 M27.8 45.45 L22.6 45.0 25.55 45.1 26.9 45.15 25.05 43.85 18.95 41.05 16.2 40.2 12.95 39.2 9.85 38.65 5.95 37.5 4.4 37.5 4.4 37.85 4.0 37.3 4.9 37.3 6.15 37.3 8.55 37.9 11.65 38.65 12.75 38.8 14.65 39.4 18.8 40.65 17.75 37.6 17.95 38.1 Q18.55 39.45 19.4 40.3 L19.6 40.45 23.55 41.7 19.05 40.75 25.75 43.8 27.8 45.45 M3.7 35.5 L6.15 31.9 7.4 31.3 8.25 32.7 5.55 34.55 3.7 35.5 M7.7 31.15 L8.85 31.15 9.1 31.4 Q9.5 32.1 9.45 33.0 L9.0 32.8 7.7 31.15 M10.4 32.0 L10.7 32.3 12.1 29.6 12.7 30.4 12.8 30.55 13.1 31.35 13.5 33.15 13.5 33.25 13.45 33.15 12.65 31.05 12.35 30.65 12.1 30.6 10.95 32.6 10.7 32.3 10.95 32.6 13.3 35.0 12.6 34.6 10.95 33.8 Q10.1 32.6 10.4 32.0 M13.8 28.4 L15.95 26.9 16.8 27.0 18.15 32.65 22.05 32.15 22.55 31.65 22.95 32.45 22.65 32.8 17.5 33.6 16.6 34.15 16.35 33.65 17.2 33.1 16.05 27.5 14.55 28.5 Q14.05 29.15 14.1 30.25 L14.2 31.4 14.5 32.3 14.55 32.5 14.4 32.3 14.0 31.25 13.8 30.35 Q13.7 29.7 13.75 29.05 L13.8 28.4 M15.95 26.9 L16.05 27.5 15.95 26.9 M11.45 38.1 L11.45 36.75 14.55 34.8 14.7 35.3 12.4 36.7 11.7 38.1 11.45 38.1 M23.65 30.7 L25.65 28.85 26.25 29.2 24.2 31.25 23.65 30.7 M26.15 30.3 L25.1 31.85 25.7 34.9 24.55 31.75 26.15 30.3 M25.85 37.3 L27.9 37.85 28.75 38.1 27.8 38.25 27.4 38.5 26.5 38.95 25.8 39.3 26.35 41.2 27.5 42.15 28.5 42.3 29.55 42.45 27.45 42.45 25.9 41.5 25.55 40.4 24.4 39.05 19.85 37.75 25.1 38.75 26.05 38.6 26.05 38.55 Q26.4 38.3 25.3 37.9 L24.95 37.75 23.5 37.35 24.5 37.3 25.55 37.2 25.85 37.3 M18.7 34.0 L17.6 34.7 Q17.35 35.4 17.6 37.15 L16.8 34.7 17.7 34.15 18.7 34.0 M19.7 37.75 L19.55 37.7 19.7 37.7 19.7 37.75" fill="#92f458" fill-rule="evenodd" stroke="none"/>
      <path d="M3.7 36.05 L3.7 35.5 5.55 34.55 8.25 32.7 7.4 31.3 7.7 31.15 9.0 32.8 9.45 33.0 10.95 33.8 12.6 34.6 9.8 33.65 8.85 33.35 7.3 34.2 4.4 35.85 4.9 37.3 3.7 36.05 M12.1 29.6 L13.8 28.4 13.75 29.05 Q13.7 29.7 13.8 30.35 L14.0 31.25 14.4 32.3 14.55 32.5 14.65 32.7 15.35 33.75 16.8 32.75 16.05 27.5 17.2 33.1 16.35 33.65 14.55 34.8 11.45 36.75 11.45 38.1 11.2 38.1 11.2 37.35 11.2 36.55 13.6 34.9 15.35 33.75 13.6 34.9 13.5 33.25 13.5 33.15 13.1 31.35 12.8 30.55 12.7 30.4 12.1 29.6 M18.8 32.45 L20.2 32.15 22.05 31.75 23.25 30.45 25.1 28.45 25.65 28.85 23.65 30.7 22.55 31.65 22.05 32.15 18.15 32.65 18.8 32.45 M23.5 37.35 L24.95 37.75 25.3 37.9 Q26.4 38.3 26.05 38.55 L26.05 38.6 25.1 38.75 19.85 37.75 19.7 37.75 19.7 37.7 23.5 37.35 M17.6 37.15 L17.75 37.6 18.8 40.65 14.65 39.4 Q15.15 37.9 14.5 36.2 L16.8 34.7 17.6 37.15 M12.4 36.7 L12.4 38.3 11.7 38.1 12.4 36.7" fill="#d1fba6" fill-rule="evenodd" stroke="none"/>
      <path d="M30.15 30.35 L30.65 36.0 29.1 39.05 28.75 38.1 27.9 37.85 27.35 35.8 28.35 34.85 29.6 37.25 30.2 35.7 29.95 32.45 28.8 34.05 30.15 30.35 M29.75 40.75 L30.4 42.45 29.4 44.4 27.95 45.35 26.15 43.65 25.3 42.4 25.75 41.55 25.9 41.5 27.45 42.45 27.8 42.75 29.5 43.75 30.4 42.45 29.55 42.45 28.5 42.3 26.5 38.95 27.4 38.5 29.75 40.75 M22.6 45.0 L20.25 44.8 12.9 42.05 12.2 40.95 12.0 40.7 10.7 39.35 9.85 38.65 12.95 39.2 16.2 40.2 16.7 41.4 Q18.3 43.4 20.25 44.35 L25.55 45.1 22.6 45.0 M16.6 34.15 L17.5 33.6 22.65 32.8 22.95 32.45 24.2 31.25 26.25 29.2 27.0 29.45 26.15 30.3 24.55 31.75 22.9 33.35 20.95 33.65 18.8 33.95 18.7 34.0 17.7 34.15 16.8 34.7 14.5 36.2 12.75 37.35 12.75 38.8 12.4 38.3 12.4 36.7 14.7 35.3 16.6 34.15 M23.55 41.7 L24.5 41.95 25.75 43.8 19.05 40.75 23.55 41.7" fill="#246c41" fill-rule="evenodd" stroke="none"/>
      <path d="M12.9 42.05 L9.45 40.8 9.35 40.75 5.45 38.9 4.4 37.5 5.95 37.5 9.85 38.65 10.7 39.35 12.0 40.7 12.2 40.95 12.9 42.05 M11.2 38.1 L11.45 38.1 11.7 38.1 12.4 38.3 12.75 38.8 11.65 38.65 11.2 38.1 M27.45 42.45 L29.55 42.45 30.4 42.45 29.5 43.75 27.8 42.75 27.45 42.45 M16.2 40.2 L18.95 41.05 25.05 43.85 26.9 45.15 25.55 45.1 20.25 44.35 Q18.3 43.4 16.7 41.4 L16.2 40.2" fill="#1c5331" fill-rule="evenodd" stroke="none"/>
      <path d="M20.2 32.15 L19.3 32.0 19.15 31.55 18.6 29.1 Q19.8 30.75 21.1 30.65 L23.25 30.45 22.05 31.75 20.2 32.15" fill="#cc6b22" fill-rule="evenodd" stroke="none"/>
      <path d="M16.8 27.0 L17.4 27.05 17.45 27.05 23.95 27.7 25.1 28.45 23.25 30.45 21.1 30.65 20.6 30.5 20.35 30.35 20.15 30.25 Q18.6 28.9 17.85 27.55 L19.15 31.55 19.3 32.0 20.2 32.15 18.8 32.45 16.8 27.0" fill="#a34100" fill-rule="evenodd" stroke="none"/>
      <path d="M19.15 31.55 L17.85 27.55 Q18.6 28.9 20.15 30.25 L20.35 30.35 20.6 30.5 21.1 30.65 Q19.8 30.75 18.6 29.1 L19.15 31.55" fill="#f4a33c" fill-rule="evenodd" stroke="none"/>
      <path d="M28.05 29.75 L28.6 29.9 30.15 30.35 30.65 36.0 29.1 39.05 29.75 40.75 30.4 42.45 29.4 44.4 27.95 45.35 27.8 45.45 22.6 45.0 20.25 44.8 12.9 42.05 9.45 40.8 M9.35 40.75 L5.35 39.25 5.3 39.25 4.4 37.85 4.0 37.3 3.7 36.05 3.7 35.5 6.15 31.9 7.4 31.3 7.7 31.15 8.85 31.15 9.55 31.15 10.4 32.0 10.7 32.3 12.1 29.6 13.8 28.4 15.95 26.9 16.8 27.0 16.75 26.8 M16.05 27.5 L15.95 26.9 M17.4 27.05 L16.8 27.0 18.8 32.45 20.2 32.15 22.05 31.75 23.25 30.45 25.1 28.45 23.95 27.7 17.45 27.05 M16.05 27.5 L16.8 32.75 15.35 33.75 13.6 34.9 11.2 36.55 11.2 37.35 11.2 38.1 11.45 38.1 11.7 38.1 12.4 38.3 12.75 38.8 12.75 37.35 14.5 36.2 16.8 34.7 17.7 34.15 18.7 34.0 M16.6 34.15 L17.5 33.6 22.65 32.8 22.95 32.45 24.2 31.25 26.25 29.2 25.65 28.85 25.1 28.45 M18.15 32.65 L16.8 27.0 M26.25 29.2 L27.0 29.45 28.05 29.75 M26.35 36.8 L27.35 35.8 28.35 34.85 28.6 34.6 28.6 29.9 M27.0 29.45 L26.15 30.3 24.55 31.75 22.9 33.35 20.95 33.65 18.8 33.95 M26.35 36.8 L25.85 37.3 27.9 37.85 28.75 38.1 29.1 39.05 M25.85 37.3 L25.55 37.2 24.5 37.3 23.5 37.35 M25.9 41.5 L27.45 42.45 29.55 42.45 30.4 42.45 M18.8 32.45 L18.15 32.65 M23.55 41.7 L24.5 41.95 25.75 41.55 25.9 41.5 M25.75 43.8 L19.05 40.75 23.55 41.7 M10.7 32.3 L10.95 32.6 13.3 35.0 12.6 34.6 10.95 33.8 9.45 33.0 M12.4 36.7 L14.7 35.3 16.6 34.15 M12.4 36.7 L12.4 38.3 M11.65 38.65 L11.2 38.1 M28.8 34.05 L28.6 34.6 M27.8 42.75 L27.45 42.45 M27.8 45.45 L25.75 43.8 M28.8 34.05 L30.15 30.35" fill="none" stroke="#000000" stroke-linecap="round" stroke-linejoin="round" stroke-opacity="0.3019608" stroke-width="0.30000000000000004"/>
      <path d="M31.05 8.65 L31.95 9.75 33.75 11.05 33.4 11.2 31.15 11.55 30.4 11.0 30.35 10.95 Q29.3 10.05 29.65 9.15 L30.6 9.35 26.05 8.0 28.15 7.25 29.65 7.75 31.05 8.65 M47.0 21.65 L47.4 21.75 48.35 23.5 46.2 25.3 47.75 23.55 47.1 22.0 47.4 21.75 47.1 22.0 45.0 24.0 44.65 23.9 Q43.2 23.55 43.4 21.95 L47.0 21.65 M21.95 29.8 L21.35 30.15 21.05 30.15 22.0 28.95 20.2 28.95 22.05 28.4 22.2 28.2 22.45 28.4 22.6 29.1 21.95 29.8 M13.5 28.9 L12.75 27.35 12.35 26.5 12.55 26.3 14.75 26.75 15.05 27.1 Q15.5 27.8 15.4 28.65 L14.6 28.55 13.75 28.9 13.5 28.9 M9.3 23.6 L9.65 22.9 10.05 22.1 10.7 19.3 10.95 20.25 14.05 16.75 15.25 18.9 15.5 19.9 15.75 21.7 13.4 22.45 10.95 20.25 10.4 22.6 9.8 23.55 10.4 25.5 9.3 23.6 M9.4 21.6 L8.9 19.15 8.5 16.6 8.95 17.05 9.4 21.6 M31.95 9.75 L30.6 9.35 31.95 9.75 M28.0 10.65 L27.35 10.3 21.85 9.75 22.6 9.0 25.1 8.2 27.1 8.65 28.0 10.65 M31.2 17.25 L29.75 15.5 29.75 15.45 28.25 13.6 28.8 12.35 29.6 12.9 31.05 14.25 31.5 17.1 31.5 14.15 30.85 12.75 33.6 11.55 34.6 13.9 34.7 14.6 34.75 15.25 34.65 15.9 32.95 21.6 31.2 24.55 23.45 27.4 23.45 26.25 23.45 25.1 23.45 26.25 22.1 27.1 21.35 26.45 21.75 24.3 21.95 26.35 22.9 26.35 23.45 25.1 23.45 23.9 21.1 21.6 21.3 21.4 21.35 21.4 24.25 19.45 30.8 23.6 28.85 22.1 Q28.25 20.75 28.05 19.2 L28.05 19.05 28.0 18.65 27.95 17.15 28.1 15.3 30.6 17.2 32.7 21.05 31.7 18.5 31.5 17.1 31.7 18.5 31.2 17.25 M32.95 21.6 L32.7 21.05 32.95 21.6 M32.95 22.8 L33.9 21.25 33.9 21.75 33.95 22.8 Q34.1 24.2 34.65 25.2 L35.1 25.85 33.9 26.9 32.95 22.8 M37.1 22.5 L38.0 23.0 38.05 23.0 38.45 23.4 38.8 24.4 Q39.05 25.5 38.75 26.15 L38.5 26.6 36.25 26.0 35.35 25.6 37.1 22.5 M41.6 23.95 L40.8 23.3 39.7 22.2 39.55 22.0 Q38.8 21.05 38.3 19.9 L40.55 20.65 42.3 22.2 41.6 23.95 M29.55 27.25 L29.7 28.5 29.8 28.95 29.95 29.5 30.6 31.1 30.75 31.35 28.75 30.85 28.45 30.7 28.4 29.8 28.35 29.4 28.2 28.65 27.95 27.95 27.2 26.5 29.55 25.85 29.55 27.25 M20.5 10.95 L21.55 10.9 20.9 11.4 18.1 12.6 18.5 11.8 20.5 10.95 M10.2 18.25 L8.75 16.5 8.15 14.65 9.0 14.05 9.2 14.05 10.2 15.2 Q10.85 16.2 11.3 17.95 L11.4 18.65 11.0 19.05 10.25 18.3 10.2 18.25 M12.3 14.5 L14.75 15.5 14.4 15.8 13.3 16.8 Q12.2 16.15 12.3 14.5 M17.5 26.3 L16.75 25.3 Q16.1 24.25 16.35 23.45 L16.65 23.4 17.75 21.55 19.35 21.25 21.25 24.25 21.05 25.95 19.6 26.65 17.5 26.3 M16.95 27.2 L20.7 27.95 19.85 28.55 17.6 28.8 Q16.4 28.15 16.75 27.5 L16.95 27.2 M16.8 29.25 L17.4 29.2 16.8 30.15 16.8 29.25 M24.2 18.65 L25.3 16.15 25.4 16.2 26.05 17.2 26.55 18.45 26.85 20.65 24.2 18.65 M18.2 23.4 L19.15 24.5 19.35 23.9 18.95 21.75 18.2 23.4" fill="#75d74a" fill-rule="evenodd" stroke="none"/>
      <path d="M46.2 25.3 L46.15 25.35 45.25 26.1 43.6 25.25 43.25 27.3 35.8 31.65 34.4 28.7 36.35 30.85 42.8 27.25 43.6 25.25 45.0 24.0 47.1 22.0 47.75 23.55 46.2 25.3 M33.1 33.35 L30.3 33.35 29.05 31.3 30.75 32.8 32.95 32.9 33.1 33.35 M21.05 30.15 L16.8 30.15 16.25 30.15 13.5 28.9 13.75 28.9 14.8 28.9 16.8 29.25 16.8 30.15 17.4 29.2 20.2 28.95 22.0 28.95 21.05 30.15 M11.2 26.85 L9.65 25.25 9.3 23.6 10.4 25.5 9.8 23.55 10.4 22.6 10.95 20.25 13.4 22.45 12.5 23.4 11.4 24.95 11.4 25.7 10.4 25.5 11.2 26.85 M9.65 22.9 L9.4 21.65 9.4 21.6 8.95 17.05 10.2 18.25 10.25 18.3 11.0 19.05 10.7 19.3 10.05 22.1 9.65 22.9 M8.9 19.15 L7.3 15.4 7.3 14.0 7.7 14.55 8.5 16.6 8.9 19.15 M18.3 11.65 L20.5 10.1 24.85 10.35 20.5 10.65 18.3 11.65 M29.65 9.15 Q29.3 10.05 30.35 10.95 L30.4 11.0 31.15 11.55 29.95 11.75 28.0 10.65 27.1 8.65 29.65 9.15 M29.6 12.9 L27.35 10.75 30.0 12.2 31.05 14.25 29.6 12.9 M34.65 15.9 L34.75 15.25 35.05 17.9 33.8 20.05 34.65 15.9 M37.5 21.75 L37.2 19.55 38.3 19.9 Q38.8 21.05 39.55 22.0 L39.7 22.2 40.8 23.3 41.6 23.95 40.95 25.7 39.25 26.55 39.25 26.5 39.2 25.15 Q39.0 24.1 38.45 23.4 L38.05 23.0 38.0 23.0 37.1 22.5 37.5 21.75 M31.65 25.0 L32.95 22.8 33.9 26.9 35.1 25.85 34.65 25.2 Q34.1 24.2 33.95 22.8 L33.9 21.75 33.9 21.25 35.0 19.35 35.55 20.2 35.65 23.85 35.35 25.6 35.1 25.85 35.35 25.6 36.25 26.0 38.15 26.9 34.7 28.05 34.15 28.15 33.9 29.2 33.0 31.55 31.15 31.0 30.95 30.75 30.35 29.7 30.1 29.1 29.85 28.4 29.55 27.25 29.55 25.85 31.3 25.35 33.25 26.55 31.65 25.0 M23.45 27.55 L26.7 26.65 27.45 27.7 27.9 28.5 28.25 29.45 28.4 29.8 23.45 28.5 23.45 28.45 23.45 27.55 M34.15 28.15 L33.75 27.05 33.9 26.9 33.75 27.05 34.15 28.15 M21.1 21.6 L23.45 23.9 21.75 24.3 19.4 20.8 20.25 21.2 21.1 21.6 M33.25 26.55 L33.75 27.05 33.25 26.55 M15.75 23.0 L15.7 23.0 15.9 22.85 15.75 23.0" fill="#339328" fill-rule="evenodd" stroke="none"/>
      <path d="M28.25 6.8 L30.15 7.65 31.05 8.65 29.65 7.75 28.15 7.25 26.05 8.0 25.25 7.75 26.05 8.0 30.6 9.35 29.65 9.15 27.1 8.65 25.1 8.2 22.6 9.0 21.85 9.75 27.35 10.3 28.0 10.65 29.95 11.75 31.15 11.55 33.4 11.2 33.75 11.05 34.45 12.55 34.6 13.9 33.6 11.55 30.85 12.75 31.5 14.15 31.5 17.1 31.05 14.25 30.0 12.2 27.35 10.75 29.6 12.9 28.8 12.35 27.1 11.1 24.5 10.7 22.1 10.85 21.5 11.7 23.3 12.5 27.95 13.55 23.1 12.95 20.75 11.9 17.75 13.45 17.25 13.5 18.3 11.65 20.5 10.65 24.85 10.35 27.35 10.75 24.85 10.35 20.5 10.1 22.2 8.75 25.25 7.75 28.25 6.8 M37.15 19.25 L40.75 20.15 42.9 22.0 41.35 25.85 38.9 27.25 34.7 28.05 38.15 26.9 36.25 26.0 38.5 26.6 38.75 26.15 Q39.05 25.5 38.8 24.4 L38.45 23.4 Q39.0 24.1 39.2 25.15 L39.25 26.5 39.25 26.55 40.95 25.7 41.6 23.95 42.3 22.2 40.55 20.65 38.3 19.9 37.2 19.55 37.15 19.25 M8.5 13.55 L12.0 13.9 15.15 15.2 14.75 15.5 12.3 14.5 12.0 14.4 9.75 14.1 10.45 15.0 Q11.1 16.15 11.3 17.95 10.85 16.2 10.2 15.2 L9.2 14.05 9.0 14.05 8.15 14.65 8.75 16.5 10.2 18.25 8.95 17.05 8.5 16.6 7.7 14.55 8.5 13.55 M18.7 13.3 L21.0 12.95 27.6 14.6 31.2 17.25 31.7 18.5 32.7 21.05 30.6 17.2 28.1 15.3 27.95 17.15 28.0 18.65 28.05 19.05 28.05 19.2 Q28.25 20.75 28.85 22.1 L26.85 20.65 26.55 18.45 26.05 17.2 25.4 16.2 25.3 16.15 24.2 18.65 24.1 18.9 21.35 21.4 21.3 21.4 21.1 21.6 20.25 21.2 21.2 20.5 20.3 19.45 Q19.05 17.8 18.35 15.8 19.35 17.8 20.7 19.05 L21.9 19.9 21.95 19.95 23.8 18.6 25.35 14.55 21.5 13.45 18.7 13.3 M33.4 11.2 L30.0 12.2 33.4 11.2 M32.95 21.6 L34.65 15.9 33.8 20.05 35.05 17.9 35.35 18.7 35.05 17.9 34.75 15.25 34.8 15.25 35.2 17.85 35.35 18.7 36.1 20.6 35.65 23.85 35.55 20.2 35.0 19.35 33.9 21.25 32.95 22.8 31.65 25.0 31.2 24.55 31.65 25.0 33.25 26.55 31.3 25.35 29.55 25.85 27.2 26.5 27.95 27.95 28.2 28.65 28.35 29.4 28.4 29.8 28.45 30.7 23.45 28.5 28.4 29.8 28.25 29.45 27.9 28.5 27.45 27.7 26.7 26.65 23.45 27.55 23.45 27.4 31.2 24.55 32.95 21.6 33.8 20.05 32.95 21.6 M30.75 31.35 L30.6 31.1 29.95 29.5 29.8 28.95 29.7 28.5 29.55 27.25 29.85 28.4 30.1 29.1 30.35 29.7 30.95 30.75 31.15 31.0 33.0 31.55 33.9 29.2 33.3 31.95 33.25 31.95 33.0 31.95 32.7 31.9 30.75 31.35 M38.9 27.25 L38.15 26.9 38.9 27.25 M20.5 10.95 L18.5 11.8 18.1 12.6 20.9 11.4 21.55 10.9 20.5 10.95 M11.0 19.05 L11.4 18.65 13.3 16.8 14.4 15.8 15.25 18.9 14.05 16.75 10.95 20.25 10.7 19.3 11.0 19.05 M11.4 24.95 L12.5 23.4 13.4 22.45 15.75 21.7 16.9 21.3 19.4 20.8 21.75 24.3 21.35 26.45 19.6 27.0 14.4 26.1 11.4 24.95 M17.25 21.75 L14.35 22.6 14.65 23.0 15.05 23.8 15.4 24.9 15.55 25.5 14.85 23.95 Q14.3 23.1 13.65 22.85 L12.15 24.5 14.45 25.85 15.6 26.05 17.5 26.3 19.6 26.65 21.05 25.95 21.25 24.25 19.35 21.25 17.75 21.55 16.65 23.4 16.35 23.45 15.35 23.6 15.75 23.0 16.35 23.0 17.25 21.75 M12.55 26.3 L12.75 26.05 20.75 27.55 21.9 28.0 22.2 28.2 22.05 28.4 20.2 28.95 17.4 29.2 16.8 29.25 14.8 28.9 13.75 28.9 14.6 28.55 15.4 28.65 16.8 28.9 17.6 28.8 19.85 28.55 20.7 27.95 16.95 27.2 14.75 26.75 12.55 26.3 M18.95 21.75 L19.35 23.9 19.15 24.5 18.2 23.4 18.95 23.7 18.95 21.75" fill="#92f458" fill-rule="evenodd" stroke="none"/>
      <path d="M40.75 20.15 L43.35 21.35 47.0 21.65 43.4 21.95 42.9 22.0 40.75 20.15 M7.3 14.0 L8.5 13.55 7.7 14.55 7.3 14.0 M22.2 8.75 L24.45 7.0 28.25 6.8 25.25 7.75 22.2 8.75 M28.25 13.6 L27.95 13.55 23.3 12.5 21.5 11.7 22.1 10.85 24.5 10.7 27.1 11.1 28.8 12.35 28.25 13.6 M17.75 13.45 L18.7 13.3 21.5 13.45 25.35 14.55 23.8 18.6 21.95 19.95 21.9 19.9 20.7 19.05 Q19.35 17.8 18.35 15.8 L17.85 14.1 17.75 13.45 M15.55 25.5 L15.6 26.05 14.45 25.85 12.15 24.5 13.65 22.85 Q14.3 23.1 14.85 23.95 L15.55 25.5" fill="#9ae17b" fill-rule="evenodd" stroke="none"/>
      <path d="M34.45 12.55 L37.15 19.25 37.2 19.55 37.5 21.75 36.1 20.6 35.35 18.7 35.2 17.85 34.8 15.25 34.75 15.25 34.7 14.6 34.6 13.9 34.45 12.55 M35.8 31.65 L34.55 31.8 33.3 31.95 33.9 29.2 34.15 28.15 34.7 28.05 38.9 27.25 41.35 25.85 43.6 25.25 41.35 25.85 42.9 22.0 43.4 21.95 Q43.2 23.55 44.65 23.9 L45.0 24.0 43.6 25.25 42.8 27.25 36.35 30.85 34.4 28.7 34.15 28.15 34.4 28.7 35.8 31.65 M25.85 30.8 L25.55 30.7 21.95 29.8 22.6 29.1 22.45 28.4 23.45 28.45 23.45 28.5 28.45 30.7 28.75 30.85 30.75 31.35 32.7 31.9 32.95 32.9 30.75 32.8 29.05 31.3 28.75 30.85 25.85 30.8 M27.95 13.55 L28.25 13.6 29.75 15.45 29.75 15.5 31.2 17.25 27.6 14.6 21.0 12.95 18.7 13.3 17.75 13.45 20.75 11.9 23.1 12.95 27.95 13.55 M34.7 14.6 L34.8 15.25 34.7 14.6 M23.45 23.9 L23.45 25.1 22.9 26.35 21.95 26.35 21.75 24.3 23.45 23.9 M11.4 25.7 L11.4 24.95 14.4 26.1 19.6 27.0 21.35 26.45 22.1 27.1 21.9 28.0 20.75 27.55 12.75 26.05 12.55 26.3 12.35 26.5 11.8 26.4 11.4 25.7 M15.9 22.85 L17.25 21.75 16.35 23.0 15.75 23.0 15.9 22.85 M18.2 23.4 L18.95 21.75 18.95 23.7 18.2 23.4" fill="#246c41" fill-rule="evenodd" stroke="none"/>
      <path d="M45.25 26.1 L43.25 27.3 43.6 25.25 45.25 26.1 M34.55 31.8 L33.1 33.35 32.95 32.9 32.7 31.9 33.0 31.95 33.25 31.95 33.3 31.95 34.55 31.8 M30.3 33.35 L25.85 30.8 28.75 30.85 29.05 31.3 30.3 33.35 M12.75 27.35 L11.35 27.0 11.2 26.85 10.4 25.5 11.4 25.7 11.8 26.4 12.35 26.5 12.75 27.35 M36.1 20.6 L37.5 21.75 37.1 22.5 35.35 25.6 35.65 23.85 36.1 20.6 M23.45 26.25 L23.45 27.4 23.45 27.55 23.45 28.45 22.45 28.4 22.2 28.2 21.9 28.0 22.1 27.1 23.45 26.25" fill="#1c5331" fill-rule="evenodd" stroke="none"/>
      <path d="M15.15 15.2 L17.25 13.5 17.75 13.45 17.85 14.1 18.35 15.8 Q19.05 17.8 20.3 19.45 L21.2 20.5 20.25 21.2 19.4 20.8 16.9 21.3 15.75 21.7 15.5 19.9 15.25 18.9 14.4 15.8 14.75 15.5 15.15 15.2 M28.85 22.1 L30.8 23.6 24.25 19.45 21.35 21.4 24.1 18.9 24.2 18.65 26.85 20.65 28.85 22.1 M11.4 18.65 L11.3 17.95 Q11.1 16.15 10.45 15.0 L9.75 14.1 12.0 14.4 12.3 14.5 Q12.2 16.15 13.3 16.8 L11.4 18.65 M15.55 25.5 L15.4 24.9 15.05 23.8 14.65 23.0 14.35 22.6 17.25 21.75 15.9 22.85 15.7 23.0 15.75 23.0 15.35 23.6 16.35 23.45 Q16.1 24.25 16.75 25.3 L17.5 26.3 15.6 26.05 15.55 25.5 M14.75 26.75 L16.95 27.2 16.75 27.5 Q16.4 28.15 17.6 28.8 L16.8 28.9 15.4 28.65 Q15.5 27.8 15.05 27.1 L14.75 26.75" fill="#d1fba6" fill-rule="evenodd" stroke="none"/>
      <path d="M28.25 6.8 L30.15 7.65 31.05 8.65 31.95 9.75 33.75 11.05 34.45 12.55 37.15 19.25 40.75 20.15 43.35 21.35 47.0 21.65 47.4 21.75 48.35 23.5 46.2 25.3 M46.15 25.35 L45.25 26.1 43.25 27.3 35.8 31.65 34.55 31.8 33.1 33.35 30.3 33.35 25.85 30.8 25.55 30.7 21.95 29.8 21.35 30.15 21.05 30.15 16.8 30.15 16.25 30.15 13.5 28.9 12.75 27.35 11.35 27.0 11.2 26.85 9.65 25.25 9.3 23.6 9.65 22.9 9.4 21.65 M9.4 21.6 L8.9 19.15 7.3 15.4 7.3 14.0 8.5 13.55 12.0 13.9 15.15 15.2 17.25 13.5 18.3 11.65 20.5 10.1 22.2 8.75 24.45 7.0 28.25 6.8 25.25 7.75 26.05 8.0 30.6 9.35 31.95 9.75 M33.4 11.2 L33.75 11.05 M28.25 13.6 L27.95 13.55 23.1 12.95 20.75 11.9 17.75 13.45 18.7 13.3 21.0 12.95 27.6 14.6 31.2 17.25 29.75 15.5 M29.75 15.45 L28.25 13.6 M34.6 13.9 L34.45 12.55 M29.6 12.9 L27.35 10.75 24.85 10.35 20.5 10.65 18.3 11.65 M27.35 10.75 L30.0 12.2 33.4 11.2 M30.0 12.2 L31.05 14.25 31.5 17.1 31.7 18.5 32.7 21.05 32.95 21.6 31.2 24.55 31.65 25.0 33.25 26.55 33.75 27.05 34.15 28.15 34.7 28.05 38.9 27.25 41.35 25.85 43.6 25.25 43.25 27.3 M34.65 15.9 L34.75 15.25 34.7 14.6 34.6 13.9 M31.05 14.25 L29.6 12.9 M34.8 15.25 L34.7 14.6 M35.35 18.7 L36.1 20.6 37.5 21.75 37.2 19.55 37.15 19.25 M35.35 18.7 L35.05 17.9 33.8 20.05 32.95 21.6 M35.65 23.85 L36.1 20.6 M35.1 25.85 L35.35 25.6 35.65 23.85 M37.5 21.75 L37.1 22.5 35.35 25.6 36.25 26.0 38.15 26.9 38.9 27.25 M33.8 20.05 L34.65 15.9 M31.2 17.25 L31.7 18.5 M30.75 31.35 L32.7 31.9 33.0 31.95 33.25 31.95 33.3 31.95 33.9 29.2 34.15 28.15 34.4 28.7 35.8 31.65 M28.45 30.7 L28.75 30.85 30.75 31.35 M23.45 28.5 L28.45 30.7 M33.9 26.9 L35.1 25.85 M33.9 26.9 L33.75 27.05 M21.1 21.6 L23.45 23.9 23.45 25.1 23.45 26.25 23.45 27.4 31.2 24.55 M47.4 21.75 L47.1 22.0 45.0 24.0 43.6 25.25 45.25 26.1 M40.75 20.15 L42.9 22.0 43.4 21.95 47.0 21.65 M42.9 22.0 L41.35 25.85 M34.75 15.25 L35.05 17.9 M17.25 13.5 L17.75 13.45 M24.85 10.35 L20.5 10.1 M25.25 7.75 L22.2 8.75 M7.3 14.0 L7.7 14.55 8.5 13.55 M10.25 18.3 L11.0 19.05 11.4 18.65 13.3 16.8 14.4 15.8 14.75 15.5 15.15 15.2 M10.2 18.25 L8.95 17.05 8.5 16.6 7.7 14.55 M10.7 19.3 L11.0 19.05 M9.65 22.9 L10.05 22.1 10.7 19.3 M10.4 25.5 L11.4 25.7 11.4 24.95 12.5 23.4 13.4 22.45 15.75 21.7 16.9 21.3 19.4 20.8 20.25 21.2 21.1 21.6 M15.75 23.0 L15.7 23.0 15.9 22.85 17.25 21.75 16.35 23.0 15.75 23.0 M12.35 26.5 L12.55 26.3 12.75 26.05 20.75 27.55 21.9 28.0 22.1 27.1 21.35 26.45 19.6 27.0 14.4 26.1 11.4 24.95 M13.75 28.9 L14.8 28.9 16.8 29.25 17.4 29.2 20.2 28.95 22.05 28.4 22.2 28.2 21.9 28.0 M12.35 26.5 L11.8 26.4 11.4 25.7 M11.2 26.85 L10.4 25.5 9.3 23.6 M13.75 28.9 L13.5 28.9 M12.35 26.5 L12.75 27.35 M8.5 16.6 L8.9 19.15 M18.2 23.4 L18.95 21.75 18.95 23.7 18.2 23.4 M16.8 29.25 L16.8 30.15 M23.45 23.9 L21.75 24.3 19.4 20.8 M21.35 26.45 L21.75 24.3 M23.45 27.55 L23.45 27.4 M23.45 28.45 L23.45 27.55 M23.45 28.45 L23.45 28.5 M22.45 28.4 L22.2 28.2 M21.95 29.8 L22.6 29.1 22.45 28.4 23.45 28.45 M23.45 26.25 L22.1 27.1 M32.95 32.9 L33.1 33.35 M32.95 32.9 L32.7 31.9 M29.05 31.3 L28.75 30.85 25.85 30.8 M30.3 33.35 L29.05 31.3 M34.55 31.8 L33.3 31.95" fill="none" stroke="#000000" stroke-linecap="round" stroke-linejoin="round" stroke-opacity="0.3019608" stroke-width="0.30000000000000004"/>
      <path d="M28.5 23.55 L23.8 22.5 22.95 21.2 24.2 22.35 28.5 23.55 M17.25 19.9 L16.1 20.75 12.6 19.9 15.85 20.45 17.25 19.9" fill="#ffff98" fill-rule="evenodd" stroke="none"/>
      <path d="M28.5 23.55 L24.2 22.35 22.95 21.2 28.5 23.55 M17.25 19.9 L15.85 20.45 12.6 19.9 17.25 19.9" fill="#cc6b22" fill-rule="evenodd" stroke="none"/>
      <path d="M22.95 21.2 L28.5 23.55 M12.6 19.9 L17.25 19.9" fill="none" stroke="#000000" stroke-linecap="round" stroke-linejoin="round" stroke-opacity="0.3019608" stroke-width="0.30000000000000004"/>
    </g>
    <g id="sprite0" transform="matrix(1.0, 0.0, 0.0, 1.0, 0.0, 0.0)">
      <use height="26.7" transform="matrix(0.0042, -1.3515, 1.3935, 0.02, 22.09, 56.0263)" width="26.7" xlink:href="#sprite1"/>
      <use height="26.7" transform="matrix(0.0095, -3.0486, 0.372, 0.0053, 36.507, 81.3775)" width="26.7" xlink:href="#sprite1"/>
      <use height="26.7" transform="matrix(3.0486, 0.0095, -0.0053, 0.372, 0.1225, 35.107)" width="26.7" xlink:href="#sprite1"/>
    </g>
    <g id="sprite1" transform="matrix(1.0, 0.0, 0.0, 1.0, 13.35, 13.35)">
      <use height="26.7" transform="matrix(1.0, 0.0, 0.0, 1.0, -13.35, -13.35)" width="26.7" xlink:href="#shape1"/>
    </g>
    <g id="shape1" transform="matrix(1.0, 0.0, 0.0, 1.0, 13.35, 13.35)">
      <path d="M9.3 -9.85 Q13.35 -5.8 13.35 0.0 13.35 5.8 9.3 9.3 5.8 13.35 0.0 13.35 -5.8 13.35 -9.85 9.3 -13.35 5.8 -13.35 0.0 -13.35 -5.8 -9.85 -9.85 -5.8 -13.35 0.0 -13.35 5.8 -13.35 9.3 -9.85" fill="url(#gradient0)" fill-rule="evenodd" stroke="none"/>
    </g>
    <radialGradient cx="0" cy="0" gradientTransform="matrix(0.0213, 0.0, 0.0, 0.0213, 0.0, 0.0)" gradientUnits="userSpaceOnUse" id="gradient0" r="819.2" spreadMethod="pad">
      <stop offset="0.19607843137254902" stop-color="#fee3bc" stop-opacity="0.25882354"/>
      <stop offset="0.5019607843137255" stop-color="#fee3bc" stop-opacity="0.039215688"/>
      <stop offset="0.7607843137254902" stop-color="#ffe3bd" stop-opacity="0.0"/>
    </radialGradient>
  </defs>
</svg>
