<?xml version="1.0" encoding="UTF-8" standalone="no"?>
<svg xmlns:xlink="http://www.w3.org/1999/xlink" height="52.0px" width="52.0px" xmlns="http://www.w3.org/2000/svg">
  <g transform="matrix(1.0, 0.0, 0.0, 1.0, 0.0, 0.0)">
    <use height="54.0" transform="matrix(1.0, 0.0, 0.0, 1.0, -1.0, -1.0)" width="54.0" xlink:href="#shape0"/>
    <use height="0.0" transform="matrix(0.0817, 0.0145, -0.0471, 0.0704, 31.55, 28.55)" width="0.0" xlink:href="#sprite0"/>
    <use height="0.0" transform="matrix(0.0817, 0.0145, -0.0033, 0.0782, 21.8, 40.35)" width="0.0" xlink:href="#sprite0"/>
    <use height="0.0" transform="matrix(0.0539, 0.0453, -0.0211, 0.0332, 34.85, 13.2)" width="0.0" xlink:href="#sprite0"/>
    <use height="81.5" transform="matrix(0.0883, 0.0157, -0.0199, 0.1123, 32.55, 19.5)" width="81.5" xlink:href="#sprite1"/>
    <use height="81.5" transform="matrix(0.0757, 0.0134, -0.0171, 0.0962, 22.85, 35.3)" width="81.5" xlink:href="#sprite1"/>
    <use height="81.5" transform="matrix(0.044, 0.0078, -0.0099, 0.0559, 38.4, 13.55)" width="81.5" xlink:href="#sprite1"/>
    <use height="0.0" transform="matrix(0.0817, 0.0145, -0.0809, 0.089, 19.35, 37.0)" width="0.0" xlink:href="#sprite0"/>
    <use height="0.0" transform="matrix(0.0444, 0.0079, -0.0598, 0.0658, 24.85, 24.0)" width="0.0" xlink:href="#sprite0"/>
  </g>
  <defs>
    <g id="shape0" transform="matrix(1.0, 0.0, 0.0, 1.0, 1.0, 1.0)">
      <path d="M52.0 0.0 L52.0 52.0 0.0 52.0 0.0 0.0 52.0 0.0" fill="#795fa9" fill-opacity="0.0" fill-rule="evenodd" stroke="none"/>
      <path d="M41.8 17.2 L40.05 13.3 29.0 4.15 28.95 4.65 29.3 6.15 29.4 9.3 28.75 13.0 31.05 14.8 33.85 18.25 38.2 17.8 40.3 17.8 37.4 20.3 34.6 20.75 33.3 19.7 28.0 19.4 27.5 18.65 25.0 18.2 Q23.6 18.65 22.2 19.2 L21.2 21.5 21.5 22.05 18.8 22.0 16.9 21.5 16.55 22.55 16.7 22.95 16.7 23.0 18.1 27.3 18.95 28.45 20.85 29.7 20.9 30.15 16.85 32.55 12.4 36.4 11.95 37.85 10.45 39.65 9.15 42.7 9.8 43.4 13.05 41.55 14.75 43.1 17.75 44.4 17.15 47.95 18.15 48.15 21.4 46.9 25.7 43.45 27.85 39.8 28.35 38.05 28.55 35.25 31.7 34.6 38.1 35.75 44.45 33.4 38.45 28.25 38.4 27.4 37.6 25.25 39.1 23.3 40.0 21.35 41.35 18.4 41.6 17.8 41.55 17.75 41.8 17.2 Z" fill="none" stroke="#000000" stroke-linecap="round" stroke-linejoin="round" stroke-opacity="0.3019608" stroke-width="1.0"/>
      <path d="M28.9 4.6 L29.05 4.1 36.15 11.65 37.8 13.35 40.85 16.55 40.05 13.25 41.85 17.2 41.5 17.85 41.3 17.9 40.95 17.85 40.65 17.8 40.75 17.15 38.9 15.15 36.6 12.85 36.15 12.35 34.9 11.0 32.6 8.7 31.15 7.2 29.95 6.0 28.9 4.6 M29.35 6.55 L30.05 8.8 30.65 9.15 32.2 10.0 33.4 10.55 31.9 10.1 29.95 9.45 29.4 12.25 30.85 12.25 33.0 12.3 35.7 12.35 34.4 12.45 29.6 12.85 28.75 12.95 29.4 9.25 29.35 6.55 M37.95 15.1 L37.0 15.05 34.45 14.95 31.6 14.8 31.05 14.75 31.6 14.8 33.2 16.65 34.05 17.7 36.15 17.75 38.2 17.8 33.85 18.25 31.05 14.75 28.75 12.95 29.6 12.85 31.25 14.2 33.15 14.45 35.55 14.8 37.95 15.1 M29.4 9.25 L29.95 9.45 29.4 9.25" fill="#ea6004" fill-rule="evenodd" stroke="none"/>
      <path d="M36.15 12.35 L36.6 12.85 35.55 14.8 33.15 14.45 Q34.35 13.65 34.4 12.45 L35.7 12.35 36.15 12.35 M40.05 13.25 L40.85 16.55 37.8 13.35 Q37.15 11.7 37.45 11.1 L40.05 13.25 M36.15 11.65 L29.05 4.1 35.9 9.85 36.15 11.65" fill="#7e3301" fill-rule="evenodd" stroke="none"/>
      <path d="M28.9 4.6 L29.95 6.0 31.15 7.2 30.65 9.15 30.05 8.8 29.35 6.55 29.3 6.15 28.9 4.6 M32.6 8.7 L34.9 11.0 36.15 12.35 35.7 12.35 33.0 12.3 34.1 10.8 33.4 10.55 32.2 10.0 32.6 8.7 M38.9 15.15 L40.75 17.15 40.65 17.8 38.2 17.8 36.15 17.75 37.0 15.05 37.95 15.1 38.9 15.15 M37.8 13.35 L36.15 11.65 35.9 9.85 37.45 11.1 Q37.15 11.7 37.8 13.35 M31.9 10.1 L30.85 12.25 29.4 12.25 29.95 9.45 31.9 10.1 M34.9 11.0 L34.1 10.8 34.9 11.0 M31.6 14.8 L34.45 14.95 Q34.4 15.8 33.2 16.65 L31.6 14.8" fill="#ca5202" fill-rule="evenodd" stroke="none"/>
      <path d="M31.15 7.2 L32.6 8.7 32.2 10.0 30.65 9.15 31.15 7.2 M37.0 15.05 L36.15 17.75 34.05 17.7 33.2 16.65 Q34.4 15.8 34.45 14.95 L37.0 15.05 M33.4 10.55 L34.1 10.8 33.0 12.3 30.85 12.25 31.9 10.1 33.4 10.55" fill="#a34100" fill-rule="evenodd" stroke="none"/>
      <path d="M36.6 12.85 L38.9 15.15 37.95 15.1 35.55 14.8 36.6 12.85 M29.6 12.85 L34.4 12.45 Q34.35 13.65 33.15 14.45 L31.25 14.2 29.6 12.85" fill="#6d2c01" fill-rule="evenodd" stroke="none"/>
      <path d="M29.05 4.1 L28.9 4.6 29.95 6.0 31.15 7.2 32.6 8.7 34.9 11.0 36.15 12.35 36.6 12.85 38.9 15.15 40.75 17.15 40.65 17.8 38.2 17.8 33.85 18.25 31.05 14.75 28.75 12.95 29.4 9.25 29.35 6.55 29.3 6.15 28.9 4.6 M40.95 17.85 L41.3 17.9 41.5 17.85 41.85 17.2 40.05 13.25 37.45 11.1 35.9 9.85 29.05 4.1 M38.9 15.15 L37.95 15.1 37.0 15.05 34.45 14.95 31.6 14.8 31.05 14.75 M34.1 10.8 L33.4 10.55 31.9 10.1 29.95 9.45 29.4 9.25 M34.1 10.8 L34.9 11.0 M35.7 12.35 L36.15 12.35 M34.4 12.45 L35.7 12.35 M28.75 12.95 L29.6 12.85 34.4 12.45" fill="none" stroke="#000000" stroke-linecap="round" stroke-linejoin="round" stroke-opacity="0.3019608" stroke-width="0.30000000000000004"/>
      <path d="M16.05 38.65 L16.1 38.65 16.05 38.65" fill="#f4a33c" fill-rule="evenodd" stroke="none"/>
      <path d="M31.95 34.1 L31.95 34.15 31.9 34.15 31.95 34.1" fill="#cc6b22" fill-rule="evenodd" stroke="none"/>
      <path d="M39.0 29.55 L39.1 29.35 39.05 29.6 39.0 29.55" fill="#ffff98" fill-rule="evenodd" stroke="none"/>
      <path d="M18.1 27.25 L16.7 23.0 16.7 22.95 16.55 22.5 16.9 21.5 18.8 22.0 22.0 22.05 22.15 21.7 27.85 19.4 33.3 19.75 34.55 20.75 37.4 20.3 41.05 17.15 41.35 17.2 37.95 20.5 38.05 22.05 37.35 24.3 37.15 23.5 37.7 22.25 37.15 20.75 35.0 21.15 36.95 22.7 34.95 23.7 36.0 22.45 33.1 20.05 32.65 20.0 32.6 20.4 Q32.55 21.4 33.1 22.65 L33.35 23.2 33.45 23.35 33.6 23.65 33.85 24.15 34.3 24.05 34.4 27.4 33.75 24.8 31.8 25.05 26.5 30.0 27.55 30.75 26.35 33.15 27.15 30.95 26.05 30.15 23.95 29.55 23.9 30.25 23.85 30.85 23.85 31.0 Q23.75 32.75 24.0 34.4 L24.3 35.95 23.75 36.2 21.4 36.2 21.4 35.05 21.1 33.65 21.0 33.25 20.75 32.5 20.15 31.2 20.1 31.15 20.05 31.05 17.4 32.65 17.25 35.45 18.1 36.05 16.8 35.95 18.1 36.05 20.5 36.2 18.15 36.35 17.45 36.4 16.45 38.05 16.55 38.25 16.85 39.25 17.2 41.2 Q16.85 39.35 16.2 38.75 L16.15 38.7 16.1 38.65 16.05 38.65 15.7 39.25 15.35 42.45 17.05 44.1 14.7 43.05 14.85 41.95 14.8 39.5 12.6 37.3 12.45 38.1 12.8 40.85 13.9 42.3 13.05 41.55 12.75 41.3 12.5 41.1 12.2 39.9 12.0 38.3 11.95 37.85 12.0 38.3 11.0 39.7 10.8 41.35 10.6 40.25 9.4 42.95 9.1 42.7 10.45 39.65 11.95 37.85 12.45 36.4 16.85 32.55 20.9 30.15 20.8 29.65 20.75 29.15 20.5 27.3 20.3 25.9 20.6 25.3 19.45 24.65 17.5 23.65 17.7 24.45 19.15 26.4 18.0 25.45 18.45 27.05 19.8 27.3 18.95 27.3 18.1 27.25 M18.0 48.1 L17.1 47.95 17.75 44.4 18.05 42.8 19.8 40.6 20.7 39.45 22.1 39.3 20.9 39.95 18.7 42.5 19.65 43.95 19.5 44.1 18.45 43.2 18.05 42.8 18.45 43.2 17.5 47.45 18.05 47.9 18.0 48.1 M20.2 24.9 L20.6 25.3 21.85 22.35 22.0 22.05 21.85 22.35 19.45 22.45 20.2 24.9 19.8 24.5 20.2 24.9 M16.75 22.65 L19.8 24.5 18.95 22.4 17.2 21.9 16.75 22.65 16.55 22.5 16.75 22.65 M18.8 22.0 L18.95 22.4 18.8 22.0 M27.95 26.45 L26.8 22.5 25.6 22.3 25.3 22.25 22.4 22.45 21.65 24.1 22.45 25.9 22.95 27.9 22.2 26.0 21.4 24.8 20.95 25.75 21.65 29.7 22.8 29.0 23.15 29.1 25.95 29.75 26.25 29.75 28.35 27.7 31.6 24.5 30.7 24.1 27.45 23.45 27.95 26.45 M30.25 23.95 L30.7 24.1 30.25 23.95 30.45 22.65 30.35 21.6 Q30.1 20.4 29.35 19.8 L27.95 19.65 24.0 21.65 27.6 22.3 29.8 23.75 30.25 23.95 M26.8 22.5 L29.8 23.75 26.8 22.5 M22.15 21.7 L25.3 22.25 22.15 21.7 M20.9 30.15 L21.65 29.7 20.9 30.15 M26.25 29.75 L26.5 30.0 26.25 29.75 M16.8 35.8 L16.4 33.4 16.05 33.75 Q15.4 35.5 15.55 36.25 15.35 35.6 15.6 34.15 L14.25 35.35 13.25 36.25 14.05 38.2 14.45 38.7 15.1 39.4 15.95 37.7 16.8 35.95 16.8 35.8 16.85 32.55 16.8 35.8 M10.45 39.65 L10.6 40.25 10.45 39.65 M12.45 36.4 L14.05 38.2 12.45 36.4 M15.1 39.4 L14.85 41.95 15.1 39.4 M34.55 20.75 L35.0 21.15 34.55 20.75 M37.4 20.3 L38.05 22.05 37.4 20.3 M31.6 24.5 L33.85 24.15 31.6 24.5 M35.55 30.05 L34.25 31.3 35.5 32.75 35.75 32.7 36.65 31.6 35.95 32.9 35.85 33.1 37.95 35.6 37.45 35.1 33.25 31.2 Q34.3 30.6 35.4 29.95 L35.55 30.05 M39.3 31.2 L35.5 29.25 38.45 28.25 36.65 29.35 38.4 30.3 Q38.7 30.35 39.0 29.55 L39.05 29.6 38.95 30.6 40.85 31.65 43.2 32.9 40.25 31.7 39.75 31.45 39.3 31.2" fill="#d7f16b" fill-rule="evenodd" stroke="none"/>
      <path d="M41.35 17.2 L41.6 17.8 39.95 21.35 38.05 22.05 37.95 20.5 41.35 17.2 M38.4 27.4 L38.45 27.55 34.8 28.5 30.9 31.5 32.7 32.45 32.65 32.6 30.65 31.85 28.35 31.95 28.0 31.4 30.9 31.5 34.4 27.9 38.4 27.4 M38.45 28.25 L39.05 28.75 39.15 28.9 39.1 29.35 39.0 29.55 Q38.7 30.35 38.4 30.3 L36.65 29.35 38.45 28.25 M40.45 30.0 L44.45 33.4 39.2 35.35 Q39.05 34.05 39.25 32.95 L39.75 31.45 40.25 31.7 43.2 32.9 40.85 31.65 40.45 30.0 M28.4 37.85 L28.35 38.05 26.15 36.3 25.1 36.15 24.25 36.45 23.15 38.85 23.7 39.45 25.65 39.85 23.5 39.9 22.3 41.2 19.65 43.95 18.7 42.5 20.9 39.95 22.1 39.3 22.5 39.2 23.75 36.2 24.3 35.95 24.0 34.4 Q23.75 32.75 23.85 31.0 L23.85 30.85 23.9 30.25 23.95 29.55 26.05 30.15 27.15 30.95 26.35 33.15 27.55 30.75 26.15 35.5 28.4 37.85 M17.75 44.4 L17.4 44.25 17.2 41.2 16.85 39.25 16.55 38.25 16.45 38.05 17.45 36.4 18.15 36.35 18.15 36.6 18.2 36.75 Q18.7 39.05 19.8 40.6 L18.05 42.8 17.75 44.4 M9.8 43.35 L9.45 43.0 9.4 42.95 10.6 40.25 10.8 41.35 10.15 42.65 9.8 43.35 M19.15 26.4 L17.7 24.45 17.5 23.65 19.45 24.65 20.3 25.9 20.5 27.3 19.8 27.3 19.15 26.4 M20.6 25.3 L20.2 24.9 19.45 22.45 21.85 22.35 20.6 25.3 M19.8 24.5 L16.75 22.65 17.2 21.9 18.95 22.4 19.8 24.5 M25.6 22.3 L26.8 22.5 27.95 26.45 28.35 27.7 26.25 29.75 25.95 29.75 25.9 29.4 25.75 28.85 25.65 28.15 25.65 28.1 25.55 27.6 25.55 27.55 Q25.35 25.9 25.45 24.25 25.45 23.3 25.6 22.3 M30.25 23.95 L29.8 23.75 27.6 22.3 24.0 21.65 27.95 19.65 29.35 19.8 Q30.1 20.4 30.35 21.6 L30.45 22.65 30.25 23.95 M22.95 27.9 L23.15 28.95 23.15 29.1 22.8 29.0 21.65 29.7 20.95 25.75 21.4 24.8 22.2 26.0 22.95 27.9 M18.1 36.05 L17.25 35.45 17.4 32.65 20.05 31.05 20.1 31.15 20.15 31.2 20.75 32.5 21.0 33.25 21.1 33.65 21.4 35.05 21.4 36.2 20.65 36.2 20.5 36.2 18.1 36.05 M26.15 36.3 L25.2 35.55 24.3 35.95 25.2 35.55 26.35 33.15 25.2 35.55 26.15 36.3 M22.5 39.2 L23.5 39.9 22.5 39.2 M15.55 36.25 Q15.4 35.5 16.05 33.75 L16.4 33.4 16.8 35.8 16.8 35.95 15.95 37.7 15.6 36.3 15.55 36.25 M18.45 43.2 L19.5 44.1 18.2 47.55 18.05 47.9 17.5 47.45 18.45 43.2 M12.0 38.3 L12.2 39.9 10.8 41.35 11.0 39.7 12.0 38.3 M14.45 38.7 L14.05 38.2 13.25 36.25 14.25 35.35 14.45 38.7 M35.0 21.15 L37.15 20.75 37.7 22.25 37.15 23.5 36.95 22.7 35.0 21.15 M34.3 24.05 L33.85 24.15 33.6 23.65 33.45 23.35 33.35 23.2 33.1 22.65 Q32.55 21.4 32.6 20.4 L32.65 20.0 33.1 20.05 36.0 22.45 34.95 23.7 34.3 24.05 M35.55 30.05 L36.75 30.4 36.65 31.6 35.75 32.7 35.5 32.75 34.25 31.3 35.55 30.05 M43.2 32.9 L44.45 33.4 43.2 32.9" fill="#75d74a" fill-rule="evenodd" stroke="none"/>
      <path d="M37.6 25.25 L38.4 27.4 34.4 27.9 34.4 27.4 34.4 27.9 30.9 31.5 28.0 31.4 27.55 30.75 26.5 30.0 31.8 25.05 33.75 24.8 34.4 27.4 34.3 24.05 34.95 23.7 36.95 22.7 37.15 23.5 37.35 24.3 38.05 22.05 39.95 21.35 38.2 22.6 38.2 22.65 37.55 24.95 37.6 25.25 M39.15 28.9 L40.45 30.0 40.85 31.65 38.95 30.6 39.05 29.6 39.1 29.35 39.15 28.9 M39.2 35.35 L38.1 35.75 31.7 34.6 31.95 34.15 31.95 34.1 37.45 35.1 37.95 35.6 35.85 33.1 35.95 32.9 36.65 31.6 36.75 30.4 39.3 31.2 39.75 31.45 39.25 32.95 Q39.05 34.05 39.2 35.35 M27.85 39.75 L25.7 43.4 25.3 43.8 Q25.25 42.45 26.1 40.6 L26.5 39.85 27.85 39.75 M22.25 46.2 L21.4 46.9 18.15 48.1 18.0 48.1 18.05 47.9 18.2 47.55 20.4 46.85 21.6 46.0 22.6 42.65 22.65 43.15 22.6 43.6 22.25 46.2 M17.4 44.25 L17.05 44.1 15.35 42.45 15.7 39.25 16.05 38.65 16.1 38.65 16.15 38.7 16.2 38.75 Q16.85 39.35 17.2 41.2 L17.4 44.25 M14.7 43.05 L13.9 42.3 12.8 40.85 12.45 38.1 12.6 37.3 14.8 39.5 14.85 41.95 14.7 43.05 M19.8 27.3 L18.45 27.05 18.0 25.45 19.15 26.4 19.8 27.3 M19.45 24.65 L20.6 25.3 20.3 25.9 19.45 24.65 M25.6 22.3 Q25.45 23.3 25.45 24.25 25.35 25.9 25.55 27.55 L25.55 27.6 25.65 28.1 25.65 28.15 25.75 28.85 25.9 29.4 25.95 29.75 23.15 29.1 23.15 28.95 22.95 27.9 22.45 25.9 21.65 24.1 22.4 22.45 25.3 22.25 25.6 22.3 M28.35 27.7 L27.95 26.45 27.45 23.45 30.7 24.1 31.6 24.5 28.35 27.7 M20.5 36.2 L20.65 36.2 20.7 39.45 19.8 40.6 Q18.7 39.05 18.2 36.75 L18.15 36.6 18.15 36.35 20.5 36.2 M37.55 24.95 L37.35 24.3 37.55 24.95 M37.95 35.6 L38.1 35.75 37.95 35.6" fill="#339328" fill-rule="evenodd" stroke="none"/>
      <path d="M39.95 21.35 L39.1 23.25 37.6 25.25 37.55 24.95 38.2 22.65 38.2 22.6 39.95 21.35 M38.45 27.55 L38.45 28.25 35.5 29.25 35.4 29.95 Q34.3 30.6 33.25 31.2 L37.45 35.1 31.95 34.1 32.65 32.6 32.7 32.45 30.9 31.5 34.8 28.5 38.45 27.55 M31.7 34.6 L28.55 35.25 28.4 37.85 26.15 35.5 27.55 30.75 28.0 31.4 28.35 31.95 28.75 32.45 28.6 34.8 31.9 34.15 31.95 34.15 31.7 34.6 M28.35 38.05 L27.85 39.75 26.5 39.85 25.65 39.85 23.7 39.45 23.15 38.85 24.25 36.45 25.1 36.15 26.15 36.3 28.35 38.05 M13.05 41.55 L9.8 43.35 10.15 42.65 12.75 41.3 13.05 41.55 M20.8 29.65 L18.95 28.45 18.1 27.25 18.95 27.3 19.45 28.4 20.75 29.15 20.8 29.65 M21.4 36.2 L23.75 36.2 22.5 39.2 22.1 39.3 20.7 39.45 20.65 36.2 21.4 36.2 M22.3 41.2 L22.6 42.65 21.6 46.0 20.4 46.85 18.2 47.55 19.5 44.1 19.65 43.95 22.3 41.2 M15.55 36.25 L15.6 36.3 15.95 37.7 15.1 39.4 14.45 38.7 14.25 35.35 15.6 34.15 Q15.35 35.6 15.55 36.25 M28.6 34.8 L28.55 35.25 28.6 34.8 M33.25 31.2 L32.7 32.45 33.25 31.2" fill="#246c41" fill-rule="evenodd" stroke="none"/>
      <path d="M25.3 43.8 L22.25 46.2 22.6 43.6 22.65 43.15 22.6 42.65 22.3 41.2 23.5 39.9 25.65 39.85 26.5 39.85 26.1 40.6 Q25.25 42.45 25.3 43.8 M18.95 27.3 L19.8 27.3 20.5 27.3 20.75 29.15 19.45 28.4 18.95 27.3 M28.35 31.95 L30.65 31.85 32.65 32.6 31.95 34.1 31.9 34.15 28.6 34.8 28.75 32.45 28.35 31.95 M12.2 39.9 L12.5 41.1 12.75 41.3 10.15 42.65 10.8 41.35 12.2 39.9 M36.75 30.4 L35.55 30.05 35.4 29.95 35.5 29.25 39.3 31.2 36.75 30.4" fill="#1c5331" fill-rule="evenodd" stroke="none"/>
      <path d="M18.1 27.25 L16.7 23.0 16.7 22.95 16.55 22.5 16.9 21.5 18.8 22.0 22.0 22.05 22.15 21.7 27.85 19.4 33.3 19.75 34.55 20.75 37.4 20.3 41.05 17.15 41.35 17.2 41.6 17.8 39.95 21.35 39.1 23.25 37.6 25.25 38.4 27.4 38.45 27.55 38.45 28.25 39.05 28.75 M39.15 28.9 L40.45 30.0 44.45 33.4 39.2 35.35 38.1 35.75 31.7 34.6 28.55 35.25 28.4 37.85 28.35 38.05 27.85 39.75 25.7 43.4 25.3 43.8 22.25 46.2 21.4 46.9 18.15 48.1 18.0 48.1 17.1 47.95 17.75 44.4 17.4 44.25 17.05 44.1 14.7 43.05 13.9 42.3 13.05 41.55 9.8 43.35 9.45 43.0 M9.4 42.95 L9.1 42.7 10.45 39.65 11.95 37.85 12.45 36.4 16.85 32.55 20.9 30.15 20.8 29.65 18.95 28.45 18.1 27.25 18.95 27.3 19.8 27.3 20.5 27.3 20.75 29.15 20.8 29.65 M20.6 25.3 L20.2 24.9 19.8 24.5 16.75 22.65 16.55 22.5 M18.95 22.4 L18.8 22.0 M27.95 26.45 L26.8 22.5 25.6 22.3 25.3 22.25 22.15 21.7 M25.95 29.75 L26.25 29.75 28.35 27.7 27.95 26.45 M30.7 24.1 L30.25 23.95 29.8 23.75 26.8 22.5 M23.15 29.1 L25.95 29.75 M21.85 22.35 L22.0 22.05 M19.8 24.5 L18.95 22.4 M21.85 22.35 L20.6 25.3 20.3 25.9 20.5 27.3 M21.65 29.7 L22.8 29.0 23.15 29.1 M21.4 36.2 L23.75 36.2 24.3 35.95 25.2 35.55 26.35 33.15 27.55 30.75 26.5 30.0 26.25 29.75 M21.65 29.7 L20.9 30.15 M25.2 35.55 L26.15 36.3 28.35 38.05 M25.65 39.85 L26.5 39.85 27.85 39.75 M28.0 31.4 L28.35 31.95 28.75 32.45 28.6 34.8 28.55 35.25 M32.65 32.6 L32.7 32.45 30.9 31.5 28.0 31.4 27.55 30.75 M20.5 36.2 L20.65 36.2 21.4 36.2 M19.8 40.6 L20.7 39.45 20.65 36.2 M19.65 43.95 L22.3 41.2 23.5 39.9 22.5 39.2 22.1 39.3 20.7 39.45 M23.5 39.9 L25.65 39.85 M22.5 39.2 L23.75 36.2 M15.95 37.7 L16.8 35.95 16.8 35.8 16.85 32.55 M16.8 35.95 L18.1 36.05 20.5 36.2 M19.8 40.6 L18.05 42.8 18.45 43.2 19.5 44.1 19.65 43.95 M11.95 37.85 L12.0 38.3 12.2 39.9 12.5 41.1 12.75 41.3 13.05 41.55 M10.8 41.35 L10.6 40.25 10.45 39.65 M10.15 42.65 L10.8 41.35 12.2 39.9 M10.15 42.65 L9.8 43.35 M15.1 39.4 L14.45 38.7 14.05 38.2 12.45 36.4 M15.1 39.4 L15.95 37.7 M14.85 41.95 L15.1 39.4 M18.05 47.9 L18.2 47.55 19.5 44.1 M18.0 48.1 L18.05 47.9 M14.7 43.05 L14.85 41.95 M18.05 42.8 L17.75 44.4 M35.0 21.15 L36.95 22.7 37.15 23.5 37.35 24.3 38.05 22.05 37.4 20.3 M35.0 21.15 L34.55 20.75 M34.3 24.05 L33.85 24.15 31.6 24.5 28.35 27.7 M34.95 23.7 L34.3 24.05 34.4 27.4 34.4 27.9 38.4 27.4 M34.95 23.7 L36.95 22.7 M37.55 24.95 L37.6 25.25 M37.35 24.3 L37.55 24.95 M39.95 21.35 L38.05 22.05 M30.7 24.1 L31.6 24.5 M36.75 30.4 L35.55 30.05 35.4 29.95 Q34.3 30.6 33.25 31.2 L37.45 35.1 37.95 35.6 38.1 35.75 M36.75 30.4 L39.3 31.2 35.5 29.25 35.4 29.95 M35.5 29.25 L38.45 28.25 M44.45 33.4 L43.2 32.9 40.25 31.7 39.75 31.45 39.3 31.2 M31.95 34.1 L31.95 34.15 31.7 34.6 M31.95 34.1 L32.65 32.6 M30.9 31.5 L34.4 27.9 M32.7 32.45 L33.25 31.2" fill="none" stroke="#000000" stroke-linecap="round" stroke-linejoin="round" stroke-opacity="0.3019608" stroke-width="0.30000000000000004"/>
      <path d="M22.2 19.15 L24.2 18.45 Q24.6 19.05 23.9 19.95 L22.2 19.15 M25.55 18.4 L26.55 18.8 25.85 19.8 25.4 20.1 Q24.85 19.3 25.55 18.4 M33.6 21.75 L34.3 21.55 35.5 22.15 34.5 24.5 33.75 24.9 Q33.15 23.85 33.6 21.75 M31.7 22.4 L32.65 22.05 Q32.85 23.2 32.0 25.2 L30.85 24.15 31.7 22.4" fill="#ca5202" fill-rule="evenodd" stroke="none"/>
      <path d="M22.15 19.3 L22.2 19.15 23.9 19.95 24.95 20.4 25.4 20.1 25.85 19.8 26.55 18.8 25.55 18.4 25.0 18.2 27.45 18.6 28.15 19.65 27.25 18.9 26.15 20.15 26.65 21.35 25.6 20.45 25.0 20.75 24.65 20.55 25.0 20.75 24.05 21.7 22.7 21.95 21.2 21.5 21.95 19.75 21.8 21.25 22.65 21.6 23.8 21.25 24.65 20.55 22.15 19.3 M33.75 24.9 L34.5 24.5 35.5 22.15 34.3 21.55 33.6 21.75 32.65 22.05 31.7 22.4 31.8 22.2 34.2 21.1 36.15 21.85 36.95 24.0 35.95 22.3 34.85 24.9 32.95 25.25 33.75 24.9 M30.85 24.15 L32.0 25.2 32.2 25.4 31.55 25.8 31.2 26.0 30.85 24.15" fill="#ea6004" fill-rule="evenodd" stroke="none"/>
      <path d="M24.2 18.45 L25.0 18.2 25.55 18.4 Q24.85 19.3 25.4 20.1 L24.95 20.4 23.9 19.95 Q24.6 19.05 24.2 18.45 M21.95 19.75 L22.15 19.3 24.65 20.55 23.8 21.25 22.65 21.6 21.8 21.25 21.95 19.75 M33.75 24.9 L32.95 25.25 32.2 25.4 32.0 25.2 Q32.85 23.2 32.65 22.05 L33.6 21.75 Q33.15 23.85 33.75 24.9" fill="#a34100" fill-rule="evenodd" stroke="none"/>
      <path d="M23.9 22.6 L21.7 22.45 21.2 21.5 22.7 21.95 24.05 21.7 23.9 22.6 M31.55 25.8 L33.6 26.85 35.3 26.35 34.85 24.9 36.0 26.55 33.5 27.25 31.2 26.0 31.55 25.8" fill="#7e3301" fill-rule="evenodd" stroke="none"/>
      <path d="M26.65 21.35 L23.9 22.6 24.05 21.7 25.0 20.75 25.6 20.45 26.65 21.35 M32.95 25.25 L34.85 24.9 35.3 26.35 33.6 26.85 31.55 25.8 32.2 25.4 32.95 25.25" fill="#6d2c01" fill-rule="evenodd" stroke="none"/>
      <path d="M28.15 19.65 L26.65 21.35 26.15 20.15 27.25 18.9 28.15 19.65 M34.85 24.9 L35.95 22.3 36.95 24.0 36.0 26.55 34.85 24.9" fill="#431b01" fill-rule="evenodd" stroke="none"/>
      <path d="M22.15 19.3 L22.2 19.15 24.2 18.45 25.0 18.2 27.45 18.6 28.15 19.65 26.65 21.35 23.9 22.6 21.7 22.45 21.2 21.5 21.95 19.75 22.15 19.3 24.65 20.55 25.0 20.75 25.6 20.45 M26.65 21.35 L26.15 20.15 27.25 18.9 M24.05 21.7 L23.9 22.6 M25.0 20.75 L24.05 21.7 22.7 21.95 21.2 21.5 M32.95 25.25 L34.85 24.9 36.0 26.55 36.95 24.0 36.15 21.85 34.2 21.1 31.8 22.2 31.7 22.4 30.85 24.15 32.0 25.2 32.2 25.4 31.55 25.8 31.2 26.0 33.5 27.25 36.0 26.55 M32.2 25.4 L32.95 25.25 M31.2 26.0 L30.85 24.15" fill="none" stroke="#000000" stroke-linecap="round" stroke-linejoin="round" stroke-opacity="0.3019608" stroke-width="0.30000000000000004"/>
    </g>
    <g id="sprite1" transform="matrix(1.0, 0.0, 0.0, 1.0, 0.0, 0.0)">
      <use height="26.7" transform="matrix(0.0042, -1.3515, 1.3935, 0.02, 22.09, 56.0263)" width="26.7" xlink:href="#sprite2"/>
      <use height="26.7" transform="matrix(0.0095, -3.0486, 0.372, 0.0053, 36.507, 81.3775)" width="26.7" xlink:href="#sprite2"/>
      <use height="26.7" transform="matrix(3.0486, 0.0095, -0.0053, 0.372, 0.1225, 35.107)" width="26.7" xlink:href="#sprite2"/>
    </g>
    <g id="sprite2" transform="matrix(1.0, 0.0, 0.0, 1.0, 13.35, 13.35)">
      <use height="26.7" transform="matrix(1.0, 0.0, 0.0, 1.0, -13.35, -13.35)" width="26.7" xlink:href="#shape1"/>
    </g>
    <g id="shape1" transform="matrix(1.0, 0.0, 0.0, 1.0, 13.35, 13.35)">
      <path d="M9.3 -9.85 Q13.35 -5.8 13.35 0.0 13.35 5.8 9.3 9.3 5.8 13.35 0.0 13.35 -5.8 13.35 -9.85 9.3 -13.35 5.8 -13.35 0.0 -13.35 -5.8 -9.85 -9.85 -5.8 -13.35 0.0 -13.35 5.8 -13.35 9.3 -9.85" fill="url(#gradient0)" fill-rule="evenodd" stroke="none"/>
    </g>
    <radialGradient cx="0" cy="0" gradientTransform="matrix(0.0213, 0.0, 0.0, 0.0213, 0.0, 0.0)" gradientUnits="userSpaceOnUse" id="gradient0" r="819.2" spreadMethod="pad">
      <stop offset="0.19607843137254902" stop-color="#fee3bc" stop-opacity="0.78039217"/>
      <stop offset="0.5019607843137255" stop-color="#fee3bc" stop-opacity="0.1254902"/>
      <stop offset="0.7607843137254902" stop-color="#ffe3bd" stop-opacity="0.0"/>
    </radialGradient>
  </defs>
</svg>
