<?xml version="1.0" encoding="UTF-8" standalone="no"?>
<svg xmlns:xlink="http://www.w3.org/1999/xlink" height="52.0px" width="52.0px" xmlns="http://www.w3.org/2000/svg">
  <g transform="matrix(1.0, 0.0, 0.0, 1.0, 0.0, 0.0)">
    <use height="54.0" transform="matrix(1.0, 0.0, 0.0, 1.0, -1.0, -1.0)" width="54.0" xlink:href="#shape0"/>
    <use height="0.0" transform="matrix(0.0364, 0.0153, -0.0248, 0.0389, 26.15, 19.15)" width="0.0" xlink:href="#sprite0"/>
    <use height="0.0" transform="matrix(0.0364, 0.0153, -0.018, 0.0418, 15.55, 14.15)" width="0.0" xlink:href="#sprite0"/>
    <use height="15.95" transform="matrix(1.0, 0.0, 0.0, 1.0, 3.8, 32.6)" width="27.45" xlink:href="#shape1"/>
    <use height="0.0" transform="matrix(0.1452, 0.0389, -0.134, 0.2534, 28.3, 25.15)" width="0.0" xlink:href="#sprite0"/>
    <use height="81.5" transform="matrix(0.151, 0.0405, -0.0396, 0.1478, 30.8, 7.0)" width="81.5" xlink:href="#sprite1"/>
    <use height="81.5" transform="matrix(0.1165, 0.0312, -0.0306, 0.1141, 24.0, 34.45)" width="81.5" xlink:href="#sprite1"/>
  </g>
  <defs>
    <g id="shape0" transform="matrix(1.0, 0.0, 0.0, 1.0, 1.0, 1.0)">
      <path d="M52.0 0.0 L52.0 52.0 0.0 52.0 0.0 0.0 52.0 0.0" fill="#795fa9" fill-opacity="0.0" fill-rule="evenodd" stroke="none"/>
      <path d="M34.45 4.5 Q30.55 3.75 27.5 4.4 L27.25 4.4 Q21.65 3.95 15.85 8.35 12.95 8.7 12.2 9.65 L12.95 11.5 13.0 11.6 12.95 11.6 12.5 12.35 Q11.2 14.55 10.2 16.9 8.7 20.3 7.9 24.05 L8.25 25.35 7.55 28.05 7.3 28.2 7.15 28.3 Q6.4 28.9 5.95 30.25 5.45 31.55 5.6 32.85 5.75 33.95 6.25 34.4 L4.25 37.3 4.25 37.9 Q4.6 39.05 7.15 41.25 L11.7 44.55 13.1 45.4 14.7 46.25 Q19.0 48.35 20.4 48.05 L20.7 47.9 22.65 45.5 Q23.6 44.25 23.4 43.4 L23.95 42.9 24.8 43.4 Q24.7 43.95 24.9 44.35 L25.25 44.8 Q25.55 45.2 26.15 45.25 L26.65 45.45 27.15 45.45 Q28.05 45.4 29.05 44.65 L30.45 42.85 30.8 41.9 30.7 41.35 30.6 40.35 30.3 39.9 30.1 39.7 31.8 38.25 32.1 37.95 33.65 36.6 34.8 37.6 40.0 31.9 40.3 30.85 39.85 30.35 39.9 30.35 42.15 26.6 42.55 25.85 Q43.3 24.0 43.65 22.0 L44.0 20.2 44.05 18.7 44.05 17.5 43.85 15.9 Q43.25 12.6 40.95 9.4 L39.05 6.45 38.7 5.8 38.3 4.9 36.45 4.8 34.45 4.5 Z" fill="none" stroke="#000000" stroke-linecap="round" stroke-linejoin="round" stroke-opacity="0.3019608" stroke-width="1.0"/>
      <path d="M7.0 34.7 Q6.7 34.7 6.45 34.5 5.8 34.1 5.6 32.85 5.45 31.55 5.95 30.25 6.4 28.9 7.15 28.3 L7.3 28.2 Q8.0 27.65 8.6 27.85 8.25 27.85 7.8 28.1 L7.6 28.25 7.15 28.7 Q6.75 29.1 6.5 29.8 L6.3 30.3 Q5.75 31.65 5.9 32.85 L5.9 32.9 Q6.05 34.15 6.75 34.6 L7.0 34.7" fill="#f0f0d2" fill-rule="evenodd" stroke="none"/>
      <path d="M8.0 34.6 L7.0 34.7 6.75 34.6 Q6.05 34.15 5.9 32.9 6.05 33.45 6.45 33.6 6.9 33.7 7.0 33.25 7.2 34.1 7.65 34.4 L8.0 34.6 M8.6 27.85 L9.1 28.05 Q9.55 28.3 9.8 28.85 L9.7 28.85 8.4 28.95 8.35 29.0 8.35 28.95 8.1 28.95 Q7.7 28.8 7.8 28.1 8.25 27.85 8.6 27.85" fill="#bfbf40" fill-rule="evenodd" stroke="none"/>
      <path d="M6.5 29.8 Q6.8 29.55 7.05 29.55 L7.35 29.9 7.35 30.45 7.25 30.75 Q6.85 31.85 6.95 32.95 L7.0 33.25 Q6.9 33.7 6.45 33.6 6.05 33.45 5.9 32.9 L5.9 32.85 Q5.75 31.65 6.3 30.3 L6.5 29.8" fill="#a6a637" fill-rule="evenodd" stroke="none"/>
      <path d="M9.8 28.85 L10.05 29.25 10.35 30.25 Q10.5 31.3 10.1 32.55 9.7 33.65 8.95 34.2 L8.55 34.45 8.0 34.6 7.65 34.4 Q7.2 34.1 7.0 33.25 L6.95 32.95 Q6.85 31.85 7.25 30.75 L7.35 30.45 7.35 29.9 7.05 29.55 Q6.8 29.55 6.5 29.8 6.75 29.1 7.15 28.7 L7.6 28.25 7.8 28.1 Q7.7 28.8 8.1 28.95 L8.35 28.95 8.35 29.0 8.4 28.95 9.7 28.85 9.8 28.85" fill="#86862d" fill-rule="evenodd" stroke="none"/>
      <path d="M9.8 28.85 L10.05 29.25 10.35 30.25 Q10.5 31.3 10.1 32.55 9.7 33.65 8.95 34.2 L8.55 34.45 8.0 34.6 7.0 34.7 Q6.7 34.7 6.45 34.5 5.8 34.1 5.6 32.85 5.45 31.55 5.95 30.25 6.4 28.9 7.15 28.3 L7.3 28.2 Q8.0 27.65 8.6 27.85 L9.1 28.05 Q9.55 28.3 9.8 28.85 Z" fill="none" stroke="#000000" stroke-linecap="round" stroke-linejoin="round" stroke-opacity="0.3019608" stroke-width="0.30000000000000004"/>
      <path d="M37.1 13.55 Q37.4 11.5 36.85 10.5 L34.45 8.1 Q33.15 7.15 31.45 6.35 L29.45 5.5 27.2 5.15 Q23.45 4.8 20.3 6.45 L17.7 8.1 Q19.55 8.6 20.6 9.8 21.3 10.65 21.65 11.85 L21.8 12.65 21.85 12.65 21.8 13.3 Q21.7 14.55 20.8 15.75 20.05 18.3 20.05 20.2 20.15 22.4 22.8 23.25 25.05 24.05 28.1 22.8 27.2 23.35 26.25 23.7 L26.15 23.7 Q23.65 24.5 21.35 23.2 20.55 22.7 20.1 21.8 L20.05 21.6 19.75 20.25 19.85 18.75 20.05 17.6 20.15 16.65 16.6 21.4 16.4 21.1 15.95 21.2 Q14.15 21.2 14.45 20.75 15.0 20.05 16.2 19.15 L18.25 17.75 19.35 17.1 19.4 17.05 21.25 14.0 21.25 13.95 21.35 13.0 21.3 12.85 21.3 12.55 Q21.05 11.0 19.8 10.05 L19.3 9.75 Q16.45 7.75 12.2 9.65 12.95 8.65 15.85 8.35 21.65 3.95 27.25 4.35 L27.5 4.4 29.6 4.75 30.7 5.05 32.8 5.95 35.9 7.6 37.55 8.7 38.4 9.45 39.15 10.2 Q40.6 11.75 41.4 13.65 41.6 15.1 41.15 14.65 40.0 12.4 38.4 10.45 L38.35 10.5 38.15 10.25 37.95 10.05 37.0 9.2 Q38.05 12.1 37.1 13.55 M21.3 9.55 L21.2 8.95 Q21.95 5.75 27.1 7.0 L27.65 7.1 28.15 7.4 30.95 9.4 31.6 9.95 Q32.55 13.05 29.4 12.25 28.7 11.7 27.4 12.05 L26.85 12.2 23.95 11.9 23.45 11.65 Q21.7 10.7 21.3 9.55 M23.0 14.4 L23.25 14.2 25.1 13.25 Q26.0 12.85 26.85 12.8 28.35 12.65 29.6 13.4 L30.55 14.2 Q32.05 15.55 32.65 17.1 L32.75 17.2 33.25 19.45 33.15 20.0 Q33.05 20.3 33.55 20.95 L34.55 22.35 35.05 23.15 35.35 23.65 36.55 26.65 36.65 26.8 36.6 26.85 34.65 23.5 32.4 20.4 32.5 20.1 32.6 19.55 Q32.75 18.4 32.2 17.25 31.55 15.95 30.15 14.65 29.35 14.15 28.6 13.85 L26.8 13.5 26.45 13.5 Q24.9 13.45 23.3 14.25 L23.0 14.4 M13.0 11.55 L13.25 12.1 13.25 12.15 Q12.15 13.4 11.05 16.6 L10.9 17.05 Q10.3 18.65 10.2 19.85 10.0 21.45 10.55 22.35 L10.95 23.5 Q11.2 24.65 10.75 24.75 L10.2 24.5 8.35 23.95 7.9 24.05 Q8.7 20.3 10.15 16.85 L12.5 12.35 13.0 11.55 M8.0 33.65 L7.75 33.45 Q7.1 32.3 6.8 30.85 L6.8 30.8 8.25 25.35 8.4 24.55 9.15 24.8 Q8.45 26.55 8.1 27.9 7.5 29.9 7.55 31.0 L10.35 31.75 10.6 31.8 11.2 32.1 Q13.9 33.35 15.9 35.3 L16.1 35.55 18.7 35.05 19.55 34.45 Q20.6 33.5 20.9 31.75 L23.65 34.45 24.25 35.1 24.35 35.25 24.9 35.95 25.1 36.15 Q21.7 35.85 20.0 39.35 L20.95 40.95 21.85 42.55 Q19.3 39.2 17.3 37.25 L16.6 36.55 15.25 35.4 Q13.5 33.9 11.85 33.05 9.95 32.0 8.25 31.75 7.2 31.65 8.0 33.65" fill="#f9f8ec" fill-rule="evenodd" stroke="none"/>
      <path d="M21.3 9.55 Q21.7 10.7 23.45 11.65 L23.95 11.9 26.85 12.2 27.4 12.05 Q28.7 11.7 29.4 12.25 32.55 13.05 31.6 9.95 L30.95 9.4 28.15 7.4 27.65 7.1 27.1 7.0 Q21.95 5.75 21.2 8.95 L21.3 9.55 M28.1 22.8 Q25.05 24.05 22.8 23.25 20.15 22.4 20.05 20.2 20.05 18.3 20.8 15.75 21.7 14.55 21.8 13.3 L21.85 12.65 21.8 12.65 21.65 11.85 Q21.3 10.65 20.6 9.8 19.55 8.6 17.7 8.1 L20.3 6.45 Q23.45 4.8 27.2 5.15 L29.45 5.5 31.45 6.35 Q33.15 7.15 34.45 8.1 L36.85 10.5 Q37.4 11.5 37.1 13.55 36.55 14.35 35.3 14.65 32.8 15.3 32.65 17.1 32.05 15.55 30.55 14.2 L29.6 13.4 Q28.35 12.65 26.85 12.8 26.0 12.85 25.1 13.25 L23.25 14.2 23.0 14.4 23.1 14.75 Q22.25 14.45 21.05 16.8 20.65 17.85 20.55 18.65 20.25 20.3 20.8 21.1 22.1 21.75 22.5 19.4 L22.7 18.35 Q23.0 17.1 23.9 17.0 L30.15 21.1 28.1 22.8 M38.35 10.5 L38.4 10.45 Q40.0 12.4 41.15 14.65 41.6 15.1 41.4 13.65 L42.15 16.1 42.25 17.15 42.2 17.85 Q42.1 20.2 41.5 22.35 40.6 26.0 38.55 28.9 L37.7 30.0 37.35 28.85 37.2 28.3 37.15 28.2 37.0 27.75 36.75 27.05 Q37.6 28.95 38.25 28.1 40.2 25.3 40.9 22.45 L41.0 22.05 41.35 18.0 41.1 16.2 Q40.55 12.9 38.35 10.5 M39.15 10.2 L38.4 9.45 37.55 8.7 37.15 7.1 36.1 5.4 36.0 5.35 35.25 5.15 29.6 4.75 27.5 4.4 Q30.55 3.75 34.4 4.5 L36.4 4.8 38.25 4.9 38.7 5.8 39.0 6.45 40.9 9.35 Q43.2 12.6 43.85 15.9 L44.05 17.5 44.05 18.7 43.4 22.05 42.25 25.5 41.75 26.5 Q40.75 28.45 39.4 30.0 L41.1 27.1 42.55 23.45 43.0 22.1 Q43.65 19.7 43.55 17.6 L43.4 15.9 42.65 13.55 Q41.6 10.8 39.3 7.7 38.5 8.15 39.15 10.2 M18.25 17.75 L16.2 19.15 Q15.0 20.05 14.45 20.75 14.15 21.2 15.95 21.2 14.45 21.5 12.9 22.2 L12.5 23.2 Q12.1 24.75 12.6 25.6 L10.75 24.75 Q11.2 24.65 10.95 23.5 L10.55 22.35 Q10.0 21.45 10.2 19.85 10.3 18.65 10.9 17.05 L11.05 16.6 Q12.15 13.4 13.25 12.15 L12.4 14.3 12.0 16.25 Q11.75 18.7 13.5 19.4 L16.7 18.65 18.25 17.75 M19.75 20.25 L20.05 21.6 20.05 21.85 Q20.4 23.55 21.95 24.15 L26.2 24.3 26.9 24.05 Q29.05 22.95 30.2 21.6 L31.2 21.55 33.05 23.75 Q31.35 21.8 30.3 22.05 28.8 23.6 26.75 24.8 L26.15 25.15 Q24.4 26.05 22.3 26.65 17.95 28.0 18.8 29.4 L16.1 27.65 16.35 26.55 Q16.85 24.7 17.85 24.95 20.05 27.15 19.6 24.2 L19.4 21.95 Q19.4 20.8 19.75 20.25 M40.05 30.6 L40.25 30.85 35.05 36.4 34.85 37.25 34.65 36.35 33.75 35.65 Q34.65 36.3 35.0 36.0 L36.45 34.45 38.5 32.25 40.05 30.6 M12.65 26.25 L14.0 26.95 Q17.7 28.9 20.9 31.75 20.6 33.5 19.55 34.45 L18.7 35.05 16.1 35.55 15.9 35.3 Q13.9 33.35 11.2 32.1 L10.6 31.8 10.35 31.75 Q8.15 29.85 8.65 28.35 L8.8 27.8 Q9.5 25.3 12.65 26.25" fill="#f0f0d2" fill-rule="evenodd" stroke="none"/>
      <path d="M41.4 13.65 Q40.6 11.75 39.15 10.2 38.5 8.15 39.3 7.7 41.6 10.8 42.65 13.55 L43.4 15.9 43.55 17.6 Q43.65 19.7 43.0 22.1 L42.55 23.45 41.1 27.1 39.4 30.0 39.85 30.35 40.05 30.6 38.5 32.25 Q38.25 31.65 38.25 30.85 38.25 30.2 38.4 29.5 L38.55 28.9 Q40.6 26.0 41.5 22.35 42.1 20.2 42.2 17.85 L42.25 17.15 42.15 16.1 41.4 13.65 M37.55 8.7 L35.9 7.6 32.8 5.95 30.7 5.05 29.6 4.75 35.25 5.15 36.0 5.35 36.1 5.4 37.15 7.1 37.55 8.7 M21.25 14.0 L19.4 17.05 19.35 17.1 18.25 17.75 16.7 18.65 13.5 19.4 Q11.75 18.7 12.0 16.25 L12.4 14.3 13.25 12.15 18.05 14.5 21.25 14.0 M16.6 21.4 L20.15 16.65 20.05 17.6 19.85 18.75 19.75 20.25 Q19.4 20.8 19.4 21.95 L19.6 24.2 Q20.05 27.15 17.85 24.95 L17.05 22.4 16.6 21.4 M20.05 21.6 L20.1 21.8 Q20.55 22.7 21.35 23.2 23.65 24.5 26.15 23.7 L26.25 23.7 Q27.2 23.35 28.1 22.8 L30.15 21.1 30.45 20.7 32.4 20.4 34.65 23.5 36.6 26.85 36.65 26.8 36.65 26.85 36.75 27.05 37.0 27.75 36.6 26.85 34.35 23.55 32.2 21.1 Q31.25 20.55 30.8 21.1 L31.2 21.55 30.2 21.6 Q29.05 22.95 26.9 24.05 L26.2 24.3 21.95 24.15 Q20.4 23.55 20.05 21.85 L20.05 21.6 M34.55 22.35 Q34.2 20.65 34.35 19.25 34.45 18.05 34.95 16.9 35.45 15.85 36.35 14.85 37.35 13.75 38.15 13.55 38.85 13.3 39.5 13.75 39.8 15.0 39.75 16.35 L39.6 18.3 39.15 20.35 Q38.5 21.95 37.55 22.8 L37.25 23.05 Q36.4 23.65 35.35 23.65 L35.05 23.15 34.55 22.35 M42.25 25.5 L43.4 22.05 44.05 18.7 43.95 20.25 43.7 22.0 Q43.3 24.0 42.5 25.8 L42.15 26.6 42.25 25.5 M24.1 34.15 Q22.3 30.25 24.25 28.05 L26.1 26.1 Q30.3 22.55 35.15 26.35 L36.15 27.7 Q36.4 29.65 34.45 32.0 L33.0 33.5 32.8 33.7 Q28.25 36.75 24.95 35.1 L24.85 34.95 24.35 34.45 24.1 34.15 M30.45 20.7 L30.8 21.1 30.45 20.7 M25.1 36.15 L26.9 38.85 Q25.6 41.9 20.95 40.95 L20.0 39.35 Q21.7 35.85 25.1 36.15 M27.5 39.9 L27.95 39.4 30.25 37.4 34.6 33.3 35.9 32.0 Q36.4 32.25 36.5 33.1 L36.45 34.45 35.0 36.0 Q34.65 36.3 33.75 35.65 L33.7 35.6 32.1 37.0 31.3 37.7 24.75 42.95 23.8 42.4 27.5 39.9 M9.15 24.8 Q10.95 25.4 12.65 26.25 9.5 25.3 8.8 27.8 L8.65 28.35 Q8.15 29.85 10.35 31.75 L7.55 31.0 Q7.5 29.9 8.1 27.9 8.45 26.55 9.15 24.8" fill="#d5d580" fill-rule="evenodd" stroke="none"/>
      <path d="M37.95 10.05 L38.15 10.25 38.35 10.5 Q40.55 12.9 41.1 16.2 L41.35 18.0 41.0 22.05 40.9 22.45 Q40.2 25.3 38.25 28.1 37.6 28.95 36.75 27.05 L36.65 26.85 36.65 26.8 36.55 26.65 35.35 23.65 Q36.4 23.65 37.25 23.05 L37.55 22.8 Q38.5 21.95 39.15 20.35 L39.6 18.3 39.75 16.35 Q39.8 15.0 39.5 13.75 39.15 12.15 38.35 10.7 L37.95 10.05 M12.2 9.65 Q16.45 7.75 19.3 9.75 L19.8 10.05 Q21.05 11.0 21.3 12.55 L21.3 12.85 21.35 13.0 21.25 13.95 21.25 14.0 18.05 14.5 13.25 12.15 13.25 12.1 13.0 11.55 12.95 11.45 12.2 9.65 M30.15 21.1 L23.9 17.0 Q23.0 17.1 22.7 18.35 L22.5 19.4 Q22.1 21.75 20.8 21.1 20.25 20.3 20.55 18.65 20.65 17.85 21.05 16.8 22.25 14.45 23.1 14.75 L23.0 14.4 23.3 14.25 Q24.9 13.45 26.45 13.5 L26.8 13.5 28.6 13.85 Q29.35 14.15 30.15 14.65 31.55 15.95 32.2 17.25 32.75 18.4 32.6 19.55 L32.5 20.1 32.4 20.4 30.45 20.7 30.15 21.1 M14.6 9.25 L13.15 9.7 Q12.9 10.1 13.3 11.05 L13.7 11.75 14.65 11.75 14.6 11.9 15.4 12.2 15.9 11.55 16.05 11.25 16.55 9.9 16.45 9.2 14.6 9.25 M18.7 11.3 L19.05 10.3 17.5 9.5 17.65 10.65 17.65 10.7 17.5 11.85 17.25 13.0 18.25 12.0 18.7 11.3 M27.1 13.85 L25.6 13.9 26.1 17.45 26.55 16.3 26.65 16.0 27.1 13.85 M30.8 16.2 L30.15 15.4 28.0 18.35 30.8 16.2 M29.1 18.15 L31.55 17.2 31.1 16.6 29.1 18.15 M39.4 30.0 Q40.75 28.45 41.75 26.5 L42.25 25.5 42.15 26.6 Q41.25 28.55 39.9 30.3 L39.85 30.35 39.4 30.0 M33.65 36.55 L32.1 37.95 31.8 38.2 32.1 37.0 33.7 35.6 33.65 36.55 M24.85 43.35 L23.95 42.9 23.25 43.5 21.8 42.55 21.85 42.55 20.95 40.95 Q25.6 41.9 26.9 38.85 L27.2 39.4 27.5 39.9 23.8 42.4 23.8 42.45 23.95 42.9 23.8 42.45 23.8 42.4 24.75 42.95 24.85 43.35 M38.55 28.9 L38.4 29.5 Q38.25 30.2 38.25 30.85 38.25 31.65 38.5 32.25 L36.45 34.45 36.5 33.1 Q36.4 32.25 35.9 32.0 L34.6 33.3 30.25 37.4 27.95 39.4 26.4 36.9 25.85 36.2 24.95 35.1 Q28.25 36.75 32.8 33.7 L33.0 33.5 34.45 32.0 Q36.4 29.65 36.15 27.7 L37.15 29.2 37.7 30.0 38.55 28.9 M37.7 30.0 L37.25 30.5 37.05 30.75 36.45 31.35 35.9 32.0 36.45 31.35 37.05 30.75 37.25 30.5 37.7 30.0 M17.85 24.95 Q16.85 24.7 16.35 26.55 L16.1 27.65 14.75 26.8 12.6 25.6 Q12.1 24.75 12.5 23.2 L12.9 22.2 16.2 21.6 17.85 24.95" fill="#bfbf40" fill-rule="evenodd" stroke="none"/>
      <path d="M37.1 13.55 Q38.05 12.1 37.0 9.2 L37.95 10.05 38.35 10.7 Q39.15 12.15 39.5 13.75 38.85 13.3 38.15 13.55 37.35 13.75 36.35 14.85 35.45 15.85 34.95 16.9 34.45 18.05 34.35 19.25 34.2 20.65 34.55 22.35 L33.55 20.95 Q33.05 20.3 33.15 20.0 L33.25 19.45 32.75 17.2 32.65 17.1 Q32.8 15.3 35.3 14.65 36.55 14.35 37.1 13.55 M15.95 21.2 L16.4 21.1 16.6 21.4 17.05 22.4 17.85 24.95 16.2 21.6 12.9 22.2 Q14.45 21.5 15.95 21.2 M14.65 11.75 L13.7 11.75 13.3 11.05 Q12.9 10.1 13.15 9.7 L14.6 9.25 Q14.95 9.55 14.7 11.3 L14.65 11.65 14.65 11.75 M18.7 11.3 L18.25 12.0 17.25 13.0 17.5 11.85 17.65 10.7 17.65 10.65 17.5 9.5 19.05 10.3 18.7 11.3 M27.1 13.85 L26.65 16.0 26.55 16.3 26.1 17.45 25.6 13.9 27.1 13.85 M29.1 18.15 L31.1 16.6 31.55 17.2 29.1 18.15 M40.25 30.85 L40.0 31.9 34.8 37.55 34.85 37.25 35.05 36.4 40.25 30.85 M31.8 38.2 L29.5 40.15 24.85 43.35 24.75 42.95 31.3 37.7 32.1 37.0 31.8 38.2 M33.05 23.75 L33.15 23.85 33.4 24.15 35.15 26.35 33.4 24.15 33.15 23.85 33.05 23.75 31.2 21.55 30.8 21.1 Q31.25 20.55 32.2 21.1 L34.35 23.55 36.6 26.85 37.0 27.75 37.15 28.2 37.2 28.3 37.35 28.85 37.7 30.0 37.15 29.2 36.15 27.7 35.15 26.35 Q30.3 22.55 26.1 26.1 L24.25 28.05 Q22.3 30.25 24.1 34.15 L20.9 31.05 18.8 29.4 Q17.95 28.0 22.3 26.65 24.4 26.05 26.15 25.15 L26.75 24.8 Q28.8 23.6 30.3 22.05 31.35 21.8 33.05 23.75" fill="#a6a637" fill-rule="evenodd" stroke="none"/>
      <path d="M14.6 9.25 L16.45 9.2 16.55 9.9 16.05 11.25 15.9 11.55 15.4 12.2 14.6 11.9 14.65 11.75 14.65 11.65 14.7 11.3 Q14.95 9.55 14.6 9.25 M7.9 24.05 L8.35 23.95 10.2 24.5 10.75 24.75 12.6 25.6 14.75 26.8 16.1 27.65 18.8 29.4 20.9 31.05 24.1 34.15 24.35 34.45 24.85 34.95 24.95 35.1 25.85 36.2 26.4 36.9 27.95 39.4 27.5 39.9 27.2 39.4 26.9 38.85 25.1 36.15 24.9 35.95 24.35 35.25 24.25 35.1 23.65 34.45 20.9 31.75 Q17.7 28.9 14.0 26.95 L12.65 26.25 Q10.95 25.4 9.15 24.8 L8.4 24.55 8.25 25.35 7.9 24.05 M30.8 16.2 L28.0 18.35 30.15 15.4 30.8 16.2 M34.8 37.55 L33.65 36.55 33.7 35.6 33.75 35.65 34.65 36.35 34.85 37.25 34.8 37.55 M21.8 42.55 L16.4 39.05 Q16.0 38.2 15.95 37.65 15.85 36.75 16.6 36.55 L17.3 37.25 Q19.3 39.2 21.85 42.55 L21.8 42.55 M12.9 36.8 L8.0 33.65 Q7.2 31.65 8.25 31.75 9.95 32.0 11.85 33.05 13.45 34.35 13.4 35.6 13.35 36.2 12.9 36.8" fill="#86862d" fill-rule="evenodd" stroke="none"/>
      <path d="M16.4 39.05 L12.9 36.8 Q13.35 36.2 13.4 35.6 13.45 34.35 11.85 33.05 13.5 33.9 15.25 35.4 L16.6 36.55 Q15.85 36.75 15.95 37.65 16.0 38.2 16.4 39.05" fill="#53531c" fill-rule="evenodd" stroke="none"/>
      <path d="M41.4 13.65 Q40.6 11.75 39.15 10.2 L38.4 9.45 37.55 8.7 35.9 7.6 32.8 5.95 30.7 5.05 29.6 4.75 27.5 4.4 27.25 4.35 Q21.65 3.95 15.85 8.35 12.95 8.65 12.2 9.65 L12.95 11.45 13.0 11.55 12.95 11.45 M30.15 21.1 L23.9 17.0 M13.0 11.55 L13.25 12.1 13.25 12.15 M13.0 11.55 L12.5 12.35 10.15 16.85 Q8.7 20.3 7.9 24.05 L8.25 25.35 8.4 24.55 9.15 24.8 Q10.95 25.4 12.65 26.25 L14.0 26.95 Q17.7 28.9 20.9 31.75 L23.65 34.45 24.25 35.1 24.35 35.25 24.9 35.95 25.1 36.15 26.9 38.85 27.2 39.4 27.5 39.9 27.95 39.4 30.25 37.4 34.6 33.3 35.9 32.0 36.45 31.35 37.05 30.75 37.25 30.5 37.7 30.0 38.55 28.9 Q40.6 26.0 41.5 22.35 42.1 20.2 42.2 17.85 L42.25 17.15 42.15 16.1 41.4 13.65 M44.05 18.7 L44.05 17.5 43.85 15.9 Q43.2 12.6 40.9 9.35 L39.0 6.45 38.7 5.8 38.25 4.9 36.4 4.8 34.4 4.5 Q30.55 3.75 27.5 4.4 M44.05 18.7 L43.95 20.25 43.7 22.0 Q43.3 24.0 42.5 25.8 L42.15 26.6 Q41.25 28.55 39.9 30.3 L39.85 30.35 40.05 30.6 40.25 30.85 40.0 31.9 34.8 37.55 33.65 36.55 32.1 37.95 31.8 38.2 29.5 40.15 24.85 43.35 23.95 42.9 23.25 43.5 21.8 42.55 16.4 39.05 12.9 36.8 8.0 33.65 7.75 33.45 Q7.1 32.3 6.8 30.85 L6.8 30.8 8.25 25.35 M35.15 26.35 L33.4 24.15 33.15 23.85 33.05 23.75 31.2 21.55 30.8 21.1 30.45 20.7 30.15 21.1 M35.15 26.35 L36.15 27.7 37.15 29.2 37.7 30.0 M39.85 30.35 L39.4 30.0 M17.85 24.95 L16.2 21.6 12.9 22.2 M23.8 42.4 L23.8 42.45 23.95 42.9 M23.8 42.4 L27.5 39.9" fill="none" stroke="#000000" stroke-linecap="round" stroke-linejoin="round" stroke-opacity="0.3019608" stroke-width="0.30000000000000004"/>
      <path d="M14.6 11.2 L15.55 11.0 15.85 11.0 17.2 11.3 17.9 11.8 18.25 12.2 Q18.75 12.8 18.8 13.6 L18.85 14.15 Q18.8 15.65 17.8 16.75 16.75 17.85 15.4 18.0 L14.05 17.85 13.0 17.15 12.9 17.1 12.2 16.05 12.05 14.85 12.1 14.55 Q12.2 13.3 13.1 12.25 13.75 11.55 14.6 11.2 M29.55 18.45 Q29.85 19.75 29.15 21.0 28.45 22.35 27.0 22.8 L25.35 22.95 24.2 22.55 24.0 22.45 23.1 21.7 22.5 20.45 22.45 20.35 Q22.15 18.95 22.8 17.75 23.55 16.35 25.0 15.9 L26.45 15.75 27.75 16.15 27.85 16.25 Q28.5 16.55 28.9 17.1 L29.5 18.25 29.55 18.45" fill="#f9f8ec" fill-rule="evenodd" stroke="none"/>
      <path d="M16.15 29.1 L16.2 29.6 16.05 29.9 10.0 26.65 10.1 26.35 10.6 26.1 10.45 26.45 15.9 29.45 16.15 29.1 M11.1 23.85 L11.5 23.05 13.1 23.55 Q14.25 23.95 15.3 24.65 16.4 25.3 17.4 26.1 17.6 26.25 17.45 26.6 L14.7 24.65 13.55 24.9 12.4 24.3 Q13.1 24.15 13.1 23.7 L11.65 23.3 11.1 23.85" fill="#f0f0d2" fill-rule="evenodd" stroke="none"/>
      <path d="M16.05 29.9 L15.85 30.2 9.9 27.0 10.0 26.65 16.05 29.9 M11.0 24.05 L11.1 23.85 11.65 23.3 13.1 23.7 Q13.1 24.15 12.4 24.3 L11.5 23.85 11.0 24.05 M17.45 26.6 L17.2 27.1 16.2 26.2 13.55 24.9 14.7 24.65 17.45 26.6" fill="#d5d580" fill-rule="evenodd" stroke="none"/>
      <path d="M17.2 27.1 L16.85 27.6 16.9 27.3 13.5 25.15 11.85 24.4 11.35 24.2 11.25 24.5 11.0 24.05 11.5 23.85 12.4 24.3 13.55 24.9 16.2 26.2 17.2 27.1 M15.85 30.2 L15.45 30.45 14.45 29.8 12.1 28.4 Q10.6 27.55 10.2 30.1 9.75 29.2 10.05 27.5 L9.9 27.0 15.85 30.2" fill="#bfbf40" fill-rule="evenodd" stroke="none"/>
      <path d="M16.85 27.6 L16.15 29.1 15.9 29.45 10.45 26.45 10.6 26.1 11.25 24.5 11.35 24.2 11.85 24.4 13.5 25.15 16.9 27.3 16.85 27.6" fill="#53531c" fill-rule="evenodd" stroke="none"/>
      <path d="M14.6 11.2 L15.55 11.0 15.85 11.0 17.2 11.3 17.9 11.8 18.25 12.2 Q18.75 12.8 18.8 13.6 L18.85 14.15 Q18.8 15.65 17.8 16.75 16.75 17.85 15.4 18.0 L14.05 17.85 13.0 17.15 12.9 17.1 12.2 16.05 12.05 14.85 12.1 14.55 Q12.2 13.3 13.1 12.25 13.75 11.55 14.6 11.2 M29.55 18.45 Q29.85 19.75 29.15 21.0 28.45 22.35 27.0 22.8 L25.35 22.95 24.2 22.55 24.0 22.45 23.1 21.7 22.5 20.45 22.45 20.35 Q22.15 18.95 22.8 17.75 23.55 16.35 25.0 15.9 L26.45 15.75 27.75 16.15 27.85 16.25 Q28.5 16.55 28.9 17.1 L29.5 18.25 29.55 18.45 M17.2 27.1 L16.85 27.6 16.15 29.1 16.2 29.6 16.05 29.9 15.85 30.2 15.45 30.45 M9.9 27.0 L10.0 26.65 10.1 26.35 10.6 26.1 11.25 24.5 11.0 24.05 11.1 23.85 11.5 23.05 13.1 23.55 Q14.25 23.95 15.3 24.65 16.4 25.3 17.4 26.1 17.6 26.25 17.45 26.6 L17.2 27.1 M16.85 27.6 L16.9 27.3 13.5 25.15 11.85 24.4 11.35 24.2 11.25 24.5 M10.6 26.1 L10.45 26.45 15.9 29.45 16.15 29.1" fill="none" stroke="#000000" stroke-linecap="round" stroke-linejoin="round" stroke-opacity="0.3019608" stroke-width="0.30000000000000004"/>
    </g>
    <g id="shape1" transform="matrix(1.0, 0.0, 0.0, 1.0, -3.8, -32.6)">
      <path d="M19.0 38.65 L21.25 40.65 Q16.95 40.9 16.8 42.85 L14.65 41.15 Q18.75 40.6 19.0 38.65 M4.3 37.25 L7.0 33.35 Q7.25 32.95 8.05 33.05 6.15 34.4 5.2 37.05 L4.3 37.25" fill="#f9f8ec" fill-rule="evenodd" stroke="none"/>
      <path d="M12.0 34.4 Q11.0 36.9 8.9 38.05 L10.05 38.55 12.1 39.6 Q12.1 36.8 15.35 36.1 L19.0 38.65 Q18.75 40.6 14.65 41.15 L16.8 42.85 17.8 43.8 20.05 46.3 Q20.9 47.45 20.7 47.9 L20.4 48.05 Q20.75 46.95 17.6 43.95 L16.55 43.0 14.65 41.5 Q12.85 40.25 10.75 39.25 L10.0 38.9 Q5.65 36.95 4.25 37.9 L4.3 37.25 5.2 37.05 6.15 37.15 Q6.2 33.3 9.95 33.5 L12.0 34.4" fill="#f0f0d2" fill-rule="evenodd" stroke="none"/>
      <path d="M23.1 42.75 Q24.0 43.75 22.65 45.45 L20.7 47.9 Q20.9 47.45 20.05 46.3 21.9 45.6 23.1 42.75 M8.05 33.05 L9.95 33.5 Q6.2 33.3 6.15 37.15 L5.2 37.05 Q6.15 34.4 8.05 33.05" fill="#d5d580" fill-rule="evenodd" stroke="none"/>
      <path d="M12.0 34.4 L13.85 35.3 15.35 36.1 Q12.1 36.8 12.1 39.6 L10.05 38.55 8.9 38.05 Q11.0 36.9 12.0 34.4 M21.25 40.65 L23.1 42.75 Q21.9 45.6 20.05 46.3 L17.8 43.8 16.8 42.85 Q16.95 40.9 21.25 40.65" fill="#bfbf40" fill-rule="evenodd" stroke="none"/>
      <path d="M20.4 48.05 Q19.0 48.4 14.75 46.25 14.3 43.3 14.65 41.5 L16.55 43.0 17.6 43.95 Q20.75 46.95 20.4 48.05 M11.7 44.55 L7.15 41.25 Q4.55 39.05 4.25 37.9 5.65 36.95 10.0 38.9 L10.75 39.25 Q12.4 42.25 11.7 44.55" fill="#86862d" fill-rule="evenodd" stroke="none"/>
      <path d="M14.75 46.25 L13.05 45.35 11.7 44.55 Q12.4 42.25 10.75 39.25 12.85 40.25 14.65 41.5 14.3 43.3 14.75 46.25" fill="#53531c" fill-rule="evenodd" stroke="none"/>
      <path d="M15.35 36.1 L13.85 35.3 12.0 34.4 9.95 33.5 8.05 33.05 Q7.25 32.95 7.0 33.35 L4.3 37.25 4.25 37.9 Q4.55 39.05 7.15 41.25 L11.7 44.55 13.05 45.35 14.75 46.25 Q19.0 48.4 20.4 48.05 L20.7 47.9 22.65 45.45 Q24.0 43.75 23.1 42.75 L21.25 40.65 19.0 38.65 15.35 36.1 Z" fill="none" stroke="#000000" stroke-linecap="round" stroke-linejoin="round" stroke-opacity="0.3019608" stroke-width="0.30000000000000004"/>
      <path d="M25.25 44.8 L24.9 44.35 Q24.55 43.65 25.1 42.5 25.65 41.35 26.75 40.5 27.85 39.6 28.85 39.5 L28.95 39.45 Q29.9 39.4 30.3 39.9 30.0 39.7 29.5 39.65 L29.2 39.7 28.6 39.8 Q28.05 39.95 27.45 40.4 L27.05 40.7 Q25.9 41.6 25.3 42.7 24.75 43.85 25.1 44.6 L25.25 44.8" fill="#f0f0d2" fill-rule="evenodd" stroke="none"/>
      <path d="M30.7 41.35 L30.8 41.9 Q30.3 41.0 29.5 41.05 28.8 41.1 28.05 41.65 27.95 41.7 27.8 41.8 27.0 42.45 26.55 43.35 L26.4 43.6 Q26.15 44.35 26.35 44.75 L26.65 45.45 26.15 45.25 25.95 44.95 Q25.7 44.4 26.05 43.6 L26.1 43.3 Q26.65 42.35 27.6 41.6 L27.85 41.4 28.1 40.95 Q28.25 40.6 28.05 40.5 L27.45 40.4 Q28.05 39.95 28.6 39.8 L29.2 39.7 29.5 39.65 Q29.05 40.2 29.25 40.5 L29.5 40.75 29.45 40.7 29.5 40.75 Q30.35 40.7 30.7 41.3 L30.7 41.35" fill="#d5d580" fill-rule="evenodd" stroke="none"/>
      <path d="M30.3 39.9 L30.6 40.35 30.7 41.35 30.7 41.3 Q30.35 40.7 29.5 40.75 L29.45 40.7 29.5 40.75 29.25 40.5 Q29.05 40.2 29.5 39.65 30.0 39.7 30.3 39.9 M26.15 45.25 Q25.55 45.2 25.25 44.8 L25.1 44.6 Q24.75 43.85 25.3 42.7 25.1 43.2 25.4 43.55 L26.05 43.6 Q25.7 44.4 25.95 44.95 L26.15 45.25" fill="#bfbf40" fill-rule="evenodd" stroke="none"/>
      <path d="M25.3 42.7 Q25.9 41.6 27.05 40.7 L27.45 40.4 28.05 40.5 Q28.25 40.6 28.1 40.95 L27.85 41.4 27.6 41.6 Q26.65 42.35 26.1 43.3 L26.05 43.6 25.4 43.55 Q25.1 43.2 25.3 42.7" fill="#a6a637" fill-rule="evenodd" stroke="none"/>
      <path d="M30.8 41.9 L30.45 42.85 29.05 44.65 Q28.05 45.4 27.15 45.45 L26.65 45.45 26.35 44.75 Q26.15 44.35 26.4 43.6 L26.55 43.35 Q27.0 42.45 27.8 41.8 27.95 41.7 28.05 41.65 28.8 41.1 29.5 41.05 30.3 41.0 30.8 41.9" fill="#86862d" fill-rule="evenodd" stroke="none"/>
      <path d="M25.25 44.8 L24.9 44.35 Q24.55 43.65 25.1 42.5 25.65 41.35 26.75 40.5 27.85 39.6 28.85 39.5 L28.95 39.45 Q29.9 39.4 30.3 39.9 L30.6 40.35 30.7 41.35 30.8 41.9 30.45 42.85 29.05 44.65 Q28.05 45.4 27.15 45.45 L26.65 45.45 26.15 45.25 Q25.55 45.2 25.25 44.8 Z" fill="none" stroke="#000000" stroke-linecap="round" stroke-linejoin="round" stroke-opacity="0.3019608" stroke-width="0.30000000000000004"/>
    </g>
    <g id="sprite1" transform="matrix(1.0, 0.0, 0.0, 1.0, 0.0, 0.0)">
      <use height="26.7" transform="matrix(0.0042, -1.3515, 1.3935, 0.02, 22.09, 56.0263)" width="26.7" xlink:href="#sprite2"/>
      <use height="26.7" transform="matrix(0.0095, -3.0486, 0.372, 0.0053, 36.507, 81.3775)" width="26.7" xlink:href="#sprite2"/>
      <use height="26.7" transform="matrix(3.0486, 0.0095, -0.0053, 0.372, 0.1225, 35.107)" width="26.7" xlink:href="#sprite2"/>
    </g>
    <g id="sprite2" transform="matrix(1.0, 0.0, 0.0, 1.0, 13.35, 13.35)">
      <use height="26.7" transform="matrix(1.0, 0.0, 0.0, 1.0, -13.35, -13.35)" width="26.7" xlink:href="#shape2"/>
    </g>
    <g id="shape2" transform="matrix(1.0, 0.0, 0.0, 1.0, 13.35, 13.35)">
      <path d="M9.3 -9.85 Q13.35 -5.8 13.35 0.0 13.35 5.8 9.3 9.3 5.8 13.35 0.0 13.35 -5.8 13.35 -9.85 9.3 -13.35 5.8 -13.35 0.0 -13.35 -5.8 -9.85 -9.85 -5.8 -13.35 0.0 -13.35 5.8 -13.35 9.3 -9.85" fill="url(#gradient0)" fill-rule="evenodd" stroke="none"/>
    </g>
    <radialGradient cx="0" cy="0" gradientTransform="matrix(0.0213, 0.0, 0.0, 0.0213, 0.0, 0.0)" gradientUnits="userSpaceOnUse" id="gradient0" r="819.2" spreadMethod="pad">
      <stop offset="0.19607843137254902" stop-color="#fee3bc" stop-opacity="0.5686275"/>
      <stop offset="0.5019607843137255" stop-color="#fee3bc" stop-opacity="0.09019608"/>
      <stop offset="0.7607843137254902" stop-color="#ffe3bd" stop-opacity="0.0"/>
    </radialGradient>
  </defs>
</svg>
