<?xml version="1.0" encoding="UTF-8" standalone="no"?>
<svg xmlns:xlink="http://www.w3.org/1999/xlink" height="52.0px" width="52.0px" xmlns="http://www.w3.org/2000/svg">
  <g transform="matrix(1.0, 0.0, 0.0, 1.0, 0.0, 0.0)">
    <use height="56.0" transform="matrix(1.0, 0.0, 0.0, 1.0, -2.0, -2.0)" width="56.0" xlink:href="#shape0"/>
    <use height="0.0" transform="matrix(0.0364, 0.0153, -0.0248, 0.0389, 26.15, 19.2)" width="0.0" xlink:href="#sprite0"/>
    <use height="0.0" transform="matrix(0.0364, 0.0153, -0.018, 0.0418, 15.6, 14.2)" width="0.0" xlink:href="#sprite0"/>
    <use height="16.55" transform="matrix(1.0, 0.0, 0.0, 1.0, 3.45, 32.35)" width="28.1" xlink:href="#shape1"/>
    <use height="0.0" transform="matrix(0.1452, 0.0389, -0.134, 0.2534, 28.3, 25.2)" width="0.0" xlink:href="#sprite0"/>
    <use height="81.5" transform="matrix(0.151, 0.0405, -0.0396, 0.1478, 30.8, 7.05)" width="81.5" xlink:href="#sprite1"/>
    <use height="81.5" transform="matrix(0.1165, 0.0312, -0.0306, 0.1141, 24.0, 34.5)" width="81.5" xlink:href="#sprite1"/>
  </g>
  <defs>
    <g id="shape0" transform="matrix(1.0, 0.0, 0.0, 1.0, 2.0, 2.0)">
      <path d="M52.0 0.0 L52.0 52.0 0.0 52.0 0.0 0.0 52.0 0.0" fill="#795fa9" fill-opacity="0.0" fill-rule="evenodd" stroke="none"/>
      <path d="M34.45 4.55 Q30.55 3.8 27.5 4.45 L27.25 4.45 Q21.65 4.0 15.85 8.4 12.95 8.75 12.2 9.7 L12.95 11.55 13.0 11.65 12.95 11.65 12.5 12.4 Q11.2 14.6 10.2 16.95 8.7 20.35 7.9 24.1 L8.25 25.4 7.55 28.1 7.3 28.25 7.15 28.35 Q6.4 28.95 5.95 30.3 5.45 31.6 5.6 32.9 5.75 34.0 6.25 34.45 L4.25 37.35 4.25 37.95 Q4.6 39.1 7.15 41.3 L11.7 44.6 13.1 45.45 14.7 46.3 Q19.0 48.4 20.4 48.1 L20.7 47.95 22.65 45.55 Q23.6 44.3 23.4 43.45 L23.95 42.95 24.8 43.45 Q24.7 44.0 24.9 44.4 L25.25 44.85 Q25.55 45.25 26.15 45.3 L26.65 45.5 27.15 45.5 Q28.05 45.45 29.05 44.7 L30.45 42.9 30.8 41.95 30.7 41.4 30.6 40.4 30.3 39.95 30.1 39.75 31.8 38.3 32.1 38.0 33.65 36.65 34.8 37.65 40.0 31.95 40.3 30.9 39.85 30.4 39.9 30.4 42.15 26.65 42.55 25.9 Q43.3 24.05 43.65 22.05 L44.0 20.25 44.05 18.75 44.05 17.55 43.85 15.95 Q43.25 12.65 40.95 9.45 L39.05 6.5 38.7 5.85 38.3 4.95 36.45 4.85 34.45 4.55 Z" fill="none" stroke="#000000" stroke-linecap="round" stroke-linejoin="round" stroke-opacity="0.3019608" stroke-width="1.0"/>
      <path d="M9.8 28.9 L9.7 28.9 8.4 29.0 8.35 29.05 8.35 29.0 8.1 29.0 Q7.7 28.85 7.8 28.15 8.25 27.9 8.6 27.9 L9.1 28.1 Q9.55 28.35 9.8 28.9 M7.0 33.3 Q7.2 34.15 7.65 34.45 L8.0 34.65 7.0 34.75 6.75 34.65 Q6.05 34.2 5.9 32.95 6.05 33.5 6.45 33.65 6.9 33.75 7.0 33.3" fill="#cc6b22" fill-rule="evenodd" stroke="none"/>
      <path d="M6.5 29.85 Q6.8 29.6 7.05 29.6 L7.35 29.95 7.35 30.5 7.25 30.8 Q6.85 31.9 6.95 33.0 L7.0 33.3 Q6.9 33.75 6.45 33.65 6.05 33.5 5.9 32.95 L5.9 32.9 Q5.75 31.7 6.3 30.35 L6.5 29.85" fill="#a34100" fill-rule="evenodd" stroke="none"/>
      <path d="M8.6 27.9 Q8.25 27.9 7.8 28.15 L7.6 28.3 7.15 28.75 Q6.75 29.15 6.5 29.85 L6.3 30.35 Q5.75 31.7 5.9 32.9 L5.9 32.95 Q6.05 34.2 6.75 34.65 L7.0 34.75 Q6.7 34.75 6.45 34.55 5.8 34.15 5.6 32.9 5.45 31.6 5.95 30.3 6.4 28.95 7.15 28.35 L7.3 28.25 Q8.0 27.7 8.6 27.9" fill="#ffde4f" fill-rule="evenodd" stroke="none"/>
      <path d="M7.8 28.15 Q7.7 28.85 8.1 29.0 L8.35 29.0 8.35 29.05 8.4 29.0 9.7 28.9 9.8 28.9 10.05 29.3 10.35 30.3 Q10.5 31.35 10.1 32.6 9.7 33.7 8.95 34.25 L8.55 34.5 8.0 34.65 7.65 34.45 Q7.2 34.15 7.0 33.3 L6.95 33.0 Q6.85 31.9 7.25 30.8 L7.35 30.5 7.35 29.95 7.05 29.6 Q6.8 29.6 6.5 29.85 6.75 29.15 7.15 28.75 L7.6 28.3 7.8 28.15" fill="#8f3600" fill-rule="evenodd" stroke="none"/>
      <path d="M9.8 28.9 Q9.55 28.35 9.1 28.1 L8.6 27.9 Q8.0 27.7 7.3 28.25 L7.15 28.35 Q6.4 28.95 5.95 30.3 5.45 31.6 5.6 32.9 5.8 34.15 6.45 34.55 6.7 34.75 7.0 34.75 L8.0 34.65 8.55 34.5 8.95 34.25 Q9.7 33.7 10.1 32.6 10.5 31.35 10.35 30.3 L10.05 29.3 9.8 28.9 Z" fill="none" stroke="#000000" stroke-linecap="round" stroke-linejoin="round" stroke-opacity="0.3019608" stroke-width="0.30000000000000004"/>
      <path d="M29.6 4.8 L35.25 5.2 36.0 5.35 36.1 5.45 37.15 7.15 37.55 8.75 35.9 7.6 Q34.55 6.75 32.85 6.0 L30.7 5.1 29.6 4.8 M39.15 10.2 Q38.5 8.15 39.3 7.75 41.6 10.85 42.65 13.6 43.2 14.7 43.4 15.95 L43.55 17.65 Q43.65 19.7 43.0 22.15 L42.6 23.5 41.1 27.15 39.4 30.0 39.85 30.4 40.05 30.65 38.5 32.3 Q38.25 31.7 38.25 30.85 38.25 30.2 38.4 29.5 L38.55 28.9 Q40.6 26.0 41.5 22.35 42.1 20.25 42.2 17.85 L42.25 17.2 42.15 16.1 41.4 13.65 Q40.6 11.8 39.15 10.2 M42.25 25.55 L43.4 22.1 44.1 18.75 43.95 20.25 43.7 22.0 Q43.3 24.0 42.5 25.85 L42.15 26.65 42.25 25.55 M32.4 20.45 L34.65 23.55 36.6 26.9 36.65 26.85 36.65 26.9 36.75 27.1 37.0 27.75 36.6 26.9 34.35 23.6 32.2 21.1 30.8 21.15 31.15 21.55 Q30.65 21.15 30.2 21.65 29.05 23.0 26.9 24.1 L26.2 24.3 21.95 24.2 Q20.45 23.6 20.05 21.9 L20.05 21.65 20.1 21.85 Q20.55 22.7 21.35 23.2 23.65 24.55 26.15 23.75 L26.2 23.75 Q27.25 23.4 28.1 22.85 L30.15 21.15 30.45 20.75 32.4 20.45 M35.35 23.65 L35.05 23.15 34.55 22.4 Q34.2 20.7 34.35 19.3 34.45 18.1 34.95 16.95 L36.35 14.85 Q37.35 13.75 38.2 13.55 38.9 13.35 39.5 13.8 39.8 15.05 39.75 16.4 L39.6 18.35 39.15 20.35 Q38.5 22.0 37.55 22.85 L37.25 23.1 Q36.4 23.7 35.35 23.65 M18.25 17.8 L16.7 18.7 13.5 19.45 Q11.8 18.7 12.05 16.25 L12.45 14.35 13.3 12.15 18.05 14.55 21.25 14.05 19.4 17.1 18.25 17.8 M16.6 21.4 L20.15 16.65 20.05 17.65 19.85 18.75 19.75 20.3 Q19.45 20.85 19.45 22.0 L19.6 24.25 Q20.0 27.15 17.85 25.0 L17.05 22.45 16.6 21.4 M30.45 20.75 L30.8 21.15 30.45 20.75 M25.1 36.2 L26.9 38.85 Q25.6 41.95 20.95 40.95 L20.0 39.4 Q21.7 35.9 25.1 36.2 M27.5 39.9 L28.0 39.45 30.25 37.45 34.6 33.35 35.9 32.05 Q36.4 32.3 36.5 33.15 L36.45 34.45 35.0 36.0 Q34.65 36.3 33.75 35.7 L33.7 35.65 32.1 37.05 31.3 37.75 24.75 42.95 23.8 42.45 27.5 39.9 M24.95 35.15 L24.85 34.95 24.35 34.45 24.1 34.15 Q22.3 30.3 24.25 28.1 L26.1 26.15 Q30.3 22.6 35.15 26.4 L36.1 27.7 Q36.4 29.7 34.45 32.0 L33.0 33.5 32.8 33.7 Q28.25 36.8 24.95 35.15 M9.15 24.85 L12.65 26.25 Q9.5 25.35 8.8 27.85 L8.65 28.35 Q8.15 29.9 10.35 31.8 L7.6 31.05 Q7.5 29.95 8.1 27.95 8.45 26.6 9.15 24.85" fill="#f4a33c" fill-rule="evenodd" stroke="none"/>
      <path d="M37.1 13.55 Q38.05 12.15 37.0 9.2 L37.95 10.05 38.35 10.75 Q39.15 12.2 39.5 13.8 38.9 13.35 38.2 13.55 37.35 13.75 36.35 14.85 L34.95 16.95 Q34.45 18.1 34.35 19.3 34.2 20.7 34.55 22.4 L33.55 20.95 Q33.05 20.35 33.15 20.05 L33.25 19.5 Q33.2 18.3 32.75 17.25 L32.7 17.1 Q32.85 15.35 35.3 14.7 36.55 14.35 37.1 13.55 M27.1 13.9 L26.65 16.05 26.55 16.35 26.1 17.5 25.65 13.95 27.1 13.9 M31.1 16.65 L31.6 17.2 29.1 18.2 31.1 16.65 M12.9 22.2 Q14.5 21.55 16.0 21.2 L16.4 21.1 16.6 21.4 17.05 22.45 17.85 25.0 16.2 21.6 12.9 22.2 M18.25 12.0 L17.25 13.0 17.5 11.9 17.65 10.75 17.65 10.65 17.5 9.55 19.05 10.35 18.7 11.35 18.25 12.0 M14.65 11.75 L13.7 11.8 13.3 11.1 Q12.9 10.15 13.15 9.7 L14.6 9.3 Q14.95 9.6 14.7 11.35 L14.65 11.7 14.65 11.75 M31.15 21.55 L30.8 21.15 32.2 21.1 34.35 23.6 36.6 26.9 37.0 27.75 37.15 28.2 37.2 28.35 37.4 28.85 37.7 30.0 37.15 29.2 36.1 27.7 35.15 26.4 33.4 24.2 33.15 23.9 33.05 23.8 31.15 21.55 M18.8 29.45 Q17.9 28.05 22.3 26.7 L26.15 25.15 26.75 24.85 Q28.8 23.65 30.3 22.1 31.35 21.8 33.05 23.8 L33.15 23.9 33.4 24.2 35.15 26.4 Q30.3 22.6 26.1 26.15 L24.25 28.1 Q22.3 30.3 24.1 34.15 22.6 32.55 20.9 31.1 L18.8 29.45 M40.3 30.85 L40.0 31.9 34.8 37.6 34.85 37.25 35.05 36.4 40.3 30.85 M31.8 38.25 L29.5 40.2 24.85 43.4 24.75 42.95 31.3 37.75 32.1 37.05 31.8 38.25" fill="#a34100" fill-rule="evenodd" stroke="none"/>
      <path d="M39.4 30.0 Q40.75 28.5 41.8 26.5 L42.25 25.55 42.15 26.65 39.9 30.35 39.85 30.4 39.4 30.0 M37.95 10.05 L38.15 10.25 38.35 10.5 Q40.55 12.95 41.15 16.25 L41.35 18.05 41.0 22.1 40.9 22.5 Q40.2 25.3 38.25 28.15 37.6 29.0 36.75 27.1 L36.65 26.9 36.65 26.85 36.55 26.65 35.35 23.65 Q36.4 23.7 37.25 23.1 L37.55 22.85 Q38.5 22.0 39.15 20.35 L39.6 18.35 39.75 16.4 Q39.8 15.05 39.5 13.8 39.15 12.2 38.35 10.75 L37.95 10.05 M23.0 14.4 L23.3 14.25 Q24.9 13.5 26.45 13.5 L26.8 13.5 28.6 13.9 Q29.35 14.2 30.15 14.7 31.6 16.0 32.2 17.3 32.75 18.45 32.6 19.6 L32.5 20.15 32.4 20.45 30.45 20.75 30.15 21.15 23.9 17.05 Q23.05 17.15 22.7 18.4 L22.5 19.45 Q22.1 21.75 20.85 21.15 20.25 20.35 20.55 18.7 L21.05 16.85 Q22.25 14.5 23.1 14.75 L23.0 14.4 M27.1 13.9 L25.65 13.95 26.1 17.5 26.55 16.35 26.65 16.05 27.1 13.9 M30.8 16.25 L30.15 15.4 28.0 18.35 30.8 16.25 M31.1 16.65 L29.1 18.2 31.6 17.2 31.1 16.65 M38.55 28.9 L38.4 29.5 Q38.25 30.2 38.25 30.85 38.25 31.7 38.5 32.3 L36.45 34.45 36.5 33.15 Q36.4 32.3 35.9 32.05 L36.45 31.4 37.05 30.75 37.25 30.55 37.7 30.0 38.55 28.9 M12.6 25.65 Q12.1 24.8 12.55 23.25 L12.9 22.2 16.2 21.6 17.85 25.0 Q16.85 24.75 16.35 26.55 L16.15 27.65 14.75 26.85 12.6 25.65 M13.3 12.15 L13.0 11.6 12.95 11.5 12.2 9.7 Q16.45 7.8 19.3 9.75 L19.8 10.05 Q21.05 11.05 21.3 12.55 L21.3 12.9 21.35 13.0 21.25 14.0 21.25 14.05 18.05 14.55 13.3 12.15 M18.25 12.0 L18.7 11.35 19.05 10.35 17.5 9.55 17.65 10.65 17.65 10.75 17.5 11.9 17.25 13.0 18.25 12.0 M14.6 9.3 L13.15 9.7 Q12.9 10.15 13.3 11.1 L13.7 11.8 14.65 11.75 14.6 11.95 15.4 12.25 15.9 11.6 16.05 11.25 16.55 9.95 16.5 9.25 14.6 9.3 M26.9 38.85 L27.25 39.4 27.5 39.9 23.8 42.45 24.75 42.95 24.85 43.4 23.95 42.95 23.25 43.5 21.8 42.6 21.85 42.55 20.95 40.95 Q25.6 41.95 26.9 38.85 M28.0 39.45 L26.4 36.95 25.85 36.25 24.95 35.15 Q28.25 36.8 32.8 33.7 L33.0 33.5 34.45 32.0 Q36.4 29.7 36.1 27.7 L37.15 29.2 37.7 30.0 37.25 30.55 37.05 30.75 36.45 31.4 35.9 32.05 34.6 33.35 30.25 37.45 28.0 39.45 M33.65 36.6 Q32.9 37.25 32.1 38.0 L31.8 38.25 32.1 37.05 33.7 35.65 33.65 36.6 M23.95 42.95 L23.8 42.5 23.8 42.45 23.8 42.5 23.95 42.95" fill="#cc6b22" fill-rule="evenodd" stroke="none"/>
      <path d="M37.55 8.75 L37.15 7.15 36.1 5.45 36.0 5.35 35.25 5.2 29.6 4.8 27.5 4.45 Q30.55 3.75 34.4 4.55 L36.4 4.85 38.25 4.95 38.7 5.85 39.05 6.5 40.9 9.4 Q43.2 12.6 43.85 15.9 L44.05 17.55 44.1 18.75 43.4 22.1 42.25 25.55 41.8 26.5 Q40.75 28.5 39.4 30.0 L41.1 27.15 42.6 23.5 43.0 22.15 Q43.65 19.7 43.55 17.65 L43.4 15.95 Q43.2 14.7 42.65 13.6 41.6 10.85 39.3 7.75 38.5 8.15 39.15 10.2 L38.4 9.5 37.55 8.75 M28.1 22.85 Q25.05 24.1 22.8 23.3 20.15 22.4 20.05 20.25 20.05 18.3 20.75 15.8 21.7 14.55 21.8 13.35 L21.85 12.7 21.8 12.65 21.65 11.85 Q21.3 10.65 20.6 9.85 19.55 8.6 17.7 8.15 L20.3 6.5 Q23.45 4.8 27.25 5.2 L29.45 5.55 31.45 6.4 Q33.15 7.2 34.45 8.15 35.9 9.25 36.85 10.5 37.4 11.55 37.1 13.55 36.55 14.35 35.3 14.7 32.85 15.35 32.7 17.1 32.05 15.6 30.6 14.25 L29.6 13.45 Q28.35 12.65 26.85 12.85 L25.15 13.3 Q24.25 13.6 23.25 14.25 L23.0 14.4 23.1 14.75 Q22.25 14.5 21.05 16.85 L20.55 18.7 Q20.25 20.35 20.85 21.15 22.1 21.75 22.5 19.45 L22.7 18.4 Q23.05 17.15 23.9 17.05 L30.15 21.15 28.1 22.85 M38.35 10.5 L38.4 10.45 Q40.0 12.4 41.15 14.65 41.55 15.1 41.4 13.65 L42.15 16.1 42.25 17.2 42.2 17.85 Q42.1 20.25 41.5 22.35 40.6 26.0 38.55 28.9 L37.7 30.0 37.4 28.85 37.2 28.35 37.15 28.2 37.0 27.75 36.75 27.1 Q37.6 29.0 38.25 28.15 40.2 25.3 40.9 22.5 L41.0 22.1 41.35 18.05 41.15 16.25 Q40.55 12.95 38.35 10.5 M30.95 9.4 Q29.6 8.25 28.15 7.45 L27.65 7.15 27.15 7.05 Q21.95 5.8 21.2 9.0 L21.3 9.6 Q21.7 10.75 23.45 11.7 L23.95 11.95 26.85 12.25 27.4 12.1 Q28.7 11.75 29.4 12.3 32.55 13.05 31.6 10.0 L30.95 9.4 M38.5 32.3 L40.05 30.65 40.3 30.85 35.05 36.4 34.85 37.25 34.65 36.35 33.75 35.7 Q34.65 36.3 35.0 36.0 L36.45 34.45 38.5 32.3 M10.75 24.8 Q11.2 24.65 10.95 23.55 L10.55 22.35 Q10.05 21.5 10.2 19.9 10.35 18.7 10.85 17.1 L11.05 16.65 Q12.15 13.45 13.3 12.15 L12.45 14.35 12.05 16.25 Q11.8 18.7 13.5 19.45 L16.7 18.7 18.25 17.8 16.2 19.2 Q15.0 20.1 14.45 20.8 14.15 21.2 16.0 21.2 14.5 21.55 12.9 22.2 L12.55 23.25 Q12.1 24.8 12.6 25.65 L10.75 24.8 M19.75 20.3 L20.05 21.65 20.05 21.9 Q20.45 23.6 21.95 24.2 L26.2 24.3 26.9 24.1 Q29.05 23.0 30.2 21.65 30.65 21.15 31.15 21.55 L33.05 23.8 Q31.35 21.8 30.3 22.1 28.8 23.65 26.75 24.85 L26.15 25.15 22.3 26.7 Q17.9 28.05 18.8 29.45 L16.15 27.65 16.35 26.55 Q16.85 24.75 17.85 25.0 20.0 27.15 19.6 24.25 L19.45 22.0 Q19.45 20.85 19.75 20.3 M12.65 26.25 L14.05 26.95 Q17.7 28.95 20.9 31.8 20.6 33.55 19.6 34.45 L18.7 35.05 16.15 35.55 15.9 35.35 Q13.9 33.35 11.2 32.15 L10.6 31.85 10.35 31.8 Q8.15 29.9 8.65 28.35 L8.8 27.85 Q9.5 25.35 12.65 26.25" fill="#ffde4f" fill-rule="evenodd" stroke="none"/>
      <path d="M37.55 8.75 L38.4 9.5 39.15 10.2 Q40.6 11.8 41.4 13.65 41.55 15.1 41.15 14.65 40.0 12.4 38.4 10.45 L38.35 10.5 38.15 10.25 37.95 10.05 37.0 9.2 Q38.05 12.15 37.1 13.55 37.4 11.55 36.85 10.5 35.9 9.25 34.45 8.15 33.15 7.2 31.45 6.4 L29.45 5.55 27.25 5.2 Q23.45 4.8 20.3 6.5 L17.7 8.15 Q19.55 8.6 20.6 9.85 21.3 10.65 21.65 11.85 L21.8 12.65 21.85 12.7 21.8 13.35 Q21.7 14.55 20.75 15.8 20.05 18.3 20.05 20.25 20.15 22.4 22.8 23.3 25.05 24.1 28.1 22.85 27.25 23.4 26.2 23.75 L26.15 23.75 Q23.65 24.55 21.35 23.2 20.55 22.7 20.1 21.85 L20.05 21.65 19.75 20.3 19.85 18.75 20.05 17.65 20.15 16.65 16.6 21.4 16.4 21.1 16.0 21.2 Q14.15 21.2 14.45 20.8 15.0 20.1 16.2 19.2 L18.25 17.8 19.4 17.1 21.25 14.05 21.25 14.0 21.35 13.0 21.3 12.9 21.3 12.55 Q21.05 11.05 19.8 10.05 L19.3 9.75 Q16.45 7.8 12.2 9.7 12.95 8.7 15.9 8.35 21.65 3.95 27.25 4.4 L27.5 4.45 29.6 4.8 30.7 5.1 32.85 6.0 Q34.55 6.75 35.9 7.6 L37.55 8.75 M23.0 14.4 L23.25 14.25 Q24.25 13.6 25.15 13.3 L26.85 12.85 Q28.35 12.65 29.6 13.45 L30.6 14.25 Q32.05 15.6 32.7 17.1 L32.75 17.25 Q33.2 18.3 33.25 19.5 L33.15 20.05 Q33.05 20.35 33.55 20.95 L34.55 22.4 35.05 23.15 35.35 23.65 36.55 26.65 36.65 26.85 36.6 26.9 34.65 23.55 32.4 20.45 32.5 20.15 32.6 19.6 Q32.75 18.45 32.2 17.3 31.6 16.0 30.15 14.7 29.35 14.2 28.6 13.9 L26.8 13.5 26.45 13.5 Q24.9 13.5 23.3 14.25 L23.0 14.4 M30.95 9.4 L31.6 10.0 Q32.55 13.05 29.4 12.3 28.7 11.75 27.4 12.1 L26.85 12.25 23.95 11.95 23.45 11.7 Q21.7 10.75 21.3 9.6 L21.2 9.0 Q21.95 5.8 27.15 7.05 L27.65 7.15 28.15 7.45 Q29.6 8.25 30.95 9.4 M13.3 12.15 Q12.15 13.45 11.05 16.65 L10.85 17.1 Q10.35 18.7 10.2 19.9 10.05 21.5 10.55 22.35 L10.95 23.55 Q11.2 24.65 10.75 24.8 L10.2 24.55 8.35 24.0 7.9 24.1 Q8.7 20.35 10.15 16.9 11.2 14.55 12.5 12.35 L12.95 11.6 13.0 11.6 13.3 12.15 M20.9 31.8 L23.65 34.5 24.2 35.15 24.35 35.3 24.9 35.95 25.1 36.2 Q21.7 35.9 20.0 39.4 L20.95 40.95 21.85 42.55 Q19.35 39.2 17.35 37.25 L16.6 36.6 15.25 35.4 11.9 33.1 Q9.95 32.05 8.25 31.8 7.2 31.7 8.0 33.65 L7.75 33.5 Q7.1 32.3 6.8 30.9 L6.8 30.85 8.25 25.4 8.45 24.6 9.15 24.85 Q8.45 26.6 8.1 27.95 7.5 29.95 7.6 31.05 L10.35 31.8 10.6 31.85 11.2 32.15 Q13.9 33.35 15.9 35.35 L16.15 35.55 18.7 35.05 19.6 34.45 Q20.6 33.55 20.9 31.8" fill="#ffff98" fill-rule="evenodd" stroke="none"/>
      <path d="M30.8 16.25 L28.0 18.35 30.15 15.4 30.8 16.25 M10.75 24.8 L12.6 25.65 14.75 26.85 16.15 27.65 18.8 29.45 20.9 31.1 Q22.6 32.55 24.1 34.15 L24.35 34.45 24.85 34.95 24.95 35.15 25.85 36.25 26.4 36.95 28.0 39.45 27.5 39.9 27.25 39.4 26.9 38.85 25.1 36.2 24.9 35.95 24.35 35.3 24.2 35.15 23.65 34.5 20.9 31.8 Q17.7 28.95 14.05 26.95 L12.65 26.25 9.15 24.85 8.45 24.6 8.25 25.4 7.9 24.1 8.35 24.0 10.2 24.55 10.75 24.8 M14.6 9.3 L16.5 9.25 16.55 9.95 16.05 11.25 15.9 11.6 15.4 12.25 14.6 11.95 14.65 11.75 14.65 11.7 14.7 11.35 Q14.95 9.6 14.6 9.3 M8.0 33.65 Q7.2 31.7 8.25 31.8 9.95 32.05 11.9 33.1 13.45 34.4 13.4 35.6 13.4 36.25 12.9 36.85 L8.0 33.65 M16.6 36.6 L17.35 37.25 Q19.35 39.2 21.85 42.55 L21.8 42.6 16.4 39.1 Q16.0 38.25 15.95 37.7 15.85 36.75 16.6 36.6 M34.8 37.6 L33.65 36.6 33.7 35.65 33.75 35.7 34.65 36.35 34.85 37.25 34.8 37.6" fill="#8f3600" fill-rule="evenodd" stroke="none"/>
      <path d="M11.9 33.1 L15.25 35.4 16.6 36.6 Q15.85 36.75 15.95 37.7 16.0 38.25 16.4 39.1 L12.9 36.85 Q13.4 36.25 13.4 35.6 13.45 34.4 11.9 33.1" fill="#7e2601" fill-rule="evenodd" stroke="none"/>
      <path d="M37.55 8.75 L38.4 9.5 39.15 10.2 Q40.6 11.8 41.4 13.65 L42.15 16.1 42.25 17.2 42.2 17.85 Q42.1 20.25 41.5 22.35 40.6 26.0 38.55 28.9 L37.7 30.0 37.15 29.2 36.1 27.7 35.15 26.4 33.4 24.2 33.15 23.9 33.05 23.8 31.15 21.55 30.8 21.15 30.45 20.75 30.15 21.15 23.9 17.05 M44.1 18.75 L44.05 17.55 43.85 15.9 Q43.2 12.6 40.9 9.4 L39.05 6.5 38.7 5.85 38.25 4.95 36.4 4.85 34.4 4.55 Q30.55 3.75 27.5 4.45 L29.6 4.8 30.7 5.1 32.85 6.0 Q34.55 6.75 35.9 7.6 L37.55 8.75 M12.2 9.7 Q12.95 8.7 15.9 8.35 21.65 3.95 27.25 4.4 L27.5 4.45 M40.05 30.65 L39.85 30.4 39.4 30.0 M13.3 12.15 L13.0 11.6 12.95 11.5 12.2 9.7 M12.95 11.6 L12.5 12.35 Q11.2 14.55 10.15 16.9 8.7 20.35 7.9 24.1 L8.25 25.4 8.45 24.6 9.15 24.85 12.65 26.25 14.05 26.95 Q17.7 28.95 20.9 31.8 L23.65 34.5 24.2 35.15 24.35 35.3 24.9 35.95 25.1 36.2 26.9 38.85 27.25 39.4 27.5 39.9 28.0 39.45 30.25 37.45 34.6 33.35 35.9 32.05 36.45 31.4 37.05 30.75 37.25 30.55 37.7 30.0 M12.95 11.5 L12.95 11.6 M17.85 25.0 L16.2 21.6 12.9 22.2 M8.25 25.4 L6.8 30.85 6.8 30.9 Q7.1 32.3 7.75 33.5 L8.0 33.65 12.9 36.85 16.4 39.1 21.8 42.6 23.25 43.5 23.95 42.95 24.85 43.4 29.5 40.2 31.8 38.25 32.1 38.0 Q32.9 37.25 33.65 36.6 L34.8 37.6 40.0 31.9 40.3 30.85 40.05 30.65 M42.15 26.65 L42.5 25.85 Q43.3 24.0 43.7 22.0 L43.95 20.25 44.1 18.75 M42.15 26.65 L39.9 30.35 39.85 30.4 M23.8 42.45 L23.8 42.5 23.95 42.95 M23.8 42.45 L27.5 39.9" fill="none" stroke="#000000" stroke-linecap="round" stroke-linejoin="round" stroke-opacity="0.3019608" stroke-width="0.30000000000000004"/>
      <path d="M29.55 18.45 Q29.85 19.8 29.15 21.05 28.45 22.4 27.0 22.85 L26.95 22.85 25.4 23.0 24.2 22.6 24.0 22.5 23.1 21.7 22.5 20.5 22.45 20.35 Q22.1 19.0 22.8 17.75 23.55 16.4 24.95 15.95 L26.45 15.8 27.75 16.2 27.85 16.25 Q28.5 16.6 28.9 17.1 L29.5 18.25 29.55 18.45 M18.25 12.25 Q18.75 12.85 18.8 13.65 L18.85 14.15 Q18.85 15.65 17.8 16.75 16.75 17.9 15.4 18.0 L14.05 17.9 12.95 17.2 12.9 17.15 12.2 16.05 12.05 14.85 12.1 14.55 Q12.2 13.3 13.15 12.3 13.8 11.6 14.6 11.25 L15.55 11.0 15.9 11.0 Q16.6 11.0 17.25 11.35 L17.9 11.8 18.25 12.25" fill="#ffff98" fill-rule="evenodd" stroke="none"/>
      <path d="M11.25 24.55 L11.35 24.25 11.85 24.45 13.5 25.15 16.9 27.3 16.85 27.65 16.15 29.15 15.9 29.45 10.45 26.5 10.6 26.15 11.25 24.55" fill="#560000" fill-rule="evenodd" stroke="none"/>
      <path d="M17.2 27.15 L16.2 26.25 13.55 24.9 14.7 24.7 17.5 26.6 17.2 27.15 M12.45 24.35 L11.5 23.85 11.05 24.05 11.1 23.9 11.65 23.35 13.1 23.75 Q13.1 24.15 12.45 24.35 M16.05 29.9 L15.9 30.2 9.9 27.05 10.0 26.7 16.05 29.9" fill="#f4a33c" fill-rule="evenodd" stroke="none"/>
      <path d="M17.5 26.6 L14.7 24.7 13.55 24.9 12.45 24.35 Q13.1 24.15 13.1 23.75 L11.65 23.35 11.1 23.9 11.5 23.05 13.1 23.6 Q14.25 24.0 15.3 24.65 L17.4 26.15 17.5 26.6 M10.6 26.15 L10.45 26.5 15.9 29.45 16.15 29.15 16.2 29.65 16.05 29.9 10.0 26.7 10.1 26.35 10.6 26.15" fill="#ffde4f" fill-rule="evenodd" stroke="none"/>
      <path d="M13.55 24.9 L16.2 26.25 17.2 27.15 16.85 27.65 16.9 27.3 13.5 25.15 11.85 24.45 11.35 24.25 11.25 24.55 11.05 24.05 11.5 23.85 12.45 24.35 13.55 24.9 M15.9 30.2 L15.5 30.45 14.45 29.8 12.1 28.45 Q10.6 27.6 10.2 30.15 9.75 29.2 10.05 27.55 L9.9 27.05 15.9 30.2" fill="#cc6b22" fill-rule="evenodd" stroke="none"/>
      <path d="M29.55 18.45 Q29.85 19.8 29.15 21.05 28.45 22.4 27.0 22.85 L26.95 22.85 25.4 23.0 24.2 22.6 24.0 22.5 23.1 21.7 22.5 20.5 22.45 20.35 Q22.1 19.0 22.8 17.75 23.55 16.4 24.95 15.95 L26.45 15.8 27.75 16.2 27.85 16.25 Q28.5 16.6 28.9 17.1 L29.5 18.25 29.55 18.45 M18.25 12.25 Q18.75 12.85 18.8 13.65 L18.85 14.15 Q18.85 15.65 17.8 16.75 16.75 17.9 15.4 18.0 L14.05 17.9 12.95 17.2 12.9 17.15 12.2 16.05 12.05 14.85 12.1 14.55 Q12.2 13.3 13.15 12.3 13.8 11.6 14.6 11.25 L15.55 11.0 15.9 11.0 Q16.6 11.0 17.25 11.35 L17.9 11.8 18.25 12.25 M17.2 27.15 L17.5 26.6 17.4 26.15 15.3 24.65 Q14.25 24.0 13.1 23.6 L11.5 23.05 11.1 23.9 11.05 24.05 11.25 24.55 11.35 24.25 11.85 24.45 13.5 25.15 16.9 27.3 16.85 27.65 17.2 27.15 M10.6 26.15 L10.45 26.5 15.9 29.45 16.15 29.15 16.85 27.65 M16.15 29.15 L16.2 29.65 16.05 29.9 15.9 30.2 15.5 30.45 M9.9 27.05 L10.0 26.7 10.1 26.35 10.6 26.15 11.25 24.55" fill="none" stroke="#000000" stroke-linecap="round" stroke-linejoin="round" stroke-opacity="0.3019608" stroke-width="0.30000000000000004"/>
    </g>
    <g id="shape1" transform="matrix(1.0, 0.0, 0.0, 1.0, -3.45, -32.35)">
      <path d="M9.95 33.55 Q6.25 33.35 6.15 37.2 L5.2 37.1 Q6.15 34.45 8.05 33.1 L9.95 33.55 M20.7 47.95 Q20.9 47.5 20.05 46.35 21.85 45.65 23.1 42.8 23.95 43.8 22.65 45.55 L20.7 47.95" fill="#f4a33c" fill-rule="evenodd" stroke="none"/>
      <path d="M4.25 37.95 Q5.65 37.0 10.05 38.95 L10.75 39.3 Q12.4 42.3 11.7 44.6 L7.15 41.3 Q4.6 39.1 4.25 37.95 M14.65 41.55 L16.55 43.05 17.6 43.95 Q20.75 47.0 20.4 48.1 19.0 48.4 14.7 46.3 14.25 43.35 14.65 41.55" fill="#8f3600" fill-rule="evenodd" stroke="none"/>
      <path d="M12.0 34.45 Q11.0 36.95 8.95 38.1 L10.05 38.55 12.1 39.6 Q12.15 36.85 15.35 36.15 17.35 37.3 19.0 38.65 18.75 40.65 14.7 41.2 L16.8 42.9 17.85 43.85 20.05 46.35 Q20.9 47.5 20.7 47.95 L20.4 48.1 Q20.75 47.0 17.6 43.95 L16.55 43.05 14.65 41.55 Q12.85 40.3 10.75 39.3 L10.05 38.95 Q5.65 37.0 4.25 37.95 L4.25 37.35 5.2 37.1 6.15 37.2 Q6.25 33.35 9.95 33.55 L12.0 34.45" fill="#ffde4f" fill-rule="evenodd" stroke="none"/>
      <path d="M5.2 37.1 L4.25 37.35 7.0 33.4 Q7.3 33.05 8.05 33.1 6.15 34.45 5.2 37.1 M16.8 42.9 L14.7 41.2 Q18.75 40.65 19.0 38.65 L21.25 40.65 Q16.95 40.95 16.8 42.9" fill="#ffff98" fill-rule="evenodd" stroke="none"/>
      <path d="M15.35 36.15 Q12.15 36.85 12.1 39.6 L10.05 38.55 8.95 38.1 Q11.0 36.95 12.0 34.45 L13.85 35.35 15.35 36.15 M20.05 46.35 L17.85 43.85 16.8 42.9 Q16.95 40.95 21.25 40.65 L23.1 42.8 Q21.85 45.65 20.05 46.35" fill="#cc6b22" fill-rule="evenodd" stroke="none"/>
      <path d="M10.75 39.3 Q12.85 40.3 14.65 41.55 14.25 43.35 14.7 46.3 L13.1 45.45 11.7 44.6 Q12.4 42.3 10.75 39.3" fill="#7e2601" fill-rule="evenodd" stroke="none"/>
      <path d="M15.35 36.15 L13.85 35.35 12.0 34.45 9.95 33.55 8.05 33.1 Q7.3 33.05 7.0 33.4 L4.25 37.35 4.25 37.95 Q4.6 39.1 7.15 41.3 L11.7 44.6 13.1 45.45 14.7 46.3 Q19.0 48.4 20.4 48.1 L20.7 47.95 22.65 45.55 Q23.95 43.8 23.1 42.8 L21.25 40.65 19.0 38.65 Q17.35 37.3 15.35 36.15 Z" fill="none" stroke="#000000" stroke-linecap="round" stroke-linejoin="round" stroke-opacity="0.3019608" stroke-width="0.30000000000000004"/>
      <path d="M25.3 42.75 Q25.1 43.25 25.4 43.6 L26.05 43.65 Q25.7 44.45 25.95 45.0 L26.15 45.3 Q25.55 45.25 25.25 44.85 L25.1 44.65 Q24.75 43.9 25.3 42.75 M29.5 39.7 Q30.0 39.75 30.3 39.95 L30.6 40.4 30.7 41.4 30.7 41.35 Q30.35 40.75 29.5 40.8 L29.45 40.75 29.5 40.8 29.25 40.55 Q29.05 40.25 29.5 39.7" fill="#cc6b22" fill-rule="evenodd" stroke="none"/>
      <path d="M26.05 43.65 L26.1 43.35 Q26.65 42.4 27.6 41.65 L27.85 41.45 28.1 41.0 Q28.25 40.65 28.05 40.55 L27.45 40.45 Q28.05 40.0 28.6 39.85 L29.2 39.75 29.5 39.7 Q29.05 40.25 29.25 40.55 L29.5 40.8 29.45 40.75 29.5 40.8 Q30.35 40.75 30.7 41.35 L30.7 41.4 30.8 41.95 Q30.3 41.05 29.5 41.1 28.8 41.15 28.05 41.7 27.95 41.75 27.8 41.85 27.0 42.5 26.55 43.4 L26.4 43.65 Q26.15 44.4 26.35 44.8 L26.65 45.5 26.15 45.3 25.95 45.0 Q25.7 44.45 26.05 43.65" fill="#f4a33c" fill-rule="evenodd" stroke="none"/>
      <path d="M25.3 42.75 Q25.9 41.65 27.05 40.75 L27.45 40.45 28.05 40.55 Q28.25 40.65 28.1 41.0 L27.85 41.45 27.6 41.65 Q26.65 42.4 26.1 43.35 L26.05 43.65 25.4 43.6 Q25.1 43.25 25.3 42.75" fill="#a34100" fill-rule="evenodd" stroke="none"/>
      <path d="M27.45 40.45 L27.05 40.75 Q25.9 41.65 25.3 42.75 24.75 43.9 25.1 44.65 L25.25 44.85 24.9 44.4 Q24.55 43.7 25.1 42.55 25.65 41.4 26.75 40.55 27.85 39.65 28.85 39.55 L28.95 39.5 Q29.9 39.45 30.3 39.95 30.0 39.75 29.5 39.7 L29.2 39.75 28.6 39.85 Q28.05 40.0 27.45 40.45" fill="#ffde4f" fill-rule="evenodd" stroke="none"/>
      <path d="M26.65 45.5 L26.35 44.8 Q26.15 44.4 26.4 43.65 L26.55 43.4 Q27.0 42.5 27.8 41.85 27.95 41.75 28.05 41.7 28.8 41.15 29.5 41.1 30.3 41.05 30.8 41.95 L30.45 42.9 29.05 44.7 Q28.05 45.45 27.15 45.5 L26.65 45.5" fill="#8f3600" fill-rule="evenodd" stroke="none"/>
      <path d="M30.3 39.95 Q29.9 39.45 28.95 39.5 L28.85 39.55 Q27.85 39.65 26.75 40.55 25.65 41.4 25.1 42.55 24.55 43.7 24.9 44.4 L25.25 44.85 Q25.55 45.25 26.15 45.3 L26.65 45.5 27.15 45.5 Q28.05 45.45 29.05 44.7 L30.45 42.9 30.8 41.95 30.7 41.4 30.6 40.4 30.3 39.95 Z" fill="none" stroke="#000000" stroke-linecap="round" stroke-linejoin="round" stroke-opacity="0.3019608" stroke-width="0.30000000000000004"/>
    </g>
    <g id="sprite1" transform="matrix(1.0, 0.0, 0.0, 1.0, 0.0, 0.0)">
      <use height="26.7" transform="matrix(0.0042, -1.3515, 1.3935, 0.02, 22.09, 56.0263)" width="26.7" xlink:href="#sprite2"/>
      <use height="26.7" transform="matrix(0.0095, -3.0486, 0.372, 0.0053, 36.507, 81.3775)" width="26.7" xlink:href="#sprite2"/>
      <use height="26.7" transform="matrix(3.0486, 0.0095, -0.0053, 0.372, 0.1225, 35.107)" width="26.7" xlink:href="#sprite2"/>
    </g>
    <g id="sprite2" transform="matrix(1.0, 0.0, 0.0, 1.0, 13.35, 13.35)">
      <use height="26.7" transform="matrix(1.0, 0.0, 0.0, 1.0, -13.35, -13.35)" width="26.7" xlink:href="#shape2"/>
    </g>
    <g id="shape2" transform="matrix(1.0, 0.0, 0.0, 1.0, 13.35, 13.35)">
      <path d="M9.3 -9.85 Q13.35 -5.8 13.35 0.0 13.35 5.8 9.3 9.3 5.8 13.35 0.0 13.35 -5.8 13.35 -9.85 9.3 -13.35 5.8 -13.35 0.0 -13.35 -5.8 -9.85 -9.85 -5.8 -13.35 0.0 -13.35 5.8 -13.35 9.3 -9.85" fill="url(#gradient0)" fill-rule="evenodd" stroke="none"/>
    </g>
    <radialGradient cx="0" cy="0" gradientTransform="matrix(0.0213, 0.0, 0.0, 0.0213, 0.0, 0.0)" gradientUnits="userSpaceOnUse" id="gradient0" r="819.2" spreadMethod="pad">
      <stop offset="0.19607843137254902" stop-color="#fee3bc" stop-opacity="0.5686275"/>
      <stop offset="0.5019607843137255" stop-color="#fee3bc" stop-opacity="0.09019608"/>
      <stop offset="0.7607843137254902" stop-color="#ffe3bd" stop-opacity="0.0"/>
    </radialGradient>
  </defs>
</svg>
