<?xml version="1.0" encoding="UTF-8" standalone="no"?>
<svg xmlns:xlink="http://www.w3.org/1999/xlink" height="52.0px" width="52.0px" xmlns="http://www.w3.org/2000/svg">
  <g transform="matrix(1.0, 0.0, 0.0, 1.0, 0.0, 0.0)">
    <use height="56.0" transform="matrix(1.0, 0.0, 0.0, 1.0, -2.0, -2.0)" width="56.0" xlink:href="#shape0"/>
    <use height="0.0" transform="matrix(0.0777, 0.065, -0.1297, 0.1213, 25.1, 19.95)" width="0.0" xlink:href="#sprite0"/>
    <use height="0.0" transform="matrix(0.0983, 0.0, -0.035, 0.0817, 22.8, 36.65)" width="0.0" xlink:href="#sprite0"/>
    <use height="0.0" transform="matrix(0.0695, -0.0695, 0.033, 0.0825, 37.6, 29.6)" width="0.0" xlink:href="#sprite0"/>
    <use height="81.5" transform="matrix(0.1255, 0.0, 0.0, 0.1259, 31.1, 14.95)" width="81.5" xlink:href="#sprite1"/>
  </g>
  <defs>
    <g id="shape0" transform="matrix(1.0, 0.0, 0.0, 1.0, 2.0, 2.0)">
      <path d="M52.0 0.0 L52.0 52.0 0.0 52.0 0.0 0.0 52.0 0.0" fill="#795fa9" fill-opacity="0.0" fill-rule="evenodd" stroke="none"/>
      <path d="M44.5 7.45 L42.65 7.9 Q39.25 9.35 36.6 11.15 L29.3 9.7 26.4 10.95 Q26.4 8.2 25.35 5.65 24.65 4.05 23.9 3.8 23.45 3.65 22.95 4.15 22.3 4.6 24.25 9.1 L24.95 11.5 24.25 11.8 22.55 13.45 21.75 13.7 21.1 14.0 20.55 14.25 20.4 14.35 Q18.8 15.25 17.55 16.65 L17.1 17.15 Q16.4 18.05 16.05 18.9 L16.05 18.95 10.35 22.75 10.35 29.35 14.6 32.9 Q12.15 34.3 11.2 36.1 L11.15 36.1 10.05 35.45 7.25 36.8 6.35 38.4 6.5 39.7 8.55 44.4 11.45 46.5 13.4 46.6 14.8 45.0 14.85 43.95 16.05 44.45 17.75 44.85 17.8 45.55 19.8 48.0 21.65 48.45 24.1 47.7 24.75 45.25 Q27.35 44.75 28.2 42.85 29.2 40.45 29.35 38.4 L32.25 39.25 39.95 37.7 45.2 29.6 41.6 21.9 42.05 19.8 38.25 12.05 Q39.65 11.45 41.0 11.1 44.7 9.8 45.45 8.55 45.85 7.9 45.65 7.6 L44.5 7.45 Z" fill="none" stroke="#000000" stroke-linecap="round" stroke-linejoin="round" stroke-opacity="0.3019608" stroke-width="1.0"/>
      <path d="M16.95 34.7 L16.95 34.8 16.75 34.7 16.95 34.7" fill="#825a20" fill-rule="evenodd" stroke="none"/>
      <path d="M24.05 12.5 L24.0 12.5 24.05 12.5" fill="#e0c585" fill-rule="evenodd" stroke="none"/>
      <path d="M37.9 11.4 L37.55 12.0 30.15 10.25 29.3 9.7 30.15 10.25 32.2 11.55 32.0 11.85 29.4 10.5 24.05 12.5 24.0 12.5 19.2 17.45 18.7 17.3 11.95 22.7 14.55 26.45 17.05 27.15 15.6 28.1 15.15 27.2 12.75 25.0 10.35 22.75 18.55 17.25 24.2 11.8 29.3 9.7 37.9 11.4 M23.8 13.2 L22.95 18.0 24.7 19.85 22.2 18.2 23.8 13.2 M24.05 12.5 L24.05 12.45 24.2 11.8 24.05 12.45 24.05 12.5" fill="#f9f8ec" fill-rule="evenodd" stroke="none"/>
      <path d="M30.15 10.25 L37.55 12.0 37.0 13.15 34.7 13.15 33.8 12.6 34.7 13.15 36.75 15.0 38.5 20.7 37.85 21.5 36.5 16.05 33.8 12.6 32.9 12.0 32.2 11.55 30.15 10.25 M24.05 12.5 L29.4 10.5 32.0 11.85 27.85 17.8 27.85 17.85 25.6 20.4 27.1 22.35 25.15 24.75 17.05 27.15 14.55 26.45 11.95 22.7 18.7 17.3 19.2 17.45 22.2 18.2 24.7 19.85 22.95 18.0 23.8 13.2 24.0 12.5 24.05 12.5 M33.35 26.9 L37.85 21.5 34.35 26.9 33.35 30.2 39.5 36.8 43.8 31.6 39.9 37.65 32.0 30.85 33.35 26.9 32.0 30.85 16.95 34.7 15.95 29.7 17.45 33.85 31.5 29.95 33.35 26.9 M25.6 20.4 L24.7 19.85 25.6 20.4 M12.65 31.3 L10.35 29.35 10.35 22.75 12.75 25.0 10.75 24.3 11.0 29.3 12.65 31.3" fill="#f0f0d2" fill-rule="evenodd" stroke="none"/>
      <path d="M37.55 12.0 L37.9 11.4 42.0 19.8 38.5 20.7 36.75 15.0 37.0 13.15 37.55 12.0 M32.9 12.0 L33.8 12.6 36.5 16.05 37.85 21.5 33.35 26.9 30.2 24.6 33.35 26.9 31.5 29.95 17.45 33.85 15.95 29.7 15.6 28.1 17.05 27.15 25.15 24.75 30.2 24.6 27.1 22.35 25.6 20.4 27.85 17.85 27.85 17.8 32.9 12.0 M24.0 12.5 L23.8 13.2 22.2 18.2 19.2 17.45 24.0 12.5" fill="#d5d580" fill-rule="evenodd" stroke="none"/>
      <path d="M37.0 13.15 L36.75 15.0 34.7 13.15 37.0 13.15 M37.85 21.5 L38.5 20.7 41.55 21.9 45.15 29.55 43.8 31.6 39.5 36.8 33.35 30.2 34.35 26.9 37.85 21.5 M32.0 11.85 L32.2 11.55 32.9 12.0 27.85 17.8 32.0 11.85 M27.1 22.35 L30.2 24.6 25.15 24.75 27.1 22.35 M12.75 25.0 L15.15 27.2 15.6 28.1 15.95 29.7 16.95 34.7 16.75 34.7 12.65 31.3 11.0 29.3 10.75 24.3 12.75 25.0" fill="#bfbf40" fill-rule="evenodd" stroke="none"/>
      <path d="M38.5 20.7 L42.0 19.8 41.55 21.9 38.5 20.7 M32.0 30.85 L39.9 37.65 32.2 39.25 16.95 34.8 16.95 34.7 32.0 30.85" fill="#a6a637" fill-rule="evenodd" stroke="none"/>
      <path d="M37.55 12.0 L37.9 11.4 29.3 9.7 30.15 10.25 32.2 11.55 32.9 12.0 27.85 17.8 M37.55 12.0 L37.0 13.15 36.75 15.0 38.5 20.7 42.0 19.8 37.9 11.4 M33.8 12.6 L34.7 13.15 36.75 15.0 M32.9 12.0 L33.8 12.6 M37.85 21.5 L38.5 20.7 41.55 21.9 42.0 19.8 M27.85 17.85 L25.6 20.4 27.1 22.35 30.2 24.6 33.35 26.9 37.85 21.5 M43.8 31.6 L45.15 29.55 41.55 21.9 M24.05 12.5 L24.0 12.5 23.8 13.2 22.2 18.2 24.7 19.85 25.6 20.4 M24.2 11.8 L24.05 12.45 24.05 12.5 M10.35 22.75 L18.55 17.25 24.2 11.8 29.3 9.7 M12.75 25.0 L15.15 27.2 15.6 28.1 17.05 27.15 25.15 24.75 30.2 24.6 M15.6 28.1 L15.95 29.7 16.95 34.7 32.0 30.85 39.9 37.65 43.8 31.6 M33.35 26.9 L32.0 30.85 M16.95 34.7 L16.75 34.7 16.95 34.8 32.2 39.25 39.9 37.65 M12.65 31.3 L10.35 29.35 10.35 22.75 M12.65 31.3 L16.75 34.7" fill="none" stroke="#000000" stroke-linecap="round" stroke-linejoin="round" stroke-opacity="0.3019608" stroke-width="0.30000000000000004"/>
      <path d="M16.3 24.15 L23.05 25.6 30.95 30.5 31.25 30.8 32.25 31.85 30.55 30.5 23.05 26.2 16.5 24.55 13.5 24.55 13.7 25.35 13.1 25.35 12.65 25.05 11.4 25.35 12.2 24.8 12.65 24.55 13.75 24.25 14.3 24.15 15.05 24.1 16.3 24.15" fill="#f9f8ec" fill-rule="evenodd" stroke="none"/>
      <path d="M14.75 21.7 L14.8 21.6 14.85 21.7 14.75 21.7" fill="#e6e4b3" fill-rule="evenodd" stroke="none"/>
      <path d="M14.85 21.75 L14.85 21.7 14.85 21.75 M33.7 34.15 L33.65 34.15 30.3 30.8 20.9 26.05 14.5 25.35 13.7 25.35 13.5 24.55 16.5 24.55 23.05 26.2 30.55 30.5 32.25 31.85 32.4 32.05 32.65 32.4 33.7 34.15" fill="#f0f0d2" fill-rule="evenodd" stroke="none"/>
      <path d="M14.85 21.7 L14.8 21.6 14.75 21.7 Q13.3 22.7 12.65 24.55 L12.2 24.8 Q12.6 23.65 13.15 22.9 13.6 22.05 14.15 21.6 L14.3 21.5 14.5 21.4 Q14.85 21.1 15.15 21.15 L15.15 21.9 14.8 23.35 14.85 21.75 14.85 21.7 M30.95 30.5 L32.05 30.25 32.45 30.1 32.95 30.05 33.4 29.95 34.25 29.85 35.45 29.95 35.65 30.1 34.95 31.0 34.05 31.6 33.85 31.7 33.15 31.95 34.6 30.85 35.0 30.2 33.5 30.3 31.25 30.8 30.95 30.5" fill="#ffff98" fill-rule="evenodd" stroke="none"/>
      <path d="M14.75 21.7 L14.85 21.7 14.85 21.75 14.8 23.35 14.3 24.15 13.75 24.25 12.65 24.55 Q13.3 22.7 14.75 21.7 M31.25 30.8 L33.5 30.3 35.0 30.2 34.6 30.85 33.15 31.95 32.55 32.0 32.4 32.05 32.25 31.85 31.25 30.8" fill="#ffde4f" fill-rule="evenodd" stroke="none"/>
      <path d="M15.15 21.15 Q15.7 21.15 16.0 22.0 L16.1 22.3 16.25 23.3 16.3 24.15 15.05 24.1 14.3 24.15 14.8 23.35 15.15 21.9 15.15 21.15 M35.65 30.1 Q35.85 30.4 35.55 31.2 L35.2 31.95 34.3 33.45 33.75 34.3 33.7 34.15 32.65 32.4 32.4 32.05 32.55 32.0 33.15 31.95 33.85 31.7 34.05 31.6 34.95 31.0 35.65 30.1" fill="#f4a33c" fill-rule="evenodd" stroke="none"/>
      <path d="M12.2 24.8 Q12.6 23.65 13.15 22.9 13.6 22.05 14.15 21.6 L14.3 21.5 14.5 21.4 Q14.85 21.1 15.15 21.15 15.7 21.15 16.0 22.0 L16.1 22.3 16.25 23.3 16.3 24.15 23.05 25.6 30.95 30.5 32.05 30.25 32.45 30.1 32.95 30.05 33.4 29.95 34.25 29.85 35.45 29.95 35.65 30.1 Q35.85 30.4 35.55 31.2 L35.2 31.95 34.3 33.45 33.75 34.3 33.7 34.15 32.65 32.4 32.4 32.05 32.25 31.85 31.25 30.8 30.95 30.5 M11.4 25.35 L12.2 24.8 12.65 24.55 13.75 24.25 14.3 24.15 15.05 24.1 16.3 24.15" fill="none" stroke="#000000" stroke-linecap="round" stroke-linejoin="round" stroke-opacity="0.3019608" stroke-width="0.30000000000000004"/>
      <path d="M23.9 3.8 Q25.05 4.9 25.65 7.85 L25.65 8.05 Q26.05 10.25 25.6 13.8 L25.2 16.15 25.1 15.55 25.1 12.8 25.1 12.7 25.0 12.1 Q24.8 10.4 24.2 9.1 22.25 4.6 22.95 4.15 23.45 3.65 23.9 3.8" fill="#f0f0d2" fill-rule="evenodd" stroke="none"/>
      <path d="M25.2 16.15 L25.6 13.8 Q26.05 10.25 25.65 8.05 L25.65 7.85 Q25.05 4.9 23.9 3.8 24.6 4.0 25.3 5.65 26.5 8.55 26.35 11.65 L26.25 12.6 25.9 14.55 25.3 16.55 25.25 16.7 25.25 16.8 25.2 16.8 25.15 16.8 25.15 16.7 25.2 16.5 25.2 16.15" fill="#bfbf40" fill-rule="evenodd" stroke="none"/>
      <path d="M25.2 16.15 L25.2 16.5 25.15 16.7 25.15 16.8 M25.2 16.8 L25.25 16.8 25.25 16.7 25.3 16.55 25.9 14.55 26.25 12.6 26.35 11.65 Q26.5 8.55 25.3 5.65 24.6 4.0 23.9 3.8 23.45 3.65 22.95 4.15 22.25 4.6 24.2 9.1 24.8 10.4 25.0 12.1 L25.1 12.7 25.1 12.8 25.1 15.55 25.2 16.15 Z" fill="none" stroke="#000000" stroke-linecap="round" stroke-linejoin="round" stroke-opacity="0.3019608" stroke-width="0.30000000000000004"/>
      <path d="M45.6 7.55 Q45.7 8.05 43.95 8.95 L41.1 10.0 Q38.85 10.55 35.6 12.55 L33.7 14.0 32.35 15.35 31.8 16.0 31.75 16.05 30.8 16.85 30.0 17.75 30.6 16.85 31.5 15.6 32.05 14.95 33.65 13.35 34.4 12.7 35.4 11.95 Q38.45 9.7 42.65 7.9 L44.5 7.4 45.6 7.55" fill="#f0f0d2" fill-rule="evenodd" stroke="none"/>
      <path d="M31.8 16.0 L32.35 15.35 33.7 14.0 35.6 12.55 Q38.85 10.55 41.1 10.0 L43.95 8.95 Q45.7 8.05 45.6 7.55 45.8 7.85 45.4 8.55 44.7 9.8 40.95 11.05 39.0 11.55 36.95 12.65 L35.75 13.3 33.7 14.65 32.45 15.6 32.4 15.65 Q32.05 15.8 31.8 16.0" fill="#bfbf40" fill-rule="evenodd" stroke="none"/>
      <path d="M45.6 7.55 L44.5 7.4 42.65 7.9 Q38.45 9.7 35.4 11.95 L34.4 12.7 33.65 13.35 32.05 14.95 31.5 15.6 30.6 16.85 30.0 17.75 30.8 16.85 31.75 16.05 31.8 16.0 Q32.05 15.8 32.4 15.65 L32.45 15.6 33.7 14.65 35.75 13.3 36.95 12.65 Q39.0 11.55 40.95 11.05 44.7 9.8 45.4 8.55 45.8 7.85 45.6 7.55 Z" fill="none" stroke="#000000" stroke-linecap="round" stroke-linejoin="round" stroke-opacity="0.3019608" stroke-width="0.30000000000000004"/>
      <path d="M35.75 16.85 Q36.4 17.45 36.65 18.6 37.05 20.45 36.15 22.6 L35.9 23.05 Q35.15 24.6 33.95 25.55 L33.5 25.85 Q32.8 26.35 32.15 26.55 L30.6 26.65 30.3 26.55 Q28.8 26.1 28.4 24.25 L28.3 23.4 28.4 22.0 28.5 21.55 28.9 20.25 29.1 19.9 29.55 19.15 29.85 18.65 30.6 17.75 31.55 16.95 31.6 16.95 32.2 16.6 32.25 16.55 32.3 16.55 33.55 16.2 34.75 16.3 Q35.35 16.5 35.75 16.85" fill="#8c8c2f" fill-rule="evenodd" stroke="none"/>
      <path d="M33.1 21.15 Q34.15 18.65 33.5 17.15 L32.8 16.15 32.4 16.25 32.1 16.35 32.0 16.4 31.55 16.75 31.45 16.75 31.15 17.0 30.0 18.2 29.75 18.6 29.2 19.6 29.2 19.7 Q28.95 20.2 28.85 20.7 L28.7 22.2 28.7 22.25 28.75 23.0 28.8 23.15 Q29.1 24.35 29.95 24.8 L30.4 25.0 31.65 25.1 Q32.4 24.95 33.15 24.4 L33.7 24.05 Q34.75 23.1 35.4 21.65 L35.4 21.6 Q36.25 19.75 35.9 18.15 35.65 17.2 35.1 16.65 34.75 16.35 34.2 16.2 L33.4 16.05 33.95 17.2 Q34.15 18.1 33.95 19.05 L33.55 20.25 33.55 20.3 33.1 21.15 M29.65 17.85 L30.4 16.9 31.35 16.15 31.4 16.1 32.0 15.75 32.05 15.7 33.35 15.3 34.5 15.45 35.5 16.0 Q36.2 16.65 36.45 17.75 36.85 19.6 35.9 21.75 L35.7 22.2 Q34.95 23.75 33.7 24.75 L33.3 25.0 31.95 25.7 30.4 25.8 30.1 25.7 Q28.6 25.25 28.2 23.4 L28.1 22.55 28.2 21.15 28.3 20.7 28.7 19.45 28.9 19.1 29.3 18.3 29.65 17.85" fill="#ffff98" fill-rule="evenodd" stroke="none"/>
      <path d="M28.8 23.15 L28.75 23.0 28.7 22.25 28.7 22.2 28.85 20.7 Q28.95 20.2 29.2 19.7 L29.2 19.6 29.75 18.6 30.0 18.2 31.15 17.0 31.45 16.75 31.55 16.75 32.0 16.4 32.1 16.35 32.4 16.25 32.8 16.15 33.5 17.15 Q34.15 18.65 33.1 21.15 L33.0 21.25 31.55 22.75 30.75 23.2 29.25 23.35 29.1 23.3 28.8 23.15" fill="#ffde4f" fill-rule="evenodd" stroke="none"/>
      <path d="M33.1 21.15 L33.55 20.3 33.55 20.25 33.95 19.05 Q34.15 18.1 33.95 17.2 L33.4 16.05 34.2 16.2 Q34.75 16.35 35.1 16.65 35.65 17.2 35.9 18.15 36.25 19.75 35.4 21.6 L35.4 21.65 Q34.75 23.1 33.7 24.05 L33.15 24.4 Q32.4 24.95 31.65 25.1 L30.4 25.0 29.95 24.8 Q29.1 24.35 28.8 23.15 L29.1 23.3 29.25 23.35 30.75 23.2 31.55 22.75 33.0 21.25 33.1 21.15" fill="#f4a33c" fill-rule="evenodd" stroke="none"/>
      <path d="M29.65 17.85 L30.4 16.9 31.35 16.15 31.4 16.1 32.0 15.75 32.05 15.7 33.35 15.3 34.5 15.45 35.5 16.0 Q36.2 16.65 36.45 17.75 36.85 19.6 35.9 21.75 L35.7 22.2 Q34.95 23.75 33.7 24.75 L33.3 25.0 31.95 25.7 30.4 25.8 30.1 25.7 Q28.6 25.25 28.2 23.4 L28.1 22.55 28.2 21.15 28.3 20.7 28.7 19.45 28.9 19.1 29.3 18.3 29.65 17.85 Z" fill="none" stroke="#000000" stroke-linecap="round" stroke-linejoin="round" stroke-opacity="0.3019608" stroke-width="0.30000000000000004"/>
      <path d="M25.8 17.05 L25.75 17.15 25.7 17.3 24.35 19.25 24.1 19.5 23.1 20.45 20.75 21.9 Q18.7 22.85 17.35 22.45 16.0 22.1 16.15 20.6 L16.15 20.35 16.3 19.75 16.35 19.65 Q16.65 18.75 17.4 17.85 L17.85 17.35 Q19.1 15.95 20.7 15.1 L20.85 15.0 21.4 14.7 22.05 14.45 22.9 14.15 23.4 14.05 24.25 14.0 24.8 14.15 25.1 14.25 Q25.75 14.5 25.95 15.1 L26.05 15.65 26.05 16.0 26.05 16.2 26.0 16.35 25.8 17.0 25.8 17.05" fill="#8c8c2f" fill-rule="evenodd" stroke="none"/>
      <path d="M25.8 17.0 L25.8 17.05" fill="none" stroke="#000000" stroke-linecap="round" stroke-linejoin="round" stroke-opacity="0.3019608" stroke-width="0.30000000000000004"/>
      <path d="M21.2 18.05 L22.2 17.05 22.3 16.95 22.4 16.85 23.25 15.55 23.3 15.45 23.35 15.3 23.4 15.25 23.55 14.55 23.55 14.3 23.55 14.25 23.45 13.8 24.0 13.9 24.05 13.9 Q24.75 14.15 25.05 14.75 L25.1 15.25 25.15 15.4 25.1 15.55 24.9 16.4 24.85 16.55 24.8 16.7 23.6 18.4 23.55 18.5 22.7 19.3 20.45 20.7 Q18.65 21.55 17.45 21.2 16.4 20.95 16.4 19.85 L16.4 19.55 16.45 19.45 16.8 19.55 Q17.85 19.85 19.4 19.1 L21.2 18.05" fill="#f4a33c" fill-rule="evenodd" stroke="none"/>
      <path d="M16.45 19.45 L16.6 18.75 Q16.9 18.0 17.55 17.2 L17.9 16.75 Q19.0 15.5 20.4 14.75 L20.75 14.55 21.05 14.4 21.8 14.1 22.35 13.9 22.7 13.85 Q23.1 14.45 22.95 15.25 22.65 16.4 21.2 18.05 L19.4 19.1 Q17.85 19.85 16.8 19.55 L16.45 19.45" fill="#ffde4f" fill-rule="evenodd" stroke="none"/>
      <path d="M21.2 18.05 Q22.65 16.4 22.95 15.25 23.1 14.45 22.7 13.85 L22.35 13.9 21.8 14.1 21.05 14.4 20.75 14.55 20.4 14.75 Q19.0 15.5 17.9 16.75 L17.55 17.2 Q16.9 18.0 16.6 18.75 L16.45 19.45 16.4 19.55 16.4 19.85 Q16.4 20.95 17.45 21.2 18.65 21.55 20.45 20.7 L22.7 19.3 23.55 18.5 23.6 18.4 24.8 16.7 24.85 16.55 24.9 16.4 25.1 15.55 25.15 15.4 25.1 15.25 25.05 14.75 Q24.75 14.15 24.05 13.9 L24.0 13.9 23.45 13.8 23.55 14.25 23.55 14.3 23.55 14.55 23.4 15.25 23.35 15.3 23.3 15.45 23.25 15.55 22.4 16.85 22.3 16.95 22.2 17.05 21.2 18.05 M17.5 16.65 Q18.8 15.25 20.35 14.35 L20.5 14.25 21.1 13.95 21.75 13.7 22.6 13.4 23.1 13.35 23.9 13.3 24.5 13.4 24.75 13.5 25.6 14.35 25.75 14.9 25.75 15.25 25.7 15.45 25.7 15.6 25.5 16.25 25.45 16.3 25.4 16.4 25.4 16.55 24.0 18.5 23.75 18.75 22.8 19.7 Q21.7 20.6 20.45 21.15 18.4 22.1 17.0 21.7 15.65 21.35 15.8 19.85 L15.85 19.6 16.0 19.05 16.05 18.9 Q16.35 18.05 17.1 17.15 L17.5 16.65" fill="#ffff98" fill-rule="evenodd" stroke="none"/>
      <path d="M17.5 16.65 Q18.8 15.25 20.35 14.35 L20.5 14.25 21.1 13.95 21.75 13.7 22.6 13.4 23.1 13.35 23.9 13.3 24.5 13.4 24.75 13.5 25.6 14.35 25.75 14.9 25.75 15.25 25.7 15.45 25.7 15.6 25.5 16.25 25.45 16.3 25.4 16.4 25.4 16.55 24.0 18.5 23.75 18.75 22.8 19.7 Q21.7 20.6 20.45 21.15 18.4 22.1 17.0 21.7 15.65 21.35 15.8 19.85 L15.85 19.6 16.0 19.05 16.05 18.9 Q16.35 18.05 17.1 17.15 L17.5 16.65 Z" fill="none" stroke="#000000" stroke-linecap="round" stroke-linejoin="round" stroke-opacity="0.3019608" stroke-width="0.30000000000000004"/>
      <path d="M15.4 34.25 Q15.4 32.5 17.5 31.5 19.65 30.5 22.7 30.8 25.7 31.15 27.85 32.65 30.0 34.15 30.0 35.9 30.0 37.65 27.85 38.65 25.7 39.7 22.7 39.35 19.65 39.0 17.5 37.5 15.4 36.0 15.4 34.25" fill="#36250e" fill-opacity="0.48235294" fill-rule="evenodd" stroke="none"/>
      <path d="M28.15 42.8 Q26.25 47.0 16.05 44.4 8.2 41.6 11.15 36.05 12.7 33.2 18.1 31.25 L20.05 31.05 Q24.75 30.85 28.2 33.95 30.5 37.35 28.15 42.8 M26.7 36.95 Q24.4 41.0 21.0 40.6 15.5 37.95 11.2 39.55 11.45 40.75 12.55 41.8 13.85 43.0 16.4 43.9 25.7 46.3 27.45 42.45 29.6 37.45 27.5 34.35 24.45 31.6 20.35 31.7 L18.25 31.9 17.2 32.3 Q15.75 32.7 13.15 34.75 11.4 36.1 11.05 38.3 10.85 39.1 12.65 38.65 L12.95 38.6 Q16.2 38.0 19.9 39.35 21.7 40.8 24.2 39.2 L26.7 36.95" fill="#ffff98" fill-rule="evenodd" stroke="none"/>
      <path d="M27.5 34.35 L26.7 36.95 24.2 39.2 Q20.3 35.05 20.35 31.7 24.45 31.6 27.5 34.35 M19.9 39.35 Q16.2 38.0 12.95 38.6 L12.65 38.65 Q10.85 39.1 11.05 38.3 11.4 36.1 13.15 34.75 15.75 32.7 17.2 32.3 20.3 33.4 19.9 39.35" fill="#ffde4f" fill-rule="evenodd" stroke="none"/>
      <path d="M20.35 31.7 Q20.3 35.05 24.2 39.2 21.7 40.8 19.9 39.35 20.3 33.4 17.2 32.3 L18.25 31.9 20.35 31.7" fill="#f4a33c" fill-rule="evenodd" stroke="none"/>
      <path d="M26.7 36.95 L27.5 34.35 Q29.6 37.45 27.45 42.45 25.7 46.3 16.4 43.9 13.85 43.0 12.55 41.8 11.45 40.75 11.2 39.55 15.5 37.95 21.0 40.6 24.4 41.0 26.7 36.95" fill="#cc6b22" fill-rule="evenodd" stroke="none"/>
      <path d="M28.15 42.8 Q26.25 47.0 16.05 44.4 8.2 41.6 11.15 36.05 12.7 33.2 18.1 31.25 L20.05 31.05 Q24.75 30.85 28.2 33.95 30.5 37.35 28.15 42.8 Z" fill="none" stroke="#000000" stroke-linecap="round" stroke-linejoin="round" stroke-opacity="0.3019608" stroke-width="0.30000000000000004"/>
      <path d="M24.1 45.2 L24.3 40.1 25.85 41.55 26.3 43.15 25.4 44.75 24.1 45.2 M13.55 43.65 L13.15 38.75 14.5 40.05 15.55 42.5 15.3 43.65 Q14.6 43.85 13.55 43.65" fill="#8f3600" fill-rule="evenodd" stroke="none"/>
      <path d="M12.35 37.35 L10.15 36.1 8.25 36.85 7.25 36.8 10.05 35.45 12.6 36.9 12.35 37.35 M9.5 37.25 L11.95 38.05 13.25 42.55 13.3 44.3 11.85 38.6 9.4 37.7 6.95 38.65 9.5 37.25 M17.25 38.7 L20.1 36.8 23.85 38.2 23.35 40.0 23.3 38.25 20.5 37.45 21.15 39.3 20.0 38.25 17.25 38.7" fill="#f9f8ec" fill-rule="evenodd" stroke="none"/>
      <path d="M12.35 37.35 L11.95 38.05 9.5 37.25 8.25 36.85 10.15 36.1 12.35 37.35 M23.05 46.35 L23.05 45.65 22.5 40.6 21.15 39.3 20.5 37.45 23.3 38.25 23.35 40.0 23.05 41.05 23.05 42.15 23.55 44.1 25.45 42.6 23.05 46.35 M23.05 42.15 L23.05 45.65 23.05 42.15" fill="#f0f0d2" fill-rule="evenodd" stroke="none"/>
      <path d="M11.95 38.05 L12.35 37.35 12.6 36.9 14.85 41.8 13.25 42.55 11.95 38.05 M8.25 36.85 L9.5 37.25 6.95 38.65 6.45 39.7 6.3 38.4 7.25 36.8 8.25 36.85 M23.85 38.2 L25.45 42.6 23.55 44.1 23.05 42.15 23.05 41.05 23.35 40.0 23.85 38.2" fill="#d5d580" fill-rule="evenodd" stroke="none"/>
      <path d="M21.6 48.45 L19.75 48.0 17.75 45.5 17.25 38.7 20.0 38.25 21.15 39.3 22.5 40.6 23.05 45.65 23.05 46.35 21.6 48.45 M6.95 38.65 L9.4 37.7 11.85 38.6 13.3 44.3 13.35 46.6 11.4 46.5 8.5 44.4 6.45 39.7 6.95 38.65" fill="#bfbf40" fill-rule="evenodd" stroke="none"/>
      <path d="M13.25 42.55 L14.85 41.8 14.75 45.0 13.35 46.6 13.3 44.3 13.25 42.55 M25.45 42.6 L24.1 47.7 21.6 48.45 23.05 46.35 25.45 42.6" fill="#a6a637" fill-rule="evenodd" stroke="none"/>
      <path d="M13.25 42.55 L14.85 41.8 12.6 36.9 10.05 35.45 7.25 36.8 6.3 38.4 6.45 39.7 8.5 44.4 11.4 46.5 13.35 46.6 14.75 45.0 14.85 41.8 M13.3 44.3 L13.25 42.55 M21.6 48.45 L19.75 48.0 17.75 45.5 17.25 38.7 20.1 36.8 23.85 38.2 25.45 42.6 24.1 47.7 21.6 48.45 23.05 46.35 23.05 45.65 23.05 42.15 23.05 41.05 23.35 40.0 23.85 38.2 M13.3 44.3 L13.35 46.6 M25.45 42.6 L23.05 46.35" fill="none" stroke="#000000" stroke-linecap="round" stroke-linejoin="round" stroke-opacity="0.3019608" stroke-width="0.30000000000000004"/>
    </g>
    <g id="sprite1" transform="matrix(1.0, 0.0, 0.0, 1.0, 0.0, 0.0)">
      <use height="26.7" transform="matrix(0.0042, -1.3515, 1.3935, 0.02, 22.09, 56.0263)" width="26.7" xlink:href="#sprite2"/>
      <use height="26.7" transform="matrix(0.0095, -3.0486, 0.372, 0.0053, 36.507, 81.3775)" width="26.7" xlink:href="#sprite2"/>
      <use height="26.7" transform="matrix(3.0486, 0.0095, -0.0053, 0.372, 0.1225, 35.107)" width="26.7" xlink:href="#sprite2"/>
    </g>
    <g id="sprite2" transform="matrix(1.0, 0.0, 0.0, 1.0, 13.35, 13.35)">
      <use height="26.7" transform="matrix(1.0, 0.0, 0.0, 1.0, -13.35, -13.35)" width="26.7" xlink:href="#shape1"/>
    </g>
    <g id="shape1" transform="matrix(1.0, 0.0, 0.0, 1.0, 13.35, 13.35)">
      <path d="M9.3 -9.85 Q13.35 -5.8 13.35 0.0 13.35 5.8 9.3 9.3 5.8 13.35 0.0 13.35 -5.8 13.35 -9.85 9.3 -13.35 5.8 -13.35 0.0 -13.35 -5.8 -9.85 -9.85 -5.8 -13.35 0.0 -13.35 5.8 -13.35 9.3 -9.85" fill="url(#gradient0)" fill-rule="evenodd" stroke="none"/>
    </g>
    <radialGradient cx="0" cy="0" gradientTransform="matrix(0.0213, 0.0, 0.0, 0.0213, 0.0, 0.0)" gradientUnits="userSpaceOnUse" id="gradient0" r="819.2" spreadMethod="pad">
      <stop offset="0.19607843137254902" stop-color="#fee3bc" stop-opacity="0.5568628"/>
      <stop offset="0.5019607843137255" stop-color="#fee3bc" stop-opacity="0.08627451"/>
      <stop offset="0.7607843137254902" stop-color="#ffe3bd" stop-opacity="0.0"/>
    </radialGradient>
  </defs>
</svg>
