<?xml version="1.0" encoding="UTF-8" standalone="no"?>
<svg xmlns:xlink="http://www.w3.org/1999/xlink" height="52.0px" width="52.0px" xmlns="http://www.w3.org/2000/svg">
  <g transform="matrix(1.0, 0.0, 0.0, 1.0, 0.0, 0.0)">
    <use height="54.0" transform="matrix(1.0, 0.0, 0.0, 1.0, -1.0, -1.0)" width="54.0" xlink:href="#shape0"/>
    <use height="0.0" transform="matrix(0.0672, 0.013, -0.0433, 0.1213, 37.65, 29.8)" width="0.0" xlink:href="#sprite0"/>
    <use height="0.0" transform="matrix(0.0398, 0.0632, -0.1063, 0.0504, 19.7, 15.95)" width="0.0" xlink:href="#sprite0"/>
    <use height="0.0" transform="matrix(-0.0241, 0.0605, -0.1239, -0.1071, 17.7, 34.0)" width="0.0" xlink:href="#sprite0"/>
    <use height="81.5" transform="matrix(0.136, 0.0202, -0.0167, 0.1544, 34.3, 20.1)" width="81.5" xlink:href="#sprite1"/>
    <use height="81.5" transform="matrix(0.136, 0.0202, -0.0167, 0.1544, 21.65, 11.9)" width="81.5" xlink:href="#sprite1"/>
    <use height="81.5" transform="matrix(0.136, 0.0202, -0.0167, 0.1544, 13.15, 27.35)" width="81.5" xlink:href="#sprite1"/>
    <use height="4.55" transform="matrix(1.0, 0.0, 0.0, 1.0, 38.8, 15.45)" width="4.6" xlink:href="#shape2"/>
    <use height="81.5" transform="matrix(0.0515, 0.0076, -0.0063, 0.0585, 38.4, 14.0)" width="81.5" xlink:href="#sprite1"/>
    <use height="81.5" transform="matrix(0.0515, 0.0076, -0.0063, 0.0585, 16.75, 6.2)" width="81.5" xlink:href="#sprite1"/>
  </g>
  <defs>
    <g id="shape0" transform="matrix(1.0, 0.0, 0.0, 1.0, 1.0, 1.0)">
      <path d="M52.0 0.0 L52.0 52.0 0.0 52.0 0.0 0.0 52.0 0.0" fill="#795fa9" fill-opacity="0.0" fill-rule="evenodd" stroke="none"/>
      <path d="M25.2 8.85 L25.6 10.75 26.3 10.85 28.55 11.45 29.9 11.95 29.95 11.95 30.25 12.05 32.35 12.95 Q34.85 14.1 36.6 15.35 37.0 13.95 38.0 13.05 39.6 11.65 41.55 11.95 43.05 12.15 44.15 13.3 45.65 14.65 46.45 16.2 L46.6 16.4 47.0 17.35 Q47.35 18.5 47.35 19.7 L47.4 19.85 47.35 20.65 47.2 21.65 Q46.75 23.25 45.6 24.3 L44.25 25.2 43.4 25.4 43.6 27.4 43.5 28.9 43.3 30.65 42.55 32.95 Q41.5 35.95 39.15 38.15 L36.25 40.35 35.9 40.5 35.8 40.6 35.95 41.3 36.0 42.2 Q35.95 44.1 35.0 45.9 32.95 44.95 31.55 42.35 L29.25 42.8 26.45 42.6 26.5 42.6 26.3 43.25 25.9 44.45 Q24.85 46.9 22.9 48.15 L22.75 47.9 Q21.35 45.7 21.35 42.25 L21.35 41.45 22.0 41.6 18.0 40.5 17.5 40.35 16.95 40.1 16.7 40.4 15.95 41.25 Q14.25 43.0 11.9 43.75 11.1 41.2 12.1 37.8 L12.15 37.45 12.25 37.05 11.15 36.0 10.35 34.95 9.95 34.4 8.6 32.25 8.35 32.2 7.55 32.0 7.3 31.9 6.95 31.75 Q5.75 31.2 4.65 29.95 L5.85 28.65 6.7 28.0 7.25 27.65 Q6.85 25.35 7.4 22.85 L7.5 22.35 8.2 20.0 Q9.3 17.35 11.3 15.35 12.55 14.15 14.15 13.05 L14.6 12.8 14.15 11.2 Q13.9 9.7 14.4 7.75 14.85 6.15 16.15 5.1 17.6 4.05 19.3 4.1 L19.9 4.15 20.1 4.2 21.05 4.5 Q21.9 4.8 22.6 5.45 24.0 6.6 24.75 7.95 L25.2 8.85 M21.05 9.15 L21.2 9.3 21.2 9.35 21.1 9.7 20.35 10.75 19.9 10.75 19.65 10.85 18.45 11.1 18.35 11.1 18.1 10.55 18.1 10.25 Q18.05 10.1 18.15 9.9 L18.15 9.85 Q18.2 9.4 18.5 9.1 L18.75 8.8 Q19.35 8.4 20.0 8.5 L20.8 8.85 21.05 9.15 M40.1 18.25 Q40.2 17.5 40.7 17.0 41.2 16.55 41.85 16.65 L42.3 16.85 42.6 17.05 42.9 17.3 43.0 17.55 Q42.95 18.35 42.4 18.9 L42.25 19.1 Q41.65 19.65 40.95 19.6 L40.5 19.05 40.05 18.5 40.1 18.25 M32.95 21.75 L33.2 22.3 33.1 22.0 32.95 21.75 M31.55 25.35 L30.1 25.5 28.4 24.7 Q27.8 22.45 27.85 20.4 L27.0 21.95 25.3 23.8 23.65 23.95 22.15 23.4 Q21.3 22.2 21.15 20.35 L20.55 21.55 19.8 22.65 18.75 23.0 18.1 22.9 17.2 25.0 17.1 25.6 16.9 27.4 17.2 27.45 17.9 28.2 Q18.3 29.25 18.35 30.6 L18.35 32.05 Q19.5 30.5 20.9 29.55 L22.6 29.8 23.4 30.45 24.15 34.15 Q25.25 32.0 26.9 30.95 L28.6 31.2 29.6 31.9 30.0 33.8 29.8 33.9 30.75 33.25 31.5 32.5 32.8 30.8 33.85 27.95 Q34.3 25.8 33.8 23.8 L33.6 23.25 32.55 24.5 31.55 25.35 M23.55 35.95 L23.8 35.95 24.5 35.85 24.85 35.85 23.9 35.95 23.55 35.95" fill="none" stroke="#000000" stroke-linecap="round" stroke-linejoin="round" stroke-opacity="0.3019608" stroke-width="1.0"/>
      <path d="M15.6 39.55 L16.25 38.35 17.1 39.75 16.75 40.3 15.95 41.3 15.6 39.55" fill="#a34100" fill-rule="evenodd" stroke="none"/>
      <path d="M16.25 38.35 L15.6 39.55 15.3 40.0 Q13.6 42.6 11.85 43.7 L11.8 43.45 14.65 40.15 14.8 40.0 14.8 39.85 Q14.9 39.3 13.9 38.25 L15.1 39.55 15.8 38.3 16.25 38.35" fill="#ffff98" fill-rule="evenodd" stroke="none"/>
      <path d="M13.9 38.25 Q14.9 39.3 14.8 39.85 L14.8 40.0 14.65 40.15 11.8 43.45 Q11.05 40.75 12.1 37.4 13.1 37.65 13.9 38.25" fill="#ffde4f" fill-rule="evenodd" stroke="none"/>
      <path d="M15.8 38.3 L15.1 39.55 13.9 38.25 Q13.1 37.65 12.1 37.4 L12.4 36.65 Q14.45 38.0 15.8 38.3" fill="#f4a33c" fill-rule="evenodd" stroke="none"/>
      <path d="M11.85 43.7 Q13.6 42.6 15.3 40.0 L15.6 39.55 15.95 41.3 Q14.15 42.95 11.85 43.7" fill="#cc6b22" fill-rule="evenodd" stroke="none"/>
      <path d="M16.25 38.35 L15.8 38.3 Q14.45 38.0 12.4 36.65 L12.1 37.4 Q11.05 40.75 11.8 43.45 L11.85 43.7 Q14.15 42.95 15.95 41.3 L16.75 40.3 17.1 39.75 16.25 38.35 Z" fill="none" stroke="#000000" stroke-linecap="round" stroke-linejoin="round" stroke-opacity="0.3019608" stroke-width="0.30000000000000004"/>
      <path d="M8.3 30.55 L8.3 30.5 8.3 30.55" fill="#339328" fill-rule="evenodd" stroke="none"/>
      <path d="M4.65 29.95 L6.75 30.7 7.55 32.0 7.25 31.9 6.95 31.75 Q5.7 31.2 4.65 29.95" fill="#cc6b22" fill-rule="evenodd" stroke="none"/>
      <path d="M6.75 30.7 L7.45 30.85 8.25 30.9 8.7 30.95 10.4 30.95 9.3 32.25 8.35 32.15 7.55 32.0 6.75 30.7" fill="#a34100" fill-rule="evenodd" stroke="none"/>
      <path d="M8.3 30.5 L7.15 30.45 7.15 30.4 7.05 30.4 6.95 30.4 6.65 30.35 6.65 27.95 Q7.5 27.45 8.55 27.05 L9.55 26.8 Q9.7 29.25 10.25 30.6 L8.6 30.55 8.3 30.55 8.3 30.5" fill="#f4a33c" fill-rule="evenodd" stroke="none"/>
      <path d="M6.65 30.35 L6.55 30.35 4.65 29.95 Q5.15 29.2 5.8 28.6 L6.65 27.95 6.65 30.35" fill="#ffde4f" fill-rule="evenodd" stroke="none"/>
      <path d="M6.65 30.35 L6.95 30.4 7.05 30.4 7.15 30.4 7.15 30.45 8.3 30.5 8.3 30.55 8.6 30.55 10.25 30.6 10.4 30.95 8.7 30.95 8.25 30.9 7.45 30.85 6.75 30.7 4.65 29.95 6.55 30.35 6.65 30.35" fill="#ffff98" fill-rule="evenodd" stroke="none"/>
      <path d="M10.4 30.95 L10.25 30.6 Q9.7 29.25 9.55 26.8 L8.55 27.05 Q7.5 27.45 6.65 27.95 L5.8 28.6 Q5.15 29.2 4.65 29.95 5.7 31.2 6.95 31.75 L7.25 31.9 7.55 32.0 8.35 32.15 9.3 32.25 10.4 30.95 Z" fill="none" stroke="#000000" stroke-linecap="round" stroke-linejoin="round" stroke-opacity="0.3019608" stroke-width="0.30000000000000004"/>
      <path d="M18.1 9.8 L18.1 9.85 18.1 9.8" fill="#339328" fill-rule="evenodd" stroke="none"/>
      <path d="M19.2 6.8 L19.25 6.85 19.2 6.85 19.2 6.8" fill="#9ae17b" fill-rule="evenodd" stroke="none"/>
      <path d="M23.15 11.45 L23.25 11.25 Q23.95 9.65 23.6 8.15 22.95 6.0 21.2 4.95 L21.05 4.85 19.9 4.65 18.85 4.65 18.0 4.8 Q16.85 5.1 15.85 6.0 L16.95 7.2 Q16.05 6.3 15.15 6.9 14.25 8.9 14.4 10.8 14.45 12.35 15.25 13.8 14.3 12.75 14.1 11.2 13.85 9.7 14.35 7.75 14.8 6.15 16.15 5.1 17.6 4.05 19.25 4.1 L19.9 4.15 20.1 4.2 21.05 4.45 Q21.9 4.8 22.55 5.45 L23.15 6.1 23.7 7.0 24.0 7.8 24.15 8.55 24.7 9.45 Q25.2 10.5 25.35 11.65 L24.65 10.25 24.15 9.75 24.1 9.9 Q23.95 10.95 23.4 11.8 L22.15 13.15 21.85 13.4 Q22.7 12.4 23.15 11.45 M19.25 6.85 L19.4 6.85 Q20.25 6.95 20.8 7.65 L20.9 7.9 Q20.45 7.4 19.75 7.3 L19.05 7.3 Q18.55 7.35 18.1 7.7 17.7 8.0 17.45 8.45 L17.2 9.1 Q17.05 9.9 17.45 10.55 L17.25 10.25 Q16.7 9.55 16.85 8.65 16.95 8.05 17.35 7.6 L17.75 7.2 Q18.4 6.75 19.2 6.85 L19.25 6.85 M19.25 11.15 L20.05 10.9 Q20.95 11.5 21.5 12.55 20.35 11.25 19.25 11.15" fill="#ffff98" fill-rule="evenodd" stroke="none"/>
      <path d="M18.0 4.8 L18.85 4.65 19.9 4.65 21.05 4.85 21.2 4.95 Q22.95 6.0 23.6 8.15 23.95 9.65 23.25 11.25 L23.15 11.45 Q21.45 10.55 21.05 9.7 L21.15 9.3 21.2 9.25 21.15 8.45 20.9 7.9 20.8 7.65 Q20.25 6.95 19.4 6.85 L19.25 6.85 19.2 6.8 18.15 5.6 Q17.9 5.15 18.0 4.8 M15.25 13.8 Q14.45 12.35 14.4 10.8 14.25 8.9 15.15 6.9 16.05 6.3 16.95 7.2 L17.0 7.2 17.35 7.6 Q16.95 8.05 16.85 8.65 16.7 9.55 17.25 10.25 L17.45 10.55 17.6 10.7 17.85 10.85 18.35 11.05 18.65 11.15 19.25 11.15 Q20.35 11.25 21.5 12.55 L21.85 13.4 Q21.05 13.9 20.2 14.05 L18.45 14.1 16.65 14.5 16.2 14.6 15.25 13.8" fill="#ffde4f" fill-rule="evenodd" stroke="none"/>
      <path d="M23.15 11.45 Q22.7 12.4 21.85 13.4 L21.5 12.55 Q20.95 11.5 20.05 10.9 L20.25 10.75 21.05 9.7 Q21.45 10.55 23.15 11.45 M16.95 7.2 L15.85 6.0 Q16.85 5.1 18.0 4.8 17.9 5.15 18.15 5.6 L19.2 6.8 19.2 6.85 Q18.4 6.75 17.75 7.2 L17.35 7.6 17.0 7.2 16.95 7.2" fill="#f4a33c" fill-rule="evenodd" stroke="none"/>
      <path d="M21.85 13.4 L22.15 13.15 23.4 11.8 Q23.95 10.95 24.1 9.9 L24.15 9.75 24.65 10.25 25.35 11.65 25.55 12.2 25.55 12.25 Q25.35 13.75 24.4 14.8 L23.6 15.55 Q22.35 16.45 20.95 16.55 L16.2 14.6 16.65 14.5 18.45 14.1 20.2 14.05 Q21.05 13.9 21.85 13.4 M23.7 7.0 L23.15 6.1 22.55 5.45 Q23.95 6.6 24.75 7.9 L25.2 8.85 23.7 7.0 M17.45 8.45 Q17.7 8.0 18.1 7.7 18.55 7.35 19.05 7.3 20.3 7.9 20.0 8.5 19.3 8.4 18.75 8.8 L18.45 9.05 Q18.2 9.35 18.1 9.8 17.5 9.9 17.45 8.45" fill="#cc6b22" fill-rule="evenodd" stroke="none"/>
      <path d="M25.35 11.65 Q25.2 10.5 24.7 9.45 L24.15 8.55 24.0 7.8 23.7 7.0 25.2 8.85 Q25.65 10.05 25.6 11.35 L25.65 11.5 25.55 12.2 25.35 11.65 M20.9 7.9 L21.15 8.45 21.2 9.25 21.05 9.1 20.75 8.85 Q20.45 8.55 20.0 8.5 20.3 7.9 19.05 7.3 L19.75 7.3 Q20.45 7.4 20.9 7.9 M18.1 9.8 L18.1 9.85 18.05 10.25 18.1 10.55 18.35 11.05 17.85 10.85 17.6 10.7 17.45 10.55 Q17.05 9.9 17.2 9.1 L17.45 8.45 Q17.5 9.9 18.1 9.8" fill="#a34100" fill-rule="evenodd" stroke="none"/>
      <path d="M22.55 5.45 Q21.9 4.8 21.05 4.45 L20.1 4.2 19.9 4.15 19.25 4.1 Q17.6 4.05 16.15 5.1 14.8 6.15 14.35 7.75 13.85 9.7 14.1 11.2 14.3 12.75 15.25 13.8 L16.2 14.6 20.95 16.55 Q22.35 16.45 23.6 15.55 L24.4 14.8 Q25.35 13.75 25.55 12.25 L25.55 12.2 25.65 11.5 25.6 11.35 Q25.65 10.05 25.2 8.85 L24.75 7.9 Q23.95 6.6 22.55 5.45 M20.9 7.9 L21.15 8.45 21.2 9.25 21.15 9.3 21.05 9.7 20.25 10.75 20.05 10.9 19.25 11.15 18.65 11.15 18.35 11.05 17.85 10.85 17.6 10.7 17.45 10.55 M18.1 9.85 L18.1 9.8 Q18.2 9.35 18.45 9.05 L18.75 8.8 Q19.3 8.4 20.0 8.5 20.45 8.55 20.75 8.85 L21.05 9.1 21.2 9.25 M18.1 9.85 L18.05 10.25 18.1 10.55 18.35 11.05" fill="none" stroke="#000000" stroke-linecap="round" stroke-linejoin="round" stroke-opacity="0.3019608" stroke-width="0.30000000000000004"/>
      <path d="M19.2 11.2 L19.15 11.2 19.2 11.2" fill="#cc6b22" fill-rule="evenodd" stroke="none"/>
      <path d="M17.65 9.9 L18.0 8.45 19.65 7.6 20.4 7.8 20.4 9.2 21.05 9.55 21.05 9.7 20.4 9.5 19.25 10.45 19.15 11.2 18.85 10.5 17.65 9.9 M19.55 9.8 L20.05 9.4 20.2 8.8 20.1 8.0 19.8 7.75 19.25 8.05 18.6 8.4 18.25 8.6 17.85 9.75 18.5 9.95 19.1 10.2 19.55 9.8" fill="#ffffff" fill-rule="evenodd" stroke="none"/>
      <path d="M19.15 11.2 L19.25 10.45 20.4 9.5 21.05 9.7 20.75 10.2 20.6 10.5 Q20.0 11.15 19.2 11.2 L19.15 11.2 M19.55 9.8 L19.1 10.2 18.5 9.95 18.6 8.4 19.25 8.05 Q19.15 8.95 19.55 9.8" fill="#a6a637" fill-rule="evenodd" stroke="none"/>
      <path d="M17.65 9.9 L18.85 10.5 19.15 11.2 18.85 11.2 18.2 11.05 17.65 9.9 M21.05 9.55 L20.4 9.2 20.4 7.8 21.05 8.25 21.1 8.8 21.15 8.85 21.05 9.55" fill="#cac960" fill-rule="evenodd" stroke="none"/>
      <path d="M19.25 8.05 L19.8 7.75 20.1 8.0 20.2 8.8 20.05 9.4 19.55 9.8 Q19.15 8.95 19.25 8.05 M18.5 9.95 L17.85 9.75 18.25 8.6 18.6 8.4 18.5 9.95" fill="#d5d580" fill-rule="evenodd" stroke="none"/>
      <path d="M20.4 7.8 L19.65 7.6 18.0 8.45 17.65 9.9 18.2 11.05 18.0 10.95 17.6 10.65 M21.05 9.7 L21.05 9.55 21.15 8.85 21.1 8.8 21.05 8.25 20.9 8.0 20.75 7.65 M20.4 7.8 L21.05 8.25 M21.05 9.7 L20.75 10.2 20.6 10.5 Q20.0 11.15 19.2 11.2 L19.15 11.2 18.85 11.2 18.2 11.05" fill="none" stroke="#000000" stroke-linecap="round" stroke-linejoin="round" stroke-opacity="0.3019608" stroke-width="0.30000000000000004"/>
      <path d="M29.3 42.75 L28.6 42.7 28.6 42.65 29.3 42.75" fill="#339328" fill-rule="evenodd" stroke="none"/>
      <path d="M25.6 41.2 L25.9 41.1 25.9 41.15 25.6 41.2" fill="#ecf49b" fill-rule="evenodd" stroke="none"/>
      <path d="M24.35 15.95 L24.55 15.95 24.35 15.95 M30.0 11.95 L30.2 12.05 30.0 11.95" fill="#d7f16b" fill-rule="evenodd" stroke="none"/>
      <path d="M15.8 12.7 Q16.8 14.15 17.5 16.6 L17.55 16.95 18.45 16.6 Q19.85 16.05 21.3 15.85 L24.35 15.95 21.35 16.05 Q19.8 16.3 18.35 17.0 L17.75 17.35 Q17.55 17.4 17.4 17.55 L16.25 18.3 15.0 19.5 Q14.05 20.5 13.45 21.8 L13.25 22.4 Q12.95 23.1 12.8 23.9 12.35 26.1 12.9 28.1 13.3 29.55 14.25 30.9 L14.6 31.45 15.25 32.25 15.7 32.7 Q17.4 34.45 19.75 35.4 L18.8 35.1 Q16.85 34.45 15.25 32.85 L15.15 32.75 14.15 31.65 13.9 31.35 Q11.35 27.85 12.15 23.8 12.4 22.45 13.0 21.35 L13.9 19.9 Q15.0 18.5 16.7 17.45 L16.85 17.35 16.9 16.85 Q16.95 15.4 15.8 12.7 M30.2 12.05 L32.3 12.9 Q34.9 14.1 36.65 15.4 L37.1 15.7 Q39.05 17.05 40.5 19.0 L41.7 20.8 39.35 18.05 37.05 16.15 34.45 14.75 32.2 13.15 32.15 13.1 32.05 13.05 31.85 12.9 30.2 12.05 M36.5 34.45 L37.8 32.25 38.55 30.05 38.6 29.8 39.1 27.5 39.15 27.2 Q39.85 22.3 36.25 16.6 L36.9 17.45 37.85 18.9 Q39.0 20.7 39.5 22.65 L39.85 24.5 39.9 25.1 Q42.15 26.35 43.15 28.35 41.45 26.4 39.95 25.9 L39.65 29.05 39.6 29.05 39.5 29.5 38.55 32.35 Q37.6 34.35 36.0 36.05 L35.65 36.45 33.6 38.1 32.6 38.75 Q30.4 40.1 28.05 40.7 L25.9 41.15 25.9 41.1 28.0 40.5 Q31.1 39.45 33.4 37.7 31.7 35.7 31.05 34.05 L30.95 33.8 33.8 36.8 35.45 35.65 35.5 35.6 36.5 34.45" fill="#ffff98" fill-rule="evenodd" stroke="none"/>
      <path d="M15.45 12.3 L15.8 12.7 Q16.95 15.4 16.9 16.85 L16.85 17.35 16.7 17.45 Q15.0 18.5 13.9 19.9 L13.0 21.35 Q12.4 22.45 12.15 23.8 11.35 27.85 13.9 31.35 L14.15 31.65 15.15 32.75 15.25 32.85 Q16.85 34.45 18.8 35.1 L19.75 35.4 21.7 35.8 23.85 35.9 25.0 37.25 Q25.8 38.75 25.9 41.1 L25.6 41.2 23.15 41.3 19.95 40.9 18.55 40.65 17.95 40.45 17.5 40.3 Q15.55 39.55 13.95 38.4 12.4 37.35 11.15 35.95 L10.3 34.9 9.9 34.4 Q6.1 29.05 7.35 22.85 L7.45 22.3 8.2 19.95 Q9.25 17.35 11.25 15.35 12.5 14.1 14.1 13.05 L15.45 12.3 M28.5 11.4 L29.9 11.9 29.95 11.9 30.0 11.95 30.2 12.05 31.85 12.9 32.05 13.05 32.15 13.1 32.2 13.15 34.45 14.75 35.8 16.05 36.25 16.6 Q39.85 22.3 39.15 27.2 L39.1 27.5 38.6 29.8 38.55 30.05 37.8 32.25 36.5 34.45 Q34.85 33.55 33.9 32.5 33.1 31.7 32.8 30.75 33.55 29.5 33.85 27.95 34.25 25.75 33.75 23.8 33.25 22.0 32.05 20.4 30.85 18.75 29.2 17.7 L29.0 17.55 28.75 17.4 28.4 17.25 28.0 17.0 27.85 14.6 28.05 12.8 28.5 11.4" fill="#ffde4f" fill-rule="evenodd" stroke="none"/>
      <path d="M15.45 12.3 Q17.5 11.25 19.65 10.8 L19.9 10.75 24.15 10.55 Q24.2 12.05 24.75 14.0 L25.25 15.6 25.45 16.15 25.0 16.0 24.95 16.0 24.9 16.0 24.65 16.0 24.55 15.95 24.35 15.95 21.3 15.85 Q19.85 16.05 18.45 16.6 L17.55 16.95 17.5 16.6 Q16.8 14.15 15.8 12.7 L15.45 12.3 M23.85 35.9 L26.65 35.45 Q28.0 35.05 29.25 34.25 L30.75 33.2 30.95 33.8 31.05 34.05 Q31.7 35.7 33.4 37.7 31.1 39.45 28.0 40.5 L25.9 41.1 Q25.8 38.75 25.0 37.25 L23.85 35.9" fill="#f4a33c" fill-rule="evenodd" stroke="none"/>
      <path d="M25.45 16.15 L25.25 15.6 24.75 14.0 Q24.2 12.05 24.15 10.55 L26.25 10.8 28.5 11.4 28.05 12.8 27.85 14.6 28.0 17.0 27.45 16.75 25.45 16.15 M41.7 20.8 Q43.45 23.95 43.55 27.35 L43.5 28.85 43.15 28.35 Q42.15 26.35 39.9 25.1 L39.85 24.5 39.5 22.65 Q39.0 20.7 37.85 18.9 L36.9 17.45 36.25 16.6 35.8 16.05 34.45 14.75 37.05 16.15 39.35 18.05 41.7 20.8 M28.6 42.7 L25.4 42.55 18.55 40.65 19.95 40.9 23.15 41.3 Q24.4 41.9 26.5 42.3 L28.6 42.65 28.6 42.7 M12.9 28.1 Q12.35 26.1 12.8 23.9 12.95 23.1 13.25 22.4 L13.45 21.8 Q17.45 20.3 17.2 24.95 L17.1 25.55 Q16.45 28.75 17.9 31.55 L15.6 30.45 14.25 29.45 12.9 28.1 M32.8 30.75 Q33.1 31.7 33.9 32.5 34.85 33.55 36.5 34.45 L35.5 35.6 35.45 35.65 33.8 36.8 30.95 33.8 30.75 33.2 31.5 32.5 32.8 30.75" fill="#cc6b22" fill-rule="evenodd" stroke="none"/>
      <path d="M43.5 28.85 L43.25 30.6 42.55 33.0 Q41.45 35.9 39.1 38.15 L36.85 37.6 35.9 36.85 35.65 36.45 36.0 36.05 Q37.6 34.35 38.55 32.35 L39.5 29.5 39.6 29.05 39.65 29.05 39.95 25.9 Q41.45 26.4 43.15 28.35 L43.5 28.85 M13.45 21.8 Q14.05 20.5 15.0 19.5 L16.25 18.3 18.15 18.25 18.25 18.25 Q19.85 18.45 21.15 19.55 18.1 21.6 17.2 24.95 17.45 20.3 13.45 21.8 M21.7 35.8 L19.75 35.4 Q17.4 34.45 15.7 32.7 L15.25 32.25 14.6 31.45 14.25 30.9 Q13.3 29.55 12.9 28.1 L14.25 29.45 15.6 30.45 17.9 31.55 18.0 31.75 18.85 33.1 Q20.05 34.75 21.7 35.8" fill="#a34100" fill-rule="evenodd" stroke="none"/>
      <path d="M24.55 15.95 L24.65 16.0 24.9 16.0 24.95 16.0 25.0 16.0 25.45 16.15 27.45 16.75 28.0 17.0 28.4 17.25 28.75 17.4 29.0 17.55 29.2 17.7 Q27.45 17.45 25.85 17.7 23.9 17.95 22.15 18.95 L21.65 19.2 21.15 19.55 Q19.85 18.45 18.25 18.25 L18.15 18.25 16.25 18.3 17.4 17.55 Q17.55 17.4 17.75 17.35 L18.35 17.0 Q19.8 16.3 21.35 16.05 L24.35 15.95 24.55 15.95 M39.1 38.15 L36.2 40.3 35.9 40.5 35.25 40.85 Q32.4 42.35 29.3 42.75 L28.6 42.65 26.5 42.3 Q24.4 41.9 23.15 41.3 L25.6 41.2 25.9 41.15 28.05 40.7 Q30.4 40.1 32.6 38.75 L33.6 38.1 35.65 36.45 35.9 36.85 36.85 37.6 39.1 38.15" fill="#8f3600" fill-rule="evenodd" stroke="none"/>
      <path d="M24.15 10.55 L19.9 10.75 19.65 10.8 Q17.5 11.25 15.45 12.3 L14.1 13.05 Q12.5 14.1 11.25 15.35 9.25 17.35 8.2 19.95 L7.45 22.3 7.35 22.85 Q6.1 29.05 9.9 34.4 L10.3 34.9 11.15 35.95 Q12.4 37.35 13.95 38.4 15.55 39.55 17.5 40.3 L17.6 40.35 17.75 40.4 17.95 40.45 17.6 40.35 M24.55 15.95 L24.65 16.0 24.9 16.0 24.95 16.0 25.0 16.0 25.45 16.15 27.45 16.75 28.0 17.0 28.4 17.25 28.75 17.4 29.0 17.55 29.2 17.7 Q30.85 18.75 32.05 20.4 33.25 22.0 33.75 23.8 34.25 25.75 33.85 27.95 33.55 29.5 32.8 30.75 L31.5 32.5 30.75 33.2 29.25 34.25 Q28.0 35.05 26.65 35.45 L23.85 35.9 21.7 35.8 19.75 35.4 18.8 35.1 M24.15 10.55 L26.25 10.8 28.5 11.4 29.9 11.9 29.95 11.9 30.0 11.95 30.2 12.05 32.3 12.9 Q34.9 14.1 36.65 15.4 L37.1 15.7 Q39.05 17.05 40.5 19.0 L41.7 20.8 Q43.45 23.95 43.55 27.35 L43.5 28.85 43.25 30.6 42.55 33.0 Q41.45 35.9 39.1 38.15 L36.2 40.3 35.9 40.5 35.25 40.85 Q32.4 42.35 29.3 42.75 L28.6 42.7 25.4 42.55 18.55 40.65 17.95 40.45 17.5 40.3 M21.15 19.55 L21.65 19.2 22.15 18.95 Q23.9 17.95 25.85 17.7 27.45 17.45 29.2 17.7 M17.9 31.55 Q16.45 28.75 17.1 25.55 L17.2 24.95 Q18.1 21.6 21.15 19.55 M21.7 35.8 Q20.05 34.75 18.85 33.1 L18.0 31.75 17.9 31.55" fill="none" stroke="#000000" stroke-linecap="round" stroke-linejoin="round" stroke-opacity="0.3019608" stroke-width="0.30000000000000004"/>
      <path d="M16.5 20.65 Q17.65 22.3 18.55 22.45 L20.0 19.65 Q20.4 18.6 17.95 19.0 L20.35 18.85 21.1 16.7 21.35 16.65 Q20.65 19.2 19.65 21.25 L18.7 22.95 18.0 22.85 Q16.8 22.15 16.5 20.65" fill="#ffff98" fill-rule="evenodd" stroke="none"/>
      <path d="M17.95 19.0 Q20.4 18.6 20.0 19.65 L18.55 22.45 Q17.65 22.3 16.5 20.65 L16.35 19.95 17.95 19.0" fill="#ffde4f" fill-rule="evenodd" stroke="none"/>
      <path d="M18.7 22.95 L19.65 21.25 20.5 21.55 19.8 22.6 18.7 22.95 M21.1 16.7 L20.35 18.85 17.95 19.0 16.35 19.95 16.25 19.2 Q18.5 17.3 21.1 16.7" fill="#f4a33c" fill-rule="evenodd" stroke="none"/>
      <path d="M19.65 21.25 Q20.65 19.2 21.35 16.65 L21.85 17.65 Q21.4 19.85 20.5 21.55 L19.65 21.25" fill="#cc6b22" fill-rule="evenodd" stroke="none"/>
      <path d="M16.5 20.65 Q16.8 22.15 18.0 22.85 L18.7 22.95 19.8 22.6 20.5 21.55 Q21.4 19.85 21.85 17.65 L21.35 16.65 21.1 16.7 Q18.5 17.3 16.25 19.2 L16.35 19.95 16.5 20.65 Z" fill="none" stroke="#000000" stroke-linecap="round" stroke-linejoin="round" stroke-opacity="0.3019608" stroke-width="0.30000000000000004"/>
      <path d="M21.05 18.5 Q21.35 22.15 22.35 23.15 L23.6 23.35 Q24.7 23.0 25.8 21.2 L26.2 20.45 Q26.85 18.85 23.0 18.0 26.05 18.15 26.75 19.35 L27.6 17.0 28.1 17.15 Q27.25 20.1 25.95 21.85 24.95 23.3 23.6 23.9 L22.1 23.35 Q20.85 21.6 21.05 18.5" fill="#ffff98" fill-rule="evenodd" stroke="none"/>
      <path d="M21.1 18.0 L23.0 18.0 Q26.85 18.85 26.2 20.45 L25.8 21.2 Q24.7 23.0 23.6 23.35 L22.35 23.15 Q21.35 22.15 21.05 18.5 L21.1 18.0" fill="#ffde4f" fill-rule="evenodd" stroke="none"/>
      <path d="M23.0 18.0 L21.1 18.0 21.3 16.7 27.6 17.0 26.75 19.35 Q26.05 18.15 23.0 18.0 M25.95 21.85 Q27.25 20.85 26.95 21.95 L25.3 23.8 23.6 23.9 Q24.95 23.3 25.95 21.85" fill="#f4a33c" fill-rule="evenodd" stroke="none"/>
      <path d="M26.95 21.95 Q27.25 20.85 25.95 21.85 27.25 20.1 28.1 17.15 L28.85 17.5 Q28.0 20.35 26.95 21.95" fill="#cc6b22" fill-rule="evenodd" stroke="none"/>
      <path d="M21.1 18.0 L21.05 18.5 Q20.85 21.6 22.1 23.35 L23.6 23.9 25.3 23.8 26.95 21.95 Q28.0 20.35 28.85 17.5 L28.1 17.15 27.6 17.0 21.3 16.7 21.1 18.0 Z" fill="none" stroke="#000000" stroke-linecap="round" stroke-linejoin="round" stroke-opacity="0.3019608" stroke-width="0.30000000000000004"/>
      <path d="M28.6 17.35 L28.4 18.55 Q27.85 22.35 28.7 24.45 L30.05 24.95 30.65 24.6 30.95 24.4 Q32.55 22.6 30.6 20.05 32.2 21.65 31.85 23.65 L33.05 22.0 33.25 22.4 31.6 24.35 30.05 25.5 28.35 24.7 Q27.25 20.65 28.25 17.25 L28.4 17.3 28.5 17.3 28.6 17.35" fill="#ffff98" fill-rule="evenodd" stroke="none"/>
      <path d="M28.4 18.55 L30.6 20.05 Q32.55 22.6 30.95 24.4 L30.65 24.6 30.05 24.95 28.7 24.45 Q27.85 22.35 28.4 18.55" fill="#ffde4f" fill-rule="evenodd" stroke="none"/>
      <path d="M28.6 17.35 L28.75 17.4 29.0 17.55 Q30.75 18.65 32.05 20.4 L33.05 22.0 31.85 23.65 Q32.2 21.65 30.6 20.05 L28.4 18.55 28.6 17.35 M32.5 24.5 L31.55 25.3 30.05 25.5 31.6 24.35 32.5 24.5" fill="#f4a33c" fill-rule="evenodd" stroke="none"/>
      <path d="M33.25 22.4 L33.6 23.2 32.5 24.5 31.6 24.35 33.25 22.4" fill="#cc6b22" fill-rule="evenodd" stroke="none"/>
      <path d="M33.05 22.0 L32.05 20.4 Q30.75 18.65 29.0 17.55 L28.75 17.4 28.6 17.35 28.5 17.3 28.4 17.3 28.25 17.25 Q27.25 20.65 28.35 24.7 L30.05 25.5 31.55 25.3 32.5 24.5 33.6 23.2 33.25 22.4 33.05 22.0 Z" fill="none" stroke="#000000" stroke-linecap="round" stroke-linejoin="round" stroke-opacity="0.3019608" stroke-width="0.30000000000000004"/>
      <path d="M13.75 29.4 Q14.35 27.6 15.5 27.15 L17.15 27.4 17.6 29.85 Q17.7 31.65 17.3 33.75 L17.35 30.85 Q16.6 32.55 14.85 30.85 16.55 32.25 17.35 30.2 L16.95 27.9 15.45 27.65 Q14.8 27.75 13.75 29.4" fill="#ffff98" fill-rule="evenodd" stroke="none"/>
      <path d="M13.85 29.75 L13.75 29.4 Q14.8 27.75 15.45 27.65 L16.95 27.9 17.35 30.2 Q16.55 32.25 14.85 30.85 L13.85 29.75" fill="#ffde4f" fill-rule="evenodd" stroke="none"/>
      <path d="M17.15 27.4 L17.9 28.15 18.3 30.55 17.6 29.85 17.15 27.4 M17.3 33.75 Q14.75 31.95 13.85 29.75 L14.85 30.85 Q16.6 32.55 17.35 30.85 L17.3 33.75" fill="#f4a33c" fill-rule="evenodd" stroke="none"/>
      <path d="M18.3 30.55 L18.15 33.3 17.3 33.75 Q17.7 31.65 17.6 29.85 L18.3 30.55" fill="#cc6b22" fill-rule="evenodd" stroke="none"/>
      <path d="M13.75 29.4 Q14.35 27.6 15.5 27.15 L17.15 27.4 17.9 28.15 18.3 30.55 18.15 33.3 17.3 33.75 Q14.75 31.95 13.85 29.75 L13.75 29.4 Z" fill="none" stroke="#000000" stroke-linecap="round" stroke-linejoin="round" stroke-opacity="0.3019608" stroke-width="0.30000000000000004"/>
      <path d="M21.05 34.9 Q22.55 34.2 22.3 30.1 L20.85 29.9 Q19.45 30.75 17.3 33.5 18.85 30.95 20.9 29.5 L22.6 29.75 23.05 32.45 23.35 35.9 23.0 35.9 22.6 31.4 Q22.6 34.25 21.05 34.9" fill="#ffff98" fill-rule="evenodd" stroke="none"/>
      <path d="M17.3 33.5 Q19.45 30.75 20.85 29.9 L22.3 30.1 Q22.55 34.2 21.05 34.9 L18.4 34.75 17.2 33.65 17.3 33.5" fill="#ffde4f" fill-rule="evenodd" stroke="none"/>
      <path d="M18.4 34.75 L21.05 34.9 Q22.6 34.25 22.6 31.4 L23.0 35.9 Q20.1 35.85 18.4 34.75 M23.05 32.45 L22.6 29.75 23.35 30.4 23.85 32.75 23.05 32.45" fill="#f4a33c" fill-rule="evenodd" stroke="none"/>
      <path d="M23.35 35.9 L23.05 32.45 23.85 32.75 24.3 35.1 23.35 35.9" fill="#cc6b22" fill-rule="evenodd" stroke="none"/>
      <path d="M17.3 33.5 L17.2 33.65 18.4 34.75 Q20.1 35.85 23.0 35.9 L23.35 35.9 24.3 35.1 23.85 32.75 23.35 30.4 22.6 29.75 20.9 29.5 Q18.85 30.95 17.3 33.5 Z" fill="none" stroke="#000000" stroke-linecap="round" stroke-linejoin="round" stroke-opacity="0.3019608" stroke-width="0.30000000000000004"/>
      <path d="M26.8 34.9 Q28.45 33.4 28.35 31.65 L26.9 31.45 Q25.25 32.4 23.75 35.9 L23.3 35.95 Q24.6 32.3 26.85 30.9 L28.55 31.15 28.95 32.65 29.05 34.4 28.65 34.6 28.6 32.7 Q28.1 34.0 26.8 34.9" fill="#ffff98" fill-rule="evenodd" stroke="none"/>
      <path d="M26.8 34.9 L24.45 35.85 23.75 35.9 Q25.25 32.4 26.9 31.45 L28.35 31.65 Q28.45 33.4 26.8 34.9" fill="#ffde4f" fill-rule="evenodd" stroke="none"/>
      <path d="M24.45 35.85 L26.8 34.9 Q28.1 34.0 28.6 32.7 L28.65 34.6 Q26.65 35.7 24.45 35.85 M28.55 31.15 L29.55 31.9 29.8 33.1 28.95 32.65 28.55 31.15" fill="#f4a33c" fill-rule="evenodd" stroke="none"/>
      <path d="M29.8 33.1 L29.95 33.8 29.25 34.25 29.05 34.4 28.95 32.65 29.8 33.1" fill="#cc6b22" fill-rule="evenodd" stroke="none"/>
      <path d="M23.75 35.9 L24.45 35.85 Q26.65 35.7 28.65 34.6 L29.05 34.4 29.25 34.25 29.95 33.8 29.8 33.1 29.55 31.9 28.55 31.15 26.85 30.9 Q24.6 32.3 23.3 35.95 L23.75 35.9 Z" fill="none" stroke="#000000" stroke-linecap="round" stroke-linejoin="round" stroke-opacity="0.3019608" stroke-width="0.30000000000000004"/>
      <path d="M45.85 18.05 L45.8 18.1 45.8 18.05 45.85 18.05" fill="#339328" fill-rule="evenodd" stroke="none"/>
      <path d="M42.3 15.0 Q42.3 13.6 42.9 12.95 42.0 12.45 40.85 12.35 L40.55 12.4 Q37.5 12.75 36.6 16.2 L36.4 15.95 Q36.75 14.15 38.0 13.0 39.55 11.65 41.5 11.9 43.0 12.15 44.1 13.25 L44.75 14.0 45.3 15.0 45.6 15.85 Q45.9 16.85 45.8 18.05 L45.8 18.1 45.85 18.05 46.15 18.4 47.1 21.3 Q46.5 19.6 46.0 19.2 L45.65 19.1 Q45.3 20.55 44.25 21.6 L44.1 21.7 Q42.95 22.7 41.65 22.85 L40.6 22.8 40.05 22.7 39.9 22.0 41.15 22.35 Q42.6 22.5 43.8 21.3 43.05 21.0 42.5 19.2 43.3 20.75 44.25 20.9 L45.0 19.7 Q46.05 16.75 44.7 14.65 44.1 13.8 43.4 13.3 42.65 13.25 42.3 15.0 M40.55 14.85 L41.15 14.85 42.3 15.45 42.55 15.75 42.8 16.2 Q42.25 15.4 41.4 15.25 L40.85 15.25 Q40.3 15.35 39.85 15.75 L39.45 16.25 39.05 17.3 Q39.0 18.05 39.25 18.65 38.7 17.85 38.85 16.9 38.95 15.95 39.6 15.3 40.05 14.95 40.55 14.85" fill="#ffff98" fill-rule="evenodd" stroke="none"/>
      <path d="M40.55 12.4 L40.55 14.85 Q40.05 14.95 39.6 15.3 38.95 15.95 38.85 16.9 38.7 17.85 39.25 18.65 L39.6 19.1 40.4 19.5 40.65 19.55 41.15 22.35 39.9 22.0 Q39.05 18.85 36.6 16.2 37.5 12.75 40.55 12.4 M42.3 15.45 L42.3 15.0 Q42.65 13.25 43.4 13.3 44.1 13.8 44.7 14.65 46.05 16.75 45.0 19.7 L44.25 20.9 Q43.3 20.75 42.5 19.2 L42.4 18.85 Q42.9 18.3 42.95 17.5 L42.9 16.6 42.8 16.2 42.55 15.75 42.3 15.45 M45.3 15.0 L44.75 14.0 44.1 13.25 Q45.65 14.6 46.45 16.15 L46.55 16.35 46.95 17.35 Q45.95 15.2 45.3 15.0" fill="#ffde4f" fill-rule="evenodd" stroke="none"/>
      <path d="M40.55 12.4 L40.85 12.35 Q42.0 12.45 42.9 12.95 42.3 13.6 42.3 15.0 L42.3 15.45 41.15 14.85 40.55 14.85 40.55 12.4 M42.5 19.2 Q43.05 21.0 43.8 21.3 42.6 22.5 41.15 22.35 L40.65 19.55 Q41.5 19.7 42.2 19.1 L42.4 18.85 42.5 19.2" fill="#f4a33c" fill-rule="evenodd" stroke="none"/>
      <path d="M41.65 22.85 Q42.95 22.7 44.1 21.7 L44.25 21.6 Q45.3 20.55 45.65 19.1 L46.0 19.2 Q46.5 19.6 47.1 21.3 L47.15 21.65 Q46.75 23.2 45.6 24.3 L44.2 25.15 43.0 24.35 Q41.8 23.45 41.65 22.85 M39.45 16.25 L39.85 15.75 Q40.3 15.35 40.85 15.25 42.35 15.75 42.25 16.8 L41.85 16.65 Q41.2 16.55 40.65 17.0 40.15 17.45 40.1 18.2 L40.05 18.55 Q39.15 17.55 39.45 16.25" fill="#cc6b22" fill-rule="evenodd" stroke="none"/>
      <path d="M40.05 22.7 L40.6 22.8 41.65 22.85 Q41.8 23.45 43.0 24.35 L44.2 25.15 43.1 25.4 40.05 22.7 M47.1 21.3 L46.15 18.4 45.85 18.05 45.8 18.05 Q45.9 16.85 45.6 15.85 L45.3 15.0 Q45.95 15.2 46.95 17.35 L47.3 19.65 47.35 19.85 47.3 20.65 47.15 21.65 47.1 21.3 M40.85 15.25 L41.4 15.25 Q42.25 15.4 42.8 16.2 L42.9 16.6 42.95 17.5 42.85 17.3 42.6 17.0 42.25 16.8 Q42.35 15.75 40.85 15.25 M39.25 18.65 Q39.0 18.05 39.05 17.3 L39.45 16.25 Q39.15 17.55 40.05 18.55 L40.15 18.9 40.4 19.5 39.6 19.1 39.25 18.65" fill="#a34100" fill-rule="evenodd" stroke="none"/>
      <path d="M39.9 22.0 L40.05 22.7 43.1 25.4 44.2 25.15 45.6 24.3 Q46.75 23.2 47.15 21.65 L47.3 20.65 47.35 19.85 47.3 19.65 46.95 17.35 46.55 16.35 46.45 16.15 Q45.65 14.6 44.1 13.25 43.0 12.15 41.5 11.9 39.55 11.65 38.0 13.0 36.75 14.15 36.4 15.95 L36.6 16.2 Q39.05 18.85 39.9 22.0 M45.8 18.1 L45.8 18.05 M42.25 16.8 L42.6 17.0 42.85 17.3 42.95 17.5 42.9 16.6 42.8 16.2 M40.4 19.5 L39.6 19.1 39.25 18.65 M40.05 18.55 L40.1 18.2 Q40.15 17.45 40.65 17.0 41.2 16.55 41.85 16.65 L42.25 16.8 M42.95 17.5 Q42.9 18.3 42.4 18.85 L42.2 19.1 Q41.5 19.7 40.65 19.55 L40.4 19.5 40.15 18.9 40.05 18.55" fill="none" stroke="#000000" stroke-linecap="round" stroke-linejoin="round" stroke-opacity="0.3019608" stroke-width="0.30000000000000004"/>
      <path d="M32.8 41.1 Q33.75 40.6 34.5 41.75 L34.0 39.6 34.3 39.3 34.75 41.15 34.85 41.65 Q35.25 44.15 34.95 45.85 L34.75 43.2 34.75 43.1 34.7 43.0 34.25 41.9 Q33.65 40.85 32.8 41.1" fill="#ffff98" fill-rule="evenodd" stroke="none"/>
      <path d="M32.8 41.1 Q33.65 40.85 34.25 41.9 L34.7 43.0 34.75 43.1 34.75 43.2 34.95 45.85 Q32.95 44.95 31.5 42.3 32.2 41.35 32.8 41.1" fill="#ffde4f" fill-rule="evenodd" stroke="none"/>
      <path d="M34.0 39.6 L34.5 41.75 Q33.75 40.6 32.8 41.1 32.2 41.35 31.5 42.3 L31.0 41.25 Q33.05 40.45 34.0 39.6" fill="#f4a33c" fill-rule="evenodd" stroke="none"/>
      <path d="M34.95 45.85 Q35.25 44.15 34.85 41.65 L34.75 41.15 35.95 42.15 Q35.9 44.1 34.95 45.85" fill="#cc6b22" fill-rule="evenodd" stroke="none"/>
      <path d="M34.75 41.15 L34.3 39.3 35.7 40.2 35.9 41.25 35.95 42.15 34.75 41.15" fill="#a34100" fill-rule="evenodd" stroke="none"/>
      <path d="M34.3 39.3 L34.0 39.6 Q33.05 40.45 31.0 41.25 L31.5 42.3 Q32.95 44.95 34.95 45.85 35.9 44.1 35.95 42.15 L35.9 41.25 35.7 40.2 34.3 39.3 Z" fill="none" stroke="#000000" stroke-linecap="round" stroke-linejoin="round" stroke-opacity="0.3019608" stroke-width="0.30000000000000004"/>
      <path d="M25.05 42.95 L25.3 41.65 26.45 42.6 26.3 43.25 25.85 44.45 25.05 42.95" fill="#a34100" fill-rule="evenodd" stroke="none"/>
      <path d="M24.9 41.75 L25.3 41.65 25.05 42.95 24.95 43.45 Q24.1 46.5 22.85 48.1 L22.7 47.9 24.35 43.85 24.4 43.65 24.45 43.5 Q24.35 42.95 23.15 42.4 23.9 42.6 24.6 43.15 L24.9 41.75" fill="#ffff98" fill-rule="evenodd" stroke="none"/>
      <path d="M23.15 42.4 Q24.35 42.95 24.45 43.5 L24.4 43.65 24.35 43.85 22.7 47.9 Q21.3 45.7 21.3 42.25 L23.15 42.4" fill="#ffde4f" fill-rule="evenodd" stroke="none"/>
      <path d="M24.9 41.75 L24.6 43.15 Q23.9 42.6 23.15 42.4 L21.3 42.25 21.3 41.45 24.9 41.75" fill="#f4a33c" fill-rule="evenodd" stroke="none"/>
      <path d="M22.85 48.1 Q24.1 46.5 24.95 43.45 L25.05 42.95 25.85 44.45 Q24.8 46.9 22.85 48.1" fill="#cc6b22" fill-rule="evenodd" stroke="none"/>
      <path d="M25.3 41.65 L24.9 41.75 21.3 41.45 21.3 42.25 Q21.3 45.7 22.7 47.9 L22.85 48.1 Q24.8 46.9 25.85 44.45 L26.3 43.25 26.45 42.6 25.3 41.65 Z" fill="none" stroke="#000000" stroke-linecap="round" stroke-linejoin="round" stroke-opacity="0.3019608" stroke-width="0.30000000000000004"/>
    </g>
    <g id="sprite1" transform="matrix(1.0, 0.0, 0.0, 1.0, 0.0, 0.0)">
      <use height="26.7" transform="matrix(0.0042, -1.3515, 1.3935, 0.02, 22.09, 56.0263)" width="26.7" xlink:href="#sprite2"/>
      <use height="26.7" transform="matrix(0.0095, -3.0486, 0.372, 0.0053, 36.507, 81.3775)" width="26.7" xlink:href="#sprite2"/>
      <use height="26.7" transform="matrix(3.0486, 0.0095, -0.0053, 0.372, 0.1225, 35.107)" width="26.7" xlink:href="#sprite2"/>
    </g>
    <g id="sprite2" transform="matrix(1.0, 0.0, 0.0, 1.0, 13.35, 13.35)">
      <use height="26.7" transform="matrix(1.0, 0.0, 0.0, 1.0, -13.35, -13.35)" width="26.7" xlink:href="#shape1"/>
    </g>
    <g id="shape1" transform="matrix(1.0, 0.0, 0.0, 1.0, 13.35, 13.35)">
      <path d="M9.3 -9.85 Q13.35 -5.8 13.35 0.0 13.35 5.8 9.3 9.3 5.8 13.35 0.0 13.35 -5.8 13.35 -9.85 9.3 -13.35 5.8 -13.35 0.0 -13.35 -5.8 -9.85 -9.85 -5.8 -13.35 0.0 -13.35 5.8 -13.35 9.3 -9.85" fill="url(#gradient0)" fill-rule="evenodd" stroke="none"/>
    </g>
    <radialGradient cx="0" cy="0" gradientTransform="matrix(0.0213, 0.0, 0.0, 0.0213, 0.0, 0.0)" gradientUnits="userSpaceOnUse" id="gradient0" r="819.2" spreadMethod="pad">
      <stop offset="0.19607843137254902" stop-color="#fee3bc" stop-opacity="0.41960785"/>
      <stop offset="0.5019607843137255" stop-color="#fee3bc" stop-opacity="0.06666667"/>
      <stop offset="0.7607843137254902" stop-color="#ffe3bd" stop-opacity="0.0"/>
    </radialGradient>
    <g id="shape2" transform="matrix(1.0, 0.0, 0.0, 1.0, -38.8, -15.45)">
      <path d="M40.65 19.55 L40.7 19.55 40.65 19.55" fill="#f4a33c" fill-rule="evenodd" stroke="none"/>
      <path d="M42.75 18.35 L42.4 18.85 42.2 19.1 Q41.55 19.65 40.7 19.55 L40.9 18.8 42.15 18.05 42.75 18.35 M40.55 16.55 L41.25 16.3 Q41.05 17.25 41.3 18.2 L40.75 18.55 40.2 18.15 40.55 16.55" fill="#a6a637" fill-rule="evenodd" stroke="none"/>
      <path d="M42.4 16.25 L42.95 16.9 42.95 17.5 42.8 18.25 42.2 17.75 42.4 16.25 M40.65 19.55 L40.4 19.5 39.8 19.2 39.45 17.9 40.5 18.75 40.7 19.55 40.65 19.55" fill="#cac960" fill-rule="evenodd" stroke="none"/>
      <path d="M41.25 16.3 L41.85 16.1 42.1 16.45 42.1 17.25 41.8 17.85 41.3 18.2 Q41.05 17.25 41.25 16.3 M40.2 18.15 L39.65 17.8 40.2 16.7 40.55 16.55 40.2 18.15" fill="#d5d580" fill-rule="evenodd" stroke="none"/>
      <path d="M42.4 16.25 L42.2 17.75 42.8 18.25 42.75 18.35 42.15 18.05 40.9 18.8 40.7 19.55 40.5 18.75 39.45 17.9 39.95 16.5 41.7 15.9 42.4 16.25 M41.25 16.3 L40.55 16.55 40.2 16.7 39.65 17.8 40.2 18.15 40.75 18.55 41.3 18.2 41.8 17.85 42.1 17.25 42.1 16.45 41.85 16.1 41.25 16.3" fill="#ffffff" fill-rule="evenodd" stroke="none"/>
      <path d="M42.8 18.25 L42.95 17.5 42.95 16.9 42.4 16.25 41.7 15.9 39.95 16.5 39.45 17.9 39.8 19.2 39.6 19.1 39.25 18.65 M42.8 18.25 L42.75 18.35 42.4 18.85 42.2 19.1 Q41.55 19.65 40.7 19.55 L40.65 19.55 40.4 19.5 39.8 19.2 M42.95 16.9 L42.9 16.55 42.8 16.2" fill="none" stroke="#000000" stroke-linecap="round" stroke-linejoin="round" stroke-opacity="0.3019608" stroke-width="0.30000000000000004"/>
    </g>
  </defs>
</svg>
