<?xml version="1.0" encoding="UTF-8" standalone="no"?>
<svg xmlns:xlink="http://www.w3.org/1999/xlink" height="52.0px" width="52.0px" xmlns="http://www.w3.org/2000/svg">
  <g transform="matrix(1.0, 0.0, 0.0, 1.0, 0.0, 0.0)">
    <use height="56.0" transform="matrix(1.0, 0.0, 0.0, 1.0, -2.0, -2.0)" width="56.0" xlink:href="#shape0"/>
    <use height="81.5" transform="matrix(0.1303, 0.0, 0.0, 0.1303, 22.8, 13.85)" width="81.5" xlink:href="#sprite0"/>
    <use height="136.85" transform="matrix(0.0419, 0.0016, -0.015, 0.0559, 15.0976, 14.344)" width="148.25" xlink:href="#sprite2"/>
  </g>
  <defs>
    <g id="shape0" transform="matrix(1.0, 0.0, 0.0, 1.0, 2.0, 2.0)">
      <path d="M52.0 0.0 L52.0 52.0 0.0 52.0 0.0 0.0 52.0 0.0" fill="#795fa9" fill-opacity="0.0" fill-rule="evenodd" stroke="none"/>
      <path d="M6.7 17.6 Q6.5 19.0 6.85 20.35 L7.3 21.65 8.2 23.05 9.05 24.1 9.7 24.7 10.2 25.1 10.9 25.5 Q11.45 25.85 12.15 26.0 L12.35 26.05 12.4 26.05 12.95 26.15 Q13.45 27.15 14.4 27.85 L14.4 28.0 Q14.5 29.45 13.65 30.8 L13.45 31.0 10.75 29.9 10.7 29.95 Q9.25 31.55 9.7 32.75 L10.3 34.65 11.0 35.45 11.1 35.6 11.0 36.15 10.95 37.35 Q10.95 38.95 11.4 40.35 L11.1 40.55 10.05 41.55 9.25 42.5 Q8.75 43.4 9.2 44.05 L10.1 45.6 10.15 45.65 10.65 45.85 11.75 45.8 12.0 45.7 13.1 45.05 13.25 44.95 14.0 44.2 Q16.9 46.85 20.9 46.85 L21.1 46.85 21.25 47.15 21.85 48.0 22.05 48.25 Q22.5 48.6 23.05 48.6 L23.35 48.6 23.55 48.45 24.15 47.85 24.35 47.45 24.35 47.35 24.45 46.35 24.45 46.25 Q26.4 45.55 27.95 44.05 30.15 41.95 30.7 39.15 L30.75 39.15 32.15 39.2 32.9 39.1 34.4 38.75 34.7 38.6 35.65 37.7 36.05 36.45 36.05 36.15 36.0 34.9 35.95 34.8 35.45 33.25 30.8 33.6 Q31.35 31.45 33.25 29.35 34.8 30.35 36.65 30.15 L37.15 30.05 37.75 29.95 40.0 29.0 42.95 26.9 44.0 25.65 Q44.8 24.5 45.25 23.15 L45.3 22.75 45.35 21.2 Q45.1 18.95 43.1 18.25 L42.0 18.05 41.95 18.05 41.4 18.0 41.2 18.0 Q39.6 18.05 37.9 18.85 L37.65 19.0 37.2 19.2 Q36.45 16.55 33.95 14.45 32.3 13.15 30.35 12.4 L30.65 11.6 31.85 11.05 Q36.35 8.55 37.35 6.2 36.5 5.1 30.65 4.0 L29.45 3.8 24.0 4.1 Q24.55 7.5 27.1 10.85 L26.8 11.55 Q23.05 11.15 20.15 12.8 L19.8 12.9 18.05 13.3 16.6 14.3 Q15.95 14.5 15.35 14.9 L13.15 13.9 8.05 14.1 Q6.7 15.6 6.7 17.5 L6.7 17.6 M29.2 8.75 Q27.95 7.45 27.85 6.1 L30.3 6.3 32.5 6.8 30.85 8.0 29.2 8.75 M28.9 15.5 L28.95 15.45 28.65 15.25 28.9 15.5" fill="none" stroke="#000000" stroke-linecap="round" stroke-linejoin="round" stroke-opacity="0.3019608" stroke-width="1.0"/>
      <path d="M37.05 6.15 L36.75 6.1 36.4 5.95 35.95 5.8 33.2 4.85 29.6 4.1 Q27.0 3.75 24.7 4.05 24.05 4.5 26.3 5.3 L24.5 4.8 Q25.3 7.7 27.7 10.7 L26.4 14.1 25.8 14.0 27.15 10.85 Q24.6 7.45 24.05 4.1 L29.5 3.8 30.7 3.95 Q36.55 5.1 37.4 6.2 L37.05 6.15" fill="#ffff98" fill-rule="evenodd" stroke="none"/>
      <path d="M33.05 8.2 Q32.15 8.9 30.85 9.4 L28.9 10.2 Q28.4 11.0 27.65 13.45 L28.65 10.0 Q27.35 8.75 26.85 6.75 L26.8 6.1 Q27.25 7.85 28.75 9.45 L29.1 9.85 31.25 9.15 33.05 8.2 M32.55 6.8 L33.25 7.1 31.05 8.45 28.8 9.15 29.25 8.7 30.9 8.0 32.55 6.8" fill="#ffde4f" fill-rule="evenodd" stroke="none"/>
      <path d="M26.3 5.3 Q24.05 4.5 24.7 4.05 27.0 3.75 29.6 4.1 L33.2 4.85 35.95 5.8 32.45 5.15 Q31.2 5.0 29.95 5.15 L29.4 5.2 26.3 5.3 M33.25 7.1 L33.95 7.4 33.05 8.2 31.25 9.15 29.1 9.85 28.75 9.45 28.8 9.15 31.05 8.45 33.25 7.1" fill="#f4a33c" fill-rule="evenodd" stroke="none"/>
      <path d="M37.05 6.15 L37.4 6.2 Q36.4 8.55 31.9 11.0 L30.7 11.6 29.5 14.65 29.05 14.6 30.4 11.1 31.7 10.5 Q35.4 8.7 37.05 6.15 M26.4 14.1 L27.7 10.7 Q25.3 7.7 24.5 4.8 L26.3 5.3 29.4 5.2 29.95 5.15 Q31.2 5.0 32.45 5.15 34.65 5.65 34.9 7.2 34.2 8.6 31.5 9.85 L29.05 10.8 27.75 14.35 26.4 14.1 M33.05 8.2 L33.95 7.4 33.25 7.1 32.55 6.8 30.3 6.25 27.9 6.1 26.8 6.1 26.85 6.75 Q27.35 8.75 28.65 10.0 L27.65 13.45 Q28.4 11.0 28.9 10.2 L30.85 9.4 Q32.15 8.9 33.05 8.2" fill="#cc6b22" fill-rule="evenodd" stroke="none"/>
      <path d="M35.95 5.8 L36.4 5.95 36.75 6.1 37.05 6.15 Q35.4 8.7 31.7 10.5 L30.4 11.1 29.05 14.6 27.75 14.35 29.05 10.8 31.5 9.85 Q34.2 8.6 34.9 7.2 34.65 5.65 32.45 5.15 L35.95 5.8 M26.8 6.1 L27.9 6.1 Q28.0 7.45 29.25 8.7 L28.8 9.15 28.75 9.45 Q27.25 7.85 26.8 6.1" fill="#a34100" fill-rule="evenodd" stroke="none"/>
      <path d="M37.4 6.2 Q36.55 5.1 30.7 3.95 L29.5 3.8 24.05 4.1 Q24.6 7.45 27.15 10.85 L25.8 14.0 26.4 14.1 27.75 14.35 29.05 14.6 29.5 14.65 30.7 11.6 31.9 11.0 Q36.4 8.55 37.4 6.2 M27.9 6.1 L30.3 6.25 32.55 6.8 30.9 8.0 29.25 8.7 Q28.0 7.45 27.9 6.1" fill="none" stroke="#000000" stroke-linecap="round" stroke-linejoin="round" stroke-opacity="0.3019608" stroke-width="0.30000000000000004"/>
      <path d="M10.75 29.9 Q10.15 30.65 10.2 31.8 L10.5 32.9 10.85 33.5 12.2 34.8 11.95 35.1 10.35 33.7 9.75 32.7 Q9.3 31.5 10.75 29.9" fill="#ffff98" fill-rule="evenodd" stroke="none"/>
      <path d="M10.2 31.8 L13.1 30.85 14.45 31.4 13.85 32.25 Q11.9 32.35 10.85 33.5 L10.5 32.9 10.2 31.8" fill="#ffde4f" fill-rule="evenodd" stroke="none"/>
      <path d="M10.75 29.9 L10.8 29.9 13.1 30.85 10.2 31.8 Q10.15 30.65 10.75 29.9 M13.85 32.25 L12.2 34.8 10.85 33.5 Q11.9 32.35 13.85 32.25 M11.0 35.45 L10.35 34.65 9.75 32.7 10.35 33.7 11.0 35.45" fill="#f4a33c" fill-rule="evenodd" stroke="none"/>
      <path d="M11.95 35.1 L12.85 36.5 Q11.85 36.25 11.0 35.45 L10.35 33.7 11.95 35.1" fill="#a34100" fill-rule="evenodd" stroke="none"/>
      <path d="M13.1 30.85 L10.8 29.9 10.75 29.9 Q9.3 31.5 9.75 32.7 L10.35 34.65 11.0 35.45 Q11.85 36.25 12.85 36.5 L11.95 35.1 12.2 34.8 13.85 32.25 14.45 31.4 13.1 30.85 Z" fill="none" stroke="#000000" stroke-linecap="round" stroke-linejoin="round" stroke-opacity="0.3019608" stroke-width="0.30000000000000004"/>
      <path d="M11.6 16.35 L9.95 16.1 11.95 16.15 12.4 16.3 Q13.2 16.55 14.05 17.1 L15.35 18.0 15.25 18.25 13.7 17.2 11.85 16.4 11.6 16.35 M13.45 14.4 L13.0 14.25 Q10.3 13.45 8.35 14.25 5.7 17.9 8.85 21.9 L9.15 22.25 9.65 22.75 Q10.65 23.7 12.05 23.95 L13.1 24.05 15.1 23.8 15.05 24.1 12.95 24.55 12.6 24.55 Q12.35 24.85 12.65 25.35 L13.35 26.15 12.45 26.05 12.4 26.0 12.2 25.95 12.2 25.9 Q12.35 25.1 11.0 24.15 9.75 23.6 8.65 22.3 L8.3 21.9 8.25 21.8 7.8 21.15 7.1 19.45 6.75 17.55 6.75 17.45 Q6.7 15.6 8.1 14.05 L13.2 13.85 Q14.7 14.4 16.4 15.5 L16.35 15.75 15.2 15.1 13.45 14.4" fill="#ffff98" fill-rule="evenodd" stroke="none"/>
      <path d="M12.4 16.3 Q13.6 15.3 13.45 14.4 L15.2 15.1 Q14.05 15.7 14.05 17.1 13.2 16.55 12.4 16.3 M9.65 22.75 Q11.0 21.65 10.95 19.65 L11.5 20.2 Q12.15 20.75 12.95 21.0 11.9 21.95 12.05 23.95 10.65 23.7 9.65 22.75" fill="#ffde4f" fill-rule="evenodd" stroke="none"/>
      <path d="M12.4 16.3 L11.95 16.15 9.95 16.1 Q9.55 17.6 10.4 19.0 L10.95 19.65 Q11.0 21.65 9.65 22.75 L9.15 22.25 8.85 21.9 Q5.7 17.9 8.35 14.25 10.3 13.45 13.0 14.25 L13.45 14.4 Q13.6 15.3 12.4 16.3 M15.35 18.0 L14.05 17.1 Q14.05 15.7 15.2 15.1 L16.35 15.75 15.35 18.0 M6.75 17.55 L7.1 19.45 7.35 21.65 6.9 20.3 Q6.55 19.0 6.75 17.55 M15.1 23.8 L13.1 24.05 12.05 23.95 Q11.9 21.95 12.95 21.0 L14.15 21.25 15.2 21.3 15.1 23.8" fill="#f4a33c" fill-rule="evenodd" stroke="none"/>
      <path d="M10.8 17.45 L11.2 17.5 Q12.0 17.7 12.8 18.05 L14.45 18.85 15.3 19.35 15.2 21.3 14.15 21.25 12.95 21.0 Q12.15 20.75 11.5 20.2 10.85 19.2 10.7 18.4 L10.8 17.45 M7.1 19.45 L7.8 21.15 8.25 21.8 8.3 21.9 8.4 22.25 8.5 22.55 9.75 24.7 9.05 24.05 8.25 23.05 7.35 21.65 7.1 19.45 M13.35 26.15 L12.65 25.35 Q12.35 24.85 12.6 24.55 L12.95 24.55 15.05 24.1 15.85 25.8 13.35 26.15" fill="#cc6b22" fill-rule="evenodd" stroke="none"/>
      <path d="M9.95 16.1 L10.8 17.45 10.7 18.4 Q10.85 19.2 11.5 20.2 L10.95 19.65 10.4 19.0 Q9.55 17.6 9.95 16.1 M12.8 18.05 L11.8 17.0 11.6 16.35 11.85 16.4 13.7 17.2 Q14.95 18.7 14.45 18.85 L12.8 18.05 M8.3 21.9 L8.65 22.3 Q9.75 23.6 11.0 24.15 12.35 25.1 12.2 25.9 L12.2 25.95 10.9 25.5 10.25 25.05 9.75 24.7 8.5 22.55 8.4 22.25 8.3 21.9" fill="#a34100" fill-rule="evenodd" stroke="none"/>
      <path d="M10.8 17.45 L9.95 16.1 11.6 16.35 11.8 17.0 12.8 18.05 Q12.0 17.7 11.2 17.5 L10.8 17.45 M13.7 17.2 L15.25 18.25 15.3 19.35 14.45 18.85 Q14.95 18.7 13.7 17.2" fill="#8f3600" fill-rule="evenodd" stroke="none"/>
      <path d="M10.8 17.45 L11.2 17.5 Q12.0 17.7 12.8 18.05 L14.45 18.85 15.3 19.35 15.25 18.25 15.35 18.0 16.35 15.75 16.4 15.5 Q14.7 14.4 13.2 13.85 L8.1 14.05 Q6.7 15.6 6.75 17.45 L6.75 17.55 Q6.55 19.0 6.9 20.3 L7.35 21.65 8.25 23.05 9.05 24.05 9.75 24.7 10.25 25.05 10.9 25.5 12.2 25.95 12.4 26.0 12.45 26.05 13.35 26.15 15.85 25.8 15.05 24.1 15.1 23.8 15.2 21.3 15.3 19.35 M15.2 21.3 L14.15 21.25 12.95 21.0 Q12.15 20.75 11.5 20.2 L10.95 19.65 M10.8 17.45 L10.7 18.4 Q10.85 19.2 11.5 20.2" fill="none" stroke="#000000" stroke-linecap="round" stroke-linejoin="round" stroke-opacity="0.3019608" stroke-width="0.30000000000000004"/>
      <path d="M35.8 25.75 Q37.25 23.45 36.9 20.45 36.2 17.3 33.95 15.2 34.35 16.55 32.4 16.95 34.95 16.15 31.6 13.55 30.4 12.9 28.9 12.4 24.5 11.35 22.35 12.75 L21.6 12.7 20.2 12.8 Q23.15 11.1 27.05 11.55 31.0 12.0 33.95 14.45 37.6 17.4 37.55 21.65 37.5 25.85 33.85 28.8 L33.7 28.9 Q30.8 31.9 30.6 35.05 L30.85 37.35 Q30.85 41.3 27.95 44.05 25.05 46.85 20.95 46.85 16.8 46.85 13.9 44.05 10.95 41.3 10.95 37.35 L11.0 36.1 Q11.4 33.1 13.65 30.8 14.55 29.4 14.45 27.95 L14.35 27.45 14.4 27.45 Q15.25 29.75 13.75 31.3 13.0 32.1 12.5 33.05 11.95 34.0 11.7 35.05 L11.65 35.2 11.55 36.45 11.75 37.8 12.0 39.45 Q12.5 42.55 15.6 44.65 L16.55 45.25 Q20.6 46.95 24.2 45.6 25.95 44.9 27.6 43.45 30.6 39.95 30.25 37.2 29.9 34.8 30.25 33.2 L30.35 32.8 Q31.2 30.1 34.35 27.4 L35.8 25.75 M24.55 30.05 L24.7 30.0 24.7 30.05 24.55 30.05 24.45 30.05 24.55 30.05" fill="#ffff98" fill-rule="evenodd" stroke="none"/>
      <path d="M30.8 17.15 L29.5 15.9 28.95 15.45 28.75 15.3 28.6 15.15 Q25.8 12.95 22.35 12.75 24.5 11.35 28.9 12.4 30.4 12.9 31.6 13.55 34.95 16.15 32.4 16.95 L30.8 17.15 M15.6 44.65 Q12.5 42.55 12.0 39.45 L11.75 37.8 11.95 38.25 Q12.35 39.1 13.05 39.8 L13.65 40.3 14.55 40.85 Q13.75 42.35 15.6 44.65" fill="#f4a33c" fill-rule="evenodd" stroke="none"/>
      <path d="M32.65 25.4 Q33.05 24.05 32.95 22.45 32.75 19.45 30.8 17.15 L32.4 16.95 Q34.35 16.55 33.95 15.2 36.2 17.3 36.9 20.45 37.25 23.45 35.8 25.75 33.3 27.0 32.65 25.4 M30.25 33.2 Q29.9 34.8 30.25 37.2 30.6 39.95 27.6 43.45 25.85 43.4 26.3 39.4 28.15 37.75 28.6 35.6 L28.7 33.8 28.5 33.1 28.5 33.0 Q29.75 32.45 30.25 33.2 M24.2 45.6 Q20.6 46.95 16.55 45.25 L15.6 44.65 Q13.75 42.35 14.55 40.85 L15.4 41.25 16.15 41.55 19.25 42.05 21.05 41.9 Q22.75 41.65 24.3 40.8 27.3 43.65 24.2 45.6" fill="#cc6b22" fill-rule="evenodd" stroke="none"/>
      <path d="M30.1 29.4 L30.45 29.05 Q32.1 27.45 32.65 25.4 33.3 27.0 35.8 25.75 L34.35 27.4 Q31.2 30.1 30.35 32.8 L30.25 33.2 Q29.75 32.45 28.5 33.0 27.95 31.3 29.1 30.15 L29.7 29.75 29.85 29.6 30.1 29.4 M27.6 43.45 Q25.95 44.9 24.2 45.6 27.3 43.65 24.3 40.8 L25.3 40.15 25.6 39.95 26.3 39.4 Q25.85 43.4 27.6 43.45" fill="#a34100" fill-rule="evenodd" stroke="none"/>
      <path d="M28.95 15.45 Q32.1 18.2 32.4 22.05 32.65 25.9 29.9 28.65 L29.7 28.85 29.3 29.2 29.15 29.35 28.55 29.75 Q27.45 30.7 27.5 31.95 L27.65 32.65 27.7 32.75 27.85 33.45 27.75 35.2 Q27.3 37.5 25.25 39.2 L24.5 39.8 Q22.45 41.25 20.05 41.6 L18.4 41.7 18.15 41.7 15.4 41.25 14.55 40.85 13.65 40.3 13.05 39.8 Q12.35 39.1 11.95 38.25 L11.75 37.8 11.55 36.45 11.65 35.2 11.7 35.05 Q11.95 34.0 12.5 33.05 13.0 32.1 13.75 31.3 L14.65 30.75 Q16.35 29.9 18.6 30.1 L19.95 30.35 20.1 30.35 Q21.9 30.8 22.9 31.75 24.35 33.1 24.35 35.4 L24.2 36.15 Q24.05 33.0 21.75 31.6 20.35 30.75 18.1 30.6 L17.5 30.6 15.4 32.95 16.6 30.65 Q15.4 30.85 14.3 31.5 11.85 34.05 11.95 36.75 12.45 37.45 13.5 35.85 L12.45 38.05 12.1 37.75 Q12.7 39.45 14.35 40.4 15.45 41.15 16.1 41.25 L17.9 41.4 18.15 41.4 Q21.35 41.35 23.95 39.5 26.45 37.8 27.15 35.5 27.5 32.75 24.45 31.0 26.6 31.7 27.4 33.85 L27.35 33.25 27.2 32.5 27.2 32.45 Q26.65 30.8 28.05 29.6 L24.7 30.05 24.7 30.0 Q27.9 29.6 29.1 28.75 L29.4 28.5 Q32.2 25.8 31.95 21.95 31.65 18.15 28.45 15.45 27.05 14.45 25.6 13.85 28.0 16.35 28.2 20.25 28.5 23.4 27.05 25.55 29.75 18.5 24.55 14.4 L22.55 13.1 21.85 13.05 18.65 16.45 20.95 13.05 19.0 13.3 Q17.5 13.85 16.3 14.85 12.9 19.4 13.25 23.35 L17.4 18.05 Q15.25 20.85 13.2 24.65 L13.05 24.3 Q12.7 23.05 12.7 21.65 L12.8 20.3 Q13.3 16.95 16.4 14.45 L18.1 13.3 19.85 12.85 20.2 12.8 21.6 12.7 22.35 12.75 Q25.8 12.95 28.6 15.15 L28.75 15.3 28.95 15.45 M24.0 28.1 L23.4 28.4 Q21.3 29.2 19.15 29.2 17.05 29.0 15.05 27.35 15.8 22.1 18.45 18.8 14.75 24.9 16.35 27.6 17.95 29.8 24.0 28.1 M21.85 39.85 Q20.8 40.55 18.5 40.7 15.05 40.8 14.8 39.5 15.35 34.85 17.75 32.95 15.25 35.75 15.85 39.0 16.85 41.45 21.85 39.85" fill="#f9f8ec" fill-rule="evenodd" stroke="none"/>
      <path d="M13.75 31.3 Q15.25 29.75 14.4 27.45 L14.2 27.0 14.2 26.95 14.2 26.9 13.85 26.1 14.6 26.9 Q15.75 28.95 14.65 30.75 L13.75 31.3 M27.05 25.55 Q26.0 27.1 24.0 28.1 17.95 29.8 16.35 27.6 14.75 24.9 18.45 18.8 L18.5 18.7 Q20.8 15.8 24.55 14.4 29.75 18.5 27.05 25.55 M13.5 35.85 Q12.45 37.45 11.95 36.75 11.85 34.05 14.3 31.5 15.4 30.85 16.6 30.65 L15.4 32.95 13.5 35.85 M21.75 31.6 Q24.05 33.0 24.2 36.15 23.75 38.65 21.85 39.85 16.85 41.45 15.85 39.0 15.25 35.75 17.75 32.95 19.3 31.65 21.75 31.6 M18.65 16.45 L18.55 16.55 17.45 17.95 17.4 18.05 13.25 23.35 Q12.9 19.4 16.3 14.85 17.5 13.85 19.0 13.3 L20.95 13.05 18.65 16.45" fill="#f0f0d2" fill-rule="evenodd" stroke="none"/>
      <path d="M27.05 25.55 Q28.5 23.4 28.2 20.25 28.0 16.35 25.6 13.85 27.05 14.45 28.45 15.45 31.65 18.15 31.95 21.95 32.2 25.8 29.4 28.5 L29.1 28.75 Q27.9 29.6 24.7 30.0 L24.55 30.05 19.15 29.2 Q21.3 29.2 23.4 28.4 L24.0 28.1 Q26.0 27.1 27.05 25.55 M24.45 31.0 Q27.5 32.75 27.15 35.5 26.45 37.8 23.95 39.5 21.35 41.35 18.15 41.4 L17.9 41.4 16.1 41.25 Q15.45 41.15 14.35 40.4 12.7 39.45 12.1 37.75 L12.45 38.05 13.5 35.85 15.4 32.95 17.5 30.6 18.1 30.6 Q20.35 30.75 21.75 31.6 19.3 31.65 17.75 32.95 15.35 34.85 14.8 39.5 15.05 40.8 18.5 40.7 20.8 40.55 21.85 39.85 23.75 38.65 24.2 36.15 L24.35 35.4 Q24.35 33.1 22.9 31.75 21.9 30.8 20.1 30.35 22.0 30.25 24.3 30.95 L24.45 31.0 M18.65 16.45 L21.85 13.05 22.55 13.1 24.55 14.4 Q20.8 15.8 18.5 18.7 L18.45 18.8 Q15.8 22.1 15.05 27.35 L14.6 26.9 13.85 26.1 13.75 25.95 13.7 25.75 13.2 24.65 Q15.25 20.85 17.4 18.05 L17.45 17.95 18.55 16.55 18.65 16.45" fill="#d5d580" fill-rule="evenodd" stroke="none"/>
      <path d="M29.7 28.85 L29.9 28.65 Q32.65 25.9 32.4 22.05 32.1 18.2 28.95 15.45 L29.5 15.9 30.8 17.15 Q32.75 19.45 32.95 22.45 33.05 24.05 32.65 25.4 32.1 27.45 30.45 29.05 L30.1 29.4 29.7 28.85 M27.5 31.95 L28.5 33.0 28.5 33.1 28.7 33.8 28.6 35.6 Q28.15 37.75 26.3 39.4 L25.6 39.95 25.25 39.2 Q27.3 37.5 27.75 35.2 L27.85 33.45 27.7 32.75 27.65 32.65 27.5 31.95 M21.05 41.9 L19.25 42.05 16.15 41.55 15.4 41.25 18.15 41.7 18.4 41.7 20.05 41.6 21.05 41.9" fill="#bfbf40" fill-rule="evenodd" stroke="none"/>
      <path d="M29.7 28.85 L30.1 29.4 29.85 29.6 29.7 29.75 29.1 30.15 Q27.95 31.3 28.5 33.0 L27.5 31.95 Q27.45 30.7 28.55 29.75 L29.15 29.35 29.3 29.2 29.7 28.85 M19.15 29.2 L24.55 30.05 24.45 30.05 24.55 30.05 24.7 30.05 28.05 29.6 Q26.65 30.8 27.2 32.45 L27.2 32.5 27.35 33.25 27.4 33.85 Q26.6 31.7 24.45 31.0 L24.3 30.95 Q22.0 30.25 20.1 30.35 L19.95 30.35 18.6 30.1 Q16.35 29.9 14.65 30.75 15.75 28.95 14.6 26.9 L15.05 27.35 Q17.05 29.0 19.15 29.2 M25.25 39.2 L25.6 39.95 25.3 40.15 24.3 40.8 Q22.75 41.65 21.05 41.9 L20.05 41.6 Q22.45 41.25 24.5 39.8 L25.25 39.2" fill="#a6a637" fill-rule="evenodd" stroke="none"/>
      <path d="M30.1 29.4 L30.45 29.05 Q32.1 27.45 32.65 25.4 33.05 24.05 32.95 22.45 32.75 19.45 30.8 17.15 L29.5 15.9 28.95 15.45 28.75 15.3 28.95 15.45 M22.35 12.75 Q25.8 12.95 28.6 15.15 L28.75 15.3 M11.75 37.8 L11.55 36.45 11.65 35.2 11.7 35.05 Q11.95 34.0 12.5 33.05 13.0 32.1 13.75 31.3 15.25 29.75 14.4 27.45 L14.2 27.0 14.2 26.95 14.2 26.9 13.85 26.1 13.75 25.95 13.7 25.75 13.2 24.65 13.05 24.3 Q12.7 23.05 12.7 21.65 L12.8 20.3 Q13.3 16.95 16.4 14.45 L18.1 13.3 19.85 12.85 20.2 12.8 21.6 12.7 22.35 12.75 M14.35 27.45 L14.45 27.95 Q14.55 29.4 13.65 30.8 11.4 33.1 11.0 36.1 L10.95 37.35 Q10.95 41.3 13.9 44.05 16.8 46.85 20.95 46.85 25.05 46.85 27.95 44.05 30.85 41.3 30.85 37.35 L30.6 35.05 Q30.8 31.9 33.7 28.9 L33.85 28.8 Q37.5 25.85 37.55 21.65 37.6 17.4 33.95 14.45 31.0 12.0 27.05 11.55 23.15 11.1 20.2 12.8 M28.5 33.0 Q27.95 31.3 29.1 30.15 L29.7 29.75 29.85 29.6 30.1 29.4 M26.3 39.4 Q28.15 37.75 28.6 35.6 L28.7 33.8 28.5 33.1 28.5 33.0 M25.6 39.95 L26.3 39.4 M14.35 27.45 L14.2 27.0 M14.55 40.85 L13.65 40.3 13.05 39.8 Q12.35 39.1 11.95 38.25 L11.75 37.8 M15.4 41.25 L16.15 41.55 19.25 42.05 21.05 41.9 Q22.75 41.65 24.3 40.8 L25.3 40.15 25.6 39.95 M15.4 41.25 L14.55 40.85" fill="none" stroke="#000000" stroke-linecap="round" stroke-linejoin="round" stroke-opacity="0.3019608" stroke-width="0.30000000000000004"/>
      <path d="M42.0 18.0 L42.05 18.0 Q43.4 18.35 43.8 19.3 44.5 19.85 44.95 21.05 L45.4 22.75 Q44.55 20.35 43.9 20.0 L43.8 20.7 43.3 22.15 42.45 23.35 42.2 23.7 Q40.1 26.5 37.95 27.45 L37.4 27.65 Q37.0 28.0 37.3 28.85 L37.8 29.9 37.2 30.05 36.9 29.0 Q36.65 28.35 35.8 28.0 34.0 27.3 32.8 27.3 L33.0 26.75 Q35.45 28.0 37.55 27.2 L38.2 26.85 39.2 26.1 41.85 23.35 Q42.95 21.85 43.25 20.55 L43.35 20.0 Q43.45 18.95 42.4 18.45 L42.15 18.4 41.6 18.4 41.25 18.4 Q40.0 18.45 38.45 19.0 L38.1 19.15 37.95 19.2 Q36.6 19.75 35.15 20.6 36.4 19.6 37.65 18.95 L37.9 18.85 Q39.65 18.0 41.25 18.0 L41.45 18.0 42.0 18.0 M41.1 21.0 L41.0 20.9 Q40.3 20.5 39.05 20.55 37.85 20.6 36.95 21.1 35.35 21.8 34.35 22.85 L34.4 22.4 Q36.3 21.05 37.65 20.55 38.3 20.25 38.9 20.25 L39.2 20.25 39.7 20.25 40.0 20.3 Q40.75 20.45 41.05 20.85 L41.1 21.0" fill="#ffff98" fill-rule="evenodd" stroke="none"/>
      <path d="M38.1 19.15 L38.45 19.0 Q40.0 18.45 41.25 18.4 L40.0 19.5 Q39.75 19.9 39.85 20.15 L40.0 20.3 39.7 20.25 39.2 20.25 38.9 20.25 Q38.3 20.25 37.65 20.55 L38.25 19.55 Q38.4 19.15 38.1 19.15 M39.2 26.1 L38.2 26.85 37.55 27.2 Q37.8 25.15 37.15 24.8 37.4 24.7 37.7 24.55 L39.8 22.95 Q39.3 24.05 39.15 24.85 39.05 25.6 39.2 26.1" fill="#ffde4f" fill-rule="evenodd" stroke="none"/>
      <path d="M45.4 22.75 L44.95 21.05 Q44.5 19.85 43.8 19.3 43.4 18.35 42.05 18.0 L42.0 18.0 42.05 18.0 43.15 18.2 Q45.15 18.95 45.35 21.2 L45.4 22.75 M35.15 20.6 Q36.6 19.75 37.95 19.2 L38.1 19.15 Q38.4 19.15 38.25 19.55 L37.65 20.55 Q36.3 21.05 34.4 22.4 L34.75 20.9 35.15 20.6 M41.25 18.4 L41.6 18.4 42.15 18.4 42.4 18.45 Q43.45 18.95 43.35 20.0 L43.25 20.55 Q42.95 21.85 41.85 23.35 L39.2 26.1 Q39.05 25.6 39.15 24.85 39.3 24.05 39.8 22.95 L40.25 22.5 40.6 22.1 40.65 22.05 41.1 21.0 41.05 20.85 Q40.75 20.45 40.0 20.3 L39.85 20.15 Q39.75 19.9 40.0 19.5 L41.25 18.4 M37.55 27.2 Q35.45 28.0 33.0 26.75 L33.85 24.95 34.5 25.15 37.15 24.8 Q37.8 25.15 37.55 27.2" fill="#f4a33c" fill-rule="evenodd" stroke="none"/>
      <path d="M32.8 27.3 Q34.0 27.3 35.8 28.0 36.65 28.35 36.9 29.0 L37.2 30.05 36.7 30.1 Q34.8 30.3 33.25 29.3 33.6 28.15 32.8 27.3 M42.45 23.35 L43.3 22.15 43.8 20.7 43.9 20.0 Q44.55 20.35 45.4 22.75 L45.3 23.1 Q44.85 24.45 44.05 25.6 L42.95 26.85 43.05 24.6 Q42.95 23.65 42.45 23.35 M37.8 22.85 L40.45 22.15 40.6 22.1 40.25 22.5 39.8 22.95 37.7 24.55 Q37.4 24.7 37.15 24.8 L34.5 25.15 34.6 24.5 Q35.55 23.85 36.5 23.4 L37.8 22.85" fill="#cc6b22" fill-rule="evenodd" stroke="none"/>
      <path d="M37.8 29.9 L37.3 28.85 Q37.0 28.0 37.4 27.65 L37.95 27.45 Q40.1 26.5 42.2 23.7 L42.45 23.35 Q42.95 23.65 43.05 24.6 L42.95 26.85 40.05 29.0 Q38.85 29.65 37.8 29.9 M36.95 21.1 Q37.95 21.45 38.05 21.9 L37.8 22.85 36.5 23.4 Q35.55 23.85 34.6 24.5 L34.35 22.85 Q35.35 21.8 36.95 21.1" fill="#a34100" fill-rule="evenodd" stroke="none"/>
      <path d="M36.95 21.1 Q37.85 20.6 39.05 20.55 40.3 20.5 41.0 20.9 L41.1 21.0 40.65 22.05 40.6 22.1 40.45 22.15 37.8 22.85 38.05 21.9 Q37.95 21.45 36.95 21.1" fill="#8f3600" fill-rule="evenodd" stroke="none"/>
      <path d="M45.4 22.75 L45.35 21.2 Q45.15 18.95 43.15 18.2 L42.05 18.0 42.0 18.0 41.45 18.0 41.25 18.0 Q39.65 18.0 37.9 18.85 L37.65 18.95 Q36.4 19.6 35.15 20.6 L34.75 20.9 M37.2 30.05 L37.8 29.9 Q38.85 29.65 40.05 29.0 L42.95 26.85 44.05 25.6 Q44.85 24.45 45.3 23.1 L45.4 22.75 M37.8 22.85 L40.45 22.15 40.6 22.1 40.65 22.05 41.1 21.0 M40.6 22.1 L40.25 22.5 39.8 22.95 37.7 24.55 Q37.4 24.7 37.15 24.8 L34.5 25.15 33.85 24.95 M37.8 22.85 L36.5 23.4 Q35.55 23.85 34.6 24.5 M37.2 30.05 L36.7 30.1 Q34.8 30.3 33.25 29.3" fill="none" stroke="#000000" stroke-linecap="round" stroke-linejoin="round" stroke-opacity="0.3019608" stroke-width="0.30000000000000004"/>
      <path d="M27.5 24.75 Q28.2 25.55 28.0 26.75 27.05 28.75 25.45 28.95 L21.65 29.05 20.65 28.95 19.25 28.8 Q18.8 28.85 19.3 29.4 L18.75 29.0 18.6 28.7 16.45 28.15 14.7 27.45 Q13.75 26.95 12.6 25.1 12.35 23.75 13.3 23.05 12.8 23.95 12.9 25.1 13.65 26.55 14.8 27.25 16.25 28.05 17.5 28.3 L18.7 28.55 19.6 28.65 22.65 28.85 25.8 28.65 Q26.85 28.35 27.55 27.3 28.25 26.25 27.5 24.75 M14.15 22.65 L14.35 22.55 15.25 22.4 Q14.85 22.65 15.1 22.85 L15.35 22.9 15.7 23.0 16.25 23.15 Q17.1 23.75 18.45 24.2 L20.85 24.75 20.05 24.65 18.45 24.35 Q17.2 24.0 16.15 23.35 L15.35 23.15 Q13.85 23.0 13.75 24.3 13.65 24.9 13.95 25.45 L14.35 26.1 14.3 26.1 Q13.25 25.2 13.45 24.15 13.65 23.45 14.1 23.1 L14.15 22.65" fill="#ffff98" fill-rule="evenodd" stroke="none"/>
      <path d="M28.65 25.45 Q28.15 24.75 27.25 24.45 L27.5 24.75 Q28.25 26.25 27.55 27.3 26.85 28.35 25.8 28.65 L22.65 28.85 19.6 28.65 18.7 28.55 17.5 28.3 Q16.25 28.05 14.8 27.25 13.65 26.55 12.9 25.1 12.8 23.95 13.3 23.05 13.65 22.8 14.15 22.65 L14.1 23.1 Q13.65 23.45 13.45 24.15 13.25 25.2 14.3 26.1 L14.45 26.2 14.55 26.3 15.25 26.8 15.45 26.9 16.85 27.45 17.05 27.55 18.7 27.95 20.0 28.2 20.2 28.2 20.3 28.2 23.9 28.4 24.3 28.4 25.55 28.25 26.2 27.7 26.45 27.45 26.85 26.8 26.9 26.7 26.9 26.5 Q27.6 25.2 26.0 24.65 L22.25 24.75 21.45 24.8 20.85 24.75 18.45 24.2 Q17.1 23.75 16.25 23.15 L15.7 23.0 15.35 22.9 15.1 22.85 Q14.85 22.65 15.25 22.4 L16.45 22.75 16.85 22.95 18.4 23.6 18.6 23.65 20.45 24.0 Q23.2 24.4 26.65 24.05 28.3 24.3 28.65 25.45 M17.15 26.0 L17.2 25.9 17.25 25.9 17.15 26.0 M24.65 27.5 L24.75 27.4 24.65 27.5" fill="#f4a33c" fill-rule="evenodd" stroke="none"/>
      <path d="M28.65 25.45 L28.75 26.1 Q28.7 27.25 28.2 28.05 27.45 29.2 25.9 29.7 L22.05 29.8 19.55 29.55 19.3 29.4 Q18.8 28.85 19.25 28.8 L20.65 28.95 21.65 29.05 25.45 28.95 Q27.05 28.75 28.0 26.75 28.2 25.55 27.5 24.75 L27.25 24.45 Q28.15 24.75 28.65 25.45 M17.5 29.15 L16.05 28.7 Q13.4 27.7 12.7 25.5 L12.6 25.1 Q13.75 26.95 14.7 27.45 L16.45 28.15 Q17.6 28.55 17.5 29.15 M22.25 24.75 L26.0 24.65 Q27.6 25.2 26.9 26.5 L26.9 26.25 Q26.75 25.75 26.1 25.35 L25.55 25.4 24.8 25.45 22.7 25.55 Q22.15 25.15 22.25 24.75 M15.25 26.8 L14.55 26.3 14.45 26.2 14.3 26.1 14.35 26.1 13.95 25.45 Q13.65 24.9 13.75 24.3 13.85 23.0 15.35 23.15 L16.15 23.35 Q17.2 24.0 18.45 24.35 L20.05 24.65 Q20.9 25.05 20.95 25.45 L20.55 25.4 18.5 25.0 17.75 24.65 17.3 24.5 16.6 24.2 Q15.05 23.55 14.6 23.9 13.5 24.7 14.85 26.35 L15.25 26.8" fill="#cc6b22" fill-rule="evenodd" stroke="none"/>
      <path d="M19.3 29.4 L19.55 29.55 19.35 29.55 18.8 29.45 17.5 29.15 Q17.6 28.55 16.45 28.15 L18.6 28.7 18.75 29.0 19.3 29.4 M20.85 24.75 L21.45 24.8 22.25 24.75 Q22.15 25.15 22.7 25.55 L21.2 25.5 20.95 25.45 Q20.9 25.05 20.05 24.65 L20.85 24.75" fill="#a34100" fill-rule="evenodd" stroke="none"/>
      <path d="M26.9 26.5 L26.9 26.7 26.85 26.8 26.45 27.45 26.45 26.75 Q26.25 26.35 25.55 26.4 L26.9 26.25 26.9 26.5 M24.3 28.4 L23.9 28.4 24.2 27.35 Q24.3 26.75 24.05 26.45 23.65 25.95 22.45 26.15 L24.55 26.25 24.8 25.45 25.55 25.4 24.75 27.4 24.65 27.5 24.3 28.4 M20.3 28.2 L20.2 28.2 20.0 28.2 20.25 27.1 Q20.25 26.35 19.8 25.95 19.45 25.65 18.9 25.55 L20.45 26.0 20.55 25.4 20.95 25.45 21.2 25.5 20.6 27.35 20.3 28.2 M17.05 27.55 L16.85 27.45 16.75 26.1 16.55 25.55 Q16.05 24.8 15.2 25.0 L16.7 25.1 16.6 24.2 17.3 24.5 17.2 25.9 17.15 26.0 17.05 27.55" fill="#f9f8ec" fill-rule="evenodd" stroke="none"/>
      <path d="M26.45 27.45 L26.2 27.7 25.55 28.25 24.3 28.4 24.65 27.5 24.75 27.4 25.25 26.6 Q25.4 26.45 25.55 26.4 26.25 26.35 26.45 26.75 L26.45 27.45 M23.9 28.4 L20.3 28.2 20.6 27.35 21.3 26.7 Q21.65 26.4 22.1 26.25 L22.45 26.15 Q23.65 25.95 24.05 26.45 24.3 26.75 24.2 27.35 L23.9 28.4 M20.0 28.2 L18.7 27.95 17.05 27.55 17.15 26.0 17.25 25.9 17.5 25.7 18.5 25.5 18.9 25.55 Q19.45 25.65 19.8 25.95 20.25 26.35 20.25 27.1 L20.0 28.2 M16.85 27.45 L15.45 26.9 15.25 26.8 14.85 26.35 Q14.8 25.3 15.2 25.0 16.05 24.8 16.55 25.55 L16.75 26.1 16.85 27.45" fill="#f0f0d2" fill-rule="evenodd" stroke="none"/>
      <path d="M16.6 24.2 L16.7 25.1 15.2 25.0 Q14.8 25.3 14.85 26.35 13.5 24.7 14.6 23.9 15.05 23.55 16.6 24.2 M17.3 24.5 L17.75 24.65 18.5 25.0 20.55 25.4 20.45 26.0 18.9 25.55 18.5 25.5 17.5 25.7 17.25 25.9 17.2 25.9 17.3 24.5 M22.45 26.15 L22.1 26.25 Q21.65 26.4 21.3 26.7 L20.6 27.35 21.2 25.5 22.7 25.55 24.8 25.45 24.55 26.25 22.45 26.15 M25.55 25.4 L26.1 25.35 Q26.75 25.75 26.9 26.25 L25.55 26.4 Q25.4 26.45 25.25 26.6 L24.75 27.4 25.55 25.4" fill="#d5d580" fill-rule="evenodd" stroke="none"/>
      <path d="M19.55 29.55 L22.05 29.8 25.9 29.7 Q27.45 29.2 28.2 28.05 28.7 27.25 28.75 26.1 L28.65 25.45 Q28.3 24.3 26.65 24.05 23.2 24.4 20.45 24.0 L18.6 23.65 18.4 23.6 16.85 22.95 16.45 22.75 15.25 22.4 14.35 22.55 14.15 22.65 Q13.65 22.8 13.3 23.05 12.35 23.75 12.6 25.1 L12.7 25.5 Q13.4 27.7 16.05 28.7 L17.5 29.15 18.8 29.45 19.35 29.55 19.55 29.55 M26.9 26.5 L26.9 26.7 26.85 26.8 26.45 27.45 26.2 27.7 25.55 28.25 24.3 28.4 23.9 28.4 20.3 28.2 20.2 28.2 20.0 28.2 18.7 27.95 17.05 27.55 16.85 27.45 15.45 26.9 15.25 26.8 14.85 26.35 Q13.5 24.7 14.6 23.9 15.05 23.55 16.6 24.2 L17.3 24.5 17.75 24.65 18.5 25.0 20.55 25.4 20.95 25.45 21.2 25.5 22.7 25.55 24.8 25.45 25.55 25.4 26.1 25.35 Q26.75 25.75 26.9 26.25 L26.9 26.5" fill="none" stroke="#000000" stroke-linecap="round" stroke-linejoin="round" stroke-opacity="0.3019608" stroke-width="0.30000000000000004"/>
      <path d="M31.05 19.95 Q31.15 21.55 30.1 22.65 L29.1 23.4 27.35 23.75 Q25.75 23.75 24.5 22.65 23.65 21.85 23.3 20.85 L23.15 19.95 23.2 19.95 23.3 20.55 Q23.6 21.55 24.45 22.3 25.75 23.45 27.35 23.45 L29.05 23.05 30.05 22.3 Q31.05 21.3 31.05 19.95" fill="#ffffff" fill-rule="evenodd" stroke="none"/>
      <path d="M23.2 19.95 L23.2 19.75 23.1 19.6 Q23.0 18.0 24.1 16.9 25.2 15.8 26.8 15.8 L28.2 16.0 28.6 16.15 29.7 16.9 Q30.9 18.0 31.0 19.6 L31.05 19.75 31.05 19.95 Q31.05 21.3 30.05 22.3 L29.05 23.05 27.35 23.45 Q25.75 23.45 24.45 22.3 23.6 21.55 23.3 20.55 L23.2 19.95" fill="#a34100" fill-rule="evenodd" stroke="none"/>
      <path d="M28.15 15.85 L29.3 16.55 Q30.5 17.7 30.65 19.3 30.75 20.85 29.65 22.0 L28.65 22.75 26.95 23.1 Q25.3 23.1 24.05 22.0 23.2 21.2 22.9 20.2 L22.75 19.3 Q22.6 17.7 23.7 16.55 24.75 15.45 26.4 15.45 L27.85 15.7 28.15 15.85 M27.85 16.5 L27.5 16.1 26.25 15.9 Q24.8 15.9 23.85 16.85 22.9 17.85 23.0 19.3 L23.05 19.7 23.6 20.4 24.95 21.0 27.2 20.9 Q29.6 18.7 27.85 16.5 M29.75 20.85 Q30.1 20.1 30.05 19.3 29.95 17.85 28.8 16.85 L28.5 16.6 28.85 17.9 28.85 17.95 Q28.9 19.1 28.25 20.0 L28.0 20.35 27.3 20.9 27.1 21.0 27.0 21.05 25.65 21.3 25.35 21.3 23.95 20.95 23.6 20.75 23.4 20.6 Q23.65 21.2 24.2 21.7 25.3 22.65 26.7 22.65 L28.25 22.35 28.65 22.15 29.15 21.7 29.75 20.85" fill="#ffff98" fill-rule="evenodd" stroke="none"/>
      <path d="M26.25 15.9 L27.5 16.1 27.85 16.5 Q26.0 16.4 24.95 18.05 23.85 19.9 24.95 21.0 L23.6 20.4 Q23.95 17.25 26.25 15.9" fill="#ffde4f" fill-rule="evenodd" stroke="none"/>
      <path d="M26.25 15.9 Q23.95 17.25 23.6 20.4 L23.05 19.7 23.0 19.3 Q22.9 17.85 23.85 16.85 24.8 15.9 26.25 15.9 M24.95 21.0 Q23.85 19.9 24.95 18.05 26.0 16.4 27.85 16.5 29.6 18.7 27.2 20.9 L24.95 21.0" fill="#f4a33c" fill-rule="evenodd" stroke="none"/>
      <path d="M28.85 17.95 L28.85 17.9 28.5 16.6 28.8 16.85 Q29.95 17.85 30.05 19.3 30.1 20.1 29.75 20.85 29.95 18.7 28.85 17.95 M28.65 22.15 L28.25 22.35 26.7 22.65 Q25.3 22.65 24.2 21.7 23.65 21.2 23.4 20.6 L23.6 20.75 23.95 20.95 25.35 21.3 25.65 21.3 27.0 21.05 27.1 21.0 27.3 20.9 28.0 20.35 28.25 20.0 Q29.65 20.35 28.65 22.15" fill="#cc6b22" fill-rule="evenodd" stroke="none"/>
      <path d="M28.85 17.95 Q29.95 18.7 29.75 20.85 L29.15 21.7 28.65 22.15 Q29.65 20.35 28.25 20.0 28.9 19.1 28.85 17.95" fill="#a34100" fill-rule="evenodd" stroke="none"/>
      <path d="M28.15 15.85 L29.3 16.55 Q30.5 17.7 30.65 19.3 30.75 20.85 29.65 22.0 L28.65 22.75 26.95 23.1 Q25.3 23.1 24.05 22.0 23.2 21.2 22.9 20.2 L22.75 19.3 Q22.6 17.7 23.7 16.55 24.75 15.45 26.4 15.45 L27.85 15.7 28.15 15.85 Z" fill="none" stroke="#000000" stroke-linecap="round" stroke-linejoin="round" stroke-opacity="0.3019608" stroke-width="0.30000000000000004"/>
      <path d="M20.05 18.4 Q19.65 19.9 18.35 20.9 L17.25 21.6 15.65 21.95 Q14.25 22.0 13.5 20.95 13.0 20.25 13.0 19.3 L13.2 18.45 13.1 19.0 Q13.1 19.95 13.6 20.65 14.35 21.7 15.75 21.65 L17.3 21.3 18.45 20.6 Q19.6 19.65 20.05 18.4" fill="#ffffff" fill-rule="evenodd" stroke="none"/>
      <path d="M13.2 18.45 L13.25 18.3 13.25 18.15 Q13.65 16.65 14.95 15.6 16.2 14.55 17.6 14.5 L18.8 14.75 19.0 14.85 19.8 15.55 Q20.5 16.6 20.1 18.1 L20.1 18.25 20.05 18.4 Q19.6 19.65 18.45 20.6 L17.3 21.3 15.75 21.65 Q14.35 21.7 13.6 20.65 13.1 19.95 13.1 19.0 L13.2 18.45" fill="#a34100" fill-rule="evenodd" stroke="none"/>
      <path d="M18.05 14.1 L19.1 14.5 19.35 14.6 20.0 15.45 Q20.5 16.6 19.9 18.15 19.3 19.65 17.95 20.6 L16.75 21.25 15.15 21.45 Q13.75 21.35 13.25 20.15 12.85 19.3 13.0 18.35 L13.3 17.45 Q13.9 15.9 15.3 15.0 16.65 14.0 18.05 14.1 M18.8 15.25 L18.7 14.8 Q18.3 14.6 17.75 14.55 L17.7 14.55 Q16.55 14.45 15.3 15.25 14.05 16.15 13.5 17.5 L13.4 17.9 13.55 18.6 14.4 19.3 16.35 19.35 Q19.3 17.5 18.8 15.25 M18.5 19.55 L19.4 18.1 Q19.95 16.75 19.45 15.7 L19.25 15.4 19.0 16.65 19.0 16.7 Q18.55 17.85 17.65 18.65 L17.25 18.95 16.45 19.35 16.2 19.5 16.1 19.5 14.85 19.65 14.6 19.65 Q14.0 19.55 13.55 19.15 L13.35 18.95 13.25 18.75 13.5 19.9 Q14.0 20.95 15.2 21.05 L16.6 20.85 17.0 20.7 17.65 20.35 18.5 19.55" fill="#ffff98" fill-rule="evenodd" stroke="none"/>
      <path d="M17.7 14.55 L17.75 14.55 Q18.3 14.6 18.7 14.8 L18.8 15.25 Q17.3 15.0 15.65 16.5 13.95 18.1 14.4 19.3 L13.55 18.6 Q15.15 15.65 17.7 14.55" fill="#ffde4f" fill-rule="evenodd" stroke="none"/>
      <path d="M17.7 14.55 Q15.15 15.65 13.55 18.6 L13.4 17.9 13.5 17.5 Q14.05 16.15 15.3 15.25 16.55 14.45 17.7 14.55 M14.4 19.3 Q13.95 18.1 15.65 16.5 17.3 15.0 18.8 15.25 19.3 17.5 16.35 19.35 L14.4 19.3" fill="#f4a33c" fill-rule="evenodd" stroke="none"/>
      <path d="M18.5 19.55 Q19.55 17.55 19.0 16.7 L19.0 16.65 19.25 15.4 19.45 15.7 Q19.95 16.75 19.4 18.1 L18.5 19.55 M17.65 18.65 Q18.65 19.15 17.0 20.7 L16.6 20.85 15.2 21.05 Q14.0 20.95 13.5 19.9 L13.25 18.75 13.35 18.95 13.55 19.15 Q14.0 19.55 14.6 19.65 L14.85 19.65 16.1 19.5 16.2 19.5 16.45 19.35 17.25 18.95 17.65 18.65" fill="#cc6b22" fill-rule="evenodd" stroke="none"/>
      <path d="M19.0 16.7 Q19.55 17.55 18.5 19.55 L17.65 20.35 17.0 20.7 Q18.65 19.15 17.65 18.65 18.55 17.85 19.0 16.7" fill="#a34100" fill-rule="evenodd" stroke="none"/>
      <path d="M18.05 14.1 L19.1 14.5 19.35 14.6 20.0 15.45 Q20.5 16.6 19.9 18.15 19.3 19.65 17.95 20.6 L16.75 21.25 15.15 21.45 Q13.75 21.35 13.25 20.15 12.85 19.3 13.0 18.35 L13.3 17.45 Q13.9 15.9 15.3 15.0 16.65 14.0 18.05 14.1 Z" fill="none" stroke="#000000" stroke-linecap="round" stroke-linejoin="round" stroke-opacity="0.3019608" stroke-width="0.30000000000000004"/>
      <path d="M13.25 36.1 L13.05 36.1 Q13.25 33.8 14.75 31.9 19.45 31.7 24.1 33.45 L24.15 33.65 21.05 32.75 14.8 32.05 Q14.1 32.95 13.7 34.2 13.4 35.1 13.25 36.1" fill="#ffffff" fill-rule="evenodd" stroke="none"/>
      <path d="M24.1 34.5 Q23.5 36.7 22.6 37.75 L21.9 37.5 Q23.0 36.95 23.45 35.75 23.55 34.95 22.5 34.3 21.2 33.55 19.3 33.3 L20.2 33.35 20.2 33.3 20.45 33.35 Q22.05 33.7 23.7 34.35 L24.1 34.5" fill="#f4a33c" fill-rule="evenodd" stroke="none"/>
      <path d="M21.9 37.5 Q19.25 36.65 16.4 36.3 L16.0 36.25 Q15.55 35.35 16.1 34.6 16.65 33.85 18.3 33.35 L19.0 33.3 19.15 33.3 19.3 33.3 Q21.2 33.55 22.5 34.3 23.55 34.95 23.45 35.75 23.0 36.95 21.9 37.5" fill="#ffde4f" fill-rule="evenodd" stroke="none"/>
      <path d="M16.0 36.25 L15.25 36.2 Q15.3 34.1 17.4 33.55 L18.3 33.35 Q16.65 33.85 16.1 34.6 15.55 35.35 16.0 36.25" fill="#ffff98" fill-rule="evenodd" stroke="none"/>
      <path d="M15.25 36.2 L13.95 36.1 14.2 35.2 Q14.55 33.95 15.25 32.85 L20.2 33.3 20.2 33.35 19.3 33.3 19.15 33.3 19.0 33.3 18.3 33.35 17.4 33.55 Q15.3 34.1 15.25 36.2" fill="#cc6b22" fill-rule="evenodd" stroke="none"/>
      <path d="M13.95 36.1 L13.25 36.1 Q13.4 35.1 13.7 34.2 13.75 35.05 14.2 35.2 L13.95 36.1 M21.05 32.75 Q20.35 32.9 20.45 33.35 L20.2 33.3 15.25 32.85 14.8 32.05 21.05 32.75" fill="#a6a637" fill-rule="evenodd" stroke="none"/>
      <path d="M15.25 32.85 Q14.55 33.95 14.2 35.2 13.75 35.05 13.7 34.2 14.1 32.95 14.8 32.05 L15.25 32.85" fill="#939331" fill-rule="evenodd" stroke="none"/>
      <path d="M24.15 33.65 L24.1 34.5 23.7 34.35 Q22.05 33.7 20.45 33.35 20.35 32.9 21.05 32.75 L24.15 33.65" fill="#d5d580" fill-rule="evenodd" stroke="none"/>
      <path d="M24.15 33.65 L24.1 34.5 Q23.5 36.7 22.6 37.75 L21.9 37.5 Q19.25 36.65 16.4 36.3 L16.0 36.25 15.25 36.2 13.95 36.1 13.25 36.1 M20.45 33.35 Q22.05 33.7 23.7 34.35 L24.1 34.5 M20.2 33.3 L20.45 33.35 M20.2 33.3 L15.25 32.85 Q14.55 33.95 14.2 35.2 L13.95 36.1" fill="none" stroke="#000000" stroke-linecap="round" stroke-linejoin="round" stroke-opacity="0.3019608" stroke-width="0.30000000000000004"/>
      <path d="M29.95 37.15 L31.25 37.4 32.35 37.3 33.8 36.8 34.95 35.75 Q35.45 34.85 35.45 33.25 L35.6 34.65 35.45 35.45 35.3 35.95 35.15 36.25 34.0 37.2 Q33.85 37.65 34.75 38.55 L34.45 38.7 33.6 37.55 33.35 37.4 31.85 37.65 31.2 37.65 29.85 37.6 29.95 37.15 M13.55 41.55 L13.85 41.7 13.4 42.3 13.25 42.4 12.6 43.05 11.75 43.7 11.65 44.1 Q11.55 44.75 12.05 45.7 L11.8 45.75 11.05 44.05 11.75 43.7 11.05 44.05 10.0 44.25 9.65 44.2 9.25 44.05 Q8.85 43.35 9.3 42.45 L9.25 43.0 Q9.25 43.65 9.65 43.7 10.9 43.75 12.4 42.55 L13.55 41.55 M23.6 43.2 L23.5 42.25 23.75 43.25 23.85 43.95 23.9 44.3 Q24.0 45.8 23.3 46.5 L23.1 46.7 23.6 48.45 23.4 48.55 22.85 46.85 Q21.95 47.0 21.35 46.35 L21.2 46.2 20.85 45.7 20.35 44.35 21.25 45.9 Q21.85 46.6 22.6 46.5 L23.1 46.15 Q23.7 45.4 23.6 43.2 M22.85 46.85 L23.1 46.7 22.85 46.85" fill="#ffff98" fill-rule="evenodd" stroke="none"/>
      <path d="M30.0 36.55 L32.05 34.6 32.25 34.3 32.55 33.45 34.7 33.3 Q33.85 34.1 33.35 34.85 32.45 36.1 32.35 37.3 L31.25 37.4 29.95 37.15 30.0 36.55 M12.0 40.45 L12.3 40.7 13.55 41.55 12.2 41.75 Q10.9 42.15 9.25 43.0 L9.3 42.45 10.1 41.5 Q10.9 41.5 11.85 40.65 L11.9 40.6 12.0 40.45 M23.5 42.25 L23.6 43.2 Q22.65 43.7 22.0 44.5 L21.25 45.9 20.35 44.35 21.5 43.75 Q22.05 43.3 22.2 42.75 L23.5 42.25" fill="#ffde4f" fill-rule="evenodd" stroke="none"/>
      <path d="M32.55 33.45 L32.25 34.3 32.05 34.6 30.0 36.55 Q30.15 35.05 29.7 33.65 L32.55 33.45 M32.35 37.3 Q32.45 36.1 33.35 34.85 33.85 34.1 34.7 33.3 L35.45 33.25 35.95 34.75 36.05 34.85 36.1 36.15 35.6 34.65 35.45 33.25 Q35.45 34.85 34.95 35.75 L33.8 36.8 32.35 37.3 M10.1 41.5 L11.2 40.55 11.7 40.1 11.75 40.1 12.0 40.45 11.9 40.6 11.85 40.65 Q10.9 41.5 10.1 41.5 M10.7 45.85 L10.2 45.65 10.15 45.55 9.25 44.05 9.65 44.2 10.7 45.85 M9.25 43.0 Q10.9 42.15 12.2 41.75 L13.55 41.55 12.4 42.55 Q10.9 43.75 9.65 43.7 9.25 43.65 9.25 43.0 M22.2 42.75 Q22.05 43.3 21.5 43.75 L20.35 44.35 20.05 42.8 20.95 42.85 22.2 42.75 M21.25 45.9 L22.0 44.5 Q22.65 43.7 23.6 43.2 23.7 45.4 23.1 46.15 L22.6 46.5 Q21.85 46.6 21.25 45.9 M22.1 48.2 L21.85 48.0 21.3 47.1 Q20.8 46.15 20.35 44.35 L20.85 45.7 21.2 46.2 21.35 46.35 22.1 48.2" fill="#f4a33c" fill-rule="evenodd" stroke="none"/>
      <path d="M34.75 38.55 Q33.85 37.65 34.0 37.2 L35.15 36.25 35.3 35.95 35.45 35.45 35.6 34.65 36.1 36.15 36.1 36.4 35.7 37.7 34.75 38.55 M31.85 37.65 Q31.4 38.25 32.45 38.85 L33.0 39.1 32.2 39.15 30.8 39.1 30.4 39.1 29.85 37.6 31.2 37.65 31.85 37.65 M13.85 41.7 L14.65 43.55 13.3 44.9 13.65 43.55 Q13.8 42.55 13.4 42.3 L13.85 41.7 M11.8 45.75 L10.7 45.85 9.65 44.2 10.0 44.25 11.05 44.05 11.8 45.75 M23.5 42.25 L24.1 43.9 Q24.5 45.35 24.5 46.35 L24.4 47.3 24.4 46.55 Q24.3 45.15 23.9 44.3 L23.85 43.95 23.75 43.25 23.5 42.25 M23.4 48.55 L23.1 48.55 Q22.55 48.55 22.1 48.2 L21.35 46.35 Q21.95 47.0 22.85 46.85 L23.4 48.55" fill="#cc6b22" fill-rule="evenodd" stroke="none"/>
      <path d="M31.85 37.65 L33.35 37.4 33.6 37.55 34.45 38.7 33.0 39.1 32.45 38.85 Q31.4 38.25 31.85 37.65 M13.3 44.9 L13.15 45.0 Q12.6 45.45 12.05 45.7 11.55 44.75 11.65 44.1 L11.75 43.7 12.6 43.05 13.25 42.4 13.4 42.3 Q13.8 42.55 13.65 43.55 L13.3 44.9 M23.9 44.3 Q24.3 45.15 24.4 46.55 L24.4 47.3 24.35 47.4 24.2 47.85 23.6 48.45 23.1 46.7 23.3 46.5 Q24.0 45.8 23.9 44.3" fill="#a34100" fill-rule="evenodd" stroke="none"/>
      <path d="M34.7 33.3 L32.55 33.45 29.7 33.65 M34.45 38.7 L34.75 38.55 35.7 37.7 36.1 36.4 36.1 36.15 36.05 34.85 35.95 34.75 35.45 33.25 34.7 33.3 M33.0 39.1 L34.45 38.7 M33.0 39.1 L32.2 39.15 30.8 39.1 30.4 39.1 29.85 37.6 M10.1 41.5 L11.2 40.55 11.7 40.1 11.75 40.1 M13.85 41.7 L14.65 43.55 13.3 44.9 13.15 45.0 Q12.6 45.45 12.05 45.7 L11.8 45.75 10.7 45.85 10.2 45.65 10.15 45.55 9.25 44.05 Q8.85 43.35 9.3 42.45 L10.1 41.5 M24.4 47.3 L24.5 46.35 Q24.5 45.35 24.1 43.9 L23.5 42.25 23.75 43.25 23.85 43.95 23.9 44.3 Q24.0 45.8 23.3 46.5 L23.1 46.7 22.85 46.85 Q21.95 47.0 21.35 46.35 L21.2 46.2 20.85 45.7 20.35 44.35 20.05 42.8 M24.4 47.3 L24.35 47.4 24.2 47.85 23.6 48.45 23.4 48.55 23.1 48.55 Q22.55 48.55 22.1 48.2 L21.85 48.0 21.3 47.1 Q20.8 46.15 20.35 44.35 M13.4 42.3 L13.25 42.4 12.6 43.05 11.75 43.7 11.05 44.05 10.0 44.25 9.65 44.2 9.25 44.05 M13.85 41.7 L13.4 42.3" fill="none" stroke="#000000" stroke-linecap="round" stroke-linejoin="round" stroke-opacity="0.3019608" stroke-width="0.30000000000000004"/>
    </g>
    <g id="sprite0" transform="matrix(1.0, 0.0, 0.0, 1.0, 0.0, 0.0)">
      <use height="26.7" transform="matrix(0.0042, -1.3515, 1.3935, 0.02, 22.09, 56.0263)" width="26.7" xlink:href="#sprite1"/>
      <use height="26.7" transform="matrix(0.0095, -3.0486, 0.372, 0.0053, 36.507, 81.3775)" width="26.7" xlink:href="#sprite1"/>
      <use height="26.7" transform="matrix(3.0486, 0.0095, -0.0053, 0.372, 0.1225, 35.107)" width="26.7" xlink:href="#sprite1"/>
    </g>
    <g id="sprite1" transform="matrix(1.0, 0.0, 0.0, 1.0, 13.35, 13.35)">
      <use height="26.7" transform="matrix(1.0, 0.0, 0.0, 1.0, -13.35, -13.35)" width="26.7" xlink:href="#shape1"/>
    </g>
    <g id="shape1" transform="matrix(1.0, 0.0, 0.0, 1.0, 13.35, 13.35)">
      <path d="M9.3 -9.85 Q13.35 -5.8 13.35 0.0 13.35 5.8 9.3 9.3 5.8 13.35 0.0 13.35 -5.8 13.35 -9.85 9.3 -13.35 5.8 -13.35 0.0 -13.35 -5.8 -9.85 -9.85 -5.8 -13.35 0.0 -13.35 5.8 -13.35 9.3 -9.85" fill="url(#gradient0)" fill-rule="evenodd" stroke="none"/>
    </g>
    <radialGradient cx="0" cy="0" gradientTransform="matrix(0.0213, 0.0, 0.0, 0.0213, 0.0, 0.0)" gradientUnits="userSpaceOnUse" id="gradient0" r="819.2" spreadMethod="pad">
      <stop offset="0.19607843137254902" stop-color="#fee3bc" stop-opacity="0.41960785"/>
      <stop offset="0.5019607843137255" stop-color="#fee3bc" stop-opacity="0.06666667"/>
      <stop offset="0.7607843137254902" stop-color="#ffe3bd" stop-opacity="0.0"/>
    </radialGradient>
    <g id="sprite2" transform="matrix(1.0, 0.0, 0.0, 1.0, 73.5, 65.0)">
      <use height="136.85" transform="matrix(1.0, 0.0, 0.0, 1.0, -73.5, -65.0)" width="148.25" xlink:href="#shape2"/>
    </g>
    <g id="shape2" transform="matrix(1.0, 0.0, 0.0, 1.0, 73.5, 65.0)">
      <path d="M36.65 -54.65 Q60.05 -42.0 69.75 -17.95 80.55 8.9 68.0 34.1 55.45 59.35 26.8 68.2 -1.8 77.05 -29.7 64.3 -57.6 51.6 -68.45 24.75 -79.3 -2.05 -66.75 -27.25 L-66.7 -27.3 Q-54.1 -52.5 -25.5 -61.4 3.1 -70.2 31.0 -57.5 L36.65 -54.65" fill="url(#gradient1)" fill-rule="evenodd" stroke="none"/>
    </g>
    <radialGradient cx="0" cy="0" gradientTransform="matrix(0.0914, 0.0, 0.0, 0.0914, 0.6, 3.4)" gradientUnits="userSpaceOnUse" id="gradient1" r="819.2" spreadMethod="pad">
      <stop offset="0.0" stop-color="#ffffff"/>
      <stop offset="1.0" stop-color="#ffffff" stop-opacity="0.0"/>
    </radialGradient>
  </defs>
</svg>
