<?xml version="1.0" encoding="UTF-8" standalone="no"?>
<svg xmlns:xlink="http://www.w3.org/1999/xlink" height="52.0px" width="52.0px" xmlns="http://www.w3.org/2000/svg">
  <g transform="matrix(1.0, 0.0, 0.0, 1.0, 0.0, 0.0)">
    <use height="56.0" transform="matrix(1.0, 0.0, 0.0, 1.0, -2.0, -2.0)" width="56.0" xlink:href="#shape0"/>
    <use height="136.85" transform="matrix(0.0691, 0.0484, -0.0794, 0.0828, 26.3278, 28.862)" width="148.25" xlink:href="#sprite0"/>
    <use height="45.45" transform="matrix(1.0, 0.0, 0.0, 1.0, 7.8, 3.4)" width="36.5" xlink:href="#shape2"/>
    <use height="136.85" transform="matrix(0.0988, 0.0, -0.0339, 0.1673, 16.643, 11.1277)" width="148.25" xlink:href="#sprite0"/>
    <use height="136.85" transform="matrix(0.0352, 0.0, -0.0074, 0.0365, 38.3926, 25.7805)" width="148.25" xlink:href="#sprite0"/>
    <use height="136.85" transform="matrix(0.0208, 0.0, -0.0074, 0.0365, 9.4013, 18.4305)" width="148.25" xlink:href="#sprite0"/>
    <use height="136.85" transform="matrix(0.0478, 0.0102, -0.0386, 0.0833, 18.5433, 23.4846)" width="148.25" xlink:href="#sprite0"/>
    <use height="136.85" transform="matrix(0.0345, 0.0073, -0.0176, 0.0622, 25.8591, 8.218)" width="148.25" xlink:href="#sprite0"/>
    <use height="81.5" transform="matrix(0.1748, 0.0, 0.0, 0.1745, 17.05, 16.9)" width="81.5" xlink:href="#sprite1"/>
    <use height="81.5" transform="matrix(0.1019, 0.0, 0.0, 0.1017, 26.25, 37.25)" width="81.5" xlink:href="#sprite1"/>
    <use height="81.5" transform="matrix(0.1019, 0.0, 0.0, 0.1017, 24.0, 5.15)" width="81.5" xlink:href="#sprite1"/>
  </g>
  <defs>
    <g id="shape0" transform="matrix(1.0, 0.0, 0.0, 1.0, 2.0, 2.0)">
      <path d="M52.0 0.0 L52.0 52.0 0.0 52.0 0.0 0.0 52.0 0.0" fill="#795fa9" fill-opacity="0.0" fill-rule="evenodd" stroke="none"/>
      <path d="M25.85 5.05 L26.85 4.75 27.15 4.65 27.2 4.65 27.4 4.6 Q33.05 3.25 37.45 5.95 L37.55 6.0 38.0 6.25 Q39.1 7.05 40.0 8.0 42.1 10.2 42.95 13.4 43.4 15.1 43.5 17.1 L43.4 20.8 Q43.1 23.15 42.2 25.45 L42.4 25.6 42.7 25.95 43.2 26.8 43.45 27.75 43.35 29.1 43.25 29.4 Q42.9 30.2 42.15 30.7 L41.0 31.1 40.85 31.1 39.95 31.05 39.4 30.95 39.25 31.15 36.6 34.45 35.95 36.2 34.75 38.45 33.4 40.4 30.95 42.8 30.5 44.0 Q30.05 45.15 29.2 46.1 L29.05 46.25 28.8 46.55 27.75 47.4 Q26.7 48.1 25.6 48.1 L26.25 45.1 Q24.25 45.6 22.55 45.15 L21.5 44.8 20.5 44.3 19.85 43.8 19.65 44.85 18.75 47.5 Q17.25 46.7 16.7 44.0 L16.5 42.25 16.5 40.8 16.6 39.7 15.55 39.05 14.6 38.4 13.45 37.25 Q11.35 35.05 10.5 31.8 10.1 30.15 10.0 28.25 L9.95 27.45 10.0 27.45 9.95 27.1 10.15 24.2 9.55 23.55 Q8.85 23.05 8.65 21.9 L8.55 21.3 8.55 20.75 Q8.7 18.4 11.8 18.05 L12.05 18.0 Q12.9 16.2 14.1 14.4 L14.1 14.1 14.2 13.35 Q14.4 12.5 15.0 11.55 L15.3 11.1 16.15 10.2 17.05 9.6 17.3 9.5 18.1 9.25 18.3 9.25 18.55 9.25 Q21.5 6.65 25.05 5.3 L25.85 5.05 Z" fill="none" stroke="#000000" stroke-linecap="round" stroke-linejoin="round" stroke-opacity="0.3019608" stroke-width="1.0"/>
      <path d="M36.95 33.0 Q36.65 34.6 35.95 36.2 35.35 34.3 34.25 33.75 35.15 31.85 35.45 29.95 35.95 32.4 36.95 33.0 M29.0 44.05 L27.9 44.55 27.6 44.65 Q27.85 42.95 26.4 41.7 L27.7 41.15 Q27.9 43.3 29.0 44.05" fill="#8f3600" fill-rule="evenodd" stroke="none"/>
      <path d="M35.25 24.55 Q36.9 26.5 37.1 29.6 L37.15 29.75 Q36.25 26.85 35.55 26.4 L35.25 24.55 M33.4 40.4 Q31.5 42.75 29.0 44.05 27.9 43.3 27.7 41.15 29.9 39.95 31.9 37.5 31.35 39.25 33.4 40.4" fill="#f4a33c" fill-rule="evenodd" stroke="none"/>
      <path d="M34.05 22.0 Q34.85 23.1 35.25 24.55 L35.55 26.4 35.6 26.7 35.45 29.95 Q35.15 31.85 34.25 33.75 L33.25 35.55 31.9 37.5 Q29.9 39.95 27.7 41.15 L26.4 41.7 Q27.85 42.95 27.6 44.65 27.55 42.95 25.35 42.0 22.55 43.0 19.95 42.05 18.7 41.6 17.45 40.65 19.35 43.45 21.5 44.8 L20.5 44.3 19.35 43.4 Q17.2 41.45 16.15 38.25 L16.85 39.3 17.0 39.5 17.05 39.5 Q17.7 40.35 18.7 40.95 L18.75 41.0 Q21.95 42.9 26.05 41.2 30.25 39.5 32.95 35.1 35.65 30.75 35.3 26.25 L34.95 24.15 34.05 22.0" fill="#ffff98" fill-rule="evenodd" stroke="none"/>
      <path d="M27.6 44.65 Q24.85 45.7 22.55 45.15 20.35 44.1 19.95 42.05 22.55 43.0 25.35 42.0 27.55 42.95 27.6 44.65" fill="#ffde4f" fill-rule="evenodd" stroke="none"/>
      <path d="M37.15 29.75 Q37.25 31.35 36.95 33.0 35.95 32.4 35.45 29.95 L35.6 26.7 35.55 26.4 Q36.25 26.85 37.15 29.75 M22.55 45.15 L21.5 44.8 Q19.35 43.45 17.45 40.65 18.7 41.6 19.95 42.05 20.35 44.1 22.55 45.15" fill="#cc6b22" fill-rule="evenodd" stroke="none"/>
      <path d="M16.15 38.25 L15.8 36.95 15.75 36.7 Q15.55 35.9 15.5 34.9 15.15 30.4 17.85 26.05 20.55 21.65 24.7 19.95 28.9 18.25 32.1 20.2 33.25 20.95 34.05 22.0 L34.95 24.15 35.3 26.25 Q35.65 30.75 32.95 35.1 30.25 39.5 26.05 41.2 21.95 42.9 18.75 41.0 L18.7 40.95 Q17.7 40.35 17.05 39.5 L17.0 39.5 16.85 39.3 16.15 38.25 M35.95 36.2 L34.75 38.45 33.4 40.4 Q31.35 39.25 31.9 37.5 L33.25 35.55 34.25 33.75 Q35.35 34.3 35.95 36.2" fill="#a34100" fill-rule="evenodd" stroke="none"/>
      <path d="M16.15 38.25 L15.8 36.95 15.75 36.7 Q15.55 35.9 15.5 34.9 15.15 30.4 17.85 26.05 20.55 21.65 24.7 19.95 28.9 18.25 32.1 20.2 33.25 20.95 34.05 22.0 34.85 23.1 35.25 24.55 36.9 26.5 37.1 29.6 L37.15 29.75 Q37.25 31.35 36.95 33.0 36.65 34.6 35.95 36.2 L34.75 38.45 33.4 40.4 Q31.5 42.75 29.0 44.05 L27.9 44.55 27.6 44.65 Q24.85 45.7 22.55 45.15 L21.5 44.8 20.5 44.3 19.35 43.4 Q17.2 41.45 16.15 38.25 Z" fill="none" stroke="#000000" stroke-linecap="round" stroke-linejoin="round" stroke-opacity="0.3019608" stroke-width="0.30000000000000004"/>
    </g>
    <g id="sprite0" transform="matrix(1.0, 0.0, 0.0, 1.0, 73.5, 65.0)">
      <use height="136.85" transform="matrix(1.0, 0.0, 0.0, 1.0, -73.5, -65.0)" width="148.25" xlink:href="#shape1"/>
    </g>
    <g id="shape1" transform="matrix(1.0, 0.0, 0.0, 1.0, 73.5, 65.0)">
      <path d="M36.65 -54.65 Q60.05 -42.0 69.75 -17.95 80.55 8.9 68.0 34.1 55.45 59.35 26.8 68.2 -1.8 77.05 -29.7 64.3 -57.6 51.6 -68.45 24.75 -79.3 -2.05 -66.75 -27.25 L-66.7 -27.3 Q-54.1 -52.5 -25.5 -61.4 3.1 -70.2 31.0 -57.5 L36.65 -54.65" fill="url(#gradient0)" fill-rule="evenodd" stroke="none"/>
    </g>
    <radialGradient cx="0" cy="0" gradientTransform="matrix(0.0914, 0.0, 0.0, 0.0914, 0.6, 3.4)" gradientUnits="userSpaceOnUse" id="gradient0" r="819.2" spreadMethod="pad">
      <stop offset="0.0" stop-color="#ffffff"/>
      <stop offset="1.0" stop-color="#ffffff" stop-opacity="0.0"/>
    </radialGradient>
    <g id="shape2" transform="matrix(1.0, 0.0, 0.0, 1.0, -7.8, -3.4)">
      <path d="M17.2 42.25 L16.5 40.8 Q16.5 40.1 16.65 39.35 L17.8 41.05 19.25 42.1 19.0 43.55 Q18.1 43.55 17.2 42.25 M18.75 47.5 L18.75 46.9 18.8 46.9 18.8 46.95 18.75 47.5" fill="#d5d580" fill-rule="evenodd" stroke="none"/>
      <path d="M16.5 42.25 Q17.75 43.55 18.75 46.9 L18.75 47.5 Q17.25 46.7 16.7 44.0 L16.5 42.25" fill="#f0f0d2" fill-rule="evenodd" stroke="none"/>
      <path d="M18.75 46.9 L18.85 44.3 17.2 42.25 Q18.1 43.55 19.0 43.55 L19.25 42.1 19.5 42.4 19.25 43.3 Q18.9 44.65 18.8 46.9 L18.75 46.9" fill="#ffffff" fill-rule="evenodd" stroke="none"/>
      <path d="M16.5 40.8 L17.2 42.25 18.85 44.3 18.75 46.9 Q17.75 43.55 16.5 42.25 L16.5 40.8 M19.25 43.3 L19.5 42.4 Q19.9 43.0 19.9 43.4 L19.65 44.85 19.25 43.3" fill="#cac960" fill-rule="evenodd" stroke="none"/>
      <path d="M18.8 46.9 Q18.9 44.65 19.25 43.3 L19.65 44.85 18.75 47.5 18.8 46.95 18.8 46.9" fill="#a6a637" fill-rule="evenodd" stroke="none"/>
      <path d="M16.5 40.8 L16.5 42.25 16.7 44.0 Q17.25 46.7 18.75 47.5 L19.65 44.85 19.9 43.4 Q19.9 43.0 19.5 42.4 L19.25 42.1 17.8 41.05 16.65 39.35 Q16.5 40.1 16.5 40.8 Z" fill="none" stroke="#000000" stroke-linecap="round" stroke-linejoin="round" stroke-opacity="0.3019608" stroke-width="0.30000000000000004"/>
      <path d="M11.8 18.05 Q10.4 20.0 8.55 20.75 8.7 18.4 11.8 18.05 M10.45 20.95 L12.65 17.95 13.0 17.95 12.05 23.8 Q10.45 23.9 9.5 23.15 9.55 22.3 10.45 20.95" fill="#ffde4f" fill-rule="evenodd" stroke="none"/>
      <path d="M11.8 18.05 L12.65 17.95 10.45 20.95 9.1 22.75 8.65 21.9 8.55 21.3 8.55 20.75 Q10.4 20.0 11.8 18.05" fill="#cc6b22" fill-rule="evenodd" stroke="none"/>
      <path d="M8.65 21.9 L9.1 22.75 10.45 20.95 Q9.55 22.3 9.5 23.15 10.45 23.9 12.05 23.8 L9.55 23.55 Q8.85 23.05 8.65 21.9" fill="#ffff98" fill-rule="evenodd" stroke="none"/>
      <path d="M12.05 23.8 L12.7 25.15 11.25 24.9 9.55 23.55 12.05 23.8" fill="#a34100" fill-rule="evenodd" stroke="none"/>
      <path d="M12.65 17.95 L11.8 18.05 Q8.7 18.4 8.55 20.75 L8.55 21.3 8.65 21.9 Q8.85 23.05 9.55 23.55 L11.25 24.9 12.7 25.15 12.05 23.8 13.0 17.95 12.65 17.95 Z" fill="none" stroke="#000000" stroke-linecap="round" stroke-linejoin="round" stroke-opacity="0.3019608" stroke-width="0.30000000000000004"/>
      <path d="M42.95 13.4 Q43.45 15.1 43.55 17.1 L43.4 20.75 Q41.55 21.6 39.45 19.25 L39.55 16.4 Q39.4 13.8 38.6 11.7 40.65 10.6 42.95 13.4 M29.3 39.65 L27.65 40.3 Q20.7 42.6 15.55 39.05 L14.65 38.4 Q12.5 35.55 12.55 34.35 L14.8 36.45 15.2 36.7 Q17.7 38.3 20.65 38.4 22.95 38.45 25.5 37.55 L26.0 37.4 Q28.8 37.65 29.3 39.65" fill="#d5d580" fill-rule="evenodd" stroke="none"/>
      <path d="M37.45 5.95 L37.55 6.0 38.0 6.25 Q39.15 7.05 40.0 8.0 42.1 10.2 42.95 13.4 40.65 10.6 38.6 11.7 37.85 9.7 36.5 8.2 L34.65 6.55 34.0 6.15 Q32.6 5.3 31.1 4.95 33.55 4.55 37.45 5.95 M43.4 20.75 Q42.7 26.1 39.25 31.15 36.9 34.6 34.0 36.85 31.55 36.0 31.55 34.1 33.85 32.1 35.75 29.25 39.0 24.4 39.45 19.25 41.55 21.6 43.4 20.75 M14.65 38.4 L13.45 37.25 Q11.35 35.05 10.55 31.8 10.1 30.15 10.0 28.25 L10.0 27.45 Q10.35 31.6 12.55 34.35 12.5 35.55 14.65 38.4 M17.75 10.0 Q21.0 6.85 25.1 5.3 26.15 9.8 27.5 13.95 L28.4 16.4 Q30.95 23.85 34.4 30.15 30.6 35.2 25.25 37.0 L23.3 37.55 Q22.15 21.75 17.75 10.0" fill="#e6e4b3" fill-rule="evenodd" stroke="none"/>
      <path d="M31.1 4.95 Q32.6 5.3 34.0 6.15 L34.65 6.55 36.5 8.2 Q37.85 9.7 38.6 11.7 39.4 13.8 39.55 16.4 L39.45 19.25 Q39.0 24.4 35.75 29.25 33.85 32.1 31.55 34.1 29.0 36.25 26.0 37.4 L25.5 37.55 Q22.95 38.45 20.65 38.4 17.7 38.3 15.2 36.7 L14.8 36.45 12.55 34.35 Q10.35 31.6 10.0 27.45 10.35 29.6 11.1 31.35 12.3 34.15 14.8 35.95 L15.15 36.15 Q17.8 37.9 21.0 37.85 L23.3 37.55 25.25 37.0 Q30.6 35.2 34.4 30.15 30.95 23.85 28.4 16.4 31.55 24.65 35.55 28.5 39.3 22.55 39.0 16.25 38.75 11.15 36.05 8.1 L34.2 6.5 Q31.65 4.7 28.6 4.6 L31.1 4.95" fill="#ffffff" fill-rule="evenodd" stroke="none"/>
      <path d="M10.0 27.1 Q10.0 20.4 14.3 14.15 15.85 11.8 17.75 10.0 22.15 21.75 23.3 37.55 L21.0 37.85 Q17.8 37.9 15.15 36.15 L14.8 35.95 Q12.3 34.15 11.1 31.35 10.35 29.6 10.0 27.45 L10.0 27.1 M25.1 5.3 L25.9 5.05 26.85 4.75 27.15 4.65 27.2 4.65 27.45 4.6 27.45 4.65 28.45 4.6 28.6 4.6 Q31.65 4.7 34.2 6.5 L36.05 8.1 Q38.75 11.15 39.0 16.25 39.3 22.55 35.55 28.5 31.55 24.65 28.4 16.4 L27.5 13.95 Q26.15 9.8 25.1 5.3" fill="#f0f0d2" fill-rule="evenodd" stroke="none"/>
      <path d="M27.45 4.6 Q33.05 3.2 37.45 5.95 33.55 4.55 31.1 4.95 L28.6 4.6 28.45 4.6 27.45 4.65 27.45 4.6" fill="#f9f8ec" fill-rule="evenodd" stroke="none"/>
      <path d="M34.0 36.85 Q31.8 38.6 29.3 39.65 28.8 37.65 26.0 37.4 29.0 36.25 31.55 34.1 31.55 36.0 34.0 36.85" fill="#a6a637" fill-rule="evenodd" stroke="none"/>
      <path d="M37.45 5.95 L37.55 6.0 38.0 6.25 Q39.15 7.05 40.0 8.0 42.1 10.2 42.95 13.4 43.45 15.1 43.55 17.1 L43.4 20.75 Q42.7 26.1 39.25 31.15 36.9 34.6 34.0 36.85 31.8 38.6 29.3 39.65 L27.65 40.3 Q20.7 42.6 15.55 39.05 L14.65 38.4 13.45 37.25 Q11.35 35.05 10.55 31.8 10.1 30.15 10.0 28.25 L10.0 27.45 10.0 27.1 Q10.0 20.4 14.3 14.15 15.85 11.8 17.75 10.0 21.0 6.85 25.1 5.3 L25.9 5.05 26.85 4.75 27.15 4.65 27.2 4.65 27.45 4.6 Q33.05 3.2 37.45 5.95 Z" fill="none" stroke="#000000" stroke-linecap="round" stroke-linejoin="round" stroke-opacity="0.3019608" stroke-width="0.30000000000000004"/>
      <path d="M28.25 6.15 L30.45 6.2 30.75 6.3 30.75 8.25 28.8 18.2 27.3 17.55 29.25 18.5 32.6 20.7 Q34.35 22.6 35.05 24.5 L35.35 25.45 Q35.7 26.8 35.5 28.1 L35.0 29.85 34.8 30.25 34.55 30.75 Q33.3 32.25 32.1 32.75 L31.25 33.0 30.5 33.05 28.8 32.5 27.85 31.7 27.05 31.15 Q25.45 29.8 23.8 35.2 22.1 37.9 19.3 37.2 15.0 36.15 15.0 34.35 15.1 30.65 17.8 28.2 15.85 28.45 13.65 29.25 L13.05 29.5 13.0 29.5 12.8 29.5 Q12.05 29.75 11.25 28.8 L11.0 28.45 Q10.45 27.45 11.0 24.8 11.4 22.7 13.0 21.05 14.1 19.95 15.8 19.0 17.05 18.25 18.65 17.6 L19.2 17.4 20.55 17.05 20.5 16.75 Q20.35 15.65 20.7 14.65 L20.95 14.1 Q22.45 11.05 25.15 8.45 L27.7 6.3 28.25 6.15" fill="#000000" fill-opacity="0.3019608" fill-rule="evenodd" stroke="none"/>
      <path d="M11.15 23.8 Q11.6 22.05 12.75 20.75 L14.0 19.65 15.75 18.5 Q16.5 18.6 16.15 19.2 L15.45 19.5 Q13.7 20.5 12.75 21.9 L12.3 22.85 Q11.55 24.8 12.7 25.85 L12.75 25.9 14.1 26.1 15.65 25.85 17.8 25.05 18.45 24.95 Q22.4 24.45 24.85 26.5 L25.25 26.9 Q26.45 28.3 25.25 28.4 24.2 27.7 23.0 27.2 20.85 26.35 18.1 26.4 L16.5 26.5 13.85 27.15 13.3 27.1 12.3 27.1 Q11.65 27.1 11.35 26.7 11.05 26.25 11.15 23.8 M24.95 18.1 L25.15 17.9 25.2 17.8 Q25.7 17.15 24.85 16.6 L27.55 17.4 Q30.15 18.2 32.9 21.75 34.55 25.2 33.65 27.75 L32.9 29.25 Q31.95 29.3 32.05 28.3 L32.6 26.5 32.6 24.1 Q31.65 21.5 29.85 20.1 27.4 18.7 26.2 18.4 L25.55 18.2 25.2 18.15 24.95 18.1 M22.95 24.9 Q25.15 25.4 27.05 27.2 L29.05 28.8 29.7 29.1 29.1 29.0 Q27.9 28.55 26.2 26.95 24.7 25.5 22.95 24.9" fill="#ffde4f" fill-rule="evenodd" stroke="none"/>
      <path d="M31.1 31.45 L32.1 30.85 33.5 29.45 33.9 28.6 34.05 28.25 34.45 26.65 35.25 27.3 34.75 29.05 34.55 29.4 34.3 29.9 Q33.05 31.4 31.85 31.95 L31.1 31.45 M25.75 18.9 L25.45 18.85 Q22.75 18.25 20.0 18.9 18.65 19.25 17.3 19.9 L17.25 19.9 Q13.9 21.35 13.35 24.15 13.15 25.25 13.85 25.65 13.1 25.6 12.75 25.25 12.35 24.8 12.55 23.95 L12.75 23.1 Q13.6 20.9 16.45 19.65 L17.65 19.15 20.1 18.5 25.45 18.85 25.75 18.9" fill="#8f3600" fill-rule="evenodd" stroke="none"/>
      <path d="M25.25 26.9 L24.85 26.5 Q22.4 24.45 18.45 24.95 L17.8 25.05 15.65 25.85 14.1 26.1 12.75 25.9 12.7 25.85 Q11.55 24.8 12.3 22.85 L12.75 21.9 Q13.7 20.5 15.45 19.5 L16.15 19.2 Q16.5 18.6 15.75 18.5 L14.0 19.65 12.75 20.75 Q11.6 22.05 11.15 23.8 L10.95 24.9 Q10.8 28.2 12.05 27.75 L12.75 27.5 13.5 27.25 13.85 27.15 16.5 26.5 18.1 26.4 Q20.85 26.35 23.0 27.2 24.2 27.7 25.25 28.4 26.85 29.45 28.1 30.85 29.0 31.45 29.95 31.3 L31.05 30.9 Q30.9 29.65 30.15 29.55 L29.3 29.5 29.05 29.45 Q27.1 28.5 25.25 26.9 M24.85 16.6 L24.65 16.55 24.05 16.45 22.6 16.3 20.6 16.6 18.7 17.15 18.35 17.25 Q18.1 17.65 18.3 17.9 L18.95 18.25 20.25 18.0 21.1 17.85 Q22.6 17.55 23.6 17.85 L24.85 18.1 24.95 18.1 25.2 18.15 25.55 18.2 26.2 18.4 Q27.4 18.7 29.85 20.1 31.65 21.5 32.6 24.1 L32.6 26.5 32.05 28.3 Q31.95 29.3 32.9 29.25 L33.65 27.75 Q34.55 25.2 32.9 21.75 30.15 18.2 27.55 17.4 L24.85 16.6 M11.0 27.95 L10.75 27.65 Q10.2 26.65 10.75 23.95 11.15 21.9 12.75 20.25 13.9 19.1 15.55 18.15 16.8 17.4 18.45 16.8 L19.0 16.6 Q19.85 16.3 20.7 16.15 L23.6 15.95 24.45 16.05 Q26.75 16.35 29.05 17.65 30.3 18.4 31.55 19.45 33.5 21.6 34.15 23.65 34.65 25.15 34.45 26.65 L34.05 28.25 33.9 28.6 33.5 29.45 32.1 30.85 31.1 31.45 30.1 31.75 28.75 31.55 Q28.15 31.35 27.6 30.85 L24.8 28.55 24.55 28.4 Q23.0 27.35 19.8 26.95 L18.0 26.85 17.7 26.85 Q15.6 26.95 13.25 27.75 L12.8 27.9 12.75 27.9 12.0 28.2 11.65 28.2 11.0 27.95 M25.75 18.9 L25.45 18.85 20.1 18.5 17.65 19.15 16.45 19.65 Q13.6 20.9 12.75 23.1 L12.55 23.95 Q12.35 24.8 12.75 25.25 13.1 25.6 13.85 25.65 L14.3 25.65 17.05 25.1 17.2 25.05 18.55 24.7 19.05 24.6 22.95 24.9 Q24.7 25.5 26.2 26.95 27.9 28.55 29.1 29.0 L29.7 29.1 Q30.85 29.25 31.55 28.15 L32.2 26.05 Q32.4 24.05 31.1 22.15 L30.6 21.45 28.1 19.85 27.9 19.8 26.3 19.1 25.75 18.9" fill="#ffff98" fill-rule="evenodd" stroke="none"/>
      <path d="M11.0 27.95 L11.65 28.2 12.0 28.2 12.75 27.9 12.8 27.9 13.4 28.4 12.8 28.65 12.75 28.65 12.55 28.65 Q11.8 28.95 11.0 27.95 M17.7 26.85 L18.0 26.85 19.8 26.95 Q23.0 27.35 24.55 28.4 23.1 27.75 20.65 27.4 L18.45 27.3 17.7 26.85 M34.15 23.65 Q33.5 21.6 31.55 19.45 30.3 18.4 29.05 17.65 30.7 18.5 32.35 19.9 34.1 21.8 34.85 23.65 L35.15 24.6 34.15 23.65" fill="#cc6b22" fill-rule="evenodd" stroke="none"/>
      <path d="M25.25 26.9 Q27.1 28.5 29.05 29.45 L29.3 29.5 30.15 29.55 Q30.9 29.65 31.05 30.9 L29.95 31.3 Q29.0 31.45 28.1 30.85 26.85 29.45 25.25 28.4 26.45 28.3 25.25 26.9 M13.85 27.15 L13.5 27.25 12.75 27.5 12.05 27.75 Q10.8 28.2 10.95 24.9 L11.15 23.8 Q11.05 26.25 11.35 26.7 11.65 27.1 12.3 27.1 L13.3 27.1 13.85 27.15 M24.95 18.1 L24.85 18.1 23.6 17.85 Q22.6 17.55 21.1 17.85 L20.25 18.0 18.95 18.25 18.3 17.9 Q18.1 17.65 18.35 17.25 L18.7 17.15 20.6 16.6 22.6 16.3 24.05 16.45 24.65 16.55 24.85 16.6 Q25.7 17.15 25.2 17.8 L25.15 17.9 24.95 18.1" fill="#f4a33c" fill-rule="evenodd" stroke="none"/>
      <path d="M12.8 27.9 L13.25 27.75 Q15.6 26.95 17.7 26.85 L18.45 27.3 17.85 27.35 Q15.8 27.55 13.4 28.4 L12.8 27.9 M28.75 31.55 L30.1 31.75 31.1 31.45 31.85 31.95 31.0 32.2 30.3 32.2 Q29.5 32.1 28.75 31.55 M34.45 26.65 Q34.65 25.15 34.15 23.65 L35.15 24.6 Q35.45 25.95 35.25 27.3 L34.45 26.65" fill="#a34100" fill-rule="evenodd" stroke="none"/>
      <path d="M13.85 25.65 Q13.15 25.25 13.35 24.15 13.9 21.35 17.25 19.9 L17.3 19.9 Q18.65 19.25 20.0 18.9 22.75 18.25 25.45 18.85 L25.75 18.9 26.3 19.1 27.9 19.8 28.1 19.85 30.6 21.45 31.1 22.15 28.25 21.35 26.3 21.05 21.35 21.2 Q20.1 21.5 19.2 22.1 17.45 23.15 17.05 25.1 L14.3 25.65 13.85 25.65" fill="#560000" fill-rule="evenodd" stroke="none"/>
      <path d="M17.05 25.1 Q17.45 23.15 19.2 22.1 20.1 21.5 21.35 21.2 L26.3 21.05 28.25 21.35 31.1 22.15 Q32.4 24.05 32.2 26.05 L31.55 28.15 Q30.85 29.25 29.7 29.1 L29.05 28.8 27.05 27.2 Q25.15 25.4 22.95 24.9 L19.05 24.6 18.55 24.7 17.2 25.05 17.05 25.1" fill="#430101" fill-rule="evenodd" stroke="none"/>
      <path d="M29.05 17.65 Q26.75 16.35 24.45 16.05 L23.6 15.95 20.7 16.15 Q19.85 16.3 19.0 16.6 L18.45 16.8 Q16.8 17.4 15.55 18.15 13.9 19.1 12.75 20.25 11.15 21.9 10.75 23.95 10.2 26.65 10.75 27.65 L11.0 27.95 Q11.8 28.95 12.55 28.65 L12.75 28.65 12.8 28.65 13.4 28.4 Q15.8 27.55 17.85 27.35 L18.45 27.3 20.65 27.4 Q23.1 27.75 24.55 28.4 L24.8 28.55 27.6 30.85 Q28.15 31.35 28.75 31.55 29.5 32.1 30.3 32.2 L31.0 32.2 31.85 31.95 Q33.05 31.4 34.3 29.9 L34.55 29.4 34.75 29.05 35.25 27.3 Q35.45 25.95 35.15 24.6 L34.85 23.65 Q34.1 21.8 32.35 19.9 30.7 18.5 29.05 17.65 M13.85 25.65 Q13.15 25.25 13.35 24.15 13.9 21.35 17.25 19.9 L17.3 19.9 Q18.65 19.25 20.0 18.9 22.75 18.25 25.45 18.85 L25.75 18.9 26.3 19.1 27.9 19.8 28.1 19.85 30.6 21.45 31.1 22.15 Q32.4 24.05 32.2 26.05 L31.55 28.15 Q30.85 29.25 29.7 29.1 L29.05 28.8 27.05 27.2 Q25.15 25.4 22.95 24.9 L19.05 24.6 18.55 24.7 17.2 25.05 17.05 25.1 14.3 25.65 13.85 25.65" fill="none" stroke="#000000" stroke-linecap="round" stroke-linejoin="round" stroke-opacity="0.3019608" stroke-width="0.30000000000000004"/>
      <path d="M17.15 21.75 Q18.2 21.55 18.85 21.75 19.5 21.95 19.6 22.6 L19.55 22.7 Q19.0 23.35 19.4 24.25 L19.45 24.2 19.45 24.25 19.4 24.25 19.6 24.15 20.35 23.75 Q21.25 23.25 22.15 23.05 L22.7 22.95 23.1 22.9 Q25.75 22.8 24.25 24.05 L23.9 24.35 Q22.95 25.05 22.1 25.95 L20.95 27.2 19.85 28.55 Q16.65 32.35 14.3 31.55 13.2 31.1 13.75 29.4 L14.85 25.4 15.25 24.1 Q15.65 22.65 16.6 22.05 16.85 21.85 17.15 21.75 M20.8 24.1 L20.7 24.15 20.25 24.75 Q20.2 25.1 20.5 25.25 L21.3 25.2 21.45 25.15 22.25 24.7 22.75 24.05 Q22.85 23.7 22.55 23.6 L22.4 23.55 22.3 23.5 22.25 23.5 21.75 23.6 20.8 24.1 M18.2 23.9 L18.4 23.4 Q18.5 22.85 18.2 22.55 L17.35 22.35 17.0 22.45 16.35 22.9 Q15.9 23.4 15.8 23.9 15.65 24.45 16.0 24.75 16.3 25.05 16.8 24.95 L17.85 24.4 18.2 23.9" fill="#ffde4f" fill-rule="evenodd" stroke="none"/>
      <path d="M19.8 35.75 L19.35 35.9 Q17.75 36.3 15.65 35.5 12.65 34.5 12.5 32.4 13.25 34.05 14.8 34.6 17.6 35.75 19.35 34.95 L19.8 35.15 Q20.0 35.35 19.8 35.75 M21.95 30.25 L22.55 29.1 23.4 27.65 23.8 27.0 23.75 27.6 23.7 28.0 Q23.65 28.55 23.75 28.85 L24.15 29.3 23.55 30.3 22.65 32.1 22.5 30.85 Q22.35 30.2 21.95 30.25 M27.55 26.7 L27.9 28.0 25.9 27.0 26.0 26.9 Q26.65 26.3 27.55 26.7" fill="#a34100" fill-rule="evenodd" stroke="none"/>
      <path d="M19.6 22.6 L20.1 22.2 19.4 21.6 21.2 22.3 Q20.35 22.2 19.85 23.1 L19.45 24.2 19.4 24.25 Q19.0 23.35 19.55 22.7 L19.6 22.6 M14.85 25.4 L13.75 29.4 Q13.2 31.1 14.3 31.55 16.65 32.35 19.85 28.55 L18.55 30.35 Q16.15 33.7 13.95 32.05 L13.2 31.2 Q12.8 30.75 13.55 28.7 L14.85 25.4 M18.2 23.9 L17.85 24.4 16.8 24.95 Q16.3 25.05 16.0 24.75 15.65 24.45 15.8 23.9 15.9 23.4 16.35 22.9 L17.0 22.45 17.35 22.35 18.2 22.55 Q18.5 22.85 18.4 23.4 L18.2 23.9 M20.8 24.1 L21.75 23.6 22.25 23.5 22.3 23.5 22.4 23.55 22.55 23.6 Q22.85 23.7 22.75 24.05 L22.25 24.7 21.45 25.15 21.3 25.2 20.5 25.25 Q20.2 25.1 20.25 24.75 L20.7 24.15 20.8 24.1 M12.5 32.4 Q12.45 31.85 12.55 31.25 12.8 33.6 15.85 34.3 19.0 35.1 19.9 33.3 20.85 30.8 22.1 28.6 L23.0 27.1 24.45 25.0 24.5 25.0 Q25.35 23.85 25.7 23.9 26.85 23.6 25.85 23.2 L26.5 23.45 Q27.65 24.45 28.05 25.55 27.3 24.5 26.45 24.5 25.85 24.5 25.2 25.0 L24.85 25.5 23.8 27.0 23.4 27.65 22.55 29.1 21.95 30.25 20.3 33.85 20.2 34.05 20.2 34.55 Q20.25 35.2 20.7 35.25 L19.8 35.75 Q20.0 35.35 19.8 35.15 L19.35 34.95 Q17.6 35.75 14.8 34.6 13.25 34.05 12.5 32.4" fill="#ffff98" fill-rule="evenodd" stroke="none"/>
      <path d="M19.6 22.6 Q19.5 21.95 18.85 21.75 18.2 21.55 17.15 21.75 L18.65 21.5 19.4 21.6 20.1 22.2 19.6 22.6 M19.85 28.55 L20.95 27.2 22.1 25.95 Q22.95 25.05 23.9 24.35 L24.25 24.05 Q25.75 22.8 23.1 22.9 L25.85 23.2 Q26.85 23.6 25.7 23.9 25.35 23.85 24.5 25.0 L24.45 25.0 23.0 27.1 22.1 28.6 Q20.85 30.8 19.9 33.3 19.0 35.1 15.85 34.3 12.8 33.6 12.55 31.25 L12.95 30.1 12.95 30.05 13.55 28.7 Q12.8 30.75 13.2 31.2 L13.95 32.05 Q16.15 33.7 18.55 30.35 L19.85 28.55" fill="#f4a33c" fill-rule="evenodd" stroke="none"/>
      <path d="M22.15 23.05 Q21.25 23.25 20.35 23.75 L19.6 24.15 19.4 24.25 19.45 24.25 19.45 24.2 19.85 23.1 Q20.35 22.2 21.2 22.3 21.75 22.6 22.15 23.05 M20.7 35.25 Q20.25 35.2 20.2 34.55 L20.2 34.05 20.3 33.85 21.95 30.25 Q22.35 30.2 22.5 30.85 L22.65 32.1 21.9 33.9 20.7 35.25 M23.8 27.0 L24.85 25.5 25.2 25.0 Q25.85 24.5 26.45 24.5 27.3 24.5 28.05 25.55 28.35 26.4 28.25 27.35 L28.1 28.15 27.9 28.0 27.55 26.7 Q26.65 26.3 26.0 26.9 L25.9 27.0 25.45 27.5 24.4 28.9 24.15 29.3 23.75 28.85 Q23.65 28.55 23.7 28.0 L23.75 27.6 23.8 27.0" fill="#cc6b22" fill-rule="evenodd" stroke="none"/>
      <path d="M19.4 21.6 L18.65 21.5 17.15 21.75 Q16.85 21.85 16.6 22.05 15.65 22.65 15.25 24.1 L14.85 25.4 13.55 28.7 12.95 30.05 12.95 30.1 12.55 31.25 Q12.45 31.85 12.5 32.4 12.65 34.5 15.65 35.5 17.75 36.3 19.35 35.9 L19.8 35.75 20.7 35.25 21.9 33.9 22.65 32.1 23.55 30.3 24.15 29.3 24.4 28.9 25.45 27.5 25.9 27.0 26.0 26.9 Q26.65 26.3 27.55 26.7 M23.1 22.9 L22.7 22.95 22.15 23.05 Q21.25 23.25 20.35 23.75 L19.6 24.15 19.4 24.25 19.45 24.25 19.45 24.2 M21.2 22.3 L19.4 21.6 M28.05 25.55 Q27.65 24.45 26.5 23.45 L25.85 23.2 23.1 22.9 M27.9 28.0 L28.1 28.15 28.25 27.35 Q28.35 26.4 28.05 25.55 M21.2 22.3 Q21.75 22.6 22.15 23.05 M27.9 28.0 L25.9 27.0" fill="none" stroke="#000000" stroke-linecap="round" stroke-linejoin="round" stroke-opacity="0.3019608" stroke-width="0.30000000000000004"/>
      <path d="M21.3 17.75 L20.7 17.45 20.25 15.95 Q20.1 14.85 20.45 13.8 20.4 14.4 20.65 14.9 L20.65 15.9 Q20.75 16.9 21.3 17.75 M27.9 7.55 Q28.35 8.1 28.2 9.7 L27.25 11.8 Q26.05 15.1 22.95 15.25 L22.7 15.2 Q21.45 15.1 21.0 14.4 21.1 12.45 24.5 8.8 L24.6 8.75 Q26.95 7.2 27.9 7.55 M23.75 11.2 L23.0 11.3 Q22.5 11.6 22.15 12.2 L22.1 12.3 Q21.75 12.85 21.8 13.4 21.85 14.0 22.25 14.25 L22.45 14.3 22.95 14.3 23.15 14.2 24.05 13.3 24.1 13.15 24.35 12.1 Q24.35 11.5 23.95 11.25 L23.85 11.2 23.75 11.2" fill="#ffde4f" fill-rule="evenodd" stroke="none"/>
      <path d="M20.45 13.8 L20.7 13.3 Q22.25 10.2 24.9 7.65 L27.45 5.5 28.0 5.3 25.45 7.8 Q27.25 6.8 27.9 7.55 26.95 7.2 24.6 8.75 L24.5 8.8 Q21.1 12.45 21.0 14.4 21.45 15.1 22.7 15.2 L22.95 15.25 Q26.05 15.1 27.25 11.8 L28.2 9.7 30.2 5.35 30.5 5.5 29.4 8.35 27.55 12.35 27.55 12.4 Q27.2 13.15 27.1 14.25 L27.05 15.15 27.1 16.4 26.8 15.15 26.75 14.55 26.8 13.75 26.2 14.85 25.3 15.35 24.9 15.5 22.5 15.85 22.25 15.8 21.85 15.75 21.2 15.5 20.65 14.9 Q20.4 14.4 20.45 13.8 M23.75 11.2 L23.85 11.2 23.95 11.25 Q24.35 11.5 24.35 12.1 L24.1 13.15 24.05 13.3 23.15 14.2 22.95 14.3 22.45 14.3 22.25 14.25 Q21.85 14.0 21.8 13.4 21.75 12.85 22.1 12.3 L22.15 12.2 Q22.5 11.6 23.0 11.3 L23.75 11.2" fill="#ffff98" fill-rule="evenodd" stroke="none"/>
      <path d="M28.0 5.3 L30.2 5.35 28.2 9.7 Q28.35 8.1 27.9 7.55 27.25 6.8 25.45 7.8 L28.0 5.3 M27.5 16.85 L27.1 16.7 26.2 17.6 Q26.15 16.35 25.55 15.8 L24.9 15.5 25.3 15.35 26.2 14.85 26.8 13.75 26.75 14.55 26.8 15.15 27.1 16.4 27.5 16.85" fill="#f4a33c" fill-rule="evenodd" stroke="none"/>
      <path d="M30.5 5.5 L30.7 6.6 29.95 10.55 29.75 9.0 29.4 8.35 30.5 5.5 M26.2 17.6 L25.75 17.9 23.05 18.15 Q23.2 16.9 22.45 16.05 L22.25 15.8 22.5 15.85 24.9 15.5 25.55 15.8 Q26.15 16.35 26.2 17.6" fill="#cc6b22" fill-rule="evenodd" stroke="none"/>
      <path d="M29.95 10.55 L28.55 17.35 27.5 16.85 27.1 16.4 27.05 15.15 27.1 14.25 Q27.2 13.15 27.55 12.4 L27.55 12.35 29.4 8.35 29.75 9.0 29.95 10.55 M23.05 18.15 L21.3 17.75 Q20.75 16.9 20.65 15.9 L20.65 14.9 21.2 15.5 21.85 15.75 22.25 15.8 22.45 16.05 Q23.2 16.9 23.05 18.15" fill="#a34100" fill-rule="evenodd" stroke="none"/>
      <path d="M20.45 13.8 L20.7 13.3 Q22.25 10.2 24.9 7.65 L27.45 5.5 28.0 5.3 30.2 5.35 30.5 5.5 30.7 6.6 29.95 10.55 28.55 17.35 27.5 16.85 27.1 16.7 26.2 17.6 25.75 17.9 23.05 18.15 21.3 17.75 20.7 17.45 20.25 15.95 Q20.1 14.85 20.45 13.8 Z" fill="none" stroke="#000000" stroke-linecap="round" stroke-linejoin="round" stroke-opacity="0.3019608" stroke-width="0.30000000000000004"/>
      <path d="M19.05 9.85 L19.1 9.9 19.2 9.9 19.5 10.1 19.45 10.1 19.5 10.1 19.75 10.2 Q20.3 10.45 20.45 11.05 L20.5 11.6 20.5 11.9 20.5 12.05 20.5 12.35 19.85 14.0 19.6 14.4 18.85 15.4 18.75 15.55 18.65 15.6 17.6 16.35 16.85 16.65 16.8 16.65 16.8 16.7 15.6 16.55 15.35 16.4 15.05 16.25 14.7 16.0 14.7 15.95 Q14.25 15.5 14.25 14.6 L14.4 13.85 Q14.6 13.0 15.15 12.05 L15.5 11.6 16.35 10.7 17.2 10.1 17.5 10.0 Q17.9 9.8 18.25 9.75 L18.5 9.75 19.05 9.85 M16.75 12.8 L16.7 12.9 16.65 13.05 16.4 13.55 16.3 14.05 16.3 14.15 16.4 14.55 16.45 14.7 16.65 14.65 16.75 14.65 17.15 14.5 17.35 14.35 17.4 14.3 17.7 14.1 18.1 13.55 18.35 13.1 18.55 12.25 18.4 11.65 18.05 11.7 17.75 11.85 17.45 12.0 16.75 12.8" fill="#000000" fill-opacity="0.2" fill-rule="evenodd" stroke="none"/>
      <path d="M14.2 13.35 Q14.4 12.45 15.0 11.55 L15.3 11.05 16.2 10.2 16.2 10.45 16.3 11.6 16.05 11.9 16.0 12.0 Q15.6 12.65 15.55 13.25 L15.7 13.75 15.95 14.05 16.0 14.05 16.3 14.15 16.45 14.15 16.55 14.1 16.95 13.95 16.9 15.05 16.6 15.2 15.55 15.55 15.35 15.55 15.3 15.55 14.7 15.15 Q14.2 14.6 14.2 13.35 M17.0 9.6 L17.3 9.45 18.1 9.25 18.3 9.3 18.75 9.5 Q19.25 9.85 19.55 10.45 L19.55 10.75 19.05 12.55 18.65 13.3 18.55 13.4 18.2 12.55 18.4 11.75 18.25 11.15 18.0 10.9 17.9 10.9 17.8 10.85 17.75 10.85 17.35 10.9 17.0 9.6 M19.3 9.55 L19.3 9.6 19.3 9.55" fill="#ffde4f" fill-rule="evenodd" stroke="none"/>
      <path d="M19.3 9.6 L19.75 10.45 19.75 11.05 19.65 12.1 19.35 12.9 19.2 13.1 18.9 13.6 18.25 14.4 17.85 14.85 17.45 15.15 16.85 15.55 16.8 15.55 16.0 15.85 15.45 15.9 15.2 15.85 14.85 15.75 14.55 15.45 14.5 15.45 Q14.1 14.95 14.1 14.05 L14.2 13.35 Q14.2 14.6 14.7 15.15 L15.3 15.55 15.35 15.55 15.55 15.55 16.6 15.2 16.9 15.05 16.95 13.95 17.15 13.85 17.4 14.7 18.0 14.1 18.55 13.4 18.65 13.3 19.05 12.55 19.55 10.75 19.55 10.45 Q19.25 9.85 18.75 9.5 L18.3 9.3 18.1 9.25 18.3 9.2 18.85 9.3 19.0 9.35 19.0 9.4 19.3 9.55 19.3 9.6 M17.8 10.85 L17.75 10.85 17.3 11.0 16.75 11.45 16.3 12.0 16.25 12.1 Q15.9 12.65 15.85 13.25 L15.85 13.5 16.05 13.9 16.2 14.05 16.3 14.15 16.0 14.05 15.95 14.05 15.7 13.75 15.55 13.25 Q15.6 12.65 16.0 12.0 L16.05 11.9 16.3 11.6 16.2 10.45 16.5 11.4 16.85 11.15 17.05 11.0 17.35 10.9 17.75 10.85 17.8 10.85" fill="#ffff98" fill-rule="evenodd" stroke="none"/>
      <path d="M19.3 9.6 L19.6 9.65 Q20.1 9.95 20.25 10.55 L20.35 11.1 19.75 10.45 19.3 9.6 M18.45 15.05 L17.4 15.85 16.65 16.1 16.65 16.15 16.6 16.15 16.0 15.85 16.8 15.55 16.85 15.55 17.45 15.15 17.85 14.85 18.45 15.05 M16.2 10.2 Q16.55 9.85 17.0 9.6 L17.35 10.9 17.05 11.0 16.85 11.15 16.5 11.4 16.2 10.45 16.2 10.2 M17.15 13.85 L17.2 13.8 17.55 13.55 17.95 13.0 18.2 12.55 18.55 13.4 18.0 14.1 17.4 14.7 17.15 13.85" fill="#cc6b22" fill-rule="evenodd" stroke="none"/>
      <path d="M19.75 10.45 L20.35 11.1 20.35 11.35 20.3 11.5 20.3 11.8 Q20.2 12.6 19.7 13.5 L19.4 12.95 19.35 12.9 19.65 12.1 19.75 11.05 19.75 10.45" fill="#f4a33c" fill-rule="evenodd" stroke="none"/>
      <path d="M19.7 13.5 L19.45 13.9 18.65 14.85 18.55 15.0 18.45 15.05 17.85 14.85 18.25 14.4 18.9 13.6 19.2 13.1 19.35 12.9 19.4 12.95 19.7 13.5 M16.6 16.15 L15.45 16.0 15.2 15.85 15.45 15.9 16.0 15.85 16.6 16.15 M18.25 11.15 L17.85 11.2 17.55 11.3 Q17.45 11.4 17.3 11.45 L16.6 12.25 16.5 12.4 16.45 12.5 16.2 13.0 16.15 13.5 16.1 13.6 16.2 14.05 16.05 13.9 15.85 13.5 15.85 13.25 Q15.9 12.65 16.25 12.1 L16.3 12.0 16.75 11.45 17.3 11.0 17.75 10.85 17.8 10.85 17.9 10.9 18.0 10.9 18.25 11.15" fill="#a34100" fill-rule="evenodd" stroke="none"/>
      <path d="M20.35 11.1 L20.25 10.55 Q20.1 9.95 19.6 9.65 L19.3 9.6 19.3 9.55 19.0 9.4 19.0 9.35 18.85 9.3 18.3 9.2 18.1 9.25 17.3 9.45 17.0 9.6 Q16.55 9.85 16.2 10.2 L15.3 11.05 15.0 11.55 Q14.4 12.45 14.2 13.35 L14.1 14.05 Q14.1 14.95 14.5 15.45 L14.55 15.45 14.85 15.75 15.2 15.85 15.45 16.0 16.6 16.15 16.65 16.15 16.65 16.1 17.4 15.85 18.45 15.05 18.55 15.0 18.65 14.85 19.45 13.9 19.7 13.5 Q20.2 12.6 20.3 11.8 L20.3 11.5 20.35 11.35 20.35 11.1 M16.2 14.05 L16.1 13.6 16.15 13.5 16.2 13.0 16.45 12.5 16.5 12.4 16.6 12.25 17.3 11.45 Q17.45 11.4 17.55 11.3 L17.85 11.2 18.25 11.15 18.4 11.75 18.2 12.55 17.95 13.0 17.55 13.55 17.2 13.8 17.15 13.85 16.95 13.95 16.55 14.1 M16.2 14.05 L16.3 14.15 16.45 14.15" fill="none" stroke="#000000" stroke-linecap="round" stroke-linejoin="round" stroke-opacity="0.3019608" stroke-width="0.30000000000000004"/>
      <path d="M35.6 11.1 L35.7 11.15 35.8 11.2 36.1 11.4 36.15 11.4 36.2 11.4 36.45 11.5 37.45 12.45 37.7 13.0 37.75 13.3 37.8 13.5 37.85 13.8 37.6 15.6 37.4 16.05 36.85 17.1 36.75 17.25 36.7 17.3 35.7 18.15 35.0 18.45 34.95 18.45 34.95 18.5 33.6 18.35 33.25 18.15 32.9 18.05 32.45 17.75 32.4 17.7 Q31.85 17.2 31.6 16.25 L31.55 15.45 Q31.55 14.5 31.95 13.5 L32.2 13.0 32.85 12.05 33.7 11.4 33.95 11.25 34.75 11.0 35.0 11.0 35.6 11.1 M33.85 14.3 L33.85 14.45 33.8 14.55 33.65 15.1 33.7 15.65 33.7 15.75 33.95 16.2 34.05 16.35 34.25 16.3 34.3 16.3 34.7 16.15 34.95 16.0 35.0 15.95 35.25 15.7 35.55 15.1 35.7 14.65 35.7 13.75 35.4 13.05 35.0 13.15 34.7 13.25 34.45 13.45 33.85 14.3" fill="#000000" fill-opacity="0.2" fill-rule="evenodd" stroke="none"/>
      <path d="M35.8 10.8 L35.8 10.85 35.85 10.85 35.8 10.8 M33.35 10.85 L33.6 10.7 34.4 10.45 34.65 10.55 35.15 10.75 36.3 11.8 36.4 12.1 36.35 14.0 36.1 14.8 36.0 14.95 35.4 14.05 35.4 13.2 35.1 12.5 34.75 12.3 34.65 12.25 34.5 12.2 34.45 12.2 34.05 12.25 33.35 10.85 M32.7 11.8 L33.05 13.05 32.9 13.35 32.85 13.45 Q32.55 14.15 32.7 14.8 L32.95 15.35 33.35 15.65 33.7 15.75 33.9 15.75 34.0 15.75 34.4 15.55 34.6 16.75 34.35 16.9 33.3 17.25 33.05 17.25 Q32.6 17.15 32.25 16.85 31.5 16.25 31.25 14.9 31.2 13.95 31.65 12.95 L31.9 12.45 Q32.15 11.9 32.55 11.5 L32.7 11.8" fill="#ffde4f" fill-rule="evenodd" stroke="none"/>
      <path d="M35.85 10.85 Q36.3 11.2 36.55 11.8 L36.75 12.45 36.85 13.55 36.7 14.4 36.65 14.65 36.45 15.2 35.95 16.05 35.65 16.5 35.25 16.85 34.7 17.25 34.65 17.3 33.85 17.6 33.25 17.65 32.95 17.6 32.6 17.45 32.1 17.15 Q31.5 16.65 31.3 15.7 L31.25 14.9 Q31.5 16.25 32.25 16.85 32.6 17.15 33.05 17.25 L33.3 17.25 34.35 16.9 34.6 16.75 34.4 15.55 34.6 15.4 35.1 16.35 35.6 15.75 36.0 14.95 36.1 14.8 36.35 14.0 36.4 12.1 36.3 11.8 35.15 10.75 34.65 10.55 34.4 10.45 34.65 10.45 35.25 10.55 35.4 10.6 35.45 10.6 35.8 10.8 35.85 10.85 M34.05 12.25 L34.45 12.2 34.5 12.2 34.45 12.2 34.0 12.4 33.5 12.85 33.15 13.45 33.1 13.55 Q32.9 14.15 33.0 14.8 L33.1 15.1 33.4 15.5 33.6 15.65 33.7 15.75 33.35 15.65 32.95 15.35 32.7 14.8 Q32.55 14.15 32.85 13.45 L32.9 13.35 33.05 13.05 32.7 11.8 33.25 12.8 33.55 12.5 33.7 12.4 34.05 12.25" fill="#ffff98" fill-rule="evenodd" stroke="none"/>
      <path d="M36.55 11.8 Q36.3 11.2 35.85 10.85 L36.15 10.95 Q36.8 11.25 37.1 11.85 L37.35 12.45 36.55 11.8 M34.05 12.25 L33.7 12.4 33.55 12.5 33.25 12.8 32.7 11.8 32.55 11.5 33.35 10.85 34.05 12.25 M35.4 14.05 L36.0 14.95 35.6 15.75 35.1 16.35 34.6 15.4 34.65 15.35 34.9 15.1 35.25 14.55 35.4 14.05 M33.85 17.6 L34.65 17.3 34.7 17.25 35.25 16.85 35.65 16.5 36.35 16.75 35.4 17.6 34.65 17.9 34.6 17.9 34.6 17.95 33.85 17.6" fill="#cc6b22" fill-rule="evenodd" stroke="none"/>
      <path d="M36.55 11.8 L37.35 12.45 37.45 12.75 37.45 12.9 37.5 13.25 37.25 15.05 36.75 14.45 36.7 14.4 36.85 13.55 36.75 12.45 36.55 11.8" fill="#f4a33c" fill-rule="evenodd" stroke="none"/>
      <path d="M33.6 15.65 L33.4 15.5 33.1 15.1 33.0 14.8 Q32.9 14.15 33.1 13.55 L33.15 13.45 33.5 12.85 34.0 12.4 34.45 12.2 34.5 12.2 34.65 12.25 34.75 12.3 35.1 12.5 34.65 12.6 34.4 12.7 34.15 12.9 33.55 13.75 33.5 13.85 33.45 14.0 33.35 14.55 33.35 15.1 33.4 15.2 33.6 15.65 M32.95 17.6 L33.25 17.65 33.85 17.6 34.6 17.95 33.25 17.8 32.95 17.6 M35.65 16.5 L35.95 16.05 36.45 15.2 36.65 14.65 36.7 14.4 36.75 14.45 37.25 15.05 37.1 15.5 36.5 16.55 36.4 16.7 36.35 16.75 35.65 16.5" fill="#a34100" fill-rule="evenodd" stroke="none"/>
      <path d="M37.35 12.45 L37.1 11.85 Q36.8 11.25 36.15 10.95 L35.85 10.85 35.8 10.85 35.8 10.8 35.45 10.6 35.4 10.6 35.25 10.55 34.65 10.45 34.4 10.45 33.6 10.7 33.35 10.85 32.55 11.5 Q32.15 11.9 31.9 12.45 L31.65 12.95 Q31.2 13.95 31.25 14.9 L31.3 15.7 Q31.5 16.65 32.1 17.15 L32.6 17.45 32.95 17.6 33.25 17.8 34.6 17.95 34.6 17.9 34.65 17.9 35.4 17.6 36.35 16.75 36.4 16.7 36.5 16.55 37.1 15.5 37.25 15.05 37.5 13.25 37.45 12.9 37.45 12.75 37.35 12.45 M33.7 15.75 L33.6 15.65 33.4 15.2 33.35 15.1 33.35 14.55 33.45 14.0 33.5 13.85 33.55 13.75 34.15 12.9 34.4 12.7 34.65 12.6 35.1 12.5 35.4 13.2 35.4 14.05 35.25 14.55 34.9 15.1 34.65 15.35 34.6 15.4 34.4 15.55 34.0 15.75 M33.9 15.75 L33.7 15.75" fill="none" stroke="#000000" stroke-linecap="round" stroke-linejoin="round" stroke-opacity="0.3019608" stroke-width="0.30000000000000004"/>
      <path d="M36.7 29.25 L38.0 27.2 38.65 29.65 Q37.8 29.65 36.7 29.25 M39.1 24.6 L39.25 24.05 39.55 24.1 Q40.85 24.75 41.3 25.5 41.95 26.65 41.35 28.05 L40.55 27.7 39.55 26.45 39.1 24.6" fill="#ffde4f" fill-rule="evenodd" stroke="none"/>
      <path d="M39.55 24.1 L40.4 24.45 Q41.8 25.05 42.4 25.6 L42.7 25.95 43.2 26.8 42.7 26.15 Q42.35 25.85 42.0 25.85 42.35 26.65 42.05 27.65 L41.85 28.2 40.8 29.65 39.65 30.15 38.35 30.1 37.65 29.95 36.55 29.45 36.7 29.25 Q37.8 29.65 38.65 29.65 39.85 29.7 40.7 28.95 L40.9 28.8 40.65 28.5 39.55 26.45 40.55 27.7 41.35 28.05 Q41.95 26.65 41.3 25.5 40.85 24.75 39.55 24.1" fill="#ffff98" fill-rule="evenodd" stroke="none"/>
      <path d="M43.2 26.8 L43.45 27.75 43.35 29.1 Q42.95 28.0 42.4 27.75 L42.05 27.65 Q42.35 26.65 42.0 25.85 42.35 25.85 42.7 26.15 L43.2 26.8 M40.85 31.1 L39.95 31.05 38.35 30.1 39.65 30.15 39.9 30.2 Q40.9 30.45 40.85 31.1" fill="#f4a33c" fill-rule="evenodd" stroke="none"/>
      <path d="M43.35 29.1 L43.25 29.4 Q42.9 30.2 42.15 30.7 L41.9 30.7 Q41.05 30.7 40.85 30.15 L40.8 30.0 40.8 29.65 41.85 28.2 42.05 27.65 42.4 27.75 Q42.95 28.0 43.35 29.1 M38.0 27.2 L39.1 24.6 39.55 26.45 40.65 28.5 40.9 28.8 40.7 28.95 Q39.85 29.7 38.65 29.65 L38.0 27.2" fill="#cc6b22" fill-rule="evenodd" stroke="none"/>
      <path d="M42.15 30.7 L41.0 31.1 40.85 31.1 Q40.9 30.45 39.9 30.2 L39.65 30.15 40.8 29.65 40.8 30.0 40.85 30.15 Q41.05 30.7 41.9 30.7 L42.15 30.7 M39.95 31.05 L38.4 30.6 37.5 30.1 36.55 29.45 37.65 29.95 38.35 30.1 39.95 31.05" fill="#a34100" fill-rule="evenodd" stroke="none"/>
      <path d="M39.55 24.1 L40.4 24.45 Q41.8 25.05 42.4 25.6 L42.7 25.95 43.2 26.8 43.45 27.75 43.35 29.1 43.25 29.4 Q42.9 30.2 42.15 30.7 L41.0 31.1 40.85 31.1 39.95 31.05 38.4 30.6 37.5 30.1 36.55 29.45 36.7 29.25 38.0 27.2 39.1 24.6 39.25 24.05 39.55 24.1 Z" fill="none" stroke="#000000" stroke-linecap="round" stroke-linejoin="round" stroke-opacity="0.3019608" stroke-width="0.30000000000000004"/>
      <path d="M29.35 41.35 L28.4 43.75 27.4 42.55 29.35 41.35" fill="#d5d580" fill-rule="evenodd" stroke="none"/>
      <path d="M28.4 43.75 L29.35 41.35 30.0 40.85 29.4 42.4 28.35 44.75 28.95 45.85 28.15 45.05 27.8 45.75 Q26.7 47.5 25.6 48.1 L27.25 45.85 28.4 43.75" fill="#ffffff" fill-rule="evenodd" stroke="none"/>
      <path d="M28.4 43.75 L27.25 45.85 Q27.1 44.7 26.35 44.6 L26.7 42.85 27.4 42.55 28.4 43.75 M27.8 45.75 L28.15 45.05 28.95 45.85 29.2 46.1 29.05 46.25 28.8 46.55 27.8 45.75 M29.4 42.4 L30.0 40.85 Q30.55 40.95 30.85 41.25 31.15 41.65 31.05 42.35 L30.5 44.0 Q29.15 44.2 29.4 42.4" fill="#cac960" fill-rule="evenodd" stroke="none"/>
      <path d="M25.6 48.1 Q26.7 47.5 27.8 45.75 L28.8 46.55 27.75 47.4 Q26.7 48.1 25.6 48.1 M28.95 45.85 L28.35 44.75 29.4 42.4 Q29.15 44.2 30.5 44.0 30.05 45.15 29.2 46.1 L28.95 45.85" fill="#a6a637" fill-rule="evenodd" stroke="none"/>
      <path d="M27.25 45.85 L25.6 48.1 26.35 44.6 Q27.1 44.7 27.25 45.85" fill="#f0f0d2" fill-rule="evenodd" stroke="none"/>
      <path d="M30.0 40.85 L29.35 41.35 27.4 42.55 26.7 42.85 26.35 44.6 25.6 48.1 Q26.7 48.1 27.75 47.4 L28.8 46.55 29.05 46.25 29.2 46.1 Q30.05 45.15 30.5 44.0 L31.05 42.35 Q31.15 41.65 30.85 41.25 30.55 40.95 30.0 40.85 Z" fill="none" stroke="#000000" stroke-linecap="round" stroke-linejoin="round" stroke-opacity="0.3019608" stroke-width="0.30000000000000004"/>
    </g>
    <g id="sprite1" transform="matrix(1.0, 0.0, 0.0, 1.0, 0.0, 0.0)">
      <use height="26.7" transform="matrix(0.0042, -1.3515, 1.3935, 0.02, 22.09, 56.0263)" width="26.7" xlink:href="#sprite2"/>
      <use height="26.7" transform="matrix(0.0095, -3.0486, 0.372, 0.0053, 36.507, 81.3775)" width="26.7" xlink:href="#sprite2"/>
      <use height="26.7" transform="matrix(3.0486, 0.0095, -0.0053, 0.372, 0.1225, 35.107)" width="26.7" xlink:href="#sprite2"/>
    </g>
    <g id="sprite2" transform="matrix(1.0, 0.0, 0.0, 1.0, 13.35, 13.35)">
      <use height="26.7" transform="matrix(1.0, 0.0, 0.0, 1.0, -13.35, -13.35)" width="26.7" xlink:href="#shape3"/>
    </g>
    <g id="shape3" transform="matrix(1.0, 0.0, 0.0, 1.0, 13.35, 13.35)">
      <path d="M9.3 -9.85 Q13.35 -5.8 13.35 0.0 13.35 5.8 9.3 9.3 5.8 13.35 0.0 13.35 -5.8 13.35 -9.85 9.3 -13.35 5.8 -13.35 0.0 -13.35 -5.8 -9.85 -9.85 -5.8 -13.35 0.0 -13.35 5.8 -13.35 9.3 -9.85" fill="url(#gradient1)" fill-rule="evenodd" stroke="none"/>
    </g>
    <radialGradient cx="0" cy="0" gradientTransform="matrix(0.0213, 0.0, 0.0, 0.0213, 0.0, 0.0)" gradientUnits="userSpaceOnUse" id="gradient1" r="819.2" spreadMethod="pad">
      <stop offset="0.19607843137254902" stop-color="#fee3bc" stop-opacity="0.41960785"/>
      <stop offset="0.5019607843137255" stop-color="#fee3bc" stop-opacity="0.06666667"/>
      <stop offset="0.7607843137254902" stop-color="#ffe3bd" stop-opacity="0.0"/>
    </radialGradient>
  </defs>
</svg>
