<?xml version="1.0" encoding="UTF-8" standalone="no"?>
<svg xmlns:xlink="http://www.w3.org/1999/xlink" height="52.0px" width="52.0px" xmlns="http://www.w3.org/2000/svg">
  <g transform="matrix(1.0, 0.0, 0.0, 1.0, 0.0, 0.0)">
    <use height="72.0" transform="matrix(1.0, 0.0, 0.0, 1.0, -10.0, -10.0)" width="72.0" xlink:href="#shape0"/>
    <use height="0.0" transform="matrix(0.1132, 0.0743, -0.1048, 0.1307, 28.5, 18.05)" width="0.0" xlink:href="#sprite0"/>
    <use height="0.0" transform="matrix(0.0485, 0.0445, -0.0669, 0.0834, 16.65, 37.6)" width="0.0" xlink:href="#sprite0"/>
    <use height="81.5" transform="matrix(0.1057, 0.0178, -0.0178, 0.1056, 19.25, 8.85)" width="81.5" xlink:href="#sprite1"/>
    <use height="81.5" transform="matrix(0.1057, 0.0178, -0.0178, 0.1056, 29.45, 15.2)" width="81.5" xlink:href="#sprite1"/>
    <use height="78.5" transform="matrix(0.3492, -0.0944, -0.0246, 0.3969, 12.5305, 13.3047)" width="75.15" xlink:href="#sprite3"/>
  </g>
  <defs>
    <g id="shape0" transform="matrix(1.0, 0.0, 0.0, 1.0, 10.0, 10.0)">
      <path d="M52.0 0.0 L52.0 52.0 0.0 52.0 0.0 0.0 52.0 0.0" fill="#795fa9" fill-opacity="0.0" fill-rule="evenodd" stroke="none"/>
      <path d="M42.9 21.15 L42.35 21.9 42.4 22.65 42.5 23.05 42.45 23.1 Q41.85 24.95 40.6 26.7 L40.45 26.85 Q38.55 29.2 35.95 30.5 L35.85 32.15 Q35.6 33.4 34.95 34.35 L33.8 35.55 31.3 37.55 29.15 40.45 26.1 44.15 25.95 44.3 25.2 45.15 23.6 46.65 Q21.85 48.1 20.8 48.05 L20.55 48.05 19.95 47.6 Q18.9 46.9 18.3 45.9 L17.8 44.6 17.7 44.1 13.55 47.05 13.65 46.25 Q13.8 45.1 14.4 43.4 L13.75 42.95 13.2 41.75 11.1 44.65 10.75 45.35 10.55 42.2 Q10.6 40.55 10.95 38.2 L12.2 33.45 12.75 32.6 13.15 32.0 13.0 31.9 Q11.9 31.0 11.7 29.2 12.25 27.3 12.95 25.55 14.05 22.65 15.55 20.4 L16.7 18.8 Q17.25 15.75 19.1 12.9 20.0 11.5 21.05 10.45 L22.65 9.7 23.4 8.45 Q24.95 7.5 26.7 6.95 L28.9 6.4 32.15 6.5 33.45 5.85 Q35.7 4.85 37.85 4.8 39.5 5.15 40.95 6.3 L41.75 7.0 42.0 7.75 Q42.45 9.15 42.35 11.05 L42.1 12.85 41.9 13.95 41.95 14.05 Q42.6 15.6 42.9 17.35 L42.9 17.4 42.9 17.55 Q43.15 19.4 42.9 21.1 L42.9 21.15 M18.4 32.95 L17.95 31.75 Q18.85 31.35 19.75 30.8 L18.5 33.3 18.4 32.95 M17.2 26.45 L17.1 26.85 17.8 26.6 17.4 25.75 17.2 26.45" fill="none" stroke="#000000" stroke-linecap="round" stroke-linejoin="round" stroke-opacity="0.3019608" stroke-width="1.0"/>
      <path d="M17.15 26.9 L21.5 25.0 21.8 25.45 16.9 28.1 17.0 27.3 17.15 26.9" fill="#aa772b" fill-rule="evenodd" stroke="none"/>
      <path d="M12.9 25.55 Q14.05 22.75 15.55 20.4 16.15 20.95 16.4 22.8 15.9 23.95 15.55 25.25 L14.75 27.55 Q13.45 27.5 12.9 25.55" fill="#d7b15b" fill-rule="evenodd" stroke="none"/>
      <path d="M15.55 20.4 Q17.4 17.7 19.85 15.8 17.95 18.65 16.4 22.8 16.15 20.95 15.55 20.4 M13.0 31.9 Q11.95 31.05 11.7 29.25 L12.9 25.55 Q13.45 27.5 14.75 27.55 14.05 29.75 14.0 31.15 13.95 32.05 13.0 31.9" fill="#cc9933" fill-rule="evenodd" stroke="none"/>
      <path d="M19.85 15.8 L19.15 18.2 Q17.3 21.8 16.15 25.05 L14.9 28.75 Q14.05 31.65 15.15 32.6 L14.9 32.6 Q13.7 32.5 13.0 31.9 13.95 32.05 14.0 31.15 14.05 29.75 14.75 27.55 L15.55 25.25 Q15.9 23.95 16.4 22.8 17.95 18.65 19.85 15.8" fill="#e0c585" fill-rule="evenodd" stroke="none"/>
      <path d="M17.2 26.5 L17.15 26.9 17.0 27.3 16.9 28.1 17.05 28.45 17.8 27.95 Q18.3 29.7 19.95 30.7 17.7 32.1 15.15 32.6 14.05 31.65 14.9 28.75 L16.15 25.05 Q17.1 24.95 17.2 26.5" fill="#825a20" fill-rule="evenodd" stroke="none"/>
      <path d="M19.15 18.2 L17.95 22.85 17.6 24.7 17.2 26.5 Q17.1 24.95 16.15 25.05 17.3 21.8 19.15 18.2 M21.9 25.65 Q22.45 27.0 22.25 28.95 L19.95 30.7 Q18.3 29.7 17.8 27.95 L21.9 25.65" fill="#74511d" fill-rule="evenodd" stroke="none"/>
      <path d="M21.8 25.45 L21.9 25.65 17.8 27.95 17.05 28.45 16.9 28.1 21.8 25.45" fill="#be8830" fill-rule="evenodd" stroke="none"/>
      <path d="M15.55 20.4 Q17.4 17.7 19.85 15.8 L19.15 18.2 17.95 22.85 17.6 24.7 17.2 26.5 17.15 26.9 21.5 25.0 21.8 25.45 21.9 25.65 Q22.45 27.0 22.25 28.95 L19.95 30.7 Q17.7 32.1 15.15 32.6 L14.9 32.6 Q13.7 32.5 13.0 31.9 11.95 31.05 11.7 29.25 L12.9 25.55 Q14.05 22.75 15.55 20.4 M17.15 26.9 L17.0 27.3 16.9 28.1 17.05 28.45" fill="none" stroke="#000000" stroke-linecap="round" stroke-linejoin="round" stroke-opacity="0.3019608" stroke-width="0.30000000000000004"/>
      <path d="M23.6 46.65 Q21.85 48.15 20.85 48.15 L20.55 48.05 Q20.25 47.9 20.15 47.35 20.0 47.0 20.0 46.5 L19.95 46.2 20.4 42.15 20.7 41.95 Q20.2 45.25 20.4 46.85 L20.55 47.55 21.9 47.6 23.6 46.65 M11.2 37.35 L12.15 33.5 12.75 32.65 Q14.65 32.7 15.45 34.05 L15.7 34.5 14.1 36.9 13.4 38.1 13.15 38.65 12.7 38.6 Q11.7 38.5 11.2 37.35 M13.25 31.85 Q14.85 29.8 16.45 30.05 L17.4 30.8 18.4 33.0 Q18.05 32.35 17.65 32.4 L17.1 31.25 Q16.7 30.7 16.1 30.7 15.05 30.45 13.25 31.85 M31.0 31.2 L31.35 31.25 Q29.9 35.0 26.55 39.15 L25.15 40.75 24.15 41.75 24.2 41.2 24.7 40.6 26.55 38.35 28.7 35.45 31.0 31.2 M19.45 34.25 Q21.05 32.45 22.15 33.0 L22.55 33.15 Q23.85 34.0 24.1 37.6 23.9 37.05 23.5 36.9 23.2 34.4 22.2 33.75 21.2 33.05 19.45 34.25 M18.4 35.55 Q19.7 35.5 20.45 36.25 L21.15 37.65 21.2 37.75 21.05 37.9 20.0 38.9 17.45 41.9 16.55 41.95 Q15.75 41.75 15.55 40.7 L17.4 36.95 18.4 35.55" fill="#d7b15b" fill-rule="evenodd" stroke="none"/>
      <path d="M13.55 47.05 L13.65 46.25 Q13.85 45.15 14.4 43.4 L14.9 41.95 15.1 41.45 15.55 40.7 Q15.75 41.75 16.55 41.95 L17.45 41.9 17.15 42.4 13.8 46.8 13.55 47.05 M10.8 45.4 Q10.55 43.9 10.6 42.25 10.55 40.55 10.95 38.25 L11.2 37.35 Q11.7 38.5 12.7 38.6 L13.15 38.65 Q11.55 42.05 10.8 45.4 M12.75 32.65 L13.25 31.85 Q15.05 30.45 16.1 30.7 16.7 30.7 17.1 31.25 L17.65 32.4 Q17.35 32.35 17.0 32.65 L15.7 34.5 15.45 34.05 Q14.65 32.7 12.75 32.65 M19.45 34.25 Q21.2 33.05 22.2 33.75 23.2 34.4 23.5 36.9 22.7 36.5 21.2 37.75 L21.15 37.65 20.45 36.25 Q19.7 35.5 18.4 35.55 L18.85 34.85 19.45 34.25" fill="#cc9933" fill-rule="evenodd" stroke="none"/>
      <path d="M29.2 40.45 L26.0 44.3 25.2 45.15 23.6 46.65 21.9 47.6 Q24.6 45.5 24.15 42.55 L24.15 41.75 25.15 40.75 26.0 41.05 26.3 41.05 29.2 40.45 M20.55 48.05 L20.0 47.7 18.3 45.95 17.75 44.65 18.8 44.55 Q19.35 45.0 20.0 46.5 20.0 47.0 20.15 47.35 20.25 47.9 20.55 48.05 M14.4 43.4 L13.75 43.0 13.2 41.8 13.7 41.1 Q14.3 40.95 14.7 41.5 L14.9 41.95 14.4 43.4 M20.1 30.0 L21.05 28.1 21.1 28.15 31.0 31.2 28.7 35.45 26.9 34.8 26.7 34.7 22.95 32.65 Q21.4 31.5 20.2 30.1 L20.1 30.0 M19.05 40.65 L20.55 39.2 20.7 39.05 Q22.6 37.2 23.15 37.4 L23.9 37.85 Q23.8 39.3 23.25 40.05 L22.65 40.55 20.7 41.95 20.4 42.15 19.45 42.85 19.35 42.8 Q18.7 42.3 19.05 40.65 M14.2 37.4 L14.5 36.95 Q15.75 34.75 17.0 33.1 17.6 32.15 18.5 33.5 L18.55 33.65 18.85 34.85 18.4 35.55 17.4 36.95 16.65 37.4 16.25 37.65 15.45 38.65 15.0 39.3 Q14.15 39.3 14.2 37.4" fill="#aa772b" fill-rule="evenodd" stroke="none"/>
      <path d="M21.05 28.1 L23.7 25.85 35.0 29.25 31.35 31.25 31.0 31.2 21.1 28.15 21.05 28.1" fill="#74511d" fill-rule="evenodd" stroke="none"/>
      <path d="M11.15 44.65 L10.8 45.4 Q11.55 42.05 13.15 38.65 L13.4 38.1 14.1 36.9 15.7 34.5 17.0 32.65 Q17.35 32.35 17.65 32.4 18.05 32.35 18.4 33.0 L18.5 33.35 18.5 33.45 18.55 33.65 18.5 33.5 Q17.6 32.15 17.0 33.1 15.75 34.75 14.5 36.95 L14.2 37.4 13.4 38.9 11.15 44.65 M23.5 36.9 Q23.9 37.05 24.1 37.6 L24.15 38.65 23.9 37.85 23.15 37.4 Q22.6 37.2 20.7 39.05 L20.55 39.2 19.05 40.65 13.8 46.8 17.15 42.4 17.45 41.9 20.0 38.9 21.05 37.9 21.2 37.75 Q22.7 36.5 23.5 36.9" fill="#e0c585" fill-rule="evenodd" stroke="none"/>
      <path d="M17.7 44.1 L13.55 47.05 13.8 46.8 19.05 40.65 Q18.7 42.3 19.35 42.8 L19.45 42.85 17.7 44.1 M13.2 41.8 L11.15 44.65 13.4 38.9 14.2 37.4 Q14.15 39.3 15.0 39.3 L13.7 41.1 13.2 41.8 M18.5 33.35 L20.1 30.0 20.2 30.1 Q21.4 31.5 22.95 32.65 L26.7 34.7 26.9 34.8 28.7 35.45 26.55 38.35 24.7 40.6 24.2 41.2 24.15 40.35 24.2 39.5 24.15 38.65 24.2 39.5 24.15 40.35 24.2 41.2 24.15 41.75 24.15 42.55 Q24.6 45.5 21.9 47.6 L20.55 47.55 20.4 46.85 Q20.2 45.25 20.7 41.95 L22.65 40.55 23.25 40.05 Q23.8 39.3 23.9 37.85 L24.15 38.65 24.1 37.6 Q23.85 34.0 22.55 33.15 L22.15 33.0 Q21.05 32.45 19.45 34.25 L18.85 34.85 18.55 33.65 18.5 33.45 18.5 33.35" fill="#be8830" fill-rule="evenodd" stroke="none"/>
      <path d="M35.0 29.25 L34.65 31.65 Q33.35 35.15 29.2 40.45 L26.3 41.05 26.0 41.05 25.15 40.75 26.55 39.15 Q29.9 35.0 31.35 31.25 L35.0 29.25 M17.75 44.65 L17.7 44.1 19.45 42.85 20.4 42.15 19.95 46.2 20.0 46.5 Q19.35 45.0 18.8 44.55 L17.75 44.65 M15.0 39.3 L15.45 38.65 16.25 37.65 16.65 37.4 17.4 36.95 15.55 40.7 15.1 41.45 14.9 41.95 14.7 41.5 Q14.3 40.95 13.7 41.1 L15.0 39.3" fill="#825a20" fill-rule="evenodd" stroke="none"/>
      <path d="M21.05 28.1 L23.7 25.85 35.0 29.25 34.65 31.65 Q33.35 35.15 29.2 40.45 L26.0 44.3 25.2 45.15 23.6 46.65 Q21.85 48.15 20.85 48.15 L20.55 48.05 20.0 47.7 18.3 45.95 17.75 44.65 17.7 44.1 13.55 47.05 13.65 46.25 Q13.85 45.15 14.4 43.4 L13.75 43.0 13.2 41.8 11.15 44.65 10.8 45.4 Q10.55 43.9 10.6 42.25 10.55 40.55 10.95 38.25 L11.2 37.35 12.15 33.5 12.75 32.65 13.25 31.85 Q14.85 29.8 16.45 30.05 L17.4 30.8 18.4 33.0 18.5 33.35 20.1 30.0 21.05 28.1 21.1 28.15 31.0 31.2 31.35 31.25 35.0 29.25 M24.1 37.6 Q23.85 34.0 22.55 33.15 L22.15 33.0 Q21.05 32.45 19.45 34.25 L18.85 34.85 18.55 33.65 18.5 33.45 18.5 33.35 M24.1 37.6 L24.15 38.65 24.2 39.5 24.15 40.35 24.2 41.2 24.15 41.75 24.15 42.55 M19.45 42.85 L20.4 42.15 20.7 41.95 22.65 40.55 M15.0 39.3 L15.45 38.65 16.25 37.65 16.65 37.4 17.4 36.95 18.4 35.55 18.85 34.85 M15.0 39.3 L13.7 41.1 13.2 41.8 M14.9 41.95 L15.1 41.45 15.55 40.7 17.4 36.95 M14.4 43.4 L14.9 41.95 M17.7 44.1 L19.45 42.85" fill="none" stroke="#000000" stroke-linecap="round" stroke-linejoin="round" stroke-opacity="0.3019608" stroke-width="0.30000000000000004"/>
      <path d="M31.65 6.75 L31.45 6.9 31.05 7.15 29.1 8.55 27.15 10.45 24.55 13.45 22.35 16.6 19.45 21.55 18.8 23.35 19.15 23.8 19.9 24.25 19.75 24.9 22.2 26.35 Q19.9 26.55 17.45 24.95 16.95 23.65 16.85 22.05 16.55 17.3 19.35 12.95 L20.9 10.95 22.85 9.95 24.0 8.4 Q25.25 7.7 26.7 7.25 L27.15 7.1 28.8 6.75 31.45 6.7 31.65 6.75 M30.1 15.15 L30.2 15.0 30.2 14.95 30.2 15.0 30.1 15.15 30.05 15.15 30.2 15.0 31.45 13.25 32.9 11.6 37.0 9.45 37.75 10.35 Q39.0 12.1 39.45 14.55 38.8 16.7 34.4 21.0 L30.25 23.7 Q28.25 24.7 25.95 25.35 L25.75 25.4 25.95 25.05 Q27.55 21.95 29.6 16.4 L29.75 16.1 30.2 14.95 30.1 15.15" fill="#d7b15b" fill-rule="evenodd" stroke="none"/>
      <path d="M41.9 14.0 L41.95 14.0 Q42.65 15.55 42.95 17.35 L42.95 17.55 Q41.95 15.65 40.95 14.7 L39.85 14.05 Q39.4 11.75 38.2 10.15 L37.45 9.3 37.1 8.95 Q38.1 9.35 40.8 12.0 L40.9 12.25 41.0 12.4 41.9 14.0 M42.4 22.65 L42.55 23.0 Q41.9 24.9 40.6 26.65 L40.45 26.85 Q38.5 29.35 35.7 30.65 L33.8 30.35 33.55 30.3 31.9 29.15 Q35.55 27.4 37.85 23.9 39.4 21.4 39.9 18.95 L40.75 20.85 41.0 21.25 42.4 22.65 M30.1 15.15 L30.1 15.2 30.1 15.15" fill="#aa772b" fill-rule="evenodd" stroke="none"/>
      <path d="M32.2 6.45 L31.65 6.75 31.45 6.7 28.8 6.75 27.15 7.1 26.7 7.25 Q25.25 7.7 24.0 8.4 L22.85 9.95 20.9 10.95 19.35 12.95 Q16.55 17.3 16.85 22.05 16.95 23.65 17.45 24.95 L17.55 25.2 Q18.45 27.4 20.5 28.75 L21.0 29.1 21.8 29.5 Q24.05 30.5 26.6 30.3 L29.65 29.55 30.7 29.15 Q34.95 27.4 37.4 23.6 39.9 19.75 39.55 15.65 37.6 18.25 35.35 20.25 L34.4 21.0 Q38.8 16.7 39.45 14.55 39.0 12.1 37.75 10.35 L37.0 9.45 37.45 9.3 38.2 10.15 Q39.4 11.75 39.85 14.05 L39.95 14.7 Q40.3 16.85 39.9 18.95 39.4 21.4 37.85 23.9 35.55 27.4 31.9 29.15 L30.8 29.7 29.85 30.05 26.65 30.75 Q23.95 31.0 21.7 30.0 L20.9 29.5 20.35 29.25 Q18.25 27.8 17.3 25.55 16.7 24.1 16.6 22.3 16.25 17.35 19.05 12.85 L21.0 10.45 22.65 9.75 23.45 8.45 Q24.95 7.45 26.75 6.95 L27.15 6.8 28.9 6.4 31.45 6.35 32.2 6.45" fill="#e0c585" fill-rule="evenodd" stroke="none"/>
      <path d="M25.75 25.4 L25.95 25.35 Q28.25 24.7 30.25 23.7 L34.4 21.0 35.35 20.25 Q37.6 18.25 39.55 15.65 39.9 19.75 37.4 23.6 34.95 27.4 30.7 29.15 L29.65 29.55 26.6 30.3 Q24.05 30.5 21.8 29.5 L21.0 29.1 20.5 28.75 Q18.45 27.4 17.55 25.2 L17.45 24.95 Q19.9 26.55 22.2 26.35 L24.0 27.45 24.7 27.25 25.75 25.4" fill="#cc9933" fill-rule="evenodd" stroke="none"/>
      <path d="M32.9 11.6 L34.15 10.55 36.5 9.0 36.9 8.75 37.1 8.95 37.45 9.3 37.0 9.45 32.9 11.6 M42.95 17.55 Q43.2 19.4 42.95 21.15 L42.35 21.8 42.4 22.65 41.0 21.25 40.75 20.85 39.9 18.95 Q40.3 16.85 39.95 14.7 L39.85 14.05 40.95 14.7 Q41.95 15.65 42.95 17.55 M30.1 15.15 L30.2 14.95 29.75 16.1 29.6 16.4 Q27.55 21.95 25.95 25.05 L25.75 25.4 24.7 27.25 24.0 27.45 22.2 26.35 19.75 24.9 19.9 24.25 21.45 25.1 22.8 25.7 24.3 25.9 25.7 22.9 Q27.3 19.7 29.5 16.1 L29.55 16.0 30.05 15.15 30.1 15.15 30.1 15.2 30.1 15.15" fill="#be8830" fill-rule="evenodd" stroke="none"/>
      <path d="M35.7 30.65 L32.75 31.65 31.25 31.95 31.0 31.95 26.85 32.05 Q23.65 31.55 21.0 29.75 L20.35 29.25 20.9 29.5 21.7 30.0 Q23.95 31.0 26.65 30.75 L29.85 30.05 30.8 29.7 31.9 29.15 33.55 30.3 33.8 30.35 35.7 30.65" fill="#825a20" fill-rule="evenodd" stroke="none"/>
      <path d="M36.9 8.75 L37.15 8.6 Q39.4 7.45 42.05 7.7 42.8 10.1 41.9 14.0 L41.0 12.4 40.9 12.25 40.8 12.0 Q38.1 9.35 37.1 8.95 L36.9 8.75" fill="#a6a637" fill-rule="evenodd" stroke="none"/>
      <path d="M30.05 15.15 L29.55 16.0 29.5 16.1 Q27.3 19.7 25.7 22.9 L24.3 25.9 22.8 25.7 Q22.7 25.1 23.0 24.5 L25.4 20.65 26.5 19.15 29.1 16.1 29.5 15.65 30.05 15.15" fill="#cac960" fill-rule="evenodd" stroke="none"/>
      <path d="M19.15 23.8 L19.15 23.2 Q20.75 19.75 22.15 17.45 L22.8 16.45 Q23.45 18.6 25.25 18.95 L26.05 19.1 Q25.65 19.5 25.4 20.05 23.75 22.25 22.4 25.0 L21.45 25.1 19.9 24.25 19.15 23.8 M32.05 7.15 Q34.9 5.1 38.1 5.25 39.5 5.25 41.1 6.65 L40.6 7.1 Q38.6 7.2 36.7 8.35 L36.55 8.45 36.1 8.7 Q35.6 9.0 35.15 9.4 34.85 8.15 33.7 7.6 33.05 7.3 32.05 7.15" fill="#d5d580" fill-rule="evenodd" stroke="none"/>
      <path d="M22.8 16.45 Q24.95 13.45 27.15 11.2 29.25 9.0 31.45 7.55 L32.05 7.15 Q33.05 7.3 33.7 7.6 34.85 8.15 35.15 9.4 L34.05 10.35 32.9 11.6 31.45 13.25 30.2 15.0 30.05 15.15 29.5 15.65 29.1 16.1 26.5 19.15 25.4 20.65 23.0 24.5 22.4 25.0 Q23.75 22.25 25.4 20.05 25.65 19.5 26.05 19.1 L25.25 18.95 Q23.45 18.6 22.8 16.45" fill="#e6e4b3" fill-rule="evenodd" stroke="none"/>
      <path d="M32.2 6.45 Q32.8 6.1 33.45 5.85 35.7 4.85 37.85 4.8 39.55 5.15 41.0 6.25 L41.8 6.95 42.05 7.7 Q39.4 7.45 37.15 8.6 L36.9 8.75 36.5 9.0 34.15 10.55 32.9 11.6 34.05 10.35 35.15 9.4 Q35.6 9.0 36.1 8.7 L36.55 8.45 36.7 8.35 Q38.6 7.2 40.6 7.1 L41.1 6.65 Q39.5 5.25 38.1 5.25 34.9 5.1 32.05 7.15 L31.45 7.55 Q29.25 9.0 27.15 11.2 24.95 13.45 22.8 16.45 L22.15 17.45 Q20.75 19.75 19.15 23.2 L19.15 23.8 18.8 23.35 19.45 21.55 22.35 16.6 24.55 13.45 27.15 10.45 29.1 8.55 31.05 7.15 31.45 6.9 31.65 6.75 32.2 6.45 M22.8 25.7 L21.45 25.1 22.4 25.0 23.0 24.5 Q22.7 25.1 22.8 25.7" fill="#f9f8ec" fill-rule="evenodd" stroke="none"/>
      <path d="M42.05 7.7 L41.8 6.95 41.0 6.25 Q39.55 5.15 37.85 4.8 35.7 4.85 33.45 5.85 32.8 6.1 32.2 6.45 L31.65 6.75 31.45 6.9 31.05 7.15 29.1 8.55 27.15 10.45 24.55 13.45 22.35 16.6 19.45 21.55 18.8 23.35 19.15 23.8 19.9 24.25 21.45 25.1 22.8 25.7 24.3 25.9 25.7 22.9 Q27.3 19.7 29.5 16.1 L29.55 16.0 30.05 15.15 30.2 15.0 30.1 15.15 30.2 14.95 30.2 15.0 31.45 13.25 32.9 11.6 34.15 10.55 36.5 9.0 36.9 8.75 M42.05 7.7 Q42.8 10.1 41.9 14.0 L41.95 14.0 Q42.65 15.55 42.95 17.35 L42.95 17.55 Q43.2 19.4 42.95 21.15 L42.35 21.8 42.4 22.65 42.55 23.0 Q41.9 24.9 40.6 26.65 L40.45 26.85 Q38.5 29.35 35.7 30.65 L32.75 31.65 31.25 31.95 31.0 31.95 26.85 32.05 Q23.65 31.55 21.0 29.75 L20.35 29.25 Q18.25 27.8 17.3 25.55 16.7 24.1 16.6 22.3 16.25 17.35 19.05 12.85 L21.0 10.45 22.65 9.75 23.45 8.45 Q24.95 7.45 26.75 6.95 L27.15 6.8 28.9 6.4 31.45 6.35 32.2 6.45 M37.1 8.95 Q38.1 9.35 40.8 12.0 L40.9 12.25 41.0 12.4 41.9 14.0 M30.1 15.15 L30.1 15.2 30.1 15.15" fill="none" stroke="#000000" stroke-linecap="round" stroke-linejoin="round" stroke-opacity="0.3019608" stroke-width="0.30000000000000004"/>
      <path d="M25.95 33.9 Q28.2 30.45 30.9 27.8 33.6 26.4 32.75 28.25 L31.7 29.55 Q29.2 32.75 27.95 34.95 26.1 35.45 25.95 33.9" fill="#d7b15b" fill-rule="evenodd" stroke="none"/>
      <path d="M35.6 25.45 L33.0 29.8 32.15 31.5 30.8 34.0 30.4 34.8 29.95 35.6 29.3 36.45 Q28.25 38.1 28.55 38.75 L27.45 38.95 Q27.05 38.5 27.15 37.75 27.3 36.85 28.2 35.3 30.9 30.85 35.6 25.45 M34.5 29.7 Q35.5 29.3 35.85 30.0 36.05 30.95 35.85 32.2 35.6 33.5 35.0 34.35 L33.85 35.6 34.6 33.3 Q34.8 32.0 33.85 31.85 35.35 29.95 34.5 29.7" fill="#aa772b" fill-rule="evenodd" stroke="none"/>
      <path d="M36.7 23.3 L36.95 23.1 35.6 25.45 Q30.9 30.85 28.2 35.3 27.3 36.85 27.15 37.75 27.05 38.5 27.45 38.95 L27.2 38.95 Q25.65 38.8 25.0 37.85 25.7 38.4 26.1 38.4 26.5 38.4 26.6 38.1 L26.8 37.4 Q27.15 36.4 27.95 34.95 29.2 32.75 31.7 29.55 L32.75 28.25 36.7 23.3 M34.5 29.7 Q35.35 29.95 33.85 31.85 33.0 33.0 30.4 34.8 L30.8 34.0 Q35.1 30.5 34.5 29.7" fill="#e0c585" fill-rule="evenodd" stroke="none"/>
      <path d="M32.15 31.5 Q33.55 30.1 34.5 29.7 35.1 30.5 30.8 34.0 L32.15 31.5 M25.0 37.85 Q24.55 37.1 24.75 35.75 L25.95 33.9 Q26.1 35.45 27.95 34.95 27.15 36.4 26.8 37.4 L26.6 38.1 Q26.5 38.4 26.1 38.4 25.7 38.4 25.0 37.85 M30.9 27.8 Q33.6 25.05 36.7 23.3 L32.75 28.25 Q33.6 26.4 30.9 27.8" fill="#cc9933" fill-rule="evenodd" stroke="none"/>
      <path d="M33.85 35.6 Q31.45 38.05 28.55 38.75 28.25 38.1 29.3 36.45 L29.95 35.6 30.4 34.8 Q33.0 33.0 33.85 31.85 34.8 32.0 34.6 33.3 L33.85 35.6" fill="#be8830" fill-rule="evenodd" stroke="none"/>
      <path d="M36.7 23.3 L36.95 23.1 35.6 25.45 33.0 29.8 32.15 31.5 Q33.55 30.1 34.5 29.7 35.5 29.3 35.85 30.0 36.05 30.95 35.85 32.2 35.6 33.5 35.0 34.35 L33.85 35.6 Q31.45 38.05 28.55 38.75 L27.45 38.95 27.2 38.95 Q25.65 38.8 25.0 37.85 24.55 37.1 24.75 35.75 L25.95 33.9 Q28.2 30.45 30.9 27.8 33.6 25.05 36.7 23.3 M30.8 34.0 L30.4 34.8 29.95 35.6 M32.15 31.5 L30.8 34.0" fill="none" stroke="#000000" stroke-linecap="round" stroke-linejoin="round" stroke-opacity="0.3019608" stroke-width="0.30000000000000004"/>
      <path d="M23.25 15.05 L22.45 15.05 Q19.75 15.5 20.35 12.4 20.55 11.15 21.3 10.8 22.15 10.95 22.65 11.95 L23.25 15.05 M32.45 17.2 Q33.75 17.55 33.45 18.9 33.2 21.05 30.0 20.75 29.1 19.9 29.45 18.5 31.15 17.2 32.45 17.2" fill="#e6e4b3" fill-rule="evenodd" stroke="none"/>
      <path d="M22.1 10.7 Q24.5 10.85 23.3 14.95 23.45 11.15 22.1 10.7 M33.85 19.55 Q34.6 18.0 32.8 17.25 34.15 17.35 34.8 19.15 34.75 20.2 34.3 20.8 33.7 20.85 33.85 19.55" fill="#d5d580" fill-rule="evenodd" stroke="none"/>
      <path d="M23.65 28.4 Q20.35 27.65 17.9 24.85 L19.1 25.3 Q20.8 26.05 22.65 27.55 L23.65 28.4" fill="#74511d" fill-rule="evenodd" stroke="none"/>
      <path d="M23.25 15.05 L22.65 11.95 Q22.15 10.95 21.3 10.8 L21.9 10.65 22.1 10.7 Q23.45 11.15 23.3 14.95 L23.25 15.05 M32.45 17.2 L32.8 17.25 Q34.6 18.0 33.85 19.55 L33.55 20.2 Q32.2 21.7 30.0 20.75 33.2 21.05 33.45 18.9 33.75 17.55 32.45 17.2" fill="#f9f8ec" fill-rule="evenodd" stroke="none"/>
      <path d="M30.0 20.75 Q32.2 21.7 33.55 20.2 L33.85 19.55 Q33.7 20.85 34.3 20.8 33.8 21.65 32.65 21.7 30.8 21.5 30.0 20.75" fill="#cac960" fill-rule="evenodd" stroke="none"/>
      <path d="M21.3 10.8 Q20.55 11.15 20.35 12.4 19.75 15.5 22.45 15.05 L23.25 15.05 M21.3 10.8 L21.9 10.65 22.1 10.7 Q24.5 10.85 23.3 14.95 M32.8 17.25 L32.45 17.2 Q31.15 17.2 29.45 18.5 29.1 19.9 30.0 20.75 30.8 21.5 32.65 21.7 33.8 21.65 34.3 20.8 34.75 20.2 34.8 19.15 34.15 17.35 32.8 17.25 M17.9 24.85 L19.1 25.3 Q20.8 26.05 22.65 27.55 L23.65 28.4" fill="none" stroke="#000000" stroke-linecap="round" stroke-linejoin="round" stroke-opacity="0.3019608" stroke-width="0.30000000000000004"/>
      <path d="M38.3 20.6 L36.85 20.45 37.4 20.25 38.3 20.6 M40.85 21.35 L41.7 21.6 41.95 22.15 40.85 21.35 M26.15 21.0 L25.3 21.25 24.5 20.9 25.3 20.85 26.15 21.0 M25.55 41.2 L25.8 43.25 25.5 42.3 25.55 41.2" fill="#74511d" fill-rule="evenodd" stroke="none"/>
      <path d="M33.0 28.0 L32.5 27.55 32.6 26.8 33.0 28.0 M19.35 21.8 L19.7 21.2 20.95 21.4 19.35 21.8" fill="#825a20" fill-rule="evenodd" stroke="none"/>
      <path d="M28.5 32.35 L30.2 32.25 30.65 32.75 Q30.0 32.35 28.5 32.35 M19.95 37.25 L20.5 38.35 20.1 40.5 19.95 37.25" fill="#aa772b" fill-rule="evenodd" stroke="none"/>
      <path d="M21.0 10.45 L24.1 10.0 23.4 8.55 M26.95 10.7 L24.1 10.0 M31.0 7.15 L32.8 7.55 34.25 7.15 37.55 7.25 39.25 7.3 39.85 7.7 39.95 8.7 40.1 9.65 41.05 10.75 42.35 11.0 M39.95 8.7 L39.2 7.9 37.55 7.25 M41.05 10.75 L42.2 13.0 M40.4 11.7 L40.1 9.65 M32.8 7.55 L29.4 8.35 M42.75 16.65 L42.05 17.7 42.95 17.35 M37.4 20.25 L39.3 19.6 41.8 18.15 42.05 17.7 M38.3 20.6 L36.85 20.45 34.55 20.15 M36.85 20.45 L37.4 20.25 38.3 20.6 39.15 20.75 40.85 21.35 41.7 21.6 42.85 21.15 M41.95 22.15 L42.4 23.15 M41.7 21.6 L41.95 22.15 40.85 21.35 M26.15 21.0 L25.3 20.85 24.5 20.9 25.3 21.25 26.15 21.0 26.55 21.1 29.9 20.7 M33.0 28.0 L32.6 26.8 32.5 27.55 33.0 28.0 33.8 28.5 M32.6 26.8 L32.65 26.0 M30.9 27.75 L32.5 27.55 M20.95 21.4 L23.05 20.8 23.05 15.45 M19.35 21.8 L20.95 21.4 19.7 21.2 19.35 21.8 M23.05 20.8 L24.5 20.9 M27.4 31.65 L28.0 32.4 28.5 32.35 30.2 32.25 30.65 32.75 31.1 33.35 M26.45 33.15 L28.0 32.4 M19.95 37.25 L19.75 36.55 18.4 35.4 M20.2 30.1 L20.95 31.7 22.8 32.35 25.15 31.65 M20.95 31.7 L21.05 33.15 M24.15 38.8 L25.6 40.1 25.55 41.2 25.8 43.25 26.1 44.15 M19.95 37.25 L20.5 38.35 20.1 40.5 19.45 41.7 19.15 43.0 M28.5 32.35 Q30.0 32.35 30.65 32.75 M25.55 41.2 L25.5 42.3 25.8 43.25 M25.5 42.3 L23.8 46.4 M19.45 41.7 L16.9 44.7 M20.1 40.5 L19.95 37.25 M20.35 19.95 L16.6 20.2" fill="none" stroke="#000000" stroke-linecap="round" stroke-linejoin="round" stroke-opacity="0.101960786" stroke-width="0.05"/>
    </g>
    <g id="sprite1" transform="matrix(1.0, 0.0, 0.0, 1.0, 0.0, 0.0)">
      <use height="26.7" transform="matrix(0.0042, -1.3515, 1.3935, 0.02, 22.09, 56.0263)" width="26.7" xlink:href="#sprite2"/>
      <use height="26.7" transform="matrix(0.0095, -3.0486, 0.372, 0.0053, 36.507, 81.3775)" width="26.7" xlink:href="#sprite2"/>
      <use height="26.7" transform="matrix(3.0486, 0.0095, -0.0053, 0.372, 0.1225, 35.107)" width="26.7" xlink:href="#sprite2"/>
    </g>
    <g id="sprite2" transform="matrix(1.0, 0.0, 0.0, 1.0, 13.35, 13.35)">
      <use height="26.7" transform="matrix(1.0, 0.0, 0.0, 1.0, -13.35, -13.35)" width="26.7" xlink:href="#shape1"/>
    </g>
    <g id="shape1" transform="matrix(1.0, 0.0, 0.0, 1.0, 13.35, 13.35)">
      <path d="M9.3 -9.85 Q13.35 -5.8 13.35 0.0 13.35 5.8 9.3 9.3 5.8 13.35 0.0 13.35 -5.8 13.35 -9.85 9.3 -13.35 5.8 -13.35 0.0 -13.35 -5.8 -9.85 -9.85 -5.8 -13.35 0.0 -13.35 5.8 -13.35 9.3 -9.85" fill="url(#gradient0)" fill-rule="evenodd" stroke="none"/>
    </g>
    <radialGradient cx="0" cy="0" gradientTransform="matrix(0.0213, 0.0, 0.0, 0.0213, 0.0, 0.0)" gradientUnits="userSpaceOnUse" id="gradient0" r="819.2" spreadMethod="pad">
      <stop offset="0.19607843137254902" stop-color="#fee3bc" stop-opacity="0.30588236"/>
      <stop offset="0.5019607843137255" stop-color="#fee3bc" stop-opacity="0.047058824"/>
      <stop offset="0.7607843137254902" stop-color="#ffe3bd" stop-opacity="0.0"/>
    </radialGradient>
    <g id="sprite3" transform="matrix(1.0, 0.0, 0.0, 1.0, 37.15, 38.8)">
      <use height="78.5" transform="matrix(1.0, 0.0, 0.0, 1.0, -37.15, -38.8)" width="75.15" xlink:href="#shape2"/>
    </g>
    <g id="shape2" transform="matrix(1.0, 0.0, 0.0, 1.0, 37.15, 38.8)">
      <path d="M5.5 -21.3 L6.0 -20.8 5.8 -19.95 6.5 -19.55 4.7 -17.8 7.55 -16.65 7.55 -18.2 10.3 -19.05 9.5 -20.2 10.55 -21.2 8.5 -22.55 7.35 -23.3 8.95 -25.55 9.1 -25.45 13.6 -26.95 12.2 -29.4 16.35 -29.65 18.2 -33.85 20.45 -33.65 22.0 -32.15 26.35 -31.7 26.95 -24.75 24.4 -23.25 23.95 -19.55 27.05 -18.1 31.75 -21.8 36.0 -19.75 37.4 -15.55 36.1 -12.8 33.9 -11.65 33.5 -11.8 33.5 -14.1 31.6 -13.25 31.6 -11.15 32.05 -10.7 31.05 -10.2 29.8 -7.55 32.4 -4.3 36.9 -5.2 38.0 -3.25 37.7 -1.1 36.25 -2.75 34.9 -1.2 36.05 0.25 35.0 4.15 37.05 8.3 34.3 10.35 34.25 10.4 32.35 8.75 29.6 9.85 29.6 13.3 33.8 16.0 33.75 20.7 31.25 23.8 28.9 23.8 27.35 22.25 29.45 20.5 28.7 19.7 26.6 20.15 25.85 18.95 24.95 20.3 23.5 20.3 23.2 18.95 25.85 16.85 25.2 15.5 23.25 16.4 22.45 15.1 19.1 18.25 18.4 19.85 20.5 19.4 20.55 21.75 22.2 22.85 21.75 24.05 23.85 27.75 22.85 29.55 21.25 30.2 19.15 33.85 20.15 36.05 10.7 36.05 13.75 39.1 8.2 39.1 5.3 37.25 5.6 37.5 3.55 39.7 1.8 36.65 -2.75 38.15 -3.1 37.1 -1.7 36.4 -6.95 35.3 -5.9 33.8 -5.95 33.65 -3.4 32.5 -4.8 31.0 -3.25 29.8 -0.4 32.15 1.0 30.05 -0.35 28.4 0.5 27.2 0.2 26.75 2.3 25.3 6.35 26.1 4.75 20.4 5.8 19.7 4.7 14.05 1.95 11.95 -0.1 13.85 2.45 15.65 1.0 19.0 -0.1 18.05 -2.3 21.2 -0.1 22.55 -1.3 25.05 -3.8 25.4 -3.8 27.25 -3.2 27.9 -4.95 29.65 -5.75 27.95 -7.6 27.95 -7.6 30.85 -7.1 31.55 -9.2 32.95 -10.15 30.6 -13.6 30.85 -14.3 32.65 -17.1 33.5 -21.95 29.8 -20.9 28.55 -22.0 27.55 -21.0 26.05 -21.25 23.15 -25.1 21.65 -25.2 21.7 -28.6 24.65 -30.5 23.5 -31.9 20.1 -30.7 17.65 -31.7 13.75 -30.6 12.3 -31.9 10.75 -32.0 10.65 -33.15 9.2 -31.9 9.2 -29.65 6.2 -31.6 3.4 -37.15 4.15 -35.8 1.45 -36.8 -2.45 -35.7 -3.9 -37.0 -5.45 -36.8 -5.75 -31.1 -5.45 -29.8 -6.35 -29.35 -5.05 -27.35 -6.2 -26.45 -4.7 -23.85 -7.25 -21.65 -9.35 -20.45 -10.5 -20.5 -12.65 -21.5 -11.75 -22.1 -12.8 -23.3 -12.5 -23.85 -14.7 -25.9 -15.9 -27.15 -15.2 -28.3 -15.9 -28.75 -15.6 -29.05 -16.0 -29.05 -19.4 -29.15 -19.6 -27.4 -20.45 -24.5 -18.5 -21.7 -20.8 -19.0 -18.1 -15.4 -23.7 -17.8 -24.7 -16.0 -26.75 -16.3 -28.1 -15.45 -29.1 -17.85 -32.2 -17.0 -33.95 -19.9 -34.15 -18.55 -35.5 -16.35 -35.2 -14.35 -38.8 -11.7 -38.45 -12.2 -37.9 -9.05 -35.05 -10.15 -33.8 -5.3 -30.1 -1.85 -31.15 -1.0 -28.7 3.65 -30.95 3.25 -29.8 4.25 -29.8 2.6 -26.1 4.3 -24.95 3.15 -23.55 4.1 -22.6 5.5 -21.3 M17.45 -26.5 L17.45 -28.8 15.5 -27.95 15.5 -25.85 17.45 -23.95 19.1 -25.85 17.45 -26.5 M23.75 -7.85 L23.75 -10.15 21.8 -9.3 21.8 -7.15 23.75 -5.3 25.4 -7.15 23.75 -7.85 M22.4 -18.85 L22.4 -21.1 20.5 -20.3 20.5 -18.15 22.45 -16.3 24.1 -18.15 22.4 -18.85 M19.95 -1.4 L19.95 -0.65 18.05 1.25 17.05 -0.05 15.8 1.15 15.8 3.55 17.0 4.25 17.0 5.65 19.2 6.6 19.8 4.6 18.9 3.4 20.5 0.1 22.55 0.1 21.15 -0.95 19.95 -1.4 M3.7 -19.1 L1.85 -19.1 1.85 -16.25 3.85 -15.5 4.85 -17.4 3.7 -19.1 M20.75 -5.65 L19.9 -4.25 23.15 -3.1 20.75 -5.65 M25.75 -1.6 L24.2 -2.05 23.95 0.1 22.55 1.15 22.55 1.65 23.95 5.3 27.25 5.3 27.65 6.25 31.6 4.25 25.6 2.5 26.9 1.1 24.95 -0.05 25.75 -1.6 M-8.35 10.7 L-6.35 11.45 -5.35 9.55 -6.5 7.85 -8.35 7.85 -8.35 10.7 M-23.8 -2.9 L-23.8 -0.05 -21.75 0.7 -20.75 -1.2 -21.95 -2.9 -23.8 -2.9 M-20.45 -10.45 L-20.45 -7.6 -18.4 -6.85 -17.4 -8.75 -18.55 -10.45 -20.45 -10.45 M-10.5 20.95 L-9.4 23.05 -7.0 21.55 -6.15 23.05 -3.2 21.5 -4.25 19.85 -6.35 20.2 -6.8 16.45 -7.15 16.3 -6.75 14.85 -9.85 14.2 -12.65 18.05 -11.8 21.2 -10.5 20.95 M11.4 13.85 L11.0 11.95 7.1 14.9 8.15 16.3 8.15 18.0 10.8 21.25 13.85 20.3 14.2 20.55 13.6 22.7 15.55 23.8 17.8 21.8 16.9 20.3 16.45 19.4 14.5 18.95 15.8 17.75 14.05 16.15 14.0 16.25 13.65 16.05 11.75 15.55 11.45 14.15 11.4 13.85 M-19.85 12.4 L-20.05 12.15 -20.9 12.7 -20.8 12.9 -19.85 12.4 M-17.2 23.25 L-19.05 23.25 -19.05 26.1 -17.0 26.85 -16.0 24.95 -17.2 23.25" fill="url(#gradient1)" fill-rule="evenodd" stroke="none"/>
      <path d="M5.5 -21.3 L4.1 -22.6 4.75 -23.35 8.5 -22.55 8.2 -22.4 5.5 -21.3 M-21.65 -9.35 L-23.85 -7.25 -24.05 -7.15 -24.35 -9.25 -25.95 -9.8 -28.0 -10.5 -27.95 -12.0 -24.1 -13.25 -23.85 -12.9 -25.15 -12.0 -23.95 -10.75 -22.7 -10.85 -21.65 -9.35 M7.6 -21.25 L7.65 -21.1 7.55 -21.2 7.6 -21.25 M11.4 13.85 L11.45 14.15 11.3 14.45 11.4 13.85" fill="url(#gradient2)" fill-rule="evenodd" stroke="none"/>
    </g>
    <radialGradient cx="0" cy="0" gradientTransform="matrix(0.0504, 0.0, 0.0, 0.0504, -0.1, -0.1)" gradientUnits="userSpaceOnUse" id="gradient1" r="819.2" spreadMethod="pad">
      <stop offset="0.5215686274509804" stop-color="#133a01" stop-opacity="0.4509804"/>
      <stop offset="1.0" stop-color="#221e00" stop-opacity="0.0"/>
    </radialGradient>
    <radialGradient cx="0" cy="0" gradientTransform="matrix(0.042, 0.0, 0.0, 0.042, 0.0, 0.0)" gradientUnits="userSpaceOnUse" id="gradient2" r="819.2" spreadMethod="pad">
      <stop offset="0.5215686274509804" stop-color="#133a01" stop-opacity="0.4509804"/>
      <stop offset="1.0" stop-color="#221e00" stop-opacity="0.0"/>
    </radialGradient>
  </defs>
</svg>
