<?xml version="1.0" encoding="UTF-8" standalone="no"?>
<svg xmlns:xlink="http://www.w3.org/1999/xlink" height="52.0px" width="52.0px" xmlns="http://www.w3.org/2000/svg">
  <g transform="matrix(1.0, 0.0, 0.0, 1.0, 0.0, 0.0)">
    <use height="56.0" transform="matrix(1.0, 0.0, 0.0, 1.0, -2.0, -2.0)" width="56.0" xlink:href="#shape0"/>
    <use height="0.0" transform="matrix(0.0271, 0.0251, -0.0273, 0.0283, 18.2, 19.4)" width="0.0" xlink:href="#sprite0"/>
    <use height="7.75" transform="matrix(1.0, 0.0, 0.0, 1.0, 18.35, 10.9)" width="7.75" xlink:href="#shape1"/>
    <use height="0.0" transform="matrix(0.0271, 0.0251, -0.0273, 0.0283, 22.2, 14.65)" width="0.0" xlink:href="#sprite0"/>
    <use height="7.75" transform="matrix(1.0, 0.0, 0.0, 1.0, 24.5, 11.15)" width="7.75" xlink:href="#shape2"/>
    <use height="0.0" transform="matrix(0.0271, 0.0251, -0.0273, 0.0283, 28.4, 14.95)" width="0.0" xlink:href="#sprite0"/>
    <use height="12.0" transform="matrix(1.0, 0.0, 0.0, 1.0, 17.35, 15.7)" width="19.55" xlink:href="#shape3"/>
    <use height="0.0" transform="matrix(0.0271, 0.0251, -0.0273, 0.0283, 33.0, 19.5)" width="0.0" xlink:href="#sprite0"/>
    <use height="7.75" transform="matrix(1.0, 0.0, 0.0, 1.0, 28.2, 21.7)" width="7.75" xlink:href="#shape4"/>
    <use height="0.0" transform="matrix(0.0271, 0.0251, -0.0273, 0.0283, 32.05, 25.5)" width="0.0" xlink:href="#sprite0"/>
    <use height="39.85" transform="matrix(1.0, 0.0, 0.0, 1.0, 12.9, 5.05)" width="33.75" xlink:href="#shape5"/>
    <use height="0.0" transform="matrix(0.0295, 0.0074, -0.0074, 0.0295, 36.7, 36.35)" width="0.0" xlink:href="#sprite0"/>
    <use height="0.0" transform="matrix(0.0295, 0.0074, -0.0074, 0.0295, 30.8, 38.8)" width="0.0" xlink:href="#sprite0"/>
    <use height="0.0" transform="matrix(0.0734, 0.0183, -0.0093, 0.0372, 14.95, 39.65)" width="0.0" xlink:href="#sprite0"/>
    <use height="0.0" transform="matrix(0.0279, 0.0155, -0.0206, 0.0371, 17.45, 33.75)" width="0.0" xlink:href="#sprite0"/>
    <use height="0.0" transform="matrix(0.0406, 0.0225, -0.0274, 0.0494, 21.75, 26.75)" width="0.0" xlink:href="#sprite0"/>
    <use height="0.0" transform="matrix(0.0462, 0.0206, -0.021, 0.0995, 41.2, 24.9)" width="0.0" xlink:href="#sprite0"/>
    <use height="0.0" transform="matrix(0.0372, 0.0166, -0.0216, 0.0535, 21.15, 40.8)" width="0.0" xlink:href="#sprite0"/>
    <use height="81.5" transform="matrix(0.0967, 0.0, 0.0, 0.0967, 31.45, 16.0)" width="81.5" xlink:href="#sprite1"/>
    <use height="81.5" transform="matrix(0.128, 0.0, 0.0, 0.128, 16.35, 24.5)" width="81.5" xlink:href="#sprite1"/>
  </g>
  <defs>
    <g id="shape0" transform="matrix(1.0, 0.0, 0.0, 1.0, 2.0, 2.0)">
      <path d="M52.0 0.0 L52.0 52.0 0.0 52.0 0.0 0.0 52.0 0.0" fill="#795fa9" fill-opacity="0.0" fill-rule="evenodd" stroke="none"/>
      <path d="M16.9 6.0 L18.3 5.4 Q19.3 5.0 20.45 4.75 L23.4 4.25 24.25 4.15 24.85 4.15 25.0 4.15 29.1 4.6 32.1 5.5 Q32.1 6.1 32.9 5.8 L33.65 6.2 33.7 6.2 34.3 6.5 34.5 6.6 35.65 7.25 Q37.6 8.35 39.1 9.55 L41.55 11.95 41.75 12.3 42.2 12.95 42.95 13.85 43.6 15.0 Q44.3 16.15 44.8 17.45 L45.55 19.95 45.65 20.35 45.7 20.8 Q45.3 20.95 45.75 21.65 L45.8 21.65 45.85 21.7 Q46.05 24.75 44.85 27.65 44.1 27.9 44.5 28.55 L44.35 28.75 41.55 33.8 35.65 30.95 37.5 33.4 38.0 33.15 38.95 34.2 39.0 34.4 39.6 37.45 35.3 39.65 34.55 38.25 33.5 35.35 33.55 35.3 31.95 32.15 31.45 33.05 32.35 37.2 33.35 39.1 33.55 40.4 29.4 41.4 29.3 41.4 28.1 38.95 28.15 38.05 27.8 38.25 27.6 38.35 27.35 38.45 26.75 40.35 26.9 40.55 Q27.55 42.4 27.05 43.55 L26.9 43.8 25.35 43.9 25.0 44.6 Q23.6 47.3 22.75 47.1 L21.2 46.65 20.2 47.6 19.5 47.95 19.45 47.95 18.75 48.15 18.5 48.15 18.3 48.15 Q17.2 48.1 16.75 47.4 L16.6 47.0 16.55 46.35 16.9 45.05 14.0 43.7 13.0 43.2 12.9 43.45 12.2 44.45 11.3 45.2 11.25 45.2 10.65 45.35 10.3 45.25 9.4 44.5 9.1 43.65 8.95 43.2 8.9 42.95 Q8.65 41.65 9.1 40.35 L8.55 39.35 7.8 39.05 7.75 38.35 9.1 36.9 Q8.85 36.55 8.9 36.05 L9.0 35.8 Q9.3 35.2 10.05 34.7 L10.1 34.15 12.7 32.2 Q12.25 31.45 12.05 30.55 L12.0 30.4 11.9 29.65 10.4 30.4 10.65 31.25 9.15 31.45 6.4 29.8 6.0 25.9 7.45 25.7 8.25 26.25 8.55 26.15 6.35 24.8 7.5 21.05 8.95 20.45 9.75 21.05 14.45 20.75 10.15 18.7 8.05 16.65 10.85 11.65 11.05 11.3 Q13.0 8.15 16.25 6.35 L16.9 6.0 M39.6 10.5 L39.7 10.6 39.7 10.55 39.6 10.5 M40.05 11.05 L40.1 11.05 40.05 11.0 40.05 11.05 M34.5 15.35 L34.7 15.6 34.45 15.3 34.35 15.25 34.45 15.2 34.45 15.3 34.5 15.35 M17.65 32.7 L17.75 32.6 17.65 32.7" fill="none" stroke="#000000" stroke-linecap="round" stroke-linejoin="round" stroke-opacity="0.3019608" stroke-width="1.0"/>
      <path d="M7.9 23.25 L8.35 21.65 7.55 22.35 7.4 22.45 7.6 22.25 8.45 21.15 8.65 20.55 8.95 20.45 7.8 24.5 10.65 26.45 10.55 26.5 9.05 25.55 7.5 24.55 6.4 24.8 6.4 24.6 7.05 24.35 7.6 24.2 7.9 23.25" fill="#ffff98" fill-rule="evenodd" stroke="none"/>
      <path d="M7.4 22.45 L7.1 22.5 7.5 21.05 8.65 20.55 8.45 21.15 7.6 22.25 7.4 22.45 M6.55 24.1 L6.7 24.05 7.3 23.35 7.9 23.25 7.6 24.2 7.05 24.35 6.4 24.6 6.55 24.1" fill="#ffde4f" fill-rule="evenodd" stroke="none"/>
      <path d="M7.4 22.45 L7.55 22.35 8.35 21.65 7.9 23.25 7.3 23.35 6.7 24.05 6.55 24.1 7.1 22.5 7.4 22.45" fill="#f4a33c" fill-rule="evenodd" stroke="none"/>
      <path d="M6.4 24.8 L7.5 24.55 9.05 25.55 7.8 25.7 6.4 24.8" fill="#cc6b22" fill-rule="evenodd" stroke="none"/>
      <path d="M9.05 25.55 L10.55 26.5 9.75 26.9 7.8 25.7 9.05 25.55 M10.65 26.45 L7.8 24.5 8.95 20.45 11.15 21.95 10.65 26.45" fill="#a34100" fill-rule="evenodd" stroke="none"/>
      <path d="M7.1 22.5 L6.55 24.1 6.4 24.6 6.4 24.8 7.8 25.7 9.75 26.9 10.55 26.5 10.65 26.45 11.15 21.95 8.95 20.45 8.65 20.55 7.5 21.05 7.1 22.5 Z" fill="none" stroke="#000000" stroke-linecap="round" stroke-linejoin="round" stroke-opacity="0.3019608" stroke-width="0.05"/>
      <path d="M13.6 33.7 Q11.35 34.3 10.35 35.45 9.7 36.15 9.05 35.8 L8.9 36.05 9.9 36.15 Q9.75 37.25 10.5 37.4 11.0 37.35 11.7 36.9 L10.45 37.05 Q9.95 36.95 10.35 36.1 11.9 34.1 13.35 34.05 L13.6 33.7" fill="#ffffff" fill-rule="evenodd" stroke="none"/>
      <path d="M9.05 35.8 Q9.7 36.15 10.35 35.45 11.35 34.3 13.6 33.7 L11.45 33.95 Q9.6 34.65 9.05 35.8 M10.35 36.1 Q9.95 36.95 10.45 37.05 L12.5 36.0 12.95 34.95 Q11.6 35.5 10.35 36.1" fill="#cac960" fill-rule="evenodd" stroke="none"/>
      <path d="M10.5 37.4 Q9.75 37.25 9.9 36.15 L8.9 36.05 Q8.85 37.4 10.5 37.4" fill="#a6a637" fill-rule="evenodd" stroke="none"/>
      <path d="M13.35 34.05 Q11.9 34.1 10.35 36.1 11.6 35.5 12.95 34.95 L13.35 34.05 M10.45 37.05 L11.7 36.9 12.25 36.55 12.5 36.0 10.45 37.05" fill="#e6e4b3" fill-rule="evenodd" stroke="none"/>
      <path d="M9.05 35.8 Q9.6 34.65 11.45 33.95 L13.6 33.7 M11.7 36.9 Q11.0 37.35 10.5 37.4 8.85 37.4 8.9 36.05 L9.05 35.8 M11.7 36.9 L12.25 36.55" fill="none" stroke="#000000" stroke-linecap="round" stroke-linejoin="round" stroke-opacity="0.3019608" stroke-width="0.30000000000000004"/>
      <path d="M18.9 45.95 L14.0 43.7 Q14.85 42.3 13.25 39.85 15.45 40.95 17.65 42.0 17.15 43.45 18.9 45.95" fill="#a6a637" fill-rule="evenodd" stroke="none"/>
      <path d="M26.65 36.25 L24.45 40.7 23.7 42.05 23.45 42.6 Q22.5 44.35 22.75 45.3 23.6 46.55 22.75 47.1 22.95 46.2 22.3 45.45 19.85 43.3 17.65 42.0 15.45 40.95 13.25 39.85 L8.95 38.55 Q8.7 39.2 9.6 41.0 L9.35 40.65 Q8.15 39.2 8.45 37.95 12.05 38.8 15.9 40.75 18.45 42.0 21.15 43.8 L22.85 41.6 23.35 40.95 Q24.75 38.85 26.2 35.95 L26.65 36.25" fill="#ffffff" fill-rule="evenodd" stroke="none"/>
      <path d="M26.65 36.25 Q27.65 37.4 27.4 38.4 26.5 41.5 25.0 44.6 24.0 43.9 24.45 40.7 L26.65 36.25 M8.45 37.95 L12.6 32.95 14.8 37.25 15.9 40.75 Q12.05 38.8 8.45 37.95 M17.35 32.3 Q22.3 33.35 26.2 35.95 24.75 38.85 23.35 40.95 L22.85 41.6 Q20.8 39.25 19.45 37.05 L19.5 37.05 19.0 36.3 Q17.85 34.2 17.35 32.3" fill="#d5d580" fill-rule="evenodd" stroke="none"/>
      <path d="M24.45 40.7 Q24.0 43.9 25.0 44.6 23.6 47.3 22.75 47.1 L18.9 45.95 Q17.15 43.45 17.65 42.0 19.85 43.3 22.3 45.45 22.95 46.2 22.75 47.1 23.6 46.55 22.75 45.3 22.5 44.35 23.45 42.6 L23.7 42.05 24.45 40.7 M14.0 43.7 Q11.1 42.2 9.6 41.0 8.7 39.2 8.95 38.55 L13.25 39.85 Q14.85 42.3 14.0 43.7 M12.6 32.95 L13.0 32.4 Q14.05 31.7 14.65 31.8 L17.35 32.3 Q17.85 34.2 19.0 36.3 L19.5 37.05 19.45 37.05 Q20.8 39.25 22.85 41.6 L21.15 43.8 Q18.45 42.0 15.9 40.75 L14.8 37.25 12.6 32.95" fill="#cac960" fill-rule="evenodd" stroke="none"/>
      <path d="M25.0 44.6 Q26.5 41.5 27.4 38.4 27.65 37.4 26.65 36.25 L26.2 35.95 Q22.3 33.35 17.35 32.3 L14.65 31.8 Q14.05 31.7 13.0 32.4 L12.6 32.95 8.45 37.95 Q8.15 39.2 9.35 40.65 L9.6 41.0 Q11.1 42.2 14.0 43.7 L18.9 45.95 22.75 47.1 Q23.6 47.3 25.0 44.6 Z" fill="none" stroke="#000000" stroke-linecap="round" stroke-linejoin="round" stroke-opacity="0.3019608" stroke-width="0.30000000000000004"/>
      <path d="M20.9 44.7 L21.2 44.8 19.5 46.5 19.05 46.75 17.85 47.1 18.05 47.6 17.5 47.15 16.55 46.95 16.55 46.3 16.9 44.95 16.8 45.75 Q16.7 47.1 17.9 46.75 L18.9 46.5 Q19.9 46.0 20.9 44.7 M12.55 41.2 L12.85 41.35 12.1 42.75 11.5 43.55 11.1 43.95 Q10.5 44.4 10.1 44.35 L10.0 44.3 10.25 45.2 9.45 44.05 9.1 43.65 9.0 43.2 8.9 42.95 Q8.55 41.35 9.3 39.75 L9.2 40.45 Q9.05 41.65 9.3 42.55 9.45 43.35 9.9 43.8 10.35 44.1 11.05 43.45 L11.75 42.5 12.55 41.2" fill="#ffff98" fill-rule="evenodd" stroke="none"/>
      <path d="M16.9 44.95 L17.7 43.4 19.6 44.2 Q19.75 45.65 18.8 46.15 L18.5 46.25 Q17.4 46.7 16.8 45.75 L16.9 44.95 M9.3 39.75 L11.55 40.8 Q11.8 41.7 11.5 42.3 L10.95 42.85 Q9.95 43.45 9.3 42.55 9.05 41.65 9.2 40.45 L9.3 39.75" fill="#ffde4f" fill-rule="evenodd" stroke="none"/>
      <path d="M18.3 48.15 Q17.2 48.05 16.75 47.4 L16.55 46.95 17.5 47.15 18.05 47.6 18.3 48.15 M19.6 44.2 L20.9 44.7 Q19.9 46.0 18.9 46.5 L17.9 46.75 Q16.7 47.1 16.8 45.75 17.4 46.7 18.5 46.25 L18.8 46.15 Q19.75 45.65 19.6 44.2 M10.25 45.2 L9.4 44.45 9.1 43.65 9.45 44.05 10.25 45.2 M11.55 40.8 L12.55 41.2 11.75 42.5 11.05 43.45 Q10.35 44.1 9.9 43.8 9.45 43.35 9.3 42.55 9.95 43.45 10.95 42.85 L11.5 42.3 Q11.8 41.7 11.55 40.8" fill="#f4a33c" fill-rule="evenodd" stroke="none"/>
      <path d="M21.2 44.8 L21.55 46.15 20.2 47.55 19.5 47.95 19.45 47.95 19.1 47.5 19.15 47.05 19.5 46.5 21.2 44.8 M12.85 41.35 L13.1 42.95 12.9 43.4 12.2 44.45 11.25 45.2 Q11.0 45.0 11.1 44.45 L11.15 44.35 11.5 43.55 12.1 42.75 12.85 41.35" fill="#cc6b22" fill-rule="evenodd" stroke="none"/>
      <path d="M19.45 47.95 L18.8 48.1 18.5 48.15 18.3 48.15 18.05 47.6 17.85 47.1 19.05 46.75 19.5 46.5 19.15 47.05 19.1 47.5 19.45 47.95 M11.25 45.2 L10.6 45.35 10.25 45.2 10.0 44.3 10.1 44.35 Q10.5 44.4 11.1 43.95 L11.5 43.55 11.15 44.35 11.1 44.45 Q11.0 45.0 11.25 45.2" fill="#a34100" fill-rule="evenodd" stroke="none"/>
      <path d="M20.9 44.7 L21.2 44.8 21.55 46.15 20.2 47.55 19.5 47.95 19.45 47.95 18.8 48.1 18.5 48.15 18.3 48.15 Q17.2 48.05 16.75 47.4 L16.55 46.95 16.55 46.3 16.9 44.95 17.7 43.4 19.6 44.2 20.9 44.7 M12.55 41.2 L12.85 41.35 13.1 42.95 12.9 43.4 12.2 44.45 11.25 45.2 10.6 45.35 10.25 45.2 9.4 44.45 9.1 43.65 9.0 43.2 8.9 42.95 Q8.55 41.35 9.3 39.75 L11.55 40.8 12.55 41.2 M9.0 43.2 L9.1 43.65" fill="none" stroke="#000000" stroke-linecap="round" stroke-linejoin="round" stroke-opacity="0.3019608" stroke-width="0.30000000000000004"/>
      <path d="M14.2 37.1 L13.7 35.2 13.85 34.95 17.2 36.5 15.65 38.75 Q14.8 38.5 14.2 37.1 M12.65 37.25 Q13.35 37.85 13.3 39.55 L11.85 38.9 12.65 37.25" fill="#ffde4f" fill-rule="evenodd" stroke="none"/>
      <path d="M13.7 35.2 L14.2 37.1 Q14.6 38.45 15.3 39.3 L14.75 40.15 13.3 39.55 Q13.35 37.85 12.65 37.25 L13.25 35.95 13.7 35.2 M15.05 41.15 L15.0 40.6 17.2 36.5 15.05 41.15" fill="#f4a33c" fill-rule="evenodd" stroke="none"/>
      <path d="M14.2 37.1 Q14.8 38.5 15.65 38.75 L17.2 36.5 15.0 40.6 15.05 41.15 14.55 40.4 11.35 39.05 13.25 35.95 12.65 37.25 11.85 38.9 13.3 39.55 14.75 40.15 15.3 39.3 Q14.6 38.45 14.2 37.1" fill="#ffff98" fill-rule="evenodd" stroke="none"/>
      <path d="M15.05 41.15 L11.5 39.8 11.35 39.05 14.55 40.4 15.05 41.15" fill="#cc6b22" fill-rule="evenodd" stroke="none"/>
      <path d="M13.85 34.95 L13.7 35.2 13.25 35.95 11.35 39.05 11.5 39.8 15.05 41.15 17.2 36.5" fill="none" stroke="#000000" stroke-linecap="round" stroke-linejoin="round" stroke-opacity="0.3019608" stroke-width="0.30000000000000004"/>
      <path d="M18.45 38.7 L17.95 36.8 18.1 36.55 21.45 38.1 19.9 40.35 Q19.05 40.1 18.45 38.7 M16.9 38.85 Q17.6 39.45 17.55 41.15 L16.1 40.5 16.9 38.85" fill="#ffde4f" fill-rule="evenodd" stroke="none"/>
      <path d="M17.95 36.8 L18.45 38.7 Q18.85 40.05 19.55 40.9 L19.0 41.75 17.55 41.15 Q17.6 39.45 16.9 38.85 L17.5 37.55 17.95 36.8 M21.45 38.1 L19.3 42.75 19.25 42.2 21.45 38.1" fill="#f4a33c" fill-rule="evenodd" stroke="none"/>
      <path d="M18.45 38.7 Q19.05 40.1 19.9 40.35 L21.45 38.1 19.25 42.2 19.3 42.75 18.8 42.0 15.6 40.65 17.5 37.55 16.9 38.85 16.1 40.5 17.55 41.15 19.0 41.75 19.55 40.9 Q18.85 40.05 18.45 38.7" fill="#ffff98" fill-rule="evenodd" stroke="none"/>
      <path d="M19.3 42.75 L15.75 41.4 15.6 40.65 18.8 42.0 19.3 42.75" fill="#cc6b22" fill-rule="evenodd" stroke="none"/>
      <path d="M18.1 36.55 L17.95 36.8 17.5 37.55 15.6 40.65 15.75 41.4 19.3 42.75 21.45 38.1" fill="none" stroke="#000000" stroke-linecap="round" stroke-linejoin="round" stroke-opacity="0.3019608" stroke-width="0.30000000000000004"/>
      <path d="M16.0 35.4 Q16.75 36.0 16.7 37.7 L15.25 37.05 16.0 35.4 M17.55 35.2 Q17.25 34.35 17.1 33.35 L17.2 33.1 20.55 34.65 19.0 36.9 Q18.15 36.65 17.55 35.2" fill="#ffde4f" fill-rule="evenodd" stroke="none"/>
      <path d="M16.0 35.4 L16.65 34.1 17.1 33.35 Q17.25 34.35 17.55 35.2 18.0 36.6 18.7 37.45 L18.15 38.35 16.7 37.7 Q16.75 36.0 16.0 35.4 M18.45 39.3 L18.35 38.75 20.55 34.65 18.45 39.3" fill="#f4a33c" fill-rule="evenodd" stroke="none"/>
      <path d="M16.65 34.1 L16.0 35.4 15.25 37.05 16.7 37.7 18.15 38.35 18.7 37.45 Q18.0 36.6 17.55 35.2 18.15 36.65 19.0 36.9 L20.55 34.65 18.35 38.75 18.45 39.3 17.9 38.55 14.75 37.2 16.65 34.1" fill="#ffff98" fill-rule="evenodd" stroke="none"/>
      <path d="M14.75 37.2 L17.9 38.55 18.45 39.3 14.9 37.95 14.75 37.2" fill="#cc6b22" fill-rule="evenodd" stroke="none"/>
      <path d="M17.1 33.35 L16.65 34.1 14.75 37.2 14.9 37.95 18.45 39.3 20.55 34.65 M17.2 33.1 L17.1 33.35 Z" fill="none" stroke="#000000" stroke-linecap="round" stroke-linejoin="round" stroke-opacity="0.3019608" stroke-width="0.30000000000000004"/>
      <path d="M17.35 32.0 L16.85 30.1 17.0 29.85 20.35 31.4 18.8 33.65 Q17.95 33.4 17.35 32.0 M15.8 32.15 Q16.5 32.75 16.45 34.45 L15.0 33.8 15.8 32.15" fill="#ffde4f" fill-rule="evenodd" stroke="none"/>
      <path d="M16.85 30.1 L17.35 32.0 Q17.75 33.35 18.45 34.2 L17.9 35.05 16.45 34.45 Q16.5 32.75 15.8 32.15 L16.4 30.85 16.85 30.1 M20.35 31.4 L18.2 36.05 18.15 35.5 20.35 31.4" fill="#f4a33c" fill-rule="evenodd" stroke="none"/>
      <path d="M17.35 32.0 Q17.95 33.4 18.8 33.65 L20.35 31.4 18.15 35.5 18.2 36.05 17.7 35.3 14.5 33.95 16.4 30.85 15.8 32.15 15.0 33.8 16.45 34.45 17.9 35.05 18.45 34.2 Q17.75 33.35 17.35 32.0" fill="#ffff98" fill-rule="evenodd" stroke="none"/>
      <path d="M18.2 36.05 L14.65 34.7 14.5 33.95 17.7 35.3 18.2 36.05" fill="#cc6b22" fill-rule="evenodd" stroke="none"/>
      <path d="M17.0 29.85 L16.85 30.1 16.4 30.85 14.5 33.95 14.65 34.7 18.2 36.05 20.35 31.4" fill="none" stroke="#000000" stroke-linecap="round" stroke-linejoin="round" stroke-opacity="0.3019608" stroke-width="0.30000000000000004"/>
      <path d="M11.3 36.55 L11.05 34.7 11.25 34.55 14.85 36.15 12.7 38.25 Q11.75 37.95 11.3 36.55 M9.55 36.6 Q10.2 37.25 9.9 38.85 L8.35 38.2 9.55 36.6" fill="#ffde4f" fill-rule="evenodd" stroke="none"/>
      <path d="M11.05 34.7 L11.3 36.55 Q11.55 37.9 12.25 38.75 L11.45 39.5 9.9 38.85 Q10.2 37.25 9.55 36.6 L10.4 35.45 11.05 34.7 M14.85 36.15 L11.65 40.5 11.65 39.95 14.85 36.15" fill="#f4a33c" fill-rule="evenodd" stroke="none"/>
      <path d="M11.3 36.55 Q11.75 37.95 12.7 38.25 L14.85 36.15 11.65 39.95 11.65 40.5 11.2 39.75 7.75 38.3 10.4 35.45 9.55 36.6 8.35 38.2 9.9 38.85 11.45 39.5 12.25 38.75 Q11.55 37.9 11.3 36.55" fill="#ffff98" fill-rule="evenodd" stroke="none"/>
      <path d="M11.65 40.5 L7.8 39.05 7.75 38.3 11.2 39.75 11.65 40.5" fill="#cc6b22" fill-rule="evenodd" stroke="none"/>
      <path d="M11.25 34.55 L11.05 34.7 10.4 35.45 7.75 38.3 7.8 39.05 11.65 40.5 14.85 36.15" fill="none" stroke="#000000" stroke-linecap="round" stroke-linejoin="round" stroke-opacity="0.3019608" stroke-width="0.30000000000000004"/>
      <path d="M15.45 37.9 L15.6 37.7 19.25 39.3 17.3 41.45 Q16.35 41.15 15.85 39.7 L15.45 37.9 M14.65 42.1 L13.05 41.45 14.1 39.85 Q14.85 40.45 14.65 42.1" fill="#ffde4f" fill-rule="evenodd" stroke="none"/>
      <path d="M14.9 38.6 L15.45 37.9 15.85 39.7 Q16.2 41.1 16.9 41.95 L16.2 42.75 14.65 42.1 Q14.85 40.45 14.1 39.85 L14.9 38.6 M19.25 39.3 L16.45 43.75 16.45 43.2 19.25 39.3" fill="#f4a33c" fill-rule="evenodd" stroke="none"/>
      <path d="M16.45 43.75 L15.95 43.0 12.45 41.55 14.9 38.6 14.1 39.85 13.05 41.45 14.65 42.1 16.2 42.75 16.9 41.95 Q16.2 41.1 15.85 39.7 16.35 41.15 17.3 41.45 L19.25 39.3 16.45 43.2 16.45 43.75" fill="#ffff98" fill-rule="evenodd" stroke="none"/>
      <path d="M16.45 43.75 L12.6 42.3 12.45 41.55 15.95 43.0 16.45 43.75" fill="#cc6b22" fill-rule="evenodd" stroke="none"/>
      <path d="M12.45 41.55 L12.6 42.3 16.45 43.75 19.25 39.3 M12.45 41.55 L14.9 38.6 15.45 37.9 15.6 37.7" fill="none" stroke="#000000" stroke-linecap="round" stroke-linejoin="round" stroke-opacity="0.3019608" stroke-width="0.30000000000000004"/>
      <path d="M20.55 40.45 L20.05 38.55 20.2 38.3 23.55 39.85 22.0 42.1 Q21.15 41.85 20.55 40.45 M19.0 40.6 Q19.7 41.2 19.65 42.9 L18.2 42.25 19.0 40.6" fill="#ffde4f" fill-rule="evenodd" stroke="none"/>
      <path d="M20.05 38.55 L20.55 40.45 Q20.95 41.8 21.65 42.65 L21.1 43.5 19.65 42.9 Q19.7 41.2 19.0 40.6 L19.6 39.3 20.05 38.55 M23.55 39.85 L21.4 44.5 21.35 43.95 23.55 39.85" fill="#f4a33c" fill-rule="evenodd" stroke="none"/>
      <path d="M20.55 40.45 Q21.15 41.85 22.0 42.1 L23.55 39.85 21.35 43.95 21.4 44.5 20.9 43.75 17.7 42.4 19.6 39.3 19.0 40.6 18.2 42.25 19.65 42.9 21.1 43.5 21.65 42.65 Q20.95 41.8 20.55 40.45" fill="#ffff98" fill-rule="evenodd" stroke="none"/>
      <path d="M21.4 44.5 L17.85 43.15 17.7 42.4 20.9 43.75 21.4 44.5" fill="#cc6b22" fill-rule="evenodd" stroke="none"/>
      <path d="M20.2 38.3 L20.05 38.55 19.6 39.3 17.7 42.4 17.85 43.15 21.4 44.5 23.55 39.85" fill="none" stroke="#000000" stroke-linecap="round" stroke-linejoin="round" stroke-opacity="0.3019608" stroke-width="0.30000000000000004"/>
      <path d="M19.65 37.7 L19.15 35.8 19.3 35.55 22.65 37.1 21.1 39.35 Q20.25 39.1 19.65 37.7 M18.1 37.85 Q18.8 38.45 18.75 40.15 L17.3 39.5 18.1 37.85" fill="#ffde4f" fill-rule="evenodd" stroke="none"/>
      <path d="M19.15 35.8 L19.65 37.7 Q20.05 39.05 20.75 39.9 L20.2 40.75 18.75 40.15 Q18.8 38.45 18.1 37.85 L18.7 36.55 19.15 35.8 M20.5 41.75 L20.45 41.2 22.65 37.1 20.5 41.75" fill="#f4a33c" fill-rule="evenodd" stroke="none"/>
      <path d="M19.65 37.7 Q20.25 39.1 21.1 39.35 L22.65 37.1 20.45 41.2 20.5 41.75 20.0 41.0 16.8 39.65 18.7 36.55 18.1 37.85 17.3 39.5 18.75 40.15 20.2 40.75 20.75 39.9 Q20.05 39.05 19.65 37.7" fill="#ffff98" fill-rule="evenodd" stroke="none"/>
      <path d="M20.5 41.75 L16.95 40.4 16.8 39.65 20.0 41.0 20.5 41.75" fill="#cc6b22" fill-rule="evenodd" stroke="none"/>
      <path d="M19.3 35.55 L19.15 35.8 18.7 36.55 16.8 39.65 16.95 40.4 20.5 41.75 22.65 37.1" fill="none" stroke="#000000" stroke-linecap="round" stroke-linejoin="round" stroke-opacity="0.3019608" stroke-width="0.30000000000000004"/>
      <path d="M15.25 35.1 L15.0 33.3 15.15 33.05 18.45 34.6 16.55 36.75 Q15.7 36.5 15.25 35.1 M13.65 35.25 Q14.3 35.85 14.0 37.45 L12.6 36.8 13.65 35.25" fill="#ffde4f" fill-rule="evenodd" stroke="none"/>
      <path d="M15.0 33.3 L15.25 35.1 Q15.5 36.45 16.1 37.25 L15.45 38.1 14.0 37.45 Q14.3 35.85 13.65 35.25 L14.4 34.0 15.0 33.3 M18.45 34.6 L15.65 39.05 15.6 38.5 18.45 34.6" fill="#f4a33c" fill-rule="evenodd" stroke="none"/>
      <path d="M15.25 35.1 Q15.7 36.5 16.55 36.75 L18.45 34.6 15.6 38.5 15.65 39.05 15.2 38.3 12.05 37.0 14.4 34.0 13.65 35.25 12.6 36.8 14.0 37.45 15.45 38.1 16.1 37.25 Q15.5 36.45 15.25 35.1" fill="#ffff98" fill-rule="evenodd" stroke="none"/>
      <path d="M15.65 39.05 L12.1 37.65 12.05 37.0 15.2 38.3 15.65 39.05" fill="#cc6b22" fill-rule="evenodd" stroke="none"/>
      <path d="M15.15 33.05 L15.0 33.3 14.4 34.0 12.05 37.0 12.1 37.65 15.65 39.05 18.45 34.6" fill="none" stroke="#000000" stroke-linecap="round" stroke-linejoin="round" stroke-opacity="0.3019608" stroke-width="0.30000000000000004"/>
      <path d="M13.95 32.75 L13.95 31.2 14.2 31.05 17.7 32.6 15.25 34.3 Q14.3 34.0 13.95 32.75 M12.15 32.75 Q12.75 33.35 12.2 34.7 L10.75 34.05 12.15 32.75" fill="#ffde4f" fill-rule="evenodd" stroke="none"/>
      <path d="M13.95 31.2 L13.95 32.75 Q14.1 33.95 14.65 34.7 L13.75 35.3 12.2 34.7 Q12.75 33.35 12.15 32.75 L13.2 31.8 13.95 31.2 M13.8 36.15 L13.9 35.65 17.7 32.6 13.8 36.15" fill="#f4a33c" fill-rule="evenodd" stroke="none"/>
      <path d="M13.95 32.75 Q14.3 34.0 15.25 34.3 L17.7 32.6 13.9 35.65 13.8 36.15 13.45 35.5 10.1 34.1 13.2 31.8 12.15 32.75 10.75 34.05 12.2 34.7 13.75 35.3 14.65 34.7 Q14.1 33.95 13.95 32.75" fill="#ffff98" fill-rule="evenodd" stroke="none"/>
      <path d="M13.8 36.15 L10.0 34.75 10.1 34.1 13.45 35.5 13.8 36.15" fill="#cc6b22" fill-rule="evenodd" stroke="none"/>
      <path d="M14.2 31.05 L13.95 31.2 13.2 31.8 10.1 34.1 10.0 34.75 13.8 36.15 17.7 32.6" fill="none" stroke="#000000" stroke-linecap="round" stroke-linejoin="round" stroke-opacity="0.3019608" stroke-width="0.30000000000000004"/>
      <path d="M20.35 33.45 L19.95 31.55 20.15 31.35 23.75 33.0 21.85 35.2 Q20.9 34.85 20.35 33.45 M18.65 33.5 Q19.35 34.2 19.15 35.8 L17.6 35.15 18.65 33.5" fill="#ffde4f" fill-rule="evenodd" stroke="none"/>
      <path d="M19.95 31.55 L20.35 33.45 Q20.7 34.8 21.45 35.7 L20.7 36.45 19.15 35.8 Q19.35 34.2 18.65 33.5 L19.4 32.3 19.95 31.55 M23.75 33.0 L21.0 37.5 20.95 36.9 23.75 33.0" fill="#f4a33c" fill-rule="evenodd" stroke="none"/>
      <path d="M20.35 33.45 Q20.9 34.85 21.85 35.2 L23.75 33.0 20.95 36.9 21.0 37.5 20.5 36.7 17.05 35.25 19.4 32.3 18.65 33.5 17.6 35.15 19.15 35.8 20.7 36.45 21.45 35.7 Q20.7 34.8 20.35 33.45" fill="#ffff98" fill-rule="evenodd" stroke="none"/>
      <path d="M21.0 37.5 L17.1 36.0 17.05 35.25 20.5 36.7 21.0 37.5" fill="#cc6b22" fill-rule="evenodd" stroke="none"/>
      <path d="M20.15 31.35 L19.95 31.55 19.4 32.3 17.05 35.25 17.1 36.0 21.0 37.5 23.75 33.0" fill="none" stroke="#000000" stroke-linecap="round" stroke-linejoin="round" stroke-opacity="0.3019608" stroke-width="0.30000000000000004"/>
      <path d="M23.55 36.0 L22.95 34.1 23.15 33.85 26.6 35.4 25.1 37.75 Q24.25 37.5 23.55 36.0 M21.95 36.2 Q22.75 36.8 22.75 38.5 L21.3 37.9 21.95 36.2" fill="#ffde4f" fill-rule="evenodd" stroke="none"/>
      <path d="M22.95 34.1 L23.55 36.0 Q24.05 37.4 24.75 38.3 L24.25 39.15 22.75 38.5 Q22.75 36.8 21.95 36.2 L22.55 34.9 22.95 34.1 M24.6 40.2 L24.5 39.6 26.6 35.4 24.6 40.2" fill="#f4a33c" fill-rule="evenodd" stroke="none"/>
      <path d="M23.55 36.0 Q24.25 37.5 25.1 37.75 L26.6 35.4 24.5 39.6 24.6 40.2 24.05 39.45 20.75 38.05 22.55 34.9 21.95 36.2 21.3 37.9 22.75 38.5 24.25 39.15 24.75 38.3 Q24.05 37.4 23.55 36.0" fill="#ffff98" fill-rule="evenodd" stroke="none"/>
      <path d="M24.6 40.2 L20.9 38.75 20.75 38.05 24.05 39.45 24.6 40.2" fill="#cc6b22" fill-rule="evenodd" stroke="none"/>
      <path d="M23.15 33.85 L22.95 34.1 22.55 34.9 20.75 38.05 20.9 38.75 24.6 40.2 26.6 35.4" fill="none" stroke="#000000" stroke-linecap="round" stroke-linejoin="round" stroke-opacity="0.3019608" stroke-width="0.30000000000000004"/>
      <path d="M15.75 18.7 L16.35 17.7 Q16.25 17.25 16.65 17.2 L17.6 15.45 19.1 13.65 Q19.2 13.05 19.6 13.25 L19.9 13.05 Q20.4 12.65 21.0 12.35 21.7 12.05 22.45 11.85 L23.05 11.65 24.1 11.45 24.55 11.35 25.05 11.35 25.7 11.3 28.85 11.75 29.55 12.0 Q29.85 11.85 30.05 12.15 L30.3 12.3 30.35 12.3 30.4 12.3 30.75 12.45 31.1 12.65 31.25 12.7 31.9 13.1 32.05 13.2 22.4 16.9 Q18.45 18.35 15.75 18.7" fill="#f0f0d2" fill-rule="evenodd" stroke="none"/>
      <path d="M32.05 13.2 L34.05 14.85 34.05 14.8 Q34.55 14.7 34.4 15.15 L34.35 15.2 34.45 15.25 34.7 15.6 35.45 17.1 35.5 17.2 35.85 18.3 33.9 18.75 Q32.4 19.25 31.0 19.95 29.7 20.5 28.5 21.3 26.4 22.6 24.45 24.5 L15.05 20.0 15.25 19.65 22.4 16.9 32.05 13.2" fill="#d5d580" fill-rule="evenodd" stroke="none"/>
      <path d="M33.05 28.5 L33.75 29.45 16.0 20.85 15.05 20.0 24.45 24.5 33.05 28.5" fill="#a6a637" fill-rule="evenodd" stroke="none"/>
      <path d="M15.25 19.65 L15.75 18.7 Q18.45 18.35 22.4 16.9 L15.25 19.65" fill="#ffffff" fill-rule="evenodd" stroke="none"/>
      <path d="M35.85 18.3 L35.9 18.45 36.05 19.25 36.1 19.8 36.1 20.1 Q36.5 20.25 36.1 20.7 L35.95 21.65 35.5 23.25 35.3 23.55 35.2 23.85 34.8 24.55 Q35.0 25.15 34.4 25.3 L32.8 28.2 33.05 28.5 24.45 24.5 Q26.4 22.6 28.5 21.3 29.7 20.5 31.0 19.95 32.4 19.25 33.9 18.75 L35.85 18.3" fill="#e6e4b3" fill-rule="evenodd" stroke="none"/>
      <path d="M33.75 29.45 L16.0 20.85" fill="none" stroke="#000000" stroke-linecap="round" stroke-linejoin="round" stroke-opacity="0.3019608" stroke-width="0.30000000000000004"/>
      <path d="M16.2 6.3 L16.95 5.95 17.65 8.05 19.15 12.55 19.6 13.25 Q19.2 13.05 19.1 13.65 L18.95 13.1 18.55 12.6 18.0 11.0 17.55 9.9 16.2 6.3 M24.25 4.15 L24.8 4.1 25.0 4.1 24.9 4.9 24.3 10.5 24.55 11.35 24.1 11.45 23.85 10.55 24.0 7.55 24.2 4.6 24.25 4.15 M32.1 5.45 Q32.1 6.1 32.85 5.8 L29.75 11.5 30.05 12.15 Q29.85 11.85 29.55 12.0 L29.35 11.35 32.1 5.45 M16.65 17.2 Q16.25 17.25 16.35 17.7 L15.9 17.35 15.5 16.9 12.65 14.15 12.45 13.9 10.55 12.05 10.8 11.6 11.0 11.3 13.05 13.45 13.25 13.6 15.8 16.35 15.95 16.65 16.65 17.2 M15.8 21.35 L10.15 18.65 8.0 16.65 8.15 16.7 11.55 18.3 12.55 18.8 14.05 19.55 14.65 20.1 15.8 21.35" fill="#a6a637" fill-rule="evenodd" stroke="none"/>
      <path d="M16.95 5.95 L18.3 5.35 Q19.3 4.95 20.45 4.7 L23.4 4.15 24.25 4.15 24.2 4.6 18.25 9.3 17.65 8.05 16.95 5.95 M8.0 16.65 L10.55 12.05 12.45 13.9 11.1 15.0 8.15 16.7 8.0 16.65 M11.0 11.3 Q12.95 8.1 16.2 6.3 L17.55 9.9 13.05 13.45 11.0 11.3 M11.55 18.3 L15.4 17.1 14.6 18.55 Q13.65 19.15 12.55 18.8 L11.55 18.3" fill="#f0f0d2" fill-rule="evenodd" stroke="none"/>
      <path d="M18.55 12.6 L18.95 13.1 Q17.7 13.6 15.95 16.65 L15.8 16.35 13.25 13.6 13.35 13.65 16.1 15.8 16.7 14.7 Q17.5 13.5 18.55 12.6 M24.9 4.9 L24.9 7.1 24.9 9.75 27.75 10.8 25.0 10.45 24.95 10.45 24.3 10.5 24.9 4.9 M15.4 17.1 L15.5 16.9 15.9 17.35 Q14.65 18.7 14.65 20.1 L14.05 19.55 12.55 18.8 Q13.65 19.15 14.6 18.55 L15.4 17.1 M18.9 10.55 L19.55 11.9 20.2 11.55 21.85 10.95 22.3 10.8 23.85 10.55 Q22.85 10.75 21.95 11.05 20.35 11.6 19.15 12.55 L17.65 8.05 18.25 9.3 18.9 10.55" fill="#ffffff" fill-rule="evenodd" stroke="none"/>
      <path d="M25.0 4.1 L29.1 4.55 24.9 7.1 24.9 4.9 25.0 4.1 M17.55 9.9 L18.0 11.0 13.35 13.65 13.25 13.6 13.05 13.45 17.55 9.9 M24.2 4.6 L24.0 7.55 18.9 10.55 18.25 9.3 24.2 4.6 M11.1 15.0 L12.45 13.9 12.65 14.15 11.1 15.0" fill="#f9f8ec" fill-rule="evenodd" stroke="none"/>
      <path d="M29.1 4.55 L32.1 5.45 29.35 11.35 28.25 10.9 27.75 10.8 24.9 9.75 24.9 7.1 29.1 4.55 M24.1 11.45 L23.05 11.65 22.45 11.85 Q21.7 12.05 21.0 12.35 20.4 12.65 19.9 13.05 L19.6 13.25 19.15 12.55 Q20.35 11.6 21.95 11.05 22.85 10.75 23.85 10.55 L22.3 10.8 21.85 10.95 20.2 11.55 19.55 11.9 18.9 10.55 24.0 7.55 23.85 10.55 24.1 11.45 M19.1 13.65 L17.6 15.45 16.65 17.2 15.95 16.65 Q17.7 13.6 18.95 13.1 L19.1 13.65 M18.0 11.0 L18.55 12.6 Q17.5 13.5 16.7 14.7 L16.1 15.8 13.35 13.65 18.0 11.0 M11.1 15.0 L12.65 14.15 15.5 16.9 15.4 17.1 11.55 18.3 8.15 16.7 11.1 15.0" fill="#e6e4b3" fill-rule="evenodd" stroke="none"/>
      <path d="M29.55 12.0 L28.85 11.75 25.7 11.3 25.05 11.35 24.55 11.35 24.3 10.5 24.95 10.45 25.0 10.45 27.75 10.8 28.25 10.9 29.35 11.35 29.55 12.0 M16.35 17.7 L15.05 20.0 16.0 20.85 15.8 21.35 14.65 20.1 Q14.65 18.7 15.9 17.35 L16.35 17.7" fill="#d5d580" fill-rule="evenodd" stroke="none"/>
      <path d="M16.2 6.3 L16.95 5.95 18.3 5.35 Q19.3 4.95 20.45 4.7 L23.4 4.15 24.25 4.15 24.8 4.1 25.0 4.1 29.1 4.55 32.1 5.45 Q32.1 6.1 32.85 5.8 M30.05 12.15 Q29.85 11.85 29.55 12.0 L28.85 11.75 25.7 11.3 25.05 11.35 24.55 11.35 24.1 11.45 23.05 11.65 22.45 11.85 Q21.7 12.05 21.0 12.35 20.4 12.65 19.9 13.05 L19.6 13.25 Q19.2 13.05 19.1 13.65 L17.6 15.45 16.65 17.2 Q16.25 17.25 16.35 17.7 L15.05 20.0 16.0 20.85 15.8 21.35 10.15 18.65 8.0 16.65 10.55 12.05 10.8 11.6 11.0 11.3 Q12.95 8.1 16.2 6.3 L17.55 9.9 18.0 11.0 18.55 12.6 18.95 13.1 19.1 13.65 M24.9 4.9 L24.3 10.5 24.55 11.35 M24.9 4.9 L25.0 4.1 M12.65 14.15 L12.45 13.9 10.55 12.05 M8.0 16.65 L8.15 16.7 M15.5 16.9 L12.65 14.15 M15.9 17.35 L16.35 17.7 M15.9 17.35 L15.5 16.9" fill="none" stroke="#000000" stroke-linecap="round" stroke-linejoin="round" stroke-opacity="0.3019608" stroke-width="0.30000000000000004"/>
      <path d="M10.65 31.2 L10.35 31.25 8.4 30.1 7.55 29.55 6.4 29.75 7.6 29.2 7.45 28.0 7.3 26.3 Q7.1 27.2 6.55 27.5 L7.25 26.0 7.25 25.7 7.4 25.7 7.9 29.5 10.65 31.2" fill="#ffff98" fill-rule="evenodd" stroke="none"/>
      <path d="M7.25 25.7 L7.25 26.0 6.55 27.5 6.2 27.7 6.0 25.9 7.25 25.7 M7.45 28.0 L7.6 29.2 6.4 29.75 6.35 29.05 Q6.95 28.05 7.45 28.0" fill="#ffde4f" fill-rule="evenodd" stroke="none"/>
      <path d="M6.55 27.5 Q7.1 27.2 7.3 26.3 L7.45 28.0 Q6.95 28.05 6.35 29.05 L6.2 27.7 6.55 27.5 M8.4 30.1 L10.35 31.25 9.15 31.4 7.25 30.2 Q8.7 30.65 8.4 30.1" fill="#f4a33c" fill-rule="evenodd" stroke="none"/>
      <path d="M6.4 29.75 L7.55 29.55 8.4 30.1 Q8.7 30.65 7.25 30.2 L6.4 29.75" fill="#cc6b22" fill-rule="evenodd" stroke="none"/>
      <path d="M10.65 31.2 L7.9 29.5 7.4 25.7 9.65 27.2 10.65 31.2" fill="#a34100" fill-rule="evenodd" stroke="none"/>
      <path d="M10.35 31.25 L10.65 31.2 9.65 27.2 7.4 25.7 7.25 25.7 6.0 25.9 6.2 27.7 6.35 29.05 6.4 29.75 7.25 30.2 9.15 31.4 10.35 31.25 Z" fill="none" stroke="#000000" stroke-linecap="round" stroke-linejoin="round" stroke-opacity="0.3019608" stroke-width="0.05"/>
      <path d="M9.0 21.05 Q8.65 23.05 9.0 23.75 L10.25 23.35 10.6 23.2 11.1 23.05 12.65 22.15 11.05 23.15 10.7 23.35 10.15 23.6 10.1 23.65 14.15 23.1 17.2 22.65 17.1 22.9 8.7 24.25 Q8.65 24.55 10.0 25.65 L8.15 24.4 9.0 21.05 M17.0 24.6 L16.75 25.2 14.2 26.45 8.85 29.05 10.05 30.55 8.25 29.3 7.85 26.35 8.45 27.95 9.35 27.65 12.1 25.8 9.15 28.3 8.7 28.6 12.55 26.75 17.0 24.6" fill="#ffffff" fill-rule="evenodd" stroke="none"/>
      <path d="M12.65 22.15 L11.1 23.05 10.6 23.2 10.25 23.35 9.0 23.75 Q8.65 23.05 9.0 21.05 L13.75 20.75 12.65 22.15 M17.2 22.65 L14.15 23.1 Q15.5 22.15 16.85 21.3 L17.55 21.55 17.2 22.65 M7.85 26.35 L10.05 25.7 12.75 24.9 12.15 25.8 12.1 25.8 9.35 27.65 8.45 27.95 7.85 26.35 M17.3 23.5 L17.0 24.6 12.55 26.75 15.55 24.05 17.3 23.5" fill="#e6e4b3" fill-rule="evenodd" stroke="none"/>
      <path d="M13.0 29.05 L10.05 30.55 8.85 29.05 14.2 26.45 13.0 29.05" fill="#d5d580" fill-rule="evenodd" stroke="none"/>
      <path d="M14.15 23.1 L10.1 23.65 10.15 23.6 10.7 23.35 11.05 23.15 12.65 22.15 13.75 20.75 15.3 20.7 16.85 21.3 Q15.5 22.15 14.15 23.1 M12.55 26.75 L8.7 28.6 9.15 28.3 12.1 25.8 12.15 25.8 12.75 24.9 15.55 24.05 12.55 26.75" fill="#cac960" fill-rule="evenodd" stroke="none"/>
      <path d="M10.0 25.65 Q8.65 24.55 8.7 24.25 L17.1 22.9 17.3 23.5 15.55 24.05 12.75 24.9 10.05 25.7 10.0 25.65 M16.75 25.2 L15.9 27.6 13.0 29.05 14.2 26.45 16.75 25.2" fill="#a6a637" fill-rule="evenodd" stroke="none"/>
      <path d="M9.0 21.05 L8.15 24.4 10.0 25.65 10.05 25.7 12.75 24.9 15.55 24.05 17.3 23.5 17.0 24.6 16.75 25.2 15.9 27.6 13.0 29.05 10.05 30.55 8.25 29.3 7.85 26.35 10.05 25.7 M17.1 22.9 L17.2 22.65 17.55 21.55 16.85 21.3 15.3 20.7 13.75 20.75 9.0 21.05 M17.3 23.5 L17.1 22.9" fill="none" stroke="#000000" stroke-linecap="round" stroke-linejoin="round" stroke-opacity="0.3019608" stroke-width="0.30000000000000004"/>
      <path d="M23.7 30.35 L23.9 30.05 24.6 32.3 Q25.2 33.75 26.0 34.75 27.3 33.4 30.0 28.65 L30.15 28.8 30.2 28.85 29.2 30.55 26.75 34.55 26.05 35.4 Q25.25 36.0 24.35 36.05 L23.9 36.0 23.05 35.85 18.15 34.1 19.35 35.1 19.85 35.8 18.95 34.95 16.4 33.35 16.3 33.3 16.2 33.25 13.85 32.15 13.5 31.95 12.75 31.5 12.05 30.5 12.0 30.4 11.95 29.1 Q12.3 31.15 16.55 33.05 L18.3 33.75 Q22.2 35.25 24.05 35.4 L24.9 35.4 24.35 33.7 23.7 30.35" fill="#ffffff" fill-rule="evenodd" stroke="none"/>
      <path d="M15.7 21.75 L18.05 23.05 18.0 24.25 Q17.7 23.75 17.2 23.6 16.55 23.45 15.95 23.85 15.45 24.3 15.25 25.05 15.05 25.8 15.35 26.45 15.65 27.05 16.3 27.2 L16.6 27.25 17.5 26.95 17.85 26.6 Q17.5 29.9 16.55 33.05 12.3 31.15 11.95 29.1 L12.2 28.45 Q13.75 24.8 15.7 21.75" fill="#f0f0d2" fill-rule="evenodd" stroke="none"/>
      <path d="M23.9 30.05 L24.3 29.4 25.7 26.6 28.9 27.4 30.0 28.65 Q27.3 33.4 26.0 34.75 25.2 33.75 24.6 32.3 L23.9 30.05 M28.15 28.2 L27.6 27.6 27.25 27.45 Q26.6 27.3 26.0 27.7 25.5 28.1 25.3 28.8 L25.3 28.85 Q25.1 29.6 25.4 30.25 25.7 30.9 26.35 31.05 26.95 31.2 27.55 30.75 28.1 30.35 28.3 29.6 28.5 28.85 28.15 28.2 M27.8 38.25 L27.55 38.3 26.2 38.6 25.8 37.65 25.6 37.35 Q25.15 36.55 24.35 36.05 25.25 36.0 26.05 35.4 L26.25 36.55 Q26.65 37.8 27.8 38.25 M14.2 33.8 L13.0 32.6 Q12.35 31.75 12.05 30.5 L12.75 31.5 Q12.9 32.15 14.2 33.8" fill="#e6e4b3" fill-rule="evenodd" stroke="none"/>
      <path d="M18.05 23.05 L20.35 24.25 18.5 30.0 Q19.75 30.95 21.05 31.25 L22.95 31.4 23.7 30.35 24.35 33.7 24.9 35.4 24.05 35.4 Q22.2 35.25 18.3 33.75 L16.55 33.05 Q17.5 29.9 17.85 26.6 L18.25 25.8 18.3 25.3 18.1 24.35 18.0 24.25 18.05 23.05 M30.0 28.65 L31.1 26.65 31.45 26.8 30.2 28.85 30.15 28.8 30.0 28.65 M30.45 34.9 L28.75 37.35 27.8 38.25 Q26.65 37.8 26.25 36.55 L26.05 35.4 26.75 34.55 29.2 30.55 29.9 31.6 Q30.6 33.05 30.45 34.9" fill="#d5d580" fill-rule="evenodd" stroke="none"/>
      <path d="M32.2 31.6 L30.45 34.9 Q30.6 33.05 29.9 31.6 L29.2 30.55 30.2 28.85 Q30.75 29.25 31.3 29.35 31.85 30.3 32.2 31.6 M26.2 38.6 L25.1 38.45 24.9 38.35 23.5 37.95 20.15 36.65 19.85 35.8 19.35 35.1 18.15 34.1 23.05 35.85 23.9 36.0 24.35 36.05 Q25.15 36.55 25.6 37.35 L25.8 37.65 26.2 38.6" fill="#cac960" fill-rule="evenodd" stroke="none"/>
      <path d="M20.15 36.65 L15.45 34.5 14.4 33.9 14.2 33.8 Q12.9 32.15 12.75 31.5 L13.5 31.95 13.85 32.15 16.2 33.25 16.3 33.3 16.4 33.35 18.95 34.95 19.85 35.8 20.15 36.65" fill="#a6a637" fill-rule="evenodd" stroke="none"/>
      <path d="M18.05 23.05 L15.7 21.75 16.45 20.6 31.1 26.65 30.0 28.65 28.9 27.4 25.7 26.6 24.3 29.4 23.9 30.05 23.7 30.35 22.95 31.4 21.05 31.25 Q19.75 30.95 18.5 30.0 L20.35 24.25 18.05 23.05 M30.2 28.85 L31.45 26.8 33.55 29.2 32.2 31.6 Q31.85 30.3 31.3 29.35 30.75 29.25 30.2 28.85" fill="#b3b33c" fill-rule="evenodd" stroke="none"/>
      <path d="M17.85 26.6 L17.5 26.95 16.6 27.25 16.3 27.2 Q15.65 27.05 15.35 26.45 15.05 25.8 15.25 25.05 15.45 24.3 15.95 23.85 16.55 23.45 17.2 23.6 17.7 23.75 18.0 24.25 L18.1 24.35 18.3 25.3 18.25 25.8 17.85 26.6 M28.15 28.2 Q28.5 28.85 28.3 29.6 28.1 30.35 27.55 30.75 26.95 31.2 26.35 31.05 25.7 30.9 25.4 30.25 25.1 29.6 25.3 28.85 L25.3 28.8 Q25.5 28.1 26.0 27.7 26.6 27.3 27.25 27.45 L27.6 27.6 28.15 28.2" fill="#86862d" fill-rule="evenodd" stroke="none"/>
      <path d="M31.1 26.65 L16.45 20.6 15.7 21.75 Q13.75 24.8 12.2 28.45 L11.95 29.1 12.0 30.4 12.05 30.5 Q12.35 31.75 13.0 32.6 L14.2 33.8 14.4 33.9 15.45 34.5 20.15 36.65 23.5 37.95 24.9 38.35 25.1 38.45 26.2 38.6 27.55 38.3 27.8 38.25 28.75 37.35 30.45 34.9 32.2 31.6 33.55 29.2 31.45 26.8 31.1 26.65 Z" fill="none" stroke="#000000" stroke-linecap="round" stroke-linejoin="round" stroke-opacity="0.3019608" stroke-width="0.30000000000000004"/>
      <path d="M38.3 34.5 L38.5 34.75 35.45 36.6 Q35.05 36.95 35.75 38.85 L35.5 39.05 34.85 36.9 30.8 29.3 31.2 28.8 33.45 33.0 Q34.3 34.3 34.55 31.75 L34.5 31.7 34.55 31.75 Q34.75 33.75 34.05 34.15 L35.1 36.2 35.85 35.8 38.3 34.5 M29.55 38.8 L31.5 37.95 31.0 35.3 30.4 32.05 29.75 34.5 29.2 35.4 29.7 34.15 Q30.2 32.55 30.2 31.05 L30.05 30.05 30.3 29.55 31.95 38.3 33.0 40.2 31.65 38.4 28.85 39.1 29.55 38.8" fill="#ffffff" fill-rule="evenodd" stroke="none"/>
      <path d="M31.2 28.8 L31.55 28.3 33.8 28.45 34.4 29.2 Q34.65 31.35 34.5 31.7 L34.55 31.75 Q34.3 34.3 33.45 33.0 L31.2 28.8 M36.05 31.5 L38.3 34.5 35.85 35.8 35.7 33.25 Q35.75 32.15 36.05 31.5 M31.0 35.3 L31.5 37.95 29.55 38.8 Q29.8 37.15 30.15 36.3 30.55 35.45 31.0 35.3 M30.05 30.05 L30.2 31.05 Q30.2 32.55 29.7 34.15 L29.2 35.4 28.65 35.85 28.6 32.4 30.05 30.05" fill="#e6e4b3" fill-rule="evenodd" stroke="none"/>
      <path d="M38.5 34.75 L39.05 37.05 35.75 38.85 Q35.05 36.95 35.45 36.6 L38.5 34.75 M28.85 39.1 L31.65 38.4 33.0 40.2 29.5 41.05 28.6 39.15 28.85 39.1" fill="#d5d580" fill-rule="evenodd" stroke="none"/>
      <path d="M34.4 29.2 L36.05 31.5 Q35.75 32.15 35.7 33.25 L35.85 35.8 35.1 36.2 34.05 34.15 Q34.75 33.75 34.55 31.75 L34.5 31.7 Q34.65 31.35 34.4 29.2 M29.55 38.8 L28.85 39.1 28.6 39.15 28.65 35.85 29.2 35.4 29.75 34.5 30.4 32.05 31.0 35.3 Q30.55 35.45 30.15 36.3 29.8 37.15 29.55 38.8" fill="#cac960" fill-rule="evenodd" stroke="none"/>
      <path d="M35.5 39.05 L31.6 31.45 30.8 29.3 34.85 36.9 35.5 39.05 M33.0 40.2 L31.95 38.3 30.3 29.55 31.25 32.0 33.0 40.2" fill="#a6a637" fill-rule="evenodd" stroke="none"/>
      <path d="M31.2 28.8 L31.55 28.3 33.8 28.45 34.4 29.2 36.05 31.5 38.3 34.5 38.5 34.75 39.05 37.05 35.75 38.85 35.5 39.05 31.6 31.45 30.8 29.3 31.2 28.8 M30.3 29.55 L30.05 30.05 28.6 32.4 28.65 35.85 28.6 39.15 29.5 41.05 33.0 40.2 31.25 32.0 30.3 29.55" fill="none" stroke="#000000" stroke-linecap="round" stroke-linejoin="round" stroke-opacity="0.3019608" stroke-width="0.30000000000000004"/>
      <path d="M21.25 18.8 L20.55 17.9 20.4 17.5 20.05 17.05 20.6 17.6 21.25 18.8 M16.85 22.0 L17.75 22.0 18.95 21.7 Q19.5 21.7 19.35 22.35 L18.35 22.6 17.7 22.55 16.85 22.0 M15.4 18.7 Q15.6 18.1 16.1 17.55 16.9 16.75 17.95 16.65 18.75 16.55 19.3 16.95 L19.45 16.95 19.8 17.2 19.75 17.25 Q20.35 17.85 20.45 18.6 L19.75 19.75 Q19.0 20.55 18.0 20.65 L17.9 20.65 Q16.75 20.8 16.05 20.1 15.45 19.5 15.4 18.7" fill="#ffde4f" fill-rule="evenodd" stroke="none"/>
      <path d="M20.65 21.05 L20.6 19.7 20.7 18.95 20.55 17.95 20.55 17.9 21.25 18.8 21.3 19.55 20.75 21.15 20.65 21.05 M15.85 21.4 L16.25 21.75 16.85 22.0 17.7 22.55 Q16.95 22.5 16.35 21.9 L15.85 21.4" fill="#cc6b22" fill-rule="evenodd" stroke="none"/>
      <path d="M20.55 17.9 L20.55 17.95 20.7 18.95 20.6 19.7 20.65 21.05 Q20.4 20.8 20.45 20.15 L19.8 21.05 18.95 21.7 17.75 22.0 16.85 22.0 16.25 21.75 15.85 21.4 15.75 21.3 15.7 21.3 15.5 21.05 Q15.0 20.4 15.05 19.4 15.05 18.65 15.45 18.0 L15.95 17.35 Q16.8 16.45 18.0 16.35 L18.2 16.35 19.4 16.6 19.7 16.75 19.9 16.95 19.95 16.95 20.05 17.05 20.4 17.5 20.55 17.9 M15.4 18.7 L15.25 19.45 Q15.25 20.5 15.95 21.2 16.65 21.9 17.75 21.8 L17.85 21.8 Q18.85 21.7 19.6 20.9 20.4 20.1 20.45 19.0 L20.45 18.6 Q20.35 17.85 19.75 17.25 L19.8 17.2 19.45 16.95 19.3 16.95 Q18.75 16.55 17.95 16.65 16.9 16.75 16.1 17.55 15.6 18.1 15.4 18.7" fill="#ffff98" fill-rule="evenodd" stroke="none"/>
      <path d="M20.45 18.6 L20.45 19.0 Q20.4 20.1 19.6 20.9 18.85 21.7 17.85 21.8 L17.75 21.8 Q16.65 21.9 15.95 21.2 15.25 20.5 15.25 19.45 L15.4 18.7 Q15.45 19.5 16.05 20.1 16.75 20.8 17.9 20.65 L18.0 20.65 Q19.0 20.55 19.75 19.75 L20.45 18.6" fill="#f4a33c" fill-rule="evenodd" stroke="none"/>
      <path d="M20.65 21.05 L20.75 21.15 20.4 21.65 19.35 22.35 Q19.5 21.7 18.95 21.7 L19.8 21.05 20.45 20.15 Q20.4 20.8 20.65 21.05" fill="#a34100" fill-rule="evenodd" stroke="none"/>
      <path d="M20.75 21.15 L21.3 19.55 21.25 18.8 20.6 17.6 20.05 17.05 19.95 16.95 19.9 16.95 19.7 16.75 19.4 16.6 18.2 16.35 18.0 16.35 Q16.8 16.45 15.95 17.35 L15.45 18.0 Q15.05 18.65 15.05 19.4 15.0 20.4 15.5 21.05 L15.7 21.3 15.75 21.3 15.85 21.4 16.35 21.9 Q16.95 22.5 17.7 22.55 L18.35 22.6 19.35 22.35 20.4 21.65 20.75 21.15 Z" fill="none" stroke="#000000" stroke-linecap="round" stroke-linejoin="round" stroke-opacity="0.3019608" stroke-width="0.30000000000000004"/>
    </g>
    <g id="shape1" transform="matrix(1.0, 0.0, 0.0, 1.0, -18.35, -10.9)">
      <path d="M24.1 12.35 L24.65 12.9 Q25.2 13.4 25.3 14.1 L24.6 13.2 24.45 12.8 24.1 12.35 M23.4 17.65 L22.4 17.9 21.75 17.85 20.9 17.3 21.8 17.3 23.0 17.0 Q23.55 17.0 23.4 17.65 M19.45 14.0 Q19.65 13.4 20.15 12.85 20.95 12.05 22.0 11.95 22.8 11.85 23.35 12.25 L23.5 12.25 23.85 12.5 23.8 12.55 Q24.4 13.15 24.5 13.9 L23.8 15.05 22.05 15.95 21.95 15.95 Q20.8 16.1 20.1 15.4 19.5 14.8 19.45 14.0" fill="#ffde4f" fill-rule="evenodd" stroke="none"/>
      <path d="M25.3 14.1 L25.35 14.85 24.8 16.45 24.7 16.35 24.65 15.0 24.75 14.25 24.6 13.25 24.6 13.2 25.3 14.1 M21.75 17.85 Q21.0 17.8 20.4 17.2 L19.9 16.7 20.3 17.05 20.9 17.3 21.75 17.85" fill="#cc6b22" fill-rule="evenodd" stroke="none"/>
      <path d="M19.9 16.7 L19.8 16.6 19.75 16.6 19.55 16.35 Q19.05 15.7 19.1 14.7 19.1 13.95 19.5 13.3 L20.0 12.65 Q20.85 11.75 22.05 11.65 L22.25 11.65 23.45 11.9 23.75 12.05 23.95 12.25 24.0 12.25 24.1 12.35 24.45 12.8 24.6 13.2 24.6 13.25 24.75 14.25 24.65 15.0 24.7 16.35 Q24.45 16.1 24.5 15.45 L23.85 16.35 23.0 17.0 21.8 17.3 20.9 17.3 20.3 17.05 19.9 16.7 M19.45 14.0 L19.3 14.75 Q19.3 15.8 20.0 16.5 20.7 17.2 21.8 17.1 L21.9 17.1 Q22.9 17.0 23.65 16.2 24.45 15.4 24.5 14.3 L24.5 13.9 Q24.4 13.15 23.8 12.55 L23.85 12.5 23.5 12.25 23.35 12.25 Q22.8 11.85 22.0 11.95 20.95 12.05 20.15 12.85 19.65 13.4 19.45 14.0" fill="#ffff98" fill-rule="evenodd" stroke="none"/>
      <path d="M24.5 13.9 L24.5 14.3 Q24.45 15.4 23.65 16.2 22.9 17.0 21.9 17.1 L21.8 17.1 Q20.7 17.2 20.0 16.5 19.3 15.8 19.3 14.75 L19.45 14.0 Q19.5 14.8 20.1 15.4 20.8 16.1 21.95 15.95 L22.05 15.95 23.8 15.05 24.5 13.9" fill="#f4a33c" fill-rule="evenodd" stroke="none"/>
      <path d="M24.8 16.45 L24.45 16.95 23.4 17.65 Q23.55 17.0 23.0 17.0 L23.85 16.35 24.5 15.45 Q24.45 16.1 24.7 16.35 L24.8 16.45" fill="#a34100" fill-rule="evenodd" stroke="none"/>
      <path d="M24.1 12.35 L24.65 12.9 Q25.2 13.4 25.3 14.1 L25.35 14.85 24.8 16.45 24.45 16.95 23.4 17.65 22.4 17.9 21.75 17.85 Q21.0 17.8 20.4 17.2 L19.9 16.7 19.8 16.6 19.75 16.6 19.55 16.35 Q19.05 15.7 19.1 14.7 19.1 13.95 19.5 13.3 L20.0 12.65 Q20.85 11.75 22.05 11.65 L22.25 11.65 23.45 11.9 23.75 12.05 23.95 12.25 24.0 12.25 24.1 12.35 Z" fill="none" stroke="#000000" stroke-linecap="round" stroke-linejoin="round" stroke-opacity="0.3019608" stroke-width="0.30000000000000004"/>
    </g>
    <g id="shape2" transform="matrix(1.0, 0.0, 0.0, 1.0, -24.5, -11.15)">
      <path d="M30.25 12.6 L30.8 13.15 Q31.35 13.65 31.45 14.35 L30.75 13.45 30.6 13.05 30.25 12.6 M29.55 17.9 L28.55 18.15 27.9 18.1 27.05 17.55 27.95 17.55 29.15 17.25 Q29.7 17.25 29.55 17.9 M25.6 14.25 Q25.8 13.65 26.3 13.1 27.1 12.3 28.15 12.2 28.95 12.1 29.5 12.5 L29.65 12.5 30.0 12.75 29.95 12.8 Q30.55 13.4 30.65 14.15 L29.95 15.3 Q29.2 16.1 28.2 16.2 L28.1 16.2 Q26.95 16.35 26.25 15.65 25.65 15.05 25.6 14.25" fill="#ffde4f" fill-rule="evenodd" stroke="none"/>
      <path d="M31.45 14.35 L31.5 15.1 30.95 16.7 30.85 16.6 30.8 15.25 30.9 14.5 30.75 13.5 30.75 13.45 31.45 14.35 M27.9 18.1 Q27.15 18.05 26.55 17.45 L26.05 16.95 26.45 17.3 27.05 17.55 27.9 18.1" fill="#cc6b22" fill-rule="evenodd" stroke="none"/>
      <path d="M26.05 16.95 L25.95 16.85 25.9 16.85 25.7 16.6 Q25.2 15.95 25.25 14.95 25.25 14.2 25.65 13.55 L26.15 12.9 Q27.0 12.0 28.2 11.9 L28.4 11.9 Q29.05 11.85 29.6 12.15 L29.9 12.3 30.1 12.5 30.15 12.5 30.25 12.6 30.6 13.05 30.75 13.45 30.75 13.5 30.9 14.5 30.8 15.25 30.85 16.6 Q30.6 16.35 30.65 15.7 L30.0 16.6 29.15 17.25 27.95 17.55 27.05 17.55 26.45 17.3 26.05 16.95 M25.6 14.25 L25.45 15.0 Q25.45 16.05 26.15 16.75 26.85 17.45 27.95 17.35 L28.05 17.35 Q29.05 17.25 29.8 16.45 30.6 15.65 30.65 14.55 L30.65 14.15 Q30.55 13.4 29.95 12.8 L30.0 12.75 29.65 12.5 29.5 12.5 Q28.95 12.1 28.15 12.2 27.1 12.3 26.3 13.1 25.8 13.65 25.6 14.25" fill="#ffff98" fill-rule="evenodd" stroke="none"/>
      <path d="M30.65 14.15 L30.65 14.55 Q30.6 15.65 29.8 16.45 29.05 17.25 28.05 17.35 L27.95 17.35 Q26.85 17.45 26.15 16.75 25.45 16.05 25.45 15.0 L25.6 14.25 Q25.65 15.05 26.25 15.65 26.95 16.35 28.1 16.2 L28.2 16.2 Q29.2 16.1 29.95 15.3 L30.65 14.15" fill="#f4a33c" fill-rule="evenodd" stroke="none"/>
      <path d="M30.95 16.7 L30.6 17.2 29.55 17.9 Q29.7 17.25 29.15 17.25 L30.0 16.6 30.65 15.7 Q30.6 16.35 30.85 16.6 L30.95 16.7" fill="#a34100" fill-rule="evenodd" stroke="none"/>
      <path d="M30.25 12.6 L30.8 13.15 Q31.35 13.65 31.45 14.35 L31.5 15.1 30.95 16.7 30.6 17.2 29.55 17.9 28.55 18.15 27.9 18.1 Q27.15 18.05 26.55 17.45 L26.05 16.95 25.95 16.85 25.9 16.85 25.7 16.6 Q25.2 15.95 25.25 14.95 25.25 14.2 25.65 13.55 L26.15 12.9 Q27.0 12.0 28.2 11.9 L28.4 11.9 Q29.05 11.85 29.6 12.15 L29.9 12.3 30.1 12.5 30.15 12.5 30.25 12.6 Z" fill="none" stroke="#000000" stroke-linecap="round" stroke-linejoin="round" stroke-opacity="0.3019608" stroke-width="0.30000000000000004"/>
    </g>
    <g id="shape3" transform="matrix(1.0, 0.0, 0.0, 1.0, -17.35, -15.7)">
      <path d="M28.6 18.55 L28.6 18.6 29.35 20.1 29.5 20.75 29.55 21.35 29.45 22.75 29.05 24.15 28.95 24.3 28.05 26.1 28.4 26.85 27.95 26.35 18.5 22.75 18.1 22.55 18.15 22.4 22.1 23.95 25.65 21.85 Q23.65 23.1 22.6 24.15 L27.15 25.95 27.95 25.85 29.1 23.45 Q29.6 21.4 29.05 19.85 L27.85 18.05 27.5 17.75 Q25.6 16.8 23.55 17.2 L22.7 17.5 Q20.85 18.25 19.3 20.6 L20.4 20.6 21.6 20.45 20.25 20.8 19.05 21.0 18.85 21.0 19.1 20.5 19.15 20.4 Q19.95 19.0 21.2 18.05 21.75 17.65 22.4 17.4 L22.9 17.15 23.85 16.95 26.35 17.05 26.6 17.15 26.8 17.25 26.9 17.25 27.25 17.45 28.5 18.45 28.6 18.55" fill="#ffffff" fill-rule="evenodd" stroke="none"/>
      <path d="M28.6 18.6 L28.6 18.55 28.5 18.45 27.25 17.45 Q28.55 18.05 29.15 18.95 L29.45 19.45 30.0 20.7 30.15 21.35 30.2 21.95 30.1 21.6 29.5 20.75 29.35 20.1 28.6 18.6 M28.4 26.85 L28.05 26.1 28.95 24.3 29.05 24.15 29.45 22.75 Q29.5 23.55 29.7 23.85 L29.75 23.9 29.95 24.05 29.65 24.85 29.6 24.95 28.6 26.95 28.4 26.85" fill="#cac960" fill-rule="evenodd" stroke="none"/>
      <path d="M21.6 20.45 L20.4 20.6 19.3 20.6 Q20.85 18.25 22.7 17.5 L23.55 17.2 Q25.6 16.8 27.5 17.75 L27.85 18.05 Q24.85 19.65 21.6 20.45" fill="#f0f0d2" fill-rule="evenodd" stroke="none"/>
      <path d="M18.5 22.75 L27.95 26.35 28.4 26.85 28.6 26.95 18.95 23.25 18.5 22.75 M29.45 22.75 L29.55 21.35 29.5 20.75 30.1 21.6 30.2 21.95 30.25 22.25 30.15 23.0 29.95 24.05 29.75 23.9 29.7 23.85 Q29.5 23.55 29.45 22.75" fill="#a6a637" fill-rule="evenodd" stroke="none"/>
      <path d="M29.05 19.85 Q29.6 21.4 29.1 23.45 L27.95 25.85 27.15 25.95 22.6 24.15 Q23.65 23.1 25.65 21.85 L29.05 19.85" fill="#e6e4b3" fill-rule="evenodd" stroke="none"/>
      <path d="M18.85 21.0 L19.05 21.0 20.25 20.8 21.6 20.45 Q24.85 19.65 27.85 18.05 L29.05 19.85 25.65 21.85 22.1 23.95 18.15 22.4 18.85 21.0 M18.1 22.55 L18.5 22.75 18.95 23.25 18.75 23.2 18.1 22.55" fill="#d5d580" fill-rule="evenodd" stroke="none"/>
      <path d="M27.25 17.45 L26.9 17.25 26.8 17.25 26.6 17.15 26.35 17.05 23.85 16.95 22.9 17.15 22.4 17.4 Q21.75 17.65 21.2 18.05 19.95 19.0 19.15 20.4 L19.1 20.5 18.85 21.0 18.15 22.4 18.1 22.55 18.75 23.2 18.95 23.25 28.6 26.95 29.6 24.95 29.65 24.85 29.95 24.05 30.15 23.0 30.25 22.25 30.2 21.95 30.15 21.35 30.0 20.7 29.45 19.45 29.15 18.95 Q28.55 18.05 27.25 17.45 Z" fill="none" stroke="#000000" stroke-linecap="round" stroke-linejoin="round" stroke-opacity="0.3019608" stroke-width="0.30000000000000004"/>
      <path d="M36.1 18.9 L35.4 18.0 35.25 17.6 34.9 17.15 35.45 17.7 Q36.0 18.2 36.1 18.9 M31.7 22.1 L32.6 22.1 33.8 21.8 Q34.35 21.8 34.2 22.45 L33.2 22.7 32.55 22.65 31.7 22.1 M30.25 18.8 Q30.45 18.2 30.95 17.65 31.75 16.85 32.8 16.75 33.6 16.65 34.15 17.05 L34.3 17.05 34.65 17.3 34.6 17.35 Q35.2 17.95 35.3 18.7 L34.6 19.85 32.85 20.75 32.75 20.75 Q31.6 20.9 30.9 20.2 30.3 19.6 30.25 18.8" fill="#ffde4f" fill-rule="evenodd" stroke="none"/>
      <path d="M35.5 21.15 L35.45 19.8 35.55 19.05 35.4 18.05 35.4 18.0 36.1 18.9 36.15 19.65 35.6 21.25 35.5 21.15 M30.7 21.5 L31.1 21.85 31.7 22.1 32.55 22.65 Q31.8 22.6 31.2 22.0 L30.7 21.5" fill="#cc6b22" fill-rule="evenodd" stroke="none"/>
      <path d="M35.4 18.0 L35.4 18.05 35.55 19.05 35.45 19.8 35.5 21.15 Q35.25 20.9 35.3 20.25 L34.65 21.15 33.8 21.8 32.6 22.1 31.7 22.1 31.1 21.85 30.7 21.5 30.6 21.4 30.55 21.4 30.35 21.15 Q29.85 20.5 29.9 19.5 29.9 18.75 30.3 18.1 L30.8 17.45 Q31.65 16.55 32.85 16.45 L33.05 16.45 Q33.7 16.4 34.25 16.7 L34.55 16.85 34.75 17.05 34.8 17.05 34.9 17.15 35.25 17.6 35.4 18.0 M30.25 18.8 L30.1 19.55 Q30.1 20.6 30.8 21.3 31.5 22.0 32.6 21.9 L32.7 21.9 Q33.7 21.8 34.45 21.0 35.25 20.2 35.3 19.1 L35.3 18.7 Q35.2 17.95 34.6 17.35 L34.65 17.3 34.3 17.05 34.15 17.05 Q33.6 16.65 32.8 16.75 31.75 16.85 30.95 17.65 30.45 18.2 30.25 18.8" fill="#ffff98" fill-rule="evenodd" stroke="none"/>
      <path d="M35.3 18.7 L35.3 19.1 Q35.25 20.2 34.45 21.0 33.7 21.8 32.7 21.9 L32.6 21.9 Q31.5 22.0 30.8 21.3 30.1 20.6 30.1 19.55 L30.25 18.8 Q30.3 19.6 30.9 20.2 31.6 20.9 32.75 20.75 L32.85 20.75 34.6 19.85 35.3 18.7" fill="#f4a33c" fill-rule="evenodd" stroke="none"/>
      <path d="M35.5 21.15 L35.6 21.25 35.25 21.75 34.2 22.45 Q34.35 21.8 33.8 21.8 L34.65 21.15 35.3 20.25 Q35.25 20.9 35.5 21.15" fill="#a34100" fill-rule="evenodd" stroke="none"/>
      <path d="M35.6 21.25 L36.15 19.65 36.1 18.9 Q36.0 18.2 35.45 17.7 L34.9 17.15 34.8 17.05 34.75 17.05 34.55 16.85 34.25 16.7 Q33.7 16.4 33.05 16.45 L32.85 16.45 Q31.65 16.55 30.8 17.45 L30.3 18.1 Q29.9 18.75 29.9 19.5 29.85 20.5 30.35 21.15 L30.55 21.4 30.6 21.4 30.7 21.5 31.2 22.0 Q31.8 22.6 32.55 22.65 L33.2 22.7 34.2 22.45 35.25 21.75 35.6 21.25 Z" fill="none" stroke="#000000" stroke-linecap="round" stroke-linejoin="round" stroke-opacity="0.3019608" stroke-width="0.30000000000000004"/>
    </g>
    <g id="shape4" transform="matrix(1.0, 0.0, 0.0, 1.0, -28.2, -21.7)">
      <path d="M33.95 23.15 L34.5 23.7 Q35.05 24.2 35.15 24.9 L34.45 24.0 34.3 23.6 33.95 23.15 M33.25 28.45 L32.25 28.7 31.6 28.65 30.75 28.1 31.65 28.1 32.85 27.8 Q33.4 27.8 33.25 28.45 M29.3 24.8 Q29.5 24.2 30.0 23.65 30.8 22.85 31.85 22.75 L33.2 23.05 33.35 23.05 33.7 23.3 33.65 23.35 Q34.25 23.95 34.35 24.7 L33.65 25.85 Q32.9 26.65 31.9 26.75 L31.8 26.75 Q30.65 26.9 29.95 26.2 29.35 25.6 29.3 24.8" fill="#ffde4f" fill-rule="evenodd" stroke="none"/>
      <path d="M35.15 24.9 L35.2 25.65 34.65 27.25 34.55 27.15 34.5 25.8 34.6 25.05 34.45 24.05 34.45 24.0 35.15 24.9 M31.6 28.65 Q30.85 28.6 30.25 28.0 L29.75 27.5 30.15 27.85 30.75 28.1 31.6 28.65" fill="#cc6b22" fill-rule="evenodd" stroke="none"/>
      <path d="M29.75 27.5 L29.65 27.4 29.6 27.4 29.4 27.15 Q28.9 26.5 28.95 25.5 28.95 24.75 29.35 24.1 L29.85 23.45 Q30.7 22.55 31.9 22.45 L32.1 22.45 33.3 22.7 33.6 22.85 33.8 23.05 33.85 23.05 33.95 23.15 34.3 23.6 34.45 24.0 34.45 24.05 34.6 25.05 34.5 25.8 34.55 27.15 Q34.3 26.9 34.35 26.25 L33.7 27.15 32.85 27.8 31.65 28.1 30.75 28.1 30.15 27.85 29.75 27.5 M29.3 24.8 L29.15 25.55 Q29.15 26.6 29.85 27.3 30.55 28.0 31.65 27.9 L31.75 27.9 Q32.75 27.8 33.5 27.0 34.3 26.2 34.35 25.1 L34.35 24.7 Q34.25 23.95 33.65 23.35 L33.7 23.3 33.35 23.05 33.2 23.05 31.85 22.75 Q30.8 22.85 30.0 23.65 29.5 24.2 29.3 24.8" fill="#ffff98" fill-rule="evenodd" stroke="none"/>
      <path d="M34.35 24.7 L34.35 25.1 Q34.3 26.2 33.5 27.0 32.75 27.8 31.75 27.9 L31.65 27.9 Q30.55 28.0 29.85 27.3 29.15 26.6 29.15 25.55 L29.3 24.8 Q29.35 25.6 29.95 26.2 30.65 26.9 31.8 26.75 L31.9 26.75 Q32.9 26.65 33.65 25.85 L34.35 24.7" fill="#f4a33c" fill-rule="evenodd" stroke="none"/>
      <path d="M34.65 27.25 L34.3 27.75 33.25 28.45 Q33.4 27.8 32.85 27.8 L33.7 27.15 34.35 26.25 Q34.3 26.9 34.55 27.15 L34.65 27.25" fill="#a34100" fill-rule="evenodd" stroke="none"/>
      <path d="M33.95 23.15 L34.5 23.7 Q35.05 24.2 35.15 24.9 L35.2 25.65 34.65 27.25 34.3 27.75 33.25 28.45 32.25 28.7 31.6 28.65 Q30.85 28.6 30.25 28.0 L29.75 27.5 29.65 27.4 29.6 27.4 29.4 27.15 Q28.9 26.5 28.95 25.5 28.95 24.75 29.35 24.1 L29.85 23.45 Q30.7 22.55 31.9 22.45 L32.1 22.45 33.3 22.7 33.6 22.85 33.8 23.05 33.85 23.05 33.95 23.15 Z" fill="none" stroke="#000000" stroke-linecap="round" stroke-linejoin="round" stroke-opacity="0.3019608" stroke-width="0.30000000000000004"/>
    </g>
    <g id="shape5" transform="matrix(1.0, 0.0, 0.0, 1.0, -12.9, -5.05)">
      <path d="M32.8 28.2 L34.4 25.3 41.75 26.2 39.3 30.9 34.0 29.15 32.8 28.2 M35.5 23.25 L35.95 21.65 36.1 20.7 41.85 19.35 35.5 23.25 M36.1 19.8 L36.05 19.25 35.9 18.45 42.2 15.6 42.95 18.05 36.1 19.8 M35.45 17.1 L34.7 15.6 39.8 11.65 41.2 13.55 35.45 17.1 M31.2 12.0 L38.5 9.7 39.3 10.7 34.05 14.8 33.95 14.5 33.7 14.3 32.95 13.45 32.75 13.35 32.7 13.3 31.2 12.0 M37.8 24.6 L43.15 21.7 Q42.95 23.6 42.4 25.2 L37.8 24.6" fill="#f0f0d2" fill-rule="evenodd" stroke="none"/>
      <path d="M41.55 11.9 L41.75 12.25 42.2 12.9 42.9 13.8 40.05 11.0 40.05 10.95 40.0 10.95 34.4 15.15 Q34.55 14.7 34.05 14.8 L39.3 10.7 39.6 10.45 39.65 10.6 39.7 10.55 41.55 11.9 M45.7 20.75 Q45.3 20.95 45.75 21.6 L43.55 18.95 43.3 18.95 41.85 19.35 36.1 20.7 Q36.5 20.25 36.1 20.1 L43.4 18.35 45.7 20.75 M44.85 27.6 Q44.1 27.85 44.45 28.5 L42.4 26.3 41.75 26.2 34.4 25.3 Q35.0 25.15 34.8 24.55 L42.7 25.6 44.85 27.6 M41.55 33.8 L35.15 30.7 33.75 29.45 32.8 28.2 34.0 29.15 39.4 31.7 40.75 33.0 41.55 33.8" fill="#a6a637" fill-rule="evenodd" stroke="none"/>
      <path d="M45.55 19.9 L45.65 20.35 45.7 20.75 43.4 18.35 36.1 20.1 36.1 19.8 42.95 18.05 42.2 15.6 41.2 13.55 39.8 11.65 34.7 15.6 34.45 15.3 34.45 15.25 34.4 15.15 40.0 10.95 40.05 10.95 40.05 11.0 41.6 13.3 42.65 15.4 43.35 17.65 45.55 19.9 M34.8 24.55 L35.0 24.2 37.8 24.6 42.4 25.2 Q42.95 23.6 43.15 21.7 L43.3 18.95 43.55 18.95 Q43.8 20.15 43.7 21.4 L42.95 24.95 44.85 27.6 42.7 25.6 34.8 24.55 M30.35 12.3 L30.3 12.3 30.05 12.15 29.75 11.5 32.75 6.1 30.45 11.45 31.2 12.0 32.7 13.3 32.0 12.75 31.3 12.3 30.95 12.1 30.65 11.95 30.5 11.85 30.25 11.75 30.2 11.65 30.35 12.3 M38.5 9.7 L35.6 7.25 Q37.35 8.25 38.75 9.6 L39.6 10.45 39.3 10.7 38.5 9.7 M34.45 15.3 L34.45 15.25 34.45 15.3 M34.0 29.15 L39.3 30.9 41.75 26.2 42.4 26.3 42.2 26.7 39.9 30.85 40.75 33.0 39.4 31.7 34.0 29.15" fill="#ffffff" fill-rule="evenodd" stroke="none"/>
      <path d="M35.0 24.2 L35.2 23.85 35.3 23.55 35.5 23.25 41.85 19.35 43.3 18.95 43.15 21.7 37.8 24.6 35.0 24.2 M35.9 18.45 L35.85 18.3 35.5 17.2 35.45 17.1 41.2 13.55 42.2 15.6 35.9 18.45" fill="#f9f8ec" fill-rule="evenodd" stroke="none"/>
      <path d="M32.75 6.1 L32.85 5.8 33.65 6.15 33.75 6.15 34.25 6.45 34.55 6.6 35.6 7.25 38.5 9.7 31.2 12.0 30.45 11.45 32.75 6.1" fill="#e6e4b3" fill-rule="evenodd" stroke="none"/>
      <path d="M35.6 7.25 Q37.55 8.3 39.05 9.5 L41.55 11.9 39.7 10.55 39.6 10.45 38.75 9.6 Q37.35 8.25 35.6 7.25 M42.9 13.8 L43.6 14.95 44.8 17.45 45.55 19.9 43.35 17.65 42.65 15.4 41.6 13.3 40.05 11.0 42.9 13.8 M34.05 14.8 L34.05 14.85 32.05 13.2 31.9 13.1 31.25 12.7 31.1 12.65 30.75 12.45 30.4 12.3 30.35 12.3 30.2 11.65 30.25 11.75 30.5 11.85 30.65 11.95 30.95 12.1 31.3 12.3 32.0 12.75 32.7 13.3 32.75 13.35 32.95 13.45 33.7 14.3 33.95 14.5 34.05 14.8" fill="#d5d580" fill-rule="evenodd" stroke="none"/>
      <path d="M45.75 21.6 L45.8 21.6 45.85 21.65 Q46.05 24.7 44.85 27.6 L42.95 24.95 43.7 21.4 Q43.8 20.15 43.55 18.95 L45.75 21.6 M44.45 28.5 L44.35 28.75 41.55 33.8 40.75 33.0 39.9 30.85 42.2 26.7 42.4 26.3 44.45 28.5" fill="#cac960" fill-rule="evenodd" stroke="none"/>
      <path d="M32.75 6.1 L32.85 5.8 33.65 6.15 33.75 6.15 34.25 6.45 34.55 6.6 35.6 7.25 Q37.55 8.3 39.05 9.5 L41.55 11.9 41.75 12.25 42.2 12.9 42.9 13.8 43.6 14.95 44.8 17.45 45.55 19.9 45.65 20.35 45.7 20.75 Q45.3 20.95 45.75 21.6 L45.8 21.6 45.85 21.65 Q46.05 24.7 44.85 27.6 44.1 27.85 44.45 28.5 L44.35 28.75 41.55 33.8 35.15 30.7 33.75 29.45 32.8 28.2 34.4 25.3 Q35.0 25.15 34.8 24.55 L35.0 24.2 35.2 23.85 35.3 23.55 35.5 23.25 35.95 21.65 36.1 20.7 Q36.5 20.25 36.1 20.1 L36.1 19.8 36.05 19.25 35.9 18.45 35.85 18.3 35.5 17.2 35.45 17.1 34.7 15.6 34.45 15.3 34.45 15.25 34.4 15.15 40.0 10.95 40.05 10.95 40.05 11.0 42.9 13.8 M34.05 14.85 L32.05 13.2 31.9 13.1 31.25 12.7 31.1 12.65 30.75 12.45 30.4 12.3 30.35 12.3 30.3 12.3 30.05 12.15 29.75 11.5 32.75 6.1 M40.05 10.95 L40.05 11.0 M36.1 20.7 L41.85 19.35 43.3 18.95 43.55 18.95 45.75 21.6 M34.45 15.25 L34.45 15.3 M41.75 26.2 L34.4 25.3 M42.4 26.3 L41.75 26.2 M42.4 26.3 L44.45 28.5" fill="none" stroke="#000000" stroke-linecap="round" stroke-linejoin="round" stroke-opacity="0.3019608" stroke-width="0.30000000000000004"/>
      <path d="M34.05 14.8 L34.05 14.85" fill="none" stroke="#ff0000" stroke-linecap="round" stroke-linejoin="round" stroke-width="0.05"/>
      <path d="M16.7 25.6 L15.3 25.55 15.25 25.1 Q15.3 24.4 15.7 23.95 16.2 23.5 16.7 23.45 17.3 23.7 17.3 24.6 L17.3 24.65 16.85 25.5 16.8 25.6 16.7 25.6" fill="#ffde4f" fill-rule="evenodd" stroke="none"/>
      <path d="M18.25 25.0 L18.2 25.05 17.95 25.9 Q17.15 26.8 16.75 26.35 16.55 25.9 16.8 25.6 L16.85 25.5 17.3 24.65 17.3 24.6 Q17.75 23.4 18.25 25.0" fill="#f4a33c" fill-rule="evenodd" stroke="none"/>
      <path d="M17.95 23.75 Q18.5 24.25 18.4 25.05 18.4 25.85 17.9 26.4 17.4 26.9 16.7 26.95 16.0 26.9 15.55 26.45 L15.2 25.8 15.1 25.1 Q15.1 24.3 15.6 23.75 16.15 23.2 16.8 23.2 L17.0 23.2 Q17.6 23.25 17.95 23.75 M18.25 25.0 Q18.25 24.35 17.85 23.9 L17.15 23.45 17.3 24.3 17.3 24.6 Q17.3 23.7 16.7 23.45 16.2 23.5 15.7 23.95 15.3 24.4 15.25 25.1 L15.3 25.55 16.7 25.6 15.8 25.95 15.45 25.95 15.7 26.25 Q16.1 26.75 16.7 26.75 17.3 26.7 17.75 26.2 L17.95 25.9 18.2 25.05 18.25 25.0" fill="#ffff98" fill-rule="evenodd" stroke="none"/>
      <path d="M17.3 24.6 L17.3 24.3 17.15 23.45 17.85 23.9 Q18.25 24.35 18.25 25.0 17.75 23.4 17.3 24.6 M17.95 25.9 L17.75 26.2 Q17.3 26.7 16.7 26.75 16.1 26.75 15.7 26.25 L15.45 25.95 15.8 25.95 16.7 25.6 16.8 25.6 Q16.55 25.9 16.75 26.35 17.15 26.8 17.95 25.9" fill="#cc6b22" fill-rule="evenodd" stroke="none"/>
      <path d="M17.95 23.75 Q18.5 24.25 18.4 25.05 18.4 25.85 17.9 26.4 17.4 26.9 16.7 26.95 16.0 26.9 15.55 26.45 L15.2 25.8 15.1 25.1 Q15.1 24.3 15.6 23.75 16.15 23.2 16.8 23.2 L17.0 23.2 Q17.6 23.25 17.95 23.75 Z" fill="none" stroke="#000000" stroke-linecap="round" stroke-linejoin="round" stroke-opacity="0.3019608" stroke-width="0.30000000000000004"/>
      <path d="M16.9 27.8 Q18.8 23.85 21.8 21.5 L21.95 21.55 Q23.5 21.75 24.85 22.9 L24.95 23.0 25.3 23.9 25.25 24.05 Q25.1 23.45 24.8 23.8 L23.65 26.85 22.35 29.25 Q21.95 29.65 21.45 29.6 22.1 30.1 22.1 30.75 21.65 29.95 20.85 29.65 18.8 29.5 17.35 28.2 L16.9 27.8 M22.55 25.05 Q21.9 28.6 20.6 29.35 L21.4 29.3 Q22.7 29.1 24.45 23.95 24.85 23.05 24.45 22.8 23.25 21.8 21.9 21.85 21.25 22.15 20.15 23.3 21.35 22.55 22.1 22.75 20.65 22.65 18.75 25.05 17.75 26.45 17.45 27.6 17.8 28.5 19.0 29.0 20.65 29.35 21.5 27.6 L22.55 25.05" fill="#ffff98" fill-rule="evenodd" stroke="none"/>
      <path d="M16.9 27.8 L17.35 28.2 Q17.55 28.9 18.3 29.95 L18.0 29.65 Q17.15 28.8 16.9 27.8 M22.55 25.05 L21.5 27.6 Q20.65 29.35 19.0 29.0 17.8 28.5 17.45 27.6 17.75 26.45 18.75 25.05 20.65 22.65 22.1 22.75 L22.25 22.8 Q23.05 23.3 22.55 25.05" fill="#ffde4f" fill-rule="evenodd" stroke="none"/>
      <path d="M22.1 30.75 Q22.1 30.1 21.45 29.6 21.95 29.65 22.35 29.25 22.25 30.1 22.85 30.8 L22.05 31.15 22.1 30.75 M22.1 22.75 Q21.35 22.55 20.15 23.3 21.25 22.15 21.9 21.85 23.25 21.8 24.45 22.8 24.85 23.05 24.45 23.95 22.7 29.1 21.4 29.3 L20.6 29.35 Q21.9 28.6 22.55 25.05 23.05 23.3 22.25 22.8 L22.1 22.75" fill="#f4a33c" fill-rule="evenodd" stroke="none"/>
      <path d="M22.35 29.25 L23.65 26.85 Q24.3 27.2 24.15 28.8 L22.85 30.8 Q22.25 30.1 22.35 29.25" fill="#cc6b22" fill-rule="evenodd" stroke="none"/>
      <path d="M17.35 28.2 Q18.8 29.5 20.85 29.65 21.65 29.95 22.1 30.75 L22.05 31.15 21.8 31.15 Q19.75 31.0 18.3 29.95 17.55 28.9 17.35 28.2 M23.65 26.85 L24.8 23.8 Q25.1 23.45 25.25 24.05 L25.05 24.85 25.5 25.7 24.15 28.8 Q24.3 27.2 23.65 26.85" fill="#a34100" fill-rule="evenodd" stroke="none"/>
      <path d="M25.25 24.05 L25.3 23.9 24.95 23.0 24.85 22.9 Q23.5 21.75 21.95 21.55 L21.8 21.5 Q18.8 23.85 16.9 27.8 17.15 28.8 18.0 29.65 L18.3 29.95 Q19.75 31.0 21.8 31.15 L22.05 31.15 22.85 30.8 24.15 28.8 25.5 25.7 25.05 24.85 25.25 24.05 Z" fill="none" stroke="#000000" stroke-linecap="round" stroke-linejoin="round" stroke-opacity="0.3019608" stroke-width="0.30000000000000004"/>
      <path d="M14.75 31.5 L14.55 31.4 14.55 31.1 14.55 31.05 Q14.5 30.35 15.45 29.7 L23.1 32.85 23.1 33.45 16.05 30.6 Q15.3 30.75 14.75 31.5" fill="#a6a637" fill-rule="evenodd" stroke="none"/>
      <path d="M23.1 33.45 Q23.0 34.1 22.35 34.55 L14.75 31.5 Q15.3 30.75 16.05 30.6 L23.1 33.45" fill="#666622" fill-rule="evenodd" stroke="none"/>
      <path d="M14.55 31.05 Q14.25 30.1 15.35 29.35 L23.0 32.5 23.1 32.85 15.45 29.7 Q14.5 30.35 14.55 31.05" fill="#ffffff" fill-rule="evenodd" stroke="none"/>
      <path d="M23.1 33.45 Q23.0 34.1 22.35 34.55 L14.75 31.5 14.55 31.4 M23.1 32.85 L23.1 33.45 Z" fill="none" stroke="#000000" stroke-linecap="round" stroke-linejoin="round" stroke-opacity="0.3019608" stroke-width="0.30000000000000004"/>
      <path d="M19.4 33.7 Q20.1 32.5 18.2 32.05 L17.8 31.7 17.1 32.75 Q17.65 32.0 17.5 31.5 L16.3 31.35 Q15.15 32.4 14.6 33.35 14.1 34.9 15.55 35.35 14.25 35.1 14.3 34.05 L14.15 34.6 Q15.2 36.25 17.75 36.15 L19.25 34.55 20.3 32.85 Q19.95 32.15 18.75 32.0 L19.5 32.45 Q19.85 32.95 19.4 33.7 M13.75 34.75 Q14.4 32.85 16.0 31.2 17.35 30.8 18.3 31.75 19.85 31.95 20.55 32.55 L21.0 33.2 20.3 33.25 20.0 33.95 18.35 36.15 Q18.15 36.95 18.6 37.25 L18.2 37.4 18.0 37.4 Q18.25 36.5 17.85 36.45 L17.85 36.5 16.65 36.45 Q14.95 36.2 14.0 35.0 L13.75 34.75" fill="#ffff98" fill-rule="evenodd" stroke="none"/>
      <path d="M19.4 33.7 L19.4 33.75 18.85 34.5 Q18.05 35.3 16.0 35.4 L15.55 35.35 Q14.1 34.9 14.6 33.35 15.15 32.4 16.3 31.35 L17.5 31.5 Q17.65 32.0 17.1 32.75 L18.2 32.05 Q20.1 32.5 19.4 33.7 M17.1 32.75 L16.9 32.9 17.1 32.75 M14.2 36.3 L13.75 35.7 Q13.6 35.2 13.75 34.75 L14.0 35.0 Q13.85 35.55 14.2 36.3" fill="#ffde4f" fill-rule="evenodd" stroke="none"/>
      <path d="M15.55 35.35 L16.0 35.4 Q18.05 35.3 18.85 34.5 L19.4 33.75 19.4 33.7 Q19.85 32.95 19.5 32.45 L18.75 32.0 Q19.95 32.15 20.3 32.85 L19.25 34.55 17.75 36.15 Q15.2 36.25 14.15 34.6 L14.3 34.05 Q14.25 35.1 15.55 35.35 M18.2 32.05 L17.1 32.75 17.8 31.7 18.2 32.05" fill="#f4a33c" fill-rule="evenodd" stroke="none"/>
      <path d="M19.95 35.15 L18.9 36.9 18.6 37.25 Q18.15 36.95 18.35 36.15 L20.0 33.95 19.95 35.15 M16.75 37.3 Q15.1 37.1 14.2 36.3 13.85 35.55 14.0 35.0 14.95 36.2 16.65 36.45 17.15 36.95 16.75 37.3" fill="#cc6b22" fill-rule="evenodd" stroke="none"/>
      <path d="M21.0 33.2 L20.95 33.9 20.7 33.85 19.95 35.15 20.0 33.95 20.3 33.25 21.0 33.2 M18.0 37.4 L16.75 37.3 Q17.15 36.95 16.65 36.45 L17.85 36.5 17.85 36.45 Q18.25 36.5 18.0 37.4" fill="#a34100" fill-rule="evenodd" stroke="none"/>
      <path d="M13.75 34.75 Q14.4 32.85 16.0 31.2 17.35 30.8 18.3 31.75 19.85 31.95 20.55 32.55 L21.0 33.2 20.95 33.9 20.7 33.85 19.95 35.15 18.9 36.9 18.6 37.25 18.2 37.4 18.0 37.4 16.75 37.3 Q15.1 37.1 14.2 36.3 L13.75 35.7 Q13.6 35.2 13.75 34.75 Z" fill="none" stroke="#000000" stroke-linecap="round" stroke-linejoin="round" stroke-opacity="0.3019608" stroke-width="0.30000000000000004"/>
      <path d="M26.75 29.5 L25.35 29.45 25.3 29.0 Q25.35 28.3 25.75 27.85 26.25 27.4 26.75 27.35 27.35 27.6 27.35 28.5 L27.35 28.55 26.9 29.4 26.85 29.5 26.75 29.5" fill="#ffde4f" fill-rule="evenodd" stroke="none"/>
      <path d="M28.3 28.9 L28.25 28.95 28.0 29.8 Q27.2 30.7 26.8 30.25 26.6 29.8 26.85 29.5 L26.9 29.4 27.35 28.55 27.35 28.5 Q27.8 27.3 28.3 28.9" fill="#f4a33c" fill-rule="evenodd" stroke="none"/>
      <path d="M27.05 27.1 Q27.65 27.15 28.0 27.65 28.55 28.15 28.45 28.95 28.45 29.75 27.95 30.3 27.45 30.8 26.75 30.85 26.05 30.8 25.6 30.35 L25.25 29.7 25.15 29.0 Q25.15 28.2 25.65 27.65 26.2 27.1 26.85 27.1 L27.05 27.1 M28.3 28.9 Q28.3 28.25 27.9 27.8 L27.2 27.35 27.35 28.2 27.35 28.5 Q27.35 27.6 26.75 27.35 26.25 27.4 25.75 27.85 25.35 28.3 25.3 29.0 L25.35 29.45 26.75 29.5 25.85 29.85 25.5 29.85 25.75 30.15 Q26.15 30.65 26.75 30.65 27.35 30.6 27.8 30.1 L28.0 29.8 28.25 28.95 28.3 28.9" fill="#ffff98" fill-rule="evenodd" stroke="none"/>
      <path d="M27.35 28.5 L27.35 28.2 27.2 27.35 27.9 27.8 Q28.3 28.25 28.3 28.9 27.8 27.3 27.35 28.5 M28.0 29.8 L27.8 30.1 Q27.35 30.6 26.75 30.65 26.15 30.65 25.75 30.15 L25.5 29.85 25.85 29.85 26.75 29.5 26.85 29.5 Q26.6 29.8 26.8 30.25 27.2 30.7 28.0 29.8" fill="#cc6b22" fill-rule="evenodd" stroke="none"/>
      <path d="M27.05 27.1 Q27.65 27.15 28.0 27.65 28.55 28.15 28.45 28.95 28.45 29.75 27.95 30.3 27.45 30.8 26.75 30.85 26.05 30.8 25.6 30.35 L25.25 29.7 25.15 29.0 Q25.15 28.2 25.65 27.65 26.2 27.1 26.85 27.1 L27.05 27.1 Z" fill="none" stroke="#000000" stroke-linecap="round" stroke-linejoin="round" stroke-opacity="0.3019608" stroke-width="0.30000000000000004"/>
      <path d="M25.6 39.25 L25.75 38.8 Q26.75 40.85 26.45 42.35 26.3 43.25 27.05 43.5 L26.9 43.75 26.2 43.15 Q25.4 43.9 24.85 43.5 L24.4 42.3 Q24.75 43.1 25.05 43.3 25.55 43.55 25.95 42.8 26.5 40.3 25.6 39.25" fill="#ffffff" fill-rule="evenodd" stroke="none"/>
      <path d="M24.6 41.1 L25.2 40.1 25.95 42.8 Q25.55 43.55 25.05 43.3 L24.6 41.1 M25.75 38.8 L26.9 40.55 Q27.55 42.4 27.05 43.5 26.3 43.25 26.45 42.35 26.75 40.85 25.75 38.8" fill="#cac960" fill-rule="evenodd" stroke="none"/>
      <path d="M26.9 43.75 Q25.9 44.7 24.85 43.5 25.4 43.9 26.2 43.15 L26.9 43.75" fill="#a6a637" fill-rule="evenodd" stroke="none"/>
      <path d="M24.3 41.6 L24.6 41.1 25.05 43.3 Q24.75 43.1 24.4 42.3 L24.3 41.6 M25.2 40.1 L25.6 39.25 Q26.5 40.3 25.95 42.8 L25.2 40.1" fill="#e6e4b3" fill-rule="evenodd" stroke="none"/>
      <path d="M25.75 38.8 L26.9 40.55 Q27.55 42.4 27.05 43.5 L26.9 43.75 Q25.9 44.7 24.85 43.5 L24.4 42.3 24.3 41.6" fill="none" stroke="#000000" stroke-linecap="round" stroke-linejoin="round" stroke-opacity="0.3019608" stroke-width="0.30000000000000004"/>
      <path d="M38.95 34.15 L39.0 34.35 36.85 35.6 34.65 36.75 35.3 39.65 34.2 36.6 33.45 35.35 34.55 36.45 35.4 36.0 36.05 34.8 36.05 34.55 36.15 34.75 35.9 35.8 Q36.5 35.4 37.25 35.1 L38.95 34.15 M30.8 36.9 Q30.5 37.45 30.8 37.65 L31.75 37.3 31.9 36.35 31.9 36.3 32.1 37.55 33.55 40.35 32.35 38.45 31.8 37.6 30.9 37.95 28.35 38.8 29.4 41.35 29.3 41.4 28.1 38.85 28.15 38.55 28.9 38.25 30.45 37.75 Q30.3 37.35 30.8 36.9" fill="#ffff98" fill-rule="evenodd" stroke="none"/>
      <path d="M33.45 35.35 L35.75 34.2 36.05 34.55 36.05 34.8 35.4 36.0 34.55 36.45 33.45 35.35 M37.55 33.3 L38.0 33.1 38.95 34.15 37.25 35.1 Q37.0 34.8 37.1 34.4 37.15 33.95 37.55 33.3 M31.9 36.3 L31.9 36.35 31.75 37.3 30.8 37.65 Q30.5 37.45 30.8 36.9 L30.95 36.7 31.1 36.6 31.9 36.3 M28.9 38.25 L28.15 38.55 28.1 37.6 29.95 37.0 29.95 37.1 28.9 38.25" fill="#ffde4f" fill-rule="evenodd" stroke="none"/>
      <path d="M35.3 39.65 L34.55 38.25 33.45 35.35 34.2 36.6 35.3 39.65 M35.75 34.2 L37.55 33.3 Q37.15 33.95 37.1 34.4 37.0 34.8 37.25 35.1 36.5 35.4 35.9 35.8 L36.15 34.75 36.05 34.55 35.75 34.2 M31.1 36.6 L30.95 36.7 30.8 36.9 Q30.3 37.35 30.45 37.75 L28.9 38.25 29.95 37.1 29.95 37.0 31.1 36.6 M33.55 40.35 L32.1 37.55 31.9 36.3 33.35 39.0 33.55 40.35" fill="#f4a33c" fill-rule="evenodd" stroke="none"/>
      <path d="M39.05 34.8 L39.6 37.45 37.75 38.35 38.15 36.8 39.05 34.8 M35.9 39.35 L35.3 39.65 34.65 36.75 36.85 35.6 35.9 39.35 M29.4 41.35 L28.35 38.8 30.9 37.95 30.45 39.85 29.8 41.25 29.4 41.35 M32.35 38.45 L33.55 40.35 31.5 40.85 Q31.55 39.95 31.9 39.3 32.05 38.8 32.35 38.45" fill="#cc6b22" fill-rule="evenodd" stroke="none"/>
      <path d="M39.05 34.8 L38.15 36.8 37.75 38.35 35.9 39.35 36.85 35.6 39.0 34.35 39.05 34.8 M30.9 37.95 L31.8 37.6 32.35 38.45 Q32.05 38.8 31.9 39.3 31.55 39.95 31.5 40.85 L29.8 41.25 30.45 39.85 30.9 37.95" fill="#a34100" fill-rule="evenodd" stroke="none"/>
      <path d="M37.75 38.35 L39.6 37.45 39.05 34.8 39.0 34.35 38.95 34.15 38.0 33.1 37.55 33.3 35.75 34.2 33.45 35.35 34.55 38.25 35.3 39.65 35.9 39.35 37.75 38.35 M31.9 36.3 L31.1 36.6 29.95 37.0 28.1 37.6 28.15 38.55 28.1 38.85 29.3 41.4 29.4 41.35 29.8 41.25 31.5 40.85 33.55 40.35 33.35 39.0 31.9 36.3" fill="none" stroke="#000000" stroke-linecap="round" stroke-linejoin="round" stroke-opacity="0.3019608" stroke-width="0.30000000000000004"/>
    </g>
    <g id="sprite1" transform="matrix(1.0, 0.0, 0.0, 1.0, 0.0, 0.0)">
      <use height="26.7" transform="matrix(0.0042, -1.3515, 1.3935, 0.02, 22.09, 56.0263)" width="26.7" xlink:href="#sprite2"/>
      <use height="26.7" transform="matrix(0.0095, -3.0486, 0.372, 0.0053, 36.507, 81.3775)" width="26.7" xlink:href="#sprite2"/>
      <use height="26.7" transform="matrix(3.0486, 0.0095, -0.0053, 0.372, 0.1225, 35.107)" width="26.7" xlink:href="#sprite2"/>
    </g>
    <g id="sprite2" transform="matrix(1.0, 0.0, 0.0, 1.0, 13.35, 13.35)">
      <use height="26.7" transform="matrix(1.0, 0.0, 0.0, 1.0, -13.35, -13.35)" width="26.7" xlink:href="#shape6"/>
    </g>
    <g id="shape6" transform="matrix(1.0, 0.0, 0.0, 1.0, 13.35, 13.35)">
      <path d="M9.3 -9.85 Q13.35 -5.8 13.35 0.0 13.35 5.8 9.3 9.3 5.8 13.35 0.0 13.35 -5.8 13.35 -9.85 9.3 -13.35 5.8 -13.35 0.0 -13.35 -5.8 -9.85 -9.85 -5.8 -13.35 0.0 -13.35 5.8 -13.35 9.3 -9.85" fill="url(#gradient0)" fill-rule="evenodd" stroke="none"/>
    </g>
    <radialGradient cx="0" cy="0" gradientTransform="matrix(0.0213, 0.0, 0.0, 0.0213, 0.0, 0.0)" gradientUnits="userSpaceOnUse" id="gradient0" r="819.2" spreadMethod="pad">
      <stop offset="0.19607843137254902" stop-color="#fee3bc" stop-opacity="0.41960785"/>
      <stop offset="0.5019607843137255" stop-color="#fee3bc" stop-opacity="0.06666667"/>
      <stop offset="0.7607843137254902" stop-color="#ffe3bd" stop-opacity="0.0"/>
    </radialGradient>
  </defs>
</svg>
