<?xml version="1.0" encoding="UTF-8" standalone="no"?>
<svg xmlns:xlink="http://www.w3.org/1999/xlink" height="52.0px" width="52.0px" xmlns="http://www.w3.org/2000/svg">
  <g transform="matrix(1.0, 0.0, 0.0, 1.0, 0.0, 0.0)">
    <use height="62.0" transform="matrix(1.0, 0.0, 0.0, 1.0, -5.0, -5.0)" width="62.0" xlink:href="#shape0"/>
    <use height="78.5" transform="matrix(0.2518, 0.0376, -0.1718, 0.3751, 28.3103, 5.6491)" width="75.15" xlink:href="#sprite0"/>
    <use height="0.0" transform="matrix(0.1242, 0.0345, -0.0379, 0.0523, 26.9, 25.4)" width="0.0" xlink:href="#sprite1"/>
    <use height="0.0" transform="matrix(0.0981, 0.0272, -0.0623, 0.086, 34.65, 12.1)" width="0.0" xlink:href="#sprite1"/>
    <use height="165.7" transform="matrix(0.3174, -0.0271, -0.0376, 0.1585, 22.6563, 10.312)" width="74.9" xlink:href="#sprite2"/>
    <use height="165.7" transform="matrix(0.2682, -0.0305, 0.0065, 0.1345, 12.1116, 25.9908)" width="74.9" xlink:href="#sprite2"/>
    <use height="165.7" transform="matrix(0.1662, -0.0189, 0.004, 0.0834, 28.9213, 23.3823)" width="74.9" xlink:href="#sprite2"/>
    <use height="33.65" transform="matrix(1.0, 0.0, 0.0, 1.0, 3.25, 10.35)" width="20.5" xlink:href="#shape3"/>
  </g>
  <defs>
    <g id="shape0" transform="matrix(1.0, 0.0, 0.0, 1.0, 5.0, 5.0)">
      <path d="M52.0 0.0 L52.0 52.0 0.0 52.0 0.0 0.0 52.0 0.0" fill="#795fa9" fill-opacity="0.0" fill-rule="evenodd" stroke="none"/>
      <path d="M45.0 7.95 L43.85 5.65 42.15 4.35 41.45 4.5 41.35 5.0 40.55 5.05 38.7 4.1 37.65 5.25 37.95 6.15 37.65 6.35 34.3 6.6 32.65 7.3 29.6 7.2 27.85 8.95 28.2 9.65 27.6 10.6 26.5 10.3 24.45 10.95 24.35 12.25 25.3 13.25 26.45 13.4 27.15 14.15 27.35 14.7 27.05 15.25 25.95 15.1 25.9 16.3 26.25 16.75 26.15 16.85 24.95 17.25 24.2 18.35 24.65 19.35 23.75 19.3 22.25 19.85 20.9 21.75 18.2 24.05 17.65 25.2 18.2 26.15 18.15 26.85 19.55 26.8 19.5 27.7 19.7 28.0 18.6 29.2 18.3 29.95 18.75 30.8 16.65 33.2 15.25 33.75 15.85 35.2 16.0 36.3 16.55 37.1 15.3 36.65 13.55 37.15 13.35 37.2 12.85 38.75 14.0 42.1 16.05 44.9 16.55 46.8 19.3 47.65 19.75 47.4 20.9 45.45 26.25 40.65 27.45 38.6 30.6 36.4 32.15 37.5 33.15 37.6 34.95 36.55 39.5 30.4 41.35 29.05 43.15 26.9 42.8 24.4 41.5 23.5 39.55 22.5 39.05 22.55 38.85 22.2 39.25 22.05 42.6 23.4 44.95 22.75 46.15 20.6 45.85 19.2 46.6 17.9 46.3 15.65 46.75 12.7 46.55 9.4 45.0 7.95 M20.75 13.45 L21.35 13.25 21.95 14.7 22.1 16.05 21.25 17.55 19.25 16.7 18.55 15.45 18.5 14.8 18.9 14.55 18.4 13.9 18.3 13.05 18.9 12.1 20.4 12.05 20.75 13.45 M13.15 21.2 L10.3 20.2 8.9 21.25 9.0 22.05 11.45 24.5 13.6 25.3 13.85 24.3 14.7 23.9 14.55 22.6 13.15 21.2 M12.05 27.25 L11.5 29.45 12.3 29.15 12.95 30.0 14.85 30.1 15.75 31.1 14.7 33.15 13.2 33.3 10.45 34.45 8.9 35.55 7.6 35.65 6.0 34.75 4.85 33.1 5.45 31.6 5.3 30.15 5.8 26.2 7.2 24.75 8.15 24.65 9.3 25.55 11.5 26.55 12.05 27.25 M15.65 28.4 L16.55 27.65 14.9 27.4 14.05 28.0 15.65 28.4 M9.05 38.25 L7.65 39.4 7.15 40.4 8.85 42.35 Q9.9 41.85 10.9 41.3 L11.75 39.6 10.95 37.7 9.05 38.25" fill="none" stroke="#000000" stroke-linecap="round" stroke-linejoin="round" stroke-opacity="0.3019608" stroke-width="1.0"/>
      <path d="M28.2 19.8 L28.4 20.55 26.2 22.3 25.25 23.05 23.95 24.55 22.15 26.65 23.65 23.8 24.95 21.9 25.65 21.3 28.2 19.8 M38.0 21.5 L38.4 21.55 39.2 22.75 38.1 25.95 31.05 33.65 27.6 31.75 27.25 31.7 30.55 28.7 33.8 25.65 34.25 24.95 34.95 23.7 35.45 22.85 38.0 21.5 M20.95 28.75 L20.5 28.4 19.85 28.3 19.45 27.65 20.9 26.75 21.95 26.85 20.9 28.0 20.95 28.75" fill="#423e28" fill-rule="evenodd" stroke="none"/>
      <path d="M20.9 21.7 L22.25 19.85 23.75 19.25 27.7 19.45 20.9 21.7 M28.4 20.55 L29.05 20.05 38.0 21.5 35.45 22.85 34.95 23.7 30.2 23.85 26.2 22.3 28.4 20.55" fill="#5f5a3a" fill-rule="evenodd" stroke="none"/>
      <path d="M18.15 26.15 L17.65 25.15 18.25 24.7 19.0 25.05 18.15 26.15" fill="#7a744a" fill-rule="evenodd" stroke="none"/>
      <path d="M19.5 26.8 L18.1 26.85 18.15 26.15 19.0 25.05 19.6 25.9 19.5 26.8" fill="#968e5a" fill-rule="evenodd" stroke="none"/>
      <path d="M17.65 25.15 L18.2 24.0 19.6 23.7 18.25 24.7 17.65 25.15 M20.9 28.0 L21.95 26.85 22.15 26.65 23.95 24.55 22.75 27.2 20.9 28.0" fill="#cfc286" fill-rule="evenodd" stroke="none"/>
      <path d="M27.25 31.7 L22.5 30.55 21.05 29.5 20.95 28.75 20.9 28.0 22.75 27.2 25.3 26.85 25.6 26.8 32.85 25.8 30.55 28.7 27.25 31.7 M19.45 27.65 L19.5 26.8 19.6 25.9 19.0 25.05 18.25 24.7 19.6 23.7 18.2 24.0 20.1 22.3 19.6 23.7 23.65 23.8 22.15 26.65 21.95 26.85 20.9 26.75 19.45 27.65" fill="#a89d6d" fill-rule="evenodd" stroke="none"/>
      <path d="M34.25 24.95 L33.8 25.65 30.55 28.7 32.85 25.8 33.8 25.65 32.85 25.8 25.6 26.8 34.25 24.95" fill="#dfd090" fill-rule="evenodd" stroke="none"/>
      <path d="M20.9 21.7 L27.7 19.45 28.2 19.8 25.65 21.3 24.95 21.9 23.65 23.8 19.6 23.7 20.1 22.3 20.9 21.7 M34.95 23.7 L34.25 24.95 25.6 26.8 25.3 26.85 22.75 27.2 23.95 24.55 25.25 23.05 26.2 22.3 30.2 23.85 34.95 23.7" fill="#96875a" fill-rule="evenodd" stroke="none"/>
      <path d="M27.7 19.45 L23.75 19.25 22.25 19.85 20.9 21.7 27.7 19.45 27.7 19.4 27.7 19.45 28.2 19.8 28.4 20.55 29.05 20.05 38.0 21.5 38.4 21.55 39.2 22.75 38.1 25.95 31.05 33.65 27.6 31.75 27.25 31.7 22.5 30.55 21.05 29.5 20.95 28.75 20.5 28.4 19.85 28.3 19.45 27.65 19.5 26.8 18.1 26.85 18.15 26.15 17.65 25.15 18.2 24.0 20.1 22.3 20.9 21.7 M23.65 23.8 L24.95 21.9 25.65 21.3 28.2 19.8 M26.2 22.3 L28.4 20.55 M38.0 21.5 L35.45 22.85 34.95 23.7 34.25 24.95 33.8 25.65 30.55 28.7 27.25 31.7 M33.8 25.65 L32.85 25.8 25.6 26.8 M19.0 25.05 L19.6 25.9 19.5 26.8 M20.95 28.75 L20.9 28.0 21.95 26.85 20.9 26.75 19.45 27.65 M21.95 26.85 L22.15 26.65 23.65 23.8 19.6 23.7 18.25 24.7 19.0 25.05 18.15 26.15 M23.95 24.55 L22.75 27.2 25.3 26.85 M22.15 26.65 L23.95 24.55 25.25 23.05 26.2 22.3 M22.75 27.2 L20.9 28.0 M17.65 25.15 L18.25 24.7 M19.6 23.7 L18.2 24.0 M20.1 22.3 L19.6 23.7" fill="none" stroke="#000000" stroke-linecap="round" stroke-linejoin="round" stroke-opacity="0.3019608" stroke-width="0.30000000000000004"/>
      <path d="M26.25 40.6 L20.9 45.4 20.2 41.05 23.75 38.1 25.95 40.2 26.25 40.6 M16.05 44.85 L14.0 42.05 16.1 44.3 16.05 44.85 M16.6 37.05 L16.05 36.25 16.95 36.65 17.4 36.75 17.35 37.25 16.6 37.05" fill="#706b44" fill-rule="evenodd" stroke="none"/>
      <path d="M26.25 33.5 L31.35 33.7 31.3 33.1 Q32.5 33.4 31.85 35.5 L30.25 36.6 29.5 35.45 27.4 34.7 28.3 34.15 23.45 34.3 21.7 34.75 19.35 35.35 21.7 34.75 19.65 37.15 18.75 37.6 17.35 37.25 17.4 36.75 19.35 35.35 18.2 35.65 17.7 35.15 18.8 34.75 22.0 34.0 26.25 33.5 M29.3 31.2 L24.3 31.35 23.15 31.35 22.65 31.0 27.05 30.75 27.45 30.7 29.35 30.6 29.3 31.2 M31.35 33.7 L31.4 34.0 28.3 34.15 31.4 34.0 31.35 33.7 M19.3 47.65 L16.55 46.75 17.4 45.25 16.1 44.3 14.0 42.05 12.85 38.75 14.65 38.25 17.65 39.4 18.65 42.1 19.3 47.65" fill="#423e28" fill-rule="evenodd" stroke="none"/>
      <path d="M30.25 36.6 L27.4 38.55 26.25 40.6 25.95 40.2 24.25 37.7 24.75 36.5 27.4 34.7 29.5 35.45 30.25 36.6 M20.9 45.4 L19.75 47.35 19.3 47.65 18.65 42.1 17.65 39.4 19.85 38.6 20.15 40.6 20.2 41.05 20.9 45.4 M16.55 46.75 L16.05 44.85 16.1 44.3 17.4 45.25 16.55 46.75 M18.7 30.8 L18.3 29.9 19.75 31.2 19.35 32.05 19.2 31.4 18.75 31.2 18.7 30.8" fill="#5f5a3a" fill-rule="evenodd" stroke="none"/>
      <path d="M16.05 36.25 L15.8 35.15 15.2 33.7 17.05 35.65 16.05 36.25" fill="#968e5a" fill-rule="evenodd" stroke="none"/>
      <path d="M16.95 36.65 L16.05 36.25 17.05 35.65 16.95 36.65" fill="#a89e64" fill-rule="evenodd" stroke="none"/>
      <path d="M13.55 37.15 L15.3 36.65 16.6 37.05 17.35 37.25 18.75 37.6 19.45 38.05 17.65 39.4 14.65 38.25 13.55 37.15 M27.4 34.65 L27.4 34.7 27.4 34.65" fill="#cfc286" fill-rule="evenodd" stroke="none"/>
      <path d="M31.3 33.1 L31.35 33.7 26.25 33.5 24.15 33.2 24.3 31.35 29.3 31.2 31.2 32.4 31.3 33.1 M22.0 34.0 L18.8 34.75 18.5 33.3 19.15 32.5 19.35 32.05 19.15 32.5 18.5 33.3 17.75 34.1 17.7 35.15 18.2 35.65 19.35 35.35 17.4 36.75 16.95 36.65 17.05 35.65 15.2 33.7 16.65 33.2 18.7 30.8 18.75 31.2 19.2 31.4 19.35 32.05 19.75 31.2 22.55 30.45 22.65 31.0 23.15 31.35 24.3 31.35 23.55 33.45 22.0 34.0 M19.95 37.15 L20.15 37.15 24.05 37.25 22.55 38.65 20.15 40.6 19.85 38.6 19.45 38.05 18.75 37.6 19.65 37.15 19.95 37.15" fill="#a89d6d" fill-rule="evenodd" stroke="none"/>
      <path d="M24.3 31.35 L24.15 33.2 26.25 33.5 22.0 34.0 23.55 33.45 24.3 31.35 M18.8 34.75 L17.7 35.15 17.75 34.1 18.5 33.3 18.8 34.75 M12.85 38.75 L13.35 37.2 13.55 37.15 14.65 38.25 12.85 38.75 M22.65 31.0 L22.55 30.45 22.25 28.3 23.0 30.4 27.05 30.75 22.65 31.0 M23.55 33.45 L24.15 33.2 23.55 33.45 M20.15 37.15 L23.45 36.75 27.4 34.65 27.4 34.7 24.75 36.5 24.25 37.7 25.95 40.2 23.75 38.1 20.2 41.05 20.15 40.6 22.55 38.65 24.05 37.25 20.15 37.15 M19.45 38.05 L19.85 38.6 17.65 39.4 19.45 38.05" fill="#dfd090" fill-rule="evenodd" stroke="none"/>
      <path d="M21.7 34.75 L23.45 34.3 28.3 34.15 27.4 34.7 27.4 34.65 23.45 36.75 20.15 37.15 19.95 37.15 19.65 37.15 21.7 34.75 M18.3 29.9 L18.6 29.15 19.75 27.9 22.25 28.3 22.25 27.9 25.35 28.75 29.35 30.6 27.45 30.7 27.05 30.75 23.0 30.4 22.25 28.3 22.55 30.45 19.75 31.2 18.3 29.9" fill="#96875a" fill-rule="evenodd" stroke="none"/>
      <path d="M26.25 33.5 L31.35 33.7 31.3 33.1 31.2 32.4 29.3 31.2 24.3 31.35 24.15 33.2 26.25 33.5 22.0 34.0 18.8 34.75 17.7 35.15 18.2 35.65 19.35 35.35 21.7 34.75 23.45 34.3 28.3 34.15 31.4 34.0 31.35 33.7 M31.3 33.1 Q32.5 33.4 31.85 35.5 L30.25 36.6 27.4 38.55 26.25 40.6 20.9 45.4 19.75 47.35 19.3 47.65 16.55 46.75 16.05 44.85 14.0 42.05 12.85 38.75 13.35 37.2 13.55 37.15 15.3 36.65 16.6 37.05 16.05 36.25 15.8 35.15 15.2 33.7 16.65 33.2 18.7 30.8 18.3 29.9 18.6 29.15 19.75 27.9 22.25 28.3 22.25 27.9 25.35 28.75 29.35 30.6 29.3 31.2 M22.65 31.0 L22.55 30.45 19.75 31.2 19.35 32.05 19.15 32.5 18.5 33.3 18.8 34.75 M24.15 33.2 L23.55 33.45 22.0 34.0 M24.3 31.35 L23.15 31.35 22.65 31.0 27.05 30.75 M22.25 28.3 L22.55 30.45 M18.7 30.8 L18.75 31.2 19.2 31.4 19.35 32.05 M27.4 34.7 L28.3 34.15 M19.65 37.15 L19.95 37.15 M21.7 34.75 L19.65 37.15 18.75 37.6 19.45 38.05 19.85 38.6 20.15 40.6 20.2 41.05 23.75 38.1 M24.05 37.25 L20.15 37.15 M27.45 30.7 L29.35 30.6 M25.95 40.2 L24.25 37.7 24.75 36.5 27.4 34.7 M25.95 40.2 L26.25 40.6 M17.65 39.4 L18.65 42.1 19.3 47.65 M20.2 41.05 L20.9 45.4 M18.5 33.3 L17.75 34.1 17.7 35.15 M16.95 36.65 L16.05 36.25 17.05 35.65 15.2 33.7 M17.4 36.75 L17.35 37.25 18.75 37.6 M17.05 35.65 L16.95 36.65 17.4 36.75 19.35 35.35 M16.6 37.05 L17.35 37.25 M12.85 38.75 L14.65 38.25 13.55 37.15 M16.05 44.85 L16.1 44.3 14.0 42.05 M14.65 38.25 L17.65 39.4 19.45 38.05 M16.1 44.3 L17.4 45.25 16.55 46.75 M19.75 31.2 L18.3 29.9 M17.65 39.4 L19.85 38.6" fill="none" stroke="#000000" stroke-linecap="round" stroke-linejoin="round" stroke-opacity="0.3019608" stroke-width="0.30000000000000004"/>
      <path d="M26.95 10.4 L28.2 10.8 27.25 13.55 26.55 12.95 26.25 11.75 26.95 10.4" fill="#5f5a3a" fill-rule="evenodd" stroke="none"/>
      <path d="M26.55 12.95 L27.25 13.55 28.0 15.0 26.45 13.4 25.3 13.25 24.35 12.25 25.35 12.35 25.8 12.4 26.55 12.95 M25.95 15.1 L26.5 16.55 26.7 17.45 25.9 16.3 25.95 15.1" fill="#423e28" fill-rule="evenodd" stroke="none"/>
      <path d="M24.4 11.3 L25.35 12.35 24.35 12.25 24.4 11.3" fill="#cfc286" fill-rule="evenodd" stroke="none"/>
      <path d="M26.95 10.4 L26.25 11.75 26.55 12.95 25.8 12.4 25.35 12.35 24.4 11.3 24.45 10.95 26.5 10.3 26.95 10.4 M26.5 16.55 L25.95 15.1 27.2 15.3 26.5 16.55" fill="#a89d6d" fill-rule="evenodd" stroke="none"/>
      <path d="M27.25 13.55 L28.2 10.8 26.95 10.4 26.5 10.3 24.45 10.95 24.4 11.3 25.35 12.35 25.8 12.4 26.55 12.95 27.25 13.55 28.0 15.0 28.25 15.35 M24.35 12.25 L25.35 12.35 M24.35 12.25 L25.3 13.25 26.45 13.4 28.0 15.0 M26.5 16.55 L25.95 15.1 25.9 16.3 26.7 17.45 26.5 16.55 27.2 15.3 25.95 15.1 M24.4 11.3 L24.35 12.25" fill="none" stroke="#000000" stroke-linecap="round" stroke-linejoin="round" stroke-opacity="0.3019608" stroke-width="0.30000000000000004"/>
      <path d="M45.0 7.95 L46.55 9.4 45.7 10.05 43.1 7.7 42.35 7.45 43.1 7.7 45.35 10.5 45.15 13.35 43.8 11.7 43.6 11.55 41.05 10.05 41.5 9.55 42.0 9.15 41.8 7.2 42.35 7.45 39.2 5.75 39.3 5.2 38.7 4.1 40.55 5.05 42.55 6.05 43.45 6.5 45.0 7.95 M44.95 18.85 Q44.25 19.55 43.35 20.1 L43.3 18.85 43.35 18.65 42.4 17.35 43.7 14.55 43.7 14.5 40.55 13.15 38.05 15.2 37.9 15.25 Q37.2 15.5 36.85 15.95 L36.75 16.05 32.35 19.85 31.0 19.35 29.9 18.05 29.5 17.65 29.1 16.7 29.15 15.55 28.65 14.7 29.1 15.15 29.8 15.8 30.0 16.45 30.6 18.1 31.65 18.65 31.9 19.1 30.65 18.7 29.9 18.05 30.65 18.7 31.9 19.1 39.95 11.55 43.85 14.2 45.2 15.5 45.4 18.4 44.95 18.85 M29.45 22.5 Q27.0 22.0 25.65 20.7 L25.75 20.75 32.3 22.15 29.45 22.5 M43.85 14.2 L43.7 14.5 43.85 14.2" fill="#706b44" fill-rule="evenodd" stroke="none"/>
      <path d="M43.1 7.7 L45.7 10.05 46.55 9.4 46.75 12.7 46.3 15.65 46.15 14.6 45.15 13.35 45.35 10.5 43.1 7.7 M43.35 20.1 Q40.95 21.75 37.45 22.5 L36.9 22.55 36.05 21.75 41.8 17.75 43.3 18.85 43.35 20.1 M29.9 12.9 L29.2 13.05 Q28.5 13.3 28.1 13.85 27.9 14.15 27.85 14.45 27.75 14.0 28.1 13.55 28.5 13.0 29.25 12.75 L30.2 12.65 29.9 12.9 M31.9 19.1 L31.65 18.65 32.4 17.15 35.55 14.05 37.15 12.45 38.8 10.85 39.7 10.7 39.95 11.55 31.9 19.1 M39.75 15.5 L39.95 15.6 40.5 16.3 Q40.65 16.9 40.25 17.55 39.8 18.15 38.95 18.45 L37.45 18.5 Q36.75 18.2 36.6 17.7 L36.6 17.65 36.55 17.2 36.8 17.6 37.05 17.8 37.35 17.95 38.7 17.9 39.8 17.1 40.05 16.6 40.05 15.95 39.75 15.5" fill="#5f5a3a" fill-rule="evenodd" stroke="none"/>
      <path d="M45.0 7.95 L43.45 6.5 42.55 6.05 43.85 5.65 45.0 7.95 M39.2 5.75 L42.35 7.45 41.8 7.2 40.85 6.85 39.1 6.2 39.2 5.75 M46.3 15.65 L46.6 17.9 45.85 19.2 44.95 18.85 45.4 18.4 45.2 15.5 43.85 14.2 39.95 11.55 39.7 10.7 43.75 12.5 43.7 12.0 43.6 11.55 43.8 11.7 45.15 13.35 46.15 14.6 46.3 15.65 M36.9 22.55 Q32.4 23.1 29.45 22.5 L32.3 22.15 36.05 21.75 36.9 22.55 M28.2 9.65 L27.85 8.95 29.15 8.4 34.15 9.5 33.8 9.7 28.5 9.2 28.2 9.65 M27.85 14.45 Q27.9 14.15 28.1 13.85 28.5 13.3 29.2 13.05 L29.9 12.9 29.45 13.35 28.65 14.7 29.15 15.55 28.7 15.45 28.4 15.3 Q28.0 15.05 27.9 14.6 L27.85 14.45 M38.8 10.85 L37.15 12.45 37.45 10.8 38.8 10.85" fill="#423e28" fill-rule="evenodd" stroke="none"/>
      <path d="M34.15 9.5 L29.15 8.4 29.55 8.25 34.1 7.85 34.15 7.8 37.5 8.3 43.7 12.0 43.75 12.5 39.7 10.7 39.0 9.8 34.5 9.35 34.15 9.5" fill="#7a744a" fill-rule="evenodd" stroke="none"/>
      <path d="M39.3 5.2 L39.2 5.75 39.1 6.2 38.3 5.9 37.95 6.15 37.65 5.25 39.3 5.2 M36.75 16.05 L36.85 15.95 36.75 16.05" fill="#968e5a" fill-rule="evenodd" stroke="none"/>
      <path d="M28.65 14.7 L29.45 13.35 29.1 15.15 28.65 14.7" fill="#bfb072" fill-rule="evenodd" stroke="none"/>
      <path d="M24.2 18.35 L24.95 17.25 26.15 16.85 26.1 17.7 24.2 18.35 M27.1 13.9 L26.8 12.4 27.5 10.7 27.5 13.1 27.1 13.9 M29.6 7.2 L32.65 7.3 35.45 7.65 37.45 7.85 41.05 10.05 43.6 11.55 43.7 12.0 37.5 8.3 34.15 7.8 34.1 7.85 29.55 8.25 29.6 7.2 M34.3 6.6 L37.65 6.35 37.95 6.15 38.3 5.9 38.3 6.7 34.3 6.6 M31.3 16.6 L35.55 14.05 32.4 17.15 31.3 16.6 M37.15 12.45 L36.7 11.0 34.25 10.55 37.45 10.8 37.15 12.45 M41.5 9.55 L41.6 8.6 40.85 6.85 41.8 7.2 42.0 9.15 41.5 9.55 M43.3 18.85 L41.8 17.75 36.05 21.75 32.3 22.15 25.75 20.75 32.2 21.65 36.35 20.85 41.4 17.3 43.7 14.55 42.4 17.35 43.35 18.65 43.3 18.85" fill="#dfd090" fill-rule="evenodd" stroke="none"/>
      <path d="M38.7 4.1 L39.3 5.2 37.65 5.25 38.7 4.1 M26.15 16.85 L27.35 14.7 27.1 16.4 26.1 17.7 26.15 16.85 M29.9 12.9 L30.2 12.65 32.4 10.35 33.75 10.45 34.25 10.55 36.7 11.0 37.15 12.45 35.55 14.05 31.3 16.6 30.0 16.45 29.8 15.8 29.1 15.15 29.45 13.35 29.9 12.9 M41.35 5.0 L41.45 4.5 42.15 4.35 42.1 4.9 41.35 5.0 M36.55 17.2 L36.55 17.15 Q36.35 16.6 36.75 16.05 L36.85 15.95 Q37.2 15.5 37.9 15.25 L38.05 15.2 39.2 15.25 Q39.55 15.3 39.75 15.5 L40.05 15.95 40.05 16.6 39.8 17.1 38.7 17.9 37.35 17.95 37.05 17.8 36.8 17.6 36.55 17.2" fill="#cfc286" fill-rule="evenodd" stroke="none"/>
      <path d="M42.55 6.05 L40.55 5.05 41.35 5.0 42.1 4.9 42.15 4.35 43.85 5.65 42.55 6.05 M25.65 20.7 Q24.6 19.75 24.2 18.35 L26.1 17.7 27.1 16.4 27.35 14.7 27.1 13.9 27.5 13.1 27.5 10.7 28.2 9.65 28.5 9.2 33.8 9.7 34.15 9.5 34.5 9.35 39.0 9.8 39.7 10.7 38.8 10.85 37.45 10.8 34.25 10.55 33.75 10.45 32.4 10.35 30.2 12.65 29.25 12.75 Q28.5 13.0 28.1 13.55 27.75 14.0 27.85 14.45 L27.9 14.6 Q28.0 15.05 28.4 15.3 L28.7 15.45 29.15 15.55 29.1 16.7 29.5 17.65 29.9 18.05 31.0 19.35 32.35 19.85 36.75 16.05 Q36.35 16.6 36.55 17.15 L36.55 17.2 36.6 17.65 36.6 17.7 Q36.75 18.2 37.45 18.5 L38.95 18.45 Q39.8 18.15 40.25 17.55 40.65 16.9 40.5 16.3 L39.95 15.6 39.75 15.5 Q39.55 15.3 39.2 15.25 L38.05 15.2 40.55 13.15 43.7 14.5 43.7 14.55 41.4 17.3 36.35 20.85 32.2 21.65 25.75 20.75 25.65 20.7 M27.85 8.95 L29.6 7.2 29.55 8.25 29.15 8.4 27.85 8.95 M32.65 7.3 L34.3 6.6 38.3 6.7 38.3 5.9 39.1 6.2 40.85 6.85 41.6 8.6 41.5 9.55 41.05 10.05 37.45 7.85 35.45 7.65 32.65 7.3 M31.65 18.65 L30.6 18.1 30.0 16.45 31.3 16.6 32.4 17.15 31.65 18.65 M33.8 9.7 L32.4 10.35 33.8 9.7" fill="#a89d6d" fill-rule="evenodd" stroke="none"/>
      <path d="M46.55 9.4 L45.0 7.95 43.45 6.5 42.55 6.05 40.55 5.05 38.7 4.1 39.3 5.2 39.2 5.75 42.35 7.45 43.1 7.7 45.7 10.05 46.55 9.4 46.75 12.7 46.3 15.65 46.6 17.9 45.85 19.2 44.95 18.85 Q44.25 19.55 43.35 20.1 40.95 21.75 37.45 22.5 L36.9 22.55 Q32.4 23.1 29.45 22.5 27.0 22.0 25.65 20.7 24.6 19.75 24.2 18.35 L24.95 17.25 26.15 16.85 27.35 14.7 27.1 13.9 26.8 12.4 27.5 10.7 28.2 9.65 27.85 8.95 29.6 7.2 32.65 7.3 34.3 6.6 37.65 6.35 37.95 6.15 37.65 5.25 38.7 4.1 M45.15 13.35 L46.15 14.6 46.3 15.65 M29.15 8.4 L27.85 8.95 M28.2 9.65 L28.5 9.2 33.8 9.7 34.15 9.5 29.15 8.4 29.55 8.25 29.6 7.2 M26.1 17.7 L27.1 16.4 27.35 14.7 M24.2 18.35 L26.1 17.7 26.15 16.85 M29.9 12.9 L30.2 12.65 29.25 12.75 Q28.5 13.0 28.1 13.55 27.75 14.0 27.85 14.45 L27.9 14.6 Q28.0 15.05 28.4 15.3 L28.7 15.45 29.15 15.55 28.65 14.7 29.45 13.35 29.9 12.9 M27.1 13.9 L27.5 13.1 27.5 10.7 M29.1 15.15 L28.65 14.7 M30.0 16.45 L29.8 15.8 29.1 15.15 29.45 13.35 M29.15 15.55 L29.1 16.7 29.5 17.65 29.9 18.05 30.65 18.7 31.9 19.1 31.65 18.65 30.6 18.1 30.0 16.45 31.3 16.6 35.55 14.05 37.15 12.45 37.45 10.8 34.25 10.55 M33.75 10.45 L32.4 10.35 30.2 12.65 M31.3 16.6 L32.4 17.15 35.55 14.05 M42.15 4.35 L41.45 4.5 41.35 5.0 42.1 4.9 42.15 4.35 43.85 5.65 45.0 7.95 M40.55 5.05 L41.35 5.0 M41.5 9.55 L42.0 9.15 41.8 7.2 40.85 6.85 39.1 6.2 38.3 5.9 38.3 6.7 34.3 6.6 M42.55 6.05 L43.85 5.65 M41.8 7.2 L42.35 7.45 M39.2 5.75 L39.1 6.2 M43.7 12.0 L43.6 11.55 41.05 10.05 37.45 7.85 35.45 7.65 32.65 7.3 M34.15 9.5 L34.5 9.35 39.0 9.8 39.7 10.7 43.75 12.5 43.7 12.0 M38.3 5.9 L37.95 6.15 M38.8 10.85 L37.15 12.45 M37.45 10.8 L38.8 10.85 39.7 10.7 39.95 11.55 43.85 14.2 45.2 15.5 45.4 18.4 44.95 18.85 M36.55 17.2 L36.55 17.15 Q36.35 16.6 36.75 16.05 L36.85 15.95 Q37.2 15.5 37.9 15.25 L38.05 15.2 39.2 15.25 Q39.55 15.3 39.75 15.5 L39.95 15.6 40.5 16.3 Q40.65 16.9 40.25 17.55 39.8 18.15 38.95 18.45 L37.45 18.5 Q36.75 18.2 36.6 17.7 L36.6 17.65 36.55 17.2 36.8 17.6 M43.7 14.5 L43.85 14.2 M43.6 11.55 L43.8 11.7 45.15 13.35 45.35 10.5 43.1 7.7 M41.5 9.55 L41.05 10.05 M43.7 14.55 L43.7 14.5 M37.65 5.25 L39.3 5.2 M32.4 10.35 L33.8 9.7 M29.55 8.25 L34.1 7.85 M41.8 17.75 L36.05 21.75 36.9 22.55 M43.3 18.85 L43.35 20.1 M43.7 14.55 L42.4 17.35 43.35 18.65 43.3 18.85 M29.45 22.5 L32.3 22.15 25.75 20.75 25.65 20.7 M32.3 22.15 L36.05 21.75 M32.4 17.15 L31.65 18.65 M39.95 11.55 L31.9 19.1" fill="none" stroke="#000000" stroke-linecap="round" stroke-linejoin="round" stroke-opacity="0.3019608" stroke-width="0.30000000000000004"/>
      <path d="M40.6 20.95 L42.75 20.9 44.0 20.7 44.95 22.45 44.95 22.75 42.6 23.4 40.6 20.95" fill="#706b44" fill-rule="evenodd" stroke="none"/>
      <path d="M45.6 19.55 L45.65 18.6 46.15 20.6 44.95 22.75 44.95 22.45 44.75 20.5 45.6 19.55" fill="#5f5a3a" fill-rule="evenodd" stroke="none"/>
      <path d="M41.65 17.9 L43.35 18.65 43.75 19.5 42.5 20.1 42.0 20.2 42.15 19.15 41.65 17.9 M38.5 20.45 L40.6 20.95 42.6 23.4 38.4 21.65 38.5 20.45" fill="#423e28" fill-rule="evenodd" stroke="none"/>
      <path d="M42.0 20.2 L42.5 20.1 43.75 19.5 43.35 18.65 41.65 17.9 42.95 17.0 45.65 18.6 45.6 19.55 42.75 20.9 40.6 20.95 38.5 20.45 Q39.3 20.05 40.15 19.6 L41.45 20.25 42.0 20.2" fill="#a89d6d" fill-rule="evenodd" stroke="none"/>
      <path d="M42.75 20.9 L45.6 19.55 44.75 20.5 44.95 22.45 44.0 20.7 42.75 20.9" fill="#dfd090" fill-rule="evenodd" stroke="none"/>
      <path d="M41.65 17.9 L43.35 18.65 43.75 19.5 42.5 20.1 42.0 20.2 41.45 20.25 40.15 19.6 Q39.3 20.05 38.5 20.45 L40.6 20.95 42.75 20.9 44.0 20.7 M45.6 19.55 L45.65 18.6 42.95 17.0 41.65 17.9 42.15 19.15 42.0 20.2 M42.6 23.4 L40.6 20.95 M44.95 22.45 L44.95 22.75 46.15 20.6 45.65 18.6 M44.95 22.45 L44.75 20.5 45.6 19.55 M44.95 22.75 L42.6 23.4 38.4 21.65 38.5 20.45" fill="none" stroke="#000000" stroke-linecap="round" stroke-linejoin="round" stroke-opacity="0.3019608" stroke-width="0.30000000000000004"/>
      <path d="M33.6 31.9 L33.7 32.7 33.9 34.1 34.95 36.55 33.15 37.6 32.55 35.9 31.85 32.2 32.6 30.2 33.35 29.65 33.6 31.9" fill="#706b44" fill-rule="evenodd" stroke="none"/>
      <path d="M34.95 32.35 L37.6 29.9 38.9 27.55 40.35 26.45 43.15 26.85 41.3 29.0 39.5 30.35 34.95 36.55 33.9 34.1 34.95 32.35" fill="#5f5a3a" fill-rule="evenodd" stroke="none"/>
      <path d="M29.9 30.6 L31.85 32.2 32.55 35.9 32.15 37.45 29.25 35.4 27.55 29.95 28.2 30.15 29.9 30.6" fill="#423e28" fill-rule="evenodd" stroke="none"/>
      <path d="M40.35 26.45 L40.4 25.5 41.5 23.5 42.8 24.4 43.15 26.85 40.35 26.45 M33.7 32.7 L34.95 32.35 33.9 34.1 33.7 32.7 M32.55 35.9 L33.15 37.6 32.15 37.45 32.55 35.9" fill="#968e5a" fill-rule="evenodd" stroke="none"/>
      <path d="M32.6 30.2 L31.85 32.2 29.9 30.6 32.6 30.2 M31.65 28.85 L28.0 28.5 29.3 28.0 31.65 28.85" fill="#cfc286" fill-rule="evenodd" stroke="none"/>
      <path d="M41.5 23.5 L39.5 24.85 36.3 23.75 37.8 22.55 39.5 22.5 41.5 23.5 M39.0 25.3 L40.05 25.85 38.4 27.2 37.15 29.8 35.35 31.25 33.6 31.9 33.35 29.65 33.3 29.45 32.2 29.05 33.3 29.45 33.35 29.65 32.6 30.2 29.9 30.6 28.2 30.15 28.4 29.1 31.65 28.85 32.2 29.05 34.85 26.75 39.0 25.3" fill="#a89d6d" fill-rule="evenodd" stroke="none"/>
      <path d="M41.5 23.5 L40.4 25.5 40.35 26.45 38.9 27.55 37.6 29.9 34.95 32.35 33.7 32.7 33.6 31.9 35.35 31.25 37.15 29.8 38.4 27.2 40.05 25.85 39.0 25.3 36.3 23.75 39.5 24.85 41.5 23.5 M28.2 30.15 L27.55 29.95 28.0 28.5 31.65 28.85 28.4 29.1 28.2 30.15" fill="#dfd090" fill-rule="evenodd" stroke="none"/>
      <path d="M36.3 23.75 L39.0 25.3 34.85 26.75 36.3 23.75" fill="#96875a" fill-rule="evenodd" stroke="none"/>
      <path d="M40.35 26.45 L40.4 25.5 41.5 23.5 39.5 22.5 37.8 22.55 36.3 23.75 34.85 26.75 39.0 25.3 36.3 23.75 M33.6 31.9 L33.7 32.7 34.95 32.35 37.6 29.9 38.9 27.55 40.35 26.45 43.15 26.85 42.8 24.4 41.5 23.5 M32.2 29.05 L33.3 29.45 33.35 29.65 33.6 31.9 M31.65 28.85 L32.2 29.05 34.85 26.75 M31.85 32.2 L32.6 30.2 29.9 30.6 31.85 32.2 32.55 35.9 33.15 37.6 34.95 36.55 33.9 34.1 33.7 32.7 M33.9 34.1 L34.95 32.35 M32.6 30.2 L33.35 29.65 M43.15 26.85 L41.3 29.0 39.5 30.35 34.95 36.55 M28.2 30.15 L29.9 30.6 M27.55 29.95 L28.2 30.15 M31.65 28.85 L28.0 28.5 27.55 29.95 29.25 35.4 32.15 37.45 32.55 35.9 M28.0 28.5 L29.3 28.0 31.65 28.85 M33.15 37.6 L32.15 37.45" fill="none" stroke="#000000" stroke-linecap="round" stroke-linejoin="round" stroke-opacity="0.3019608" stroke-width="0.30000000000000004"/>
    </g>
    <g id="sprite0" transform="matrix(1.0, 0.0, 0.0, 1.0, 37.15, 38.8)">
      <use height="78.5" transform="matrix(1.0, 0.0, 0.0, 1.0, -37.15, -38.8)" width="75.15" xlink:href="#shape1"/>
    </g>
    <g id="shape1" transform="matrix(1.0, 0.0, 0.0, 1.0, 37.15, 38.8)">
      <path d="M5.5 -21.3 L6.0 -20.8 5.8 -19.95 6.5 -19.55 4.7 -17.8 7.55 -16.65 7.55 -18.2 10.3 -19.05 9.5 -20.2 10.55 -21.2 8.5 -22.55 7.35 -23.3 8.95 -25.55 9.1 -25.45 13.6 -26.95 12.2 -29.4 16.35 -29.65 18.2 -33.85 20.45 -33.65 22.0 -32.15 26.35 -31.7 26.95 -24.75 24.4 -23.25 23.95 -19.55 27.05 -18.1 31.75 -21.8 36.0 -19.75 37.4 -15.55 36.1 -12.8 33.9 -11.65 33.5 -11.8 33.5 -14.1 31.6 -13.25 31.6 -11.15 32.05 -10.7 31.05 -10.2 29.8 -7.55 32.4 -4.3 36.9 -5.2 38.0 -3.25 37.7 -1.1 36.25 -2.75 34.9 -1.2 36.05 0.25 35.0 4.15 37.05 8.3 34.3 10.35 34.25 10.4 32.35 8.75 29.6 9.85 29.6 13.3 33.8 16.0 33.75 20.7 31.25 23.8 28.9 23.8 27.35 22.25 29.45 20.5 28.7 19.7 26.6 20.15 25.85 18.95 24.95 20.3 23.5 20.3 23.2 18.95 25.85 16.85 25.2 15.5 23.25 16.4 22.45 15.1 19.1 18.25 18.4 19.85 20.5 19.4 20.55 21.75 22.2 22.85 21.75 24.05 23.85 27.75 22.85 29.55 21.25 30.2 19.15 33.85 20.15 36.05 10.7 36.05 13.75 39.1 8.2 39.1 5.3 37.25 5.6 37.5 3.55 39.7 1.8 36.65 -2.75 38.15 -3.1 37.1 -1.7 36.4 -6.95 35.3 -5.9 33.8 -5.95 33.65 -3.4 32.5 -4.8 31.0 -3.25 29.8 -0.4 32.15 1.0 30.05 -0.35 28.4 0.5 27.2 0.2 26.75 2.3 25.3 6.35 26.1 4.75 20.4 5.8 19.7 4.7 14.05 1.95 11.95 -0.1 13.85 2.45 15.65 1.0 19.0 -0.1 18.05 -2.3 21.2 -0.1 22.55 -1.3 25.05 -3.8 25.4 -3.8 27.25 -3.2 27.9 -4.95 29.65 -5.75 27.95 -7.6 27.95 -7.6 30.85 -7.1 31.55 -9.2 32.95 -10.15 30.6 -13.6 30.85 -14.3 32.65 -17.1 33.5 -21.95 29.8 -20.9 28.55 -22.0 27.55 -21.0 26.05 -21.25 23.15 -25.1 21.65 -25.2 21.7 -28.6 24.65 -30.5 23.5 -31.9 20.1 -30.7 17.65 -31.7 13.75 -30.6 12.3 -31.9 10.75 -32.0 10.65 -33.15 9.2 -31.9 9.2 -29.65 6.2 -31.6 3.4 -37.15 4.15 -35.8 1.45 -36.8 -2.45 -35.7 -3.9 -37.0 -5.45 -36.8 -5.75 -31.1 -5.45 -29.8 -6.35 -29.35 -5.05 -27.35 -6.2 -26.45 -4.7 -23.85 -7.25 -21.65 -9.35 -20.45 -10.5 -20.5 -12.65 -21.5 -11.75 -22.1 -12.8 -23.3 -12.5 -23.85 -14.7 -25.9 -15.9 -27.15 -15.2 -28.3 -15.9 -28.75 -15.6 -29.05 -16.0 -29.05 -19.4 -29.15 -19.6 -27.4 -20.45 -24.5 -18.5 -21.7 -20.8 -19.0 -18.1 -15.4 -23.7 -17.8 -24.7 -16.0 -26.75 -16.3 -28.1 -15.45 -29.1 -17.85 -32.2 -17.0 -33.95 -19.9 -34.15 -18.55 -35.5 -16.35 -35.2 -14.35 -38.8 -11.7 -38.45 -12.2 -37.9 -9.05 -35.05 -10.15 -33.8 -5.3 -30.1 -1.85 -31.15 -1.0 -28.7 3.65 -30.95 3.25 -29.8 4.25 -29.8 2.6 -26.1 4.3 -24.95 3.15 -23.55 4.1 -22.6 5.5 -21.3 M17.45 -26.5 L17.45 -28.8 15.5 -27.95 15.5 -25.85 17.45 -23.95 19.1 -25.85 17.45 -26.5 M23.75 -7.85 L23.75 -10.15 21.8 -9.3 21.8 -7.15 23.75 -5.3 25.4 -7.15 23.75 -7.85 M22.4 -18.85 L22.4 -21.1 20.5 -20.3 20.5 -18.15 22.45 -16.3 24.1 -18.15 22.4 -18.85 M19.95 -1.4 L19.95 -0.65 18.05 1.25 17.05 -0.05 15.8 1.15 15.8 3.55 17.0 4.25 17.0 5.65 19.2 6.6 19.8 4.6 18.9 3.4 20.5 0.1 22.55 0.1 21.15 -0.95 19.95 -1.4 M3.7 -19.1 L1.85 -19.1 1.85 -16.25 3.85 -15.5 4.85 -17.4 3.7 -19.1 M20.75 -5.65 L19.9 -4.25 23.15 -3.1 20.75 -5.65 M25.75 -1.6 L24.2 -2.05 23.95 0.1 22.55 1.15 22.55 1.65 23.95 5.3 27.25 5.3 27.65 6.25 31.6 4.25 25.6 2.5 26.9 1.1 24.95 -0.05 25.75 -1.6 M-8.35 10.7 L-6.35 11.45 -5.35 9.55 -6.5 7.85 -8.35 7.85 -8.35 10.7 M-23.8 -2.9 L-23.8 -0.05 -21.75 0.7 -20.75 -1.2 -21.95 -2.9 -23.8 -2.9 M-20.45 -10.45 L-20.45 -7.6 -18.4 -6.85 -17.4 -8.75 -18.55 -10.45 -20.45 -10.45 M-10.5 20.95 L-9.4 23.05 -7.0 21.55 -6.15 23.05 -3.2 21.5 -4.25 19.85 -6.35 20.2 -6.8 16.45 -7.15 16.3 -6.75 14.85 -9.85 14.2 -12.65 18.05 -11.8 21.2 -10.5 20.95 M11.4 13.85 L11.0 11.95 7.1 14.9 8.15 16.3 8.15 18.0 10.8 21.25 13.85 20.3 14.2 20.55 13.6 22.7 15.55 23.8 17.8 21.8 16.9 20.3 16.45 19.4 14.5 18.95 15.8 17.75 14.05 16.15 14.0 16.25 13.65 16.05 11.75 15.55 11.45 14.15 11.4 13.85 M-19.85 12.4 L-20.05 12.15 -20.9 12.7 -20.8 12.9 -19.85 12.4 M-17.2 23.25 L-19.05 23.25 -19.05 26.1 -17.0 26.85 -16.0 24.95 -17.2 23.25" fill="url(#gradient0)" fill-rule="evenodd" stroke="none"/>
      <path d="M5.5 -21.3 L4.1 -22.6 4.75 -23.35 8.5 -22.55 8.2 -22.4 5.5 -21.3 M-21.65 -9.35 L-23.85 -7.25 -24.05 -7.15 -24.35 -9.25 -25.95 -9.8 -28.0 -10.5 -27.95 -12.0 -24.1 -13.25 -23.85 -12.9 -25.15 -12.0 -23.95 -10.75 -22.7 -10.85 -21.65 -9.35 M7.6 -21.25 L7.65 -21.1 7.55 -21.2 7.6 -21.25 M11.4 13.85 L11.45 14.15 11.3 14.45 11.4 13.85" fill="url(#gradient1)" fill-rule="evenodd" stroke="none"/>
    </g>
    <radialGradient cx="0" cy="0" gradientTransform="matrix(0.0504, 0.0, 0.0, 0.0504, -0.1, -0.1)" gradientUnits="userSpaceOnUse" id="gradient0" r="819.2" spreadMethod="pad">
      <stop offset="0.5215686274509804" stop-color="#133a01" stop-opacity="0.4509804"/>
      <stop offset="1.0" stop-color="#221e00" stop-opacity="0.0"/>
    </radialGradient>
    <radialGradient cx="0" cy="0" gradientTransform="matrix(0.042, 0.0, 0.0, 0.042, 0.0, 0.0)" gradientUnits="userSpaceOnUse" id="gradient1" r="819.2" spreadMethod="pad">
      <stop offset="0.5215686274509804" stop-color="#133a01" stop-opacity="0.4509804"/>
      <stop offset="1.0" stop-color="#221e00" stop-opacity="0.0"/>
    </radialGradient>
    <g id="sprite2" transform="matrix(1.0, 0.0, 0.0, 1.0, 1.05, 1.05)">
      <use height="172.9" transform="matrix(1.0, 0.0, 0.0, 1.0, -4.65, -4.65)" width="82.1" xlink:href="#shape2"/>
    </g>
    <g id="shape2" transform="matrix(1.0, 0.0, 0.0, 1.0, 4.65, 4.65)">
      <path d="M45.15 118.0 L67.1 47.3 Q60.05 84.7 45.15 118.0" fill="#000000" fill-opacity="0.03529412" fill-rule="evenodd" stroke="none"/>
      <path d="M43.75 69.05 Q26.65 113.65 20.4 117.6 17.55 109.85 28.1 81.45 38.25 56.05 47.2 54.0 48.65 56.75 43.75 69.05 M48.0 24.8 Q34.25 59.6 13.6 90.6 7.15 100.3 0.0 109.6 M45.15 118.0 L45.0 118.3 Q38.65 132.5 20.0 163.6 M45.15 118.0 Q60.05 84.7 67.1 47.3 L45.15 118.0 M72.8 0.4 Q71.4 24.6 67.1 47.3 M66.8 0.0 Q53.65 80.05 13.6 143.35 L12.4 145.2" fill="none" stroke="#000000" stroke-linecap="round" stroke-linejoin="round" stroke-opacity="0.050980393" stroke-width="0.30000000000000004"/>
    </g>
    <g id="shape3" transform="matrix(1.0, 0.0, 0.0, 1.0, -3.25, -10.35)">
      <path d="M7.55 26.0 L7.25 24.8 8.2 24.65 9.3 25.55 11.55 26.55 10.35 27.45 8.75 26.8 7.55 26.0 M5.35 30.15 L6.6 32.55 5.4 31.85 5.5 31.6 5.35 30.15 M12.95 30.0 L14.9 30.1 12.0 31.1 12.95 30.0" fill="#a89d6d" fill-rule="evenodd" stroke="none"/>
      <path d="M7.25 24.8 L7.55 26.0 5.85 26.2 7.25 24.8 M8.75 26.8 L10.35 27.45 9.7 28.75 9.65 28.25 8.75 26.8 M11.55 29.45 L12.35 29.15 12.95 30.0 12.0 31.1 11.3 30.75 11.55 29.45 M14.1 28.0 L14.95 27.4 16.6 27.65 14.1 28.0" fill="#cfc286" fill-rule="evenodd" stroke="none"/>
      <path d="M10.35 27.45 L11.55 26.55 12.05 27.25 10.35 27.45 M9.65 28.25 L9.7 28.75 9.3 30.9 8.1 34.3 9.65 28.25" fill="#dfd090" fill-rule="evenodd" stroke="none"/>
      <path d="M7.55 26.0 L8.75 26.8 9.65 28.25 8.1 34.3 8.1 34.35 7.65 35.65 6.0 34.75 6.6 32.55 5.35 30.15 5.85 26.2 7.55 26.0 M16.6 27.65 L15.7 28.4 14.1 28.0 16.6 27.65" fill="#433f28" fill-rule="evenodd" stroke="none"/>
      <path d="M9.7 28.75 L10.35 27.45 12.05 27.25 11.55 29.45 11.3 30.75 10.45 34.45 8.9 35.55 7.65 35.65 8.1 34.35 8.1 34.3 9.3 30.9 9.7 28.75 M6.6 32.55 L6.0 34.75 4.9 33.1 5.4 31.85 6.6 32.55 M15.8 31.1 L14.7 33.15 13.2 33.3 15.8 31.1 M8.9 35.55 L9.3 30.9 8.9 35.55" fill="#5f5a3a" fill-rule="evenodd" stroke="none"/>
      <path d="M14.9 30.1 L15.8 31.1 13.2 33.3 10.45 34.45 11.3 30.75 12.0 31.1 14.9 30.1" fill="#706b44" fill-rule="evenodd" stroke="none"/>
      <path d="M7.25 24.8 L7.55 26.0 8.75 26.8 10.35 27.45 11.55 26.55 9.3 25.55 8.2 24.65 7.25 24.8 5.85 26.2 7.55 26.0 M9.7 28.75 L10.35 27.45 12.05 27.25 11.55 26.55 M8.75 26.8 L9.65 28.25 M8.1 34.3 L9.3 30.9 9.7 28.75 M5.85 26.2 L5.35 30.15 6.6 32.55 6.0 34.75 7.65 35.65 8.1 34.35 M12.05 27.25 L11.55 29.45 12.35 29.15 12.95 30.0 14.9 30.1 15.8 31.1 14.7 33.15 13.2 33.3 10.45 34.45 8.9 35.55 7.65 35.65 M16.6 27.65 L15.7 28.4 14.1 28.0 14.95 27.4 16.6 27.65 14.1 28.0 M12.95 30.0 L12.0 31.1 14.9 30.1 M12.0 31.1 L11.3 30.75 10.45 34.45 M15.8 31.1 L13.2 33.3 M5.35 30.15 L5.5 31.6 5.4 31.85 6.6 32.55 M5.4 31.85 L4.9 33.1 6.0 34.75 M9.3 30.9 L8.9 35.55 M11.55 29.45 L11.3 30.75" fill="none" stroke="#000000" stroke-linecap="round" stroke-linejoin="round" stroke-opacity="0.3019608" stroke-width="0.30000000000000004"/>
      <path d="M13.55 25.35 L12.65 23.4 13.85 24.3 13.55 25.35 11.45 24.5 8.9 22.05 10.8 22.4 12.3 23.7 13.55 25.35" fill="#5f5a3a" fill-rule="evenodd" stroke="none"/>
      <path d="M12.65 23.4 L13.55 25.35 12.3 23.7 10.8 22.4 11.2 22.45 12.0 22.95 11.2 22.45 9.5 21.55 11.85 22.25 13.1 21.2 12.75 22.1 12.0 22.95 12.65 23.4" fill="#dfd090" fill-rule="evenodd" stroke="none"/>
      <path d="M13.85 24.3 L12.65 23.4 12.0 22.95 12.75 22.1 13.1 21.2 14.55 22.65 14.7 23.9 13.85 24.3" fill="#968e5a" fill-rule="evenodd" stroke="none"/>
      <path d="M11.2 22.45 L10.8 22.4 8.9 22.05 8.85 21.2 9.5 21.55 11.2 22.45" fill="#a89d6d" fill-rule="evenodd" stroke="none"/>
      <path d="M8.85 21.2 L10.25 20.25 13.1 21.2 11.85 22.25 9.5 21.55 8.85 21.2" fill="#cfc286" fill-rule="evenodd" stroke="none"/>
      <path d="M12.65 23.4 L13.55 25.35 13.85 24.3 12.65 23.4 12.0 22.95 11.2 22.45 10.8 22.4 8.9 22.05 8.85 21.2 10.25 20.25 13.1 21.2 14.55 22.65 14.7 23.9 13.85 24.3 M13.55 25.35 L11.45 24.5 8.9 22.05 M13.1 21.2 L12.75 22.1 12.0 22.95 M9.5 21.55 L8.85 21.2 M11.2 22.45 L9.5 21.55" fill="none" stroke="#000000" stroke-linecap="round" stroke-linejoin="round" stroke-opacity="0.3019608" stroke-width="0.30000000000000004"/>
      <path d="M7.65 39.4 L10.15 39.1 10.95 37.7 10.75 39.05 11.75 39.6 10.35 39.55 8.1 39.8 7.15 40.35 7.65 39.4" fill="#dfd090" fill-rule="evenodd" stroke="none"/>
      <path d="M7.65 39.4 L9.05 38.2 10.95 37.7 10.15 39.1 7.65 39.4 M8.85 42.35 L7.15 40.35 8.75 41.55 8.85 42.35" fill="#a89d6d" fill-rule="evenodd" stroke="none"/>
      <path d="M10.95 37.7 L11.75 39.6 10.75 39.05 10.95 37.7 M10.9 41.3 Q9.9 41.8 8.85 42.35 L8.75 41.55 10.9 41.3" fill="#5f5a3a" fill-rule="evenodd" stroke="none"/>
      <path d="M11.75 39.6 L10.9 41.3 8.75 41.55 7.15 40.35 8.1 39.8 10.35 39.55 11.75 39.6" fill="#706b44" fill-rule="evenodd" stroke="none"/>
      <path d="M10.95 37.7 L9.05 38.2 7.65 39.4 10.15 39.1 M10.95 37.7 L11.75 39.6 10.9 41.3 Q9.9 41.8 8.85 42.35 L7.15 40.35 7.65 39.4 M11.75 39.6 L10.75 39.05 10.95 37.7 M8.75 41.55 L8.85 42.35 M7.15 40.35 L8.75 41.55 10.9 41.3" fill="none" stroke="#000000" stroke-linecap="round" stroke-linejoin="round" stroke-opacity="0.3019608" stroke-width="0.30000000000000004"/>
      <path d="M20.35 12.0 L19.6 12.8 20.1 13.7 20.75 13.45 21.3 13.2 21.95 14.65 21.5 15.4 19.85 15.75 18.55 15.4 18.45 14.75 18.9 14.5 19.3 14.2 18.35 13.85 18.25 13.0 18.85 12.1 20.35 12.0" fill="#cfc286" fill-rule="evenodd" stroke="none"/>
      <path d="M20.75 13.45 L20.1 13.7 19.6 12.8 20.35 12.0 20.75 13.45 M18.35 13.85 L19.3 14.2 18.9 14.5 18.35 13.85 M21.5 15.4 L21.95 14.65 22.1 15.95 21.2 17.55 21.1 16.55 21.5 15.4" fill="#5f5a3a" fill-rule="evenodd" stroke="none"/>
      <path d="M18.55 15.4 L19.85 15.75 21.1 16.55 21.2 17.55 19.25 16.7 18.55 15.4" fill="#433f28" fill-rule="evenodd" stroke="none"/>
      <path d="M19.85 15.75 L21.5 15.4 21.1 16.55 19.85 15.75" fill="#dfd090" fill-rule="evenodd" stroke="none"/>
      <path d="M20.75 13.45 L20.1 13.7 19.6 12.8 20.35 12.0 18.85 12.1 18.25 13.0 18.35 13.85 19.3 14.2 18.9 14.5 18.45 14.75 18.55 15.4 19.85 15.75 21.5 15.4 21.95 14.65 21.3 13.2 20.75 13.45 20.35 12.0 M21.1 16.55 L21.2 17.55 22.1 15.95 21.95 14.65 M19.85 15.75 L21.1 16.55 21.5 15.4 M21.2 17.55 L19.25 16.7 18.55 15.4 M18.9 14.5 L18.35 13.85" fill="none" stroke="#000000" stroke-linecap="round" stroke-linejoin="round" stroke-opacity="0.3019608" stroke-width="0.30000000000000004"/>
    </g>
  </defs>
</svg>
