<?xml version="1.0" encoding="UTF-8" standalone="no"?>
<svg xmlns:xlink="http://www.w3.org/1999/xlink" height="52.0px" width="52.0px" xmlns="http://www.w3.org/2000/svg">
  <g transform="matrix(1.0, 0.0, 0.0, 1.0, 0.0, 0.0)">
    <use height="54.0" transform="matrix(1.0, 0.0, 0.0, 1.0, -1.0, -1.0)" width="54.0" xlink:href="#shape0"/>
    <use height="0.0" transform="matrix(0.0671, 0.0, -0.0252, 0.0736, 24.9, 12.05)" width="0.0" xlink:href="#sprite0"/>
    <use height="0.0" transform="matrix(0.053, 0.0, -0.0199, 0.0581, 16.2, 10.95)" width="0.0" xlink:href="#sprite0"/>
    <use height="0.0" transform="matrix(0.1583, 0.0477, -0.0252, 0.0736, 23.05, 36.6)" width="0.0" xlink:href="#sprite0"/>
    <use height="0.0" transform="matrix(0.0815, 0.0867, -0.0422, 0.0368, 36.2, 12.9)" width="0.0" xlink:href="#sprite0"/>
    <use height="0.0" transform="matrix(0.0478, 0.0508, -0.0452, 0.011, 23.65, 24.55)" width="0.0" xlink:href="#sprite0"/>
    <use height="81.5" transform="matrix(0.1732, 0.0, 0.0, 0.1739, 21.0, 8.25)" width="81.5" xlink:href="#sprite1"/>
    <use height="81.5" transform="matrix(0.1732, 0.0, 0.0, 0.1739, 22.85, 33.25)" width="81.5" xlink:href="#sprite1"/>
  </g>
  <defs>
    <g id="shape0" transform="matrix(1.0, 0.0, 0.0, 1.0, 1.0, 1.0)">
      <path d="M52.0 0.0 L52.0 52.0 0.0 52.0 0.0 0.0 52.0 0.0" fill="#795fa9" fill-opacity="0.0" fill-rule="evenodd" stroke="none"/>
      <path d="M33.85 4.15 Q30.3 5.1 27.25 6.35 25.45 6.15 23.55 7.05 L22.55 7.6 21.7 6.65 21.3 6.45 17.35 6.35 Q15.05 7.1 13.35 9.1 12.5 10.1 12.1 11.15 11.7 12.15 11.7 13.1 11.7 15.1 13.3 15.95 14.1 16.4 15.1 16.45 15.65 18.6 17.7 20.9 16.15 21.05 15.55 21.6 18.05 25.15 23.6 28.5 L21.95 30.4 Q17.4 29.1 13.55 29.4 L11.65 29.7 11.3 29.8 Q4.25 31.45 8.6 39.75 L8.75 39.95 8.75 40.05 8.85 40.15 8.9 40.25 10.5 42.1 Q13.5 44.9 18.45 46.65 23.45 48.4 27.5 48.05 L28.6 47.95 29.75 47.65 Q36.85 45.85 35.5 40.15 35.2 38.3 32.9 36.2 31.25 34.65 29.0 33.35 31.65 30.05 31.8 26.45 L28.25 19.7 Q28.75 16.95 31.5 14.95 L33.4 15.95 Q36.15 17.5 37.25 18.95 38.25 20.25 38.0 21.45 35.85 22.75 35.4 23.8 L35.3 24.45 Q35.65 28.25 40.6 29.2 L41.7 29.0 Q43.05 28.6 42.05 27.65 39.5 26.4 39.0 23.9 L41.6 22.25 43.35 20.4 Q43.4 18.35 42.75 16.1 41.05 10.25 36.65 6.3 L33.85 4.15 Z" fill="none" stroke="#000000" stroke-linecap="round" stroke-linejoin="round" stroke-opacity="0.3019608" stroke-width="1.0"/>
      <path d="M15.55 15.0 Q22.4 7.25 33.6 4.65 35.7 6.25 34.15 8.35 L32.8 9.65 31.2 10.85 Q28.4 12.9 25.75 14.05 20.35 16.35 15.55 15.0 M42.0 18.5 L42.5 17.7 Q42.2 18.8 41.7 19.2 L41.3 19.45 38.1 19.3 Q38.55 19.8 38.5 20.75 L38.45 21.25 38.0 21.45 Q38.25 20.25 37.25 18.95 L38.1 19.3 37.25 18.95 Q36.15 17.5 33.4 15.95 L31.5 14.95 Q28.75 16.95 28.25 19.7 L30.4 23.8 31.8 26.45 Q31.6 31.2 27.0 35.45 L26.65 35.35 Q29.3 32.9 30.55 30.1 31.25 28.4 31.45 26.6 L30.7 25.15 Q30.75 27.0 29.05 28.3 L29.0 28.3 Q30.8 25.7 30.0 23.9 L27.8 19.7 Q28.5 16.15 31.55 14.4 L33.45 15.35 Q35.05 15.05 37.4 13.35 36.0 14.8 34.15 15.65 L36.25 17.1 37.7 18.7 Q39.45 19.5 41.2 19.1 L42.0 18.5 M42.65 17.0 L42.75 16.1 Q43.4 18.35 43.35 20.4 L41.6 22.25 41.7 21.75 41.6 22.25 39.0 23.9 Q39.5 26.4 42.05 27.65 43.05 28.6 41.7 29.0 L40.8 28.9 Q42.65 28.6 41.9 27.9 40.35 27.45 39.35 26.05 L39.2 25.85 Q38.55 24.85 38.65 24.3 L39.0 23.9 38.65 24.3 37.5 24.95 36.75 24.75 Q37.95 24.65 38.8 23.55 L41.25 22.05 Q41.55 21.75 41.45 21.1 L41.7 21.75 43.0 20.3 Q43.0 18.05 42.65 17.0 M34.15 15.65 L33.4 15.95 34.15 15.65 M26.25 21.8 L26.45 21.95 Q28.55 23.05 24.8 23.4 L23.95 23.5 23.85 23.5 Q18.65 23.85 16.3 21.8 20.5 20.8 26.25 21.8 M25.6 29.15 Q27.2 29.6 26.7 30.95 26.25 32.25 23.8 34.4 L20.25 33.25 24.05 28.7 25.6 29.15 M30.4 23.8 L30.7 25.15 30.4 23.8" fill="#e6e4b3" fill-rule="evenodd" stroke="none"/>
      <path d="M18.2 20.9 Q15.65 17.95 15.55 15.0 20.35 16.35 25.75 14.05 24.2 15.15 24.05 17.05 24.3 19.8 26.45 21.95 L26.25 21.8 24.65 21.3 18.2 20.9 M34.15 8.35 Q35.85 6.35 34.45 5.1 L36.1 6.45 38.3 10.15 Q38.0 8.95 37.3 7.5 39.95 10.2 41.55 13.8 41.7 15.7 40.4 14.35 L38.5 11.95 37.7 13.05 Q39.35 8.95 32.8 9.65 L34.15 8.35 M42.5 17.7 L42.65 17.0 Q43.0 18.05 43.0 20.3 L41.7 21.75 41.45 21.1 41.1 20.8 40.85 20.75 Q41.7 20.0 41.7 19.2 42.2 18.8 42.5 17.7 M38.3 10.15 L38.5 11.95 38.3 10.15 M35.9 23.9 L35.9 23.7 Q36.5 22.75 37.45 22.2 L38.75 21.5 Q39.7 21.6 38.15 23.3 36.45 24.85 35.9 23.9 M37.1 26.45 Q38.25 28.0 40.15 28.7 38.1 28.15 37.0 27.25 35.85 26.25 35.65 24.4 L36.25 24.9 37.1 26.45" fill="#d5d580" fill-rule="evenodd" stroke="none"/>
      <path d="M36.65 6.3 L37.3 7.5 36.65 6.3 Q41.05 10.25 42.75 16.1 L42.65 17.0 42.5 17.7 42.0 18.5 Q42.55 16.55 42.05 14.95 L41.55 13.8 Q39.95 10.2 37.3 7.5 38.0 8.95 38.3 10.15 L36.1 6.45 34.45 5.1 Q35.85 6.35 34.15 8.35 35.7 6.25 33.6 4.65 22.4 7.25 15.55 15.0 15.65 17.95 18.2 20.9 L17.7 20.9 18.2 20.9 24.65 21.3 26.25 21.8 Q20.5 20.8 16.3 21.8 18.65 23.85 23.85 23.5 19.05 24.25 17.4 23.1 19.85 25.85 23.65 27.85 L23.7 27.9 24.7 28.45 28.6 28.6 Q27.2 29.4 25.6 29.15 L24.05 28.7 20.25 33.25 19.7 33.05 23.6 28.5 24.05 28.7 23.6 28.5 Q18.05 25.15 15.55 21.6 16.15 21.05 17.7 20.9 14.9 17.75 14.9 14.85 21.15 7.5 33.85 4.15 L36.65 6.3 M38.0 21.45 L38.45 21.25 Q39.65 20.7 40.5 20.75 L40.85 20.75 41.1 20.8 Q39.95 20.95 38.75 21.5 L37.45 22.2 Q36.5 22.75 35.9 23.7 L35.9 23.9 Q35.9 24.45 36.75 24.75 L37.5 24.95 36.9 25.1 36.25 24.9 35.65 24.4 Q35.85 26.25 37.0 27.25 38.1 28.15 40.15 28.7 L40.8 28.9 41.7 29.0 40.6 29.2 Q35.65 28.25 35.3 24.45 L35.4 23.8 Q35.85 22.75 38.0 21.45 M35.4 23.8 L35.65 24.4 35.4 23.8" fill="#ffffff" fill-rule="evenodd" stroke="none"/>
      <path d="M41.55 13.8 L42.05 14.95 Q42.55 16.55 42.0 18.5 L41.2 19.1 Q39.45 19.5 37.7 18.7 L36.25 17.1 Q35.6 15.25 37.85 13.75 38.75 13.1 40.4 14.35 41.7 15.7 41.55 13.8 M37.7 13.05 L37.4 13.35 Q35.05 15.05 33.45 15.35 L31.55 14.4 Q28.5 16.15 27.8 19.7 28.85 22.7 28.45 24.75 27.05 28.65 23.7 27.9 L23.65 27.85 Q19.85 25.85 17.4 23.1 19.05 24.25 23.85 23.5 L23.95 23.5 24.8 23.4 Q28.55 23.05 26.45 21.95 24.3 19.8 24.05 17.05 24.2 15.15 25.75 14.05 28.4 12.9 31.2 10.85 L32.8 9.65 Q39.35 8.95 37.7 13.05 M38.45 21.25 L38.5 20.75 Q39.05 19.85 40.15 19.9 41.2 19.95 40.5 20.75 39.65 20.7 38.45 21.25 M35.9 23.9 Q36.45 24.85 38.15 23.3 39.7 21.6 38.75 21.5 39.95 20.95 41.1 20.8 L41.45 21.1 Q41.55 21.75 41.25 22.05 L38.8 23.55 Q37.95 24.65 36.75 24.75 35.9 24.45 35.9 23.9 M26.7 30.95 Q28.65 29.2 29.85 28.8 30.85 28.6 30.55 30.1 29.3 32.9 26.65 35.35 L23.8 34.4 Q26.25 32.25 26.7 30.95 M40.8 28.9 L40.15 28.7 Q38.25 28.0 37.1 26.45 37.25 25.3 38.0 25.3 38.55 25.25 39.2 25.85 L39.35 26.05 Q40.35 27.45 41.9 27.9 42.65 28.6 40.8 28.9" fill="#cac960" fill-rule="evenodd" stroke="none"/>
      <path d="M40.4 14.35 Q38.75 13.1 37.85 13.75 35.6 15.25 36.25 17.1 L34.15 15.65 Q36.0 14.8 37.4 13.35 L37.7 13.05 38.5 11.95 40.4 14.35 M38.5 20.75 Q38.55 19.8 38.1 19.3 L41.3 19.45 41.7 19.2 Q41.7 20.0 40.85 20.75 L40.5 20.75 Q41.2 19.95 40.15 19.9 39.05 19.85 38.5 20.75 M30.7 25.15 L31.45 26.6 Q31.25 28.4 30.55 30.1 30.85 28.6 29.85 28.8 28.65 29.2 26.7 30.95 27.2 29.6 25.6 29.15 27.2 29.4 28.6 28.6 L29.0 28.3 28.6 28.6 24.7 28.45 23.7 27.9 Q27.05 28.65 28.45 24.75 28.85 22.7 27.8 19.7 L30.0 23.9 Q30.8 25.7 29.0 28.3 L29.05 28.3 Q30.75 27.0 30.7 25.15 M39.2 25.85 Q38.55 25.25 38.0 25.3 37.25 25.3 37.1 26.45 L36.25 24.9 36.9 25.1 37.5 24.95 38.65 24.3 Q38.55 24.85 39.2 25.85" fill="#a6a637" fill-rule="evenodd" stroke="none"/>
      <path d="M37.3 7.5 L36.65 6.3 33.85 4.15 Q21.15 7.5 14.9 14.85 14.9 17.75 17.7 20.9 L18.2 20.9 24.65 21.3 M38.3 10.15 Q38.0 8.95 37.3 7.5 M42.5 17.7 L42.65 17.0 42.75 16.1 Q41.05 10.25 36.65 6.3 M38.5 11.95 L38.3 10.15 M38.5 11.95 L37.7 13.05 37.4 13.35 Q36.0 14.8 34.15 15.65 L33.4 15.95 31.5 14.95 Q28.75 16.95 28.25 19.7 L30.4 23.8 31.8 26.45 Q31.6 31.2 27.0 35.45 L26.8 35.65 M38.1 19.3 L37.25 18.95 Q38.25 20.25 38.0 21.45 L38.45 21.25 Q39.65 20.7 40.5 20.75 L40.85 20.75 41.1 20.8 41.45 21.1 41.7 21.75 41.6 22.25 43.35 20.4 Q43.4 18.35 42.75 16.1 M41.7 19.2 L41.3 19.45 38.1 19.3 M37.25 18.95 Q36.15 17.5 33.4 15.95 M41.7 19.2 Q42.2 18.8 42.5 17.7 M30.7 25.15 Q30.75 27.0 29.05 28.3 L29.0 28.3 28.6 28.6 Q27.2 29.4 25.6 29.15 L24.05 28.7 23.6 28.5 Q18.05 25.15 15.55 21.6 16.15 21.05 17.7 20.9 M26.65 35.35 L27.0 35.45 M30.7 25.15 L30.4 23.8 M23.6 28.5 L19.7 33.05 20.25 33.25 23.8 34.4 26.65 35.35 M35.65 24.4 L35.4 23.8 35.3 24.45 Q35.65 28.25 40.6 29.2 L41.7 29.0 Q43.05 28.6 42.05 27.65 39.5 26.4 39.0 23.9 L38.65 24.3 37.5 24.95 36.9 25.1 36.25 24.9 35.65 24.4 M41.6 22.25 L39.0 23.9 M35.4 23.8 Q35.85 22.75 38.0 21.45" fill="none" stroke="#000000" stroke-linecap="round" stroke-linejoin="round" stroke-opacity="0.3019608" stroke-width="0.30000000000000004"/>
      <path d="M23.05 36.85 L22.0 36.45 Q17.6 34.9 13.95 35.15 L13.75 35.15 Q11.6 35.35 10.45 36.1 L9.9 36.6 9.4 37.45 Q9.0 38.6 9.6 39.9 L9.75 40.1 9.8 40.1 9.85 40.25 9.9 40.35 11.35 42.05 Q14.05 44.6 18.65 46.15 L19.15 46.35 Q23.4 47.7 26.85 47.45 L27.05 47.45 27.85 47.35 28.9 47.1 Q30.8 46.5 31.3 45.15 L31.4 44.05 31.3 43.5 Q30.9 42.15 29.25 40.55 26.85 38.35 23.05 36.85 M24.25 36.8 Q27.6 38.25 29.9 40.35 29.3 36.35 30.6 35.2 33.8 37.5 34.85 40.4 34.45 43.45 32.3 43.5 L32.35 43.7 32.5 44.3 32.35 45.55 31.95 46.3 Q31.25 47.2 29.75 47.65 L28.6 47.95 27.5 48.05 Q23.45 48.4 18.45 46.65 13.5 44.9 10.5 42.1 L8.9 40.25 8.85 40.15 8.75 40.05 8.75 39.95 8.6 39.75 Q8.0 38.45 8.25 37.35 L8.35 37.1 8.9 36.15 9.5 35.6 Q10.75 34.75 13.15 34.55 17.2 34.25 22.2 36.0 L24.25 36.8" fill="#f4a33c" fill-rule="evenodd" stroke="none"/>
      <path d="M24.55 36.1 L24.25 36.8 22.2 36.0 Q17.2 34.25 13.15 34.55 10.75 34.75 9.5 35.6 L8.9 36.15 8.35 37.1 8.25 37.35 Q6.9 34.8 8.15 32.4 11.4 28.45 21.65 31.2 24.8 33.5 24.55 36.1 M34.85 40.4 Q35.55 44.4 31.95 46.3 L32.35 45.55 32.5 44.3 32.35 43.7 32.3 43.5 Q34.45 43.45 34.85 40.4 M12.15 31.0 L10.55 30.95 Q9.65 31.1 9.1 31.6 8.5 32.15 8.65 32.7 8.75 33.25 9.45 33.5 L11.05 33.6 Q11.95 33.45 12.5 32.95 13.05 32.45 13.0 31.9 12.85 31.3 12.15 31.0" fill="#ffde4f" fill-rule="evenodd" stroke="none"/>
      <path d="M30.6 35.2 Q28.2 33.45 24.6 32.0 L23.1 31.55 Q25.2 34.25 24.55 36.1 24.8 33.5 21.65 31.2 11.4 28.45 8.15 32.4 6.9 34.8 8.25 37.35 8.0 38.45 8.6 39.75 4.25 31.45 11.3 29.8 L11.65 29.7 13.55 29.4 Q18.15 29.05 23.85 31.0 29.5 33.05 32.9 36.2 35.2 38.3 35.5 40.15 36.85 45.85 29.75 47.65 31.25 47.2 31.95 46.3 35.55 44.4 34.85 40.4 33.8 37.5 30.6 35.2 M12.15 31.0 Q12.85 31.3 13.0 31.9 13.05 32.45 12.5 32.95 11.95 33.45 11.05 33.6 L9.45 33.5 Q8.75 33.25 8.65 32.7 8.5 32.15 9.1 31.6 9.65 31.1 10.55 30.95 L12.15 31.0" fill="#ffff98" fill-rule="evenodd" stroke="none"/>
      <path d="M23.05 36.85 Q26.85 38.35 29.25 40.55 30.9 42.15 31.3 43.5 L31.4 44.05 31.3 45.15 Q30.8 46.5 28.9 47.1 L27.85 47.35 27.05 47.45 Q22.8 42.0 23.05 36.85 M19.15 46.35 L18.65 46.15 Q14.05 44.6 11.35 42.05 L9.9 40.35 9.85 40.25 9.8 40.1 9.75 40.1 9.6 39.9 Q9.0 38.6 9.4 37.45 L9.9 36.6 10.45 36.1 Q11.6 35.35 13.75 35.15 L13.95 35.15 19.15 46.35 M24.25 36.8 L24.55 36.1 Q25.2 34.25 23.1 31.55 L24.6 32.0 Q28.2 33.45 30.6 35.2 29.3 36.35 29.9 40.35 27.6 38.25 24.25 36.8" fill="#cc6b22" fill-rule="evenodd" stroke="none"/>
      <path d="M13.95 35.15 Q17.6 34.9 22.0 36.45 L23.05 36.85 Q22.8 42.0 27.05 47.45 L26.85 47.45 Q23.4 47.7 19.15 46.35 L13.95 35.15" fill="#a34100" fill-rule="evenodd" stroke="none"/>
      <path d="M8.6 39.75 Q4.25 31.45 11.3 29.8 L11.65 29.7 13.55 29.4 Q18.15 29.05 23.85 31.0 29.5 33.05 32.9 36.2 35.2 38.3 35.5 40.15 36.85 45.85 29.75 47.65 L28.6 47.95 27.5 48.05 Q23.45 48.4 18.45 46.65 13.5 44.9 10.5 42.1 L8.9 40.25 8.85 40.15 8.75 40.05 8.75 39.95 8.6 39.75 Z" fill="none" stroke="#000000" stroke-linecap="round" stroke-linejoin="round" stroke-opacity="0.3019608" stroke-width="0.30000000000000004"/>
      <path d="M29.4 43.9 L29.4 44.0 29.4 44.05 29.3 44.5 Q29.05 45.2 28.15 45.6 L27.9 45.7 27.35 45.9 26.5 46.05 26.2 46.05 26.45 45.0 26.2 44.5 26.75 44.45 26.9 44.45 27.6 44.4 28.5 44.2 29.4 43.9 M11.5 38.25 L11.7 37.95 11.75 38.0 11.85 38.15 11.9 38.15 11.95 38.25 12.0 38.35 13.25 39.7 Q14.55 40.85 16.35 41.8 L16.2 42.2 Q15.95 42.95 16.35 43.85 14.4 42.85 13.0 41.65 L11.9 40.5 11.8 40.35 11.75 40.3 11.7 40.15 Q11.3 39.5 11.5 38.25" fill="#a34100" fill-rule="evenodd" stroke="none"/>
      <path d="M29.4 44.05 L29.3 44.8 Q29.05 45.5 28.15 45.9 L27.9 46.0 27.35 46.15 26.5 46.35 25.85 46.4 25.7 46.4 Q22.85 46.5 19.4 45.35 L18.95 45.2 Q15.2 43.9 13.0 41.95 L11.9 40.75 11.8 40.65 11.75 40.55 11.7 40.45 11.6 40.3 Q11.05 39.3 11.4 38.5 L11.5 38.25 Q11.3 39.5 11.7 40.15 L11.75 40.3 11.8 40.35 11.9 40.5 13.0 41.65 Q14.4 42.85 16.35 43.85 L18.95 44.9 19.4 45.05 Q22.85 46.2 25.7 46.1 L25.85 46.1 26.2 46.05 26.5 46.05 27.35 45.9 27.9 45.7 28.15 45.6 Q29.05 45.2 29.3 44.5 L29.4 44.05" fill="#cc6b22" fill-rule="evenodd" stroke="none"/>
      <path d="M16.35 41.8 L19.1 43.0 19.6 43.15 20.05 43.35 23.65 44.25 26.2 44.5 26.45 45.0 26.2 46.05 25.85 46.1 25.7 46.1 Q22.85 46.2 19.4 45.05 L18.95 44.9 16.35 43.85 Q15.95 42.95 16.2 42.2 L16.35 41.8" fill="#8f3600" fill-rule="evenodd" stroke="none"/>
      <path d="M11.7 37.95 L11.8 37.85 11.85 37.85 12.25 37.5 Q13.15 36.95 14.95 36.9 L15.1 36.9 Q18.1 36.85 21.7 38.1 L22.55 38.45 Q25.7 39.65 27.65 41.35 29.0 42.55 29.35 43.55 L29.35 43.7 29.4 43.85 29.4 43.9 28.5 44.2 27.6 44.4 26.9 44.45 26.75 44.45 26.2 44.5 23.65 44.25 20.05 43.35 19.6 43.15 19.1 43.0 16.35 41.8 Q14.55 40.85 13.25 39.7 L12.0 38.35 11.95 38.25 11.9 38.15 11.85 38.15 11.75 38.0 11.7 37.95" fill="#7e2601" fill-rule="evenodd" stroke="none"/>
      <path d="M11.7 37.95 L11.8 37.85 11.85 37.85 12.25 37.5 Q13.15 36.95 14.95 36.9 L15.1 36.9 Q18.1 36.85 21.7 38.1 L22.55 38.45 Q25.7 39.65 27.65 41.35 29.0 42.55 29.35 43.55 L29.35 43.7 29.4 43.85 29.4 43.9 M11.5 38.25 L11.7 37.95 Z" fill="none" stroke="#000000" stroke-linecap="round" stroke-linejoin="round" stroke-opacity="0.3019608" stroke-width="0.30000000000000004"/>
      <path d="M31.6 10.25 Q32.3 12.2 31.1 14.2 29.9 16.2 27.5 17.6 25.05 19.0 22.8 18.4 20.85 17.9 20.05 16.25 L19.8 16.4 Q18.9 17.0 17.65 17.25 L15.8 17.1 Q15.2 16.65 14.85 15.55 14.5 14.45 14.75 13.5 L21.65 7.6 Q22.45 8.0 22.9 8.85 L24.0 8.25 Q26.4 7.15 28.65 7.7 30.85 8.3 31.6 10.25" fill="#a6a637" fill-opacity="0.72156864" fill-rule="evenodd" stroke="none"/>
      <path d="M19.5 10.7 L19.4 10.8 Q18.2 11.85 16.7 12.4 L16.3 12.55 16.05 12.6 Q12.55 12.5 13.05 10.5 L13.85 9.35 Q15.3 7.6 17.35 6.9 19.2 6.3 20.6 6.85 21.3 8.35 19.5 10.7" fill="#ffde4f" fill-rule="evenodd" stroke="none"/>
      <path d="M19.5 10.7 Q23.1 8.05 20.85 12.9 L20.7 13.05 Q19.75 14.25 18.45 14.95 14.65 16.25 14.7 14.5 15.15 13.1 16.3 12.55 L16.7 12.4 Q18.2 11.85 19.4 10.8 L19.5 10.7" fill="#f4a33c" fill-rule="evenodd" stroke="none"/>
      <path d="M21.65 6.7 Q22.9 7.55 22.9 9.3 22.9 11.35 21.2 13.3 19.5 15.25 17.2 16.1 L13.25 16.0 Q11.65 15.1 11.7 13.1 11.7 12.15 12.1 11.15 12.5 10.15 13.4 9.1 15.0 7.1 17.3 6.35 L21.3 6.45 21.65 6.7 M20.85 12.9 Q22.2 11.25 22.2 9.5 22.2 8.3 21.5 7.55 21.15 8.75 20.2 9.9 L19.5 10.7 Q21.3 8.35 20.6 6.85 19.2 6.3 17.35 6.9 15.3 7.6 13.85 9.35 L13.05 10.5 Q12.55 12.5 16.05 12.6 14.4 12.95 13.2 12.3 L12.5 11.75 Q12.35 12.3 12.35 12.9 12.3 14.6 13.75 15.45 15.2 16.2 17.2 15.5 L18.45 14.95 Q19.75 14.25 20.7 13.05 L20.85 12.9" fill="#ffff98" fill-rule="evenodd" stroke="none"/>
      <path d="M20.85 12.9 Q23.1 8.05 19.5 10.7 L20.2 9.9 Q21.15 8.75 21.5 7.55 22.2 8.3 22.2 9.5 22.2 11.25 20.85 12.9 M16.3 12.55 Q15.15 13.1 14.7 14.5 14.65 16.25 18.45 14.95 L17.2 15.5 Q15.2 16.2 13.75 15.45 12.3 14.6 12.35 12.9 12.35 12.3 12.5 11.75 L13.2 12.3 Q14.4 12.95 16.05 12.6 L16.3 12.55" fill="#cc6b22" fill-rule="evenodd" stroke="none"/>
      <path d="M21.65 6.7 Q22.9 7.55 22.9 9.3 22.9 11.35 21.2 13.3 19.5 15.25 17.2 16.1 L13.25 16.0 Q11.65 15.1 11.7 13.1 11.7 12.15 12.1 11.15 12.5 10.15 13.4 9.1 15.0 7.1 17.3 6.35 L21.3 6.45 21.65 6.7 Z" fill="none" stroke="#000000" stroke-linecap="round" stroke-linejoin="round" stroke-opacity="0.3019608" stroke-width="0.30000000000000004"/>
      <path d="M27.7 11.0 L27.6 11.1 Q26.6 12.35 25.05 13.15 L24.65 13.3 24.35 13.4 Q20.25 13.9 20.05 11.85 L20.55 10.6 Q21.6 8.6 23.75 7.6 25.75 6.7 27.6 7.05 28.95 8.4 27.7 11.0" fill="#ffde4f" fill-rule="evenodd" stroke="none"/>
      <path d="M27.7 11.0 Q30.9 7.8 30.1 12.95 L30.0 13.1 Q29.3 14.45 28.05 15.35 24.05 17.25 23.55 15.55 23.55 14.05 24.65 13.3 L25.05 13.15 Q26.6 12.35 27.6 11.1 L27.7 11.0" fill="#f4a33c" fill-rule="evenodd" stroke="none"/>
      <path d="M28.75 6.7 Q30.5 7.35 31.15 9.1 31.85 11.1 30.65 13.3 29.45 15.55 27.05 16.7 24.6 17.8 22.4 17.2 20.15 16.6 19.45 14.65 19.1 13.7 19.2 12.65 19.3 11.55 19.9 10.4 21.15 8.2 23.55 7.05 25.95 5.9 28.2 6.5 L28.75 6.7 M30.1 12.95 Q31.05 11.1 30.45 9.4 30.0 8.2 28.9 7.6 28.95 8.8 28.25 10.15 L27.7 11.0 Q28.95 8.4 27.6 7.05 25.75 6.7 23.75 7.6 21.6 8.6 20.55 10.6 L20.05 11.85 Q20.25 13.9 24.35 13.4 L20.95 13.6 19.9 13.2 20.1 14.35 Q20.75 16.05 22.7 16.6 24.7 17.1 26.8 16.1 L28.05 15.35 Q29.3 14.45 30.0 13.1 L30.1 12.95" fill="#ffff98" fill-rule="evenodd" stroke="none"/>
      <path d="M30.1 12.95 Q30.9 7.8 27.7 11.0 L28.25 10.15 Q28.95 8.8 28.9 7.6 30.0 8.2 30.45 9.4 31.05 11.1 30.1 12.95 M24.65 13.3 Q23.55 14.05 23.55 15.55 24.05 17.25 28.05 15.35 L26.8 16.1 Q24.7 17.1 22.7 16.6 20.75 16.05 20.1 14.35 L19.9 13.2 20.95 13.6 24.35 13.4 24.65 13.3" fill="#cc6b22" fill-rule="evenodd" stroke="none"/>
      <path d="M28.75 6.7 Q30.5 7.35 31.15 9.1 31.85 11.1 30.65 13.3 29.45 15.55 27.05 16.7 24.6 17.8 22.4 17.2 20.15 16.6 19.45 14.65 19.1 13.7 19.2 12.65 19.3 11.55 19.9 10.4 21.15 8.2 23.55 7.05 25.95 5.9 28.2 6.5 L28.75 6.7 Z" fill="none" stroke="#000000" stroke-linecap="round" stroke-linejoin="round" stroke-opacity="0.3019608" stroke-width="0.30000000000000004"/>
    </g>
    <g id="sprite1" transform="matrix(1.0, 0.0, 0.0, 1.0, 0.0, 0.0)">
      <use height="26.7" transform="matrix(0.0042, -1.3515, 1.3935, 0.02, 22.09, 56.0263)" width="26.7" xlink:href="#sprite2"/>
      <use height="26.7" transform="matrix(0.0095, -3.0486, 0.372, 0.0053, 36.507, 81.3775)" width="26.7" xlink:href="#sprite2"/>
      <use height="26.7" transform="matrix(3.0486, 0.0095, -0.0053, 0.372, 0.1225, 35.107)" width="26.7" xlink:href="#sprite2"/>
    </g>
    <g id="sprite2" transform="matrix(1.0, 0.0, 0.0, 1.0, 13.35, 13.35)">
      <use height="26.7" transform="matrix(1.0, 0.0, 0.0, 1.0, -13.35, -13.35)" width="26.7" xlink:href="#shape1"/>
    </g>
    <g id="shape1" transform="matrix(1.0, 0.0, 0.0, 1.0, 13.35, 13.35)">
      <path d="M9.3 -9.85 Q13.35 -5.8 13.35 0.0 13.35 5.8 9.3 9.3 5.8 13.35 0.0 13.35 -5.8 13.35 -9.85 9.3 -13.35 5.8 -13.35 0.0 -13.35 -5.8 -9.85 -9.85 -5.8 -13.35 0.0 -13.35 5.8 -13.35 9.3 -9.85" fill="url(#gradient0)" fill-rule="evenodd" stroke="none"/>
    </g>
    <radialGradient cx="0" cy="0" gradientTransform="matrix(0.0213, 0.0, 0.0, 0.0213, 0.0, 0.0)" gradientUnits="userSpaceOnUse" id="gradient0" r="819.2" spreadMethod="pad">
      <stop offset="0.19607843137254902" stop-color="#fee3bc" stop-opacity="0.5568628"/>
      <stop offset="0.5019607843137255" stop-color="#fee3bc" stop-opacity="0.08627451"/>
      <stop offset="0.7607843137254902" stop-color="#ffe3bd" stop-opacity="0.0"/>
    </radialGradient>
  </defs>
</svg>
