<?xml version="1.0" encoding="UTF-8" standalone="no"?>
<svg xmlns:xlink="http://www.w3.org/1999/xlink" height="60.0px" width="60.0px" xmlns="http://www.w3.org/2000/svg">
  <g transform="matrix(1.0, 0.0, 0.0, 1.0, 0.0, 0.0)">
    <use height="60.0" transform="matrix(1.0, 0.0, 0.0, 1.0, 0.05, 0.0)" width="60.0" xlink:href="#shape0"/>
    <use height="69.3" transform="matrix(1.0, 0.0, 0.0, 1.0, -0.3, -3.5)" width="60.4" xlink:href="#sprite0"/>
    <use height="69.3" transform="matrix(0.95, 0.0, 0.0, 0.95, 1.2101, -1.7674)" width="60.4" xlink:href="#sprite0"/>
  </g>
  <defs>
    <g id="shape0" transform="matrix(1.0, 0.0, 0.0, 1.0, -0.05, 0.0)">
      <path d="M60.05 0.0 L60.05 60.0 0.05 60.0 0.05 0.0 60.05 0.0" fill="#ffe8d2" fill-opacity="0.0" fill-rule="evenodd" stroke="none"/>
    </g>
    <g id="sprite0" transform="matrix(1.0, 0.0, 0.0, 1.0, 30.2, 34.65)">
      <use height="77.3" transform="matrix(1.0, 0.0, 0.0, 1.0, -34.2, -38.65)" width="68.4" xlink:href="#shape1"/>
      <use height="517.4" transform="matrix(-0.2523, -0.0088, 0.0227, -0.1089, 16.5573, 26.5164)" width="176.7" xlink:href="#sprite1"/>
      <use height="517.4" transform="matrix(-0.0866, -0.0951, -0.0433, 0.0556, 21.3547, -7.4498)" width="176.7" xlink:href="#sprite1"/>
      <use height="0.0" transform="matrix(0.1837, 0.0, 0.0, 0.1341, 8.4, -14.95)" width="0.0" xlink:href="#sprite2"/>
      <use height="0.0" transform="matrix(0.0324, -0.0562, 0.0611, 0.0353, -3.8, 8.0)" width="0.0" xlink:href="#sprite2"/>
      <use height="81.5" transform="matrix(0.0685, 0.0, 0.0, 0.0685, -1.3, -12.4)" width="81.5" xlink:href="#sprite3"/>
    </g>
    <g id="shape1" transform="matrix(1.0, 0.0, 0.0, 1.0, 34.2, 38.65)">
      <path d="M15.8 -3.65 L13.0 -1.2 10.6 0.65 Q9.05 0.55 5.3 3.4 L5.8 4.05 Q7.05 6.35 7.65 9.1 L8.05 13.2 8.05 14.6 7.95 16.15 7.85 17.3 Q7.4 19.85 6.25 21.05 L5.45 21.65 Q3.75 21.65 3.05 20.4 2.1 18.75 2.95 14.85 L3.35 12.85 3.55 7.3 Q1.25 11.05 -0.65 17.0 L-0.75 17.8 Q-1.65 22.6 -5.65 25.3 -6.9 26.15 -8.15 26.15 -9.55 26.15 -10.95 25.1 -13.5 21.75 -11.5 19.95 L-11.35 19.8 Q-10.55 19.2 -9.25 18.75 L-7.9 18.35 Q-6.55 17.85 -5.35 17.0 L-6.05 16.75 -7.05 16.35 -8.65 15.25 -8.65 15.2 -11.1 16.85 Q-13.3 17.9 -15.65 17.95 L-18.1 17.7 -19.35 17.3 Q-21.35 16.4 -21.7 13.9 L-21.45 12.8 Q-20.85 10.3 -19.1 10.0 L-17.5 10.1 -16.1 10.65 -15.1 11.2 -14.25 11.55 -14.25 11.6 -14.15 11.6 Q-12.55 12.25 -10.7 12.35 -11.3 10.85 -11.3 9.0 L-11.15 8.5 -10.5 7.6 Q-9.25 6.25 -6.0 4.75 L-12.2 5.2 -14.95 5.15 Q-17.0 4.8 -18.0 3.55 -18.25 2.1 -17.5 1.25 -16.7 0.35 -14.75 0.1 L-9.45 0.8 -8.85 0.9 -3.55 1.25 -0.95 0.75 -1.75 -2.05 Q-2.55 -4.55 -2.95 -6.95 L-3.0 -7.3 -3.1 -8.4 Q-3.65 -13.8 -1.85 -18.65 L-1.75 -18.95 Q2.25 -24.3 6.5 -25.65 10.85 -27.1 15.45 -24.3 L16.35 -23.7 20.4 -20.15 Q21.75 -18.4 21.7 -16.2 L21.7 -15.7 Q21.4 -12.85 19.3 -8.0 18.2 -5.95 15.8 -3.65" fill="#bcb170" fill-rule="evenodd" stroke="none"/>
      <path d="M15.8 -3.65 L13.0 -1.2 10.6 0.65 Q9.05 0.55 5.3 3.4 L5.8 4.05 Q7.05 6.35 7.65 9.1 L8.05 13.2 8.05 14.6 7.95 16.15 7.85 17.3 Q7.4 19.85 6.25 21.05 L5.45 21.65 Q3.75 21.65 3.05 20.4 2.1 18.75 2.95 14.85 L3.35 12.85 3.55 7.3 Q1.25 11.05 -0.65 17.0 L-0.75 17.8 Q-1.65 22.6 -5.65 25.3 -6.9 26.15 -8.15 26.15 -9.55 26.15 -10.95 25.1 -13.5 21.75 -11.5 19.95 L-11.35 19.8 Q-10.55 19.2 -9.25 18.75 L-7.9 18.35 Q-6.55 17.85 -5.35 17.0 L-6.05 16.75 -7.05 16.35 -8.65 15.25 -8.65 15.2 -11.1 16.85 Q-13.3 17.9 -15.65 17.95 L-18.1 17.7 -19.35 17.3 Q-21.35 16.4 -21.7 13.9 L-21.45 12.8 Q-20.85 10.3 -19.1 10.0 L-17.5 10.1 -16.1 10.65 -15.1 11.2 -14.25 11.55 -14.25 11.6 -14.15 11.6 Q-12.55 12.25 -10.7 12.35 -11.3 10.85 -11.3 9.0 L-11.15 8.5 -10.5 7.6 Q-9.25 6.25 -6.0 4.75 L-12.2 5.2 -14.95 5.15 Q-17.0 4.8 -18.0 3.55 -18.25 2.1 -17.5 1.25 -16.7 0.35 -14.75 0.1 L-9.45 0.8 -8.85 0.9 -3.55 1.25 -0.95 0.75 -1.75 -2.05 Q-2.55 -4.55 -2.95 -6.95 L-3.0 -7.3 -3.1 -8.4 Q-3.65 -13.8 -1.85 -18.65 L-1.75 -18.95 Q2.25 -24.3 6.5 -25.65 10.85 -27.1 15.45 -24.3 L16.35 -23.7 20.4 -20.15 Q21.75 -18.4 21.7 -16.2 L21.7 -15.7 Q21.4 -12.85 19.3 -8.0 18.2 -5.95 15.8 -3.65 Z" fill="none" stroke="#000000" stroke-linecap="round" stroke-linejoin="round" stroke-opacity="0.3019608" stroke-width="1.0"/>
      <path d="M16.35 -23.7 L16.2 -23.5 16.35 -23.7 20.4 -20.15 Q21.75 -18.4 21.7 -16.2 L20.55 -16.55 20.2 -16.7 18.65 -17.2 Q18.45 -20.85 16.2 -23.5 L15.45 -24.3 16.35 -23.7" fill="#47432b" fill-rule="evenodd" stroke="none"/>
      <path d="M15.45 -24.3 L16.2 -23.5 Q18.45 -20.85 18.65 -17.2 L20.2 -16.7 20.55 -16.55 21.7 -16.2 18.95 -16.2 17.3 -12.35 19.3 -8.0 17.05 -10.75 12.9 -6.1 12.4 -6.55 12.9 -6.1 12.5 -5.75 Q9.45 -2.9 6.3 -1.15 L1.9 -0.05 1.85 -0.05 Q1.45 -0.35 1.45 3.05 0.7 1.65 1.15 -0.3 -1.95 -3.85 -2.8 -7.0 -0.3 -2.8 2.25 -0.85 8.1 -2.65 11.95 -6.15 L7.1 -10.25 -0.65 -7.9 6.95 -11.2 7.95 -10.3 11.0 -15.15 11.25 -15.55 11.45 -15.9 11.25 -15.55 11.0 -15.15 Q10.2 -15.9 10.2 -17.2 L10.25 -17.65 Q10.35 -18.85 11.15 -20.05 12.05 -21.45 13.35 -22.0 L15.25 -21.95 16.1 -23.35 15.45 -24.3 M16.1 -23.3 L16.2 -23.5 16.1 -23.3 15.35 -21.9 15.55 -21.75 Q16.5 -21.1 16.5 -19.7 16.5 -18.25 15.55 -16.8 14.7 -15.4 13.35 -14.95 L11.55 -14.8 8.95 -10.65 10.55 -8.1 9.9 -8.65 10.55 -8.1 12.4 -6.55 Q14.2 -8.35 15.55 -10.55 13.9 -12.5 14.05 -13.4 16.5 -12.2 16.7 -12.65 L17.85 -17.0 Q17.8 -20.5 16.1 -23.3 M-19.1 10.0 L-17.5 10.1 Q-16.95 10.45 -15.1 11.2 L-14.25 11.55 -14.25 11.6 -16.45 11.3 Q-15.5 13.5 -15.9 14.85 L-13.3 15.3 -11.5 15.25 -10.05 14.85 -11.45 15.4 -11.5 15.25 -11.45 15.4 -13.7 15.75 -13.3 15.3 -13.7 15.75 -16.3 15.65 -16.9 15.55 -16.9 15.35 -16.3 15.65 -16.9 15.35 Q-16.7 10.4 -19.1 10.0 M-11.15 8.5 L-10.5 7.6 Q-9.25 6.25 -6.0 4.75 L-4.5 4.1 Q-7.0 5.35 -8.7 7.75 L-8.85 8.0 Q-9.65 9.1 -8.7 10.7 -6.9 12.55 -5.7 14.15 L-5.55 14.2 -5.9 15.0 -5.55 14.2 Q-3.9 14.95 -3.1 15.0 L-5.9 15.0 -9.3 11.55 -11.15 8.5 M-17.5 1.25 Q-16.7 0.35 -14.75 0.1 -18.1 2.0 -14.25 2.95 L-7.65 3.65 -3.75 3.75 -3.95 3.8 -4.8 3.95 -6.85 4.2 -7.65 3.65 -6.85 4.2 Q-11.5 4.6 -15.55 3.5 -17.3 3.1 -17.5 1.25 M16.2 -23.5 L16.1 -23.35 16.2 -23.5 M15.15 -21.55 L15.35 -21.9 15.15 -21.55 15.05 -21.6 Q14.35 -21.9 13.5 -21.6 12.4 -21.15 11.65 -19.95 10.85 -18.75 10.85 -17.55 10.85 -16.5 11.45 -15.9 L11.65 -15.75 11.95 -15.55 13.5 -15.65 Q14.6 -16.05 15.35 -17.2 16.15 -18.45 16.15 -19.65 16.15 -20.85 15.35 -21.4 L15.15 -21.55 M9.9 -8.65 L9.65 -8.85 8.75 -9.65 7.95 -10.3 8.75 -9.65 9.65 -8.85 9.9 -8.65 M11.25 -15.55 L10.25 -17.65 11.25 -15.55 M15.25 -21.95 L15.05 -21.6 15.25 -21.95 M9.35 -19.6 Q9.0 -18.65 9.0 -18.0 9.0 -15.75 7.5 -13.5 L6.2 -11.85 5.3 -12.6 6.2 -11.85 Q5.2 -10.85 4.0 -10.4 1.95 -9.6 0.5 -10.7 -0.15 -11.15 -0.55 -12.5 L-2.45 -10.25 -1.05 -14.05 Q-1.05 -15.65 -0.25 -17.3 L0.5 -18.6 Q1.95 -20.85 4.0 -21.65 6.05 -22.5 7.5 -21.4 7.6 -21.35 8.3 -21.8 L9.35 -19.6 8.3 -21.8 11.95 -24.7 Q10.0 -21.5 9.35 -19.6 M0.1 -17.05 L-0.25 -17.3 0.1 -17.05 Q-0.3 -16.0 -0.3 -14.95 -0.3 -13.0 1.0 -12.1 2.25 -11.15 4.0 -11.85 4.7 -12.1 5.3 -12.6 6.25 -13.3 7.0 -14.5 8.25 -16.4 8.25 -18.35 8.25 -20.3 7.0 -21.25 5.75 -22.15 4.0 -21.45 2.25 -20.75 1.0 -18.85 L0.1 -17.05 M6.2 -7.25 Q6.2 -8.0 5.7 -8.35 L4.55 -8.45 Q3.9 -8.2 3.4 -7.45 2.95 -6.7 2.95 -5.95 2.95 -5.2 3.4 -4.9 L4.55 -4.8 Q5.25 -5.05 5.7 -5.8 6.2 -6.5 6.2 -7.25 M6.7 -7.3 Q6.7 -6.3 6.05 -5.4 5.5 -4.45 4.55 -4.1 L3.05 -4.25 Q2.5 -4.65 2.5 -5.6 2.5 -6.6 3.05 -7.55 3.7 -8.55 4.55 -8.85 L6.05 -8.7 Q6.7 -8.25 6.7 -7.3 M5.3 6.85 L6.6 10.0 6.45 10.15 6.6 10.0 7.2 12.45 6.9 12.2 7.2 12.45 7.45 15.85 6.05 18.8 5.85 19.2 4.7 18.2 4.25 13.75 5.25 17.4 6.0 17.4 6.8 15.0 Q7.15 13.95 6.9 12.2 L6.45 10.15 5.3 6.85 M-10.5 7.6 L-8.85 8.0 -10.5 7.6 M-15.55 3.5 L-14.25 2.95 -15.55 3.5 M-15.1 11.2 L-14.25 11.6 -15.1 11.2 M-11.25 19.9 Q-8.3 19.45 -6.75 21.9 -4.25 21.75 -2.4 18.4 L-1.65 16.75 -2.1 18.3 -2.35 19.05 Q-3.75 22.2 -7.35 22.6 -9.05 19.8 -11.25 19.9 M-2.1 18.3 L-2.4 18.4 -2.1 18.3" fill="#bcb170" fill-rule="evenodd" stroke="none"/>
      <path d="M16.1 -23.3 Q17.8 -20.5 17.85 -17.0 L16.7 -12.65 Q16.5 -12.2 14.05 -13.4 13.9 -12.5 15.55 -10.55 14.2 -8.35 12.4 -6.55 L10.55 -8.1 8.95 -10.65 11.55 -14.8 13.35 -14.95 Q14.7 -15.4 15.55 -16.8 16.5 -18.25 16.5 -19.7 16.5 -21.1 15.55 -21.75 L15.35 -21.9 16.1 -23.3 M-11.5 19.95 Q-10.7 19.25 -9.25 18.75 L-7.9 18.35 Q-6.55 17.85 -5.35 17.0 L-2.95 15.0 -3.1 15.0 Q-3.9 14.95 -5.55 14.2 L-5.7 14.15 Q-6.9 12.55 -8.7 10.7 -9.65 9.1 -8.85 8.0 L-8.7 7.75 Q-7.0 5.35 -4.5 4.1 L-3.75 3.75 -7.65 3.65 -14.25 2.95 -10.95 1.5 -9.45 0.8 -8.85 0.9 -3.55 1.25 -0.95 0.75 1.45 3.05 2.7 3.35 Q4.25 4.95 5.3 6.85 L3.55 7.3 5.3 6.85 6.45 10.15 6.9 12.2 5.5 11.0 6.9 12.2 Q7.15 13.95 6.8 15.0 L6.0 17.4 5.25 17.4 4.25 13.75 4.1 12.25 3.55 7.3 3.55 5.85 0.2 11.1 0.0 11.45 -1.65 16.75 -2.4 18.4 Q-4.25 21.75 -6.75 21.9 -8.3 19.45 -11.25 19.9 L-11.5 19.95 M-17.5 10.1 L-16.1 10.65 -15.1 11.2 Q-16.95 10.45 -17.5 10.1 M-14.15 11.6 Q-12.55 12.25 -10.7 12.35 L-10.05 14.85 -11.5 15.25 -11.9 13.65 -14.15 11.6 -11.9 13.65 -11.5 15.25 -13.3 15.3 -15.9 14.85 Q-15.5 13.5 -16.45 11.3 L-14.25 11.6 -14.15 11.6 M-14.75 0.1 L-9.45 0.8 -10.95 1.5 -14.25 2.95 Q-18.1 2.0 -14.75 0.1 M-3.1 -8.4 Q-3.65 -13.8 -1.85 -18.65 L-1.75 -18.95 Q2.25 -24.3 6.5 -25.65 10.85 -27.1 15.45 -24.3 L16.1 -23.35 15.25 -21.95 13.35 -22.0 Q12.05 -21.45 11.15 -20.05 10.35 -18.85 10.25 -17.65 L10.2 -17.2 Q10.2 -15.9 11.0 -15.15 L7.95 -10.3 6.95 -11.2 6.2 -11.85 6.95 -11.2 -0.65 -7.9 7.1 -10.25 11.95 -6.15 Q8.1 -2.65 2.25 -0.85 -0.3 -2.8 -2.8 -7.0 L-3.1 -8.4 M9.35 -19.6 L10.25 -17.65 9.35 -19.6 Q10.0 -21.5 11.95 -24.7 L8.3 -21.8 Q7.6 -21.35 7.5 -21.4 6.05 -22.5 4.0 -21.65 1.95 -20.85 0.5 -18.6 L-0.25 -17.3 Q-1.05 -15.65 -1.05 -14.05 L-2.45 -10.25 -0.55 -12.5 Q-0.15 -11.15 0.5 -10.7 1.95 -9.6 4.0 -10.4 5.2 -10.85 6.2 -11.85 L7.5 -13.5 Q9.0 -15.75 9.0 -18.0 9.0 -18.65 9.35 -19.6 M-1.85 -18.65 L-0.25 -17.3 -1.85 -18.65 M6.7 -7.3 Q6.7 -8.25 6.05 -8.7 L4.55 -8.85 Q3.7 -8.55 3.05 -7.55 2.5 -6.6 2.5 -5.6 2.5 -4.65 3.05 -4.25 L4.55 -4.1 Q5.5 -4.45 6.05 -5.4 6.7 -6.3 6.7 -7.3 M6.5 -25.65 L8.3 -21.8 6.5 -25.65 M-1.0 4.65 L0.1 3.9 1.45 3.05 0.1 3.9 -1.0 4.65 -6.95 8.4 -3.4 9.2 0.2 11.1 -3.4 9.2 -6.95 8.4 -1.0 4.65 -1.55 3.9 -3.55 1.25 -1.55 3.9 -1.0 4.65 M5.5 11.0 L6.45 10.15 5.5 11.0 4.1 12.25 5.5 11.0 M-0.65 -7.9 L-2.8 -7.0 -0.65 -7.9 M-6.95 8.4 L-8.85 8.0 -6.95 8.4 M-13.3 15.3 L-11.9 13.65 -13.3 15.3 M-7.9 18.35 L-4.1 18.95 -2.4 18.4 -4.1 18.95 -7.9 18.35 M-3.4 9.2 L-5.55 14.2 -3.4 9.2 M-7.65 3.65 L-10.95 1.5 -7.65 3.65 M-1.55 3.9 L0.1 3.9 -1.55 3.9" fill="#a89e64" fill-rule="evenodd" stroke="none"/>
      <path d="M15.15 -21.55 L15.35 -21.4 Q16.15 -20.85 16.15 -19.65 16.15 -18.45 15.35 -17.2 14.6 -16.05 13.5 -15.65 L11.95 -15.55 11.65 -15.75 11.45 -15.9 Q10.85 -16.5 10.85 -17.55 10.85 -18.75 11.65 -19.95 12.4 -21.15 13.5 -21.6 14.35 -21.9 15.05 -21.6 L11.45 -15.9 15.05 -21.6 15.15 -21.55 M0.1 -17.05 L1.0 -18.85 Q2.25 -20.75 4.0 -21.45 5.75 -22.15 7.0 -21.25 8.25 -20.3 8.25 -18.35 8.25 -16.4 7.0 -14.5 6.25 -13.3 5.3 -12.6 L0.1 -17.05 5.3 -12.6 Q4.7 -12.1 4.0 -11.85 2.25 -11.15 1.0 -12.1 -0.3 -13.0 -0.3 -14.95 -0.3 -16.0 0.1 -17.05 M6.2 -7.25 Q6.2 -6.5 5.7 -5.8 5.25 -5.05 4.55 -4.8 L3.4 -4.9 Q2.95 -5.2 2.95 -5.95 2.95 -6.7 3.4 -7.45 3.9 -8.2 4.55 -8.45 L5.7 -8.35 Q6.2 -8.0 6.2 -7.25" fill="#000000" fill-rule="evenodd" stroke="none"/>
      <path d="M19.3 -8.0 L17.3 -12.35 18.95 -16.2 21.7 -16.2 21.7 -15.7 Q21.4 -12.85 19.3 -8.0 M10.6 0.65 Q9.05 0.55 5.3 3.4 L5.8 4.05 3.2 3.45 3.0 3.35 2.55 3.2 2.7 3.35 1.45 3.05 1.85 -0.05 1.9 -0.05 6.3 -1.15 10.6 0.65" fill="#5e5939" fill-rule="evenodd" stroke="none"/>
      <path d="M12.9 -6.1 L17.05 -10.75 19.3 -8.0 Q18.2 -5.95 15.8 -3.65 L13.0 -1.2 10.6 0.65 6.3 -1.15 Q9.45 -2.9 12.5 -5.75 L12.9 -6.1 14.1 -5.1 12.9 -6.1 M13.0 -1.2 L14.1 -5.1 15.8 -3.65 14.1 -5.1 13.0 -1.2" fill="#776c45" fill-rule="evenodd" stroke="none"/>
      <path d="M3.55 7.3 Q1.25 11.05 -0.65 17.0 L-0.75 17.8 Q-1.65 22.6 -5.65 25.3 -6.9 26.15 -8.15 26.15 -6.7 24.4 -7.35 22.6 -3.75 22.2 -2.35 19.05 L-2.1 18.3 -1.65 16.75 0.0 11.45 0.2 11.1 3.55 5.85 3.55 7.3 M-6.05 16.75 L-7.05 16.35 -8.65 15.25 -8.65 15.2 -10.7 12.35 Q-11.3 10.85 -11.3 9.0 L-11.15 8.5 -9.3 11.55 -5.9 15.0 -6.05 16.75 M-6.0 4.75 L-12.2 5.2 -14.95 5.15 -15.55 3.5 Q-11.5 4.6 -6.85 4.2 L-4.8 3.95 Q-6.5 4.25 -6.0 4.75 L-6.85 4.2 -6.0 4.75 M2.7 3.35 L2.55 3.2 3.0 3.35 2.7 3.35 M-0.75 17.8 L-2.1 18.3 -0.75 17.8" fill="#5f5a3a" fill-rule="evenodd" stroke="none"/>
      <path d="M5.8 4.05 Q7.05 6.35 7.65 9.1 L8.05 13.2 8.05 14.6 7.95 16.15 7.85 17.3 Q7.4 19.85 6.25 21.05 L6.05 18.8 7.45 15.85 7.2 12.45 6.6 10.0 5.3 6.85 5.8 4.05 5.3 6.85 Q4.25 4.95 2.7 3.35 L3.0 3.35 3.2 3.45 5.8 4.05 M-5.35 17.0 L-6.05 16.75 -5.9 15.0 -3.1 15.0 -2.95 15.0 -5.35 17.0 M-8.65 15.2 L-11.1 16.85 Q-13.3 17.9 -15.65 17.95 L-18.1 17.7 -19.35 17.3 Q-17.25 17.85 -16.9 15.55 L-16.3 15.65 -13.7 15.75 -14.5 16.65 -15.65 17.95 -14.5 16.65 -13.7 15.75 -11.45 15.4 -10.05 14.85 -10.7 12.35 -8.65 15.2 M7.65 9.1 L6.6 10.0 7.65 9.1 M8.05 13.2 L7.2 12.45 8.05 13.2 M-3.75 3.75 L-4.5 4.1 -6.0 4.75 Q-6.5 4.25 -4.8 3.95 L-3.95 3.8 -3.75 3.75 M-11.1 16.85 L-11.45 15.4 -11.1 16.85 M-16.3 15.65 L-14.5 16.65 -16.3 15.65" fill="#49462d" fill-rule="evenodd" stroke="none"/>
      <path d="M3.05 20.4 Q2.1 18.75 2.95 14.85 L3.35 12.85 3.55 7.3 4.1 12.25 4.25 13.75 4.7 18.2 3.05 20.4 M4.1 12.25 L3.35 12.85 4.1 12.25" fill="#9b925c" fill-rule="evenodd" stroke="none"/>
      <path d="M6.25 21.05 L5.45 21.65 Q3.75 21.65 3.05 20.4 L4.7 18.2 5.85 19.2 6.05 18.8 6.25 21.05 M-8.15 26.15 Q-9.55 26.15 -10.95 25.1 -13.5 21.75 -11.5 19.95 L-11.25 19.9 Q-9.05 19.8 -7.35 22.6 -6.7 24.4 -8.15 26.15 M-19.35 17.3 Q-21.35 16.4 -21.7 13.9 L-21.45 12.8 Q-20.85 10.3 -19.1 10.0 -16.7 10.4 -16.9 15.35 L-16.9 15.55 Q-17.25 17.85 -19.35 17.3 M-14.95 5.15 Q-17.0 4.8 -18.0 3.55 -18.25 2.1 -17.5 1.25 -17.3 3.1 -15.55 3.5 L-14.95 5.15 M-0.95 0.75 L-1.75 -2.05 Q-2.65 -4.75 -3.0 -7.3 L-3.1 -8.4 -2.8 -7.0 Q-1.95 -3.85 1.15 -0.3 0.7 1.65 1.45 3.05 1.45 -0.35 1.85 -0.05 L1.45 3.05 -0.95 0.75 M-21.45 12.8 L-16.9 15.35 -21.45 12.8" fill="#978957" fill-rule="evenodd" stroke="none"/>
      <path d="M16.2 -23.5 L16.35 -23.7 15.45 -24.3 16.2 -23.5 Q18.45 -20.85 18.65 -17.2 L20.2 -16.7 20.55 -16.55 21.7 -16.2 18.95 -16.2 17.3 -12.35 19.3 -8.0 17.05 -10.75 12.9 -6.1 14.1 -5.1 M16.2 -23.5 L16.1 -23.3 M12.4 -6.55 L12.9 -6.1 12.5 -5.75 Q9.45 -2.9 6.3 -1.15 L1.9 -0.05 1.85 -0.05 1.45 3.05 2.7 3.35 2.55 3.2 3.0 3.35 3.2 3.45 5.8 4.05 5.3 6.85 M15.8 -3.65 L13.0 -1.2 10.6 0.65 Q9.05 0.55 5.3 3.4 L5.8 4.05 Q7.05 6.35 7.65 9.1 L8.05 13.2 8.05 14.6 7.95 16.15 7.85 17.3 Q7.4 19.85 6.25 21.05 L5.45 21.65 Q3.75 21.65 3.05 20.4 2.1 18.75 2.95 14.85 L3.35 12.85 M-11.5 19.95 Q-10.7 19.25 -9.25 18.75 L-7.9 18.35 M-5.35 17.0 L-6.05 16.75 M-8.65 15.2 L-11.1 16.85 Q-13.3 17.9 -15.65 17.95 L-18.1 17.7 -19.35 17.3 M-14.25 11.55 L-14.15 11.6 -14.25 11.6 -15.1 11.2 M-11.15 8.5 L-10.5 7.6 Q-9.25 6.25 -6.0 4.75 L-12.2 5.2 -14.95 5.15 Q-17.0 4.8 -18.0 3.55 -18.25 2.1 -17.5 1.25 -16.7 0.35 -14.75 0.1 L-9.45 0.8 -8.85 0.9 -3.55 1.25 -0.95 0.75 -1.75 -2.05 Q-2.65 -4.75 -3.0 -7.3 L-3.1 -8.4 Q-3.65 -13.8 -1.85 -18.65 L-1.75 -18.95 Q2.25 -24.3 6.5 -25.65 10.85 -27.1 15.45 -24.3 M16.1 -23.35 L16.2 -23.5 M15.35 -21.9 L15.15 -21.55 M11.45 -15.9 L11.25 -15.55 11.0 -15.15 M9.9 -8.65 L10.55 -8.1 M15.05 -21.6 L15.25 -21.95 M11.45 -15.9 L15.05 -21.6 M-0.25 -17.3 L0.1 -17.05 5.3 -12.6 M6.6 10.0 L7.65 9.1 M1.45 3.05 L0.1 3.9 -1.0 4.65 M0.2 11.1 L3.55 5.85 3.55 7.3 M-1.65 16.75 L0.0 11.45 0.2 11.1 M6.45 10.15 L6.6 10.0 M7.2 12.45 L8.05 13.2 M6.45 10.15 L5.5 11.0 M6.9 12.2 L7.2 12.45 M-4.5 4.1 L-3.75 3.75 M-4.8 3.95 Q-6.5 4.25 -6.0 4.75 L-4.5 4.1 M-17.5 1.25 Q-17.3 3.1 -15.55 3.5 M-11.5 15.25 L-11.45 15.4 M-16.3 15.65 L-16.9 15.35 Q-16.7 10.4 -19.1 10.0 M-14.5 16.65 L-16.3 15.65 M-2.4 18.4 L-2.1 18.3 -1.65 16.75 M-5.9 15.0 L-5.55 14.2 M-7.35 22.6 Q-3.75 22.2 -2.35 19.05 L-2.1 18.3" fill="none" stroke="#000000" stroke-linecap="round" stroke-linejoin="round" stroke-opacity="0.3019608" stroke-width="0.1"/>
      <path d="M21.7 -16.2 Q21.75 -18.4 20.4 -20.15 L16.35 -23.7 M21.7 -16.2 L21.7 -15.7 Q21.4 -12.85 19.3 -8.0 18.2 -5.95 15.8 -3.65 L14.1 -5.1 13.0 -1.2 M3.35 12.85 L3.55 7.3 Q1.25 11.05 -0.65 17.0 L-0.75 17.8 Q-1.65 22.6 -5.65 25.3 -6.9 26.15 -8.15 26.15 -9.55 26.15 -10.95 25.1 -13.5 21.75 -11.5 19.95 M-7.9 18.35 Q-6.55 17.85 -5.35 17.0 M-6.05 16.75 L-7.05 16.35 -8.65 15.25 M-19.35 17.3 Q-21.35 16.4 -21.7 13.9 L-21.45 12.8 Q-20.85 10.3 -19.1 10.0 L-17.5 10.1 -16.1 10.65 -15.1 11.2 M-14.15 11.6 Q-12.55 12.25 -10.7 12.35 -11.3 10.85 -11.3 9.0 L-11.15 8.5 M11.0 -15.15 L7.95 -10.3 8.75 -9.65 9.65 -8.85 9.9 -8.65 M10.55 -8.1 L12.4 -6.55 M15.25 -21.95 L16.1 -23.35 M10.25 -17.65 L11.25 -15.55 M11.45 -15.9 Q10.85 -16.5 10.85 -17.55 10.85 -18.75 11.65 -19.95 12.4 -21.15 13.5 -21.6 14.35 -21.9 15.05 -21.6 M10.25 -17.65 L9.35 -19.6 8.3 -21.8 6.5 -25.65 M6.2 -11.85 L6.95 -11.2 7.95 -10.3 M5.3 -12.6 L6.2 -11.85 M-0.25 -17.3 L-1.85 -18.65 M-1.0 4.65 L-6.95 8.4 -3.4 9.2 0.2 11.1 M3.55 7.3 L5.3 6.85 M5.5 11.0 L6.9 12.2 M5.5 11.0 L4.1 12.25 3.35 12.85 M6.3 -1.15 L10.6 0.65 M-2.8 -7.0 L-0.65 -7.9 6.95 -11.2 M-1.0 4.65 L-1.55 3.9 -3.55 1.25 M-8.85 8.0 L-6.95 8.4 M-7.65 3.65 L-6.85 4.2 -6.0 4.75 M-8.85 8.0 L-10.5 7.6 M-14.25 2.95 L-15.55 3.5 -14.95 5.15 M-14.25 2.95 L-10.95 1.5 -9.45 0.8 M-14.15 11.6 L-11.9 13.65 -11.5 15.25 M-10.7 12.35 L-8.65 15.2 M-11.9 13.65 L-13.3 15.3 -13.7 15.75 -14.5 16.65 -15.65 17.95 M-11.45 15.4 L-10.05 14.85 M-11.45 15.4 L-11.1 16.85 M-16.9 15.35 L-16.9 15.55 Q-17.25 17.85 -19.35 17.3 M-2.4 18.4 L-4.1 18.95 -7.9 18.35 M-2.1 18.3 L-0.75 17.8 M-5.55 14.2 L-3.4 9.2 M-11.25 19.9 Q-9.05 19.8 -7.35 22.6 -6.7 24.4 -8.15 26.15 M-10.95 1.5 L-7.65 3.65 M-16.9 15.35 L-21.45 12.8 M0.1 3.9 L-1.55 3.9" fill="none" stroke="#000000" stroke-linecap="round" stroke-linejoin="round" stroke-opacity="0.3019608" stroke-width="0.30000000000000004"/>
    </g>
    <g id="sprite1" transform="matrix(1.0, 0.0, 0.0, 1.0, 46.25, 348.55)">
      <use height="533.4" transform="matrix(1.0, 0.0, 0.0, 1.0, -54.25, -356.55)" width="192.7" xlink:href="#shape2"/>
    </g>
    <g id="shape2" transform="matrix(1.0, 0.0, 0.0, 1.0, 54.25, 356.55)">
      <path d="M42.45 -42.35 Q35.4 -4.95 20.5 28.35 L42.45 -42.35" fill="#000000" fill-opacity="0.03529412" fill-rule="evenodd" stroke="none"/>
      <path d="M19.1 -20.6 Q2.0 24.0 -4.25 27.95 -7.1 20.2 3.45 -8.2 13.6 -33.6 22.55 -35.65 24.0 -32.9 19.1 -20.6 M48.15 -89.25 Q46.75 -65.05 42.45 -42.35 35.4 -4.95 20.5 28.35 L20.35 28.65 Q14.75 41.2 -0.4 66.9 M42.45 -42.35 L20.5 28.35 M23.35 -64.85 Q9.6 -30.05 -11.05 0.95 -17.5 10.65 -24.65 19.95 M42.15 -89.65 Q29.0 -9.6 -11.05 53.7 L-12.25 55.55" fill="none" stroke="#000000" stroke-linecap="round" stroke-linejoin="round" stroke-opacity="0.050980393" stroke-width="0.30000000000000004"/>
      <path d="M51.2 -67.6 L51.5 -62.9 51.7 -58.3 Q51.7 -44.9 49.15 -24.0 46.3 -0.7 41.35 22.55 28.65 82.1 9.05 111.15" fill="none" stroke="#000000" stroke-linecap="round" stroke-linejoin="round" stroke-opacity="0.050980393" stroke-width="1.0"/>
      <path d="M59.35 -27.85 Q58.65 30.4 40.6 90.45 33.95 112.55 26.15 130.85 19.5 146.25 15.1 152.35" fill="none" stroke="#000000" stroke-linecap="round" stroke-linejoin="round" stroke-opacity="0.050980393" stroke-width="1.0"/>
      <path d="M64.45 21.65 Q64.85 30.5 50.65 79.55 37.75 123.85 34.25 132.0" fill="none" stroke="#000000" stroke-linecap="round" stroke-linejoin="round" stroke-opacity="0.050980393" stroke-width="1.0"/>
      <path d="M33.45 -109.05 Q26.4 -103.05 18.6 -92.65 3.3 -72.25 -5.9 -42.7 -11.2 -25.6 -22.5 8.3 -29.25 28.5 -29.75 33.3" fill="none" stroke="#000000" stroke-linecap="round" stroke-linejoin="round" stroke-opacity="0.050980393" stroke-width="1.0"/>
      <path d="M27.55 -116.65 Q22.6 -111.45 14.65 -98.45 6.35 -84.9 -1.5 -68.8 -21.2 -28.55 -23.9 -3.55" fill="none" stroke="#000000" stroke-linecap="round" stroke-linejoin="round" stroke-opacity="0.050980393" stroke-width="1.0"/>
      <path d="M30.2 -222.05 Q31.65 -214.2 32.25 -207.85 34.0 -189.9 34.0 -161.7 L33.3 -143.3 Q32.5 -126.0 31.9 -119.8" fill="none" stroke="#000000" stroke-linecap="round" stroke-linejoin="round" stroke-opacity="0.050980393" stroke-width="1.0"/>
      <path d="M26.9 -169.15 L25.1 -142.6 22.95 -114.95" fill="none" stroke="#000000" stroke-linecap="round" stroke-linejoin="round" stroke-opacity="0.050980393" stroke-width="1.0"/>
      <path d="M22.95 -135.15 Q21.95 -145.65 19.45 -161.9 L14.85 -191.1 Q9.2 -229.5 9.2 -262.2 9.2 -264.1 9.7 -268.1 L10.5 -273.1" fill="none" stroke="#000000" stroke-linecap="round" stroke-linejoin="round" stroke-opacity="0.050980393" stroke-width="1.0"/>
      <path d="M17.7 -141.45 Q13.75 -159.0 10.6 -184.85 6.3 -219.85 6.3 -251.85 L6.6 -258.55 6.95 -267.35" fill="none" stroke="#000000" stroke-linecap="round" stroke-linejoin="round" stroke-opacity="0.050980393" stroke-width="1.0"/>
      <path d="M5.0 -295.55 Q5.25 -295.45 5.25 -292.8 4.3 -289.65 3.35 -283.85 1.45 -272.2 1.45 -257.5 1.45 -252.4 2.9 -222.6" fill="none" stroke="#000000" stroke-linecap="round" stroke-linejoin="round" stroke-opacity="0.050980393" stroke-width="1.0"/>
      <path d="M113.95 -203.3 Q111.15 -209.9 100.3 -218.5 88.75 -227.55 81.5 -227.55 76.1 -227.55 74.15 -225.6" fill="none" stroke="#000000" stroke-linecap="round" stroke-linejoin="round" stroke-opacity="0.050980393" stroke-width="1.0"/>
      <path d="M112.5 -219.3 Q108.55 -227.1 96.25 -235.2 81.85 -244.6 71.55 -241.6" fill="none" stroke="#000000" stroke-linecap="round" stroke-linejoin="round" stroke-opacity="0.050980393" stroke-width="1.0"/>
      <path d="M110.5 -240.7 Q108.2 -244.15 103.65 -248.15 98.15 -252.9 94.9 -252.9 L86.2 -252.0 Q81.4 -250.95 78.35 -248.85" fill="none" stroke="#000000" stroke-linecap="round" stroke-linejoin="round" stroke-opacity="0.050980393" stroke-width="1.0"/>
      <path d="M68.1 -311.45 Q69.65 -283.25 42.55 -247.25" fill="none" stroke="#000000" stroke-linecap="round" stroke-linejoin="round" stroke-opacity="0.050980393" stroke-width="1.0"/>
      <path d="M61.3 -329.7 Q61.8 -324.3 61.8 -320.35 61.8 -310.4 58.0 -299.15 54.45 -288.7 49.75 -282.95" fill="none" stroke="#000000" stroke-linecap="round" stroke-linejoin="round" stroke-opacity="0.050980393" stroke-width="1.0"/>
      <path d="M56.95 -332.05 Q54.8 -314.2 50.45 -299.15 47.9 -290.2 42.5 -276.3 37.45 -263.2 35.6 -256.25 32.6 -244.75 32.3 -231.75" fill="none" stroke="#000000" stroke-linecap="round" stroke-linejoin="round" stroke-opacity="0.050980393" stroke-width="1.0"/>
      <path d="M107.5 -106.95 Q104.85 -112.45 102.15 -115.4 96.55 -121.65 88.75 -121.65 L72.5 -122.8 Q62.0 -123.7 52.0 -122.7" fill="none" stroke="#000000" stroke-linecap="round" stroke-linejoin="round" stroke-opacity="0.050980393" stroke-width="1.0"/>
      <path d="M102.4 -105.25 Q103.95 -105.1 101.35 -105.1 L98.15 -107.5 94.5 -109.95 Q90.95 -112.9 86.85 -115.85 78.7 -121.8 73.65 -121.8 67.2 -121.8 60.6 -118.95 55.7 -116.85 47.8 -111.7" fill="none" stroke="#000000" stroke-linecap="round" stroke-linejoin="round" stroke-opacity="0.050980393" stroke-width="1.0"/>
      <path d="M106.95 -132.55 L101.75 -138.5 Q98.0 -142.4 95.05 -142.4 L85.3 -141.3 Q75.65 -139.4 70.1 -134.9" fill="none" stroke="#000000" stroke-linecap="round" stroke-linejoin="round" stroke-opacity="0.050980393" stroke-width="1.0"/>
      <path d="M39.0 -105.5 Q39.9 -108.5 40.5 -109.6 41.7 -111.85 45.0 -115.35" fill="none" stroke="#000000" stroke-linecap="round" stroke-linejoin="round" stroke-opacity="0.050980393" stroke-width="1.0"/>
    </g>
    <g id="sprite3" transform="matrix(1.0, 0.0, 0.0, 1.0, 0.0, 0.0)">
      <use height="26.7" transform="matrix(0.0042, -1.3515, 1.3935, 0.02, 22.09, 56.0263)" width="26.7" xlink:href="#sprite4"/>
      <use height="26.7" transform="matrix(0.0095, -3.0486, 0.372, 0.0053, 36.507, 81.3775)" width="26.7" xlink:href="#sprite4"/>
      <use height="26.7" transform="matrix(3.0486, 0.0095, -0.0053, 0.372, 0.1225, 35.107)" width="26.7" xlink:href="#sprite4"/>
    </g>
    <g id="sprite4" transform="matrix(1.0, 0.0, 0.0, 1.0, 13.35, 13.35)">
      <use height="26.7" transform="matrix(1.0, 0.0, 0.0, 1.0, -13.35, -13.35)" width="26.7" xlink:href="#shape3"/>
    </g>
    <g id="shape3" transform="matrix(1.0, 0.0, 0.0, 1.0, 13.35, 13.35)">
      <path d="M9.3 -9.85 Q13.35 -5.8 13.35 0.0 13.35 5.8 9.3 9.3 5.8 13.35 0.0 13.35 -5.8 13.35 -9.85 9.3 -13.35 5.8 -13.35 0.0 -13.35 -5.8 -9.85 -9.85 -5.8 -13.35 0.0 -13.35 5.8 -13.35 9.3 -9.85" fill="url(#gradient0)" fill-rule="evenodd" stroke="none"/>
    </g>
    <radialGradient cx="0" cy="0" gradientTransform="matrix(0.0213, 0.0, 0.0, 0.0213, 0.0, 0.0)" gradientUnits="userSpaceOnUse" id="gradient0" r="819.2" spreadMethod="pad">
      <stop offset="0.19607843137254902" stop-color="#fee3bc" stop-opacity="0.5372549"/>
      <stop offset="0.5019607843137255" stop-color="#fee3bc" stop-opacity="0.08627451"/>
      <stop offset="0.7607843137254902" stop-color="#ffe3bd" stop-opacity="0.0"/>
    </radialGradient>
  </defs>
</svg>
